<?xml version="1.0" encoding="utf-8"?>
<!-- Generator: Adobe Illustrator 15.1.0, SVG Export Plug-In . SVG Version: 6.00 Build 0)  -->
<!DOCTYPE svg PUBLIC "-//W3C//DTD SVG 1.1//EN" "http://www.w3.org/Graphics/SVG/1.1/DTD/svg11.dtd">
<svg version="1.1" id="Layer_1" xmlns="http://www.w3.org/2000/svg" xmlns:xlink="http://www.w3.org/1999/xlink" x="0px" y="0px"
	 width="433.7px" height="155.91px" viewBox="0 0 433.7 155.91" enable-background="new 0 0 433.7 155.91" xml:space="preserve">
<g>
	<defs>
		<rect id="SVGID_1_" x="22.677" y="22.68" width="391.934" height="110.551"/>
	</defs>
	<clipPath id="SVGID_2_">
		<use xlink:href="#SVGID_1_"  overflow="visible"/>
	</clipPath>
	<path clip-path="url(#SVGID_2_)" d="M218.368,98.578v9.884c0,0.71,0.095,1.154,0.291,1.338c0.197,0.184,0.648,0.275,1.359,0.275
		c1.937,0,3.358-0.632,4.267-1.891c0.741-1.041,1.11-2.337,1.11-3.891c0-1.816-0.468-3.253-1.408-4.301
		c-0.908-1.013-2.289-1.518-4.137-1.518C219.321,98.476,218.823,98.507,218.368,98.578 M213.979,98.578v-0.826
		c0.453-0.027,0.899-0.053,1.347-0.075l0.918-0.042c0.065,0,0.332-0.014,0.797-0.049c1.015-0.07,1.881-0.105,2.597-0.105
		c2.473,0,4.271,0.286,5.389,0.851c1.33,0.674,2.261,1.75,2.793,3.226c0.271,0.766,0.408,1.585,0.408,2.46
		c0,1.853-0.59,3.437-1.765,4.745c-1.291,1.441-3.44,2.16-6.444,2.16h-6.039v-0.824c0.605,0,1.029-0.082,1.271-0.241
		c0.329-0.211,0.493-0.624,0.493-1.239v-8.18c0-0.963-0.219-1.534-0.649-1.715C214.844,98.627,214.474,98.578,213.979,98.578
		 M209.319,100.822c-0.082-0.65-0.18-1.09-0.297-1.324c-0.197-0.387-0.537-0.578-1.012-0.578h-4.166v4.765h3.08
		c0.514,0,0.881-0.113,1.1-0.34c0.219-0.229,0.328-0.625,0.328-1.188h0.76v4.217h-0.76c0-0.758-0.201-1.221-0.609-1.387
		c-0.248-0.095-0.618-0.145-1.106-0.145h-2.792v3.815c0,0.388,0.035,0.649,0.104,0.786c0.093,0.208,0.293,0.311,0.603,0.311h3.173
		c0.692,0,1.199-0.173,1.52-0.515c0.291-0.304,0.513-0.854,0.668-1.646h0.715l-0.221,3.328h-11.439v-0.824h0.779
		c0.99,0,1.484-0.51,1.484-1.522v-8.448c0-0.625-0.139-1.048-0.418-1.271c-0.234-0.188-0.648-0.278-1.24-0.278h-0.188v-0.826h10.465
		l0.192,3.07H209.319z M185.849,98.578v9.884c0,0.71,0.096,1.154,0.291,1.338c0.196,0.184,0.649,0.275,1.358,0.275
		c1.938,0,3.358-0.632,4.269-1.891c0.74-1.041,1.11-2.337,1.11-3.891c0-1.816-0.468-3.253-1.409-4.301
		c-0.908-1.013-2.289-1.518-4.137-1.518C186.801,98.476,186.306,98.507,185.849,98.578 M181.461,98.578v-0.826
		c0.453-0.027,0.899-0.053,1.345-0.075l0.92-0.042c0.065,0,0.332-0.014,0.797-0.049c1.013-0.07,1.881-0.105,2.596-0.105
		c2.473,0,4.271,0.286,5.389,0.851c1.33,0.674,2.26,1.75,2.792,3.226c0.272,0.766,0.409,1.585,0.409,2.46
		c0,1.853-0.589,3.437-1.764,4.745c-1.291,1.441-3.441,2.16-6.446,2.16h-6.037v-0.824c0.604,0,1.028-0.082,1.269-0.241
		c0.33-0.211,0.494-0.624,0.494-1.239v-8.18c0-0.963-0.218-1.534-0.648-1.715C182.325,98.627,181.954,98.578,181.461,98.578
		 M166.485,100.377v8.001c0,0.864,0.244,1.383,0.73,1.563c0.271,0.103,0.656,0.156,1.153,0.156v0.824h-4.601v-0.824h0.11
		c0.494,0,0.847-0.09,1.058-0.263c0.26-0.197,0.39-0.557,0.39-1.073v-9.719c-0.402-0.31-0.908-0.465-1.523-0.465v-0.826h3.916
		l7.755,9.023v-6.398c0-0.959-0.219-1.514-0.65-1.665c-0.252-0.089-0.639-0.134-1.158-0.134h-0.188v-0.826h4.898v0.826h-0.186
		c-0.494,0-0.847,0.049-1.059,0.145c-0.332,0.158-0.5,0.469-0.5,0.932v11.332h-1.048L166.485,100.377z M155.989,98.578v-0.826h4.927
		v0.826h-0.14c-0.614,0-1.051,0.12-1.317,0.363c-0.285,0.269-0.427,0.733-0.427,1.394v5.272c0,1.874-0.473,3.29-1.42,4.238
		c-0.907,0.917-2.215,1.377-3.916,1.377c-1.611,0-2.905-0.36-3.875-1.076c-1.146-0.84-1.717-2.111-1.717-3.815v-6.316
		c0-0.559-0.095-0.936-0.287-1.138c-0.193-0.201-0.539-0.299-1.039-0.299h-0.325v-0.826h5.946v0.826h-0.323
		c-0.899,0-1.347,0.48-1.347,1.437v6.316c0,1.574,0.58,2.615,1.735,3.123c0.513,0.23,1.083,0.342,1.707,0.342
		c1.144,0,2.042-0.323,2.697-0.974c0.681-0.681,1.022-1.651,1.022-2.915v-5.149c0-1.005-0.211-1.657-0.633-1.955
		c-0.229-0.15-0.539-0.225-0.928-0.225H155.989z M137.537,98.92v4.765h2.644c0.84,0,1.346-0.201,1.51-0.61
		c0.096-0.219,0.14-0.533,0.14-0.939h0.763v4.219h-0.763c0-1.008-0.435-1.512-1.308-1.512h-2.985v3.412
		c0,0.953,0.157,1.518,0.472,1.698c0.174,0.095,0.439,0.146,0.799,0.146h0.359v0.824h-5.673v-0.824h0.304
		c0.409,0,0.697-0.093,0.864-0.27c0.165-0.18,0.251-0.494,0.251-0.942v-8.571c0-0.586-0.066-1.002-0.197-1.249
		c-0.177-0.339-0.507-0.508-0.98-0.508h-0.241v-0.806h9.59v2.985h-0.687c-0.033-0.617-0.105-1.048-0.223-1.281
		c-0.174-0.36-0.5-0.536-0.975-0.536H137.537z"/>
	<path clip-path="url(#SVGID_2_)" d="M395.892,76.243c-0.102,0-0.203-0.033-0.203-0.203v-0.61c0-4.365,0-5.416,0.066-6.33
		c0.069-1.016,0.305-1.422,1.118-1.557c0.339-0.069,0.609-0.102,0.847-0.102c0.373,0,0.541-0.102,0.541-0.306
		c0-0.203-0.203-0.27-0.61-0.27c-1.185,0-3.249,0.066-3.96,0.066c-0.812,0-2.775-0.066-4.366-0.066c-0.406,0-0.644,0.066-0.644,0.27
		c0,0.204,0.203,0.306,0.508,0.306c0.439,0,0.948,0.032,1.186,0.102c0.948,0.271,1.219,0.575,1.286,1.557
		c0.034,0.914,0.034,1.727,0.034,6.094v5.078c0,2.64,0,4.907-0.137,6.127c-0.101,0.846-0.27,1.388-0.88,1.522
		c-0.271,0.069-0.607,0.104-1.05,0.104c-0.372,0-0.472,0.168-0.472,0.303c0,0.203,0.201,0.311,0.574,0.311
		c1.185,0,3.147-0.101,3.824-0.101c0.847,0,2.911,0.101,4.841,0.101c0.374,0,0.61-0.107,0.61-0.311c0-0.135-0.135-0.303-0.474-0.303
		c-0.439,0-1.117-0.034-1.524-0.104c-0.88-0.135-1.049-0.677-1.15-1.489c-0.136-1.253-0.169-3.452-0.169-6.094v-2.199
		c0-0.136,0.102-0.17,0.203-0.17h11.238c0.068,0,0.169,0.067,0.169,0.17v2.199c0,2.642,0,4.841-0.136,6.061
		c-0.102,0.846-0.271,1.388-0.879,1.522c-0.271,0.069-0.61,0.104-1.083,0.104c-0.338,0-0.475,0.168-0.475,0.303
		c0,0.203,0.237,0.311,0.644,0.311c1.15,0,3.25-0.101,3.927-0.101c0.812,0,2.775,0.101,4.705,0.101c0.373,0,0.609-0.107,0.609-0.311
		c0-0.135-0.17-0.303-0.474-0.303c-0.475,0-1.117-0.034-1.523-0.104c-0.914-0.135-1.083-0.677-1.185-1.489
		c-0.136-1.253-0.136-3.521-0.136-6.16v-5.078c0-4.367,0-5.18,0.067-6.094c0.068-1.016,0.305-1.422,1.083-1.557
		c0.372-0.069,0.644-0.102,0.881-0.102c0.338,0,0.541-0.102,0.541-0.306c0-0.203-0.203-0.27-0.643-0.27
		c-1.151,0-3.115,0.066-3.826,0.066c-0.777,0-2.877-0.066-4.468-0.066c-0.439,0-0.643,0.066-0.643,0.27
		c0,0.204,0.168,0.306,0.507,0.306c0.407,0,0.915,0.032,1.151,0.102c0.947,0.271,1.218,0.575,1.286,1.557
		c0.033,0.914,0.067,1.965,0.067,6.33v0.61c0,0.17-0.101,0.203-0.169,0.203H395.892z M374.226,80.271c0,2.64,0,4.907-0.134,6.127
		c-0.102,0.846-0.271,1.388-0.881,1.522c-0.237,0.069-0.61,0.104-1.05,0.104c-0.372,0-0.474,0.168-0.474,0.303
		c0,0.203,0.204,0.311,0.576,0.311c1.185,0,3.215-0.101,3.893-0.101c0.846,0,2.843,0.101,4.807,0.101
		c0.338,0,0.575-0.107,0.575-0.311c0-0.135-0.134-0.303-0.474-0.303c-0.44,0-1.117-0.034-1.522-0.104
		c-0.88-0.135-1.051-0.677-1.151-1.489c-0.136-1.253-0.17-3.521-0.17-6.16V68.626l3.757,0.067c2.676,0.035,3.454,0.915,3.521,1.657
		l0.034,0.307c0.033,0.439,0.102,0.576,0.338,0.576c0.17,0,0.236-0.169,0.271-0.475c0-0.745,0.067-2.878,0.067-3.485
		c0-0.441-0.033-0.61-0.237-0.61c-0.102,0-0.338,0.067-0.812,0.135c-0.439,0.068-1.083,0.135-2.03,0.135h-12.085
		c-0.982,0-2.099-0.033-2.98-0.135c-0.743-0.101-1.049-0.338-1.285-0.338c-0.169,0-0.271,0.168-0.339,0.541
		c-0.067,0.237-0.643,3.013-0.643,3.487c0,0.304,0.067,0.475,0.271,0.475c0.201,0,0.27-0.137,0.338-0.373
		c0.067-0.203,0.203-0.576,0.508-0.981c0.438-0.645,1.149-0.847,2.878-0.88l4.433-0.103V80.271z M352.122,68.863
		c0-0.237,0.067-0.338,0.271-0.407c0.305-0.066,1.017-0.101,1.761-0.101c1.76,0,4.535,1.05,4.535,5.111
		c0,2.37-1.015,3.622-1.929,4.266c-0.509,0.373-0.914,0.474-2.099,0.474c-0.745,0-1.625-0.067-2.269-0.271
		c-0.203-0.102-0.271-0.203-0.271-0.509V68.863z M348.331,80.271c0,2.64,0,4.907-0.136,6.127c-0.103,0.846-0.271,1.388-0.881,1.522
		c-0.271,0.069-0.608,0.104-1.049,0.104c-0.373,0-0.474,0.168-0.474,0.303c0,0.203,0.203,0.311,0.575,0.311
		c1.185,0,3.08-0.101,3.655-0.101c0.44,0,2.912,0.101,4.639,0.101c0.372,0,0.608-0.107,0.608-0.311c0-0.135-0.135-0.303-0.372-0.303
		c-0.373,0-1.016-0.034-1.456-0.104c-0.913-0.135-1.049-0.677-1.15-1.522c-0.135-1.22-0.169-3.453-0.169-6.127v-0.407
		c0-0.169,0.101-0.236,0.236-0.236l2.675,0.067c0.204,0,0.372,0.034,0.541,0.204c0.373,0.438,1.626,2.369,2.81,3.927
		c1.658,2.232,2.776,3.588,4.063,4.23c0.778,0.406,1.59,0.581,3.25,0.581h2.843c0.372,0,0.575-0.066,0.575-0.311
		c0-0.135-0.136-0.303-0.372-0.303c-0.237,0-0.406,0-0.712-0.069c-0.474-0.102-1.522-0.237-3.182-1.896
		c-1.794-1.794-3.892-4.4-6.534-7.648c2.912-2.337,4.132-4.232,4.132-6.365c0-1.929-1.253-3.385-2.1-3.961
		c-1.591-1.049-3.758-1.218-5.653-1.218c-0.913,0-3.622,0.066-4.638,0.066c-0.609,0-2.505-0.066-4.062-0.066
		c-0.441,0-0.678,0.066-0.678,0.27c0,0.204,0.203,0.306,0.508,0.306c0.44,0,0.947,0.032,1.185,0.102
		c0.948,0.271,1.218,0.575,1.286,1.557c0.035,0.914,0.035,1.727,0.035,6.094V80.271z M331.507,87.448
		c-5.62,0-9.005-4.672-9.005-10.596c0-7.108,3.892-8.869,7.211-8.869c4.806,0,8.631,3.927,8.631,10.29
		C338.344,86.466,333.605,87.448,331.507,87.448 M330.288,89.01c7.685,0,12.491-5.184,12.491-11.786
		c0-6.601-4.673-10.764-12.188-10.764c-9.038,0-12.49,6.363-12.49,11.272C318.102,82.844,321.621,89.01,330.288,89.01
		 M292.577,87.955c0.271,0.751,0.44,1.055,0.812,1.055c0.44,0,0.61-0.339,1.151-1.528c1.218-2.642,5.213-12.83,5.721-14.049h0.068
		l6.059,14.185c0.44,1.054,0.644,1.393,1.049,1.393c0.44,0,0.609-0.339,0.948-1.359c1.456-4.298,4.502-13.438,5.89-17.061
		c0.61-1.66,0.949-2.743,1.659-3.013c0.339-0.104,0.744-0.136,1.049-0.136c0.271,0,0.406-0.136,0.406-0.339
		c0-0.17-0.203-0.236-0.541-0.236c-0.981,0-2.269,0.066-2.471,0.066c-0.271,0-1.625-0.066-3.182-0.066
		c-0.476,0-0.711,0.066-0.711,0.27c0,0.17,0.235,0.306,0.507,0.306c1.186,0,1.456,0.338,1.456,0.812
		c0,0.406-0.102,0.981-0.306,1.658c-1.049,3.352-3.316,10.933-3.892,12.594h-0.103l-5.957-14.218
		c-0.372-0.915-0.644-1.355-0.981-1.355c-0.271,0-0.575,0.238-0.88,1.051l-5.688,14.713h-0.101
		c-0.44-1.32-3.148-10.036-3.657-11.932c-0.371-1.321-0.643-2.274-0.643-2.646c0-0.305,0.034-0.473,0.306-0.575
		c0.236-0.069,0.507-0.102,0.744-0.102c0.305,0,0.542-0.102,0.542-0.306c0-0.203-0.204-0.27-0.644-0.27
		c-1.726,0-3.183,0.066-3.454,0.066c-0.27,0-1.929-0.066-3.452-0.066c-0.445,0-0.683,0.066-0.683,0.27
		c0,0.204,0.169,0.306,0.476,0.306c0.275,0,0.851,0.032,1.155,0.236c0.44,0.272,0.678,0.948,1.05,1.997L292.577,87.955z
		 M269.523,80.271c0,2.64,0,4.907-0.135,6.127c-0.102,0.846-0.27,1.388-0.88,1.522c-0.271,0.069-0.609,0.104-1.05,0.104
		c-0.372,0-0.474,0.168-0.474,0.303c0,0.203,0.202,0.311,0.575,0.311c0.61,0,1.354-0.033,2.065-0.066
		c0.71,0,1.354-0.041,1.693-0.041c0.879,0,1.996,0.041,3.451,0.074c1.456,0.066,3.25,0.102,5.485,0.102c1.116,0,1.387,0,1.59-0.751
		c0.169-0.576,0.407-2.539,0.407-3.182c0-0.306-0.034-0.678-0.271-0.678c-0.202,0-0.271,0.136-0.339,0.44
		c-0.204,1.185-0.541,1.794-1.286,2.132c-0.778,0.338-2.031,0.373-2.81,0.373c-3.047,0-3.96-0.44-4.028-2.403
		c-0.033-0.847,0-3.283,0-4.266v-2.301c0-0.17,0.033-0.306,0.169-0.306c0.745,0,4.13,0.068,4.673,0.136
		c1.116,0.102,1.488,0.542,1.657,1.117c0.068,0.371,0.068,0.744,0.102,1.05c0,0.135,0.068,0.236,0.271,0.236
		c0.272,0,0.306-0.405,0.306-0.643c0-0.203,0.068-1.355,0.136-1.93c0.169-1.455,0.236-1.931,0.236-2.099
		c0-0.17-0.102-0.305-0.236-0.305c-0.136,0-0.237,0.168-0.475,0.372c-0.271,0.305-0.711,0.372-1.422,0.438
		c-0.677,0.07-4.536,0.07-5.214,0.07c-0.169,0-0.202-0.137-0.202-0.306v-7.108c0-0.17,0.068-0.271,0.202-0.271
		c0.61,0,4.165,0.066,4.672,0.135c1.49,0.136,1.727,0.541,1.964,1.049c0.169,0.338,0.203,0.847,0.203,1.05
		c0,0.237,0.034,0.372,0.237,0.372c0.237,0,0.305-0.339,0.338-0.474c0.068-0.339,0.136-1.59,0.17-1.896
		c0.067-1.32,0.236-1.659,0.236-1.862c0-0.136-0.033-0.271-0.202-0.271c-0.136,0-0.305,0.103-0.475,0.136
		c-0.236,0.034-0.71,0.136-1.251,0.169c-0.576,0.035-7.179,0-8.125,0c-0.848,0-2.742-0.066-4.301-0.066
		c-0.439,0-0.677,0.066-0.677,0.27c0,0.204,0.204,0.306,0.509,0.306c0.439,0,0.947,0.032,1.185,0.102
		c0.947,0.271,1.219,0.575,1.287,1.557c0.032,0.914,0.032,1.727,0.032,6.094V80.271z M254.833,75.193c0-4.367,0-5.18,0.067-6.094
		c0.067-1.016,0.305-1.422,1.116-1.557c0.34-0.069,0.813-0.102,1.151-0.102c0.372,0,0.542-0.102,0.542-0.306
		c0-0.203-0.203-0.27-0.644-0.27c-1.15,0-3.588,0.066-4.299,0.066c-0.812,0-2.708-0.066-4.097-0.066
		c-0.439,0-0.643,0.066-0.643,0.27c0,0.204,0.17,0.306,0.509,0.306c0.372,0,0.744,0.032,0.98,0.102
		c0.948,0.271,1.22,0.575,1.286,1.557c0.035,0.914,0.035,1.727,0.035,6.094v5.078c0,2.64,0,4.907-0.136,6.127
		c-0.103,0.846-0.271,1.388-0.88,1.522c-0.272,0.069-0.609,0.104-1.05,0.104c-0.373,0-0.475,0.168-0.475,0.303
		c0,0.203,0.203,0.311,0.576,0.311c0.608,0,1.354-0.033,2.064-0.066c0.711,0,1.354-0.041,1.693-0.041
		c1.218,0,2.471,0.041,3.96,0.074c1.49,0.066,3.215,0.102,5.348,0.102c1.559,0,1.693-0.135,1.896-0.785
		c0.237-0.846,0.441-2.979,0.441-3.316c0-0.34-0.069-0.644-0.272-0.644c-0.236,0-0.304,0.169-0.338,0.44
		c-0.067,0.541-0.372,1.354-0.744,1.727c-0.745,0.778-1.896,0.812-3.488,0.812c-2.301,0-3.452-0.169-3.96-0.61
		c-0.643-0.541-0.643-2.369-0.643-6.059V75.193z M233.372,80.271c0,2.64,0,4.907-0.137,6.127c-0.102,0.846-0.271,1.388-0.879,1.522
		c-0.238,0.069-0.611,0.104-1.05,0.104c-0.372,0-0.475,0.168-0.475,0.303c0,0.203,0.202,0.311,0.575,0.311
		c1.185,0,3.216-0.101,3.894-0.101c0.847,0,2.843,0.101,4.806,0.101c0.34,0,0.576-0.107,0.576-0.311
		c0-0.135-0.135-0.303-0.474-0.303c-0.441,0-1.118-0.034-1.522-0.104c-0.881-0.135-1.05-0.677-1.152-1.489
		c-0.135-1.253-0.168-3.521-0.168-6.16V68.626l3.757,0.067c2.674,0.035,3.453,0.915,3.521,1.657l0.033,0.307
		c0.034,0.439,0.103,0.576,0.339,0.576c0.169,0,0.237-0.169,0.271-0.475c0-0.745,0.066-2.878,0.066-3.485
		c0-0.441-0.032-0.61-0.235-0.61c-0.103,0-0.339,0.067-0.813,0.135c-0.439,0.068-1.082,0.135-2.03,0.135h-12.086
		c-0.981,0-2.098-0.033-2.979-0.135c-0.744-0.101-1.049-0.338-1.286-0.338c-0.17,0-0.271,0.168-0.339,0.541
		c-0.068,0.237-0.645,3.013-0.645,3.487c0,0.304,0.07,0.475,0.272,0.475c0.204,0,0.271-0.137,0.338-0.373
		c0.067-0.203,0.203-0.576,0.509-0.981c0.439-0.645,1.15-0.847,2.877-0.88l4.436-0.103V80.271z M211.942,80.271
		c0,2.64,0,4.907-0.135,6.127c-0.103,0.846-0.271,1.388-0.879,1.522c-0.238,0.069-0.611,0.104-1.05,0.104
		c-0.373,0-0.474,0.168-0.474,0.303c0,0.203,0.201,0.311,0.574,0.311c1.186,0,3.215-0.101,3.893-0.101
		c0.847,0,2.845,0.101,4.807,0.101c0.34,0,0.576-0.107,0.576-0.311c0-0.135-0.134-0.303-0.475-0.303
		c-0.439,0-1.116-0.034-1.522-0.104c-0.88-0.135-1.049-0.677-1.151-1.489c-0.135-1.253-0.168-3.521-0.168-6.16V68.626l3.756,0.067
		c2.676,0.035,3.453,0.915,3.521,1.657l0.033,0.307c0.035,0.439,0.102,0.576,0.34,0.576c0.169,0,0.236-0.169,0.27-0.475
		c0-0.745,0.067-2.878,0.067-3.485c0-0.441-0.032-0.61-0.235-0.61c-0.102,0-0.34,0.067-0.812,0.135
		c-0.441,0.068-1.084,0.135-2.031,0.135h-12.086c-0.98,0-2.098-0.033-2.979-0.135c-0.744-0.101-1.049-0.338-1.286-0.338
		c-0.169,0-0.271,0.168-0.339,0.541c-0.068,0.237-0.643,3.013-0.643,3.487c0,0.304,0.067,0.475,0.27,0.475
		c0.205,0,0.271-0.137,0.339-0.373c0.067-0.203,0.204-0.576,0.509-0.981c0.439-0.645,1.15-0.847,2.876-0.88l4.435-0.103V80.271z
		 M180.969,79.425c0,4.163,1.185,6.296,2.709,7.616c2.166,1.902,5.247,1.969,6.804,1.969c1.93,0,4.196-0.304,6.295-2.069
		c2.506-2.065,2.845-5.45,2.845-8.667v-3.08c0-4.367,0.034-5.18,0.067-6.094c0.067-1.016,0.271-1.422,1.084-1.557
		c0.371-0.069,0.541-0.102,0.879-0.102c0.34,0,0.508-0.102,0.508-0.306c0-0.203-0.202-0.27-0.608-0.27
		c-1.151,0-3.149,0.066-3.487,0.066c-0.033,0-2.031-0.066-3.554-0.066c-0.407,0-0.61,0.066-0.61,0.27
		c0,0.204,0.17,0.306,0.508,0.306c0.339,0,0.847,0.032,1.084,0.102c0.947,0.271,1.185,0.575,1.252,1.557
		c0.033,0.914,0.068,1.727,0.068,6.094v3.622c0,2.945-0.068,5.449-1.727,7.008c-1.186,1.15-2.709,1.522-3.994,1.522
		c-1.016,0-2.438-0.102-3.759-1.15c-1.454-1.151-2.267-2.776-2.267-6.974v-4.028c0-4.367,0-5.18,0.067-6.094
		c0.067-1.016,0.304-1.422,1.083-1.557c0.372-0.069,0.541-0.102,0.88-0.102c0.306,0,0.474-0.102,0.474-0.306
		c0-0.203-0.203-0.27-0.643-0.27c-1.083,0-3.081,0.066-3.824,0.066c-0.881,0-2.879-0.066-4.47-0.066c-0.44,0-0.644,0.066-0.644,0.27
		c0,0.204,0.17,0.306,0.509,0.306c0.405,0,0.913,0.032,1.151,0.102c0.946,0.271,1.219,0.541,1.287,1.557
		c0.066,0.914,0.032,1.727,0.032,6.094V79.425z M157.104,76.243c-0.103,0-0.205-0.033-0.205-0.203v-0.61c0-4.365,0-5.416,0.068-6.33
		c0.068-1.016,0.305-1.422,1.117-1.557c0.339-0.069,0.609-0.102,0.847-0.102c0.373,0,0.541-0.102,0.541-0.306
		c0-0.203-0.202-0.27-0.608-0.27c-1.186,0-3.25,0.066-3.961,0.066c-0.812,0-2.776-0.066-4.367-0.066
		c-0.406,0-0.643,0.066-0.643,0.27c0,0.204,0.202,0.306,0.508,0.306c0.439,0,0.947,0.032,1.185,0.102
		c0.948,0.271,1.218,0.575,1.286,1.557c0.033,0.914,0.033,1.727,0.033,6.094v5.078c0,2.64,0,4.907-0.135,6.127
		c-0.102,0.846-0.271,1.388-0.88,1.522c-0.272,0.069-0.608,0.104-1.05,0.104c-0.372,0-0.473,0.168-0.473,0.303
		c0,0.203,0.201,0.311,0.574,0.311c1.185,0,3.148-0.101,3.824-0.101c0.848,0,2.912,0.101,4.842,0.101
		c0.373,0,0.609-0.107,0.609-0.311c0-0.135-0.135-0.303-0.475-0.303c-0.438,0-1.116-0.034-1.522-0.104
		c-0.881-0.135-1.049-0.677-1.151-1.489c-0.135-1.253-0.17-3.452-0.17-6.094v-2.199c0-0.136,0.103-0.17,0.205-0.17h11.238
		c0.066,0,0.168,0.067,0.168,0.17v2.199c0,2.642,0,4.841-0.135,6.061c-0.102,0.846-0.271,1.388-0.88,1.522
		c-0.271,0.069-0.609,0.104-1.083,0.104c-0.338,0-0.475,0.168-0.475,0.303c0,0.203,0.237,0.311,0.644,0.311
		c1.151,0,3.25-0.101,3.927-0.101c0.812,0,2.775,0.101,4.705,0.101c0.373,0,0.609-0.107,0.609-0.311
		c0-0.135-0.168-0.303-0.475-0.303c-0.473,0-1.115-0.034-1.523-0.104c-0.912-0.135-1.082-0.677-1.184-1.489
		c-0.137-1.253-0.137-3.521-0.137-6.16v-5.078c0-4.367,0-5.18,0.068-6.094c0.068-1.016,0.305-1.422,1.084-1.557
		c0.371-0.069,0.643-0.102,0.879-0.102c0.34,0,0.543-0.102,0.543-0.306c0-0.203-0.203-0.27-0.643-0.27
		c-1.152,0-3.115,0.066-3.826,0.066c-0.778,0-2.877-0.066-4.469-0.066c-0.439,0-0.643,0.066-0.643,0.27
		c0,0.204,0.169,0.306,0.507,0.306c0.407,0,0.915,0.032,1.151,0.102c0.947,0.271,1.219,0.575,1.287,1.557
		c0.033,0.914,0.066,1.965,0.066,6.33v0.61c0,0.17-0.102,0.203-0.168,0.203H157.104z M138.519,89.01
		c1.592,0,3.555-0.169,4.977-1.189c2.166-1.524,2.979-3.25,2.979-5.383c0-2.606-1.218-4.807-5.145-6.974l-1.219-0.677
		c-2.674-1.489-3.148-2.504-3.148-3.791c0-1.964,1.929-3.081,4.062-3.081c1.93,0,2.877,0.813,3.317,1.353
		c0.642,0.746,0.779,1.627,0.779,1.897c0,0.338,0.101,0.508,0.304,0.508c0.236,0,0.372-0.305,0.372-0.914
		c0-2.269,0.103-3.081,0.103-3.453c0-0.203-0.136-0.305-0.406-0.373c-0.779-0.202-2.303-0.473-4.232-0.473
		c-4.129,0-7.515,2.269-7.515,5.788c0,2.539,1.151,4.468,4.672,6.534l1.726,1.015c2.641,1.558,2.945,2.811,2.945,4.062
		c0,2.03-1.557,3.655-4.13,3.655c-1.861,0-4.097-0.711-4.739-2.843c-0.169-0.509-0.271-1.117-0.271-1.49
		c0-0.202-0.033-0.474-0.305-0.474c-0.236,0-0.371,0.305-0.371,0.745c-0.035,0.474-0.17,2.268-0.17,3.825
		c0,0.643,0.102,0.778,0.576,0.981C134.965,88.841,136.794,89.01,138.519,89.01"/>
	<path clip-path="url(#SVGID_2_)" d="M55.353,45.236c-17.533,8.383-28.415,24.28-27.811,38.765
		c0.486,11.612,9.5,26.01,24.404,34.874c-18.228,0.556-29.068-21.655-28.621-32.419c-2.6,12.52,1.939,36.144,25.967,44.678
		c7.916,2.811,22.713,3.246,29.32-1.514c11.424-8.228,6.825-19.558-2.578-27.276C65.144,93.405,55.59,87.488,50.099,75.356
		C46.37,67.121,45.028,56.85,55.353,45.236"/>
	<path clip-path="url(#SVGID_2_)" d="M64.699,83.957C49.273,68.144,52.494,57.453,62.36,43.752
		c4.595-6.381,9.13-12.755,8.367-21.073c23.484,25.07,1.52,33.258,13.054,46.088c1.631-7.077,6.612-14.474,13.565-19.799
		c-1.928,19.917,4.642,20.542,10.416,32.81c8.91,18.925-3.418,39.925-21.816,48.669c7.812-7.67,8.622-18.206-0.576-28.576
		C80.691,96.594,72.203,91.647,64.699,83.957"/>
</g>
</svg>
