G04 #@! TF.GenerationSoftware,KiCad,Pcbnew,7.0.6+dfsg-1*
G04 #@! TF.CreationDate,2023-08-24T18:37:01+02:00*
G04 #@! TF.ProjectId,USB,5553422e-6b69-4636-9164-5f7063625858,rev?*
G04 #@! TF.SameCoordinates,Original*
G04 #@! TF.FileFunction,Copper,L1,Top*
G04 #@! TF.FilePolarity,Positive*
%FSLAX46Y46*%
G04 Gerber Fmt 4.6, Leading zero omitted, Abs format (unit mm)*
G04 Created by KiCad (PCBNEW 7.0.6+dfsg-1) date 2023-08-24 18:37:01*
%MOMM*%
%LPD*%
G01*
G04 APERTURE LIST*
G04 Aperture macros list*
%AMRoundRect*
0 Rectangle with rounded corners*
0 $1 Rounding radius*
0 $2 $3 $4 $5 $6 $7 $8 $9 X,Y pos of 4 corners*
0 Add a 4 corners polygon primitive as box body*
4,1,4,$2,$3,$4,$5,$6,$7,$8,$9,$2,$3,0*
0 Add four circle primitives for the rounded corners*
1,1,$1+$1,$2,$3*
1,1,$1+$1,$4,$5*
1,1,$1+$1,$6,$7*
1,1,$1+$1,$8,$9*
0 Add four rect primitives between the rounded corners*
20,1,$1+$1,$2,$3,$4,$5,0*
20,1,$1+$1,$4,$5,$6,$7,0*
20,1,$1+$1,$6,$7,$8,$9,0*
20,1,$1+$1,$8,$9,$2,$3,0*%
G04 Aperture macros list end*
G04 #@! TA.AperFunction,SMDPad,CuDef*
%ADD10R,1.000000X1.000000*%
G04 #@! TD*
G04 #@! TA.AperFunction,SMDPad,CuDef*
%ADD11RoundRect,0.218750X0.256250X-0.218750X0.256250X0.218750X-0.256250X0.218750X-0.256250X-0.218750X0*%
G04 #@! TD*
G04 #@! TA.AperFunction,SMDPad,CuDef*
%ADD12RoundRect,0.218750X-0.256250X0.218750X-0.256250X-0.218750X0.256250X-0.218750X0.256250X0.218750X0*%
G04 #@! TD*
G04 #@! TA.AperFunction,SMDPad,CuDef*
%ADD13RoundRect,0.218750X-0.218750X-0.256250X0.218750X-0.256250X0.218750X0.256250X-0.218750X0.256250X0*%
G04 #@! TD*
G04 #@! TA.AperFunction,SMDPad,CuDef*
%ADD14RoundRect,0.450000X0.450000X-0.800000X0.450000X0.800000X-0.450000X0.800000X-0.450000X-0.800000X0*%
G04 #@! TD*
G04 #@! TA.AperFunction,ComponentPad*
%ADD15R,1.700000X1.700000*%
G04 #@! TD*
G04 #@! TA.AperFunction,ComponentPad*
%ADD16O,1.700000X1.700000*%
G04 #@! TD*
G04 #@! TA.AperFunction,ComponentPad*
%ADD17R,1.600000X1.600000*%
G04 #@! TD*
G04 #@! TA.AperFunction,ComponentPad*
%ADD18C,1.600000*%
G04 #@! TD*
G04 #@! TA.AperFunction,ComponentPad*
%ADD19C,3.000000*%
G04 #@! TD*
G04 #@! TA.AperFunction,ComponentPad*
%ADD20R,1.800000X1.800000*%
G04 #@! TD*
G04 #@! TA.AperFunction,ComponentPad*
%ADD21C,1.800000*%
G04 #@! TD*
G04 #@! TA.AperFunction,SMDPad,CuDef*
%ADD22RoundRect,0.218750X0.218750X0.256250X-0.218750X0.256250X-0.218750X-0.256250X0.218750X-0.256250X0*%
G04 #@! TD*
G04 #@! TA.AperFunction,ComponentPad*
%ADD23RoundRect,0.249200X0.450800X0.450800X-0.450800X0.450800X-0.450800X-0.450800X0.450800X-0.450800X0*%
G04 #@! TD*
G04 #@! TA.AperFunction,ComponentPad*
%ADD24C,1.400000*%
G04 #@! TD*
G04 #@! TA.AperFunction,SMDPad,CuDef*
%ADD25R,0.900000X0.800000*%
G04 #@! TD*
G04 #@! TA.AperFunction,ViaPad*
%ADD26C,0.600000*%
G04 #@! TD*
G04 #@! TA.AperFunction,ViaPad*
%ADD27C,0.800000*%
G04 #@! TD*
G04 #@! TA.AperFunction,Conductor*
%ADD28C,0.200000*%
G04 #@! TD*
G04 #@! TA.AperFunction,Conductor*
%ADD29C,0.250000*%
G04 #@! TD*
G04 #@! TA.AperFunction,Conductor*
%ADD30C,0.500000*%
G04 #@! TD*
G04 APERTURE END LIST*
D10*
X131364000Y-97608000D03*
X128864000Y-97608000D03*
X128844000Y-99568000D03*
X131344000Y-99568000D03*
X131404000Y-93638000D03*
X128904000Y-93638000D03*
X137899000Y-94163000D03*
X140399000Y-94163000D03*
X156364000Y-97608000D03*
X153864000Y-97608000D03*
X153844000Y-99568000D03*
X156344000Y-99568000D03*
X153904000Y-95628000D03*
X156404000Y-95628000D03*
X162899000Y-94163000D03*
X165399000Y-94163000D03*
D11*
X134789000Y-99115500D03*
X134789000Y-97540500D03*
D12*
X134789000Y-94520500D03*
X134789000Y-96095500D03*
D13*
X137864000Y-95920500D03*
X139439000Y-95920500D03*
D11*
X159789000Y-99115500D03*
X159789000Y-97540500D03*
X161334000Y-99123000D03*
X161334000Y-97548000D03*
D13*
X162864000Y-95920500D03*
X164439000Y-95920500D03*
D14*
X148336000Y-85058000D03*
X148336000Y-81058000D03*
D11*
X136339000Y-99125500D03*
X136339000Y-97550500D03*
D15*
X126238000Y-107950000D03*
D16*
X123698000Y-107950000D03*
X126238000Y-105410000D03*
X123698000Y-105410000D03*
X126238000Y-102870000D03*
X123698000Y-102870000D03*
X126238000Y-100330000D03*
X123698000Y-100330000D03*
X126238000Y-97790000D03*
X123698000Y-97790000D03*
X126238000Y-95250000D03*
X123698000Y-95250000D03*
X126238000Y-92710000D03*
X123698000Y-92710000D03*
X126238000Y-90170000D03*
X123698000Y-90170000D03*
X126238000Y-87630000D03*
X123698000Y-87630000D03*
X126238000Y-85090000D03*
X123698000Y-85090000D03*
X126238000Y-82550000D03*
X123698000Y-82550000D03*
X126238000Y-80010000D03*
X123698000Y-80010000D03*
D10*
X162911500Y-99190500D03*
X165411500Y-99190500D03*
D14*
X152400000Y-85058000D03*
X152400000Y-81058000D03*
D11*
X136339000Y-96098000D03*
X136339000Y-94523000D03*
D13*
X162864000Y-97450500D03*
X164439000Y-97450500D03*
D17*
X140600000Y-91100000D03*
D18*
X138100000Y-91100000D03*
X136100000Y-91100000D03*
X133600000Y-91100000D03*
D19*
X143670000Y-88390000D03*
X130530000Y-88390000D03*
D17*
X166624000Y-91186000D03*
D18*
X164124000Y-91186000D03*
X162124000Y-91186000D03*
X159624000Y-91186000D03*
D19*
X169694000Y-88476000D03*
X156554000Y-88476000D03*
D10*
X137911500Y-99190500D03*
X140411500Y-99190500D03*
X128904000Y-95628000D03*
X131404000Y-95628000D03*
X156404000Y-93698000D03*
X153904000Y-93698000D03*
D13*
X137864000Y-97450500D03*
X139439000Y-97450500D03*
D20*
X150800000Y-103500000D03*
D21*
X148260000Y-103500000D03*
D15*
X172212000Y-96520000D03*
D16*
X172212000Y-99060000D03*
X172212000Y-101600000D03*
X172212000Y-104140000D03*
X172212000Y-106680000D03*
D22*
X145501500Y-108108000D03*
X143926500Y-108108000D03*
D23*
X137314000Y-107848000D03*
D24*
X134774000Y-107848000D03*
X129694000Y-107848000D03*
D20*
X155700000Y-103500000D03*
D21*
X153160000Y-103500000D03*
D20*
X145900000Y-103500000D03*
D21*
X143360000Y-103500000D03*
D25*
X139764000Y-106768000D03*
X139764000Y-108668000D03*
X141764000Y-107718000D03*
D11*
X161344000Y-96098000D03*
X161344000Y-94523000D03*
D12*
X159789000Y-94520500D03*
X159789000Y-96095500D03*
D26*
X133938500Y-99438500D03*
X132204000Y-98308000D03*
X136224000Y-99978000D03*
X132204000Y-100008000D03*
X133894000Y-97078000D03*
X165434000Y-99988000D03*
X138924000Y-109138000D03*
X140384000Y-93358000D03*
X165464000Y-93228000D03*
X140334000Y-100018000D03*
X159534000Y-100048000D03*
X157304000Y-97588000D03*
X150014000Y-108138000D03*
X132884000Y-96368000D03*
X161294000Y-99948000D03*
X157194000Y-99588000D03*
X151873479Y-96628521D03*
X152474521Y-96027479D03*
X134014000Y-101803000D03*
X134014000Y-100953000D03*
X169484000Y-99718000D03*
D27*
X132921536Y-82674990D03*
X135300000Y-79400000D03*
D26*
X139824000Y-105848000D03*
X141569000Y-97888000D03*
X140719000Y-97888000D03*
X166579000Y-97898000D03*
X165729000Y-97898000D03*
D28*
X128844000Y-99568000D02*
X128216000Y-98940000D01*
X124848000Y-98940000D02*
X123698000Y-97790000D01*
X128216000Y-98940000D02*
X124848000Y-98940000D01*
X128844000Y-97628000D02*
X128864000Y-97608000D01*
X128844000Y-99568000D02*
X128844000Y-97628000D01*
X131504000Y-97608000D02*
X132204000Y-98308000D01*
X131364000Y-97608000D02*
X131504000Y-97608000D01*
X133938500Y-99438500D02*
X134466000Y-99438500D01*
X134466000Y-99438500D02*
X134789000Y-99115500D01*
X131764000Y-99568000D02*
X131344000Y-99568000D01*
X136224000Y-99978000D02*
X136224000Y-99240500D01*
X132204000Y-100008000D02*
X131764000Y-99568000D01*
X136224000Y-99240500D02*
X136339000Y-99125500D01*
X127092000Y-97790000D02*
X126238000Y-97790000D01*
X128904000Y-93638000D02*
X128904000Y-95628000D01*
X128904000Y-95978000D02*
X127092000Y-97790000D01*
X128904000Y-95628000D02*
X128904000Y-95978000D01*
X135454000Y-93638000D02*
X131404000Y-93638000D01*
X135454000Y-93638000D02*
X136339000Y-94523000D01*
X131404000Y-95628000D02*
X133681500Y-95628000D01*
X133681500Y-95628000D02*
X134789000Y-94520500D01*
X137774000Y-97540500D02*
X137864000Y-97450500D01*
X137864000Y-97450500D02*
X137864000Y-99143000D01*
X133681500Y-97540500D02*
X133339000Y-97883000D01*
X134789000Y-97540500D02*
X133681500Y-97540500D01*
X133339000Y-100473000D02*
X132184000Y-101628000D01*
X134789000Y-97540500D02*
X134356500Y-97540500D01*
X137864000Y-99143000D02*
X137911500Y-99190500D01*
X134356500Y-97540500D02*
X133894000Y-97078000D01*
X134789000Y-97540500D02*
X137774000Y-97540500D01*
X124996000Y-101628000D02*
X123698000Y-100330000D01*
X133339000Y-97883000D02*
X133339000Y-100473000D01*
X132184000Y-101628000D02*
X124996000Y-101628000D01*
X140411500Y-99190500D02*
X140411500Y-99940500D01*
X140411500Y-99940500D02*
X140334000Y-100018000D01*
D29*
X165411500Y-99965500D02*
X165434000Y-99988000D01*
X165399000Y-93293000D02*
X165464000Y-93228000D01*
D28*
X140399000Y-93373000D02*
X140384000Y-93358000D01*
X139764000Y-108668000D02*
X139394000Y-108668000D01*
X140399000Y-94163000D02*
X140399000Y-93373000D01*
D29*
X165411500Y-99190500D02*
X165411500Y-99965500D01*
D28*
X139394000Y-108668000D02*
X138924000Y-109138000D01*
D29*
X165399000Y-94163000D02*
X165399000Y-93293000D01*
D28*
X159534000Y-100048000D02*
X159534000Y-99370500D01*
X157284000Y-97608000D02*
X157304000Y-97588000D01*
X156364000Y-97608000D02*
X157284000Y-97608000D01*
X159534000Y-99370500D02*
X159789000Y-99115500D01*
D30*
X161546000Y-85058000D02*
X166624000Y-90136000D01*
X161546000Y-85058000D02*
X152400000Y-85058000D01*
D29*
X145501500Y-108108000D02*
X149984000Y-108108000D01*
D30*
X172212000Y-86996000D02*
X166244000Y-81028000D01*
X140600000Y-87552000D02*
X140600000Y-91100000D01*
D28*
X152400000Y-81058000D02*
X152442000Y-81100000D01*
D29*
X123698000Y-80010000D02*
X126238000Y-80010000D01*
D30*
X152400000Y-85058000D02*
X152400000Y-81058000D01*
X143094000Y-85058000D02*
X148336000Y-85058000D01*
X143094000Y-85058000D02*
X140600000Y-87552000D01*
X148336000Y-81058000D02*
X152400000Y-81058000D01*
X126238000Y-80010000D02*
X127286000Y-81058000D01*
X148336000Y-85058000D02*
X148336000Y-81058000D01*
X166244000Y-81028000D02*
X152430000Y-81028000D01*
D29*
X149984000Y-108108000D02*
X150014000Y-108138000D01*
D30*
X172212000Y-96520000D02*
X172212000Y-86996000D01*
X166624000Y-90136000D02*
X166624000Y-91186000D01*
X152430000Y-81028000D02*
X152400000Y-81058000D01*
X127286000Y-81058000D02*
X148336000Y-81058000D01*
D28*
X137686500Y-96098000D02*
X137864000Y-95920500D01*
X137864000Y-94198000D02*
X137899000Y-94163000D01*
X137864000Y-95920500D02*
X137864000Y-94198000D01*
X133156500Y-96095500D02*
X132884000Y-96368000D01*
X127136000Y-101228000D02*
X126238000Y-100330000D01*
X136336500Y-96095500D02*
X136339000Y-96098000D01*
X133994750Y-96095500D02*
X132889000Y-97201250D01*
X134789000Y-96095500D02*
X136336500Y-96095500D01*
X131904000Y-101228000D02*
X127136000Y-101228000D01*
X132889000Y-97201250D02*
X132889000Y-100243000D01*
X134789000Y-96095500D02*
X133156500Y-96095500D01*
X134789000Y-96095500D02*
X133994750Y-96095500D01*
X136339000Y-96098000D02*
X137686500Y-96098000D01*
X132889000Y-100243000D02*
X131904000Y-101228000D01*
X161294000Y-99948000D02*
X161294000Y-99163000D01*
X161294000Y-99163000D02*
X161334000Y-99123000D01*
X156344000Y-99568000D02*
X157174000Y-99568000D01*
X157174000Y-99568000D02*
X157194000Y-99588000D01*
X152156322Y-96628521D02*
X152390802Y-96863001D01*
X153844000Y-97628000D02*
X153864000Y-97608000D01*
X151873479Y-96628521D02*
X152156322Y-96628521D01*
X153119001Y-96863001D02*
X153864000Y-97608000D01*
X152390802Y-96863001D02*
X153119001Y-96863001D01*
X153844000Y-99568000D02*
X153844000Y-97628000D01*
X156404000Y-93638000D02*
X160459000Y-93638000D01*
X160459000Y-93638000D02*
X161344000Y-94523000D01*
X153904000Y-95628000D02*
X153904000Y-93638000D01*
X152474521Y-96027479D02*
X152474521Y-96310322D01*
X152474521Y-96310322D02*
X152577198Y-96412999D01*
X153119001Y-96412999D02*
X153904000Y-95628000D01*
X152577198Y-96412999D02*
X153119001Y-96412999D01*
X156404000Y-95628000D02*
X158681500Y-95628000D01*
X158681500Y-95628000D02*
X159789000Y-94520500D01*
D29*
X145900000Y-103500000D02*
X148260000Y-103500000D01*
D28*
X162911500Y-97498000D02*
X162864000Y-97450500D01*
X159789000Y-97540500D02*
X162774000Y-97540500D01*
X162774000Y-97540500D02*
X162864000Y-97450500D01*
X162911500Y-99190500D02*
X162911500Y-97498000D01*
X159789000Y-97540500D02*
X159051107Y-97540500D01*
D29*
X127413000Y-109125000D02*
X127413000Y-108404000D01*
D28*
X158294000Y-100451554D02*
X157059723Y-101685831D01*
X158294000Y-98297607D02*
X158294000Y-100451554D01*
D29*
X127413000Y-108404000D02*
X134014000Y-101803000D01*
D28*
X134131169Y-101685831D02*
X134014000Y-101803000D01*
D29*
X123698000Y-107950000D02*
X124873000Y-109125000D01*
X124873000Y-109125000D02*
X127413000Y-109125000D01*
D28*
X159051107Y-97540500D02*
X158294000Y-98297607D01*
X157059723Y-101685831D02*
X134131169Y-101685831D01*
X156852615Y-101185831D02*
X134246831Y-101185831D01*
X162899000Y-95885500D02*
X162864000Y-95920500D01*
X157794000Y-98090500D02*
X157794000Y-100244446D01*
X134246831Y-101185831D02*
X134014000Y-100953000D01*
X157794000Y-100244446D02*
X156852615Y-101185831D01*
D29*
X126238000Y-107950000D02*
X126983116Y-107950000D01*
X133980116Y-100953000D02*
X134014000Y-100953000D01*
D28*
X159789000Y-96095500D02*
X157794000Y-98090500D01*
X162899000Y-94163000D02*
X162899000Y-95885500D01*
X162689000Y-96095500D02*
X162864000Y-95920500D01*
X159789000Y-96095500D02*
X162689000Y-96095500D01*
D29*
X126983116Y-107950000D02*
X133980116Y-100953000D01*
D28*
X169484000Y-99718000D02*
X169484000Y-101412000D01*
X169484000Y-101412000D02*
X172212000Y-104140000D01*
D29*
X173387001Y-100424999D02*
X173387001Y-85987001D01*
X135382990Y-79482990D02*
X135300000Y-79400000D01*
X173387001Y-85987001D02*
X166882990Y-79482990D01*
X126238000Y-85090000D02*
X128653010Y-82674990D01*
X172212000Y-101600000D02*
X173387001Y-100424999D01*
X132355851Y-82674990D02*
X132921536Y-82674990D01*
X166882990Y-79482990D02*
X135382990Y-79482990D01*
X128653010Y-82674990D02*
X132355851Y-82674990D01*
D28*
X139824000Y-105848000D02*
X139824000Y-106708000D01*
X139824000Y-106708000D02*
X139764000Y-106768000D01*
X140763733Y-96289533D02*
X139808033Y-96289533D01*
X141369001Y-96894801D02*
X140763733Y-96289533D01*
X141569000Y-97888000D02*
X141369001Y-97688001D01*
X139808033Y-96289533D02*
X139439000Y-95920500D01*
X141369001Y-97688001D02*
X141369001Y-96894801D01*
X140577333Y-96739533D02*
X140149967Y-96739533D01*
X140719000Y-97888000D02*
X140918999Y-97688001D01*
X140918999Y-97688001D02*
X140918999Y-97081199D01*
X140149967Y-96739533D02*
X139439000Y-97450500D01*
X140918999Y-97081199D02*
X140577333Y-96739533D01*
X165274700Y-95920500D02*
X164439000Y-95920500D01*
X166379001Y-97024801D02*
X165274700Y-95920500D01*
X166579000Y-97898000D02*
X166379001Y-97698001D01*
X163420000Y-91001000D02*
X163870000Y-90551000D01*
X166379001Y-97698001D02*
X166379001Y-97024801D01*
X165928999Y-97211199D02*
X165614900Y-96897100D01*
X165729000Y-97898000D02*
X165928999Y-97698001D01*
X164992400Y-96897100D02*
X164439000Y-97450500D01*
X165614900Y-96897100D02*
X164992400Y-96897100D01*
X165928999Y-97698001D02*
X165928999Y-97211199D01*
X143360000Y-107541500D02*
X143360000Y-103500000D01*
X143926500Y-108108000D02*
X143360000Y-107541500D01*
D29*
X150800000Y-103500000D02*
X153160000Y-103500000D01*
X143164000Y-109118000D02*
X150082000Y-109118000D01*
X141764000Y-107718000D02*
X143164000Y-109118000D01*
X150082000Y-109118000D02*
X155700000Y-103500000D01*
M02*
