G04 #@! TF.GenerationSoftware,KiCad,Pcbnew,7.0.6+dfsg-1*
G04 #@! TF.CreationDate,2023-08-24T18:37:02+02:00*
G04 #@! TF.ProjectId,USB,5553422e-6b69-4636-9164-5f7063625858,rev?*
G04 #@! TF.SameCoordinates,Original*
G04 #@! TF.FileFunction,OtherDrawing,Comment*
%FSLAX46Y46*%
G04 Gerber Fmt 4.6, Leading zero omitted, Abs format (unit mm)*
G04 Created by KiCad (PCBNEW 7.0.6+dfsg-1) date 2023-08-24 18:37:02*
%MOMM*%
%LPD*%
G01*
G04 APERTURE LIST*
%ADD10C,0.200000*%
%ADD11C,0.300000*%
G04 APERTURE END LIST*
D10*
X161165450Y-103432000D02*
G75*
G03*
X157990550Y-103432000I-1587450J-200000D01*
G01*
X141178000Y-103632000D02*
G75*
G03*
X141178000Y-103632000I-1600000J0D01*
G01*
X119577999Y-103432000D02*
X119578000Y-83632000D01*
X157990549Y-103832001D02*
G75*
G03*
X161165451Y-103831999I1587451J200001D01*
G01*
X119578000Y-78632000D02*
X119578000Y-103432000D01*
X119578000Y-103832000D02*
X119578000Y-103632000D01*
X137990549Y-103832001D02*
G75*
G03*
X141165451Y-103831999I1587451J200001D01*
G01*
X141165450Y-103432000D02*
G75*
G03*
X137990550Y-103432000I-1587450J-200000D01*
G01*
X119578000Y-103632000D02*
X119577999Y-103432000D01*
D11*
X176322328Y-101233998D02*
X176322328Y-100305426D01*
X176322328Y-100305426D02*
X176893757Y-100805426D01*
X176893757Y-100805426D02*
X176893757Y-100591141D01*
X176893757Y-100591141D02*
X176965185Y-100448284D01*
X176965185Y-100448284D02*
X177036614Y-100376855D01*
X177036614Y-100376855D02*
X177179471Y-100305426D01*
X177179471Y-100305426D02*
X177536614Y-100305426D01*
X177536614Y-100305426D02*
X177679471Y-100376855D01*
X177679471Y-100376855D02*
X177750900Y-100448284D01*
X177750900Y-100448284D02*
X177822328Y-100591141D01*
X177822328Y-100591141D02*
X177822328Y-101019712D01*
X177822328Y-101019712D02*
X177750900Y-101162569D01*
X177750900Y-101162569D02*
X177679471Y-101233998D01*
X176322328Y-99376855D02*
X176322328Y-99233998D01*
X176322328Y-99233998D02*
X176393757Y-99091141D01*
X176393757Y-99091141D02*
X176465185Y-99019713D01*
X176465185Y-99019713D02*
X176608042Y-98948284D01*
X176608042Y-98948284D02*
X176893757Y-98876855D01*
X176893757Y-98876855D02*
X177250900Y-98876855D01*
X177250900Y-98876855D02*
X177536614Y-98948284D01*
X177536614Y-98948284D02*
X177679471Y-99019713D01*
X177679471Y-99019713D02*
X177750900Y-99091141D01*
X177750900Y-99091141D02*
X177822328Y-99233998D01*
X177822328Y-99233998D02*
X177822328Y-99376855D01*
X177822328Y-99376855D02*
X177750900Y-99519713D01*
X177750900Y-99519713D02*
X177679471Y-99591141D01*
X177679471Y-99591141D02*
X177536614Y-99662570D01*
X177536614Y-99662570D02*
X177250900Y-99733998D01*
X177250900Y-99733998D02*
X176893757Y-99733998D01*
X176893757Y-99733998D02*
X176608042Y-99662570D01*
X176608042Y-99662570D02*
X176465185Y-99591141D01*
X176465185Y-99591141D02*
X176393757Y-99519713D01*
X176393757Y-99519713D02*
X176322328Y-99376855D01*
X177679471Y-98233999D02*
X177750900Y-98162570D01*
X177750900Y-98162570D02*
X177822328Y-98233999D01*
X177822328Y-98233999D02*
X177750900Y-98305427D01*
X177750900Y-98305427D02*
X177679471Y-98233999D01*
X177679471Y-98233999D02*
X177822328Y-98233999D01*
X177822328Y-97448284D02*
X177822328Y-97162570D01*
X177822328Y-97162570D02*
X177750900Y-97019713D01*
X177750900Y-97019713D02*
X177679471Y-96948284D01*
X177679471Y-96948284D02*
X177465185Y-96805427D01*
X177465185Y-96805427D02*
X177179471Y-96733998D01*
X177179471Y-96733998D02*
X176608042Y-96733998D01*
X176608042Y-96733998D02*
X176465185Y-96805427D01*
X176465185Y-96805427D02*
X176393757Y-96876856D01*
X176393757Y-96876856D02*
X176322328Y-97019713D01*
X176322328Y-97019713D02*
X176322328Y-97305427D01*
X176322328Y-97305427D02*
X176393757Y-97448284D01*
X176393757Y-97448284D02*
X176465185Y-97519713D01*
X176465185Y-97519713D02*
X176608042Y-97591141D01*
X176608042Y-97591141D02*
X176965185Y-97591141D01*
X176965185Y-97591141D02*
X177108042Y-97519713D01*
X177108042Y-97519713D02*
X177179471Y-97448284D01*
X177179471Y-97448284D02*
X177250900Y-97305427D01*
X177250900Y-97305427D02*
X177250900Y-97019713D01*
X177250900Y-97019713D02*
X177179471Y-96876856D01*
X177179471Y-96876856D02*
X177108042Y-96805427D01*
X177108042Y-96805427D02*
X176965185Y-96733998D01*
X176965185Y-95876856D02*
X176893757Y-96019713D01*
X176893757Y-96019713D02*
X176822328Y-96091142D01*
X176822328Y-96091142D02*
X176679471Y-96162570D01*
X176679471Y-96162570D02*
X176608042Y-96162570D01*
X176608042Y-96162570D02*
X176465185Y-96091142D01*
X176465185Y-96091142D02*
X176393757Y-96019713D01*
X176393757Y-96019713D02*
X176322328Y-95876856D01*
X176322328Y-95876856D02*
X176322328Y-95591142D01*
X176322328Y-95591142D02*
X176393757Y-95448285D01*
X176393757Y-95448285D02*
X176465185Y-95376856D01*
X176465185Y-95376856D02*
X176608042Y-95305427D01*
X176608042Y-95305427D02*
X176679471Y-95305427D01*
X176679471Y-95305427D02*
X176822328Y-95376856D01*
X176822328Y-95376856D02*
X176893757Y-95448285D01*
X176893757Y-95448285D02*
X176965185Y-95591142D01*
X176965185Y-95591142D02*
X176965185Y-95876856D01*
X176965185Y-95876856D02*
X177036614Y-96019713D01*
X177036614Y-96019713D02*
X177108042Y-96091142D01*
X177108042Y-96091142D02*
X177250900Y-96162570D01*
X177250900Y-96162570D02*
X177536614Y-96162570D01*
X177536614Y-96162570D02*
X177679471Y-96091142D01*
X177679471Y-96091142D02*
X177750900Y-96019713D01*
X177750900Y-96019713D02*
X177822328Y-95876856D01*
X177822328Y-95876856D02*
X177822328Y-95591142D01*
X177822328Y-95591142D02*
X177750900Y-95448285D01*
X177750900Y-95448285D02*
X177679471Y-95376856D01*
X177679471Y-95376856D02*
X177536614Y-95305427D01*
X177536614Y-95305427D02*
X177250900Y-95305427D01*
X177250900Y-95305427D02*
X177108042Y-95376856D01*
X177108042Y-95376856D02*
X177036614Y-95448285D01*
X177036614Y-95448285D02*
X176965185Y-95591142D01*
X176965185Y-94448285D02*
X176893757Y-94591142D01*
X176893757Y-94591142D02*
X176822328Y-94662571D01*
X176822328Y-94662571D02*
X176679471Y-94733999D01*
X176679471Y-94733999D02*
X176608042Y-94733999D01*
X176608042Y-94733999D02*
X176465185Y-94662571D01*
X176465185Y-94662571D02*
X176393757Y-94591142D01*
X176393757Y-94591142D02*
X176322328Y-94448285D01*
X176322328Y-94448285D02*
X176322328Y-94162571D01*
X176322328Y-94162571D02*
X176393757Y-94019714D01*
X176393757Y-94019714D02*
X176465185Y-93948285D01*
X176465185Y-93948285D02*
X176608042Y-93876856D01*
X176608042Y-93876856D02*
X176679471Y-93876856D01*
X176679471Y-93876856D02*
X176822328Y-93948285D01*
X176822328Y-93948285D02*
X176893757Y-94019714D01*
X176893757Y-94019714D02*
X176965185Y-94162571D01*
X176965185Y-94162571D02*
X176965185Y-94448285D01*
X176965185Y-94448285D02*
X177036614Y-94591142D01*
X177036614Y-94591142D02*
X177108042Y-94662571D01*
X177108042Y-94662571D02*
X177250900Y-94733999D01*
X177250900Y-94733999D02*
X177536614Y-94733999D01*
X177536614Y-94733999D02*
X177679471Y-94662571D01*
X177679471Y-94662571D02*
X177750900Y-94591142D01*
X177750900Y-94591142D02*
X177822328Y-94448285D01*
X177822328Y-94448285D02*
X177822328Y-94162571D01*
X177822328Y-94162571D02*
X177750900Y-94019714D01*
X177750900Y-94019714D02*
X177679471Y-93948285D01*
X177679471Y-93948285D02*
X177536614Y-93876856D01*
X177536614Y-93876856D02*
X177250900Y-93876856D01*
X177250900Y-93876856D02*
X177108042Y-93948285D01*
X177108042Y-93948285D02*
X177036614Y-94019714D01*
X177036614Y-94019714D02*
X176965185Y-94162571D01*
X176322328Y-92948285D02*
X176322328Y-92805428D01*
X176322328Y-92805428D02*
X176393757Y-92662571D01*
X176393757Y-92662571D02*
X176465185Y-92591143D01*
X176465185Y-92591143D02*
X176608042Y-92519714D01*
X176608042Y-92519714D02*
X176893757Y-92448285D01*
X176893757Y-92448285D02*
X177250900Y-92448285D01*
X177250900Y-92448285D02*
X177536614Y-92519714D01*
X177536614Y-92519714D02*
X177679471Y-92591143D01*
X177679471Y-92591143D02*
X177750900Y-92662571D01*
X177750900Y-92662571D02*
X177822328Y-92805428D01*
X177822328Y-92805428D02*
X177822328Y-92948285D01*
X177822328Y-92948285D02*
X177750900Y-93091143D01*
X177750900Y-93091143D02*
X177679471Y-93162571D01*
X177679471Y-93162571D02*
X177536614Y-93234000D01*
X177536614Y-93234000D02*
X177250900Y-93305428D01*
X177250900Y-93305428D02*
X176893757Y-93305428D01*
X176893757Y-93305428D02*
X176608042Y-93234000D01*
X176608042Y-93234000D02*
X176465185Y-93162571D01*
X176465185Y-93162571D02*
X176393757Y-93091143D01*
X176393757Y-93091143D02*
X176322328Y-92948285D01*
X177822328Y-90662572D02*
X176822328Y-90662572D01*
X176965185Y-90662572D02*
X176893757Y-90591143D01*
X176893757Y-90591143D02*
X176822328Y-90448286D01*
X176822328Y-90448286D02*
X176822328Y-90234000D01*
X176822328Y-90234000D02*
X176893757Y-90091143D01*
X176893757Y-90091143D02*
X177036614Y-90019715D01*
X177036614Y-90019715D02*
X177822328Y-90019715D01*
X177036614Y-90019715D02*
X176893757Y-89948286D01*
X176893757Y-89948286D02*
X176822328Y-89805429D01*
X176822328Y-89805429D02*
X176822328Y-89591143D01*
X176822328Y-89591143D02*
X176893757Y-89448286D01*
X176893757Y-89448286D02*
X177036614Y-89376857D01*
X177036614Y-89376857D02*
X177822328Y-89376857D01*
X177822328Y-88662572D02*
X176822328Y-88662572D01*
X176965185Y-88662572D02*
X176893757Y-88591143D01*
X176893757Y-88591143D02*
X176822328Y-88448286D01*
X176822328Y-88448286D02*
X176822328Y-88234000D01*
X176822328Y-88234000D02*
X176893757Y-88091143D01*
X176893757Y-88091143D02*
X177036614Y-88019715D01*
X177036614Y-88019715D02*
X177822328Y-88019715D01*
X177036614Y-88019715D02*
X176893757Y-87948286D01*
X176893757Y-87948286D02*
X176822328Y-87805429D01*
X176822328Y-87805429D02*
X176822328Y-87591143D01*
X176822328Y-87591143D02*
X176893757Y-87448286D01*
X176893757Y-87448286D02*
X177036614Y-87376857D01*
X177036614Y-87376857D02*
X177822328Y-87376857D01*
D10*
X174744000Y-109728000D02*
X179530420Y-109728000D01*
X174744000Y-78740000D02*
X179530420Y-78740000D01*
X178944000Y-109728000D02*
X178944000Y-78740000D01*
X178944000Y-109728000D02*
X178944000Y-78740000D01*
X178944000Y-109728000D02*
X178357579Y-108601496D01*
X178944000Y-109728000D02*
X179530421Y-108601496D01*
X178944000Y-78740000D02*
X179530421Y-79866504D01*
X178944000Y-78740000D02*
X178357579Y-79866504D01*
D11*
X140781144Y-72386328D02*
X140066858Y-72386328D01*
X140066858Y-72386328D02*
X139995430Y-73100614D01*
X139995430Y-73100614D02*
X140066858Y-73029185D01*
X140066858Y-73029185D02*
X140209716Y-72957757D01*
X140209716Y-72957757D02*
X140566858Y-72957757D01*
X140566858Y-72957757D02*
X140709716Y-73029185D01*
X140709716Y-73029185D02*
X140781144Y-73100614D01*
X140781144Y-73100614D02*
X140852573Y-73243471D01*
X140852573Y-73243471D02*
X140852573Y-73600614D01*
X140852573Y-73600614D02*
X140781144Y-73743471D01*
X140781144Y-73743471D02*
X140709716Y-73814900D01*
X140709716Y-73814900D02*
X140566858Y-73886328D01*
X140566858Y-73886328D02*
X140209716Y-73886328D01*
X140209716Y-73886328D02*
X140066858Y-73814900D01*
X140066858Y-73814900D02*
X139995430Y-73743471D01*
X142138287Y-72886328D02*
X142138287Y-73886328D01*
X141781144Y-72314900D02*
X141424001Y-73386328D01*
X141424001Y-73386328D02*
X142352572Y-73386328D01*
X142924000Y-73743471D02*
X142995429Y-73814900D01*
X142995429Y-73814900D02*
X142924000Y-73886328D01*
X142924000Y-73886328D02*
X142852572Y-73814900D01*
X142852572Y-73814900D02*
X142924000Y-73743471D01*
X142924000Y-73743471D02*
X142924000Y-73886328D01*
X144281144Y-72386328D02*
X143995429Y-72386328D01*
X143995429Y-72386328D02*
X143852572Y-72457757D01*
X143852572Y-72457757D02*
X143781144Y-72529185D01*
X143781144Y-72529185D02*
X143638286Y-72743471D01*
X143638286Y-72743471D02*
X143566858Y-73029185D01*
X143566858Y-73029185D02*
X143566858Y-73600614D01*
X143566858Y-73600614D02*
X143638286Y-73743471D01*
X143638286Y-73743471D02*
X143709715Y-73814900D01*
X143709715Y-73814900D02*
X143852572Y-73886328D01*
X143852572Y-73886328D02*
X144138286Y-73886328D01*
X144138286Y-73886328D02*
X144281144Y-73814900D01*
X144281144Y-73814900D02*
X144352572Y-73743471D01*
X144352572Y-73743471D02*
X144424001Y-73600614D01*
X144424001Y-73600614D02*
X144424001Y-73243471D01*
X144424001Y-73243471D02*
X144352572Y-73100614D01*
X144352572Y-73100614D02*
X144281144Y-73029185D01*
X144281144Y-73029185D02*
X144138286Y-72957757D01*
X144138286Y-72957757D02*
X143852572Y-72957757D01*
X143852572Y-72957757D02*
X143709715Y-73029185D01*
X143709715Y-73029185D02*
X143638286Y-73100614D01*
X143638286Y-73100614D02*
X143566858Y-73243471D01*
X145781143Y-72386328D02*
X145066857Y-72386328D01*
X145066857Y-72386328D02*
X144995429Y-73100614D01*
X144995429Y-73100614D02*
X145066857Y-73029185D01*
X145066857Y-73029185D02*
X145209715Y-72957757D01*
X145209715Y-72957757D02*
X145566857Y-72957757D01*
X145566857Y-72957757D02*
X145709715Y-73029185D01*
X145709715Y-73029185D02*
X145781143Y-73100614D01*
X145781143Y-73100614D02*
X145852572Y-73243471D01*
X145852572Y-73243471D02*
X145852572Y-73600614D01*
X145852572Y-73600614D02*
X145781143Y-73743471D01*
X145781143Y-73743471D02*
X145709715Y-73814900D01*
X145709715Y-73814900D02*
X145566857Y-73886328D01*
X145566857Y-73886328D02*
X145209715Y-73886328D01*
X145209715Y-73886328D02*
X145066857Y-73814900D01*
X145066857Y-73814900D02*
X144995429Y-73743471D01*
X146424000Y-72529185D02*
X146495428Y-72457757D01*
X146495428Y-72457757D02*
X146638286Y-72386328D01*
X146638286Y-72386328D02*
X146995428Y-72386328D01*
X146995428Y-72386328D02*
X147138286Y-72457757D01*
X147138286Y-72457757D02*
X147209714Y-72529185D01*
X147209714Y-72529185D02*
X147281143Y-72672042D01*
X147281143Y-72672042D02*
X147281143Y-72814900D01*
X147281143Y-72814900D02*
X147209714Y-73029185D01*
X147209714Y-73029185D02*
X146352571Y-73886328D01*
X146352571Y-73886328D02*
X147281143Y-73886328D01*
X148209714Y-72386328D02*
X148352571Y-72386328D01*
X148352571Y-72386328D02*
X148495428Y-72457757D01*
X148495428Y-72457757D02*
X148566857Y-72529185D01*
X148566857Y-72529185D02*
X148638285Y-72672042D01*
X148638285Y-72672042D02*
X148709714Y-72957757D01*
X148709714Y-72957757D02*
X148709714Y-73314900D01*
X148709714Y-73314900D02*
X148638285Y-73600614D01*
X148638285Y-73600614D02*
X148566857Y-73743471D01*
X148566857Y-73743471D02*
X148495428Y-73814900D01*
X148495428Y-73814900D02*
X148352571Y-73886328D01*
X148352571Y-73886328D02*
X148209714Y-73886328D01*
X148209714Y-73886328D02*
X148066857Y-73814900D01*
X148066857Y-73814900D02*
X147995428Y-73743471D01*
X147995428Y-73743471D02*
X147923999Y-73600614D01*
X147923999Y-73600614D02*
X147852571Y-73314900D01*
X147852571Y-73314900D02*
X147852571Y-72957757D01*
X147852571Y-72957757D02*
X147923999Y-72672042D01*
X147923999Y-72672042D02*
X147995428Y-72529185D01*
X147995428Y-72529185D02*
X148066857Y-72457757D01*
X148066857Y-72457757D02*
X148209714Y-72386328D01*
X150495427Y-73886328D02*
X150495427Y-72886328D01*
X150495427Y-73029185D02*
X150566856Y-72957757D01*
X150566856Y-72957757D02*
X150709713Y-72886328D01*
X150709713Y-72886328D02*
X150923999Y-72886328D01*
X150923999Y-72886328D02*
X151066856Y-72957757D01*
X151066856Y-72957757D02*
X151138285Y-73100614D01*
X151138285Y-73100614D02*
X151138285Y-73886328D01*
X151138285Y-73100614D02*
X151209713Y-72957757D01*
X151209713Y-72957757D02*
X151352570Y-72886328D01*
X151352570Y-72886328D02*
X151566856Y-72886328D01*
X151566856Y-72886328D02*
X151709713Y-72957757D01*
X151709713Y-72957757D02*
X151781142Y-73100614D01*
X151781142Y-73100614D02*
X151781142Y-73886328D01*
X152495427Y-73886328D02*
X152495427Y-72886328D01*
X152495427Y-73029185D02*
X152566856Y-72957757D01*
X152566856Y-72957757D02*
X152709713Y-72886328D01*
X152709713Y-72886328D02*
X152923999Y-72886328D01*
X152923999Y-72886328D02*
X153066856Y-72957757D01*
X153066856Y-72957757D02*
X153138285Y-73100614D01*
X153138285Y-73100614D02*
X153138285Y-73886328D01*
X153138285Y-73100614D02*
X153209713Y-72957757D01*
X153209713Y-72957757D02*
X153352570Y-72886328D01*
X153352570Y-72886328D02*
X153566856Y-72886328D01*
X153566856Y-72886328D02*
X153709713Y-72957757D01*
X153709713Y-72957757D02*
X153781142Y-73100614D01*
X153781142Y-73100614D02*
X153781142Y-73886328D01*
D10*
X174250000Y-78250000D02*
X174250000Y-74421580D01*
X119598000Y-78250000D02*
X119598000Y-74421580D01*
X174250000Y-75008000D02*
X119598000Y-75008000D01*
X174250000Y-75008000D02*
X119598000Y-75008000D01*
X174250000Y-75008000D02*
X173123496Y-75594421D01*
X174250000Y-75008000D02*
X173123496Y-74421579D01*
X119598000Y-75008000D02*
X120724504Y-74421579D01*
X119598000Y-75008000D02*
X120724504Y-75594421D01*
M02*
