G04 #@! TF.GenerationSoftware,KiCad,Pcbnew,7.0.6+dfsg-1*
G04 #@! TF.CreationDate,2023-08-24T18:37:01+02:00*
G04 #@! TF.ProjectId,USB,5553422e-6b69-4636-9164-5f7063625858,rev?*
G04 #@! TF.SameCoordinates,Original*
G04 #@! TF.FileFunction,Copper,L2,Inr*
G04 #@! TF.FilePolarity,Positive*
%FSLAX46Y46*%
G04 Gerber Fmt 4.6, Leading zero omitted, Abs format (unit mm)*
G04 Created by KiCad (PCBNEW 7.0.6+dfsg-1) date 2023-08-24 18:37:01*
%MOMM*%
%LPD*%
G01*
G04 APERTURE LIST*
G04 Aperture macros list*
%AMRoundRect*
0 Rectangle with rounded corners*
0 $1 Rounding radius*
0 $2 $3 $4 $5 $6 $7 $8 $9 X,Y pos of 4 corners*
0 Add a 4 corners polygon primitive as box body*
4,1,4,$2,$3,$4,$5,$6,$7,$8,$9,$2,$3,0*
0 Add four circle primitives for the rounded corners*
1,1,$1+$1,$2,$3*
1,1,$1+$1,$4,$5*
1,1,$1+$1,$6,$7*
1,1,$1+$1,$8,$9*
0 Add four rect primitives between the rounded corners*
20,1,$1+$1,$2,$3,$4,$5,0*
20,1,$1+$1,$4,$5,$6,$7,0*
20,1,$1+$1,$6,$7,$8,$9,0*
20,1,$1+$1,$8,$9,$2,$3,0*%
G04 Aperture macros list end*
G04 #@! TA.AperFunction,ComponentPad*
%ADD10R,1.700000X1.700000*%
G04 #@! TD*
G04 #@! TA.AperFunction,ComponentPad*
%ADD11O,1.700000X1.700000*%
G04 #@! TD*
G04 #@! TA.AperFunction,ComponentPad*
%ADD12R,1.600000X1.600000*%
G04 #@! TD*
G04 #@! TA.AperFunction,ComponentPad*
%ADD13C,1.600000*%
G04 #@! TD*
G04 #@! TA.AperFunction,ComponentPad*
%ADD14C,3.000000*%
G04 #@! TD*
G04 #@! TA.AperFunction,ComponentPad*
%ADD15R,1.800000X1.800000*%
G04 #@! TD*
G04 #@! TA.AperFunction,ComponentPad*
%ADD16C,1.800000*%
G04 #@! TD*
G04 #@! TA.AperFunction,ComponentPad*
%ADD17RoundRect,0.249200X0.450800X0.450800X-0.450800X0.450800X-0.450800X-0.450800X0.450800X-0.450800X0*%
G04 #@! TD*
G04 #@! TA.AperFunction,ComponentPad*
%ADD18C,1.400000*%
G04 #@! TD*
G04 #@! TA.AperFunction,ViaPad*
%ADD19C,0.600000*%
G04 #@! TD*
G04 #@! TA.AperFunction,ViaPad*
%ADD20C,0.800000*%
G04 #@! TD*
G04 APERTURE END LIST*
D10*
X126238000Y-107950000D03*
D11*
X123698000Y-107950000D03*
X126238000Y-105410000D03*
X123698000Y-105410000D03*
X126238000Y-102870000D03*
X123698000Y-102870000D03*
X126238000Y-100330000D03*
X123698000Y-100330000D03*
X126238000Y-97790000D03*
X123698000Y-97790000D03*
X126238000Y-95250000D03*
X123698000Y-95250000D03*
X126238000Y-92710000D03*
X123698000Y-92710000D03*
X126238000Y-90170000D03*
X123698000Y-90170000D03*
X126238000Y-87630000D03*
X123698000Y-87630000D03*
X126238000Y-85090000D03*
X123698000Y-85090000D03*
X126238000Y-82550000D03*
X123698000Y-82550000D03*
X126238000Y-80010000D03*
X123698000Y-80010000D03*
D12*
X140600000Y-91100000D03*
D13*
X138100000Y-91100000D03*
X136100000Y-91100000D03*
X133600000Y-91100000D03*
D14*
X143670000Y-88390000D03*
X130530000Y-88390000D03*
D12*
X166624000Y-91186000D03*
D13*
X164124000Y-91186000D03*
X162124000Y-91186000D03*
X159624000Y-91186000D03*
D14*
X169694000Y-88476000D03*
X156554000Y-88476000D03*
D15*
X150800000Y-103500000D03*
D16*
X148260000Y-103500000D03*
D10*
X172212000Y-96520000D03*
D11*
X172212000Y-99060000D03*
X172212000Y-101600000D03*
X172212000Y-104140000D03*
X172212000Y-106680000D03*
D17*
X137314000Y-107848000D03*
D18*
X134774000Y-107848000D03*
X129694000Y-107848000D03*
D15*
X155700000Y-103500000D03*
D16*
X153160000Y-103500000D03*
D15*
X145900000Y-103500000D03*
D16*
X143360000Y-103500000D03*
D19*
X133938500Y-99438500D03*
X132204000Y-98308000D03*
X136224000Y-99978000D03*
X132204000Y-100008000D03*
X133894000Y-97078000D03*
X165434000Y-99988000D03*
X138924000Y-109138000D03*
X140384000Y-93358000D03*
X165464000Y-93228000D03*
X140334000Y-100018000D03*
X159534000Y-100048000D03*
X157304000Y-97588000D03*
X150014000Y-108138000D03*
X132884000Y-96368000D03*
X161294000Y-99948000D03*
X157194000Y-99588000D03*
X151873479Y-96628521D03*
X152474521Y-96027479D03*
X134014000Y-101803000D03*
X134014000Y-100953000D03*
X169484000Y-99718000D03*
D20*
X132921536Y-82674990D03*
X135300000Y-79400000D03*
D19*
X139824000Y-105848000D03*
X141569000Y-97888000D03*
X140719000Y-97888000D03*
X166579000Y-97898000D03*
X165729000Y-97898000D03*
G04 #@! TA.AperFunction,Conductor*
G36*
X123246995Y-78785502D02*
G01*
X123293488Y-78839158D01*
X123303592Y-78909432D01*
X123274098Y-78974012D01*
X123224391Y-79008991D01*
X123203577Y-79017054D01*
X123203566Y-79017059D01*
X123029536Y-79124814D01*
X122878266Y-79262715D01*
X122754913Y-79426063D01*
X122663671Y-79609301D01*
X122607654Y-79806180D01*
X122588768Y-80009995D01*
X122588768Y-80010004D01*
X122607654Y-80213819D01*
X122607655Y-80213821D01*
X122663672Y-80410701D01*
X122754912Y-80593935D01*
X122754913Y-80593936D01*
X122878266Y-80757284D01*
X123029536Y-80895185D01*
X123203566Y-81002940D01*
X123203568Y-81002940D01*
X123203573Y-81002944D01*
X123394444Y-81076888D01*
X123595653Y-81114500D01*
X123595655Y-81114500D01*
X123800345Y-81114500D01*
X123800347Y-81114500D01*
X124001556Y-81076888D01*
X124192427Y-81002944D01*
X124366462Y-80895186D01*
X124517732Y-80757285D01*
X124641088Y-80593935D01*
X124732328Y-80410701D01*
X124788345Y-80213821D01*
X124794640Y-80145880D01*
X124807232Y-80010004D01*
X124807232Y-80009995D01*
X124788345Y-79806180D01*
X124759953Y-79706392D01*
X124732328Y-79609299D01*
X124641088Y-79426065D01*
X124600538Y-79372368D01*
X124517733Y-79262715D01*
X124366463Y-79124814D01*
X124192433Y-79017059D01*
X124192428Y-79017057D01*
X124192427Y-79017056D01*
X124171609Y-79008991D01*
X124115314Y-78965732D01*
X124091344Y-78898904D01*
X124107308Y-78829726D01*
X124158139Y-78780160D01*
X124217126Y-78765500D01*
X125718874Y-78765500D01*
X125786995Y-78785502D01*
X125833488Y-78839158D01*
X125843592Y-78909432D01*
X125814098Y-78974012D01*
X125764391Y-79008991D01*
X125743577Y-79017054D01*
X125743566Y-79017059D01*
X125569536Y-79124814D01*
X125418266Y-79262715D01*
X125294913Y-79426063D01*
X125203671Y-79609301D01*
X125147654Y-79806180D01*
X125128768Y-80009995D01*
X125128768Y-80010004D01*
X125147654Y-80213819D01*
X125147655Y-80213821D01*
X125203672Y-80410701D01*
X125294912Y-80593935D01*
X125294913Y-80593936D01*
X125418266Y-80757284D01*
X125569536Y-80895185D01*
X125743566Y-81002940D01*
X125743568Y-81002940D01*
X125743573Y-81002944D01*
X125934444Y-81076888D01*
X126135653Y-81114500D01*
X126135655Y-81114500D01*
X126340345Y-81114500D01*
X126340347Y-81114500D01*
X126541556Y-81076888D01*
X126732427Y-81002944D01*
X126906462Y-80895186D01*
X127057732Y-80757285D01*
X127181088Y-80593935D01*
X127272328Y-80410701D01*
X127328345Y-80213821D01*
X127334640Y-80145880D01*
X127347232Y-80010004D01*
X127347232Y-80009995D01*
X127328345Y-79806180D01*
X127299953Y-79706392D01*
X127272328Y-79609299D01*
X127181088Y-79426065D01*
X127140538Y-79372368D01*
X127057733Y-79262715D01*
X126906463Y-79124814D01*
X126732433Y-79017059D01*
X126732428Y-79017057D01*
X126732427Y-79017056D01*
X126711609Y-79008991D01*
X126655314Y-78965732D01*
X126631344Y-78898904D01*
X126647308Y-78829726D01*
X126698139Y-78780160D01*
X126757126Y-78765500D01*
X134702615Y-78765500D01*
X134770736Y-78785502D01*
X134817229Y-78839158D01*
X134827333Y-78909432D01*
X134806311Y-78963075D01*
X134798762Y-78974012D01*
X134716215Y-79093601D01*
X134716212Y-79093607D01*
X134659849Y-79242220D01*
X134640693Y-79399996D01*
X134640693Y-79400003D01*
X134659849Y-79557779D01*
X134708447Y-79685919D01*
X134716213Y-79706395D01*
X134806502Y-79837201D01*
X134925471Y-79942599D01*
X134925472Y-79942599D01*
X134925474Y-79942601D01*
X135000200Y-79981820D01*
X135066207Y-80016463D01*
X135220529Y-80054500D01*
X135220530Y-80054500D01*
X135379470Y-80054500D01*
X135379471Y-80054500D01*
X135533793Y-80016463D01*
X135674529Y-79942599D01*
X135793498Y-79837201D01*
X135883787Y-79706395D01*
X135940149Y-79557782D01*
X135940149Y-79557781D01*
X135940150Y-79557779D01*
X135959307Y-79400003D01*
X135959307Y-79399996D01*
X135940150Y-79242220D01*
X135895623Y-79124814D01*
X135883787Y-79093605D01*
X135793688Y-78963075D01*
X135771453Y-78895651D01*
X135789200Y-78826909D01*
X135841295Y-78778673D01*
X135897385Y-78765500D01*
X174092500Y-78765500D01*
X174160621Y-78785502D01*
X174207114Y-78839158D01*
X174218500Y-78891500D01*
X174218500Y-109576500D01*
X174198498Y-109644621D01*
X174144842Y-109691114D01*
X174092500Y-109702500D01*
X119785500Y-109702500D01*
X119717379Y-109682498D01*
X119670886Y-109628842D01*
X119659500Y-109576500D01*
X119659500Y-107950004D01*
X122588768Y-107950004D01*
X122607654Y-108153819D01*
X122663671Y-108350698D01*
X122663672Y-108350701D01*
X122754912Y-108533935D01*
X122754913Y-108533936D01*
X122878266Y-108697284D01*
X123029536Y-108835185D01*
X123203566Y-108942940D01*
X123203568Y-108942940D01*
X123203573Y-108942944D01*
X123394444Y-109016888D01*
X123595653Y-109054500D01*
X123595655Y-109054500D01*
X123800345Y-109054500D01*
X123800347Y-109054500D01*
X124001556Y-109016888D01*
X124192427Y-108942944D01*
X124366462Y-108835186D01*
X124377566Y-108825063D01*
X125133500Y-108825063D01*
X125133501Y-108825073D01*
X125148265Y-108899300D01*
X125204516Y-108983484D01*
X125288697Y-109039733D01*
X125288699Y-109039734D01*
X125362933Y-109054500D01*
X127113066Y-109054499D01*
X127113069Y-109054498D01*
X127113073Y-109054498D01*
X127162326Y-109044701D01*
X127187301Y-109039734D01*
X127271484Y-108983484D01*
X127327734Y-108899301D01*
X127342500Y-108825067D01*
X127342499Y-107848003D01*
X128734882Y-107848003D01*
X128753309Y-108035107D01*
X128753311Y-108035118D01*
X128807890Y-108215038D01*
X128807891Y-108215040D01*
X128880404Y-108350701D01*
X128896523Y-108380857D01*
X129015801Y-108526199D01*
X129161143Y-108645477D01*
X129161145Y-108645478D01*
X129326959Y-108734108D01*
X129326961Y-108734109D01*
X129506881Y-108788688D01*
X129506882Y-108788688D01*
X129506885Y-108788689D01*
X129506888Y-108788689D01*
X129506892Y-108788690D01*
X129693997Y-108807118D01*
X129694000Y-108807118D01*
X129694003Y-108807118D01*
X129881107Y-108788690D01*
X129881109Y-108788689D01*
X129881115Y-108788689D01*
X130061039Y-108734109D01*
X130226857Y-108645477D01*
X130372199Y-108526199D01*
X130491477Y-108380857D01*
X130580109Y-108215039D01*
X130634689Y-108035115D01*
X130638813Y-107993246D01*
X130653118Y-107848003D01*
X133814882Y-107848003D01*
X133833309Y-108035107D01*
X133833311Y-108035118D01*
X133887890Y-108215038D01*
X133887891Y-108215040D01*
X133960404Y-108350701D01*
X133976523Y-108380857D01*
X134095801Y-108526199D01*
X134241143Y-108645477D01*
X134241145Y-108645478D01*
X134406959Y-108734108D01*
X134406961Y-108734109D01*
X134586881Y-108788688D01*
X134586882Y-108788688D01*
X134586885Y-108788689D01*
X134586888Y-108788689D01*
X134586892Y-108788690D01*
X134773997Y-108807118D01*
X134774000Y-108807118D01*
X134774003Y-108807118D01*
X134961107Y-108788690D01*
X134961109Y-108788689D01*
X134961115Y-108788689D01*
X135141039Y-108734109D01*
X135306857Y-108645477D01*
X135452199Y-108526199D01*
X135571477Y-108380857D01*
X135589603Y-108346946D01*
X136360000Y-108346946D01*
X136366441Y-108406857D01*
X136417012Y-108542442D01*
X136503724Y-108658275D01*
X136619557Y-108744987D01*
X136755142Y-108795558D01*
X136815053Y-108801999D01*
X136815070Y-108802000D01*
X137187000Y-108802000D01*
X137187000Y-108174451D01*
X137255595Y-108198000D01*
X137343005Y-108198000D01*
X137429216Y-108183614D01*
X137441000Y-108177236D01*
X137441000Y-108802000D01*
X137812930Y-108802000D01*
X137812946Y-108801999D01*
X137872857Y-108795558D01*
X138008442Y-108744987D01*
X138124275Y-108658275D01*
X138210987Y-108542442D01*
X138261558Y-108406857D01*
X138267999Y-108346946D01*
X138268000Y-108346929D01*
X138268000Y-108138000D01*
X149454715Y-108138000D01*
X149473771Y-108282752D01*
X149529644Y-108417641D01*
X149529649Y-108417649D01*
X149618525Y-108533474D01*
X149734350Y-108622350D01*
X149734357Y-108622355D01*
X149869246Y-108678228D01*
X149941622Y-108687756D01*
X150013999Y-108697285D01*
X150013999Y-108697284D01*
X150014000Y-108697285D01*
X150158754Y-108678228D01*
X150293643Y-108622355D01*
X150409474Y-108533474D01*
X150498355Y-108417643D01*
X150554228Y-108282754D01*
X150573285Y-108138000D01*
X150554228Y-107993246D01*
X150498355Y-107858358D01*
X150409474Y-107742526D01*
X150409472Y-107742524D01*
X150409471Y-107742523D01*
X150293649Y-107653649D01*
X150293641Y-107653644D01*
X150158752Y-107597771D01*
X150014000Y-107578715D01*
X149869247Y-107597771D01*
X149801801Y-107625708D01*
X149734358Y-107653645D01*
X149734357Y-107653646D01*
X149734356Y-107653646D01*
X149618526Y-107742526D01*
X149529646Y-107858356D01*
X149529645Y-107858358D01*
X149521798Y-107877302D01*
X149473771Y-107993247D01*
X149454715Y-108137999D01*
X149454715Y-108138000D01*
X138268000Y-108138000D01*
X138268000Y-107975000D01*
X137640484Y-107975000D01*
X137657982Y-107935108D01*
X137667628Y-107818698D01*
X137642888Y-107721000D01*
X138268000Y-107721000D01*
X138268000Y-107349070D01*
X138267999Y-107349053D01*
X138261558Y-107289142D01*
X138210987Y-107153557D01*
X138124275Y-107037724D01*
X138008442Y-106951012D01*
X137872857Y-106900441D01*
X137812946Y-106894000D01*
X137441000Y-106894000D01*
X137441000Y-107521548D01*
X137372405Y-107498000D01*
X137284995Y-107498000D01*
X137198784Y-107512386D01*
X137187000Y-107518763D01*
X137187000Y-106894000D01*
X136815053Y-106894000D01*
X136755142Y-106900441D01*
X136619557Y-106951012D01*
X136503724Y-107037724D01*
X136417012Y-107153557D01*
X136366441Y-107289142D01*
X136360000Y-107349053D01*
X136360000Y-107721000D01*
X136987516Y-107721000D01*
X136970018Y-107760892D01*
X136960372Y-107877302D01*
X136985112Y-107975000D01*
X136360000Y-107975000D01*
X136360000Y-108346946D01*
X135589603Y-108346946D01*
X135660109Y-108215039D01*
X135714689Y-108035115D01*
X135718813Y-107993246D01*
X135733118Y-107848003D01*
X135733118Y-107847996D01*
X135714690Y-107660892D01*
X135714688Y-107660881D01*
X135660109Y-107480961D01*
X135660108Y-107480959D01*
X135615792Y-107398051D01*
X135571477Y-107315143D01*
X135452199Y-107169801D01*
X135306857Y-107050523D01*
X135306855Y-107050522D01*
X135306854Y-107050521D01*
X135141040Y-106961891D01*
X135141038Y-106961890D01*
X134961118Y-106907311D01*
X134961107Y-106907309D01*
X134774003Y-106888882D01*
X134773997Y-106888882D01*
X134586892Y-106907309D01*
X134586881Y-106907311D01*
X134406961Y-106961890D01*
X134406959Y-106961891D01*
X134241145Y-107050521D01*
X134095801Y-107169801D01*
X133976521Y-107315145D01*
X133887891Y-107480959D01*
X133887890Y-107480961D01*
X133833311Y-107660881D01*
X133833309Y-107660892D01*
X133814882Y-107847996D01*
X133814882Y-107848003D01*
X130653118Y-107848003D01*
X130653118Y-107847996D01*
X130634690Y-107660892D01*
X130634688Y-107660881D01*
X130580109Y-107480961D01*
X130580108Y-107480959D01*
X130535792Y-107398051D01*
X130491477Y-107315143D01*
X130372199Y-107169801D01*
X130226857Y-107050523D01*
X130226855Y-107050522D01*
X130226854Y-107050521D01*
X130061040Y-106961891D01*
X130061038Y-106961890D01*
X129881118Y-106907311D01*
X129881107Y-106907309D01*
X129694003Y-106888882D01*
X129693997Y-106888882D01*
X129506892Y-106907309D01*
X129506881Y-106907311D01*
X129326961Y-106961890D01*
X129326959Y-106961891D01*
X129161145Y-107050521D01*
X129015801Y-107169801D01*
X128896521Y-107315145D01*
X128807891Y-107480959D01*
X128807890Y-107480961D01*
X128753311Y-107660881D01*
X128753309Y-107660892D01*
X128734882Y-107847996D01*
X128734882Y-107848003D01*
X127342499Y-107848003D01*
X127342499Y-107074934D01*
X127342498Y-107074930D01*
X127342498Y-107074926D01*
X127327734Y-107000699D01*
X127271483Y-106916515D01*
X127187302Y-106860266D01*
X127113067Y-106845500D01*
X125362936Y-106845500D01*
X125362926Y-106845501D01*
X125288699Y-106860265D01*
X125204515Y-106916516D01*
X125148266Y-107000697D01*
X125133500Y-107074930D01*
X125133500Y-108825063D01*
X124377566Y-108825063D01*
X124517732Y-108697285D01*
X124641088Y-108533935D01*
X124732328Y-108350701D01*
X124788345Y-108153821D01*
X124803476Y-107990538D01*
X124807232Y-107950004D01*
X124807232Y-107949995D01*
X124788345Y-107746180D01*
X124788345Y-107746179D01*
X124732328Y-107549299D01*
X124641088Y-107366065D01*
X124563765Y-107263672D01*
X124517733Y-107202715D01*
X124366463Y-107064814D01*
X124192433Y-106957059D01*
X124192428Y-106957057D01*
X124192427Y-106957056D01*
X124176826Y-106951012D01*
X124001559Y-106883113D01*
X124001560Y-106883113D01*
X124001557Y-106883112D01*
X124001556Y-106883112D01*
X123800347Y-106845500D01*
X123595653Y-106845500D01*
X123394444Y-106883112D01*
X123394439Y-106883113D01*
X123203577Y-106957054D01*
X123203566Y-106957059D01*
X123029536Y-107064814D01*
X122878266Y-107202715D01*
X122754913Y-107366063D01*
X122663671Y-107549301D01*
X122607654Y-107746180D01*
X122588768Y-107949995D01*
X122588768Y-107950004D01*
X119659500Y-107950004D01*
X119659500Y-106807001D01*
X171115037Y-106807001D01*
X171122147Y-106883725D01*
X171178138Y-107080514D01*
X171178140Y-107080519D01*
X171269340Y-107263672D01*
X171392637Y-107426946D01*
X171543838Y-107564784D01*
X171717796Y-107672493D01*
X171717803Y-107672496D01*
X171908578Y-107746403D01*
X171908576Y-107746403D01*
X172085000Y-107779381D01*
X172085000Y-107166881D01*
X172176237Y-107180000D01*
X172247763Y-107180000D01*
X172339000Y-107166881D01*
X172339000Y-107779381D01*
X172515422Y-107746403D01*
X172706196Y-107672496D01*
X172706203Y-107672493D01*
X172880161Y-107564784D01*
X173031362Y-107426946D01*
X173154659Y-107263672D01*
X173245859Y-107080519D01*
X173245861Y-107080514D01*
X173301852Y-106883725D01*
X173308962Y-106807001D01*
X173308962Y-106807000D01*
X172695818Y-106807000D01*
X172712000Y-106751889D01*
X172712000Y-106608111D01*
X172695818Y-106553000D01*
X173308962Y-106553000D01*
X173308962Y-106552998D01*
X173301852Y-106476274D01*
X173245861Y-106279485D01*
X173245859Y-106279480D01*
X173154659Y-106096327D01*
X173031362Y-105933053D01*
X172880161Y-105795215D01*
X172706203Y-105687506D01*
X172706196Y-105687503D01*
X172515422Y-105613596D01*
X172515424Y-105613596D01*
X172339000Y-105580617D01*
X172339000Y-106193118D01*
X172247763Y-106180000D01*
X172176237Y-106180000D01*
X172085000Y-106193118D01*
X172085000Y-105580617D01*
X171908576Y-105613596D01*
X171717803Y-105687503D01*
X171717796Y-105687506D01*
X171543838Y-105795215D01*
X171392637Y-105933053D01*
X171269340Y-106096327D01*
X171178140Y-106279480D01*
X171178138Y-106279485D01*
X171122147Y-106476274D01*
X171115037Y-106552998D01*
X171115038Y-106553000D01*
X171728182Y-106553000D01*
X171712000Y-106608111D01*
X171712000Y-106751889D01*
X171728182Y-106807000D01*
X171115038Y-106807000D01*
X171115037Y-106807001D01*
X119659500Y-106807001D01*
X119659500Y-105410004D01*
X122588768Y-105410004D01*
X122607654Y-105613819D01*
X122633099Y-105703247D01*
X122663672Y-105810701D01*
X122754912Y-105993935D01*
X122754913Y-105993936D01*
X122878266Y-106157284D01*
X123029536Y-106295185D01*
X123203566Y-106402940D01*
X123203568Y-106402940D01*
X123203573Y-106402944D01*
X123394444Y-106476888D01*
X123595653Y-106514500D01*
X123595655Y-106514500D01*
X123800345Y-106514500D01*
X123800347Y-106514500D01*
X124001556Y-106476888D01*
X124192427Y-106402944D01*
X124366462Y-106295186D01*
X124517732Y-106157285D01*
X124641088Y-105993935D01*
X124732328Y-105810701D01*
X124788345Y-105613821D01*
X124794640Y-105545880D01*
X124807232Y-105410004D01*
X125128768Y-105410004D01*
X125147654Y-105613819D01*
X125173099Y-105703247D01*
X125203672Y-105810701D01*
X125294912Y-105993935D01*
X125294913Y-105993936D01*
X125418266Y-106157284D01*
X125569536Y-106295185D01*
X125743566Y-106402940D01*
X125743568Y-106402940D01*
X125743573Y-106402944D01*
X125934444Y-106476888D01*
X126135653Y-106514500D01*
X126135655Y-106514500D01*
X126340345Y-106514500D01*
X126340347Y-106514500D01*
X126541556Y-106476888D01*
X126732427Y-106402944D01*
X126906462Y-106295186D01*
X127057732Y-106157285D01*
X127181088Y-105993935D01*
X127272328Y-105810701D01*
X127328345Y-105613821D01*
X127334640Y-105545880D01*
X127347232Y-105410004D01*
X127347232Y-105409995D01*
X127328411Y-105206888D01*
X127328345Y-105206179D01*
X127272328Y-105009299D01*
X127181088Y-104826065D01*
X127103964Y-104723936D01*
X127057733Y-104662715D01*
X126906463Y-104524814D01*
X126732433Y-104417059D01*
X126732428Y-104417057D01*
X126732427Y-104417056D01*
X126558639Y-104349730D01*
X126541559Y-104343113D01*
X126541560Y-104343113D01*
X126541557Y-104343112D01*
X126541556Y-104343112D01*
X126340347Y-104305500D01*
X126135653Y-104305500D01*
X125934444Y-104343112D01*
X125934439Y-104343113D01*
X125743577Y-104417054D01*
X125743566Y-104417059D01*
X125569536Y-104524814D01*
X125418266Y-104662715D01*
X125294913Y-104826063D01*
X125203671Y-105009301D01*
X125147654Y-105206180D01*
X125128768Y-105409995D01*
X125128768Y-105410004D01*
X124807232Y-105410004D01*
X124807232Y-105409995D01*
X124788411Y-105206888D01*
X124788345Y-105206179D01*
X124732328Y-105009299D01*
X124641088Y-104826065D01*
X124563964Y-104723936D01*
X124517733Y-104662715D01*
X124366463Y-104524814D01*
X124192433Y-104417059D01*
X124192428Y-104417057D01*
X124192427Y-104417056D01*
X124018639Y-104349730D01*
X124001559Y-104343113D01*
X124001560Y-104343113D01*
X124001557Y-104343112D01*
X124001556Y-104343112D01*
X123800347Y-104305500D01*
X123595653Y-104305500D01*
X123394444Y-104343112D01*
X123394439Y-104343113D01*
X123203577Y-104417054D01*
X123203566Y-104417059D01*
X123029536Y-104524814D01*
X122878266Y-104662715D01*
X122754913Y-104826063D01*
X122663671Y-105009301D01*
X122607654Y-105206180D01*
X122588768Y-105409995D01*
X122588768Y-105410004D01*
X119659500Y-105410004D01*
X119659500Y-102997001D01*
X122601037Y-102997001D01*
X122608147Y-103073725D01*
X122664138Y-103270514D01*
X122664140Y-103270519D01*
X122755340Y-103453672D01*
X122878637Y-103616946D01*
X123029838Y-103754784D01*
X123203796Y-103862493D01*
X123203803Y-103862496D01*
X123394578Y-103936403D01*
X123394576Y-103936403D01*
X123571000Y-103969381D01*
X123570999Y-103356881D01*
X123662237Y-103370000D01*
X123733763Y-103370000D01*
X123824999Y-103356881D01*
X123825000Y-103969381D01*
X124001422Y-103936403D01*
X124192196Y-103862496D01*
X124192203Y-103862493D01*
X124366161Y-103754784D01*
X124517362Y-103616946D01*
X124640659Y-103453672D01*
X124731859Y-103270519D01*
X124731861Y-103270514D01*
X124787852Y-103073725D01*
X124794962Y-102997001D01*
X125141037Y-102997001D01*
X125148147Y-103073725D01*
X125204138Y-103270514D01*
X125204140Y-103270519D01*
X125295340Y-103453672D01*
X125418637Y-103616946D01*
X125569838Y-103754784D01*
X125743796Y-103862493D01*
X125743803Y-103862496D01*
X125934578Y-103936403D01*
X125934576Y-103936403D01*
X126111000Y-103969381D01*
X126111000Y-103356881D01*
X126202237Y-103370000D01*
X126273763Y-103370000D01*
X126365000Y-103356881D01*
X126365000Y-103969381D01*
X126541422Y-103936403D01*
X126732196Y-103862496D01*
X126732203Y-103862493D01*
X126906161Y-103754784D01*
X127040849Y-103632000D01*
X137980580Y-103632000D01*
X138000734Y-103888081D01*
X138008119Y-103918840D01*
X138060699Y-104137854D01*
X138152214Y-104358791D01*
X138159000Y-104375175D01*
X138286652Y-104583483D01*
X138293217Y-104594195D01*
X138293218Y-104594197D01*
X138460040Y-104789522D01*
X138655365Y-104956344D01*
X138655369Y-104956347D01*
X138874388Y-105090563D01*
X139111707Y-105188863D01*
X139361426Y-105248815D01*
X139422991Y-105284165D01*
X139455674Y-105347191D01*
X139449094Y-105417883D01*
X139431971Y-105448036D01*
X139339646Y-105568356D01*
X139339645Y-105568358D01*
X139311708Y-105635801D01*
X139283771Y-105703247D01*
X139264715Y-105847999D01*
X139264715Y-105848000D01*
X139283771Y-105992752D01*
X139339644Y-106127641D01*
X139339649Y-106127649D01*
X139428525Y-106243474D01*
X139544350Y-106332350D01*
X139544357Y-106332355D01*
X139679246Y-106388228D01*
X139824000Y-106407285D01*
X139968754Y-106388228D01*
X140103643Y-106332355D01*
X140219474Y-106243474D01*
X140308355Y-106127643D01*
X140364228Y-105992754D01*
X140383285Y-105848000D01*
X140364228Y-105703246D01*
X140308355Y-105568358D01*
X140219474Y-105452526D01*
X140135787Y-105388310D01*
X140093920Y-105330972D01*
X140089699Y-105260101D01*
X140124464Y-105198198D01*
X140164270Y-105171941D01*
X140360738Y-105090563D01*
X140579757Y-104956347D01*
X140775085Y-104789522D01*
X140941910Y-104594194D01*
X141076126Y-104375175D01*
X141174426Y-104137856D01*
X141234392Y-103888081D01*
X141254546Y-103632000D01*
X141244158Y-103500004D01*
X142200554Y-103500004D01*
X142220295Y-103713044D01*
X142267602Y-103879313D01*
X142278849Y-103918840D01*
X142374219Y-104110370D01*
X142374220Y-104110371D01*
X142374221Y-104110373D01*
X142503155Y-104281110D01*
X142503158Y-104281112D01*
X142503159Y-104281114D01*
X142652279Y-104417054D01*
X142661278Y-104425258D01*
X142661279Y-104425259D01*
X142843178Y-104537886D01*
X142843181Y-104537887D01*
X142843190Y-104537893D01*
X143042698Y-104615183D01*
X143042703Y-104615185D01*
X143253020Y-104654500D01*
X143253022Y-104654500D01*
X143466978Y-104654500D01*
X143466980Y-104654500D01*
X143677297Y-104615185D01*
X143876810Y-104537893D01*
X144058722Y-104425258D01*
X144216841Y-104281114D01*
X144345781Y-104110370D01*
X144441151Y-103918840D01*
X144498311Y-103717943D01*
X144536190Y-103657898D01*
X144600521Y-103627864D01*
X144670877Y-103637377D01*
X144724922Y-103683417D01*
X144745496Y-103751367D01*
X144745500Y-103752426D01*
X144745500Y-104425063D01*
X144745501Y-104425073D01*
X144760265Y-104499300D01*
X144816516Y-104583484D01*
X144900697Y-104639733D01*
X144900699Y-104639734D01*
X144974933Y-104654500D01*
X146825066Y-104654499D01*
X146825069Y-104654498D01*
X146825073Y-104654498D01*
X146874326Y-104644701D01*
X146899301Y-104639734D01*
X146983484Y-104583484D01*
X147039734Y-104499301D01*
X147054500Y-104425067D01*
X147054499Y-104195345D01*
X147074501Y-104127227D01*
X147128156Y-104080734D01*
X147198430Y-104070629D01*
X147263011Y-104100122D01*
X147281049Y-104119415D01*
X147403155Y-104281110D01*
X147403158Y-104281112D01*
X147403159Y-104281114D01*
X147552279Y-104417054D01*
X147561278Y-104425258D01*
X147561279Y-104425259D01*
X147743178Y-104537886D01*
X147743181Y-104537887D01*
X147743190Y-104537893D01*
X147942698Y-104615183D01*
X147942703Y-104615185D01*
X148153020Y-104654500D01*
X148153022Y-104654500D01*
X148366978Y-104654500D01*
X148366980Y-104654500D01*
X148577297Y-104615185D01*
X148776810Y-104537893D01*
X148958722Y-104425258D01*
X149116841Y-104281114D01*
X149245781Y-104110370D01*
X149341151Y-103918840D01*
X149398311Y-103717943D01*
X149436190Y-103657898D01*
X149500521Y-103627864D01*
X149570877Y-103637377D01*
X149624922Y-103683417D01*
X149645496Y-103751367D01*
X149645500Y-103752426D01*
X149645500Y-104425063D01*
X149645501Y-104425073D01*
X149660265Y-104499300D01*
X149716516Y-104583484D01*
X149800697Y-104639733D01*
X149800699Y-104639734D01*
X149874933Y-104654500D01*
X151725066Y-104654499D01*
X151725069Y-104654498D01*
X151725073Y-104654498D01*
X151774326Y-104644701D01*
X151799301Y-104639734D01*
X151883484Y-104583484D01*
X151939734Y-104499301D01*
X151954500Y-104425067D01*
X151954499Y-104195345D01*
X151974501Y-104127227D01*
X152028156Y-104080734D01*
X152098430Y-104070629D01*
X152163011Y-104100122D01*
X152181049Y-104119415D01*
X152303155Y-104281110D01*
X152303158Y-104281112D01*
X152303159Y-104281114D01*
X152452279Y-104417054D01*
X152461278Y-104425258D01*
X152461279Y-104425259D01*
X152643178Y-104537886D01*
X152643181Y-104537887D01*
X152643190Y-104537893D01*
X152842698Y-104615183D01*
X152842703Y-104615185D01*
X153053020Y-104654500D01*
X153053022Y-104654500D01*
X153266978Y-104654500D01*
X153266980Y-104654500D01*
X153477297Y-104615185D01*
X153676810Y-104537893D01*
X153858722Y-104425258D01*
X154016841Y-104281114D01*
X154145781Y-104110370D01*
X154241151Y-103918840D01*
X154298311Y-103717943D01*
X154336190Y-103657898D01*
X154400521Y-103627864D01*
X154470877Y-103637377D01*
X154524922Y-103683417D01*
X154545496Y-103751367D01*
X154545500Y-103752426D01*
X154545500Y-104425063D01*
X154545501Y-104425073D01*
X154560265Y-104499300D01*
X154616516Y-104583484D01*
X154700697Y-104639733D01*
X154700699Y-104639734D01*
X154774933Y-104654500D01*
X156625066Y-104654499D01*
X156625069Y-104654498D01*
X156625073Y-104654498D01*
X156674326Y-104644701D01*
X156699301Y-104639734D01*
X156783484Y-104583484D01*
X156839734Y-104499301D01*
X156854500Y-104425067D01*
X156854500Y-103632000D01*
X157879605Y-103632000D01*
X157900005Y-103891212D01*
X157906638Y-103918839D01*
X157960703Y-104144040D01*
X158056443Y-104375175D01*
X158060207Y-104384263D01*
X158196064Y-104605961D01*
X158364930Y-104803677D01*
X158562646Y-104972543D01*
X158784344Y-105108400D01*
X159024565Y-105207903D01*
X159277395Y-105268602D01*
X159536607Y-105289002D01*
X159795819Y-105268602D01*
X160048649Y-105207903D01*
X160288870Y-105108400D01*
X160510568Y-104972543D01*
X160708284Y-104803677D01*
X160877150Y-104605961D01*
X161013007Y-104384263D01*
X161112510Y-104144042D01*
X161113479Y-104140004D01*
X171102768Y-104140004D01*
X171121654Y-104343819D01*
X171144826Y-104425259D01*
X171177672Y-104540701D01*
X171268912Y-104723935D01*
X171268913Y-104723936D01*
X171392266Y-104887284D01*
X171543536Y-105025185D01*
X171717566Y-105132940D01*
X171717568Y-105132940D01*
X171717573Y-105132944D01*
X171908444Y-105206888D01*
X172109653Y-105244500D01*
X172109655Y-105244500D01*
X172314345Y-105244500D01*
X172314347Y-105244500D01*
X172515556Y-105206888D01*
X172706427Y-105132944D01*
X172880462Y-105025186D01*
X173031732Y-104887285D01*
X173155088Y-104723935D01*
X173246328Y-104540701D01*
X173302345Y-104343821D01*
X173316103Y-104195348D01*
X173321232Y-104140004D01*
X173321232Y-104139995D01*
X173302345Y-103936180D01*
X173302345Y-103936179D01*
X173246328Y-103739299D01*
X173155088Y-103556065D01*
X173077765Y-103453672D01*
X173031733Y-103392715D01*
X172880463Y-103254814D01*
X172706433Y-103147059D01*
X172706428Y-103147057D01*
X172706427Y-103147056D01*
X172536351Y-103081168D01*
X172515559Y-103073113D01*
X172515560Y-103073113D01*
X172515557Y-103073112D01*
X172515556Y-103073112D01*
X172314347Y-103035500D01*
X172109653Y-103035500D01*
X171908444Y-103073112D01*
X171908439Y-103073113D01*
X171717577Y-103147054D01*
X171717566Y-103147059D01*
X171543536Y-103254814D01*
X171392266Y-103392715D01*
X171268913Y-103556063D01*
X171177671Y-103739301D01*
X171121654Y-103936180D01*
X171102768Y-104139995D01*
X171102768Y-104140004D01*
X161113479Y-104140004D01*
X161173209Y-103891212D01*
X161193609Y-103632000D01*
X161173209Y-103372788D01*
X161112510Y-103119958D01*
X161013007Y-102879737D01*
X160877150Y-102658039D01*
X160708284Y-102460323D01*
X160510568Y-102291457D01*
X160288870Y-102155600D01*
X160223301Y-102128440D01*
X160048647Y-102056096D01*
X159875693Y-102014574D01*
X159795819Y-101995398D01*
X159536607Y-101974998D01*
X159277395Y-101995398D01*
X159024566Y-102056096D01*
X158784345Y-102155599D01*
X158562647Y-102291456D01*
X158364930Y-102460323D01*
X158196063Y-102658040D01*
X158060206Y-102879738D01*
X157960703Y-103119959D01*
X157900005Y-103372788D01*
X157879931Y-103627864D01*
X157879605Y-103632000D01*
X156854500Y-103632000D01*
X156854499Y-102574934D01*
X156854498Y-102574930D01*
X156854498Y-102574926D01*
X156839734Y-102500699D01*
X156812755Y-102460323D01*
X156783484Y-102416516D01*
X156783483Y-102416515D01*
X156699302Y-102360266D01*
X156625067Y-102345500D01*
X154774936Y-102345500D01*
X154774926Y-102345501D01*
X154700699Y-102360265D01*
X154616515Y-102416516D01*
X154560266Y-102500697D01*
X154545500Y-102574930D01*
X154545500Y-103247572D01*
X154525498Y-103315693D01*
X154471842Y-103362186D01*
X154401568Y-103372290D01*
X154336988Y-103342796D01*
X154298604Y-103283070D01*
X154298310Y-103282053D01*
X154259900Y-103147056D01*
X154241151Y-103081160D01*
X154145781Y-102889630D01*
X154138310Y-102879737D01*
X154016844Y-102718889D01*
X153963002Y-102669806D01*
X153858722Y-102574742D01*
X153858721Y-102574741D01*
X153858720Y-102574740D01*
X153676821Y-102462113D01*
X153676814Y-102462109D01*
X153676810Y-102462107D01*
X153632776Y-102445048D01*
X153477301Y-102384816D01*
X153477302Y-102384816D01*
X153477297Y-102384815D01*
X153266980Y-102345500D01*
X153053020Y-102345500D01*
X152894313Y-102375167D01*
X152842697Y-102384816D01*
X152643194Y-102462105D01*
X152643178Y-102462113D01*
X152461279Y-102574740D01*
X152461278Y-102574741D01*
X152303155Y-102718889D01*
X152181049Y-102880585D01*
X152124035Y-102922893D01*
X152053199Y-102927660D01*
X151991030Y-102893374D01*
X151957267Y-102830919D01*
X151954499Y-102804653D01*
X151954499Y-102574936D01*
X151954498Y-102574926D01*
X151939734Y-102500699D01*
X151912755Y-102460323D01*
X151883484Y-102416516D01*
X151883483Y-102416515D01*
X151799302Y-102360266D01*
X151725067Y-102345500D01*
X149874936Y-102345500D01*
X149874926Y-102345501D01*
X149800699Y-102360265D01*
X149716515Y-102416516D01*
X149660266Y-102500697D01*
X149645500Y-102574930D01*
X149645500Y-103247572D01*
X149625498Y-103315693D01*
X149571842Y-103362186D01*
X149501568Y-103372290D01*
X149436988Y-103342796D01*
X149398604Y-103283070D01*
X149398310Y-103282053D01*
X149359900Y-103147056D01*
X149341151Y-103081160D01*
X149245781Y-102889630D01*
X149238310Y-102879737D01*
X149116844Y-102718889D01*
X149063002Y-102669806D01*
X148958722Y-102574742D01*
X148958721Y-102574741D01*
X148958720Y-102574740D01*
X148776821Y-102462113D01*
X148776814Y-102462109D01*
X148776810Y-102462107D01*
X148732776Y-102445048D01*
X148577301Y-102384816D01*
X148577302Y-102384816D01*
X148577297Y-102384815D01*
X148366980Y-102345500D01*
X148153020Y-102345500D01*
X147994313Y-102375167D01*
X147942697Y-102384816D01*
X147743194Y-102462105D01*
X147743178Y-102462113D01*
X147561279Y-102574740D01*
X147561278Y-102574741D01*
X147403155Y-102718889D01*
X147281049Y-102880585D01*
X147224035Y-102922893D01*
X147153199Y-102927660D01*
X147091030Y-102893374D01*
X147057267Y-102830919D01*
X147054499Y-102804653D01*
X147054499Y-102574936D01*
X147054498Y-102574926D01*
X147039734Y-102500699D01*
X147012755Y-102460323D01*
X146983484Y-102416516D01*
X146983483Y-102416515D01*
X146899302Y-102360266D01*
X146825067Y-102345500D01*
X144974936Y-102345500D01*
X144974926Y-102345501D01*
X144900699Y-102360265D01*
X144816515Y-102416516D01*
X144760266Y-102500697D01*
X144745500Y-102574930D01*
X144745500Y-103247572D01*
X144725498Y-103315693D01*
X144671842Y-103362186D01*
X144601568Y-103372290D01*
X144536988Y-103342796D01*
X144498604Y-103283070D01*
X144498310Y-103282053D01*
X144459900Y-103147056D01*
X144441151Y-103081160D01*
X144345781Y-102889630D01*
X144338310Y-102879737D01*
X144216844Y-102718889D01*
X144163002Y-102669806D01*
X144058722Y-102574742D01*
X144058721Y-102574741D01*
X144058720Y-102574740D01*
X143876821Y-102462113D01*
X143876814Y-102462109D01*
X143876810Y-102462107D01*
X143832776Y-102445048D01*
X143677301Y-102384816D01*
X143677302Y-102384816D01*
X143677297Y-102384815D01*
X143466980Y-102345500D01*
X143253020Y-102345500D01*
X143094313Y-102375167D01*
X143042697Y-102384816D01*
X142843194Y-102462105D01*
X142843178Y-102462113D01*
X142661279Y-102574740D01*
X142661278Y-102574741D01*
X142503155Y-102718889D01*
X142374221Y-102889626D01*
X142278849Y-103081160D01*
X142278847Y-103081165D01*
X142220295Y-103286955D01*
X142200554Y-103499995D01*
X142200554Y-103500004D01*
X141244158Y-103500004D01*
X141234392Y-103375919D01*
X141174426Y-103126144D01*
X141076126Y-102888825D01*
X140941910Y-102669806D01*
X140939418Y-102666888D01*
X140775085Y-102474477D01*
X140579760Y-102307655D01*
X140579758Y-102307654D01*
X140579757Y-102307653D01*
X140360738Y-102173437D01*
X140317676Y-102155600D01*
X140123417Y-102075136D01*
X139940018Y-102031106D01*
X139873644Y-102015171D01*
X139617563Y-101995017D01*
X139361482Y-102015171D01*
X139111708Y-102075136D01*
X138874389Y-102173436D01*
X138655367Y-102307654D01*
X138655365Y-102307655D01*
X138460040Y-102474477D01*
X138293218Y-102669802D01*
X138293217Y-102669804D01*
X138158999Y-102888826D01*
X138060699Y-103126145D01*
X138015193Y-103315693D01*
X138000734Y-103375919D01*
X137980580Y-103632000D01*
X127040849Y-103632000D01*
X127057362Y-103616946D01*
X127180659Y-103453672D01*
X127271859Y-103270519D01*
X127271861Y-103270514D01*
X127327852Y-103073725D01*
X127334962Y-102997001D01*
X127334962Y-102997000D01*
X126721818Y-102997000D01*
X126738000Y-102941889D01*
X126738000Y-102798111D01*
X126721818Y-102743000D01*
X127334962Y-102743000D01*
X127334962Y-102742998D01*
X127327852Y-102666274D01*
X127271861Y-102469485D01*
X127271859Y-102469480D01*
X127180659Y-102286327D01*
X127057362Y-102123053D01*
X126906161Y-101985215D01*
X126732203Y-101877506D01*
X126732196Y-101877503D01*
X126541422Y-101803596D01*
X126541424Y-101803596D01*
X126538236Y-101803000D01*
X133454715Y-101803000D01*
X133473771Y-101947752D01*
X133529644Y-102082641D01*
X133529649Y-102082649D01*
X133618525Y-102198474D01*
X133733017Y-102286327D01*
X133734357Y-102287355D01*
X133869246Y-102343228D01*
X134014000Y-102362285D01*
X134158754Y-102343228D01*
X134293643Y-102287355D01*
X134409474Y-102198474D01*
X134498355Y-102082643D01*
X134554228Y-101947754D01*
X134573285Y-101803000D01*
X134554228Y-101658246D01*
X134530103Y-101600004D01*
X171102768Y-101600004D01*
X171121654Y-101803819D01*
X171121655Y-101803821D01*
X171177672Y-102000701D01*
X171268912Y-102183935D01*
X171268913Y-102183936D01*
X171392266Y-102347284D01*
X171543536Y-102485185D01*
X171717566Y-102592940D01*
X171717568Y-102592940D01*
X171717573Y-102592944D01*
X171908444Y-102666888D01*
X172109653Y-102704500D01*
X172109655Y-102704500D01*
X172314345Y-102704500D01*
X172314347Y-102704500D01*
X172515556Y-102666888D01*
X172706427Y-102592944D01*
X172880462Y-102485186D01*
X173031732Y-102347285D01*
X173155088Y-102183935D01*
X173246328Y-102000701D01*
X173302345Y-101803821D01*
X173321232Y-101600000D01*
X173314129Y-101523352D01*
X173302411Y-101396888D01*
X173302345Y-101396179D01*
X173246328Y-101199299D01*
X173155088Y-101016065D01*
X173077964Y-100913936D01*
X173031733Y-100852715D01*
X172880463Y-100714814D01*
X172706433Y-100607059D01*
X172706428Y-100607057D01*
X172706427Y-100607056D01*
X172706422Y-100607054D01*
X172515559Y-100533113D01*
X172515560Y-100533113D01*
X172515557Y-100533112D01*
X172515556Y-100533112D01*
X172314347Y-100495500D01*
X172109653Y-100495500D01*
X171912494Y-100532355D01*
X171908439Y-100533113D01*
X171717577Y-100607054D01*
X171717566Y-100607059D01*
X171543536Y-100714814D01*
X171392266Y-100852715D01*
X171268913Y-101016063D01*
X171177671Y-101199301D01*
X171121654Y-101396180D01*
X171102768Y-101599995D01*
X171102768Y-101600004D01*
X134530103Y-101600004D01*
X134498355Y-101523358D01*
X134498350Y-101523352D01*
X134498350Y-101523351D01*
X134445675Y-101454704D01*
X134420074Y-101388484D01*
X134434339Y-101318935D01*
X134445669Y-101301303D01*
X134498355Y-101232643D01*
X134554228Y-101097754D01*
X134573285Y-100953000D01*
X134554228Y-100808246D01*
X134498355Y-100673358D01*
X134409474Y-100557526D01*
X134409472Y-100557524D01*
X134409471Y-100557523D01*
X134293649Y-100468649D01*
X134293641Y-100468644D01*
X134158752Y-100412771D01*
X134014000Y-100393715D01*
X133869247Y-100412771D01*
X133821981Y-100432350D01*
X133734358Y-100468645D01*
X133734357Y-100468646D01*
X133734356Y-100468646D01*
X133618526Y-100557526D01*
X133529646Y-100673356D01*
X133529645Y-100673358D01*
X133512473Y-100714814D01*
X133473771Y-100808247D01*
X133454715Y-100952999D01*
X133454715Y-100953000D01*
X133473771Y-101097752D01*
X133529644Y-101232641D01*
X133529649Y-101232649D01*
X133582324Y-101301296D01*
X133607925Y-101367516D01*
X133593660Y-101437065D01*
X133582325Y-101454703D01*
X133529649Y-101523352D01*
X133529646Y-101523355D01*
X133529645Y-101523358D01*
X133501708Y-101590802D01*
X133473771Y-101658247D01*
X133454715Y-101802999D01*
X133454715Y-101803000D01*
X126538236Y-101803000D01*
X126365000Y-101770617D01*
X126365000Y-102383118D01*
X126273763Y-102370000D01*
X126202237Y-102370000D01*
X126111000Y-102383118D01*
X126111000Y-101770617D01*
X125934576Y-101803596D01*
X125743803Y-101877503D01*
X125743796Y-101877506D01*
X125569838Y-101985215D01*
X125418637Y-102123053D01*
X125295340Y-102286327D01*
X125204140Y-102469480D01*
X125204138Y-102469485D01*
X125148147Y-102666274D01*
X125141037Y-102742998D01*
X125141038Y-102743000D01*
X125754182Y-102743000D01*
X125738000Y-102798111D01*
X125738000Y-102941889D01*
X125754182Y-102997000D01*
X125141038Y-102997000D01*
X125141037Y-102997001D01*
X124794962Y-102997001D01*
X124794962Y-102997000D01*
X124181818Y-102997000D01*
X124198000Y-102941889D01*
X124198000Y-102798111D01*
X124181818Y-102743000D01*
X124794962Y-102743000D01*
X124794962Y-102742998D01*
X124787852Y-102666274D01*
X124731861Y-102469485D01*
X124731859Y-102469480D01*
X124640659Y-102286327D01*
X124517362Y-102123053D01*
X124366161Y-101985215D01*
X124192203Y-101877506D01*
X124192196Y-101877503D01*
X124001422Y-101803596D01*
X124001424Y-101803596D01*
X123824999Y-101770617D01*
X123824999Y-102383117D01*
X123733763Y-102370000D01*
X123662237Y-102370000D01*
X123570999Y-102383118D01*
X123571000Y-101770617D01*
X123394576Y-101803596D01*
X123203803Y-101877503D01*
X123203796Y-101877506D01*
X123029838Y-101985215D01*
X122878637Y-102123053D01*
X122755340Y-102286327D01*
X122664140Y-102469480D01*
X122664138Y-102469485D01*
X122608147Y-102666274D01*
X122601037Y-102742998D01*
X122601038Y-102743000D01*
X123214182Y-102743000D01*
X123198000Y-102798111D01*
X123198000Y-102941889D01*
X123214182Y-102997000D01*
X122601038Y-102997000D01*
X122601037Y-102997001D01*
X119659500Y-102997001D01*
X119659500Y-100330004D01*
X122588768Y-100330004D01*
X122607654Y-100533819D01*
X122659152Y-100714814D01*
X122663672Y-100730701D01*
X122754912Y-100913935D01*
X122754913Y-100913936D01*
X122878266Y-101077284D01*
X123029536Y-101215185D01*
X123203566Y-101322940D01*
X123203568Y-101322940D01*
X123203573Y-101322944D01*
X123394444Y-101396888D01*
X123595653Y-101434500D01*
X123595655Y-101434500D01*
X123800345Y-101434500D01*
X123800347Y-101434500D01*
X124001556Y-101396888D01*
X124192427Y-101322944D01*
X124366462Y-101215186D01*
X124517732Y-101077285D01*
X124641088Y-100913935D01*
X124732328Y-100730701D01*
X124788345Y-100533821D01*
X124801328Y-100393715D01*
X124807232Y-100330004D01*
X125128768Y-100330004D01*
X125147654Y-100533819D01*
X125199152Y-100714814D01*
X125203672Y-100730701D01*
X125294912Y-100913935D01*
X125294913Y-100913936D01*
X125418266Y-101077284D01*
X125569536Y-101215185D01*
X125743566Y-101322940D01*
X125743568Y-101322940D01*
X125743573Y-101322944D01*
X125934444Y-101396888D01*
X126135653Y-101434500D01*
X126135655Y-101434500D01*
X126340345Y-101434500D01*
X126340347Y-101434500D01*
X126541556Y-101396888D01*
X126732427Y-101322944D01*
X126906462Y-101215186D01*
X127057732Y-101077285D01*
X127181088Y-100913935D01*
X127272328Y-100730701D01*
X127328345Y-100533821D01*
X127341328Y-100393715D01*
X127347232Y-100330004D01*
X127347232Y-100329995D01*
X127328411Y-100126888D01*
X127328345Y-100126179D01*
X127294720Y-100008000D01*
X131644715Y-100008000D01*
X131663771Y-100152752D01*
X131719644Y-100287641D01*
X131719649Y-100287649D01*
X131808525Y-100403474D01*
X131924350Y-100492350D01*
X131924357Y-100492355D01*
X132059246Y-100548228D01*
X132204000Y-100567285D01*
X132348754Y-100548228D01*
X132483643Y-100492355D01*
X132599474Y-100403474D01*
X132688355Y-100287643D01*
X132744228Y-100152754D01*
X132763285Y-100008000D01*
X132744228Y-99863246D01*
X132688355Y-99728358D01*
X132599474Y-99612526D01*
X132599472Y-99612524D01*
X132599471Y-99612523D01*
X132483649Y-99523649D01*
X132483641Y-99523644D01*
X132348752Y-99467771D01*
X132204000Y-99448715D01*
X132059247Y-99467771D01*
X131996786Y-99493644D01*
X131924358Y-99523645D01*
X131924357Y-99523646D01*
X131924356Y-99523646D01*
X131808526Y-99612526D01*
X131719646Y-99728356D01*
X131719645Y-99728358D01*
X131691708Y-99795801D01*
X131663771Y-99863247D01*
X131644715Y-100007999D01*
X131644715Y-100008000D01*
X127294720Y-100008000D01*
X127272328Y-99929299D01*
X127181088Y-99746065D01*
X127140538Y-99692368D01*
X127057733Y-99582715D01*
X126906463Y-99444814D01*
X126896266Y-99438500D01*
X133379215Y-99438500D01*
X133398271Y-99583252D01*
X133454144Y-99718141D01*
X133454149Y-99718149D01*
X133543025Y-99833974D01*
X133658850Y-99922850D01*
X133658857Y-99922855D01*
X133793746Y-99978728D01*
X133829796Y-99983474D01*
X133938499Y-99997785D01*
X133938499Y-99997784D01*
X133938500Y-99997785D01*
X134083254Y-99978728D01*
X134085012Y-99978000D01*
X135664715Y-99978000D01*
X135683771Y-100122752D01*
X135739644Y-100257641D01*
X135739649Y-100257649D01*
X135828525Y-100373474D01*
X135944350Y-100462350D01*
X135944357Y-100462355D01*
X136079246Y-100518228D01*
X136151622Y-100527756D01*
X136223999Y-100537285D01*
X136223999Y-100537284D01*
X136224000Y-100537285D01*
X136368754Y-100518228D01*
X136503643Y-100462355D01*
X136619474Y-100373474D01*
X136708355Y-100257643D01*
X136764228Y-100122754D01*
X136783285Y-99978000D01*
X136779335Y-99948000D01*
X136768178Y-99863247D01*
X136764228Y-99833246D01*
X136708355Y-99698358D01*
X136623674Y-99588000D01*
X156634715Y-99588000D01*
X156653771Y-99732752D01*
X156709644Y-99867641D01*
X156709649Y-99867649D01*
X156798525Y-99983474D01*
X156914350Y-100072350D01*
X156914357Y-100072355D01*
X157049246Y-100128228D01*
X157121622Y-100137756D01*
X157193999Y-100147285D01*
X157193999Y-100147284D01*
X157194000Y-100147285D01*
X157338754Y-100128228D01*
X157473643Y-100072355D01*
X157505383Y-100048000D01*
X158974715Y-100048000D01*
X158993771Y-100192752D01*
X159049644Y-100327641D01*
X159049649Y-100327649D01*
X159138525Y-100443474D01*
X159221685Y-100507285D01*
X159254357Y-100532355D01*
X159389246Y-100588228D01*
X159534000Y-100607285D01*
X159678754Y-100588228D01*
X159813643Y-100532355D01*
X159929474Y-100443474D01*
X160018355Y-100327643D01*
X160074228Y-100192754D01*
X160093285Y-100048000D01*
X160080120Y-99948000D01*
X160734715Y-99948000D01*
X160753771Y-100092752D01*
X160809644Y-100227641D01*
X160809649Y-100227649D01*
X160898525Y-100343474D01*
X160988836Y-100412772D01*
X161014357Y-100432355D01*
X161149246Y-100488228D01*
X161294000Y-100507285D01*
X161438754Y-100488228D01*
X161573643Y-100432355D01*
X161689474Y-100343474D01*
X161778355Y-100227643D01*
X161834228Y-100092754D01*
X161853285Y-99948000D01*
X161852914Y-99945185D01*
X161838178Y-99833247D01*
X161834228Y-99803246D01*
X161798918Y-99718000D01*
X168924715Y-99718000D01*
X168943771Y-99862752D01*
X168999644Y-99997641D01*
X168999649Y-99997649D01*
X169088525Y-100113474D01*
X169204350Y-100202350D01*
X169204357Y-100202355D01*
X169339246Y-100258228D01*
X169484000Y-100277285D01*
X169628754Y-100258228D01*
X169763643Y-100202355D01*
X169879474Y-100113474D01*
X169968355Y-99997643D01*
X170024228Y-99862754D01*
X170043285Y-99718000D01*
X170024228Y-99573246D01*
X169968355Y-99438358D01*
X169879474Y-99322526D01*
X169879472Y-99322524D01*
X169879471Y-99322523D01*
X169763649Y-99233649D01*
X169763641Y-99233644D01*
X169628752Y-99177771D01*
X169484000Y-99158715D01*
X169339247Y-99177771D01*
X169271801Y-99205708D01*
X169204358Y-99233645D01*
X169204357Y-99233646D01*
X169204356Y-99233646D01*
X169088526Y-99322526D01*
X168999646Y-99438356D01*
X168999645Y-99438358D01*
X168971708Y-99505801D01*
X168943771Y-99573247D01*
X168924715Y-99717999D01*
X168924715Y-99718000D01*
X161798918Y-99718000D01*
X161778355Y-99668358D01*
X161689474Y-99552526D01*
X161689472Y-99552524D01*
X161689471Y-99552523D01*
X161573649Y-99463649D01*
X161573641Y-99463644D01*
X161438752Y-99407771D01*
X161294000Y-99388715D01*
X161149247Y-99407771D01*
X161081801Y-99435708D01*
X161014358Y-99463645D01*
X161014357Y-99463646D01*
X161014356Y-99463646D01*
X160898526Y-99552526D01*
X160809646Y-99668356D01*
X160809645Y-99668358D01*
X160789024Y-99718141D01*
X160753771Y-99803247D01*
X160734715Y-99947999D01*
X160734715Y-99948000D01*
X160080120Y-99948000D01*
X160074228Y-99903246D01*
X160018355Y-99768358D01*
X159929474Y-99652526D01*
X159929472Y-99652524D01*
X159929471Y-99652523D01*
X159813649Y-99563649D01*
X159813641Y-99563644D01*
X159678752Y-99507771D01*
X159534000Y-99488715D01*
X159389247Y-99507771D01*
X159321801Y-99535708D01*
X159254358Y-99563645D01*
X159254357Y-99563646D01*
X159254356Y-99563646D01*
X159138526Y-99652526D01*
X159049646Y-99768356D01*
X159049645Y-99768358D01*
X159033521Y-99807284D01*
X158993771Y-99903247D01*
X158974715Y-100047999D01*
X158974715Y-100048000D01*
X157505383Y-100048000D01*
X157589474Y-99983474D01*
X157678355Y-99867643D01*
X157734228Y-99732754D01*
X157753285Y-99588000D01*
X157734228Y-99443246D01*
X157678355Y-99308358D01*
X157589474Y-99192526D01*
X157589472Y-99192524D01*
X157589471Y-99192523D01*
X157473649Y-99103649D01*
X157473641Y-99103644D01*
X157368285Y-99060004D01*
X171102768Y-99060004D01*
X171121654Y-99263819D01*
X171172706Y-99443247D01*
X171177672Y-99460701D01*
X171268912Y-99643935D01*
X171275400Y-99652526D01*
X171392266Y-99807284D01*
X171543536Y-99945185D01*
X171717566Y-100052940D01*
X171717568Y-100052940D01*
X171717573Y-100052944D01*
X171908444Y-100126888D01*
X172109653Y-100164500D01*
X172109655Y-100164500D01*
X172314345Y-100164500D01*
X172314347Y-100164500D01*
X172515556Y-100126888D01*
X172706427Y-100052944D01*
X172880462Y-99945186D01*
X173031732Y-99807285D01*
X173034782Y-99803247D01*
X173077963Y-99746065D01*
X173155088Y-99643935D01*
X173246328Y-99460701D01*
X173302345Y-99263821D01*
X173312071Y-99158858D01*
X173321232Y-99060004D01*
X173321232Y-99059995D01*
X173302411Y-98856888D01*
X173302345Y-98856179D01*
X173246328Y-98659299D01*
X173155088Y-98476065D01*
X173084322Y-98382355D01*
X173031733Y-98312715D01*
X172880463Y-98174814D01*
X172706433Y-98067059D01*
X172706428Y-98067057D01*
X172706427Y-98067056D01*
X172706422Y-98067054D01*
X172515559Y-97993113D01*
X172515560Y-97993113D01*
X172515557Y-97993112D01*
X172515556Y-97993112D01*
X172314347Y-97955500D01*
X172109653Y-97955500D01*
X171908444Y-97993112D01*
X171908439Y-97993113D01*
X171717577Y-98067054D01*
X171717566Y-98067059D01*
X171543536Y-98174814D01*
X171392266Y-98312715D01*
X171268913Y-98476063D01*
X171177671Y-98659301D01*
X171121654Y-98856180D01*
X171102768Y-99059995D01*
X171102768Y-99060004D01*
X157368285Y-99060004D01*
X157338752Y-99047771D01*
X157194000Y-99028715D01*
X157049247Y-99047771D01*
X156981801Y-99075708D01*
X156914358Y-99103645D01*
X156914357Y-99103646D01*
X156914356Y-99103646D01*
X156798526Y-99192526D01*
X156709646Y-99308356D01*
X156709645Y-99308358D01*
X156697759Y-99337054D01*
X156653771Y-99443247D01*
X156634715Y-99587999D01*
X156634715Y-99588000D01*
X136623674Y-99588000D01*
X136619474Y-99582526D01*
X136619472Y-99582524D01*
X136619471Y-99582523D01*
X136503649Y-99493649D01*
X136503641Y-99493644D01*
X136368752Y-99437771D01*
X136224000Y-99418715D01*
X136079247Y-99437771D01*
X136023898Y-99460698D01*
X135944358Y-99493645D01*
X135944357Y-99493646D01*
X135944356Y-99493646D01*
X135828526Y-99582526D01*
X135739646Y-99698356D01*
X135739645Y-99698358D01*
X135725398Y-99732754D01*
X135683771Y-99833247D01*
X135664715Y-99977999D01*
X135664715Y-99978000D01*
X134085012Y-99978000D01*
X134218143Y-99922855D01*
X134333974Y-99833974D01*
X134422855Y-99718143D01*
X134478728Y-99583254D01*
X134497785Y-99438500D01*
X134493739Y-99407771D01*
X134484430Y-99337056D01*
X134478728Y-99293746D01*
X134422855Y-99158858D01*
X134333974Y-99043026D01*
X134333972Y-99043024D01*
X134333971Y-99043023D01*
X134218149Y-98954149D01*
X134218141Y-98954144D01*
X134083252Y-98898271D01*
X133938500Y-98879215D01*
X133793747Y-98898271D01*
X133726302Y-98926208D01*
X133658858Y-98954145D01*
X133658857Y-98954146D01*
X133658856Y-98954146D01*
X133543026Y-99043026D01*
X133454146Y-99158856D01*
X133454145Y-99158858D01*
X133440199Y-99192526D01*
X133398271Y-99293747D01*
X133379215Y-99438499D01*
X133379215Y-99438500D01*
X126896266Y-99438500D01*
X126732433Y-99337059D01*
X126732428Y-99337057D01*
X126732427Y-99337056D01*
X126620634Y-99293747D01*
X126541559Y-99263113D01*
X126541560Y-99263113D01*
X126541557Y-99263112D01*
X126541556Y-99263112D01*
X126340347Y-99225500D01*
X126135653Y-99225500D01*
X125934444Y-99263112D01*
X125934439Y-99263113D01*
X125743577Y-99337054D01*
X125743566Y-99337059D01*
X125569536Y-99444814D01*
X125418266Y-99582715D01*
X125294913Y-99746063D01*
X125203671Y-99929301D01*
X125147654Y-100126180D01*
X125128768Y-100329995D01*
X125128768Y-100330004D01*
X124807232Y-100330004D01*
X124807232Y-100329995D01*
X124788411Y-100126888D01*
X124788345Y-100126179D01*
X124732328Y-99929299D01*
X124641088Y-99746065D01*
X124600538Y-99692368D01*
X124517733Y-99582715D01*
X124366463Y-99444814D01*
X124192433Y-99337059D01*
X124192428Y-99337057D01*
X124192427Y-99337056D01*
X124080634Y-99293747D01*
X124001559Y-99263113D01*
X124001560Y-99263113D01*
X124001557Y-99263112D01*
X124001556Y-99263112D01*
X123800347Y-99225500D01*
X123595653Y-99225500D01*
X123394444Y-99263112D01*
X123394439Y-99263113D01*
X123203577Y-99337054D01*
X123203566Y-99337059D01*
X123029536Y-99444814D01*
X122878266Y-99582715D01*
X122754913Y-99746063D01*
X122663671Y-99929301D01*
X122607654Y-100126180D01*
X122588768Y-100329995D01*
X122588768Y-100330004D01*
X119659500Y-100330004D01*
X119659500Y-97790004D01*
X122588768Y-97790004D01*
X122607654Y-97993819D01*
X122645897Y-98128228D01*
X122663672Y-98190701D01*
X122754912Y-98373935D01*
X122775186Y-98400783D01*
X122878266Y-98537284D01*
X123029536Y-98675185D01*
X123203566Y-98782940D01*
X123203568Y-98782940D01*
X123203573Y-98782944D01*
X123394444Y-98856888D01*
X123595653Y-98894500D01*
X123595655Y-98894500D01*
X123800345Y-98894500D01*
X123800347Y-98894500D01*
X124001556Y-98856888D01*
X124192427Y-98782944D01*
X124366462Y-98675186D01*
X124517732Y-98537285D01*
X124641088Y-98373935D01*
X124732328Y-98190701D01*
X124788345Y-97993821D01*
X124800037Y-97867643D01*
X124807232Y-97790004D01*
X125128768Y-97790004D01*
X125147654Y-97993819D01*
X125185897Y-98128228D01*
X125203672Y-98190701D01*
X125294912Y-98373935D01*
X125315186Y-98400783D01*
X125418266Y-98537284D01*
X125569536Y-98675185D01*
X125743566Y-98782940D01*
X125743568Y-98782940D01*
X125743573Y-98782944D01*
X125934444Y-98856888D01*
X126135653Y-98894500D01*
X126135655Y-98894500D01*
X126340345Y-98894500D01*
X126340347Y-98894500D01*
X126541556Y-98856888D01*
X126732427Y-98782944D01*
X126906462Y-98675186D01*
X127057732Y-98537285D01*
X127181088Y-98373935D01*
X127213920Y-98308000D01*
X131644715Y-98308000D01*
X131663771Y-98452752D01*
X131719644Y-98587641D01*
X131719649Y-98587649D01*
X131808525Y-98703474D01*
X131924350Y-98792350D01*
X131924357Y-98792355D01*
X132059246Y-98848228D01*
X132119641Y-98856179D01*
X132203999Y-98867285D01*
X132203999Y-98867284D01*
X132204000Y-98867285D01*
X132348754Y-98848228D01*
X132483643Y-98792355D01*
X132599474Y-98703474D01*
X132688355Y-98587643D01*
X132744228Y-98452754D01*
X132763285Y-98308000D01*
X132744228Y-98163246D01*
X132688355Y-98028358D01*
X132599474Y-97912526D01*
X132599472Y-97912524D01*
X132599471Y-97912523D01*
X132567512Y-97888000D01*
X140159715Y-97888000D01*
X140178771Y-98032752D01*
X140234644Y-98167641D01*
X140234649Y-98167649D01*
X140323525Y-98283474D01*
X140439350Y-98372350D01*
X140439357Y-98372355D01*
X140574246Y-98428228D01*
X140719000Y-98447285D01*
X140863754Y-98428228D01*
X140998643Y-98372355D01*
X141067297Y-98319673D01*
X141133515Y-98294074D01*
X141203064Y-98308338D01*
X141220696Y-98319669D01*
X141289357Y-98372355D01*
X141424246Y-98428228D01*
X141496623Y-98437756D01*
X141568999Y-98447285D01*
X141568999Y-98447284D01*
X141569000Y-98447285D01*
X141713754Y-98428228D01*
X141848643Y-98372355D01*
X141964474Y-98283474D01*
X142053355Y-98167643D01*
X142109228Y-98032754D01*
X142128285Y-97888000D01*
X142109228Y-97743246D01*
X142053355Y-97608358D01*
X142037734Y-97588000D01*
X156744715Y-97588000D01*
X156763771Y-97732752D01*
X156819644Y-97867641D01*
X156819649Y-97867649D01*
X156908525Y-97983474D01*
X157017451Y-98067056D01*
X157024357Y-98072355D01*
X157159246Y-98128228D01*
X157304000Y-98147285D01*
X157448754Y-98128228D01*
X157583643Y-98072355D01*
X157699474Y-97983474D01*
X157765061Y-97898000D01*
X165169715Y-97898000D01*
X165188771Y-98042752D01*
X165244644Y-98177641D01*
X165244649Y-98177649D01*
X165333525Y-98293474D01*
X165438385Y-98373936D01*
X165449357Y-98382355D01*
X165584246Y-98438228D01*
X165653042Y-98447285D01*
X165728999Y-98457285D01*
X165728999Y-98457284D01*
X165729000Y-98457285D01*
X165873754Y-98438228D01*
X166008643Y-98382355D01*
X166077297Y-98329673D01*
X166143515Y-98304074D01*
X166213064Y-98318338D01*
X166230696Y-98329669D01*
X166299357Y-98382355D01*
X166434246Y-98438228D01*
X166579000Y-98457285D01*
X166723754Y-98438228D01*
X166858643Y-98382355D01*
X166974474Y-98293474D01*
X167063355Y-98177643D01*
X167119228Y-98042754D01*
X167138285Y-97898000D01*
X167136968Y-97888000D01*
X167119228Y-97753247D01*
X167115086Y-97743247D01*
X167063355Y-97618358D01*
X166974474Y-97502526D01*
X166974472Y-97502524D01*
X166974471Y-97502523D01*
X166858649Y-97413649D01*
X166858641Y-97413644D01*
X166813783Y-97395063D01*
X171107500Y-97395063D01*
X171107501Y-97395073D01*
X171122265Y-97469300D01*
X171178516Y-97553484D01*
X171262697Y-97609733D01*
X171262699Y-97609734D01*
X171336933Y-97624500D01*
X173087066Y-97624499D01*
X173087069Y-97624498D01*
X173087073Y-97624498D01*
X173136326Y-97614701D01*
X173161301Y-97609734D01*
X173245484Y-97553484D01*
X173301734Y-97469301D01*
X173316500Y-97395067D01*
X173316499Y-95644934D01*
X173316498Y-95644930D01*
X173316498Y-95644926D01*
X173301734Y-95570699D01*
X173245483Y-95486515D01*
X173161302Y-95430266D01*
X173087067Y-95415500D01*
X171336936Y-95415500D01*
X171336926Y-95415501D01*
X171262699Y-95430265D01*
X171178515Y-95486516D01*
X171122266Y-95570697D01*
X171107500Y-95644930D01*
X171107500Y-97395063D01*
X166813783Y-97395063D01*
X166723752Y-97357771D01*
X166579000Y-97338715D01*
X166434247Y-97357771D01*
X166366802Y-97385708D01*
X166299358Y-97413645D01*
X166299356Y-97413646D01*
X166299357Y-97413646D01*
X166299352Y-97413649D01*
X166230703Y-97466325D01*
X166164483Y-97491925D01*
X166094934Y-97477660D01*
X166077296Y-97466324D01*
X166008649Y-97413649D01*
X166008641Y-97413644D01*
X165873752Y-97357771D01*
X165729000Y-97338715D01*
X165584247Y-97357771D01*
X165516801Y-97385708D01*
X165449358Y-97413645D01*
X165449357Y-97413646D01*
X165449356Y-97413646D01*
X165333526Y-97502526D01*
X165244646Y-97618356D01*
X165244645Y-97618358D01*
X165216708Y-97685801D01*
X165188771Y-97753247D01*
X165169715Y-97897999D01*
X165169715Y-97898000D01*
X157765061Y-97898000D01*
X157788355Y-97867643D01*
X157844228Y-97732754D01*
X157863285Y-97588000D01*
X157863045Y-97586180D01*
X157848759Y-97477660D01*
X157844228Y-97443246D01*
X157788355Y-97308358D01*
X157699474Y-97192526D01*
X157699472Y-97192524D01*
X157699471Y-97192523D01*
X157583649Y-97103649D01*
X157583641Y-97103644D01*
X157448752Y-97047771D01*
X157304000Y-97028715D01*
X157159247Y-97047771D01*
X157091801Y-97075708D01*
X157024358Y-97103645D01*
X157024357Y-97103646D01*
X157024356Y-97103646D01*
X156908526Y-97192526D01*
X156819646Y-97308356D01*
X156819645Y-97308358D01*
X156803319Y-97347772D01*
X156763771Y-97443247D01*
X156744715Y-97587999D01*
X156744715Y-97588000D01*
X142037734Y-97588000D01*
X141964474Y-97492526D01*
X141964472Y-97492524D01*
X141964471Y-97492523D01*
X141848649Y-97403649D01*
X141848641Y-97403644D01*
X141713752Y-97347771D01*
X141569000Y-97328715D01*
X141424247Y-97347771D01*
X141356802Y-97375708D01*
X141289358Y-97403645D01*
X141289356Y-97403646D01*
X141289357Y-97403646D01*
X141289352Y-97403649D01*
X141220703Y-97456325D01*
X141154483Y-97481925D01*
X141084934Y-97467660D01*
X141067296Y-97456324D01*
X140998649Y-97403649D01*
X140998641Y-97403644D01*
X140863752Y-97347771D01*
X140719000Y-97328715D01*
X140574247Y-97347771D01*
X140506801Y-97375708D01*
X140439358Y-97403645D01*
X140439357Y-97403646D01*
X140439356Y-97403646D01*
X140323526Y-97492526D01*
X140234646Y-97608356D01*
X140234645Y-97608358D01*
X140227959Y-97624500D01*
X140178771Y-97743247D01*
X140159715Y-97887999D01*
X140159715Y-97888000D01*
X132567512Y-97888000D01*
X132483649Y-97823649D01*
X132483641Y-97823644D01*
X132348752Y-97767771D01*
X132204000Y-97748715D01*
X132059247Y-97767771D01*
X131991801Y-97795708D01*
X131924358Y-97823645D01*
X131924357Y-97823646D01*
X131924356Y-97823646D01*
X131808526Y-97912526D01*
X131719646Y-98028356D01*
X131719645Y-98028358D01*
X131701423Y-98072350D01*
X131663771Y-98163247D01*
X131644715Y-98307999D01*
X131644715Y-98308000D01*
X127213920Y-98308000D01*
X127272328Y-98190701D01*
X127328345Y-97993821D01*
X127340037Y-97867643D01*
X127347232Y-97790004D01*
X127347232Y-97789995D01*
X127328345Y-97586180D01*
X127328345Y-97586179D01*
X127272328Y-97389299D01*
X127181088Y-97206065D01*
X127110715Y-97112876D01*
X127057733Y-97042715D01*
X126906463Y-96904814D01*
X126732433Y-96797059D01*
X126732428Y-96797057D01*
X126732427Y-96797056D01*
X126732422Y-96797054D01*
X126541559Y-96723113D01*
X126541560Y-96723113D01*
X126541557Y-96723112D01*
X126541556Y-96723112D01*
X126340347Y-96685500D01*
X126135653Y-96685500D01*
X125934444Y-96723112D01*
X125934439Y-96723113D01*
X125743577Y-96797054D01*
X125743566Y-96797059D01*
X125569536Y-96904814D01*
X125418266Y-97042715D01*
X125294913Y-97206063D01*
X125203671Y-97389301D01*
X125147654Y-97586180D01*
X125128768Y-97789995D01*
X125128768Y-97790004D01*
X124807232Y-97790004D01*
X124807232Y-97789995D01*
X124788345Y-97586180D01*
X124788345Y-97586179D01*
X124732328Y-97389299D01*
X124641088Y-97206065D01*
X124570715Y-97112876D01*
X124517733Y-97042715D01*
X124366463Y-96904814D01*
X124192433Y-96797059D01*
X124192428Y-96797057D01*
X124192427Y-96797056D01*
X124192422Y-96797054D01*
X124001559Y-96723113D01*
X124001560Y-96723113D01*
X124001557Y-96723112D01*
X124001556Y-96723112D01*
X123800347Y-96685500D01*
X123595653Y-96685500D01*
X123394444Y-96723112D01*
X123394439Y-96723113D01*
X123203577Y-96797054D01*
X123203566Y-96797059D01*
X123029536Y-96904814D01*
X122878266Y-97042715D01*
X122754913Y-97206063D01*
X122663671Y-97389301D01*
X122607654Y-97586180D01*
X122588768Y-97789995D01*
X122588768Y-97790004D01*
X119659500Y-97790004D01*
X119659500Y-96368000D01*
X132324715Y-96368000D01*
X132343771Y-96512752D01*
X132399644Y-96647641D01*
X132399649Y-96647649D01*
X132488525Y-96763474D01*
X132603369Y-96851597D01*
X132604357Y-96852355D01*
X132739246Y-96908228D01*
X132805224Y-96916914D01*
X132883999Y-96927285D01*
X132883999Y-96927284D01*
X132884000Y-96927285D01*
X133028754Y-96908228D01*
X133163643Y-96852355D01*
X133163644Y-96852353D01*
X133171273Y-96849194D01*
X133172268Y-96851597D01*
X133228634Y-96837910D01*
X133295731Y-96861117D01*
X133339630Y-96916914D01*
X133347588Y-96980215D01*
X133334715Y-97077999D01*
X133334715Y-97078000D01*
X133353771Y-97222752D01*
X133409644Y-97357641D01*
X133409649Y-97357649D01*
X133498525Y-97473474D01*
X133602796Y-97553484D01*
X133614357Y-97562355D01*
X133749246Y-97618228D01*
X133796872Y-97624498D01*
X133893999Y-97637285D01*
X133893999Y-97637284D01*
X133894000Y-97637285D01*
X134038754Y-97618228D01*
X134173643Y-97562355D01*
X134289474Y-97473474D01*
X134378355Y-97357643D01*
X134434228Y-97222754D01*
X134453285Y-97078000D01*
X134449305Y-97047772D01*
X134443756Y-97005622D01*
X134434228Y-96933246D01*
X134378355Y-96798358D01*
X134289474Y-96682526D01*
X134289472Y-96682524D01*
X134289471Y-96682523D01*
X134219095Y-96628521D01*
X151314194Y-96628521D01*
X151333250Y-96773273D01*
X151389123Y-96908162D01*
X151389128Y-96908170D01*
X151478004Y-97023995D01*
X151581807Y-97103646D01*
X151593836Y-97112876D01*
X151728725Y-97168749D01*
X151801101Y-97178277D01*
X151873478Y-97187806D01*
X151873478Y-97187805D01*
X151873479Y-97187806D01*
X152018233Y-97168749D01*
X152153122Y-97112876D01*
X152268953Y-97023995D01*
X152357834Y-96908164D01*
X152413707Y-96773275D01*
X152425002Y-96687477D01*
X152453724Y-96622551D01*
X152512989Y-96583459D01*
X152533475Y-96579002D01*
X152619275Y-96567707D01*
X152754164Y-96511834D01*
X152869995Y-96422953D01*
X152958876Y-96307122D01*
X153014749Y-96172233D01*
X153033806Y-96027479D01*
X153014749Y-95882725D01*
X152958876Y-95747837D01*
X152869995Y-95632005D01*
X152869993Y-95632003D01*
X152869992Y-95632002D01*
X152754170Y-95543128D01*
X152754162Y-95543123D01*
X152619273Y-95487250D01*
X152474521Y-95468194D01*
X152329768Y-95487250D01*
X152262323Y-95515187D01*
X152194879Y-95543124D01*
X152194878Y-95543125D01*
X152194877Y-95543125D01*
X152079047Y-95632005D01*
X151990167Y-95747835D01*
X151990166Y-95747837D01*
X151964949Y-95808715D01*
X151934292Y-95882726D01*
X151922997Y-95968522D01*
X151894274Y-96033449D01*
X151835008Y-96072540D01*
X151814522Y-96076997D01*
X151728726Y-96088292D01*
X151661281Y-96116229D01*
X151593837Y-96144166D01*
X151593836Y-96144167D01*
X151593835Y-96144167D01*
X151478005Y-96233047D01*
X151389125Y-96348877D01*
X151389124Y-96348879D01*
X151381204Y-96368000D01*
X151333250Y-96483768D01*
X151314194Y-96628520D01*
X151314194Y-96628521D01*
X134219095Y-96628521D01*
X134173649Y-96593649D01*
X134173641Y-96593644D01*
X134038752Y-96537771D01*
X133894000Y-96518715D01*
X133749247Y-96537771D01*
X133694279Y-96560540D01*
X133614358Y-96593645D01*
X133614355Y-96593646D01*
X133606729Y-96596806D01*
X133605737Y-96594412D01*
X133549301Y-96608086D01*
X133482216Y-96584845D01*
X133438345Y-96529025D01*
X133430411Y-96465786D01*
X133443285Y-96368000D01*
X133424228Y-96223246D01*
X133368355Y-96088358D01*
X133279474Y-95972526D01*
X133279472Y-95972524D01*
X133279471Y-95972523D01*
X133163649Y-95883649D01*
X133163641Y-95883644D01*
X133028752Y-95827771D01*
X132884000Y-95808715D01*
X132739247Y-95827771D01*
X132671802Y-95855708D01*
X132604358Y-95883645D01*
X132604357Y-95883646D01*
X132604356Y-95883646D01*
X132488526Y-95972526D01*
X132399646Y-96088356D01*
X132399645Y-96088358D01*
X132380248Y-96135186D01*
X132343771Y-96223247D01*
X132324715Y-96367999D01*
X132324715Y-96368000D01*
X119659500Y-96368000D01*
X119659500Y-95250004D01*
X122588768Y-95250004D01*
X122607654Y-95453819D01*
X122662029Y-95644926D01*
X122663672Y-95650701D01*
X122754912Y-95833935D01*
X122754913Y-95833936D01*
X122878266Y-95997284D01*
X123029536Y-96135185D01*
X123203566Y-96242940D01*
X123203568Y-96242940D01*
X123203573Y-96242944D01*
X123394444Y-96316888D01*
X123595653Y-96354500D01*
X123595655Y-96354500D01*
X123800345Y-96354500D01*
X123800347Y-96354500D01*
X124001556Y-96316888D01*
X124192427Y-96242944D01*
X124366462Y-96135186D01*
X124517732Y-95997285D01*
X124641088Y-95833935D01*
X124732328Y-95650701D01*
X124788345Y-95453821D01*
X124807232Y-95250004D01*
X125128768Y-95250004D01*
X125147654Y-95453819D01*
X125202029Y-95644926D01*
X125203672Y-95650701D01*
X125294912Y-95833935D01*
X125294913Y-95833936D01*
X125418266Y-95997284D01*
X125569536Y-96135185D01*
X125743566Y-96242940D01*
X125743568Y-96242940D01*
X125743573Y-96242944D01*
X125934444Y-96316888D01*
X126135653Y-96354500D01*
X126135655Y-96354500D01*
X126340345Y-96354500D01*
X126340347Y-96354500D01*
X126541556Y-96316888D01*
X126732427Y-96242944D01*
X126906462Y-96135186D01*
X127057732Y-95997285D01*
X127181088Y-95833935D01*
X127272328Y-95650701D01*
X127328345Y-95453821D01*
X127347232Y-95250000D01*
X127328345Y-95046179D01*
X127272328Y-94849299D01*
X127181088Y-94666065D01*
X127140538Y-94612368D01*
X127057733Y-94502715D01*
X126906463Y-94364814D01*
X126732433Y-94257059D01*
X126732428Y-94257057D01*
X126732427Y-94257056D01*
X126541559Y-94183113D01*
X126541560Y-94183113D01*
X126541557Y-94183112D01*
X126541556Y-94183112D01*
X126340347Y-94145500D01*
X126135653Y-94145500D01*
X125934444Y-94183112D01*
X125934439Y-94183113D01*
X125743577Y-94257054D01*
X125743566Y-94257059D01*
X125569536Y-94364814D01*
X125418266Y-94502715D01*
X125294913Y-94666063D01*
X125203671Y-94849301D01*
X125147654Y-95046180D01*
X125128768Y-95249995D01*
X125128768Y-95250004D01*
X124807232Y-95250004D01*
X124807232Y-95250000D01*
X124788345Y-95046179D01*
X124732328Y-94849299D01*
X124641088Y-94666065D01*
X124600538Y-94612368D01*
X124517733Y-94502715D01*
X124366463Y-94364814D01*
X124192433Y-94257059D01*
X124192428Y-94257057D01*
X124192427Y-94257056D01*
X124001559Y-94183113D01*
X124001560Y-94183113D01*
X124001557Y-94183112D01*
X124001556Y-94183112D01*
X123800347Y-94145500D01*
X123595653Y-94145500D01*
X123394444Y-94183112D01*
X123394439Y-94183113D01*
X123203577Y-94257054D01*
X123203566Y-94257059D01*
X123029536Y-94364814D01*
X122878266Y-94502715D01*
X122754913Y-94666063D01*
X122663671Y-94849301D01*
X122607654Y-95046180D01*
X122588768Y-95249995D01*
X122588768Y-95250004D01*
X119659500Y-95250004D01*
X119659500Y-92710004D01*
X122588768Y-92710004D01*
X122607654Y-92913819D01*
X122607655Y-92913821D01*
X122663672Y-93110701D01*
X122754912Y-93293935D01*
X122754913Y-93293936D01*
X122878266Y-93457284D01*
X123029536Y-93595185D01*
X123203566Y-93702940D01*
X123203568Y-93702940D01*
X123203573Y-93702944D01*
X123394444Y-93776888D01*
X123595653Y-93814500D01*
X123595655Y-93814500D01*
X123800345Y-93814500D01*
X123800347Y-93814500D01*
X124001556Y-93776888D01*
X124192427Y-93702944D01*
X124366462Y-93595186D01*
X124517732Y-93457285D01*
X124641088Y-93293935D01*
X124732328Y-93110701D01*
X124788345Y-92913821D01*
X124807232Y-92710004D01*
X125128768Y-92710004D01*
X125147654Y-92913819D01*
X125147655Y-92913821D01*
X125203672Y-93110701D01*
X125294912Y-93293935D01*
X125294913Y-93293936D01*
X125418266Y-93457284D01*
X125569536Y-93595185D01*
X125743566Y-93702940D01*
X125743568Y-93702940D01*
X125743573Y-93702944D01*
X125934444Y-93776888D01*
X126135653Y-93814500D01*
X126135655Y-93814500D01*
X126340345Y-93814500D01*
X126340347Y-93814500D01*
X126541556Y-93776888D01*
X126732427Y-93702944D01*
X126906462Y-93595186D01*
X127057732Y-93457285D01*
X127181088Y-93293935D01*
X127272328Y-93110701D01*
X127328345Y-92913821D01*
X127347232Y-92710000D01*
X127328345Y-92506179D01*
X127272328Y-92309299D01*
X127181088Y-92126065D01*
X127136188Y-92066608D01*
X127057733Y-91962715D01*
X126906463Y-91824814D01*
X126732433Y-91717059D01*
X126732428Y-91717057D01*
X126732427Y-91717056D01*
X126659188Y-91688683D01*
X126541559Y-91643113D01*
X126541560Y-91643113D01*
X126541557Y-91643112D01*
X126541556Y-91643112D01*
X126340347Y-91605500D01*
X126135653Y-91605500D01*
X125934444Y-91643112D01*
X125934439Y-91643113D01*
X125743577Y-91717054D01*
X125743566Y-91717059D01*
X125569536Y-91824814D01*
X125418266Y-91962715D01*
X125294913Y-92126063D01*
X125203671Y-92309301D01*
X125147654Y-92506180D01*
X125128768Y-92709995D01*
X125128768Y-92710004D01*
X124807232Y-92710004D01*
X124807232Y-92710000D01*
X124788345Y-92506179D01*
X124732328Y-92309299D01*
X124641088Y-92126065D01*
X124596188Y-92066608D01*
X124517733Y-91962715D01*
X124366463Y-91824814D01*
X124192433Y-91717059D01*
X124192428Y-91717057D01*
X124192427Y-91717056D01*
X124119188Y-91688683D01*
X124001559Y-91643113D01*
X124001560Y-91643113D01*
X124001557Y-91643112D01*
X124001556Y-91643112D01*
X123800347Y-91605500D01*
X123595653Y-91605500D01*
X123394444Y-91643112D01*
X123394439Y-91643113D01*
X123203577Y-91717054D01*
X123203566Y-91717059D01*
X123029536Y-91824814D01*
X122878266Y-91962715D01*
X122754913Y-92126063D01*
X122663671Y-92309301D01*
X122607654Y-92506180D01*
X122588768Y-92709995D01*
X122588768Y-92710004D01*
X119659500Y-92710004D01*
X119659500Y-90170004D01*
X122588768Y-90170004D01*
X122607654Y-90373819D01*
X122662945Y-90568146D01*
X122663672Y-90570701D01*
X122754912Y-90753935D01*
X122754913Y-90753936D01*
X122878266Y-90917284D01*
X123029536Y-91055185D01*
X123203566Y-91162940D01*
X123203568Y-91162940D01*
X123203573Y-91162944D01*
X123394444Y-91236888D01*
X123595653Y-91274500D01*
X123595655Y-91274500D01*
X123800345Y-91274500D01*
X123800347Y-91274500D01*
X124001556Y-91236888D01*
X124192427Y-91162944D01*
X124366462Y-91055186D01*
X124517732Y-90917285D01*
X124641088Y-90753935D01*
X124732328Y-90570701D01*
X124788345Y-90373821D01*
X124797508Y-90274934D01*
X124807232Y-90170004D01*
X125128768Y-90170004D01*
X125147654Y-90373819D01*
X125202945Y-90568146D01*
X125203672Y-90570701D01*
X125294912Y-90753935D01*
X125294913Y-90753936D01*
X125418266Y-90917284D01*
X125569536Y-91055185D01*
X125743566Y-91162940D01*
X125743568Y-91162940D01*
X125743573Y-91162944D01*
X125934444Y-91236888D01*
X126135653Y-91274500D01*
X126135655Y-91274500D01*
X126340345Y-91274500D01*
X126340347Y-91274500D01*
X126541556Y-91236888D01*
X126732427Y-91162944D01*
X126834080Y-91100003D01*
X132540900Y-91100003D01*
X132561248Y-91306611D01*
X132621519Y-91505301D01*
X132719390Y-91688403D01*
X132719392Y-91688405D01*
X132770145Y-91750248D01*
X133194497Y-91325895D01*
X133197128Y-91332598D01*
X133283586Y-91441013D01*
X133375753Y-91503851D01*
X132949749Y-91929854D01*
X133011593Y-91980607D01*
X133011597Y-91980609D01*
X133194698Y-92078480D01*
X133393388Y-92138751D01*
X133599997Y-92159100D01*
X133600003Y-92159100D01*
X133806611Y-92138751D01*
X134005301Y-92078480D01*
X134188404Y-91980608D01*
X134250249Y-91929853D01*
X133823382Y-91502986D01*
X133862054Y-91484363D01*
X133963705Y-91390045D01*
X134002483Y-91322879D01*
X134429853Y-91750249D01*
X134480608Y-91688404D01*
X134578480Y-91505301D01*
X134638751Y-91306611D01*
X134659100Y-91100003D01*
X135040398Y-91100003D01*
X135060756Y-91306711D01*
X135121055Y-91505492D01*
X135218974Y-91688686D01*
X135350747Y-91849252D01*
X135511313Y-91981024D01*
X135511313Y-91981025D01*
X135511317Y-91981027D01*
X135694508Y-92078945D01*
X135893282Y-92139242D01*
X135893286Y-92139242D01*
X135893288Y-92139243D01*
X136099997Y-92159602D01*
X136100000Y-92159602D01*
X136100003Y-92159602D01*
X136306711Y-92139243D01*
X136306712Y-92139242D01*
X136306718Y-92139242D01*
X136505492Y-92078945D01*
X136688683Y-91981027D01*
X136688684Y-91981025D01*
X136688686Y-91981025D01*
X136688686Y-91981024D01*
X136849252Y-91849252D01*
X136910445Y-91774688D01*
X136981023Y-91688688D01*
X136981023Y-91688687D01*
X136981027Y-91688683D01*
X136988879Y-91673992D01*
X137038629Y-91623347D01*
X137107865Y-91607636D01*
X137174604Y-91631851D01*
X137211120Y-91673992D01*
X137218973Y-91688683D01*
X137218976Y-91688688D01*
X137350747Y-91849252D01*
X137511313Y-91981024D01*
X137511313Y-91981025D01*
X137511317Y-91981027D01*
X137694508Y-92078945D01*
X137893282Y-92139242D01*
X137893286Y-92139242D01*
X137893288Y-92139243D01*
X138099997Y-92159602D01*
X138100000Y-92159602D01*
X138100003Y-92159602D01*
X138306711Y-92139243D01*
X138306712Y-92139242D01*
X138306718Y-92139242D01*
X138505492Y-92078945D01*
X138688683Y-91981027D01*
X138688684Y-91981025D01*
X138688686Y-91981025D01*
X138688686Y-91981024D01*
X138756875Y-91925063D01*
X139545500Y-91925063D01*
X139545501Y-91925073D01*
X139560265Y-91999300D01*
X139616516Y-92083484D01*
X139700697Y-92139733D01*
X139700699Y-92139734D01*
X139774933Y-92154500D01*
X141425066Y-92154499D01*
X141425069Y-92154498D01*
X141425073Y-92154498D01*
X141474326Y-92144701D01*
X141499301Y-92139734D01*
X141583484Y-92083484D01*
X141639734Y-91999301D01*
X141654500Y-91925067D01*
X141654500Y-91186003D01*
X158564900Y-91186003D01*
X158585248Y-91392611D01*
X158645519Y-91591301D01*
X158743390Y-91774403D01*
X158743392Y-91774405D01*
X158794145Y-91836248D01*
X158794146Y-91836249D01*
X159218498Y-91411896D01*
X159221128Y-91418598D01*
X159307586Y-91527013D01*
X159399753Y-91589851D01*
X158973749Y-92015854D01*
X159035593Y-92066607D01*
X159035597Y-92066609D01*
X159218698Y-92164480D01*
X159417388Y-92224751D01*
X159623997Y-92245100D01*
X159624003Y-92245100D01*
X159830611Y-92224751D01*
X160029301Y-92164480D01*
X160212404Y-92066608D01*
X160274249Y-92015853D01*
X159847382Y-91588986D01*
X159886054Y-91570363D01*
X159987705Y-91476045D01*
X160026483Y-91408879D01*
X160453853Y-91836249D01*
X160504608Y-91774404D01*
X160602480Y-91591301D01*
X160662751Y-91392611D01*
X160683100Y-91186003D01*
X161064398Y-91186003D01*
X161084756Y-91392711D01*
X161084757Y-91392717D01*
X161084758Y-91392718D01*
X161124000Y-91522082D01*
X161145055Y-91591492D01*
X161242974Y-91774686D01*
X161374747Y-91935252D01*
X161535313Y-92067024D01*
X161535313Y-92067025D01*
X161535317Y-92067027D01*
X161718508Y-92164945D01*
X161917282Y-92225242D01*
X161917286Y-92225242D01*
X161917288Y-92225243D01*
X162123997Y-92245602D01*
X162124000Y-92245602D01*
X162124003Y-92245602D01*
X162330711Y-92225243D01*
X162330712Y-92225242D01*
X162330718Y-92225242D01*
X162529492Y-92164945D01*
X162712683Y-92067027D01*
X162712684Y-92067025D01*
X162712686Y-92067025D01*
X162712686Y-92067024D01*
X162873252Y-91935252D01*
X163005027Y-91774683D01*
X163012879Y-91759992D01*
X163062629Y-91709347D01*
X163131865Y-91693636D01*
X163198604Y-91717851D01*
X163235120Y-91759992D01*
X163242973Y-91774683D01*
X163242976Y-91774688D01*
X163374747Y-91935252D01*
X163535313Y-92067024D01*
X163535313Y-92067025D01*
X163535317Y-92067027D01*
X163718508Y-92164945D01*
X163917282Y-92225242D01*
X163917286Y-92225242D01*
X163917288Y-92225243D01*
X164123997Y-92245602D01*
X164124000Y-92245602D01*
X164124003Y-92245602D01*
X164330711Y-92225243D01*
X164330712Y-92225242D01*
X164330718Y-92225242D01*
X164529492Y-92164945D01*
X164712683Y-92067027D01*
X164712684Y-92067025D01*
X164712686Y-92067025D01*
X164712686Y-92067024D01*
X164780875Y-92011063D01*
X165569500Y-92011063D01*
X165569501Y-92011073D01*
X165584265Y-92085300D01*
X165640516Y-92169484D01*
X165724697Y-92225733D01*
X165724699Y-92225734D01*
X165798933Y-92240500D01*
X167449066Y-92240499D01*
X167449069Y-92240498D01*
X167449073Y-92240498D01*
X167498326Y-92230701D01*
X167523301Y-92225734D01*
X167607484Y-92169484D01*
X167663734Y-92085301D01*
X167678500Y-92011067D01*
X167678499Y-90360934D01*
X167678498Y-90360930D01*
X167678498Y-90360926D01*
X167663734Y-90286699D01*
X167618759Y-90219390D01*
X167607484Y-90202516D01*
X167604762Y-90200697D01*
X167523302Y-90146266D01*
X167449067Y-90131500D01*
X165798936Y-90131500D01*
X165798926Y-90131501D01*
X165724699Y-90146265D01*
X165640515Y-90202516D01*
X165584266Y-90286697D01*
X165569500Y-90360930D01*
X165569500Y-92011063D01*
X164780875Y-92011063D01*
X164873252Y-91935252D01*
X165005027Y-91774683D01*
X165102945Y-91591492D01*
X165163242Y-91392718D01*
X165163506Y-91390045D01*
X165183602Y-91186003D01*
X165183602Y-91185996D01*
X165163243Y-90979288D01*
X165163242Y-90979286D01*
X165163242Y-90979282D01*
X165102945Y-90780508D01*
X165027422Y-90639216D01*
X165005025Y-90597313D01*
X164873252Y-90436747D01*
X164712686Y-90304975D01*
X164712686Y-90304974D01*
X164529492Y-90207055D01*
X164514529Y-90202516D01*
X164330718Y-90146758D01*
X164330717Y-90146757D01*
X164330711Y-90146756D01*
X164124003Y-90126398D01*
X164123997Y-90126398D01*
X163917288Y-90146756D01*
X163718507Y-90207055D01*
X163535313Y-90304974D01*
X163535313Y-90304975D01*
X163374747Y-90436747D01*
X163242976Y-90597311D01*
X163235122Y-90612006D01*
X163185369Y-90662654D01*
X163116132Y-90678363D01*
X163049393Y-90654146D01*
X163012878Y-90612006D01*
X163005027Y-90597317D01*
X163005024Y-90597313D01*
X163005023Y-90597311D01*
X162873252Y-90436747D01*
X162712686Y-90304975D01*
X162712686Y-90304974D01*
X162529492Y-90207055D01*
X162514529Y-90202516D01*
X162330718Y-90146758D01*
X162330717Y-90146757D01*
X162330711Y-90146756D01*
X162124003Y-90126398D01*
X162123997Y-90126398D01*
X161917288Y-90146756D01*
X161718507Y-90207055D01*
X161535313Y-90304974D01*
X161535313Y-90304975D01*
X161374747Y-90436747D01*
X161242975Y-90597313D01*
X161242974Y-90597313D01*
X161145055Y-90780507D01*
X161084756Y-90979288D01*
X161064398Y-91185996D01*
X161064398Y-91186003D01*
X160683100Y-91186003D01*
X160683100Y-91185996D01*
X160662751Y-90979388D01*
X160602480Y-90780698D01*
X160504609Y-90597597D01*
X160504607Y-90597593D01*
X160453854Y-90535749D01*
X160029501Y-90960102D01*
X160026872Y-90953402D01*
X159940414Y-90844987D01*
X159848245Y-90782148D01*
X160274248Y-90356145D01*
X160212405Y-90305392D01*
X160212403Y-90305390D01*
X160029301Y-90207519D01*
X159830611Y-90147248D01*
X159624003Y-90126900D01*
X159623997Y-90126900D01*
X159417388Y-90147248D01*
X159218698Y-90207519D01*
X159035601Y-90305388D01*
X159035595Y-90305392D01*
X158973749Y-90356145D01*
X159400617Y-90783013D01*
X159361946Y-90801637D01*
X159260295Y-90895955D01*
X159221516Y-90963121D01*
X158794145Y-90535750D01*
X158743392Y-90597595D01*
X158743388Y-90597601D01*
X158645519Y-90780698D01*
X158585248Y-90979388D01*
X158564900Y-91185996D01*
X158564900Y-91186003D01*
X141654500Y-91186003D01*
X141654499Y-90274934D01*
X141654498Y-90274930D01*
X141654498Y-90274926D01*
X141639734Y-90200699D01*
X141603690Y-90146756D01*
X141583484Y-90116516D01*
X141578722Y-90113334D01*
X141499302Y-90060266D01*
X141425067Y-90045500D01*
X139774936Y-90045500D01*
X139774926Y-90045501D01*
X139700699Y-90060265D01*
X139616515Y-90116516D01*
X139560266Y-90200697D01*
X139545500Y-90274930D01*
X139545500Y-91925063D01*
X138756875Y-91925063D01*
X138849252Y-91849252D01*
X138981027Y-91688683D01*
X139078945Y-91505492D01*
X139139242Y-91306718D01*
X139140937Y-91289516D01*
X139159602Y-91100003D01*
X139159602Y-91099996D01*
X139139243Y-90893288D01*
X139139242Y-90893286D01*
X139139242Y-90893282D01*
X139078945Y-90694508D01*
X138994086Y-90535749D01*
X138981025Y-90511313D01*
X138849252Y-90350747D01*
X138688686Y-90218975D01*
X138688686Y-90218974D01*
X138505492Y-90121055D01*
X138490529Y-90116516D01*
X138306718Y-90060758D01*
X138306717Y-90060757D01*
X138306711Y-90060756D01*
X138100003Y-90040398D01*
X138099997Y-90040398D01*
X137893288Y-90060756D01*
X137694507Y-90121055D01*
X137511313Y-90218974D01*
X137511313Y-90218975D01*
X137350747Y-90350747D01*
X137218976Y-90511311D01*
X137211122Y-90526006D01*
X137161369Y-90576654D01*
X137092132Y-90592363D01*
X137025393Y-90568146D01*
X136988878Y-90526006D01*
X136981027Y-90511317D01*
X136981024Y-90511313D01*
X136981023Y-90511311D01*
X136849252Y-90350747D01*
X136688686Y-90218975D01*
X136688686Y-90218974D01*
X136505492Y-90121055D01*
X136490529Y-90116516D01*
X136306718Y-90060758D01*
X136306717Y-90060757D01*
X136306711Y-90060756D01*
X136100003Y-90040398D01*
X136099997Y-90040398D01*
X135893288Y-90060756D01*
X135694507Y-90121055D01*
X135511313Y-90218974D01*
X135511313Y-90218975D01*
X135350747Y-90350747D01*
X135218975Y-90511313D01*
X135218974Y-90511313D01*
X135121055Y-90694507D01*
X135060756Y-90893288D01*
X135040398Y-91099996D01*
X135040398Y-91100003D01*
X134659100Y-91100003D01*
X134659100Y-91099996D01*
X134638751Y-90893388D01*
X134578480Y-90694698D01*
X134480609Y-90511597D01*
X134480607Y-90511593D01*
X134429854Y-90449749D01*
X134005501Y-90874102D01*
X134002872Y-90867402D01*
X133916414Y-90758987D01*
X133824245Y-90696148D01*
X134250248Y-90270145D01*
X134188405Y-90219392D01*
X134188403Y-90219390D01*
X134005301Y-90121519D01*
X133806611Y-90061248D01*
X133600003Y-90040900D01*
X133599997Y-90040900D01*
X133393388Y-90061248D01*
X133194698Y-90121519D01*
X133011601Y-90219388D01*
X133011595Y-90219392D01*
X132949749Y-90270145D01*
X133376617Y-90697013D01*
X133337946Y-90715637D01*
X133236295Y-90809955D01*
X133197516Y-90877120D01*
X132770145Y-90449749D01*
X132719392Y-90511595D01*
X132719388Y-90511601D01*
X132621519Y-90694698D01*
X132561248Y-90893388D01*
X132540900Y-91099996D01*
X132540900Y-91100003D01*
X126834080Y-91100003D01*
X126906462Y-91055186D01*
X127057732Y-90917285D01*
X127181088Y-90753935D01*
X127272328Y-90570701D01*
X127328345Y-90373821D01*
X127337508Y-90274934D01*
X127347232Y-90170004D01*
X127347232Y-90169995D01*
X127328345Y-89966180D01*
X127313290Y-89913266D01*
X127272328Y-89769299D01*
X127181088Y-89586065D01*
X127091127Y-89466937D01*
X127057733Y-89422715D01*
X126906463Y-89284814D01*
X126732433Y-89177059D01*
X126732428Y-89177057D01*
X126732427Y-89177056D01*
X126732422Y-89177054D01*
X126541559Y-89103113D01*
X126541560Y-89103113D01*
X126541557Y-89103112D01*
X126541556Y-89103112D01*
X126340347Y-89065500D01*
X126135653Y-89065500D01*
X125934444Y-89103112D01*
X125934439Y-89103113D01*
X125743577Y-89177054D01*
X125743566Y-89177059D01*
X125569536Y-89284814D01*
X125418266Y-89422715D01*
X125294913Y-89586063D01*
X125203671Y-89769301D01*
X125147654Y-89966180D01*
X125128768Y-90169995D01*
X125128768Y-90170004D01*
X124807232Y-90170004D01*
X124807232Y-90169995D01*
X124788345Y-89966180D01*
X124773290Y-89913266D01*
X124732328Y-89769299D01*
X124641088Y-89586065D01*
X124551127Y-89466937D01*
X124517733Y-89422715D01*
X124366463Y-89284814D01*
X124192433Y-89177059D01*
X124192428Y-89177057D01*
X124192427Y-89177056D01*
X124192422Y-89177054D01*
X124001559Y-89103113D01*
X124001560Y-89103113D01*
X124001557Y-89103112D01*
X124001556Y-89103112D01*
X123800347Y-89065500D01*
X123595653Y-89065500D01*
X123394444Y-89103112D01*
X123394439Y-89103113D01*
X123203577Y-89177054D01*
X123203566Y-89177059D01*
X123029536Y-89284814D01*
X122878266Y-89422715D01*
X122754913Y-89586063D01*
X122663671Y-89769301D01*
X122607654Y-89966180D01*
X122588768Y-90169995D01*
X122588768Y-90170004D01*
X119659500Y-90170004D01*
X119659500Y-87630004D01*
X122588768Y-87630004D01*
X122607654Y-87833819D01*
X122642859Y-87957551D01*
X122663672Y-88030701D01*
X122754912Y-88213935D01*
X122754913Y-88213936D01*
X122878266Y-88377284D01*
X123029536Y-88515185D01*
X123203566Y-88622940D01*
X123203568Y-88622940D01*
X123203573Y-88622944D01*
X123394444Y-88696888D01*
X123595653Y-88734500D01*
X123595655Y-88734500D01*
X123800345Y-88734500D01*
X123800347Y-88734500D01*
X124001556Y-88696888D01*
X124192427Y-88622944D01*
X124366462Y-88515186D01*
X124517732Y-88377285D01*
X124641088Y-88213935D01*
X124732328Y-88030701D01*
X124788345Y-87833821D01*
X124799557Y-87712829D01*
X124807232Y-87630004D01*
X125128768Y-87630004D01*
X125147654Y-87833819D01*
X125182859Y-87957551D01*
X125203672Y-88030701D01*
X125294912Y-88213935D01*
X125294913Y-88213936D01*
X125418266Y-88377284D01*
X125569536Y-88515185D01*
X125743566Y-88622940D01*
X125743568Y-88622940D01*
X125743573Y-88622944D01*
X125934444Y-88696888D01*
X126135653Y-88734500D01*
X126135655Y-88734500D01*
X126340345Y-88734500D01*
X126340347Y-88734500D01*
X126541556Y-88696888D01*
X126732427Y-88622944D01*
X126906462Y-88515186D01*
X127043785Y-88389999D01*
X128771082Y-88389999D01*
X128790728Y-88652157D01*
X128849225Y-88908448D01*
X128849227Y-88908453D01*
X128945268Y-89153162D01*
X128945271Y-89153170D01*
X129076709Y-89380826D01*
X129076714Y-89380833D01*
X129202201Y-89538191D01*
X129202203Y-89538191D01*
X129630307Y-89110086D01*
X129751931Y-89243501D01*
X129811282Y-89288321D01*
X129382030Y-89717573D01*
X129433326Y-89765171D01*
X129433333Y-89765177D01*
X129650538Y-89913265D01*
X129650538Y-89913266D01*
X129887390Y-90027329D01*
X129887403Y-90027334D01*
X130138593Y-90104815D01*
X130138605Y-90104817D01*
X130398560Y-90144000D01*
X130661440Y-90144000D01*
X130921394Y-90104817D01*
X130921406Y-90104815D01*
X131172596Y-90027334D01*
X131172609Y-90027329D01*
X131409461Y-89913266D01*
X131409461Y-89913265D01*
X131626668Y-89765175D01*
X131626669Y-89765174D01*
X131677969Y-89717574D01*
X131677969Y-89717573D01*
X131248717Y-89288321D01*
X131308069Y-89243501D01*
X131429691Y-89110087D01*
X131857795Y-89538191D01*
X131857796Y-89538191D01*
X131983288Y-89380830D01*
X132114728Y-89153170D01*
X132114731Y-89153162D01*
X132210772Y-88908453D01*
X132210774Y-88908448D01*
X132269271Y-88652157D01*
X132288917Y-88390000D01*
X132288917Y-88389999D01*
X141911082Y-88389999D01*
X141930728Y-88652157D01*
X141989225Y-88908448D01*
X141989227Y-88908453D01*
X142085268Y-89153162D01*
X142085271Y-89153170D01*
X142216709Y-89380826D01*
X142216714Y-89380833D01*
X142342201Y-89538191D01*
X142342203Y-89538191D01*
X142770307Y-89110087D01*
X142891931Y-89243501D01*
X142951282Y-89288321D01*
X142522030Y-89717573D01*
X142573326Y-89765171D01*
X142573333Y-89765177D01*
X142790538Y-89913265D01*
X142790538Y-89913266D01*
X143027390Y-90027329D01*
X143027403Y-90027334D01*
X143278593Y-90104815D01*
X143278605Y-90104817D01*
X143538560Y-90144000D01*
X143801440Y-90144000D01*
X144061394Y-90104817D01*
X144061406Y-90104815D01*
X144312596Y-90027334D01*
X144312609Y-90027329D01*
X144549461Y-89913266D01*
X144549461Y-89913265D01*
X144766668Y-89765175D01*
X144766669Y-89765174D01*
X144817969Y-89717574D01*
X144817969Y-89717573D01*
X144388717Y-89288321D01*
X144448069Y-89243501D01*
X144569691Y-89110087D01*
X144997795Y-89538191D01*
X144997796Y-89538191D01*
X145123288Y-89380830D01*
X145254728Y-89153170D01*
X145254731Y-89153162D01*
X145350772Y-88908453D01*
X145350774Y-88908448D01*
X145409271Y-88652157D01*
X145422472Y-88476000D01*
X154795082Y-88476000D01*
X154814728Y-88738157D01*
X154873225Y-88994448D01*
X154873227Y-88994453D01*
X154969268Y-89239162D01*
X154969271Y-89239170D01*
X155100709Y-89466826D01*
X155100714Y-89466833D01*
X155226201Y-89624191D01*
X155226203Y-89624191D01*
X155654307Y-89196087D01*
X155775931Y-89329501D01*
X155835282Y-89374321D01*
X155406030Y-89803573D01*
X155457326Y-89851171D01*
X155457333Y-89851177D01*
X155674538Y-89999265D01*
X155674538Y-89999266D01*
X155911390Y-90113329D01*
X155911403Y-90113334D01*
X156162593Y-90190815D01*
X156162605Y-90190817D01*
X156422560Y-90230000D01*
X156685440Y-90230000D01*
X156945394Y-90190817D01*
X156945406Y-90190815D01*
X157196596Y-90113334D01*
X157196609Y-90113329D01*
X157433461Y-89999266D01*
X157433461Y-89999265D01*
X157650668Y-89851175D01*
X157650669Y-89851174D01*
X157701969Y-89803574D01*
X157701969Y-89803573D01*
X157272717Y-89374321D01*
X157332069Y-89329501D01*
X157453692Y-89196087D01*
X157881795Y-89624191D01*
X157881796Y-89624191D01*
X158007288Y-89466830D01*
X158138728Y-89239170D01*
X158138731Y-89239162D01*
X158234772Y-88994453D01*
X158234774Y-88994448D01*
X158293271Y-88738157D01*
X158312917Y-88476000D01*
X158312917Y-88475999D01*
X167935082Y-88475999D01*
X167954728Y-88738157D01*
X168013225Y-88994448D01*
X168013227Y-88994453D01*
X168109268Y-89239162D01*
X168109271Y-89239170D01*
X168240709Y-89466826D01*
X168240714Y-89466833D01*
X168366201Y-89624191D01*
X168366203Y-89624191D01*
X168794307Y-89196087D01*
X168915931Y-89329501D01*
X168975281Y-89374320D01*
X168546029Y-89803573D01*
X168597326Y-89851171D01*
X168597333Y-89851177D01*
X168814538Y-89999265D01*
X168814538Y-89999266D01*
X169051390Y-90113329D01*
X169051403Y-90113334D01*
X169302593Y-90190815D01*
X169302605Y-90190817D01*
X169562560Y-90230000D01*
X169825440Y-90230000D01*
X170085394Y-90190817D01*
X170085406Y-90190815D01*
X170336596Y-90113334D01*
X170336609Y-90113329D01*
X170573461Y-89999266D01*
X170573461Y-89999265D01*
X170790668Y-89851175D01*
X170790669Y-89851174D01*
X170841969Y-89803574D01*
X170841969Y-89803573D01*
X170412717Y-89374321D01*
X170472069Y-89329501D01*
X170593692Y-89196087D01*
X171021795Y-89624191D01*
X171021796Y-89624191D01*
X171147288Y-89466830D01*
X171278728Y-89239170D01*
X171278731Y-89239162D01*
X171374772Y-88994453D01*
X171374774Y-88994448D01*
X171433271Y-88738157D01*
X171452917Y-88475999D01*
X171433271Y-88213842D01*
X171374774Y-87957551D01*
X171374772Y-87957546D01*
X171278731Y-87712837D01*
X171278728Y-87712829D01*
X171147288Y-87485169D01*
X171021796Y-87327807D01*
X171021795Y-87327807D01*
X170593690Y-87755911D01*
X170472069Y-87622499D01*
X170412717Y-87577678D01*
X170841969Y-87148426D01*
X170841968Y-87148424D01*
X170790672Y-87100828D01*
X170790666Y-87100822D01*
X170573461Y-86952734D01*
X170573461Y-86952733D01*
X170336609Y-86838670D01*
X170336596Y-86838665D01*
X170085406Y-86761184D01*
X170085394Y-86761182D01*
X169825440Y-86722000D01*
X169562560Y-86722000D01*
X169302605Y-86761182D01*
X169302593Y-86761184D01*
X169051403Y-86838665D01*
X169051390Y-86838670D01*
X168814538Y-86952733D01*
X168814538Y-86952734D01*
X168597333Y-87100822D01*
X168597326Y-87100828D01*
X168546029Y-87148425D01*
X168975282Y-87577678D01*
X168915931Y-87622499D01*
X168794308Y-87755912D01*
X168366203Y-87327807D01*
X168366201Y-87327807D01*
X168240715Y-87485162D01*
X168240712Y-87485167D01*
X168109271Y-87712829D01*
X168109268Y-87712837D01*
X168013227Y-87957546D01*
X168013225Y-87957551D01*
X167954728Y-88213842D01*
X167935082Y-88475999D01*
X158312917Y-88475999D01*
X158293271Y-88213842D01*
X158234774Y-87957551D01*
X158234772Y-87957546D01*
X158138731Y-87712837D01*
X158138728Y-87712829D01*
X158007288Y-87485169D01*
X157881796Y-87327807D01*
X157881795Y-87327807D01*
X157453690Y-87755911D01*
X157332069Y-87622499D01*
X157272717Y-87577678D01*
X157701969Y-87148426D01*
X157701968Y-87148424D01*
X157650672Y-87100828D01*
X157650666Y-87100822D01*
X157433461Y-86952734D01*
X157433461Y-86952733D01*
X157196609Y-86838670D01*
X157196596Y-86838665D01*
X156945406Y-86761184D01*
X156945394Y-86761182D01*
X156685440Y-86722000D01*
X156422560Y-86722000D01*
X156162605Y-86761182D01*
X156162593Y-86761184D01*
X155911403Y-86838665D01*
X155911390Y-86838670D01*
X155674538Y-86952733D01*
X155674538Y-86952734D01*
X155457333Y-87100822D01*
X155457326Y-87100828D01*
X155406029Y-87148425D01*
X155835282Y-87577678D01*
X155775931Y-87622499D01*
X155654308Y-87755911D01*
X155226203Y-87327807D01*
X155226201Y-87327807D01*
X155100715Y-87485162D01*
X155100712Y-87485167D01*
X154969271Y-87712829D01*
X154969268Y-87712837D01*
X154873227Y-87957546D01*
X154873225Y-87957551D01*
X154814728Y-88213842D01*
X154795082Y-88476000D01*
X145422472Y-88476000D01*
X145428917Y-88389999D01*
X145409271Y-88127842D01*
X145350774Y-87871551D01*
X145350772Y-87871546D01*
X145254731Y-87626837D01*
X145254728Y-87626829D01*
X145123288Y-87399169D01*
X144997796Y-87241807D01*
X144997795Y-87241807D01*
X144569691Y-87669911D01*
X144448069Y-87536499D01*
X144388717Y-87491678D01*
X144817969Y-87062426D01*
X144817968Y-87062424D01*
X144766672Y-87014828D01*
X144766666Y-87014822D01*
X144549461Y-86866734D01*
X144549461Y-86866733D01*
X144312609Y-86752670D01*
X144312596Y-86752665D01*
X144061406Y-86675184D01*
X144061394Y-86675182D01*
X143801440Y-86636000D01*
X143538560Y-86636000D01*
X143278605Y-86675182D01*
X143278593Y-86675184D01*
X143027403Y-86752665D01*
X143027390Y-86752670D01*
X142790538Y-86866733D01*
X142790538Y-86866734D01*
X142573333Y-87014822D01*
X142573326Y-87014828D01*
X142522029Y-87062425D01*
X142951282Y-87491678D01*
X142891931Y-87536499D01*
X142770308Y-87669912D01*
X142342203Y-87241807D01*
X142342201Y-87241807D01*
X142216715Y-87399162D01*
X142216712Y-87399167D01*
X142085271Y-87626829D01*
X142085268Y-87626837D01*
X141989227Y-87871546D01*
X141989225Y-87871551D01*
X141930728Y-88127842D01*
X141911082Y-88389999D01*
X132288917Y-88389999D01*
X132269271Y-88127842D01*
X132210774Y-87871551D01*
X132210772Y-87871546D01*
X132114731Y-87626837D01*
X132114728Y-87626829D01*
X131983288Y-87399169D01*
X131857796Y-87241807D01*
X131857795Y-87241807D01*
X131429691Y-87669911D01*
X131308069Y-87536499D01*
X131248716Y-87491677D01*
X131677969Y-87062425D01*
X131677968Y-87062424D01*
X131626672Y-87014828D01*
X131626666Y-87014822D01*
X131409461Y-86866734D01*
X131409461Y-86866733D01*
X131172609Y-86752670D01*
X131172596Y-86752665D01*
X130921406Y-86675184D01*
X130921394Y-86675182D01*
X130661440Y-86636000D01*
X130398560Y-86636000D01*
X130138605Y-86675182D01*
X130138593Y-86675184D01*
X129887403Y-86752665D01*
X129887390Y-86752670D01*
X129650538Y-86866733D01*
X129650538Y-86866734D01*
X129433333Y-87014822D01*
X129433326Y-87014828D01*
X129382029Y-87062425D01*
X129382029Y-87062426D01*
X129811281Y-87491678D01*
X129751931Y-87536499D01*
X129630308Y-87669912D01*
X129202203Y-87241807D01*
X129202201Y-87241807D01*
X129076715Y-87399162D01*
X129076712Y-87399167D01*
X128945271Y-87626829D01*
X128945268Y-87626837D01*
X128849227Y-87871546D01*
X128849225Y-87871551D01*
X128790728Y-88127842D01*
X128771082Y-88389999D01*
X127043785Y-88389999D01*
X127057732Y-88377285D01*
X127181088Y-88213935D01*
X127272328Y-88030701D01*
X127328345Y-87833821D01*
X127339557Y-87712829D01*
X127347232Y-87630004D01*
X127347232Y-87629995D01*
X127328345Y-87426180D01*
X127304035Y-87340738D01*
X127272328Y-87229299D01*
X127181088Y-87046065D01*
X127110607Y-86952733D01*
X127057733Y-86882715D01*
X126906463Y-86744814D01*
X126732433Y-86637059D01*
X126732428Y-86637057D01*
X126732427Y-86637056D01*
X126541559Y-86563113D01*
X126541560Y-86563113D01*
X126541557Y-86563112D01*
X126541556Y-86563112D01*
X126340347Y-86525500D01*
X126135653Y-86525500D01*
X125934444Y-86563112D01*
X125934439Y-86563113D01*
X125743577Y-86637054D01*
X125743566Y-86637059D01*
X125569536Y-86744814D01*
X125418266Y-86882715D01*
X125294913Y-87046063D01*
X125203671Y-87229301D01*
X125147654Y-87426180D01*
X125128768Y-87629995D01*
X125128768Y-87630004D01*
X124807232Y-87630004D01*
X124807232Y-87629995D01*
X124788345Y-87426180D01*
X124764035Y-87340738D01*
X124732328Y-87229299D01*
X124641088Y-87046065D01*
X124570607Y-86952733D01*
X124517733Y-86882715D01*
X124366463Y-86744814D01*
X124192433Y-86637059D01*
X124192428Y-86637057D01*
X124192427Y-86637056D01*
X124001559Y-86563113D01*
X124001560Y-86563113D01*
X124001557Y-86563112D01*
X124001556Y-86563112D01*
X123800347Y-86525500D01*
X123595653Y-86525500D01*
X123394444Y-86563112D01*
X123394439Y-86563113D01*
X123203577Y-86637054D01*
X123203566Y-86637059D01*
X123029536Y-86744814D01*
X122878266Y-86882715D01*
X122754913Y-87046063D01*
X122663671Y-87229301D01*
X122607654Y-87426180D01*
X122588768Y-87629995D01*
X122588768Y-87630004D01*
X119659500Y-87630004D01*
X119659500Y-85090004D01*
X122588768Y-85090004D01*
X122607654Y-85293819D01*
X122607655Y-85293821D01*
X122663672Y-85490701D01*
X122754912Y-85673935D01*
X122754913Y-85673936D01*
X122878266Y-85837284D01*
X123029536Y-85975185D01*
X123203566Y-86082940D01*
X123203568Y-86082940D01*
X123203573Y-86082944D01*
X123394444Y-86156888D01*
X123595653Y-86194500D01*
X123595655Y-86194500D01*
X123800345Y-86194500D01*
X123800347Y-86194500D01*
X124001556Y-86156888D01*
X124192427Y-86082944D01*
X124366462Y-85975186D01*
X124517732Y-85837285D01*
X124641088Y-85673935D01*
X124732328Y-85490701D01*
X124788345Y-85293821D01*
X124807232Y-85090004D01*
X125128768Y-85090004D01*
X125147654Y-85293819D01*
X125147655Y-85293821D01*
X125203672Y-85490701D01*
X125294912Y-85673935D01*
X125294913Y-85673936D01*
X125418266Y-85837284D01*
X125569536Y-85975185D01*
X125743566Y-86082940D01*
X125743568Y-86082940D01*
X125743573Y-86082944D01*
X125934444Y-86156888D01*
X126135653Y-86194500D01*
X126135655Y-86194500D01*
X126340345Y-86194500D01*
X126340347Y-86194500D01*
X126541556Y-86156888D01*
X126732427Y-86082944D01*
X126906462Y-85975186D01*
X127057732Y-85837285D01*
X127181088Y-85673935D01*
X127272328Y-85490701D01*
X127328345Y-85293821D01*
X127347232Y-85090000D01*
X127328345Y-84886179D01*
X127272328Y-84689299D01*
X127181088Y-84506065D01*
X127140538Y-84452368D01*
X127057733Y-84342715D01*
X126906463Y-84204814D01*
X126732433Y-84097059D01*
X126732428Y-84097057D01*
X126732427Y-84097056D01*
X126541559Y-84023113D01*
X126541560Y-84023113D01*
X126541557Y-84023112D01*
X126541556Y-84023112D01*
X126340347Y-83985500D01*
X126135653Y-83985500D01*
X125934444Y-84023112D01*
X125934439Y-84023113D01*
X125743577Y-84097054D01*
X125743566Y-84097059D01*
X125569536Y-84204814D01*
X125418266Y-84342715D01*
X125294913Y-84506063D01*
X125203671Y-84689301D01*
X125147654Y-84886180D01*
X125128768Y-85089995D01*
X125128768Y-85090004D01*
X124807232Y-85090004D01*
X124807232Y-85090000D01*
X124788345Y-84886179D01*
X124732328Y-84689299D01*
X124641088Y-84506065D01*
X124600538Y-84452368D01*
X124517733Y-84342715D01*
X124366463Y-84204814D01*
X124192433Y-84097059D01*
X124192428Y-84097057D01*
X124192427Y-84097056D01*
X124001559Y-84023113D01*
X124001560Y-84023113D01*
X124001557Y-84023112D01*
X124001556Y-84023112D01*
X123800347Y-83985500D01*
X123595653Y-83985500D01*
X123394444Y-84023112D01*
X123394439Y-84023113D01*
X123203577Y-84097054D01*
X123203566Y-84097059D01*
X123029536Y-84204814D01*
X122878266Y-84342715D01*
X122754913Y-84506063D01*
X122663671Y-84689301D01*
X122607654Y-84886180D01*
X122588768Y-85089995D01*
X122588768Y-85090004D01*
X119659500Y-85090004D01*
X119659500Y-82677001D01*
X122601037Y-82677001D01*
X122608147Y-82753725D01*
X122664138Y-82950514D01*
X122664140Y-82950519D01*
X122755340Y-83133672D01*
X122878637Y-83296946D01*
X123029838Y-83434784D01*
X123203796Y-83542493D01*
X123203803Y-83542496D01*
X123394578Y-83616403D01*
X123394576Y-83616403D01*
X123571000Y-83649381D01*
X123570999Y-83036881D01*
X123662237Y-83050000D01*
X123733763Y-83050000D01*
X123825000Y-83036881D01*
X123825000Y-83649380D01*
X124001422Y-83616403D01*
X124192196Y-83542496D01*
X124192203Y-83542493D01*
X124366161Y-83434784D01*
X124517362Y-83296946D01*
X124640659Y-83133672D01*
X124731859Y-82950519D01*
X124731861Y-82950514D01*
X124787852Y-82753725D01*
X124794962Y-82677001D01*
X125141037Y-82677001D01*
X125148147Y-82753725D01*
X125204138Y-82950514D01*
X125204140Y-82950519D01*
X125295340Y-83133672D01*
X125418637Y-83296946D01*
X125569838Y-83434784D01*
X125743796Y-83542493D01*
X125743803Y-83542496D01*
X125934578Y-83616403D01*
X125934576Y-83616403D01*
X126111000Y-83649381D01*
X126111000Y-83036881D01*
X126202237Y-83050000D01*
X126273763Y-83050000D01*
X126365000Y-83036881D01*
X126365000Y-83649381D01*
X126541422Y-83616403D01*
X126732196Y-83542496D01*
X126732203Y-83542493D01*
X126906161Y-83434784D01*
X127057362Y-83296946D01*
X127180659Y-83133672D01*
X127271859Y-82950519D01*
X127271861Y-82950514D01*
X127327852Y-82753725D01*
X127334962Y-82677001D01*
X127334962Y-82677000D01*
X126721818Y-82677000D01*
X126722407Y-82674993D01*
X132262228Y-82674993D01*
X132281385Y-82832769D01*
X132326041Y-82950514D01*
X132337749Y-82981385D01*
X132428038Y-83112191D01*
X132547007Y-83217589D01*
X132547008Y-83217589D01*
X132547010Y-83217591D01*
X132621736Y-83256810D01*
X132687743Y-83291453D01*
X132842065Y-83329490D01*
X132842066Y-83329490D01*
X133001006Y-83329490D01*
X133001007Y-83329490D01*
X133155329Y-83291453D01*
X133296065Y-83217589D01*
X133415034Y-83112191D01*
X133505323Y-82981385D01*
X133561685Y-82832772D01*
X133561685Y-82832771D01*
X133561686Y-82832769D01*
X133580843Y-82674993D01*
X133580843Y-82674986D01*
X133561686Y-82517210D01*
X133525956Y-82423000D01*
X133505323Y-82368595D01*
X133415034Y-82237789D01*
X133296065Y-82132391D01*
X133296064Y-82132390D01*
X133296061Y-82132388D01*
X133155333Y-82058529D01*
X133155331Y-82058528D01*
X133155329Y-82058527D01*
X133155327Y-82058526D01*
X133155326Y-82058526D01*
X133001008Y-82020490D01*
X133001007Y-82020490D01*
X132842065Y-82020490D01*
X132842063Y-82020490D01*
X132687745Y-82058526D01*
X132687738Y-82058529D01*
X132547010Y-82132388D01*
X132547005Y-82132392D01*
X132428037Y-82237790D01*
X132337751Y-82368591D01*
X132337748Y-82368597D01*
X132281385Y-82517210D01*
X132262228Y-82674986D01*
X132262228Y-82674993D01*
X126722407Y-82674993D01*
X126738000Y-82621889D01*
X126738000Y-82478111D01*
X126721818Y-82423000D01*
X127334962Y-82423000D01*
X127334962Y-82422998D01*
X127327852Y-82346274D01*
X127271861Y-82149485D01*
X127271859Y-82149480D01*
X127180659Y-81966327D01*
X127057362Y-81803053D01*
X126906161Y-81665215D01*
X126732203Y-81557506D01*
X126732196Y-81557503D01*
X126541422Y-81483596D01*
X126541424Y-81483596D01*
X126365000Y-81450617D01*
X126365000Y-82063118D01*
X126273763Y-82050000D01*
X126202237Y-82050000D01*
X126111000Y-82063118D01*
X126111000Y-81450617D01*
X125934576Y-81483596D01*
X125743803Y-81557503D01*
X125743796Y-81557506D01*
X125569838Y-81665215D01*
X125418637Y-81803053D01*
X125295340Y-81966327D01*
X125204140Y-82149480D01*
X125204138Y-82149485D01*
X125148147Y-82346274D01*
X125141037Y-82422998D01*
X125141038Y-82423000D01*
X125754182Y-82423000D01*
X125738000Y-82478111D01*
X125738000Y-82621889D01*
X125754182Y-82677000D01*
X125141038Y-82677000D01*
X125141037Y-82677001D01*
X124794962Y-82677001D01*
X124794962Y-82677000D01*
X124181818Y-82677000D01*
X124198000Y-82621889D01*
X124198000Y-82478111D01*
X124181818Y-82423000D01*
X124794962Y-82423000D01*
X124794962Y-82422998D01*
X124787852Y-82346274D01*
X124731861Y-82149485D01*
X124731859Y-82149480D01*
X124640659Y-81966327D01*
X124517362Y-81803053D01*
X124366161Y-81665215D01*
X124192203Y-81557506D01*
X124192196Y-81557503D01*
X124001422Y-81483596D01*
X124001424Y-81483596D01*
X123824999Y-81450617D01*
X123824999Y-82063117D01*
X123733763Y-82050000D01*
X123662237Y-82050000D01*
X123570999Y-82063118D01*
X123571000Y-81450617D01*
X123394576Y-81483596D01*
X123203803Y-81557503D01*
X123203796Y-81557506D01*
X123029838Y-81665215D01*
X122878637Y-81803053D01*
X122755340Y-81966327D01*
X122664140Y-82149480D01*
X122664138Y-82149485D01*
X122608147Y-82346274D01*
X122601037Y-82422998D01*
X122601038Y-82423000D01*
X123214182Y-82423000D01*
X123198000Y-82478111D01*
X123198000Y-82621889D01*
X123214182Y-82677000D01*
X122601038Y-82677000D01*
X122601037Y-82677001D01*
X119659500Y-82677001D01*
X119659500Y-78891500D01*
X119679502Y-78823379D01*
X119733158Y-78776886D01*
X119785500Y-78765500D01*
X123178874Y-78765500D01*
X123246995Y-78785502D01*
G37*
G04 #@! TD.AperFunction*
M02*
