%TF.GenerationSoftware,KiCad,Pcbnew,7.0.6+dfsg-1*%
%TF.CreationDate,2023-08-24T18:37:09+02:00*%
%TF.ProjectId,USB,5553422e-6b69-4636-9164-5f7063625858,rev?*%
%TF.SameCoordinates,Original*%
%TF.FileFunction,Drillmap*%
%TF.FilePolarity,Positive*%
%FSLAX45Y45*%
G04 Gerber Fmt 4.5, Leading zero omitted, Abs format (unit mm)*
G04 Created by KiCad (PCBNEW 7.0.6+dfsg-1) date 2023-08-24 18:37:09*
%MOMM*%
%LPD*%
G01*
G04 APERTURE LIST*
%ADD10C,0.050000*%
%ADD11C,0.200000*%
%ADD12C,0.030000*%
%ADD13C,0.040000*%
%ADD14C,0.070000*%
%ADD15C,0.090000*%
%ADD16C,0.092000*%
%ADD17C,0.100000*%
%ADD18C,0.230000*%
G04 APERTURE END LIST*
D10*
X17424400Y-7874000D02*
X11963400Y-7874000D01*
X17424400Y-10972800D02*
X17424400Y-7874000D01*
X14122400Y-10363200D02*
G75*
G03*
X14122400Y-10363200I-160644J0D01*
G01*
X11963400Y-10972800D02*
X17424400Y-10972800D01*
X16116300Y-10363200D02*
G75*
G03*
X16116300Y-10363200I-162639J0D01*
G01*
X11963400Y-7874000D02*
X11963400Y-10972800D01*
D11*
D12*
X13205400Y-9815800D02*
X13235400Y-9845800D01*
X13235400Y-9815800D02*
X13205400Y-9845800D01*
X13205400Y-9985800D02*
X13235400Y-10015800D01*
X13235400Y-9985800D02*
X13205400Y-10015800D01*
X13273400Y-9621800D02*
X13303400Y-9651800D01*
X13303400Y-9621800D02*
X13273400Y-9651800D01*
X13374400Y-9692800D02*
X13404400Y-9722800D01*
X13404400Y-9692800D02*
X13374400Y-9722800D01*
X13378850Y-9928850D02*
X13408850Y-9958850D01*
X13408850Y-9928850D02*
X13378850Y-9958850D01*
X13386400Y-10080300D02*
X13416400Y-10110300D01*
X13416400Y-10080300D02*
X13386400Y-10110300D01*
X13386400Y-10165300D02*
X13416400Y-10195300D01*
X13416400Y-10165300D02*
X13386400Y-10195300D01*
X13607400Y-9982800D02*
X13637400Y-10012800D01*
X13637400Y-9982800D02*
X13607400Y-10012800D01*
X13877400Y-10898800D02*
X13907400Y-10928800D01*
X13907400Y-10898800D02*
X13877400Y-10928800D01*
X13967400Y-10569800D02*
X13997400Y-10599800D01*
X13997400Y-10569800D02*
X13967400Y-10599800D01*
X14018400Y-9986800D02*
X14048400Y-10016800D01*
X14048400Y-9986800D02*
X14018400Y-10016800D01*
X14023400Y-9320800D02*
X14053400Y-9350800D01*
X14053400Y-9320800D02*
X14023400Y-9350800D01*
X14056900Y-9773800D02*
X14086900Y-9803800D01*
X14086900Y-9773800D02*
X14056900Y-9803800D01*
X14141900Y-9773800D02*
X14171900Y-9803800D01*
X14171900Y-9773800D02*
X14141900Y-9803800D01*
X14986400Y-10798800D02*
X15016400Y-10828800D01*
X15016400Y-10798800D02*
X14986400Y-10828800D01*
X15172348Y-9647852D02*
X15202348Y-9677852D01*
X15202348Y-9647852D02*
X15172348Y-9677852D01*
X15232452Y-9587748D02*
X15262452Y-9617748D01*
X15262452Y-9587748D02*
X15232452Y-9617748D01*
X15704400Y-9943800D02*
X15734400Y-9973800D01*
X15734400Y-9943800D02*
X15704400Y-9973800D01*
X15715400Y-9743800D02*
X15745400Y-9773800D01*
X15745400Y-9743800D02*
X15715400Y-9773800D01*
X15938400Y-9989800D02*
X15968400Y-10019800D01*
X15968400Y-9989800D02*
X15938400Y-10019800D01*
X16114400Y-9979800D02*
X16144400Y-10009800D01*
X16144400Y-9979800D02*
X16114400Y-10009800D01*
X16528400Y-9983800D02*
X16558400Y-10013800D01*
X16558400Y-9983800D02*
X16528400Y-10013800D01*
X16531400Y-9307800D02*
X16561400Y-9337800D01*
X16561400Y-9307800D02*
X16531400Y-9337800D01*
X16557900Y-9774800D02*
X16587900Y-9804800D01*
X16587900Y-9774800D02*
X16557900Y-9804800D01*
X16642900Y-9774800D02*
X16672900Y-9804800D01*
X16672900Y-9774800D02*
X16642900Y-9804800D01*
X16933400Y-9956800D02*
X16963400Y-9986800D01*
X16963400Y-9956800D02*
X16933400Y-9986800D01*
D13*
X13312154Y-8267499D02*
G75*
G03*
X13312154Y-8267499I-20000J0D01*
G01*
X13550000Y-7940000D02*
G75*
G03*
X13550000Y-7940000I-20000J0D01*
G01*
D14*
X12969400Y-10749800D02*
X12969400Y-10819800D01*
X12934400Y-10784800D02*
X13004400Y-10784800D01*
X13477400Y-10749800D02*
X13477400Y-10819800D01*
X13442400Y-10784800D02*
X13512400Y-10784800D01*
X13731400Y-10749800D02*
X13731400Y-10819800D01*
X13696400Y-10784800D02*
X13766400Y-10784800D01*
D15*
X14367820Y-10381820D02*
X14367820Y-10318180D01*
X14304180Y-10318180D01*
X14304180Y-10381820D01*
X14367820Y-10381820D01*
X14621820Y-10381820D02*
X14621820Y-10318180D01*
X14558180Y-10318180D01*
X14558180Y-10381820D01*
X14621820Y-10381820D01*
X14857820Y-10381820D02*
X14857820Y-10318180D01*
X14794180Y-10318180D01*
X14794180Y-10381820D01*
X14857820Y-10381820D01*
X15111820Y-10381820D02*
X15111820Y-10318180D01*
X15048180Y-10318180D01*
X15048180Y-10381820D01*
X15111820Y-10381820D01*
X15347820Y-10381820D02*
X15347820Y-10318180D01*
X15284180Y-10318180D01*
X15284180Y-10381820D01*
X15347820Y-10381820D01*
X15601820Y-10381820D02*
X15601820Y-10318180D01*
X15538180Y-10318180D01*
X15538180Y-10381820D01*
X15601820Y-10381820D01*
D16*
X13360000Y-9156000D02*
X13406000Y-9110000D01*
X13360000Y-9064000D01*
X13314000Y-9110000D01*
X13360000Y-9156000D01*
X13610000Y-9156000D02*
X13656000Y-9110000D01*
X13610000Y-9064000D01*
X13564000Y-9110000D01*
X13610000Y-9156000D01*
X13810000Y-9156000D02*
X13856000Y-9110000D01*
X13810000Y-9064000D01*
X13764000Y-9110000D01*
X13810000Y-9156000D01*
X14060000Y-9156000D02*
X14106000Y-9110000D01*
X14060000Y-9064000D01*
X14014000Y-9110000D01*
X14060000Y-9156000D01*
X15962400Y-9164600D02*
X16008400Y-9118600D01*
X15962400Y-9072600D01*
X15916400Y-9118600D01*
X15962400Y-9164600D01*
X16212400Y-9164600D02*
X16258400Y-9118600D01*
X16212400Y-9072600D01*
X16166400Y-9118600D01*
X16212400Y-9164600D01*
X16412400Y-9164600D02*
X16458400Y-9118600D01*
X16412400Y-9072600D01*
X16366400Y-9118600D01*
X16412400Y-9164600D01*
X16662400Y-9164600D02*
X16708400Y-9118600D01*
X16662400Y-9072600D01*
X16616400Y-9118600D01*
X16662400Y-9164600D01*
D17*
X12319800Y-7951000D02*
X12419800Y-8051000D01*
X12419800Y-7951000D02*
X12319800Y-8051000D01*
X12419800Y-8001000D02*
G75*
G03*
X12419800Y-8001000I-50000J0D01*
G01*
X12319800Y-8205000D02*
X12419800Y-8305000D01*
X12419800Y-8205000D02*
X12319800Y-8305000D01*
X12419800Y-8255000D02*
G75*
G03*
X12419800Y-8255000I-50000J0D01*
G01*
X12319800Y-8459000D02*
X12419800Y-8559000D01*
X12419800Y-8459000D02*
X12319800Y-8559000D01*
X12419800Y-8509000D02*
G75*
G03*
X12419800Y-8509000I-50000J0D01*
G01*
X12319800Y-8713000D02*
X12419800Y-8813000D01*
X12419800Y-8713000D02*
X12319800Y-8813000D01*
X12419800Y-8763000D02*
G75*
G03*
X12419800Y-8763000I-50000J0D01*
G01*
X12319800Y-8967000D02*
X12419800Y-9067000D01*
X12419800Y-8967000D02*
X12319800Y-9067000D01*
X12419800Y-9017000D02*
G75*
G03*
X12419800Y-9017000I-50000J0D01*
G01*
X12319800Y-9221000D02*
X12419800Y-9321000D01*
X12419800Y-9221000D02*
X12319800Y-9321000D01*
X12419800Y-9271000D02*
G75*
G03*
X12419800Y-9271000I-50000J0D01*
G01*
X12319800Y-9475000D02*
X12419800Y-9575000D01*
X12419800Y-9475000D02*
X12319800Y-9575000D01*
X12419800Y-9525000D02*
G75*
G03*
X12419800Y-9525000I-50000J0D01*
G01*
X12319800Y-9729000D02*
X12419800Y-9829000D01*
X12419800Y-9729000D02*
X12319800Y-9829000D01*
X12419800Y-9779000D02*
G75*
G03*
X12419800Y-9779000I-50000J0D01*
G01*
X12319800Y-9983000D02*
X12419800Y-10083000D01*
X12419800Y-9983000D02*
X12319800Y-10083000D01*
X12419800Y-10033000D02*
G75*
G03*
X12419800Y-10033000I-50000J0D01*
G01*
X12319800Y-10237000D02*
X12419800Y-10337000D01*
X12419800Y-10237000D02*
X12319800Y-10337000D01*
X12419800Y-10287000D02*
G75*
G03*
X12419800Y-10287000I-50000J0D01*
G01*
X12319800Y-10491000D02*
X12419800Y-10591000D01*
X12419800Y-10491000D02*
X12319800Y-10591000D01*
X12419800Y-10541000D02*
G75*
G03*
X12419800Y-10541000I-50000J0D01*
G01*
X12319800Y-10745000D02*
X12419800Y-10845000D01*
X12419800Y-10745000D02*
X12319800Y-10845000D01*
X12419800Y-10795000D02*
G75*
G03*
X12419800Y-10795000I-50000J0D01*
G01*
X12573800Y-7951000D02*
X12673800Y-8051000D01*
X12673800Y-7951000D02*
X12573800Y-8051000D01*
X12673800Y-8001000D02*
G75*
G03*
X12673800Y-8001000I-50000J0D01*
G01*
X12573800Y-8205000D02*
X12673800Y-8305000D01*
X12673800Y-8205000D02*
X12573800Y-8305000D01*
X12673800Y-8255000D02*
G75*
G03*
X12673800Y-8255000I-50000J0D01*
G01*
X12573800Y-8459000D02*
X12673800Y-8559000D01*
X12673800Y-8459000D02*
X12573800Y-8559000D01*
X12673800Y-8509000D02*
G75*
G03*
X12673800Y-8509000I-50000J0D01*
G01*
X12573800Y-8713000D02*
X12673800Y-8813000D01*
X12673800Y-8713000D02*
X12573800Y-8813000D01*
X12673800Y-8763000D02*
G75*
G03*
X12673800Y-8763000I-50000J0D01*
G01*
X12573800Y-8967000D02*
X12673800Y-9067000D01*
X12673800Y-8967000D02*
X12573800Y-9067000D01*
X12673800Y-9017000D02*
G75*
G03*
X12673800Y-9017000I-50000J0D01*
G01*
X12573800Y-9221000D02*
X12673800Y-9321000D01*
X12673800Y-9221000D02*
X12573800Y-9321000D01*
X12673800Y-9271000D02*
G75*
G03*
X12673800Y-9271000I-50000J0D01*
G01*
X12573800Y-9475000D02*
X12673800Y-9575000D01*
X12673800Y-9475000D02*
X12573800Y-9575000D01*
X12673800Y-9525000D02*
G75*
G03*
X12673800Y-9525000I-50000J0D01*
G01*
X12573800Y-9729000D02*
X12673800Y-9829000D01*
X12673800Y-9729000D02*
X12573800Y-9829000D01*
X12673800Y-9779000D02*
G75*
G03*
X12673800Y-9779000I-50000J0D01*
G01*
X12573800Y-9983000D02*
X12673800Y-10083000D01*
X12673800Y-9983000D02*
X12573800Y-10083000D01*
X12673800Y-10033000D02*
G75*
G03*
X12673800Y-10033000I-50000J0D01*
G01*
X12573800Y-10237000D02*
X12673800Y-10337000D01*
X12673800Y-10237000D02*
X12573800Y-10337000D01*
X12673800Y-10287000D02*
G75*
G03*
X12673800Y-10287000I-50000J0D01*
G01*
X12573800Y-10491000D02*
X12673800Y-10591000D01*
X12673800Y-10491000D02*
X12573800Y-10591000D01*
X12673800Y-10541000D02*
G75*
G03*
X12673800Y-10541000I-50000J0D01*
G01*
X12573800Y-10745000D02*
X12673800Y-10845000D01*
X12673800Y-10745000D02*
X12573800Y-10845000D01*
X12673800Y-10795000D02*
G75*
G03*
X12673800Y-10795000I-50000J0D01*
G01*
X17171200Y-9602000D02*
X17271200Y-9702000D01*
X17271200Y-9602000D02*
X17171200Y-9702000D01*
X17271200Y-9652000D02*
G75*
G03*
X17271200Y-9652000I-50000J0D01*
G01*
X17171200Y-9856000D02*
X17271200Y-9956000D01*
X17271200Y-9856000D02*
X17171200Y-9956000D01*
X17271200Y-9906000D02*
G75*
G03*
X17271200Y-9906000I-50000J0D01*
G01*
X17171200Y-10110000D02*
X17271200Y-10210000D01*
X17271200Y-10110000D02*
X17171200Y-10210000D01*
X17271200Y-10160000D02*
G75*
G03*
X17271200Y-10160000I-50000J0D01*
G01*
X17171200Y-10364000D02*
X17271200Y-10464000D01*
X17271200Y-10364000D02*
X17171200Y-10464000D01*
X17271200Y-10414000D02*
G75*
G03*
X17271200Y-10414000I-50000J0D01*
G01*
X17171200Y-10618000D02*
X17271200Y-10718000D01*
X17271200Y-10618000D02*
X17171200Y-10718000D01*
X17271200Y-10668000D02*
G75*
G03*
X17271200Y-10668000I-50000J0D01*
G01*
D18*
X12938000Y-8724000D02*
X13168000Y-8954000D01*
X13168000Y-8724000D02*
X12938000Y-8954000D01*
X13053000Y-8724000D02*
X13053000Y-8954000D01*
X12938000Y-8839000D02*
X13168000Y-8839000D01*
X14252000Y-8724000D02*
X14482000Y-8954000D01*
X14482000Y-8724000D02*
X14252000Y-8954000D01*
X14367000Y-8724000D02*
X14367000Y-8954000D01*
X14252000Y-8839000D02*
X14482000Y-8839000D01*
X15540400Y-8732600D02*
X15770400Y-8962600D01*
X15770400Y-8732600D02*
X15540400Y-8962600D01*
X15655400Y-8732600D02*
X15655400Y-8962600D01*
X15540400Y-8847600D02*
X15770400Y-8847600D01*
X16854400Y-8732600D02*
X17084400Y-8962600D01*
X17084400Y-8732600D02*
X16854400Y-8962600D01*
X16969400Y-8732600D02*
X16969400Y-8962600D01*
X16854400Y-8847600D02*
X17084400Y-8847600D01*
D11*
X12221677Y-11286784D02*
X12221677Y-11086784D01*
X12221677Y-11086784D02*
X12269296Y-11086784D01*
X12269296Y-11086784D02*
X12297867Y-11096308D01*
X12297867Y-11096308D02*
X12316915Y-11115355D01*
X12316915Y-11115355D02*
X12326439Y-11134403D01*
X12326439Y-11134403D02*
X12335962Y-11172498D01*
X12335962Y-11172498D02*
X12335962Y-11201069D01*
X12335962Y-11201069D02*
X12326439Y-11239165D01*
X12326439Y-11239165D02*
X12316915Y-11258212D01*
X12316915Y-11258212D02*
X12297867Y-11277260D01*
X12297867Y-11277260D02*
X12269296Y-11286784D01*
X12269296Y-11286784D02*
X12221677Y-11286784D01*
X12421677Y-11286784D02*
X12421677Y-11153450D01*
X12421677Y-11191546D02*
X12431201Y-11172498D01*
X12431201Y-11172498D02*
X12440724Y-11162974D01*
X12440724Y-11162974D02*
X12459772Y-11153450D01*
X12459772Y-11153450D02*
X12478820Y-11153450D01*
X12545486Y-11286784D02*
X12545486Y-11153450D01*
X12545486Y-11086784D02*
X12535962Y-11096308D01*
X12535962Y-11096308D02*
X12545486Y-11105831D01*
X12545486Y-11105831D02*
X12555010Y-11096308D01*
X12555010Y-11096308D02*
X12545486Y-11086784D01*
X12545486Y-11086784D02*
X12545486Y-11105831D01*
X12669296Y-11286784D02*
X12650248Y-11277260D01*
X12650248Y-11277260D02*
X12640724Y-11258212D01*
X12640724Y-11258212D02*
X12640724Y-11086784D01*
X12774058Y-11286784D02*
X12755010Y-11277260D01*
X12755010Y-11277260D02*
X12745486Y-11258212D01*
X12745486Y-11258212D02*
X12745486Y-11086784D01*
X13002629Y-11286784D02*
X13002629Y-11086784D01*
X13002629Y-11086784D02*
X13069296Y-11229641D01*
X13069296Y-11229641D02*
X13135962Y-11086784D01*
X13135962Y-11086784D02*
X13135962Y-11286784D01*
X13316915Y-11286784D02*
X13316915Y-11182022D01*
X13316915Y-11182022D02*
X13307391Y-11162974D01*
X13307391Y-11162974D02*
X13288343Y-11153450D01*
X13288343Y-11153450D02*
X13250248Y-11153450D01*
X13250248Y-11153450D02*
X13231201Y-11162974D01*
X13316915Y-11277260D02*
X13297867Y-11286784D01*
X13297867Y-11286784D02*
X13250248Y-11286784D01*
X13250248Y-11286784D02*
X13231201Y-11277260D01*
X13231201Y-11277260D02*
X13221677Y-11258212D01*
X13221677Y-11258212D02*
X13221677Y-11239165D01*
X13221677Y-11239165D02*
X13231201Y-11220117D01*
X13231201Y-11220117D02*
X13250248Y-11210593D01*
X13250248Y-11210593D02*
X13297867Y-11210593D01*
X13297867Y-11210593D02*
X13316915Y-11201069D01*
X13412153Y-11153450D02*
X13412153Y-11353450D01*
X13412153Y-11162974D02*
X13431201Y-11153450D01*
X13431201Y-11153450D02*
X13469296Y-11153450D01*
X13469296Y-11153450D02*
X13488343Y-11162974D01*
X13488343Y-11162974D02*
X13497867Y-11172498D01*
X13497867Y-11172498D02*
X13507391Y-11191546D01*
X13507391Y-11191546D02*
X13507391Y-11248688D01*
X13507391Y-11248688D02*
X13497867Y-11267736D01*
X13497867Y-11267736D02*
X13488343Y-11277260D01*
X13488343Y-11277260D02*
X13469296Y-11286784D01*
X13469296Y-11286784D02*
X13431201Y-11286784D01*
X13431201Y-11286784D02*
X13412153Y-11277260D01*
X13593105Y-11267736D02*
X13602629Y-11277260D01*
X13602629Y-11277260D02*
X13593105Y-11286784D01*
X13593105Y-11286784D02*
X13583582Y-11277260D01*
X13583582Y-11277260D02*
X13593105Y-11267736D01*
X13593105Y-11267736D02*
X13593105Y-11286784D01*
X13593105Y-11162974D02*
X13602629Y-11172498D01*
X13602629Y-11172498D02*
X13593105Y-11182022D01*
X13593105Y-11182022D02*
X13583582Y-11172498D01*
X13583582Y-11172498D02*
X13593105Y-11162974D01*
X13593105Y-11162974D02*
X13593105Y-11182022D01*
D12*
X11930900Y-11600300D02*
X11960900Y-11630300D01*
X11960900Y-11600300D02*
X11930900Y-11630300D01*
D11*
X12259772Y-11506784D02*
X12278820Y-11506784D01*
X12278820Y-11506784D02*
X12297867Y-11516308D01*
X12297867Y-11516308D02*
X12307391Y-11525831D01*
X12307391Y-11525831D02*
X12316915Y-11544879D01*
X12316915Y-11544879D02*
X12326439Y-11582974D01*
X12326439Y-11582974D02*
X12326439Y-11630593D01*
X12326439Y-11630593D02*
X12316915Y-11668688D01*
X12316915Y-11668688D02*
X12307391Y-11687736D01*
X12307391Y-11687736D02*
X12297867Y-11697260D01*
X12297867Y-11697260D02*
X12278820Y-11706784D01*
X12278820Y-11706784D02*
X12259772Y-11706784D01*
X12259772Y-11706784D02*
X12240724Y-11697260D01*
X12240724Y-11697260D02*
X12231201Y-11687736D01*
X12231201Y-11687736D02*
X12221677Y-11668688D01*
X12221677Y-11668688D02*
X12212153Y-11630593D01*
X12212153Y-11630593D02*
X12212153Y-11582974D01*
X12212153Y-11582974D02*
X12221677Y-11544879D01*
X12221677Y-11544879D02*
X12231201Y-11525831D01*
X12231201Y-11525831D02*
X12240724Y-11516308D01*
X12240724Y-11516308D02*
X12259772Y-11506784D01*
X12412153Y-11687736D02*
X12421677Y-11697260D01*
X12421677Y-11697260D02*
X12412153Y-11706784D01*
X12412153Y-11706784D02*
X12402629Y-11697260D01*
X12402629Y-11697260D02*
X12412153Y-11687736D01*
X12412153Y-11687736D02*
X12412153Y-11706784D01*
X12488343Y-11506784D02*
X12612153Y-11506784D01*
X12612153Y-11506784D02*
X12545486Y-11582974D01*
X12545486Y-11582974D02*
X12574058Y-11582974D01*
X12574058Y-11582974D02*
X12593105Y-11592498D01*
X12593105Y-11592498D02*
X12602629Y-11602022D01*
X12602629Y-11602022D02*
X12612153Y-11621069D01*
X12612153Y-11621069D02*
X12612153Y-11668688D01*
X12612153Y-11668688D02*
X12602629Y-11687736D01*
X12602629Y-11687736D02*
X12593105Y-11697260D01*
X12593105Y-11697260D02*
X12574058Y-11706784D01*
X12574058Y-11706784D02*
X12516915Y-11706784D01*
X12516915Y-11706784D02*
X12497867Y-11697260D01*
X12497867Y-11697260D02*
X12488343Y-11687736D01*
X12735962Y-11506784D02*
X12755010Y-11506784D01*
X12755010Y-11506784D02*
X12774058Y-11516308D01*
X12774058Y-11516308D02*
X12783582Y-11525831D01*
X12783582Y-11525831D02*
X12793105Y-11544879D01*
X12793105Y-11544879D02*
X12802629Y-11582974D01*
X12802629Y-11582974D02*
X12802629Y-11630593D01*
X12802629Y-11630593D02*
X12793105Y-11668688D01*
X12793105Y-11668688D02*
X12783582Y-11687736D01*
X12783582Y-11687736D02*
X12774058Y-11697260D01*
X12774058Y-11697260D02*
X12755010Y-11706784D01*
X12755010Y-11706784D02*
X12735962Y-11706784D01*
X12735962Y-11706784D02*
X12716915Y-11697260D01*
X12716915Y-11697260D02*
X12707391Y-11687736D01*
X12707391Y-11687736D02*
X12697867Y-11668688D01*
X12697867Y-11668688D02*
X12688343Y-11630593D01*
X12688343Y-11630593D02*
X12688343Y-11582974D01*
X12688343Y-11582974D02*
X12697867Y-11544879D01*
X12697867Y-11544879D02*
X12707391Y-11525831D01*
X12707391Y-11525831D02*
X12716915Y-11516308D01*
X12716915Y-11516308D02*
X12735962Y-11506784D01*
X12926439Y-11506784D02*
X12945486Y-11506784D01*
X12945486Y-11506784D02*
X12964534Y-11516308D01*
X12964534Y-11516308D02*
X12974058Y-11525831D01*
X12974058Y-11525831D02*
X12983582Y-11544879D01*
X12983582Y-11544879D02*
X12993105Y-11582974D01*
X12993105Y-11582974D02*
X12993105Y-11630593D01*
X12993105Y-11630593D02*
X12983582Y-11668688D01*
X12983582Y-11668688D02*
X12974058Y-11687736D01*
X12974058Y-11687736D02*
X12964534Y-11697260D01*
X12964534Y-11697260D02*
X12945486Y-11706784D01*
X12945486Y-11706784D02*
X12926439Y-11706784D01*
X12926439Y-11706784D02*
X12907391Y-11697260D01*
X12907391Y-11697260D02*
X12897867Y-11687736D01*
X12897867Y-11687736D02*
X12888343Y-11668688D01*
X12888343Y-11668688D02*
X12878820Y-11630593D01*
X12878820Y-11630593D02*
X12878820Y-11582974D01*
X12878820Y-11582974D02*
X12888343Y-11544879D01*
X12888343Y-11544879D02*
X12897867Y-11525831D01*
X12897867Y-11525831D02*
X12907391Y-11516308D01*
X12907391Y-11516308D02*
X12926439Y-11506784D01*
X13078820Y-11706784D02*
X13078820Y-11573450D01*
X13078820Y-11592498D02*
X13088343Y-11582974D01*
X13088343Y-11582974D02*
X13107391Y-11573450D01*
X13107391Y-11573450D02*
X13135963Y-11573450D01*
X13135963Y-11573450D02*
X13155010Y-11582974D01*
X13155010Y-11582974D02*
X13164534Y-11602022D01*
X13164534Y-11602022D02*
X13164534Y-11706784D01*
X13164534Y-11602022D02*
X13174058Y-11582974D01*
X13174058Y-11582974D02*
X13193105Y-11573450D01*
X13193105Y-11573450D02*
X13221677Y-11573450D01*
X13221677Y-11573450D02*
X13240724Y-11582974D01*
X13240724Y-11582974D02*
X13250248Y-11602022D01*
X13250248Y-11602022D02*
X13250248Y-11706784D01*
X13345486Y-11706784D02*
X13345486Y-11573450D01*
X13345486Y-11592498D02*
X13355010Y-11582974D01*
X13355010Y-11582974D02*
X13374058Y-11573450D01*
X13374058Y-11573450D02*
X13402629Y-11573450D01*
X13402629Y-11573450D02*
X13421677Y-11582974D01*
X13421677Y-11582974D02*
X13431201Y-11602022D01*
X13431201Y-11602022D02*
X13431201Y-11706784D01*
X13431201Y-11602022D02*
X13440724Y-11582974D01*
X13440724Y-11582974D02*
X13459772Y-11573450D01*
X13459772Y-11573450D02*
X13488343Y-11573450D01*
X13488343Y-11573450D02*
X13507391Y-11582974D01*
X13507391Y-11582974D02*
X13516915Y-11602022D01*
X13516915Y-11602022D02*
X13516915Y-11706784D01*
X13907391Y-11497260D02*
X13735963Y-11754403D01*
X14164534Y-11506784D02*
X14183582Y-11506784D01*
X14183582Y-11506784D02*
X14202629Y-11516308D01*
X14202629Y-11516308D02*
X14212153Y-11525831D01*
X14212153Y-11525831D02*
X14221677Y-11544879D01*
X14221677Y-11544879D02*
X14231201Y-11582974D01*
X14231201Y-11582974D02*
X14231201Y-11630593D01*
X14231201Y-11630593D02*
X14221677Y-11668688D01*
X14221677Y-11668688D02*
X14212153Y-11687736D01*
X14212153Y-11687736D02*
X14202629Y-11697260D01*
X14202629Y-11697260D02*
X14183582Y-11706784D01*
X14183582Y-11706784D02*
X14164534Y-11706784D01*
X14164534Y-11706784D02*
X14145486Y-11697260D01*
X14145486Y-11697260D02*
X14135963Y-11687736D01*
X14135963Y-11687736D02*
X14126439Y-11668688D01*
X14126439Y-11668688D02*
X14116915Y-11630593D01*
X14116915Y-11630593D02*
X14116915Y-11582974D01*
X14116915Y-11582974D02*
X14126439Y-11544879D01*
X14126439Y-11544879D02*
X14135963Y-11525831D01*
X14135963Y-11525831D02*
X14145486Y-11516308D01*
X14145486Y-11516308D02*
X14164534Y-11506784D01*
X14316915Y-11687736D02*
X14326439Y-11697260D01*
X14326439Y-11697260D02*
X14316915Y-11706784D01*
X14316915Y-11706784D02*
X14307391Y-11697260D01*
X14307391Y-11697260D02*
X14316915Y-11687736D01*
X14316915Y-11687736D02*
X14316915Y-11706784D01*
X14450248Y-11506784D02*
X14469296Y-11506784D01*
X14469296Y-11506784D02*
X14488344Y-11516308D01*
X14488344Y-11516308D02*
X14497867Y-11525831D01*
X14497867Y-11525831D02*
X14507391Y-11544879D01*
X14507391Y-11544879D02*
X14516915Y-11582974D01*
X14516915Y-11582974D02*
X14516915Y-11630593D01*
X14516915Y-11630593D02*
X14507391Y-11668688D01*
X14507391Y-11668688D02*
X14497867Y-11687736D01*
X14497867Y-11687736D02*
X14488344Y-11697260D01*
X14488344Y-11697260D02*
X14469296Y-11706784D01*
X14469296Y-11706784D02*
X14450248Y-11706784D01*
X14450248Y-11706784D02*
X14431201Y-11697260D01*
X14431201Y-11697260D02*
X14421677Y-11687736D01*
X14421677Y-11687736D02*
X14412153Y-11668688D01*
X14412153Y-11668688D02*
X14402629Y-11630593D01*
X14402629Y-11630593D02*
X14402629Y-11582974D01*
X14402629Y-11582974D02*
X14412153Y-11544879D01*
X14412153Y-11544879D02*
X14421677Y-11525831D01*
X14421677Y-11525831D02*
X14431201Y-11516308D01*
X14431201Y-11516308D02*
X14450248Y-11506784D01*
X14707391Y-11706784D02*
X14593106Y-11706784D01*
X14650248Y-11706784D02*
X14650248Y-11506784D01*
X14650248Y-11506784D02*
X14631201Y-11535355D01*
X14631201Y-11535355D02*
X14612153Y-11554403D01*
X14612153Y-11554403D02*
X14593106Y-11563927D01*
X14897867Y-11706784D02*
X14783582Y-11706784D01*
X14840725Y-11706784D02*
X14840725Y-11506784D01*
X14840725Y-11506784D02*
X14821677Y-11535355D01*
X14821677Y-11535355D02*
X14802629Y-11554403D01*
X14802629Y-11554403D02*
X14783582Y-11563927D01*
X15012153Y-11592498D02*
X14993106Y-11582974D01*
X14993106Y-11582974D02*
X14983582Y-11573450D01*
X14983582Y-11573450D02*
X14974058Y-11554403D01*
X14974058Y-11554403D02*
X14974058Y-11544879D01*
X14974058Y-11544879D02*
X14983582Y-11525831D01*
X14983582Y-11525831D02*
X14993106Y-11516308D01*
X14993106Y-11516308D02*
X15012153Y-11506784D01*
X15012153Y-11506784D02*
X15050248Y-11506784D01*
X15050248Y-11506784D02*
X15069296Y-11516308D01*
X15069296Y-11516308D02*
X15078820Y-11525831D01*
X15078820Y-11525831D02*
X15088344Y-11544879D01*
X15088344Y-11544879D02*
X15088344Y-11554403D01*
X15088344Y-11554403D02*
X15078820Y-11573450D01*
X15078820Y-11573450D02*
X15069296Y-11582974D01*
X15069296Y-11582974D02*
X15050248Y-11592498D01*
X15050248Y-11592498D02*
X15012153Y-11592498D01*
X15012153Y-11592498D02*
X14993106Y-11602022D01*
X14993106Y-11602022D02*
X14983582Y-11611546D01*
X14983582Y-11611546D02*
X14974058Y-11630593D01*
X14974058Y-11630593D02*
X14974058Y-11668688D01*
X14974058Y-11668688D02*
X14983582Y-11687736D01*
X14983582Y-11687736D02*
X14993106Y-11697260D01*
X14993106Y-11697260D02*
X15012153Y-11706784D01*
X15012153Y-11706784D02*
X15050248Y-11706784D01*
X15050248Y-11706784D02*
X15069296Y-11697260D01*
X15069296Y-11697260D02*
X15078820Y-11687736D01*
X15078820Y-11687736D02*
X15088344Y-11668688D01*
X15088344Y-11668688D02*
X15088344Y-11630593D01*
X15088344Y-11630593D02*
X15078820Y-11611546D01*
X15078820Y-11611546D02*
X15069296Y-11602022D01*
X15069296Y-11602022D02*
X15050248Y-11592498D01*
X15164534Y-11506784D02*
X15164534Y-11544879D01*
X15240725Y-11506784D02*
X15240725Y-11544879D01*
X15535963Y-11782974D02*
X15526439Y-11773450D01*
X15526439Y-11773450D02*
X15507391Y-11744879D01*
X15507391Y-11744879D02*
X15497868Y-11725831D01*
X15497868Y-11725831D02*
X15488344Y-11697260D01*
X15488344Y-11697260D02*
X15478820Y-11649641D01*
X15478820Y-11649641D02*
X15478820Y-11611546D01*
X15478820Y-11611546D02*
X15488344Y-11563927D01*
X15488344Y-11563927D02*
X15497868Y-11535355D01*
X15497868Y-11535355D02*
X15507391Y-11516308D01*
X15507391Y-11516308D02*
X15526439Y-11487736D01*
X15526439Y-11487736D02*
X15535963Y-11478212D01*
X15602629Y-11525831D02*
X15612153Y-11516308D01*
X15612153Y-11516308D02*
X15631201Y-11506784D01*
X15631201Y-11506784D02*
X15678820Y-11506784D01*
X15678820Y-11506784D02*
X15697868Y-11516308D01*
X15697868Y-11516308D02*
X15707391Y-11525831D01*
X15707391Y-11525831D02*
X15716915Y-11544879D01*
X15716915Y-11544879D02*
X15716915Y-11563927D01*
X15716915Y-11563927D02*
X15707391Y-11592498D01*
X15707391Y-11592498D02*
X15593106Y-11706784D01*
X15593106Y-11706784D02*
X15716915Y-11706784D01*
X15888344Y-11506784D02*
X15850248Y-11506784D01*
X15850248Y-11506784D02*
X15831201Y-11516308D01*
X15831201Y-11516308D02*
X15821677Y-11525831D01*
X15821677Y-11525831D02*
X15802629Y-11554403D01*
X15802629Y-11554403D02*
X15793106Y-11592498D01*
X15793106Y-11592498D02*
X15793106Y-11668688D01*
X15793106Y-11668688D02*
X15802629Y-11687736D01*
X15802629Y-11687736D02*
X15812153Y-11697260D01*
X15812153Y-11697260D02*
X15831201Y-11706784D01*
X15831201Y-11706784D02*
X15869296Y-11706784D01*
X15869296Y-11706784D02*
X15888344Y-11697260D01*
X15888344Y-11697260D02*
X15897868Y-11687736D01*
X15897868Y-11687736D02*
X15907391Y-11668688D01*
X15907391Y-11668688D02*
X15907391Y-11621069D01*
X15907391Y-11621069D02*
X15897868Y-11602022D01*
X15897868Y-11602022D02*
X15888344Y-11592498D01*
X15888344Y-11592498D02*
X15869296Y-11582974D01*
X15869296Y-11582974D02*
X15831201Y-11582974D01*
X15831201Y-11582974D02*
X15812153Y-11592498D01*
X15812153Y-11592498D02*
X15802629Y-11602022D01*
X15802629Y-11602022D02*
X15793106Y-11621069D01*
X16145487Y-11706784D02*
X16145487Y-11506784D01*
X16231201Y-11706784D02*
X16231201Y-11602022D01*
X16231201Y-11602022D02*
X16221677Y-11582974D01*
X16221677Y-11582974D02*
X16202630Y-11573450D01*
X16202630Y-11573450D02*
X16174058Y-11573450D01*
X16174058Y-11573450D02*
X16155010Y-11582974D01*
X16155010Y-11582974D02*
X16145487Y-11592498D01*
X16355010Y-11706784D02*
X16335963Y-11697260D01*
X16335963Y-11697260D02*
X16326439Y-11687736D01*
X16326439Y-11687736D02*
X16316915Y-11668688D01*
X16316915Y-11668688D02*
X16316915Y-11611546D01*
X16316915Y-11611546D02*
X16326439Y-11592498D01*
X16326439Y-11592498D02*
X16335963Y-11582974D01*
X16335963Y-11582974D02*
X16355010Y-11573450D01*
X16355010Y-11573450D02*
X16383582Y-11573450D01*
X16383582Y-11573450D02*
X16402630Y-11582974D01*
X16402630Y-11582974D02*
X16412153Y-11592498D01*
X16412153Y-11592498D02*
X16421677Y-11611546D01*
X16421677Y-11611546D02*
X16421677Y-11668688D01*
X16421677Y-11668688D02*
X16412153Y-11687736D01*
X16412153Y-11687736D02*
X16402630Y-11697260D01*
X16402630Y-11697260D02*
X16383582Y-11706784D01*
X16383582Y-11706784D02*
X16355010Y-11706784D01*
X16535963Y-11706784D02*
X16516915Y-11697260D01*
X16516915Y-11697260D02*
X16507391Y-11678212D01*
X16507391Y-11678212D02*
X16507391Y-11506784D01*
X16688344Y-11697260D02*
X16669296Y-11706784D01*
X16669296Y-11706784D02*
X16631201Y-11706784D01*
X16631201Y-11706784D02*
X16612153Y-11697260D01*
X16612153Y-11697260D02*
X16602630Y-11678212D01*
X16602630Y-11678212D02*
X16602630Y-11602022D01*
X16602630Y-11602022D02*
X16612153Y-11582974D01*
X16612153Y-11582974D02*
X16631201Y-11573450D01*
X16631201Y-11573450D02*
X16669296Y-11573450D01*
X16669296Y-11573450D02*
X16688344Y-11582974D01*
X16688344Y-11582974D02*
X16697868Y-11602022D01*
X16697868Y-11602022D02*
X16697868Y-11621069D01*
X16697868Y-11621069D02*
X16602630Y-11640117D01*
X16774058Y-11697260D02*
X16793106Y-11706784D01*
X16793106Y-11706784D02*
X16831201Y-11706784D01*
X16831201Y-11706784D02*
X16850249Y-11697260D01*
X16850249Y-11697260D02*
X16859773Y-11678212D01*
X16859773Y-11678212D02*
X16859773Y-11668688D01*
X16859773Y-11668688D02*
X16850249Y-11649641D01*
X16850249Y-11649641D02*
X16831201Y-11640117D01*
X16831201Y-11640117D02*
X16802630Y-11640117D01*
X16802630Y-11640117D02*
X16783582Y-11630593D01*
X16783582Y-11630593D02*
X16774058Y-11611546D01*
X16774058Y-11611546D02*
X16774058Y-11602022D01*
X16774058Y-11602022D02*
X16783582Y-11582974D01*
X16783582Y-11582974D02*
X16802630Y-11573450D01*
X16802630Y-11573450D02*
X16831201Y-11573450D01*
X16831201Y-11573450D02*
X16850249Y-11582974D01*
X16926439Y-11782974D02*
X16935963Y-11773450D01*
X16935963Y-11773450D02*
X16955011Y-11744879D01*
X16955011Y-11744879D02*
X16964534Y-11725831D01*
X16964534Y-11725831D02*
X16974058Y-11697260D01*
X16974058Y-11697260D02*
X16983582Y-11649641D01*
X16983582Y-11649641D02*
X16983582Y-11611546D01*
X16983582Y-11611546D02*
X16974058Y-11563927D01*
X16974058Y-11563927D02*
X16964534Y-11535355D01*
X16964534Y-11535355D02*
X16955011Y-11516308D01*
X16955011Y-11516308D02*
X16935963Y-11487736D01*
X16935963Y-11487736D02*
X16926439Y-11478212D01*
D13*
X11960900Y-11879300D02*
G75*
G03*
X11960900Y-11879300I-20000J0D01*
G01*
D11*
X12259772Y-11770784D02*
X12278820Y-11770784D01*
X12278820Y-11770784D02*
X12297867Y-11780308D01*
X12297867Y-11780308D02*
X12307391Y-11789831D01*
X12307391Y-11789831D02*
X12316915Y-11808879D01*
X12316915Y-11808879D02*
X12326439Y-11846974D01*
X12326439Y-11846974D02*
X12326439Y-11894593D01*
X12326439Y-11894593D02*
X12316915Y-11932688D01*
X12316915Y-11932688D02*
X12307391Y-11951736D01*
X12307391Y-11951736D02*
X12297867Y-11961260D01*
X12297867Y-11961260D02*
X12278820Y-11970784D01*
X12278820Y-11970784D02*
X12259772Y-11970784D01*
X12259772Y-11970784D02*
X12240724Y-11961260D01*
X12240724Y-11961260D02*
X12231201Y-11951736D01*
X12231201Y-11951736D02*
X12221677Y-11932688D01*
X12221677Y-11932688D02*
X12212153Y-11894593D01*
X12212153Y-11894593D02*
X12212153Y-11846974D01*
X12212153Y-11846974D02*
X12221677Y-11808879D01*
X12221677Y-11808879D02*
X12231201Y-11789831D01*
X12231201Y-11789831D02*
X12240724Y-11780308D01*
X12240724Y-11780308D02*
X12259772Y-11770784D01*
X12412153Y-11951736D02*
X12421677Y-11961260D01*
X12421677Y-11961260D02*
X12412153Y-11970784D01*
X12412153Y-11970784D02*
X12402629Y-11961260D01*
X12402629Y-11961260D02*
X12412153Y-11951736D01*
X12412153Y-11951736D02*
X12412153Y-11970784D01*
X12593105Y-11837450D02*
X12593105Y-11970784D01*
X12545486Y-11761260D02*
X12497867Y-11904117D01*
X12497867Y-11904117D02*
X12621677Y-11904117D01*
X12735962Y-11770784D02*
X12755010Y-11770784D01*
X12755010Y-11770784D02*
X12774058Y-11780308D01*
X12774058Y-11780308D02*
X12783582Y-11789831D01*
X12783582Y-11789831D02*
X12793105Y-11808879D01*
X12793105Y-11808879D02*
X12802629Y-11846974D01*
X12802629Y-11846974D02*
X12802629Y-11894593D01*
X12802629Y-11894593D02*
X12793105Y-11932688D01*
X12793105Y-11932688D02*
X12783582Y-11951736D01*
X12783582Y-11951736D02*
X12774058Y-11961260D01*
X12774058Y-11961260D02*
X12755010Y-11970784D01*
X12755010Y-11970784D02*
X12735962Y-11970784D01*
X12735962Y-11970784D02*
X12716915Y-11961260D01*
X12716915Y-11961260D02*
X12707391Y-11951736D01*
X12707391Y-11951736D02*
X12697867Y-11932688D01*
X12697867Y-11932688D02*
X12688343Y-11894593D01*
X12688343Y-11894593D02*
X12688343Y-11846974D01*
X12688343Y-11846974D02*
X12697867Y-11808879D01*
X12697867Y-11808879D02*
X12707391Y-11789831D01*
X12707391Y-11789831D02*
X12716915Y-11780308D01*
X12716915Y-11780308D02*
X12735962Y-11770784D01*
X12926439Y-11770784D02*
X12945486Y-11770784D01*
X12945486Y-11770784D02*
X12964534Y-11780308D01*
X12964534Y-11780308D02*
X12974058Y-11789831D01*
X12974058Y-11789831D02*
X12983582Y-11808879D01*
X12983582Y-11808879D02*
X12993105Y-11846974D01*
X12993105Y-11846974D02*
X12993105Y-11894593D01*
X12993105Y-11894593D02*
X12983582Y-11932688D01*
X12983582Y-11932688D02*
X12974058Y-11951736D01*
X12974058Y-11951736D02*
X12964534Y-11961260D01*
X12964534Y-11961260D02*
X12945486Y-11970784D01*
X12945486Y-11970784D02*
X12926439Y-11970784D01*
X12926439Y-11970784D02*
X12907391Y-11961260D01*
X12907391Y-11961260D02*
X12897867Y-11951736D01*
X12897867Y-11951736D02*
X12888343Y-11932688D01*
X12888343Y-11932688D02*
X12878820Y-11894593D01*
X12878820Y-11894593D02*
X12878820Y-11846974D01*
X12878820Y-11846974D02*
X12888343Y-11808879D01*
X12888343Y-11808879D02*
X12897867Y-11789831D01*
X12897867Y-11789831D02*
X12907391Y-11780308D01*
X12907391Y-11780308D02*
X12926439Y-11770784D01*
X13078820Y-11970784D02*
X13078820Y-11837450D01*
X13078820Y-11856498D02*
X13088343Y-11846974D01*
X13088343Y-11846974D02*
X13107391Y-11837450D01*
X13107391Y-11837450D02*
X13135963Y-11837450D01*
X13135963Y-11837450D02*
X13155010Y-11846974D01*
X13155010Y-11846974D02*
X13164534Y-11866022D01*
X13164534Y-11866022D02*
X13164534Y-11970784D01*
X13164534Y-11866022D02*
X13174058Y-11846974D01*
X13174058Y-11846974D02*
X13193105Y-11837450D01*
X13193105Y-11837450D02*
X13221677Y-11837450D01*
X13221677Y-11837450D02*
X13240724Y-11846974D01*
X13240724Y-11846974D02*
X13250248Y-11866022D01*
X13250248Y-11866022D02*
X13250248Y-11970784D01*
X13345486Y-11970784D02*
X13345486Y-11837450D01*
X13345486Y-11856498D02*
X13355010Y-11846974D01*
X13355010Y-11846974D02*
X13374058Y-11837450D01*
X13374058Y-11837450D02*
X13402629Y-11837450D01*
X13402629Y-11837450D02*
X13421677Y-11846974D01*
X13421677Y-11846974D02*
X13431201Y-11866022D01*
X13431201Y-11866022D02*
X13431201Y-11970784D01*
X13431201Y-11866022D02*
X13440724Y-11846974D01*
X13440724Y-11846974D02*
X13459772Y-11837450D01*
X13459772Y-11837450D02*
X13488343Y-11837450D01*
X13488343Y-11837450D02*
X13507391Y-11846974D01*
X13507391Y-11846974D02*
X13516915Y-11866022D01*
X13516915Y-11866022D02*
X13516915Y-11970784D01*
X13907391Y-11761260D02*
X13735963Y-12018403D01*
X14164534Y-11770784D02*
X14183582Y-11770784D01*
X14183582Y-11770784D02*
X14202629Y-11780308D01*
X14202629Y-11780308D02*
X14212153Y-11789831D01*
X14212153Y-11789831D02*
X14221677Y-11808879D01*
X14221677Y-11808879D02*
X14231201Y-11846974D01*
X14231201Y-11846974D02*
X14231201Y-11894593D01*
X14231201Y-11894593D02*
X14221677Y-11932688D01*
X14221677Y-11932688D02*
X14212153Y-11951736D01*
X14212153Y-11951736D02*
X14202629Y-11961260D01*
X14202629Y-11961260D02*
X14183582Y-11970784D01*
X14183582Y-11970784D02*
X14164534Y-11970784D01*
X14164534Y-11970784D02*
X14145486Y-11961260D01*
X14145486Y-11961260D02*
X14135963Y-11951736D01*
X14135963Y-11951736D02*
X14126439Y-11932688D01*
X14126439Y-11932688D02*
X14116915Y-11894593D01*
X14116915Y-11894593D02*
X14116915Y-11846974D01*
X14116915Y-11846974D02*
X14126439Y-11808879D01*
X14126439Y-11808879D02*
X14135963Y-11789831D01*
X14135963Y-11789831D02*
X14145486Y-11780308D01*
X14145486Y-11780308D02*
X14164534Y-11770784D01*
X14316915Y-11951736D02*
X14326439Y-11961260D01*
X14326439Y-11961260D02*
X14316915Y-11970784D01*
X14316915Y-11970784D02*
X14307391Y-11961260D01*
X14307391Y-11961260D02*
X14316915Y-11951736D01*
X14316915Y-11951736D02*
X14316915Y-11970784D01*
X14450248Y-11770784D02*
X14469296Y-11770784D01*
X14469296Y-11770784D02*
X14488344Y-11780308D01*
X14488344Y-11780308D02*
X14497867Y-11789831D01*
X14497867Y-11789831D02*
X14507391Y-11808879D01*
X14507391Y-11808879D02*
X14516915Y-11846974D01*
X14516915Y-11846974D02*
X14516915Y-11894593D01*
X14516915Y-11894593D02*
X14507391Y-11932688D01*
X14507391Y-11932688D02*
X14497867Y-11951736D01*
X14497867Y-11951736D02*
X14488344Y-11961260D01*
X14488344Y-11961260D02*
X14469296Y-11970784D01*
X14469296Y-11970784D02*
X14450248Y-11970784D01*
X14450248Y-11970784D02*
X14431201Y-11961260D01*
X14431201Y-11961260D02*
X14421677Y-11951736D01*
X14421677Y-11951736D02*
X14412153Y-11932688D01*
X14412153Y-11932688D02*
X14402629Y-11894593D01*
X14402629Y-11894593D02*
X14402629Y-11846974D01*
X14402629Y-11846974D02*
X14412153Y-11808879D01*
X14412153Y-11808879D02*
X14421677Y-11789831D01*
X14421677Y-11789831D02*
X14431201Y-11780308D01*
X14431201Y-11780308D02*
X14450248Y-11770784D01*
X14707391Y-11970784D02*
X14593106Y-11970784D01*
X14650248Y-11970784D02*
X14650248Y-11770784D01*
X14650248Y-11770784D02*
X14631201Y-11799355D01*
X14631201Y-11799355D02*
X14612153Y-11818403D01*
X14612153Y-11818403D02*
X14593106Y-11827927D01*
X14888344Y-11770784D02*
X14793106Y-11770784D01*
X14793106Y-11770784D02*
X14783582Y-11866022D01*
X14783582Y-11866022D02*
X14793106Y-11856498D01*
X14793106Y-11856498D02*
X14812153Y-11846974D01*
X14812153Y-11846974D02*
X14859772Y-11846974D01*
X14859772Y-11846974D02*
X14878820Y-11856498D01*
X14878820Y-11856498D02*
X14888344Y-11866022D01*
X14888344Y-11866022D02*
X14897867Y-11885069D01*
X14897867Y-11885069D02*
X14897867Y-11932688D01*
X14897867Y-11932688D02*
X14888344Y-11951736D01*
X14888344Y-11951736D02*
X14878820Y-11961260D01*
X14878820Y-11961260D02*
X14859772Y-11970784D01*
X14859772Y-11970784D02*
X14812153Y-11970784D01*
X14812153Y-11970784D02*
X14793106Y-11961260D01*
X14793106Y-11961260D02*
X14783582Y-11951736D01*
X14964534Y-11770784D02*
X15097867Y-11770784D01*
X15097867Y-11770784D02*
X15012153Y-11970784D01*
X15164534Y-11770784D02*
X15164534Y-11808879D01*
X15240725Y-11770784D02*
X15240725Y-11808879D01*
X15535963Y-12046974D02*
X15526439Y-12037450D01*
X15526439Y-12037450D02*
X15507391Y-12008879D01*
X15507391Y-12008879D02*
X15497868Y-11989831D01*
X15497868Y-11989831D02*
X15488344Y-11961260D01*
X15488344Y-11961260D02*
X15478820Y-11913641D01*
X15478820Y-11913641D02*
X15478820Y-11875546D01*
X15478820Y-11875546D02*
X15488344Y-11827927D01*
X15488344Y-11827927D02*
X15497868Y-11799355D01*
X15497868Y-11799355D02*
X15507391Y-11780308D01*
X15507391Y-11780308D02*
X15526439Y-11751736D01*
X15526439Y-11751736D02*
X15535963Y-11742212D01*
X15602629Y-11789831D02*
X15612153Y-11780308D01*
X15612153Y-11780308D02*
X15631201Y-11770784D01*
X15631201Y-11770784D02*
X15678820Y-11770784D01*
X15678820Y-11770784D02*
X15697868Y-11780308D01*
X15697868Y-11780308D02*
X15707391Y-11789831D01*
X15707391Y-11789831D02*
X15716915Y-11808879D01*
X15716915Y-11808879D02*
X15716915Y-11827927D01*
X15716915Y-11827927D02*
X15707391Y-11856498D01*
X15707391Y-11856498D02*
X15593106Y-11970784D01*
X15593106Y-11970784D02*
X15716915Y-11970784D01*
X15955010Y-11970784D02*
X15955010Y-11770784D01*
X16040725Y-11970784D02*
X16040725Y-11866022D01*
X16040725Y-11866022D02*
X16031201Y-11846974D01*
X16031201Y-11846974D02*
X16012153Y-11837450D01*
X16012153Y-11837450D02*
X15983582Y-11837450D01*
X15983582Y-11837450D02*
X15964534Y-11846974D01*
X15964534Y-11846974D02*
X15955010Y-11856498D01*
X16164534Y-11970784D02*
X16145487Y-11961260D01*
X16145487Y-11961260D02*
X16135963Y-11951736D01*
X16135963Y-11951736D02*
X16126439Y-11932688D01*
X16126439Y-11932688D02*
X16126439Y-11875546D01*
X16126439Y-11875546D02*
X16135963Y-11856498D01*
X16135963Y-11856498D02*
X16145487Y-11846974D01*
X16145487Y-11846974D02*
X16164534Y-11837450D01*
X16164534Y-11837450D02*
X16193106Y-11837450D01*
X16193106Y-11837450D02*
X16212153Y-11846974D01*
X16212153Y-11846974D02*
X16221677Y-11856498D01*
X16221677Y-11856498D02*
X16231201Y-11875546D01*
X16231201Y-11875546D02*
X16231201Y-11932688D01*
X16231201Y-11932688D02*
X16221677Y-11951736D01*
X16221677Y-11951736D02*
X16212153Y-11961260D01*
X16212153Y-11961260D02*
X16193106Y-11970784D01*
X16193106Y-11970784D02*
X16164534Y-11970784D01*
X16345487Y-11970784D02*
X16326439Y-11961260D01*
X16326439Y-11961260D02*
X16316915Y-11942212D01*
X16316915Y-11942212D02*
X16316915Y-11770784D01*
X16497868Y-11961260D02*
X16478820Y-11970784D01*
X16478820Y-11970784D02*
X16440725Y-11970784D01*
X16440725Y-11970784D02*
X16421677Y-11961260D01*
X16421677Y-11961260D02*
X16412153Y-11942212D01*
X16412153Y-11942212D02*
X16412153Y-11866022D01*
X16412153Y-11866022D02*
X16421677Y-11846974D01*
X16421677Y-11846974D02*
X16440725Y-11837450D01*
X16440725Y-11837450D02*
X16478820Y-11837450D01*
X16478820Y-11837450D02*
X16497868Y-11846974D01*
X16497868Y-11846974D02*
X16507391Y-11866022D01*
X16507391Y-11866022D02*
X16507391Y-11885069D01*
X16507391Y-11885069D02*
X16412153Y-11904117D01*
X16583582Y-11961260D02*
X16602630Y-11970784D01*
X16602630Y-11970784D02*
X16640725Y-11970784D01*
X16640725Y-11970784D02*
X16659772Y-11961260D01*
X16659772Y-11961260D02*
X16669296Y-11942212D01*
X16669296Y-11942212D02*
X16669296Y-11932688D01*
X16669296Y-11932688D02*
X16659772Y-11913641D01*
X16659772Y-11913641D02*
X16640725Y-11904117D01*
X16640725Y-11904117D02*
X16612153Y-11904117D01*
X16612153Y-11904117D02*
X16593106Y-11894593D01*
X16593106Y-11894593D02*
X16583582Y-11875546D01*
X16583582Y-11875546D02*
X16583582Y-11866022D01*
X16583582Y-11866022D02*
X16593106Y-11846974D01*
X16593106Y-11846974D02*
X16612153Y-11837450D01*
X16612153Y-11837450D02*
X16640725Y-11837450D01*
X16640725Y-11837450D02*
X16659772Y-11846974D01*
X16735963Y-12046974D02*
X16745487Y-12037450D01*
X16745487Y-12037450D02*
X16764534Y-12008879D01*
X16764534Y-12008879D02*
X16774058Y-11989831D01*
X16774058Y-11989831D02*
X16783582Y-11961260D01*
X16783582Y-11961260D02*
X16793106Y-11913641D01*
X16793106Y-11913641D02*
X16793106Y-11875546D01*
X16793106Y-11875546D02*
X16783582Y-11827927D01*
X16783582Y-11827927D02*
X16774058Y-11799355D01*
X16774058Y-11799355D02*
X16764534Y-11780308D01*
X16764534Y-11780308D02*
X16745487Y-11751736D01*
X16745487Y-11751736D02*
X16735963Y-11742212D01*
D14*
X11925900Y-12108300D02*
X11925900Y-12178300D01*
X11890900Y-12143300D02*
X11960900Y-12143300D01*
D11*
X12259772Y-12034784D02*
X12278820Y-12034784D01*
X12278820Y-12034784D02*
X12297867Y-12044308D01*
X12297867Y-12044308D02*
X12307391Y-12053831D01*
X12307391Y-12053831D02*
X12316915Y-12072879D01*
X12316915Y-12072879D02*
X12326439Y-12110974D01*
X12326439Y-12110974D02*
X12326439Y-12158593D01*
X12326439Y-12158593D02*
X12316915Y-12196688D01*
X12316915Y-12196688D02*
X12307391Y-12215736D01*
X12307391Y-12215736D02*
X12297867Y-12225260D01*
X12297867Y-12225260D02*
X12278820Y-12234784D01*
X12278820Y-12234784D02*
X12259772Y-12234784D01*
X12259772Y-12234784D02*
X12240724Y-12225260D01*
X12240724Y-12225260D02*
X12231201Y-12215736D01*
X12231201Y-12215736D02*
X12221677Y-12196688D01*
X12221677Y-12196688D02*
X12212153Y-12158593D01*
X12212153Y-12158593D02*
X12212153Y-12110974D01*
X12212153Y-12110974D02*
X12221677Y-12072879D01*
X12221677Y-12072879D02*
X12231201Y-12053831D01*
X12231201Y-12053831D02*
X12240724Y-12044308D01*
X12240724Y-12044308D02*
X12259772Y-12034784D01*
X12412153Y-12215736D02*
X12421677Y-12225260D01*
X12421677Y-12225260D02*
X12412153Y-12234784D01*
X12412153Y-12234784D02*
X12402629Y-12225260D01*
X12402629Y-12225260D02*
X12412153Y-12215736D01*
X12412153Y-12215736D02*
X12412153Y-12234784D01*
X12488343Y-12034784D02*
X12621677Y-12034784D01*
X12621677Y-12034784D02*
X12535962Y-12234784D01*
X12735962Y-12034784D02*
X12755010Y-12034784D01*
X12755010Y-12034784D02*
X12774058Y-12044308D01*
X12774058Y-12044308D02*
X12783582Y-12053831D01*
X12783582Y-12053831D02*
X12793105Y-12072879D01*
X12793105Y-12072879D02*
X12802629Y-12110974D01*
X12802629Y-12110974D02*
X12802629Y-12158593D01*
X12802629Y-12158593D02*
X12793105Y-12196688D01*
X12793105Y-12196688D02*
X12783582Y-12215736D01*
X12783582Y-12215736D02*
X12774058Y-12225260D01*
X12774058Y-12225260D02*
X12755010Y-12234784D01*
X12755010Y-12234784D02*
X12735962Y-12234784D01*
X12735962Y-12234784D02*
X12716915Y-12225260D01*
X12716915Y-12225260D02*
X12707391Y-12215736D01*
X12707391Y-12215736D02*
X12697867Y-12196688D01*
X12697867Y-12196688D02*
X12688343Y-12158593D01*
X12688343Y-12158593D02*
X12688343Y-12110974D01*
X12688343Y-12110974D02*
X12697867Y-12072879D01*
X12697867Y-12072879D02*
X12707391Y-12053831D01*
X12707391Y-12053831D02*
X12716915Y-12044308D01*
X12716915Y-12044308D02*
X12735962Y-12034784D01*
X12926439Y-12034784D02*
X12945486Y-12034784D01*
X12945486Y-12034784D02*
X12964534Y-12044308D01*
X12964534Y-12044308D02*
X12974058Y-12053831D01*
X12974058Y-12053831D02*
X12983582Y-12072879D01*
X12983582Y-12072879D02*
X12993105Y-12110974D01*
X12993105Y-12110974D02*
X12993105Y-12158593D01*
X12993105Y-12158593D02*
X12983582Y-12196688D01*
X12983582Y-12196688D02*
X12974058Y-12215736D01*
X12974058Y-12215736D02*
X12964534Y-12225260D01*
X12964534Y-12225260D02*
X12945486Y-12234784D01*
X12945486Y-12234784D02*
X12926439Y-12234784D01*
X12926439Y-12234784D02*
X12907391Y-12225260D01*
X12907391Y-12225260D02*
X12897867Y-12215736D01*
X12897867Y-12215736D02*
X12888343Y-12196688D01*
X12888343Y-12196688D02*
X12878820Y-12158593D01*
X12878820Y-12158593D02*
X12878820Y-12110974D01*
X12878820Y-12110974D02*
X12888343Y-12072879D01*
X12888343Y-12072879D02*
X12897867Y-12053831D01*
X12897867Y-12053831D02*
X12907391Y-12044308D01*
X12907391Y-12044308D02*
X12926439Y-12034784D01*
X13078820Y-12234784D02*
X13078820Y-12101450D01*
X13078820Y-12120498D02*
X13088343Y-12110974D01*
X13088343Y-12110974D02*
X13107391Y-12101450D01*
X13107391Y-12101450D02*
X13135963Y-12101450D01*
X13135963Y-12101450D02*
X13155010Y-12110974D01*
X13155010Y-12110974D02*
X13164534Y-12130022D01*
X13164534Y-12130022D02*
X13164534Y-12234784D01*
X13164534Y-12130022D02*
X13174058Y-12110974D01*
X13174058Y-12110974D02*
X13193105Y-12101450D01*
X13193105Y-12101450D02*
X13221677Y-12101450D01*
X13221677Y-12101450D02*
X13240724Y-12110974D01*
X13240724Y-12110974D02*
X13250248Y-12130022D01*
X13250248Y-12130022D02*
X13250248Y-12234784D01*
X13345486Y-12234784D02*
X13345486Y-12101450D01*
X13345486Y-12120498D02*
X13355010Y-12110974D01*
X13355010Y-12110974D02*
X13374058Y-12101450D01*
X13374058Y-12101450D02*
X13402629Y-12101450D01*
X13402629Y-12101450D02*
X13421677Y-12110974D01*
X13421677Y-12110974D02*
X13431201Y-12130022D01*
X13431201Y-12130022D02*
X13431201Y-12234784D01*
X13431201Y-12130022D02*
X13440724Y-12110974D01*
X13440724Y-12110974D02*
X13459772Y-12101450D01*
X13459772Y-12101450D02*
X13488343Y-12101450D01*
X13488343Y-12101450D02*
X13507391Y-12110974D01*
X13507391Y-12110974D02*
X13516915Y-12130022D01*
X13516915Y-12130022D02*
X13516915Y-12234784D01*
X13907391Y-12025260D02*
X13735963Y-12282403D01*
X14164534Y-12034784D02*
X14183582Y-12034784D01*
X14183582Y-12034784D02*
X14202629Y-12044308D01*
X14202629Y-12044308D02*
X14212153Y-12053831D01*
X14212153Y-12053831D02*
X14221677Y-12072879D01*
X14221677Y-12072879D02*
X14231201Y-12110974D01*
X14231201Y-12110974D02*
X14231201Y-12158593D01*
X14231201Y-12158593D02*
X14221677Y-12196688D01*
X14221677Y-12196688D02*
X14212153Y-12215736D01*
X14212153Y-12215736D02*
X14202629Y-12225260D01*
X14202629Y-12225260D02*
X14183582Y-12234784D01*
X14183582Y-12234784D02*
X14164534Y-12234784D01*
X14164534Y-12234784D02*
X14145486Y-12225260D01*
X14145486Y-12225260D02*
X14135963Y-12215736D01*
X14135963Y-12215736D02*
X14126439Y-12196688D01*
X14126439Y-12196688D02*
X14116915Y-12158593D01*
X14116915Y-12158593D02*
X14116915Y-12110974D01*
X14116915Y-12110974D02*
X14126439Y-12072879D01*
X14126439Y-12072879D02*
X14135963Y-12053831D01*
X14135963Y-12053831D02*
X14145486Y-12044308D01*
X14145486Y-12044308D02*
X14164534Y-12034784D01*
X14316915Y-12215736D02*
X14326439Y-12225260D01*
X14326439Y-12225260D02*
X14316915Y-12234784D01*
X14316915Y-12234784D02*
X14307391Y-12225260D01*
X14307391Y-12225260D02*
X14316915Y-12215736D01*
X14316915Y-12215736D02*
X14316915Y-12234784D01*
X14450248Y-12034784D02*
X14469296Y-12034784D01*
X14469296Y-12034784D02*
X14488344Y-12044308D01*
X14488344Y-12044308D02*
X14497867Y-12053831D01*
X14497867Y-12053831D02*
X14507391Y-12072879D01*
X14507391Y-12072879D02*
X14516915Y-12110974D01*
X14516915Y-12110974D02*
X14516915Y-12158593D01*
X14516915Y-12158593D02*
X14507391Y-12196688D01*
X14507391Y-12196688D02*
X14497867Y-12215736D01*
X14497867Y-12215736D02*
X14488344Y-12225260D01*
X14488344Y-12225260D02*
X14469296Y-12234784D01*
X14469296Y-12234784D02*
X14450248Y-12234784D01*
X14450248Y-12234784D02*
X14431201Y-12225260D01*
X14431201Y-12225260D02*
X14421677Y-12215736D01*
X14421677Y-12215736D02*
X14412153Y-12196688D01*
X14412153Y-12196688D02*
X14402629Y-12158593D01*
X14402629Y-12158593D02*
X14402629Y-12110974D01*
X14402629Y-12110974D02*
X14412153Y-12072879D01*
X14412153Y-12072879D02*
X14421677Y-12053831D01*
X14421677Y-12053831D02*
X14431201Y-12044308D01*
X14431201Y-12044308D02*
X14450248Y-12034784D01*
X14593106Y-12053831D02*
X14602629Y-12044308D01*
X14602629Y-12044308D02*
X14621677Y-12034784D01*
X14621677Y-12034784D02*
X14669296Y-12034784D01*
X14669296Y-12034784D02*
X14688344Y-12044308D01*
X14688344Y-12044308D02*
X14697867Y-12053831D01*
X14697867Y-12053831D02*
X14707391Y-12072879D01*
X14707391Y-12072879D02*
X14707391Y-12091927D01*
X14707391Y-12091927D02*
X14697867Y-12120498D01*
X14697867Y-12120498D02*
X14583582Y-12234784D01*
X14583582Y-12234784D02*
X14707391Y-12234784D01*
X14774058Y-12034784D02*
X14907391Y-12034784D01*
X14907391Y-12034784D02*
X14821677Y-12234784D01*
X15069296Y-12034784D02*
X15031201Y-12034784D01*
X15031201Y-12034784D02*
X15012153Y-12044308D01*
X15012153Y-12044308D02*
X15002629Y-12053831D01*
X15002629Y-12053831D02*
X14983582Y-12082403D01*
X14983582Y-12082403D02*
X14974058Y-12120498D01*
X14974058Y-12120498D02*
X14974058Y-12196688D01*
X14974058Y-12196688D02*
X14983582Y-12215736D01*
X14983582Y-12215736D02*
X14993106Y-12225260D01*
X14993106Y-12225260D02*
X15012153Y-12234784D01*
X15012153Y-12234784D02*
X15050248Y-12234784D01*
X15050248Y-12234784D02*
X15069296Y-12225260D01*
X15069296Y-12225260D02*
X15078820Y-12215736D01*
X15078820Y-12215736D02*
X15088344Y-12196688D01*
X15088344Y-12196688D02*
X15088344Y-12149069D01*
X15088344Y-12149069D02*
X15078820Y-12130022D01*
X15078820Y-12130022D02*
X15069296Y-12120498D01*
X15069296Y-12120498D02*
X15050248Y-12110974D01*
X15050248Y-12110974D02*
X15012153Y-12110974D01*
X15012153Y-12110974D02*
X14993106Y-12120498D01*
X14993106Y-12120498D02*
X14983582Y-12130022D01*
X14983582Y-12130022D02*
X14974058Y-12149069D01*
X15164534Y-12034784D02*
X15164534Y-12072879D01*
X15240725Y-12034784D02*
X15240725Y-12072879D01*
X15535963Y-12310974D02*
X15526439Y-12301450D01*
X15526439Y-12301450D02*
X15507391Y-12272879D01*
X15507391Y-12272879D02*
X15497868Y-12253831D01*
X15497868Y-12253831D02*
X15488344Y-12225260D01*
X15488344Y-12225260D02*
X15478820Y-12177641D01*
X15478820Y-12177641D02*
X15478820Y-12139546D01*
X15478820Y-12139546D02*
X15488344Y-12091927D01*
X15488344Y-12091927D02*
X15497868Y-12063355D01*
X15497868Y-12063355D02*
X15507391Y-12044308D01*
X15507391Y-12044308D02*
X15526439Y-12015736D01*
X15526439Y-12015736D02*
X15535963Y-12006212D01*
X15593106Y-12034784D02*
X15716915Y-12034784D01*
X15716915Y-12034784D02*
X15650248Y-12110974D01*
X15650248Y-12110974D02*
X15678820Y-12110974D01*
X15678820Y-12110974D02*
X15697868Y-12120498D01*
X15697868Y-12120498D02*
X15707391Y-12130022D01*
X15707391Y-12130022D02*
X15716915Y-12149069D01*
X15716915Y-12149069D02*
X15716915Y-12196688D01*
X15716915Y-12196688D02*
X15707391Y-12215736D01*
X15707391Y-12215736D02*
X15697868Y-12225260D01*
X15697868Y-12225260D02*
X15678820Y-12234784D01*
X15678820Y-12234784D02*
X15621677Y-12234784D01*
X15621677Y-12234784D02*
X15602629Y-12225260D01*
X15602629Y-12225260D02*
X15593106Y-12215736D01*
X15955010Y-12234784D02*
X15955010Y-12034784D01*
X16040725Y-12234784D02*
X16040725Y-12130022D01*
X16040725Y-12130022D02*
X16031201Y-12110974D01*
X16031201Y-12110974D02*
X16012153Y-12101450D01*
X16012153Y-12101450D02*
X15983582Y-12101450D01*
X15983582Y-12101450D02*
X15964534Y-12110974D01*
X15964534Y-12110974D02*
X15955010Y-12120498D01*
X16164534Y-12234784D02*
X16145487Y-12225260D01*
X16145487Y-12225260D02*
X16135963Y-12215736D01*
X16135963Y-12215736D02*
X16126439Y-12196688D01*
X16126439Y-12196688D02*
X16126439Y-12139546D01*
X16126439Y-12139546D02*
X16135963Y-12120498D01*
X16135963Y-12120498D02*
X16145487Y-12110974D01*
X16145487Y-12110974D02*
X16164534Y-12101450D01*
X16164534Y-12101450D02*
X16193106Y-12101450D01*
X16193106Y-12101450D02*
X16212153Y-12110974D01*
X16212153Y-12110974D02*
X16221677Y-12120498D01*
X16221677Y-12120498D02*
X16231201Y-12139546D01*
X16231201Y-12139546D02*
X16231201Y-12196688D01*
X16231201Y-12196688D02*
X16221677Y-12215736D01*
X16221677Y-12215736D02*
X16212153Y-12225260D01*
X16212153Y-12225260D02*
X16193106Y-12234784D01*
X16193106Y-12234784D02*
X16164534Y-12234784D01*
X16345487Y-12234784D02*
X16326439Y-12225260D01*
X16326439Y-12225260D02*
X16316915Y-12206212D01*
X16316915Y-12206212D02*
X16316915Y-12034784D01*
X16497868Y-12225260D02*
X16478820Y-12234784D01*
X16478820Y-12234784D02*
X16440725Y-12234784D01*
X16440725Y-12234784D02*
X16421677Y-12225260D01*
X16421677Y-12225260D02*
X16412153Y-12206212D01*
X16412153Y-12206212D02*
X16412153Y-12130022D01*
X16412153Y-12130022D02*
X16421677Y-12110974D01*
X16421677Y-12110974D02*
X16440725Y-12101450D01*
X16440725Y-12101450D02*
X16478820Y-12101450D01*
X16478820Y-12101450D02*
X16497868Y-12110974D01*
X16497868Y-12110974D02*
X16507391Y-12130022D01*
X16507391Y-12130022D02*
X16507391Y-12149069D01*
X16507391Y-12149069D02*
X16412153Y-12168117D01*
X16583582Y-12225260D02*
X16602630Y-12234784D01*
X16602630Y-12234784D02*
X16640725Y-12234784D01*
X16640725Y-12234784D02*
X16659772Y-12225260D01*
X16659772Y-12225260D02*
X16669296Y-12206212D01*
X16669296Y-12206212D02*
X16669296Y-12196688D01*
X16669296Y-12196688D02*
X16659772Y-12177641D01*
X16659772Y-12177641D02*
X16640725Y-12168117D01*
X16640725Y-12168117D02*
X16612153Y-12168117D01*
X16612153Y-12168117D02*
X16593106Y-12158593D01*
X16593106Y-12158593D02*
X16583582Y-12139546D01*
X16583582Y-12139546D02*
X16583582Y-12130022D01*
X16583582Y-12130022D02*
X16593106Y-12110974D01*
X16593106Y-12110974D02*
X16612153Y-12101450D01*
X16612153Y-12101450D02*
X16640725Y-12101450D01*
X16640725Y-12101450D02*
X16659772Y-12110974D01*
X16735963Y-12310974D02*
X16745487Y-12301450D01*
X16745487Y-12301450D02*
X16764534Y-12272879D01*
X16764534Y-12272879D02*
X16774058Y-12253831D01*
X16774058Y-12253831D02*
X16783582Y-12225260D01*
X16783582Y-12225260D02*
X16793106Y-12177641D01*
X16793106Y-12177641D02*
X16793106Y-12139546D01*
X16793106Y-12139546D02*
X16783582Y-12091927D01*
X16783582Y-12091927D02*
X16774058Y-12063355D01*
X16774058Y-12063355D02*
X16764534Y-12044308D01*
X16764534Y-12044308D02*
X16745487Y-12015736D01*
X16745487Y-12015736D02*
X16735963Y-12006212D01*
D15*
X11947720Y-12439120D02*
X11947720Y-12375480D01*
X11884080Y-12375480D01*
X11884080Y-12439120D01*
X11947720Y-12439120D01*
D11*
X12259772Y-12298784D02*
X12278820Y-12298784D01*
X12278820Y-12298784D02*
X12297867Y-12308308D01*
X12297867Y-12308308D02*
X12307391Y-12317831D01*
X12307391Y-12317831D02*
X12316915Y-12336879D01*
X12316915Y-12336879D02*
X12326439Y-12374974D01*
X12326439Y-12374974D02*
X12326439Y-12422593D01*
X12326439Y-12422593D02*
X12316915Y-12460688D01*
X12316915Y-12460688D02*
X12307391Y-12479736D01*
X12307391Y-12479736D02*
X12297867Y-12489260D01*
X12297867Y-12489260D02*
X12278820Y-12498784D01*
X12278820Y-12498784D02*
X12259772Y-12498784D01*
X12259772Y-12498784D02*
X12240724Y-12489260D01*
X12240724Y-12489260D02*
X12231201Y-12479736D01*
X12231201Y-12479736D02*
X12221677Y-12460688D01*
X12221677Y-12460688D02*
X12212153Y-12422593D01*
X12212153Y-12422593D02*
X12212153Y-12374974D01*
X12212153Y-12374974D02*
X12221677Y-12336879D01*
X12221677Y-12336879D02*
X12231201Y-12317831D01*
X12231201Y-12317831D02*
X12240724Y-12308308D01*
X12240724Y-12308308D02*
X12259772Y-12298784D01*
X12412153Y-12479736D02*
X12421677Y-12489260D01*
X12421677Y-12489260D02*
X12412153Y-12498784D01*
X12412153Y-12498784D02*
X12402629Y-12489260D01*
X12402629Y-12489260D02*
X12412153Y-12479736D01*
X12412153Y-12479736D02*
X12412153Y-12498784D01*
X12516915Y-12498784D02*
X12555010Y-12498784D01*
X12555010Y-12498784D02*
X12574058Y-12489260D01*
X12574058Y-12489260D02*
X12583582Y-12479736D01*
X12583582Y-12479736D02*
X12602629Y-12451165D01*
X12602629Y-12451165D02*
X12612153Y-12413069D01*
X12612153Y-12413069D02*
X12612153Y-12336879D01*
X12612153Y-12336879D02*
X12602629Y-12317831D01*
X12602629Y-12317831D02*
X12593105Y-12308308D01*
X12593105Y-12308308D02*
X12574058Y-12298784D01*
X12574058Y-12298784D02*
X12535962Y-12298784D01*
X12535962Y-12298784D02*
X12516915Y-12308308D01*
X12516915Y-12308308D02*
X12507391Y-12317831D01*
X12507391Y-12317831D02*
X12497867Y-12336879D01*
X12497867Y-12336879D02*
X12497867Y-12384498D01*
X12497867Y-12384498D02*
X12507391Y-12403546D01*
X12507391Y-12403546D02*
X12516915Y-12413069D01*
X12516915Y-12413069D02*
X12535962Y-12422593D01*
X12535962Y-12422593D02*
X12574058Y-12422593D01*
X12574058Y-12422593D02*
X12593105Y-12413069D01*
X12593105Y-12413069D02*
X12602629Y-12403546D01*
X12602629Y-12403546D02*
X12612153Y-12384498D01*
X12735962Y-12298784D02*
X12755010Y-12298784D01*
X12755010Y-12298784D02*
X12774058Y-12308308D01*
X12774058Y-12308308D02*
X12783582Y-12317831D01*
X12783582Y-12317831D02*
X12793105Y-12336879D01*
X12793105Y-12336879D02*
X12802629Y-12374974D01*
X12802629Y-12374974D02*
X12802629Y-12422593D01*
X12802629Y-12422593D02*
X12793105Y-12460688D01*
X12793105Y-12460688D02*
X12783582Y-12479736D01*
X12783582Y-12479736D02*
X12774058Y-12489260D01*
X12774058Y-12489260D02*
X12755010Y-12498784D01*
X12755010Y-12498784D02*
X12735962Y-12498784D01*
X12735962Y-12498784D02*
X12716915Y-12489260D01*
X12716915Y-12489260D02*
X12707391Y-12479736D01*
X12707391Y-12479736D02*
X12697867Y-12460688D01*
X12697867Y-12460688D02*
X12688343Y-12422593D01*
X12688343Y-12422593D02*
X12688343Y-12374974D01*
X12688343Y-12374974D02*
X12697867Y-12336879D01*
X12697867Y-12336879D02*
X12707391Y-12317831D01*
X12707391Y-12317831D02*
X12716915Y-12308308D01*
X12716915Y-12308308D02*
X12735962Y-12298784D01*
X12926439Y-12298784D02*
X12945486Y-12298784D01*
X12945486Y-12298784D02*
X12964534Y-12308308D01*
X12964534Y-12308308D02*
X12974058Y-12317831D01*
X12974058Y-12317831D02*
X12983582Y-12336879D01*
X12983582Y-12336879D02*
X12993105Y-12374974D01*
X12993105Y-12374974D02*
X12993105Y-12422593D01*
X12993105Y-12422593D02*
X12983582Y-12460688D01*
X12983582Y-12460688D02*
X12974058Y-12479736D01*
X12974058Y-12479736D02*
X12964534Y-12489260D01*
X12964534Y-12489260D02*
X12945486Y-12498784D01*
X12945486Y-12498784D02*
X12926439Y-12498784D01*
X12926439Y-12498784D02*
X12907391Y-12489260D01*
X12907391Y-12489260D02*
X12897867Y-12479736D01*
X12897867Y-12479736D02*
X12888343Y-12460688D01*
X12888343Y-12460688D02*
X12878820Y-12422593D01*
X12878820Y-12422593D02*
X12878820Y-12374974D01*
X12878820Y-12374974D02*
X12888343Y-12336879D01*
X12888343Y-12336879D02*
X12897867Y-12317831D01*
X12897867Y-12317831D02*
X12907391Y-12308308D01*
X12907391Y-12308308D02*
X12926439Y-12298784D01*
X13078820Y-12498784D02*
X13078820Y-12365450D01*
X13078820Y-12384498D02*
X13088343Y-12374974D01*
X13088343Y-12374974D02*
X13107391Y-12365450D01*
X13107391Y-12365450D02*
X13135963Y-12365450D01*
X13135963Y-12365450D02*
X13155010Y-12374974D01*
X13155010Y-12374974D02*
X13164534Y-12394022D01*
X13164534Y-12394022D02*
X13164534Y-12498784D01*
X13164534Y-12394022D02*
X13174058Y-12374974D01*
X13174058Y-12374974D02*
X13193105Y-12365450D01*
X13193105Y-12365450D02*
X13221677Y-12365450D01*
X13221677Y-12365450D02*
X13240724Y-12374974D01*
X13240724Y-12374974D02*
X13250248Y-12394022D01*
X13250248Y-12394022D02*
X13250248Y-12498784D01*
X13345486Y-12498784D02*
X13345486Y-12365450D01*
X13345486Y-12384498D02*
X13355010Y-12374974D01*
X13355010Y-12374974D02*
X13374058Y-12365450D01*
X13374058Y-12365450D02*
X13402629Y-12365450D01*
X13402629Y-12365450D02*
X13421677Y-12374974D01*
X13421677Y-12374974D02*
X13431201Y-12394022D01*
X13431201Y-12394022D02*
X13431201Y-12498784D01*
X13431201Y-12394022D02*
X13440724Y-12374974D01*
X13440724Y-12374974D02*
X13459772Y-12365450D01*
X13459772Y-12365450D02*
X13488343Y-12365450D01*
X13488343Y-12365450D02*
X13507391Y-12374974D01*
X13507391Y-12374974D02*
X13516915Y-12394022D01*
X13516915Y-12394022D02*
X13516915Y-12498784D01*
X13907391Y-12289260D02*
X13735963Y-12546403D01*
X14164534Y-12298784D02*
X14183582Y-12298784D01*
X14183582Y-12298784D02*
X14202629Y-12308308D01*
X14202629Y-12308308D02*
X14212153Y-12317831D01*
X14212153Y-12317831D02*
X14221677Y-12336879D01*
X14221677Y-12336879D02*
X14231201Y-12374974D01*
X14231201Y-12374974D02*
X14231201Y-12422593D01*
X14231201Y-12422593D02*
X14221677Y-12460688D01*
X14221677Y-12460688D02*
X14212153Y-12479736D01*
X14212153Y-12479736D02*
X14202629Y-12489260D01*
X14202629Y-12489260D02*
X14183582Y-12498784D01*
X14183582Y-12498784D02*
X14164534Y-12498784D01*
X14164534Y-12498784D02*
X14145486Y-12489260D01*
X14145486Y-12489260D02*
X14135963Y-12479736D01*
X14135963Y-12479736D02*
X14126439Y-12460688D01*
X14126439Y-12460688D02*
X14116915Y-12422593D01*
X14116915Y-12422593D02*
X14116915Y-12374974D01*
X14116915Y-12374974D02*
X14126439Y-12336879D01*
X14126439Y-12336879D02*
X14135963Y-12317831D01*
X14135963Y-12317831D02*
X14145486Y-12308308D01*
X14145486Y-12308308D02*
X14164534Y-12298784D01*
X14316915Y-12479736D02*
X14326439Y-12489260D01*
X14326439Y-12489260D02*
X14316915Y-12498784D01*
X14316915Y-12498784D02*
X14307391Y-12489260D01*
X14307391Y-12489260D02*
X14316915Y-12479736D01*
X14316915Y-12479736D02*
X14316915Y-12498784D01*
X14450248Y-12298784D02*
X14469296Y-12298784D01*
X14469296Y-12298784D02*
X14488344Y-12308308D01*
X14488344Y-12308308D02*
X14497867Y-12317831D01*
X14497867Y-12317831D02*
X14507391Y-12336879D01*
X14507391Y-12336879D02*
X14516915Y-12374974D01*
X14516915Y-12374974D02*
X14516915Y-12422593D01*
X14516915Y-12422593D02*
X14507391Y-12460688D01*
X14507391Y-12460688D02*
X14497867Y-12479736D01*
X14497867Y-12479736D02*
X14488344Y-12489260D01*
X14488344Y-12489260D02*
X14469296Y-12498784D01*
X14469296Y-12498784D02*
X14450248Y-12498784D01*
X14450248Y-12498784D02*
X14431201Y-12489260D01*
X14431201Y-12489260D02*
X14421677Y-12479736D01*
X14421677Y-12479736D02*
X14412153Y-12460688D01*
X14412153Y-12460688D02*
X14402629Y-12422593D01*
X14402629Y-12422593D02*
X14402629Y-12374974D01*
X14402629Y-12374974D02*
X14412153Y-12336879D01*
X14412153Y-12336879D02*
X14421677Y-12317831D01*
X14421677Y-12317831D02*
X14431201Y-12308308D01*
X14431201Y-12308308D02*
X14450248Y-12298784D01*
X14583582Y-12298784D02*
X14707391Y-12298784D01*
X14707391Y-12298784D02*
X14640725Y-12374974D01*
X14640725Y-12374974D02*
X14669296Y-12374974D01*
X14669296Y-12374974D02*
X14688344Y-12384498D01*
X14688344Y-12384498D02*
X14697867Y-12394022D01*
X14697867Y-12394022D02*
X14707391Y-12413069D01*
X14707391Y-12413069D02*
X14707391Y-12460688D01*
X14707391Y-12460688D02*
X14697867Y-12479736D01*
X14697867Y-12479736D02*
X14688344Y-12489260D01*
X14688344Y-12489260D02*
X14669296Y-12498784D01*
X14669296Y-12498784D02*
X14612153Y-12498784D01*
X14612153Y-12498784D02*
X14593106Y-12489260D01*
X14593106Y-12489260D02*
X14583582Y-12479736D01*
X14888344Y-12298784D02*
X14793106Y-12298784D01*
X14793106Y-12298784D02*
X14783582Y-12394022D01*
X14783582Y-12394022D02*
X14793106Y-12384498D01*
X14793106Y-12384498D02*
X14812153Y-12374974D01*
X14812153Y-12374974D02*
X14859772Y-12374974D01*
X14859772Y-12374974D02*
X14878820Y-12384498D01*
X14878820Y-12384498D02*
X14888344Y-12394022D01*
X14888344Y-12394022D02*
X14897867Y-12413069D01*
X14897867Y-12413069D02*
X14897867Y-12460688D01*
X14897867Y-12460688D02*
X14888344Y-12479736D01*
X14888344Y-12479736D02*
X14878820Y-12489260D01*
X14878820Y-12489260D02*
X14859772Y-12498784D01*
X14859772Y-12498784D02*
X14812153Y-12498784D01*
X14812153Y-12498784D02*
X14793106Y-12489260D01*
X14793106Y-12489260D02*
X14783582Y-12479736D01*
X15069296Y-12365450D02*
X15069296Y-12498784D01*
X15021677Y-12289260D02*
X14974058Y-12432117D01*
X14974058Y-12432117D02*
X15097867Y-12432117D01*
X15164534Y-12298784D02*
X15164534Y-12336879D01*
X15240725Y-12298784D02*
X15240725Y-12336879D01*
X15535963Y-12574974D02*
X15526439Y-12565450D01*
X15526439Y-12565450D02*
X15507391Y-12536879D01*
X15507391Y-12536879D02*
X15497868Y-12517831D01*
X15497868Y-12517831D02*
X15488344Y-12489260D01*
X15488344Y-12489260D02*
X15478820Y-12441641D01*
X15478820Y-12441641D02*
X15478820Y-12403546D01*
X15478820Y-12403546D02*
X15488344Y-12355927D01*
X15488344Y-12355927D02*
X15497868Y-12327355D01*
X15497868Y-12327355D02*
X15507391Y-12308308D01*
X15507391Y-12308308D02*
X15526439Y-12279736D01*
X15526439Y-12279736D02*
X15535963Y-12270212D01*
X15697868Y-12298784D02*
X15659772Y-12298784D01*
X15659772Y-12298784D02*
X15640725Y-12308308D01*
X15640725Y-12308308D02*
X15631201Y-12317831D01*
X15631201Y-12317831D02*
X15612153Y-12346403D01*
X15612153Y-12346403D02*
X15602629Y-12384498D01*
X15602629Y-12384498D02*
X15602629Y-12460688D01*
X15602629Y-12460688D02*
X15612153Y-12479736D01*
X15612153Y-12479736D02*
X15621677Y-12489260D01*
X15621677Y-12489260D02*
X15640725Y-12498784D01*
X15640725Y-12498784D02*
X15678820Y-12498784D01*
X15678820Y-12498784D02*
X15697868Y-12489260D01*
X15697868Y-12489260D02*
X15707391Y-12479736D01*
X15707391Y-12479736D02*
X15716915Y-12460688D01*
X15716915Y-12460688D02*
X15716915Y-12413069D01*
X15716915Y-12413069D02*
X15707391Y-12394022D01*
X15707391Y-12394022D02*
X15697868Y-12384498D01*
X15697868Y-12384498D02*
X15678820Y-12374974D01*
X15678820Y-12374974D02*
X15640725Y-12374974D01*
X15640725Y-12374974D02*
X15621677Y-12384498D01*
X15621677Y-12384498D02*
X15612153Y-12394022D01*
X15612153Y-12394022D02*
X15602629Y-12413069D01*
X15955010Y-12498784D02*
X15955010Y-12298784D01*
X16040725Y-12498784D02*
X16040725Y-12394022D01*
X16040725Y-12394022D02*
X16031201Y-12374974D01*
X16031201Y-12374974D02*
X16012153Y-12365450D01*
X16012153Y-12365450D02*
X15983582Y-12365450D01*
X15983582Y-12365450D02*
X15964534Y-12374974D01*
X15964534Y-12374974D02*
X15955010Y-12384498D01*
X16164534Y-12498784D02*
X16145487Y-12489260D01*
X16145487Y-12489260D02*
X16135963Y-12479736D01*
X16135963Y-12479736D02*
X16126439Y-12460688D01*
X16126439Y-12460688D02*
X16126439Y-12403546D01*
X16126439Y-12403546D02*
X16135963Y-12384498D01*
X16135963Y-12384498D02*
X16145487Y-12374974D01*
X16145487Y-12374974D02*
X16164534Y-12365450D01*
X16164534Y-12365450D02*
X16193106Y-12365450D01*
X16193106Y-12365450D02*
X16212153Y-12374974D01*
X16212153Y-12374974D02*
X16221677Y-12384498D01*
X16221677Y-12384498D02*
X16231201Y-12403546D01*
X16231201Y-12403546D02*
X16231201Y-12460688D01*
X16231201Y-12460688D02*
X16221677Y-12479736D01*
X16221677Y-12479736D02*
X16212153Y-12489260D01*
X16212153Y-12489260D02*
X16193106Y-12498784D01*
X16193106Y-12498784D02*
X16164534Y-12498784D01*
X16345487Y-12498784D02*
X16326439Y-12489260D01*
X16326439Y-12489260D02*
X16316915Y-12470212D01*
X16316915Y-12470212D02*
X16316915Y-12298784D01*
X16497868Y-12489260D02*
X16478820Y-12498784D01*
X16478820Y-12498784D02*
X16440725Y-12498784D01*
X16440725Y-12498784D02*
X16421677Y-12489260D01*
X16421677Y-12489260D02*
X16412153Y-12470212D01*
X16412153Y-12470212D02*
X16412153Y-12394022D01*
X16412153Y-12394022D02*
X16421677Y-12374974D01*
X16421677Y-12374974D02*
X16440725Y-12365450D01*
X16440725Y-12365450D02*
X16478820Y-12365450D01*
X16478820Y-12365450D02*
X16497868Y-12374974D01*
X16497868Y-12374974D02*
X16507391Y-12394022D01*
X16507391Y-12394022D02*
X16507391Y-12413069D01*
X16507391Y-12413069D02*
X16412153Y-12432117D01*
X16583582Y-12489260D02*
X16602630Y-12498784D01*
X16602630Y-12498784D02*
X16640725Y-12498784D01*
X16640725Y-12498784D02*
X16659772Y-12489260D01*
X16659772Y-12489260D02*
X16669296Y-12470212D01*
X16669296Y-12470212D02*
X16669296Y-12460688D01*
X16669296Y-12460688D02*
X16659772Y-12441641D01*
X16659772Y-12441641D02*
X16640725Y-12432117D01*
X16640725Y-12432117D02*
X16612153Y-12432117D01*
X16612153Y-12432117D02*
X16593106Y-12422593D01*
X16593106Y-12422593D02*
X16583582Y-12403546D01*
X16583582Y-12403546D02*
X16583582Y-12394022D01*
X16583582Y-12394022D02*
X16593106Y-12374974D01*
X16593106Y-12374974D02*
X16612153Y-12365450D01*
X16612153Y-12365450D02*
X16640725Y-12365450D01*
X16640725Y-12365450D02*
X16659772Y-12374974D01*
X16735963Y-12574974D02*
X16745487Y-12565450D01*
X16745487Y-12565450D02*
X16764534Y-12536879D01*
X16764534Y-12536879D02*
X16774058Y-12517831D01*
X16774058Y-12517831D02*
X16783582Y-12489260D01*
X16783582Y-12489260D02*
X16793106Y-12441641D01*
X16793106Y-12441641D02*
X16793106Y-12403546D01*
X16793106Y-12403546D02*
X16783582Y-12355927D01*
X16783582Y-12355927D02*
X16774058Y-12327355D01*
X16774058Y-12327355D02*
X16764534Y-12308308D01*
X16764534Y-12308308D02*
X16745487Y-12279736D01*
X16745487Y-12279736D02*
X16735963Y-12270212D01*
D16*
X11914900Y-12717300D02*
X11960900Y-12671300D01*
X11914900Y-12625300D01*
X11868900Y-12671300D01*
X11914900Y-12717300D01*
D11*
X12259772Y-12562784D02*
X12278820Y-12562784D01*
X12278820Y-12562784D02*
X12297867Y-12572308D01*
X12297867Y-12572308D02*
X12307391Y-12581831D01*
X12307391Y-12581831D02*
X12316915Y-12600879D01*
X12316915Y-12600879D02*
X12326439Y-12638974D01*
X12326439Y-12638974D02*
X12326439Y-12686593D01*
X12326439Y-12686593D02*
X12316915Y-12724688D01*
X12316915Y-12724688D02*
X12307391Y-12743736D01*
X12307391Y-12743736D02*
X12297867Y-12753260D01*
X12297867Y-12753260D02*
X12278820Y-12762784D01*
X12278820Y-12762784D02*
X12259772Y-12762784D01*
X12259772Y-12762784D02*
X12240724Y-12753260D01*
X12240724Y-12753260D02*
X12231201Y-12743736D01*
X12231201Y-12743736D02*
X12221677Y-12724688D01*
X12221677Y-12724688D02*
X12212153Y-12686593D01*
X12212153Y-12686593D02*
X12212153Y-12638974D01*
X12212153Y-12638974D02*
X12221677Y-12600879D01*
X12221677Y-12600879D02*
X12231201Y-12581831D01*
X12231201Y-12581831D02*
X12240724Y-12572308D01*
X12240724Y-12572308D02*
X12259772Y-12562784D01*
X12412153Y-12743736D02*
X12421677Y-12753260D01*
X12421677Y-12753260D02*
X12412153Y-12762784D01*
X12412153Y-12762784D02*
X12402629Y-12753260D01*
X12402629Y-12753260D02*
X12412153Y-12743736D01*
X12412153Y-12743736D02*
X12412153Y-12762784D01*
X12516915Y-12762784D02*
X12555010Y-12762784D01*
X12555010Y-12762784D02*
X12574058Y-12753260D01*
X12574058Y-12753260D02*
X12583582Y-12743736D01*
X12583582Y-12743736D02*
X12602629Y-12715165D01*
X12602629Y-12715165D02*
X12612153Y-12677069D01*
X12612153Y-12677069D02*
X12612153Y-12600879D01*
X12612153Y-12600879D02*
X12602629Y-12581831D01*
X12602629Y-12581831D02*
X12593105Y-12572308D01*
X12593105Y-12572308D02*
X12574058Y-12562784D01*
X12574058Y-12562784D02*
X12535962Y-12562784D01*
X12535962Y-12562784D02*
X12516915Y-12572308D01*
X12516915Y-12572308D02*
X12507391Y-12581831D01*
X12507391Y-12581831D02*
X12497867Y-12600879D01*
X12497867Y-12600879D02*
X12497867Y-12648498D01*
X12497867Y-12648498D02*
X12507391Y-12667546D01*
X12507391Y-12667546D02*
X12516915Y-12677069D01*
X12516915Y-12677069D02*
X12535962Y-12686593D01*
X12535962Y-12686593D02*
X12574058Y-12686593D01*
X12574058Y-12686593D02*
X12593105Y-12677069D01*
X12593105Y-12677069D02*
X12602629Y-12667546D01*
X12602629Y-12667546D02*
X12612153Y-12648498D01*
X12688343Y-12581831D02*
X12697867Y-12572308D01*
X12697867Y-12572308D02*
X12716915Y-12562784D01*
X12716915Y-12562784D02*
X12764534Y-12562784D01*
X12764534Y-12562784D02*
X12783582Y-12572308D01*
X12783582Y-12572308D02*
X12793105Y-12581831D01*
X12793105Y-12581831D02*
X12802629Y-12600879D01*
X12802629Y-12600879D02*
X12802629Y-12619927D01*
X12802629Y-12619927D02*
X12793105Y-12648498D01*
X12793105Y-12648498D02*
X12678820Y-12762784D01*
X12678820Y-12762784D02*
X12802629Y-12762784D01*
X12926439Y-12562784D02*
X12945486Y-12562784D01*
X12945486Y-12562784D02*
X12964534Y-12572308D01*
X12964534Y-12572308D02*
X12974058Y-12581831D01*
X12974058Y-12581831D02*
X12983582Y-12600879D01*
X12983582Y-12600879D02*
X12993105Y-12638974D01*
X12993105Y-12638974D02*
X12993105Y-12686593D01*
X12993105Y-12686593D02*
X12983582Y-12724688D01*
X12983582Y-12724688D02*
X12974058Y-12743736D01*
X12974058Y-12743736D02*
X12964534Y-12753260D01*
X12964534Y-12753260D02*
X12945486Y-12762784D01*
X12945486Y-12762784D02*
X12926439Y-12762784D01*
X12926439Y-12762784D02*
X12907391Y-12753260D01*
X12907391Y-12753260D02*
X12897867Y-12743736D01*
X12897867Y-12743736D02*
X12888343Y-12724688D01*
X12888343Y-12724688D02*
X12878820Y-12686593D01*
X12878820Y-12686593D02*
X12878820Y-12638974D01*
X12878820Y-12638974D02*
X12888343Y-12600879D01*
X12888343Y-12600879D02*
X12897867Y-12581831D01*
X12897867Y-12581831D02*
X12907391Y-12572308D01*
X12907391Y-12572308D02*
X12926439Y-12562784D01*
X13078820Y-12762784D02*
X13078820Y-12629450D01*
X13078820Y-12648498D02*
X13088343Y-12638974D01*
X13088343Y-12638974D02*
X13107391Y-12629450D01*
X13107391Y-12629450D02*
X13135963Y-12629450D01*
X13135963Y-12629450D02*
X13155010Y-12638974D01*
X13155010Y-12638974D02*
X13164534Y-12658022D01*
X13164534Y-12658022D02*
X13164534Y-12762784D01*
X13164534Y-12658022D02*
X13174058Y-12638974D01*
X13174058Y-12638974D02*
X13193105Y-12629450D01*
X13193105Y-12629450D02*
X13221677Y-12629450D01*
X13221677Y-12629450D02*
X13240724Y-12638974D01*
X13240724Y-12638974D02*
X13250248Y-12658022D01*
X13250248Y-12658022D02*
X13250248Y-12762784D01*
X13345486Y-12762784D02*
X13345486Y-12629450D01*
X13345486Y-12648498D02*
X13355010Y-12638974D01*
X13355010Y-12638974D02*
X13374058Y-12629450D01*
X13374058Y-12629450D02*
X13402629Y-12629450D01*
X13402629Y-12629450D02*
X13421677Y-12638974D01*
X13421677Y-12638974D02*
X13431201Y-12658022D01*
X13431201Y-12658022D02*
X13431201Y-12762784D01*
X13431201Y-12658022D02*
X13440724Y-12638974D01*
X13440724Y-12638974D02*
X13459772Y-12629450D01*
X13459772Y-12629450D02*
X13488343Y-12629450D01*
X13488343Y-12629450D02*
X13507391Y-12638974D01*
X13507391Y-12638974D02*
X13516915Y-12658022D01*
X13516915Y-12658022D02*
X13516915Y-12762784D01*
X13907391Y-12553260D02*
X13735963Y-12810403D01*
X14164534Y-12562784D02*
X14183582Y-12562784D01*
X14183582Y-12562784D02*
X14202629Y-12572308D01*
X14202629Y-12572308D02*
X14212153Y-12581831D01*
X14212153Y-12581831D02*
X14221677Y-12600879D01*
X14221677Y-12600879D02*
X14231201Y-12638974D01*
X14231201Y-12638974D02*
X14231201Y-12686593D01*
X14231201Y-12686593D02*
X14221677Y-12724688D01*
X14221677Y-12724688D02*
X14212153Y-12743736D01*
X14212153Y-12743736D02*
X14202629Y-12753260D01*
X14202629Y-12753260D02*
X14183582Y-12762784D01*
X14183582Y-12762784D02*
X14164534Y-12762784D01*
X14164534Y-12762784D02*
X14145486Y-12753260D01*
X14145486Y-12753260D02*
X14135963Y-12743736D01*
X14135963Y-12743736D02*
X14126439Y-12724688D01*
X14126439Y-12724688D02*
X14116915Y-12686593D01*
X14116915Y-12686593D02*
X14116915Y-12638974D01*
X14116915Y-12638974D02*
X14126439Y-12600879D01*
X14126439Y-12600879D02*
X14135963Y-12581831D01*
X14135963Y-12581831D02*
X14145486Y-12572308D01*
X14145486Y-12572308D02*
X14164534Y-12562784D01*
X14316915Y-12743736D02*
X14326439Y-12753260D01*
X14326439Y-12753260D02*
X14316915Y-12762784D01*
X14316915Y-12762784D02*
X14307391Y-12753260D01*
X14307391Y-12753260D02*
X14316915Y-12743736D01*
X14316915Y-12743736D02*
X14316915Y-12762784D01*
X14450248Y-12562784D02*
X14469296Y-12562784D01*
X14469296Y-12562784D02*
X14488344Y-12572308D01*
X14488344Y-12572308D02*
X14497867Y-12581831D01*
X14497867Y-12581831D02*
X14507391Y-12600879D01*
X14507391Y-12600879D02*
X14516915Y-12638974D01*
X14516915Y-12638974D02*
X14516915Y-12686593D01*
X14516915Y-12686593D02*
X14507391Y-12724688D01*
X14507391Y-12724688D02*
X14497867Y-12743736D01*
X14497867Y-12743736D02*
X14488344Y-12753260D01*
X14488344Y-12753260D02*
X14469296Y-12762784D01*
X14469296Y-12762784D02*
X14450248Y-12762784D01*
X14450248Y-12762784D02*
X14431201Y-12753260D01*
X14431201Y-12753260D02*
X14421677Y-12743736D01*
X14421677Y-12743736D02*
X14412153Y-12724688D01*
X14412153Y-12724688D02*
X14402629Y-12686593D01*
X14402629Y-12686593D02*
X14402629Y-12638974D01*
X14402629Y-12638974D02*
X14412153Y-12600879D01*
X14412153Y-12600879D02*
X14421677Y-12581831D01*
X14421677Y-12581831D02*
X14431201Y-12572308D01*
X14431201Y-12572308D02*
X14450248Y-12562784D01*
X14583582Y-12562784D02*
X14707391Y-12562784D01*
X14707391Y-12562784D02*
X14640725Y-12638974D01*
X14640725Y-12638974D02*
X14669296Y-12638974D01*
X14669296Y-12638974D02*
X14688344Y-12648498D01*
X14688344Y-12648498D02*
X14697867Y-12658022D01*
X14697867Y-12658022D02*
X14707391Y-12677069D01*
X14707391Y-12677069D02*
X14707391Y-12724688D01*
X14707391Y-12724688D02*
X14697867Y-12743736D01*
X14697867Y-12743736D02*
X14688344Y-12753260D01*
X14688344Y-12753260D02*
X14669296Y-12762784D01*
X14669296Y-12762784D02*
X14612153Y-12762784D01*
X14612153Y-12762784D02*
X14593106Y-12753260D01*
X14593106Y-12753260D02*
X14583582Y-12743736D01*
X14878820Y-12562784D02*
X14840725Y-12562784D01*
X14840725Y-12562784D02*
X14821677Y-12572308D01*
X14821677Y-12572308D02*
X14812153Y-12581831D01*
X14812153Y-12581831D02*
X14793106Y-12610403D01*
X14793106Y-12610403D02*
X14783582Y-12648498D01*
X14783582Y-12648498D02*
X14783582Y-12724688D01*
X14783582Y-12724688D02*
X14793106Y-12743736D01*
X14793106Y-12743736D02*
X14802629Y-12753260D01*
X14802629Y-12753260D02*
X14821677Y-12762784D01*
X14821677Y-12762784D02*
X14859772Y-12762784D01*
X14859772Y-12762784D02*
X14878820Y-12753260D01*
X14878820Y-12753260D02*
X14888344Y-12743736D01*
X14888344Y-12743736D02*
X14897867Y-12724688D01*
X14897867Y-12724688D02*
X14897867Y-12677069D01*
X14897867Y-12677069D02*
X14888344Y-12658022D01*
X14888344Y-12658022D02*
X14878820Y-12648498D01*
X14878820Y-12648498D02*
X14859772Y-12638974D01*
X14859772Y-12638974D02*
X14821677Y-12638974D01*
X14821677Y-12638974D02*
X14802629Y-12648498D01*
X14802629Y-12648498D02*
X14793106Y-12658022D01*
X14793106Y-12658022D02*
X14783582Y-12677069D01*
X14974058Y-12581831D02*
X14983582Y-12572308D01*
X14983582Y-12572308D02*
X15002629Y-12562784D01*
X15002629Y-12562784D02*
X15050248Y-12562784D01*
X15050248Y-12562784D02*
X15069296Y-12572308D01*
X15069296Y-12572308D02*
X15078820Y-12581831D01*
X15078820Y-12581831D02*
X15088344Y-12600879D01*
X15088344Y-12600879D02*
X15088344Y-12619927D01*
X15088344Y-12619927D02*
X15078820Y-12648498D01*
X15078820Y-12648498D02*
X14964534Y-12762784D01*
X14964534Y-12762784D02*
X15088344Y-12762784D01*
X15164534Y-12562784D02*
X15164534Y-12600879D01*
X15240725Y-12562784D02*
X15240725Y-12600879D01*
X15535963Y-12838974D02*
X15526439Y-12829450D01*
X15526439Y-12829450D02*
X15507391Y-12800879D01*
X15507391Y-12800879D02*
X15497868Y-12781831D01*
X15497868Y-12781831D02*
X15488344Y-12753260D01*
X15488344Y-12753260D02*
X15478820Y-12705641D01*
X15478820Y-12705641D02*
X15478820Y-12667546D01*
X15478820Y-12667546D02*
X15488344Y-12619927D01*
X15488344Y-12619927D02*
X15497868Y-12591355D01*
X15497868Y-12591355D02*
X15507391Y-12572308D01*
X15507391Y-12572308D02*
X15526439Y-12543736D01*
X15526439Y-12543736D02*
X15535963Y-12534212D01*
X15640725Y-12648498D02*
X15621677Y-12638974D01*
X15621677Y-12638974D02*
X15612153Y-12629450D01*
X15612153Y-12629450D02*
X15602629Y-12610403D01*
X15602629Y-12610403D02*
X15602629Y-12600879D01*
X15602629Y-12600879D02*
X15612153Y-12581831D01*
X15612153Y-12581831D02*
X15621677Y-12572308D01*
X15621677Y-12572308D02*
X15640725Y-12562784D01*
X15640725Y-12562784D02*
X15678820Y-12562784D01*
X15678820Y-12562784D02*
X15697868Y-12572308D01*
X15697868Y-12572308D02*
X15707391Y-12581831D01*
X15707391Y-12581831D02*
X15716915Y-12600879D01*
X15716915Y-12600879D02*
X15716915Y-12610403D01*
X15716915Y-12610403D02*
X15707391Y-12629450D01*
X15707391Y-12629450D02*
X15697868Y-12638974D01*
X15697868Y-12638974D02*
X15678820Y-12648498D01*
X15678820Y-12648498D02*
X15640725Y-12648498D01*
X15640725Y-12648498D02*
X15621677Y-12658022D01*
X15621677Y-12658022D02*
X15612153Y-12667546D01*
X15612153Y-12667546D02*
X15602629Y-12686593D01*
X15602629Y-12686593D02*
X15602629Y-12724688D01*
X15602629Y-12724688D02*
X15612153Y-12743736D01*
X15612153Y-12743736D02*
X15621677Y-12753260D01*
X15621677Y-12753260D02*
X15640725Y-12762784D01*
X15640725Y-12762784D02*
X15678820Y-12762784D01*
X15678820Y-12762784D02*
X15697868Y-12753260D01*
X15697868Y-12753260D02*
X15707391Y-12743736D01*
X15707391Y-12743736D02*
X15716915Y-12724688D01*
X15716915Y-12724688D02*
X15716915Y-12686593D01*
X15716915Y-12686593D02*
X15707391Y-12667546D01*
X15707391Y-12667546D02*
X15697868Y-12658022D01*
X15697868Y-12658022D02*
X15678820Y-12648498D01*
X15955010Y-12762784D02*
X15955010Y-12562784D01*
X16040725Y-12762784D02*
X16040725Y-12658022D01*
X16040725Y-12658022D02*
X16031201Y-12638974D01*
X16031201Y-12638974D02*
X16012153Y-12629450D01*
X16012153Y-12629450D02*
X15983582Y-12629450D01*
X15983582Y-12629450D02*
X15964534Y-12638974D01*
X15964534Y-12638974D02*
X15955010Y-12648498D01*
X16164534Y-12762784D02*
X16145487Y-12753260D01*
X16145487Y-12753260D02*
X16135963Y-12743736D01*
X16135963Y-12743736D02*
X16126439Y-12724688D01*
X16126439Y-12724688D02*
X16126439Y-12667546D01*
X16126439Y-12667546D02*
X16135963Y-12648498D01*
X16135963Y-12648498D02*
X16145487Y-12638974D01*
X16145487Y-12638974D02*
X16164534Y-12629450D01*
X16164534Y-12629450D02*
X16193106Y-12629450D01*
X16193106Y-12629450D02*
X16212153Y-12638974D01*
X16212153Y-12638974D02*
X16221677Y-12648498D01*
X16221677Y-12648498D02*
X16231201Y-12667546D01*
X16231201Y-12667546D02*
X16231201Y-12724688D01*
X16231201Y-12724688D02*
X16221677Y-12743736D01*
X16221677Y-12743736D02*
X16212153Y-12753260D01*
X16212153Y-12753260D02*
X16193106Y-12762784D01*
X16193106Y-12762784D02*
X16164534Y-12762784D01*
X16345487Y-12762784D02*
X16326439Y-12753260D01*
X16326439Y-12753260D02*
X16316915Y-12734212D01*
X16316915Y-12734212D02*
X16316915Y-12562784D01*
X16497868Y-12753260D02*
X16478820Y-12762784D01*
X16478820Y-12762784D02*
X16440725Y-12762784D01*
X16440725Y-12762784D02*
X16421677Y-12753260D01*
X16421677Y-12753260D02*
X16412153Y-12734212D01*
X16412153Y-12734212D02*
X16412153Y-12658022D01*
X16412153Y-12658022D02*
X16421677Y-12638974D01*
X16421677Y-12638974D02*
X16440725Y-12629450D01*
X16440725Y-12629450D02*
X16478820Y-12629450D01*
X16478820Y-12629450D02*
X16497868Y-12638974D01*
X16497868Y-12638974D02*
X16507391Y-12658022D01*
X16507391Y-12658022D02*
X16507391Y-12677069D01*
X16507391Y-12677069D02*
X16412153Y-12696117D01*
X16583582Y-12753260D02*
X16602630Y-12762784D01*
X16602630Y-12762784D02*
X16640725Y-12762784D01*
X16640725Y-12762784D02*
X16659772Y-12753260D01*
X16659772Y-12753260D02*
X16669296Y-12734212D01*
X16669296Y-12734212D02*
X16669296Y-12724688D01*
X16669296Y-12724688D02*
X16659772Y-12705641D01*
X16659772Y-12705641D02*
X16640725Y-12696117D01*
X16640725Y-12696117D02*
X16612153Y-12696117D01*
X16612153Y-12696117D02*
X16593106Y-12686593D01*
X16593106Y-12686593D02*
X16583582Y-12667546D01*
X16583582Y-12667546D02*
X16583582Y-12658022D01*
X16583582Y-12658022D02*
X16593106Y-12638974D01*
X16593106Y-12638974D02*
X16612153Y-12629450D01*
X16612153Y-12629450D02*
X16640725Y-12629450D01*
X16640725Y-12629450D02*
X16659772Y-12638974D01*
X16735963Y-12838974D02*
X16745487Y-12829450D01*
X16745487Y-12829450D02*
X16764534Y-12800879D01*
X16764534Y-12800879D02*
X16774058Y-12781831D01*
X16774058Y-12781831D02*
X16783582Y-12753260D01*
X16783582Y-12753260D02*
X16793106Y-12705641D01*
X16793106Y-12705641D02*
X16793106Y-12667546D01*
X16793106Y-12667546D02*
X16783582Y-12619927D01*
X16783582Y-12619927D02*
X16774058Y-12591355D01*
X16774058Y-12591355D02*
X16764534Y-12572308D01*
X16764534Y-12572308D02*
X16745487Y-12543736D01*
X16745487Y-12543736D02*
X16735963Y-12534212D01*
D17*
X11860900Y-12885300D02*
X11960900Y-12985300D01*
X11960900Y-12885300D02*
X11860900Y-12985300D01*
X11960900Y-12935300D02*
G75*
G03*
X11960900Y-12935300I-50000J0D01*
G01*
D11*
X12326439Y-13026784D02*
X12212153Y-13026784D01*
X12269296Y-13026784D02*
X12269296Y-12826784D01*
X12269296Y-12826784D02*
X12250248Y-12855355D01*
X12250248Y-12855355D02*
X12231201Y-12874403D01*
X12231201Y-12874403D02*
X12212153Y-12883927D01*
X12412153Y-13007736D02*
X12421677Y-13017260D01*
X12421677Y-13017260D02*
X12412153Y-13026784D01*
X12412153Y-13026784D02*
X12402629Y-13017260D01*
X12402629Y-13017260D02*
X12412153Y-13007736D01*
X12412153Y-13007736D02*
X12412153Y-13026784D01*
X12545486Y-12826784D02*
X12564534Y-12826784D01*
X12564534Y-12826784D02*
X12583582Y-12836308D01*
X12583582Y-12836308D02*
X12593105Y-12845831D01*
X12593105Y-12845831D02*
X12602629Y-12864879D01*
X12602629Y-12864879D02*
X12612153Y-12902974D01*
X12612153Y-12902974D02*
X12612153Y-12950593D01*
X12612153Y-12950593D02*
X12602629Y-12988688D01*
X12602629Y-12988688D02*
X12593105Y-13007736D01*
X12593105Y-13007736D02*
X12583582Y-13017260D01*
X12583582Y-13017260D02*
X12564534Y-13026784D01*
X12564534Y-13026784D02*
X12545486Y-13026784D01*
X12545486Y-13026784D02*
X12526439Y-13017260D01*
X12526439Y-13017260D02*
X12516915Y-13007736D01*
X12516915Y-13007736D02*
X12507391Y-12988688D01*
X12507391Y-12988688D02*
X12497867Y-12950593D01*
X12497867Y-12950593D02*
X12497867Y-12902974D01*
X12497867Y-12902974D02*
X12507391Y-12864879D01*
X12507391Y-12864879D02*
X12516915Y-12845831D01*
X12516915Y-12845831D02*
X12526439Y-12836308D01*
X12526439Y-12836308D02*
X12545486Y-12826784D01*
X12735962Y-12826784D02*
X12755010Y-12826784D01*
X12755010Y-12826784D02*
X12774058Y-12836308D01*
X12774058Y-12836308D02*
X12783582Y-12845831D01*
X12783582Y-12845831D02*
X12793105Y-12864879D01*
X12793105Y-12864879D02*
X12802629Y-12902974D01*
X12802629Y-12902974D02*
X12802629Y-12950593D01*
X12802629Y-12950593D02*
X12793105Y-12988688D01*
X12793105Y-12988688D02*
X12783582Y-13007736D01*
X12783582Y-13007736D02*
X12774058Y-13017260D01*
X12774058Y-13017260D02*
X12755010Y-13026784D01*
X12755010Y-13026784D02*
X12735962Y-13026784D01*
X12735962Y-13026784D02*
X12716915Y-13017260D01*
X12716915Y-13017260D02*
X12707391Y-13007736D01*
X12707391Y-13007736D02*
X12697867Y-12988688D01*
X12697867Y-12988688D02*
X12688343Y-12950593D01*
X12688343Y-12950593D02*
X12688343Y-12902974D01*
X12688343Y-12902974D02*
X12697867Y-12864879D01*
X12697867Y-12864879D02*
X12707391Y-12845831D01*
X12707391Y-12845831D02*
X12716915Y-12836308D01*
X12716915Y-12836308D02*
X12735962Y-12826784D01*
X12926439Y-12826784D02*
X12945486Y-12826784D01*
X12945486Y-12826784D02*
X12964534Y-12836308D01*
X12964534Y-12836308D02*
X12974058Y-12845831D01*
X12974058Y-12845831D02*
X12983582Y-12864879D01*
X12983582Y-12864879D02*
X12993105Y-12902974D01*
X12993105Y-12902974D02*
X12993105Y-12950593D01*
X12993105Y-12950593D02*
X12983582Y-12988688D01*
X12983582Y-12988688D02*
X12974058Y-13007736D01*
X12974058Y-13007736D02*
X12964534Y-13017260D01*
X12964534Y-13017260D02*
X12945486Y-13026784D01*
X12945486Y-13026784D02*
X12926439Y-13026784D01*
X12926439Y-13026784D02*
X12907391Y-13017260D01*
X12907391Y-13017260D02*
X12897867Y-13007736D01*
X12897867Y-13007736D02*
X12888343Y-12988688D01*
X12888343Y-12988688D02*
X12878820Y-12950593D01*
X12878820Y-12950593D02*
X12878820Y-12902974D01*
X12878820Y-12902974D02*
X12888343Y-12864879D01*
X12888343Y-12864879D02*
X12897867Y-12845831D01*
X12897867Y-12845831D02*
X12907391Y-12836308D01*
X12907391Y-12836308D02*
X12926439Y-12826784D01*
X13078820Y-13026784D02*
X13078820Y-12893450D01*
X13078820Y-12912498D02*
X13088343Y-12902974D01*
X13088343Y-12902974D02*
X13107391Y-12893450D01*
X13107391Y-12893450D02*
X13135963Y-12893450D01*
X13135963Y-12893450D02*
X13155010Y-12902974D01*
X13155010Y-12902974D02*
X13164534Y-12922022D01*
X13164534Y-12922022D02*
X13164534Y-13026784D01*
X13164534Y-12922022D02*
X13174058Y-12902974D01*
X13174058Y-12902974D02*
X13193105Y-12893450D01*
X13193105Y-12893450D02*
X13221677Y-12893450D01*
X13221677Y-12893450D02*
X13240724Y-12902974D01*
X13240724Y-12902974D02*
X13250248Y-12922022D01*
X13250248Y-12922022D02*
X13250248Y-13026784D01*
X13345486Y-13026784D02*
X13345486Y-12893450D01*
X13345486Y-12912498D02*
X13355010Y-12902974D01*
X13355010Y-12902974D02*
X13374058Y-12893450D01*
X13374058Y-12893450D02*
X13402629Y-12893450D01*
X13402629Y-12893450D02*
X13421677Y-12902974D01*
X13421677Y-12902974D02*
X13431201Y-12922022D01*
X13431201Y-12922022D02*
X13431201Y-13026784D01*
X13431201Y-12922022D02*
X13440724Y-12902974D01*
X13440724Y-12902974D02*
X13459772Y-12893450D01*
X13459772Y-12893450D02*
X13488343Y-12893450D01*
X13488343Y-12893450D02*
X13507391Y-12902974D01*
X13507391Y-12902974D02*
X13516915Y-12922022D01*
X13516915Y-12922022D02*
X13516915Y-13026784D01*
X13907391Y-12817260D02*
X13735963Y-13074403D01*
X14164534Y-12826784D02*
X14183582Y-12826784D01*
X14183582Y-12826784D02*
X14202629Y-12836308D01*
X14202629Y-12836308D02*
X14212153Y-12845831D01*
X14212153Y-12845831D02*
X14221677Y-12864879D01*
X14221677Y-12864879D02*
X14231201Y-12902974D01*
X14231201Y-12902974D02*
X14231201Y-12950593D01*
X14231201Y-12950593D02*
X14221677Y-12988688D01*
X14221677Y-12988688D02*
X14212153Y-13007736D01*
X14212153Y-13007736D02*
X14202629Y-13017260D01*
X14202629Y-13017260D02*
X14183582Y-13026784D01*
X14183582Y-13026784D02*
X14164534Y-13026784D01*
X14164534Y-13026784D02*
X14145486Y-13017260D01*
X14145486Y-13017260D02*
X14135963Y-13007736D01*
X14135963Y-13007736D02*
X14126439Y-12988688D01*
X14126439Y-12988688D02*
X14116915Y-12950593D01*
X14116915Y-12950593D02*
X14116915Y-12902974D01*
X14116915Y-12902974D02*
X14126439Y-12864879D01*
X14126439Y-12864879D02*
X14135963Y-12845831D01*
X14135963Y-12845831D02*
X14145486Y-12836308D01*
X14145486Y-12836308D02*
X14164534Y-12826784D01*
X14316915Y-13007736D02*
X14326439Y-13017260D01*
X14326439Y-13017260D02*
X14316915Y-13026784D01*
X14316915Y-13026784D02*
X14307391Y-13017260D01*
X14307391Y-13017260D02*
X14316915Y-13007736D01*
X14316915Y-13007736D02*
X14316915Y-13026784D01*
X14450248Y-12826784D02*
X14469296Y-12826784D01*
X14469296Y-12826784D02*
X14488344Y-12836308D01*
X14488344Y-12836308D02*
X14497867Y-12845831D01*
X14497867Y-12845831D02*
X14507391Y-12864879D01*
X14507391Y-12864879D02*
X14516915Y-12902974D01*
X14516915Y-12902974D02*
X14516915Y-12950593D01*
X14516915Y-12950593D02*
X14507391Y-12988688D01*
X14507391Y-12988688D02*
X14497867Y-13007736D01*
X14497867Y-13007736D02*
X14488344Y-13017260D01*
X14488344Y-13017260D02*
X14469296Y-13026784D01*
X14469296Y-13026784D02*
X14450248Y-13026784D01*
X14450248Y-13026784D02*
X14431201Y-13017260D01*
X14431201Y-13017260D02*
X14421677Y-13007736D01*
X14421677Y-13007736D02*
X14412153Y-12988688D01*
X14412153Y-12988688D02*
X14402629Y-12950593D01*
X14402629Y-12950593D02*
X14402629Y-12902974D01*
X14402629Y-12902974D02*
X14412153Y-12864879D01*
X14412153Y-12864879D02*
X14421677Y-12845831D01*
X14421677Y-12845831D02*
X14431201Y-12836308D01*
X14431201Y-12836308D02*
X14450248Y-12826784D01*
X14583582Y-12826784D02*
X14707391Y-12826784D01*
X14707391Y-12826784D02*
X14640725Y-12902974D01*
X14640725Y-12902974D02*
X14669296Y-12902974D01*
X14669296Y-12902974D02*
X14688344Y-12912498D01*
X14688344Y-12912498D02*
X14697867Y-12922022D01*
X14697867Y-12922022D02*
X14707391Y-12941069D01*
X14707391Y-12941069D02*
X14707391Y-12988688D01*
X14707391Y-12988688D02*
X14697867Y-13007736D01*
X14697867Y-13007736D02*
X14688344Y-13017260D01*
X14688344Y-13017260D02*
X14669296Y-13026784D01*
X14669296Y-13026784D02*
X14612153Y-13026784D01*
X14612153Y-13026784D02*
X14593106Y-13017260D01*
X14593106Y-13017260D02*
X14583582Y-13007736D01*
X14802629Y-13026784D02*
X14840725Y-13026784D01*
X14840725Y-13026784D02*
X14859772Y-13017260D01*
X14859772Y-13017260D02*
X14869296Y-13007736D01*
X14869296Y-13007736D02*
X14888344Y-12979165D01*
X14888344Y-12979165D02*
X14897867Y-12941069D01*
X14897867Y-12941069D02*
X14897867Y-12864879D01*
X14897867Y-12864879D02*
X14888344Y-12845831D01*
X14888344Y-12845831D02*
X14878820Y-12836308D01*
X14878820Y-12836308D02*
X14859772Y-12826784D01*
X14859772Y-12826784D02*
X14821677Y-12826784D01*
X14821677Y-12826784D02*
X14802629Y-12836308D01*
X14802629Y-12836308D02*
X14793106Y-12845831D01*
X14793106Y-12845831D02*
X14783582Y-12864879D01*
X14783582Y-12864879D02*
X14783582Y-12912498D01*
X14783582Y-12912498D02*
X14793106Y-12931546D01*
X14793106Y-12931546D02*
X14802629Y-12941069D01*
X14802629Y-12941069D02*
X14821677Y-12950593D01*
X14821677Y-12950593D02*
X14859772Y-12950593D01*
X14859772Y-12950593D02*
X14878820Y-12941069D01*
X14878820Y-12941069D02*
X14888344Y-12931546D01*
X14888344Y-12931546D02*
X14897867Y-12912498D01*
X15069296Y-12893450D02*
X15069296Y-13026784D01*
X15021677Y-12817260D02*
X14974058Y-12960117D01*
X14974058Y-12960117D02*
X15097867Y-12960117D01*
X15164534Y-12826784D02*
X15164534Y-12864879D01*
X15240725Y-12826784D02*
X15240725Y-12864879D01*
X15535963Y-13102974D02*
X15526439Y-13093450D01*
X15526439Y-13093450D02*
X15507391Y-13064879D01*
X15507391Y-13064879D02*
X15497868Y-13045831D01*
X15497868Y-13045831D02*
X15488344Y-13017260D01*
X15488344Y-13017260D02*
X15478820Y-12969641D01*
X15478820Y-12969641D02*
X15478820Y-12931546D01*
X15478820Y-12931546D02*
X15488344Y-12883927D01*
X15488344Y-12883927D02*
X15497868Y-12855355D01*
X15497868Y-12855355D02*
X15507391Y-12836308D01*
X15507391Y-12836308D02*
X15526439Y-12807736D01*
X15526439Y-12807736D02*
X15535963Y-12798212D01*
X15602629Y-12845831D02*
X15612153Y-12836308D01*
X15612153Y-12836308D02*
X15631201Y-12826784D01*
X15631201Y-12826784D02*
X15678820Y-12826784D01*
X15678820Y-12826784D02*
X15697868Y-12836308D01*
X15697868Y-12836308D02*
X15707391Y-12845831D01*
X15707391Y-12845831D02*
X15716915Y-12864879D01*
X15716915Y-12864879D02*
X15716915Y-12883927D01*
X15716915Y-12883927D02*
X15707391Y-12912498D01*
X15707391Y-12912498D02*
X15593106Y-13026784D01*
X15593106Y-13026784D02*
X15716915Y-13026784D01*
X15812153Y-13026784D02*
X15850248Y-13026784D01*
X15850248Y-13026784D02*
X15869296Y-13017260D01*
X15869296Y-13017260D02*
X15878820Y-13007736D01*
X15878820Y-13007736D02*
X15897868Y-12979165D01*
X15897868Y-12979165D02*
X15907391Y-12941069D01*
X15907391Y-12941069D02*
X15907391Y-12864879D01*
X15907391Y-12864879D02*
X15897868Y-12845831D01*
X15897868Y-12845831D02*
X15888344Y-12836308D01*
X15888344Y-12836308D02*
X15869296Y-12826784D01*
X15869296Y-12826784D02*
X15831201Y-12826784D01*
X15831201Y-12826784D02*
X15812153Y-12836308D01*
X15812153Y-12836308D02*
X15802629Y-12845831D01*
X15802629Y-12845831D02*
X15793106Y-12864879D01*
X15793106Y-12864879D02*
X15793106Y-12912498D01*
X15793106Y-12912498D02*
X15802629Y-12931546D01*
X15802629Y-12931546D02*
X15812153Y-12941069D01*
X15812153Y-12941069D02*
X15831201Y-12950593D01*
X15831201Y-12950593D02*
X15869296Y-12950593D01*
X15869296Y-12950593D02*
X15888344Y-12941069D01*
X15888344Y-12941069D02*
X15897868Y-12931546D01*
X15897868Y-12931546D02*
X15907391Y-12912498D01*
X16145487Y-13026784D02*
X16145487Y-12826784D01*
X16231201Y-13026784D02*
X16231201Y-12922022D01*
X16231201Y-12922022D02*
X16221677Y-12902974D01*
X16221677Y-12902974D02*
X16202630Y-12893450D01*
X16202630Y-12893450D02*
X16174058Y-12893450D01*
X16174058Y-12893450D02*
X16155010Y-12902974D01*
X16155010Y-12902974D02*
X16145487Y-12912498D01*
X16355010Y-13026784D02*
X16335963Y-13017260D01*
X16335963Y-13017260D02*
X16326439Y-13007736D01*
X16326439Y-13007736D02*
X16316915Y-12988688D01*
X16316915Y-12988688D02*
X16316915Y-12931546D01*
X16316915Y-12931546D02*
X16326439Y-12912498D01*
X16326439Y-12912498D02*
X16335963Y-12902974D01*
X16335963Y-12902974D02*
X16355010Y-12893450D01*
X16355010Y-12893450D02*
X16383582Y-12893450D01*
X16383582Y-12893450D02*
X16402630Y-12902974D01*
X16402630Y-12902974D02*
X16412153Y-12912498D01*
X16412153Y-12912498D02*
X16421677Y-12931546D01*
X16421677Y-12931546D02*
X16421677Y-12988688D01*
X16421677Y-12988688D02*
X16412153Y-13007736D01*
X16412153Y-13007736D02*
X16402630Y-13017260D01*
X16402630Y-13017260D02*
X16383582Y-13026784D01*
X16383582Y-13026784D02*
X16355010Y-13026784D01*
X16535963Y-13026784D02*
X16516915Y-13017260D01*
X16516915Y-13017260D02*
X16507391Y-12998212D01*
X16507391Y-12998212D02*
X16507391Y-12826784D01*
X16688344Y-13017260D02*
X16669296Y-13026784D01*
X16669296Y-13026784D02*
X16631201Y-13026784D01*
X16631201Y-13026784D02*
X16612153Y-13017260D01*
X16612153Y-13017260D02*
X16602630Y-12998212D01*
X16602630Y-12998212D02*
X16602630Y-12922022D01*
X16602630Y-12922022D02*
X16612153Y-12902974D01*
X16612153Y-12902974D02*
X16631201Y-12893450D01*
X16631201Y-12893450D02*
X16669296Y-12893450D01*
X16669296Y-12893450D02*
X16688344Y-12902974D01*
X16688344Y-12902974D02*
X16697868Y-12922022D01*
X16697868Y-12922022D02*
X16697868Y-12941069D01*
X16697868Y-12941069D02*
X16602630Y-12960117D01*
X16774058Y-13017260D02*
X16793106Y-13026784D01*
X16793106Y-13026784D02*
X16831201Y-13026784D01*
X16831201Y-13026784D02*
X16850249Y-13017260D01*
X16850249Y-13017260D02*
X16859773Y-12998212D01*
X16859773Y-12998212D02*
X16859773Y-12988688D01*
X16859773Y-12988688D02*
X16850249Y-12969641D01*
X16850249Y-12969641D02*
X16831201Y-12960117D01*
X16831201Y-12960117D02*
X16802630Y-12960117D01*
X16802630Y-12960117D02*
X16783582Y-12950593D01*
X16783582Y-12950593D02*
X16774058Y-12931546D01*
X16774058Y-12931546D02*
X16774058Y-12922022D01*
X16774058Y-12922022D02*
X16783582Y-12902974D01*
X16783582Y-12902974D02*
X16802630Y-12893450D01*
X16802630Y-12893450D02*
X16831201Y-12893450D01*
X16831201Y-12893450D02*
X16850249Y-12902974D01*
X16926439Y-13102974D02*
X16935963Y-13093450D01*
X16935963Y-13093450D02*
X16955011Y-13064879D01*
X16955011Y-13064879D02*
X16964534Y-13045831D01*
X16964534Y-13045831D02*
X16974058Y-13017260D01*
X16974058Y-13017260D02*
X16983582Y-12969641D01*
X16983582Y-12969641D02*
X16983582Y-12931546D01*
X16983582Y-12931546D02*
X16974058Y-12883927D01*
X16974058Y-12883927D02*
X16964534Y-12855355D01*
X16964534Y-12855355D02*
X16955011Y-12836308D01*
X16955011Y-12836308D02*
X16935963Y-12807736D01*
X16935963Y-12807736D02*
X16926439Y-12798212D01*
X11760900Y-13099300D02*
X11960900Y-13299300D01*
X11960900Y-13099300D02*
X11760900Y-13299300D01*
X11860900Y-13099300D02*
X11860900Y-13299300D01*
X11760900Y-13199300D02*
X11960900Y-13199300D01*
X12212153Y-13109831D02*
X12221677Y-13100308D01*
X12221677Y-13100308D02*
X12240724Y-13090784D01*
X12240724Y-13090784D02*
X12288343Y-13090784D01*
X12288343Y-13090784D02*
X12307391Y-13100308D01*
X12307391Y-13100308D02*
X12316915Y-13109831D01*
X12316915Y-13109831D02*
X12326439Y-13128879D01*
X12326439Y-13128879D02*
X12326439Y-13147927D01*
X12326439Y-13147927D02*
X12316915Y-13176498D01*
X12316915Y-13176498D02*
X12202629Y-13290784D01*
X12202629Y-13290784D02*
X12326439Y-13290784D01*
X12412153Y-13271736D02*
X12421677Y-13281260D01*
X12421677Y-13281260D02*
X12412153Y-13290784D01*
X12412153Y-13290784D02*
X12402629Y-13281260D01*
X12402629Y-13281260D02*
X12412153Y-13271736D01*
X12412153Y-13271736D02*
X12412153Y-13290784D01*
X12488343Y-13090784D02*
X12612153Y-13090784D01*
X12612153Y-13090784D02*
X12545486Y-13166974D01*
X12545486Y-13166974D02*
X12574058Y-13166974D01*
X12574058Y-13166974D02*
X12593105Y-13176498D01*
X12593105Y-13176498D02*
X12602629Y-13186022D01*
X12602629Y-13186022D02*
X12612153Y-13205069D01*
X12612153Y-13205069D02*
X12612153Y-13252688D01*
X12612153Y-13252688D02*
X12602629Y-13271736D01*
X12602629Y-13271736D02*
X12593105Y-13281260D01*
X12593105Y-13281260D02*
X12574058Y-13290784D01*
X12574058Y-13290784D02*
X12516915Y-13290784D01*
X12516915Y-13290784D02*
X12497867Y-13281260D01*
X12497867Y-13281260D02*
X12488343Y-13271736D01*
X12735962Y-13090784D02*
X12755010Y-13090784D01*
X12755010Y-13090784D02*
X12774058Y-13100308D01*
X12774058Y-13100308D02*
X12783582Y-13109831D01*
X12783582Y-13109831D02*
X12793105Y-13128879D01*
X12793105Y-13128879D02*
X12802629Y-13166974D01*
X12802629Y-13166974D02*
X12802629Y-13214593D01*
X12802629Y-13214593D02*
X12793105Y-13252688D01*
X12793105Y-13252688D02*
X12783582Y-13271736D01*
X12783582Y-13271736D02*
X12774058Y-13281260D01*
X12774058Y-13281260D02*
X12755010Y-13290784D01*
X12755010Y-13290784D02*
X12735962Y-13290784D01*
X12735962Y-13290784D02*
X12716915Y-13281260D01*
X12716915Y-13281260D02*
X12707391Y-13271736D01*
X12707391Y-13271736D02*
X12697867Y-13252688D01*
X12697867Y-13252688D02*
X12688343Y-13214593D01*
X12688343Y-13214593D02*
X12688343Y-13166974D01*
X12688343Y-13166974D02*
X12697867Y-13128879D01*
X12697867Y-13128879D02*
X12707391Y-13109831D01*
X12707391Y-13109831D02*
X12716915Y-13100308D01*
X12716915Y-13100308D02*
X12735962Y-13090784D01*
X12926439Y-13090784D02*
X12945486Y-13090784D01*
X12945486Y-13090784D02*
X12964534Y-13100308D01*
X12964534Y-13100308D02*
X12974058Y-13109831D01*
X12974058Y-13109831D02*
X12983582Y-13128879D01*
X12983582Y-13128879D02*
X12993105Y-13166974D01*
X12993105Y-13166974D02*
X12993105Y-13214593D01*
X12993105Y-13214593D02*
X12983582Y-13252688D01*
X12983582Y-13252688D02*
X12974058Y-13271736D01*
X12974058Y-13271736D02*
X12964534Y-13281260D01*
X12964534Y-13281260D02*
X12945486Y-13290784D01*
X12945486Y-13290784D02*
X12926439Y-13290784D01*
X12926439Y-13290784D02*
X12907391Y-13281260D01*
X12907391Y-13281260D02*
X12897867Y-13271736D01*
X12897867Y-13271736D02*
X12888343Y-13252688D01*
X12888343Y-13252688D02*
X12878820Y-13214593D01*
X12878820Y-13214593D02*
X12878820Y-13166974D01*
X12878820Y-13166974D02*
X12888343Y-13128879D01*
X12888343Y-13128879D02*
X12897867Y-13109831D01*
X12897867Y-13109831D02*
X12907391Y-13100308D01*
X12907391Y-13100308D02*
X12926439Y-13090784D01*
X13078820Y-13290784D02*
X13078820Y-13157450D01*
X13078820Y-13176498D02*
X13088343Y-13166974D01*
X13088343Y-13166974D02*
X13107391Y-13157450D01*
X13107391Y-13157450D02*
X13135963Y-13157450D01*
X13135963Y-13157450D02*
X13155010Y-13166974D01*
X13155010Y-13166974D02*
X13164534Y-13186022D01*
X13164534Y-13186022D02*
X13164534Y-13290784D01*
X13164534Y-13186022D02*
X13174058Y-13166974D01*
X13174058Y-13166974D02*
X13193105Y-13157450D01*
X13193105Y-13157450D02*
X13221677Y-13157450D01*
X13221677Y-13157450D02*
X13240724Y-13166974D01*
X13240724Y-13166974D02*
X13250248Y-13186022D01*
X13250248Y-13186022D02*
X13250248Y-13290784D01*
X13345486Y-13290784D02*
X13345486Y-13157450D01*
X13345486Y-13176498D02*
X13355010Y-13166974D01*
X13355010Y-13166974D02*
X13374058Y-13157450D01*
X13374058Y-13157450D02*
X13402629Y-13157450D01*
X13402629Y-13157450D02*
X13421677Y-13166974D01*
X13421677Y-13166974D02*
X13431201Y-13186022D01*
X13431201Y-13186022D02*
X13431201Y-13290784D01*
X13431201Y-13186022D02*
X13440724Y-13166974D01*
X13440724Y-13166974D02*
X13459772Y-13157450D01*
X13459772Y-13157450D02*
X13488343Y-13157450D01*
X13488343Y-13157450D02*
X13507391Y-13166974D01*
X13507391Y-13166974D02*
X13516915Y-13186022D01*
X13516915Y-13186022D02*
X13516915Y-13290784D01*
X13907391Y-13081260D02*
X13735963Y-13338403D01*
X14164534Y-13090784D02*
X14183582Y-13090784D01*
X14183582Y-13090784D02*
X14202629Y-13100308D01*
X14202629Y-13100308D02*
X14212153Y-13109831D01*
X14212153Y-13109831D02*
X14221677Y-13128879D01*
X14221677Y-13128879D02*
X14231201Y-13166974D01*
X14231201Y-13166974D02*
X14231201Y-13214593D01*
X14231201Y-13214593D02*
X14221677Y-13252688D01*
X14221677Y-13252688D02*
X14212153Y-13271736D01*
X14212153Y-13271736D02*
X14202629Y-13281260D01*
X14202629Y-13281260D02*
X14183582Y-13290784D01*
X14183582Y-13290784D02*
X14164534Y-13290784D01*
X14164534Y-13290784D02*
X14145486Y-13281260D01*
X14145486Y-13281260D02*
X14135963Y-13271736D01*
X14135963Y-13271736D02*
X14126439Y-13252688D01*
X14126439Y-13252688D02*
X14116915Y-13214593D01*
X14116915Y-13214593D02*
X14116915Y-13166974D01*
X14116915Y-13166974D02*
X14126439Y-13128879D01*
X14126439Y-13128879D02*
X14135963Y-13109831D01*
X14135963Y-13109831D02*
X14145486Y-13100308D01*
X14145486Y-13100308D02*
X14164534Y-13090784D01*
X14316915Y-13271736D02*
X14326439Y-13281260D01*
X14326439Y-13281260D02*
X14316915Y-13290784D01*
X14316915Y-13290784D02*
X14307391Y-13281260D01*
X14307391Y-13281260D02*
X14316915Y-13271736D01*
X14316915Y-13271736D02*
X14316915Y-13290784D01*
X14450248Y-13090784D02*
X14469296Y-13090784D01*
X14469296Y-13090784D02*
X14488344Y-13100308D01*
X14488344Y-13100308D02*
X14497867Y-13109831D01*
X14497867Y-13109831D02*
X14507391Y-13128879D01*
X14507391Y-13128879D02*
X14516915Y-13166974D01*
X14516915Y-13166974D02*
X14516915Y-13214593D01*
X14516915Y-13214593D02*
X14507391Y-13252688D01*
X14507391Y-13252688D02*
X14497867Y-13271736D01*
X14497867Y-13271736D02*
X14488344Y-13281260D01*
X14488344Y-13281260D02*
X14469296Y-13290784D01*
X14469296Y-13290784D02*
X14450248Y-13290784D01*
X14450248Y-13290784D02*
X14431201Y-13281260D01*
X14431201Y-13281260D02*
X14421677Y-13271736D01*
X14421677Y-13271736D02*
X14412153Y-13252688D01*
X14412153Y-13252688D02*
X14402629Y-13214593D01*
X14402629Y-13214593D02*
X14402629Y-13166974D01*
X14402629Y-13166974D02*
X14412153Y-13128879D01*
X14412153Y-13128879D02*
X14421677Y-13109831D01*
X14421677Y-13109831D02*
X14431201Y-13100308D01*
X14431201Y-13100308D02*
X14450248Y-13090784D01*
X14612153Y-13290784D02*
X14650248Y-13290784D01*
X14650248Y-13290784D02*
X14669296Y-13281260D01*
X14669296Y-13281260D02*
X14678820Y-13271736D01*
X14678820Y-13271736D02*
X14697867Y-13243165D01*
X14697867Y-13243165D02*
X14707391Y-13205069D01*
X14707391Y-13205069D02*
X14707391Y-13128879D01*
X14707391Y-13128879D02*
X14697867Y-13109831D01*
X14697867Y-13109831D02*
X14688344Y-13100308D01*
X14688344Y-13100308D02*
X14669296Y-13090784D01*
X14669296Y-13090784D02*
X14631201Y-13090784D01*
X14631201Y-13090784D02*
X14612153Y-13100308D01*
X14612153Y-13100308D02*
X14602629Y-13109831D01*
X14602629Y-13109831D02*
X14593106Y-13128879D01*
X14593106Y-13128879D02*
X14593106Y-13176498D01*
X14593106Y-13176498D02*
X14602629Y-13195546D01*
X14602629Y-13195546D02*
X14612153Y-13205069D01*
X14612153Y-13205069D02*
X14631201Y-13214593D01*
X14631201Y-13214593D02*
X14669296Y-13214593D01*
X14669296Y-13214593D02*
X14688344Y-13205069D01*
X14688344Y-13205069D02*
X14697867Y-13195546D01*
X14697867Y-13195546D02*
X14707391Y-13176498D01*
X14831201Y-13090784D02*
X14850248Y-13090784D01*
X14850248Y-13090784D02*
X14869296Y-13100308D01*
X14869296Y-13100308D02*
X14878820Y-13109831D01*
X14878820Y-13109831D02*
X14888344Y-13128879D01*
X14888344Y-13128879D02*
X14897867Y-13166974D01*
X14897867Y-13166974D02*
X14897867Y-13214593D01*
X14897867Y-13214593D02*
X14888344Y-13252688D01*
X14888344Y-13252688D02*
X14878820Y-13271736D01*
X14878820Y-13271736D02*
X14869296Y-13281260D01*
X14869296Y-13281260D02*
X14850248Y-13290784D01*
X14850248Y-13290784D02*
X14831201Y-13290784D01*
X14831201Y-13290784D02*
X14812153Y-13281260D01*
X14812153Y-13281260D02*
X14802629Y-13271736D01*
X14802629Y-13271736D02*
X14793106Y-13252688D01*
X14793106Y-13252688D02*
X14783582Y-13214593D01*
X14783582Y-13214593D02*
X14783582Y-13166974D01*
X14783582Y-13166974D02*
X14793106Y-13128879D01*
X14793106Y-13128879D02*
X14802629Y-13109831D01*
X14802629Y-13109831D02*
X14812153Y-13100308D01*
X14812153Y-13100308D02*
X14831201Y-13090784D01*
X15069296Y-13090784D02*
X15031201Y-13090784D01*
X15031201Y-13090784D02*
X15012153Y-13100308D01*
X15012153Y-13100308D02*
X15002629Y-13109831D01*
X15002629Y-13109831D02*
X14983582Y-13138403D01*
X14983582Y-13138403D02*
X14974058Y-13176498D01*
X14974058Y-13176498D02*
X14974058Y-13252688D01*
X14974058Y-13252688D02*
X14983582Y-13271736D01*
X14983582Y-13271736D02*
X14993106Y-13281260D01*
X14993106Y-13281260D02*
X15012153Y-13290784D01*
X15012153Y-13290784D02*
X15050248Y-13290784D01*
X15050248Y-13290784D02*
X15069296Y-13281260D01*
X15069296Y-13281260D02*
X15078820Y-13271736D01*
X15078820Y-13271736D02*
X15088344Y-13252688D01*
X15088344Y-13252688D02*
X15088344Y-13205069D01*
X15088344Y-13205069D02*
X15078820Y-13186022D01*
X15078820Y-13186022D02*
X15069296Y-13176498D01*
X15069296Y-13176498D02*
X15050248Y-13166974D01*
X15050248Y-13166974D02*
X15012153Y-13166974D01*
X15012153Y-13166974D02*
X14993106Y-13176498D01*
X14993106Y-13176498D02*
X14983582Y-13186022D01*
X14983582Y-13186022D02*
X14974058Y-13205069D01*
X15164534Y-13090784D02*
X15164534Y-13128879D01*
X15240725Y-13090784D02*
X15240725Y-13128879D01*
X15535963Y-13366974D02*
X15526439Y-13357450D01*
X15526439Y-13357450D02*
X15507391Y-13328879D01*
X15507391Y-13328879D02*
X15497868Y-13309831D01*
X15497868Y-13309831D02*
X15488344Y-13281260D01*
X15488344Y-13281260D02*
X15478820Y-13233641D01*
X15478820Y-13233641D02*
X15478820Y-13195546D01*
X15478820Y-13195546D02*
X15488344Y-13147927D01*
X15488344Y-13147927D02*
X15497868Y-13119355D01*
X15497868Y-13119355D02*
X15507391Y-13100308D01*
X15507391Y-13100308D02*
X15526439Y-13071736D01*
X15526439Y-13071736D02*
X15535963Y-13062212D01*
X15697868Y-13157450D02*
X15697868Y-13290784D01*
X15650248Y-13081260D02*
X15602629Y-13224117D01*
X15602629Y-13224117D02*
X15726439Y-13224117D01*
X15955010Y-13290784D02*
X15955010Y-13090784D01*
X16040725Y-13290784D02*
X16040725Y-13186022D01*
X16040725Y-13186022D02*
X16031201Y-13166974D01*
X16031201Y-13166974D02*
X16012153Y-13157450D01*
X16012153Y-13157450D02*
X15983582Y-13157450D01*
X15983582Y-13157450D02*
X15964534Y-13166974D01*
X15964534Y-13166974D02*
X15955010Y-13176498D01*
X16164534Y-13290784D02*
X16145487Y-13281260D01*
X16145487Y-13281260D02*
X16135963Y-13271736D01*
X16135963Y-13271736D02*
X16126439Y-13252688D01*
X16126439Y-13252688D02*
X16126439Y-13195546D01*
X16126439Y-13195546D02*
X16135963Y-13176498D01*
X16135963Y-13176498D02*
X16145487Y-13166974D01*
X16145487Y-13166974D02*
X16164534Y-13157450D01*
X16164534Y-13157450D02*
X16193106Y-13157450D01*
X16193106Y-13157450D02*
X16212153Y-13166974D01*
X16212153Y-13166974D02*
X16221677Y-13176498D01*
X16221677Y-13176498D02*
X16231201Y-13195546D01*
X16231201Y-13195546D02*
X16231201Y-13252688D01*
X16231201Y-13252688D02*
X16221677Y-13271736D01*
X16221677Y-13271736D02*
X16212153Y-13281260D01*
X16212153Y-13281260D02*
X16193106Y-13290784D01*
X16193106Y-13290784D02*
X16164534Y-13290784D01*
X16345487Y-13290784D02*
X16326439Y-13281260D01*
X16326439Y-13281260D02*
X16316915Y-13262212D01*
X16316915Y-13262212D02*
X16316915Y-13090784D01*
X16497868Y-13281260D02*
X16478820Y-13290784D01*
X16478820Y-13290784D02*
X16440725Y-13290784D01*
X16440725Y-13290784D02*
X16421677Y-13281260D01*
X16421677Y-13281260D02*
X16412153Y-13262212D01*
X16412153Y-13262212D02*
X16412153Y-13186022D01*
X16412153Y-13186022D02*
X16421677Y-13166974D01*
X16421677Y-13166974D02*
X16440725Y-13157450D01*
X16440725Y-13157450D02*
X16478820Y-13157450D01*
X16478820Y-13157450D02*
X16497868Y-13166974D01*
X16497868Y-13166974D02*
X16507391Y-13186022D01*
X16507391Y-13186022D02*
X16507391Y-13205069D01*
X16507391Y-13205069D02*
X16412153Y-13224117D01*
X16583582Y-13281260D02*
X16602630Y-13290784D01*
X16602630Y-13290784D02*
X16640725Y-13290784D01*
X16640725Y-13290784D02*
X16659772Y-13281260D01*
X16659772Y-13281260D02*
X16669296Y-13262212D01*
X16669296Y-13262212D02*
X16669296Y-13252688D01*
X16669296Y-13252688D02*
X16659772Y-13233641D01*
X16659772Y-13233641D02*
X16640725Y-13224117D01*
X16640725Y-13224117D02*
X16612153Y-13224117D01*
X16612153Y-13224117D02*
X16593106Y-13214593D01*
X16593106Y-13214593D02*
X16583582Y-13195546D01*
X16583582Y-13195546D02*
X16583582Y-13186022D01*
X16583582Y-13186022D02*
X16593106Y-13166974D01*
X16593106Y-13166974D02*
X16612153Y-13157450D01*
X16612153Y-13157450D02*
X16640725Y-13157450D01*
X16640725Y-13157450D02*
X16659772Y-13166974D01*
X16735963Y-13366974D02*
X16745487Y-13357450D01*
X16745487Y-13357450D02*
X16764534Y-13328879D01*
X16764534Y-13328879D02*
X16774058Y-13309831D01*
X16774058Y-13309831D02*
X16783582Y-13281260D01*
X16783582Y-13281260D02*
X16793106Y-13233641D01*
X16793106Y-13233641D02*
X16793106Y-13195546D01*
X16793106Y-13195546D02*
X16783582Y-13147927D01*
X16783582Y-13147927D02*
X16774058Y-13119355D01*
X16774058Y-13119355D02*
X16764534Y-13100308D01*
X16764534Y-13100308D02*
X16745487Y-13071736D01*
X16745487Y-13071736D02*
X16735963Y-13062212D01*
M02*
