M48
; DRILL file {KiCad 7.0.6+dfsg-1} date Thu 24 Aug 2023 06:37:08 PM CEST
; FORMAT={-:-/ absolute / metric / decimal}
; #@! TF.CreationDate,2023-08-24T18:37:08+02:00
; #@! TF.GenerationSoftware,Kicad,Pcbnew,7.0.6+dfsg-1
; #@! TF.FileFunction,Plated,1,4,PTH
FMAT,2
METRIC
; #@! TA.AperFunction,Plated,PTH,ViaDrill
T1C0.300
; #@! TA.AperFunction,Plated,PTH,ViaDrill
T2C0.400
; #@! TA.AperFunction,Plated,PTH,ComponentDrill
T3C0.700
; #@! TA.AperFunction,Plated,PTH,ComponentDrill
T4C0.900
; #@! TA.AperFunction,Plated,PTH,ComponentDrill
T5C0.920
; #@! TA.AperFunction,Plated,PTH,ComponentDrill
T6C1.000
; #@! TA.AperFunction,Plated,PTH,ComponentDrill
T7C2.300
%
G90
G05
T1
X132.204Y-98.308
X132.204Y-100.008
X132.884Y-96.368
X133.894Y-97.078
X133.939Y-99.438
X134.014Y-100.953
X134.014Y-101.803
X136.224Y-99.978
X138.924Y-109.138
X139.824Y-105.848
X140.334Y-100.018
X140.384Y-93.358
X140.719Y-97.888
X141.569Y-97.888
X150.014Y-108.138
X151.873Y-96.629
X152.475Y-96.027
X157.194Y-99.588
X157.304Y-97.588
X159.534Y-100.048
X161.294Y-99.948
X165.434Y-99.988
X165.464Y-93.228
X165.729Y-97.898
X166.579Y-97.898
X169.484Y-99.718
T2
X132.922Y-82.675
X135.3Y-79.4
T3
X129.694Y-107.848
X134.774Y-107.848
X137.314Y-107.848
T4
X143.36Y-103.5
X145.9Y-103.5
X148.26Y-103.5
X150.8Y-103.5
X153.16Y-103.5
X155.7Y-103.5
T5
X133.6Y-91.1
X136.1Y-91.1
X138.1Y-91.1
X140.6Y-91.1
X159.624Y-91.186
X162.124Y-91.186
X164.124Y-91.186
X166.624Y-91.186
T6
X123.698Y-80.01
X123.698Y-82.55
X123.698Y-85.09
X123.698Y-87.63
X123.698Y-90.17
X123.698Y-92.71
X123.698Y-95.25
X123.698Y-97.79
X123.698Y-100.33
X123.698Y-102.87
X123.698Y-105.41
X123.698Y-107.95
X126.238Y-80.01
X126.238Y-82.55
X126.238Y-85.09
X126.238Y-87.63
X126.238Y-90.17
X126.238Y-92.71
X126.238Y-95.25
X126.238Y-97.79
X126.238Y-100.33
X126.238Y-102.87
X126.238Y-105.41
X126.238Y-107.95
X172.212Y-96.52
X172.212Y-99.06
X172.212Y-101.6
X172.212Y-104.14
X172.212Y-106.68
T7
X130.53Y-88.39
X143.67Y-88.39
X156.554Y-88.476
X169.694Y-88.476
T0
M30
