G04 #@! TF.GenerationSoftware,KiCad,Pcbnew,7.0.6+dfsg-1*
G04 #@! TF.CreationDate,2023-08-24T18:37:01+02:00*
G04 #@! TF.ProjectId,USB,5553422e-6b69-4636-9164-5f7063625858,rev?*
G04 #@! TF.SameCoordinates,Original*
G04 #@! TF.FileFunction,Copper,L4,Bot*
G04 #@! TF.FilePolarity,Positive*
%FSLAX46Y46*%
G04 Gerber Fmt 4.6, Leading zero omitted, Abs format (unit mm)*
G04 Created by KiCad (PCBNEW 7.0.6+dfsg-1) date 2023-08-24 18:37:01*
%MOMM*%
%LPD*%
G01*
G04 APERTURE LIST*
G04 Aperture macros list*
%AMRoundRect*
0 Rectangle with rounded corners*
0 $1 Rounding radius*
0 $2 $3 $4 $5 $6 $7 $8 $9 X,Y pos of 4 corners*
0 Add a 4 corners polygon primitive as box body*
4,1,4,$2,$3,$4,$5,$6,$7,$8,$9,$2,$3,0*
0 Add four circle primitives for the rounded corners*
1,1,$1+$1,$2,$3*
1,1,$1+$1,$4,$5*
1,1,$1+$1,$6,$7*
1,1,$1+$1,$8,$9*
0 Add four rect primitives between the rounded corners*
20,1,$1+$1,$2,$3,$4,$5,0*
20,1,$1+$1,$4,$5,$6,$7,0*
20,1,$1+$1,$6,$7,$8,$9,0*
20,1,$1+$1,$8,$9,$2,$3,0*%
G04 Aperture macros list end*
G04 #@! TA.AperFunction,ComponentPad*
%ADD10R,1.700000X1.700000*%
G04 #@! TD*
G04 #@! TA.AperFunction,ComponentPad*
%ADD11O,1.700000X1.700000*%
G04 #@! TD*
G04 #@! TA.AperFunction,ComponentPad*
%ADD12R,1.600000X1.600000*%
G04 #@! TD*
G04 #@! TA.AperFunction,ComponentPad*
%ADD13C,1.600000*%
G04 #@! TD*
G04 #@! TA.AperFunction,ComponentPad*
%ADD14C,3.000000*%
G04 #@! TD*
G04 #@! TA.AperFunction,ComponentPad*
%ADD15R,1.800000X1.800000*%
G04 #@! TD*
G04 #@! TA.AperFunction,ComponentPad*
%ADD16C,1.800000*%
G04 #@! TD*
G04 #@! TA.AperFunction,ComponentPad*
%ADD17RoundRect,0.249200X0.450800X0.450800X-0.450800X0.450800X-0.450800X-0.450800X0.450800X-0.450800X0*%
G04 #@! TD*
G04 #@! TA.AperFunction,ComponentPad*
%ADD18C,1.400000*%
G04 #@! TD*
G04 #@! TA.AperFunction,ViaPad*
%ADD19C,0.600000*%
G04 #@! TD*
G04 #@! TA.AperFunction,ViaPad*
%ADD20C,0.800000*%
G04 #@! TD*
G04 #@! TA.AperFunction,Conductor*
%ADD21C,0.200000*%
G04 #@! TD*
G04 #@! TA.AperFunction,Conductor*
%ADD22C,0.500000*%
G04 #@! TD*
G04 #@! TA.AperFunction,Conductor*
%ADD23C,0.250000*%
G04 #@! TD*
G04 APERTURE END LIST*
D10*
X126238000Y-107950000D03*
D11*
X123698000Y-107950000D03*
X126238000Y-105410000D03*
X123698000Y-105410000D03*
X126238000Y-102870000D03*
X123698000Y-102870000D03*
X126238000Y-100330000D03*
X123698000Y-100330000D03*
X126238000Y-97790000D03*
X123698000Y-97790000D03*
X126238000Y-95250000D03*
X123698000Y-95250000D03*
X126238000Y-92710000D03*
X123698000Y-92710000D03*
X126238000Y-90170000D03*
X123698000Y-90170000D03*
X126238000Y-87630000D03*
X123698000Y-87630000D03*
X126238000Y-85090000D03*
X123698000Y-85090000D03*
X126238000Y-82550000D03*
X123698000Y-82550000D03*
X126238000Y-80010000D03*
X123698000Y-80010000D03*
D12*
X140600000Y-91100000D03*
D13*
X138100000Y-91100000D03*
X136100000Y-91100000D03*
X133600000Y-91100000D03*
D14*
X143670000Y-88390000D03*
X130530000Y-88390000D03*
D12*
X166624000Y-91186000D03*
D13*
X164124000Y-91186000D03*
X162124000Y-91186000D03*
X159624000Y-91186000D03*
D14*
X169694000Y-88476000D03*
X156554000Y-88476000D03*
D15*
X150800000Y-103500000D03*
D16*
X148260000Y-103500000D03*
D10*
X172212000Y-96520000D03*
D11*
X172212000Y-99060000D03*
X172212000Y-101600000D03*
X172212000Y-104140000D03*
X172212000Y-106680000D03*
D17*
X137314000Y-107848000D03*
D18*
X134774000Y-107848000D03*
X129694000Y-107848000D03*
D15*
X155700000Y-103500000D03*
D16*
X153160000Y-103500000D03*
D15*
X145900000Y-103500000D03*
D16*
X143360000Y-103500000D03*
D19*
X133938500Y-99438500D03*
X132204000Y-98308000D03*
X136224000Y-99978000D03*
X132204000Y-100008000D03*
X133894000Y-97078000D03*
X165434000Y-99988000D03*
X138924000Y-109138000D03*
X140384000Y-93358000D03*
X165464000Y-93228000D03*
X140334000Y-100018000D03*
X159534000Y-100048000D03*
X157304000Y-97588000D03*
X150014000Y-108138000D03*
X132884000Y-96368000D03*
X161294000Y-99948000D03*
X157194000Y-99588000D03*
X151873479Y-96628521D03*
X152474521Y-96027479D03*
X134014000Y-101803000D03*
X134014000Y-100953000D03*
X169484000Y-99718000D03*
D20*
X132921536Y-82674990D03*
X135300000Y-79400000D03*
D19*
X139824000Y-105848000D03*
X141569000Y-97888000D03*
X140719000Y-97888000D03*
X166579000Y-97898000D03*
X165729000Y-97898000D03*
D21*
X132204000Y-98308000D02*
X132808000Y-98308000D01*
X132808000Y-98308000D02*
X133938500Y-99438500D01*
X136164000Y-100038000D02*
X136224000Y-99978000D01*
X132234000Y-100038000D02*
X136164000Y-100038000D01*
X132204000Y-100008000D02*
X132234000Y-100038000D01*
X132232346Y-97078000D02*
X126474346Y-91320000D01*
X133894000Y-97078000D02*
X132232346Y-97078000D01*
X126474346Y-91320000D02*
X124848000Y-91320000D01*
X124848000Y-91320000D02*
X123698000Y-90170000D01*
D22*
X156300000Y-87841000D02*
X156660000Y-87841000D01*
D21*
X157304000Y-97588000D02*
X159534000Y-99818000D01*
X159534000Y-99818000D02*
X159534000Y-100048000D01*
D23*
X169824000Y-102158000D02*
X167344000Y-102158000D01*
X171037000Y-100935000D02*
X171037000Y-100945000D01*
X171654000Y-100318000D02*
X171037000Y-100935000D01*
X167344000Y-102158000D02*
X161224000Y-108278000D01*
X150154000Y-108278000D02*
X150014000Y-108138000D01*
X173600000Y-99445850D02*
X172727850Y-100318000D01*
X172212000Y-96520000D02*
X173312000Y-96520000D01*
X173600000Y-96808000D02*
X173600000Y-99445850D01*
X161224000Y-108278000D02*
X150154000Y-108278000D01*
X171037000Y-100945000D02*
X169824000Y-102158000D01*
X173312000Y-96520000D02*
X173600000Y-96808000D01*
X172727850Y-100318000D02*
X171654000Y-100318000D01*
D21*
X132436000Y-96368000D02*
X126238000Y-90170000D01*
X132884000Y-96368000D02*
X132436000Y-96368000D01*
X158084000Y-99588000D02*
X159084000Y-100588000D01*
X157194000Y-99588000D02*
X158084000Y-99588000D01*
X160524000Y-100518000D02*
X161094000Y-99948000D01*
X161094000Y-99948000D02*
X161294000Y-99948000D01*
X159144000Y-100648000D02*
X160394000Y-100648000D01*
X159084000Y-100588000D02*
X159144000Y-100648000D01*
X160394000Y-100648000D02*
X160524000Y-100518000D01*
X151840801Y-96313000D02*
X151873479Y-96345678D01*
X126784000Y-96518000D02*
X129239000Y-98973000D01*
X131090502Y-103402702D02*
X134177498Y-103402702D01*
X123698000Y-95250000D02*
X124136000Y-95250000D01*
X142147200Y-101573000D02*
X147407200Y-96313000D01*
X129239000Y-101551200D02*
X131090502Y-103402702D01*
X147407200Y-96313000D02*
X151840801Y-96313000D01*
X124136000Y-95250000D02*
X125404000Y-96518000D01*
X136007200Y-101573000D02*
X142147200Y-101573000D01*
X129239000Y-98973000D02*
X129239000Y-101551200D01*
X134177498Y-103402702D02*
X136007200Y-101573000D01*
X125404000Y-96518000D02*
X126784000Y-96518000D01*
X151873479Y-96345678D02*
X151873479Y-96628521D01*
X141960800Y-101123000D02*
X147220800Y-95863000D01*
X126238000Y-95250000D02*
X126238000Y-95323800D01*
X152027199Y-95863000D02*
X152191678Y-96027479D01*
X152191678Y-96027479D02*
X152474521Y-96027479D01*
X129689000Y-98774800D02*
X129689000Y-101364800D01*
X133991098Y-102952702D02*
X135820800Y-101123000D01*
X129689000Y-101364800D02*
X131276902Y-102952702D01*
X126238000Y-95323800D02*
X129689000Y-98774800D01*
X135820800Y-101123000D02*
X141960800Y-101123000D01*
X131276902Y-102952702D02*
X133991098Y-102952702D01*
X147220800Y-95863000D02*
X152027199Y-95863000D01*
X124148000Y-93160000D02*
X124536000Y-93160000D01*
X131590801Y-101603001D02*
X133814001Y-101603001D01*
X127525800Y-93988000D02*
X130609000Y-97071200D01*
X125364000Y-93988000D02*
X127525800Y-93988000D01*
X130609000Y-97071200D02*
X130609000Y-100621200D01*
X123698000Y-92710000D02*
X124148000Y-93160000D01*
X133814001Y-101603001D02*
X134014000Y-101803000D01*
X124536000Y-93160000D02*
X125364000Y-93988000D01*
X130609000Y-100621200D02*
X131590801Y-101603001D01*
X131059000Y-100434800D02*
X131777199Y-101152999D01*
X131777199Y-101152999D02*
X133814001Y-101152999D01*
X131059000Y-96884800D02*
X131059000Y-100434800D01*
X126238000Y-92710000D02*
X126884200Y-92710000D01*
X126884200Y-92710000D02*
X131059000Y-96884800D01*
X133814001Y-101152999D02*
X134014000Y-100953000D01*
X163974000Y-86228000D02*
X169484000Y-91738000D01*
X137928000Y-86228000D02*
X163974000Y-86228000D01*
X124848000Y-86240000D02*
X130442000Y-86240000D01*
X130454000Y-86228000D02*
X137928000Y-86228000D01*
X123698000Y-85090000D02*
X124848000Y-86240000D01*
X169484000Y-91738000D02*
X169484000Y-99718000D01*
X130442000Y-86240000D02*
X130454000Y-86228000D01*
D23*
X135300000Y-79400000D02*
X135300000Y-80296526D01*
X133321535Y-82274991D02*
X132921536Y-82674990D01*
X135300000Y-80296526D02*
X133321535Y-82274991D01*
D21*
X121864000Y-100122346D02*
X123319654Y-101578000D01*
X126953949Y-104118000D02*
X129694000Y-106858051D01*
X121864000Y-89464000D02*
X121864000Y-100122346D01*
X129694000Y-106858051D02*
X129694000Y-107848000D01*
X124944000Y-103202346D02*
X125859654Y-104118000D01*
X123319654Y-101578000D02*
X124364000Y-101578000D01*
X123698000Y-87630000D02*
X121864000Y-89464000D01*
X124364000Y-101578000D02*
X124944000Y-102158000D01*
X124944000Y-102158000D02*
X124944000Y-103202346D01*
X125859654Y-104118000D02*
X126953949Y-104118000D01*
X123221654Y-89020000D02*
X122264000Y-89977654D01*
X126238000Y-87630000D02*
X124848000Y-89020000D01*
X122264000Y-89977654D02*
X122264000Y-97982346D01*
X131004000Y-104238000D02*
X131724000Y-104238000D01*
X124848000Y-89020000D02*
X123221654Y-89020000D01*
X125088000Y-100068000D02*
X125088000Y-100806346D01*
X122264000Y-97982346D02*
X123461654Y-99180000D01*
X131724000Y-104238000D02*
X133334000Y-105848000D01*
X128484000Y-101718000D02*
X131004000Y-104238000D01*
X125088000Y-100806346D02*
X125999654Y-101718000D01*
X133334000Y-105848000D02*
X139824000Y-105848000D01*
X123461654Y-99180000D02*
X124200000Y-99180000D01*
X125999654Y-101718000D02*
X128484000Y-101718000D01*
X124200000Y-99180000D02*
X125088000Y-100068000D01*
D23*
X170199000Y-101073000D02*
X166339000Y-101073000D01*
X126238000Y-105410000D02*
X123698000Y-105410000D01*
X133749000Y-108873000D02*
X129139000Y-108873000D01*
X172212000Y-99060000D02*
X170199000Y-101073000D01*
X134774000Y-107848000D02*
X133749000Y-108873000D01*
X129139000Y-108873000D02*
X127413000Y-107147000D01*
X127413000Y-107147000D02*
X127413000Y-106585000D01*
X166339000Y-101073000D02*
X160589000Y-106823000D01*
X135799000Y-106823000D02*
X134774000Y-107848000D01*
X127413000Y-106585000D02*
X126238000Y-105410000D01*
X160589000Y-106823000D02*
X135799000Y-106823000D01*
D21*
X137325001Y-93320801D02*
X139157200Y-95153000D01*
X141369001Y-97688001D02*
X141569000Y-97888000D01*
X139157200Y-95153000D02*
X140817200Y-95153000D01*
X140817200Y-95153000D02*
X141369001Y-95704801D01*
X137325001Y-91874999D02*
X137325001Y-93320801D01*
X141369001Y-95704801D02*
X141369001Y-97688001D01*
X138100000Y-91100000D02*
X137325001Y-91874999D01*
X140918999Y-97688001D02*
X140719000Y-97888000D01*
X136874999Y-91874999D02*
X136874999Y-93507199D01*
X136100000Y-91100000D02*
X136874999Y-91874999D01*
X138970800Y-95603000D02*
X140630800Y-95603000D01*
X140630800Y-95603000D02*
X140918999Y-95891199D01*
X136874999Y-93507199D02*
X138970800Y-95603000D01*
X140918999Y-95891199D02*
X140918999Y-97688001D01*
X166379001Y-96054801D02*
X166379001Y-97698001D01*
X166379001Y-97698001D02*
X166579000Y-97898000D01*
X164124000Y-91186000D02*
X163349001Y-91960999D01*
X163349001Y-93024801D02*
X166379001Y-96054801D01*
X163349001Y-91960999D02*
X163349001Y-93024801D01*
X165928999Y-97698001D02*
X165729000Y-97898000D01*
X162898999Y-93211199D02*
X165928999Y-96241199D01*
X162124000Y-91186000D02*
X162898999Y-91960999D01*
X165928999Y-96241199D02*
X165928999Y-97698001D01*
X162898999Y-91960999D02*
X162898999Y-93211199D01*
M02*
