G04 #@! TF.GenerationSoftware,KiCad,Pcbnew,7.0.6+dfsg-1*
G04 #@! TF.CreationDate,2023-08-24T18:37:01+02:00*
G04 #@! TF.ProjectId,USB,5553422e-6b69-4636-9164-5f7063625858,rev?*
G04 #@! TF.SameCoordinates,Original*
G04 #@! TF.FileFunction,Paste,Top*
G04 #@! TF.FilePolarity,Positive*
%FSLAX46Y46*%
G04 Gerber Fmt 4.6, Leading zero omitted, Abs format (unit mm)*
G04 Created by KiCad (PCBNEW 7.0.6+dfsg-1) date 2023-08-24 18:37:01*
%MOMM*%
%LPD*%
G01*
G04 APERTURE LIST*
G04 Aperture macros list*
%AMRoundRect*
0 Rectangle with rounded corners*
0 $1 Rounding radius*
0 $2 $3 $4 $5 $6 $7 $8 $9 X,Y pos of 4 corners*
0 Add a 4 corners polygon primitive as box body*
4,1,4,$2,$3,$4,$5,$6,$7,$8,$9,$2,$3,0*
0 Add four circle primitives for the rounded corners*
1,1,$1+$1,$2,$3*
1,1,$1+$1,$4,$5*
1,1,$1+$1,$6,$7*
1,1,$1+$1,$8,$9*
0 Add four rect primitives between the rounded corners*
20,1,$1+$1,$2,$3,$4,$5,0*
20,1,$1+$1,$4,$5,$6,$7,0*
20,1,$1+$1,$6,$7,$8,$9,0*
20,1,$1+$1,$8,$9,$2,$3,0*%
G04 Aperture macros list end*
%ADD10R,1.000000X1.000000*%
%ADD11RoundRect,0.218750X0.256250X-0.218750X0.256250X0.218750X-0.256250X0.218750X-0.256250X-0.218750X0*%
%ADD12RoundRect,0.218750X-0.256250X0.218750X-0.256250X-0.218750X0.256250X-0.218750X0.256250X0.218750X0*%
%ADD13RoundRect,0.218750X-0.218750X-0.256250X0.218750X-0.256250X0.218750X0.256250X-0.218750X0.256250X0*%
%ADD14RoundRect,0.218750X0.218750X0.256250X-0.218750X0.256250X-0.218750X-0.256250X0.218750X-0.256250X0*%
%ADD15R,0.900000X0.800000*%
G04 APERTURE END LIST*
D10*
X131364000Y-97608000D03*
X128864000Y-97608000D03*
X128844000Y-99568000D03*
X131344000Y-99568000D03*
X131404000Y-93638000D03*
X128904000Y-93638000D03*
X137899000Y-94163000D03*
X140399000Y-94163000D03*
X156364000Y-97608000D03*
X153864000Y-97608000D03*
X153844000Y-99568000D03*
X156344000Y-99568000D03*
X153904000Y-95628000D03*
X156404000Y-95628000D03*
X162899000Y-94163000D03*
X165399000Y-94163000D03*
D11*
X134789000Y-99115500D03*
X134789000Y-97540500D03*
D12*
X134789000Y-94520500D03*
X134789000Y-96095500D03*
D13*
X137864000Y-95920500D03*
X139439000Y-95920500D03*
D11*
X159789000Y-99115500D03*
X159789000Y-97540500D03*
X161334000Y-99123000D03*
X161334000Y-97548000D03*
D13*
X162864000Y-95920500D03*
X164439000Y-95920500D03*
D11*
X136339000Y-99125500D03*
X136339000Y-97550500D03*
D10*
X162911500Y-99190500D03*
X165411500Y-99190500D03*
D11*
X136339000Y-96098000D03*
X136339000Y-94523000D03*
D13*
X162864000Y-97450500D03*
X164439000Y-97450500D03*
D10*
X137911500Y-99190500D03*
X140411500Y-99190500D03*
X128904000Y-95628000D03*
X131404000Y-95628000D03*
X156404000Y-93698000D03*
X153904000Y-93698000D03*
D13*
X137864000Y-97450500D03*
X139439000Y-97450500D03*
D14*
X145501500Y-108108000D03*
X143926500Y-108108000D03*
D15*
X139764000Y-106768000D03*
X139764000Y-108668000D03*
X141764000Y-107718000D03*
D11*
X161344000Y-96098000D03*
X161344000Y-94523000D03*
D12*
X159789000Y-94520500D03*
X159789000Y-96095500D03*
M02*
