%FSLAX45Y45*%
G04 Gerber Fmt 4.5, Leading zero omitted, Abs format (unit mm)*
G04 Created by KiCad (PCBNEW 4.0.5+dfsg1-4) date Sun Nov 25 22:45:53 2018*
%MOMM*%
%LPD*%
G01*
G04 APERTURE LIST*
%ADD10C,0.127000*%
%ADD11C,0.150000*%
%ADD12C,0.200000*%
%ADD13C,0.300000*%
G04 APERTURE END LIST*
D10*
D11*
X13200000Y-12100000D02*
X12690000Y-12100000D01*
X13200000Y-9800000D02*
X13200000Y-12100000D01*
X13100000Y-9800000D02*
X13200000Y-9800000D01*
X12700000Y-9800000D02*
X13100000Y-9800000D01*
X9390000Y-12100000D02*
X9530000Y-12100000D01*
X9390000Y-9800000D02*
X9390000Y-12100000D01*
X9490000Y-9800000D02*
X9390000Y-9800000D01*
X12700000Y-12100000D02*
X9500000Y-12100000D01*
X9500000Y-9800000D02*
X12700000Y-9800000D01*
D12*
X9557500Y-10065000D02*
X9587500Y-10095000D01*
X9587500Y-10065000D02*
X9557500Y-10095000D01*
X9670000Y-9985000D02*
X9700000Y-10015000D01*
X9700000Y-9985000D02*
X9670000Y-10015000D01*
X9795000Y-9885000D02*
X9825000Y-9915000D01*
X9825000Y-9885000D02*
X9795000Y-9915000D01*
X10515000Y-9972500D02*
X10545000Y-10002500D01*
X10545000Y-9972500D02*
X10515000Y-10002500D01*
X10640000Y-10072500D02*
X10670000Y-10102500D01*
X10670000Y-10072500D02*
X10640000Y-10102500D01*
X11072500Y-11307500D02*
X11102500Y-11337500D01*
X11102500Y-11307500D02*
X11072500Y-11337500D01*
X11075000Y-11592500D02*
X11105000Y-11622500D01*
X11105000Y-11592500D02*
X11075000Y-11622500D01*
X11182500Y-11330000D02*
X11212500Y-11360000D01*
X11212500Y-11330000D02*
X11182500Y-11360000D01*
X11210000Y-11467500D02*
X11240000Y-11497500D01*
X11240000Y-11467500D02*
X11210000Y-11497500D01*
X11292500Y-11180000D02*
X11322500Y-11210000D01*
X11322500Y-11180000D02*
X11292500Y-11210000D01*
X11615000Y-10025000D02*
X11645000Y-10055000D01*
X11645000Y-10025000D02*
X11615000Y-10055000D01*
X11615000Y-10125000D02*
X11645000Y-10155000D01*
X11645000Y-10125000D02*
X11615000Y-10155000D01*
X11782500Y-11550000D02*
X11812500Y-11580000D01*
X11812500Y-11550000D02*
X11782500Y-11580000D01*
X12540000Y-10000000D02*
G75*
G03X12540000Y-10000000I-40000J0D01*
G01*
X12740000Y-10000000D02*
G75*
G03X12740000Y-10000000I-40000J0D01*
G01*
X12940000Y-10000000D02*
G75*
G03X12940000Y-10000000I-40000J0D01*
G01*
X9812500Y-10393700D02*
X9812500Y-10495300D01*
X9761700Y-10444500D02*
X9863300Y-10444500D01*
X9812500Y-10647700D02*
X9812500Y-10749300D01*
X9761700Y-10698500D02*
X9863300Y-10698500D01*
X9812500Y-10901700D02*
X9812500Y-11003300D01*
X9761700Y-10952500D02*
X9863300Y-10952500D01*
X9812500Y-11155700D02*
X9812500Y-11257300D01*
X9761700Y-11206500D02*
X9863300Y-11206500D01*
X9812500Y-11409700D02*
X9812500Y-11511300D01*
X9761700Y-11460500D02*
X9863300Y-11460500D01*
X9812500Y-11663700D02*
X9812500Y-11765300D01*
X9761700Y-11714500D02*
X9863300Y-11714500D01*
X10066500Y-10393700D02*
X10066500Y-10495300D01*
X10015700Y-10444500D02*
X10117300Y-10444500D01*
X10066500Y-10647700D02*
X10066500Y-10749300D01*
X10015700Y-10698500D02*
X10117300Y-10698500D01*
X10066500Y-10901700D02*
X10066500Y-11003300D01*
X10015700Y-10952500D02*
X10117300Y-10952500D01*
X10066500Y-11155700D02*
X10066500Y-11257300D01*
X10015700Y-11206500D02*
X10117300Y-11206500D01*
X10066500Y-11409700D02*
X10066500Y-11511300D01*
X10015700Y-11460500D02*
X10117300Y-11460500D01*
X10066500Y-11663700D02*
X10066500Y-11765300D01*
X10015700Y-11714500D02*
X10117300Y-11714500D01*
X12792427Y-11092427D02*
X12792427Y-11007573D01*
X12707573Y-11007573D01*
X12707573Y-11092427D01*
X12792427Y-11092427D01*
X12496000Y-10881000D02*
X12581000Y-10796000D01*
X12496000Y-10711000D01*
X12411000Y-10796000D01*
X12496000Y-10881000D01*
X12496000Y-11389000D02*
X12581000Y-11304000D01*
X12496000Y-11219000D01*
X12411000Y-11304000D01*
X12496000Y-11389000D01*
X13004000Y-10881000D02*
X13089000Y-10796000D01*
X13004000Y-10711000D01*
X12919000Y-10796000D01*
X13004000Y-10881000D01*
X13004000Y-11389000D02*
X13089000Y-11304000D01*
X13004000Y-11219000D01*
X12919000Y-11304000D01*
X13004000Y-11389000D01*
D13*
X9653929Y-12573214D02*
X9653929Y-12273214D01*
X9725357Y-12273214D01*
X9768214Y-12287500D01*
X9796786Y-12316071D01*
X9811071Y-12344643D01*
X9825357Y-12401786D01*
X9825357Y-12444643D01*
X9811071Y-12501786D01*
X9796786Y-12530357D01*
X9768214Y-12558929D01*
X9725357Y-12573214D01*
X9653929Y-12573214D01*
X9953929Y-12573214D02*
X9953929Y-12373214D01*
X9953929Y-12430357D02*
X9968214Y-12401786D01*
X9982500Y-12387500D01*
X10011071Y-12373214D01*
X10039643Y-12373214D01*
X10139643Y-12573214D02*
X10139643Y-12373214D01*
X10139643Y-12273214D02*
X10125357Y-12287500D01*
X10139643Y-12301786D01*
X10153929Y-12287500D01*
X10139643Y-12273214D01*
X10139643Y-12301786D01*
X10325357Y-12573214D02*
X10296786Y-12558929D01*
X10282500Y-12530357D01*
X10282500Y-12273214D01*
X10482500Y-12573214D02*
X10453929Y-12558929D01*
X10439643Y-12530357D01*
X10439643Y-12273214D01*
X10825357Y-12573214D02*
X10825357Y-12273214D01*
X10925357Y-12487500D01*
X11025357Y-12273214D01*
X11025357Y-12573214D01*
X11296786Y-12573214D02*
X11296786Y-12416071D01*
X11282500Y-12387500D01*
X11253928Y-12373214D01*
X11196786Y-12373214D01*
X11168214Y-12387500D01*
X11296786Y-12558929D02*
X11268214Y-12573214D01*
X11196786Y-12573214D01*
X11168214Y-12558929D01*
X11153929Y-12530357D01*
X11153929Y-12501786D01*
X11168214Y-12473214D01*
X11196786Y-12458929D01*
X11268214Y-12458929D01*
X11296786Y-12444643D01*
X11439643Y-12373214D02*
X11439643Y-12673214D01*
X11439643Y-12387500D02*
X11468214Y-12373214D01*
X11525357Y-12373214D01*
X11553928Y-12387500D01*
X11568214Y-12401786D01*
X11582500Y-12430357D01*
X11582500Y-12516071D01*
X11568214Y-12544643D01*
X11553928Y-12558929D01*
X11525357Y-12573214D01*
X11468214Y-12573214D01*
X11439643Y-12558929D01*
X11711071Y-12544643D02*
X11725357Y-12558929D01*
X11711071Y-12573214D01*
X11696786Y-12558929D01*
X11711071Y-12544643D01*
X11711071Y-12573214D01*
X11711071Y-12387500D02*
X11725357Y-12401786D01*
X11711071Y-12416071D01*
X11696786Y-12401786D01*
X11711071Y-12387500D01*
X11711071Y-12416071D01*
X9352500Y-13052500D02*
X9382500Y-13082500D01*
X9382500Y-13052500D02*
X9352500Y-13082500D01*
X9711071Y-12903214D02*
X9739643Y-12903214D01*
X9768214Y-12917500D01*
X9782500Y-12931786D01*
X9796786Y-12960357D01*
X9811071Y-13017500D01*
X9811071Y-13088929D01*
X9796786Y-13146071D01*
X9782500Y-13174643D01*
X9768214Y-13188929D01*
X9739643Y-13203214D01*
X9711071Y-13203214D01*
X9682500Y-13188929D01*
X9668214Y-13174643D01*
X9653929Y-13146071D01*
X9639643Y-13088929D01*
X9639643Y-13017500D01*
X9653929Y-12960357D01*
X9668214Y-12931786D01*
X9682500Y-12917500D01*
X9711071Y-12903214D01*
X9939643Y-13174643D02*
X9953929Y-13188929D01*
X9939643Y-13203214D01*
X9925357Y-13188929D01*
X9939643Y-13174643D01*
X9939643Y-13203214D01*
X10053928Y-12903214D02*
X10239643Y-12903214D01*
X10139643Y-13017500D01*
X10182500Y-13017500D01*
X10211071Y-13031786D01*
X10225357Y-13046071D01*
X10239643Y-13074643D01*
X10239643Y-13146071D01*
X10225357Y-13174643D01*
X10211071Y-13188929D01*
X10182500Y-13203214D01*
X10096786Y-13203214D01*
X10068214Y-13188929D01*
X10053928Y-13174643D01*
X10425357Y-12903214D02*
X10453929Y-12903214D01*
X10482500Y-12917500D01*
X10496786Y-12931786D01*
X10511071Y-12960357D01*
X10525357Y-13017500D01*
X10525357Y-13088929D01*
X10511071Y-13146071D01*
X10496786Y-13174643D01*
X10482500Y-13188929D01*
X10453929Y-13203214D01*
X10425357Y-13203214D01*
X10396786Y-13188929D01*
X10382500Y-13174643D01*
X10368214Y-13146071D01*
X10353929Y-13088929D01*
X10353929Y-13017500D01*
X10368214Y-12960357D01*
X10382500Y-12931786D01*
X10396786Y-12917500D01*
X10425357Y-12903214D01*
X10653929Y-13203214D02*
X10653929Y-13003214D01*
X10653929Y-13031786D02*
X10668214Y-13017500D01*
X10696786Y-13003214D01*
X10739643Y-13003214D01*
X10768214Y-13017500D01*
X10782500Y-13046071D01*
X10782500Y-13203214D01*
X10782500Y-13046071D02*
X10796786Y-13017500D01*
X10825357Y-13003214D01*
X10868214Y-13003214D01*
X10896786Y-13017500D01*
X10911071Y-13046071D01*
X10911071Y-13203214D01*
X11053929Y-13203214D02*
X11053929Y-13003214D01*
X11053929Y-13031786D02*
X11068214Y-13017500D01*
X11096786Y-13003214D01*
X11139643Y-13003214D01*
X11168214Y-13017500D01*
X11182500Y-13046071D01*
X11182500Y-13203214D01*
X11182500Y-13046071D02*
X11196786Y-13017500D01*
X11225357Y-13003214D01*
X11268214Y-13003214D01*
X11296786Y-13017500D01*
X11311071Y-13046071D01*
X11311071Y-13203214D01*
X11896786Y-12888929D02*
X11639643Y-13274643D01*
X12282500Y-12903214D02*
X12311071Y-12903214D01*
X12339643Y-12917500D01*
X12353928Y-12931786D01*
X12368214Y-12960357D01*
X12382500Y-13017500D01*
X12382500Y-13088929D01*
X12368214Y-13146071D01*
X12353928Y-13174643D01*
X12339643Y-13188929D01*
X12311071Y-13203214D01*
X12282500Y-13203214D01*
X12253928Y-13188929D01*
X12239643Y-13174643D01*
X12225357Y-13146071D01*
X12211071Y-13088929D01*
X12211071Y-13017500D01*
X12225357Y-12960357D01*
X12239643Y-12931786D01*
X12253928Y-12917500D01*
X12282500Y-12903214D01*
X12511071Y-13174643D02*
X12525357Y-13188929D01*
X12511071Y-13203214D01*
X12496786Y-13188929D01*
X12511071Y-13174643D01*
X12511071Y-13203214D01*
X12711071Y-12903214D02*
X12739643Y-12903214D01*
X12768214Y-12917500D01*
X12782500Y-12931786D01*
X12796785Y-12960357D01*
X12811071Y-13017500D01*
X12811071Y-13088929D01*
X12796785Y-13146071D01*
X12782500Y-13174643D01*
X12768214Y-13188929D01*
X12739643Y-13203214D01*
X12711071Y-13203214D01*
X12682500Y-13188929D01*
X12668214Y-13174643D01*
X12653928Y-13146071D01*
X12639643Y-13088929D01*
X12639643Y-13017500D01*
X12653928Y-12960357D01*
X12668214Y-12931786D01*
X12682500Y-12917500D01*
X12711071Y-12903214D01*
X13096785Y-13203214D02*
X12925357Y-13203214D01*
X13011071Y-13203214D02*
X13011071Y-12903214D01*
X12982500Y-12946071D01*
X12953928Y-12974643D01*
X12925357Y-12988929D01*
X13211071Y-12931786D02*
X13225357Y-12917500D01*
X13253928Y-12903214D01*
X13325357Y-12903214D01*
X13353928Y-12917500D01*
X13368214Y-12931786D01*
X13382500Y-12960357D01*
X13382500Y-12988929D01*
X13368214Y-13031786D01*
X13196785Y-13203214D01*
X13382500Y-13203214D01*
X13496786Y-12903214D02*
X13496786Y-12960357D01*
X13611071Y-12903214D02*
X13611071Y-12960357D01*
X14053928Y-13317500D02*
X14039643Y-13303214D01*
X14011071Y-13260357D01*
X13996785Y-13231786D01*
X13982500Y-13188929D01*
X13968214Y-13117500D01*
X13968214Y-13060357D01*
X13982500Y-12988929D01*
X13996785Y-12946071D01*
X14011071Y-12917500D01*
X14039643Y-12874643D01*
X14053928Y-12860357D01*
X14325357Y-13203214D02*
X14153928Y-13203214D01*
X14239643Y-13203214D02*
X14239643Y-12903214D01*
X14211071Y-12946071D01*
X14182500Y-12974643D01*
X14153928Y-12988929D01*
X14425357Y-12903214D02*
X14611071Y-12903214D01*
X14511071Y-13017500D01*
X14553928Y-13017500D01*
X14582500Y-13031786D01*
X14596785Y-13046071D01*
X14611071Y-13074643D01*
X14611071Y-13146071D01*
X14596785Y-13174643D01*
X14582500Y-13188929D01*
X14553928Y-13203214D01*
X14468214Y-13203214D01*
X14439643Y-13188929D01*
X14425357Y-13174643D01*
X14968214Y-13203214D02*
X14968214Y-12903214D01*
X15096785Y-13203214D02*
X15096785Y-13046071D01*
X15082500Y-13017500D01*
X15053928Y-13003214D01*
X15011071Y-13003214D01*
X14982500Y-13017500D01*
X14968214Y-13031786D01*
X15282500Y-13203214D02*
X15253928Y-13188929D01*
X15239643Y-13174643D01*
X15225357Y-13146071D01*
X15225357Y-13060357D01*
X15239643Y-13031786D01*
X15253928Y-13017500D01*
X15282500Y-13003214D01*
X15325357Y-13003214D01*
X15353928Y-13017500D01*
X15368214Y-13031786D01*
X15382500Y-13060357D01*
X15382500Y-13146071D01*
X15368214Y-13174643D01*
X15353928Y-13188929D01*
X15325357Y-13203214D01*
X15282500Y-13203214D01*
X15553928Y-13203214D02*
X15525357Y-13188929D01*
X15511071Y-13160357D01*
X15511071Y-12903214D01*
X15782500Y-13188929D02*
X15753928Y-13203214D01*
X15696786Y-13203214D01*
X15668214Y-13188929D01*
X15653928Y-13160357D01*
X15653928Y-13046071D01*
X15668214Y-13017500D01*
X15696786Y-13003214D01*
X15753928Y-13003214D01*
X15782500Y-13017500D01*
X15796786Y-13046071D01*
X15796786Y-13074643D01*
X15653928Y-13103214D01*
X15911071Y-13188929D02*
X15939643Y-13203214D01*
X15996786Y-13203214D01*
X16025357Y-13188929D01*
X16039643Y-13160357D01*
X16039643Y-13146071D01*
X16025357Y-13117500D01*
X15996786Y-13103214D01*
X15953928Y-13103214D01*
X15925357Y-13088929D01*
X15911071Y-13060357D01*
X15911071Y-13046071D01*
X15925357Y-13017500D01*
X15953928Y-13003214D01*
X15996786Y-13003214D01*
X16025357Y-13017500D01*
X16139643Y-13317500D02*
X16153928Y-13303214D01*
X16182500Y-13260357D01*
X16196786Y-13231786D01*
X16211071Y-13188929D01*
X16225357Y-13117500D01*
X16225357Y-13060357D01*
X16211071Y-12988929D01*
X16196786Y-12946071D01*
X16182500Y-12917500D01*
X16153928Y-12874643D01*
X16139643Y-12860357D01*
X9382500Y-13463500D02*
G75*
G03X9382500Y-13463500I-40000J0D01*
G01*
X9711071Y-13299214D02*
X9739643Y-13299214D01*
X9768214Y-13313500D01*
X9782500Y-13327786D01*
X9796786Y-13356357D01*
X9811071Y-13413500D01*
X9811071Y-13484929D01*
X9796786Y-13542071D01*
X9782500Y-13570643D01*
X9768214Y-13584929D01*
X9739643Y-13599214D01*
X9711071Y-13599214D01*
X9682500Y-13584929D01*
X9668214Y-13570643D01*
X9653929Y-13542071D01*
X9639643Y-13484929D01*
X9639643Y-13413500D01*
X9653929Y-13356357D01*
X9668214Y-13327786D01*
X9682500Y-13313500D01*
X9711071Y-13299214D01*
X9939643Y-13570643D02*
X9953929Y-13584929D01*
X9939643Y-13599214D01*
X9925357Y-13584929D01*
X9939643Y-13570643D01*
X9939643Y-13599214D01*
X10125357Y-13427786D02*
X10096786Y-13413500D01*
X10082500Y-13399214D01*
X10068214Y-13370643D01*
X10068214Y-13356357D01*
X10082500Y-13327786D01*
X10096786Y-13313500D01*
X10125357Y-13299214D01*
X10182500Y-13299214D01*
X10211071Y-13313500D01*
X10225357Y-13327786D01*
X10239643Y-13356357D01*
X10239643Y-13370643D01*
X10225357Y-13399214D01*
X10211071Y-13413500D01*
X10182500Y-13427786D01*
X10125357Y-13427786D01*
X10096786Y-13442071D01*
X10082500Y-13456357D01*
X10068214Y-13484929D01*
X10068214Y-13542071D01*
X10082500Y-13570643D01*
X10096786Y-13584929D01*
X10125357Y-13599214D01*
X10182500Y-13599214D01*
X10211071Y-13584929D01*
X10225357Y-13570643D01*
X10239643Y-13542071D01*
X10239643Y-13484929D01*
X10225357Y-13456357D01*
X10211071Y-13442071D01*
X10182500Y-13427786D01*
X10425357Y-13299214D02*
X10453929Y-13299214D01*
X10482500Y-13313500D01*
X10496786Y-13327786D01*
X10511071Y-13356357D01*
X10525357Y-13413500D01*
X10525357Y-13484929D01*
X10511071Y-13542071D01*
X10496786Y-13570643D01*
X10482500Y-13584929D01*
X10453929Y-13599214D01*
X10425357Y-13599214D01*
X10396786Y-13584929D01*
X10382500Y-13570643D01*
X10368214Y-13542071D01*
X10353929Y-13484929D01*
X10353929Y-13413500D01*
X10368214Y-13356357D01*
X10382500Y-13327786D01*
X10396786Y-13313500D01*
X10425357Y-13299214D01*
X10653929Y-13599214D02*
X10653929Y-13399214D01*
X10653929Y-13427786D02*
X10668214Y-13413500D01*
X10696786Y-13399214D01*
X10739643Y-13399214D01*
X10768214Y-13413500D01*
X10782500Y-13442071D01*
X10782500Y-13599214D01*
X10782500Y-13442071D02*
X10796786Y-13413500D01*
X10825357Y-13399214D01*
X10868214Y-13399214D01*
X10896786Y-13413500D01*
X10911071Y-13442071D01*
X10911071Y-13599214D01*
X11053929Y-13599214D02*
X11053929Y-13399214D01*
X11053929Y-13427786D02*
X11068214Y-13413500D01*
X11096786Y-13399214D01*
X11139643Y-13399214D01*
X11168214Y-13413500D01*
X11182500Y-13442071D01*
X11182500Y-13599214D01*
X11182500Y-13442071D02*
X11196786Y-13413500D01*
X11225357Y-13399214D01*
X11268214Y-13399214D01*
X11296786Y-13413500D01*
X11311071Y-13442071D01*
X11311071Y-13599214D01*
X11896786Y-13284929D02*
X11639643Y-13670643D01*
X12282500Y-13299214D02*
X12311071Y-13299214D01*
X12339643Y-13313500D01*
X12353928Y-13327786D01*
X12368214Y-13356357D01*
X12382500Y-13413500D01*
X12382500Y-13484929D01*
X12368214Y-13542071D01*
X12353928Y-13570643D01*
X12339643Y-13584929D01*
X12311071Y-13599214D01*
X12282500Y-13599214D01*
X12253928Y-13584929D01*
X12239643Y-13570643D01*
X12225357Y-13542071D01*
X12211071Y-13484929D01*
X12211071Y-13413500D01*
X12225357Y-13356357D01*
X12239643Y-13327786D01*
X12253928Y-13313500D01*
X12282500Y-13299214D01*
X12511071Y-13570643D02*
X12525357Y-13584929D01*
X12511071Y-13599214D01*
X12496786Y-13584929D01*
X12511071Y-13570643D01*
X12511071Y-13599214D01*
X12711071Y-13299214D02*
X12739643Y-13299214D01*
X12768214Y-13313500D01*
X12782500Y-13327786D01*
X12796785Y-13356357D01*
X12811071Y-13413500D01*
X12811071Y-13484929D01*
X12796785Y-13542071D01*
X12782500Y-13570643D01*
X12768214Y-13584929D01*
X12739643Y-13599214D01*
X12711071Y-13599214D01*
X12682500Y-13584929D01*
X12668214Y-13570643D01*
X12653928Y-13542071D01*
X12639643Y-13484929D01*
X12639643Y-13413500D01*
X12653928Y-13356357D01*
X12668214Y-13327786D01*
X12682500Y-13313500D01*
X12711071Y-13299214D01*
X12911071Y-13299214D02*
X13096785Y-13299214D01*
X12996785Y-13413500D01*
X13039643Y-13413500D01*
X13068214Y-13427786D01*
X13082500Y-13442071D01*
X13096785Y-13470643D01*
X13096785Y-13542071D01*
X13082500Y-13570643D01*
X13068214Y-13584929D01*
X13039643Y-13599214D01*
X12953928Y-13599214D01*
X12925357Y-13584929D01*
X12911071Y-13570643D01*
X13382500Y-13599214D02*
X13211071Y-13599214D01*
X13296785Y-13599214D02*
X13296785Y-13299214D01*
X13268214Y-13342071D01*
X13239643Y-13370643D01*
X13211071Y-13384929D01*
X13496786Y-13299214D02*
X13496786Y-13356357D01*
X13611071Y-13299214D02*
X13611071Y-13356357D01*
X14053928Y-13713500D02*
X14039643Y-13699214D01*
X14011071Y-13656357D01*
X13996785Y-13627786D01*
X13982500Y-13584929D01*
X13968214Y-13513500D01*
X13968214Y-13456357D01*
X13982500Y-13384929D01*
X13996785Y-13342071D01*
X14011071Y-13313500D01*
X14039643Y-13270643D01*
X14053928Y-13256357D01*
X14139643Y-13299214D02*
X14325357Y-13299214D01*
X14225357Y-13413500D01*
X14268214Y-13413500D01*
X14296785Y-13427786D01*
X14311071Y-13442071D01*
X14325357Y-13470643D01*
X14325357Y-13542071D01*
X14311071Y-13570643D01*
X14296785Y-13584929D01*
X14268214Y-13599214D01*
X14182500Y-13599214D01*
X14153928Y-13584929D01*
X14139643Y-13570643D01*
X14682500Y-13599214D02*
X14682500Y-13299214D01*
X14811071Y-13599214D02*
X14811071Y-13442071D01*
X14796785Y-13413500D01*
X14768214Y-13399214D01*
X14725357Y-13399214D01*
X14696785Y-13413500D01*
X14682500Y-13427786D01*
X14996785Y-13599214D02*
X14968214Y-13584929D01*
X14953928Y-13570643D01*
X14939643Y-13542071D01*
X14939643Y-13456357D01*
X14953928Y-13427786D01*
X14968214Y-13413500D01*
X14996785Y-13399214D01*
X15039643Y-13399214D01*
X15068214Y-13413500D01*
X15082500Y-13427786D01*
X15096785Y-13456357D01*
X15096785Y-13542071D01*
X15082500Y-13570643D01*
X15068214Y-13584929D01*
X15039643Y-13599214D01*
X14996785Y-13599214D01*
X15268214Y-13599214D02*
X15239643Y-13584929D01*
X15225357Y-13556357D01*
X15225357Y-13299214D01*
X15496786Y-13584929D02*
X15468214Y-13599214D01*
X15411071Y-13599214D01*
X15382500Y-13584929D01*
X15368214Y-13556357D01*
X15368214Y-13442071D01*
X15382500Y-13413500D01*
X15411071Y-13399214D01*
X15468214Y-13399214D01*
X15496786Y-13413500D01*
X15511071Y-13442071D01*
X15511071Y-13470643D01*
X15368214Y-13499214D01*
X15625357Y-13584929D02*
X15653928Y-13599214D01*
X15711071Y-13599214D01*
X15739643Y-13584929D01*
X15753928Y-13556357D01*
X15753928Y-13542071D01*
X15739643Y-13513500D01*
X15711071Y-13499214D01*
X15668214Y-13499214D01*
X15639643Y-13484929D01*
X15625357Y-13456357D01*
X15625357Y-13442071D01*
X15639643Y-13413500D01*
X15668214Y-13399214D01*
X15711071Y-13399214D01*
X15739643Y-13413500D01*
X15853928Y-13713500D02*
X15868214Y-13699214D01*
X15896786Y-13656357D01*
X15911071Y-13627786D01*
X15925357Y-13584929D01*
X15939643Y-13513500D01*
X15939643Y-13456357D01*
X15925357Y-13384929D01*
X15911071Y-13342071D01*
X15896786Y-13313500D01*
X15868214Y-13270643D01*
X15853928Y-13256357D01*
X9331700Y-13808700D02*
X9331700Y-13910300D01*
X9280900Y-13859500D02*
X9382500Y-13859500D01*
X9811071Y-13995214D02*
X9639643Y-13995214D01*
X9725357Y-13995214D02*
X9725357Y-13695214D01*
X9696786Y-13738071D01*
X9668214Y-13766643D01*
X9639643Y-13780929D01*
X9939643Y-13966643D02*
X9953929Y-13980929D01*
X9939643Y-13995214D01*
X9925357Y-13980929D01*
X9939643Y-13966643D01*
X9939643Y-13995214D01*
X10139643Y-13695214D02*
X10168214Y-13695214D01*
X10196786Y-13709500D01*
X10211071Y-13723786D01*
X10225357Y-13752357D01*
X10239643Y-13809500D01*
X10239643Y-13880929D01*
X10225357Y-13938071D01*
X10211071Y-13966643D01*
X10196786Y-13980929D01*
X10168214Y-13995214D01*
X10139643Y-13995214D01*
X10111071Y-13980929D01*
X10096786Y-13966643D01*
X10082500Y-13938071D01*
X10068214Y-13880929D01*
X10068214Y-13809500D01*
X10082500Y-13752357D01*
X10096786Y-13723786D01*
X10111071Y-13709500D01*
X10139643Y-13695214D01*
X10353929Y-13723786D02*
X10368214Y-13709500D01*
X10396786Y-13695214D01*
X10468214Y-13695214D01*
X10496786Y-13709500D01*
X10511071Y-13723786D01*
X10525357Y-13752357D01*
X10525357Y-13780929D01*
X10511071Y-13823786D01*
X10339643Y-13995214D01*
X10525357Y-13995214D01*
X10653929Y-13995214D02*
X10653929Y-13795214D01*
X10653929Y-13823786D02*
X10668214Y-13809500D01*
X10696786Y-13795214D01*
X10739643Y-13795214D01*
X10768214Y-13809500D01*
X10782500Y-13838071D01*
X10782500Y-13995214D01*
X10782500Y-13838071D02*
X10796786Y-13809500D01*
X10825357Y-13795214D01*
X10868214Y-13795214D01*
X10896786Y-13809500D01*
X10911071Y-13838071D01*
X10911071Y-13995214D01*
X11053929Y-13995214D02*
X11053929Y-13795214D01*
X11053929Y-13823786D02*
X11068214Y-13809500D01*
X11096786Y-13795214D01*
X11139643Y-13795214D01*
X11168214Y-13809500D01*
X11182500Y-13838071D01*
X11182500Y-13995214D01*
X11182500Y-13838071D02*
X11196786Y-13809500D01*
X11225357Y-13795214D01*
X11268214Y-13795214D01*
X11296786Y-13809500D01*
X11311071Y-13838071D01*
X11311071Y-13995214D01*
X11896786Y-13680929D02*
X11639643Y-14066643D01*
X12282500Y-13695214D02*
X12311071Y-13695214D01*
X12339643Y-13709500D01*
X12353928Y-13723786D01*
X12368214Y-13752357D01*
X12382500Y-13809500D01*
X12382500Y-13880929D01*
X12368214Y-13938071D01*
X12353928Y-13966643D01*
X12339643Y-13980929D01*
X12311071Y-13995214D01*
X12282500Y-13995214D01*
X12253928Y-13980929D01*
X12239643Y-13966643D01*
X12225357Y-13938071D01*
X12211071Y-13880929D01*
X12211071Y-13809500D01*
X12225357Y-13752357D01*
X12239643Y-13723786D01*
X12253928Y-13709500D01*
X12282500Y-13695214D01*
X12511071Y-13966643D02*
X12525357Y-13980929D01*
X12511071Y-13995214D01*
X12496786Y-13980929D01*
X12511071Y-13966643D01*
X12511071Y-13995214D01*
X12711071Y-13695214D02*
X12739643Y-13695214D01*
X12768214Y-13709500D01*
X12782500Y-13723786D01*
X12796785Y-13752357D01*
X12811071Y-13809500D01*
X12811071Y-13880929D01*
X12796785Y-13938071D01*
X12782500Y-13966643D01*
X12768214Y-13980929D01*
X12739643Y-13995214D01*
X12711071Y-13995214D01*
X12682500Y-13980929D01*
X12668214Y-13966643D01*
X12653928Y-13938071D01*
X12639643Y-13880929D01*
X12639643Y-13809500D01*
X12653928Y-13752357D01*
X12668214Y-13723786D01*
X12682500Y-13709500D01*
X12711071Y-13695214D01*
X13068214Y-13795214D02*
X13068214Y-13995214D01*
X12996785Y-13680929D02*
X12925357Y-13895214D01*
X13111071Y-13895214D01*
X13282500Y-13695214D02*
X13311071Y-13695214D01*
X13339643Y-13709500D01*
X13353928Y-13723786D01*
X13368214Y-13752357D01*
X13382500Y-13809500D01*
X13382500Y-13880929D01*
X13368214Y-13938071D01*
X13353928Y-13966643D01*
X13339643Y-13980929D01*
X13311071Y-13995214D01*
X13282500Y-13995214D01*
X13253928Y-13980929D01*
X13239643Y-13966643D01*
X13225357Y-13938071D01*
X13211071Y-13880929D01*
X13211071Y-13809500D01*
X13225357Y-13752357D01*
X13239643Y-13723786D01*
X13253928Y-13709500D01*
X13282500Y-13695214D01*
X13496786Y-13695214D02*
X13496786Y-13752357D01*
X13611071Y-13695214D02*
X13611071Y-13752357D01*
X14053928Y-14109500D02*
X14039643Y-14095214D01*
X14011071Y-14052357D01*
X13996785Y-14023786D01*
X13982500Y-13980929D01*
X13968214Y-13909500D01*
X13968214Y-13852357D01*
X13982500Y-13780929D01*
X13996785Y-13738071D01*
X14011071Y-13709500D01*
X14039643Y-13666643D01*
X14053928Y-13652357D01*
X14325357Y-13995214D02*
X14153928Y-13995214D01*
X14239643Y-13995214D02*
X14239643Y-13695214D01*
X14211071Y-13738071D01*
X14182500Y-13766643D01*
X14153928Y-13780929D01*
X14439643Y-13723786D02*
X14453928Y-13709500D01*
X14482500Y-13695214D01*
X14553928Y-13695214D01*
X14582500Y-13709500D01*
X14596785Y-13723786D01*
X14611071Y-13752357D01*
X14611071Y-13780929D01*
X14596785Y-13823786D01*
X14425357Y-13995214D01*
X14611071Y-13995214D01*
X14968214Y-13995214D02*
X14968214Y-13695214D01*
X15096785Y-13995214D02*
X15096785Y-13838071D01*
X15082500Y-13809500D01*
X15053928Y-13795214D01*
X15011071Y-13795214D01*
X14982500Y-13809500D01*
X14968214Y-13823786D01*
X15282500Y-13995214D02*
X15253928Y-13980929D01*
X15239643Y-13966643D01*
X15225357Y-13938071D01*
X15225357Y-13852357D01*
X15239643Y-13823786D01*
X15253928Y-13809500D01*
X15282500Y-13795214D01*
X15325357Y-13795214D01*
X15353928Y-13809500D01*
X15368214Y-13823786D01*
X15382500Y-13852357D01*
X15382500Y-13938071D01*
X15368214Y-13966643D01*
X15353928Y-13980929D01*
X15325357Y-13995214D01*
X15282500Y-13995214D01*
X15553928Y-13995214D02*
X15525357Y-13980929D01*
X15511071Y-13952357D01*
X15511071Y-13695214D01*
X15782500Y-13980929D02*
X15753928Y-13995214D01*
X15696786Y-13995214D01*
X15668214Y-13980929D01*
X15653928Y-13952357D01*
X15653928Y-13838071D01*
X15668214Y-13809500D01*
X15696786Y-13795214D01*
X15753928Y-13795214D01*
X15782500Y-13809500D01*
X15796786Y-13838071D01*
X15796786Y-13866643D01*
X15653928Y-13895214D01*
X15911071Y-13980929D02*
X15939643Y-13995214D01*
X15996786Y-13995214D01*
X16025357Y-13980929D01*
X16039643Y-13952357D01*
X16039643Y-13938071D01*
X16025357Y-13909500D01*
X15996786Y-13895214D01*
X15953928Y-13895214D01*
X15925357Y-13880929D01*
X15911071Y-13852357D01*
X15911071Y-13838071D01*
X15925357Y-13809500D01*
X15953928Y-13795214D01*
X15996786Y-13795214D01*
X16025357Y-13809500D01*
X16139643Y-14109500D02*
X16153928Y-14095214D01*
X16182500Y-14052357D01*
X16196786Y-14023786D01*
X16211071Y-13980929D01*
X16225357Y-13909500D01*
X16225357Y-13852357D01*
X16211071Y-13780929D01*
X16196786Y-13738071D01*
X16182500Y-13709500D01*
X16153928Y-13666643D01*
X16139643Y-13652357D01*
X9364927Y-14297927D02*
X9364927Y-14213073D01*
X9280073Y-14213073D01*
X9280073Y-14297927D01*
X9364927Y-14297927D01*
X9811071Y-14391214D02*
X9639643Y-14391214D01*
X9725357Y-14391214D02*
X9725357Y-14091214D01*
X9696786Y-14134071D01*
X9668214Y-14162643D01*
X9639643Y-14176929D01*
X9939643Y-14362643D02*
X9953929Y-14376929D01*
X9939643Y-14391214D01*
X9925357Y-14376929D01*
X9939643Y-14362643D01*
X9939643Y-14391214D01*
X10068214Y-14119786D02*
X10082500Y-14105500D01*
X10111071Y-14091214D01*
X10182500Y-14091214D01*
X10211071Y-14105500D01*
X10225357Y-14119786D01*
X10239643Y-14148357D01*
X10239643Y-14176929D01*
X10225357Y-14219786D01*
X10053928Y-14391214D01*
X10239643Y-14391214D01*
X10425357Y-14091214D02*
X10453929Y-14091214D01*
X10482500Y-14105500D01*
X10496786Y-14119786D01*
X10511071Y-14148357D01*
X10525357Y-14205500D01*
X10525357Y-14276929D01*
X10511071Y-14334071D01*
X10496786Y-14362643D01*
X10482500Y-14376929D01*
X10453929Y-14391214D01*
X10425357Y-14391214D01*
X10396786Y-14376929D01*
X10382500Y-14362643D01*
X10368214Y-14334071D01*
X10353929Y-14276929D01*
X10353929Y-14205500D01*
X10368214Y-14148357D01*
X10382500Y-14119786D01*
X10396786Y-14105500D01*
X10425357Y-14091214D01*
X10653929Y-14391214D02*
X10653929Y-14191214D01*
X10653929Y-14219786D02*
X10668214Y-14205500D01*
X10696786Y-14191214D01*
X10739643Y-14191214D01*
X10768214Y-14205500D01*
X10782500Y-14234071D01*
X10782500Y-14391214D01*
X10782500Y-14234071D02*
X10796786Y-14205500D01*
X10825357Y-14191214D01*
X10868214Y-14191214D01*
X10896786Y-14205500D01*
X10911071Y-14234071D01*
X10911071Y-14391214D01*
X11053929Y-14391214D02*
X11053929Y-14191214D01*
X11053929Y-14219786D02*
X11068214Y-14205500D01*
X11096786Y-14191214D01*
X11139643Y-14191214D01*
X11168214Y-14205500D01*
X11182500Y-14234071D01*
X11182500Y-14391214D01*
X11182500Y-14234071D02*
X11196786Y-14205500D01*
X11225357Y-14191214D01*
X11268214Y-14191214D01*
X11296786Y-14205500D01*
X11311071Y-14234071D01*
X11311071Y-14391214D01*
X11896786Y-14076929D02*
X11639643Y-14462643D01*
X12282500Y-14091214D02*
X12311071Y-14091214D01*
X12339643Y-14105500D01*
X12353928Y-14119786D01*
X12368214Y-14148357D01*
X12382500Y-14205500D01*
X12382500Y-14276929D01*
X12368214Y-14334071D01*
X12353928Y-14362643D01*
X12339643Y-14376929D01*
X12311071Y-14391214D01*
X12282500Y-14391214D01*
X12253928Y-14376929D01*
X12239643Y-14362643D01*
X12225357Y-14334071D01*
X12211071Y-14276929D01*
X12211071Y-14205500D01*
X12225357Y-14148357D01*
X12239643Y-14119786D01*
X12253928Y-14105500D01*
X12282500Y-14091214D01*
X12511071Y-14362643D02*
X12525357Y-14376929D01*
X12511071Y-14391214D01*
X12496786Y-14376929D01*
X12511071Y-14362643D01*
X12511071Y-14391214D01*
X12711071Y-14091214D02*
X12739643Y-14091214D01*
X12768214Y-14105500D01*
X12782500Y-14119786D01*
X12796785Y-14148357D01*
X12811071Y-14205500D01*
X12811071Y-14276929D01*
X12796785Y-14334071D01*
X12782500Y-14362643D01*
X12768214Y-14376929D01*
X12739643Y-14391214D01*
X12711071Y-14391214D01*
X12682500Y-14376929D01*
X12668214Y-14362643D01*
X12653928Y-14334071D01*
X12639643Y-14276929D01*
X12639643Y-14205500D01*
X12653928Y-14148357D01*
X12668214Y-14119786D01*
X12682500Y-14105500D01*
X12711071Y-14091214D01*
X13068214Y-14191214D02*
X13068214Y-14391214D01*
X12996785Y-14076929D02*
X12925357Y-14291214D01*
X13111071Y-14291214D01*
X13196785Y-14091214D02*
X13396785Y-14091214D01*
X13268214Y-14391214D01*
X13496786Y-14091214D02*
X13496786Y-14148357D01*
X13611071Y-14091214D02*
X13611071Y-14148357D01*
X14053928Y-14505500D02*
X14039643Y-14491214D01*
X14011071Y-14448357D01*
X13996785Y-14419786D01*
X13982500Y-14376929D01*
X13968214Y-14305500D01*
X13968214Y-14248357D01*
X13982500Y-14176929D01*
X13996785Y-14134071D01*
X14011071Y-14105500D01*
X14039643Y-14062643D01*
X14053928Y-14048357D01*
X14325357Y-14391214D02*
X14153928Y-14391214D01*
X14239643Y-14391214D02*
X14239643Y-14091214D01*
X14211071Y-14134071D01*
X14182500Y-14162643D01*
X14153928Y-14176929D01*
X14682500Y-14391214D02*
X14682500Y-14091214D01*
X14811071Y-14391214D02*
X14811071Y-14234071D01*
X14796785Y-14205500D01*
X14768214Y-14191214D01*
X14725357Y-14191214D01*
X14696785Y-14205500D01*
X14682500Y-14219786D01*
X14996785Y-14391214D02*
X14968214Y-14376929D01*
X14953928Y-14362643D01*
X14939643Y-14334071D01*
X14939643Y-14248357D01*
X14953928Y-14219786D01*
X14968214Y-14205500D01*
X14996785Y-14191214D01*
X15039643Y-14191214D01*
X15068214Y-14205500D01*
X15082500Y-14219786D01*
X15096785Y-14248357D01*
X15096785Y-14334071D01*
X15082500Y-14362643D01*
X15068214Y-14376929D01*
X15039643Y-14391214D01*
X14996785Y-14391214D01*
X15268214Y-14391214D02*
X15239643Y-14376929D01*
X15225357Y-14348357D01*
X15225357Y-14091214D01*
X15496786Y-14376929D02*
X15468214Y-14391214D01*
X15411071Y-14391214D01*
X15382500Y-14376929D01*
X15368214Y-14348357D01*
X15368214Y-14234071D01*
X15382500Y-14205500D01*
X15411071Y-14191214D01*
X15468214Y-14191214D01*
X15496786Y-14205500D01*
X15511071Y-14234071D01*
X15511071Y-14262643D01*
X15368214Y-14291214D01*
X15611071Y-14505500D02*
X15625357Y-14491214D01*
X15653928Y-14448357D01*
X15668214Y-14419786D01*
X15682500Y-14376929D01*
X15696786Y-14305500D01*
X15696786Y-14248357D01*
X15682500Y-14176929D01*
X15668214Y-14134071D01*
X15653928Y-14105500D01*
X15625357Y-14062643D01*
X15611071Y-14048357D01*
X9297500Y-14736500D02*
X9382500Y-14651500D01*
X9297500Y-14566500D01*
X9212500Y-14651500D01*
X9297500Y-14736500D01*
X9811071Y-14787214D02*
X9639643Y-14787214D01*
X9725357Y-14787214D02*
X9725357Y-14487214D01*
X9696786Y-14530071D01*
X9668214Y-14558643D01*
X9639643Y-14572929D01*
X9939643Y-14758643D02*
X9953929Y-14772929D01*
X9939643Y-14787214D01*
X9925357Y-14772929D01*
X9939643Y-14758643D01*
X9939643Y-14787214D01*
X10053928Y-14487214D02*
X10253928Y-14487214D01*
X10125357Y-14787214D01*
X10425357Y-14487214D02*
X10453929Y-14487214D01*
X10482500Y-14501500D01*
X10496786Y-14515786D01*
X10511071Y-14544357D01*
X10525357Y-14601500D01*
X10525357Y-14672929D01*
X10511071Y-14730071D01*
X10496786Y-14758643D01*
X10482500Y-14772929D01*
X10453929Y-14787214D01*
X10425357Y-14787214D01*
X10396786Y-14772929D01*
X10382500Y-14758643D01*
X10368214Y-14730071D01*
X10353929Y-14672929D01*
X10353929Y-14601500D01*
X10368214Y-14544357D01*
X10382500Y-14515786D01*
X10396786Y-14501500D01*
X10425357Y-14487214D01*
X10653929Y-14787214D02*
X10653929Y-14587214D01*
X10653929Y-14615786D02*
X10668214Y-14601500D01*
X10696786Y-14587214D01*
X10739643Y-14587214D01*
X10768214Y-14601500D01*
X10782500Y-14630071D01*
X10782500Y-14787214D01*
X10782500Y-14630071D02*
X10796786Y-14601500D01*
X10825357Y-14587214D01*
X10868214Y-14587214D01*
X10896786Y-14601500D01*
X10911071Y-14630071D01*
X10911071Y-14787214D01*
X11053929Y-14787214D02*
X11053929Y-14587214D01*
X11053929Y-14615786D02*
X11068214Y-14601500D01*
X11096786Y-14587214D01*
X11139643Y-14587214D01*
X11168214Y-14601500D01*
X11182500Y-14630071D01*
X11182500Y-14787214D01*
X11182500Y-14630071D02*
X11196786Y-14601500D01*
X11225357Y-14587214D01*
X11268214Y-14587214D01*
X11296786Y-14601500D01*
X11311071Y-14630071D01*
X11311071Y-14787214D01*
X11896786Y-14472929D02*
X11639643Y-14858643D01*
X12282500Y-14487214D02*
X12311071Y-14487214D01*
X12339643Y-14501500D01*
X12353928Y-14515786D01*
X12368214Y-14544357D01*
X12382500Y-14601500D01*
X12382500Y-14672929D01*
X12368214Y-14730071D01*
X12353928Y-14758643D01*
X12339643Y-14772929D01*
X12311071Y-14787214D01*
X12282500Y-14787214D01*
X12253928Y-14772929D01*
X12239643Y-14758643D01*
X12225357Y-14730071D01*
X12211071Y-14672929D01*
X12211071Y-14601500D01*
X12225357Y-14544357D01*
X12239643Y-14515786D01*
X12253928Y-14501500D01*
X12282500Y-14487214D01*
X12511071Y-14758643D02*
X12525357Y-14772929D01*
X12511071Y-14787214D01*
X12496786Y-14772929D01*
X12511071Y-14758643D01*
X12511071Y-14787214D01*
X12711071Y-14487214D02*
X12739643Y-14487214D01*
X12768214Y-14501500D01*
X12782500Y-14515786D01*
X12796785Y-14544357D01*
X12811071Y-14601500D01*
X12811071Y-14672929D01*
X12796785Y-14730071D01*
X12782500Y-14758643D01*
X12768214Y-14772929D01*
X12739643Y-14787214D01*
X12711071Y-14787214D01*
X12682500Y-14772929D01*
X12668214Y-14758643D01*
X12653928Y-14730071D01*
X12639643Y-14672929D01*
X12639643Y-14601500D01*
X12653928Y-14544357D01*
X12668214Y-14515786D01*
X12682500Y-14501500D01*
X12711071Y-14487214D01*
X13068214Y-14487214D02*
X13011071Y-14487214D01*
X12982500Y-14501500D01*
X12968214Y-14515786D01*
X12939643Y-14558643D01*
X12925357Y-14615786D01*
X12925357Y-14730071D01*
X12939643Y-14758643D01*
X12953928Y-14772929D01*
X12982500Y-14787214D01*
X13039643Y-14787214D01*
X13068214Y-14772929D01*
X13082500Y-14758643D01*
X13096785Y-14730071D01*
X13096785Y-14658643D01*
X13082500Y-14630071D01*
X13068214Y-14615786D01*
X13039643Y-14601500D01*
X12982500Y-14601500D01*
X12953928Y-14615786D01*
X12939643Y-14630071D01*
X12925357Y-14658643D01*
X13196785Y-14487214D02*
X13396785Y-14487214D01*
X13268214Y-14787214D01*
X13496786Y-14487214D02*
X13496786Y-14544357D01*
X13611071Y-14487214D02*
X13611071Y-14544357D01*
X14053928Y-14901500D02*
X14039643Y-14887214D01*
X14011071Y-14844357D01*
X13996785Y-14815786D01*
X13982500Y-14772929D01*
X13968214Y-14701500D01*
X13968214Y-14644357D01*
X13982500Y-14572929D01*
X13996785Y-14530071D01*
X14011071Y-14501500D01*
X14039643Y-14458643D01*
X14053928Y-14444357D01*
X14296785Y-14587214D02*
X14296785Y-14787214D01*
X14225357Y-14472929D02*
X14153928Y-14687214D01*
X14339643Y-14687214D01*
X14682500Y-14787214D02*
X14682500Y-14487214D01*
X14811071Y-14787214D02*
X14811071Y-14630071D01*
X14796785Y-14601500D01*
X14768214Y-14587214D01*
X14725357Y-14587214D01*
X14696785Y-14601500D01*
X14682500Y-14615786D01*
X14996785Y-14787214D02*
X14968214Y-14772929D01*
X14953928Y-14758643D01*
X14939643Y-14730071D01*
X14939643Y-14644357D01*
X14953928Y-14615786D01*
X14968214Y-14601500D01*
X14996785Y-14587214D01*
X15039643Y-14587214D01*
X15068214Y-14601500D01*
X15082500Y-14615786D01*
X15096785Y-14644357D01*
X15096785Y-14730071D01*
X15082500Y-14758643D01*
X15068214Y-14772929D01*
X15039643Y-14787214D01*
X14996785Y-14787214D01*
X15268214Y-14787214D02*
X15239643Y-14772929D01*
X15225357Y-14744357D01*
X15225357Y-14487214D01*
X15496786Y-14772929D02*
X15468214Y-14787214D01*
X15411071Y-14787214D01*
X15382500Y-14772929D01*
X15368214Y-14744357D01*
X15368214Y-14630071D01*
X15382500Y-14601500D01*
X15411071Y-14587214D01*
X15468214Y-14587214D01*
X15496786Y-14601500D01*
X15511071Y-14630071D01*
X15511071Y-14658643D01*
X15368214Y-14687214D01*
X15625357Y-14772929D02*
X15653928Y-14787214D01*
X15711071Y-14787214D01*
X15739643Y-14772929D01*
X15753928Y-14744357D01*
X15753928Y-14730071D01*
X15739643Y-14701500D01*
X15711071Y-14687214D01*
X15668214Y-14687214D01*
X15639643Y-14672929D01*
X15625357Y-14644357D01*
X15625357Y-14630071D01*
X15639643Y-14601500D01*
X15668214Y-14587214D01*
X15711071Y-14587214D01*
X15739643Y-14601500D01*
X15853928Y-14901500D02*
X15868214Y-14887214D01*
X15896786Y-14844357D01*
X15911071Y-14815786D01*
X15925357Y-14772929D01*
X15939643Y-14701500D01*
X15939643Y-14644357D01*
X15925357Y-14572929D01*
X15911071Y-14530071D01*
X15896786Y-14501500D01*
X15868214Y-14458643D01*
X15853928Y-14444357D01*
M02*
