G04 #@! TF.FileFunction,Copper,L1,Top,Signal*
%FSLAX46Y46*%
G04 Gerber Fmt 4.6, Leading zero omitted, Abs format (unit mm)*
G04 Created by KiCad (PCBNEW 4.0.5+dfsg1-4) date Sun Nov 25 18:58:32 2018*
%MOMM*%
%LPD*%
G01*
G04 APERTURE LIST*
%ADD10C,0.100000*%
%ADD11R,1.500000X1.250000*%
%ADD12R,1.727200X1.727200*%
%ADD13O,1.727200X1.727200*%
%ADD14R,1.050000X1.950000*%
%ADD15R,2.032000X2.032000*%
%ADD16O,2.032000X2.032000*%
%ADD17R,2.032000X1.727200*%
%ADD18O,2.032000X1.727200*%
%ADD19C,0.600000*%
%ADD20C,0.500000*%
%ADD21C,0.250000*%
%ADD22C,0.254000*%
G04 APERTURE END LIST*
D10*
D11*
X111580000Y-99740000D03*
X109080000Y-99740000D03*
D12*
X100850000Y-117230000D03*
D13*
X98310000Y-117230000D03*
X100850000Y-114690000D03*
X98310000Y-114690000D03*
X100850000Y-112150000D03*
X98310000Y-112150000D03*
X100850000Y-109610000D03*
X98310000Y-109610000D03*
X100850000Y-107070000D03*
X98310000Y-107070000D03*
X100850000Y-104530000D03*
X98310000Y-104530000D03*
D14*
X106020000Y-118240000D03*
X108020000Y-118240000D03*
X110020000Y-118240000D03*
X112020000Y-118240000D03*
X114020000Y-118240000D03*
X116020000Y-118240000D03*
X118020000Y-118240000D03*
X120020000Y-118240000D03*
X120020000Y-103440000D03*
X118020000Y-103440000D03*
X116020000Y-103440000D03*
X114020000Y-103440000D03*
X112020000Y-103440000D03*
X110020000Y-103440000D03*
X108020000Y-103440000D03*
X106020000Y-103440000D03*
D15*
X122100000Y-100300000D03*
D16*
X124640000Y-100300000D03*
D17*
X124600000Y-115980000D03*
D18*
X124600000Y-113440000D03*
X124600000Y-110900000D03*
X124600000Y-108360000D03*
X124600000Y-105820000D03*
D19*
X113623600Y-105820000D03*
X103500000Y-113600000D03*
X102400000Y-113600000D03*
X99800000Y-100900000D03*
X104200000Y-99900000D03*
X104300000Y-103500000D03*
D20*
X112020000Y-103440000D02*
X112020000Y-100180000D01*
X112020000Y-100180000D02*
X111580000Y-99740000D01*
X113623600Y-105820000D02*
X112020000Y-104216400D01*
X112020000Y-104216400D02*
X112020000Y-103440000D01*
X98310000Y-117230000D02*
X100850000Y-117230000D01*
X112000000Y-103460000D02*
X112020000Y-103440000D01*
X111580000Y-103000000D02*
X112020000Y-103440000D01*
X116134000Y-99360000D02*
X115389000Y-98615000D01*
X110330000Y-98615000D02*
X109205000Y-99740000D01*
X109205000Y-99740000D02*
X109080000Y-99740000D01*
X115389000Y-98615000D02*
X110330000Y-98615000D01*
X124600000Y-108360000D02*
X122490000Y-108360000D01*
X122490000Y-108360000D02*
X118020000Y-103890000D01*
X118020000Y-103890000D02*
X118020000Y-103440000D01*
X100850000Y-114690000D02*
X98310000Y-114690000D01*
X106020000Y-118240000D02*
X104400000Y-118240000D01*
X104400000Y-118240000D02*
X100850000Y-114690000D01*
X120020000Y-118240000D02*
X125029602Y-118240000D01*
X124752400Y-108360000D02*
X124600000Y-108360000D01*
X125029602Y-118240000D02*
X126116000Y-117153602D01*
X126116000Y-109723600D02*
X124752400Y-108360000D01*
X126116000Y-117153602D02*
X126116000Y-109723600D01*
X116134000Y-99360000D02*
X117650000Y-99360000D01*
X117650000Y-99360000D02*
X117650000Y-103070000D01*
X117650000Y-103070000D02*
X118020000Y-103440000D01*
X114020000Y-118240000D02*
X114020000Y-117700000D01*
X114020000Y-117700000D02*
X101713599Y-105393599D01*
X101713599Y-105393599D02*
X100850000Y-104530000D01*
X110020000Y-118240000D02*
X110020000Y-117790000D01*
X110020000Y-117790000D02*
X105830000Y-113600000D01*
X105830000Y-113600000D02*
X103500000Y-113600000D01*
D21*
X110020000Y-118240000D02*
X110020000Y-118690000D01*
D20*
X108020000Y-118240000D02*
X108020000Y-117790000D01*
X108020000Y-117790000D02*
X104580001Y-114350001D01*
X104580001Y-114350001D02*
X103150001Y-114350001D01*
X103150001Y-114350001D02*
X102400000Y-113600000D01*
X108020000Y-118240000D02*
X108020000Y-118690000D01*
X112020000Y-118240000D02*
X112020000Y-117790000D01*
X112020000Y-117790000D02*
X106380000Y-112150000D01*
X106380000Y-112150000D02*
X102071314Y-112150000D01*
X102071314Y-112150000D02*
X100850000Y-112150000D01*
D21*
X101000000Y-112000000D02*
X100850000Y-112150000D01*
D20*
X110020000Y-103440000D02*
X110020000Y-102990000D01*
X110020000Y-102990000D02*
X107930000Y-100900000D01*
X107930000Y-100900000D02*
X99800000Y-100900000D01*
D21*
X110020000Y-103440000D02*
X110020000Y-103890000D01*
X110020000Y-103890000D02*
X110000000Y-103910000D01*
X98310000Y-107070000D02*
X99661399Y-105718601D01*
X99661399Y-105718601D02*
X99661399Y-103959471D01*
X99661399Y-103959471D02*
X100279471Y-103341399D01*
X100279471Y-103341399D02*
X101571399Y-103341399D01*
X101571399Y-103341399D02*
X116020000Y-117790000D01*
X116020000Y-117790000D02*
X116020000Y-118240000D01*
D20*
X108020000Y-103440000D02*
X108020000Y-102990000D01*
X108020000Y-102990000D02*
X107044999Y-102014999D01*
X107044999Y-102014999D02*
X98880871Y-102014999D01*
X98880871Y-102014999D02*
X96996399Y-103899471D01*
X96996399Y-103899471D02*
X96996399Y-108296399D01*
X96996399Y-108296399D02*
X97446401Y-108746401D01*
X97446401Y-108746401D02*
X98310000Y-109610000D01*
D21*
X108020000Y-103440000D02*
X108020000Y-103890000D01*
X108020000Y-103890000D02*
X108000000Y-103910000D01*
D20*
X104200000Y-99900000D02*
X98600000Y-99900000D01*
X98600000Y-99900000D02*
X96296389Y-102203611D01*
X96296389Y-102203611D02*
X96296389Y-110136389D01*
X96296389Y-110136389D02*
X97446401Y-111286401D01*
X97446401Y-111286401D02*
X98310000Y-112150000D01*
X106020000Y-103440000D02*
X104360000Y-103440000D01*
X104360000Y-103440000D02*
X104300000Y-103500000D01*
D21*
X106020000Y-103440000D02*
X106020000Y-103890000D01*
D20*
X120020000Y-103440000D02*
X122936840Y-103440000D01*
X122936840Y-103440000D02*
X124640000Y-101736840D01*
X124640000Y-101736840D02*
X124640000Y-100300000D01*
X120190000Y-103270000D02*
X120020000Y-103440000D01*
X124600000Y-115980000D02*
X119830000Y-115980000D01*
X119830000Y-115980000D02*
X118020000Y-117790000D01*
X118020000Y-117790000D02*
X118020000Y-118240000D01*
X124600000Y-113440000D02*
X123084000Y-113440000D01*
X123084000Y-113440000D02*
X114020000Y-104376000D01*
X114020000Y-104376000D02*
X114020000Y-103440000D01*
X124600000Y-110900000D02*
X123030000Y-110900000D01*
X123030000Y-110900000D02*
X116020000Y-103890000D01*
X116020000Y-103890000D02*
X116020000Y-103440000D01*
D22*
G36*
X126290000Y-120290000D02*
X95710000Y-120290000D01*
X95710000Y-110801580D01*
X96820609Y-111912188D01*
X96820611Y-111912191D01*
X96827895Y-111919475D01*
X96782041Y-112150000D01*
X96896115Y-112723489D01*
X97220971Y-113209670D01*
X97544228Y-113425664D01*
X97421510Y-113483179D01*
X97027312Y-113915053D01*
X96855042Y-114330974D01*
X96976183Y-114563000D01*
X98183000Y-114563000D01*
X98183000Y-114543000D01*
X98437000Y-114543000D01*
X98437000Y-114563000D01*
X100723000Y-114563000D01*
X100723000Y-114543000D01*
X100977000Y-114543000D01*
X100977000Y-114563000D01*
X100997000Y-114563000D01*
X100997000Y-114817000D01*
X100977000Y-114817000D01*
X100977000Y-114837000D01*
X100723000Y-114837000D01*
X100723000Y-114817000D01*
X98437000Y-114817000D01*
X98437000Y-114837000D01*
X98183000Y-114837000D01*
X98183000Y-114817000D01*
X96976183Y-114817000D01*
X96855042Y-115049026D01*
X97027312Y-115464947D01*
X97421510Y-115896821D01*
X97544228Y-115954336D01*
X97220971Y-116170330D01*
X96896115Y-116656511D01*
X96782041Y-117230000D01*
X96896115Y-117803489D01*
X97220971Y-118289670D01*
X97707152Y-118614526D01*
X98280641Y-118728600D01*
X98339359Y-118728600D01*
X98912848Y-118614526D01*
X99378442Y-118303426D01*
X99383238Y-118328917D01*
X99522310Y-118545041D01*
X99734510Y-118690031D01*
X99986400Y-118741040D01*
X101713600Y-118741040D01*
X101948917Y-118696762D01*
X102165041Y-118557690D01*
X102186864Y-118525750D01*
X104860000Y-118525750D01*
X104860000Y-119341309D01*
X104956673Y-119574698D01*
X105135301Y-119753327D01*
X105368690Y-119850000D01*
X105734250Y-119850000D01*
X105893000Y-119691250D01*
X105893000Y-118367000D01*
X105018750Y-118367000D01*
X104860000Y-118525750D01*
X102186864Y-118525750D01*
X102310031Y-118345490D01*
X102361040Y-118093600D01*
X102361040Y-116366400D01*
X102316762Y-116131083D01*
X102177690Y-115914959D01*
X101965490Y-115769969D01*
X101871625Y-115750961D01*
X102132688Y-115464947D01*
X102304958Y-115049026D01*
X102183818Y-114817002D01*
X102348600Y-114817002D01*
X102348600Y-114800179D01*
X102524209Y-114975788D01*
X102524211Y-114975791D01*
X102633816Y-115049026D01*
X102811327Y-115167635D01*
X103150001Y-115235002D01*
X103150006Y-115235001D01*
X104213421Y-115235001D01*
X105608420Y-116630000D01*
X105368690Y-116630000D01*
X105135301Y-116726673D01*
X104956673Y-116905302D01*
X104860000Y-117138691D01*
X104860000Y-117954250D01*
X105018750Y-118113000D01*
X105893000Y-118113000D01*
X105893000Y-118093000D01*
X106147000Y-118093000D01*
X106147000Y-118113000D01*
X106167000Y-118113000D01*
X106167000Y-118367000D01*
X106147000Y-118367000D01*
X106147000Y-119691250D01*
X106305750Y-119850000D01*
X106671310Y-119850000D01*
X106904699Y-119753327D01*
X107015513Y-119642513D01*
X107030910Y-119666441D01*
X107243110Y-119811431D01*
X107495000Y-119862440D01*
X108545000Y-119862440D01*
X108780317Y-119818162D01*
X108996441Y-119679090D01*
X109018384Y-119646975D01*
X109030910Y-119666441D01*
X109243110Y-119811431D01*
X109495000Y-119862440D01*
X110545000Y-119862440D01*
X110780317Y-119818162D01*
X110996441Y-119679090D01*
X111018384Y-119646975D01*
X111030910Y-119666441D01*
X111243110Y-119811431D01*
X111495000Y-119862440D01*
X112545000Y-119862440D01*
X112780317Y-119818162D01*
X112996441Y-119679090D01*
X113018384Y-119646975D01*
X113030910Y-119666441D01*
X113243110Y-119811431D01*
X113495000Y-119862440D01*
X114545000Y-119862440D01*
X114780317Y-119818162D01*
X114996441Y-119679090D01*
X115018384Y-119646975D01*
X115030910Y-119666441D01*
X115243110Y-119811431D01*
X115495000Y-119862440D01*
X116545000Y-119862440D01*
X116780317Y-119818162D01*
X116996441Y-119679090D01*
X117018384Y-119646975D01*
X117030910Y-119666441D01*
X117243110Y-119811431D01*
X117495000Y-119862440D01*
X118545000Y-119862440D01*
X118780317Y-119818162D01*
X118996441Y-119679090D01*
X119022673Y-119640698D01*
X119135301Y-119753327D01*
X119368690Y-119850000D01*
X119734250Y-119850000D01*
X119893000Y-119691250D01*
X119893000Y-118367000D01*
X120147000Y-118367000D01*
X120147000Y-119691250D01*
X120305750Y-119850000D01*
X120671310Y-119850000D01*
X120904699Y-119753327D01*
X121083327Y-119574698D01*
X121180000Y-119341309D01*
X121180000Y-118525750D01*
X121021250Y-118367000D01*
X120147000Y-118367000D01*
X119893000Y-118367000D01*
X119873000Y-118367000D01*
X119873000Y-118113000D01*
X119893000Y-118113000D01*
X119893000Y-118093000D01*
X120147000Y-118093000D01*
X120147000Y-118113000D01*
X121021250Y-118113000D01*
X121180000Y-117954250D01*
X121180000Y-117138691D01*
X121083327Y-116905302D01*
X121043025Y-116865000D01*
X122940587Y-116865000D01*
X122980838Y-117078917D01*
X123119910Y-117295041D01*
X123332110Y-117440031D01*
X123584000Y-117491040D01*
X125616000Y-117491040D01*
X125851317Y-117446762D01*
X126067441Y-117307690D01*
X126212431Y-117095490D01*
X126263440Y-116843600D01*
X126263440Y-115116400D01*
X126219162Y-114881083D01*
X126080090Y-114664959D01*
X125867890Y-114519969D01*
X125826561Y-114511600D01*
X125844415Y-114499670D01*
X126169271Y-114013489D01*
X126283345Y-113440000D01*
X126169271Y-112866511D01*
X125844415Y-112380330D01*
X125529634Y-112170000D01*
X125844415Y-111959670D01*
X126169271Y-111473489D01*
X126283345Y-110900000D01*
X126169271Y-110326511D01*
X125844415Y-109840330D01*
X125534931Y-109633539D01*
X125950732Y-109262036D01*
X126204709Y-108734791D01*
X126207358Y-108719026D01*
X126086217Y-108487000D01*
X124727000Y-108487000D01*
X124727000Y-108507000D01*
X124473000Y-108507000D01*
X124473000Y-108487000D01*
X123113783Y-108487000D01*
X122992642Y-108719026D01*
X122995291Y-108734791D01*
X123249268Y-109262036D01*
X123665069Y-109633539D01*
X123355585Y-109840330D01*
X123302042Y-109920463D01*
X119201580Y-105820000D01*
X122916655Y-105820000D01*
X123030729Y-106393489D01*
X123355585Y-106879670D01*
X123665069Y-107086461D01*
X123249268Y-107457964D01*
X122995291Y-107985209D01*
X122992642Y-108000974D01*
X123113783Y-108233000D01*
X124473000Y-108233000D01*
X124473000Y-108213000D01*
X124727000Y-108213000D01*
X124727000Y-108233000D01*
X126086217Y-108233000D01*
X126207358Y-108000974D01*
X126204709Y-107985209D01*
X125950732Y-107457964D01*
X125534931Y-107086461D01*
X125844415Y-106879670D01*
X126169271Y-106393489D01*
X126283345Y-105820000D01*
X126169271Y-105246511D01*
X125844415Y-104760330D01*
X125358234Y-104435474D01*
X124784745Y-104321400D01*
X124415255Y-104321400D01*
X123841766Y-104435474D01*
X123355585Y-104760330D01*
X123030729Y-105246511D01*
X122916655Y-105820000D01*
X119201580Y-105820000D01*
X118431580Y-105050000D01*
X118671310Y-105050000D01*
X118904699Y-104953327D01*
X119015513Y-104842513D01*
X119030910Y-104866441D01*
X119243110Y-105011431D01*
X119495000Y-105062440D01*
X120545000Y-105062440D01*
X120780317Y-105018162D01*
X120996441Y-104879090D01*
X121141431Y-104666890D01*
X121192440Y-104415000D01*
X121192440Y-104325000D01*
X122936835Y-104325000D01*
X122936840Y-104325001D01*
X123219324Y-104268810D01*
X123275515Y-104257633D01*
X123562630Y-104065790D01*
X123562631Y-104065789D01*
X125265787Y-102362632D01*
X125265790Y-102362630D01*
X125457633Y-102075515D01*
X125487240Y-101926673D01*
X125525001Y-101736840D01*
X125525000Y-101736835D01*
X125525000Y-101688494D01*
X125807433Y-101499778D01*
X126165325Y-100964155D01*
X126290000Y-100337372D01*
X126290000Y-120290000D01*
X126290000Y-120290000D01*
G37*
X126290000Y-120290000D02*
X95710000Y-120290000D01*
X95710000Y-110801580D01*
X96820609Y-111912188D01*
X96820611Y-111912191D01*
X96827895Y-111919475D01*
X96782041Y-112150000D01*
X96896115Y-112723489D01*
X97220971Y-113209670D01*
X97544228Y-113425664D01*
X97421510Y-113483179D01*
X97027312Y-113915053D01*
X96855042Y-114330974D01*
X96976183Y-114563000D01*
X98183000Y-114563000D01*
X98183000Y-114543000D01*
X98437000Y-114543000D01*
X98437000Y-114563000D01*
X100723000Y-114563000D01*
X100723000Y-114543000D01*
X100977000Y-114543000D01*
X100977000Y-114563000D01*
X100997000Y-114563000D01*
X100997000Y-114817000D01*
X100977000Y-114817000D01*
X100977000Y-114837000D01*
X100723000Y-114837000D01*
X100723000Y-114817000D01*
X98437000Y-114817000D01*
X98437000Y-114837000D01*
X98183000Y-114837000D01*
X98183000Y-114817000D01*
X96976183Y-114817000D01*
X96855042Y-115049026D01*
X97027312Y-115464947D01*
X97421510Y-115896821D01*
X97544228Y-115954336D01*
X97220971Y-116170330D01*
X96896115Y-116656511D01*
X96782041Y-117230000D01*
X96896115Y-117803489D01*
X97220971Y-118289670D01*
X97707152Y-118614526D01*
X98280641Y-118728600D01*
X98339359Y-118728600D01*
X98912848Y-118614526D01*
X99378442Y-118303426D01*
X99383238Y-118328917D01*
X99522310Y-118545041D01*
X99734510Y-118690031D01*
X99986400Y-118741040D01*
X101713600Y-118741040D01*
X101948917Y-118696762D01*
X102165041Y-118557690D01*
X102186864Y-118525750D01*
X104860000Y-118525750D01*
X104860000Y-119341309D01*
X104956673Y-119574698D01*
X105135301Y-119753327D01*
X105368690Y-119850000D01*
X105734250Y-119850000D01*
X105893000Y-119691250D01*
X105893000Y-118367000D01*
X105018750Y-118367000D01*
X104860000Y-118525750D01*
X102186864Y-118525750D01*
X102310031Y-118345490D01*
X102361040Y-118093600D01*
X102361040Y-116366400D01*
X102316762Y-116131083D01*
X102177690Y-115914959D01*
X101965490Y-115769969D01*
X101871625Y-115750961D01*
X102132688Y-115464947D01*
X102304958Y-115049026D01*
X102183818Y-114817002D01*
X102348600Y-114817002D01*
X102348600Y-114800179D01*
X102524209Y-114975788D01*
X102524211Y-114975791D01*
X102633816Y-115049026D01*
X102811327Y-115167635D01*
X103150001Y-115235002D01*
X103150006Y-115235001D01*
X104213421Y-115235001D01*
X105608420Y-116630000D01*
X105368690Y-116630000D01*
X105135301Y-116726673D01*
X104956673Y-116905302D01*
X104860000Y-117138691D01*
X104860000Y-117954250D01*
X105018750Y-118113000D01*
X105893000Y-118113000D01*
X105893000Y-118093000D01*
X106147000Y-118093000D01*
X106147000Y-118113000D01*
X106167000Y-118113000D01*
X106167000Y-118367000D01*
X106147000Y-118367000D01*
X106147000Y-119691250D01*
X106305750Y-119850000D01*
X106671310Y-119850000D01*
X106904699Y-119753327D01*
X107015513Y-119642513D01*
X107030910Y-119666441D01*
X107243110Y-119811431D01*
X107495000Y-119862440D01*
X108545000Y-119862440D01*
X108780317Y-119818162D01*
X108996441Y-119679090D01*
X109018384Y-119646975D01*
X109030910Y-119666441D01*
X109243110Y-119811431D01*
X109495000Y-119862440D01*
X110545000Y-119862440D01*
X110780317Y-119818162D01*
X110996441Y-119679090D01*
X111018384Y-119646975D01*
X111030910Y-119666441D01*
X111243110Y-119811431D01*
X111495000Y-119862440D01*
X112545000Y-119862440D01*
X112780317Y-119818162D01*
X112996441Y-119679090D01*
X113018384Y-119646975D01*
X113030910Y-119666441D01*
X113243110Y-119811431D01*
X113495000Y-119862440D01*
X114545000Y-119862440D01*
X114780317Y-119818162D01*
X114996441Y-119679090D01*
X115018384Y-119646975D01*
X115030910Y-119666441D01*
X115243110Y-119811431D01*
X115495000Y-119862440D01*
X116545000Y-119862440D01*
X116780317Y-119818162D01*
X116996441Y-119679090D01*
X117018384Y-119646975D01*
X117030910Y-119666441D01*
X117243110Y-119811431D01*
X117495000Y-119862440D01*
X118545000Y-119862440D01*
X118780317Y-119818162D01*
X118996441Y-119679090D01*
X119022673Y-119640698D01*
X119135301Y-119753327D01*
X119368690Y-119850000D01*
X119734250Y-119850000D01*
X119893000Y-119691250D01*
X119893000Y-118367000D01*
X120147000Y-118367000D01*
X120147000Y-119691250D01*
X120305750Y-119850000D01*
X120671310Y-119850000D01*
X120904699Y-119753327D01*
X121083327Y-119574698D01*
X121180000Y-119341309D01*
X121180000Y-118525750D01*
X121021250Y-118367000D01*
X120147000Y-118367000D01*
X119893000Y-118367000D01*
X119873000Y-118367000D01*
X119873000Y-118113000D01*
X119893000Y-118113000D01*
X119893000Y-118093000D01*
X120147000Y-118093000D01*
X120147000Y-118113000D01*
X121021250Y-118113000D01*
X121180000Y-117954250D01*
X121180000Y-117138691D01*
X121083327Y-116905302D01*
X121043025Y-116865000D01*
X122940587Y-116865000D01*
X122980838Y-117078917D01*
X123119910Y-117295041D01*
X123332110Y-117440031D01*
X123584000Y-117491040D01*
X125616000Y-117491040D01*
X125851317Y-117446762D01*
X126067441Y-117307690D01*
X126212431Y-117095490D01*
X126263440Y-116843600D01*
X126263440Y-115116400D01*
X126219162Y-114881083D01*
X126080090Y-114664959D01*
X125867890Y-114519969D01*
X125826561Y-114511600D01*
X125844415Y-114499670D01*
X126169271Y-114013489D01*
X126283345Y-113440000D01*
X126169271Y-112866511D01*
X125844415Y-112380330D01*
X125529634Y-112170000D01*
X125844415Y-111959670D01*
X126169271Y-111473489D01*
X126283345Y-110900000D01*
X126169271Y-110326511D01*
X125844415Y-109840330D01*
X125534931Y-109633539D01*
X125950732Y-109262036D01*
X126204709Y-108734791D01*
X126207358Y-108719026D01*
X126086217Y-108487000D01*
X124727000Y-108487000D01*
X124727000Y-108507000D01*
X124473000Y-108507000D01*
X124473000Y-108487000D01*
X123113783Y-108487000D01*
X122992642Y-108719026D01*
X122995291Y-108734791D01*
X123249268Y-109262036D01*
X123665069Y-109633539D01*
X123355585Y-109840330D01*
X123302042Y-109920463D01*
X119201580Y-105820000D01*
X122916655Y-105820000D01*
X123030729Y-106393489D01*
X123355585Y-106879670D01*
X123665069Y-107086461D01*
X123249268Y-107457964D01*
X122995291Y-107985209D01*
X122992642Y-108000974D01*
X123113783Y-108233000D01*
X124473000Y-108233000D01*
X124473000Y-108213000D01*
X124727000Y-108213000D01*
X124727000Y-108233000D01*
X126086217Y-108233000D01*
X126207358Y-108000974D01*
X126204709Y-107985209D01*
X125950732Y-107457964D01*
X125534931Y-107086461D01*
X125844415Y-106879670D01*
X126169271Y-106393489D01*
X126283345Y-105820000D01*
X126169271Y-105246511D01*
X125844415Y-104760330D01*
X125358234Y-104435474D01*
X124784745Y-104321400D01*
X124415255Y-104321400D01*
X123841766Y-104435474D01*
X123355585Y-104760330D01*
X123030729Y-105246511D01*
X122916655Y-105820000D01*
X119201580Y-105820000D01*
X118431580Y-105050000D01*
X118671310Y-105050000D01*
X118904699Y-104953327D01*
X119015513Y-104842513D01*
X119030910Y-104866441D01*
X119243110Y-105011431D01*
X119495000Y-105062440D01*
X120545000Y-105062440D01*
X120780317Y-105018162D01*
X120996441Y-104879090D01*
X121141431Y-104666890D01*
X121192440Y-104415000D01*
X121192440Y-104325000D01*
X122936835Y-104325000D01*
X122936840Y-104325001D01*
X123219324Y-104268810D01*
X123275515Y-104257633D01*
X123562630Y-104065790D01*
X123562631Y-104065789D01*
X125265787Y-102362632D01*
X125265790Y-102362630D01*
X125457633Y-102075515D01*
X125487240Y-101926673D01*
X125525001Y-101736840D01*
X125525000Y-101736835D01*
X125525000Y-101688494D01*
X125807433Y-101499778D01*
X126165325Y-100964155D01*
X126290000Y-100337372D01*
X126290000Y-120290000D01*
G36*
X120724301Y-98745673D02*
X120545673Y-98924302D01*
X120449000Y-99157691D01*
X120449000Y-100014250D01*
X120607750Y-100173000D01*
X121973000Y-100173000D01*
X121973000Y-100153000D01*
X122227000Y-100153000D01*
X122227000Y-100173000D01*
X122247000Y-100173000D01*
X122247000Y-100427000D01*
X122227000Y-100427000D01*
X122227000Y-101792250D01*
X122385750Y-101951000D01*
X123174261Y-101951000D01*
X122570260Y-102555000D01*
X121192440Y-102555000D01*
X121192440Y-102465000D01*
X121148162Y-102229683D01*
X121009090Y-102013559D01*
X120855708Y-101908758D01*
X120957690Y-101951000D01*
X121814250Y-101951000D01*
X121973000Y-101792250D01*
X121973000Y-100427000D01*
X120607750Y-100427000D01*
X120449000Y-100585750D01*
X120449000Y-101442309D01*
X120545673Y-101675698D01*
X120723727Y-101853753D01*
X120545000Y-101817560D01*
X119495000Y-101817560D01*
X119259683Y-101861838D01*
X119043559Y-102000910D01*
X119017327Y-102039302D01*
X118904699Y-101926673D01*
X118671310Y-101830000D01*
X118305750Y-101830000D01*
X118147000Y-101988750D01*
X118147000Y-103313000D01*
X118167000Y-103313000D01*
X118167000Y-103567000D01*
X118147000Y-103567000D01*
X118147000Y-103587000D01*
X117893000Y-103587000D01*
X117893000Y-103567000D01*
X117873000Y-103567000D01*
X117873000Y-103313000D01*
X117893000Y-103313000D01*
X117893000Y-101988750D01*
X117734250Y-101830000D01*
X117368690Y-101830000D01*
X117135301Y-101926673D01*
X117024487Y-102037487D01*
X117009090Y-102013559D01*
X116796890Y-101868569D01*
X116545000Y-101817560D01*
X115495000Y-101817560D01*
X115259683Y-101861838D01*
X115043559Y-102000910D01*
X115021616Y-102033025D01*
X115009090Y-102013559D01*
X114796890Y-101868569D01*
X114545000Y-101817560D01*
X113495000Y-101817560D01*
X113259683Y-101861838D01*
X113043559Y-102000910D01*
X113021616Y-102033025D01*
X113009090Y-102013559D01*
X112905000Y-101942437D01*
X112905000Y-100648255D01*
X112926431Y-100616890D01*
X112977440Y-100365000D01*
X112977440Y-99115000D01*
X112933162Y-98879683D01*
X112823974Y-98710000D01*
X120810423Y-98710000D01*
X120724301Y-98745673D01*
X120724301Y-98745673D01*
G37*
X120724301Y-98745673D02*
X120545673Y-98924302D01*
X120449000Y-99157691D01*
X120449000Y-100014250D01*
X120607750Y-100173000D01*
X121973000Y-100173000D01*
X121973000Y-100153000D01*
X122227000Y-100153000D01*
X122227000Y-100173000D01*
X122247000Y-100173000D01*
X122247000Y-100427000D01*
X122227000Y-100427000D01*
X122227000Y-101792250D01*
X122385750Y-101951000D01*
X123174261Y-101951000D01*
X122570260Y-102555000D01*
X121192440Y-102555000D01*
X121192440Y-102465000D01*
X121148162Y-102229683D01*
X121009090Y-102013559D01*
X120855708Y-101908758D01*
X120957690Y-101951000D01*
X121814250Y-101951000D01*
X121973000Y-101792250D01*
X121973000Y-100427000D01*
X120607750Y-100427000D01*
X120449000Y-100585750D01*
X120449000Y-101442309D01*
X120545673Y-101675698D01*
X120723727Y-101853753D01*
X120545000Y-101817560D01*
X119495000Y-101817560D01*
X119259683Y-101861838D01*
X119043559Y-102000910D01*
X119017327Y-102039302D01*
X118904699Y-101926673D01*
X118671310Y-101830000D01*
X118305750Y-101830000D01*
X118147000Y-101988750D01*
X118147000Y-103313000D01*
X118167000Y-103313000D01*
X118167000Y-103567000D01*
X118147000Y-103567000D01*
X118147000Y-103587000D01*
X117893000Y-103587000D01*
X117893000Y-103567000D01*
X117873000Y-103567000D01*
X117873000Y-103313000D01*
X117893000Y-103313000D01*
X117893000Y-101988750D01*
X117734250Y-101830000D01*
X117368690Y-101830000D01*
X117135301Y-101926673D01*
X117024487Y-102037487D01*
X117009090Y-102013559D01*
X116796890Y-101868569D01*
X116545000Y-101817560D01*
X115495000Y-101817560D01*
X115259683Y-101861838D01*
X115043559Y-102000910D01*
X115021616Y-102033025D01*
X115009090Y-102013559D01*
X114796890Y-101868569D01*
X114545000Y-101817560D01*
X113495000Y-101817560D01*
X113259683Y-101861838D01*
X113043559Y-102000910D01*
X113021616Y-102033025D01*
X113009090Y-102013559D01*
X112905000Y-101942437D01*
X112905000Y-100648255D01*
X112926431Y-100616890D01*
X112977440Y-100365000D01*
X112977440Y-99115000D01*
X112933162Y-98879683D01*
X112823974Y-98710000D01*
X120810423Y-98710000D01*
X120724301Y-98745673D01*
G36*
X107791673Y-98755301D02*
X107695000Y-98988690D01*
X107695000Y-99454250D01*
X107853750Y-99613000D01*
X108953000Y-99613000D01*
X108953000Y-99593000D01*
X109207000Y-99593000D01*
X109207000Y-99613000D01*
X109227000Y-99613000D01*
X109227000Y-99867000D01*
X109207000Y-99867000D01*
X109207000Y-99887000D01*
X108953000Y-99887000D01*
X108953000Y-99867000D01*
X107853750Y-99867000D01*
X107705750Y-100015000D01*
X105134901Y-100015000D01*
X105135162Y-99714833D01*
X104993117Y-99371057D01*
X104730327Y-99107808D01*
X104386799Y-98965162D01*
X104014833Y-98964838D01*
X103893431Y-99015000D01*
X98600005Y-99015000D01*
X98600000Y-99014999D01*
X98317516Y-99071190D01*
X98261325Y-99082367D01*
X97974210Y-99274210D01*
X97974208Y-99274213D01*
X95710000Y-101538420D01*
X95710000Y-98710000D01*
X107836974Y-98710000D01*
X107791673Y-98755301D01*
X107791673Y-98755301D01*
G37*
X107791673Y-98755301D02*
X107695000Y-98988690D01*
X107695000Y-99454250D01*
X107853750Y-99613000D01*
X108953000Y-99613000D01*
X108953000Y-99593000D01*
X109207000Y-99593000D01*
X109207000Y-99613000D01*
X109227000Y-99613000D01*
X109227000Y-99867000D01*
X109207000Y-99867000D01*
X109207000Y-99887000D01*
X108953000Y-99887000D01*
X108953000Y-99867000D01*
X107853750Y-99867000D01*
X107705750Y-100015000D01*
X105134901Y-100015000D01*
X105135162Y-99714833D01*
X104993117Y-99371057D01*
X104730327Y-99107808D01*
X104386799Y-98965162D01*
X104014833Y-98964838D01*
X103893431Y-99015000D01*
X98600005Y-99015000D01*
X98600000Y-99014999D01*
X98317516Y-99071190D01*
X98261325Y-99082367D01*
X97974210Y-99274210D01*
X97974208Y-99274213D01*
X95710000Y-101538420D01*
X95710000Y-98710000D01*
X107836974Y-98710000D01*
X107791673Y-98755301D01*
M02*
