G04 #@! TF.FileFunction,Copper,L2,Bot,Signal*
%FSLAX46Y46*%
G04 Gerber Fmt 4.6, Leading zero omitted, Abs format (unit mm)*
G04 Created by KiCad (PCBNEW 4.0.5+dfsg1-4) date Sun Nov 25 18:58:32 2018*
%MOMM*%
%LPD*%
G01*
G04 APERTURE LIST*
%ADD10C,0.100000*%
%ADD11R,1.727200X1.727200*%
%ADD12O,1.727200X1.727200*%
%ADD13R,2.032000X2.032000*%
%ADD14O,2.032000X2.032000*%
%ADD15R,2.032000X1.727200*%
%ADD16O,2.032000X1.727200*%
%ADD17C,0.600000*%
%ADD18C,0.500000*%
%ADD19C,0.254000*%
G04 APERTURE END LIST*
D10*
D11*
X100850000Y-117230000D03*
D12*
X98310000Y-117230000D03*
X100850000Y-114690000D03*
X98310000Y-114690000D03*
X100850000Y-112150000D03*
X98310000Y-112150000D03*
X100850000Y-109610000D03*
X98310000Y-109610000D03*
X100850000Y-107070000D03*
X98310000Y-107070000D03*
X100850000Y-104530000D03*
X98310000Y-104530000D03*
D13*
X122100000Y-100300000D03*
D14*
X124640000Y-100300000D03*
D15*
X124600000Y-115980000D03*
D16*
X124600000Y-113440000D03*
X124600000Y-110900000D03*
X124600000Y-108360000D03*
X124600000Y-105820000D03*
D17*
X113623600Y-105820000D03*
X103500000Y-113600000D03*
X102400000Y-113600000D03*
X99800000Y-100900000D03*
X104200000Y-99900000D03*
X104300000Y-103500000D03*
D18*
X102213600Y-117230000D02*
X113243600Y-106200000D01*
X113243600Y-106200000D02*
X113623600Y-105820000D01*
X100850000Y-117230000D02*
X102213600Y-117230000D01*
X113623600Y-105820000D02*
X124600000Y-105820000D01*
X124600000Y-108360000D02*
X124752400Y-108360000D01*
X124752400Y-108360000D02*
X126116000Y-106996400D01*
X126116000Y-106996400D02*
X126116000Y-99606318D01*
X126116000Y-99606318D02*
X125343681Y-98833999D01*
X125343681Y-98833999D02*
X123566001Y-98833999D01*
X123566001Y-98833999D02*
X122100000Y-100300000D01*
X103500000Y-113600000D02*
X103500000Y-109720000D01*
X103500000Y-109720000D02*
X100850000Y-107070000D01*
X102400000Y-113600000D02*
X102400000Y-111160000D01*
X102400000Y-111160000D02*
X100850000Y-109610000D01*
X99800000Y-100900000D02*
X99800000Y-103040000D01*
X99800000Y-103040000D02*
X98310000Y-104530000D01*
X104300000Y-103500000D02*
X104300000Y-100000000D01*
X104300000Y-100000000D02*
X104200000Y-99900000D01*
D19*
G36*
X120724301Y-98745673D02*
X120545673Y-98924302D01*
X120449000Y-99157691D01*
X120449000Y-100014250D01*
X120607750Y-100173000D01*
X121973000Y-100173000D01*
X121973000Y-100153000D01*
X122227000Y-100153000D01*
X122227000Y-100173000D01*
X122247000Y-100173000D01*
X122247000Y-100427000D01*
X122227000Y-100427000D01*
X122227000Y-101792250D01*
X122385750Y-101951000D01*
X123242310Y-101951000D01*
X123475699Y-101854327D01*
X123654327Y-101675698D01*
X123671999Y-101633034D01*
X124008190Y-101857670D01*
X124640000Y-101983345D01*
X125271810Y-101857670D01*
X125807433Y-101499778D01*
X126165325Y-100964155D01*
X126290000Y-100337372D01*
X126290000Y-120290000D01*
X95710000Y-120290000D01*
X95710000Y-104530000D01*
X96782041Y-104530000D01*
X96896115Y-105103489D01*
X97220971Y-105589670D01*
X97535752Y-105800000D01*
X97220971Y-106010330D01*
X96896115Y-106496511D01*
X96782041Y-107070000D01*
X96896115Y-107643489D01*
X97220971Y-108129670D01*
X97535752Y-108340000D01*
X97220971Y-108550330D01*
X96896115Y-109036511D01*
X96782041Y-109610000D01*
X96896115Y-110183489D01*
X97220971Y-110669670D01*
X97535752Y-110880000D01*
X97220971Y-111090330D01*
X96896115Y-111576511D01*
X96782041Y-112150000D01*
X96896115Y-112723489D01*
X97220971Y-113209670D01*
X97544228Y-113425664D01*
X97421510Y-113483179D01*
X97027312Y-113915053D01*
X96855042Y-114330974D01*
X96976183Y-114563000D01*
X98183000Y-114563000D01*
X98183000Y-114543000D01*
X98437000Y-114543000D01*
X98437000Y-114563000D01*
X100723000Y-114563000D01*
X100723000Y-114543000D01*
X100977000Y-114543000D01*
X100977000Y-114563000D01*
X102183817Y-114563000D01*
X102201136Y-114529828D01*
X102213201Y-114534838D01*
X102585167Y-114535162D01*
X102928943Y-114393117D01*
X102949806Y-114372290D01*
X102969673Y-114392192D01*
X103313201Y-114534838D01*
X103656883Y-114535137D01*
X102216597Y-115975423D01*
X102177690Y-115914959D01*
X101965490Y-115769969D01*
X101871625Y-115750961D01*
X102132688Y-115464947D01*
X102304958Y-115049026D01*
X102183817Y-114817000D01*
X100977000Y-114817000D01*
X100977000Y-114837000D01*
X100723000Y-114837000D01*
X100723000Y-114817000D01*
X98437000Y-114817000D01*
X98437000Y-114837000D01*
X98183000Y-114837000D01*
X98183000Y-114817000D01*
X96976183Y-114817000D01*
X96855042Y-115049026D01*
X97027312Y-115464947D01*
X97421510Y-115896821D01*
X97544228Y-115954336D01*
X97220971Y-116170330D01*
X96896115Y-116656511D01*
X96782041Y-117230000D01*
X96896115Y-117803489D01*
X97220971Y-118289670D01*
X97707152Y-118614526D01*
X98280641Y-118728600D01*
X98339359Y-118728600D01*
X98912848Y-118614526D01*
X99378442Y-118303426D01*
X99383238Y-118328917D01*
X99522310Y-118545041D01*
X99734510Y-118690031D01*
X99986400Y-118741040D01*
X101713600Y-118741040D01*
X101948917Y-118696762D01*
X102165041Y-118557690D01*
X102310031Y-118345490D01*
X102361040Y-118093600D01*
X102361040Y-118085673D01*
X102496084Y-118058810D01*
X102552275Y-118047633D01*
X102839390Y-117855790D01*
X109795179Y-110900000D01*
X122916655Y-110900000D01*
X123030729Y-111473489D01*
X123355585Y-111959670D01*
X123670366Y-112170000D01*
X123355585Y-112380330D01*
X123030729Y-112866511D01*
X122916655Y-113440000D01*
X123030729Y-114013489D01*
X123355585Y-114499670D01*
X123369913Y-114509243D01*
X123348683Y-114513238D01*
X123132559Y-114652310D01*
X122987569Y-114864510D01*
X122936560Y-115116400D01*
X122936560Y-116843600D01*
X122980838Y-117078917D01*
X123119910Y-117295041D01*
X123332110Y-117440031D01*
X123584000Y-117491040D01*
X125616000Y-117491040D01*
X125851317Y-117446762D01*
X126067441Y-117307690D01*
X126212431Y-117095490D01*
X126263440Y-116843600D01*
X126263440Y-115116400D01*
X126219162Y-114881083D01*
X126080090Y-114664959D01*
X125867890Y-114519969D01*
X125826561Y-114511600D01*
X125844415Y-114499670D01*
X126169271Y-114013489D01*
X126283345Y-113440000D01*
X126169271Y-112866511D01*
X125844415Y-112380330D01*
X125529634Y-112170000D01*
X125844415Y-111959670D01*
X126169271Y-111473489D01*
X126283345Y-110900000D01*
X126169271Y-110326511D01*
X125844415Y-109840330D01*
X125534931Y-109633539D01*
X125950732Y-109262036D01*
X126204709Y-108734791D01*
X126207358Y-108719026D01*
X126086217Y-108487000D01*
X124727000Y-108487000D01*
X124727000Y-108507000D01*
X124473000Y-108507000D01*
X124473000Y-108487000D01*
X123113783Y-108487000D01*
X122992642Y-108719026D01*
X122995291Y-108734791D01*
X123249268Y-109262036D01*
X123665069Y-109633539D01*
X123355585Y-109840330D01*
X123030729Y-110326511D01*
X122916655Y-110900000D01*
X109795179Y-110900000D01*
X113869387Y-106825792D01*
X113869390Y-106825790D01*
X113990180Y-106705000D01*
X123238874Y-106705000D01*
X123355585Y-106879670D01*
X123665069Y-107086461D01*
X123249268Y-107457964D01*
X122995291Y-107985209D01*
X122992642Y-108000974D01*
X123113783Y-108233000D01*
X124473000Y-108233000D01*
X124473000Y-108213000D01*
X124727000Y-108213000D01*
X124727000Y-108233000D01*
X126086217Y-108233000D01*
X126207358Y-108000974D01*
X126204709Y-107985209D01*
X125950732Y-107457964D01*
X125534931Y-107086461D01*
X125844415Y-106879670D01*
X126169271Y-106393489D01*
X126283345Y-105820000D01*
X126169271Y-105246511D01*
X125844415Y-104760330D01*
X125358234Y-104435474D01*
X124784745Y-104321400D01*
X124415255Y-104321400D01*
X123841766Y-104435474D01*
X123355585Y-104760330D01*
X123238874Y-104935000D01*
X113930422Y-104935000D01*
X113810399Y-104885162D01*
X113438433Y-104884838D01*
X113094657Y-105026883D01*
X112831408Y-105289673D01*
X112781034Y-105410986D01*
X112617810Y-105574210D01*
X112617808Y-105574213D01*
X104434864Y-113757156D01*
X104435162Y-113414833D01*
X104385000Y-113293431D01*
X104385000Y-109720005D01*
X104385001Y-109720000D01*
X104317633Y-109381326D01*
X104317633Y-109381325D01*
X104125790Y-109094210D01*
X104125787Y-109094208D01*
X102332105Y-107300525D01*
X102377959Y-107070000D01*
X102263885Y-106496511D01*
X101939029Y-106010330D01*
X101624248Y-105800000D01*
X101939029Y-105589670D01*
X102263885Y-105103489D01*
X102377959Y-104530000D01*
X102263885Y-103956511D01*
X101939029Y-103470330D01*
X101452848Y-103145474D01*
X100879359Y-103031400D01*
X100820641Y-103031400D01*
X100681194Y-103059138D01*
X100685001Y-103040000D01*
X100685000Y-103039995D01*
X100685000Y-101206822D01*
X100734838Y-101086799D01*
X100735162Y-100714833D01*
X100593117Y-100371057D01*
X100330327Y-100107808D01*
X100275802Y-100085167D01*
X103264838Y-100085167D01*
X103406883Y-100428943D01*
X103415000Y-100437074D01*
X103415000Y-103193178D01*
X103365162Y-103313201D01*
X103364838Y-103685167D01*
X103506883Y-104028943D01*
X103769673Y-104292192D01*
X104113201Y-104434838D01*
X104485167Y-104435162D01*
X104828943Y-104293117D01*
X105092192Y-104030327D01*
X105234838Y-103686799D01*
X105235162Y-103314833D01*
X105185000Y-103193431D01*
X105185000Y-100585750D01*
X120449000Y-100585750D01*
X120449000Y-101442309D01*
X120545673Y-101675698D01*
X120724301Y-101854327D01*
X120957690Y-101951000D01*
X121814250Y-101951000D01*
X121973000Y-101792250D01*
X121973000Y-100427000D01*
X120607750Y-100427000D01*
X120449000Y-100585750D01*
X105185000Y-100585750D01*
X105185000Y-100000000D01*
X105135132Y-99749298D01*
X105135162Y-99714833D01*
X105121885Y-99682699D01*
X105117633Y-99661325D01*
X105105631Y-99643363D01*
X104993117Y-99371057D01*
X104730327Y-99107808D01*
X104386799Y-98965162D01*
X104014833Y-98964838D01*
X103671057Y-99106883D01*
X103407808Y-99369673D01*
X103265162Y-99713201D01*
X103264838Y-100085167D01*
X100275802Y-100085167D01*
X99986799Y-99965162D01*
X99614833Y-99964838D01*
X99271057Y-100106883D01*
X99007808Y-100369673D01*
X98865162Y-100713201D01*
X98864838Y-101085167D01*
X98915000Y-101206569D01*
X98915000Y-102673421D01*
X98520908Y-103067512D01*
X98339359Y-103031400D01*
X98280641Y-103031400D01*
X97707152Y-103145474D01*
X97220971Y-103470330D01*
X96896115Y-103956511D01*
X96782041Y-104530000D01*
X95710000Y-104530000D01*
X95710000Y-98710000D01*
X120810423Y-98710000D01*
X120724301Y-98745673D01*
X120724301Y-98745673D01*
G37*
X120724301Y-98745673D02*
X120545673Y-98924302D01*
X120449000Y-99157691D01*
X120449000Y-100014250D01*
X120607750Y-100173000D01*
X121973000Y-100173000D01*
X121973000Y-100153000D01*
X122227000Y-100153000D01*
X122227000Y-100173000D01*
X122247000Y-100173000D01*
X122247000Y-100427000D01*
X122227000Y-100427000D01*
X122227000Y-101792250D01*
X122385750Y-101951000D01*
X123242310Y-101951000D01*
X123475699Y-101854327D01*
X123654327Y-101675698D01*
X123671999Y-101633034D01*
X124008190Y-101857670D01*
X124640000Y-101983345D01*
X125271810Y-101857670D01*
X125807433Y-101499778D01*
X126165325Y-100964155D01*
X126290000Y-100337372D01*
X126290000Y-120290000D01*
X95710000Y-120290000D01*
X95710000Y-104530000D01*
X96782041Y-104530000D01*
X96896115Y-105103489D01*
X97220971Y-105589670D01*
X97535752Y-105800000D01*
X97220971Y-106010330D01*
X96896115Y-106496511D01*
X96782041Y-107070000D01*
X96896115Y-107643489D01*
X97220971Y-108129670D01*
X97535752Y-108340000D01*
X97220971Y-108550330D01*
X96896115Y-109036511D01*
X96782041Y-109610000D01*
X96896115Y-110183489D01*
X97220971Y-110669670D01*
X97535752Y-110880000D01*
X97220971Y-111090330D01*
X96896115Y-111576511D01*
X96782041Y-112150000D01*
X96896115Y-112723489D01*
X97220971Y-113209670D01*
X97544228Y-113425664D01*
X97421510Y-113483179D01*
X97027312Y-113915053D01*
X96855042Y-114330974D01*
X96976183Y-114563000D01*
X98183000Y-114563000D01*
X98183000Y-114543000D01*
X98437000Y-114543000D01*
X98437000Y-114563000D01*
X100723000Y-114563000D01*
X100723000Y-114543000D01*
X100977000Y-114543000D01*
X100977000Y-114563000D01*
X102183817Y-114563000D01*
X102201136Y-114529828D01*
X102213201Y-114534838D01*
X102585167Y-114535162D01*
X102928943Y-114393117D01*
X102949806Y-114372290D01*
X102969673Y-114392192D01*
X103313201Y-114534838D01*
X103656883Y-114535137D01*
X102216597Y-115975423D01*
X102177690Y-115914959D01*
X101965490Y-115769969D01*
X101871625Y-115750961D01*
X102132688Y-115464947D01*
X102304958Y-115049026D01*
X102183817Y-114817000D01*
X100977000Y-114817000D01*
X100977000Y-114837000D01*
X100723000Y-114837000D01*
X100723000Y-114817000D01*
X98437000Y-114817000D01*
X98437000Y-114837000D01*
X98183000Y-114837000D01*
X98183000Y-114817000D01*
X96976183Y-114817000D01*
X96855042Y-115049026D01*
X97027312Y-115464947D01*
X97421510Y-115896821D01*
X97544228Y-115954336D01*
X97220971Y-116170330D01*
X96896115Y-116656511D01*
X96782041Y-117230000D01*
X96896115Y-117803489D01*
X97220971Y-118289670D01*
X97707152Y-118614526D01*
X98280641Y-118728600D01*
X98339359Y-118728600D01*
X98912848Y-118614526D01*
X99378442Y-118303426D01*
X99383238Y-118328917D01*
X99522310Y-118545041D01*
X99734510Y-118690031D01*
X99986400Y-118741040D01*
X101713600Y-118741040D01*
X101948917Y-118696762D01*
X102165041Y-118557690D01*
X102310031Y-118345490D01*
X102361040Y-118093600D01*
X102361040Y-118085673D01*
X102496084Y-118058810D01*
X102552275Y-118047633D01*
X102839390Y-117855790D01*
X109795179Y-110900000D01*
X122916655Y-110900000D01*
X123030729Y-111473489D01*
X123355585Y-111959670D01*
X123670366Y-112170000D01*
X123355585Y-112380330D01*
X123030729Y-112866511D01*
X122916655Y-113440000D01*
X123030729Y-114013489D01*
X123355585Y-114499670D01*
X123369913Y-114509243D01*
X123348683Y-114513238D01*
X123132559Y-114652310D01*
X122987569Y-114864510D01*
X122936560Y-115116400D01*
X122936560Y-116843600D01*
X122980838Y-117078917D01*
X123119910Y-117295041D01*
X123332110Y-117440031D01*
X123584000Y-117491040D01*
X125616000Y-117491040D01*
X125851317Y-117446762D01*
X126067441Y-117307690D01*
X126212431Y-117095490D01*
X126263440Y-116843600D01*
X126263440Y-115116400D01*
X126219162Y-114881083D01*
X126080090Y-114664959D01*
X125867890Y-114519969D01*
X125826561Y-114511600D01*
X125844415Y-114499670D01*
X126169271Y-114013489D01*
X126283345Y-113440000D01*
X126169271Y-112866511D01*
X125844415Y-112380330D01*
X125529634Y-112170000D01*
X125844415Y-111959670D01*
X126169271Y-111473489D01*
X126283345Y-110900000D01*
X126169271Y-110326511D01*
X125844415Y-109840330D01*
X125534931Y-109633539D01*
X125950732Y-109262036D01*
X126204709Y-108734791D01*
X126207358Y-108719026D01*
X126086217Y-108487000D01*
X124727000Y-108487000D01*
X124727000Y-108507000D01*
X124473000Y-108507000D01*
X124473000Y-108487000D01*
X123113783Y-108487000D01*
X122992642Y-108719026D01*
X122995291Y-108734791D01*
X123249268Y-109262036D01*
X123665069Y-109633539D01*
X123355585Y-109840330D01*
X123030729Y-110326511D01*
X122916655Y-110900000D01*
X109795179Y-110900000D01*
X113869387Y-106825792D01*
X113869390Y-106825790D01*
X113990180Y-106705000D01*
X123238874Y-106705000D01*
X123355585Y-106879670D01*
X123665069Y-107086461D01*
X123249268Y-107457964D01*
X122995291Y-107985209D01*
X122992642Y-108000974D01*
X123113783Y-108233000D01*
X124473000Y-108233000D01*
X124473000Y-108213000D01*
X124727000Y-108213000D01*
X124727000Y-108233000D01*
X126086217Y-108233000D01*
X126207358Y-108000974D01*
X126204709Y-107985209D01*
X125950732Y-107457964D01*
X125534931Y-107086461D01*
X125844415Y-106879670D01*
X126169271Y-106393489D01*
X126283345Y-105820000D01*
X126169271Y-105246511D01*
X125844415Y-104760330D01*
X125358234Y-104435474D01*
X124784745Y-104321400D01*
X124415255Y-104321400D01*
X123841766Y-104435474D01*
X123355585Y-104760330D01*
X123238874Y-104935000D01*
X113930422Y-104935000D01*
X113810399Y-104885162D01*
X113438433Y-104884838D01*
X113094657Y-105026883D01*
X112831408Y-105289673D01*
X112781034Y-105410986D01*
X112617810Y-105574210D01*
X112617808Y-105574213D01*
X104434864Y-113757156D01*
X104435162Y-113414833D01*
X104385000Y-113293431D01*
X104385000Y-109720005D01*
X104385001Y-109720000D01*
X104317633Y-109381326D01*
X104317633Y-109381325D01*
X104125790Y-109094210D01*
X104125787Y-109094208D01*
X102332105Y-107300525D01*
X102377959Y-107070000D01*
X102263885Y-106496511D01*
X101939029Y-106010330D01*
X101624248Y-105800000D01*
X101939029Y-105589670D01*
X102263885Y-105103489D01*
X102377959Y-104530000D01*
X102263885Y-103956511D01*
X101939029Y-103470330D01*
X101452848Y-103145474D01*
X100879359Y-103031400D01*
X100820641Y-103031400D01*
X100681194Y-103059138D01*
X100685001Y-103040000D01*
X100685000Y-103039995D01*
X100685000Y-101206822D01*
X100734838Y-101086799D01*
X100735162Y-100714833D01*
X100593117Y-100371057D01*
X100330327Y-100107808D01*
X100275802Y-100085167D01*
X103264838Y-100085167D01*
X103406883Y-100428943D01*
X103415000Y-100437074D01*
X103415000Y-103193178D01*
X103365162Y-103313201D01*
X103364838Y-103685167D01*
X103506883Y-104028943D01*
X103769673Y-104292192D01*
X104113201Y-104434838D01*
X104485167Y-104435162D01*
X104828943Y-104293117D01*
X105092192Y-104030327D01*
X105234838Y-103686799D01*
X105235162Y-103314833D01*
X105185000Y-103193431D01*
X105185000Y-100585750D01*
X120449000Y-100585750D01*
X120449000Y-101442309D01*
X120545673Y-101675698D01*
X120724301Y-101854327D01*
X120957690Y-101951000D01*
X121814250Y-101951000D01*
X121973000Y-101792250D01*
X121973000Y-100427000D01*
X120607750Y-100427000D01*
X120449000Y-100585750D01*
X105185000Y-100585750D01*
X105185000Y-100000000D01*
X105135132Y-99749298D01*
X105135162Y-99714833D01*
X105121885Y-99682699D01*
X105117633Y-99661325D01*
X105105631Y-99643363D01*
X104993117Y-99371057D01*
X104730327Y-99107808D01*
X104386799Y-98965162D01*
X104014833Y-98964838D01*
X103671057Y-99106883D01*
X103407808Y-99369673D01*
X103265162Y-99713201D01*
X103264838Y-100085167D01*
X100275802Y-100085167D01*
X99986799Y-99965162D01*
X99614833Y-99964838D01*
X99271057Y-100106883D01*
X99007808Y-100369673D01*
X98865162Y-100713201D01*
X98864838Y-101085167D01*
X98915000Y-101206569D01*
X98915000Y-102673421D01*
X98520908Y-103067512D01*
X98339359Y-103031400D01*
X98280641Y-103031400D01*
X97707152Y-103145474D01*
X97220971Y-103470330D01*
X96896115Y-103956511D01*
X96782041Y-104530000D01*
X95710000Y-104530000D01*
X95710000Y-98710000D01*
X120810423Y-98710000D01*
X120724301Y-98745673D01*
G36*
X124008190Y-98742330D02*
X123671999Y-98966966D01*
X123654327Y-98924302D01*
X123475699Y-98745673D01*
X123389577Y-98710000D01*
X124170724Y-98710000D01*
X124008190Y-98742330D01*
X124008190Y-98742330D01*
G37*
X124008190Y-98742330D02*
X123671999Y-98966966D01*
X123654327Y-98924302D01*
X123475699Y-98745673D01*
X123389577Y-98710000D01*
X124170724Y-98710000D01*
X124008190Y-98742330D01*
M02*
