G04 #@! TF.FileFunction,Legend,Bot*
%FSLAX46Y46*%
G04 Gerber Fmt 4.6, Leading zero omitted, Abs format (unit mm)*
G04 Created by KiCad (PCBNEW 4.0.5+dfsg1-4) date Sun Nov 25 22:45:50 2018*
%MOMM*%
%LPD*%
G01*
G04 APERTURE LIST*
%ADD10C,0.100000*%
%ADD11C,0.200000*%
%ADD12C,0.010000*%
G04 APERTURE END LIST*
D10*
D11*
X94800000Y-105152381D02*
X94800000Y-104152381D01*
X95466666Y-104152381D02*
X95657143Y-104152381D01*
X95752381Y-104200000D01*
X95847619Y-104295238D01*
X95895238Y-104485714D01*
X95895238Y-104819048D01*
X95847619Y-105009524D01*
X95752381Y-105104762D01*
X95657143Y-105152381D01*
X95466666Y-105152381D01*
X95371428Y-105104762D01*
X95276190Y-105009524D01*
X95228571Y-104819048D01*
X95228571Y-104485714D01*
X95276190Y-104295238D01*
X95371428Y-104200000D01*
X95466666Y-104152381D01*
X96514285Y-104152381D02*
X96609524Y-104152381D01*
X96704762Y-104200000D01*
X96752381Y-104247619D01*
X96800000Y-104342857D01*
X96847619Y-104533333D01*
X96847619Y-104771429D01*
X96800000Y-104961905D01*
X96752381Y-105057143D01*
X96704762Y-105104762D01*
X96609524Y-105152381D01*
X96514285Y-105152381D01*
X96419047Y-105104762D01*
X96371428Y-105057143D01*
X96323809Y-104961905D01*
X96276190Y-104771429D01*
X96276190Y-104533333D01*
X96323809Y-104342857D01*
X96371428Y-104247619D01*
X96419047Y-104200000D01*
X96514285Y-104152381D01*
X94261905Y-116752381D02*
X94880953Y-116752381D01*
X94547619Y-117133333D01*
X94690477Y-117133333D01*
X94785715Y-117180952D01*
X94833334Y-117228571D01*
X94880953Y-117323810D01*
X94880953Y-117561905D01*
X94833334Y-117657143D01*
X94785715Y-117704762D01*
X94690477Y-117752381D01*
X94404762Y-117752381D01*
X94309524Y-117704762D01*
X94261905Y-117657143D01*
X95166667Y-116752381D02*
X95500000Y-117752381D01*
X95833334Y-116752381D01*
X96071429Y-116752381D02*
X96690477Y-116752381D01*
X96357143Y-117133333D01*
X96500001Y-117133333D01*
X96595239Y-117180952D01*
X96642858Y-117228571D01*
X96690477Y-117323810D01*
X96690477Y-117561905D01*
X96642858Y-117657143D01*
X96595239Y-117704762D01*
X96500001Y-117752381D01*
X96214286Y-117752381D01*
X96119048Y-117704762D01*
X96071429Y-117657143D01*
X94838096Y-114400000D02*
X94742858Y-114352381D01*
X94600001Y-114352381D01*
X94457143Y-114400000D01*
X94361905Y-114495238D01*
X94314286Y-114590476D01*
X94266667Y-114780952D01*
X94266667Y-114923810D01*
X94314286Y-115114286D01*
X94361905Y-115209524D01*
X94457143Y-115304762D01*
X94600001Y-115352381D01*
X94695239Y-115352381D01*
X94838096Y-115304762D01*
X94885715Y-115257143D01*
X94885715Y-114923810D01*
X94695239Y-114923810D01*
X95314286Y-115352381D02*
X95314286Y-114352381D01*
X95885715Y-115352381D01*
X95885715Y-114352381D01*
X96361905Y-115352381D02*
X96361905Y-114352381D01*
X96600000Y-114352381D01*
X96742858Y-114400000D01*
X96838096Y-114495238D01*
X96885715Y-114590476D01*
X96933334Y-114780952D01*
X96933334Y-114923810D01*
X96885715Y-115114286D01*
X96838096Y-115209524D01*
X96742858Y-115304762D01*
X96600000Y-115352381D01*
X96361905Y-115352381D01*
X94700000Y-112652381D02*
X94700000Y-111652381D01*
X95366666Y-111652381D02*
X95557143Y-111652381D01*
X95652381Y-111700000D01*
X95747619Y-111795238D01*
X95795238Y-111985714D01*
X95795238Y-112319048D01*
X95747619Y-112509524D01*
X95652381Y-112604762D01*
X95557143Y-112652381D01*
X95366666Y-112652381D01*
X95271428Y-112604762D01*
X95176190Y-112509524D01*
X95128571Y-112319048D01*
X95128571Y-111985714D01*
X95176190Y-111795238D01*
X95271428Y-111700000D01*
X95366666Y-111652381D01*
X96176190Y-111747619D02*
X96223809Y-111700000D01*
X96319047Y-111652381D01*
X96557143Y-111652381D01*
X96652381Y-111700000D01*
X96700000Y-111747619D01*
X96747619Y-111842857D01*
X96747619Y-111938095D01*
X96700000Y-112080952D01*
X96128571Y-112652381D01*
X96747619Y-112652381D01*
X94700000Y-110152381D02*
X94700000Y-109152381D01*
X95366666Y-109152381D02*
X95557143Y-109152381D01*
X95652381Y-109200000D01*
X95747619Y-109295238D01*
X95795238Y-109485714D01*
X95795238Y-109819048D01*
X95747619Y-110009524D01*
X95652381Y-110104762D01*
X95557143Y-110152381D01*
X95366666Y-110152381D01*
X95271428Y-110104762D01*
X95176190Y-110009524D01*
X95128571Y-109819048D01*
X95128571Y-109485714D01*
X95176190Y-109295238D01*
X95271428Y-109200000D01*
X95366666Y-109152381D01*
X96747619Y-110152381D02*
X96176190Y-110152381D01*
X96461904Y-110152381D02*
X96461904Y-109152381D01*
X96366666Y-109295238D01*
X96271428Y-109390476D01*
X96176190Y-109438095D01*
X95252381Y-107552381D02*
X94919047Y-107076190D01*
X94680952Y-107552381D02*
X94680952Y-106552381D01*
X95061905Y-106552381D01*
X95157143Y-106600000D01*
X95204762Y-106647619D01*
X95252381Y-106742857D01*
X95252381Y-106885714D01*
X95204762Y-106980952D01*
X95157143Y-107028571D01*
X95061905Y-107076190D01*
X94680952Y-107076190D01*
X95633333Y-107504762D02*
X95776190Y-107552381D01*
X96014286Y-107552381D01*
X96109524Y-107504762D01*
X96157143Y-107457143D01*
X96204762Y-107361905D01*
X96204762Y-107266667D01*
X96157143Y-107171429D01*
X96109524Y-107123810D01*
X96014286Y-107076190D01*
X95823809Y-107028571D01*
X95728571Y-106980952D01*
X95680952Y-106933333D01*
X95633333Y-106838095D01*
X95633333Y-106742857D01*
X95680952Y-106647619D01*
X95728571Y-106600000D01*
X95823809Y-106552381D01*
X96061905Y-106552381D01*
X96204762Y-106600000D01*
X96490476Y-106552381D02*
X97061905Y-106552381D01*
X96776190Y-107552381D02*
X96776190Y-106552381D01*
X102161905Y-116852381D02*
X102780953Y-116852381D01*
X102447619Y-117233333D01*
X102590477Y-117233333D01*
X102685715Y-117280952D01*
X102733334Y-117328571D01*
X102780953Y-117423810D01*
X102780953Y-117661905D01*
X102733334Y-117757143D01*
X102685715Y-117804762D01*
X102590477Y-117852381D01*
X102304762Y-117852381D01*
X102209524Y-117804762D01*
X102161905Y-117757143D01*
X103066667Y-116852381D02*
X103400000Y-117852381D01*
X103733334Y-116852381D01*
X103971429Y-116852381D02*
X104590477Y-116852381D01*
X104257143Y-117233333D01*
X104400001Y-117233333D01*
X104495239Y-117280952D01*
X104542858Y-117328571D01*
X104590477Y-117423810D01*
X104590477Y-117661905D01*
X104542858Y-117757143D01*
X104495239Y-117804762D01*
X104400001Y-117852381D01*
X104114286Y-117852381D01*
X104019048Y-117804762D01*
X103971429Y-117757143D01*
X102838096Y-114200000D02*
X102742858Y-114152381D01*
X102600001Y-114152381D01*
X102457143Y-114200000D01*
X102361905Y-114295238D01*
X102314286Y-114390476D01*
X102266667Y-114580952D01*
X102266667Y-114723810D01*
X102314286Y-114914286D01*
X102361905Y-115009524D01*
X102457143Y-115104762D01*
X102600001Y-115152381D01*
X102695239Y-115152381D01*
X102838096Y-115104762D01*
X102885715Y-115057143D01*
X102885715Y-114723810D01*
X102695239Y-114723810D01*
X103314286Y-115152381D02*
X103314286Y-114152381D01*
X103885715Y-115152381D01*
X103885715Y-114152381D01*
X104361905Y-115152381D02*
X104361905Y-114152381D01*
X104600000Y-114152381D01*
X104742858Y-114200000D01*
X104838096Y-114295238D01*
X104885715Y-114390476D01*
X104933334Y-114580952D01*
X104933334Y-114723810D01*
X104885715Y-114914286D01*
X104838096Y-115009524D01*
X104742858Y-115104762D01*
X104600000Y-115152381D01*
X104361905Y-115152381D01*
X102314286Y-112604762D02*
X102457143Y-112652381D01*
X102695239Y-112652381D01*
X102790477Y-112604762D01*
X102838096Y-112557143D01*
X102885715Y-112461905D01*
X102885715Y-112366667D01*
X102838096Y-112271429D01*
X102790477Y-112223810D01*
X102695239Y-112176190D01*
X102504762Y-112128571D01*
X102409524Y-112080952D01*
X102361905Y-112033333D01*
X102314286Y-111938095D01*
X102314286Y-111842857D01*
X102361905Y-111747619D01*
X102409524Y-111700000D01*
X102504762Y-111652381D01*
X102742858Y-111652381D01*
X102885715Y-111700000D01*
X103885715Y-112557143D02*
X103838096Y-112604762D01*
X103695239Y-112652381D01*
X103600001Y-112652381D01*
X103457143Y-112604762D01*
X103361905Y-112509524D01*
X103314286Y-112414286D01*
X103266667Y-112223810D01*
X103266667Y-112080952D01*
X103314286Y-111890476D01*
X103361905Y-111795238D01*
X103457143Y-111700000D01*
X103600001Y-111652381D01*
X103695239Y-111652381D01*
X103838096Y-111700000D01*
X103885715Y-111747619D01*
X104314286Y-112652381D02*
X104314286Y-111652381D01*
X104885715Y-112652381D02*
X104457143Y-112080952D01*
X104885715Y-111652381D02*
X104314286Y-112223810D01*
X102228572Y-110152381D02*
X102228572Y-109152381D01*
X102561906Y-109866667D01*
X102895239Y-109152381D01*
X102895239Y-110152381D01*
X103371429Y-110152381D02*
X103371429Y-109152381D01*
X103800000Y-110104762D02*
X103942857Y-110152381D01*
X104180953Y-110152381D01*
X104276191Y-110104762D01*
X104323810Y-110057143D01*
X104371429Y-109961905D01*
X104371429Y-109866667D01*
X104323810Y-109771429D01*
X104276191Y-109723810D01*
X104180953Y-109676190D01*
X103990476Y-109628571D01*
X103895238Y-109580952D01*
X103847619Y-109533333D01*
X103800000Y-109438095D01*
X103800000Y-109342857D01*
X103847619Y-109247619D01*
X103895238Y-109200000D01*
X103990476Y-109152381D01*
X104228572Y-109152381D01*
X104371429Y-109200000D01*
X104990476Y-109152381D02*
X105180953Y-109152381D01*
X105276191Y-109200000D01*
X105371429Y-109295238D01*
X105419048Y-109485714D01*
X105419048Y-109819048D01*
X105371429Y-110009524D01*
X105276191Y-110104762D01*
X105180953Y-110152381D01*
X104990476Y-110152381D01*
X104895238Y-110104762D01*
X104800000Y-110009524D01*
X104752381Y-109819048D01*
X104752381Y-109485714D01*
X104800000Y-109295238D01*
X104895238Y-109200000D01*
X104990476Y-109152381D01*
X102228572Y-107652381D02*
X102228572Y-106652381D01*
X102561906Y-107366667D01*
X102895239Y-106652381D01*
X102895239Y-107652381D01*
X103561905Y-106652381D02*
X103752382Y-106652381D01*
X103847620Y-106700000D01*
X103942858Y-106795238D01*
X103990477Y-106985714D01*
X103990477Y-107319048D01*
X103942858Y-107509524D01*
X103847620Y-107604762D01*
X103752382Y-107652381D01*
X103561905Y-107652381D01*
X103466667Y-107604762D01*
X103371429Y-107509524D01*
X103323810Y-107319048D01*
X103323810Y-106985714D01*
X103371429Y-106795238D01*
X103466667Y-106700000D01*
X103561905Y-106652381D01*
X104371429Y-107604762D02*
X104514286Y-107652381D01*
X104752382Y-107652381D01*
X104847620Y-107604762D01*
X104895239Y-107557143D01*
X104942858Y-107461905D01*
X104942858Y-107366667D01*
X104895239Y-107271429D01*
X104847620Y-107223810D01*
X104752382Y-107176190D01*
X104561905Y-107128571D01*
X104466667Y-107080952D01*
X104419048Y-107033333D01*
X104371429Y-106938095D01*
X104371429Y-106842857D01*
X104419048Y-106747619D01*
X104466667Y-106700000D01*
X104561905Y-106652381D01*
X104800001Y-106652381D01*
X104942858Y-106700000D01*
X105371429Y-107652381D02*
X105371429Y-106652381D01*
X103033334Y-104857143D02*
X102985715Y-104904762D01*
X102842858Y-104952381D01*
X102747620Y-104952381D01*
X102604762Y-104904762D01*
X102509524Y-104809524D01*
X102461905Y-104714286D01*
X102414286Y-104523810D01*
X102414286Y-104380952D01*
X102461905Y-104190476D01*
X102509524Y-104095238D01*
X102604762Y-104000000D01*
X102747620Y-103952381D01*
X102842858Y-103952381D01*
X102985715Y-104000000D01*
X103033334Y-104047619D01*
X103414286Y-104904762D02*
X103557143Y-104952381D01*
X103795239Y-104952381D01*
X103890477Y-104904762D01*
X103938096Y-104857143D01*
X103985715Y-104761905D01*
X103985715Y-104666667D01*
X103938096Y-104571429D01*
X103890477Y-104523810D01*
X103795239Y-104476190D01*
X103604762Y-104428571D01*
X103509524Y-104380952D01*
X103461905Y-104333333D01*
X103414286Y-104238095D01*
X103414286Y-104142857D01*
X103461905Y-104047619D01*
X103509524Y-104000000D01*
X103604762Y-103952381D01*
X103842858Y-103952381D01*
X103985715Y-104000000D01*
D12*
G36*
X121118573Y-101724436D02*
X121076696Y-101772702D01*
X121015094Y-101845938D01*
X120938576Y-101938247D01*
X120851951Y-102043732D01*
X120760026Y-102156496D01*
X120667610Y-102270642D01*
X120579511Y-102380274D01*
X120500537Y-102479493D01*
X120435497Y-102562404D01*
X120391716Y-102619726D01*
X120378527Y-102623909D01*
X120354718Y-102610350D01*
X120317215Y-102575729D01*
X120262943Y-102516725D01*
X120188827Y-102430015D01*
X120091793Y-102312280D01*
X119985053Y-102180431D01*
X119881691Y-102052899D01*
X119787690Y-101938466D01*
X119707125Y-101841968D01*
X119644072Y-101768241D01*
X119602608Y-101722122D01*
X119587133Y-101708218D01*
X119568577Y-101726214D01*
X119525009Y-101776258D01*
X119460499Y-101853430D01*
X119379119Y-101952810D01*
X119284940Y-102069478D01*
X119196590Y-102180171D01*
X119078517Y-102327927D01*
X118985764Y-102441616D01*
X118915219Y-102524643D01*
X118863766Y-102580410D01*
X118828292Y-102612322D01*
X118805684Y-102623781D01*
X118794239Y-102619963D01*
X118773053Y-102594656D01*
X118727633Y-102539000D01*
X118663116Y-102459387D01*
X118584641Y-102362208D01*
X118497345Y-102253853D01*
X118406365Y-102140714D01*
X118316839Y-102029183D01*
X118233906Y-101925649D01*
X118162701Y-101836504D01*
X118108364Y-101768139D01*
X118076031Y-101726945D01*
X118070734Y-101719950D01*
X118063953Y-101712166D01*
X118055262Y-101710169D01*
X118041371Y-101717629D01*
X118018992Y-101738215D01*
X117984835Y-101775598D01*
X117935611Y-101833447D01*
X117868032Y-101915431D01*
X117778809Y-102025222D01*
X117664652Y-102166487D01*
X117611427Y-102232436D01*
X117275169Y-102649109D01*
X116900449Y-102183953D01*
X116797737Y-102057458D01*
X116704096Y-101944046D01*
X116623699Y-101848618D01*
X116560722Y-101776078D01*
X116519339Y-101731326D01*
X116504313Y-101718797D01*
X116484278Y-101736377D01*
X116439163Y-101785826D01*
X116373177Y-101862211D01*
X116290529Y-101960595D01*
X116195428Y-102076042D01*
X116113179Y-102177408D01*
X116011829Y-102303098D01*
X115920624Y-102416152D01*
X115843595Y-102511578D01*
X115784774Y-102584383D01*
X115748191Y-102629576D01*
X115737635Y-102642506D01*
X115721938Y-102626775D01*
X115680745Y-102579123D01*
X115618009Y-102504302D01*
X115537686Y-102407067D01*
X115443731Y-102292170D01*
X115350737Y-102177532D01*
X115247224Y-102050955D01*
X115152737Y-101938248D01*
X115071402Y-101844107D01*
X115007347Y-101773225D01*
X114964698Y-101730298D01*
X114948053Y-101719428D01*
X114927917Y-101740761D01*
X114882661Y-101793730D01*
X114816516Y-101873215D01*
X114733718Y-101974099D01*
X114638497Y-102091263D01*
X114557794Y-102191319D01*
X114456491Y-102315812D01*
X114364499Y-102425986D01*
X114285933Y-102517144D01*
X114224908Y-102584591D01*
X114185538Y-102623631D01*
X114172320Y-102631176D01*
X114153451Y-102608303D01*
X114109404Y-102553990D01*
X114044419Y-102473495D01*
X113962740Y-102372079D01*
X113868608Y-102255002D01*
X113796858Y-102165648D01*
X113696611Y-102041342D01*
X113605714Y-101929774D01*
X113528399Y-101836044D01*
X113468896Y-101765252D01*
X113431435Y-101722498D01*
X113420505Y-101711946D01*
X113401696Y-101727730D01*
X113357955Y-101775720D01*
X113293355Y-101851092D01*
X113211967Y-101949023D01*
X113117864Y-102064688D01*
X113029402Y-102175256D01*
X112927783Y-102302652D01*
X112835772Y-102416930D01*
X112757383Y-102513193D01*
X112696629Y-102586542D01*
X112657524Y-102632080D01*
X112644259Y-102645265D01*
X112627029Y-102627593D01*
X112584637Y-102577927D01*
X112521104Y-102501161D01*
X112440452Y-102402193D01*
X112346700Y-102285915D01*
X112258315Y-102175371D01*
X112156338Y-102048390D01*
X112063632Y-101934937D01*
X111984269Y-101839832D01*
X111922316Y-101767894D01*
X111881842Y-101723943D01*
X111867290Y-101712213D01*
X111848467Y-101731648D01*
X111804528Y-101782760D01*
X111739695Y-101860459D01*
X111658188Y-101959653D01*
X111564229Y-102075252D01*
X111491346Y-102165648D01*
X111390884Y-102290588D01*
X111299911Y-102403593D01*
X111222666Y-102499409D01*
X111163387Y-102572782D01*
X111126313Y-102618455D01*
X111115802Y-102631180D01*
X111097266Y-102618746D01*
X111053545Y-102574086D01*
X110988697Y-102501819D01*
X110906775Y-102406565D01*
X110811835Y-102292943D01*
X110717939Y-102177966D01*
X110614378Y-102051327D01*
X110519841Y-101938556D01*
X110438455Y-101844345D01*
X110374343Y-101773387D01*
X110331631Y-101730374D01*
X110314905Y-101719428D01*
X110294769Y-101740761D01*
X110249512Y-101793730D01*
X110183368Y-101873215D01*
X110100569Y-101974099D01*
X110005349Y-102091263D01*
X109924646Y-102191319D01*
X109823360Y-102315807D01*
X109731406Y-102425978D01*
X109652896Y-102517134D01*
X109591941Y-102584582D01*
X109552651Y-102623627D01*
X109539502Y-102631176D01*
X109520292Y-102607905D01*
X109476286Y-102553833D01*
X109412204Y-102474784D01*
X109332765Y-102376581D01*
X109242689Y-102265048D01*
X109224159Y-102242084D01*
X109132702Y-102129832D01*
X109050675Y-102031253D01*
X108982792Y-101951841D01*
X108933763Y-101897088D01*
X108908302Y-101872488D01*
X108906377Y-101871667D01*
X108879515Y-101885313D01*
X108827907Y-101920965D01*
X108767429Y-101967221D01*
X108647418Y-102062775D01*
X109075977Y-102595658D01*
X109186502Y-102733137D01*
X109288185Y-102859711D01*
X109377073Y-102970452D01*
X109449212Y-103060431D01*
X109500651Y-103124722D01*
X109527435Y-103158394D01*
X109529647Y-103161232D01*
X109543628Y-103164516D01*
X109569333Y-103148401D01*
X109609795Y-103109600D01*
X109668050Y-103044826D01*
X109747134Y-102950790D01*
X109850081Y-102824205D01*
X109911527Y-102747586D01*
X110012528Y-102621797D01*
X110105236Y-102507407D01*
X110185174Y-102409854D01*
X110247867Y-102334578D01*
X110288837Y-102287015D01*
X110301995Y-102273284D01*
X110316921Y-102270070D01*
X110340418Y-102282297D01*
X110375807Y-102313514D01*
X110426406Y-102367272D01*
X110495537Y-102447122D01*
X110586521Y-102556614D01*
X110702676Y-102699299D01*
X110717351Y-102717444D01*
X110820282Y-102844276D01*
X110913138Y-102957743D01*
X110991968Y-103053093D01*
X111052820Y-103125574D01*
X111091742Y-103170434D01*
X111104763Y-103183258D01*
X111120481Y-103163981D01*
X111161680Y-103113065D01*
X111224329Y-103035500D01*
X111304401Y-102936277D01*
X111397866Y-102820386D01*
X111480132Y-102718334D01*
X111582072Y-102592442D01*
X111674678Y-102479210D01*
X111753770Y-102383654D01*
X111815169Y-102310795D01*
X111854695Y-102265652D01*
X111867740Y-102252872D01*
X111886624Y-102268657D01*
X111930433Y-102316650D01*
X111995093Y-102392026D01*
X112076528Y-102489963D01*
X112170662Y-102605634D01*
X112259116Y-102716182D01*
X112360732Y-102843568D01*
X112452741Y-102957824D01*
X112531129Y-103054057D01*
X112591883Y-103127369D01*
X112630991Y-103172864D01*
X112644259Y-103186011D01*
X112661479Y-103168280D01*
X112703838Y-103118542D01*
X112767319Y-103041699D01*
X112847902Y-102942653D01*
X112941567Y-102826305D01*
X113029680Y-102715942D01*
X113131570Y-102588931D01*
X113224235Y-102475470D01*
X113303603Y-102380381D01*
X113365598Y-102308487D01*
X113406149Y-102264608D01*
X113420783Y-102252965D01*
X113439766Y-102272461D01*
X113483829Y-102323650D01*
X113548746Y-102401434D01*
X113630289Y-102500714D01*
X113724233Y-102616392D01*
X113796858Y-102706574D01*
X113897257Y-102831576D01*
X113988226Y-102944656D01*
X114065516Y-103040551D01*
X114124881Y-103113994D01*
X114162073Y-103159721D01*
X114172673Y-103172455D01*
X114191432Y-103160221D01*
X114235021Y-103115729D01*
X114299262Y-103043750D01*
X114379979Y-102949054D01*
X114472996Y-102836414D01*
X114545649Y-102746368D01*
X114646503Y-102620761D01*
X114739053Y-102506564D01*
X114818818Y-102409224D01*
X114881317Y-102334182D01*
X114922066Y-102286885D01*
X114934983Y-102273417D01*
X114949950Y-102270339D01*
X114973652Y-102282885D01*
X115009394Y-102314592D01*
X115060482Y-102368999D01*
X115130220Y-102449641D01*
X115221915Y-102560057D01*
X115338871Y-102703784D01*
X115350165Y-102717751D01*
X115453093Y-102844584D01*
X115545953Y-102958040D01*
X115624795Y-103053369D01*
X115685666Y-103125820D01*
X115724613Y-103170645D01*
X115737662Y-103183432D01*
X115753396Y-103164095D01*
X115794583Y-103113103D01*
X115857195Y-103035455D01*
X115937204Y-102936147D01*
X116030582Y-102820177D01*
X116112550Y-102718334D01*
X116214465Y-102592732D01*
X116307352Y-102480259D01*
X116386995Y-102385856D01*
X116449181Y-102314464D01*
X116489695Y-102271026D01*
X116503656Y-102259722D01*
X116523833Y-102277314D01*
X116569097Y-102326820D01*
X116635265Y-102403335D01*
X116718152Y-102501954D01*
X116813575Y-102617772D01*
X116900183Y-102724548D01*
X117274637Y-103189374D01*
X117574765Y-102818622D01*
X117672119Y-102698327D01*
X117764847Y-102583690D01*
X117846814Y-102482299D01*
X117911890Y-102401739D01*
X117953940Y-102349595D01*
X117955932Y-102347119D01*
X118003518Y-102292786D01*
X118040658Y-102259051D01*
X118054969Y-102253045D01*
X118074064Y-102272560D01*
X118118133Y-102323837D01*
X118182952Y-102401762D01*
X118264294Y-102501218D01*
X118357936Y-102617092D01*
X118429610Y-102706574D01*
X118529586Y-102831684D01*
X118620211Y-102944801D01*
X118697238Y-103040650D01*
X118756423Y-103113954D01*
X118793520Y-103159437D01*
X118804072Y-103171898D01*
X118822878Y-103159331D01*
X118866585Y-103114372D01*
X118931135Y-103041692D01*
X119012468Y-102945965D01*
X119106527Y-102831863D01*
X119196175Y-102720499D01*
X119298277Y-102593064D01*
X119391074Y-102478653D01*
X119470487Y-102382183D01*
X119532432Y-102308574D01*
X119572829Y-102262743D01*
X119587223Y-102249296D01*
X119606165Y-102266454D01*
X119649871Y-102315239D01*
X119713902Y-102390403D01*
X119793820Y-102486700D01*
X119885184Y-102598882D01*
X119928242Y-102652390D01*
X120026740Y-102774928D01*
X120118736Y-102888793D01*
X120198976Y-102987530D01*
X120262209Y-103064683D01*
X120303181Y-103113797D01*
X120311296Y-103123174D01*
X120370092Y-103189533D01*
X120745023Y-102718293D01*
X120847156Y-102591034D01*
X120940137Y-102477293D01*
X121019886Y-102381889D01*
X121082322Y-102309645D01*
X121123365Y-102265381D01*
X121138506Y-102253388D01*
X121157754Y-102272708D01*
X121202247Y-102323774D01*
X121267830Y-102401616D01*
X121350350Y-102501261D01*
X121445651Y-102617738D01*
X121532581Y-102724996D01*
X121908103Y-103190270D01*
X122286223Y-102719117D01*
X122389061Y-102591815D01*
X122482580Y-102477650D01*
X122562693Y-102381480D01*
X122625316Y-102308163D01*
X122666363Y-102262557D01*
X122681384Y-102249204D01*
X122699426Y-102266852D01*
X122741574Y-102314947D01*
X122802626Y-102387147D01*
X122877381Y-102477107D01*
X122960636Y-102578484D01*
X123047192Y-102684934D01*
X123131846Y-102790115D01*
X123209396Y-102887682D01*
X123274642Y-102971292D01*
X123291115Y-102992806D01*
X123310433Y-103009268D01*
X123336899Y-103006237D01*
X123380150Y-102979795D01*
X123443986Y-102930683D01*
X123506742Y-102878299D01*
X123551512Y-102836315D01*
X123568611Y-102813815D01*
X123568611Y-102813805D01*
X123554490Y-102791202D01*
X123515090Y-102737884D01*
X123454855Y-102659394D01*
X123378227Y-102561275D01*
X123289650Y-102449068D01*
X123193567Y-102328315D01*
X123094422Y-102204559D01*
X122996657Y-102083342D01*
X122904716Y-101970207D01*
X122823043Y-101870694D01*
X122756080Y-101790347D01*
X122708271Y-101734708D01*
X122684059Y-101709319D01*
X122682337Y-101708343D01*
X122663842Y-101725558D01*
X122620105Y-101774705D01*
X122555207Y-101850938D01*
X122473226Y-101949408D01*
X122378243Y-102065271D01*
X122286928Y-102178035D01*
X121907607Y-102649034D01*
X121588374Y-102254471D01*
X121490169Y-102132895D01*
X121398557Y-102019116D01*
X121318919Y-101919844D01*
X121256634Y-101841787D01*
X121217079Y-101791656D01*
X121210760Y-101783472D01*
X121170509Y-101735564D01*
X121141051Y-101708960D01*
X121135917Y-101707037D01*
X121118573Y-101724436D01*
X121118573Y-101724436D01*
G37*
X121118573Y-101724436D02*
X121076696Y-101772702D01*
X121015094Y-101845938D01*
X120938576Y-101938247D01*
X120851951Y-102043732D01*
X120760026Y-102156496D01*
X120667610Y-102270642D01*
X120579511Y-102380274D01*
X120500537Y-102479493D01*
X120435497Y-102562404D01*
X120391716Y-102619726D01*
X120378527Y-102623909D01*
X120354718Y-102610350D01*
X120317215Y-102575729D01*
X120262943Y-102516725D01*
X120188827Y-102430015D01*
X120091793Y-102312280D01*
X119985053Y-102180431D01*
X119881691Y-102052899D01*
X119787690Y-101938466D01*
X119707125Y-101841968D01*
X119644072Y-101768241D01*
X119602608Y-101722122D01*
X119587133Y-101708218D01*
X119568577Y-101726214D01*
X119525009Y-101776258D01*
X119460499Y-101853430D01*
X119379119Y-101952810D01*
X119284940Y-102069478D01*
X119196590Y-102180171D01*
X119078517Y-102327927D01*
X118985764Y-102441616D01*
X118915219Y-102524643D01*
X118863766Y-102580410D01*
X118828292Y-102612322D01*
X118805684Y-102623781D01*
X118794239Y-102619963D01*
X118773053Y-102594656D01*
X118727633Y-102539000D01*
X118663116Y-102459387D01*
X118584641Y-102362208D01*
X118497345Y-102253853D01*
X118406365Y-102140714D01*
X118316839Y-102029183D01*
X118233906Y-101925649D01*
X118162701Y-101836504D01*
X118108364Y-101768139D01*
X118076031Y-101726945D01*
X118070734Y-101719950D01*
X118063953Y-101712166D01*
X118055262Y-101710169D01*
X118041371Y-101717629D01*
X118018992Y-101738215D01*
X117984835Y-101775598D01*
X117935611Y-101833447D01*
X117868032Y-101915431D01*
X117778809Y-102025222D01*
X117664652Y-102166487D01*
X117611427Y-102232436D01*
X117275169Y-102649109D01*
X116900449Y-102183953D01*
X116797737Y-102057458D01*
X116704096Y-101944046D01*
X116623699Y-101848618D01*
X116560722Y-101776078D01*
X116519339Y-101731326D01*
X116504313Y-101718797D01*
X116484278Y-101736377D01*
X116439163Y-101785826D01*
X116373177Y-101862211D01*
X116290529Y-101960595D01*
X116195428Y-102076042D01*
X116113179Y-102177408D01*
X116011829Y-102303098D01*
X115920624Y-102416152D01*
X115843595Y-102511578D01*
X115784774Y-102584383D01*
X115748191Y-102629576D01*
X115737635Y-102642506D01*
X115721938Y-102626775D01*
X115680745Y-102579123D01*
X115618009Y-102504302D01*
X115537686Y-102407067D01*
X115443731Y-102292170D01*
X115350737Y-102177532D01*
X115247224Y-102050955D01*
X115152737Y-101938248D01*
X115071402Y-101844107D01*
X115007347Y-101773225D01*
X114964698Y-101730298D01*
X114948053Y-101719428D01*
X114927917Y-101740761D01*
X114882661Y-101793730D01*
X114816516Y-101873215D01*
X114733718Y-101974099D01*
X114638497Y-102091263D01*
X114557794Y-102191319D01*
X114456491Y-102315812D01*
X114364499Y-102425986D01*
X114285933Y-102517144D01*
X114224908Y-102584591D01*
X114185538Y-102623631D01*
X114172320Y-102631176D01*
X114153451Y-102608303D01*
X114109404Y-102553990D01*
X114044419Y-102473495D01*
X113962740Y-102372079D01*
X113868608Y-102255002D01*
X113796858Y-102165648D01*
X113696611Y-102041342D01*
X113605714Y-101929774D01*
X113528399Y-101836044D01*
X113468896Y-101765252D01*
X113431435Y-101722498D01*
X113420505Y-101711946D01*
X113401696Y-101727730D01*
X113357955Y-101775720D01*
X113293355Y-101851092D01*
X113211967Y-101949023D01*
X113117864Y-102064688D01*
X113029402Y-102175256D01*
X112927783Y-102302652D01*
X112835772Y-102416930D01*
X112757383Y-102513193D01*
X112696629Y-102586542D01*
X112657524Y-102632080D01*
X112644259Y-102645265D01*
X112627029Y-102627593D01*
X112584637Y-102577927D01*
X112521104Y-102501161D01*
X112440452Y-102402193D01*
X112346700Y-102285915D01*
X112258315Y-102175371D01*
X112156338Y-102048390D01*
X112063632Y-101934937D01*
X111984269Y-101839832D01*
X111922316Y-101767894D01*
X111881842Y-101723943D01*
X111867290Y-101712213D01*
X111848467Y-101731648D01*
X111804528Y-101782760D01*
X111739695Y-101860459D01*
X111658188Y-101959653D01*
X111564229Y-102075252D01*
X111491346Y-102165648D01*
X111390884Y-102290588D01*
X111299911Y-102403593D01*
X111222666Y-102499409D01*
X111163387Y-102572782D01*
X111126313Y-102618455D01*
X111115802Y-102631180D01*
X111097266Y-102618746D01*
X111053545Y-102574086D01*
X110988697Y-102501819D01*
X110906775Y-102406565D01*
X110811835Y-102292943D01*
X110717939Y-102177966D01*
X110614378Y-102051327D01*
X110519841Y-101938556D01*
X110438455Y-101844345D01*
X110374343Y-101773387D01*
X110331631Y-101730374D01*
X110314905Y-101719428D01*
X110294769Y-101740761D01*
X110249512Y-101793730D01*
X110183368Y-101873215D01*
X110100569Y-101974099D01*
X110005349Y-102091263D01*
X109924646Y-102191319D01*
X109823360Y-102315807D01*
X109731406Y-102425978D01*
X109652896Y-102517134D01*
X109591941Y-102584582D01*
X109552651Y-102623627D01*
X109539502Y-102631176D01*
X109520292Y-102607905D01*
X109476286Y-102553833D01*
X109412204Y-102474784D01*
X109332765Y-102376581D01*
X109242689Y-102265048D01*
X109224159Y-102242084D01*
X109132702Y-102129832D01*
X109050675Y-102031253D01*
X108982792Y-101951841D01*
X108933763Y-101897088D01*
X108908302Y-101872488D01*
X108906377Y-101871667D01*
X108879515Y-101885313D01*
X108827907Y-101920965D01*
X108767429Y-101967221D01*
X108647418Y-102062775D01*
X109075977Y-102595658D01*
X109186502Y-102733137D01*
X109288185Y-102859711D01*
X109377073Y-102970452D01*
X109449212Y-103060431D01*
X109500651Y-103124722D01*
X109527435Y-103158394D01*
X109529647Y-103161232D01*
X109543628Y-103164516D01*
X109569333Y-103148401D01*
X109609795Y-103109600D01*
X109668050Y-103044826D01*
X109747134Y-102950790D01*
X109850081Y-102824205D01*
X109911527Y-102747586D01*
X110012528Y-102621797D01*
X110105236Y-102507407D01*
X110185174Y-102409854D01*
X110247867Y-102334578D01*
X110288837Y-102287015D01*
X110301995Y-102273284D01*
X110316921Y-102270070D01*
X110340418Y-102282297D01*
X110375807Y-102313514D01*
X110426406Y-102367272D01*
X110495537Y-102447122D01*
X110586521Y-102556614D01*
X110702676Y-102699299D01*
X110717351Y-102717444D01*
X110820282Y-102844276D01*
X110913138Y-102957743D01*
X110991968Y-103053093D01*
X111052820Y-103125574D01*
X111091742Y-103170434D01*
X111104763Y-103183258D01*
X111120481Y-103163981D01*
X111161680Y-103113065D01*
X111224329Y-103035500D01*
X111304401Y-102936277D01*
X111397866Y-102820386D01*
X111480132Y-102718334D01*
X111582072Y-102592442D01*
X111674678Y-102479210D01*
X111753770Y-102383654D01*
X111815169Y-102310795D01*
X111854695Y-102265652D01*
X111867740Y-102252872D01*
X111886624Y-102268657D01*
X111930433Y-102316650D01*
X111995093Y-102392026D01*
X112076528Y-102489963D01*
X112170662Y-102605634D01*
X112259116Y-102716182D01*
X112360732Y-102843568D01*
X112452741Y-102957824D01*
X112531129Y-103054057D01*
X112591883Y-103127369D01*
X112630991Y-103172864D01*
X112644259Y-103186011D01*
X112661479Y-103168280D01*
X112703838Y-103118542D01*
X112767319Y-103041699D01*
X112847902Y-102942653D01*
X112941567Y-102826305D01*
X113029680Y-102715942D01*
X113131570Y-102588931D01*
X113224235Y-102475470D01*
X113303603Y-102380381D01*
X113365598Y-102308487D01*
X113406149Y-102264608D01*
X113420783Y-102252965D01*
X113439766Y-102272461D01*
X113483829Y-102323650D01*
X113548746Y-102401434D01*
X113630289Y-102500714D01*
X113724233Y-102616392D01*
X113796858Y-102706574D01*
X113897257Y-102831576D01*
X113988226Y-102944656D01*
X114065516Y-103040551D01*
X114124881Y-103113994D01*
X114162073Y-103159721D01*
X114172673Y-103172455D01*
X114191432Y-103160221D01*
X114235021Y-103115729D01*
X114299262Y-103043750D01*
X114379979Y-102949054D01*
X114472996Y-102836414D01*
X114545649Y-102746368D01*
X114646503Y-102620761D01*
X114739053Y-102506564D01*
X114818818Y-102409224D01*
X114881317Y-102334182D01*
X114922066Y-102286885D01*
X114934983Y-102273417D01*
X114949950Y-102270339D01*
X114973652Y-102282885D01*
X115009394Y-102314592D01*
X115060482Y-102368999D01*
X115130220Y-102449641D01*
X115221915Y-102560057D01*
X115338871Y-102703784D01*
X115350165Y-102717751D01*
X115453093Y-102844584D01*
X115545953Y-102958040D01*
X115624795Y-103053369D01*
X115685666Y-103125820D01*
X115724613Y-103170645D01*
X115737662Y-103183432D01*
X115753396Y-103164095D01*
X115794583Y-103113103D01*
X115857195Y-103035455D01*
X115937204Y-102936147D01*
X116030582Y-102820177D01*
X116112550Y-102718334D01*
X116214465Y-102592732D01*
X116307352Y-102480259D01*
X116386995Y-102385856D01*
X116449181Y-102314464D01*
X116489695Y-102271026D01*
X116503656Y-102259722D01*
X116523833Y-102277314D01*
X116569097Y-102326820D01*
X116635265Y-102403335D01*
X116718152Y-102501954D01*
X116813575Y-102617772D01*
X116900183Y-102724548D01*
X117274637Y-103189374D01*
X117574765Y-102818622D01*
X117672119Y-102698327D01*
X117764847Y-102583690D01*
X117846814Y-102482299D01*
X117911890Y-102401739D01*
X117953940Y-102349595D01*
X117955932Y-102347119D01*
X118003518Y-102292786D01*
X118040658Y-102259051D01*
X118054969Y-102253045D01*
X118074064Y-102272560D01*
X118118133Y-102323837D01*
X118182952Y-102401762D01*
X118264294Y-102501218D01*
X118357936Y-102617092D01*
X118429610Y-102706574D01*
X118529586Y-102831684D01*
X118620211Y-102944801D01*
X118697238Y-103040650D01*
X118756423Y-103113954D01*
X118793520Y-103159437D01*
X118804072Y-103171898D01*
X118822878Y-103159331D01*
X118866585Y-103114372D01*
X118931135Y-103041692D01*
X119012468Y-102945965D01*
X119106527Y-102831863D01*
X119196175Y-102720499D01*
X119298277Y-102593064D01*
X119391074Y-102478653D01*
X119470487Y-102382183D01*
X119532432Y-102308574D01*
X119572829Y-102262743D01*
X119587223Y-102249296D01*
X119606165Y-102266454D01*
X119649871Y-102315239D01*
X119713902Y-102390403D01*
X119793820Y-102486700D01*
X119885184Y-102598882D01*
X119928242Y-102652390D01*
X120026740Y-102774928D01*
X120118736Y-102888793D01*
X120198976Y-102987530D01*
X120262209Y-103064683D01*
X120303181Y-103113797D01*
X120311296Y-103123174D01*
X120370092Y-103189533D01*
X120745023Y-102718293D01*
X120847156Y-102591034D01*
X120940137Y-102477293D01*
X121019886Y-102381889D01*
X121082322Y-102309645D01*
X121123365Y-102265381D01*
X121138506Y-102253388D01*
X121157754Y-102272708D01*
X121202247Y-102323774D01*
X121267830Y-102401616D01*
X121350350Y-102501261D01*
X121445651Y-102617738D01*
X121532581Y-102724996D01*
X121908103Y-103190270D01*
X122286223Y-102719117D01*
X122389061Y-102591815D01*
X122482580Y-102477650D01*
X122562693Y-102381480D01*
X122625316Y-102308163D01*
X122666363Y-102262557D01*
X122681384Y-102249204D01*
X122699426Y-102266852D01*
X122741574Y-102314947D01*
X122802626Y-102387147D01*
X122877381Y-102477107D01*
X122960636Y-102578484D01*
X123047192Y-102684934D01*
X123131846Y-102790115D01*
X123209396Y-102887682D01*
X123274642Y-102971292D01*
X123291115Y-102992806D01*
X123310433Y-103009268D01*
X123336899Y-103006237D01*
X123380150Y-102979795D01*
X123443986Y-102930683D01*
X123506742Y-102878299D01*
X123551512Y-102836315D01*
X123568611Y-102813815D01*
X123568611Y-102813805D01*
X123554490Y-102791202D01*
X123515090Y-102737884D01*
X123454855Y-102659394D01*
X123378227Y-102561275D01*
X123289650Y-102449068D01*
X123193567Y-102328315D01*
X123094422Y-102204559D01*
X122996657Y-102083342D01*
X122904716Y-101970207D01*
X122823043Y-101870694D01*
X122756080Y-101790347D01*
X122708271Y-101734708D01*
X122684059Y-101709319D01*
X122682337Y-101708343D01*
X122663842Y-101725558D01*
X122620105Y-101774705D01*
X122555207Y-101850938D01*
X122473226Y-101949408D01*
X122378243Y-102065271D01*
X122286928Y-102178035D01*
X121907607Y-102649034D01*
X121588374Y-102254471D01*
X121490169Y-102132895D01*
X121398557Y-102019116D01*
X121318919Y-101919844D01*
X121256634Y-101841787D01*
X121217079Y-101791656D01*
X121210760Y-101783472D01*
X121170509Y-101735564D01*
X121141051Y-101708960D01*
X121135917Y-101707037D01*
X121118573Y-101724436D01*
G36*
X122350334Y-98933778D02*
X122201494Y-98940571D01*
X122083515Y-98953755D01*
X121988369Y-98974853D01*
X121908028Y-99005390D01*
X121834463Y-99046890D01*
X121797450Y-99072416D01*
X121697159Y-99165238D01*
X121632404Y-99276216D01*
X121599558Y-99413316D01*
X121593600Y-99519815D01*
X121596088Y-99620936D01*
X121607009Y-99693619D01*
X121630422Y-99756260D01*
X121656244Y-99803688D01*
X121707762Y-99874065D01*
X121774405Y-99942446D01*
X121844147Y-99998551D01*
X121904961Y-100032101D01*
X121929458Y-100037222D01*
X121955869Y-100052149D01*
X121957592Y-100059967D01*
X121948160Y-100087387D01*
X121921847Y-100150635D01*
X121881631Y-100242899D01*
X121830491Y-100357367D01*
X121771402Y-100487229D01*
X121759698Y-100512699D01*
X121561804Y-100942685D01*
X121728099Y-100949670D01*
X121814402Y-100951818D01*
X121883082Y-100950824D01*
X121919746Y-100946910D01*
X121920316Y-100946706D01*
X121937664Y-100923097D01*
X121970612Y-100863238D01*
X122015747Y-100773901D01*
X122069657Y-100661861D01*
X122128928Y-100533889D01*
X122134184Y-100522317D01*
X122322129Y-100107874D01*
X122457361Y-100107826D01*
X122592592Y-100107778D01*
X122592592Y-100954445D01*
X122945370Y-100954445D01*
X122945370Y-99261111D01*
X122592592Y-99261111D01*
X122592592Y-99504136D01*
X122591161Y-99606731D01*
X122587296Y-99691148D01*
X122581645Y-99746732D01*
X122576913Y-99762840D01*
X122542027Y-99773444D01*
X122473618Y-99777946D01*
X122384759Y-99776684D01*
X122288520Y-99769997D01*
X122197973Y-99758222D01*
X122166575Y-99752227D01*
X122050557Y-99713513D01*
X121975525Y-99654547D01*
X121938853Y-99572708D01*
X121934074Y-99519815D01*
X121952874Y-99426491D01*
X122010035Y-99354549D01*
X122106699Y-99303406D01*
X122244008Y-99272479D01*
X122423104Y-99261185D01*
X122440879Y-99261111D01*
X122592592Y-99261111D01*
X122945370Y-99261111D01*
X122945370Y-98931852D01*
X122538065Y-98931852D01*
X122350334Y-98933778D01*
X122350334Y-98933778D01*
G37*
X122350334Y-98933778D02*
X122201494Y-98940571D01*
X122083515Y-98953755D01*
X121988369Y-98974853D01*
X121908028Y-99005390D01*
X121834463Y-99046890D01*
X121797450Y-99072416D01*
X121697159Y-99165238D01*
X121632404Y-99276216D01*
X121599558Y-99413316D01*
X121593600Y-99519815D01*
X121596088Y-99620936D01*
X121607009Y-99693619D01*
X121630422Y-99756260D01*
X121656244Y-99803688D01*
X121707762Y-99874065D01*
X121774405Y-99942446D01*
X121844147Y-99998551D01*
X121904961Y-100032101D01*
X121929458Y-100037222D01*
X121955869Y-100052149D01*
X121957592Y-100059967D01*
X121948160Y-100087387D01*
X121921847Y-100150635D01*
X121881631Y-100242899D01*
X121830491Y-100357367D01*
X121771402Y-100487229D01*
X121759698Y-100512699D01*
X121561804Y-100942685D01*
X121728099Y-100949670D01*
X121814402Y-100951818D01*
X121883082Y-100950824D01*
X121919746Y-100946910D01*
X121920316Y-100946706D01*
X121937664Y-100923097D01*
X121970612Y-100863238D01*
X122015747Y-100773901D01*
X122069657Y-100661861D01*
X122128928Y-100533889D01*
X122134184Y-100522317D01*
X122322129Y-100107874D01*
X122457361Y-100107826D01*
X122592592Y-100107778D01*
X122592592Y-100954445D01*
X122945370Y-100954445D01*
X122945370Y-99261111D01*
X122592592Y-99261111D01*
X122592592Y-99504136D01*
X122591161Y-99606731D01*
X122587296Y-99691148D01*
X122581645Y-99746732D01*
X122576913Y-99762840D01*
X122542027Y-99773444D01*
X122473618Y-99777946D01*
X122384759Y-99776684D01*
X122288520Y-99769997D01*
X122197973Y-99758222D01*
X122166575Y-99752227D01*
X122050557Y-99713513D01*
X121975525Y-99654547D01*
X121938853Y-99572708D01*
X121934074Y-99519815D01*
X121952874Y-99426491D01*
X122010035Y-99354549D01*
X122106699Y-99303406D01*
X122244008Y-99272479D01*
X122423104Y-99261185D01*
X122440879Y-99261111D01*
X122592592Y-99261111D01*
X122945370Y-99261111D01*
X122945370Y-98931852D01*
X122538065Y-98931852D01*
X122350334Y-98933778D01*
G36*
X120366536Y-98929386D02*
X120339068Y-98988271D01*
X120298913Y-99079608D01*
X120248490Y-99197800D01*
X120190217Y-99337246D01*
X120126513Y-99492348D01*
X120122511Y-99502176D01*
X120057125Y-99662795D01*
X119986425Y-99836384D01*
X119913003Y-100016586D01*
X119839453Y-100197045D01*
X119768365Y-100371404D01*
X119702332Y-100533307D01*
X119643946Y-100676396D01*
X119595799Y-100794315D01*
X119560483Y-100880707D01*
X119541896Y-100926044D01*
X119545722Y-100941037D01*
X119577146Y-100949226D01*
X119643013Y-100951483D01*
X119726313Y-100949563D01*
X119923240Y-100942685D01*
X120145974Y-100395880D01*
X120207257Y-100246614D01*
X120263074Y-100112909D01*
X120310917Y-100000593D01*
X120348277Y-99915496D01*
X120372644Y-99863447D01*
X120381159Y-99849515D01*
X120392940Y-99870528D01*
X120419599Y-99929433D01*
X120458665Y-100020400D01*
X120507666Y-100137601D01*
X120564131Y-100275206D01*
X120615482Y-100402200D01*
X120837353Y-100954445D01*
X121023919Y-100954445D01*
X121116548Y-100953697D01*
X121171036Y-100949780D01*
X121196274Y-100940182D01*
X121201153Y-100922392D01*
X121197653Y-100905373D01*
X121184673Y-100867632D01*
X121156536Y-100793729D01*
X121115401Y-100688926D01*
X121063425Y-100558487D01*
X121002766Y-100407674D01*
X120935581Y-100241749D01*
X120864029Y-100065975D01*
X120790268Y-99885615D01*
X120716455Y-99705931D01*
X120644747Y-99532186D01*
X120577304Y-99369642D01*
X120516282Y-99223563D01*
X120463840Y-99099210D01*
X120422135Y-99001846D01*
X120393325Y-98936734D01*
X120379568Y-98909136D01*
X120378899Y-98908553D01*
X120366536Y-98929386D01*
X120366536Y-98929386D01*
G37*
X120366536Y-98929386D02*
X120339068Y-98988271D01*
X120298913Y-99079608D01*
X120248490Y-99197800D01*
X120190217Y-99337246D01*
X120126513Y-99492348D01*
X120122511Y-99502176D01*
X120057125Y-99662795D01*
X119986425Y-99836384D01*
X119913003Y-100016586D01*
X119839453Y-100197045D01*
X119768365Y-100371404D01*
X119702332Y-100533307D01*
X119643946Y-100676396D01*
X119595799Y-100794315D01*
X119560483Y-100880707D01*
X119541896Y-100926044D01*
X119545722Y-100941037D01*
X119577146Y-100949226D01*
X119643013Y-100951483D01*
X119726313Y-100949563D01*
X119923240Y-100942685D01*
X120145974Y-100395880D01*
X120207257Y-100246614D01*
X120263074Y-100112909D01*
X120310917Y-100000593D01*
X120348277Y-99915496D01*
X120372644Y-99863447D01*
X120381159Y-99849515D01*
X120392940Y-99870528D01*
X120419599Y-99929433D01*
X120458665Y-100020400D01*
X120507666Y-100137601D01*
X120564131Y-100275206D01*
X120615482Y-100402200D01*
X120837353Y-100954445D01*
X121023919Y-100954445D01*
X121116548Y-100953697D01*
X121171036Y-100949780D01*
X121196274Y-100940182D01*
X121201153Y-100922392D01*
X121197653Y-100905373D01*
X121184673Y-100867632D01*
X121156536Y-100793729D01*
X121115401Y-100688926D01*
X121063425Y-100558487D01*
X121002766Y-100407674D01*
X120935581Y-100241749D01*
X120864029Y-100065975D01*
X120790268Y-99885615D01*
X120716455Y-99705931D01*
X120644747Y-99532186D01*
X120577304Y-99369642D01*
X120516282Y-99223563D01*
X120463840Y-99099210D01*
X120422135Y-99001846D01*
X120393325Y-98936734D01*
X120379568Y-98909136D01*
X120378899Y-98908553D01*
X120366536Y-98929386D01*
G36*
X118659079Y-98948372D02*
X118412545Y-98997362D01*
X118196605Y-99077971D01*
X118012997Y-99189346D01*
X117863459Y-99330635D01*
X117749729Y-99500986D01*
X117741693Y-99516932D01*
X117708602Y-99586847D01*
X117686788Y-99644721D01*
X117673912Y-99703643D01*
X117667632Y-99776702D01*
X117665609Y-99876988D01*
X117665463Y-99943265D01*
X117666207Y-100062568D01*
X117670002Y-100147931D01*
X117679196Y-100212447D01*
X117696132Y-100269209D01*
X117723156Y-100331307D01*
X117741896Y-100369894D01*
X117849556Y-100536251D01*
X117994539Y-100676899D01*
X118173874Y-100790400D01*
X118384595Y-100875318D01*
X118623732Y-100930214D01*
X118888316Y-100953653D01*
X118949291Y-100954445D01*
X119158888Y-100954445D01*
X119158888Y-99947887D01*
X118829629Y-99947887D01*
X118829629Y-100608368D01*
X118692694Y-100594055D01*
X118588331Y-100576236D01*
X118475664Y-100546862D01*
X118422990Y-100528935D01*
X118259261Y-100445751D01*
X118134654Y-100336782D01*
X118049609Y-100202644D01*
X118004566Y-100043956D01*
X117996928Y-99931389D01*
X118017313Y-99763886D01*
X118077691Y-99620004D01*
X118179016Y-99498280D01*
X118322243Y-99397255D01*
X118358544Y-99378126D01*
X118423096Y-99352249D01*
X118509152Y-99326131D01*
X118603767Y-99302641D01*
X118693998Y-99284645D01*
X118766901Y-99275011D01*
X118809530Y-99276606D01*
X118811990Y-99277685D01*
X118816558Y-99302803D01*
X118820687Y-99368898D01*
X118824216Y-99469912D01*
X118826987Y-99599786D01*
X118828840Y-99752463D01*
X118829616Y-99921883D01*
X118829629Y-99947887D01*
X119158888Y-99947887D01*
X119158888Y-98931852D01*
X118934471Y-98931852D01*
X118659079Y-98948372D01*
X118659079Y-98948372D01*
G37*
X118659079Y-98948372D02*
X118412545Y-98997362D01*
X118196605Y-99077971D01*
X118012997Y-99189346D01*
X117863459Y-99330635D01*
X117749729Y-99500986D01*
X117741693Y-99516932D01*
X117708602Y-99586847D01*
X117686788Y-99644721D01*
X117673912Y-99703643D01*
X117667632Y-99776702D01*
X117665609Y-99876988D01*
X117665463Y-99943265D01*
X117666207Y-100062568D01*
X117670002Y-100147931D01*
X117679196Y-100212447D01*
X117696132Y-100269209D01*
X117723156Y-100331307D01*
X117741896Y-100369894D01*
X117849556Y-100536251D01*
X117994539Y-100676899D01*
X118173874Y-100790400D01*
X118384595Y-100875318D01*
X118623732Y-100930214D01*
X118888316Y-100953653D01*
X118949291Y-100954445D01*
X119158888Y-100954445D01*
X119158888Y-99947887D01*
X118829629Y-99947887D01*
X118829629Y-100608368D01*
X118692694Y-100594055D01*
X118588331Y-100576236D01*
X118475664Y-100546862D01*
X118422990Y-100528935D01*
X118259261Y-100445751D01*
X118134654Y-100336782D01*
X118049609Y-100202644D01*
X118004566Y-100043956D01*
X117996928Y-99931389D01*
X118017313Y-99763886D01*
X118077691Y-99620004D01*
X118179016Y-99498280D01*
X118322243Y-99397255D01*
X118358544Y-99378126D01*
X118423096Y-99352249D01*
X118509152Y-99326131D01*
X118603767Y-99302641D01*
X118693998Y-99284645D01*
X118766901Y-99275011D01*
X118809530Y-99276606D01*
X118811990Y-99277685D01*
X118816558Y-99302803D01*
X118820687Y-99368898D01*
X118824216Y-99469912D01*
X118826987Y-99599786D01*
X118828840Y-99752463D01*
X118829616Y-99921883D01*
X118829629Y-99947887D01*
X119158888Y-99947887D01*
X119158888Y-98931852D01*
X118934471Y-98931852D01*
X118659079Y-98948372D01*
G36*
X116101481Y-99261111D02*
X116524814Y-99261111D01*
X116524814Y-100599836D01*
X116113240Y-100613426D01*
X116113240Y-100942685D01*
X116695324Y-100948976D01*
X117277407Y-100955266D01*
X117277407Y-100601667D01*
X116877592Y-100601667D01*
X116877592Y-99261111D01*
X117277407Y-99261111D01*
X117277407Y-98931852D01*
X116101481Y-98931852D01*
X116101481Y-99261111D01*
X116101481Y-99261111D01*
G37*
X116101481Y-99261111D02*
X116524814Y-99261111D01*
X116524814Y-100599836D01*
X116113240Y-100613426D01*
X116113240Y-100942685D01*
X116695324Y-100948976D01*
X117277407Y-100955266D01*
X117277407Y-100601667D01*
X116877592Y-100601667D01*
X116877592Y-99261111D01*
X117277407Y-99261111D01*
X117277407Y-98931852D01*
X116101481Y-98931852D01*
X116101481Y-99261111D01*
G36*
X114635525Y-98932001D02*
X114043611Y-98932149D01*
X114006671Y-98996677D01*
X113984112Y-99035964D01*
X113942158Y-99108916D01*
X113884893Y-99208438D01*
X113816398Y-99327436D01*
X113740755Y-99458815D01*
X113717305Y-99499538D01*
X113464880Y-99937871D01*
X114044158Y-100942685D01*
X114633000Y-100948959D01*
X115221843Y-100955232D01*
X115508808Y-100455070D01*
X115588220Y-100315911D01*
X115659201Y-100190093D01*
X115718556Y-100083396D01*
X115763091Y-100001601D01*
X115789609Y-99950489D01*
X115794680Y-99938411D01*
X115395822Y-99938411D01*
X115384606Y-99968477D01*
X115353608Y-100031296D01*
X115306912Y-100119087D01*
X115248603Y-100224072D01*
X115213657Y-100285294D01*
X115031388Y-100601637D01*
X114632593Y-100595772D01*
X114233798Y-100589908D01*
X114051108Y-100272408D01*
X113988364Y-100162502D01*
X113934839Y-100067103D01*
X113894576Y-99993545D01*
X113871616Y-99949163D01*
X113867820Y-99939750D01*
X113878742Y-99915236D01*
X113909325Y-99857177D01*
X113955659Y-99772731D01*
X114013835Y-99669060D01*
X114057557Y-99592293D01*
X114247892Y-99259994D01*
X114638344Y-99266432D01*
X115028796Y-99272871D01*
X115212257Y-99590371D01*
X115275440Y-99701582D01*
X115329232Y-99799823D01*
X115369544Y-99877339D01*
X115392285Y-99926377D01*
X115395822Y-99938411D01*
X115794680Y-99938411D01*
X115795757Y-99935846D01*
X115784461Y-99910966D01*
X115752737Y-99851250D01*
X115703816Y-99762516D01*
X115640932Y-99650582D01*
X115567314Y-99521265D01*
X115511590Y-99424318D01*
X115227440Y-98931852D01*
X114635525Y-98932001D01*
X114635525Y-98932001D01*
G37*
X114635525Y-98932001D02*
X114043611Y-98932149D01*
X114006671Y-98996677D01*
X113984112Y-99035964D01*
X113942158Y-99108916D01*
X113884893Y-99208438D01*
X113816398Y-99327436D01*
X113740755Y-99458815D01*
X113717305Y-99499538D01*
X113464880Y-99937871D01*
X114044158Y-100942685D01*
X114633000Y-100948959D01*
X115221843Y-100955232D01*
X115508808Y-100455070D01*
X115588220Y-100315911D01*
X115659201Y-100190093D01*
X115718556Y-100083396D01*
X115763091Y-100001601D01*
X115789609Y-99950489D01*
X115794680Y-99938411D01*
X115395822Y-99938411D01*
X115384606Y-99968477D01*
X115353608Y-100031296D01*
X115306912Y-100119087D01*
X115248603Y-100224072D01*
X115213657Y-100285294D01*
X115031388Y-100601637D01*
X114632593Y-100595772D01*
X114233798Y-100589908D01*
X114051108Y-100272408D01*
X113988364Y-100162502D01*
X113934839Y-100067103D01*
X113894576Y-99993545D01*
X113871616Y-99949163D01*
X113867820Y-99939750D01*
X113878742Y-99915236D01*
X113909325Y-99857177D01*
X113955659Y-99772731D01*
X114013835Y-99669060D01*
X114057557Y-99592293D01*
X114247892Y-99259994D01*
X114638344Y-99266432D01*
X115028796Y-99272871D01*
X115212257Y-99590371D01*
X115275440Y-99701582D01*
X115329232Y-99799823D01*
X115369544Y-99877339D01*
X115392285Y-99926377D01*
X115395822Y-99938411D01*
X115794680Y-99938411D01*
X115795757Y-99935846D01*
X115784461Y-99910966D01*
X115752737Y-99851250D01*
X115703816Y-99762516D01*
X115640932Y-99650582D01*
X115567314Y-99521265D01*
X115511590Y-99424318D01*
X115227440Y-98931852D01*
X114635525Y-98932001D01*
G36*
X112254856Y-99635996D02*
X111762314Y-100340140D01*
X111756090Y-99635996D01*
X111749865Y-98931852D01*
X111397272Y-98931852D01*
X111403405Y-99937269D01*
X111409537Y-100942685D01*
X111760793Y-100942685D01*
X112255443Y-100237130D01*
X112750092Y-99531574D01*
X112756317Y-100243009D01*
X112762541Y-100954445D01*
X113091111Y-100954445D01*
X113091111Y-98931852D01*
X112747397Y-98931852D01*
X112254856Y-99635996D01*
X112254856Y-99635996D01*
G37*
X112254856Y-99635996D02*
X111762314Y-100340140D01*
X111756090Y-99635996D01*
X111749865Y-98931852D01*
X111397272Y-98931852D01*
X111403405Y-99937269D01*
X111409537Y-100942685D01*
X111760793Y-100942685D01*
X112255443Y-100237130D01*
X112750092Y-99531574D01*
X112756317Y-100243009D01*
X112762541Y-100954445D01*
X113091111Y-100954445D01*
X113091111Y-98931852D01*
X112747397Y-98931852D01*
X112254856Y-99635996D01*
G36*
X110001511Y-98922060D02*
X109969405Y-98976592D01*
X109920639Y-99063162D01*
X109857783Y-99176950D01*
X109783409Y-99313136D01*
X109700087Y-99466899D01*
X109610389Y-99633420D01*
X109516886Y-99807877D01*
X109422149Y-99985452D01*
X109328750Y-100161323D01*
X109239260Y-100330670D01*
X109156249Y-100488674D01*
X109082289Y-100630513D01*
X109019952Y-100751369D01*
X108971808Y-100846420D01*
X108940429Y-100910847D01*
X108928385Y-100939828D01*
X108928333Y-100940399D01*
X108951078Y-100943261D01*
X109016218Y-100945928D01*
X109119112Y-100948338D01*
X109255117Y-100950432D01*
X109419594Y-100952150D01*
X109607899Y-100953431D01*
X109815391Y-100954214D01*
X110010581Y-100954445D01*
X111092829Y-100954445D01*
X111035313Y-100840942D01*
X110994343Y-100760907D01*
X110938135Y-100652296D01*
X110904823Y-100588301D01*
X110504074Y-100588301D01*
X110481685Y-100592218D01*
X110419035Y-100595682D01*
X110322900Y-100598514D01*
X110200056Y-100600536D01*
X110057277Y-100601570D01*
X109996191Y-100601667D01*
X109488308Y-100601667D01*
X109546043Y-100501713D01*
X109576673Y-100447350D01*
X109624450Y-100360944D01*
X109684228Y-100251872D01*
X109750863Y-100129511D01*
X109797681Y-100043102D01*
X109861676Y-99926281D01*
X109918538Y-99825398D01*
X109964367Y-99747140D01*
X109995263Y-99698196D01*
X110006764Y-99684624D01*
X110021105Y-99704210D01*
X110053593Y-99758035D01*
X110100234Y-99838836D01*
X110157030Y-99939355D01*
X110219986Y-100052329D01*
X110285106Y-100170498D01*
X110348395Y-100286602D01*
X110405857Y-100393379D01*
X110453496Y-100483569D01*
X110487317Y-100549910D01*
X110503323Y-100585143D01*
X110504074Y-100588301D01*
X110904823Y-100588301D01*
X110869313Y-100520087D01*
X110790501Y-100369258D01*
X110704325Y-100204787D01*
X110613407Y-100031653D01*
X110520373Y-99854833D01*
X110427846Y-99679305D01*
X110338452Y-99510048D01*
X110254815Y-99352039D01*
X110179559Y-99210257D01*
X110115308Y-99089680D01*
X110064687Y-98995285D01*
X110030320Y-98932051D01*
X110014831Y-98904956D01*
X110014384Y-98904386D01*
X110001511Y-98922060D01*
X110001511Y-98922060D01*
G37*
X110001511Y-98922060D02*
X109969405Y-98976592D01*
X109920639Y-99063162D01*
X109857783Y-99176950D01*
X109783409Y-99313136D01*
X109700087Y-99466899D01*
X109610389Y-99633420D01*
X109516886Y-99807877D01*
X109422149Y-99985452D01*
X109328750Y-100161323D01*
X109239260Y-100330670D01*
X109156249Y-100488674D01*
X109082289Y-100630513D01*
X109019952Y-100751369D01*
X108971808Y-100846420D01*
X108940429Y-100910847D01*
X108928385Y-100939828D01*
X108928333Y-100940399D01*
X108951078Y-100943261D01*
X109016218Y-100945928D01*
X109119112Y-100948338D01*
X109255117Y-100950432D01*
X109419594Y-100952150D01*
X109607899Y-100953431D01*
X109815391Y-100954214D01*
X110010581Y-100954445D01*
X111092829Y-100954445D01*
X111035313Y-100840942D01*
X110994343Y-100760907D01*
X110938135Y-100652296D01*
X110904823Y-100588301D01*
X110504074Y-100588301D01*
X110481685Y-100592218D01*
X110419035Y-100595682D01*
X110322900Y-100598514D01*
X110200056Y-100600536D01*
X110057277Y-100601570D01*
X109996191Y-100601667D01*
X109488308Y-100601667D01*
X109546043Y-100501713D01*
X109576673Y-100447350D01*
X109624450Y-100360944D01*
X109684228Y-100251872D01*
X109750863Y-100129511D01*
X109797681Y-100043102D01*
X109861676Y-99926281D01*
X109918538Y-99825398D01*
X109964367Y-99747140D01*
X109995263Y-99698196D01*
X110006764Y-99684624D01*
X110021105Y-99704210D01*
X110053593Y-99758035D01*
X110100234Y-99838836D01*
X110157030Y-99939355D01*
X110219986Y-100052329D01*
X110285106Y-100170498D01*
X110348395Y-100286602D01*
X110405857Y-100393379D01*
X110453496Y-100483569D01*
X110487317Y-100549910D01*
X110503323Y-100585143D01*
X110504074Y-100588301D01*
X110904823Y-100588301D01*
X110869313Y-100520087D01*
X110790501Y-100369258D01*
X110704325Y-100204787D01*
X110613407Y-100031653D01*
X110520373Y-99854833D01*
X110427846Y-99679305D01*
X110338452Y-99510048D01*
X110254815Y-99352039D01*
X110179559Y-99210257D01*
X110115308Y-99089680D01*
X110064687Y-98995285D01*
X110030320Y-98932051D01*
X110014831Y-98904956D01*
X110014384Y-98904386D01*
X110001511Y-98922060D01*
G36*
X127583833Y-115615926D02*
X127600780Y-115642622D01*
X127628951Y-115680852D01*
X127639309Y-115694083D01*
X127756872Y-115857057D01*
X127856559Y-116025846D01*
X127935316Y-116194808D01*
X127980981Y-116325555D01*
X128000552Y-116414728D01*
X128013981Y-116522706D01*
X128020952Y-116640680D01*
X128021153Y-116759841D01*
X128014269Y-116871381D01*
X128003240Y-116950323D01*
X127962689Y-117112633D01*
X127901371Y-117284367D01*
X127822047Y-117459368D01*
X127727481Y-117631477D01*
X127631491Y-117779000D01*
X127542068Y-117894387D01*
X127428279Y-118021440D01*
X127289945Y-118160328D01*
X127126893Y-118311219D01*
X126938943Y-118474281D01*
X126725921Y-118649684D01*
X126682778Y-118684275D01*
X126539933Y-118799382D01*
X126417913Y-118900111D01*
X126314563Y-118988471D01*
X126227731Y-119066469D01*
X126155261Y-119136115D01*
X126095002Y-119199416D01*
X126044800Y-119258382D01*
X126002500Y-119315020D01*
X125995468Y-119325256D01*
X125904879Y-119477735D01*
X125841728Y-119627136D01*
X125806006Y-119772901D01*
X125797704Y-119914472D01*
X125816813Y-120051292D01*
X125863324Y-120182802D01*
X125937229Y-120308445D01*
X126012872Y-120400923D01*
X126117402Y-120500655D01*
X126231621Y-120583268D01*
X126358017Y-120649589D01*
X126499081Y-120700443D01*
X126657301Y-120736655D01*
X126835167Y-120759051D01*
X127035167Y-120768457D01*
X127122033Y-120768766D01*
X127210416Y-120767461D01*
X127296381Y-120765009D01*
X127372833Y-120761698D01*
X127432678Y-120757813D01*
X127458889Y-120755170D01*
X127702821Y-120710510D01*
X127940005Y-120640930D01*
X128167700Y-120547886D01*
X128383162Y-120432833D01*
X128583649Y-120297228D01*
X128766418Y-120142526D01*
X128921309Y-119978995D01*
X129075803Y-119774994D01*
X129206232Y-119557075D01*
X129312059Y-119326910D01*
X129392745Y-119086171D01*
X129447751Y-118836528D01*
X129476540Y-118579652D01*
X129478572Y-118317216D01*
X129475367Y-118258777D01*
X129470990Y-118191560D01*
X129467289Y-118132822D01*
X129464689Y-118089417D01*
X129463652Y-118069453D01*
X129461040Y-118046908D01*
X129456196Y-118050379D01*
X129449650Y-118077795D01*
X129441930Y-118127085D01*
X129435319Y-118180382D01*
X129398353Y-118391120D01*
X129335735Y-118605037D01*
X129249064Y-118817974D01*
X129139941Y-119025773D01*
X129063336Y-119147777D01*
X128925337Y-119334115D01*
X128777636Y-119495870D01*
X128621028Y-119632518D01*
X128456308Y-119743532D01*
X128284272Y-119828386D01*
X128105713Y-119886557D01*
X127921426Y-119917516D01*
X127896333Y-119919570D01*
X127776389Y-119928176D01*
X127924556Y-119828558D01*
X128150079Y-119663044D01*
X128357965Y-119482290D01*
X128546779Y-119288280D01*
X128715085Y-119082995D01*
X128861447Y-118868417D01*
X128984429Y-118646530D01*
X129082595Y-118419315D01*
X129154510Y-118188754D01*
X129174062Y-118103555D01*
X129189490Y-117998860D01*
X129197339Y-117877095D01*
X129197606Y-117748376D01*
X129190287Y-117622820D01*
X129175381Y-117510543D01*
X129174226Y-117504345D01*
X129123854Y-117299201D01*
X129051712Y-117092309D01*
X128961679Y-116893695D01*
X128884594Y-116755944D01*
X128752141Y-116561895D01*
X128596158Y-116371197D01*
X128421299Y-116188622D01*
X128232220Y-116018945D01*
X128033577Y-115866937D01*
X127984822Y-115833498D01*
X127940784Y-115805257D01*
X127884886Y-115771272D01*
X127822170Y-115734389D01*
X127757675Y-115697451D01*
X127696442Y-115663303D01*
X127643513Y-115634789D01*
X127603928Y-115614754D01*
X127582728Y-115606043D01*
X127581471Y-115605889D01*
X127583833Y-115615926D01*
X127583833Y-115615926D01*
G37*
X127583833Y-115615926D02*
X127600780Y-115642622D01*
X127628951Y-115680852D01*
X127639309Y-115694083D01*
X127756872Y-115857057D01*
X127856559Y-116025846D01*
X127935316Y-116194808D01*
X127980981Y-116325555D01*
X128000552Y-116414728D01*
X128013981Y-116522706D01*
X128020952Y-116640680D01*
X128021153Y-116759841D01*
X128014269Y-116871381D01*
X128003240Y-116950323D01*
X127962689Y-117112633D01*
X127901371Y-117284367D01*
X127822047Y-117459368D01*
X127727481Y-117631477D01*
X127631491Y-117779000D01*
X127542068Y-117894387D01*
X127428279Y-118021440D01*
X127289945Y-118160328D01*
X127126893Y-118311219D01*
X126938943Y-118474281D01*
X126725921Y-118649684D01*
X126682778Y-118684275D01*
X126539933Y-118799382D01*
X126417913Y-118900111D01*
X126314563Y-118988471D01*
X126227731Y-119066469D01*
X126155261Y-119136115D01*
X126095002Y-119199416D01*
X126044800Y-119258382D01*
X126002500Y-119315020D01*
X125995468Y-119325256D01*
X125904879Y-119477735D01*
X125841728Y-119627136D01*
X125806006Y-119772901D01*
X125797704Y-119914472D01*
X125816813Y-120051292D01*
X125863324Y-120182802D01*
X125937229Y-120308445D01*
X126012872Y-120400923D01*
X126117402Y-120500655D01*
X126231621Y-120583268D01*
X126358017Y-120649589D01*
X126499081Y-120700443D01*
X126657301Y-120736655D01*
X126835167Y-120759051D01*
X127035167Y-120768457D01*
X127122033Y-120768766D01*
X127210416Y-120767461D01*
X127296381Y-120765009D01*
X127372833Y-120761698D01*
X127432678Y-120757813D01*
X127458889Y-120755170D01*
X127702821Y-120710510D01*
X127940005Y-120640930D01*
X128167700Y-120547886D01*
X128383162Y-120432833D01*
X128583649Y-120297228D01*
X128766418Y-120142526D01*
X128921309Y-119978995D01*
X129075803Y-119774994D01*
X129206232Y-119557075D01*
X129312059Y-119326910D01*
X129392745Y-119086171D01*
X129447751Y-118836528D01*
X129476540Y-118579652D01*
X129478572Y-118317216D01*
X129475367Y-118258777D01*
X129470990Y-118191560D01*
X129467289Y-118132822D01*
X129464689Y-118089417D01*
X129463652Y-118069453D01*
X129461040Y-118046908D01*
X129456196Y-118050379D01*
X129449650Y-118077795D01*
X129441930Y-118127085D01*
X129435319Y-118180382D01*
X129398353Y-118391120D01*
X129335735Y-118605037D01*
X129249064Y-118817974D01*
X129139941Y-119025773D01*
X129063336Y-119147777D01*
X128925337Y-119334115D01*
X128777636Y-119495870D01*
X128621028Y-119632518D01*
X128456308Y-119743532D01*
X128284272Y-119828386D01*
X128105713Y-119886557D01*
X127921426Y-119917516D01*
X127896333Y-119919570D01*
X127776389Y-119928176D01*
X127924556Y-119828558D01*
X128150079Y-119663044D01*
X128357965Y-119482290D01*
X128546779Y-119288280D01*
X128715085Y-119082995D01*
X128861447Y-118868417D01*
X128984429Y-118646530D01*
X129082595Y-118419315D01*
X129154510Y-118188754D01*
X129174062Y-118103555D01*
X129189490Y-117998860D01*
X129197339Y-117877095D01*
X129197606Y-117748376D01*
X129190287Y-117622820D01*
X129175381Y-117510543D01*
X129174226Y-117504345D01*
X129123854Y-117299201D01*
X129051712Y-117092309D01*
X128961679Y-116893695D01*
X128884594Y-116755944D01*
X128752141Y-116561895D01*
X128596158Y-116371197D01*
X128421299Y-116188622D01*
X128232220Y-116018945D01*
X128033577Y-115866937D01*
X127984822Y-115833498D01*
X127940784Y-115805257D01*
X127884886Y-115771272D01*
X127822170Y-115734389D01*
X127757675Y-115697451D01*
X127696442Y-115663303D01*
X127643513Y-115634789D01*
X127603928Y-115614754D01*
X127582728Y-115606043D01*
X127581471Y-115605889D01*
X127583833Y-115615926D01*
G36*
X126581672Y-114351190D02*
X126415269Y-114550811D01*
X126276483Y-114746666D01*
X126165053Y-114939379D01*
X126080718Y-115129571D01*
X126023215Y-115317867D01*
X125992284Y-115504890D01*
X125987664Y-115691263D01*
X125992221Y-115756530D01*
X126000242Y-115824017D01*
X126012769Y-115908798D01*
X126028166Y-116000623D01*
X126044801Y-116089239D01*
X126046926Y-116099777D01*
X126062922Y-116182236D01*
X126077477Y-116264318D01*
X126089185Y-116337597D01*
X126096638Y-116393649D01*
X126097597Y-116403166D01*
X126095961Y-116535956D01*
X126068091Y-116669131D01*
X126015478Y-116797803D01*
X125941593Y-116914503D01*
X125895816Y-116974455D01*
X125857742Y-116852339D01*
X125797861Y-116694875D01*
X125715838Y-116531820D01*
X125615290Y-116369120D01*
X125499831Y-116212720D01*
X125395451Y-116092150D01*
X125350891Y-116046023D01*
X125300309Y-115996219D01*
X125247750Y-115946404D01*
X125197261Y-115900247D01*
X125152886Y-115861416D01*
X125118673Y-115833578D01*
X125098666Y-115820401D01*
X125095433Y-115820163D01*
X125094787Y-115835082D01*
X125095834Y-115872875D01*
X125098358Y-115928256D01*
X125102147Y-115995939D01*
X125103326Y-116015111D01*
X125108188Y-116178219D01*
X125103117Y-116341824D01*
X125088692Y-116497327D01*
X125065494Y-116636130D01*
X125059772Y-116661468D01*
X125036447Y-116745044D01*
X125005164Y-116829849D01*
X124963873Y-116920015D01*
X124910524Y-117019671D01*
X124843066Y-117132947D01*
X124764443Y-117256327D01*
X124659917Y-117421145D01*
X124572793Y-117569158D01*
X124501225Y-117704203D01*
X124443373Y-117830119D01*
X124397393Y-117950745D01*
X124361442Y-118069919D01*
X124348224Y-118123325D01*
X124312799Y-118337366D01*
X124304386Y-118553727D01*
X124322063Y-118770698D01*
X124364909Y-118986567D01*
X124432003Y-119199623D01*
X124522424Y-119408155D01*
X124635252Y-119610451D01*
X124769564Y-119804799D01*
X124924439Y-119989490D01*
X125098957Y-120162811D01*
X125292196Y-120323050D01*
X125503236Y-120468498D01*
X125659722Y-120559866D01*
X125772611Y-120621218D01*
X125699115Y-120535898D01*
X125590074Y-120392924D01*
X125508225Y-120247922D01*
X125452539Y-120098483D01*
X125421987Y-119942197D01*
X125416371Y-119873285D01*
X125419762Y-119712874D01*
X125446713Y-119556160D01*
X125498051Y-119401047D01*
X125574602Y-119245434D01*
X125677190Y-119087224D01*
X125775202Y-118961405D01*
X125810047Y-118921086D01*
X125848410Y-118880096D01*
X125892579Y-118836436D01*
X125944845Y-118788108D01*
X126007497Y-118733114D01*
X126082824Y-118669453D01*
X126173115Y-118595129D01*
X126280660Y-118508142D01*
X126407749Y-118406494D01*
X126442889Y-118378520D01*
X126673498Y-118188301D01*
X126877593Y-118005508D01*
X127055717Y-117829550D01*
X127208415Y-117659834D01*
X127336231Y-117495771D01*
X127439710Y-117336767D01*
X127494240Y-117235722D01*
X127546388Y-117124891D01*
X127584366Y-117029122D01*
X127610130Y-116940316D01*
X127625634Y-116850373D01*
X127632836Y-116751194D01*
X127633915Y-116657166D01*
X127632579Y-116570732D01*
X127629276Y-116504203D01*
X127623017Y-116449279D01*
X127612813Y-116397659D01*
X127597674Y-116341043D01*
X127595212Y-116332611D01*
X127562726Y-116239200D01*
X127516477Y-116129949D01*
X127459815Y-116011460D01*
X127396085Y-115890336D01*
X127328635Y-115773182D01*
X127260814Y-115666600D01*
X127248254Y-115648222D01*
X127156956Y-115515991D01*
X127080264Y-115404056D01*
X127016442Y-115309703D01*
X126963755Y-115230220D01*
X126920465Y-115162893D01*
X126884835Y-115105011D01*
X126855130Y-115053859D01*
X126829613Y-115006726D01*
X126806547Y-114960898D01*
X126801150Y-114949722D01*
X126739791Y-114807905D01*
X126697176Y-114674569D01*
X126670639Y-114539807D01*
X126659033Y-114421745D01*
X126649981Y-114274769D01*
X126581672Y-114351190D01*
X126581672Y-114351190D01*
G37*
X126581672Y-114351190D02*
X126415269Y-114550811D01*
X126276483Y-114746666D01*
X126165053Y-114939379D01*
X126080718Y-115129571D01*
X126023215Y-115317867D01*
X125992284Y-115504890D01*
X125987664Y-115691263D01*
X125992221Y-115756530D01*
X126000242Y-115824017D01*
X126012769Y-115908798D01*
X126028166Y-116000623D01*
X126044801Y-116089239D01*
X126046926Y-116099777D01*
X126062922Y-116182236D01*
X126077477Y-116264318D01*
X126089185Y-116337597D01*
X126096638Y-116393649D01*
X126097597Y-116403166D01*
X126095961Y-116535956D01*
X126068091Y-116669131D01*
X126015478Y-116797803D01*
X125941593Y-116914503D01*
X125895816Y-116974455D01*
X125857742Y-116852339D01*
X125797861Y-116694875D01*
X125715838Y-116531820D01*
X125615290Y-116369120D01*
X125499831Y-116212720D01*
X125395451Y-116092150D01*
X125350891Y-116046023D01*
X125300309Y-115996219D01*
X125247750Y-115946404D01*
X125197261Y-115900247D01*
X125152886Y-115861416D01*
X125118673Y-115833578D01*
X125098666Y-115820401D01*
X125095433Y-115820163D01*
X125094787Y-115835082D01*
X125095834Y-115872875D01*
X125098358Y-115928256D01*
X125102147Y-115995939D01*
X125103326Y-116015111D01*
X125108188Y-116178219D01*
X125103117Y-116341824D01*
X125088692Y-116497327D01*
X125065494Y-116636130D01*
X125059772Y-116661468D01*
X125036447Y-116745044D01*
X125005164Y-116829849D01*
X124963873Y-116920015D01*
X124910524Y-117019671D01*
X124843066Y-117132947D01*
X124764443Y-117256327D01*
X124659917Y-117421145D01*
X124572793Y-117569158D01*
X124501225Y-117704203D01*
X124443373Y-117830119D01*
X124397393Y-117950745D01*
X124361442Y-118069919D01*
X124348224Y-118123325D01*
X124312799Y-118337366D01*
X124304386Y-118553727D01*
X124322063Y-118770698D01*
X124364909Y-118986567D01*
X124432003Y-119199623D01*
X124522424Y-119408155D01*
X124635252Y-119610451D01*
X124769564Y-119804799D01*
X124924439Y-119989490D01*
X125098957Y-120162811D01*
X125292196Y-120323050D01*
X125503236Y-120468498D01*
X125659722Y-120559866D01*
X125772611Y-120621218D01*
X125699115Y-120535898D01*
X125590074Y-120392924D01*
X125508225Y-120247922D01*
X125452539Y-120098483D01*
X125421987Y-119942197D01*
X125416371Y-119873285D01*
X125419762Y-119712874D01*
X125446713Y-119556160D01*
X125498051Y-119401047D01*
X125574602Y-119245434D01*
X125677190Y-119087224D01*
X125775202Y-118961405D01*
X125810047Y-118921086D01*
X125848410Y-118880096D01*
X125892579Y-118836436D01*
X125944845Y-118788108D01*
X126007497Y-118733114D01*
X126082824Y-118669453D01*
X126173115Y-118595129D01*
X126280660Y-118508142D01*
X126407749Y-118406494D01*
X126442889Y-118378520D01*
X126673498Y-118188301D01*
X126877593Y-118005508D01*
X127055717Y-117829550D01*
X127208415Y-117659834D01*
X127336231Y-117495771D01*
X127439710Y-117336767D01*
X127494240Y-117235722D01*
X127546388Y-117124891D01*
X127584366Y-117029122D01*
X127610130Y-116940316D01*
X127625634Y-116850373D01*
X127632836Y-116751194D01*
X127633915Y-116657166D01*
X127632579Y-116570732D01*
X127629276Y-116504203D01*
X127623017Y-116449279D01*
X127612813Y-116397659D01*
X127597674Y-116341043D01*
X127595212Y-116332611D01*
X127562726Y-116239200D01*
X127516477Y-116129949D01*
X127459815Y-116011460D01*
X127396085Y-115890336D01*
X127328635Y-115773182D01*
X127260814Y-115666600D01*
X127248254Y-115648222D01*
X127156956Y-115515991D01*
X127080264Y-115404056D01*
X127016442Y-115309703D01*
X126963755Y-115230220D01*
X126920465Y-115162893D01*
X126884835Y-115105011D01*
X126855130Y-115053859D01*
X126829613Y-115006726D01*
X126806547Y-114960898D01*
X126801150Y-114949722D01*
X126739791Y-114807905D01*
X126697176Y-114674569D01*
X126670639Y-114539807D01*
X126659033Y-114421745D01*
X126649981Y-114274769D01*
X126581672Y-114351190D01*
G36*
X121959965Y-118682368D02*
X121910400Y-118683628D01*
X121879886Y-118686625D01*
X121863839Y-118692092D01*
X121857675Y-118700763D01*
X121856778Y-118710333D01*
X121866897Y-118734123D01*
X121882813Y-118738555D01*
X121912262Y-118748470D01*
X121932202Y-118764361D01*
X121941330Y-118778453D01*
X121947740Y-118800246D01*
X121951847Y-118834239D01*
X121954068Y-118884933D01*
X121954822Y-118956828D01*
X121954759Y-119007777D01*
X121953271Y-119098229D01*
X121949721Y-119175779D01*
X121944438Y-119235470D01*
X121937751Y-119272344D01*
X121937120Y-119274289D01*
X121905492Y-119327456D01*
X121856885Y-119364113D01*
X121797290Y-119384149D01*
X121732700Y-119387453D01*
X121669105Y-119373912D01*
X121612496Y-119343415D01*
X121568864Y-119295850D01*
X121560700Y-119281306D01*
X121551059Y-119247412D01*
X121543247Y-119192250D01*
X121537485Y-119122728D01*
X121533991Y-119045755D01*
X121532986Y-118968239D01*
X121534688Y-118897088D01*
X121539316Y-118839210D01*
X121545601Y-118805992D01*
X121561549Y-118767784D01*
X121584423Y-118748868D01*
X121603493Y-118743351D01*
X121636359Y-118729349D01*
X121645111Y-118708075D01*
X121643105Y-118695985D01*
X121633731Y-118688415D01*
X121611957Y-118684569D01*
X121572750Y-118683648D01*
X121511077Y-118684855D01*
X121500472Y-118685145D01*
X121432656Y-118687849D01*
X121388813Y-118691920D01*
X121364699Y-118698065D01*
X121356074Y-118706993D01*
X121355833Y-118709318D01*
X121367960Y-118726815D01*
X121396964Y-118740469D01*
X121430351Y-118754122D01*
X121449665Y-118769707D01*
X121453733Y-118789647D01*
X121457204Y-118832368D01*
X121459802Y-118892434D01*
X121461248Y-118964404D01*
X121461451Y-119000577D01*
X121463073Y-119110895D01*
X121468397Y-119197525D01*
X121478482Y-119264882D01*
X121494390Y-119317377D01*
X121517182Y-119359421D01*
X121547919Y-119395428D01*
X121558881Y-119405742D01*
X121633250Y-119454413D01*
X121722164Y-119479098D01*
X121825814Y-119479836D01*
X121883793Y-119471127D01*
X121962696Y-119444206D01*
X122029035Y-119399201D01*
X122076210Y-119340884D01*
X122083354Y-119326761D01*
X122093553Y-119300550D01*
X122100864Y-119270518D01*
X122105749Y-119231600D01*
X122108671Y-119178734D01*
X122110095Y-119106855D01*
X122110468Y-119030433D01*
X122111438Y-118944917D01*
X122113936Y-118870790D01*
X122117694Y-118812791D01*
X122122445Y-118775661D01*
X122125386Y-118765850D01*
X122150879Y-118743789D01*
X122174774Y-118738555D01*
X122202186Y-118731739D01*
X122209556Y-118710333D01*
X122207949Y-118698621D01*
X122200073Y-118690690D01*
X122181343Y-118685808D01*
X122147174Y-118683241D01*
X122092982Y-118682254D01*
X122033167Y-118682111D01*
X121959965Y-118682368D01*
X121959965Y-118682368D01*
G37*
X121959965Y-118682368D02*
X121910400Y-118683628D01*
X121879886Y-118686625D01*
X121863839Y-118692092D01*
X121857675Y-118700763D01*
X121856778Y-118710333D01*
X121866897Y-118734123D01*
X121882813Y-118738555D01*
X121912262Y-118748470D01*
X121932202Y-118764361D01*
X121941330Y-118778453D01*
X121947740Y-118800246D01*
X121951847Y-118834239D01*
X121954068Y-118884933D01*
X121954822Y-118956828D01*
X121954759Y-119007777D01*
X121953271Y-119098229D01*
X121949721Y-119175779D01*
X121944438Y-119235470D01*
X121937751Y-119272344D01*
X121937120Y-119274289D01*
X121905492Y-119327456D01*
X121856885Y-119364113D01*
X121797290Y-119384149D01*
X121732700Y-119387453D01*
X121669105Y-119373912D01*
X121612496Y-119343415D01*
X121568864Y-119295850D01*
X121560700Y-119281306D01*
X121551059Y-119247412D01*
X121543247Y-119192250D01*
X121537485Y-119122728D01*
X121533991Y-119045755D01*
X121532986Y-118968239D01*
X121534688Y-118897088D01*
X121539316Y-118839210D01*
X121545601Y-118805992D01*
X121561549Y-118767784D01*
X121584423Y-118748868D01*
X121603493Y-118743351D01*
X121636359Y-118729349D01*
X121645111Y-118708075D01*
X121643105Y-118695985D01*
X121633731Y-118688415D01*
X121611957Y-118684569D01*
X121572750Y-118683648D01*
X121511077Y-118684855D01*
X121500472Y-118685145D01*
X121432656Y-118687849D01*
X121388813Y-118691920D01*
X121364699Y-118698065D01*
X121356074Y-118706993D01*
X121355833Y-118709318D01*
X121367960Y-118726815D01*
X121396964Y-118740469D01*
X121430351Y-118754122D01*
X121449665Y-118769707D01*
X121453733Y-118789647D01*
X121457204Y-118832368D01*
X121459802Y-118892434D01*
X121461248Y-118964404D01*
X121461451Y-119000577D01*
X121463073Y-119110895D01*
X121468397Y-119197525D01*
X121478482Y-119264882D01*
X121494390Y-119317377D01*
X121517182Y-119359421D01*
X121547919Y-119395428D01*
X121558881Y-119405742D01*
X121633250Y-119454413D01*
X121722164Y-119479098D01*
X121825814Y-119479836D01*
X121883793Y-119471127D01*
X121962696Y-119444206D01*
X122029035Y-119399201D01*
X122076210Y-119340884D01*
X122083354Y-119326761D01*
X122093553Y-119300550D01*
X122100864Y-119270518D01*
X122105749Y-119231600D01*
X122108671Y-119178734D01*
X122110095Y-119106855D01*
X122110468Y-119030433D01*
X122111438Y-118944917D01*
X122113936Y-118870790D01*
X122117694Y-118812791D01*
X122122445Y-118775661D01*
X122125386Y-118765850D01*
X122150879Y-118743789D01*
X122174774Y-118738555D01*
X122202186Y-118731739D01*
X122209556Y-118710333D01*
X122207949Y-118698621D01*
X122200073Y-118690690D01*
X122181343Y-118685808D01*
X122147174Y-118683241D01*
X122092982Y-118682254D01*
X122033167Y-118682111D01*
X121959965Y-118682368D01*
G36*
X120747274Y-118924376D02*
X120686007Y-118995490D01*
X120630258Y-119060349D01*
X120582905Y-119115591D01*
X120546828Y-119157854D01*
X120524907Y-119183776D01*
X120520199Y-119189502D01*
X120513471Y-119192824D01*
X120508633Y-119181076D01*
X120505404Y-119151202D01*
X120503504Y-119100146D01*
X120502653Y-119024849D01*
X120502560Y-118997091D01*
X120503096Y-118905338D01*
X120505896Y-118838065D01*
X120512083Y-118791555D01*
X120522783Y-118762089D01*
X120539118Y-118745947D01*
X120562214Y-118739413D01*
X120580730Y-118738555D01*
X120607879Y-118731525D01*
X120615000Y-118710333D01*
X120613063Y-118697488D01*
X120603848Y-118689265D01*
X120582245Y-118684643D01*
X120543148Y-118682599D01*
X120481446Y-118682113D01*
X120473889Y-118682111D01*
X120409664Y-118682498D01*
X120368550Y-118684341D01*
X120345438Y-118688662D01*
X120335221Y-118696481D01*
X120332789Y-118708821D01*
X120332778Y-118710333D01*
X120341805Y-118733098D01*
X120365233Y-118738555D01*
X120384925Y-118739609D01*
X120400280Y-118744850D01*
X120411835Y-118757396D01*
X120420129Y-118780363D01*
X120425702Y-118816870D01*
X120429092Y-118870034D01*
X120430837Y-118942973D01*
X120431477Y-119038804D01*
X120431556Y-119122377D01*
X120431556Y-119472333D01*
X120463306Y-119471432D01*
X120478796Y-119464795D01*
X120503904Y-119444465D01*
X120540142Y-119408859D01*
X120589022Y-119356393D01*
X120652057Y-119285484D01*
X120730759Y-119194551D01*
X120756111Y-119164931D01*
X121017167Y-118859331D01*
X121021029Y-119102635D01*
X121021629Y-119195904D01*
X121020350Y-119273346D01*
X121017334Y-119331329D01*
X121012724Y-119366219D01*
X121010451Y-119372920D01*
X120986396Y-119394707D01*
X120957321Y-119404367D01*
X120925145Y-119416414D01*
X120913947Y-119433527D01*
X120914426Y-119444731D01*
X120924181Y-119451944D01*
X120948019Y-119456026D01*
X120990746Y-119457832D01*
X121052445Y-119458222D01*
X121117315Y-119457773D01*
X121158775Y-119455855D01*
X121181632Y-119451612D01*
X121190691Y-119444185D01*
X121190918Y-119433527D01*
X121174815Y-119412205D01*
X121154575Y-119404320D01*
X121122896Y-119389444D01*
X121108571Y-119372960D01*
X121103685Y-119349024D01*
X121100128Y-119299739D01*
X121097995Y-119227950D01*
X121097379Y-119136505D01*
X121098018Y-119052918D01*
X121101833Y-118759722D01*
X121148143Y-118746094D01*
X121182096Y-118729833D01*
X121190320Y-118710816D01*
X121181843Y-118699345D01*
X121158390Y-118691817D01*
X121115024Y-118687164D01*
X121071673Y-118685096D01*
X120957158Y-118681026D01*
X120747274Y-118924376D01*
X120747274Y-118924376D01*
G37*
X120747274Y-118924376D02*
X120686007Y-118995490D01*
X120630258Y-119060349D01*
X120582905Y-119115591D01*
X120546828Y-119157854D01*
X120524907Y-119183776D01*
X120520199Y-119189502D01*
X120513471Y-119192824D01*
X120508633Y-119181076D01*
X120505404Y-119151202D01*
X120503504Y-119100146D01*
X120502653Y-119024849D01*
X120502560Y-118997091D01*
X120503096Y-118905338D01*
X120505896Y-118838065D01*
X120512083Y-118791555D01*
X120522783Y-118762089D01*
X120539118Y-118745947D01*
X120562214Y-118739413D01*
X120580730Y-118738555D01*
X120607879Y-118731525D01*
X120615000Y-118710333D01*
X120613063Y-118697488D01*
X120603848Y-118689265D01*
X120582245Y-118684643D01*
X120543148Y-118682599D01*
X120481446Y-118682113D01*
X120473889Y-118682111D01*
X120409664Y-118682498D01*
X120368550Y-118684341D01*
X120345438Y-118688662D01*
X120335221Y-118696481D01*
X120332789Y-118708821D01*
X120332778Y-118710333D01*
X120341805Y-118733098D01*
X120365233Y-118738555D01*
X120384925Y-118739609D01*
X120400280Y-118744850D01*
X120411835Y-118757396D01*
X120420129Y-118780363D01*
X120425702Y-118816870D01*
X120429092Y-118870034D01*
X120430837Y-118942973D01*
X120431477Y-119038804D01*
X120431556Y-119122377D01*
X120431556Y-119472333D01*
X120463306Y-119471432D01*
X120478796Y-119464795D01*
X120503904Y-119444465D01*
X120540142Y-119408859D01*
X120589022Y-119356393D01*
X120652057Y-119285484D01*
X120730759Y-119194551D01*
X120756111Y-119164931D01*
X121017167Y-118859331D01*
X121021029Y-119102635D01*
X121021629Y-119195904D01*
X121020350Y-119273346D01*
X121017334Y-119331329D01*
X121012724Y-119366219D01*
X121010451Y-119372920D01*
X120986396Y-119394707D01*
X120957321Y-119404367D01*
X120925145Y-119416414D01*
X120913947Y-119433527D01*
X120914426Y-119444731D01*
X120924181Y-119451944D01*
X120948019Y-119456026D01*
X120990746Y-119457832D01*
X121052445Y-119458222D01*
X121117315Y-119457773D01*
X121158775Y-119455855D01*
X121181632Y-119451612D01*
X121190691Y-119444185D01*
X121190918Y-119433527D01*
X121174815Y-119412205D01*
X121154575Y-119404320D01*
X121122896Y-119389444D01*
X121108571Y-119372960D01*
X121103685Y-119349024D01*
X121100128Y-119299739D01*
X121097995Y-119227950D01*
X121097379Y-119136505D01*
X121098018Y-119052918D01*
X121101833Y-118759722D01*
X121148143Y-118746094D01*
X121182096Y-118729833D01*
X121190320Y-118710816D01*
X121181843Y-118699345D01*
X121158390Y-118691817D01*
X121115024Y-118687164D01*
X121071673Y-118685096D01*
X120957158Y-118681026D01*
X120747274Y-118924376D01*
G36*
X122407111Y-118773833D02*
X122408524Y-118825281D01*
X122413574Y-118853877D01*
X122423474Y-118864884D01*
X122428278Y-118865555D01*
X122445469Y-118853484D01*
X122449661Y-118833805D01*
X122452941Y-118800714D01*
X122465453Y-118779123D01*
X122492008Y-118766670D01*
X122537420Y-118760992D01*
X122600603Y-118759722D01*
X122724611Y-118759722D01*
X122728650Y-118897305D01*
X122732689Y-119034889D01*
X122633400Y-119034889D01*
X122576510Y-119033262D01*
X122539799Y-119027216D01*
X122515351Y-119014996D01*
X122505889Y-119006666D01*
X122484958Y-118978729D01*
X122477667Y-118957277D01*
X122466371Y-118938569D01*
X122456500Y-118936111D01*
X122446174Y-118941060D01*
X122439742Y-118959123D01*
X122436400Y-118995122D01*
X122435345Y-119053882D01*
X122435333Y-119063111D01*
X122437328Y-119132579D01*
X122443697Y-119174908D01*
X122455020Y-119190925D01*
X122471879Y-119181457D01*
X122494649Y-119147688D01*
X122508299Y-119126193D01*
X122523710Y-119113595D01*
X122548218Y-119107520D01*
X122589154Y-119105595D01*
X122625177Y-119105444D01*
X122731667Y-119105444D01*
X122731667Y-119217414D01*
X122729273Y-119296569D01*
X122721336Y-119351151D01*
X122706725Y-119384461D01*
X122684309Y-119399802D01*
X122668516Y-119401777D01*
X122640677Y-119408254D01*
X122632889Y-119430000D01*
X122634550Y-119441913D01*
X122642652Y-119449902D01*
X122661872Y-119454747D01*
X122696886Y-119457227D01*
X122752371Y-119458122D01*
X122802222Y-119458222D01*
X122873703Y-119457945D01*
X122921639Y-119456595D01*
X122950709Y-119453391D01*
X122965588Y-119447556D01*
X122970954Y-119438308D01*
X122971556Y-119430000D01*
X122962883Y-119407528D01*
X122937788Y-119401777D01*
X122908336Y-119393452D01*
X122895454Y-119379457D01*
X122891724Y-119355359D01*
X122889051Y-119308913D01*
X122887382Y-119245454D01*
X122886666Y-119170316D01*
X122886849Y-119088833D01*
X122887880Y-119006341D01*
X122889705Y-118928175D01*
X122892273Y-118859669D01*
X122895530Y-118806158D01*
X122899424Y-118772976D01*
X122901497Y-118765850D01*
X122924887Y-118743719D01*
X122943830Y-118738555D01*
X122967064Y-118728334D01*
X122971556Y-118710333D01*
X122970446Y-118700747D01*
X122964691Y-118693619D01*
X122950655Y-118688586D01*
X122924702Y-118685284D01*
X122883194Y-118683350D01*
X122822494Y-118682419D01*
X122738968Y-118682129D01*
X122689333Y-118682111D01*
X122407111Y-118682111D01*
X122407111Y-118773833D01*
X122407111Y-118773833D01*
G37*
X122407111Y-118773833D02*
X122408524Y-118825281D01*
X122413574Y-118853877D01*
X122423474Y-118864884D01*
X122428278Y-118865555D01*
X122445469Y-118853484D01*
X122449661Y-118833805D01*
X122452941Y-118800714D01*
X122465453Y-118779123D01*
X122492008Y-118766670D01*
X122537420Y-118760992D01*
X122600603Y-118759722D01*
X122724611Y-118759722D01*
X122728650Y-118897305D01*
X122732689Y-119034889D01*
X122633400Y-119034889D01*
X122576510Y-119033262D01*
X122539799Y-119027216D01*
X122515351Y-119014996D01*
X122505889Y-119006666D01*
X122484958Y-118978729D01*
X122477667Y-118957277D01*
X122466371Y-118938569D01*
X122456500Y-118936111D01*
X122446174Y-118941060D01*
X122439742Y-118959123D01*
X122436400Y-118995122D01*
X122435345Y-119053882D01*
X122435333Y-119063111D01*
X122437328Y-119132579D01*
X122443697Y-119174908D01*
X122455020Y-119190925D01*
X122471879Y-119181457D01*
X122494649Y-119147688D01*
X122508299Y-119126193D01*
X122523710Y-119113595D01*
X122548218Y-119107520D01*
X122589154Y-119105595D01*
X122625177Y-119105444D01*
X122731667Y-119105444D01*
X122731667Y-119217414D01*
X122729273Y-119296569D01*
X122721336Y-119351151D01*
X122706725Y-119384461D01*
X122684309Y-119399802D01*
X122668516Y-119401777D01*
X122640677Y-119408254D01*
X122632889Y-119430000D01*
X122634550Y-119441913D01*
X122642652Y-119449902D01*
X122661872Y-119454747D01*
X122696886Y-119457227D01*
X122752371Y-119458122D01*
X122802222Y-119458222D01*
X122873703Y-119457945D01*
X122921639Y-119456595D01*
X122950709Y-119453391D01*
X122965588Y-119447556D01*
X122970954Y-119438308D01*
X122971556Y-119430000D01*
X122962883Y-119407528D01*
X122937788Y-119401777D01*
X122908336Y-119393452D01*
X122895454Y-119379457D01*
X122891724Y-119355359D01*
X122889051Y-119308913D01*
X122887382Y-119245454D01*
X122886666Y-119170316D01*
X122886849Y-119088833D01*
X122887880Y-119006341D01*
X122889705Y-118928175D01*
X122892273Y-118859669D01*
X122895530Y-118806158D01*
X122899424Y-118772976D01*
X122901497Y-118765850D01*
X122924887Y-118743719D01*
X122943830Y-118738555D01*
X122967064Y-118728334D01*
X122971556Y-118710333D01*
X122970446Y-118700747D01*
X122964691Y-118693619D01*
X122950655Y-118688586D01*
X122924702Y-118685284D01*
X122883194Y-118683350D01*
X122822494Y-118682419D01*
X122738968Y-118682129D01*
X122689333Y-118682111D01*
X122407111Y-118682111D01*
X122407111Y-118773833D01*
G36*
X119700518Y-118673603D02*
X119593966Y-118688548D01*
X119508459Y-118714216D01*
X119442184Y-118750935D01*
X119410916Y-118778385D01*
X119358198Y-118852659D01*
X119325131Y-118940646D01*
X119311617Y-119036128D01*
X119317553Y-119132892D01*
X119342840Y-119224722D01*
X119387377Y-119305402D01*
X119420021Y-119342751D01*
X119460391Y-119374823D01*
X119511434Y-119406492D01*
X119535500Y-119418693D01*
X119562421Y-119430128D01*
X119589647Y-119438666D01*
X119621979Y-119444828D01*
X119664218Y-119449134D01*
X119721165Y-119452105D01*
X119797620Y-119454259D01*
X119877695Y-119455773D01*
X119971446Y-119457270D01*
X120040691Y-119457897D01*
X120089142Y-119457318D01*
X120120508Y-119455195D01*
X120138502Y-119451190D01*
X120146833Y-119444967D01*
X120149214Y-119436188D01*
X120149333Y-119431079D01*
X120140841Y-119407604D01*
X120116878Y-119401777D01*
X120083706Y-119394807D01*
X120067489Y-119384844D01*
X120061875Y-119365471D01*
X120057321Y-119323090D01*
X120053846Y-119262898D01*
X120051470Y-119190090D01*
X120050212Y-119109861D01*
X120050139Y-119059265D01*
X119881222Y-119059265D01*
X119880779Y-119152220D01*
X119879537Y-119235678D01*
X119877626Y-119305518D01*
X119875177Y-119357620D01*
X119872320Y-119387864D01*
X119870639Y-119393671D01*
X119852238Y-119398282D01*
X119813729Y-119400373D01*
X119763146Y-119399536D01*
X119758786Y-119399329D01*
X119701318Y-119394854D01*
X119661669Y-119386255D01*
X119629450Y-119370322D01*
X119603564Y-119351349D01*
X119546409Y-119294094D01*
X119509336Y-119226901D01*
X119490129Y-119144459D01*
X119486111Y-119070166D01*
X119493466Y-118973014D01*
X119517019Y-118895044D01*
X119559005Y-118830914D01*
X119603779Y-118788810D01*
X119634955Y-118766394D01*
X119665025Y-118752779D01*
X119703298Y-118745260D01*
X119759081Y-118741133D01*
X119769584Y-118740637D01*
X119881222Y-118735567D01*
X119881222Y-119059265D01*
X120050139Y-119059265D01*
X120050092Y-119027408D01*
X120051130Y-118947925D01*
X120053344Y-118876609D01*
X120056755Y-118818655D01*
X120061382Y-118779259D01*
X120065163Y-118765850D01*
X120090656Y-118743789D01*
X120114552Y-118738555D01*
X120142249Y-118731466D01*
X120149333Y-118711725D01*
X120146879Y-118700085D01*
X120136411Y-118691765D01*
X120113267Y-118685716D01*
X120072789Y-118680891D01*
X120010316Y-118676243D01*
X119984019Y-118674566D01*
X119829931Y-118669052D01*
X119700518Y-118673603D01*
X119700518Y-118673603D01*
G37*
X119700518Y-118673603D02*
X119593966Y-118688548D01*
X119508459Y-118714216D01*
X119442184Y-118750935D01*
X119410916Y-118778385D01*
X119358198Y-118852659D01*
X119325131Y-118940646D01*
X119311617Y-119036128D01*
X119317553Y-119132892D01*
X119342840Y-119224722D01*
X119387377Y-119305402D01*
X119420021Y-119342751D01*
X119460391Y-119374823D01*
X119511434Y-119406492D01*
X119535500Y-119418693D01*
X119562421Y-119430128D01*
X119589647Y-119438666D01*
X119621979Y-119444828D01*
X119664218Y-119449134D01*
X119721165Y-119452105D01*
X119797620Y-119454259D01*
X119877695Y-119455773D01*
X119971446Y-119457270D01*
X120040691Y-119457897D01*
X120089142Y-119457318D01*
X120120508Y-119455195D01*
X120138502Y-119451190D01*
X120146833Y-119444967D01*
X120149214Y-119436188D01*
X120149333Y-119431079D01*
X120140841Y-119407604D01*
X120116878Y-119401777D01*
X120083706Y-119394807D01*
X120067489Y-119384844D01*
X120061875Y-119365471D01*
X120057321Y-119323090D01*
X120053846Y-119262898D01*
X120051470Y-119190090D01*
X120050212Y-119109861D01*
X120050139Y-119059265D01*
X119881222Y-119059265D01*
X119880779Y-119152220D01*
X119879537Y-119235678D01*
X119877626Y-119305518D01*
X119875177Y-119357620D01*
X119872320Y-119387864D01*
X119870639Y-119393671D01*
X119852238Y-119398282D01*
X119813729Y-119400373D01*
X119763146Y-119399536D01*
X119758786Y-119399329D01*
X119701318Y-119394854D01*
X119661669Y-119386255D01*
X119629450Y-119370322D01*
X119603564Y-119351349D01*
X119546409Y-119294094D01*
X119509336Y-119226901D01*
X119490129Y-119144459D01*
X119486111Y-119070166D01*
X119493466Y-118973014D01*
X119517019Y-118895044D01*
X119559005Y-118830914D01*
X119603779Y-118788810D01*
X119634955Y-118766394D01*
X119665025Y-118752779D01*
X119703298Y-118745260D01*
X119759081Y-118741133D01*
X119769584Y-118740637D01*
X119881222Y-118735567D01*
X119881222Y-119059265D01*
X120050139Y-119059265D01*
X120050092Y-119027408D01*
X120051130Y-118947925D01*
X120053344Y-118876609D01*
X120056755Y-118818655D01*
X120061382Y-118779259D01*
X120065163Y-118765850D01*
X120090656Y-118743789D01*
X120114552Y-118738555D01*
X120142249Y-118731466D01*
X120149333Y-118711725D01*
X120146879Y-118700085D01*
X120136411Y-118691765D01*
X120113267Y-118685716D01*
X120072789Y-118680891D01*
X120010316Y-118676243D01*
X119984019Y-118674566D01*
X119829931Y-118669052D01*
X119700518Y-118673603D01*
G36*
X118845065Y-118684643D02*
X118784083Y-118685363D01*
X118477167Y-118689166D01*
X118472966Y-118777361D01*
X118471951Y-118827275D01*
X118475590Y-118854659D01*
X118484906Y-118864970D01*
X118489483Y-118865555D01*
X118506876Y-118853230D01*
X118519514Y-118823160D01*
X118519526Y-118823104D01*
X118530583Y-118792346D01*
X118550978Y-118771814D01*
X118585599Y-118759621D01*
X118639334Y-118753881D01*
X118702017Y-118752666D01*
X118822889Y-118752666D01*
X118822889Y-119034889D01*
X118718064Y-119034889D01*
X118648188Y-119031315D01*
X118602324Y-119019481D01*
X118577041Y-118997717D01*
X118568907Y-118964354D01*
X118568889Y-118962290D01*
X118560875Y-118940515D01*
X118544195Y-118938763D01*
X118531959Y-118945118D01*
X118523996Y-118962144D01*
X118519089Y-118995258D01*
X118516021Y-119049874D01*
X118515423Y-119066797D01*
X118513900Y-119125966D01*
X118514844Y-119162412D01*
X118519351Y-119181602D01*
X118528515Y-119189004D01*
X118540117Y-119190111D01*
X118563296Y-119181859D01*
X118568889Y-119169952D01*
X118578100Y-119138976D01*
X118607422Y-119118658D01*
X118659389Y-119107902D01*
X118718064Y-119105444D01*
X118822889Y-119105444D01*
X118822889Y-119387666D01*
X118688192Y-119387666D01*
X118624479Y-119387092D01*
X118582192Y-119384443D01*
X118554544Y-119378330D01*
X118534748Y-119367367D01*
X118518859Y-119353030D01*
X118495019Y-119321217D01*
X118484272Y-119291124D01*
X118484222Y-119289530D01*
X118474934Y-119265844D01*
X118454082Y-119260666D01*
X118436129Y-119263198D01*
X118428966Y-119275653D01*
X118430235Y-119305323D01*
X118432915Y-119326136D01*
X118438446Y-119373609D01*
X118441605Y-119414529D01*
X118441889Y-119424914D01*
X118441889Y-119458222D01*
X118780556Y-119458222D01*
X118886784Y-119458141D01*
X118968111Y-119457714D01*
X119027860Y-119456665D01*
X119069353Y-119454716D01*
X119095910Y-119451590D01*
X119110854Y-119447011D01*
X119117506Y-119440703D01*
X119119189Y-119432387D01*
X119119222Y-119430000D01*
X119113459Y-119410276D01*
X119091186Y-119402536D01*
X119071561Y-119401777D01*
X119034154Y-119396367D01*
X119008578Y-119383253D01*
X119007776Y-119382348D01*
X119001836Y-119363496D01*
X118997707Y-119322462D01*
X118995331Y-119257716D01*
X118994648Y-119167729D01*
X118995464Y-119061321D01*
X118999278Y-118759722D01*
X119045139Y-118746220D01*
X119080984Y-118728114D01*
X119091000Y-118707140D01*
X119089450Y-118698768D01*
X119082488Y-118692525D01*
X119066643Y-118688166D01*
X119038448Y-118685445D01*
X118994433Y-118684115D01*
X118931128Y-118683930D01*
X118845065Y-118684643D01*
X118845065Y-118684643D01*
G37*
X118845065Y-118684643D02*
X118784083Y-118685363D01*
X118477167Y-118689166D01*
X118472966Y-118777361D01*
X118471951Y-118827275D01*
X118475590Y-118854659D01*
X118484906Y-118864970D01*
X118489483Y-118865555D01*
X118506876Y-118853230D01*
X118519514Y-118823160D01*
X118519526Y-118823104D01*
X118530583Y-118792346D01*
X118550978Y-118771814D01*
X118585599Y-118759621D01*
X118639334Y-118753881D01*
X118702017Y-118752666D01*
X118822889Y-118752666D01*
X118822889Y-119034889D01*
X118718064Y-119034889D01*
X118648188Y-119031315D01*
X118602324Y-119019481D01*
X118577041Y-118997717D01*
X118568907Y-118964354D01*
X118568889Y-118962290D01*
X118560875Y-118940515D01*
X118544195Y-118938763D01*
X118531959Y-118945118D01*
X118523996Y-118962144D01*
X118519089Y-118995258D01*
X118516021Y-119049874D01*
X118515423Y-119066797D01*
X118513900Y-119125966D01*
X118514844Y-119162412D01*
X118519351Y-119181602D01*
X118528515Y-119189004D01*
X118540117Y-119190111D01*
X118563296Y-119181859D01*
X118568889Y-119169952D01*
X118578100Y-119138976D01*
X118607422Y-119118658D01*
X118659389Y-119107902D01*
X118718064Y-119105444D01*
X118822889Y-119105444D01*
X118822889Y-119387666D01*
X118688192Y-119387666D01*
X118624479Y-119387092D01*
X118582192Y-119384443D01*
X118554544Y-119378330D01*
X118534748Y-119367367D01*
X118518859Y-119353030D01*
X118495019Y-119321217D01*
X118484272Y-119291124D01*
X118484222Y-119289530D01*
X118474934Y-119265844D01*
X118454082Y-119260666D01*
X118436129Y-119263198D01*
X118428966Y-119275653D01*
X118430235Y-119305323D01*
X118432915Y-119326136D01*
X118438446Y-119373609D01*
X118441605Y-119414529D01*
X118441889Y-119424914D01*
X118441889Y-119458222D01*
X118780556Y-119458222D01*
X118886784Y-119458141D01*
X118968111Y-119457714D01*
X119027860Y-119456665D01*
X119069353Y-119454716D01*
X119095910Y-119451590D01*
X119110854Y-119447011D01*
X119117506Y-119440703D01*
X119119189Y-119432387D01*
X119119222Y-119430000D01*
X119113459Y-119410276D01*
X119091186Y-119402536D01*
X119071561Y-119401777D01*
X119034154Y-119396367D01*
X119008578Y-119383253D01*
X119007776Y-119382348D01*
X119001836Y-119363496D01*
X118997707Y-119322462D01*
X118995331Y-119257716D01*
X118994648Y-119167729D01*
X118995464Y-119061321D01*
X118999278Y-118759722D01*
X119045139Y-118746220D01*
X119080984Y-118728114D01*
X119091000Y-118707140D01*
X119089450Y-118698768D01*
X119082488Y-118692525D01*
X119066643Y-118688166D01*
X119038448Y-118685445D01*
X118994433Y-118684115D01*
X118931128Y-118683930D01*
X118845065Y-118684643D01*
G36*
X117824567Y-118673222D02*
X117749897Y-118678123D01*
X117685831Y-118685842D01*
X117637214Y-118696478D01*
X117633676Y-118697610D01*
X117569715Y-118729921D01*
X117506692Y-118780592D01*
X117454288Y-118841148D01*
X117436087Y-118870599D01*
X117415083Y-118930899D01*
X117404119Y-119007382D01*
X117403197Y-119089869D01*
X117412318Y-119168181D01*
X117431484Y-119232142D01*
X117436029Y-119241397D01*
X117495550Y-119326003D01*
X117572465Y-119392981D01*
X117623286Y-119421700D01*
X117648254Y-119432025D01*
X117675442Y-119439802D01*
X117709435Y-119445485D01*
X117754819Y-119449530D01*
X117816178Y-119452390D01*
X117898098Y-119454521D01*
X117966881Y-119455768D01*
X118062336Y-119457203D01*
X118133143Y-119457743D01*
X118182872Y-119457112D01*
X118215089Y-119455037D01*
X118233362Y-119451243D01*
X118241260Y-119445454D01*
X118242350Y-119437397D01*
X118241903Y-119434602D01*
X118224953Y-119412365D01*
X118201856Y-119404307D01*
X118178807Y-119399593D01*
X118161404Y-119389814D01*
X118148863Y-119371416D01*
X118140404Y-119340844D01*
X118135245Y-119294544D01*
X118132603Y-119228961D01*
X118131697Y-119140541D01*
X118131653Y-119085108D01*
X118132327Y-118978891D01*
X118134634Y-118897423D01*
X118139276Y-118837248D01*
X118146956Y-118794909D01*
X118158376Y-118766948D01*
X118174241Y-118749909D01*
X118195252Y-118740333D01*
X118202014Y-118738555D01*
X117976222Y-118738555D01*
X117976222Y-119053233D01*
X117975756Y-119164823D01*
X117974268Y-119250724D01*
X117971625Y-119313456D01*
X117967693Y-119355537D01*
X117962338Y-119379487D01*
X117958583Y-119386007D01*
X117929395Y-119398932D01*
X117882264Y-119402572D01*
X117825550Y-119397872D01*
X117767612Y-119385779D01*
X117716811Y-119367237D01*
X117697678Y-119356497D01*
X117640805Y-119306278D01*
X117602181Y-119241374D01*
X117580416Y-119158470D01*
X117574085Y-119061957D01*
X117575057Y-119000047D01*
X117579350Y-118956837D01*
X117589082Y-118922833D01*
X117606371Y-118888537D01*
X117616582Y-118871457D01*
X117667856Y-118807236D01*
X117731355Y-118765077D01*
X117810920Y-118743044D01*
X117880435Y-118738555D01*
X117976222Y-118738555D01*
X118202014Y-118738555D01*
X118202113Y-118738529D01*
X118228562Y-118725247D01*
X118237278Y-118709697D01*
X118224011Y-118697581D01*
X118187440Y-118687606D01*
X118132409Y-118679868D01*
X118063763Y-118674463D01*
X117986344Y-118671489D01*
X117904997Y-118671043D01*
X117824567Y-118673222D01*
X117824567Y-118673222D01*
G37*
X117824567Y-118673222D02*
X117749897Y-118678123D01*
X117685831Y-118685842D01*
X117637214Y-118696478D01*
X117633676Y-118697610D01*
X117569715Y-118729921D01*
X117506692Y-118780592D01*
X117454288Y-118841148D01*
X117436087Y-118870599D01*
X117415083Y-118930899D01*
X117404119Y-119007382D01*
X117403197Y-119089869D01*
X117412318Y-119168181D01*
X117431484Y-119232142D01*
X117436029Y-119241397D01*
X117495550Y-119326003D01*
X117572465Y-119392981D01*
X117623286Y-119421700D01*
X117648254Y-119432025D01*
X117675442Y-119439802D01*
X117709435Y-119445485D01*
X117754819Y-119449530D01*
X117816178Y-119452390D01*
X117898098Y-119454521D01*
X117966881Y-119455768D01*
X118062336Y-119457203D01*
X118133143Y-119457743D01*
X118182872Y-119457112D01*
X118215089Y-119455037D01*
X118233362Y-119451243D01*
X118241260Y-119445454D01*
X118242350Y-119437397D01*
X118241903Y-119434602D01*
X118224953Y-119412365D01*
X118201856Y-119404307D01*
X118178807Y-119399593D01*
X118161404Y-119389814D01*
X118148863Y-119371416D01*
X118140404Y-119340844D01*
X118135245Y-119294544D01*
X118132603Y-119228961D01*
X118131697Y-119140541D01*
X118131653Y-119085108D01*
X118132327Y-118978891D01*
X118134634Y-118897423D01*
X118139276Y-118837248D01*
X118146956Y-118794909D01*
X118158376Y-118766948D01*
X118174241Y-118749909D01*
X118195252Y-118740333D01*
X118202014Y-118738555D01*
X117976222Y-118738555D01*
X117976222Y-119053233D01*
X117975756Y-119164823D01*
X117974268Y-119250724D01*
X117971625Y-119313456D01*
X117967693Y-119355537D01*
X117962338Y-119379487D01*
X117958583Y-119386007D01*
X117929395Y-119398932D01*
X117882264Y-119402572D01*
X117825550Y-119397872D01*
X117767612Y-119385779D01*
X117716811Y-119367237D01*
X117697678Y-119356497D01*
X117640805Y-119306278D01*
X117602181Y-119241374D01*
X117580416Y-119158470D01*
X117574085Y-119061957D01*
X117575057Y-119000047D01*
X117579350Y-118956837D01*
X117589082Y-118922833D01*
X117606371Y-118888537D01*
X117616582Y-118871457D01*
X117667856Y-118807236D01*
X117731355Y-118765077D01*
X117810920Y-118743044D01*
X117880435Y-118738555D01*
X117976222Y-118738555D01*
X118202014Y-118738555D01*
X118202113Y-118738529D01*
X118228562Y-118725247D01*
X118237278Y-118709697D01*
X118224011Y-118697581D01*
X118187440Y-118687606D01*
X118132409Y-118679868D01*
X118063763Y-118674463D01*
X117986344Y-118671489D01*
X117904997Y-118671043D01*
X117824567Y-118673222D01*
G36*
X122420339Y-116855575D02*
X122355993Y-116857900D01*
X122305766Y-116861342D01*
X122276687Y-116865545D01*
X122276583Y-116865574D01*
X122257696Y-116871948D01*
X122246215Y-116882188D01*
X122240297Y-116902440D01*
X122238099Y-116938848D01*
X122237778Y-116994948D01*
X122239239Y-117070025D01*
X122243996Y-117120146D01*
X122252608Y-117148445D01*
X122265638Y-117158055D01*
X122266966Y-117158111D01*
X122277634Y-117145828D01*
X122290220Y-117114936D01*
X122294823Y-117099436D01*
X122325882Y-117032850D01*
X122375507Y-116982447D01*
X122438386Y-116949363D01*
X122509210Y-116934733D01*
X122582668Y-116939692D01*
X122653450Y-116965373D01*
X122713366Y-117009987D01*
X122744925Y-117047908D01*
X122758179Y-117085130D01*
X122759889Y-117112279D01*
X122755064Y-117156167D01*
X122738544Y-117196033D01*
X122707262Y-117235218D01*
X122658151Y-117277066D01*
X122588143Y-117324919D01*
X122534111Y-117358339D01*
X122469001Y-117398873D01*
X122408588Y-117438760D01*
X122359239Y-117473645D01*
X122327325Y-117499177D01*
X122325371Y-117501016D01*
X122265850Y-117576144D01*
X122225861Y-117664380D01*
X122206799Y-117759062D01*
X122210061Y-117853532D01*
X122234308Y-117935255D01*
X122273359Y-117998467D01*
X122329371Y-118060680D01*
X122392993Y-118112673D01*
X122442389Y-118140417D01*
X122485492Y-118152165D01*
X122548789Y-118161259D01*
X122624348Y-118167341D01*
X122704236Y-118170055D01*
X122780518Y-118169043D01*
X122845261Y-118163950D01*
X122871081Y-118159707D01*
X122918195Y-118146304D01*
X122959135Y-118128966D01*
X122967390Y-118124126D01*
X122982866Y-118112887D01*
X122992418Y-118099781D01*
X122996924Y-118078900D01*
X122997267Y-118044337D01*
X122994326Y-117990185D01*
X122992169Y-117957897D01*
X122986969Y-117896373D01*
X122980725Y-117845299D01*
X122974356Y-117811313D01*
X122970468Y-117801396D01*
X122958688Y-117803439D01*
X122945241Y-117824534D01*
X122934098Y-117856083D01*
X122929230Y-117889486D01*
X122929222Y-117890720D01*
X122917586Y-117930879D01*
X122886954Y-117975564D01*
X122843745Y-118017027D01*
X122802646Y-118043583D01*
X122733903Y-118066595D01*
X122654433Y-118075449D01*
X122576795Y-118069580D01*
X122528972Y-118055876D01*
X122470780Y-118017760D01*
X122431020Y-117963554D01*
X122410786Y-117899437D01*
X122411170Y-117831587D01*
X122433265Y-117766181D01*
X122469185Y-117717866D01*
X122502889Y-117689364D01*
X122552549Y-117653576D01*
X122609344Y-117616727D01*
X122630685Y-117603903D01*
X122743660Y-117531022D01*
X122830487Y-117459466D01*
X122893028Y-117387080D01*
X122933143Y-117311713D01*
X122952690Y-117231229D01*
X122950043Y-117139711D01*
X122921524Y-117054470D01*
X122869361Y-116979130D01*
X122795778Y-116917316D01*
X122741926Y-116888070D01*
X122706956Y-116873710D01*
X122672855Y-116864127D01*
X122632633Y-116858392D01*
X122579301Y-116855571D01*
X122505869Y-116854734D01*
X122491778Y-116854722D01*
X122420339Y-116855575D01*
X122420339Y-116855575D01*
G37*
X122420339Y-116855575D02*
X122355993Y-116857900D01*
X122305766Y-116861342D01*
X122276687Y-116865545D01*
X122276583Y-116865574D01*
X122257696Y-116871948D01*
X122246215Y-116882188D01*
X122240297Y-116902440D01*
X122238099Y-116938848D01*
X122237778Y-116994948D01*
X122239239Y-117070025D01*
X122243996Y-117120146D01*
X122252608Y-117148445D01*
X122265638Y-117158055D01*
X122266966Y-117158111D01*
X122277634Y-117145828D01*
X122290220Y-117114936D01*
X122294823Y-117099436D01*
X122325882Y-117032850D01*
X122375507Y-116982447D01*
X122438386Y-116949363D01*
X122509210Y-116934733D01*
X122582668Y-116939692D01*
X122653450Y-116965373D01*
X122713366Y-117009987D01*
X122744925Y-117047908D01*
X122758179Y-117085130D01*
X122759889Y-117112279D01*
X122755064Y-117156167D01*
X122738544Y-117196033D01*
X122707262Y-117235218D01*
X122658151Y-117277066D01*
X122588143Y-117324919D01*
X122534111Y-117358339D01*
X122469001Y-117398873D01*
X122408588Y-117438760D01*
X122359239Y-117473645D01*
X122327325Y-117499177D01*
X122325371Y-117501016D01*
X122265850Y-117576144D01*
X122225861Y-117664380D01*
X122206799Y-117759062D01*
X122210061Y-117853532D01*
X122234308Y-117935255D01*
X122273359Y-117998467D01*
X122329371Y-118060680D01*
X122392993Y-118112673D01*
X122442389Y-118140417D01*
X122485492Y-118152165D01*
X122548789Y-118161259D01*
X122624348Y-118167341D01*
X122704236Y-118170055D01*
X122780518Y-118169043D01*
X122845261Y-118163950D01*
X122871081Y-118159707D01*
X122918195Y-118146304D01*
X122959135Y-118128966D01*
X122967390Y-118124126D01*
X122982866Y-118112887D01*
X122992418Y-118099781D01*
X122996924Y-118078900D01*
X122997267Y-118044337D01*
X122994326Y-117990185D01*
X122992169Y-117957897D01*
X122986969Y-117896373D01*
X122980725Y-117845299D01*
X122974356Y-117811313D01*
X122970468Y-117801396D01*
X122958688Y-117803439D01*
X122945241Y-117824534D01*
X122934098Y-117856083D01*
X122929230Y-117889486D01*
X122929222Y-117890720D01*
X122917586Y-117930879D01*
X122886954Y-117975564D01*
X122843745Y-118017027D01*
X122802646Y-118043583D01*
X122733903Y-118066595D01*
X122654433Y-118075449D01*
X122576795Y-118069580D01*
X122528972Y-118055876D01*
X122470780Y-118017760D01*
X122431020Y-117963554D01*
X122410786Y-117899437D01*
X122411170Y-117831587D01*
X122433265Y-117766181D01*
X122469185Y-117717866D01*
X122502889Y-117689364D01*
X122552549Y-117653576D01*
X122609344Y-117616727D01*
X122630685Y-117603903D01*
X122743660Y-117531022D01*
X122830487Y-117459466D01*
X122893028Y-117387080D01*
X122933143Y-117311713D01*
X122952690Y-117231229D01*
X122950043Y-117139711D01*
X122921524Y-117054470D01*
X122869361Y-116979130D01*
X122795778Y-116917316D01*
X122741926Y-116888070D01*
X122706956Y-116873710D01*
X122672855Y-116864127D01*
X122632633Y-116858392D01*
X122579301Y-116855571D01*
X122505869Y-116854734D01*
X122491778Y-116854722D01*
X122420339Y-116855575D01*
G36*
X119036344Y-116865515D02*
X118984722Y-116867220D01*
X118950814Y-116870513D01*
X118946156Y-116871504D01*
X118927523Y-116881318D01*
X118934383Y-116892798D01*
X118964251Y-116903898D01*
X118992349Y-116909550D01*
X119034134Y-116920924D01*
X119056971Y-116941533D01*
X119063217Y-116954655D01*
X119067101Y-116978643D01*
X119070565Y-117026394D01*
X119073443Y-117093449D01*
X119075570Y-117175351D01*
X119076780Y-117267641D01*
X119076996Y-117324835D01*
X119077648Y-117425353D01*
X119079417Y-117522003D01*
X119082116Y-117609350D01*
X119085558Y-117681956D01*
X119089557Y-117734385D01*
X119091618Y-117750777D01*
X119122194Y-117869046D01*
X119173809Y-117968644D01*
X119246990Y-118050282D01*
X119342265Y-118114673D01*
X119371529Y-118129049D01*
X119412887Y-118146123D01*
X119453224Y-118157363D01*
X119500838Y-118164195D01*
X119564027Y-118168043D01*
X119606056Y-118169345D01*
X119704375Y-118169091D01*
X119781278Y-118163026D01*
X119824778Y-118154229D01*
X119930109Y-118114128D01*
X120012374Y-118062743D01*
X120075473Y-117997112D01*
X120113397Y-117935117D01*
X120131767Y-117895107D01*
X120146350Y-117853590D01*
X120157561Y-117806790D01*
X120165814Y-117750931D01*
X120171526Y-117682237D01*
X120175110Y-117596931D01*
X120176981Y-117491239D01*
X120177554Y-117361384D01*
X120177556Y-117351056D01*
X120177736Y-117230508D01*
X120178724Y-117135099D01*
X120181189Y-117061746D01*
X120185800Y-117007364D01*
X120193228Y-116968871D01*
X120204142Y-116943183D01*
X120219211Y-116927217D01*
X120239106Y-116917889D01*
X120264496Y-116912117D01*
X120273211Y-116910630D01*
X120330160Y-116899582D01*
X120359423Y-116890065D01*
X120361502Y-116882180D01*
X120336898Y-116876028D01*
X120286111Y-116871709D01*
X120209643Y-116869325D01*
X120107994Y-116868974D01*
X120067447Y-116869340D01*
X119970981Y-116870468D01*
X119899122Y-116871431D01*
X119848258Y-116872468D01*
X119814776Y-116873817D01*
X119795064Y-116875717D01*
X119785510Y-116878408D01*
X119782501Y-116882129D01*
X119782426Y-116887118D01*
X119782445Y-116888196D01*
X119794885Y-116897983D01*
X119825862Y-116907185D01*
X119837056Y-116909236D01*
X119863064Y-116913733D01*
X119883742Y-116919989D01*
X119899700Y-116931003D01*
X119911551Y-116949776D01*
X119919905Y-116979306D01*
X119925373Y-117022594D01*
X119928567Y-117082640D01*
X119930097Y-117162443D01*
X119930575Y-117265004D01*
X119930611Y-117368433D01*
X119930432Y-117488781D01*
X119929763Y-117584553D01*
X119928405Y-117659396D01*
X119926160Y-117716956D01*
X119922831Y-117760878D01*
X119918219Y-117794809D01*
X119912126Y-117822393D01*
X119904637Y-117846465D01*
X119862440Y-117935461D01*
X119805432Y-118000797D01*
X119732226Y-118043450D01*
X119641431Y-118064397D01*
X119590806Y-118067029D01*
X119489463Y-118056553D01*
X119405876Y-118024145D01*
X119340119Y-117969871D01*
X119292268Y-117893799D01*
X119262401Y-117795994D01*
X119258876Y-117775678D01*
X119254952Y-117734886D01*
X119251820Y-117670884D01*
X119249591Y-117588676D01*
X119248376Y-117493268D01*
X119248286Y-117389662D01*
X119248859Y-117322232D01*
X119250372Y-117205690D01*
X119252278Y-117114204D01*
X119255407Y-117044610D01*
X119260591Y-116993746D01*
X119268662Y-116958449D01*
X119280451Y-116935555D01*
X119296790Y-116921902D01*
X119318510Y-116914326D01*
X119346442Y-116909664D01*
X119357703Y-116908154D01*
X119394215Y-116899791D01*
X119411181Y-116888447D01*
X119411381Y-116884542D01*
X119396532Y-116879634D01*
X119359203Y-116875187D01*
X119305137Y-116871363D01*
X119240077Y-116868323D01*
X119169763Y-116866228D01*
X119099938Y-116865238D01*
X119036344Y-116865515D01*
X119036344Y-116865515D01*
G37*
X119036344Y-116865515D02*
X118984722Y-116867220D01*
X118950814Y-116870513D01*
X118946156Y-116871504D01*
X118927523Y-116881318D01*
X118934383Y-116892798D01*
X118964251Y-116903898D01*
X118992349Y-116909550D01*
X119034134Y-116920924D01*
X119056971Y-116941533D01*
X119063217Y-116954655D01*
X119067101Y-116978643D01*
X119070565Y-117026394D01*
X119073443Y-117093449D01*
X119075570Y-117175351D01*
X119076780Y-117267641D01*
X119076996Y-117324835D01*
X119077648Y-117425353D01*
X119079417Y-117522003D01*
X119082116Y-117609350D01*
X119085558Y-117681956D01*
X119089557Y-117734385D01*
X119091618Y-117750777D01*
X119122194Y-117869046D01*
X119173809Y-117968644D01*
X119246990Y-118050282D01*
X119342265Y-118114673D01*
X119371529Y-118129049D01*
X119412887Y-118146123D01*
X119453224Y-118157363D01*
X119500838Y-118164195D01*
X119564027Y-118168043D01*
X119606056Y-118169345D01*
X119704375Y-118169091D01*
X119781278Y-118163026D01*
X119824778Y-118154229D01*
X119930109Y-118114128D01*
X120012374Y-118062743D01*
X120075473Y-117997112D01*
X120113397Y-117935117D01*
X120131767Y-117895107D01*
X120146350Y-117853590D01*
X120157561Y-117806790D01*
X120165814Y-117750931D01*
X120171526Y-117682237D01*
X120175110Y-117596931D01*
X120176981Y-117491239D01*
X120177554Y-117361384D01*
X120177556Y-117351056D01*
X120177736Y-117230508D01*
X120178724Y-117135099D01*
X120181189Y-117061746D01*
X120185800Y-117007364D01*
X120193228Y-116968871D01*
X120204142Y-116943183D01*
X120219211Y-116927217D01*
X120239106Y-116917889D01*
X120264496Y-116912117D01*
X120273211Y-116910630D01*
X120330160Y-116899582D01*
X120359423Y-116890065D01*
X120361502Y-116882180D01*
X120336898Y-116876028D01*
X120286111Y-116871709D01*
X120209643Y-116869325D01*
X120107994Y-116868974D01*
X120067447Y-116869340D01*
X119970981Y-116870468D01*
X119899122Y-116871431D01*
X119848258Y-116872468D01*
X119814776Y-116873817D01*
X119795064Y-116875717D01*
X119785510Y-116878408D01*
X119782501Y-116882129D01*
X119782426Y-116887118D01*
X119782445Y-116888196D01*
X119794885Y-116897983D01*
X119825862Y-116907185D01*
X119837056Y-116909236D01*
X119863064Y-116913733D01*
X119883742Y-116919989D01*
X119899700Y-116931003D01*
X119911551Y-116949776D01*
X119919905Y-116979306D01*
X119925373Y-117022594D01*
X119928567Y-117082640D01*
X119930097Y-117162443D01*
X119930575Y-117265004D01*
X119930611Y-117368433D01*
X119930432Y-117488781D01*
X119929763Y-117584553D01*
X119928405Y-117659396D01*
X119926160Y-117716956D01*
X119922831Y-117760878D01*
X119918219Y-117794809D01*
X119912126Y-117822393D01*
X119904637Y-117846465D01*
X119862440Y-117935461D01*
X119805432Y-118000797D01*
X119732226Y-118043450D01*
X119641431Y-118064397D01*
X119590806Y-118067029D01*
X119489463Y-118056553D01*
X119405876Y-118024145D01*
X119340119Y-117969871D01*
X119292268Y-117893799D01*
X119262401Y-117795994D01*
X119258876Y-117775678D01*
X119254952Y-117734886D01*
X119251820Y-117670884D01*
X119249591Y-117588676D01*
X119248376Y-117493268D01*
X119248286Y-117389662D01*
X119248859Y-117322232D01*
X119250372Y-117205690D01*
X119252278Y-117114204D01*
X119255407Y-117044610D01*
X119260591Y-116993746D01*
X119268662Y-116958449D01*
X119280451Y-116935555D01*
X119296790Y-116921902D01*
X119318510Y-116914326D01*
X119346442Y-116909664D01*
X119357703Y-116908154D01*
X119394215Y-116899791D01*
X119411181Y-116888447D01*
X119411381Y-116884542D01*
X119396532Y-116879634D01*
X119359203Y-116875187D01*
X119305137Y-116871363D01*
X119240077Y-116868323D01*
X119169763Y-116866228D01*
X119099938Y-116865238D01*
X119036344Y-116865515D01*
G36*
X113921164Y-116865599D02*
X113850456Y-116867495D01*
X113783601Y-116870384D01*
X113726343Y-116874101D01*
X113684428Y-116878482D01*
X113663601Y-116883362D01*
X113662375Y-116884598D01*
X113670782Y-116897693D01*
X113698304Y-116908544D01*
X113701918Y-116909322D01*
X113729591Y-116916549D01*
X113741162Y-116929252D01*
X113741293Y-116956329D01*
X113738402Y-116978949D01*
X113731105Y-117014397D01*
X113716155Y-117072934D01*
X113694643Y-117150816D01*
X113667662Y-117244297D01*
X113636305Y-117349635D01*
X113601664Y-117463084D01*
X113564832Y-117580902D01*
X113540274Y-117657925D01*
X113495282Y-117797906D01*
X113318858Y-117340425D01*
X113270589Y-117215815D01*
X113231054Y-117115226D01*
X113199169Y-117036220D01*
X113173846Y-116976361D01*
X113153999Y-116933211D01*
X113138540Y-116904332D01*
X113126385Y-116887288D01*
X113116445Y-116879642D01*
X113113003Y-116878691D01*
X113104358Y-116877266D01*
X113096805Y-116877375D01*
X113089156Y-116881438D01*
X113080222Y-116891874D01*
X113068811Y-116911104D01*
X113053735Y-116941545D01*
X113033804Y-116985619D01*
X113007829Y-117045744D01*
X112974619Y-117124340D01*
X112932986Y-117223827D01*
X112881740Y-117346624D01*
X112875021Y-117362722D01*
X112833480Y-117461826D01*
X112795137Y-117552511D01*
X112761405Y-117631495D01*
X112733699Y-117695494D01*
X112713433Y-117741227D01*
X112702021Y-117765409D01*
X112700306Y-117768259D01*
X112693991Y-117758148D01*
X112681099Y-117724888D01*
X112662849Y-117672456D01*
X112640464Y-117604824D01*
X112615165Y-117525970D01*
X112588174Y-117439866D01*
X112560712Y-117350489D01*
X112534001Y-117261812D01*
X112509262Y-117177811D01*
X112487717Y-117102461D01*
X112470588Y-117039737D01*
X112459095Y-116993612D01*
X112454477Y-116968337D01*
X112454403Y-116946024D01*
X112461416Y-116930750D01*
X112480980Y-116918584D01*
X112518556Y-116905594D01*
X112557556Y-116894180D01*
X112574416Y-116885856D01*
X112565500Y-116878647D01*
X112533240Y-116872872D01*
X112480073Y-116868851D01*
X112408431Y-116866901D01*
X112349390Y-116866932D01*
X112263644Y-116869187D01*
X112203221Y-116873834D01*
X112168724Y-116880687D01*
X112160759Y-116889560D01*
X112179929Y-116900270D01*
X112211388Y-116909138D01*
X112227405Y-116913371D01*
X112241725Y-116919305D01*
X112255274Y-116929086D01*
X112268978Y-116944855D01*
X112283761Y-116968757D01*
X112300551Y-117002934D01*
X112320272Y-117049531D01*
X112343850Y-117110690D01*
X112372211Y-117188555D01*
X112406281Y-117285270D01*
X112446985Y-117402977D01*
X112495249Y-117543821D01*
X112532209Y-117652000D01*
X112577303Y-117784030D01*
X112614227Y-117891801D01*
X112643975Y-117977748D01*
X112667542Y-118044302D01*
X112685923Y-118093898D01*
X112700113Y-118128969D01*
X112711106Y-118151949D01*
X112719898Y-118165272D01*
X112727483Y-118171370D01*
X112734857Y-118172678D01*
X112743013Y-118171628D01*
X112744541Y-118171392D01*
X112754381Y-118165972D01*
X112766934Y-118150802D01*
X112783337Y-118123556D01*
X112804722Y-118081910D01*
X112832225Y-118023541D01*
X112866979Y-117946123D01*
X112910119Y-117847332D01*
X112962779Y-117724844D01*
X112965118Y-117719376D01*
X113010140Y-117614945D01*
X113051889Y-117519735D01*
X113089049Y-117436622D01*
X113120302Y-117368484D01*
X113144333Y-117318199D01*
X113159824Y-117288645D01*
X113165262Y-117281931D01*
X113172637Y-117297254D01*
X113189029Y-117335282D01*
X113212985Y-117392511D01*
X113243049Y-117465438D01*
X113277769Y-117550559D01*
X113315692Y-117644371D01*
X113316666Y-117646791D01*
X113370621Y-117780262D01*
X113415480Y-117889664D01*
X113452301Y-117977260D01*
X113482142Y-118045314D01*
X113506062Y-118096089D01*
X113525119Y-118131849D01*
X113540372Y-118154855D01*
X113552879Y-118167373D01*
X113562020Y-118171434D01*
X113586508Y-118163874D01*
X113601221Y-118146928D01*
X113609350Y-118127044D01*
X113625374Y-118083765D01*
X113648117Y-118020422D01*
X113676399Y-117940342D01*
X113709044Y-117846855D01*
X113744873Y-117743291D01*
X113772523Y-117662772D01*
X113825576Y-117507877D01*
X113870319Y-117377489D01*
X113907532Y-117269395D01*
X113937994Y-117181383D01*
X113962487Y-117111240D01*
X113981789Y-117056756D01*
X113996681Y-117015717D01*
X114007943Y-116985912D01*
X114016355Y-116965128D01*
X114022697Y-116951153D01*
X114025079Y-116946505D01*
X114048116Y-116925651D01*
X114084906Y-116911009D01*
X114088939Y-116910174D01*
X114128281Y-116899294D01*
X114145739Y-116886861D01*
X114138857Y-116875348D01*
X114127622Y-116871247D01*
X114098953Y-116867520D01*
X114051157Y-116865447D01*
X113989979Y-116864862D01*
X113921164Y-116865599D01*
X113921164Y-116865599D01*
G37*
X113921164Y-116865599D02*
X113850456Y-116867495D01*
X113783601Y-116870384D01*
X113726343Y-116874101D01*
X113684428Y-116878482D01*
X113663601Y-116883362D01*
X113662375Y-116884598D01*
X113670782Y-116897693D01*
X113698304Y-116908544D01*
X113701918Y-116909322D01*
X113729591Y-116916549D01*
X113741162Y-116929252D01*
X113741293Y-116956329D01*
X113738402Y-116978949D01*
X113731105Y-117014397D01*
X113716155Y-117072934D01*
X113694643Y-117150816D01*
X113667662Y-117244297D01*
X113636305Y-117349635D01*
X113601664Y-117463084D01*
X113564832Y-117580902D01*
X113540274Y-117657925D01*
X113495282Y-117797906D01*
X113318858Y-117340425D01*
X113270589Y-117215815D01*
X113231054Y-117115226D01*
X113199169Y-117036220D01*
X113173846Y-116976361D01*
X113153999Y-116933211D01*
X113138540Y-116904332D01*
X113126385Y-116887288D01*
X113116445Y-116879642D01*
X113113003Y-116878691D01*
X113104358Y-116877266D01*
X113096805Y-116877375D01*
X113089156Y-116881438D01*
X113080222Y-116891874D01*
X113068811Y-116911104D01*
X113053735Y-116941545D01*
X113033804Y-116985619D01*
X113007829Y-117045744D01*
X112974619Y-117124340D01*
X112932986Y-117223827D01*
X112881740Y-117346624D01*
X112875021Y-117362722D01*
X112833480Y-117461826D01*
X112795137Y-117552511D01*
X112761405Y-117631495D01*
X112733699Y-117695494D01*
X112713433Y-117741227D01*
X112702021Y-117765409D01*
X112700306Y-117768259D01*
X112693991Y-117758148D01*
X112681099Y-117724888D01*
X112662849Y-117672456D01*
X112640464Y-117604824D01*
X112615165Y-117525970D01*
X112588174Y-117439866D01*
X112560712Y-117350489D01*
X112534001Y-117261812D01*
X112509262Y-117177811D01*
X112487717Y-117102461D01*
X112470588Y-117039737D01*
X112459095Y-116993612D01*
X112454477Y-116968337D01*
X112454403Y-116946024D01*
X112461416Y-116930750D01*
X112480980Y-116918584D01*
X112518556Y-116905594D01*
X112557556Y-116894180D01*
X112574416Y-116885856D01*
X112565500Y-116878647D01*
X112533240Y-116872872D01*
X112480073Y-116868851D01*
X112408431Y-116866901D01*
X112349390Y-116866932D01*
X112263644Y-116869187D01*
X112203221Y-116873834D01*
X112168724Y-116880687D01*
X112160759Y-116889560D01*
X112179929Y-116900270D01*
X112211388Y-116909138D01*
X112227405Y-116913371D01*
X112241725Y-116919305D01*
X112255274Y-116929086D01*
X112268978Y-116944855D01*
X112283761Y-116968757D01*
X112300551Y-117002934D01*
X112320272Y-117049531D01*
X112343850Y-117110690D01*
X112372211Y-117188555D01*
X112406281Y-117285270D01*
X112446985Y-117402977D01*
X112495249Y-117543821D01*
X112532209Y-117652000D01*
X112577303Y-117784030D01*
X112614227Y-117891801D01*
X112643975Y-117977748D01*
X112667542Y-118044302D01*
X112685923Y-118093898D01*
X112700113Y-118128969D01*
X112711106Y-118151949D01*
X112719898Y-118165272D01*
X112727483Y-118171370D01*
X112734857Y-118172678D01*
X112743013Y-118171628D01*
X112744541Y-118171392D01*
X112754381Y-118165972D01*
X112766934Y-118150802D01*
X112783337Y-118123556D01*
X112804722Y-118081910D01*
X112832225Y-118023541D01*
X112866979Y-117946123D01*
X112910119Y-117847332D01*
X112962779Y-117724844D01*
X112965118Y-117719376D01*
X113010140Y-117614945D01*
X113051889Y-117519735D01*
X113089049Y-117436622D01*
X113120302Y-117368484D01*
X113144333Y-117318199D01*
X113159824Y-117288645D01*
X113165262Y-117281931D01*
X113172637Y-117297254D01*
X113189029Y-117335282D01*
X113212985Y-117392511D01*
X113243049Y-117465438D01*
X113277769Y-117550559D01*
X113315692Y-117644371D01*
X113316666Y-117646791D01*
X113370621Y-117780262D01*
X113415480Y-117889664D01*
X113452301Y-117977260D01*
X113482142Y-118045314D01*
X113506062Y-118096089D01*
X113525119Y-118131849D01*
X113540372Y-118154855D01*
X113552879Y-118167373D01*
X113562020Y-118171434D01*
X113586508Y-118163874D01*
X113601221Y-118146928D01*
X113609350Y-118127044D01*
X113625374Y-118083765D01*
X113648117Y-118020422D01*
X113676399Y-117940342D01*
X113709044Y-117846855D01*
X113744873Y-117743291D01*
X113772523Y-117662772D01*
X113825576Y-117507877D01*
X113870319Y-117377489D01*
X113907532Y-117269395D01*
X113937994Y-117181383D01*
X113962487Y-117111240D01*
X113981789Y-117056756D01*
X113996681Y-117015717D01*
X114007943Y-116985912D01*
X114016355Y-116965128D01*
X114022697Y-116951153D01*
X114025079Y-116946505D01*
X114048116Y-116925651D01*
X114084906Y-116911009D01*
X114088939Y-116910174D01*
X114128281Y-116899294D01*
X114145739Y-116886861D01*
X114138857Y-116875348D01*
X114127622Y-116871247D01*
X114098953Y-116867520D01*
X114051157Y-116865447D01*
X113989979Y-116864862D01*
X113921164Y-116865599D01*
G36*
X111289265Y-116850532D02*
X111193669Y-116861119D01*
X111157130Y-116868581D01*
X111023000Y-116913270D01*
X110908069Y-116977310D01*
X110813427Y-117059737D01*
X110740161Y-117159586D01*
X110689360Y-117275892D01*
X110686213Y-117286166D01*
X110672550Y-117358970D01*
X110667548Y-117448495D01*
X110670738Y-117544758D01*
X110681649Y-117637775D01*
X110699814Y-117717564D01*
X110707533Y-117739838D01*
X110768257Y-117857886D01*
X110851360Y-117961247D01*
X110953469Y-118046782D01*
X111071211Y-118111351D01*
X111130218Y-118133315D01*
X111196624Y-118149091D01*
X111279656Y-118160868D01*
X111369949Y-118168079D01*
X111458133Y-118170160D01*
X111534842Y-118166545D01*
X111576833Y-118160291D01*
X111714191Y-118117221D01*
X111833622Y-118053053D01*
X111933891Y-117969083D01*
X112013759Y-117866605D01*
X112071987Y-117746913D01*
X112107337Y-117611301D01*
X112108418Y-117604535D01*
X112115641Y-117471412D01*
X112114154Y-117461525D01*
X111846541Y-117461525D01*
X111841559Y-117560883D01*
X111828401Y-117651505D01*
X111813133Y-117708444D01*
X111762766Y-117817459D01*
X111693860Y-117912130D01*
X111610241Y-117988338D01*
X111515736Y-118041962D01*
X111496330Y-118049449D01*
X111420178Y-118067201D01*
X111334317Y-118072364D01*
X111249308Y-118065333D01*
X111175712Y-118046503D01*
X111153500Y-118036630D01*
X111073840Y-117979891D01*
X111011785Y-117901347D01*
X110967254Y-117800855D01*
X110940167Y-117678273D01*
X110936925Y-117651918D01*
X110930506Y-117503626D01*
X110945794Y-117371437D01*
X110983270Y-117252856D01*
X111030945Y-117163946D01*
X111102402Y-117073630D01*
X111184748Y-117008409D01*
X111280441Y-116966975D01*
X111391938Y-116948024D01*
X111440159Y-116946444D01*
X111549155Y-116957477D01*
X111641184Y-116990964D01*
X111717102Y-117047490D01*
X111777766Y-117127640D01*
X111812534Y-117200444D01*
X111832018Y-117272366D01*
X111843357Y-117362373D01*
X111846541Y-117461525D01*
X112114154Y-117461525D01*
X112096446Y-117343848D01*
X112052495Y-117224588D01*
X111985454Y-117116377D01*
X111896984Y-117021961D01*
X111788750Y-116944084D01*
X111675611Y-116890327D01*
X111596912Y-116868832D01*
X111500128Y-116854776D01*
X111394498Y-116848546D01*
X111289265Y-116850532D01*
X111289265Y-116850532D01*
G37*
X111289265Y-116850532D02*
X111193669Y-116861119D01*
X111157130Y-116868581D01*
X111023000Y-116913270D01*
X110908069Y-116977310D01*
X110813427Y-117059737D01*
X110740161Y-117159586D01*
X110689360Y-117275892D01*
X110686213Y-117286166D01*
X110672550Y-117358970D01*
X110667548Y-117448495D01*
X110670738Y-117544758D01*
X110681649Y-117637775D01*
X110699814Y-117717564D01*
X110707533Y-117739838D01*
X110768257Y-117857886D01*
X110851360Y-117961247D01*
X110953469Y-118046782D01*
X111071211Y-118111351D01*
X111130218Y-118133315D01*
X111196624Y-118149091D01*
X111279656Y-118160868D01*
X111369949Y-118168079D01*
X111458133Y-118170160D01*
X111534842Y-118166545D01*
X111576833Y-118160291D01*
X111714191Y-118117221D01*
X111833622Y-118053053D01*
X111933891Y-117969083D01*
X112013759Y-117866605D01*
X112071987Y-117746913D01*
X112107337Y-117611301D01*
X112108418Y-117604535D01*
X112115641Y-117471412D01*
X112114154Y-117461525D01*
X111846541Y-117461525D01*
X111841559Y-117560883D01*
X111828401Y-117651505D01*
X111813133Y-117708444D01*
X111762766Y-117817459D01*
X111693860Y-117912130D01*
X111610241Y-117988338D01*
X111515736Y-118041962D01*
X111496330Y-118049449D01*
X111420178Y-118067201D01*
X111334317Y-118072364D01*
X111249308Y-118065333D01*
X111175712Y-118046503D01*
X111153500Y-118036630D01*
X111073840Y-117979891D01*
X111011785Y-117901347D01*
X110967254Y-117800855D01*
X110940167Y-117678273D01*
X110936925Y-117651918D01*
X110930506Y-117503626D01*
X110945794Y-117371437D01*
X110983270Y-117252856D01*
X111030945Y-117163946D01*
X111102402Y-117073630D01*
X111184748Y-117008409D01*
X111280441Y-116966975D01*
X111391938Y-116948024D01*
X111440159Y-116946444D01*
X111549155Y-116957477D01*
X111641184Y-116990964D01*
X111717102Y-117047490D01*
X111777766Y-117127640D01*
X111812534Y-117200444D01*
X111832018Y-117272366D01*
X111843357Y-117362373D01*
X111846541Y-117461525D01*
X112114154Y-117461525D01*
X112096446Y-117343848D01*
X112052495Y-117224588D01*
X111985454Y-117116377D01*
X111896984Y-117021961D01*
X111788750Y-116944084D01*
X111675611Y-116890327D01*
X111596912Y-116868832D01*
X111500128Y-116854776D01*
X111394498Y-116848546D01*
X111289265Y-116850532D01*
G36*
X120797915Y-116867681D02*
X120689997Y-116869016D01*
X120609771Y-116872035D01*
X120556754Y-116876838D01*
X120530460Y-116883522D01*
X120530406Y-116892186D01*
X120556107Y-116902929D01*
X120585276Y-116910801D01*
X120630767Y-116926966D01*
X120655279Y-116950215D01*
X120660123Y-116960630D01*
X120663893Y-116985114D01*
X120666782Y-117033192D01*
X120668838Y-117101068D01*
X120670105Y-117184949D01*
X120670629Y-117281037D01*
X120670456Y-117385539D01*
X120669632Y-117494658D01*
X120668202Y-117604599D01*
X120666213Y-117711568D01*
X120663710Y-117811768D01*
X120660739Y-117901405D01*
X120657346Y-117976682D01*
X120653576Y-118033806D01*
X120649475Y-118068980D01*
X120646643Y-118078288D01*
X120622997Y-118092217D01*
X120582446Y-118103976D01*
X120556535Y-118108220D01*
X120513830Y-118114583D01*
X120483835Y-118121476D01*
X120475912Y-118125051D01*
X120472613Y-118134362D01*
X120485299Y-118141392D01*
X120516292Y-118146341D01*
X120567916Y-118149407D01*
X120642492Y-118150790D01*
X120742343Y-118150689D01*
X120772396Y-118150447D01*
X120870851Y-118149571D01*
X120944622Y-118148852D01*
X120997242Y-118148082D01*
X121032248Y-118147050D01*
X121053173Y-118145547D01*
X121063553Y-118143364D01*
X121066923Y-118140291D01*
X121066817Y-118136118D01*
X121066556Y-118133018D01*
X121054111Y-118122825D01*
X121023054Y-118113108D01*
X121010924Y-118110748D01*
X120980713Y-118104667D01*
X120957887Y-118095548D01*
X120941321Y-118079699D01*
X120929887Y-118053428D01*
X120922459Y-118013046D01*
X120917911Y-117954860D01*
X120915117Y-117875181D01*
X120913340Y-117790943D01*
X120908290Y-117525000D01*
X121591710Y-117525000D01*
X121586661Y-117790943D01*
X121583878Y-117898139D01*
X121580030Y-117978913D01*
X121574976Y-118035048D01*
X121568574Y-118068329D01*
X121563865Y-118078268D01*
X121540219Y-118092209D01*
X121499668Y-118103975D01*
X121473757Y-118108220D01*
X121422236Y-118115918D01*
X121395822Y-118124475D01*
X121391401Y-118135221D01*
X121396051Y-118141421D01*
X121411989Y-118144027D01*
X121450908Y-118146402D01*
X121507565Y-118148484D01*
X121576719Y-118150210D01*
X121653129Y-118151519D01*
X121731554Y-118152347D01*
X121806752Y-118152633D01*
X121873482Y-118152314D01*
X121926501Y-118151327D01*
X121960570Y-118149612D01*
X121969634Y-118148240D01*
X121984380Y-118137209D01*
X121974333Y-118124727D01*
X121942601Y-118113601D01*
X121928146Y-118110748D01*
X121887576Y-118099292D01*
X121857817Y-118082886D01*
X121854063Y-118079137D01*
X121849023Y-118066896D01*
X121844783Y-118041842D01*
X121841251Y-118001721D01*
X121838333Y-117944282D01*
X121835936Y-117867274D01*
X121833970Y-117768443D01*
X121832340Y-117645539D01*
X121831162Y-117521782D01*
X121829998Y-117376791D01*
X121829407Y-117257445D01*
X121829778Y-117161168D01*
X121831501Y-117085385D01*
X121834966Y-117027518D01*
X121840564Y-116984992D01*
X121848684Y-116955231D01*
X121859718Y-116935658D01*
X121874054Y-116923697D01*
X121892084Y-116916771D01*
X121914196Y-116912306D01*
X121923699Y-116910726D01*
X121980837Y-116899642D01*
X122010091Y-116890096D01*
X122011761Y-116882150D01*
X121986146Y-116875866D01*
X121933546Y-116871306D01*
X121854261Y-116868532D01*
X121748589Y-116867605D01*
X121715138Y-116867681D01*
X121607482Y-116869025D01*
X121527528Y-116872077D01*
X121474798Y-116876936D01*
X121448817Y-116883702D01*
X121449110Y-116892473D01*
X121475201Y-116903351D01*
X121505476Y-116911526D01*
X121551345Y-116929138D01*
X121575389Y-116952873D01*
X121575796Y-116953859D01*
X121579670Y-116977299D01*
X121583073Y-117023253D01*
X121585725Y-117086011D01*
X121587347Y-117159865D01*
X121587675Y-117196916D01*
X121588667Y-117412111D01*
X120911333Y-117412111D01*
X120911542Y-117203972D01*
X120912434Y-117109223D01*
X120915727Y-117038715D01*
X120922670Y-116988490D01*
X120934515Y-116954588D01*
X120952509Y-116933052D01*
X120977904Y-116919923D01*
X121003406Y-116913027D01*
X121056469Y-116900146D01*
X121085837Y-116889650D01*
X121090813Y-116881386D01*
X121070702Y-116875201D01*
X121024809Y-116870941D01*
X120952439Y-116868452D01*
X120852895Y-116867581D01*
X120797915Y-116867681D01*
X120797915Y-116867681D01*
G37*
X120797915Y-116867681D02*
X120689997Y-116869016D01*
X120609771Y-116872035D01*
X120556754Y-116876838D01*
X120530460Y-116883522D01*
X120530406Y-116892186D01*
X120556107Y-116902929D01*
X120585276Y-116910801D01*
X120630767Y-116926966D01*
X120655279Y-116950215D01*
X120660123Y-116960630D01*
X120663893Y-116985114D01*
X120666782Y-117033192D01*
X120668838Y-117101068D01*
X120670105Y-117184949D01*
X120670629Y-117281037D01*
X120670456Y-117385539D01*
X120669632Y-117494658D01*
X120668202Y-117604599D01*
X120666213Y-117711568D01*
X120663710Y-117811768D01*
X120660739Y-117901405D01*
X120657346Y-117976682D01*
X120653576Y-118033806D01*
X120649475Y-118068980D01*
X120646643Y-118078288D01*
X120622997Y-118092217D01*
X120582446Y-118103976D01*
X120556535Y-118108220D01*
X120513830Y-118114583D01*
X120483835Y-118121476D01*
X120475912Y-118125051D01*
X120472613Y-118134362D01*
X120485299Y-118141392D01*
X120516292Y-118146341D01*
X120567916Y-118149407D01*
X120642492Y-118150790D01*
X120742343Y-118150689D01*
X120772396Y-118150447D01*
X120870851Y-118149571D01*
X120944622Y-118148852D01*
X120997242Y-118148082D01*
X121032248Y-118147050D01*
X121053173Y-118145547D01*
X121063553Y-118143364D01*
X121066923Y-118140291D01*
X121066817Y-118136118D01*
X121066556Y-118133018D01*
X121054111Y-118122825D01*
X121023054Y-118113108D01*
X121010924Y-118110748D01*
X120980713Y-118104667D01*
X120957887Y-118095548D01*
X120941321Y-118079699D01*
X120929887Y-118053428D01*
X120922459Y-118013046D01*
X120917911Y-117954860D01*
X120915117Y-117875181D01*
X120913340Y-117790943D01*
X120908290Y-117525000D01*
X121591710Y-117525000D01*
X121586661Y-117790943D01*
X121583878Y-117898139D01*
X121580030Y-117978913D01*
X121574976Y-118035048D01*
X121568574Y-118068329D01*
X121563865Y-118078268D01*
X121540219Y-118092209D01*
X121499668Y-118103975D01*
X121473757Y-118108220D01*
X121422236Y-118115918D01*
X121395822Y-118124475D01*
X121391401Y-118135221D01*
X121396051Y-118141421D01*
X121411989Y-118144027D01*
X121450908Y-118146402D01*
X121507565Y-118148484D01*
X121576719Y-118150210D01*
X121653129Y-118151519D01*
X121731554Y-118152347D01*
X121806752Y-118152633D01*
X121873482Y-118152314D01*
X121926501Y-118151327D01*
X121960570Y-118149612D01*
X121969634Y-118148240D01*
X121984380Y-118137209D01*
X121974333Y-118124727D01*
X121942601Y-118113601D01*
X121928146Y-118110748D01*
X121887576Y-118099292D01*
X121857817Y-118082886D01*
X121854063Y-118079137D01*
X121849023Y-118066896D01*
X121844783Y-118041842D01*
X121841251Y-118001721D01*
X121838333Y-117944282D01*
X121835936Y-117867274D01*
X121833970Y-117768443D01*
X121832340Y-117645539D01*
X121831162Y-117521782D01*
X121829998Y-117376791D01*
X121829407Y-117257445D01*
X121829778Y-117161168D01*
X121831501Y-117085385D01*
X121834966Y-117027518D01*
X121840564Y-116984992D01*
X121848684Y-116955231D01*
X121859718Y-116935658D01*
X121874054Y-116923697D01*
X121892084Y-116916771D01*
X121914196Y-116912306D01*
X121923699Y-116910726D01*
X121980837Y-116899642D01*
X122010091Y-116890096D01*
X122011761Y-116882150D01*
X121986146Y-116875866D01*
X121933546Y-116871306D01*
X121854261Y-116868532D01*
X121748589Y-116867605D01*
X121715138Y-116867681D01*
X121607482Y-116869025D01*
X121527528Y-116872077D01*
X121474798Y-116876936D01*
X121448817Y-116883702D01*
X121449110Y-116892473D01*
X121475201Y-116903351D01*
X121505476Y-116911526D01*
X121551345Y-116929138D01*
X121575389Y-116952873D01*
X121575796Y-116953859D01*
X121579670Y-116977299D01*
X121583073Y-117023253D01*
X121585725Y-117086011D01*
X121587347Y-117159865D01*
X121587675Y-117196916D01*
X121588667Y-117412111D01*
X120911333Y-117412111D01*
X120911542Y-117203972D01*
X120912434Y-117109223D01*
X120915727Y-117038715D01*
X120922670Y-116988490D01*
X120934515Y-116954588D01*
X120952509Y-116933052D01*
X120977904Y-116919923D01*
X121003406Y-116913027D01*
X121056469Y-116900146D01*
X121085837Y-116889650D01*
X121090813Y-116881386D01*
X121070702Y-116875201D01*
X121024809Y-116870941D01*
X120952439Y-116868452D01*
X120852895Y-116867581D01*
X120797915Y-116867681D01*
G36*
X118727080Y-116858192D02*
X118693990Y-116860703D01*
X118636585Y-116863002D01*
X118558770Y-116865019D01*
X118464453Y-116866680D01*
X118357540Y-116867915D01*
X118241937Y-116868651D01*
X118149078Y-116868833D01*
X117651656Y-116868833D01*
X117651661Y-117000537D01*
X117652756Y-117066126D01*
X117656305Y-117106607D01*
X117662719Y-117125018D01*
X117668657Y-117126577D01*
X117683641Y-117110173D01*
X117696707Y-117078176D01*
X117697237Y-117076190D01*
X117711648Y-117042718D01*
X117737608Y-117017825D01*
X117778932Y-117000076D01*
X117839436Y-116988037D01*
X117922935Y-116980276D01*
X117957679Y-116978335D01*
X118119169Y-116970382D01*
X118114723Y-117513654D01*
X118113278Y-117661743D01*
X118111536Y-117783655D01*
X118109417Y-117881433D01*
X118106842Y-117957120D01*
X118103729Y-118012761D01*
X118099999Y-118050398D01*
X118095571Y-118072075D01*
X118092532Y-118078287D01*
X118068886Y-118092217D01*
X118028334Y-118103976D01*
X118002424Y-118108220D01*
X117950903Y-118115918D01*
X117924488Y-118124475D01*
X117920068Y-118135221D01*
X117924718Y-118141421D01*
X117940656Y-118144027D01*
X117979574Y-118146402D01*
X118036231Y-118148484D01*
X118105386Y-118150210D01*
X118181796Y-118151519D01*
X118260221Y-118152347D01*
X118335419Y-118152633D01*
X118402148Y-118152314D01*
X118455168Y-118151327D01*
X118489236Y-118149612D01*
X118498300Y-118148240D01*
X118513046Y-118137209D01*
X118503000Y-118124727D01*
X118471267Y-118113601D01*
X118456813Y-118110748D01*
X118416243Y-118099291D01*
X118386484Y-118082885D01*
X118382729Y-118079136D01*
X118377724Y-118066961D01*
X118373504Y-118042014D01*
X118369979Y-118002058D01*
X118367057Y-117944856D01*
X118364647Y-117868171D01*
X118362657Y-117769767D01*
X118360998Y-117647405D01*
X118359702Y-117513919D01*
X118355126Y-116970915D01*
X118529035Y-116980511D01*
X118617873Y-116986373D01*
X118683184Y-116993679D01*
X118729665Y-117003916D01*
X118762013Y-117018573D01*
X118784922Y-117039136D01*
X118803090Y-117067096D01*
X118803258Y-117067407D01*
X118822916Y-117098354D01*
X118839261Y-117114908D01*
X118842152Y-117115777D01*
X118847499Y-117103130D01*
X118847909Y-117069922D01*
X118844050Y-117023248D01*
X118836594Y-116970209D01*
X118826207Y-116917901D01*
X118821856Y-116900525D01*
X118807659Y-116847551D01*
X118727080Y-116858192D01*
X118727080Y-116858192D01*
G37*
X118727080Y-116858192D02*
X118693990Y-116860703D01*
X118636585Y-116863002D01*
X118558770Y-116865019D01*
X118464453Y-116866680D01*
X118357540Y-116867915D01*
X118241937Y-116868651D01*
X118149078Y-116868833D01*
X117651656Y-116868833D01*
X117651661Y-117000537D01*
X117652756Y-117066126D01*
X117656305Y-117106607D01*
X117662719Y-117125018D01*
X117668657Y-117126577D01*
X117683641Y-117110173D01*
X117696707Y-117078176D01*
X117697237Y-117076190D01*
X117711648Y-117042718D01*
X117737608Y-117017825D01*
X117778932Y-117000076D01*
X117839436Y-116988037D01*
X117922935Y-116980276D01*
X117957679Y-116978335D01*
X118119169Y-116970382D01*
X118114723Y-117513654D01*
X118113278Y-117661743D01*
X118111536Y-117783655D01*
X118109417Y-117881433D01*
X118106842Y-117957120D01*
X118103729Y-118012761D01*
X118099999Y-118050398D01*
X118095571Y-118072075D01*
X118092532Y-118078287D01*
X118068886Y-118092217D01*
X118028334Y-118103976D01*
X118002424Y-118108220D01*
X117950903Y-118115918D01*
X117924488Y-118124475D01*
X117920068Y-118135221D01*
X117924718Y-118141421D01*
X117940656Y-118144027D01*
X117979574Y-118146402D01*
X118036231Y-118148484D01*
X118105386Y-118150210D01*
X118181796Y-118151519D01*
X118260221Y-118152347D01*
X118335419Y-118152633D01*
X118402148Y-118152314D01*
X118455168Y-118151327D01*
X118489236Y-118149612D01*
X118498300Y-118148240D01*
X118513046Y-118137209D01*
X118503000Y-118124727D01*
X118471267Y-118113601D01*
X118456813Y-118110748D01*
X118416243Y-118099291D01*
X118386484Y-118082885D01*
X118382729Y-118079136D01*
X118377724Y-118066961D01*
X118373504Y-118042014D01*
X118369979Y-118002058D01*
X118367057Y-117944856D01*
X118364647Y-117868171D01*
X118362657Y-117769767D01*
X118360998Y-117647405D01*
X118359702Y-117513919D01*
X118355126Y-116970915D01*
X118529035Y-116980511D01*
X118617873Y-116986373D01*
X118683184Y-116993679D01*
X118729665Y-117003916D01*
X118762013Y-117018573D01*
X118784922Y-117039136D01*
X118803090Y-117067096D01*
X118803258Y-117067407D01*
X118822916Y-117098354D01*
X118839261Y-117114908D01*
X118842152Y-117115777D01*
X118847499Y-117103130D01*
X118847909Y-117069922D01*
X118844050Y-117023248D01*
X118836594Y-116970209D01*
X118826207Y-116917901D01*
X118821856Y-116900525D01*
X118807659Y-116847551D01*
X118727080Y-116858192D01*
G36*
X117496702Y-116854877D02*
X117447388Y-116861143D01*
X117438577Y-116862408D01*
X117392802Y-116866681D01*
X117321859Y-116870069D01*
X117228793Y-116872512D01*
X117116646Y-116873950D01*
X116988461Y-116874324D01*
X116861445Y-116873698D01*
X116388722Y-116869751D01*
X116389604Y-116908098D01*
X116391741Y-116992506D01*
X116393931Y-117052569D01*
X116396597Y-117092161D01*
X116400162Y-117115158D01*
X116405048Y-117125433D01*
X116411678Y-117126862D01*
X116413417Y-117126373D01*
X116428385Y-117109536D01*
X116438113Y-117080125D01*
X116451168Y-117045262D01*
X116478658Y-117019033D01*
X116523837Y-117000170D01*
X116589961Y-116987405D01*
X116680282Y-116979468D01*
X116698908Y-116978477D01*
X116861445Y-116970472D01*
X116860572Y-117420597D01*
X116859830Y-117582613D01*
X116858207Y-117718311D01*
X116855591Y-117829587D01*
X116851865Y-117918336D01*
X116846917Y-117986453D01*
X116840630Y-118035831D01*
X116832891Y-118068367D01*
X116823586Y-118085954D01*
X116820203Y-118088769D01*
X116795685Y-118097422D01*
X116754974Y-118106100D01*
X116732638Y-118109518D01*
X116693035Y-118117277D01*
X116668188Y-118126962D01*
X116663889Y-118132263D01*
X116675138Y-118145802D01*
X116681528Y-118147212D01*
X116711794Y-118148475D01*
X116761623Y-118149455D01*
X116825778Y-118150152D01*
X116899023Y-118150568D01*
X116976122Y-118150705D01*
X117051839Y-118150563D01*
X117120937Y-118150144D01*
X117178182Y-118149450D01*
X117218336Y-118148481D01*
X117236164Y-118147240D01*
X117236563Y-118147064D01*
X117241560Y-118129853D01*
X117218893Y-118116283D01*
X117186796Y-118109101D01*
X117147499Y-118098755D01*
X117125879Y-118079104D01*
X117116241Y-118057440D01*
X117111989Y-118030474D01*
X117108394Y-117976754D01*
X117105494Y-117897740D01*
X117103327Y-117794892D01*
X117101933Y-117669672D01*
X117101349Y-117523541D01*
X117101333Y-117492974D01*
X117101333Y-116971272D01*
X117281250Y-116981263D01*
X117367688Y-116987144D01*
X117430822Y-116994870D01*
X117475572Y-117006183D01*
X117506856Y-117022822D01*
X117529594Y-117046528D01*
X117546741Y-117075198D01*
X117565776Y-117103677D01*
X117581250Y-117106585D01*
X117584456Y-117103966D01*
X117590649Y-117084795D01*
X117588652Y-117045585D01*
X117578266Y-116983128D01*
X117576277Y-116973069D01*
X117565091Y-116919532D01*
X117555526Y-116877791D01*
X117549170Y-116854638D01*
X117548014Y-116852199D01*
X117532665Y-116851670D01*
X117496702Y-116854877D01*
X117496702Y-116854877D01*
G37*
X117496702Y-116854877D02*
X117447388Y-116861143D01*
X117438577Y-116862408D01*
X117392802Y-116866681D01*
X117321859Y-116870069D01*
X117228793Y-116872512D01*
X117116646Y-116873950D01*
X116988461Y-116874324D01*
X116861445Y-116873698D01*
X116388722Y-116869751D01*
X116389604Y-116908098D01*
X116391741Y-116992506D01*
X116393931Y-117052569D01*
X116396597Y-117092161D01*
X116400162Y-117115158D01*
X116405048Y-117125433D01*
X116411678Y-117126862D01*
X116413417Y-117126373D01*
X116428385Y-117109536D01*
X116438113Y-117080125D01*
X116451168Y-117045262D01*
X116478658Y-117019033D01*
X116523837Y-117000170D01*
X116589961Y-116987405D01*
X116680282Y-116979468D01*
X116698908Y-116978477D01*
X116861445Y-116970472D01*
X116860572Y-117420597D01*
X116859830Y-117582613D01*
X116858207Y-117718311D01*
X116855591Y-117829587D01*
X116851865Y-117918336D01*
X116846917Y-117986453D01*
X116840630Y-118035831D01*
X116832891Y-118068367D01*
X116823586Y-118085954D01*
X116820203Y-118088769D01*
X116795685Y-118097422D01*
X116754974Y-118106100D01*
X116732638Y-118109518D01*
X116693035Y-118117277D01*
X116668188Y-118126962D01*
X116663889Y-118132263D01*
X116675138Y-118145802D01*
X116681528Y-118147212D01*
X116711794Y-118148475D01*
X116761623Y-118149455D01*
X116825778Y-118150152D01*
X116899023Y-118150568D01*
X116976122Y-118150705D01*
X117051839Y-118150563D01*
X117120937Y-118150144D01*
X117178182Y-118149450D01*
X117218336Y-118148481D01*
X117236164Y-118147240D01*
X117236563Y-118147064D01*
X117241560Y-118129853D01*
X117218893Y-118116283D01*
X117186796Y-118109101D01*
X117147499Y-118098755D01*
X117125879Y-118079104D01*
X117116241Y-118057440D01*
X117111989Y-118030474D01*
X117108394Y-117976754D01*
X117105494Y-117897740D01*
X117103327Y-117794892D01*
X117101933Y-117669672D01*
X117101349Y-117523541D01*
X117101333Y-117492974D01*
X117101333Y-116971272D01*
X117281250Y-116981263D01*
X117367688Y-116987144D01*
X117430822Y-116994870D01*
X117475572Y-117006183D01*
X117506856Y-117022822D01*
X117529594Y-117046528D01*
X117546741Y-117075198D01*
X117565776Y-117103677D01*
X117581250Y-117106585D01*
X117584456Y-117103966D01*
X117590649Y-117084795D01*
X117588652Y-117045585D01*
X117578266Y-116983128D01*
X117576277Y-116973069D01*
X117565091Y-116919532D01*
X117555526Y-116877791D01*
X117549170Y-116854638D01*
X117548014Y-116852199D01*
X117532665Y-116851670D01*
X117496702Y-116854877D01*
G36*
X115904538Y-116868217D02*
X115829737Y-116869471D01*
X115763293Y-116871861D01*
X115710427Y-116875384D01*
X115676363Y-116880041D01*
X115666158Y-116884581D01*
X115675671Y-116895875D01*
X115708478Y-116905857D01*
X115732572Y-116909837D01*
X115777227Y-116918017D01*
X115802347Y-116930532D01*
X115816613Y-116952155D01*
X115818602Y-116957128D01*
X115822663Y-116982833D01*
X115825809Y-117035202D01*
X115828012Y-117112690D01*
X115829242Y-117213754D01*
X115829470Y-117336849D01*
X115828666Y-117480431D01*
X115828623Y-117485360D01*
X115827608Y-117624892D01*
X115826589Y-117738833D01*
X115824531Y-117829796D01*
X115820400Y-117900395D01*
X115813161Y-117953242D01*
X115801780Y-117990949D01*
X115785224Y-118016131D01*
X115762457Y-118031400D01*
X115732446Y-118039368D01*
X115694156Y-118042649D01*
X115646553Y-118043856D01*
X115607149Y-118044865D01*
X115517235Y-118046067D01*
X115450540Y-118041059D01*
X115402330Y-118027508D01*
X115367869Y-118003084D01*
X115342423Y-117965454D01*
X115321256Y-117912285D01*
X115318044Y-117902472D01*
X115303550Y-117881574D01*
X115293517Y-117877777D01*
X115285264Y-117890355D01*
X115282115Y-117923147D01*
X115283412Y-117968738D01*
X115288496Y-118019715D01*
X115296708Y-118068664D01*
X115307389Y-118108170D01*
X115315534Y-118125567D01*
X115337994Y-118159845D01*
X115767623Y-118156394D01*
X115875340Y-118155384D01*
X115974124Y-118154178D01*
X116060394Y-118152843D01*
X116130569Y-118151445D01*
X116181068Y-118150050D01*
X116208312Y-118148722D01*
X116211848Y-118148240D01*
X116226973Y-118137334D01*
X116217297Y-118124898D01*
X116185904Y-118113748D01*
X116170813Y-118110748D01*
X116130243Y-118099292D01*
X116100484Y-118082886D01*
X116096729Y-118079137D01*
X116091706Y-118066934D01*
X116087479Y-118041950D01*
X116083955Y-118001940D01*
X116081044Y-117944656D01*
X116078654Y-117867851D01*
X116076693Y-117769278D01*
X116075069Y-117646689D01*
X116073858Y-117518461D01*
X116072671Y-117373419D01*
X116072016Y-117254032D01*
X116072347Y-117157734D01*
X116074114Y-117081957D01*
X116077770Y-117024136D01*
X116083766Y-116981702D01*
X116092555Y-116952090D01*
X116104587Y-116932733D01*
X116120316Y-116921063D01*
X116140192Y-116914515D01*
X116164668Y-116910521D01*
X116181260Y-116908348D01*
X116218491Y-116899962D01*
X116236058Y-116888685D01*
X116236385Y-116884542D01*
X116221112Y-116878980D01*
X116182862Y-116874555D01*
X116126858Y-116871267D01*
X116058321Y-116869115D01*
X115982473Y-116868098D01*
X115904538Y-116868217D01*
X115904538Y-116868217D01*
G37*
X115904538Y-116868217D02*
X115829737Y-116869471D01*
X115763293Y-116871861D01*
X115710427Y-116875384D01*
X115676363Y-116880041D01*
X115666158Y-116884581D01*
X115675671Y-116895875D01*
X115708478Y-116905857D01*
X115732572Y-116909837D01*
X115777227Y-116918017D01*
X115802347Y-116930532D01*
X115816613Y-116952155D01*
X115818602Y-116957128D01*
X115822663Y-116982833D01*
X115825809Y-117035202D01*
X115828012Y-117112690D01*
X115829242Y-117213754D01*
X115829470Y-117336849D01*
X115828666Y-117480431D01*
X115828623Y-117485360D01*
X115827608Y-117624892D01*
X115826589Y-117738833D01*
X115824531Y-117829796D01*
X115820400Y-117900395D01*
X115813161Y-117953242D01*
X115801780Y-117990949D01*
X115785224Y-118016131D01*
X115762457Y-118031400D01*
X115732446Y-118039368D01*
X115694156Y-118042649D01*
X115646553Y-118043856D01*
X115607149Y-118044865D01*
X115517235Y-118046067D01*
X115450540Y-118041059D01*
X115402330Y-118027508D01*
X115367869Y-118003084D01*
X115342423Y-117965454D01*
X115321256Y-117912285D01*
X115318044Y-117902472D01*
X115303550Y-117881574D01*
X115293517Y-117877777D01*
X115285264Y-117890355D01*
X115282115Y-117923147D01*
X115283412Y-117968738D01*
X115288496Y-118019715D01*
X115296708Y-118068664D01*
X115307389Y-118108170D01*
X115315534Y-118125567D01*
X115337994Y-118159845D01*
X115767623Y-118156394D01*
X115875340Y-118155384D01*
X115974124Y-118154178D01*
X116060394Y-118152843D01*
X116130569Y-118151445D01*
X116181068Y-118150050D01*
X116208312Y-118148722D01*
X116211848Y-118148240D01*
X116226973Y-118137334D01*
X116217297Y-118124898D01*
X116185904Y-118113748D01*
X116170813Y-118110748D01*
X116130243Y-118099292D01*
X116100484Y-118082886D01*
X116096729Y-118079137D01*
X116091706Y-118066934D01*
X116087479Y-118041950D01*
X116083955Y-118001940D01*
X116081044Y-117944656D01*
X116078654Y-117867851D01*
X116076693Y-117769278D01*
X116075069Y-117646689D01*
X116073858Y-117518461D01*
X116072671Y-117373419D01*
X116072016Y-117254032D01*
X116072347Y-117157734D01*
X116074114Y-117081957D01*
X116077770Y-117024136D01*
X116083766Y-116981702D01*
X116092555Y-116952090D01*
X116104587Y-116932733D01*
X116120316Y-116921063D01*
X116140192Y-116914515D01*
X116164668Y-116910521D01*
X116181260Y-116908348D01*
X116218491Y-116899962D01*
X116236058Y-116888685D01*
X116236385Y-116884542D01*
X116221112Y-116878980D01*
X116182862Y-116874555D01*
X116126858Y-116871267D01*
X116058321Y-116869115D01*
X115982473Y-116868098D01*
X115904538Y-116868217D01*
G36*
X114272930Y-116974666D02*
X114277726Y-117028295D01*
X114282561Y-117071814D01*
X114286476Y-117096740D01*
X114286857Y-117098139D01*
X114300657Y-117114423D01*
X114316436Y-117110532D01*
X114321445Y-117095275D01*
X114327053Y-117067544D01*
X114337801Y-117038874D01*
X114357648Y-117012758D01*
X114392044Y-116994186D01*
X114444530Y-116982268D01*
X114518645Y-116976114D01*
X114593083Y-116974745D01*
X114730667Y-116974666D01*
X114730667Y-117412111D01*
X114549919Y-117412111D01*
X114467631Y-117411227D01*
X114409192Y-117408287D01*
X114370279Y-117402861D01*
X114346565Y-117394519D01*
X114341781Y-117391393D01*
X114316030Y-117375109D01*
X114302489Y-117370226D01*
X114298214Y-117382820D01*
X114296949Y-117416317D01*
X114298199Y-117463614D01*
X114301471Y-117517610D01*
X114306269Y-117571203D01*
X114312101Y-117617293D01*
X114318471Y-117648777D01*
X114322511Y-117657887D01*
X114332097Y-117662593D01*
X114340550Y-117650448D01*
X114350130Y-117616998D01*
X114355710Y-117592435D01*
X114370368Y-117559160D01*
X114388639Y-117540924D01*
X114412155Y-117534747D01*
X114457021Y-117528088D01*
X114516394Y-117521821D01*
X114571917Y-117517535D01*
X114730667Y-117507258D01*
X114730667Y-117741906D01*
X114730029Y-117843369D01*
X114726195Y-117919965D01*
X114716289Y-117975047D01*
X114697431Y-118011968D01*
X114666744Y-118034084D01*
X114621349Y-118044746D01*
X114558369Y-118047308D01*
X114474925Y-118045124D01*
X114470569Y-118044965D01*
X114392847Y-118039551D01*
X114338369Y-118028214D01*
X114302348Y-118008337D01*
X114279998Y-117977301D01*
X114266731Y-117933451D01*
X114255551Y-117900129D01*
X114241161Y-117881694D01*
X114239943Y-117881184D01*
X114228226Y-117888823D01*
X114222424Y-117917225D01*
X114221845Y-117959714D01*
X114225799Y-118009615D01*
X114233598Y-118060252D01*
X114244549Y-118104948D01*
X114257965Y-118137030D01*
X114267507Y-118147847D01*
X114284875Y-118150203D01*
X114326114Y-118152174D01*
X114386878Y-118153757D01*
X114462821Y-118154950D01*
X114549593Y-118155753D01*
X114642849Y-118156161D01*
X114738241Y-118156174D01*
X114831422Y-118155789D01*
X114918043Y-118155005D01*
X114993759Y-118153819D01*
X115054222Y-118152229D01*
X115095084Y-118150234D01*
X115111087Y-118148240D01*
X115126312Y-118137383D01*
X115116683Y-118124990D01*
X115085243Y-118113794D01*
X115069150Y-118110580D01*
X115019551Y-118093871D01*
X114995066Y-118070534D01*
X114990052Y-118053237D01*
X114985817Y-118019056D01*
X114982289Y-117966126D01*
X114979396Y-117892578D01*
X114977065Y-117796546D01*
X114975226Y-117676163D01*
X114973804Y-117529560D01*
X114973716Y-117517944D01*
X114972701Y-117374324D01*
X114972257Y-117256307D01*
X114972770Y-117161273D01*
X114974625Y-117086604D01*
X114978207Y-117029681D01*
X114983901Y-116987885D01*
X114992091Y-116958597D01*
X115003163Y-116939198D01*
X115017501Y-116927068D01*
X115035491Y-116919590D01*
X115057518Y-116914144D01*
X115062628Y-116913027D01*
X115113364Y-116901461D01*
X115141310Y-116893342D01*
X115151385Y-116886760D01*
X115148509Y-116879805D01*
X115148420Y-116879715D01*
X115132431Y-116877317D01*
X115091714Y-116875097D01*
X115029764Y-116873135D01*
X114950076Y-116871511D01*
X114856144Y-116870305D01*
X114751462Y-116869598D01*
X114701641Y-116869464D01*
X114264482Y-116868833D01*
X114272930Y-116974666D01*
X114272930Y-116974666D01*
G37*
X114272930Y-116974666D02*
X114277726Y-117028295D01*
X114282561Y-117071814D01*
X114286476Y-117096740D01*
X114286857Y-117098139D01*
X114300657Y-117114423D01*
X114316436Y-117110532D01*
X114321445Y-117095275D01*
X114327053Y-117067544D01*
X114337801Y-117038874D01*
X114357648Y-117012758D01*
X114392044Y-116994186D01*
X114444530Y-116982268D01*
X114518645Y-116976114D01*
X114593083Y-116974745D01*
X114730667Y-116974666D01*
X114730667Y-117412111D01*
X114549919Y-117412111D01*
X114467631Y-117411227D01*
X114409192Y-117408287D01*
X114370279Y-117402861D01*
X114346565Y-117394519D01*
X114341781Y-117391393D01*
X114316030Y-117375109D01*
X114302489Y-117370226D01*
X114298214Y-117382820D01*
X114296949Y-117416317D01*
X114298199Y-117463614D01*
X114301471Y-117517610D01*
X114306269Y-117571203D01*
X114312101Y-117617293D01*
X114318471Y-117648777D01*
X114322511Y-117657887D01*
X114332097Y-117662593D01*
X114340550Y-117650448D01*
X114350130Y-117616998D01*
X114355710Y-117592435D01*
X114370368Y-117559160D01*
X114388639Y-117540924D01*
X114412155Y-117534747D01*
X114457021Y-117528088D01*
X114516394Y-117521821D01*
X114571917Y-117517535D01*
X114730667Y-117507258D01*
X114730667Y-117741906D01*
X114730029Y-117843369D01*
X114726195Y-117919965D01*
X114716289Y-117975047D01*
X114697431Y-118011968D01*
X114666744Y-118034084D01*
X114621349Y-118044746D01*
X114558369Y-118047308D01*
X114474925Y-118045124D01*
X114470569Y-118044965D01*
X114392847Y-118039551D01*
X114338369Y-118028214D01*
X114302348Y-118008337D01*
X114279998Y-117977301D01*
X114266731Y-117933451D01*
X114255551Y-117900129D01*
X114241161Y-117881694D01*
X114239943Y-117881184D01*
X114228226Y-117888823D01*
X114222424Y-117917225D01*
X114221845Y-117959714D01*
X114225799Y-118009615D01*
X114233598Y-118060252D01*
X114244549Y-118104948D01*
X114257965Y-118137030D01*
X114267507Y-118147847D01*
X114284875Y-118150203D01*
X114326114Y-118152174D01*
X114386878Y-118153757D01*
X114462821Y-118154950D01*
X114549593Y-118155753D01*
X114642849Y-118156161D01*
X114738241Y-118156174D01*
X114831422Y-118155789D01*
X114918043Y-118155005D01*
X114993759Y-118153819D01*
X115054222Y-118152229D01*
X115095084Y-118150234D01*
X115111087Y-118148240D01*
X115126312Y-118137383D01*
X115116683Y-118124990D01*
X115085243Y-118113794D01*
X115069150Y-118110580D01*
X115019551Y-118093871D01*
X114995066Y-118070534D01*
X114990052Y-118053237D01*
X114985817Y-118019056D01*
X114982289Y-117966126D01*
X114979396Y-117892578D01*
X114977065Y-117796546D01*
X114975226Y-117676163D01*
X114973804Y-117529560D01*
X114973716Y-117517944D01*
X114972701Y-117374324D01*
X114972257Y-117256307D01*
X114972770Y-117161273D01*
X114974625Y-117086604D01*
X114978207Y-117029681D01*
X114983901Y-116987885D01*
X114992091Y-116958597D01*
X115003163Y-116939198D01*
X115017501Y-116927068D01*
X115035491Y-116919590D01*
X115057518Y-116914144D01*
X115062628Y-116913027D01*
X115113364Y-116901461D01*
X115141310Y-116893342D01*
X115151385Y-116886760D01*
X115148509Y-116879805D01*
X115148420Y-116879715D01*
X115132431Y-116877317D01*
X115091714Y-116875097D01*
X115029764Y-116873135D01*
X114950076Y-116871511D01*
X114856144Y-116870305D01*
X114751462Y-116869598D01*
X114701641Y-116869464D01*
X114264482Y-116868833D01*
X114272930Y-116974666D01*
G36*
X110145494Y-116868152D02*
X110053795Y-116869911D01*
X109964993Y-116872917D01*
X109883526Y-116877125D01*
X109813833Y-116882487D01*
X109760354Y-116888955D01*
X109732744Y-116894739D01*
X109643118Y-116933122D01*
X109575889Y-116988218D01*
X109531669Y-117059247D01*
X109511071Y-117145426D01*
X109509556Y-117179277D01*
X109515823Y-117245995D01*
X109536593Y-117308153D01*
X109574814Y-117371552D01*
X109633437Y-117441992D01*
X109654572Y-117464458D01*
X109695251Y-117507875D01*
X109718584Y-117536663D01*
X109727479Y-117555846D01*
X109724844Y-117570448D01*
X109720088Y-117577632D01*
X109698380Y-117604738D01*
X109662655Y-117648092D01*
X109617276Y-117702522D01*
X109566600Y-117762857D01*
X109514990Y-117823924D01*
X109466805Y-117880553D01*
X109426406Y-117927570D01*
X109398152Y-117959805D01*
X109394073Y-117964319D01*
X109314039Y-118038602D01*
X109232450Y-118086849D01*
X109180903Y-118104313D01*
X109135429Y-118118453D01*
X109117311Y-118130705D01*
X109125721Y-118140632D01*
X109159830Y-118147794D01*
X109218809Y-118151752D01*
X109271740Y-118152394D01*
X109367216Y-118149319D01*
X109441598Y-118139176D01*
X109501653Y-118119379D01*
X109554150Y-118087344D01*
X109605859Y-118040485D01*
X109628707Y-118016052D01*
X109670333Y-117967313D01*
X109720300Y-117904716D01*
X109771135Y-117837778D01*
X109800826Y-117796839D01*
X109840283Y-117741847D01*
X109875380Y-117694153D01*
X109902031Y-117659237D01*
X109915321Y-117643362D01*
X109939000Y-117632880D01*
X109979009Y-117626226D01*
X110025719Y-117623672D01*
X110069502Y-117625487D01*
X110100730Y-117631941D01*
X110109293Y-117637913D01*
X110111740Y-117656394D01*
X110112557Y-117697651D01*
X110111774Y-117756284D01*
X110109424Y-117826897D01*
X110108031Y-117857723D01*
X110103038Y-117946620D01*
X110097020Y-118011161D01*
X110088484Y-118055208D01*
X110075941Y-118082621D01*
X110057897Y-118097263D01*
X110032863Y-118102996D01*
X110013020Y-118103771D01*
X109973466Y-118108327D01*
X109944752Y-118119339D01*
X109933739Y-118133439D01*
X109937331Y-118140923D01*
X109954567Y-118144717D01*
X109994314Y-118147728D01*
X110051179Y-118149952D01*
X110119770Y-118151383D01*
X110194695Y-118152017D01*
X110270561Y-118151848D01*
X110341978Y-118150872D01*
X110403551Y-118149084D01*
X110449890Y-118146478D01*
X110475602Y-118143051D01*
X110478920Y-118141422D01*
X110482686Y-118129863D01*
X110472466Y-118121179D01*
X110442444Y-118111585D01*
X110426778Y-118107465D01*
X110383004Y-118086574D01*
X110359958Y-118060336D01*
X110356131Y-118039063D01*
X110352699Y-117993648D01*
X110349684Y-117927924D01*
X110347110Y-117845724D01*
X110345001Y-117750882D01*
X110343379Y-117647230D01*
X110342268Y-117538602D01*
X110341692Y-117428831D01*
X110341673Y-117321750D01*
X110342235Y-117221192D01*
X110342425Y-117206434D01*
X110113746Y-117206434D01*
X110113131Y-117258726D01*
X110109278Y-117517944D01*
X110059889Y-117527432D01*
X109997039Y-117533294D01*
X109931163Y-117529509D01*
X109872725Y-117517362D01*
X109834311Y-117499750D01*
X109806288Y-117471343D01*
X109777222Y-117429964D01*
X109767083Y-117411822D01*
X109742921Y-117340884D01*
X109734948Y-117260885D01*
X109742177Y-117179730D01*
X109763621Y-117105325D01*
X109798294Y-117045574D01*
X109814996Y-117028121D01*
X109858998Y-116999454D01*
X109914707Y-116977572D01*
X109974553Y-116963748D01*
X110030967Y-116959257D01*
X110076378Y-116965371D01*
X110100819Y-116980031D01*
X110107238Y-117000277D01*
X110111490Y-117043824D01*
X110113639Y-117112075D01*
X110113746Y-117206434D01*
X110342425Y-117206434D01*
X110343402Y-117130991D01*
X110345197Y-117054979D01*
X110347643Y-116996991D01*
X110350764Y-116960858D01*
X110353198Y-116950855D01*
X110377857Y-116931097D01*
X110418786Y-116914276D01*
X110464075Y-116904843D01*
X110478261Y-116904111D01*
X110504249Y-116898432D01*
X110507914Y-116886472D01*
X110492060Y-116879745D01*
X110452468Y-116874551D01*
X110393576Y-116870842D01*
X110319824Y-116868571D01*
X110235650Y-116867690D01*
X110145494Y-116868152D01*
X110145494Y-116868152D01*
G37*
X110145494Y-116868152D02*
X110053795Y-116869911D01*
X109964993Y-116872917D01*
X109883526Y-116877125D01*
X109813833Y-116882487D01*
X109760354Y-116888955D01*
X109732744Y-116894739D01*
X109643118Y-116933122D01*
X109575889Y-116988218D01*
X109531669Y-117059247D01*
X109511071Y-117145426D01*
X109509556Y-117179277D01*
X109515823Y-117245995D01*
X109536593Y-117308153D01*
X109574814Y-117371552D01*
X109633437Y-117441992D01*
X109654572Y-117464458D01*
X109695251Y-117507875D01*
X109718584Y-117536663D01*
X109727479Y-117555846D01*
X109724844Y-117570448D01*
X109720088Y-117577632D01*
X109698380Y-117604738D01*
X109662655Y-117648092D01*
X109617276Y-117702522D01*
X109566600Y-117762857D01*
X109514990Y-117823924D01*
X109466805Y-117880553D01*
X109426406Y-117927570D01*
X109398152Y-117959805D01*
X109394073Y-117964319D01*
X109314039Y-118038602D01*
X109232450Y-118086849D01*
X109180903Y-118104313D01*
X109135429Y-118118453D01*
X109117311Y-118130705D01*
X109125721Y-118140632D01*
X109159830Y-118147794D01*
X109218809Y-118151752D01*
X109271740Y-118152394D01*
X109367216Y-118149319D01*
X109441598Y-118139176D01*
X109501653Y-118119379D01*
X109554150Y-118087344D01*
X109605859Y-118040485D01*
X109628707Y-118016052D01*
X109670333Y-117967313D01*
X109720300Y-117904716D01*
X109771135Y-117837778D01*
X109800826Y-117796839D01*
X109840283Y-117741847D01*
X109875380Y-117694153D01*
X109902031Y-117659237D01*
X109915321Y-117643362D01*
X109939000Y-117632880D01*
X109979009Y-117626226D01*
X110025719Y-117623672D01*
X110069502Y-117625487D01*
X110100730Y-117631941D01*
X110109293Y-117637913D01*
X110111740Y-117656394D01*
X110112557Y-117697651D01*
X110111774Y-117756284D01*
X110109424Y-117826897D01*
X110108031Y-117857723D01*
X110103038Y-117946620D01*
X110097020Y-118011161D01*
X110088484Y-118055208D01*
X110075941Y-118082621D01*
X110057897Y-118097263D01*
X110032863Y-118102996D01*
X110013020Y-118103771D01*
X109973466Y-118108327D01*
X109944752Y-118119339D01*
X109933739Y-118133439D01*
X109937331Y-118140923D01*
X109954567Y-118144717D01*
X109994314Y-118147728D01*
X110051179Y-118149952D01*
X110119770Y-118151383D01*
X110194695Y-118152017D01*
X110270561Y-118151848D01*
X110341978Y-118150872D01*
X110403551Y-118149084D01*
X110449890Y-118146478D01*
X110475602Y-118143051D01*
X110478920Y-118141422D01*
X110482686Y-118129863D01*
X110472466Y-118121179D01*
X110442444Y-118111585D01*
X110426778Y-118107465D01*
X110383004Y-118086574D01*
X110359958Y-118060336D01*
X110356131Y-118039063D01*
X110352699Y-117993648D01*
X110349684Y-117927924D01*
X110347110Y-117845724D01*
X110345001Y-117750882D01*
X110343379Y-117647230D01*
X110342268Y-117538602D01*
X110341692Y-117428831D01*
X110341673Y-117321750D01*
X110342235Y-117221192D01*
X110342425Y-117206434D01*
X110113746Y-117206434D01*
X110113131Y-117258726D01*
X110109278Y-117517944D01*
X110059889Y-117527432D01*
X109997039Y-117533294D01*
X109931163Y-117529509D01*
X109872725Y-117517362D01*
X109834311Y-117499750D01*
X109806288Y-117471343D01*
X109777222Y-117429964D01*
X109767083Y-117411822D01*
X109742921Y-117340884D01*
X109734948Y-117260885D01*
X109742177Y-117179730D01*
X109763621Y-117105325D01*
X109798294Y-117045574D01*
X109814996Y-117028121D01*
X109858998Y-116999454D01*
X109914707Y-116977572D01*
X109974553Y-116963748D01*
X110030967Y-116959257D01*
X110076378Y-116965371D01*
X110100819Y-116980031D01*
X110107238Y-117000277D01*
X110111490Y-117043824D01*
X110113639Y-117112075D01*
X110113746Y-117206434D01*
X110342425Y-117206434D01*
X110343402Y-117130991D01*
X110345197Y-117054979D01*
X110347643Y-116996991D01*
X110350764Y-116960858D01*
X110353198Y-116950855D01*
X110377857Y-116931097D01*
X110418786Y-116914276D01*
X110464075Y-116904843D01*
X110478261Y-116904111D01*
X110504249Y-116898432D01*
X110507914Y-116886472D01*
X110492060Y-116879745D01*
X110452468Y-116874551D01*
X110393576Y-116870842D01*
X110319824Y-116868571D01*
X110235650Y-116867690D01*
X110145494Y-116868152D01*
G36*
X109186871Y-116858321D02*
X109154052Y-116860801D01*
X109096907Y-116863072D01*
X109019332Y-116865064D01*
X108925223Y-116866705D01*
X108818476Y-116867925D01*
X108702988Y-116868653D01*
X108609967Y-116868833D01*
X108112545Y-116868833D01*
X108112550Y-117000537D01*
X108113541Y-117065188D01*
X108116837Y-117105201D01*
X108122932Y-117124100D01*
X108130195Y-117126373D01*
X108145163Y-117109536D01*
X108154891Y-117080125D01*
X108167945Y-117045262D01*
X108195436Y-117019033D01*
X108240615Y-117000170D01*
X108306739Y-116987405D01*
X108397060Y-116979468D01*
X108415685Y-116978477D01*
X108578222Y-116970472D01*
X108577192Y-117448819D01*
X108576534Y-117602914D01*
X108575186Y-117731045D01*
X108573006Y-117835464D01*
X108569850Y-117918424D01*
X108565575Y-117982179D01*
X108560037Y-118028980D01*
X108553093Y-118061081D01*
X108544599Y-118080734D01*
X108536454Y-118089095D01*
X108512280Y-118097546D01*
X108471810Y-118106102D01*
X108449415Y-118109518D01*
X108409812Y-118117277D01*
X108384965Y-118126962D01*
X108380667Y-118132263D01*
X108391920Y-118145849D01*
X108398306Y-118147284D01*
X108427783Y-118148552D01*
X108477004Y-118149533D01*
X108540729Y-118150228D01*
X108613718Y-118150641D01*
X108690732Y-118150771D01*
X108766531Y-118150623D01*
X108835876Y-118150198D01*
X108893525Y-118149497D01*
X108934240Y-118148524D01*
X108952781Y-118147280D01*
X108953331Y-118147064D01*
X108958171Y-118129840D01*
X108935523Y-118115996D01*
X108910336Y-118109774D01*
X108871829Y-118097498D01*
X108844489Y-118080095D01*
X108843308Y-118078763D01*
X108838363Y-118066276D01*
X108834196Y-118040282D01*
X108830722Y-117998614D01*
X108827855Y-117939104D01*
X108825510Y-117859583D01*
X108823601Y-117757883D01*
X108822042Y-117631837D01*
X108821005Y-117514061D01*
X108816843Y-116971199D01*
X108997394Y-116981226D01*
X109084058Y-116987127D01*
X109147385Y-116994860D01*
X109192257Y-117006125D01*
X109223560Y-117022622D01*
X109246176Y-117046052D01*
X109262680Y-117073577D01*
X109283533Y-117106306D01*
X109298214Y-117113923D01*
X109306442Y-117098915D01*
X109307938Y-117063768D01*
X109302424Y-117010970D01*
X109289621Y-116943009D01*
X109281298Y-116907710D01*
X109266352Y-116847809D01*
X109186871Y-116858321D01*
X109186871Y-116858321D01*
G37*
X109186871Y-116858321D02*
X109154052Y-116860801D01*
X109096907Y-116863072D01*
X109019332Y-116865064D01*
X108925223Y-116866705D01*
X108818476Y-116867925D01*
X108702988Y-116868653D01*
X108609967Y-116868833D01*
X108112545Y-116868833D01*
X108112550Y-117000537D01*
X108113541Y-117065188D01*
X108116837Y-117105201D01*
X108122932Y-117124100D01*
X108130195Y-117126373D01*
X108145163Y-117109536D01*
X108154891Y-117080125D01*
X108167945Y-117045262D01*
X108195436Y-117019033D01*
X108240615Y-117000170D01*
X108306739Y-116987405D01*
X108397060Y-116979468D01*
X108415685Y-116978477D01*
X108578222Y-116970472D01*
X108577192Y-117448819D01*
X108576534Y-117602914D01*
X108575186Y-117731045D01*
X108573006Y-117835464D01*
X108569850Y-117918424D01*
X108565575Y-117982179D01*
X108560037Y-118028980D01*
X108553093Y-118061081D01*
X108544599Y-118080734D01*
X108536454Y-118089095D01*
X108512280Y-118097546D01*
X108471810Y-118106102D01*
X108449415Y-118109518D01*
X108409812Y-118117277D01*
X108384965Y-118126962D01*
X108380667Y-118132263D01*
X108391920Y-118145849D01*
X108398306Y-118147284D01*
X108427783Y-118148552D01*
X108477004Y-118149533D01*
X108540729Y-118150228D01*
X108613718Y-118150641D01*
X108690732Y-118150771D01*
X108766531Y-118150623D01*
X108835876Y-118150198D01*
X108893525Y-118149497D01*
X108934240Y-118148524D01*
X108952781Y-118147280D01*
X108953331Y-118147064D01*
X108958171Y-118129840D01*
X108935523Y-118115996D01*
X108910336Y-118109774D01*
X108871829Y-118097498D01*
X108844489Y-118080095D01*
X108843308Y-118078763D01*
X108838363Y-118066276D01*
X108834196Y-118040282D01*
X108830722Y-117998614D01*
X108827855Y-117939104D01*
X108825510Y-117859583D01*
X108823601Y-117757883D01*
X108822042Y-117631837D01*
X108821005Y-117514061D01*
X108816843Y-116971199D01*
X108997394Y-116981226D01*
X109084058Y-116987127D01*
X109147385Y-116994860D01*
X109192257Y-117006125D01*
X109223560Y-117022622D01*
X109246176Y-117046052D01*
X109262680Y-117073577D01*
X109283533Y-117106306D01*
X109298214Y-117113923D01*
X109306442Y-117098915D01*
X109307938Y-117063768D01*
X109302424Y-117010970D01*
X109289621Y-116943009D01*
X109281298Y-116907710D01*
X109266352Y-116847809D01*
X109186871Y-116858321D01*
G36*
X107677892Y-116869340D02*
X107594146Y-116870404D01*
X107520123Y-116871500D01*
X107460448Y-116872545D01*
X107419746Y-116873460D01*
X107402640Y-116874162D01*
X107392582Y-116880675D01*
X107404004Y-116891100D01*
X107431117Y-116902074D01*
X107463571Y-116909550D01*
X107492633Y-116916225D01*
X107514190Y-116928182D01*
X107529348Y-116949239D01*
X107539213Y-116983215D01*
X107544891Y-117033927D01*
X107547488Y-117105194D01*
X107548111Y-117200833D01*
X107548111Y-117412111D01*
X106870778Y-117412111D01*
X106870986Y-117203972D01*
X106871878Y-117109223D01*
X106875171Y-117038715D01*
X106882115Y-116988490D01*
X106893959Y-116954588D01*
X106911954Y-116933052D01*
X106937349Y-116919923D01*
X106962851Y-116913027D01*
X107014264Y-116901421D01*
X107042477Y-116893444D01*
X107051943Y-116887102D01*
X107047118Y-116880399D01*
X107042496Y-116877363D01*
X107025139Y-116874978D01*
X106984940Y-116872968D01*
X106927275Y-116871362D01*
X106857521Y-116870191D01*
X106781057Y-116869487D01*
X106703259Y-116869279D01*
X106629505Y-116869600D01*
X106565172Y-116870479D01*
X106515637Y-116871948D01*
X106486278Y-116874038D01*
X106485417Y-116874162D01*
X106475474Y-116880825D01*
X106486878Y-116891661D01*
X106513816Y-116903172D01*
X106547174Y-116911327D01*
X106589038Y-116923145D01*
X106611984Y-116944170D01*
X106618281Y-116957452D01*
X106621845Y-116981475D01*
X106624710Y-117031624D01*
X106626840Y-117105814D01*
X106628199Y-117201958D01*
X106628753Y-117317967D01*
X106628464Y-117451756D01*
X106627987Y-117525415D01*
X106626805Y-117668146D01*
X106625468Y-117785204D01*
X106623625Y-117879136D01*
X106620923Y-117952488D01*
X106617010Y-118007810D01*
X106611534Y-118047648D01*
X106604142Y-118074549D01*
X106594482Y-118091062D01*
X106582202Y-118099734D01*
X106566950Y-118103113D01*
X106548373Y-118103746D01*
X106548022Y-118103748D01*
X106500905Y-118107786D01*
X106466321Y-118117846D01*
X106451057Y-118131641D01*
X106451310Y-118136319D01*
X106467525Y-118142320D01*
X106511640Y-118146579D01*
X106583735Y-118149099D01*
X106683889Y-118149885D01*
X106730582Y-118149721D01*
X106829240Y-118149148D01*
X106903208Y-118148650D01*
X106956016Y-118148028D01*
X106991195Y-118147082D01*
X107012276Y-118145613D01*
X107022789Y-118143421D01*
X107026265Y-118140305D01*
X107026234Y-118136068D01*
X107026000Y-118133018D01*
X107013555Y-118122825D01*
X106982498Y-118113108D01*
X106970368Y-118110748D01*
X106929965Y-118099452D01*
X106900510Y-118083420D01*
X106896792Y-118079728D01*
X106889415Y-118059930D01*
X106883431Y-118018856D01*
X106878684Y-117954613D01*
X106875020Y-117865305D01*
X106873115Y-117791553D01*
X106867382Y-117525000D01*
X107551154Y-117525000D01*
X107546105Y-117790943D01*
X107543322Y-117898139D01*
X107539475Y-117978913D01*
X107534420Y-118035048D01*
X107528018Y-118068329D01*
X107523310Y-118078268D01*
X107499663Y-118092209D01*
X107459112Y-118103975D01*
X107433202Y-118108220D01*
X107381801Y-118115883D01*
X107355437Y-118124401D01*
X107350931Y-118135157D01*
X107355896Y-118141822D01*
X107371911Y-118144488D01*
X107410899Y-118146892D01*
X107467616Y-118148974D01*
X107536812Y-118150677D01*
X107613243Y-118151940D01*
X107691660Y-118152706D01*
X107766816Y-118152916D01*
X107833465Y-118152511D01*
X107886360Y-118151432D01*
X107920253Y-118149620D01*
X107929048Y-118148240D01*
X107943819Y-118137217D01*
X107933798Y-118124738D01*
X107902089Y-118113611D01*
X107887590Y-118110748D01*
X107847020Y-118099291D01*
X107817262Y-118082885D01*
X107813507Y-118079136D01*
X107808464Y-118066877D01*
X107804218Y-118041777D01*
X107800674Y-118001586D01*
X107797742Y-117944053D01*
X107795326Y-117866928D01*
X107793335Y-117767962D01*
X107791675Y-117644904D01*
X107790475Y-117521980D01*
X107789276Y-117376969D01*
X107788657Y-117257603D01*
X107789009Y-117161307D01*
X107790722Y-117085504D01*
X107794187Y-117027618D01*
X107799794Y-116985074D01*
X107807934Y-116955294D01*
X107818997Y-116935704D01*
X107833375Y-116923727D01*
X107851456Y-116916787D01*
X107873633Y-116912307D01*
X107883143Y-116910726D01*
X107940279Y-116899638D01*
X107969718Y-116890094D01*
X107971947Y-116882192D01*
X107947456Y-116876030D01*
X107896731Y-116871707D01*
X107820261Y-116869322D01*
X107718535Y-116868973D01*
X107677892Y-116869340D01*
X107677892Y-116869340D01*
G37*
X107677892Y-116869340D02*
X107594146Y-116870404D01*
X107520123Y-116871500D01*
X107460448Y-116872545D01*
X107419746Y-116873460D01*
X107402640Y-116874162D01*
X107392582Y-116880675D01*
X107404004Y-116891100D01*
X107431117Y-116902074D01*
X107463571Y-116909550D01*
X107492633Y-116916225D01*
X107514190Y-116928182D01*
X107529348Y-116949239D01*
X107539213Y-116983215D01*
X107544891Y-117033927D01*
X107547488Y-117105194D01*
X107548111Y-117200833D01*
X107548111Y-117412111D01*
X106870778Y-117412111D01*
X106870986Y-117203972D01*
X106871878Y-117109223D01*
X106875171Y-117038715D01*
X106882115Y-116988490D01*
X106893959Y-116954588D01*
X106911954Y-116933052D01*
X106937349Y-116919923D01*
X106962851Y-116913027D01*
X107014264Y-116901421D01*
X107042477Y-116893444D01*
X107051943Y-116887102D01*
X107047118Y-116880399D01*
X107042496Y-116877363D01*
X107025139Y-116874978D01*
X106984940Y-116872968D01*
X106927275Y-116871362D01*
X106857521Y-116870191D01*
X106781057Y-116869487D01*
X106703259Y-116869279D01*
X106629505Y-116869600D01*
X106565172Y-116870479D01*
X106515637Y-116871948D01*
X106486278Y-116874038D01*
X106485417Y-116874162D01*
X106475474Y-116880825D01*
X106486878Y-116891661D01*
X106513816Y-116903172D01*
X106547174Y-116911327D01*
X106589038Y-116923145D01*
X106611984Y-116944170D01*
X106618281Y-116957452D01*
X106621845Y-116981475D01*
X106624710Y-117031624D01*
X106626840Y-117105814D01*
X106628199Y-117201958D01*
X106628753Y-117317967D01*
X106628464Y-117451756D01*
X106627987Y-117525415D01*
X106626805Y-117668146D01*
X106625468Y-117785204D01*
X106623625Y-117879136D01*
X106620923Y-117952488D01*
X106617010Y-118007810D01*
X106611534Y-118047648D01*
X106604142Y-118074549D01*
X106594482Y-118091062D01*
X106582202Y-118099734D01*
X106566950Y-118103113D01*
X106548373Y-118103746D01*
X106548022Y-118103748D01*
X106500905Y-118107786D01*
X106466321Y-118117846D01*
X106451057Y-118131641D01*
X106451310Y-118136319D01*
X106467525Y-118142320D01*
X106511640Y-118146579D01*
X106583735Y-118149099D01*
X106683889Y-118149885D01*
X106730582Y-118149721D01*
X106829240Y-118149148D01*
X106903208Y-118148650D01*
X106956016Y-118148028D01*
X106991195Y-118147082D01*
X107012276Y-118145613D01*
X107022789Y-118143421D01*
X107026265Y-118140305D01*
X107026234Y-118136068D01*
X107026000Y-118133018D01*
X107013555Y-118122825D01*
X106982498Y-118113108D01*
X106970368Y-118110748D01*
X106929965Y-118099452D01*
X106900510Y-118083420D01*
X106896792Y-118079728D01*
X106889415Y-118059930D01*
X106883431Y-118018856D01*
X106878684Y-117954613D01*
X106875020Y-117865305D01*
X106873115Y-117791553D01*
X106867382Y-117525000D01*
X107551154Y-117525000D01*
X107546105Y-117790943D01*
X107543322Y-117898139D01*
X107539475Y-117978913D01*
X107534420Y-118035048D01*
X107528018Y-118068329D01*
X107523310Y-118078268D01*
X107499663Y-118092209D01*
X107459112Y-118103975D01*
X107433202Y-118108220D01*
X107381801Y-118115883D01*
X107355437Y-118124401D01*
X107350931Y-118135157D01*
X107355896Y-118141822D01*
X107371911Y-118144488D01*
X107410899Y-118146892D01*
X107467616Y-118148974D01*
X107536812Y-118150677D01*
X107613243Y-118151940D01*
X107691660Y-118152706D01*
X107766816Y-118152916D01*
X107833465Y-118152511D01*
X107886360Y-118151432D01*
X107920253Y-118149620D01*
X107929048Y-118148240D01*
X107943819Y-118137217D01*
X107933798Y-118124738D01*
X107902089Y-118113611D01*
X107887590Y-118110748D01*
X107847020Y-118099291D01*
X107817262Y-118082885D01*
X107813507Y-118079136D01*
X107808464Y-118066877D01*
X107804218Y-118041777D01*
X107800674Y-118001586D01*
X107797742Y-117944053D01*
X107795326Y-117866928D01*
X107793335Y-117767962D01*
X107791675Y-117644904D01*
X107790475Y-117521980D01*
X107789276Y-117376969D01*
X107788657Y-117257603D01*
X107789009Y-117161307D01*
X107790722Y-117085504D01*
X107794187Y-117027618D01*
X107799794Y-116985074D01*
X107807934Y-116955294D01*
X107818997Y-116935704D01*
X107833375Y-116923727D01*
X107851456Y-116916787D01*
X107873633Y-116912307D01*
X107883143Y-116910726D01*
X107940279Y-116899638D01*
X107969718Y-116890094D01*
X107971947Y-116882192D01*
X107947456Y-116876030D01*
X107896731Y-116871707D01*
X107820261Y-116869322D01*
X107718535Y-116868973D01*
X107677892Y-116869340D01*
M02*
