M48
;DRILL file {KiCad 4.0.5+dfsg1-4} date Sun Nov 25 18:58:36 2018
;FORMAT={3:3/ absolute / metric / keep zeros}
FMAT,2
METRIC,TZ
T1C0.400
T2C1.016
%
G90
G05
M71
T1
X099800Y-100900
X102400Y-113600
X103500Y-113600
X104200Y-099900
X104300Y-103500
X113624Y-105820
T2
X098310Y-104530
X098310Y-107070
X098310Y-109610
X098310Y-112150
X098310Y-114690
X098310Y-117230
X100850Y-104530
X100850Y-107070
X100850Y-109610
X100850Y-112150
X100850Y-114690
X100850Y-117230
X122100Y-100300
X124600Y-105820
X124600Y-108360
X124600Y-110900
X124600Y-113440
X124600Y-115980
X124640Y-100300
T0
M30
