G04 #@! TF.FileFunction,Copper,L2,Bot,Signal*
%FSLAX46Y46*%
G04 Gerber Fmt 4.6, Leading zero omitted, Abs format (unit mm)*
G04 Created by KiCad (PCBNEW 4.0.5+dfsg1-4) date Sun Nov 25 22:30:50 2018*
%MOMM*%
%LPD*%
G01*
G04 APERTURE LIST*
%ADD10C,0.100000*%
%ADD11C,2.740000*%
%ADD12C,2.240000*%
%ADD13R,1.727200X1.727200*%
%ADD14O,1.727200X1.727200*%
%ADD15R,1.350000X1.350000*%
%ADD16C,1.350000*%
%ADD17C,0.600000*%
%ADD18C,0.500000*%
G04 APERTURE END LIST*
D10*
D11*
X124960000Y-113040000D03*
X130040000Y-113040000D03*
X130040000Y-107960000D03*
X124960000Y-107960000D03*
D12*
X127500000Y-110500000D03*
D13*
X100665000Y-117145000D03*
D14*
X98125000Y-117145000D03*
X100665000Y-114605000D03*
X98125000Y-114605000D03*
X100665000Y-112065000D03*
X98125000Y-112065000D03*
X100665000Y-109525000D03*
X98125000Y-109525000D03*
X100665000Y-106985000D03*
X98125000Y-106985000D03*
X100665000Y-104445000D03*
X98125000Y-104445000D03*
D15*
X129000000Y-100000000D03*
D16*
X127000000Y-100000000D03*
X125000000Y-100000000D03*
D17*
X111975000Y-113450000D03*
X110900000Y-116075000D03*
X112250000Y-114825000D03*
X110875000Y-113225000D03*
X98100000Y-99000000D03*
X113075000Y-111950000D03*
X106550000Y-100875000D03*
X95725000Y-100800000D03*
X105300000Y-99875000D03*
X96850000Y-100000000D03*
X117975000Y-115650000D03*
X116300000Y-100400000D03*
X116300000Y-101400000D03*
D18*
X98125000Y-117145000D02*
X100665000Y-117145000D01*
X104425000Y-115725000D02*
X103005000Y-117145000D01*
X103005000Y-117145000D02*
X100665000Y-117145000D01*
X109700000Y-115725000D02*
X104425000Y-115725000D01*
X111975000Y-113450000D02*
X109700000Y-115725000D01*
X112250000Y-114825000D02*
X112150000Y-114825000D01*
X112150000Y-114825000D02*
X110900000Y-116075000D01*
X100665000Y-112065000D02*
X109715000Y-112065000D01*
X109715000Y-112065000D02*
X110875000Y-113225000D01*
X113075000Y-111950000D02*
X104256399Y-103131399D01*
X104256399Y-103131399D02*
X97494471Y-103131399D01*
X97261401Y-106121401D02*
X98125000Y-106985000D01*
X97494471Y-103131399D02*
X96811399Y-103814471D01*
X96811399Y-103814471D02*
X96811399Y-105671399D01*
X96811399Y-105671399D02*
X97261401Y-106121401D01*
X95725000Y-100800000D02*
X106475000Y-100800000D01*
X106475000Y-100800000D02*
X106550000Y-100875000D01*
X96850000Y-100000000D02*
X105175000Y-100000000D01*
X105175000Y-100000000D02*
X105300000Y-99875000D01*
X129000000Y-100000000D02*
X129000000Y-101175000D01*
X129000000Y-101175000D02*
X124725000Y-105450000D01*
X124725000Y-105450000D02*
X109325000Y-105450000D01*
X109325000Y-105450000D02*
X109250000Y-105525000D01*
X109250000Y-105525000D02*
X107850000Y-105525000D01*
X107850000Y-105525000D02*
X117975000Y-115650000D01*
X116300000Y-100400000D02*
X122934998Y-100400000D01*
X122934998Y-100400000D02*
X124459999Y-98874999D01*
X124459999Y-98874999D02*
X125874999Y-98874999D01*
X125874999Y-98874999D02*
X126325001Y-99325001D01*
X126325001Y-99325001D02*
X127000000Y-100000000D01*
X116300000Y-101400000D02*
X123600000Y-101400000D01*
X123600000Y-101400000D02*
X125000000Y-100000000D01*
M02*
