%TF.GenerationSoftware,KiCad,Pcbnew,5.0.1+dfsg1-3~bpo9+1*%
%TF.CreationDate,2018-11-26T19:46:47+01:00*%
%TF.ProjectId,LoRa_PMOD,4C6F52615F504D4F442E6B696361645F,rev?*%
%TF.SameCoordinates,Original*%
%TF.FileFunction,Legend,Top*%
%TF.FilePolarity,Positive*%
%FSLAX46Y46*%
G04 Gerber Fmt 4.6, Leading zero omitted, Abs format (unit mm)*
G04 Created by KiCad (PCBNEW 5.0.1+dfsg1-3~bpo9+1) date Mon 26 Nov 2018 07:46:47 PM CET*
%MOMM*%
%LPD*%
G01*
G04 APERTURE LIST*
%ADD10C,0.200000*%
%ADD11C,0.100000*%
%ADD12C,0.120000*%
%ADD13C,0.150000*%
%ADD14C,0.050000*%
G04 APERTURE END LIST*
D10*
%TO.C,U1*%
X105020000Y-118840000D02*
X105020000Y-102840000D01*
X121020000Y-102840000D02*
X121020000Y-118840000D01*
X106311550Y-120590000D02*
G75*
G03X106311550Y-120590000I-291550J0D01*
G01*
D11*
G36*
X105820000Y-120851500D02*
X105820000Y-120340000D01*
X106212200Y-120340000D01*
X106212200Y-120851500D01*
X105820000Y-120851500D01*
G37*
D12*
%TO.C,AE1*%
X126500000Y-106994800D02*
X128500000Y-106994800D01*
X131005200Y-109500000D02*
X131005200Y-111500000D01*
X128500000Y-114005200D02*
X126500000Y-114005200D01*
X123994800Y-111500000D02*
X123994800Y-109500000D01*
D13*
%TO.C,P1*%
X99141000Y-104699000D02*
X99649000Y-104699000D01*
X99141000Y-104191000D02*
X99649000Y-104191000D01*
X99141000Y-106731000D02*
X99649000Y-106731000D01*
X99141000Y-107239000D02*
X99649000Y-107239000D01*
X99141000Y-109271000D02*
X99649000Y-109271000D01*
X99141000Y-109779000D02*
X99649000Y-109779000D01*
X99141000Y-117399000D02*
X99649000Y-117399000D01*
X99141000Y-116891000D02*
X99649000Y-116891000D01*
X99141000Y-111811000D02*
X99649000Y-111811000D01*
X99141000Y-112319000D02*
X99649000Y-112319000D01*
X99141000Y-114351000D02*
X99649000Y-114351000D01*
X99141000Y-114859000D02*
X99649000Y-114859000D01*
X96601000Y-104191000D02*
X97109000Y-104191000D01*
X96601000Y-104699000D02*
X97109000Y-104699000D01*
X96601000Y-106731000D02*
X97109000Y-106731000D01*
X96601000Y-107239000D02*
X97109000Y-107239000D01*
X96601000Y-117399000D02*
X97109000Y-117399000D01*
X96601000Y-116891000D02*
X97109000Y-116891000D01*
X96601000Y-114859000D02*
X97109000Y-114859000D01*
X96601000Y-114351000D02*
X97109000Y-114351000D01*
X96601000Y-109271000D02*
X97109000Y-109271000D01*
X96601000Y-109779000D02*
X97109000Y-109779000D01*
X96601000Y-111811000D02*
X97109000Y-111811000D01*
X96601000Y-112319000D02*
X97109000Y-112319000D01*
X100665000Y-118695000D02*
X101815000Y-118695000D01*
X101815000Y-118695000D02*
X101815000Y-117145000D01*
X94061000Y-117272000D02*
X88092000Y-117272000D01*
X88092000Y-117272000D02*
X88092000Y-117018000D01*
X88092000Y-117018000D02*
X93934000Y-117018000D01*
X93934000Y-117018000D02*
X93934000Y-117145000D01*
X93934000Y-117145000D02*
X88092000Y-117145000D01*
X96601000Y-108255000D02*
X94061000Y-108255000D01*
X96601000Y-108255000D02*
X96601000Y-105715000D01*
X96601000Y-105715000D02*
X94061000Y-105715000D01*
X94061000Y-107239000D02*
X87965000Y-107239000D01*
X87965000Y-107239000D02*
X87965000Y-106731000D01*
X87965000Y-106731000D02*
X94061000Y-106731000D01*
X94061000Y-105715000D02*
X94061000Y-108255000D01*
X94061000Y-103175000D02*
X94061000Y-105715000D01*
X87965000Y-104191000D02*
X94061000Y-104191000D01*
X87965000Y-104699000D02*
X87965000Y-104191000D01*
X94061000Y-104699000D02*
X87965000Y-104699000D01*
X96601000Y-105715000D02*
X96601000Y-103175000D01*
X96601000Y-105715000D02*
X94061000Y-105715000D01*
X96601000Y-103175000D02*
X94061000Y-103175000D01*
X96601000Y-113335000D02*
X94061000Y-113335000D01*
X96601000Y-113335000D02*
X96601000Y-110795000D01*
X96601000Y-110795000D02*
X94061000Y-110795000D01*
X94061000Y-112319000D02*
X87965000Y-112319000D01*
X87965000Y-112319000D02*
X87965000Y-111811000D01*
X87965000Y-111811000D02*
X94061000Y-111811000D01*
X94061000Y-110795000D02*
X94061000Y-113335000D01*
X94061000Y-108255000D02*
X94061000Y-110795000D01*
X87965000Y-109271000D02*
X94061000Y-109271000D01*
X87965000Y-109779000D02*
X87965000Y-109271000D01*
X94061000Y-109779000D02*
X87965000Y-109779000D01*
X96601000Y-108255000D02*
X94061000Y-108255000D01*
X96601000Y-110795000D02*
X96601000Y-108255000D01*
X96601000Y-110795000D02*
X94061000Y-110795000D01*
X96601000Y-115875000D02*
X94061000Y-115875000D01*
X96601000Y-115875000D02*
X96601000Y-113335000D01*
X96601000Y-113335000D02*
X94061000Y-113335000D01*
X94061000Y-114859000D02*
X87965000Y-114859000D01*
X87965000Y-114859000D02*
X87965000Y-114351000D01*
X87965000Y-114351000D02*
X94061000Y-114351000D01*
X94061000Y-113335000D02*
X94061000Y-115875000D01*
X94061000Y-115875000D02*
X94061000Y-118415000D01*
X87965000Y-116891000D02*
X94061000Y-116891000D01*
X87965000Y-117399000D02*
X87965000Y-116891000D01*
X94061000Y-117399000D02*
X87965000Y-117399000D01*
X96601000Y-115875000D02*
X94061000Y-115875000D01*
X96601000Y-118415000D02*
X96601000Y-115875000D01*
X96601000Y-118415000D02*
X94061000Y-118415000D01*
%TO.C,P2*%
X129000000Y-102000000D02*
X129000000Y-104000000D01*
X129000000Y-104000000D02*
X125000000Y-104000000D01*
X125000000Y-104000000D02*
X125000000Y-102000000D01*
X125000000Y-102000000D02*
X129000000Y-102000000D01*
X130000000Y-101500000D02*
X131500000Y-101500000D01*
X131500000Y-101500000D02*
X131500000Y-103000000D01*
%TD*%
%TO.C,U1*%
D14*
X103451335Y-118463360D02*
X104262405Y-118463360D01*
X104357825Y-118415650D01*
X104405535Y-118367940D01*
X104453245Y-118272520D01*
X104453245Y-118081680D01*
X104405535Y-117986260D01*
X104357825Y-117938550D01*
X104262405Y-117890840D01*
X103451335Y-117890840D01*
X104453245Y-116888930D02*
X104453245Y-117461450D01*
X104453245Y-117175190D02*
X103451335Y-117175190D01*
X103594465Y-117270610D01*
X103689885Y-117366030D01*
X103737595Y-117461450D01*
X122553199Y-116323723D02*
X122076147Y-116657660D01*
X122553199Y-116896186D02*
X121551389Y-116896186D01*
X121551389Y-116514544D01*
X121599095Y-116419134D01*
X121646800Y-116371428D01*
X121742210Y-116323723D01*
X121885326Y-116323723D01*
X121980736Y-116371428D01*
X122028442Y-116419134D01*
X122076147Y-116514544D01*
X122076147Y-116896186D01*
X122028442Y-115560439D02*
X122028442Y-115894376D01*
X122553199Y-115894376D02*
X121551389Y-115894376D01*
X121551389Y-115417324D01*
X122553199Y-115035682D02*
X121551389Y-115035682D01*
X122266968Y-114701745D01*
X121551389Y-114367808D01*
X122553199Y-114367808D01*
X122553199Y-113843051D02*
X122553199Y-113652230D01*
X122505494Y-113556819D01*
X122457789Y-113509114D01*
X122314673Y-113413704D01*
X122123852Y-113365998D01*
X121742210Y-113365998D01*
X121646800Y-113413704D01*
X121599095Y-113461409D01*
X121551389Y-113556819D01*
X121551389Y-113747640D01*
X121599095Y-113843051D01*
X121646800Y-113890756D01*
X121742210Y-113938461D01*
X121980736Y-113938461D01*
X122076147Y-113890756D01*
X122123852Y-113843051D01*
X122171557Y-113747640D01*
X122171557Y-113556819D01*
X122123852Y-113461409D01*
X122076147Y-113413704D01*
X121980736Y-113365998D01*
X121551389Y-112459599D02*
X121551389Y-112936651D01*
X122028442Y-112984356D01*
X121980736Y-112936651D01*
X121933031Y-112841241D01*
X121933031Y-112602715D01*
X121980736Y-112507304D01*
X122028442Y-112459599D01*
X122123852Y-112411894D01*
X122362378Y-112411894D01*
X122457789Y-112459599D01*
X122505494Y-112507304D01*
X122553199Y-112602715D01*
X122553199Y-112841241D01*
X122505494Y-112936651D01*
X122457789Y-112984356D01*
X121551389Y-112077957D02*
X122553199Y-111839431D01*
X121837621Y-111648610D01*
X122553199Y-111457789D01*
X121551389Y-111219263D01*
X122171557Y-110837621D02*
X122171557Y-110074337D01*
X121980736Y-109454169D02*
X121933031Y-109549579D01*
X121885326Y-109597285D01*
X121789915Y-109644990D01*
X121742210Y-109644990D01*
X121646800Y-109597285D01*
X121599095Y-109549579D01*
X121551389Y-109454169D01*
X121551389Y-109263348D01*
X121599095Y-109167937D01*
X121646800Y-109120232D01*
X121742210Y-109072527D01*
X121789915Y-109072527D01*
X121885326Y-109120232D01*
X121933031Y-109167937D01*
X121980736Y-109263348D01*
X121980736Y-109454169D01*
X122028442Y-109549579D01*
X122076147Y-109597285D01*
X122171557Y-109644990D01*
X122362378Y-109644990D01*
X122457789Y-109597285D01*
X122505494Y-109549579D01*
X122553199Y-109454169D01*
X122553199Y-109263348D01*
X122505494Y-109167937D01*
X122457789Y-109120232D01*
X122362378Y-109072527D01*
X122171557Y-109072527D01*
X122076147Y-109120232D01*
X122028442Y-109167937D01*
X121980736Y-109263348D01*
X121551389Y-108213833D02*
X121551389Y-108404654D01*
X121599095Y-108500064D01*
X121646800Y-108547769D01*
X121789915Y-108643180D01*
X121980736Y-108690885D01*
X122362378Y-108690885D01*
X122457789Y-108643180D01*
X122505494Y-108595475D01*
X122553199Y-108500064D01*
X122553199Y-108309243D01*
X122505494Y-108213833D01*
X122457789Y-108166127D01*
X122362378Y-108118422D01*
X122123852Y-108118422D01*
X122028442Y-108166127D01*
X121980736Y-108213833D01*
X121933031Y-108309243D01*
X121933031Y-108500064D01*
X121980736Y-108595475D01*
X122028442Y-108643180D01*
X122123852Y-108690885D01*
X121980736Y-107545959D02*
X121933031Y-107641370D01*
X121885326Y-107689075D01*
X121789915Y-107736780D01*
X121742210Y-107736780D01*
X121646800Y-107689075D01*
X121599095Y-107641370D01*
X121551389Y-107545959D01*
X121551389Y-107355138D01*
X121599095Y-107259728D01*
X121646800Y-107212023D01*
X121742210Y-107164317D01*
X121789915Y-107164317D01*
X121885326Y-107212023D01*
X121933031Y-107259728D01*
X121980736Y-107355138D01*
X121980736Y-107545959D01*
X122028442Y-107641370D01*
X122076147Y-107689075D01*
X122171557Y-107736780D01*
X122362378Y-107736780D01*
X122457789Y-107689075D01*
X122505494Y-107641370D01*
X122553199Y-107545959D01*
X122553199Y-107355138D01*
X122505494Y-107259728D01*
X122457789Y-107212023D01*
X122362378Y-107164317D01*
X122171557Y-107164317D01*
X122076147Y-107212023D01*
X122028442Y-107259728D01*
X121980736Y-107355138D01*
X122505494Y-106782675D02*
X122553199Y-106639560D01*
X122553199Y-106401034D01*
X122505494Y-106305623D01*
X122457789Y-106257918D01*
X122362378Y-106210213D01*
X122266968Y-106210213D01*
X122171557Y-106257918D01*
X122123852Y-106305623D01*
X122076147Y-106401034D01*
X122028442Y-106591855D01*
X121980736Y-106687265D01*
X121933031Y-106734970D01*
X121837621Y-106782675D01*
X121742210Y-106782675D01*
X121646800Y-106734970D01*
X121599095Y-106687265D01*
X121551389Y-106591855D01*
X121551389Y-106353328D01*
X121599095Y-106210213D01*
X121646800Y-105828571D02*
X121599095Y-105780865D01*
X121551389Y-105685455D01*
X121551389Y-105446929D01*
X121599095Y-105351518D01*
X121646800Y-105303813D01*
X121742210Y-105256108D01*
X121837621Y-105256108D01*
X121980736Y-105303813D01*
X122553199Y-105876276D01*
X122553199Y-105256108D01*
%TO.C,AE1*%
D13*
X126233333Y-115391666D02*
X126709523Y-115391666D01*
X126138095Y-115677380D02*
X126471428Y-114677380D01*
X126804761Y-115677380D01*
X127138095Y-115153571D02*
X127471428Y-115153571D01*
X127614285Y-115677380D02*
X127138095Y-115677380D01*
X127138095Y-114677380D01*
X127614285Y-114677380D01*
X128566666Y-115677380D02*
X127995238Y-115677380D01*
X128280952Y-115677380D02*
X128280952Y-114677380D01*
X128185714Y-114820238D01*
X128090476Y-114915476D01*
X127995238Y-114963095D01*
%TO.C,P1*%
X98636904Y-120177380D02*
X98636904Y-119177380D01*
X99017857Y-119177380D01*
X99113095Y-119225000D01*
X99160714Y-119272619D01*
X99208333Y-119367857D01*
X99208333Y-119510714D01*
X99160714Y-119605952D01*
X99113095Y-119653571D01*
X99017857Y-119701190D01*
X98636904Y-119701190D01*
X100160714Y-120177380D02*
X99589285Y-120177380D01*
X99875000Y-120177380D02*
X99875000Y-119177380D01*
X99779761Y-119320238D01*
X99684523Y-119415476D01*
X99589285Y-119463095D01*
%TO.C,P2*%
X127261904Y-105552380D02*
X127261904Y-104552380D01*
X127642857Y-104552380D01*
X127738095Y-104600000D01*
X127785714Y-104647619D01*
X127833333Y-104742857D01*
X127833333Y-104885714D01*
X127785714Y-104980952D01*
X127738095Y-105028571D01*
X127642857Y-105076190D01*
X127261904Y-105076190D01*
X128214285Y-104647619D02*
X128261904Y-104600000D01*
X128357142Y-104552380D01*
X128595238Y-104552380D01*
X128690476Y-104600000D01*
X128738095Y-104647619D01*
X128785714Y-104742857D01*
X128785714Y-104838095D01*
X128738095Y-104980952D01*
X128166666Y-105552380D01*
X128785714Y-105552380D01*
%TD*%
M02*
