%TF.GenerationSoftware,KiCad,Pcbnew,5.0.1+dfsg1-3~bpo9+1*%
%TF.CreationDate,2018-11-26T19:57:12+01:00*%
%TF.ProjectId,LoRa_PMOD,4C6F52615F504D4F442E6B696361645F,rev?*%
%TF.SameCoordinates,Original*%
%TF.FileFunction,Copper,L1,Top,Signal*%
%TF.FilePolarity,Positive*%
%FSLAX46Y46*%
G04 Gerber Fmt 4.6, Leading zero omitted, Abs format (unit mm)*
G04 Created by KiCad (PCBNEW 5.0.1+dfsg1-3~bpo9+1) date Mon 26 Nov 2018 07:57:12 PM CET*
%MOMM*%
%LPD*%
G01*
G04 APERTURE LIST*
%TA.AperFunction,SMDPad,CuDef*%
%ADD10R,1.050000X1.950000*%
%TD*%
%TA.AperFunction,ComponentPad*%
%ADD11C,2.740000*%
%TD*%
%TA.AperFunction,ComponentPad*%
%ADD12C,2.240000*%
%TD*%
%TA.AperFunction,ComponentPad*%
%ADD13R,1.727200X1.727200*%
%TD*%
%TA.AperFunction,ComponentPad*%
%ADD14O,1.727200X1.727200*%
%TD*%
%TA.AperFunction,ComponentPad*%
%ADD15R,1.350000X1.350000*%
%TD*%
%TA.AperFunction,ComponentPad*%
%ADD16C,1.350000*%
%TD*%
%TA.AperFunction,ViaPad*%
%ADD17C,0.600000*%
%TD*%
%TA.AperFunction,Conductor*%
%ADD18C,0.500000*%
%TD*%
%TA.AperFunction,Conductor*%
%ADD19C,0.250000*%
%TD*%
%TA.AperFunction,Conductor*%
%ADD20C,0.254000*%
%TD*%
G04 APERTURE END LIST*
D10*
%TO.P,U1,1*%
%TO.N,GND*%
X106020000Y-118240000D03*
%TO.P,U1,2*%
%TO.N,MISO*%
X108020000Y-118240000D03*
%TO.P,U1,3*%
%TO.N,MOSI*%
X110020000Y-118240000D03*
%TO.P,U1,4*%
%TO.N,SCK*%
X112020000Y-118240000D03*
%TO.P,U1,5*%
%TO.N,CS*%
X114020000Y-118240000D03*
%TO.P,U1,6*%
%TO.N,RESET*%
X116020000Y-118240000D03*
%TO.P,U1,7*%
%TO.N,DIO5*%
X118020000Y-118240000D03*
%TO.P,U1,8*%
%TO.N,GND*%
X120020000Y-118240000D03*
%TO.P,U1,9*%
%TO.N,ANT*%
X120020000Y-103440000D03*
%TO.P,U1,10*%
%TO.N,GND*%
X118020000Y-103440000D03*
%TO.P,U1,11*%
%TO.N,DIO3*%
X116020000Y-103440000D03*
%TO.P,U1,12*%
%TO.N,DIO4*%
X114020000Y-103440000D03*
%TO.P,U1,13*%
%TO.N,VCC*%
X112020000Y-103440000D03*
%TO.P,U1,14*%
%TO.N,DIO0*%
X110020000Y-103440000D03*
%TO.P,U1,15*%
%TO.N,DIO1*%
X108020000Y-103440000D03*
%TO.P,U1,16*%
%TO.N,DIO2*%
X106020000Y-103440000D03*
%TD*%
D11*
%TO.P,AE1,2*%
%TO.N,GND*%
X124960000Y-113040000D03*
X130040000Y-113040000D03*
X130040000Y-107960000D03*
X124960000Y-107960000D03*
D12*
%TO.P,AE1,1*%
%TO.N,ANT*%
X127500000Y-110500000D03*
%TD*%
D13*
%TO.P,P1,1*%
%TO.N,VCC*%
X100665000Y-117145000D03*
D14*
%TO.P,P1,2*%
X98125000Y-117145000D03*
%TO.P,P1,3*%
%TO.N,GND*%
X100665000Y-114605000D03*
%TO.P,P1,4*%
X98125000Y-114605000D03*
%TO.P,P1,5*%
%TO.N,SCK*%
X100665000Y-112065000D03*
%TO.P,P1,6*%
%TO.N,DIO2*%
X98125000Y-112065000D03*
%TO.P,P1,7*%
%TO.N,MISO*%
X100665000Y-109525000D03*
%TO.P,P1,8*%
%TO.N,DIO1*%
X98125000Y-109525000D03*
%TO.P,P1,9*%
%TO.N,MOSI*%
X100665000Y-106985000D03*
%TO.P,P1,10*%
%TO.N,RESET*%
X98125000Y-106985000D03*
%TO.P,P1,11*%
%TO.N,CS*%
X100665000Y-104445000D03*
%TO.P,P1,12*%
%TO.N,DIO0*%
X98125000Y-104445000D03*
%TD*%
D15*
%TO.P,P2,1*%
%TO.N,DIO5*%
X130000000Y-103000000D03*
D16*
%TO.P,P2,2*%
%TO.N,DIO4*%
X128000000Y-103000000D03*
%TO.P,P2,3*%
%TO.N,DIO3*%
X126000000Y-103000000D03*
%TD*%
D17*
%TO.N,VCC*%
X111975000Y-113450000D03*
X111970010Y-108000000D03*
%TO.N,GND*%
X115000000Y-108000000D03*
%TO.N,SCK*%
X110900000Y-116075000D03*
X112250000Y-114825000D03*
X110875000Y-113225000D03*
%TO.N,RESET*%
X113075000Y-111950000D03*
%TO.N,DIO1*%
X108000000Y-102000000D03*
%TO.N,DIO5*%
X117975000Y-115650000D03*
%TO.N,DIO3*%
X116000000Y-105000000D03*
%TD*%
D18*
%TO.N,VCC*%
X112020000Y-103440000D02*
X112020000Y-113405000D01*
X112020000Y-113405000D02*
X111975000Y-113450000D01*
X112020000Y-102990000D02*
X112020000Y-103440000D01*
X112020000Y-104216400D02*
X112020000Y-103440000D01*
X112000000Y-103460000D02*
X112020000Y-103440000D01*
X111580000Y-103000000D02*
X112020000Y-103440000D01*
X112020000Y-103980000D02*
X112020000Y-103440000D01*
%TO.N,GND*%
X106020000Y-118240000D02*
X106020000Y-119715000D01*
X106020000Y-119715000D02*
X106555000Y-120250000D01*
X106555000Y-120250000D02*
X119500000Y-120250000D01*
X119500000Y-120250000D02*
X120020000Y-119730000D01*
X120020000Y-119730000D02*
X120020000Y-118240000D01*
X120720001Y-106590001D02*
X120580000Y-106450000D01*
X120580000Y-106450000D02*
X118020000Y-103890000D01*
X112720010Y-106404990D02*
X112765020Y-106450000D01*
X112720010Y-109285008D02*
X112720010Y-106404990D01*
X120020000Y-118240000D02*
X120020000Y-116584998D01*
X120020000Y-116584998D02*
X112720010Y-109285008D01*
X124960000Y-107960000D02*
X123590001Y-106590001D01*
X123590001Y-106590001D02*
X120720001Y-106590001D01*
X118020000Y-103890000D02*
X118020000Y-103440000D01*
X120020000Y-118240000D02*
X120020000Y-118690000D01*
X106020000Y-118690000D02*
X106020000Y-118240000D01*
X100665000Y-114605000D02*
X98125000Y-114605000D01*
X106020000Y-118240000D02*
X104300000Y-118240000D01*
X104300000Y-118240000D02*
X100665000Y-114605000D01*
X120020000Y-118240000D02*
X120020000Y-117790000D01*
X124770000Y-113040000D02*
X124960000Y-113040000D01*
X124960000Y-107960000D02*
X124960000Y-113040000D01*
X106020000Y-118240000D02*
X106020000Y-117790000D01*
X130040000Y-113040000D02*
X130040000Y-111102528D01*
X130040000Y-111102528D02*
X130040000Y-107960000D01*
X124960000Y-113040000D02*
X130040000Y-113040000D01*
X117650000Y-103070000D02*
X118020000Y-103440000D01*
X116550000Y-106450000D02*
X117000000Y-106450000D01*
X115000000Y-108000000D02*
X116550000Y-106450000D01*
X112765020Y-106450000D02*
X117000000Y-106450000D01*
X117000000Y-106450000D02*
X120580000Y-106450000D01*
%TO.N,CS*%
X114020000Y-118240000D02*
X114020000Y-117790000D01*
X114020000Y-117790000D02*
X100675000Y-104445000D01*
X100675000Y-104445000D02*
X100665000Y-104445000D01*
X114020000Y-118240000D02*
X114020000Y-117700000D01*
%TO.N,MOSI*%
X110020000Y-118240000D02*
X110020000Y-116340000D01*
X110020000Y-116340000D02*
X100665000Y-106985000D01*
X110000000Y-118220000D02*
X110020000Y-118240000D01*
X110020000Y-118240000D02*
X110020000Y-117790000D01*
D19*
X110020000Y-118240000D02*
X110020000Y-118690000D01*
D18*
%TO.N,MISO*%
X108020000Y-118240000D02*
X108020000Y-116765000D01*
X108020000Y-116765000D02*
X100780000Y-109525000D01*
X100780000Y-109525000D02*
X100665000Y-109525000D01*
X108020000Y-118240000D02*
X108020000Y-118550002D01*
X108020000Y-118240000D02*
X108020000Y-117790000D01*
X108020000Y-118240000D02*
X108020000Y-118690000D01*
%TO.N,SCK*%
X110900000Y-116075000D02*
X112020000Y-117195000D01*
X112020000Y-117195000D02*
X112020000Y-118240000D01*
X110875000Y-113225000D02*
X110875000Y-113450000D01*
X110875000Y-113450000D02*
X112250000Y-114825000D01*
X112020000Y-118240000D02*
X112020000Y-117790000D01*
%TO.N,DIO0*%
X98100000Y-104420000D02*
X98125000Y-104445000D01*
X110020000Y-103440000D02*
X110020000Y-102990000D01*
D19*
X110020000Y-103440000D02*
X110020000Y-103890000D01*
X110020000Y-103890000D02*
X110000000Y-103910000D01*
D18*
X101164130Y-103000000D02*
X109000000Y-110835870D01*
X98125000Y-104445000D02*
X99570000Y-103000000D01*
X99570000Y-103000000D02*
X101164130Y-103000000D01*
X110020000Y-109815870D02*
X110020000Y-103440000D01*
X109000000Y-110835870D02*
X110020000Y-109815870D01*
%TO.N,RESET*%
X116020000Y-118240000D02*
X116020000Y-114895000D01*
X116020000Y-114895000D02*
X113075000Y-111950000D01*
D19*
X116020000Y-117790000D02*
X116020000Y-118240000D01*
D18*
%TO.N,DIO1*%
X107867831Y-103592169D02*
X108020000Y-103440000D01*
X108020000Y-103440000D02*
X108020000Y-102990000D01*
D19*
X108020000Y-103440000D02*
X108020000Y-103890000D01*
X108020000Y-103890000D02*
X108000000Y-103910000D01*
D18*
X108000000Y-103420000D02*
X108020000Y-103440000D01*
X108000000Y-102000000D02*
X108000000Y-103420000D01*
D19*
%TO.N,DIO2*%
X106020000Y-103440000D02*
X106020000Y-103890000D01*
D18*
X97261401Y-111201401D02*
X98125000Y-112065000D01*
X96811399Y-110751399D02*
X97261401Y-111201401D01*
X96811399Y-103814471D02*
X96811399Y-110751399D01*
X98325880Y-102299990D02*
X96811399Y-103814471D01*
X103854990Y-102299990D02*
X98325880Y-102299990D01*
X104995000Y-103440000D02*
X103854990Y-102299990D01*
X106020000Y-103440000D02*
X104995000Y-103440000D01*
%TO.N,ANT*%
X120020000Y-103440000D02*
X123133602Y-103440000D01*
X123133602Y-103440000D02*
X127500000Y-107806398D01*
X127500000Y-107806398D02*
X127500000Y-108916081D01*
X127500000Y-108916081D02*
X127500000Y-110500000D01*
X120190000Y-103270000D02*
X120020000Y-103440000D01*
%TO.N,DIO5*%
X117975000Y-115650000D02*
X117975000Y-118195000D01*
X117975000Y-118195000D02*
X118020000Y-118240000D01*
X118000000Y-118220000D02*
X118020000Y-118240000D01*
X118020000Y-117790000D02*
X118020000Y-118240000D01*
%TO.N,DIO4*%
X114020000Y-104376000D02*
X114020000Y-103440000D01*
X114125001Y-101874999D02*
X114000000Y-102000000D01*
X128000000Y-103000000D02*
X126874999Y-101874999D01*
X126874999Y-101874999D02*
X114125001Y-101874999D01*
X114020000Y-101965000D02*
X114020000Y-103440000D01*
X114110001Y-101874999D02*
X114020000Y-101965000D01*
X114125001Y-101874999D02*
X114110001Y-101874999D01*
%TO.N,DIO3*%
X116020000Y-103890000D02*
X116020000Y-103440000D01*
X116000000Y-103460000D02*
X116020000Y-103440000D01*
X116000000Y-105000000D02*
X116000000Y-103460000D01*
%TD*%
D20*
%TO.N,GND*%
G36*
X96247246Y-103127046D02*
X96173350Y-103176422D01*
X95977747Y-103469162D01*
X95926399Y-103727307D01*
X95926399Y-103727310D01*
X95909062Y-103814471D01*
X95926399Y-103901632D01*
X95926400Y-110664234D01*
X95909062Y-110751399D01*
X95977747Y-111096708D01*
X96123975Y-111315553D01*
X96123977Y-111315555D01*
X96173351Y-111389448D01*
X96247244Y-111438822D01*
X96642896Y-111834474D01*
X96597041Y-112065000D01*
X96713350Y-112649725D01*
X97044570Y-113145430D01*
X97346021Y-113346854D01*
X97236510Y-113398179D01*
X96842312Y-113830053D01*
X96670042Y-114245974D01*
X96791183Y-114478000D01*
X97998000Y-114478000D01*
X97998000Y-114458000D01*
X98252000Y-114458000D01*
X98252000Y-114478000D01*
X100538000Y-114478000D01*
X100538000Y-114458000D01*
X100792000Y-114458000D01*
X100792000Y-114478000D01*
X101998817Y-114478000D01*
X102119958Y-114245974D01*
X101947688Y-113830053D01*
X101553490Y-113398179D01*
X101443979Y-113346854D01*
X101745430Y-113145430D01*
X102076650Y-112649725D01*
X102172297Y-112168875D01*
X106633421Y-116630000D01*
X106305750Y-116630000D01*
X106147000Y-116788750D01*
X106147000Y-118113000D01*
X106167000Y-118113000D01*
X106167000Y-118367000D01*
X106147000Y-118367000D01*
X106147000Y-119691250D01*
X106305750Y-119850000D01*
X106671310Y-119850000D01*
X106904699Y-119753327D01*
X107016373Y-119641653D01*
X107037191Y-119672809D01*
X107247235Y-119813157D01*
X107495000Y-119862440D01*
X108545000Y-119862440D01*
X108792765Y-119813157D01*
X109002809Y-119672809D01*
X109020000Y-119647081D01*
X109037191Y-119672809D01*
X109247235Y-119813157D01*
X109495000Y-119862440D01*
X110545000Y-119862440D01*
X110792765Y-119813157D01*
X111002809Y-119672809D01*
X111020000Y-119647081D01*
X111037191Y-119672809D01*
X111247235Y-119813157D01*
X111495000Y-119862440D01*
X112545000Y-119862440D01*
X112792765Y-119813157D01*
X113002809Y-119672809D01*
X113020000Y-119647081D01*
X113037191Y-119672809D01*
X113247235Y-119813157D01*
X113495000Y-119862440D01*
X114545000Y-119862440D01*
X114792765Y-119813157D01*
X115002809Y-119672809D01*
X115020000Y-119647081D01*
X115037191Y-119672809D01*
X115247235Y-119813157D01*
X115495000Y-119862440D01*
X116545000Y-119862440D01*
X116792765Y-119813157D01*
X117002809Y-119672809D01*
X117020000Y-119647081D01*
X117037191Y-119672809D01*
X117247235Y-119813157D01*
X117495000Y-119862440D01*
X118545000Y-119862440D01*
X118792765Y-119813157D01*
X119002809Y-119672809D01*
X119023627Y-119641653D01*
X119135301Y-119753327D01*
X119368690Y-119850000D01*
X119734250Y-119850000D01*
X119893000Y-119691250D01*
X119893000Y-118367000D01*
X120147000Y-118367000D01*
X120147000Y-119691250D01*
X120305750Y-119850000D01*
X120671310Y-119850000D01*
X120904699Y-119753327D01*
X121083327Y-119574698D01*
X121180000Y-119341309D01*
X121180000Y-118525750D01*
X121021250Y-118367000D01*
X120147000Y-118367000D01*
X119893000Y-118367000D01*
X119873000Y-118367000D01*
X119873000Y-118113000D01*
X119893000Y-118113000D01*
X119893000Y-116788750D01*
X120147000Y-116788750D01*
X120147000Y-118113000D01*
X121021250Y-118113000D01*
X121180000Y-117954250D01*
X121180000Y-117138691D01*
X121083327Y-116905302D01*
X120904699Y-116726673D01*
X120671310Y-116630000D01*
X120305750Y-116630000D01*
X120147000Y-116788750D01*
X119893000Y-116788750D01*
X119734250Y-116630000D01*
X119368690Y-116630000D01*
X119135301Y-116726673D01*
X119023627Y-116838347D01*
X119002809Y-116807191D01*
X118860000Y-116711768D01*
X118860000Y-115956694D01*
X118910000Y-115835983D01*
X118910000Y-115464017D01*
X118767655Y-115120365D01*
X118504635Y-114857345D01*
X118160983Y-114715000D01*
X117789017Y-114715000D01*
X117445365Y-114857345D01*
X117182345Y-115120365D01*
X117040000Y-115464017D01*
X117040000Y-115835983D01*
X117090000Y-115956694D01*
X117090000Y-116771905D01*
X117037191Y-116807191D01*
X117020000Y-116832919D01*
X117002809Y-116807191D01*
X116905000Y-116741837D01*
X116905000Y-114982161D01*
X116922337Y-114895000D01*
X116905000Y-114807839D01*
X116905000Y-114807835D01*
X116853652Y-114549690D01*
X116805750Y-114478000D01*
X116793754Y-114460046D01*
X123719559Y-114460046D01*
X123863469Y-114765312D01*
X124607186Y-115053605D01*
X125404615Y-115035344D01*
X126056531Y-114765312D01*
X126200441Y-114460046D01*
X124960000Y-113219605D01*
X123719559Y-114460046D01*
X116793754Y-114460046D01*
X116707424Y-114330845D01*
X116707423Y-114330844D01*
X116658049Y-114256951D01*
X116584156Y-114207577D01*
X115063765Y-112687186D01*
X122946395Y-112687186D01*
X122964656Y-113484615D01*
X123234688Y-114136531D01*
X123539954Y-114280441D01*
X124780395Y-113040000D01*
X123539954Y-111799559D01*
X123234688Y-111943469D01*
X122946395Y-112687186D01*
X115063765Y-112687186D01*
X113917656Y-111541078D01*
X113867655Y-111420365D01*
X113604635Y-111157345D01*
X113260983Y-111015000D01*
X112905000Y-111015000D01*
X112905000Y-108186007D01*
X112905010Y-108185983D01*
X112905010Y-107814017D01*
X112905000Y-107813993D01*
X112905000Y-107607186D01*
X122946395Y-107607186D01*
X122964656Y-108404615D01*
X123234688Y-109056531D01*
X123539954Y-109200441D01*
X124780395Y-107960000D01*
X123539954Y-106719559D01*
X123234688Y-106863469D01*
X122946395Y-107607186D01*
X112905000Y-107607186D01*
X112905000Y-104938163D01*
X113002809Y-104872809D01*
X113020000Y-104847081D01*
X113037191Y-104872809D01*
X113247235Y-105013157D01*
X113437152Y-105050933D01*
X113674690Y-105209652D01*
X114020000Y-105278338D01*
X114365309Y-105209652D01*
X114602847Y-105050934D01*
X114792765Y-105013157D01*
X115002809Y-104872809D01*
X115020000Y-104847081D01*
X115037191Y-104872809D01*
X115065000Y-104891391D01*
X115065000Y-105185983D01*
X115207345Y-105529635D01*
X115470365Y-105792655D01*
X115814017Y-105935000D01*
X116185983Y-105935000D01*
X116529635Y-105792655D01*
X116792655Y-105529635D01*
X116935000Y-105185983D01*
X116935000Y-104918118D01*
X117002809Y-104872809D01*
X117023627Y-104841653D01*
X117135301Y-104953327D01*
X117368690Y-105050000D01*
X117734250Y-105050000D01*
X117893000Y-104891250D01*
X117893000Y-103567000D01*
X117873000Y-103567000D01*
X117873000Y-103313000D01*
X117893000Y-103313000D01*
X117893000Y-103293000D01*
X118147000Y-103293000D01*
X118147000Y-103313000D01*
X118167000Y-103313000D01*
X118167000Y-103567000D01*
X118147000Y-103567000D01*
X118147000Y-104891250D01*
X118305750Y-105050000D01*
X118671310Y-105050000D01*
X118904699Y-104953327D01*
X119016373Y-104841653D01*
X119037191Y-104872809D01*
X119247235Y-105013157D01*
X119495000Y-105062440D01*
X120545000Y-105062440D01*
X120792765Y-105013157D01*
X121002809Y-104872809D01*
X121143157Y-104662765D01*
X121192440Y-104415000D01*
X121192440Y-104325000D01*
X122767024Y-104325000D01*
X124438519Y-105996495D01*
X123863469Y-106234688D01*
X123719559Y-106539954D01*
X124960000Y-107780395D01*
X124974143Y-107766253D01*
X125153748Y-107945858D01*
X125139605Y-107960000D01*
X125153748Y-107974143D01*
X124974143Y-108153748D01*
X124960000Y-108139605D01*
X123719559Y-109380046D01*
X123863469Y-109685312D01*
X124607186Y-109973605D01*
X125404615Y-109955344D01*
X125913279Y-109744649D01*
X125745000Y-110150909D01*
X125745000Y-110849091D01*
X125915157Y-111259886D01*
X125312814Y-111026395D01*
X124515385Y-111044656D01*
X123863469Y-111314688D01*
X123719559Y-111619954D01*
X124960000Y-112860395D01*
X124974143Y-112846253D01*
X125153748Y-113025858D01*
X125139605Y-113040000D01*
X126380046Y-114280441D01*
X126685312Y-114136531D01*
X126973605Y-113392814D01*
X126955344Y-112595385D01*
X126744649Y-112086721D01*
X127150909Y-112255000D01*
X127849091Y-112255000D01*
X128259886Y-112084843D01*
X128026395Y-112687186D01*
X128044656Y-113484615D01*
X128314688Y-114136531D01*
X128619954Y-114280441D01*
X129860395Y-113040000D01*
X129846253Y-113025858D01*
X130025858Y-112846253D01*
X130040000Y-112860395D01*
X130054143Y-112846253D01*
X130233748Y-113025858D01*
X130219605Y-113040000D01*
X130233748Y-113054143D01*
X130054143Y-113233748D01*
X130040000Y-113219605D01*
X128799559Y-114460046D01*
X128943469Y-114765312D01*
X129687186Y-115053605D01*
X130484615Y-115035344D01*
X131136531Y-114765312D01*
X131280440Y-114460048D01*
X131290001Y-114469609D01*
X131290001Y-120290000D01*
X94613558Y-120290000D01*
X94629283Y-117145000D01*
X96597041Y-117145000D01*
X96713350Y-117729725D01*
X97044570Y-118225430D01*
X97540275Y-118556650D01*
X97977402Y-118643600D01*
X98272598Y-118643600D01*
X98709725Y-118556650D01*
X99198068Y-118230349D01*
X99203243Y-118256365D01*
X99343591Y-118466409D01*
X99553635Y-118606757D01*
X99801400Y-118656040D01*
X101528600Y-118656040D01*
X101776365Y-118606757D01*
X101897599Y-118525750D01*
X104860000Y-118525750D01*
X104860000Y-119341309D01*
X104956673Y-119574698D01*
X105135301Y-119753327D01*
X105368690Y-119850000D01*
X105734250Y-119850000D01*
X105893000Y-119691250D01*
X105893000Y-118367000D01*
X105018750Y-118367000D01*
X104860000Y-118525750D01*
X101897599Y-118525750D01*
X101986409Y-118466409D01*
X102126757Y-118256365D01*
X102176040Y-118008600D01*
X102176040Y-117138691D01*
X104860000Y-117138691D01*
X104860000Y-117954250D01*
X105018750Y-118113000D01*
X105893000Y-118113000D01*
X105893000Y-116788750D01*
X105734250Y-116630000D01*
X105368690Y-116630000D01*
X105135301Y-116726673D01*
X104956673Y-116905302D01*
X104860000Y-117138691D01*
X102176040Y-117138691D01*
X102176040Y-116281400D01*
X102126757Y-116033635D01*
X101986409Y-115823591D01*
X101776365Y-115683243D01*
X101687064Y-115665480D01*
X101947688Y-115379947D01*
X102119958Y-114964026D01*
X101998817Y-114732000D01*
X100792000Y-114732000D01*
X100792000Y-114752000D01*
X100538000Y-114752000D01*
X100538000Y-114732000D01*
X98252000Y-114732000D01*
X98252000Y-114752000D01*
X97998000Y-114752000D01*
X97998000Y-114732000D01*
X96791183Y-114732000D01*
X96670042Y-114964026D01*
X96842312Y-115379947D01*
X97236510Y-115811821D01*
X97346021Y-115863146D01*
X97044570Y-116064570D01*
X96713350Y-116560275D01*
X96597041Y-117145000D01*
X94629283Y-117145000D01*
X94705969Y-101807887D01*
X97573932Y-101800360D01*
X96247246Y-103127046D01*
X96247246Y-103127046D01*
G37*
X96247246Y-103127046D02*
X96173350Y-103176422D01*
X95977747Y-103469162D01*
X95926399Y-103727307D01*
X95926399Y-103727310D01*
X95909062Y-103814471D01*
X95926399Y-103901632D01*
X95926400Y-110664234D01*
X95909062Y-110751399D01*
X95977747Y-111096708D01*
X96123975Y-111315553D01*
X96123977Y-111315555D01*
X96173351Y-111389448D01*
X96247244Y-111438822D01*
X96642896Y-111834474D01*
X96597041Y-112065000D01*
X96713350Y-112649725D01*
X97044570Y-113145430D01*
X97346021Y-113346854D01*
X97236510Y-113398179D01*
X96842312Y-113830053D01*
X96670042Y-114245974D01*
X96791183Y-114478000D01*
X97998000Y-114478000D01*
X97998000Y-114458000D01*
X98252000Y-114458000D01*
X98252000Y-114478000D01*
X100538000Y-114478000D01*
X100538000Y-114458000D01*
X100792000Y-114458000D01*
X100792000Y-114478000D01*
X101998817Y-114478000D01*
X102119958Y-114245974D01*
X101947688Y-113830053D01*
X101553490Y-113398179D01*
X101443979Y-113346854D01*
X101745430Y-113145430D01*
X102076650Y-112649725D01*
X102172297Y-112168875D01*
X106633421Y-116630000D01*
X106305750Y-116630000D01*
X106147000Y-116788750D01*
X106147000Y-118113000D01*
X106167000Y-118113000D01*
X106167000Y-118367000D01*
X106147000Y-118367000D01*
X106147000Y-119691250D01*
X106305750Y-119850000D01*
X106671310Y-119850000D01*
X106904699Y-119753327D01*
X107016373Y-119641653D01*
X107037191Y-119672809D01*
X107247235Y-119813157D01*
X107495000Y-119862440D01*
X108545000Y-119862440D01*
X108792765Y-119813157D01*
X109002809Y-119672809D01*
X109020000Y-119647081D01*
X109037191Y-119672809D01*
X109247235Y-119813157D01*
X109495000Y-119862440D01*
X110545000Y-119862440D01*
X110792765Y-119813157D01*
X111002809Y-119672809D01*
X111020000Y-119647081D01*
X111037191Y-119672809D01*
X111247235Y-119813157D01*
X111495000Y-119862440D01*
X112545000Y-119862440D01*
X112792765Y-119813157D01*
X113002809Y-119672809D01*
X113020000Y-119647081D01*
X113037191Y-119672809D01*
X113247235Y-119813157D01*
X113495000Y-119862440D01*
X114545000Y-119862440D01*
X114792765Y-119813157D01*
X115002809Y-119672809D01*
X115020000Y-119647081D01*
X115037191Y-119672809D01*
X115247235Y-119813157D01*
X115495000Y-119862440D01*
X116545000Y-119862440D01*
X116792765Y-119813157D01*
X117002809Y-119672809D01*
X117020000Y-119647081D01*
X117037191Y-119672809D01*
X117247235Y-119813157D01*
X117495000Y-119862440D01*
X118545000Y-119862440D01*
X118792765Y-119813157D01*
X119002809Y-119672809D01*
X119023627Y-119641653D01*
X119135301Y-119753327D01*
X119368690Y-119850000D01*
X119734250Y-119850000D01*
X119893000Y-119691250D01*
X119893000Y-118367000D01*
X120147000Y-118367000D01*
X120147000Y-119691250D01*
X120305750Y-119850000D01*
X120671310Y-119850000D01*
X120904699Y-119753327D01*
X121083327Y-119574698D01*
X121180000Y-119341309D01*
X121180000Y-118525750D01*
X121021250Y-118367000D01*
X120147000Y-118367000D01*
X119893000Y-118367000D01*
X119873000Y-118367000D01*
X119873000Y-118113000D01*
X119893000Y-118113000D01*
X119893000Y-116788750D01*
X120147000Y-116788750D01*
X120147000Y-118113000D01*
X121021250Y-118113000D01*
X121180000Y-117954250D01*
X121180000Y-117138691D01*
X121083327Y-116905302D01*
X120904699Y-116726673D01*
X120671310Y-116630000D01*
X120305750Y-116630000D01*
X120147000Y-116788750D01*
X119893000Y-116788750D01*
X119734250Y-116630000D01*
X119368690Y-116630000D01*
X119135301Y-116726673D01*
X119023627Y-116838347D01*
X119002809Y-116807191D01*
X118860000Y-116711768D01*
X118860000Y-115956694D01*
X118910000Y-115835983D01*
X118910000Y-115464017D01*
X118767655Y-115120365D01*
X118504635Y-114857345D01*
X118160983Y-114715000D01*
X117789017Y-114715000D01*
X117445365Y-114857345D01*
X117182345Y-115120365D01*
X117040000Y-115464017D01*
X117040000Y-115835983D01*
X117090000Y-115956694D01*
X117090000Y-116771905D01*
X117037191Y-116807191D01*
X117020000Y-116832919D01*
X117002809Y-116807191D01*
X116905000Y-116741837D01*
X116905000Y-114982161D01*
X116922337Y-114895000D01*
X116905000Y-114807839D01*
X116905000Y-114807835D01*
X116853652Y-114549690D01*
X116805750Y-114478000D01*
X116793754Y-114460046D01*
X123719559Y-114460046D01*
X123863469Y-114765312D01*
X124607186Y-115053605D01*
X125404615Y-115035344D01*
X126056531Y-114765312D01*
X126200441Y-114460046D01*
X124960000Y-113219605D01*
X123719559Y-114460046D01*
X116793754Y-114460046D01*
X116707424Y-114330845D01*
X116707423Y-114330844D01*
X116658049Y-114256951D01*
X116584156Y-114207577D01*
X115063765Y-112687186D01*
X122946395Y-112687186D01*
X122964656Y-113484615D01*
X123234688Y-114136531D01*
X123539954Y-114280441D01*
X124780395Y-113040000D01*
X123539954Y-111799559D01*
X123234688Y-111943469D01*
X122946395Y-112687186D01*
X115063765Y-112687186D01*
X113917656Y-111541078D01*
X113867655Y-111420365D01*
X113604635Y-111157345D01*
X113260983Y-111015000D01*
X112905000Y-111015000D01*
X112905000Y-108186007D01*
X112905010Y-108185983D01*
X112905010Y-107814017D01*
X112905000Y-107813993D01*
X112905000Y-107607186D01*
X122946395Y-107607186D01*
X122964656Y-108404615D01*
X123234688Y-109056531D01*
X123539954Y-109200441D01*
X124780395Y-107960000D01*
X123539954Y-106719559D01*
X123234688Y-106863469D01*
X122946395Y-107607186D01*
X112905000Y-107607186D01*
X112905000Y-104938163D01*
X113002809Y-104872809D01*
X113020000Y-104847081D01*
X113037191Y-104872809D01*
X113247235Y-105013157D01*
X113437152Y-105050933D01*
X113674690Y-105209652D01*
X114020000Y-105278338D01*
X114365309Y-105209652D01*
X114602847Y-105050934D01*
X114792765Y-105013157D01*
X115002809Y-104872809D01*
X115020000Y-104847081D01*
X115037191Y-104872809D01*
X115065000Y-104891391D01*
X115065000Y-105185983D01*
X115207345Y-105529635D01*
X115470365Y-105792655D01*
X115814017Y-105935000D01*
X116185983Y-105935000D01*
X116529635Y-105792655D01*
X116792655Y-105529635D01*
X116935000Y-105185983D01*
X116935000Y-104918118D01*
X117002809Y-104872809D01*
X117023627Y-104841653D01*
X117135301Y-104953327D01*
X117368690Y-105050000D01*
X117734250Y-105050000D01*
X117893000Y-104891250D01*
X117893000Y-103567000D01*
X117873000Y-103567000D01*
X117873000Y-103313000D01*
X117893000Y-103313000D01*
X117893000Y-103293000D01*
X118147000Y-103293000D01*
X118147000Y-103313000D01*
X118167000Y-103313000D01*
X118167000Y-103567000D01*
X118147000Y-103567000D01*
X118147000Y-104891250D01*
X118305750Y-105050000D01*
X118671310Y-105050000D01*
X118904699Y-104953327D01*
X119016373Y-104841653D01*
X119037191Y-104872809D01*
X119247235Y-105013157D01*
X119495000Y-105062440D01*
X120545000Y-105062440D01*
X120792765Y-105013157D01*
X121002809Y-104872809D01*
X121143157Y-104662765D01*
X121192440Y-104415000D01*
X121192440Y-104325000D01*
X122767024Y-104325000D01*
X124438519Y-105996495D01*
X123863469Y-106234688D01*
X123719559Y-106539954D01*
X124960000Y-107780395D01*
X124974143Y-107766253D01*
X125153748Y-107945858D01*
X125139605Y-107960000D01*
X125153748Y-107974143D01*
X124974143Y-108153748D01*
X124960000Y-108139605D01*
X123719559Y-109380046D01*
X123863469Y-109685312D01*
X124607186Y-109973605D01*
X125404615Y-109955344D01*
X125913279Y-109744649D01*
X125745000Y-110150909D01*
X125745000Y-110849091D01*
X125915157Y-111259886D01*
X125312814Y-111026395D01*
X124515385Y-111044656D01*
X123863469Y-111314688D01*
X123719559Y-111619954D01*
X124960000Y-112860395D01*
X124974143Y-112846253D01*
X125153748Y-113025858D01*
X125139605Y-113040000D01*
X126380046Y-114280441D01*
X126685312Y-114136531D01*
X126973605Y-113392814D01*
X126955344Y-112595385D01*
X126744649Y-112086721D01*
X127150909Y-112255000D01*
X127849091Y-112255000D01*
X128259886Y-112084843D01*
X128026395Y-112687186D01*
X128044656Y-113484615D01*
X128314688Y-114136531D01*
X128619954Y-114280441D01*
X129860395Y-113040000D01*
X129846253Y-113025858D01*
X130025858Y-112846253D01*
X130040000Y-112860395D01*
X130054143Y-112846253D01*
X130233748Y-113025858D01*
X130219605Y-113040000D01*
X130233748Y-113054143D01*
X130054143Y-113233748D01*
X130040000Y-113219605D01*
X128799559Y-114460046D01*
X128943469Y-114765312D01*
X129687186Y-115053605D01*
X130484615Y-115035344D01*
X131136531Y-114765312D01*
X131280440Y-114460048D01*
X131290001Y-114469609D01*
X131290001Y-120290000D01*
X94613558Y-120290000D01*
X94629283Y-117145000D01*
X96597041Y-117145000D01*
X96713350Y-117729725D01*
X97044570Y-118225430D01*
X97540275Y-118556650D01*
X97977402Y-118643600D01*
X98272598Y-118643600D01*
X98709725Y-118556650D01*
X99198068Y-118230349D01*
X99203243Y-118256365D01*
X99343591Y-118466409D01*
X99553635Y-118606757D01*
X99801400Y-118656040D01*
X101528600Y-118656040D01*
X101776365Y-118606757D01*
X101897599Y-118525750D01*
X104860000Y-118525750D01*
X104860000Y-119341309D01*
X104956673Y-119574698D01*
X105135301Y-119753327D01*
X105368690Y-119850000D01*
X105734250Y-119850000D01*
X105893000Y-119691250D01*
X105893000Y-118367000D01*
X105018750Y-118367000D01*
X104860000Y-118525750D01*
X101897599Y-118525750D01*
X101986409Y-118466409D01*
X102126757Y-118256365D01*
X102176040Y-118008600D01*
X102176040Y-117138691D01*
X104860000Y-117138691D01*
X104860000Y-117954250D01*
X105018750Y-118113000D01*
X105893000Y-118113000D01*
X105893000Y-116788750D01*
X105734250Y-116630000D01*
X105368690Y-116630000D01*
X105135301Y-116726673D01*
X104956673Y-116905302D01*
X104860000Y-117138691D01*
X102176040Y-117138691D01*
X102176040Y-116281400D01*
X102126757Y-116033635D01*
X101986409Y-115823591D01*
X101776365Y-115683243D01*
X101687064Y-115665480D01*
X101947688Y-115379947D01*
X102119958Y-114964026D01*
X101998817Y-114732000D01*
X100792000Y-114732000D01*
X100792000Y-114752000D01*
X100538000Y-114752000D01*
X100538000Y-114732000D01*
X98252000Y-114732000D01*
X98252000Y-114752000D01*
X97998000Y-114752000D01*
X97998000Y-114732000D01*
X96791183Y-114732000D01*
X96670042Y-114964026D01*
X96842312Y-115379947D01*
X97236510Y-115811821D01*
X97346021Y-115863146D01*
X97044570Y-116064570D01*
X96713350Y-116560275D01*
X96597041Y-117145000D01*
X94629283Y-117145000D01*
X94705969Y-101807887D01*
X97573932Y-101800360D01*
X96247246Y-103127046D01*
G36*
X131290000Y-109389608D02*
X131290001Y-111610391D01*
X131280440Y-111619952D01*
X131136531Y-111314688D01*
X130392814Y-111026395D01*
X129595385Y-111044656D01*
X129086721Y-111255351D01*
X129255000Y-110849091D01*
X129255000Y-110150909D01*
X129084843Y-109740114D01*
X129687186Y-109973605D01*
X130484615Y-109955344D01*
X131136531Y-109685312D01*
X131280440Y-109380048D01*
X131290000Y-109389608D01*
X131290000Y-109389608D01*
G37*
X131290000Y-109389608D02*
X131290001Y-111610391D01*
X131280440Y-111619952D01*
X131136531Y-111314688D01*
X130392814Y-111026395D01*
X129595385Y-111044656D01*
X129086721Y-111255351D01*
X129255000Y-110849091D01*
X129255000Y-110150909D01*
X129084843Y-109740114D01*
X129687186Y-109973605D01*
X130484615Y-109955344D01*
X131136531Y-109685312D01*
X131280440Y-109380048D01*
X131290000Y-109389608D01*
G36*
X124690000Y-103260575D02*
X124889436Y-103742055D01*
X125257945Y-104110564D01*
X125739425Y-104310000D01*
X126260575Y-104310000D01*
X126742055Y-104110564D01*
X127000000Y-103852619D01*
X127257945Y-104110564D01*
X127739425Y-104310000D01*
X128260575Y-104310000D01*
X128742055Y-104110564D01*
X128808158Y-104044461D01*
X128867191Y-104132809D01*
X129077235Y-104273157D01*
X129325000Y-104322440D01*
X130675000Y-104322440D01*
X130922765Y-104273157D01*
X131132809Y-104132809D01*
X131273157Y-103922765D01*
X131290000Y-103838088D01*
X131290000Y-106530392D01*
X131280440Y-106539952D01*
X131136531Y-106234688D01*
X130392814Y-105946395D01*
X129595385Y-105964656D01*
X128943469Y-106234688D01*
X128799559Y-106539954D01*
X130040000Y-107780395D01*
X130054143Y-107766253D01*
X130233748Y-107945858D01*
X130219605Y-107960000D01*
X130233748Y-107974143D01*
X130054143Y-108153748D01*
X130040000Y-108139605D01*
X130025858Y-108153748D01*
X129846253Y-107974143D01*
X129860395Y-107960000D01*
X128619954Y-106719559D01*
X128314688Y-106863469D01*
X128175043Y-107223714D01*
X128138049Y-107168349D01*
X128064156Y-107118975D01*
X123821026Y-102875846D01*
X123771651Y-102801951D01*
X123708866Y-102759999D01*
X124690000Y-102759999D01*
X124690000Y-103260575D01*
X124690000Y-103260575D01*
G37*
X124690000Y-103260575D02*
X124889436Y-103742055D01*
X125257945Y-104110564D01*
X125739425Y-104310000D01*
X126260575Y-104310000D01*
X126742055Y-104110564D01*
X127000000Y-103852619D01*
X127257945Y-104110564D01*
X127739425Y-104310000D01*
X128260575Y-104310000D01*
X128742055Y-104110564D01*
X128808158Y-104044461D01*
X128867191Y-104132809D01*
X129077235Y-104273157D01*
X129325000Y-104322440D01*
X130675000Y-104322440D01*
X130922765Y-104273157D01*
X131132809Y-104132809D01*
X131273157Y-103922765D01*
X131290000Y-103838088D01*
X131290000Y-106530392D01*
X131280440Y-106539952D01*
X131136531Y-106234688D01*
X130392814Y-105946395D01*
X129595385Y-105964656D01*
X128943469Y-106234688D01*
X128799559Y-106539954D01*
X130040000Y-107780395D01*
X130054143Y-107766253D01*
X130233748Y-107945858D01*
X130219605Y-107960000D01*
X130233748Y-107974143D01*
X130054143Y-108153748D01*
X130040000Y-108139605D01*
X130025858Y-108153748D01*
X129846253Y-107974143D01*
X129860395Y-107960000D01*
X128619954Y-106719559D01*
X128314688Y-106863469D01*
X128175043Y-107223714D01*
X128138049Y-107168349D01*
X128064156Y-107118975D01*
X123821026Y-102875846D01*
X123771651Y-102801951D01*
X123708866Y-102759999D01*
X124690000Y-102759999D01*
X124690000Y-103260575D01*
%TD*%
M02*
