M48
;DRILL file {KiCad 5.0.1+dfsg1-3~bpo9+1} date Mon 26 Nov 2018 07:10:49 PM CET
;FORMAT={3:3/ absolute / metric / keep zeros}
FMAT,2
METRIC,TZ
T1C0.300
T2C0.400
T3C0.800
T4C1.016
T5C1.200
T6C1.700
%
G90
G05
M71
T1
X110875Y-113225
X110900Y-116075
X111975Y-113450
X112250Y-114825
X113075Y-111950
X117975Y-115650
T2
X108000Y-102000
X111970Y-108000
X115000Y-108000
X116000Y-105000
T3
X126000Y-103000
X128000Y-103000
X130000Y-103000
T4
X098125Y-104445
X098125Y-106985
X098125Y-109525
X098125Y-112065
X098125Y-114605
X098125Y-117145
X100665Y-104445
X100665Y-106985
X100665Y-109525
X100665Y-112065
X100665Y-114605
X100665Y-117145
T5
X127500Y-110500
T6
X124960Y-107960
X124960Y-113040
X130040Y-107960
X130040Y-113040
T0
M30
