M48
;DRILL file {KiCad 5.0.1+dfsg1-3~bpo9+1} date Mon 26 Nov 2018 07:58:07 PM CET
;FORMAT={-:-/ absolute / metric / decimal}
FMAT,2
METRIC,TZ
T1C0.300
T2C0.400
T3C0.800
T4C1.016
T5C1.200
T6C1.700
%
G90
G05
M71
T1
X110.875Y-113.225
X110.9Y-116.075
X111.975Y-113.45
X112.25Y-114.825
X113.075Y-111.95
X117.975Y-115.65
T2
X108.Y-102.
X111.97Y-108.
X115.Y-108.
X116.Y-105.
T3
X126.Y-103.
X128.Y-103.
X130.Y-103.
T4
X98.125Y-104.445
X98.125Y-106.985
X98.125Y-109.525
X98.125Y-112.065
X98.125Y-114.605
X98.125Y-117.145
X100.665Y-104.445
X100.665Y-106.985
X100.665Y-109.525
X100.665Y-112.065
X100.665Y-114.605
X100.665Y-117.145
T5
X127.5Y-110.5
T6
X124.96Y-107.96
X124.96Y-113.04
X130.04Y-107.96
X130.04Y-113.04
T0
M30
