%FSLAX45Y45*%
G04 Gerber Fmt 4.5, Leading zero omitted, Abs format (unit mm)*
G04 Created by KiCad (PCBNEW 5.0.1+dfsg1-3~bpo9+1) date Mon 26 Nov 2018 07:46:53 PM CET*
%MOMM*%
%LPD*%
G01*
G04 APERTURE LIST*
%ADD10C,0.150000*%
%ADD11C,0.200000*%
%ADD12C,0.300000*%
G04 APERTURE END LIST*
D10*
X13200000Y-10100000D02*
X13200000Y-12100000D01*
X9390000Y-10110000D02*
X13200000Y-10100000D01*
X9390000Y-12100000D02*
X9400000Y-10100000D01*
X13200000Y-12100000D02*
X9390000Y-12100000D01*
D11*
X11072500Y-11307500D02*
X11102500Y-11337500D01*
X11102500Y-11307500D02*
X11072500Y-11337500D01*
X11075000Y-11592500D02*
X11105000Y-11622500D01*
X11105000Y-11592500D02*
X11075000Y-11622500D01*
X11182500Y-11330000D02*
X11212500Y-11360000D01*
X11212500Y-11330000D02*
X11182500Y-11360000D01*
X11210000Y-11467500D02*
X11240000Y-11497500D01*
X11240000Y-11467500D02*
X11210000Y-11497500D01*
X11292500Y-11180000D02*
X11322500Y-11210000D01*
X11322500Y-11180000D02*
X11292500Y-11210000D01*
X11782500Y-11550000D02*
X11812500Y-11580000D01*
X11812500Y-11550000D02*
X11782500Y-11580000D01*
X10820000Y-10200000D02*
G75*
G03X10820000Y-10200000I-20000J0D01*
G01*
X11217001Y-10800000D02*
G75*
G03X11217001Y-10800000I-20000J0D01*
G01*
X11520000Y-10800000D02*
G75*
G03X11520000Y-10800000I-20000J0D01*
G01*
X11620000Y-10500000D02*
G75*
G03X11620000Y-10500000I-20000J0D01*
G01*
X12600000Y-10260000D02*
X12600000Y-10340000D01*
X12560000Y-10300000D02*
X12640000Y-10300000D01*
X12800000Y-10260000D02*
X12800000Y-10340000D01*
X12760000Y-10300000D02*
X12840000Y-10300000D01*
X13000000Y-10260000D02*
X13000000Y-10340000D01*
X12960000Y-10300000D02*
X13040000Y-10300000D01*
X9848421Y-10480421D02*
X9848421Y-10408579D01*
X9776579Y-10408579D01*
X9776579Y-10480421D01*
X9848421Y-10480421D01*
X9848421Y-10734421D02*
X9848421Y-10662579D01*
X9776579Y-10662579D01*
X9776579Y-10734421D01*
X9848421Y-10734421D01*
X9848421Y-10988421D02*
X9848421Y-10916579D01*
X9776579Y-10916579D01*
X9776579Y-10988421D01*
X9848421Y-10988421D01*
X9848421Y-11242421D02*
X9848421Y-11170579D01*
X9776579Y-11170579D01*
X9776579Y-11242421D01*
X9848421Y-11242421D01*
X9848421Y-11496421D02*
X9848421Y-11424579D01*
X9776579Y-11424579D01*
X9776579Y-11496421D01*
X9848421Y-11496421D01*
X9848421Y-11750421D02*
X9848421Y-11678579D01*
X9776579Y-11678579D01*
X9776579Y-11750421D01*
X9848421Y-11750421D01*
X10102421Y-10480421D02*
X10102421Y-10408579D01*
X10030579Y-10408579D01*
X10030579Y-10480421D01*
X10102421Y-10480421D01*
X10102421Y-10734421D02*
X10102421Y-10662579D01*
X10030579Y-10662579D01*
X10030579Y-10734421D01*
X10102421Y-10734421D01*
X10102421Y-10988421D02*
X10102421Y-10916579D01*
X10030579Y-10916579D01*
X10030579Y-10988421D01*
X10102421Y-10988421D01*
X10102421Y-11242421D02*
X10102421Y-11170579D01*
X10030579Y-11170579D01*
X10030579Y-11242421D01*
X10102421Y-11242421D01*
X10102421Y-11496421D02*
X10102421Y-11424579D01*
X10030579Y-11424579D01*
X10030579Y-11496421D01*
X10102421Y-11496421D01*
X10102421Y-11750421D02*
X10102421Y-11678579D01*
X10030579Y-11678579D01*
X10030579Y-11750421D01*
X10102421Y-11750421D01*
X12750000Y-11110000D02*
X12810000Y-11050000D01*
X12750000Y-10990000D01*
X12690000Y-11050000D01*
X12750000Y-11110000D01*
X12411000Y-10711000D02*
X12581000Y-10881000D01*
X12581000Y-10711000D02*
X12411000Y-10881000D01*
X12581000Y-10796000D02*
G75*
G03X12581000Y-10796000I-85000J0D01*
G01*
X12411000Y-11219000D02*
X12581000Y-11389000D01*
X12581000Y-11219000D02*
X12411000Y-11389000D01*
X12581000Y-11304000D02*
G75*
G03X12581000Y-11304000I-85000J0D01*
G01*
X12919000Y-10711000D02*
X13089000Y-10881000D01*
X13089000Y-10711000D02*
X12919000Y-10881000D01*
X13089000Y-10796000D02*
G75*
G03X13089000Y-10796000I-85000J0D01*
G01*
X12919000Y-11219000D02*
X13089000Y-11389000D01*
X13089000Y-11219000D02*
X12919000Y-11389000D01*
X13089000Y-11304000D02*
G75*
G03X13089000Y-11304000I-85000J0D01*
G01*
D12*
X9668928Y-12573214D02*
X9668928Y-12273214D01*
X9740357Y-12273214D01*
X9783214Y-12287500D01*
X9811786Y-12316071D01*
X9826071Y-12344643D01*
X9840357Y-12401786D01*
X9840357Y-12444643D01*
X9826071Y-12501786D01*
X9811786Y-12530357D01*
X9783214Y-12558929D01*
X9740357Y-12573214D01*
X9668928Y-12573214D01*
X9968928Y-12573214D02*
X9968928Y-12373214D01*
X9968928Y-12430357D02*
X9983214Y-12401786D01*
X9997500Y-12387500D01*
X10026071Y-12373214D01*
X10054643Y-12373214D01*
X10154643Y-12573214D02*
X10154643Y-12373214D01*
X10154643Y-12273214D02*
X10140357Y-12287500D01*
X10154643Y-12301786D01*
X10168928Y-12287500D01*
X10154643Y-12273214D01*
X10154643Y-12301786D01*
X10340357Y-12573214D02*
X10311786Y-12558929D01*
X10297500Y-12530357D01*
X10297500Y-12273214D01*
X10497500Y-12573214D02*
X10468928Y-12558929D01*
X10454643Y-12530357D01*
X10454643Y-12273214D01*
X10840357Y-12573214D02*
X10840357Y-12273214D01*
X10940357Y-12487500D01*
X11040357Y-12273214D01*
X11040357Y-12573214D01*
X11311786Y-12573214D02*
X11311786Y-12416071D01*
X11297500Y-12387500D01*
X11268928Y-12373214D01*
X11211786Y-12373214D01*
X11183214Y-12387500D01*
X11311786Y-12558929D02*
X11283214Y-12573214D01*
X11211786Y-12573214D01*
X11183214Y-12558929D01*
X11168928Y-12530357D01*
X11168928Y-12501786D01*
X11183214Y-12473214D01*
X11211786Y-12458929D01*
X11283214Y-12458929D01*
X11311786Y-12444643D01*
X11454643Y-12373214D02*
X11454643Y-12673214D01*
X11454643Y-12387500D02*
X11483214Y-12373214D01*
X11540357Y-12373214D01*
X11568928Y-12387500D01*
X11583214Y-12401786D01*
X11597500Y-12430357D01*
X11597500Y-12516071D01*
X11583214Y-12544643D01*
X11568928Y-12558929D01*
X11540357Y-12573214D01*
X11483214Y-12573214D01*
X11454643Y-12558929D01*
X11726071Y-12544643D02*
X11740357Y-12558929D01*
X11726071Y-12573214D01*
X11711786Y-12558929D01*
X11726071Y-12544643D01*
X11726071Y-12573214D01*
X11726071Y-12387500D02*
X11740357Y-12401786D01*
X11726071Y-12416071D01*
X11711786Y-12401786D01*
X11726071Y-12387500D01*
X11726071Y-12416071D01*
X9352500Y-13052500D02*
X9382500Y-13082500D01*
X9382500Y-13052500D02*
X9352500Y-13082500D01*
X9726071Y-12903214D02*
X9754643Y-12903214D01*
X9783214Y-12917500D01*
X9797500Y-12931786D01*
X9811786Y-12960357D01*
X9826071Y-13017500D01*
X9826071Y-13088929D01*
X9811786Y-13146071D01*
X9797500Y-13174643D01*
X9783214Y-13188929D01*
X9754643Y-13203214D01*
X9726071Y-13203214D01*
X9697500Y-13188929D01*
X9683214Y-13174643D01*
X9668928Y-13146071D01*
X9654643Y-13088929D01*
X9654643Y-13017500D01*
X9668928Y-12960357D01*
X9683214Y-12931786D01*
X9697500Y-12917500D01*
X9726071Y-12903214D01*
X9954643Y-13174643D02*
X9968928Y-13188929D01*
X9954643Y-13203214D01*
X9940357Y-13188929D01*
X9954643Y-13174643D01*
X9954643Y-13203214D01*
X10068928Y-12903214D02*
X10254643Y-12903214D01*
X10154643Y-13017500D01*
X10197500Y-13017500D01*
X10226071Y-13031786D01*
X10240357Y-13046071D01*
X10254643Y-13074643D01*
X10254643Y-13146071D01*
X10240357Y-13174643D01*
X10226071Y-13188929D01*
X10197500Y-13203214D01*
X10111786Y-13203214D01*
X10083214Y-13188929D01*
X10068928Y-13174643D01*
X10440357Y-12903214D02*
X10468928Y-12903214D01*
X10497500Y-12917500D01*
X10511786Y-12931786D01*
X10526071Y-12960357D01*
X10540357Y-13017500D01*
X10540357Y-13088929D01*
X10526071Y-13146071D01*
X10511786Y-13174643D01*
X10497500Y-13188929D01*
X10468928Y-13203214D01*
X10440357Y-13203214D01*
X10411786Y-13188929D01*
X10397500Y-13174643D01*
X10383214Y-13146071D01*
X10368928Y-13088929D01*
X10368928Y-13017500D01*
X10383214Y-12960357D01*
X10397500Y-12931786D01*
X10411786Y-12917500D01*
X10440357Y-12903214D01*
X10668928Y-13203214D02*
X10668928Y-13003214D01*
X10668928Y-13031786D02*
X10683214Y-13017500D01*
X10711786Y-13003214D01*
X10754643Y-13003214D01*
X10783214Y-13017500D01*
X10797500Y-13046071D01*
X10797500Y-13203214D01*
X10797500Y-13046071D02*
X10811786Y-13017500D01*
X10840357Y-13003214D01*
X10883214Y-13003214D01*
X10911786Y-13017500D01*
X10926071Y-13046071D01*
X10926071Y-13203214D01*
X11068928Y-13203214D02*
X11068928Y-13003214D01*
X11068928Y-13031786D02*
X11083214Y-13017500D01*
X11111786Y-13003214D01*
X11154643Y-13003214D01*
X11183214Y-13017500D01*
X11197500Y-13046071D01*
X11197500Y-13203214D01*
X11197500Y-13046071D02*
X11211786Y-13017500D01*
X11240357Y-13003214D01*
X11283214Y-13003214D01*
X11311786Y-13017500D01*
X11326071Y-13046071D01*
X11326071Y-13203214D01*
X11911786Y-12888929D02*
X11654643Y-13274643D01*
X12297500Y-12903214D02*
X12326071Y-12903214D01*
X12354643Y-12917500D01*
X12368928Y-12931786D01*
X12383214Y-12960357D01*
X12397500Y-13017500D01*
X12397500Y-13088929D01*
X12383214Y-13146071D01*
X12368928Y-13174643D01*
X12354643Y-13188929D01*
X12326071Y-13203214D01*
X12297500Y-13203214D01*
X12268928Y-13188929D01*
X12254643Y-13174643D01*
X12240357Y-13146071D01*
X12226071Y-13088929D01*
X12226071Y-13017500D01*
X12240357Y-12960357D01*
X12254643Y-12931786D01*
X12268928Y-12917500D01*
X12297500Y-12903214D01*
X12526071Y-13174643D02*
X12540357Y-13188929D01*
X12526071Y-13203214D01*
X12511786Y-13188929D01*
X12526071Y-13174643D01*
X12526071Y-13203214D01*
X12726071Y-12903214D02*
X12754643Y-12903214D01*
X12783214Y-12917500D01*
X12797500Y-12931786D01*
X12811786Y-12960357D01*
X12826071Y-13017500D01*
X12826071Y-13088929D01*
X12811786Y-13146071D01*
X12797500Y-13174643D01*
X12783214Y-13188929D01*
X12754643Y-13203214D01*
X12726071Y-13203214D01*
X12697500Y-13188929D01*
X12683214Y-13174643D01*
X12668928Y-13146071D01*
X12654643Y-13088929D01*
X12654643Y-13017500D01*
X12668928Y-12960357D01*
X12683214Y-12931786D01*
X12697500Y-12917500D01*
X12726071Y-12903214D01*
X13111786Y-13203214D02*
X12940357Y-13203214D01*
X13026071Y-13203214D02*
X13026071Y-12903214D01*
X12997500Y-12946071D01*
X12968928Y-12974643D01*
X12940357Y-12988929D01*
X13226071Y-12931786D02*
X13240357Y-12917500D01*
X13268928Y-12903214D01*
X13340357Y-12903214D01*
X13368928Y-12917500D01*
X13383214Y-12931786D01*
X13397500Y-12960357D01*
X13397500Y-12988929D01*
X13383214Y-13031786D01*
X13211786Y-13203214D01*
X13397500Y-13203214D01*
X13511786Y-12903214D02*
X13511786Y-12960357D01*
X13626071Y-12903214D02*
X13626071Y-12960357D01*
X14068928Y-13317500D02*
X14054643Y-13303214D01*
X14026071Y-13260357D01*
X14011786Y-13231786D01*
X13997500Y-13188929D01*
X13983214Y-13117500D01*
X13983214Y-13060357D01*
X13997500Y-12988929D01*
X14011786Y-12946071D01*
X14026071Y-12917500D01*
X14054643Y-12874643D01*
X14068928Y-12860357D01*
X14311786Y-12903214D02*
X14254643Y-12903214D01*
X14226071Y-12917500D01*
X14211786Y-12931786D01*
X14183214Y-12974643D01*
X14168928Y-13031786D01*
X14168928Y-13146071D01*
X14183214Y-13174643D01*
X14197500Y-13188929D01*
X14226071Y-13203214D01*
X14283214Y-13203214D01*
X14311786Y-13188929D01*
X14326071Y-13174643D01*
X14340357Y-13146071D01*
X14340357Y-13074643D01*
X14326071Y-13046071D01*
X14311786Y-13031786D01*
X14283214Y-13017500D01*
X14226071Y-13017500D01*
X14197500Y-13031786D01*
X14183214Y-13046071D01*
X14168928Y-13074643D01*
X14697500Y-13203214D02*
X14697500Y-12903214D01*
X14826071Y-13203214D02*
X14826071Y-13046071D01*
X14811786Y-13017500D01*
X14783214Y-13003214D01*
X14740357Y-13003214D01*
X14711786Y-13017500D01*
X14697500Y-13031786D01*
X15011786Y-13203214D02*
X14983214Y-13188929D01*
X14968928Y-13174643D01*
X14954643Y-13146071D01*
X14954643Y-13060357D01*
X14968928Y-13031786D01*
X14983214Y-13017500D01*
X15011786Y-13003214D01*
X15054643Y-13003214D01*
X15083214Y-13017500D01*
X15097500Y-13031786D01*
X15111786Y-13060357D01*
X15111786Y-13146071D01*
X15097500Y-13174643D01*
X15083214Y-13188929D01*
X15054643Y-13203214D01*
X15011786Y-13203214D01*
X15283214Y-13203214D02*
X15254643Y-13188929D01*
X15240357Y-13160357D01*
X15240357Y-12903214D01*
X15511786Y-13188929D02*
X15483214Y-13203214D01*
X15426071Y-13203214D01*
X15397500Y-13188929D01*
X15383214Y-13160357D01*
X15383214Y-13046071D01*
X15397500Y-13017500D01*
X15426071Y-13003214D01*
X15483214Y-13003214D01*
X15511786Y-13017500D01*
X15526071Y-13046071D01*
X15526071Y-13074643D01*
X15383214Y-13103214D01*
X15640357Y-13188929D02*
X15668928Y-13203214D01*
X15726071Y-13203214D01*
X15754643Y-13188929D01*
X15768928Y-13160357D01*
X15768928Y-13146071D01*
X15754643Y-13117500D01*
X15726071Y-13103214D01*
X15683214Y-13103214D01*
X15654643Y-13088929D01*
X15640357Y-13060357D01*
X15640357Y-13046071D01*
X15654643Y-13017500D01*
X15683214Y-13003214D01*
X15726071Y-13003214D01*
X15754643Y-13017500D01*
X15868928Y-13317500D02*
X15883214Y-13303214D01*
X15911786Y-13260357D01*
X15926071Y-13231786D01*
X15940357Y-13188929D01*
X15954643Y-13117500D01*
X15954643Y-13060357D01*
X15940357Y-12988929D01*
X15926071Y-12946071D01*
X15911786Y-12917500D01*
X15883214Y-12874643D01*
X15868928Y-12860357D01*
X9382500Y-13463500D02*
G75*
G03X9382500Y-13463500I-20000J0D01*
G01*
X9726071Y-13299214D02*
X9754643Y-13299214D01*
X9783214Y-13313500D01*
X9797500Y-13327786D01*
X9811786Y-13356357D01*
X9826071Y-13413500D01*
X9826071Y-13484929D01*
X9811786Y-13542071D01*
X9797500Y-13570643D01*
X9783214Y-13584929D01*
X9754643Y-13599214D01*
X9726071Y-13599214D01*
X9697500Y-13584929D01*
X9683214Y-13570643D01*
X9668928Y-13542071D01*
X9654643Y-13484929D01*
X9654643Y-13413500D01*
X9668928Y-13356357D01*
X9683214Y-13327786D01*
X9697500Y-13313500D01*
X9726071Y-13299214D01*
X9954643Y-13570643D02*
X9968928Y-13584929D01*
X9954643Y-13599214D01*
X9940357Y-13584929D01*
X9954643Y-13570643D01*
X9954643Y-13599214D01*
X10226071Y-13399214D02*
X10226071Y-13599214D01*
X10154643Y-13284929D02*
X10083214Y-13499214D01*
X10268928Y-13499214D01*
X10440357Y-13299214D02*
X10468928Y-13299214D01*
X10497500Y-13313500D01*
X10511786Y-13327786D01*
X10526071Y-13356357D01*
X10540357Y-13413500D01*
X10540357Y-13484929D01*
X10526071Y-13542071D01*
X10511786Y-13570643D01*
X10497500Y-13584929D01*
X10468928Y-13599214D01*
X10440357Y-13599214D01*
X10411786Y-13584929D01*
X10397500Y-13570643D01*
X10383214Y-13542071D01*
X10368928Y-13484929D01*
X10368928Y-13413500D01*
X10383214Y-13356357D01*
X10397500Y-13327786D01*
X10411786Y-13313500D01*
X10440357Y-13299214D01*
X10668928Y-13599214D02*
X10668928Y-13399214D01*
X10668928Y-13427786D02*
X10683214Y-13413500D01*
X10711786Y-13399214D01*
X10754643Y-13399214D01*
X10783214Y-13413500D01*
X10797500Y-13442071D01*
X10797500Y-13599214D01*
X10797500Y-13442071D02*
X10811786Y-13413500D01*
X10840357Y-13399214D01*
X10883214Y-13399214D01*
X10911786Y-13413500D01*
X10926071Y-13442071D01*
X10926071Y-13599214D01*
X11068928Y-13599214D02*
X11068928Y-13399214D01*
X11068928Y-13427786D02*
X11083214Y-13413500D01*
X11111786Y-13399214D01*
X11154643Y-13399214D01*
X11183214Y-13413500D01*
X11197500Y-13442071D01*
X11197500Y-13599214D01*
X11197500Y-13442071D02*
X11211786Y-13413500D01*
X11240357Y-13399214D01*
X11283214Y-13399214D01*
X11311786Y-13413500D01*
X11326071Y-13442071D01*
X11326071Y-13599214D01*
X11911786Y-13284929D02*
X11654643Y-13670643D01*
X12297500Y-13299214D02*
X12326071Y-13299214D01*
X12354643Y-13313500D01*
X12368928Y-13327786D01*
X12383214Y-13356357D01*
X12397500Y-13413500D01*
X12397500Y-13484929D01*
X12383214Y-13542071D01*
X12368928Y-13570643D01*
X12354643Y-13584929D01*
X12326071Y-13599214D01*
X12297500Y-13599214D01*
X12268928Y-13584929D01*
X12254643Y-13570643D01*
X12240357Y-13542071D01*
X12226071Y-13484929D01*
X12226071Y-13413500D01*
X12240357Y-13356357D01*
X12254643Y-13327786D01*
X12268928Y-13313500D01*
X12297500Y-13299214D01*
X12526071Y-13570643D02*
X12540357Y-13584929D01*
X12526071Y-13599214D01*
X12511786Y-13584929D01*
X12526071Y-13570643D01*
X12526071Y-13599214D01*
X12726071Y-13299214D02*
X12754643Y-13299214D01*
X12783214Y-13313500D01*
X12797500Y-13327786D01*
X12811786Y-13356357D01*
X12826071Y-13413500D01*
X12826071Y-13484929D01*
X12811786Y-13542071D01*
X12797500Y-13570643D01*
X12783214Y-13584929D01*
X12754643Y-13599214D01*
X12726071Y-13599214D01*
X12697500Y-13584929D01*
X12683214Y-13570643D01*
X12668928Y-13542071D01*
X12654643Y-13484929D01*
X12654643Y-13413500D01*
X12668928Y-13356357D01*
X12683214Y-13327786D01*
X12697500Y-13313500D01*
X12726071Y-13299214D01*
X13111786Y-13599214D02*
X12940357Y-13599214D01*
X13026071Y-13599214D02*
X13026071Y-13299214D01*
X12997500Y-13342071D01*
X12968928Y-13370643D01*
X12940357Y-13384929D01*
X13368928Y-13299214D02*
X13311786Y-13299214D01*
X13283214Y-13313500D01*
X13268928Y-13327786D01*
X13240357Y-13370643D01*
X13226071Y-13427786D01*
X13226071Y-13542071D01*
X13240357Y-13570643D01*
X13254643Y-13584929D01*
X13283214Y-13599214D01*
X13340357Y-13599214D01*
X13368928Y-13584929D01*
X13383214Y-13570643D01*
X13397500Y-13542071D01*
X13397500Y-13470643D01*
X13383214Y-13442071D01*
X13368928Y-13427786D01*
X13340357Y-13413500D01*
X13283214Y-13413500D01*
X13254643Y-13427786D01*
X13240357Y-13442071D01*
X13226071Y-13470643D01*
X13511786Y-13299214D02*
X13511786Y-13356357D01*
X13626071Y-13299214D02*
X13626071Y-13356357D01*
X14068928Y-13713500D02*
X14054643Y-13699214D01*
X14026071Y-13656357D01*
X14011786Y-13627786D01*
X13997500Y-13584929D01*
X13983214Y-13513500D01*
X13983214Y-13456357D01*
X13997500Y-13384929D01*
X14011786Y-13342071D01*
X14026071Y-13313500D01*
X14054643Y-13270643D01*
X14068928Y-13256357D01*
X14311786Y-13399214D02*
X14311786Y-13599214D01*
X14240357Y-13284929D02*
X14168928Y-13499214D01*
X14354643Y-13499214D01*
X14697500Y-13599214D02*
X14697500Y-13299214D01*
X14826071Y-13599214D02*
X14826071Y-13442071D01*
X14811786Y-13413500D01*
X14783214Y-13399214D01*
X14740357Y-13399214D01*
X14711786Y-13413500D01*
X14697500Y-13427786D01*
X15011786Y-13599214D02*
X14983214Y-13584929D01*
X14968928Y-13570643D01*
X14954643Y-13542071D01*
X14954643Y-13456357D01*
X14968928Y-13427786D01*
X14983214Y-13413500D01*
X15011786Y-13399214D01*
X15054643Y-13399214D01*
X15083214Y-13413500D01*
X15097500Y-13427786D01*
X15111786Y-13456357D01*
X15111786Y-13542071D01*
X15097500Y-13570643D01*
X15083214Y-13584929D01*
X15054643Y-13599214D01*
X15011786Y-13599214D01*
X15283214Y-13599214D02*
X15254643Y-13584929D01*
X15240357Y-13556357D01*
X15240357Y-13299214D01*
X15511786Y-13584929D02*
X15483214Y-13599214D01*
X15426071Y-13599214D01*
X15397500Y-13584929D01*
X15383214Y-13556357D01*
X15383214Y-13442071D01*
X15397500Y-13413500D01*
X15426071Y-13399214D01*
X15483214Y-13399214D01*
X15511786Y-13413500D01*
X15526071Y-13442071D01*
X15526071Y-13470643D01*
X15383214Y-13499214D01*
X15640357Y-13584929D02*
X15668928Y-13599214D01*
X15726071Y-13599214D01*
X15754643Y-13584929D01*
X15768928Y-13556357D01*
X15768928Y-13542071D01*
X15754643Y-13513500D01*
X15726071Y-13499214D01*
X15683214Y-13499214D01*
X15654643Y-13484929D01*
X15640357Y-13456357D01*
X15640357Y-13442071D01*
X15654643Y-13413500D01*
X15683214Y-13399214D01*
X15726071Y-13399214D01*
X15754643Y-13413500D01*
X15868928Y-13713500D02*
X15883214Y-13699214D01*
X15911786Y-13656357D01*
X15926071Y-13627786D01*
X15940357Y-13584929D01*
X15954643Y-13513500D01*
X15954643Y-13456357D01*
X15940357Y-13384929D01*
X15926071Y-13342071D01*
X15911786Y-13313500D01*
X15883214Y-13270643D01*
X15868928Y-13256357D01*
X9342500Y-13819500D02*
X9342500Y-13899500D01*
X9302500Y-13859500D02*
X9382500Y-13859500D01*
X9726071Y-13695214D02*
X9754643Y-13695214D01*
X9783214Y-13709500D01*
X9797500Y-13723786D01*
X9811786Y-13752357D01*
X9826071Y-13809500D01*
X9826071Y-13880929D01*
X9811786Y-13938071D01*
X9797500Y-13966643D01*
X9783214Y-13980929D01*
X9754643Y-13995214D01*
X9726071Y-13995214D01*
X9697500Y-13980929D01*
X9683214Y-13966643D01*
X9668928Y-13938071D01*
X9654643Y-13880929D01*
X9654643Y-13809500D01*
X9668928Y-13752357D01*
X9683214Y-13723786D01*
X9697500Y-13709500D01*
X9726071Y-13695214D01*
X9954643Y-13966643D02*
X9968928Y-13980929D01*
X9954643Y-13995214D01*
X9940357Y-13980929D01*
X9954643Y-13966643D01*
X9954643Y-13995214D01*
X10140357Y-13823786D02*
X10111786Y-13809500D01*
X10097500Y-13795214D01*
X10083214Y-13766643D01*
X10083214Y-13752357D01*
X10097500Y-13723786D01*
X10111786Y-13709500D01*
X10140357Y-13695214D01*
X10197500Y-13695214D01*
X10226071Y-13709500D01*
X10240357Y-13723786D01*
X10254643Y-13752357D01*
X10254643Y-13766643D01*
X10240357Y-13795214D01*
X10226071Y-13809500D01*
X10197500Y-13823786D01*
X10140357Y-13823786D01*
X10111786Y-13838071D01*
X10097500Y-13852357D01*
X10083214Y-13880929D01*
X10083214Y-13938071D01*
X10097500Y-13966643D01*
X10111786Y-13980929D01*
X10140357Y-13995214D01*
X10197500Y-13995214D01*
X10226071Y-13980929D01*
X10240357Y-13966643D01*
X10254643Y-13938071D01*
X10254643Y-13880929D01*
X10240357Y-13852357D01*
X10226071Y-13838071D01*
X10197500Y-13823786D01*
X10440357Y-13695214D02*
X10468928Y-13695214D01*
X10497500Y-13709500D01*
X10511786Y-13723786D01*
X10526071Y-13752357D01*
X10540357Y-13809500D01*
X10540357Y-13880929D01*
X10526071Y-13938071D01*
X10511786Y-13966643D01*
X10497500Y-13980929D01*
X10468928Y-13995214D01*
X10440357Y-13995214D01*
X10411786Y-13980929D01*
X10397500Y-13966643D01*
X10383214Y-13938071D01*
X10368928Y-13880929D01*
X10368928Y-13809500D01*
X10383214Y-13752357D01*
X10397500Y-13723786D01*
X10411786Y-13709500D01*
X10440357Y-13695214D01*
X10668928Y-13995214D02*
X10668928Y-13795214D01*
X10668928Y-13823786D02*
X10683214Y-13809500D01*
X10711786Y-13795214D01*
X10754643Y-13795214D01*
X10783214Y-13809500D01*
X10797500Y-13838071D01*
X10797500Y-13995214D01*
X10797500Y-13838071D02*
X10811786Y-13809500D01*
X10840357Y-13795214D01*
X10883214Y-13795214D01*
X10911786Y-13809500D01*
X10926071Y-13838071D01*
X10926071Y-13995214D01*
X11068928Y-13995214D02*
X11068928Y-13795214D01*
X11068928Y-13823786D02*
X11083214Y-13809500D01*
X11111786Y-13795214D01*
X11154643Y-13795214D01*
X11183214Y-13809500D01*
X11197500Y-13838071D01*
X11197500Y-13995214D01*
X11197500Y-13838071D02*
X11211786Y-13809500D01*
X11240357Y-13795214D01*
X11283214Y-13795214D01*
X11311786Y-13809500D01*
X11326071Y-13838071D01*
X11326071Y-13995214D01*
X11911786Y-13680929D02*
X11654643Y-14066643D01*
X12297500Y-13695214D02*
X12326071Y-13695214D01*
X12354643Y-13709500D01*
X12368928Y-13723786D01*
X12383214Y-13752357D01*
X12397500Y-13809500D01*
X12397500Y-13880929D01*
X12383214Y-13938071D01*
X12368928Y-13966643D01*
X12354643Y-13980929D01*
X12326071Y-13995214D01*
X12297500Y-13995214D01*
X12268928Y-13980929D01*
X12254643Y-13966643D01*
X12240357Y-13938071D01*
X12226071Y-13880929D01*
X12226071Y-13809500D01*
X12240357Y-13752357D01*
X12254643Y-13723786D01*
X12268928Y-13709500D01*
X12297500Y-13695214D01*
X12526071Y-13966643D02*
X12540357Y-13980929D01*
X12526071Y-13995214D01*
X12511786Y-13980929D01*
X12526071Y-13966643D01*
X12526071Y-13995214D01*
X12726071Y-13695214D02*
X12754643Y-13695214D01*
X12783214Y-13709500D01*
X12797500Y-13723786D01*
X12811786Y-13752357D01*
X12826071Y-13809500D01*
X12826071Y-13880929D01*
X12811786Y-13938071D01*
X12797500Y-13966643D01*
X12783214Y-13980929D01*
X12754643Y-13995214D01*
X12726071Y-13995214D01*
X12697500Y-13980929D01*
X12683214Y-13966643D01*
X12668928Y-13938071D01*
X12654643Y-13880929D01*
X12654643Y-13809500D01*
X12668928Y-13752357D01*
X12683214Y-13723786D01*
X12697500Y-13709500D01*
X12726071Y-13695214D01*
X12926071Y-13695214D02*
X13111786Y-13695214D01*
X13011786Y-13809500D01*
X13054643Y-13809500D01*
X13083214Y-13823786D01*
X13097500Y-13838071D01*
X13111786Y-13866643D01*
X13111786Y-13938071D01*
X13097500Y-13966643D01*
X13083214Y-13980929D01*
X13054643Y-13995214D01*
X12968928Y-13995214D01*
X12940357Y-13980929D01*
X12926071Y-13966643D01*
X13397500Y-13995214D02*
X13226071Y-13995214D01*
X13311786Y-13995214D02*
X13311786Y-13695214D01*
X13283214Y-13738071D01*
X13254643Y-13766643D01*
X13226071Y-13780929D01*
X13511786Y-13695214D02*
X13511786Y-13752357D01*
X13626071Y-13695214D02*
X13626071Y-13752357D01*
X14068928Y-14109500D02*
X14054643Y-14095214D01*
X14026071Y-14052357D01*
X14011786Y-14023786D01*
X13997500Y-13980929D01*
X13983214Y-13909500D01*
X13983214Y-13852357D01*
X13997500Y-13780929D01*
X14011786Y-13738071D01*
X14026071Y-13709500D01*
X14054643Y-13666643D01*
X14068928Y-13652357D01*
X14154643Y-13695214D02*
X14340357Y-13695214D01*
X14240357Y-13809500D01*
X14283214Y-13809500D01*
X14311786Y-13823786D01*
X14326071Y-13838071D01*
X14340357Y-13866643D01*
X14340357Y-13938071D01*
X14326071Y-13966643D01*
X14311786Y-13980929D01*
X14283214Y-13995214D01*
X14197500Y-13995214D01*
X14168928Y-13980929D01*
X14154643Y-13966643D01*
X14697500Y-13995214D02*
X14697500Y-13695214D01*
X14826071Y-13995214D02*
X14826071Y-13838071D01*
X14811786Y-13809500D01*
X14783214Y-13795214D01*
X14740357Y-13795214D01*
X14711786Y-13809500D01*
X14697500Y-13823786D01*
X15011786Y-13995214D02*
X14983214Y-13980929D01*
X14968928Y-13966643D01*
X14954643Y-13938071D01*
X14954643Y-13852357D01*
X14968928Y-13823786D01*
X14983214Y-13809500D01*
X15011786Y-13795214D01*
X15054643Y-13795214D01*
X15083214Y-13809500D01*
X15097500Y-13823786D01*
X15111786Y-13852357D01*
X15111786Y-13938071D01*
X15097500Y-13966643D01*
X15083214Y-13980929D01*
X15054643Y-13995214D01*
X15011786Y-13995214D01*
X15283214Y-13995214D02*
X15254643Y-13980929D01*
X15240357Y-13952357D01*
X15240357Y-13695214D01*
X15511786Y-13980929D02*
X15483214Y-13995214D01*
X15426071Y-13995214D01*
X15397500Y-13980929D01*
X15383214Y-13952357D01*
X15383214Y-13838071D01*
X15397500Y-13809500D01*
X15426071Y-13795214D01*
X15483214Y-13795214D01*
X15511786Y-13809500D01*
X15526071Y-13838071D01*
X15526071Y-13866643D01*
X15383214Y-13895214D01*
X15640357Y-13980929D02*
X15668928Y-13995214D01*
X15726071Y-13995214D01*
X15754643Y-13980929D01*
X15768928Y-13952357D01*
X15768928Y-13938071D01*
X15754643Y-13909500D01*
X15726071Y-13895214D01*
X15683214Y-13895214D01*
X15654643Y-13880929D01*
X15640357Y-13852357D01*
X15640357Y-13838071D01*
X15654643Y-13809500D01*
X15683214Y-13795214D01*
X15726071Y-13795214D01*
X15754643Y-13809500D01*
X15868928Y-14109500D02*
X15883214Y-14095214D01*
X15911786Y-14052357D01*
X15926071Y-14023786D01*
X15940357Y-13980929D01*
X15954643Y-13909500D01*
X15954643Y-13852357D01*
X15940357Y-13780929D01*
X15926071Y-13738071D01*
X15911786Y-13709500D01*
X15883214Y-13666643D01*
X15868928Y-13652357D01*
X9367621Y-14291421D02*
X9367621Y-14219579D01*
X9295779Y-14219579D01*
X9295779Y-14291421D01*
X9367621Y-14291421D01*
X9826071Y-14391214D02*
X9654643Y-14391214D01*
X9740357Y-14391214D02*
X9740357Y-14091214D01*
X9711786Y-14134071D01*
X9683214Y-14162643D01*
X9654643Y-14176929D01*
X9954643Y-14362643D02*
X9968928Y-14376929D01*
X9954643Y-14391214D01*
X9940357Y-14376929D01*
X9954643Y-14362643D01*
X9954643Y-14391214D01*
X10154643Y-14091214D02*
X10183214Y-14091214D01*
X10211786Y-14105500D01*
X10226071Y-14119786D01*
X10240357Y-14148357D01*
X10254643Y-14205500D01*
X10254643Y-14276929D01*
X10240357Y-14334071D01*
X10226071Y-14362643D01*
X10211786Y-14376929D01*
X10183214Y-14391214D01*
X10154643Y-14391214D01*
X10126071Y-14376929D01*
X10111786Y-14362643D01*
X10097500Y-14334071D01*
X10083214Y-14276929D01*
X10083214Y-14205500D01*
X10097500Y-14148357D01*
X10111786Y-14119786D01*
X10126071Y-14105500D01*
X10154643Y-14091214D01*
X10368928Y-14119786D02*
X10383214Y-14105500D01*
X10411786Y-14091214D01*
X10483214Y-14091214D01*
X10511786Y-14105500D01*
X10526071Y-14119786D01*
X10540357Y-14148357D01*
X10540357Y-14176929D01*
X10526071Y-14219786D01*
X10354643Y-14391214D01*
X10540357Y-14391214D01*
X10668928Y-14391214D02*
X10668928Y-14191214D01*
X10668928Y-14219786D02*
X10683214Y-14205500D01*
X10711786Y-14191214D01*
X10754643Y-14191214D01*
X10783214Y-14205500D01*
X10797500Y-14234071D01*
X10797500Y-14391214D01*
X10797500Y-14234071D02*
X10811786Y-14205500D01*
X10840357Y-14191214D01*
X10883214Y-14191214D01*
X10911786Y-14205500D01*
X10926071Y-14234071D01*
X10926071Y-14391214D01*
X11068928Y-14391214D02*
X11068928Y-14191214D01*
X11068928Y-14219786D02*
X11083214Y-14205500D01*
X11111786Y-14191214D01*
X11154643Y-14191214D01*
X11183214Y-14205500D01*
X11197500Y-14234071D01*
X11197500Y-14391214D01*
X11197500Y-14234071D02*
X11211786Y-14205500D01*
X11240357Y-14191214D01*
X11283214Y-14191214D01*
X11311786Y-14205500D01*
X11326071Y-14234071D01*
X11326071Y-14391214D01*
X11911786Y-14076929D02*
X11654643Y-14462643D01*
X12297500Y-14091214D02*
X12326071Y-14091214D01*
X12354643Y-14105500D01*
X12368928Y-14119786D01*
X12383214Y-14148357D01*
X12397500Y-14205500D01*
X12397500Y-14276929D01*
X12383214Y-14334071D01*
X12368928Y-14362643D01*
X12354643Y-14376929D01*
X12326071Y-14391214D01*
X12297500Y-14391214D01*
X12268928Y-14376929D01*
X12254643Y-14362643D01*
X12240357Y-14334071D01*
X12226071Y-14276929D01*
X12226071Y-14205500D01*
X12240357Y-14148357D01*
X12254643Y-14119786D01*
X12268928Y-14105500D01*
X12297500Y-14091214D01*
X12526071Y-14362643D02*
X12540357Y-14376929D01*
X12526071Y-14391214D01*
X12511786Y-14376929D01*
X12526071Y-14362643D01*
X12526071Y-14391214D01*
X12726071Y-14091214D02*
X12754643Y-14091214D01*
X12783214Y-14105500D01*
X12797500Y-14119786D01*
X12811786Y-14148357D01*
X12826071Y-14205500D01*
X12826071Y-14276929D01*
X12811786Y-14334071D01*
X12797500Y-14362643D01*
X12783214Y-14376929D01*
X12754643Y-14391214D01*
X12726071Y-14391214D01*
X12697500Y-14376929D01*
X12683214Y-14362643D01*
X12668928Y-14334071D01*
X12654643Y-14276929D01*
X12654643Y-14205500D01*
X12668928Y-14148357D01*
X12683214Y-14119786D01*
X12697500Y-14105500D01*
X12726071Y-14091214D01*
X13083214Y-14191214D02*
X13083214Y-14391214D01*
X13011786Y-14076929D02*
X12940357Y-14291214D01*
X13126071Y-14291214D01*
X13297500Y-14091214D02*
X13326071Y-14091214D01*
X13354643Y-14105500D01*
X13368928Y-14119786D01*
X13383214Y-14148357D01*
X13397500Y-14205500D01*
X13397500Y-14276929D01*
X13383214Y-14334071D01*
X13368928Y-14362643D01*
X13354643Y-14376929D01*
X13326071Y-14391214D01*
X13297500Y-14391214D01*
X13268928Y-14376929D01*
X13254643Y-14362643D01*
X13240357Y-14334071D01*
X13226071Y-14276929D01*
X13226071Y-14205500D01*
X13240357Y-14148357D01*
X13254643Y-14119786D01*
X13268928Y-14105500D01*
X13297500Y-14091214D01*
X13511786Y-14091214D02*
X13511786Y-14148357D01*
X13626071Y-14091214D02*
X13626071Y-14148357D01*
X14068928Y-14505500D02*
X14054643Y-14491214D01*
X14026071Y-14448357D01*
X14011786Y-14419786D01*
X13997500Y-14376929D01*
X13983214Y-14305500D01*
X13983214Y-14248357D01*
X13997500Y-14176929D01*
X14011786Y-14134071D01*
X14026071Y-14105500D01*
X14054643Y-14062643D01*
X14068928Y-14048357D01*
X14340357Y-14391214D02*
X14168928Y-14391214D01*
X14254643Y-14391214D02*
X14254643Y-14091214D01*
X14226071Y-14134071D01*
X14197500Y-14162643D01*
X14168928Y-14176929D01*
X14454643Y-14119786D02*
X14468928Y-14105500D01*
X14497500Y-14091214D01*
X14568928Y-14091214D01*
X14597500Y-14105500D01*
X14611786Y-14119786D01*
X14626071Y-14148357D01*
X14626071Y-14176929D01*
X14611786Y-14219786D01*
X14440357Y-14391214D01*
X14626071Y-14391214D01*
X14983214Y-14391214D02*
X14983214Y-14091214D01*
X15111786Y-14391214D02*
X15111786Y-14234071D01*
X15097500Y-14205500D01*
X15068928Y-14191214D01*
X15026071Y-14191214D01*
X14997500Y-14205500D01*
X14983214Y-14219786D01*
X15297500Y-14391214D02*
X15268928Y-14376929D01*
X15254643Y-14362643D01*
X15240357Y-14334071D01*
X15240357Y-14248357D01*
X15254643Y-14219786D01*
X15268928Y-14205500D01*
X15297500Y-14191214D01*
X15340357Y-14191214D01*
X15368928Y-14205500D01*
X15383214Y-14219786D01*
X15397500Y-14248357D01*
X15397500Y-14334071D01*
X15383214Y-14362643D01*
X15368928Y-14376929D01*
X15340357Y-14391214D01*
X15297500Y-14391214D01*
X15568928Y-14391214D02*
X15540357Y-14376929D01*
X15526071Y-14348357D01*
X15526071Y-14091214D01*
X15797500Y-14376929D02*
X15768928Y-14391214D01*
X15711786Y-14391214D01*
X15683214Y-14376929D01*
X15668928Y-14348357D01*
X15668928Y-14234071D01*
X15683214Y-14205500D01*
X15711786Y-14191214D01*
X15768928Y-14191214D01*
X15797500Y-14205500D01*
X15811786Y-14234071D01*
X15811786Y-14262643D01*
X15668928Y-14291214D01*
X15926071Y-14376929D02*
X15954643Y-14391214D01*
X16011786Y-14391214D01*
X16040357Y-14376929D01*
X16054643Y-14348357D01*
X16054643Y-14334071D01*
X16040357Y-14305500D01*
X16011786Y-14291214D01*
X15968928Y-14291214D01*
X15940357Y-14276929D01*
X15926071Y-14248357D01*
X15926071Y-14234071D01*
X15940357Y-14205500D01*
X15968928Y-14191214D01*
X16011786Y-14191214D01*
X16040357Y-14205500D01*
X16154643Y-14505500D02*
X16168928Y-14491214D01*
X16197500Y-14448357D01*
X16211786Y-14419786D01*
X16226071Y-14376929D01*
X16240357Y-14305500D01*
X16240357Y-14248357D01*
X16226071Y-14176929D01*
X16211786Y-14134071D01*
X16197500Y-14105500D01*
X16168928Y-14062643D01*
X16154643Y-14048357D01*
X9322500Y-14711500D02*
X9382500Y-14651500D01*
X9322500Y-14591500D01*
X9262500Y-14651500D01*
X9322500Y-14711500D01*
X9826071Y-14787214D02*
X9654643Y-14787214D01*
X9740357Y-14787214D02*
X9740357Y-14487214D01*
X9711786Y-14530071D01*
X9683214Y-14558643D01*
X9654643Y-14572929D01*
X9954643Y-14758643D02*
X9968928Y-14772929D01*
X9954643Y-14787214D01*
X9940357Y-14772929D01*
X9954643Y-14758643D01*
X9954643Y-14787214D01*
X10083214Y-14515786D02*
X10097500Y-14501500D01*
X10126071Y-14487214D01*
X10197500Y-14487214D01*
X10226071Y-14501500D01*
X10240357Y-14515786D01*
X10254643Y-14544357D01*
X10254643Y-14572929D01*
X10240357Y-14615786D01*
X10068928Y-14787214D01*
X10254643Y-14787214D01*
X10440357Y-14487214D02*
X10468928Y-14487214D01*
X10497500Y-14501500D01*
X10511786Y-14515786D01*
X10526071Y-14544357D01*
X10540357Y-14601500D01*
X10540357Y-14672929D01*
X10526071Y-14730071D01*
X10511786Y-14758643D01*
X10497500Y-14772929D01*
X10468928Y-14787214D01*
X10440357Y-14787214D01*
X10411786Y-14772929D01*
X10397500Y-14758643D01*
X10383214Y-14730071D01*
X10368928Y-14672929D01*
X10368928Y-14601500D01*
X10383214Y-14544357D01*
X10397500Y-14515786D01*
X10411786Y-14501500D01*
X10440357Y-14487214D01*
X10668928Y-14787214D02*
X10668928Y-14587214D01*
X10668928Y-14615786D02*
X10683214Y-14601500D01*
X10711786Y-14587214D01*
X10754643Y-14587214D01*
X10783214Y-14601500D01*
X10797500Y-14630071D01*
X10797500Y-14787214D01*
X10797500Y-14630071D02*
X10811786Y-14601500D01*
X10840357Y-14587214D01*
X10883214Y-14587214D01*
X10911786Y-14601500D01*
X10926071Y-14630071D01*
X10926071Y-14787214D01*
X11068928Y-14787214D02*
X11068928Y-14587214D01*
X11068928Y-14615786D02*
X11083214Y-14601500D01*
X11111786Y-14587214D01*
X11154643Y-14587214D01*
X11183214Y-14601500D01*
X11197500Y-14630071D01*
X11197500Y-14787214D01*
X11197500Y-14630071D02*
X11211786Y-14601500D01*
X11240357Y-14587214D01*
X11283214Y-14587214D01*
X11311786Y-14601500D01*
X11326071Y-14630071D01*
X11326071Y-14787214D01*
X11911786Y-14472929D02*
X11654643Y-14858643D01*
X12297500Y-14487214D02*
X12326071Y-14487214D01*
X12354643Y-14501500D01*
X12368928Y-14515786D01*
X12383214Y-14544357D01*
X12397500Y-14601500D01*
X12397500Y-14672929D01*
X12383214Y-14730071D01*
X12368928Y-14758643D01*
X12354643Y-14772929D01*
X12326071Y-14787214D01*
X12297500Y-14787214D01*
X12268928Y-14772929D01*
X12254643Y-14758643D01*
X12240357Y-14730071D01*
X12226071Y-14672929D01*
X12226071Y-14601500D01*
X12240357Y-14544357D01*
X12254643Y-14515786D01*
X12268928Y-14501500D01*
X12297500Y-14487214D01*
X12526071Y-14758643D02*
X12540357Y-14772929D01*
X12526071Y-14787214D01*
X12511786Y-14772929D01*
X12526071Y-14758643D01*
X12526071Y-14787214D01*
X12726071Y-14487214D02*
X12754643Y-14487214D01*
X12783214Y-14501500D01*
X12797500Y-14515786D01*
X12811786Y-14544357D01*
X12826071Y-14601500D01*
X12826071Y-14672929D01*
X12811786Y-14730071D01*
X12797500Y-14758643D01*
X12783214Y-14772929D01*
X12754643Y-14787214D01*
X12726071Y-14787214D01*
X12697500Y-14772929D01*
X12683214Y-14758643D01*
X12668928Y-14730071D01*
X12654643Y-14672929D01*
X12654643Y-14601500D01*
X12668928Y-14544357D01*
X12683214Y-14515786D01*
X12697500Y-14501500D01*
X12726071Y-14487214D01*
X13083214Y-14587214D02*
X13083214Y-14787214D01*
X13011786Y-14472929D02*
X12940357Y-14687214D01*
X13126071Y-14687214D01*
X13211786Y-14487214D02*
X13411786Y-14487214D01*
X13283214Y-14787214D01*
X13511786Y-14487214D02*
X13511786Y-14544357D01*
X13626071Y-14487214D02*
X13626071Y-14544357D01*
X14068928Y-14901500D02*
X14054643Y-14887214D01*
X14026071Y-14844357D01*
X14011786Y-14815786D01*
X13997500Y-14772929D01*
X13983214Y-14701500D01*
X13983214Y-14644357D01*
X13997500Y-14572929D01*
X14011786Y-14530071D01*
X14026071Y-14501500D01*
X14054643Y-14458643D01*
X14068928Y-14444357D01*
X14340357Y-14787214D02*
X14168928Y-14787214D01*
X14254643Y-14787214D02*
X14254643Y-14487214D01*
X14226071Y-14530071D01*
X14197500Y-14558643D01*
X14168928Y-14572929D01*
X14697500Y-14787214D02*
X14697500Y-14487214D01*
X14826071Y-14787214D02*
X14826071Y-14630071D01*
X14811786Y-14601500D01*
X14783214Y-14587214D01*
X14740357Y-14587214D01*
X14711786Y-14601500D01*
X14697500Y-14615786D01*
X15011786Y-14787214D02*
X14983214Y-14772929D01*
X14968928Y-14758643D01*
X14954643Y-14730071D01*
X14954643Y-14644357D01*
X14968928Y-14615786D01*
X14983214Y-14601500D01*
X15011786Y-14587214D01*
X15054643Y-14587214D01*
X15083214Y-14601500D01*
X15097500Y-14615786D01*
X15111786Y-14644357D01*
X15111786Y-14730071D01*
X15097500Y-14758643D01*
X15083214Y-14772929D01*
X15054643Y-14787214D01*
X15011786Y-14787214D01*
X15283214Y-14787214D02*
X15254643Y-14772929D01*
X15240357Y-14744357D01*
X15240357Y-14487214D01*
X15511786Y-14772929D02*
X15483214Y-14787214D01*
X15426071Y-14787214D01*
X15397500Y-14772929D01*
X15383214Y-14744357D01*
X15383214Y-14630071D01*
X15397500Y-14601500D01*
X15426071Y-14587214D01*
X15483214Y-14587214D01*
X15511786Y-14601500D01*
X15526071Y-14630071D01*
X15526071Y-14658643D01*
X15383214Y-14687214D01*
X15626071Y-14901500D02*
X15640357Y-14887214D01*
X15668928Y-14844357D01*
X15683214Y-14815786D01*
X15697500Y-14772929D01*
X15711786Y-14701500D01*
X15711786Y-14644357D01*
X15697500Y-14572929D01*
X15683214Y-14530071D01*
X15668928Y-14501500D01*
X15640357Y-14458643D01*
X15626071Y-14444357D01*
X9212500Y-14962500D02*
X9382500Y-15132500D01*
X9382500Y-14962500D02*
X9212500Y-15132500D01*
X9382500Y-15047500D02*
G75*
G03X9382500Y-15047500I-85000J0D01*
G01*
X9826071Y-15183214D02*
X9654643Y-15183214D01*
X9740357Y-15183214D02*
X9740357Y-14883214D01*
X9711786Y-14926071D01*
X9683214Y-14954643D01*
X9654643Y-14968929D01*
X9954643Y-15154643D02*
X9968928Y-15168929D01*
X9954643Y-15183214D01*
X9940357Y-15168929D01*
X9954643Y-15154643D01*
X9954643Y-15183214D01*
X10068928Y-14883214D02*
X10268928Y-14883214D01*
X10140357Y-15183214D01*
X10440357Y-14883214D02*
X10468928Y-14883214D01*
X10497500Y-14897500D01*
X10511786Y-14911786D01*
X10526071Y-14940357D01*
X10540357Y-14997500D01*
X10540357Y-15068929D01*
X10526071Y-15126071D01*
X10511786Y-15154643D01*
X10497500Y-15168929D01*
X10468928Y-15183214D01*
X10440357Y-15183214D01*
X10411786Y-15168929D01*
X10397500Y-15154643D01*
X10383214Y-15126071D01*
X10368928Y-15068929D01*
X10368928Y-14997500D01*
X10383214Y-14940357D01*
X10397500Y-14911786D01*
X10411786Y-14897500D01*
X10440357Y-14883214D01*
X10668928Y-15183214D02*
X10668928Y-14983214D01*
X10668928Y-15011786D02*
X10683214Y-14997500D01*
X10711786Y-14983214D01*
X10754643Y-14983214D01*
X10783214Y-14997500D01*
X10797500Y-15026071D01*
X10797500Y-15183214D01*
X10797500Y-15026071D02*
X10811786Y-14997500D01*
X10840357Y-14983214D01*
X10883214Y-14983214D01*
X10911786Y-14997500D01*
X10926071Y-15026071D01*
X10926071Y-15183214D01*
X11068928Y-15183214D02*
X11068928Y-14983214D01*
X11068928Y-15011786D02*
X11083214Y-14997500D01*
X11111786Y-14983214D01*
X11154643Y-14983214D01*
X11183214Y-14997500D01*
X11197500Y-15026071D01*
X11197500Y-15183214D01*
X11197500Y-15026071D02*
X11211786Y-14997500D01*
X11240357Y-14983214D01*
X11283214Y-14983214D01*
X11311786Y-14997500D01*
X11326071Y-15026071D01*
X11326071Y-15183214D01*
X11911786Y-14868929D02*
X11654643Y-15254643D01*
X12297500Y-14883214D02*
X12326071Y-14883214D01*
X12354643Y-14897500D01*
X12368928Y-14911786D01*
X12383214Y-14940357D01*
X12397500Y-14997500D01*
X12397500Y-15068929D01*
X12383214Y-15126071D01*
X12368928Y-15154643D01*
X12354643Y-15168929D01*
X12326071Y-15183214D01*
X12297500Y-15183214D01*
X12268928Y-15168929D01*
X12254643Y-15154643D01*
X12240357Y-15126071D01*
X12226071Y-15068929D01*
X12226071Y-14997500D01*
X12240357Y-14940357D01*
X12254643Y-14911786D01*
X12268928Y-14897500D01*
X12297500Y-14883214D01*
X12526071Y-15154643D02*
X12540357Y-15168929D01*
X12526071Y-15183214D01*
X12511786Y-15168929D01*
X12526071Y-15154643D01*
X12526071Y-15183214D01*
X12726071Y-14883214D02*
X12754643Y-14883214D01*
X12783214Y-14897500D01*
X12797500Y-14911786D01*
X12811786Y-14940357D01*
X12826071Y-14997500D01*
X12826071Y-15068929D01*
X12811786Y-15126071D01*
X12797500Y-15154643D01*
X12783214Y-15168929D01*
X12754643Y-15183214D01*
X12726071Y-15183214D01*
X12697500Y-15168929D01*
X12683214Y-15154643D01*
X12668928Y-15126071D01*
X12654643Y-15068929D01*
X12654643Y-14997500D01*
X12668928Y-14940357D01*
X12683214Y-14911786D01*
X12697500Y-14897500D01*
X12726071Y-14883214D01*
X13083214Y-14883214D02*
X13026071Y-14883214D01*
X12997500Y-14897500D01*
X12983214Y-14911786D01*
X12954643Y-14954643D01*
X12940357Y-15011786D01*
X12940357Y-15126071D01*
X12954643Y-15154643D01*
X12968928Y-15168929D01*
X12997500Y-15183214D01*
X13054643Y-15183214D01*
X13083214Y-15168929D01*
X13097500Y-15154643D01*
X13111786Y-15126071D01*
X13111786Y-15054643D01*
X13097500Y-15026071D01*
X13083214Y-15011786D01*
X13054643Y-14997500D01*
X12997500Y-14997500D01*
X12968928Y-15011786D01*
X12954643Y-15026071D01*
X12940357Y-15054643D01*
X13211786Y-14883214D02*
X13411786Y-14883214D01*
X13283214Y-15183214D01*
X13511786Y-14883214D02*
X13511786Y-14940357D01*
X13626071Y-14883214D02*
X13626071Y-14940357D01*
X14068928Y-15297500D02*
X14054643Y-15283214D01*
X14026071Y-15240357D01*
X14011786Y-15211786D01*
X13997500Y-15168929D01*
X13983214Y-15097500D01*
X13983214Y-15040357D01*
X13997500Y-14968929D01*
X14011786Y-14926071D01*
X14026071Y-14897500D01*
X14054643Y-14854643D01*
X14068928Y-14840357D01*
X14311786Y-14983214D02*
X14311786Y-15183214D01*
X14240357Y-14868929D02*
X14168928Y-15083214D01*
X14354643Y-15083214D01*
X14697500Y-15183214D02*
X14697500Y-14883214D01*
X14826071Y-15183214D02*
X14826071Y-15026071D01*
X14811786Y-14997500D01*
X14783214Y-14983214D01*
X14740357Y-14983214D01*
X14711786Y-14997500D01*
X14697500Y-15011786D01*
X15011786Y-15183214D02*
X14983214Y-15168929D01*
X14968928Y-15154643D01*
X14954643Y-15126071D01*
X14954643Y-15040357D01*
X14968928Y-15011786D01*
X14983214Y-14997500D01*
X15011786Y-14983214D01*
X15054643Y-14983214D01*
X15083214Y-14997500D01*
X15097500Y-15011786D01*
X15111786Y-15040357D01*
X15111786Y-15126071D01*
X15097500Y-15154643D01*
X15083214Y-15168929D01*
X15054643Y-15183214D01*
X15011786Y-15183214D01*
X15283214Y-15183214D02*
X15254643Y-15168929D01*
X15240357Y-15140357D01*
X15240357Y-14883214D01*
X15511786Y-15168929D02*
X15483214Y-15183214D01*
X15426071Y-15183214D01*
X15397500Y-15168929D01*
X15383214Y-15140357D01*
X15383214Y-15026071D01*
X15397500Y-14997500D01*
X15426071Y-14983214D01*
X15483214Y-14983214D01*
X15511786Y-14997500D01*
X15526071Y-15026071D01*
X15526071Y-15054643D01*
X15383214Y-15083214D01*
X15640357Y-15168929D02*
X15668928Y-15183214D01*
X15726071Y-15183214D01*
X15754643Y-15168929D01*
X15768928Y-15140357D01*
X15768928Y-15126071D01*
X15754643Y-15097500D01*
X15726071Y-15083214D01*
X15683214Y-15083214D01*
X15654643Y-15068929D01*
X15640357Y-15040357D01*
X15640357Y-15026071D01*
X15654643Y-14997500D01*
X15683214Y-14983214D01*
X15726071Y-14983214D01*
X15754643Y-14997500D01*
X15868928Y-15297500D02*
X15883214Y-15283214D01*
X15911786Y-15240357D01*
X15926071Y-15211786D01*
X15940357Y-15168929D01*
X15954643Y-15097500D01*
X15954643Y-15040357D01*
X15940357Y-14968929D01*
X15926071Y-14926071D01*
X15911786Y-14897500D01*
X15883214Y-14854643D01*
X15868928Y-14840357D01*
M02*
