M48
;DRILL file {KiCad 4.0.5+dfsg1-4} date Sun Nov 25 22:45:53 2018
;FORMAT={3:3/ absolute / metric / keep zeros}
FMAT,2
METRIC,TZ
T1C0.300
T2C0.800
T3C1.016
T4C1.200
T5C1.700
%
G90
G05
M71
T1
X095725Y-100800
X096850Y-100000
X098100Y-099000
X105300Y-099875
X106550Y-100875
X110875Y-113225
X110900Y-116075
X111975Y-113450
X112250Y-114825
X113075Y-111950
X116300Y-100400
X116300Y-101400
X117975Y-115650
T2
X125000Y-100000
X127000Y-100000
X129000Y-100000
T3
X098125Y-104445
X098125Y-106985
X098125Y-109525
X098125Y-112065
X098125Y-114605
X098125Y-117145
X100665Y-104445
X100665Y-106985
X100665Y-109525
X100665Y-112065
X100665Y-114605
X100665Y-117145
T4
X127500Y-110500
T5
X124960Y-107960
X124960Y-113040
X130040Y-107960
X130040Y-113040
T0
M30
