G04 #@! TF.FileFunction,Copper,L2,Bot,Signal*
%FSLAX46Y46*%
G04 Gerber Fmt 4.6, Leading zero omitted, Abs format (unit mm)*
G04 Created by KiCad (PCBNEW 4.0.5+dfsg1-4) date Sun Nov 25 22:45:50 2018*
%MOMM*%
%LPD*%
G01*
G04 APERTURE LIST*
%ADD10C,0.100000*%
%ADD11C,2.740000*%
%ADD12C,2.240000*%
%ADD13R,1.727200X1.727200*%
%ADD14O,1.727200X1.727200*%
%ADD15R,1.350000X1.350000*%
%ADD16C,1.350000*%
%ADD17C,0.600000*%
%ADD18C,0.500000*%
%ADD19C,0.254000*%
G04 APERTURE END LIST*
D10*
D11*
X124960000Y-113040000D03*
X130040000Y-113040000D03*
X130040000Y-107960000D03*
X124960000Y-107960000D03*
D12*
X127500000Y-110500000D03*
D13*
X100665000Y-117145000D03*
D14*
X98125000Y-117145000D03*
X100665000Y-114605000D03*
X98125000Y-114605000D03*
X100665000Y-112065000D03*
X98125000Y-112065000D03*
X100665000Y-109525000D03*
X98125000Y-109525000D03*
X100665000Y-106985000D03*
X98125000Y-106985000D03*
X100665000Y-104445000D03*
X98125000Y-104445000D03*
D15*
X129000000Y-100000000D03*
D16*
X127000000Y-100000000D03*
X125000000Y-100000000D03*
D17*
X111975000Y-113450000D03*
X110900000Y-116075000D03*
X112250000Y-114825000D03*
X110875000Y-113225000D03*
X98100000Y-99000000D03*
X113075000Y-111950000D03*
X106550000Y-100875000D03*
X95725000Y-100800000D03*
X105300000Y-99875000D03*
X96850000Y-100000000D03*
X117975000Y-115650000D03*
X116300000Y-100400000D03*
X116300000Y-101400000D03*
D18*
X98125000Y-117145000D02*
X100665000Y-117145000D01*
X104425000Y-115725000D02*
X103005000Y-117145000D01*
X103005000Y-117145000D02*
X100665000Y-117145000D01*
X109700000Y-115725000D02*
X104425000Y-115725000D01*
X111975000Y-113450000D02*
X109700000Y-115725000D01*
X112250000Y-114825000D02*
X112150000Y-114825000D01*
X112150000Y-114825000D02*
X110900000Y-116075000D01*
X100665000Y-112065000D02*
X109715000Y-112065000D01*
X109715000Y-112065000D02*
X110875000Y-113225000D01*
X113075000Y-111950000D02*
X104256399Y-103131399D01*
X104256399Y-103131399D02*
X97494471Y-103131399D01*
X97261401Y-106121401D02*
X98125000Y-106985000D01*
X97494471Y-103131399D02*
X96811399Y-103814471D01*
X96811399Y-103814471D02*
X96811399Y-105671399D01*
X96811399Y-105671399D02*
X97261401Y-106121401D01*
X95725000Y-100800000D02*
X106475000Y-100800000D01*
X106475000Y-100800000D02*
X106550000Y-100875000D01*
X96850000Y-100000000D02*
X105175000Y-100000000D01*
X105175000Y-100000000D02*
X105300000Y-99875000D01*
X129000000Y-100000000D02*
X129000000Y-101175000D01*
X129000000Y-101175000D02*
X124725000Y-105450000D01*
X124725000Y-105450000D02*
X109325000Y-105450000D01*
X109325000Y-105450000D02*
X109250000Y-105525000D01*
X109250000Y-105525000D02*
X107850000Y-105525000D01*
X107850000Y-105525000D02*
X117975000Y-115650000D01*
X116300000Y-100400000D02*
X122934998Y-100400000D01*
X122934998Y-100400000D02*
X124459999Y-98874999D01*
X124459999Y-98874999D02*
X125874999Y-98874999D01*
X125874999Y-98874999D02*
X126325001Y-99325001D01*
X126325001Y-99325001D02*
X127000000Y-100000000D01*
X116300000Y-101400000D02*
X123600000Y-101400000D01*
X123600000Y-101400000D02*
X125000000Y-100000000D01*
D19*
G36*
X95000000Y-98710000D02*
X97208015Y-98710000D01*
X97165162Y-98813201D01*
X97164899Y-99115000D01*
X97156822Y-99115000D01*
X97036799Y-99065162D01*
X96664833Y-99064838D01*
X96321057Y-99206883D01*
X96057808Y-99469673D01*
X95915162Y-99813201D01*
X95915116Y-99866539D01*
X95911799Y-99865162D01*
X95539833Y-99864838D01*
X95196057Y-100006883D01*
X94932808Y-100269673D01*
X94790162Y-100613201D01*
X94789838Y-100985167D01*
X94931883Y-101328943D01*
X95194673Y-101592192D01*
X95538201Y-101734838D01*
X95910167Y-101735162D01*
X96031569Y-101685000D01*
X106062559Y-101685000D01*
X106363201Y-101809838D01*
X106735167Y-101810162D01*
X107078943Y-101668117D01*
X107342192Y-101405327D01*
X107484838Y-101061799D01*
X107485162Y-100689833D01*
X107343117Y-100346057D01*
X107080327Y-100082808D01*
X106736799Y-99940162D01*
X106600905Y-99940044D01*
X106475000Y-99914999D01*
X106474995Y-99915000D01*
X106234966Y-99915000D01*
X106235162Y-99689833D01*
X106093117Y-99346057D01*
X105830327Y-99082808D01*
X105486799Y-98940162D01*
X105114833Y-98939838D01*
X104771057Y-99081883D01*
X104737882Y-99115000D01*
X99034901Y-99115000D01*
X99035162Y-98814833D01*
X98991846Y-98710000D01*
X123373419Y-98710000D01*
X122568418Y-99515000D01*
X116606822Y-99515000D01*
X116486799Y-99465162D01*
X116114833Y-99464838D01*
X115771057Y-99606883D01*
X115507808Y-99869673D01*
X115365162Y-100213201D01*
X115364838Y-100585167D01*
X115495069Y-100900351D01*
X115365162Y-101213201D01*
X115364838Y-101585167D01*
X115506883Y-101928943D01*
X115769673Y-102192192D01*
X116113201Y-102334838D01*
X116485167Y-102335162D01*
X116606569Y-102285000D01*
X123599995Y-102285000D01*
X123600000Y-102285001D01*
X123882484Y-102228810D01*
X123938675Y-102217633D01*
X124225790Y-102025790D01*
X124941630Y-101309949D01*
X125259432Y-101310226D01*
X125741086Y-101111211D01*
X126000129Y-100852620D01*
X126256976Y-101109916D01*
X126738282Y-101309772D01*
X127259432Y-101310226D01*
X127741086Y-101111211D01*
X127808077Y-101044337D01*
X127835879Y-101087542D01*
X124358420Y-104565000D01*
X109325005Y-104565000D01*
X109325000Y-104564999D01*
X109042516Y-104621190D01*
X108986325Y-104632367D01*
X108974901Y-104640000D01*
X107850005Y-104640000D01*
X107850000Y-104639999D01*
X107567516Y-104696190D01*
X107511325Y-104707367D01*
X107255130Y-104878550D01*
X104882189Y-102505609D01*
X104595074Y-102313766D01*
X104538883Y-102302589D01*
X104256399Y-102246398D01*
X104256394Y-102246399D01*
X97494476Y-102246399D01*
X97494471Y-102246398D01*
X97211987Y-102302589D01*
X97155796Y-102313766D01*
X96868681Y-102505609D01*
X96868679Y-102505612D01*
X96185609Y-103188681D01*
X95993766Y-103475796D01*
X95993766Y-103475797D01*
X95926398Y-103814471D01*
X95926399Y-103814476D01*
X95926399Y-105671394D01*
X95926398Y-105671399D01*
X95964645Y-105863674D01*
X95993766Y-106010074D01*
X96165860Y-106267633D01*
X96185609Y-106297189D01*
X96635609Y-106747188D01*
X96635611Y-106747191D01*
X96642895Y-106754475D01*
X96597041Y-106985000D01*
X96711115Y-107558489D01*
X97035971Y-108044670D01*
X97350752Y-108255000D01*
X97035971Y-108465330D01*
X96711115Y-108951511D01*
X96597041Y-109525000D01*
X96711115Y-110098489D01*
X97035971Y-110584670D01*
X97350752Y-110795000D01*
X97035971Y-111005330D01*
X96711115Y-111491511D01*
X96597041Y-112065000D01*
X96711115Y-112638489D01*
X97035971Y-113124670D01*
X97359228Y-113340664D01*
X97236510Y-113398179D01*
X96842312Y-113830053D01*
X96670042Y-114245974D01*
X96791183Y-114478000D01*
X97998000Y-114478000D01*
X97998000Y-114458000D01*
X98252000Y-114458000D01*
X98252000Y-114478000D01*
X100538000Y-114478000D01*
X100538000Y-114458000D01*
X100792000Y-114458000D01*
X100792000Y-114478000D01*
X101998817Y-114478000D01*
X102119958Y-114245974D01*
X101947688Y-113830053D01*
X101553490Y-113398179D01*
X101430772Y-113340664D01*
X101754029Y-113124670D01*
X101870740Y-112950000D01*
X109348420Y-112950000D01*
X110032255Y-113633834D01*
X110081883Y-113753943D01*
X110250533Y-113922888D01*
X109333420Y-114840000D01*
X104425005Y-114840000D01*
X104425000Y-114839999D01*
X104086325Y-114907367D01*
X103799210Y-115099210D01*
X103799208Y-115099213D01*
X102638420Y-116260000D01*
X102172013Y-116260000D01*
X102131762Y-116046083D01*
X101992690Y-115829959D01*
X101780490Y-115684969D01*
X101686625Y-115665961D01*
X101947688Y-115379947D01*
X102119958Y-114964026D01*
X101998817Y-114732000D01*
X100792000Y-114732000D01*
X100792000Y-114752000D01*
X100538000Y-114752000D01*
X100538000Y-114732000D01*
X98252000Y-114732000D01*
X98252000Y-114752000D01*
X97998000Y-114752000D01*
X97998000Y-114732000D01*
X96791183Y-114732000D01*
X96670042Y-114964026D01*
X96842312Y-115379947D01*
X97236510Y-115811821D01*
X97359228Y-115869336D01*
X97035971Y-116085330D01*
X96711115Y-116571511D01*
X96597041Y-117145000D01*
X96711115Y-117718489D01*
X97035971Y-118204670D01*
X97522152Y-118529526D01*
X98095641Y-118643600D01*
X98154359Y-118643600D01*
X98727848Y-118529526D01*
X99193442Y-118218426D01*
X99198238Y-118243917D01*
X99337310Y-118460041D01*
X99549510Y-118605031D01*
X99801400Y-118656040D01*
X101528600Y-118656040D01*
X101763917Y-118611762D01*
X101980041Y-118472690D01*
X102125031Y-118260490D01*
X102171706Y-118030000D01*
X103004995Y-118030000D01*
X103005000Y-118030001D01*
X103287484Y-117973810D01*
X103343675Y-117962633D01*
X103630790Y-117770790D01*
X104791579Y-116610000D01*
X109699995Y-116610000D01*
X109700000Y-116610001D01*
X109982484Y-116553810D01*
X110038675Y-116542633D01*
X110072274Y-116520183D01*
X110106883Y-116603943D01*
X110369673Y-116867192D01*
X110713201Y-117009838D01*
X111085167Y-117010162D01*
X111428943Y-116868117D01*
X111692192Y-116605327D01*
X111742566Y-116484014D01*
X112488421Y-115738158D01*
X112778943Y-115618117D01*
X113042192Y-115355327D01*
X113184838Y-115011799D01*
X113185162Y-114639833D01*
X113043117Y-114296057D01*
X112780327Y-114032808D01*
X112733922Y-114013539D01*
X112767192Y-113980327D01*
X112909838Y-113636799D01*
X112910162Y-113264833D01*
X112768117Y-112921057D01*
X112621346Y-112774030D01*
X112888201Y-112884838D01*
X113260167Y-112885162D01*
X113603943Y-112743117D01*
X113710333Y-112636912D01*
X117132255Y-116058834D01*
X117181883Y-116178943D01*
X117444673Y-116442192D01*
X117788201Y-116584838D01*
X118160167Y-116585162D01*
X118503943Y-116443117D01*
X118767192Y-116180327D01*
X118909838Y-115836799D01*
X118910162Y-115464833D01*
X118768117Y-115121057D01*
X118505327Y-114857808D01*
X118384013Y-114807434D01*
X118036626Y-114460046D01*
X123719559Y-114460046D01*
X123863469Y-114765312D01*
X124607186Y-115053605D01*
X125404615Y-115035344D01*
X126056531Y-114765312D01*
X126200441Y-114460046D01*
X124960000Y-113219605D01*
X123719559Y-114460046D01*
X118036626Y-114460046D01*
X116263766Y-112687186D01*
X122946395Y-112687186D01*
X122964656Y-113484615D01*
X123234688Y-114136531D01*
X123539954Y-114280441D01*
X124780395Y-113040000D01*
X123539954Y-111799559D01*
X123234688Y-111943469D01*
X122946395Y-112687186D01*
X116263766Y-112687186D01*
X111183766Y-107607186D01*
X122946395Y-107607186D01*
X122964656Y-108404615D01*
X123234688Y-109056531D01*
X123539954Y-109200441D01*
X124780395Y-107960000D01*
X123539954Y-106719559D01*
X123234688Y-106863469D01*
X122946395Y-107607186D01*
X111183766Y-107607186D01*
X109911580Y-106335000D01*
X123816179Y-106335000D01*
X123719559Y-106539954D01*
X124960000Y-107780395D01*
X126200441Y-106539954D01*
X126056531Y-106234688D01*
X125433430Y-105993150D01*
X129625787Y-101800792D01*
X129625790Y-101800790D01*
X129817633Y-101513675D01*
X129839460Y-101403943D01*
X129862698Y-101287122D01*
X129910317Y-101278162D01*
X130126441Y-101139090D01*
X130271431Y-100926890D01*
X130322440Y-100675000D01*
X130322440Y-99325000D01*
X130278162Y-99089683D01*
X130139090Y-98873559D01*
X129926890Y-98728569D01*
X129835194Y-98710000D01*
X131290000Y-98710000D01*
X131290000Y-106530392D01*
X131280440Y-106539952D01*
X131136531Y-106234688D01*
X130392814Y-105946395D01*
X129595385Y-105964656D01*
X128943469Y-106234688D01*
X128799559Y-106539954D01*
X130040000Y-107780395D01*
X130054143Y-107766253D01*
X130233748Y-107945858D01*
X130219605Y-107960000D01*
X130233748Y-107974143D01*
X130054143Y-108153748D01*
X130040000Y-108139605D01*
X130025858Y-108153748D01*
X129846253Y-107974143D01*
X129860395Y-107960000D01*
X128619954Y-106719559D01*
X128314688Y-106863469D01*
X128026395Y-107607186D01*
X128044656Y-108404615D01*
X128255394Y-108913381D01*
X127850623Y-108745306D01*
X127152441Y-108744697D01*
X126740156Y-108915049D01*
X126973605Y-108312814D01*
X126955344Y-107515385D01*
X126685312Y-106863469D01*
X126380046Y-106719559D01*
X125139605Y-107960000D01*
X125153748Y-107974143D01*
X124974143Y-108153748D01*
X124960000Y-108139605D01*
X123719559Y-109380046D01*
X123863469Y-109685312D01*
X124607186Y-109973605D01*
X125404615Y-109955344D01*
X125913381Y-109744606D01*
X125745306Y-110149377D01*
X125744697Y-110847559D01*
X125915049Y-111259844D01*
X125312814Y-111026395D01*
X124515385Y-111044656D01*
X123863469Y-111314688D01*
X123719559Y-111619954D01*
X124960000Y-112860395D01*
X124974143Y-112846253D01*
X125153748Y-113025858D01*
X125139605Y-113040000D01*
X126380046Y-114280441D01*
X126685312Y-114136531D01*
X126973605Y-113392814D01*
X126955344Y-112595385D01*
X126744606Y-112086619D01*
X127149377Y-112254694D01*
X127847559Y-112255303D01*
X128259844Y-112084951D01*
X128026395Y-112687186D01*
X128044656Y-113484615D01*
X128314688Y-114136531D01*
X128619954Y-114280441D01*
X129860395Y-113040000D01*
X129846253Y-113025858D01*
X130025858Y-112846253D01*
X130040000Y-112860395D01*
X130054143Y-112846253D01*
X130233748Y-113025858D01*
X130219605Y-113040000D01*
X130233748Y-113054143D01*
X130054143Y-113233748D01*
X130040000Y-113219605D01*
X128799559Y-114460046D01*
X128943469Y-114765312D01*
X129687186Y-115053605D01*
X130484615Y-115035344D01*
X131136531Y-114765312D01*
X131280440Y-114460048D01*
X131290000Y-114469608D01*
X131290000Y-120290000D01*
X94610000Y-120290000D01*
X94610000Y-98710000D01*
X94900000Y-98710000D01*
X94950000Y-98700054D01*
X95000000Y-98710000D01*
X95000000Y-98710000D01*
G37*
X95000000Y-98710000D02*
X97208015Y-98710000D01*
X97165162Y-98813201D01*
X97164899Y-99115000D01*
X97156822Y-99115000D01*
X97036799Y-99065162D01*
X96664833Y-99064838D01*
X96321057Y-99206883D01*
X96057808Y-99469673D01*
X95915162Y-99813201D01*
X95915116Y-99866539D01*
X95911799Y-99865162D01*
X95539833Y-99864838D01*
X95196057Y-100006883D01*
X94932808Y-100269673D01*
X94790162Y-100613201D01*
X94789838Y-100985167D01*
X94931883Y-101328943D01*
X95194673Y-101592192D01*
X95538201Y-101734838D01*
X95910167Y-101735162D01*
X96031569Y-101685000D01*
X106062559Y-101685000D01*
X106363201Y-101809838D01*
X106735167Y-101810162D01*
X107078943Y-101668117D01*
X107342192Y-101405327D01*
X107484838Y-101061799D01*
X107485162Y-100689833D01*
X107343117Y-100346057D01*
X107080327Y-100082808D01*
X106736799Y-99940162D01*
X106600905Y-99940044D01*
X106475000Y-99914999D01*
X106474995Y-99915000D01*
X106234966Y-99915000D01*
X106235162Y-99689833D01*
X106093117Y-99346057D01*
X105830327Y-99082808D01*
X105486799Y-98940162D01*
X105114833Y-98939838D01*
X104771057Y-99081883D01*
X104737882Y-99115000D01*
X99034901Y-99115000D01*
X99035162Y-98814833D01*
X98991846Y-98710000D01*
X123373419Y-98710000D01*
X122568418Y-99515000D01*
X116606822Y-99515000D01*
X116486799Y-99465162D01*
X116114833Y-99464838D01*
X115771057Y-99606883D01*
X115507808Y-99869673D01*
X115365162Y-100213201D01*
X115364838Y-100585167D01*
X115495069Y-100900351D01*
X115365162Y-101213201D01*
X115364838Y-101585167D01*
X115506883Y-101928943D01*
X115769673Y-102192192D01*
X116113201Y-102334838D01*
X116485167Y-102335162D01*
X116606569Y-102285000D01*
X123599995Y-102285000D01*
X123600000Y-102285001D01*
X123882484Y-102228810D01*
X123938675Y-102217633D01*
X124225790Y-102025790D01*
X124941630Y-101309949D01*
X125259432Y-101310226D01*
X125741086Y-101111211D01*
X126000129Y-100852620D01*
X126256976Y-101109916D01*
X126738282Y-101309772D01*
X127259432Y-101310226D01*
X127741086Y-101111211D01*
X127808077Y-101044337D01*
X127835879Y-101087542D01*
X124358420Y-104565000D01*
X109325005Y-104565000D01*
X109325000Y-104564999D01*
X109042516Y-104621190D01*
X108986325Y-104632367D01*
X108974901Y-104640000D01*
X107850005Y-104640000D01*
X107850000Y-104639999D01*
X107567516Y-104696190D01*
X107511325Y-104707367D01*
X107255130Y-104878550D01*
X104882189Y-102505609D01*
X104595074Y-102313766D01*
X104538883Y-102302589D01*
X104256399Y-102246398D01*
X104256394Y-102246399D01*
X97494476Y-102246399D01*
X97494471Y-102246398D01*
X97211987Y-102302589D01*
X97155796Y-102313766D01*
X96868681Y-102505609D01*
X96868679Y-102505612D01*
X96185609Y-103188681D01*
X95993766Y-103475796D01*
X95993766Y-103475797D01*
X95926398Y-103814471D01*
X95926399Y-103814476D01*
X95926399Y-105671394D01*
X95926398Y-105671399D01*
X95964645Y-105863674D01*
X95993766Y-106010074D01*
X96165860Y-106267633D01*
X96185609Y-106297189D01*
X96635609Y-106747188D01*
X96635611Y-106747191D01*
X96642895Y-106754475D01*
X96597041Y-106985000D01*
X96711115Y-107558489D01*
X97035971Y-108044670D01*
X97350752Y-108255000D01*
X97035971Y-108465330D01*
X96711115Y-108951511D01*
X96597041Y-109525000D01*
X96711115Y-110098489D01*
X97035971Y-110584670D01*
X97350752Y-110795000D01*
X97035971Y-111005330D01*
X96711115Y-111491511D01*
X96597041Y-112065000D01*
X96711115Y-112638489D01*
X97035971Y-113124670D01*
X97359228Y-113340664D01*
X97236510Y-113398179D01*
X96842312Y-113830053D01*
X96670042Y-114245974D01*
X96791183Y-114478000D01*
X97998000Y-114478000D01*
X97998000Y-114458000D01*
X98252000Y-114458000D01*
X98252000Y-114478000D01*
X100538000Y-114478000D01*
X100538000Y-114458000D01*
X100792000Y-114458000D01*
X100792000Y-114478000D01*
X101998817Y-114478000D01*
X102119958Y-114245974D01*
X101947688Y-113830053D01*
X101553490Y-113398179D01*
X101430772Y-113340664D01*
X101754029Y-113124670D01*
X101870740Y-112950000D01*
X109348420Y-112950000D01*
X110032255Y-113633834D01*
X110081883Y-113753943D01*
X110250533Y-113922888D01*
X109333420Y-114840000D01*
X104425005Y-114840000D01*
X104425000Y-114839999D01*
X104086325Y-114907367D01*
X103799210Y-115099210D01*
X103799208Y-115099213D01*
X102638420Y-116260000D01*
X102172013Y-116260000D01*
X102131762Y-116046083D01*
X101992690Y-115829959D01*
X101780490Y-115684969D01*
X101686625Y-115665961D01*
X101947688Y-115379947D01*
X102119958Y-114964026D01*
X101998817Y-114732000D01*
X100792000Y-114732000D01*
X100792000Y-114752000D01*
X100538000Y-114752000D01*
X100538000Y-114732000D01*
X98252000Y-114732000D01*
X98252000Y-114752000D01*
X97998000Y-114752000D01*
X97998000Y-114732000D01*
X96791183Y-114732000D01*
X96670042Y-114964026D01*
X96842312Y-115379947D01*
X97236510Y-115811821D01*
X97359228Y-115869336D01*
X97035971Y-116085330D01*
X96711115Y-116571511D01*
X96597041Y-117145000D01*
X96711115Y-117718489D01*
X97035971Y-118204670D01*
X97522152Y-118529526D01*
X98095641Y-118643600D01*
X98154359Y-118643600D01*
X98727848Y-118529526D01*
X99193442Y-118218426D01*
X99198238Y-118243917D01*
X99337310Y-118460041D01*
X99549510Y-118605031D01*
X99801400Y-118656040D01*
X101528600Y-118656040D01*
X101763917Y-118611762D01*
X101980041Y-118472690D01*
X102125031Y-118260490D01*
X102171706Y-118030000D01*
X103004995Y-118030000D01*
X103005000Y-118030001D01*
X103287484Y-117973810D01*
X103343675Y-117962633D01*
X103630790Y-117770790D01*
X104791579Y-116610000D01*
X109699995Y-116610000D01*
X109700000Y-116610001D01*
X109982484Y-116553810D01*
X110038675Y-116542633D01*
X110072274Y-116520183D01*
X110106883Y-116603943D01*
X110369673Y-116867192D01*
X110713201Y-117009838D01*
X111085167Y-117010162D01*
X111428943Y-116868117D01*
X111692192Y-116605327D01*
X111742566Y-116484014D01*
X112488421Y-115738158D01*
X112778943Y-115618117D01*
X113042192Y-115355327D01*
X113184838Y-115011799D01*
X113185162Y-114639833D01*
X113043117Y-114296057D01*
X112780327Y-114032808D01*
X112733922Y-114013539D01*
X112767192Y-113980327D01*
X112909838Y-113636799D01*
X112910162Y-113264833D01*
X112768117Y-112921057D01*
X112621346Y-112774030D01*
X112888201Y-112884838D01*
X113260167Y-112885162D01*
X113603943Y-112743117D01*
X113710333Y-112636912D01*
X117132255Y-116058834D01*
X117181883Y-116178943D01*
X117444673Y-116442192D01*
X117788201Y-116584838D01*
X118160167Y-116585162D01*
X118503943Y-116443117D01*
X118767192Y-116180327D01*
X118909838Y-115836799D01*
X118910162Y-115464833D01*
X118768117Y-115121057D01*
X118505327Y-114857808D01*
X118384013Y-114807434D01*
X118036626Y-114460046D01*
X123719559Y-114460046D01*
X123863469Y-114765312D01*
X124607186Y-115053605D01*
X125404615Y-115035344D01*
X126056531Y-114765312D01*
X126200441Y-114460046D01*
X124960000Y-113219605D01*
X123719559Y-114460046D01*
X118036626Y-114460046D01*
X116263766Y-112687186D01*
X122946395Y-112687186D01*
X122964656Y-113484615D01*
X123234688Y-114136531D01*
X123539954Y-114280441D01*
X124780395Y-113040000D01*
X123539954Y-111799559D01*
X123234688Y-111943469D01*
X122946395Y-112687186D01*
X116263766Y-112687186D01*
X111183766Y-107607186D01*
X122946395Y-107607186D01*
X122964656Y-108404615D01*
X123234688Y-109056531D01*
X123539954Y-109200441D01*
X124780395Y-107960000D01*
X123539954Y-106719559D01*
X123234688Y-106863469D01*
X122946395Y-107607186D01*
X111183766Y-107607186D01*
X109911580Y-106335000D01*
X123816179Y-106335000D01*
X123719559Y-106539954D01*
X124960000Y-107780395D01*
X126200441Y-106539954D01*
X126056531Y-106234688D01*
X125433430Y-105993150D01*
X129625787Y-101800792D01*
X129625790Y-101800790D01*
X129817633Y-101513675D01*
X129839460Y-101403943D01*
X129862698Y-101287122D01*
X129910317Y-101278162D01*
X130126441Y-101139090D01*
X130271431Y-100926890D01*
X130322440Y-100675000D01*
X130322440Y-99325000D01*
X130278162Y-99089683D01*
X130139090Y-98873559D01*
X129926890Y-98728569D01*
X129835194Y-98710000D01*
X131290000Y-98710000D01*
X131290000Y-106530392D01*
X131280440Y-106539952D01*
X131136531Y-106234688D01*
X130392814Y-105946395D01*
X129595385Y-105964656D01*
X128943469Y-106234688D01*
X128799559Y-106539954D01*
X130040000Y-107780395D01*
X130054143Y-107766253D01*
X130233748Y-107945858D01*
X130219605Y-107960000D01*
X130233748Y-107974143D01*
X130054143Y-108153748D01*
X130040000Y-108139605D01*
X130025858Y-108153748D01*
X129846253Y-107974143D01*
X129860395Y-107960000D01*
X128619954Y-106719559D01*
X128314688Y-106863469D01*
X128026395Y-107607186D01*
X128044656Y-108404615D01*
X128255394Y-108913381D01*
X127850623Y-108745306D01*
X127152441Y-108744697D01*
X126740156Y-108915049D01*
X126973605Y-108312814D01*
X126955344Y-107515385D01*
X126685312Y-106863469D01*
X126380046Y-106719559D01*
X125139605Y-107960000D01*
X125153748Y-107974143D01*
X124974143Y-108153748D01*
X124960000Y-108139605D01*
X123719559Y-109380046D01*
X123863469Y-109685312D01*
X124607186Y-109973605D01*
X125404615Y-109955344D01*
X125913381Y-109744606D01*
X125745306Y-110149377D01*
X125744697Y-110847559D01*
X125915049Y-111259844D01*
X125312814Y-111026395D01*
X124515385Y-111044656D01*
X123863469Y-111314688D01*
X123719559Y-111619954D01*
X124960000Y-112860395D01*
X124974143Y-112846253D01*
X125153748Y-113025858D01*
X125139605Y-113040000D01*
X126380046Y-114280441D01*
X126685312Y-114136531D01*
X126973605Y-113392814D01*
X126955344Y-112595385D01*
X126744606Y-112086619D01*
X127149377Y-112254694D01*
X127847559Y-112255303D01*
X128259844Y-112084951D01*
X128026395Y-112687186D01*
X128044656Y-113484615D01*
X128314688Y-114136531D01*
X128619954Y-114280441D01*
X129860395Y-113040000D01*
X129846253Y-113025858D01*
X130025858Y-112846253D01*
X130040000Y-112860395D01*
X130054143Y-112846253D01*
X130233748Y-113025858D01*
X130219605Y-113040000D01*
X130233748Y-113054143D01*
X130054143Y-113233748D01*
X130040000Y-113219605D01*
X128799559Y-114460046D01*
X128943469Y-114765312D01*
X129687186Y-115053605D01*
X130484615Y-115035344D01*
X131136531Y-114765312D01*
X131280440Y-114460048D01*
X131290000Y-114469608D01*
X131290000Y-120290000D01*
X94610000Y-120290000D01*
X94610000Y-98710000D01*
X94900000Y-98710000D01*
X94950000Y-98700054D01*
X95000000Y-98710000D01*
M02*
