M48
; DRILL file {KiCad 7.0.6+dfsg-1} date Wed 23 Aug 2023 02:28:12 PM CEST
; FORMAT={-:-/ absolute / metric / decimal}
; #@! TF.CreationDate,2023-08-23T14:28:12+02:00
; #@! TF.GenerationSoftware,Kicad,Pcbnew,7.0.6+dfsg-1
; #@! TF.FileFunction,Plated,1,4,PTH
FMAT,2
METRIC
; #@! TA.AperFunction,Plated,PTH,ViaDrill
T1C0.200
; #@! TA.AperFunction,Plated,PTH,ComponentDrill
T2C1.000
; #@! TA.AperFunction,Plated,PTH,ComponentDrill
T3C1.300
%
G90
G05
T1
X57.415Y-69.28
X57.415Y-100.28
X57.415Y-131.28
X57.415Y-162.28
X57.415Y-193.28
X57.425Y-47.66
X57.425Y-50.66
X57.425Y-53.66
X57.425Y-56.66
X57.425Y-59.66
X57.425Y-62.66
X57.425Y-65.66
X57.425Y-78.66
X57.425Y-81.66
X57.425Y-84.66
X57.425Y-87.66
X57.425Y-90.66
X57.425Y-93.66
X57.425Y-96.66
X57.425Y-109.66
X57.425Y-112.66
X57.425Y-115.66
X57.425Y-118.66
X57.425Y-121.66
X57.425Y-124.66
X57.425Y-127.66
X57.425Y-140.66
X57.425Y-143.66
X57.425Y-146.66
X57.425Y-149.66
X57.425Y-152.66
X57.425Y-155.66
X57.425Y-158.66
X57.425Y-171.66
X57.425Y-174.66
X57.425Y-177.66
X57.425Y-180.66
X57.425Y-183.66
X57.425Y-186.66
X57.425Y-189.66
X60.365Y-69.28
X60.365Y-100.28
X60.365Y-131.28
X60.365Y-162.28
X60.365Y-193.28
X60.425Y-47.66
X60.425Y-78.66
X60.425Y-109.66
X60.425Y-140.66
X60.425Y-171.66
X61.365Y-58.16
X61.365Y-89.16
X61.365Y-120.16
X61.365Y-151.16
X61.365Y-182.16
X61.395Y-54.28
X61.395Y-61.63
X61.395Y-85.28
X61.395Y-92.63
X61.395Y-116.28
X61.395Y-123.63
X61.395Y-147.28
X61.395Y-154.63
X61.395Y-178.28
X61.395Y-185.63
X63.365Y-69.28
X63.365Y-100.28
X63.365Y-131.28
X63.365Y-162.28
X63.365Y-193.28
X63.425Y-47.66
X63.425Y-78.66
X63.425Y-109.66
X63.425Y-140.66
X63.425Y-171.66
X63.563Y-57.339
X63.563Y-88.339
X63.563Y-119.339
X63.563Y-150.339
X63.563Y-181.339
X63.566Y-54.334
X63.566Y-58.825
X63.566Y-85.334
X63.566Y-89.825
X63.566Y-116.334
X63.566Y-120.825
X63.566Y-147.334
X63.566Y-151.825
X63.566Y-178.334
X63.566Y-182.825
X63.571Y-60.338
X63.571Y-91.338
X63.571Y-122.338
X63.571Y-153.338
X63.571Y-184.338
X63.581Y-61.842
X63.581Y-92.842
X63.581Y-123.842
X63.581Y-154.842
X63.581Y-185.842
X66.365Y-69.28
X66.365Y-100.28
X66.365Y-131.28
X66.365Y-162.28
X66.365Y-193.28
X66.425Y-47.66
X66.425Y-78.66
X66.425Y-109.66
X66.425Y-140.66
X66.425Y-171.66
X66.525Y-53.845
X66.525Y-84.845
X66.525Y-115.845
X66.525Y-146.845
X66.525Y-177.845
X67.351Y-55.891
X67.351Y-86.891
X67.351Y-117.891
X67.351Y-148.891
X67.351Y-179.891
X67.505Y-66.61
X67.505Y-97.61
X67.505Y-128.61
X67.505Y-159.61
X67.505Y-190.61
X67.525Y-51.03
X67.525Y-82.03
X67.525Y-113.03
X67.525Y-144.03
X67.525Y-175.03
X69.365Y-69.28
X69.365Y-100.28
X69.365Y-131.28
X69.365Y-162.28
X69.365Y-193.28
X69.425Y-47.66
X69.425Y-78.66
X69.425Y-109.66
X69.425Y-140.66
X69.425Y-171.66
X70.655Y-51.11
X70.655Y-82.11
X70.655Y-113.11
X70.655Y-144.11
X70.655Y-175.11
X70.955Y-64.58
X70.955Y-95.58
X70.955Y-126.58
X70.955Y-157.58
X70.955Y-188.58
X71.582Y-59.747
X71.582Y-90.747
X71.582Y-121.747
X71.582Y-152.747
X71.582Y-183.747
X71.648Y-58.238
X71.648Y-89.238
X71.648Y-120.238
X71.648Y-151.238
X71.648Y-182.238
X71.778Y-62.01
X71.778Y-93.01
X71.778Y-124.01
X71.778Y-155.01
X71.778Y-186.01
X72.085Y-65.66
X72.085Y-96.66
X72.085Y-127.66
X72.085Y-158.66
X72.085Y-189.66
X72.098Y-59.61
X72.098Y-90.61
X72.098Y-121.61
X72.098Y-152.61
X72.098Y-183.61
X72.108Y-56.93
X72.108Y-57.94
X72.108Y-87.93
X72.108Y-88.94
X72.108Y-118.93
X72.108Y-119.94
X72.108Y-149.93
X72.108Y-150.94
X72.108Y-180.93
X72.108Y-181.94
X72.272Y-61.654
X72.272Y-92.654
X72.272Y-123.654
X72.272Y-154.654
X72.272Y-185.654
X72.365Y-69.28
X72.365Y-100.28
X72.365Y-131.28
X72.365Y-162.28
X72.365Y-193.28
X72.425Y-47.66
X72.425Y-78.66
X72.425Y-109.66
X72.425Y-140.66
X72.425Y-171.66
X72.512Y-64.38
X72.512Y-95.38
X72.512Y-126.38
X72.512Y-157.38
X72.512Y-188.38
X72.789Y-54.632
X72.789Y-85.632
X72.789Y-116.632
X72.789Y-147.632
X72.789Y-178.632
X73.585Y-65.06
X73.585Y-96.06
X73.585Y-127.06
X73.585Y-158.06
X73.585Y-189.06
X74.645Y-65.07
X74.645Y-96.07
X74.645Y-127.07
X74.645Y-158.07
X74.645Y-189.07
X74.845Y-49.33
X74.845Y-80.33
X74.845Y-111.33
X74.845Y-142.33
X74.845Y-173.33
X75.115Y-66.24
X75.115Y-97.24
X75.115Y-128.24
X75.115Y-159.24
X75.115Y-190.24
X75.535Y-51.35
X75.535Y-82.35
X75.535Y-113.35
X75.535Y-144.35
X75.535Y-175.35
X75.585Y-54.2
X75.585Y-85.2
X75.585Y-116.2
X75.585Y-147.2
X75.585Y-178.2
X75.745Y-49.55
X75.745Y-80.55
X75.745Y-111.55
X75.745Y-142.55
X75.745Y-173.55
X75.875Y-52.09
X75.875Y-83.09
X75.875Y-114.09
X75.875Y-145.09
X75.875Y-176.09
X76.005Y-50.54
X76.005Y-81.54
X76.005Y-112.54
X76.005Y-143.54
X76.005Y-174.54
X76.675Y-50.1
X76.675Y-81.1
X76.675Y-112.1
X76.675Y-143.1
X76.675Y-174.1
X76.916Y-54.519
X76.916Y-85.519
X76.916Y-116.519
X76.916Y-147.519
X76.916Y-178.519
X77.179Y-65.21
X77.179Y-96.21
X77.179Y-127.21
X77.179Y-158.21
X77.179Y-189.21
X77.356Y-57.549
X77.356Y-88.549
X77.356Y-119.549
X77.356Y-150.549
X77.356Y-181.549
X77.605Y-64.57
X77.605Y-95.57
X77.605Y-126.57
X77.605Y-157.57
X77.605Y-188.57
X78.215Y-65.75
X78.215Y-96.75
X78.215Y-127.75
X78.215Y-158.75
X78.215Y-189.75
X78.365Y-69.28
X78.365Y-100.28
X78.365Y-131.28
X78.365Y-162.28
X78.365Y-193.28
X78.415Y-50.04
X78.415Y-81.04
X78.415Y-112.04
X78.415Y-143.04
X78.415Y-174.04
X78.415Y-67.73
X78.415Y-98.73
X78.415Y-129.73
X78.415Y-160.73
X78.415Y-191.73
X78.425Y-47.66
X78.425Y-78.66
X78.425Y-109.66
X78.425Y-140.66
X78.425Y-171.66
X78.572Y-55.195
X78.572Y-86.195
X78.572Y-117.195
X78.572Y-148.195
X78.572Y-179.195
X79.165Y-63.67
X79.165Y-94.67
X79.165Y-125.67
X79.165Y-156.67
X79.165Y-187.67
X79.307Y-50.62
X79.307Y-81.62
X79.307Y-112.62
X79.307Y-143.62
X79.307Y-174.62
X79.443Y-51.28
X79.443Y-82.28
X79.443Y-113.28
X79.443Y-144.28
X79.443Y-175.28
X79.455Y-61.48
X79.455Y-92.48
X79.455Y-123.48
X79.455Y-154.48
X79.455Y-185.48
X79.568Y-57.557
X79.568Y-88.557
X79.568Y-119.557
X79.568Y-150.557
X79.568Y-181.557
X79.91Y-63.722
X79.91Y-94.722
X79.91Y-125.722
X79.91Y-156.722
X79.91Y-187.722
X79.945Y-60.86
X79.945Y-91.86
X79.945Y-122.86
X79.945Y-153.86
X79.945Y-184.86
X80.118Y-56.959
X80.118Y-87.959
X80.118Y-118.959
X80.118Y-149.959
X80.118Y-180.959
X80.284Y-54.491
X80.284Y-85.491
X80.284Y-116.491
X80.284Y-147.491
X80.284Y-178.491
X80.435Y-49.84
X80.435Y-80.84
X80.435Y-111.84
X80.435Y-142.84
X80.435Y-173.84
X80.537Y-56.541
X80.537Y-87.541
X80.537Y-118.541
X80.537Y-149.541
X80.537Y-180.541
X80.945Y-56.07
X80.945Y-87.07
X80.945Y-118.07
X80.945Y-149.07
X80.945Y-180.07
X81.055Y-53.6
X81.055Y-84.6
X81.055Y-115.6
X81.055Y-146.6
X81.055Y-177.6
X81.106Y-60.878
X81.106Y-91.878
X81.106Y-122.878
X81.106Y-153.878
X81.106Y-184.878
X81.415Y-55.62
X81.415Y-86.62
X81.415Y-117.62
X81.415Y-148.62
X81.415Y-179.62
X81.425Y-47.66
X81.425Y-78.66
X81.425Y-109.66
X81.425Y-140.66
X81.425Y-171.66
X81.718Y-56.141
X81.718Y-87.141
X81.718Y-118.141
X81.718Y-149.141
X81.718Y-180.141
X81.778Y-49.2
X81.778Y-80.2
X81.778Y-111.2
X81.778Y-142.2
X81.778Y-173.2
X81.875Y-69.26
X81.875Y-100.26
X81.875Y-131.26
X81.875Y-162.26
X81.875Y-193.26
X81.886Y-60.903
X81.886Y-91.903
X81.886Y-122.903
X81.886Y-153.903
X81.886Y-184.903
X82.137Y-56.559
X82.137Y-87.559
X82.137Y-118.559
X82.137Y-149.559
X82.137Y-180.559
X82.445Y-54.76
X82.445Y-85.76
X82.445Y-116.76
X82.445Y-147.76
X82.445Y-178.76
X82.645Y-60.19
X82.645Y-91.19
X82.645Y-122.19
X82.645Y-153.19
X82.645Y-184.19
X82.655Y-48.63
X82.655Y-79.63
X82.655Y-110.63
X82.655Y-141.63
X82.655Y-172.63
X82.928Y-57.154
X82.928Y-57.746
X82.928Y-88.154
X82.928Y-88.746
X82.928Y-119.154
X82.928Y-119.746
X82.928Y-150.154
X82.928Y-150.746
X82.928Y-181.154
X82.928Y-181.746
X83.359Y-68.05
X83.359Y-99.05
X83.359Y-130.05
X83.359Y-161.05
X83.359Y-192.05
X83.628Y-58.154
X83.628Y-58.746
X83.628Y-89.154
X83.628Y-89.746
X83.628Y-120.154
X83.628Y-120.746
X83.628Y-151.154
X83.628Y-151.746
X83.628Y-182.154
X83.628Y-182.746
X83.977Y-65.512
X83.977Y-96.512
X83.977Y-127.512
X83.977Y-158.512
X83.977Y-189.512
X84.405Y-61.75
X84.405Y-92.75
X84.405Y-123.75
X84.405Y-154.75
X84.405Y-185.75
X84.425Y-47.66
X84.425Y-78.66
X84.425Y-109.66
X84.425Y-140.66
X84.425Y-171.66
X84.655Y-54.78
X84.655Y-85.78
X84.655Y-116.78
X84.655Y-147.78
X84.655Y-178.78
X85.035Y-60.58
X85.035Y-91.58
X85.035Y-122.58
X85.035Y-153.58
X85.035Y-184.58
X85.115Y-56.71
X85.115Y-87.71
X85.115Y-118.71
X85.115Y-149.71
X85.115Y-180.71
X85.43Y-57.615
X85.43Y-88.615
X85.43Y-119.615
X85.43Y-150.615
X85.43Y-181.615
X85.535Y-69.26
X85.535Y-100.26
X85.535Y-131.26
X85.535Y-162.26
X85.535Y-193.26
X85.791Y-65.848
X85.791Y-96.848
X85.791Y-127.848
X85.791Y-158.848
X85.791Y-189.848
X85.905Y-53.06
X85.905Y-84.06
X85.905Y-115.06
X85.905Y-146.06
X85.905Y-177.06
X85.968Y-52.367
X85.968Y-83.367
X85.968Y-114.367
X85.968Y-145.367
X85.968Y-176.367
X86.192Y-66.21
X86.192Y-97.21
X86.192Y-128.21
X86.192Y-159.21
X86.192Y-190.21
X86.848Y-62.359
X86.848Y-93.359
X86.848Y-124.359
X86.848Y-155.359
X86.848Y-186.359
X87.137Y-66.06
X87.137Y-97.06
X87.137Y-128.06
X87.137Y-159.06
X87.137Y-190.06
X87.328Y-63.25
X87.328Y-94.25
X87.328Y-125.25
X87.328Y-156.25
X87.328Y-187.25
X87.425Y-47.66
X87.425Y-78.66
X87.425Y-109.66
X87.425Y-140.66
X87.425Y-171.66
X87.535Y-54.83
X87.535Y-85.83
X87.535Y-116.83
X87.535Y-147.83
X87.535Y-178.83
X87.625Y-64.68
X87.625Y-95.68
X87.625Y-126.68
X87.625Y-157.68
X87.625Y-188.68
X87.976Y-52.011
X87.976Y-83.011
X87.976Y-114.011
X87.976Y-145.011
X87.976Y-176.011
X88.025Y-62.21
X88.025Y-93.21
X88.025Y-124.21
X88.025Y-155.21
X88.025Y-186.21
X88.145Y-57.0
X88.145Y-88.0
X88.145Y-119.0
X88.145Y-150.0
X88.145Y-181.0
X88.155Y-49.49
X88.155Y-80.49
X88.155Y-111.49
X88.155Y-142.49
X88.155Y-173.49
X88.265Y-59.9
X88.265Y-90.9
X88.265Y-121.9
X88.265Y-152.9
X88.265Y-183.9
X90.985Y-50.39
X90.985Y-81.39
X90.985Y-112.39
X90.985Y-143.39
X90.985Y-174.39
X91.025Y-52.16
X91.025Y-83.16
X91.025Y-114.16
X91.025Y-145.16
X91.025Y-176.16
X91.075Y-54.95
X91.075Y-85.95
X91.075Y-116.95
X91.075Y-147.95
X91.075Y-178.95
X91.085Y-60.13
X91.085Y-91.13
X91.085Y-122.13
X91.085Y-153.13
X91.085Y-184.13
X91.105Y-58.15
X91.105Y-89.15
X91.105Y-120.15
X91.105Y-151.15
X91.105Y-182.15
X93.425Y-47.66
X93.425Y-78.66
X93.425Y-109.66
X93.425Y-140.66
X93.425Y-171.66
X95.345Y-50.66
X95.345Y-53.66
X95.345Y-56.66
X95.345Y-59.66
X95.345Y-62.66
X95.345Y-65.66
X95.345Y-81.66
X95.345Y-84.66
X95.345Y-87.66
X95.345Y-90.66
X95.345Y-93.66
X95.345Y-96.66
X95.345Y-112.66
X95.345Y-115.66
X95.345Y-118.66
X95.345Y-121.66
X95.345Y-124.66
X95.345Y-127.66
X95.345Y-143.66
X95.345Y-146.66
X95.345Y-149.66
X95.345Y-152.66
X95.345Y-155.66
X95.345Y-158.66
X95.345Y-174.66
X95.345Y-177.66
X95.345Y-180.66
X95.345Y-183.66
X95.345Y-186.66
X95.345Y-189.66
X95.375Y-47.66
X95.375Y-78.66
X95.375Y-109.66
X95.375Y-140.66
X95.375Y-171.66
X95.385Y-69.22
X95.385Y-100.22
X95.385Y-131.22
X95.385Y-162.22
X95.385Y-193.22
X105.415Y-69.28
X105.415Y-100.28
X105.415Y-131.28
X105.415Y-162.28
X105.415Y-193.28
X105.425Y-47.66
X105.425Y-50.66
X105.425Y-53.66
X105.425Y-56.66
X105.425Y-59.66
X105.425Y-62.66
X105.425Y-65.66
X105.425Y-78.66
X105.425Y-81.66
X105.425Y-84.66
X105.425Y-87.66
X105.425Y-90.66
X105.425Y-93.66
X105.425Y-96.66
X105.425Y-109.66
X105.425Y-112.66
X105.425Y-115.66
X105.425Y-118.66
X105.425Y-121.66
X105.425Y-124.66
X105.425Y-127.66
X105.425Y-140.66
X105.425Y-143.66
X105.425Y-146.66
X105.425Y-149.66
X105.425Y-152.66
X105.425Y-155.66
X105.425Y-158.66
X105.425Y-171.66
X105.425Y-174.66
X105.425Y-177.66
X105.425Y-180.66
X105.425Y-183.66
X105.425Y-186.66
X105.425Y-189.66
X108.365Y-69.28
X108.365Y-100.28
X108.365Y-131.28
X108.365Y-162.28
X108.365Y-193.28
X108.425Y-47.66
X108.425Y-78.66
X108.425Y-109.66
X108.425Y-140.66
X108.425Y-171.66
X109.365Y-58.16
X109.365Y-89.16
X109.365Y-120.16
X109.365Y-151.16
X109.365Y-182.16
X109.395Y-54.28
X109.395Y-61.63
X109.395Y-85.28
X109.395Y-92.63
X109.395Y-116.28
X109.395Y-123.63
X109.395Y-147.28
X109.395Y-154.63
X109.395Y-178.28
X109.395Y-185.63
X111.365Y-69.28
X111.365Y-100.28
X111.365Y-131.28
X111.365Y-162.28
X111.365Y-193.28
X111.425Y-47.66
X111.425Y-78.66
X111.425Y-109.66
X111.425Y-140.66
X111.425Y-171.66
X111.563Y-57.339
X111.563Y-88.339
X111.563Y-119.339
X111.563Y-150.339
X111.563Y-181.339
X111.566Y-54.334
X111.566Y-58.825
X111.566Y-85.334
X111.566Y-89.825
X111.566Y-116.334
X111.566Y-120.825
X111.566Y-147.334
X111.566Y-151.825
X111.566Y-178.334
X111.566Y-182.825
X111.571Y-60.338
X111.571Y-91.338
X111.571Y-122.338
X111.571Y-153.338
X111.571Y-184.338
X111.581Y-61.842
X111.581Y-92.842
X111.581Y-123.842
X111.581Y-154.842
X111.581Y-185.842
X114.365Y-69.28
X114.365Y-100.28
X114.365Y-131.28
X114.365Y-162.28
X114.365Y-193.28
X114.425Y-47.66
X114.425Y-78.66
X114.425Y-109.66
X114.425Y-140.66
X114.425Y-171.66
X114.525Y-53.845
X114.525Y-84.845
X114.525Y-115.845
X114.525Y-146.845
X114.525Y-177.845
X115.35Y-55.891
X115.35Y-86.891
X115.35Y-117.891
X115.35Y-148.891
X115.35Y-179.891
X115.505Y-66.61
X115.505Y-97.61
X115.505Y-128.61
X115.505Y-159.61
X115.505Y-190.61
X115.525Y-51.03
X115.525Y-82.03
X115.525Y-113.03
X115.525Y-144.03
X115.525Y-175.03
X117.365Y-69.28
X117.365Y-100.28
X117.365Y-131.28
X117.365Y-162.28
X117.365Y-193.28
X117.425Y-47.66
X117.425Y-78.66
X117.425Y-109.66
X117.425Y-140.66
X117.425Y-171.66
X118.655Y-51.11
X118.655Y-82.11
X118.655Y-113.11
X118.655Y-144.11
X118.655Y-175.11
X118.955Y-64.58
X118.955Y-95.58
X118.955Y-126.58
X118.955Y-157.58
X118.955Y-188.58
X119.582Y-59.747
X119.582Y-90.747
X119.582Y-121.747
X119.582Y-152.747
X119.582Y-183.747
X119.648Y-58.238
X119.648Y-89.238
X119.648Y-120.238
X119.648Y-151.238
X119.648Y-182.238
X119.778Y-62.01
X119.778Y-93.01
X119.778Y-124.01
X119.778Y-155.01
X119.778Y-186.01
X120.085Y-65.66
X120.085Y-96.66
X120.085Y-127.66
X120.085Y-158.66
X120.085Y-189.66
X120.098Y-59.61
X120.098Y-90.61
X120.098Y-121.61
X120.098Y-152.61
X120.098Y-183.61
X120.108Y-56.93
X120.108Y-57.94
X120.108Y-87.93
X120.108Y-88.94
X120.108Y-118.93
X120.108Y-119.94
X120.108Y-149.93
X120.108Y-150.94
X120.108Y-180.93
X120.108Y-181.94
X120.271Y-61.654
X120.271Y-92.654
X120.271Y-123.654
X120.271Y-154.654
X120.271Y-185.654
X120.365Y-69.28
X120.365Y-100.28
X120.365Y-131.28
X120.365Y-162.28
X120.365Y-193.28
X120.425Y-47.66
X120.425Y-78.66
X120.425Y-109.66
X120.425Y-140.66
X120.425Y-171.66
X120.512Y-64.38
X120.512Y-95.38
X120.512Y-126.38
X120.512Y-157.38
X120.512Y-188.38
X120.789Y-54.632
X120.789Y-85.632
X120.789Y-116.632
X120.789Y-147.632
X120.789Y-178.632
X121.585Y-65.06
X121.585Y-96.06
X121.585Y-127.06
X121.585Y-158.06
X121.585Y-189.06
X122.645Y-65.07
X122.645Y-96.07
X122.645Y-127.07
X122.645Y-158.07
X122.645Y-189.07
X122.845Y-49.33
X122.845Y-80.33
X122.845Y-111.33
X122.845Y-142.33
X122.845Y-173.33
X123.115Y-66.24
X123.115Y-97.24
X123.115Y-128.24
X123.115Y-159.24
X123.115Y-190.24
X123.535Y-51.35
X123.535Y-82.35
X123.535Y-113.35
X123.535Y-144.35
X123.535Y-175.35
X123.585Y-54.2
X123.585Y-85.2
X123.585Y-116.2
X123.585Y-147.2
X123.585Y-178.2
X123.745Y-49.55
X123.745Y-80.55
X123.745Y-111.55
X123.745Y-142.55
X123.745Y-173.55
X123.875Y-52.09
X123.875Y-83.09
X123.875Y-114.09
X123.875Y-145.09
X123.875Y-176.09
X124.005Y-50.54
X124.005Y-81.54
X124.005Y-112.54
X124.005Y-143.54
X124.005Y-174.54
X124.675Y-50.1
X124.675Y-81.1
X124.675Y-112.1
X124.675Y-143.1
X124.675Y-174.1
X124.916Y-54.519
X124.916Y-85.519
X124.916Y-116.519
X124.916Y-147.519
X124.916Y-178.519
X125.179Y-65.21
X125.179Y-96.21
X125.179Y-127.21
X125.179Y-158.21
X125.179Y-189.21
X125.356Y-57.549
X125.356Y-88.549
X125.356Y-119.549
X125.356Y-150.549
X125.356Y-181.549
X125.605Y-64.57
X125.605Y-95.57
X125.605Y-126.57
X125.605Y-157.57
X125.605Y-188.57
X126.215Y-65.75
X126.215Y-96.75
X126.215Y-127.75
X126.215Y-158.75
X126.215Y-189.75
X126.365Y-69.28
X126.365Y-100.28
X126.365Y-131.28
X126.365Y-162.28
X126.365Y-193.28
X126.414Y-50.04
X126.414Y-81.04
X126.414Y-112.04
X126.414Y-143.04
X126.414Y-174.04
X126.415Y-67.73
X126.415Y-98.73
X126.415Y-129.73
X126.415Y-160.73
X126.415Y-191.73
X126.425Y-47.66
X126.425Y-78.66
X126.425Y-109.66
X126.425Y-140.66
X126.425Y-171.66
X126.572Y-55.195
X126.572Y-86.195
X126.572Y-117.195
X126.572Y-148.195
X126.572Y-179.195
X127.165Y-63.67
X127.165Y-94.67
X127.165Y-125.67
X127.165Y-156.67
X127.165Y-187.67
X127.307Y-50.62
X127.307Y-81.62
X127.307Y-112.62
X127.307Y-143.62
X127.307Y-174.62
X127.443Y-51.28
X127.443Y-82.28
X127.443Y-113.28
X127.443Y-144.28
X127.443Y-175.28
X127.455Y-61.48
X127.455Y-92.48
X127.455Y-123.48
X127.455Y-154.48
X127.455Y-185.48
X127.568Y-57.557
X127.568Y-88.557
X127.568Y-119.557
X127.568Y-150.557
X127.568Y-181.557
X127.91Y-63.722
X127.91Y-94.722
X127.91Y-125.722
X127.91Y-156.722
X127.91Y-187.722
X127.945Y-60.86
X127.945Y-91.86
X127.945Y-122.86
X127.945Y-153.86
X127.945Y-184.86
X128.118Y-56.959
X128.118Y-87.959
X128.118Y-118.959
X128.118Y-149.959
X128.118Y-180.959
X128.284Y-54.491
X128.284Y-85.491
X128.284Y-116.491
X128.284Y-147.491
X128.284Y-178.491
X128.435Y-49.84
X128.435Y-80.84
X128.435Y-111.84
X128.435Y-142.84
X128.435Y-173.84
X128.537Y-56.541
X128.537Y-87.541
X128.537Y-118.541
X128.537Y-149.541
X128.537Y-180.541
X128.945Y-56.07
X128.945Y-87.07
X128.945Y-118.07
X128.945Y-149.07
X128.945Y-180.07
X129.055Y-53.6
X129.055Y-84.6
X129.055Y-115.6
X129.055Y-146.6
X129.055Y-177.6
X129.106Y-60.878
X129.106Y-91.878
X129.106Y-122.878
X129.106Y-153.878
X129.106Y-184.878
X129.415Y-55.62
X129.415Y-86.62
X129.415Y-117.62
X129.415Y-148.62
X129.415Y-179.62
X129.425Y-47.66
X129.425Y-78.66
X129.425Y-109.66
X129.425Y-140.66
X129.425Y-171.66
X129.718Y-56.141
X129.718Y-87.141
X129.718Y-118.141
X129.718Y-149.141
X129.718Y-180.141
X129.778Y-49.2
X129.778Y-80.2
X129.778Y-111.2
X129.778Y-142.2
X129.778Y-173.2
X129.875Y-69.26
X129.875Y-100.26
X129.875Y-131.26
X129.875Y-162.26
X129.875Y-193.26
X129.886Y-60.903
X129.886Y-91.903
X129.886Y-122.903
X129.886Y-153.903
X129.886Y-184.903
X130.137Y-56.559
X130.137Y-87.559
X130.137Y-118.559
X130.137Y-149.559
X130.137Y-180.559
X130.445Y-54.76
X130.445Y-85.76
X130.445Y-116.76
X130.445Y-147.76
X130.445Y-178.76
X130.645Y-60.19
X130.645Y-91.19
X130.645Y-122.19
X130.645Y-153.19
X130.645Y-184.19
X130.655Y-48.63
X130.655Y-79.63
X130.655Y-110.63
X130.655Y-141.63
X130.655Y-172.63
X130.928Y-57.154
X130.928Y-57.746
X130.928Y-88.154
X130.928Y-88.746
X130.928Y-119.154
X130.928Y-119.746
X130.928Y-150.154
X130.928Y-150.746
X130.928Y-181.154
X130.928Y-181.746
X131.359Y-68.05
X131.359Y-99.05
X131.359Y-130.05
X131.359Y-161.05
X131.359Y-192.05
X131.628Y-58.154
X131.628Y-58.746
X131.628Y-89.154
X131.628Y-89.746
X131.628Y-120.154
X131.628Y-120.746
X131.628Y-151.154
X131.628Y-151.746
X131.628Y-182.154
X131.628Y-182.746
X131.977Y-65.512
X131.977Y-96.512
X131.977Y-127.512
X131.977Y-158.512
X131.977Y-189.512
X132.405Y-61.75
X132.405Y-92.75
X132.405Y-123.75
X132.405Y-154.75
X132.405Y-185.75
X132.425Y-47.66
X132.425Y-78.66
X132.425Y-109.66
X132.425Y-140.66
X132.425Y-171.66
X132.655Y-54.78
X132.655Y-85.78
X132.655Y-116.78
X132.655Y-147.78
X132.655Y-178.78
X133.035Y-60.58
X133.035Y-91.58
X133.035Y-122.58
X133.035Y-153.58
X133.035Y-184.58
X133.115Y-56.71
X133.115Y-87.71
X133.115Y-118.71
X133.115Y-149.71
X133.115Y-180.71
X133.43Y-57.615
X133.43Y-88.615
X133.43Y-119.615
X133.43Y-150.615
X133.43Y-181.615
X133.535Y-69.26
X133.535Y-100.26
X133.535Y-131.26
X133.535Y-162.26
X133.535Y-193.26
X133.791Y-65.848
X133.791Y-96.848
X133.791Y-127.848
X133.791Y-158.848
X133.791Y-189.848
X133.905Y-53.06
X133.905Y-84.06
X133.905Y-115.06
X133.905Y-146.06
X133.905Y-177.06
X133.968Y-52.367
X133.968Y-83.367
X133.968Y-114.367
X133.968Y-145.367
X133.968Y-176.367
X134.192Y-66.21
X134.192Y-97.21
X134.192Y-128.21
X134.192Y-159.21
X134.192Y-190.21
X134.848Y-62.359
X134.848Y-93.359
X134.848Y-124.359
X134.848Y-155.359
X134.848Y-186.359
X135.137Y-66.06
X135.137Y-97.06
X135.137Y-128.06
X135.137Y-159.06
X135.137Y-190.06
X135.328Y-63.25
X135.328Y-94.25
X135.328Y-125.25
X135.328Y-156.25
X135.328Y-187.25
X135.425Y-47.66
X135.425Y-78.66
X135.425Y-109.66
X135.425Y-140.66
X135.425Y-171.66
X135.535Y-54.83
X135.535Y-85.83
X135.535Y-116.83
X135.535Y-147.83
X135.535Y-178.83
X135.625Y-64.68
X135.625Y-95.68
X135.625Y-126.68
X135.625Y-157.68
X135.625Y-188.68
X135.976Y-52.011
X135.976Y-83.011
X135.976Y-114.011
X135.976Y-145.011
X135.976Y-176.011
X136.025Y-62.21
X136.025Y-93.21
X136.025Y-124.21
X136.025Y-155.21
X136.025Y-186.21
X136.145Y-57.0
X136.145Y-88.0
X136.145Y-119.0
X136.145Y-150.0
X136.145Y-181.0
X136.155Y-49.49
X136.155Y-80.49
X136.155Y-111.49
X136.155Y-142.49
X136.155Y-173.49
X136.265Y-59.9
X136.265Y-90.9
X136.265Y-121.9
X136.265Y-152.9
X136.265Y-183.9
X138.985Y-50.39
X138.985Y-81.39
X138.985Y-112.39
X138.985Y-143.39
X138.985Y-174.39
X139.025Y-52.16
X139.025Y-83.16
X139.025Y-114.16
X139.025Y-145.16
X139.025Y-176.16
X139.075Y-54.95
X139.075Y-85.95
X139.075Y-116.95
X139.075Y-147.95
X139.075Y-178.95
X139.085Y-60.13
X139.085Y-91.13
X139.085Y-122.13
X139.085Y-153.13
X139.085Y-184.13
X139.105Y-58.15
X139.105Y-89.15
X139.105Y-120.15
X139.105Y-151.15
X139.105Y-182.15
X141.425Y-47.66
X141.425Y-78.66
X141.425Y-109.66
X141.425Y-140.66
X141.425Y-171.66
X143.345Y-50.66
X143.345Y-53.66
X143.345Y-56.66
X143.345Y-59.66
X143.345Y-62.66
X143.345Y-65.66
X143.345Y-81.66
X143.345Y-84.66
X143.345Y-87.66
X143.345Y-90.66
X143.345Y-93.66
X143.345Y-96.66
X143.345Y-112.66
X143.345Y-115.66
X143.345Y-118.66
X143.345Y-121.66
X143.345Y-124.66
X143.345Y-127.66
X143.345Y-143.66
X143.345Y-146.66
X143.345Y-149.66
X143.345Y-152.66
X143.345Y-155.66
X143.345Y-158.66
X143.345Y-174.66
X143.345Y-177.66
X143.345Y-180.66
X143.345Y-183.66
X143.345Y-186.66
X143.345Y-189.66
X143.375Y-47.66
X143.375Y-78.66
X143.375Y-109.66
X143.375Y-140.66
X143.375Y-171.66
X143.385Y-69.22
X143.385Y-100.22
X143.385Y-131.22
X143.385Y-162.22
X143.385Y-193.22
X153.415Y-69.28
X153.415Y-100.28
X153.415Y-131.28
X153.415Y-162.28
X153.415Y-193.28
X153.425Y-47.66
X153.425Y-50.66
X153.425Y-53.66
X153.425Y-56.66
X153.425Y-59.66
X153.425Y-62.66
X153.425Y-65.66
X153.425Y-78.66
X153.425Y-81.66
X153.425Y-84.66
X153.425Y-87.66
X153.425Y-90.66
X153.425Y-93.66
X153.425Y-96.66
X153.425Y-109.66
X153.425Y-112.66
X153.425Y-115.66
X153.425Y-118.66
X153.425Y-121.66
X153.425Y-124.66
X153.425Y-127.66
X153.425Y-140.66
X153.425Y-143.66
X153.425Y-146.66
X153.425Y-149.66
X153.425Y-152.66
X153.425Y-155.66
X153.425Y-158.66
X153.425Y-171.66
X153.425Y-174.66
X153.425Y-177.66
X153.425Y-180.66
X153.425Y-183.66
X153.425Y-186.66
X153.425Y-189.66
X156.365Y-69.28
X156.365Y-100.28
X156.365Y-131.28
X156.365Y-162.28
X156.365Y-193.28
X156.425Y-47.66
X156.425Y-78.66
X156.425Y-109.66
X156.425Y-140.66
X156.425Y-171.66
X157.365Y-58.16
X157.365Y-89.16
X157.365Y-120.16
X157.365Y-151.16
X157.365Y-182.16
X157.395Y-54.28
X157.395Y-61.63
X157.395Y-85.28
X157.395Y-92.63
X157.395Y-116.28
X157.395Y-123.63
X157.395Y-147.28
X157.395Y-154.63
X157.395Y-178.28
X157.395Y-185.63
X159.365Y-69.28
X159.365Y-100.28
X159.365Y-131.28
X159.365Y-162.28
X159.365Y-193.28
X159.425Y-47.66
X159.425Y-78.66
X159.425Y-109.66
X159.425Y-140.66
X159.425Y-171.66
X159.563Y-57.339
X159.563Y-88.339
X159.563Y-119.339
X159.563Y-150.339
X159.563Y-181.339
X159.566Y-54.334
X159.566Y-58.825
X159.566Y-85.334
X159.566Y-89.825
X159.566Y-116.334
X159.566Y-120.825
X159.566Y-147.334
X159.566Y-151.825
X159.566Y-178.334
X159.566Y-182.825
X159.571Y-60.338
X159.571Y-91.338
X159.571Y-122.338
X159.571Y-153.338
X159.571Y-184.338
X159.581Y-61.842
X159.581Y-92.842
X159.581Y-123.842
X159.581Y-154.842
X159.581Y-185.842
X162.365Y-69.28
X162.365Y-100.28
X162.365Y-131.28
X162.365Y-162.28
X162.365Y-193.28
X162.425Y-47.66
X162.425Y-78.66
X162.425Y-109.66
X162.425Y-140.66
X162.425Y-171.66
X162.525Y-53.845
X162.525Y-84.845
X162.525Y-115.845
X162.525Y-146.845
X162.525Y-177.845
X163.35Y-55.891
X163.35Y-86.891
X163.35Y-117.891
X163.35Y-148.891
X163.35Y-179.891
X163.505Y-66.61
X163.505Y-97.61
X163.505Y-128.61
X163.505Y-159.61
X163.505Y-190.61
X163.525Y-51.03
X163.525Y-82.03
X163.525Y-113.03
X163.525Y-144.03
X163.525Y-175.03
X165.365Y-69.28
X165.365Y-100.28
X165.365Y-131.28
X165.365Y-162.28
X165.365Y-193.28
X165.425Y-47.66
X165.425Y-78.66
X165.425Y-109.66
X165.425Y-140.66
X165.425Y-171.66
X166.655Y-51.11
X166.655Y-82.11
X166.655Y-113.11
X166.655Y-144.11
X166.655Y-175.11
X166.955Y-64.58
X166.955Y-95.58
X166.955Y-126.58
X166.955Y-157.58
X166.955Y-188.58
X167.582Y-59.747
X167.582Y-90.747
X167.582Y-121.747
X167.582Y-152.747
X167.582Y-183.747
X167.648Y-58.238
X167.648Y-89.238
X167.648Y-120.238
X167.648Y-151.238
X167.648Y-182.238
X167.777Y-62.01
X167.777Y-93.01
X167.777Y-124.01
X167.777Y-155.01
X167.777Y-186.01
X168.085Y-65.66
X168.085Y-96.66
X168.085Y-127.66
X168.085Y-158.66
X168.085Y-189.66
X168.097Y-59.61
X168.097Y-90.61
X168.097Y-121.61
X168.097Y-152.61
X168.097Y-183.61
X168.107Y-56.93
X168.107Y-57.94
X168.107Y-87.93
X168.107Y-88.94
X168.107Y-118.93
X168.107Y-119.94
X168.107Y-149.93
X168.107Y-150.94
X168.107Y-180.93
X168.107Y-181.94
X168.271Y-61.654
X168.271Y-92.654
X168.271Y-123.654
X168.271Y-154.654
X168.271Y-185.654
X168.365Y-69.28
X168.365Y-100.28
X168.365Y-131.28
X168.365Y-162.28
X168.365Y-193.28
X168.425Y-47.66
X168.425Y-78.66
X168.425Y-109.66
X168.425Y-140.66
X168.425Y-171.66
X168.511Y-64.38
X168.511Y-95.38
X168.511Y-126.38
X168.511Y-157.38
X168.511Y-188.38
X168.789Y-54.632
X168.789Y-85.632
X168.789Y-116.632
X168.789Y-147.632
X168.789Y-178.632
X169.585Y-65.06
X169.585Y-96.06
X169.585Y-127.06
X169.585Y-158.06
X169.585Y-189.06
X170.645Y-65.07
X170.645Y-96.07
X170.645Y-127.07
X170.645Y-158.07
X170.645Y-189.07
X170.845Y-49.33
X170.845Y-80.33
X170.845Y-111.33
X170.845Y-142.33
X170.845Y-173.33
X171.115Y-66.24
X171.115Y-97.24
X171.115Y-128.24
X171.115Y-159.24
X171.115Y-190.24
X171.535Y-51.35
X171.535Y-82.35
X171.535Y-113.35
X171.535Y-144.35
X171.535Y-175.35
X171.585Y-54.2
X171.585Y-85.2
X171.585Y-116.2
X171.585Y-147.2
X171.585Y-178.2
X171.745Y-49.55
X171.745Y-80.55
X171.745Y-111.55
X171.745Y-142.55
X171.745Y-173.55
X171.875Y-52.09
X171.875Y-83.09
X171.875Y-114.09
X171.875Y-145.09
X171.875Y-176.09
X172.005Y-50.54
X172.005Y-81.54
X172.005Y-112.54
X172.005Y-143.54
X172.005Y-174.54
X172.675Y-50.1
X172.675Y-81.1
X172.675Y-112.1
X172.675Y-143.1
X172.675Y-174.1
X172.916Y-54.519
X172.916Y-85.519
X172.916Y-116.519
X172.916Y-147.519
X172.916Y-178.519
X173.178Y-65.21
X173.178Y-96.21
X173.178Y-127.21
X173.178Y-158.21
X173.178Y-189.21
X173.356Y-57.549
X173.356Y-88.549
X173.356Y-119.549
X173.356Y-150.549
X173.356Y-181.549
X173.605Y-64.57
X173.605Y-95.57
X173.605Y-126.57
X173.605Y-157.57
X173.605Y-188.57
X174.215Y-65.75
X174.215Y-96.75
X174.215Y-127.75
X174.215Y-158.75
X174.215Y-189.75
X174.365Y-69.28
X174.365Y-100.28
X174.365Y-131.28
X174.365Y-162.28
X174.365Y-193.28
X174.414Y-50.04
X174.414Y-81.04
X174.414Y-112.04
X174.414Y-143.04
X174.414Y-174.04
X174.415Y-67.73
X174.415Y-98.73
X174.415Y-129.73
X174.415Y-160.73
X174.415Y-191.73
X174.425Y-47.66
X174.425Y-78.66
X174.425Y-109.66
X174.425Y-140.66
X174.425Y-171.66
X174.572Y-55.195
X174.572Y-86.195
X174.572Y-117.195
X174.572Y-148.195
X174.572Y-179.195
X175.165Y-63.67
X175.165Y-94.67
X175.165Y-125.67
X175.165Y-156.67
X175.165Y-187.67
X175.307Y-50.62
X175.307Y-81.62
X175.307Y-112.62
X175.307Y-143.62
X175.307Y-174.62
X175.442Y-51.28
X175.442Y-82.28
X175.442Y-113.28
X175.442Y-144.28
X175.442Y-175.28
X175.455Y-61.48
X175.455Y-92.48
X175.455Y-123.48
X175.455Y-154.48
X175.455Y-185.48
X175.568Y-57.557
X175.568Y-88.557
X175.568Y-119.557
X175.568Y-150.557
X175.568Y-181.557
X175.91Y-63.722
X175.91Y-94.722
X175.91Y-125.722
X175.91Y-156.722
X175.91Y-187.722
X175.945Y-60.86
X175.945Y-91.86
X175.945Y-122.86
X175.945Y-153.86
X175.945Y-184.86
X176.118Y-56.959
X176.118Y-87.959
X176.118Y-118.959
X176.118Y-149.959
X176.118Y-180.959
X176.284Y-54.491
X176.284Y-85.491
X176.284Y-116.491
X176.284Y-147.491
X176.284Y-178.491
X176.435Y-49.84
X176.435Y-80.84
X176.435Y-111.84
X176.435Y-142.84
X176.435Y-173.84
X176.537Y-56.541
X176.537Y-87.541
X176.537Y-118.541
X176.537Y-149.541
X176.537Y-180.541
X176.945Y-56.07
X176.945Y-87.07
X176.945Y-118.07
X176.945Y-149.07
X176.945Y-180.07
X177.055Y-53.6
X177.055Y-84.6
X177.055Y-115.6
X177.055Y-146.6
X177.055Y-177.6
X177.106Y-60.878
X177.106Y-91.878
X177.106Y-122.878
X177.106Y-153.878
X177.106Y-184.878
X177.415Y-55.62
X177.415Y-86.62
X177.415Y-117.62
X177.415Y-148.62
X177.415Y-179.62
X177.425Y-47.66
X177.425Y-78.66
X177.425Y-109.66
X177.425Y-140.66
X177.425Y-171.66
X177.718Y-56.141
X177.718Y-87.141
X177.718Y-118.141
X177.718Y-149.141
X177.718Y-180.141
X177.778Y-49.2
X177.778Y-80.2
X177.778Y-111.2
X177.778Y-142.2
X177.778Y-173.2
X177.875Y-69.26
X177.875Y-100.26
X177.875Y-131.26
X177.875Y-162.26
X177.875Y-193.26
X177.885Y-60.903
X177.885Y-91.903
X177.885Y-122.903
X177.885Y-153.903
X177.885Y-184.903
X178.137Y-56.559
X178.137Y-87.559
X178.137Y-118.559
X178.137Y-149.559
X178.137Y-180.559
X178.445Y-54.76
X178.445Y-85.76
X178.445Y-116.76
X178.445Y-147.76
X178.445Y-178.76
X178.645Y-60.19
X178.645Y-91.19
X178.645Y-122.19
X178.645Y-153.19
X178.645Y-184.19
X178.655Y-48.63
X178.655Y-79.63
X178.655Y-110.63
X178.655Y-141.63
X178.655Y-172.63
X178.927Y-57.154
X178.927Y-57.746
X178.927Y-88.154
X178.927Y-88.746
X178.927Y-119.154
X178.927Y-119.746
X178.927Y-150.154
X178.927Y-150.746
X178.927Y-181.154
X178.927Y-181.746
X179.358Y-68.05
X179.358Y-99.05
X179.358Y-130.05
X179.358Y-161.05
X179.358Y-192.05
X179.627Y-58.154
X179.627Y-58.746
X179.627Y-89.154
X179.627Y-89.746
X179.627Y-120.154
X179.627Y-120.746
X179.627Y-151.154
X179.627Y-151.746
X179.627Y-182.154
X179.627Y-182.746
X179.977Y-65.512
X179.977Y-96.512
X179.977Y-127.512
X179.977Y-158.512
X179.977Y-189.512
X180.405Y-61.75
X180.405Y-92.75
X180.405Y-123.75
X180.405Y-154.75
X180.405Y-185.75
X180.425Y-47.66
X180.425Y-78.66
X180.425Y-109.66
X180.425Y-140.66
X180.425Y-171.66
X180.655Y-54.78
X180.655Y-85.78
X180.655Y-116.78
X180.655Y-147.78
X180.655Y-178.78
X181.035Y-60.58
X181.035Y-91.58
X181.035Y-122.58
X181.035Y-153.58
X181.035Y-184.58
X181.115Y-56.71
X181.115Y-87.71
X181.115Y-118.71
X181.115Y-149.71
X181.115Y-180.71
X181.43Y-57.615
X181.43Y-88.615
X181.43Y-119.615
X181.43Y-150.615
X181.43Y-181.615
X181.535Y-69.26
X181.535Y-100.26
X181.535Y-131.26
X181.535Y-162.26
X181.535Y-193.26
X181.791Y-65.848
X181.791Y-96.848
X181.791Y-127.848
X181.791Y-158.848
X181.791Y-189.848
X181.905Y-53.06
X181.905Y-84.06
X181.905Y-115.06
X181.905Y-146.06
X181.905Y-177.06
X181.968Y-52.367
X181.968Y-83.367
X181.968Y-114.367
X181.968Y-145.367
X181.968Y-176.367
X182.192Y-66.21
X182.192Y-97.21
X182.192Y-128.21
X182.192Y-159.21
X182.192Y-190.21
X182.847Y-62.359
X182.847Y-93.359
X182.847Y-124.359
X182.847Y-155.359
X182.847Y-186.359
X183.137Y-66.06
X183.137Y-97.06
X183.137Y-128.06
X183.137Y-159.06
X183.137Y-190.06
X183.327Y-63.25
X183.327Y-94.25
X183.327Y-125.25
X183.327Y-156.25
X183.327Y-187.25
X183.425Y-47.66
X183.425Y-78.66
X183.425Y-109.66
X183.425Y-140.66
X183.425Y-171.66
X183.535Y-54.83
X183.535Y-85.83
X183.535Y-116.83
X183.535Y-147.83
X183.535Y-178.83
X183.625Y-64.68
X183.625Y-95.68
X183.625Y-126.68
X183.625Y-157.68
X183.625Y-188.68
X183.976Y-52.011
X183.976Y-83.011
X183.976Y-114.011
X183.976Y-145.011
X183.976Y-176.011
X184.025Y-62.21
X184.025Y-93.21
X184.025Y-124.21
X184.025Y-155.21
X184.025Y-186.21
X184.145Y-57.0
X184.145Y-88.0
X184.145Y-119.0
X184.145Y-150.0
X184.145Y-181.0
X184.155Y-49.49
X184.155Y-80.49
X184.155Y-111.49
X184.155Y-142.49
X184.155Y-173.49
X184.265Y-59.9
X184.265Y-90.9
X184.265Y-121.9
X184.265Y-152.9
X184.265Y-183.9
X186.985Y-50.39
X186.985Y-81.39
X186.985Y-112.39
X186.985Y-143.39
X186.985Y-174.39
X187.025Y-52.16
X187.025Y-83.16
X187.025Y-114.16
X187.025Y-145.16
X187.025Y-176.16
X187.075Y-54.95
X187.075Y-85.95
X187.075Y-116.95
X187.075Y-147.95
X187.075Y-178.95
X187.085Y-60.13
X187.085Y-91.13
X187.085Y-122.13
X187.085Y-153.13
X187.085Y-184.13
X187.105Y-58.15
X187.105Y-89.15
X187.105Y-120.15
X187.105Y-151.15
X187.105Y-182.15
X189.425Y-47.66
X189.425Y-78.66
X189.425Y-109.66
X189.425Y-140.66
X189.425Y-171.66
X191.345Y-50.66
X191.345Y-53.66
X191.345Y-56.66
X191.345Y-59.66
X191.345Y-62.66
X191.345Y-65.66
X191.345Y-81.66
X191.345Y-84.66
X191.345Y-87.66
X191.345Y-90.66
X191.345Y-93.66
X191.345Y-96.66
X191.345Y-112.66
X191.345Y-115.66
X191.345Y-118.66
X191.345Y-121.66
X191.345Y-124.66
X191.345Y-127.66
X191.345Y-143.66
X191.345Y-146.66
X191.345Y-149.66
X191.345Y-152.66
X191.345Y-155.66
X191.345Y-158.66
X191.345Y-174.66
X191.345Y-177.66
X191.345Y-180.66
X191.345Y-183.66
X191.345Y-186.66
X191.345Y-189.66
X191.375Y-47.66
X191.375Y-78.66
X191.375Y-109.66
X191.375Y-140.66
X191.375Y-171.66
X191.385Y-69.22
X191.385Y-100.22
X191.385Y-131.22
X191.385Y-162.22
X191.385Y-193.22
X201.415Y-69.28
X201.415Y-100.28
X201.415Y-131.28
X201.415Y-162.28
X201.415Y-193.28
X201.425Y-47.66
X201.425Y-50.66
X201.425Y-53.66
X201.425Y-56.66
X201.425Y-59.66
X201.425Y-62.66
X201.425Y-65.66
X201.425Y-78.66
X201.425Y-81.66
X201.425Y-84.66
X201.425Y-87.66
X201.425Y-90.66
X201.425Y-93.66
X201.425Y-96.66
X201.425Y-109.66
X201.425Y-112.66
X201.425Y-115.66
X201.425Y-118.66
X201.425Y-121.66
X201.425Y-124.66
X201.425Y-127.66
X201.425Y-140.66
X201.425Y-143.66
X201.425Y-146.66
X201.425Y-149.66
X201.425Y-152.66
X201.425Y-155.66
X201.425Y-158.66
X201.425Y-171.66
X201.425Y-174.66
X201.425Y-177.66
X201.425Y-180.66
X201.425Y-183.66
X201.425Y-186.66
X201.425Y-189.66
X204.365Y-69.28
X204.365Y-100.28
X204.365Y-131.28
X204.365Y-162.28
X204.365Y-193.28
X204.425Y-47.66
X204.425Y-78.66
X204.425Y-109.66
X204.425Y-140.66
X204.425Y-171.66
X205.365Y-58.16
X205.365Y-89.16
X205.365Y-120.16
X205.365Y-151.16
X205.365Y-182.16
X205.395Y-54.28
X205.395Y-61.63
X205.395Y-85.28
X205.395Y-92.63
X205.395Y-116.28
X205.395Y-123.63
X205.395Y-147.28
X205.395Y-154.63
X205.395Y-178.28
X205.395Y-185.63
X207.365Y-69.28
X207.365Y-100.28
X207.365Y-131.28
X207.365Y-162.28
X207.365Y-193.28
X207.425Y-47.66
X207.425Y-78.66
X207.425Y-109.66
X207.425Y-140.66
X207.425Y-171.66
X207.563Y-57.339
X207.563Y-88.339
X207.563Y-119.339
X207.563Y-150.339
X207.563Y-181.339
X207.566Y-54.334
X207.566Y-58.825
X207.566Y-85.334
X207.566Y-89.825
X207.566Y-116.334
X207.566Y-120.825
X207.566Y-147.334
X207.566Y-151.825
X207.566Y-178.334
X207.566Y-182.825
X207.571Y-60.338
X207.571Y-91.338
X207.571Y-122.338
X207.571Y-153.338
X207.571Y-184.338
X207.581Y-61.842
X207.581Y-92.842
X207.581Y-123.842
X207.581Y-154.842
X207.581Y-185.842
X210.365Y-69.28
X210.365Y-100.28
X210.365Y-131.28
X210.365Y-162.28
X210.365Y-193.28
X210.425Y-47.66
X210.425Y-78.66
X210.425Y-109.66
X210.425Y-140.66
X210.425Y-171.66
X210.525Y-53.845
X210.525Y-84.845
X210.525Y-115.845
X210.525Y-146.845
X210.525Y-177.845
X211.35Y-55.891
X211.35Y-86.891
X211.35Y-117.891
X211.35Y-148.891
X211.35Y-179.891
X211.505Y-66.61
X211.505Y-97.61
X211.505Y-128.61
X211.505Y-159.61
X211.505Y-190.61
X211.525Y-51.03
X211.525Y-82.03
X211.525Y-113.03
X211.525Y-144.03
X211.525Y-175.03
X213.365Y-69.28
X213.365Y-100.28
X213.365Y-131.28
X213.365Y-162.28
X213.365Y-193.28
X213.425Y-47.66
X213.425Y-78.66
X213.425Y-109.66
X213.425Y-140.66
X213.425Y-171.66
X214.655Y-51.11
X214.655Y-82.11
X214.655Y-113.11
X214.655Y-144.11
X214.655Y-175.11
X214.955Y-64.58
X214.955Y-95.58
X214.955Y-126.58
X214.955Y-157.58
X214.955Y-188.58
X215.582Y-59.747
X215.582Y-90.747
X215.582Y-121.747
X215.582Y-152.747
X215.582Y-183.747
X215.648Y-58.238
X215.648Y-89.238
X215.648Y-120.238
X215.648Y-151.238
X215.648Y-182.238
X215.777Y-62.01
X215.777Y-93.01
X215.777Y-124.01
X215.777Y-155.01
X215.777Y-186.01
X216.085Y-65.66
X216.085Y-96.66
X216.085Y-127.66
X216.085Y-158.66
X216.085Y-189.66
X216.097Y-59.61
X216.097Y-90.61
X216.097Y-121.61
X216.097Y-152.61
X216.097Y-183.61
X216.107Y-56.93
X216.107Y-57.94
X216.107Y-87.93
X216.107Y-88.94
X216.107Y-118.93
X216.107Y-119.94
X216.107Y-149.93
X216.107Y-150.94
X216.107Y-180.93
X216.107Y-181.94
X216.271Y-61.654
X216.271Y-92.654
X216.271Y-123.654
X216.271Y-154.654
X216.271Y-185.654
X216.365Y-69.28
X216.365Y-100.28
X216.365Y-131.28
X216.365Y-162.28
X216.365Y-193.28
X216.425Y-47.66
X216.425Y-78.66
X216.425Y-109.66
X216.425Y-140.66
X216.425Y-171.66
X216.511Y-64.38
X216.511Y-95.38
X216.511Y-126.38
X216.511Y-157.38
X216.511Y-188.38
X216.789Y-54.632
X216.789Y-85.632
X216.789Y-116.632
X216.789Y-147.632
X216.789Y-178.632
X217.585Y-65.06
X217.585Y-96.06
X217.585Y-127.06
X217.585Y-158.06
X217.585Y-189.06
X218.645Y-65.07
X218.645Y-96.07
X218.645Y-127.07
X218.645Y-158.07
X218.645Y-189.07
X218.845Y-49.33
X218.845Y-80.33
X218.845Y-111.33
X218.845Y-142.33
X218.845Y-173.33
X219.115Y-66.24
X219.115Y-97.24
X219.115Y-128.24
X219.115Y-159.24
X219.115Y-190.24
X219.535Y-51.35
X219.535Y-82.35
X219.535Y-113.35
X219.535Y-144.35
X219.535Y-175.35
X219.585Y-54.2
X219.585Y-85.2
X219.585Y-116.2
X219.585Y-147.2
X219.585Y-178.2
X219.745Y-49.55
X219.745Y-80.55
X219.745Y-111.55
X219.745Y-142.55
X219.745Y-173.55
X219.875Y-52.09
X219.875Y-83.09
X219.875Y-114.09
X219.875Y-145.09
X219.875Y-176.09
X220.005Y-50.54
X220.005Y-81.54
X220.005Y-112.54
X220.005Y-143.54
X220.005Y-174.54
X220.675Y-50.1
X220.675Y-81.1
X220.675Y-112.1
X220.675Y-143.1
X220.675Y-174.1
X220.916Y-54.519
X220.916Y-85.519
X220.916Y-116.519
X220.916Y-147.519
X220.916Y-178.519
X221.178Y-65.21
X221.178Y-96.21
X221.178Y-127.21
X221.178Y-158.21
X221.178Y-189.21
X221.355Y-57.549
X221.355Y-88.549
X221.355Y-119.549
X221.355Y-150.549
X221.355Y-181.549
X221.605Y-64.57
X221.605Y-95.57
X221.605Y-126.57
X221.605Y-157.57
X221.605Y-188.57
X222.215Y-65.75
X222.215Y-96.75
X222.215Y-127.75
X222.215Y-158.75
X222.215Y-189.75
X222.365Y-69.28
X222.365Y-100.28
X222.365Y-131.28
X222.365Y-162.28
X222.365Y-193.28
X222.414Y-50.04
X222.414Y-81.04
X222.414Y-112.04
X222.414Y-143.04
X222.414Y-174.04
X222.415Y-67.73
X222.415Y-98.73
X222.415Y-129.73
X222.415Y-160.73
X222.415Y-191.73
X222.425Y-47.66
X222.425Y-78.66
X222.425Y-109.66
X222.425Y-140.66
X222.425Y-171.66
X222.572Y-55.195
X222.572Y-86.195
X222.572Y-117.195
X222.572Y-148.195
X222.572Y-179.195
X223.165Y-63.67
X223.165Y-94.67
X223.165Y-125.67
X223.165Y-156.67
X223.165Y-187.67
X223.307Y-50.62
X223.307Y-81.62
X223.307Y-112.62
X223.307Y-143.62
X223.307Y-174.62
X223.442Y-51.28
X223.442Y-82.28
X223.442Y-113.28
X223.442Y-144.28
X223.442Y-175.28
X223.455Y-61.48
X223.455Y-92.48
X223.455Y-123.48
X223.455Y-154.48
X223.455Y-185.48
X223.568Y-57.557
X223.568Y-88.557
X223.568Y-119.557
X223.568Y-150.557
X223.568Y-181.557
X223.91Y-63.722
X223.91Y-94.722
X223.91Y-125.722
X223.91Y-156.722
X223.91Y-187.722
X223.945Y-60.86
X223.945Y-91.86
X223.945Y-122.86
X223.945Y-153.86
X223.945Y-184.86
X224.118Y-56.959
X224.118Y-87.959
X224.118Y-118.959
X224.118Y-149.959
X224.118Y-180.959
X224.284Y-54.491
X224.284Y-85.491
X224.284Y-116.491
X224.284Y-147.491
X224.284Y-178.491
X224.435Y-49.84
X224.435Y-80.84
X224.435Y-111.84
X224.435Y-142.84
X224.435Y-173.84
X224.537Y-56.541
X224.537Y-87.541
X224.537Y-118.541
X224.537Y-149.541
X224.537Y-180.541
X224.945Y-56.07
X224.945Y-87.07
X224.945Y-118.07
X224.945Y-149.07
X224.945Y-180.07
X225.055Y-53.6
X225.055Y-84.6
X225.055Y-115.6
X225.055Y-146.6
X225.055Y-177.6
X225.106Y-60.878
X225.106Y-91.878
X225.106Y-122.878
X225.106Y-153.878
X225.106Y-184.878
X225.415Y-55.62
X225.415Y-86.62
X225.415Y-117.62
X225.415Y-148.62
X225.415Y-179.62
X225.425Y-47.66
X225.425Y-78.66
X225.425Y-109.66
X225.425Y-140.66
X225.425Y-171.66
X225.718Y-56.141
X225.718Y-87.141
X225.718Y-118.141
X225.718Y-149.141
X225.718Y-180.141
X225.777Y-49.2
X225.777Y-80.2
X225.777Y-111.2
X225.777Y-142.2
X225.777Y-173.2
X225.875Y-69.26
X225.875Y-100.26
X225.875Y-131.26
X225.875Y-162.26
X225.875Y-193.26
X225.885Y-60.903
X225.885Y-91.903
X225.885Y-122.903
X225.885Y-153.903
X225.885Y-184.903
X226.137Y-56.559
X226.137Y-87.559
X226.137Y-118.559
X226.137Y-149.559
X226.137Y-180.559
X226.445Y-54.76
X226.445Y-85.76
X226.445Y-116.76
X226.445Y-147.76
X226.445Y-178.76
X226.645Y-60.19
X226.645Y-91.19
X226.645Y-122.19
X226.645Y-153.19
X226.645Y-184.19
X226.655Y-48.63
X226.655Y-79.63
X226.655Y-110.63
X226.655Y-141.63
X226.655Y-172.63
X226.927Y-57.154
X226.927Y-57.746
X226.927Y-88.154
X226.927Y-88.746
X226.927Y-119.154
X226.927Y-119.746
X226.927Y-150.154
X226.927Y-150.746
X226.927Y-181.154
X226.927Y-181.746
X227.358Y-68.05
X227.358Y-99.05
X227.358Y-130.05
X227.358Y-161.05
X227.358Y-192.05
X227.627Y-58.154
X227.627Y-58.746
X227.627Y-89.154
X227.627Y-89.746
X227.627Y-120.154
X227.627Y-120.746
X227.627Y-151.154
X227.627Y-151.746
X227.627Y-182.154
X227.627Y-182.746
X227.977Y-65.512
X227.977Y-96.512
X227.977Y-127.512
X227.977Y-158.512
X227.977Y-189.512
X228.405Y-61.75
X228.405Y-92.75
X228.405Y-123.75
X228.405Y-154.75
X228.405Y-185.75
X228.425Y-47.66
X228.425Y-78.66
X228.425Y-109.66
X228.425Y-140.66
X228.425Y-171.66
X228.655Y-54.78
X228.655Y-85.78
X228.655Y-116.78
X228.655Y-147.78
X228.655Y-178.78
X229.035Y-60.58
X229.035Y-91.58
X229.035Y-122.58
X229.035Y-153.58
X229.035Y-184.58
X229.115Y-56.71
X229.115Y-87.71
X229.115Y-118.71
X229.115Y-149.71
X229.115Y-180.71
X229.43Y-57.615
X229.43Y-88.615
X229.43Y-119.615
X229.43Y-150.615
X229.43Y-181.615
X229.535Y-69.26
X229.535Y-100.26
X229.535Y-131.26
X229.535Y-162.26
X229.535Y-193.26
X229.791Y-65.848
X229.791Y-96.848
X229.791Y-127.848
X229.791Y-158.848
X229.791Y-189.848
X229.905Y-53.06
X229.905Y-84.06
X229.905Y-115.06
X229.905Y-146.06
X229.905Y-177.06
X229.968Y-52.367
X229.968Y-83.367
X229.968Y-114.367
X229.968Y-145.367
X229.968Y-176.367
X230.192Y-66.21
X230.192Y-97.21
X230.192Y-128.21
X230.192Y-159.21
X230.192Y-190.21
X230.847Y-62.359
X230.847Y-93.359
X230.847Y-124.359
X230.847Y-155.359
X230.847Y-186.359
X231.137Y-66.06
X231.137Y-97.06
X231.137Y-128.06
X231.137Y-159.06
X231.137Y-190.06
X231.327Y-63.25
X231.327Y-94.25
X231.327Y-125.25
X231.327Y-156.25
X231.327Y-187.25
X231.425Y-47.66
X231.425Y-78.66
X231.425Y-109.66
X231.425Y-140.66
X231.425Y-171.66
X231.535Y-54.83
X231.535Y-85.83
X231.535Y-116.83
X231.535Y-147.83
X231.535Y-178.83
X231.625Y-64.68
X231.625Y-95.68
X231.625Y-126.68
X231.625Y-157.68
X231.625Y-188.68
X231.976Y-52.011
X231.976Y-83.011
X231.976Y-114.011
X231.976Y-145.011
X231.976Y-176.011
X232.025Y-62.21
X232.025Y-93.21
X232.025Y-124.21
X232.025Y-155.21
X232.025Y-186.21
X232.145Y-57.0
X232.145Y-88.0
X232.145Y-119.0
X232.145Y-150.0
X232.145Y-181.0
X232.155Y-49.49
X232.155Y-80.49
X232.155Y-111.49
X232.155Y-142.49
X232.155Y-173.49
X232.265Y-59.9
X232.265Y-90.9
X232.265Y-121.9
X232.265Y-152.9
X232.265Y-183.9
X234.985Y-50.39
X234.985Y-81.39
X234.985Y-112.39
X234.985Y-143.39
X234.985Y-174.39
X235.025Y-52.16
X235.025Y-83.16
X235.025Y-114.16
X235.025Y-145.16
X235.025Y-176.16
X235.075Y-54.95
X235.075Y-85.95
X235.075Y-116.95
X235.075Y-147.95
X235.075Y-178.95
X235.085Y-60.13
X235.085Y-91.13
X235.085Y-122.13
X235.085Y-153.13
X235.085Y-184.13
X235.105Y-58.15
X235.105Y-89.15
X235.105Y-120.15
X235.105Y-151.15
X235.105Y-182.15
X237.425Y-47.66
X237.425Y-78.66
X237.425Y-109.66
X237.425Y-140.66
X237.425Y-171.66
X239.345Y-50.66
X239.345Y-53.66
X239.345Y-56.66
X239.345Y-59.66
X239.345Y-62.66
X239.345Y-65.66
X239.345Y-81.66
X239.345Y-84.66
X239.345Y-87.66
X239.345Y-90.66
X239.345Y-93.66
X239.345Y-96.66
X239.345Y-112.66
X239.345Y-115.66
X239.345Y-118.66
X239.345Y-121.66
X239.345Y-124.66
X239.345Y-127.66
X239.345Y-143.66
X239.345Y-146.66
X239.345Y-149.66
X239.345Y-152.66
X239.345Y-155.66
X239.345Y-158.66
X239.345Y-174.66
X239.345Y-177.66
X239.345Y-180.66
X239.345Y-183.66
X239.345Y-186.66
X239.345Y-189.66
X239.375Y-47.66
X239.375Y-78.66
X239.375Y-109.66
X239.375Y-140.66
X239.375Y-171.66
X239.385Y-69.22
X239.385Y-100.22
X239.385Y-131.22
X239.385Y-162.22
X239.385Y-193.22
T2
X89.767Y-48.385
X89.767Y-50.925
X89.767Y-53.465
X89.767Y-56.005
X89.767Y-58.545
X89.767Y-61.085
X89.767Y-63.625
X89.767Y-66.165
X89.767Y-68.705
X89.767Y-79.385
X89.767Y-81.925
X89.767Y-84.465
X89.767Y-87.005
X89.767Y-89.545
X89.767Y-92.085
X89.767Y-94.625
X89.767Y-97.165
X89.767Y-99.705
X89.767Y-110.385
X89.767Y-112.925
X89.767Y-115.465
X89.767Y-118.005
X89.767Y-120.545
X89.767Y-123.085
X89.767Y-125.625
X89.767Y-128.165
X89.767Y-130.705
X89.767Y-141.385
X89.767Y-143.925
X89.767Y-146.465
X89.767Y-149.005
X89.767Y-151.545
X89.767Y-154.085
X89.767Y-156.625
X89.767Y-159.165
X89.767Y-161.705
X89.767Y-172.385
X89.767Y-174.925
X89.767Y-177.465
X89.767Y-180.005
X89.767Y-182.545
X89.767Y-185.085
X89.767Y-187.625
X89.767Y-190.165
X89.767Y-192.705
X92.307Y-48.385
X92.307Y-50.925
X92.307Y-53.465
X92.307Y-56.005
X92.307Y-58.545
X92.307Y-61.085
X92.307Y-63.625
X92.307Y-66.165
X92.307Y-68.705
X92.307Y-79.385
X92.307Y-81.925
X92.307Y-84.465
X92.307Y-87.005
X92.307Y-89.545
X92.307Y-92.085
X92.307Y-94.625
X92.307Y-97.165
X92.307Y-99.705
X92.307Y-110.385
X92.307Y-112.925
X92.307Y-115.465
X92.307Y-118.005
X92.307Y-120.545
X92.307Y-123.085
X92.307Y-125.625
X92.307Y-128.165
X92.307Y-130.705
X92.307Y-141.385
X92.307Y-143.925
X92.307Y-146.465
X92.307Y-149.005
X92.307Y-151.545
X92.307Y-154.085
X92.307Y-156.625
X92.307Y-159.165
X92.307Y-161.705
X92.307Y-172.385
X92.307Y-174.925
X92.307Y-177.465
X92.307Y-180.005
X92.307Y-182.545
X92.307Y-185.085
X92.307Y-187.625
X92.307Y-190.165
X92.307Y-192.705
X137.767Y-48.385
X137.767Y-50.925
X137.767Y-53.465
X137.767Y-56.005
X137.767Y-58.545
X137.767Y-61.085
X137.767Y-63.625
X137.767Y-66.165
X137.767Y-68.705
X137.767Y-79.385
X137.767Y-81.925
X137.767Y-84.465
X137.767Y-87.005
X137.767Y-89.545
X137.767Y-92.085
X137.767Y-94.625
X137.767Y-97.165
X137.767Y-99.705
X137.767Y-110.385
X137.767Y-112.925
X137.767Y-115.465
X137.767Y-118.005
X137.767Y-120.545
X137.767Y-123.085
X137.767Y-125.625
X137.767Y-128.165
X137.767Y-130.705
X137.767Y-141.385
X137.767Y-143.925
X137.767Y-146.465
X137.767Y-149.005
X137.767Y-151.545
X137.767Y-154.085
X137.767Y-156.625
X137.767Y-159.165
X137.767Y-161.705
X137.767Y-172.385
X137.767Y-174.925
X137.767Y-177.465
X137.767Y-180.005
X137.767Y-182.545
X137.767Y-185.085
X137.767Y-187.625
X137.767Y-190.165
X137.767Y-192.705
X140.307Y-48.385
X140.307Y-50.925
X140.307Y-53.465
X140.307Y-56.005
X140.307Y-58.545
X140.307Y-61.085
X140.307Y-63.625
X140.307Y-66.165
X140.307Y-68.705
X140.307Y-79.385
X140.307Y-81.925
X140.307Y-84.465
X140.307Y-87.005
X140.307Y-89.545
X140.307Y-92.085
X140.307Y-94.625
X140.307Y-97.165
X140.307Y-99.705
X140.307Y-110.385
X140.307Y-112.925
X140.307Y-115.465
X140.307Y-118.005
X140.307Y-120.545
X140.307Y-123.085
X140.307Y-125.625
X140.307Y-128.165
X140.307Y-130.705
X140.307Y-141.385
X140.307Y-143.925
X140.307Y-146.465
X140.307Y-149.005
X140.307Y-151.545
X140.307Y-154.085
X140.307Y-156.625
X140.307Y-159.165
X140.307Y-161.705
X140.307Y-172.385
X140.307Y-174.925
X140.307Y-177.465
X140.307Y-180.005
X140.307Y-182.545
X140.307Y-185.085
X140.307Y-187.625
X140.307Y-190.165
X140.307Y-192.705
X185.766Y-48.385
X185.766Y-50.925
X185.766Y-53.465
X185.766Y-56.005
X185.766Y-58.545
X185.766Y-61.085
X185.766Y-63.625
X185.766Y-66.165
X185.766Y-68.705
X185.766Y-79.385
X185.766Y-81.925
X185.766Y-84.465
X185.766Y-87.005
X185.766Y-89.545
X185.766Y-92.085
X185.766Y-94.625
X185.766Y-97.165
X185.766Y-99.705
X185.766Y-110.385
X185.766Y-112.925
X185.766Y-115.465
X185.766Y-118.005
X185.766Y-120.545
X185.766Y-123.085
X185.766Y-125.625
X185.766Y-128.165
X185.766Y-130.705
X185.766Y-141.385
X185.766Y-143.925
X185.766Y-146.465
X185.766Y-149.005
X185.766Y-151.545
X185.766Y-154.085
X185.766Y-156.625
X185.766Y-159.165
X185.766Y-161.705
X185.766Y-172.385
X185.766Y-174.925
X185.766Y-177.465
X185.766Y-180.005
X185.766Y-182.545
X185.766Y-185.085
X185.766Y-187.625
X185.766Y-190.165
X185.766Y-192.705
X188.306Y-48.385
X188.306Y-50.925
X188.306Y-53.465
X188.306Y-56.005
X188.306Y-58.545
X188.306Y-61.085
X188.306Y-63.625
X188.306Y-66.165
X188.306Y-68.705
X188.306Y-79.385
X188.306Y-81.925
X188.306Y-84.465
X188.306Y-87.005
X188.306Y-89.545
X188.306Y-92.085
X188.306Y-94.625
X188.306Y-97.165
X188.306Y-99.705
X188.306Y-110.385
X188.306Y-112.925
X188.306Y-115.465
X188.306Y-118.005
X188.306Y-120.545
X188.306Y-123.085
X188.306Y-125.625
X188.306Y-128.165
X188.306Y-130.705
X188.306Y-141.385
X188.306Y-143.925
X188.306Y-146.465
X188.306Y-149.005
X188.306Y-151.545
X188.306Y-154.085
X188.306Y-156.625
X188.306Y-159.165
X188.306Y-161.705
X188.306Y-172.385
X188.306Y-174.925
X188.306Y-177.465
X188.306Y-180.005
X188.306Y-182.545
X188.306Y-185.085
X188.306Y-187.625
X188.306Y-190.165
X188.306Y-192.705
X233.766Y-48.385
X233.766Y-50.925
X233.766Y-53.465
X233.766Y-56.005
X233.766Y-58.545
X233.766Y-61.085
X233.766Y-63.625
X233.766Y-66.165
X233.766Y-68.705
X233.766Y-79.385
X233.766Y-81.925
X233.766Y-84.465
X233.766Y-87.005
X233.766Y-89.545
X233.766Y-92.085
X233.766Y-94.625
X233.766Y-97.165
X233.766Y-99.705
X233.766Y-110.385
X233.766Y-112.925
X233.766Y-115.465
X233.766Y-118.005
X233.766Y-120.545
X233.766Y-123.085
X233.766Y-125.625
X233.766Y-128.165
X233.766Y-130.705
X233.766Y-141.385
X233.766Y-143.925
X233.766Y-146.465
X233.766Y-149.005
X233.766Y-151.545
X233.766Y-154.085
X233.766Y-156.625
X233.766Y-159.165
X233.766Y-161.705
X233.766Y-172.385
X233.766Y-174.925
X233.766Y-177.465
X233.766Y-180.005
X233.766Y-182.545
X233.766Y-185.085
X233.766Y-187.625
X233.766Y-190.165
X233.766Y-192.705
X236.306Y-48.385
X236.306Y-50.925
X236.306Y-53.465
X236.306Y-56.005
X236.306Y-58.545
X236.306Y-61.085
X236.306Y-63.625
X236.306Y-66.165
X236.306Y-68.705
X236.306Y-79.385
X236.306Y-81.925
X236.306Y-84.465
X236.306Y-87.005
X236.306Y-89.545
X236.306Y-92.085
X236.306Y-94.625
X236.306Y-97.165
X236.306Y-99.705
X236.306Y-110.385
X236.306Y-112.925
X236.306Y-115.465
X236.306Y-118.005
X236.306Y-120.545
X236.306Y-123.085
X236.306Y-125.625
X236.306Y-128.165
X236.306Y-130.705
X236.306Y-141.385
X236.306Y-143.925
X236.306Y-146.465
X236.306Y-149.005
X236.306Y-151.545
X236.306Y-154.085
X236.306Y-156.625
X236.306Y-159.165
X236.306Y-161.705
X236.306Y-172.385
X236.306Y-174.925
X236.306Y-177.465
X236.306Y-180.005
X236.306Y-182.545
X236.306Y-185.085
X236.306Y-187.625
X236.306Y-190.165
X236.306Y-192.705
T3
X59.072Y-49.745
X59.072Y-65.445
X59.072Y-80.745
X59.072Y-96.445
X59.072Y-111.745
X59.072Y-127.445
X59.072Y-142.745
X59.072Y-158.445
X59.072Y-173.745
X59.072Y-189.445
X63.972Y-50.345
X63.972Y-64.845
X63.972Y-81.345
X63.972Y-95.845
X63.972Y-112.345
X63.972Y-126.845
X63.972Y-143.345
X63.972Y-157.845
X63.972Y-174.345
X63.972Y-188.845
X107.072Y-49.745
X107.072Y-65.445
X107.072Y-80.745
X107.072Y-96.445
X107.072Y-111.745
X107.072Y-127.445
X107.072Y-142.745
X107.072Y-158.445
X107.072Y-173.745
X107.072Y-189.445
X111.972Y-50.345
X111.972Y-64.845
X111.972Y-81.345
X111.972Y-95.845
X111.972Y-112.345
X111.972Y-126.845
X111.972Y-143.345
X111.972Y-157.845
X111.972Y-174.345
X111.972Y-188.845
X155.072Y-49.745
X155.072Y-65.445
X155.072Y-80.745
X155.072Y-96.445
X155.072Y-111.745
X155.072Y-127.445
X155.072Y-142.745
X155.072Y-158.445
X155.072Y-173.745
X155.072Y-189.445
X159.972Y-50.345
X159.972Y-64.845
X159.972Y-81.345
X159.972Y-95.845
X159.972Y-112.345
X159.972Y-126.845
X159.972Y-143.345
X159.972Y-157.845
X159.972Y-174.345
X159.972Y-188.845
X203.072Y-49.745
X203.072Y-65.445
X203.072Y-80.745
X203.072Y-96.445
X203.072Y-111.745
X203.072Y-127.445
X203.072Y-142.745
X203.072Y-158.445
X203.072Y-173.745
X203.072Y-189.445
X207.972Y-50.345
X207.972Y-64.845
X207.972Y-81.345
X207.972Y-95.845
X207.972Y-112.345
X207.972Y-126.845
X207.972Y-143.345
X207.972Y-157.845
X207.972Y-174.345
X207.972Y-188.845
T0
M30
