%TF.GenerationSoftware,KiCad,Pcbnew,7.0.6+dfsg-1*%
%TF.CreationDate,2023-08-23T14:28:08+02:00*%
%TF.ProjectId,GPDI_ULX3S_panel,47504449-5f55-44c5-9833-535f70616e65,1.6*%
%TF.SameCoordinates,Original*%
%TF.FileFunction,Other,Comment*%
%FSLAX46Y46*%
G04 Gerber Fmt 4.6, Leading zero omitted, Abs format (unit mm)*
G04 Created by KiCad (PCBNEW 7.0.6+dfsg-1) date 2023-08-23 14:28:08*
%MOMM*%
%LPD*%
G01*
G04 APERTURE LIST*
%ADD10C,0.400000*%
G04 APERTURE END LIST*
D10*
X144497696Y-37000000D02*
X144497696Y-204000000D01*
X96497696Y-37000000D02*
X96497696Y-204000000D01*
X104497696Y-37000000D02*
X104497696Y-204000000D01*
X192497696Y-37000000D02*
X192497696Y-204000000D01*
X56497696Y-37000000D02*
X56497696Y-204000000D01*
X240497696Y-37000000D02*
X240497696Y-204000000D01*
X152497696Y-37000000D02*
X152497696Y-204000000D01*
X200497696Y-37000000D02*
X200497696Y-204000000D01*
X103402134Y-33546366D02*
X105402134Y-32879700D01*
X105402134Y-32879700D02*
X103402134Y-32213033D01*
X104640229Y-31546366D02*
X104640229Y-30022557D01*
X105211657Y-27927319D02*
X105306896Y-28022557D01*
X105306896Y-28022557D02*
X105402134Y-28308271D01*
X105402134Y-28308271D02*
X105402134Y-28498747D01*
X105402134Y-28498747D02*
X105306896Y-28784462D01*
X105306896Y-28784462D02*
X105116419Y-28974938D01*
X105116419Y-28974938D02*
X104925943Y-29070176D01*
X104925943Y-29070176D02*
X104544991Y-29165414D01*
X104544991Y-29165414D02*
X104259276Y-29165414D01*
X104259276Y-29165414D02*
X103878324Y-29070176D01*
X103878324Y-29070176D02*
X103687848Y-28974938D01*
X103687848Y-28974938D02*
X103497372Y-28784462D01*
X103497372Y-28784462D02*
X103402134Y-28498747D01*
X103402134Y-28498747D02*
X103402134Y-28308271D01*
X103402134Y-28308271D02*
X103497372Y-28022557D01*
X103497372Y-28022557D02*
X103592610Y-27927319D01*
X103402134Y-27070176D02*
X105021181Y-27070176D01*
X105021181Y-27070176D02*
X105211657Y-26974938D01*
X105211657Y-26974938D02*
X105306896Y-26879700D01*
X105306896Y-26879700D02*
X105402134Y-26689224D01*
X105402134Y-26689224D02*
X105402134Y-26308271D01*
X105402134Y-26308271D02*
X105306896Y-26117795D01*
X105306896Y-26117795D02*
X105211657Y-26022557D01*
X105211657Y-26022557D02*
X105021181Y-25927319D01*
X105021181Y-25927319D02*
X103402134Y-25927319D01*
X103402134Y-25260652D02*
X103402134Y-24117795D01*
X105402134Y-24689224D02*
X103402134Y-24689224D01*
X239402134Y-33546366D02*
X241402134Y-32879700D01*
X241402134Y-32879700D02*
X239402134Y-32213033D01*
X240640229Y-31546366D02*
X240640229Y-30022557D01*
X241211657Y-27927319D02*
X241306896Y-28022557D01*
X241306896Y-28022557D02*
X241402134Y-28308271D01*
X241402134Y-28308271D02*
X241402134Y-28498747D01*
X241402134Y-28498747D02*
X241306896Y-28784462D01*
X241306896Y-28784462D02*
X241116419Y-28974938D01*
X241116419Y-28974938D02*
X240925943Y-29070176D01*
X240925943Y-29070176D02*
X240544991Y-29165414D01*
X240544991Y-29165414D02*
X240259276Y-29165414D01*
X240259276Y-29165414D02*
X239878324Y-29070176D01*
X239878324Y-29070176D02*
X239687848Y-28974938D01*
X239687848Y-28974938D02*
X239497372Y-28784462D01*
X239497372Y-28784462D02*
X239402134Y-28498747D01*
X239402134Y-28498747D02*
X239402134Y-28308271D01*
X239402134Y-28308271D02*
X239497372Y-28022557D01*
X239497372Y-28022557D02*
X239592610Y-27927319D01*
X239402134Y-27070176D02*
X241021181Y-27070176D01*
X241021181Y-27070176D02*
X241211657Y-26974938D01*
X241211657Y-26974938D02*
X241306896Y-26879700D01*
X241306896Y-26879700D02*
X241402134Y-26689224D01*
X241402134Y-26689224D02*
X241402134Y-26308271D01*
X241402134Y-26308271D02*
X241306896Y-26117795D01*
X241306896Y-26117795D02*
X241211657Y-26022557D01*
X241211657Y-26022557D02*
X241021181Y-25927319D01*
X241021181Y-25927319D02*
X239402134Y-25927319D01*
X239402134Y-25260652D02*
X239402134Y-24117795D01*
X241402134Y-24689224D02*
X239402134Y-24689224D01*
X55402134Y-33546366D02*
X57402134Y-32879700D01*
X57402134Y-32879700D02*
X55402134Y-32213033D01*
X56640229Y-31546366D02*
X56640229Y-30022557D01*
X57211657Y-27927319D02*
X57306896Y-28022557D01*
X57306896Y-28022557D02*
X57402134Y-28308271D01*
X57402134Y-28308271D02*
X57402134Y-28498747D01*
X57402134Y-28498747D02*
X57306896Y-28784462D01*
X57306896Y-28784462D02*
X57116419Y-28974938D01*
X57116419Y-28974938D02*
X56925943Y-29070176D01*
X56925943Y-29070176D02*
X56544991Y-29165414D01*
X56544991Y-29165414D02*
X56259276Y-29165414D01*
X56259276Y-29165414D02*
X55878324Y-29070176D01*
X55878324Y-29070176D02*
X55687848Y-28974938D01*
X55687848Y-28974938D02*
X55497372Y-28784462D01*
X55497372Y-28784462D02*
X55402134Y-28498747D01*
X55402134Y-28498747D02*
X55402134Y-28308271D01*
X55402134Y-28308271D02*
X55497372Y-28022557D01*
X55497372Y-28022557D02*
X55592610Y-27927319D01*
X55402134Y-27070176D02*
X57021181Y-27070176D01*
X57021181Y-27070176D02*
X57211657Y-26974938D01*
X57211657Y-26974938D02*
X57306896Y-26879700D01*
X57306896Y-26879700D02*
X57402134Y-26689224D01*
X57402134Y-26689224D02*
X57402134Y-26308271D01*
X57402134Y-26308271D02*
X57306896Y-26117795D01*
X57306896Y-26117795D02*
X57211657Y-26022557D01*
X57211657Y-26022557D02*
X57021181Y-25927319D01*
X57021181Y-25927319D02*
X55402134Y-25927319D01*
X55402134Y-25260652D02*
X55402134Y-24117795D01*
X57402134Y-24689224D02*
X55402134Y-24689224D01*
X95402134Y-33546366D02*
X97402134Y-32879700D01*
X97402134Y-32879700D02*
X95402134Y-32213033D01*
X96640229Y-31546366D02*
X96640229Y-30022557D01*
X97211657Y-27927319D02*
X97306896Y-28022557D01*
X97306896Y-28022557D02*
X97402134Y-28308271D01*
X97402134Y-28308271D02*
X97402134Y-28498747D01*
X97402134Y-28498747D02*
X97306896Y-28784462D01*
X97306896Y-28784462D02*
X97116419Y-28974938D01*
X97116419Y-28974938D02*
X96925943Y-29070176D01*
X96925943Y-29070176D02*
X96544991Y-29165414D01*
X96544991Y-29165414D02*
X96259276Y-29165414D01*
X96259276Y-29165414D02*
X95878324Y-29070176D01*
X95878324Y-29070176D02*
X95687848Y-28974938D01*
X95687848Y-28974938D02*
X95497372Y-28784462D01*
X95497372Y-28784462D02*
X95402134Y-28498747D01*
X95402134Y-28498747D02*
X95402134Y-28308271D01*
X95402134Y-28308271D02*
X95497372Y-28022557D01*
X95497372Y-28022557D02*
X95592610Y-27927319D01*
X95402134Y-27070176D02*
X97021181Y-27070176D01*
X97021181Y-27070176D02*
X97211657Y-26974938D01*
X97211657Y-26974938D02*
X97306896Y-26879700D01*
X97306896Y-26879700D02*
X97402134Y-26689224D01*
X97402134Y-26689224D02*
X97402134Y-26308271D01*
X97402134Y-26308271D02*
X97306896Y-26117795D01*
X97306896Y-26117795D02*
X97211657Y-26022557D01*
X97211657Y-26022557D02*
X97021181Y-25927319D01*
X97021181Y-25927319D02*
X95402134Y-25927319D01*
X95402134Y-25260652D02*
X95402134Y-24117795D01*
X97402134Y-24689224D02*
X95402134Y-24689224D01*
X191402134Y-33546366D02*
X193402134Y-32879700D01*
X193402134Y-32879700D02*
X191402134Y-32213033D01*
X192640229Y-31546366D02*
X192640229Y-30022557D01*
X193211657Y-27927319D02*
X193306896Y-28022557D01*
X193306896Y-28022557D02*
X193402134Y-28308271D01*
X193402134Y-28308271D02*
X193402134Y-28498747D01*
X193402134Y-28498747D02*
X193306896Y-28784462D01*
X193306896Y-28784462D02*
X193116419Y-28974938D01*
X193116419Y-28974938D02*
X192925943Y-29070176D01*
X192925943Y-29070176D02*
X192544991Y-29165414D01*
X192544991Y-29165414D02*
X192259276Y-29165414D01*
X192259276Y-29165414D02*
X191878324Y-29070176D01*
X191878324Y-29070176D02*
X191687848Y-28974938D01*
X191687848Y-28974938D02*
X191497372Y-28784462D01*
X191497372Y-28784462D02*
X191402134Y-28498747D01*
X191402134Y-28498747D02*
X191402134Y-28308271D01*
X191402134Y-28308271D02*
X191497372Y-28022557D01*
X191497372Y-28022557D02*
X191592610Y-27927319D01*
X191402134Y-27070176D02*
X193021181Y-27070176D01*
X193021181Y-27070176D02*
X193211657Y-26974938D01*
X193211657Y-26974938D02*
X193306896Y-26879700D01*
X193306896Y-26879700D02*
X193402134Y-26689224D01*
X193402134Y-26689224D02*
X193402134Y-26308271D01*
X193402134Y-26308271D02*
X193306896Y-26117795D01*
X193306896Y-26117795D02*
X193211657Y-26022557D01*
X193211657Y-26022557D02*
X193021181Y-25927319D01*
X193021181Y-25927319D02*
X191402134Y-25927319D01*
X191402134Y-25260652D02*
X191402134Y-24117795D01*
X193402134Y-24689224D02*
X191402134Y-24689224D01*
X151402134Y-33546366D02*
X153402134Y-32879700D01*
X153402134Y-32879700D02*
X151402134Y-32213033D01*
X152640229Y-31546366D02*
X152640229Y-30022557D01*
X153211657Y-27927319D02*
X153306896Y-28022557D01*
X153306896Y-28022557D02*
X153402134Y-28308271D01*
X153402134Y-28308271D02*
X153402134Y-28498747D01*
X153402134Y-28498747D02*
X153306896Y-28784462D01*
X153306896Y-28784462D02*
X153116419Y-28974938D01*
X153116419Y-28974938D02*
X152925943Y-29070176D01*
X152925943Y-29070176D02*
X152544991Y-29165414D01*
X152544991Y-29165414D02*
X152259276Y-29165414D01*
X152259276Y-29165414D02*
X151878324Y-29070176D01*
X151878324Y-29070176D02*
X151687848Y-28974938D01*
X151687848Y-28974938D02*
X151497372Y-28784462D01*
X151497372Y-28784462D02*
X151402134Y-28498747D01*
X151402134Y-28498747D02*
X151402134Y-28308271D01*
X151402134Y-28308271D02*
X151497372Y-28022557D01*
X151497372Y-28022557D02*
X151592610Y-27927319D01*
X151402134Y-27070176D02*
X153021181Y-27070176D01*
X153021181Y-27070176D02*
X153211657Y-26974938D01*
X153211657Y-26974938D02*
X153306896Y-26879700D01*
X153306896Y-26879700D02*
X153402134Y-26689224D01*
X153402134Y-26689224D02*
X153402134Y-26308271D01*
X153402134Y-26308271D02*
X153306896Y-26117795D01*
X153306896Y-26117795D02*
X153211657Y-26022557D01*
X153211657Y-26022557D02*
X153021181Y-25927319D01*
X153021181Y-25927319D02*
X151402134Y-25927319D01*
X151402134Y-25260652D02*
X151402134Y-24117795D01*
X153402134Y-24689224D02*
X151402134Y-24689224D01*
X199402134Y-33546366D02*
X201402134Y-32879700D01*
X201402134Y-32879700D02*
X199402134Y-32213033D01*
X200640229Y-31546366D02*
X200640229Y-30022557D01*
X201211657Y-27927319D02*
X201306896Y-28022557D01*
X201306896Y-28022557D02*
X201402134Y-28308271D01*
X201402134Y-28308271D02*
X201402134Y-28498747D01*
X201402134Y-28498747D02*
X201306896Y-28784462D01*
X201306896Y-28784462D02*
X201116419Y-28974938D01*
X201116419Y-28974938D02*
X200925943Y-29070176D01*
X200925943Y-29070176D02*
X200544991Y-29165414D01*
X200544991Y-29165414D02*
X200259276Y-29165414D01*
X200259276Y-29165414D02*
X199878324Y-29070176D01*
X199878324Y-29070176D02*
X199687848Y-28974938D01*
X199687848Y-28974938D02*
X199497372Y-28784462D01*
X199497372Y-28784462D02*
X199402134Y-28498747D01*
X199402134Y-28498747D02*
X199402134Y-28308271D01*
X199402134Y-28308271D02*
X199497372Y-28022557D01*
X199497372Y-28022557D02*
X199592610Y-27927319D01*
X199402134Y-27070176D02*
X201021181Y-27070176D01*
X201021181Y-27070176D02*
X201211657Y-26974938D01*
X201211657Y-26974938D02*
X201306896Y-26879700D01*
X201306896Y-26879700D02*
X201402134Y-26689224D01*
X201402134Y-26689224D02*
X201402134Y-26308271D01*
X201402134Y-26308271D02*
X201306896Y-26117795D01*
X201306896Y-26117795D02*
X201211657Y-26022557D01*
X201211657Y-26022557D02*
X201021181Y-25927319D01*
X201021181Y-25927319D02*
X199402134Y-25927319D01*
X199402134Y-25260652D02*
X199402134Y-24117795D01*
X201402134Y-24689224D02*
X199402134Y-24689224D01*
X143402134Y-33546366D02*
X145402134Y-32879700D01*
X145402134Y-32879700D02*
X143402134Y-32213033D01*
X144640229Y-31546366D02*
X144640229Y-30022557D01*
X145211657Y-27927319D02*
X145306896Y-28022557D01*
X145306896Y-28022557D02*
X145402134Y-28308271D01*
X145402134Y-28308271D02*
X145402134Y-28498747D01*
X145402134Y-28498747D02*
X145306896Y-28784462D01*
X145306896Y-28784462D02*
X145116419Y-28974938D01*
X145116419Y-28974938D02*
X144925943Y-29070176D01*
X144925943Y-29070176D02*
X144544991Y-29165414D01*
X144544991Y-29165414D02*
X144259276Y-29165414D01*
X144259276Y-29165414D02*
X143878324Y-29070176D01*
X143878324Y-29070176D02*
X143687848Y-28974938D01*
X143687848Y-28974938D02*
X143497372Y-28784462D01*
X143497372Y-28784462D02*
X143402134Y-28498747D01*
X143402134Y-28498747D02*
X143402134Y-28308271D01*
X143402134Y-28308271D02*
X143497372Y-28022557D01*
X143497372Y-28022557D02*
X143592610Y-27927319D01*
X143402134Y-27070176D02*
X145021181Y-27070176D01*
X145021181Y-27070176D02*
X145211657Y-26974938D01*
X145211657Y-26974938D02*
X145306896Y-26879700D01*
X145306896Y-26879700D02*
X145402134Y-26689224D01*
X145402134Y-26689224D02*
X145402134Y-26308271D01*
X145402134Y-26308271D02*
X145306896Y-26117795D01*
X145306896Y-26117795D02*
X145211657Y-26022557D01*
X145211657Y-26022557D02*
X145021181Y-25927319D01*
X145021181Y-25927319D02*
X143402134Y-25927319D01*
X143402134Y-25260652D02*
X143402134Y-24117795D01*
X145402134Y-24689224D02*
X143402134Y-24689224D01*
M02*
