%TF.GenerationSoftware,KiCad,Pcbnew,7.0.6+dfsg-1*%
%TF.CreationDate,2023-08-23T14:28:08+02:00*%
%TF.ProjectId,GPDI_ULX3S_panel,47504449-5f55-44c5-9833-535f70616e65,1.6*%
%TF.SameCoordinates,Original*%
%TF.FileFunction,Paste,Top*%
%TF.FilePolarity,Positive*%
%FSLAX46Y46*%
G04 Gerber Fmt 4.6, Leading zero omitted, Abs format (unit mm)*
G04 Created by KiCad (PCBNEW 7.0.6+dfsg-1) date 2023-08-23 14:28:08*
%MOMM*%
%LPD*%
G01*
G04 APERTURE LIST*
G04 Aperture macros list*
%AMRoundRect*
0 Rectangle with rounded corners*
0 $1 Rounding radius*
0 $2 $3 $4 $5 $6 $7 $8 $9 X,Y pos of 4 corners*
0 Add a 4 corners polygon primitive as box body*
4,1,4,$2,$3,$4,$5,$6,$7,$8,$9,$2,$3,0*
0 Add four circle primitives for the rounded corners*
1,1,$1+$1,$2,$3*
1,1,$1+$1,$4,$5*
1,1,$1+$1,$6,$7*
1,1,$1+$1,$8,$9*
0 Add four rect primitives between the rounded corners*
20,1,$1+$1,$2,$3,$4,$5,0*
20,1,$1+$1,$4,$5,$6,$7,0*
20,1,$1+$1,$6,$7,$8,$9,0*
20,1,$1+$1,$8,$9,$2,$3,0*%
G04 Aperture macros list end*
%ADD10RoundRect,0.147500X0.147500X0.172500X-0.147500X0.172500X-0.147500X-0.172500X0.147500X-0.172500X0*%
%ADD11RoundRect,0.147500X0.172500X-0.147500X0.172500X0.147500X-0.172500X0.147500X-0.172500X-0.147500X0*%
%ADD12RoundRect,0.147500X-0.147500X-0.172500X0.147500X-0.172500X0.147500X0.172500X-0.147500X0.172500X0*%
%ADD13R,0.900000X1.200000*%
%ADD14RoundRect,0.249999X0.425001X-0.450001X0.425001X0.450001X-0.425001X0.450001X-0.425001X-0.450001X0*%
%ADD15R,0.450000X0.600000*%
%ADD16RoundRect,0.225000X-0.225000X-0.375000X0.225000X-0.375000X0.225000X0.375000X-0.225000X0.375000X0*%
%ADD17RoundRect,0.147500X-0.172500X0.147500X-0.172500X-0.147500X0.172500X-0.147500X0.172500X0.147500X0*%
%ADD18R,1.060000X0.650000*%
%ADD19R,1.900000X0.300000*%
%ADD20R,1.100000X0.450000*%
%ADD21RoundRect,0.250000X-0.375000X-1.075000X0.375000X-1.075000X0.375000X1.075000X-0.375000X1.075000X0*%
%ADD22RoundRect,0.237500X-0.287500X-0.237500X0.287500X-0.237500X0.287500X0.237500X-0.287500X0.237500X0*%
%ADD23RoundRect,0.249999X0.450001X0.425001X-0.450001X0.425001X-0.450001X-0.425001X0.450001X-0.425001X0*%
G04 APERTURE END LIST*
D10*
%TO.C,C2*%
X171662451Y-154280000D03*
X170692451Y-154280000D03*
%TD*%
%TO.C,C7*%
X75657647Y-122200000D03*
X74687647Y-122200000D03*
%TD*%
D11*
%TO.C,R3*%
X231427353Y-51835000D03*
X231427353Y-50865000D03*
%TD*%
%TO.C,R3*%
X135427549Y-175835000D03*
X135427549Y-174865000D03*
%TD*%
D10*
%TO.C,C8*%
X219648353Y-181890000D03*
X218678353Y-181890000D03*
%TD*%
D12*
%TO.C,R23*%
X72772647Y-86340000D03*
X73742647Y-86340000D03*
%TD*%
D11*
%TO.C,R12*%
X167107451Y-124025000D03*
X167107451Y-123055000D03*
%TD*%
D13*
%TO.C,D1*%
X178877451Y-61450000D03*
X182177451Y-61450000D03*
%TD*%
D14*
%TO.C,C12*%
X176624911Y-188670180D03*
X176624911Y-185970180D03*
%TD*%
D15*
%TO.C,D3*%
X86752647Y-187275000D03*
X86752647Y-189375000D03*
%TD*%
D12*
%TO.C,R5*%
X174659911Y-84080180D03*
X175629911Y-84080180D03*
%TD*%
D14*
%TO.C,C12*%
X128625009Y-95670180D03*
X128625009Y-92970180D03*
%TD*%
D11*
%TO.C,R4*%
X230327353Y-175835000D03*
X230327353Y-174865000D03*
%TD*%
D10*
%TO.C,C13*%
X223629813Y-145060180D03*
X222659813Y-145060180D03*
%TD*%
D12*
%TO.C,R19*%
X120752549Y-88940000D03*
X121722549Y-88940000D03*
%TD*%
D16*
%TO.C,D4*%
X121515009Y-97220180D03*
X124815009Y-97220180D03*
%TD*%
D10*
%TO.C,R17*%
X221569813Y-187860180D03*
X220599813Y-187860180D03*
%TD*%
D11*
%TO.C,R12*%
X119107549Y-124025000D03*
X119107549Y-123055000D03*
%TD*%
%TO.C,R10*%
X83967267Y-149154820D03*
X83967267Y-148184820D03*
%TD*%
D10*
%TO.C,C2*%
X75662647Y-61280000D03*
X74692647Y-61280000D03*
%TD*%
D17*
%TO.C,R22*%
X174927711Y-87586900D03*
X174927711Y-88556900D03*
%TD*%
D11*
%TO.C,R21*%
X125924509Y-150549280D03*
X125924509Y-149579280D03*
%TD*%
D18*
%TO.C,U1*%
X226652353Y-187625000D03*
X226652353Y-188575000D03*
X226652353Y-189525000D03*
X228852353Y-189525000D03*
X228852353Y-187625000D03*
%TD*%
D11*
%TO.C,R21*%
X77924607Y-150549280D03*
X77924607Y-149579280D03*
%TD*%
D10*
%TO.C,R17*%
X221569813Y-125860180D03*
X220599813Y-125860180D03*
%TD*%
%TO.C,R13*%
X181379171Y-58181880D03*
X180409171Y-58181880D03*
%TD*%
D12*
%TO.C,R15*%
X120762549Y-59580000D03*
X121732549Y-59580000D03*
%TD*%
D10*
%TO.C,C6*%
X123637549Y-186470000D03*
X122667549Y-186470000D03*
%TD*%
D12*
%TO.C,R23*%
X216772353Y-86340000D03*
X217742353Y-86340000D03*
%TD*%
D11*
%TO.C,R12*%
X71107647Y-124025000D03*
X71107647Y-123055000D03*
%TD*%
D17*
%TO.C,R28*%
X117505009Y-189405180D03*
X117505009Y-190375180D03*
%TD*%
D10*
%TO.C,C6*%
X75637647Y-186470000D03*
X74667647Y-186470000D03*
%TD*%
D17*
%TO.C,R22*%
X174927711Y-149586900D03*
X174927711Y-150556900D03*
%TD*%
D12*
%TO.C,R23*%
X216772353Y-179340000D03*
X217742353Y-179340000D03*
%TD*%
D10*
%TO.C,C3*%
X219662353Y-89970000D03*
X218692353Y-89970000D03*
%TD*%
D17*
%TO.C,R16*%
X119096989Y-119153320D03*
X119096989Y-120123320D03*
%TD*%
%TO.C,R28*%
X117505009Y-127405180D03*
X117505009Y-128375180D03*
%TD*%
D16*
%TO.C,D4*%
X169514911Y-66220180D03*
X172814911Y-66220180D03*
%TD*%
D10*
%TO.C,C9*%
X75697647Y-179610000D03*
X74727647Y-179610000D03*
%TD*%
%TO.C,R17*%
X77570107Y-187860180D03*
X76600107Y-187860180D03*
%TD*%
D11*
%TO.C,R29*%
X175014911Y-155975180D03*
X175014911Y-155005180D03*
%TD*%
D10*
%TO.C,C8*%
X171648451Y-150890000D03*
X170678451Y-150890000D03*
%TD*%
D17*
%TO.C,R7*%
X223427353Y-48665000D03*
X223427353Y-49635000D03*
%TD*%
D12*
%TO.C,R23*%
X72772647Y-179340000D03*
X73742647Y-179340000D03*
%TD*%
D14*
%TO.C,C12*%
X128625009Y-157670180D03*
X128625009Y-154970180D03*
%TD*%
D10*
%TO.C,C6*%
X75637647Y-62470000D03*
X74667647Y-62470000D03*
%TD*%
D12*
%TO.C,R5*%
X78660107Y-53080180D03*
X79630107Y-53080180D03*
%TD*%
D14*
%TO.C,C12*%
X176624911Y-95670180D03*
X176624911Y-92970180D03*
%TD*%
D11*
%TO.C,R10*%
X227966973Y-149154820D03*
X227966973Y-148184820D03*
%TD*%
D17*
%TO.C,R6*%
X177127451Y-79665000D03*
X177127451Y-80635000D03*
%TD*%
D11*
%TO.C,R1*%
X173827451Y-82035000D03*
X173827451Y-81065000D03*
%TD*%
D17*
%TO.C,R28*%
X117505009Y-65405180D03*
X117505009Y-66375180D03*
%TD*%
D10*
%TO.C,C1*%
X75642647Y-187520000D03*
X74672647Y-187520000D03*
%TD*%
D16*
%TO.C,D4*%
X121515009Y-128220180D03*
X124815009Y-128220180D03*
%TD*%
D10*
%TO.C,C7*%
X75657647Y-184200000D03*
X74687647Y-184200000D03*
%TD*%
%TO.C,C4*%
X75702647Y-118680000D03*
X74732647Y-118680000D03*
%TD*%
%TO.C,C2*%
X123662549Y-185280000D03*
X122692549Y-185280000D03*
%TD*%
D11*
%TO.C,R29*%
X175014911Y-93975180D03*
X175014911Y-93005180D03*
%TD*%
D10*
%TO.C,R17*%
X173569911Y-125860180D03*
X172599911Y-125860180D03*
%TD*%
D17*
%TO.C,R16*%
X119096989Y-150153320D03*
X119096989Y-151123320D03*
%TD*%
D10*
%TO.C,C3*%
X219662353Y-58970000D03*
X218692353Y-58970000D03*
%TD*%
D11*
%TO.C,R29*%
X79015107Y-124975180D03*
X79015107Y-124005180D03*
%TD*%
D10*
%TO.C,C3*%
X171662451Y-120970000D03*
X170692451Y-120970000D03*
%TD*%
%TO.C,R13*%
X85379367Y-58181880D03*
X84409367Y-58181880D03*
%TD*%
D17*
%TO.C,R16*%
X119096989Y-57153320D03*
X119096989Y-58123320D03*
%TD*%
D15*
%TO.C,D3*%
X230752353Y-94275000D03*
X230752353Y-96375000D03*
%TD*%
D10*
%TO.C,C2*%
X171662451Y-185280000D03*
X170692451Y-185280000D03*
%TD*%
D12*
%TO.C,R14*%
X179786871Y-181168420D03*
X180756871Y-181168420D03*
%TD*%
D17*
%TO.C,R9*%
X178928211Y-86177200D03*
X178928211Y-87147200D03*
%TD*%
D15*
%TO.C,D3*%
X230752353Y-156275000D03*
X230752353Y-158375000D03*
%TD*%
D18*
%TO.C,U1*%
X82652647Y-156625000D03*
X82652647Y-157575000D03*
X82652647Y-158525000D03*
X84852647Y-158525000D03*
X84852647Y-156625000D03*
%TD*%
D19*
%TO.C,P1*%
X112972289Y-62345140D03*
X112972289Y-61845140D03*
X112972289Y-61345140D03*
X112972289Y-60845140D03*
X112972289Y-60345140D03*
X112972289Y-59845140D03*
X112972289Y-59345140D03*
X112972289Y-58845140D03*
X112972289Y-58345140D03*
X112972289Y-57845140D03*
X112972289Y-57345140D03*
X112972289Y-56845140D03*
X112972289Y-56345140D03*
X112972289Y-55845140D03*
X112972289Y-55345140D03*
X112972289Y-54845140D03*
X112972289Y-54345140D03*
X112972289Y-53845140D03*
X112972289Y-53345140D03*
%TD*%
D11*
%TO.C,R4*%
X86327647Y-51835000D03*
X86327647Y-50865000D03*
%TD*%
D20*
%TO.C,U2*%
X84945107Y-84115180D03*
X84945107Y-83465180D03*
X84945107Y-82815180D03*
X84945107Y-82165180D03*
X81045107Y-82165180D03*
X81045107Y-82815180D03*
X81045107Y-83465180D03*
X81045107Y-84115180D03*
%TD*%
D17*
%TO.C,R22*%
X126927809Y-118586900D03*
X126927809Y-119556900D03*
%TD*%
D11*
%TO.C,R1*%
X125827549Y-175035000D03*
X125827549Y-174065000D03*
%TD*%
D21*
%TO.C,L1*%
X228102353Y-161075000D03*
X230902353Y-161075000D03*
%TD*%
D10*
%TO.C,C7*%
X219657353Y-91200000D03*
X218687353Y-91200000D03*
%TD*%
D12*
%TO.C,R20*%
X216772353Y-118930000D03*
X217742353Y-118930000D03*
%TD*%
D10*
%TO.C,C8*%
X171648451Y-119890000D03*
X170678451Y-119890000D03*
%TD*%
D12*
%TO.C,R11*%
X72712647Y-186220000D03*
X73682647Y-186220000D03*
%TD*%
D10*
%TO.C,C1*%
X75642647Y-94520000D03*
X74672647Y-94520000D03*
%TD*%
D20*
%TO.C,U2*%
X84945107Y-53115180D03*
X84945107Y-52465180D03*
X84945107Y-51815180D03*
X84945107Y-51165180D03*
X81045107Y-51165180D03*
X81045107Y-51815180D03*
X81045107Y-52465180D03*
X81045107Y-53115180D03*
%TD*%
D10*
%TO.C,C3*%
X123662549Y-151970000D03*
X122692549Y-151970000D03*
%TD*%
D16*
%TO.C,D4*%
X217514813Y-190220180D03*
X220814813Y-190220180D03*
%TD*%
D17*
%TO.C,R22*%
X174927711Y-180586900D03*
X174927711Y-181556900D03*
%TD*%
D12*
%TO.C,R14*%
X179786871Y-88168420D03*
X180756871Y-88168420D03*
%TD*%
D10*
%TO.C,C7*%
X123657549Y-91200000D03*
X122687549Y-91200000D03*
%TD*%
D11*
%TO.C,R10*%
X179967071Y-149154820D03*
X179967071Y-148184820D03*
%TD*%
D10*
%TO.C,C7*%
X219657353Y-153200000D03*
X218687353Y-153200000D03*
%TD*%
%TO.C,C7*%
X123657549Y-122200000D03*
X122687549Y-122200000D03*
%TD*%
D12*
%TO.C,R8*%
X72730107Y-63770180D03*
X73700107Y-63770180D03*
%TD*%
D17*
%TO.C,R22*%
X126927809Y-56586900D03*
X126927809Y-57556900D03*
%TD*%
D19*
%TO.C,P1*%
X160972191Y-62345140D03*
X160972191Y-61845140D03*
X160972191Y-61345140D03*
X160972191Y-60845140D03*
X160972191Y-60345140D03*
X160972191Y-59845140D03*
X160972191Y-59345140D03*
X160972191Y-58845140D03*
X160972191Y-58345140D03*
X160972191Y-57845140D03*
X160972191Y-57345140D03*
X160972191Y-56845140D03*
X160972191Y-56345140D03*
X160972191Y-55845140D03*
X160972191Y-55345140D03*
X160972191Y-54845140D03*
X160972191Y-54345140D03*
X160972191Y-53845140D03*
X160972191Y-53345140D03*
%TD*%
D12*
%TO.C,R8*%
X120730009Y-63770180D03*
X121700009Y-63770180D03*
%TD*%
%TO.C,R19*%
X216752353Y-181940000D03*
X217722353Y-181940000D03*
%TD*%
D17*
%TO.C,R16*%
X71097087Y-150153320D03*
X71097087Y-151123320D03*
%TD*%
D12*
%TO.C,R5*%
X222659813Y-177080180D03*
X223629813Y-177080180D03*
%TD*%
D18*
%TO.C,U1*%
X178652451Y-187625000D03*
X178652451Y-188575000D03*
X178652451Y-189525000D03*
X180852451Y-189525000D03*
X180852451Y-187625000D03*
%TD*%
D12*
%TO.C,R19*%
X120752549Y-119940000D03*
X121722549Y-119940000D03*
%TD*%
%TO.C,R14*%
X131786969Y-57168420D03*
X132756969Y-57168420D03*
%TD*%
D10*
%TO.C,C3*%
X123662549Y-89970000D03*
X122692549Y-89970000D03*
%TD*%
D12*
%TO.C,R8*%
X120730009Y-156770180D03*
X121700009Y-156770180D03*
%TD*%
D10*
%TO.C,C8*%
X123648549Y-119890000D03*
X122678549Y-119890000D03*
%TD*%
D12*
%TO.C,R23*%
X216772353Y-148340000D03*
X217742353Y-148340000D03*
%TD*%
D10*
%TO.C,C9*%
X219697353Y-86610000D03*
X218727353Y-86610000D03*
%TD*%
D11*
%TO.C,R3*%
X183427451Y-144835000D03*
X183427451Y-143865000D03*
%TD*%
D17*
%TO.C,R7*%
X175427451Y-79665000D03*
X175427451Y-80635000D03*
%TD*%
D10*
%TO.C,R17*%
X125570009Y-125860180D03*
X124600009Y-125860180D03*
%TD*%
D19*
%TO.C,P1*%
X112972289Y-124345140D03*
X112972289Y-123845140D03*
X112972289Y-123345140D03*
X112972289Y-122845140D03*
X112972289Y-122345140D03*
X112972289Y-121845140D03*
X112972289Y-121345140D03*
X112972289Y-120845140D03*
X112972289Y-120345140D03*
X112972289Y-119845140D03*
X112972289Y-119345140D03*
X112972289Y-118845140D03*
X112972289Y-118345140D03*
X112972289Y-117845140D03*
X112972289Y-117345140D03*
X112972289Y-116845140D03*
X112972289Y-116345140D03*
X112972289Y-115845140D03*
X112972289Y-115345140D03*
%TD*%
D20*
%TO.C,U2*%
X84945107Y-115115180D03*
X84945107Y-114465180D03*
X84945107Y-113815180D03*
X84945107Y-113165180D03*
X81045107Y-113165180D03*
X81045107Y-113815180D03*
X81045107Y-114465180D03*
X81045107Y-115115180D03*
%TD*%
D11*
%TO.C,R21*%
X173924411Y-88549280D03*
X173924411Y-87579280D03*
%TD*%
%TO.C,R21*%
X125924509Y-119549280D03*
X125924509Y-118579280D03*
%TD*%
D10*
%TO.C,R2*%
X132012549Y-80250000D03*
X131042549Y-80250000D03*
%TD*%
D15*
%TO.C,D3*%
X134752549Y-125275000D03*
X134752549Y-127375000D03*
%TD*%
D17*
%TO.C,R6*%
X177127451Y-141665000D03*
X177127451Y-142635000D03*
%TD*%
D11*
%TO.C,R3*%
X135427549Y-144835000D03*
X135427549Y-143865000D03*
%TD*%
D12*
%TO.C,R8*%
X120730009Y-125770180D03*
X121700009Y-125770180D03*
%TD*%
D11*
%TO.C,R21*%
X173924411Y-150549280D03*
X173924411Y-149579280D03*
%TD*%
D12*
%TO.C,R8*%
X72730107Y-187770180D03*
X73700107Y-187770180D03*
%TD*%
D19*
%TO.C,P1*%
X112972289Y-93345140D03*
X112972289Y-92845140D03*
X112972289Y-92345140D03*
X112972289Y-91845140D03*
X112972289Y-91345140D03*
X112972289Y-90845140D03*
X112972289Y-90345140D03*
X112972289Y-89845140D03*
X112972289Y-89345140D03*
X112972289Y-88845140D03*
X112972289Y-88345140D03*
X112972289Y-87845140D03*
X112972289Y-87345140D03*
X112972289Y-86845140D03*
X112972289Y-86345140D03*
X112972289Y-85845140D03*
X112972289Y-85345140D03*
X112972289Y-84845140D03*
X112972289Y-84345140D03*
%TD*%
D12*
%TO.C,R5*%
X222659813Y-115080180D03*
X223629813Y-115080180D03*
%TD*%
D18*
%TO.C,U1*%
X130652549Y-63625000D03*
X130652549Y-64575000D03*
X130652549Y-65525000D03*
X132852549Y-65525000D03*
X132852549Y-63625000D03*
%TD*%
D12*
%TO.C,R11*%
X72712647Y-62220000D03*
X73682647Y-62220000D03*
%TD*%
D10*
%TO.C,C9*%
X123697549Y-117610000D03*
X122727549Y-117610000D03*
%TD*%
D20*
%TO.C,U2*%
X228944813Y-53115180D03*
X228944813Y-52465180D03*
X228944813Y-51815180D03*
X228944813Y-51165180D03*
X225044813Y-51165180D03*
X225044813Y-51815180D03*
X225044813Y-52465180D03*
X225044813Y-53115180D03*
%TD*%
D10*
%TO.C,C8*%
X219648353Y-57890000D03*
X218678353Y-57890000D03*
%TD*%
D12*
%TO.C,R14*%
X83787067Y-88168420D03*
X84757067Y-88168420D03*
%TD*%
%TO.C,R14*%
X227786773Y-181168420D03*
X228756773Y-181168420D03*
%TD*%
D13*
%TO.C,D1*%
X130877549Y-92450000D03*
X134177549Y-92450000D03*
%TD*%
D10*
%TO.C,C7*%
X75657647Y-60200000D03*
X74687647Y-60200000D03*
%TD*%
%TO.C,C3*%
X171662451Y-89970000D03*
X170692451Y-89970000D03*
%TD*%
%TO.C,R18*%
X75630107Y-157530180D03*
X74660107Y-157530180D03*
%TD*%
%TO.C,R17*%
X173569911Y-187860180D03*
X172599911Y-187860180D03*
%TD*%
D17*
%TO.C,R16*%
X71097087Y-88153320D03*
X71097087Y-89123320D03*
%TD*%
D14*
%TO.C,C12*%
X80625107Y-157670180D03*
X80625107Y-154970180D03*
%TD*%
D12*
%TO.C,R5*%
X174659911Y-177080180D03*
X175629911Y-177080180D03*
%TD*%
D17*
%TO.C,R28*%
X165504911Y-158405180D03*
X165504911Y-159375180D03*
%TD*%
D10*
%TO.C,C13*%
X223629813Y-83060180D03*
X222659813Y-83060180D03*
%TD*%
%TO.C,C1*%
X219642353Y-187520000D03*
X218672353Y-187520000D03*
%TD*%
%TO.C,C2*%
X219662353Y-92280000D03*
X218692353Y-92280000D03*
%TD*%
D11*
%TO.C,R12*%
X71107647Y-93025000D03*
X71107647Y-92055000D03*
%TD*%
D10*
%TO.C,C4*%
X123702549Y-149680000D03*
X122732549Y-149680000D03*
%TD*%
D11*
%TO.C,R3*%
X135427549Y-82835000D03*
X135427549Y-81865000D03*
%TD*%
D22*
%TO.C,D2*%
X229352353Y-111550000D03*
X231102353Y-111550000D03*
%TD*%
D11*
%TO.C,R4*%
X230327353Y-82835000D03*
X230327353Y-81865000D03*
%TD*%
%TO.C,C5*%
X70505107Y-128375180D03*
X70505107Y-127405180D03*
%TD*%
D12*
%TO.C,R20*%
X120772549Y-87930000D03*
X121742549Y-87930000D03*
%TD*%
D10*
%TO.C,R17*%
X221569813Y-63860180D03*
X220599813Y-63860180D03*
%TD*%
D21*
%TO.C,L1*%
X228102353Y-192075000D03*
X230902353Y-192075000D03*
%TD*%
D11*
%TO.C,R29*%
X175014911Y-62975180D03*
X175014911Y-62005180D03*
%TD*%
D10*
%TO.C,C13*%
X127630009Y-52060180D03*
X126660009Y-52060180D03*
%TD*%
%TO.C,C3*%
X75662647Y-58970000D03*
X74692647Y-58970000D03*
%TD*%
D15*
%TO.C,D3*%
X182752451Y-94275000D03*
X182752451Y-96375000D03*
%TD*%
D12*
%TO.C,R14*%
X179786871Y-57168420D03*
X180756871Y-57168420D03*
%TD*%
D17*
%TO.C,R9*%
X226928113Y-148177200D03*
X226928113Y-149147200D03*
%TD*%
D19*
%TO.C,P1*%
X64972387Y-62345140D03*
X64972387Y-61845140D03*
X64972387Y-61345140D03*
X64972387Y-60845140D03*
X64972387Y-60345140D03*
X64972387Y-59845140D03*
X64972387Y-59345140D03*
X64972387Y-58845140D03*
X64972387Y-58345140D03*
X64972387Y-57845140D03*
X64972387Y-57345140D03*
X64972387Y-56845140D03*
X64972387Y-56345140D03*
X64972387Y-55845140D03*
X64972387Y-55345140D03*
X64972387Y-54845140D03*
X64972387Y-54345140D03*
X64972387Y-53845140D03*
X64972387Y-53345140D03*
%TD*%
D22*
%TO.C,D2*%
X85352647Y-80550000D03*
X87102647Y-80550000D03*
%TD*%
D11*
%TO.C,R10*%
X179967071Y-87154820D03*
X179967071Y-86184820D03*
%TD*%
D10*
%TO.C,C6*%
X123637549Y-62470000D03*
X122667549Y-62470000D03*
%TD*%
D20*
%TO.C,U2*%
X228944813Y-115115180D03*
X228944813Y-114465180D03*
X228944813Y-113815180D03*
X228944813Y-113165180D03*
X225044813Y-113165180D03*
X225044813Y-113815180D03*
X225044813Y-114465180D03*
X225044813Y-115115180D03*
%TD*%
D10*
%TO.C,R17*%
X77570107Y-63860180D03*
X76600107Y-63860180D03*
%TD*%
D21*
%TO.C,L1*%
X228102353Y-68075000D03*
X230902353Y-68075000D03*
%TD*%
D17*
%TO.C,R7*%
X175427451Y-48665000D03*
X175427451Y-49635000D03*
%TD*%
D11*
%TO.C,R1*%
X221827353Y-51035000D03*
X221827353Y-50065000D03*
%TD*%
D23*
%TO.C,C11*%
X226122313Y-98670180D03*
X223422313Y-98670180D03*
%TD*%
D21*
%TO.C,L1*%
X132102549Y-161075000D03*
X134902549Y-161075000D03*
%TD*%
D18*
%TO.C,U1*%
X226652353Y-156625000D03*
X226652353Y-157575000D03*
X226652353Y-158525000D03*
X228852353Y-158525000D03*
X228852353Y-156625000D03*
%TD*%
D10*
%TO.C,C4*%
X123702549Y-118680000D03*
X122732549Y-118680000D03*
%TD*%
D20*
%TO.C,U2*%
X132945009Y-146115180D03*
X132945009Y-145465180D03*
X132945009Y-144815180D03*
X132945009Y-144165180D03*
X129045009Y-144165180D03*
X129045009Y-144815180D03*
X129045009Y-145465180D03*
X129045009Y-146115180D03*
%TD*%
D11*
%TO.C,R12*%
X119107549Y-186025000D03*
X119107549Y-185055000D03*
%TD*%
D10*
%TO.C,C8*%
X123648549Y-57890000D03*
X122678549Y-57890000D03*
%TD*%
D11*
%TO.C,R29*%
X127015009Y-62975180D03*
X127015009Y-62005180D03*
%TD*%
D18*
%TO.C,U1*%
X178652451Y-63625000D03*
X178652451Y-64575000D03*
X178652451Y-65525000D03*
X180852451Y-65525000D03*
X180852451Y-63625000D03*
%TD*%
D12*
%TO.C,R20*%
X120772549Y-149930000D03*
X121742549Y-149930000D03*
%TD*%
D23*
%TO.C,C11*%
X130122509Y-98670180D03*
X127422509Y-98670180D03*
%TD*%
D11*
%TO.C,R1*%
X125827549Y-144035000D03*
X125827549Y-143065000D03*
%TD*%
%TO.C,R29*%
X127015009Y-124975180D03*
X127015009Y-124005180D03*
%TD*%
D20*
%TO.C,U2*%
X228944813Y-84115180D03*
X228944813Y-83465180D03*
X228944813Y-82815180D03*
X228944813Y-82165180D03*
X225044813Y-82165180D03*
X225044813Y-82815180D03*
X225044813Y-83465180D03*
X225044813Y-84115180D03*
%TD*%
D12*
%TO.C,R15*%
X120762549Y-183580000D03*
X121732549Y-183580000D03*
%TD*%
D14*
%TO.C,C12*%
X128625009Y-188670180D03*
X128625009Y-185970180D03*
%TD*%
D12*
%TO.C,R20*%
X120772549Y-118930000D03*
X121742549Y-118930000D03*
%TD*%
D17*
%TO.C,R6*%
X129127549Y-79665000D03*
X129127549Y-80635000D03*
%TD*%
D12*
%TO.C,R8*%
X120730009Y-187770180D03*
X121700009Y-187770180D03*
%TD*%
D10*
%TO.C,C9*%
X171697451Y-55610000D03*
X170727451Y-55610000D03*
%TD*%
D17*
%TO.C,R9*%
X226928113Y-179177200D03*
X226928113Y-180147200D03*
%TD*%
D21*
%TO.C,L1*%
X228102353Y-130075000D03*
X230902353Y-130075000D03*
%TD*%
D19*
%TO.C,P1*%
X208972093Y-62345140D03*
X208972093Y-61845140D03*
X208972093Y-61345140D03*
X208972093Y-60845140D03*
X208972093Y-60345140D03*
X208972093Y-59845140D03*
X208972093Y-59345140D03*
X208972093Y-58845140D03*
X208972093Y-58345140D03*
X208972093Y-57845140D03*
X208972093Y-57345140D03*
X208972093Y-56845140D03*
X208972093Y-56345140D03*
X208972093Y-55845140D03*
X208972093Y-55345140D03*
X208972093Y-54845140D03*
X208972093Y-54345140D03*
X208972093Y-53845140D03*
X208972093Y-53345140D03*
%TD*%
D11*
%TO.C,C5*%
X70505107Y-97375180D03*
X70505107Y-96405180D03*
%TD*%
D10*
%TO.C,C3*%
X75662647Y-182970000D03*
X74692647Y-182970000D03*
%TD*%
%TO.C,R18*%
X75630107Y-188530180D03*
X74660107Y-188530180D03*
%TD*%
%TO.C,C7*%
X171657451Y-91200000D03*
X170687451Y-91200000D03*
%TD*%
D17*
%TO.C,R28*%
X117505009Y-158405180D03*
X117505009Y-159375180D03*
%TD*%
D10*
%TO.C,R18*%
X123630009Y-95530180D03*
X122660009Y-95530180D03*
%TD*%
D12*
%TO.C,R5*%
X174659911Y-146080180D03*
X175629911Y-146080180D03*
%TD*%
%TO.C,R19*%
X216752353Y-119940000D03*
X217722353Y-119940000D03*
%TD*%
D10*
%TO.C,C4*%
X171702451Y-87680000D03*
X170732451Y-87680000D03*
%TD*%
%TO.C,C2*%
X123662549Y-92280000D03*
X122692549Y-92280000D03*
%TD*%
D12*
%TO.C,R19*%
X168752451Y-57940000D03*
X169722451Y-57940000D03*
%TD*%
D18*
%TO.C,U1*%
X82652647Y-187625000D03*
X82652647Y-188575000D03*
X82652647Y-189525000D03*
X84852647Y-189525000D03*
X84852647Y-187625000D03*
%TD*%
D11*
%TO.C,R10*%
X131967169Y-180154820D03*
X131967169Y-179184820D03*
%TD*%
D17*
%TO.C,R16*%
X119096989Y-88153320D03*
X119096989Y-89123320D03*
%TD*%
D12*
%TO.C,R23*%
X168772451Y-55340000D03*
X169742451Y-55340000D03*
%TD*%
D17*
%TO.C,R16*%
X167096891Y-150153320D03*
X167096891Y-151123320D03*
%TD*%
D11*
%TO.C,R21*%
X125924509Y-181549280D03*
X125924509Y-180579280D03*
%TD*%
D10*
%TO.C,C2*%
X171662451Y-123280000D03*
X170692451Y-123280000D03*
%TD*%
%TO.C,C6*%
X75637647Y-155470000D03*
X74667647Y-155470000D03*
%TD*%
D12*
%TO.C,R14*%
X83787067Y-150168420D03*
X84757067Y-150168420D03*
%TD*%
D10*
%TO.C,R13*%
X229379073Y-182181880D03*
X228409073Y-182181880D03*
%TD*%
%TO.C,C6*%
X219637353Y-186470000D03*
X218667353Y-186470000D03*
%TD*%
%TO.C,R17*%
X173569911Y-156860180D03*
X172599911Y-156860180D03*
%TD*%
D12*
%TO.C,R14*%
X131786969Y-119168420D03*
X132756969Y-119168420D03*
%TD*%
D10*
%TO.C,C13*%
X127630009Y-114060180D03*
X126660009Y-114060180D03*
%TD*%
D23*
%TO.C,C11*%
X82122607Y-191670180D03*
X79422607Y-191670180D03*
%TD*%
%TO.C,C11*%
X82122607Y-129670180D03*
X79422607Y-129670180D03*
%TD*%
D20*
%TO.C,U2*%
X84945107Y-146115180D03*
X84945107Y-145465180D03*
X84945107Y-144815180D03*
X84945107Y-144165180D03*
X81045107Y-144165180D03*
X81045107Y-144815180D03*
X81045107Y-145465180D03*
X81045107Y-146115180D03*
%TD*%
D12*
%TO.C,R19*%
X120752549Y-150940000D03*
X121722549Y-150940000D03*
%TD*%
D11*
%TO.C,C5*%
X166504911Y-159375180D03*
X166504911Y-158405180D03*
%TD*%
D13*
%TO.C,D1*%
X82877647Y-61450000D03*
X86177647Y-61450000D03*
%TD*%
D11*
%TO.C,R21*%
X125924509Y-57549280D03*
X125924509Y-56579280D03*
%TD*%
D10*
%TO.C,C9*%
X123697549Y-55610000D03*
X122727549Y-55610000D03*
%TD*%
D22*
%TO.C,D2*%
X85352647Y-111550000D03*
X87102647Y-111550000D03*
%TD*%
D11*
%TO.C,R4*%
X86327647Y-113835000D03*
X86327647Y-112865000D03*
%TD*%
D16*
%TO.C,D4*%
X73515107Y-159220180D03*
X76815107Y-159220180D03*
%TD*%
D10*
%TO.C,C2*%
X219662353Y-61280000D03*
X218692353Y-61280000D03*
%TD*%
D22*
%TO.C,D2*%
X85352647Y-173550000D03*
X87102647Y-173550000D03*
%TD*%
D17*
%TO.C,R7*%
X127427549Y-141665000D03*
X127427549Y-142635000D03*
%TD*%
D12*
%TO.C,R11*%
X216712353Y-93220000D03*
X217682353Y-93220000D03*
%TD*%
%TO.C,R14*%
X83787067Y-181168420D03*
X84757067Y-181168420D03*
%TD*%
%TO.C,R11*%
X216712353Y-186220000D03*
X217682353Y-186220000D03*
%TD*%
D17*
%TO.C,R7*%
X223427353Y-110665000D03*
X223427353Y-111635000D03*
%TD*%
D10*
%TO.C,C13*%
X79630107Y-176060180D03*
X78660107Y-176060180D03*
%TD*%
%TO.C,R18*%
X219629813Y-95530180D03*
X218659813Y-95530180D03*
%TD*%
D12*
%TO.C,R8*%
X72730107Y-125770180D03*
X73700107Y-125770180D03*
%TD*%
D17*
%TO.C,R28*%
X213504813Y-158405180D03*
X213504813Y-159375180D03*
%TD*%
D12*
%TO.C,R5*%
X126660009Y-115080180D03*
X127630009Y-115080180D03*
%TD*%
D10*
%TO.C,C7*%
X123657549Y-184200000D03*
X122687549Y-184200000D03*
%TD*%
D12*
%TO.C,R5*%
X174659911Y-53080180D03*
X175629911Y-53080180D03*
%TD*%
D11*
%TO.C,R3*%
X231427353Y-175835000D03*
X231427353Y-174865000D03*
%TD*%
D12*
%TO.C,R15*%
X168762451Y-121580000D03*
X169732451Y-121580000D03*
%TD*%
%TO.C,R14*%
X131786969Y-181168420D03*
X132756969Y-181168420D03*
%TD*%
D10*
%TO.C,C4*%
X123702549Y-180680000D03*
X122732549Y-180680000D03*
%TD*%
%TO.C,R2*%
X84012647Y-49250000D03*
X83042647Y-49250000D03*
%TD*%
D12*
%TO.C,R20*%
X120772549Y-180930000D03*
X121742549Y-180930000D03*
%TD*%
D20*
%TO.C,U2*%
X180944911Y-115115180D03*
X180944911Y-114465180D03*
X180944911Y-113815180D03*
X180944911Y-113165180D03*
X177044911Y-113165180D03*
X177044911Y-113815180D03*
X177044911Y-114465180D03*
X177044911Y-115115180D03*
%TD*%
D12*
%TO.C,R20*%
X72772647Y-56930000D03*
X73742647Y-56930000D03*
%TD*%
D17*
%TO.C,R9*%
X130928309Y-117177200D03*
X130928309Y-118147200D03*
%TD*%
D13*
%TO.C,D1*%
X82877647Y-154450000D03*
X86177647Y-154450000D03*
%TD*%
D11*
%TO.C,R1*%
X221827353Y-175035000D03*
X221827353Y-174065000D03*
%TD*%
D16*
%TO.C,D4*%
X121515009Y-159220180D03*
X124815009Y-159220180D03*
%TD*%
D11*
%TO.C,R12*%
X167107451Y-93025000D03*
X167107451Y-92055000D03*
%TD*%
D10*
%TO.C,R17*%
X173569911Y-63860180D03*
X172599911Y-63860180D03*
%TD*%
%TO.C,R13*%
X133379269Y-89181880D03*
X132409269Y-89181880D03*
%TD*%
D17*
%TO.C,R16*%
X167096891Y-181153320D03*
X167096891Y-182123320D03*
%TD*%
D15*
%TO.C,D3*%
X86752647Y-125275000D03*
X86752647Y-127375000D03*
%TD*%
D10*
%TO.C,C9*%
X123697549Y-148610000D03*
X122727549Y-148610000D03*
%TD*%
D17*
%TO.C,R9*%
X82928407Y-117177200D03*
X82928407Y-118147200D03*
%TD*%
D10*
%TO.C,C9*%
X171697451Y-148610000D03*
X170727451Y-148610000D03*
%TD*%
D12*
%TO.C,R14*%
X227786773Y-57168420D03*
X228756773Y-57168420D03*
%TD*%
D10*
%TO.C,C3*%
X123662549Y-182970000D03*
X122692549Y-182970000D03*
%TD*%
D19*
%TO.C,P1*%
X112972289Y-155345140D03*
X112972289Y-154845140D03*
X112972289Y-154345140D03*
X112972289Y-153845140D03*
X112972289Y-153345140D03*
X112972289Y-152845140D03*
X112972289Y-152345140D03*
X112972289Y-151845140D03*
X112972289Y-151345140D03*
X112972289Y-150845140D03*
X112972289Y-150345140D03*
X112972289Y-149845140D03*
X112972289Y-149345140D03*
X112972289Y-148845140D03*
X112972289Y-148345140D03*
X112972289Y-147845140D03*
X112972289Y-147345140D03*
X112972289Y-146845140D03*
X112972289Y-146345140D03*
%TD*%
D12*
%TO.C,R14*%
X131786969Y-88168420D03*
X132756969Y-88168420D03*
%TD*%
D17*
%TO.C,R22*%
X222927613Y-87586900D03*
X222927613Y-88556900D03*
%TD*%
D11*
%TO.C,R21*%
X77924607Y-57549280D03*
X77924607Y-56579280D03*
%TD*%
D17*
%TO.C,R22*%
X174927711Y-118586900D03*
X174927711Y-119556900D03*
%TD*%
D10*
%TO.C,R17*%
X125570009Y-156860180D03*
X124600009Y-156860180D03*
%TD*%
%TO.C,R2*%
X228012353Y-142250000D03*
X227042353Y-142250000D03*
%TD*%
D12*
%TO.C,R23*%
X72772647Y-117340000D03*
X73742647Y-117340000D03*
%TD*%
D10*
%TO.C,R2*%
X132012549Y-142250000D03*
X131042549Y-142250000D03*
%TD*%
D15*
%TO.C,D3*%
X230752353Y-125275000D03*
X230752353Y-127375000D03*
%TD*%
D10*
%TO.C,C9*%
X75697647Y-148610000D03*
X74727647Y-148610000D03*
%TD*%
D11*
%TO.C,R4*%
X134327549Y-144835000D03*
X134327549Y-143865000D03*
%TD*%
D12*
%TO.C,R19*%
X120752549Y-181940000D03*
X121722549Y-181940000D03*
%TD*%
%TO.C,R15*%
X120762549Y-152580000D03*
X121732549Y-152580000D03*
%TD*%
%TO.C,R15*%
X168762451Y-59580000D03*
X169732451Y-59580000D03*
%TD*%
D17*
%TO.C,R7*%
X127427549Y-110665000D03*
X127427549Y-111635000D03*
%TD*%
D10*
%TO.C,C3*%
X171662451Y-151970000D03*
X170692451Y-151970000D03*
%TD*%
%TO.C,C3*%
X171662451Y-58970000D03*
X170692451Y-58970000D03*
%TD*%
D20*
%TO.C,U2*%
X84945107Y-177115180D03*
X84945107Y-176465180D03*
X84945107Y-175815180D03*
X84945107Y-175165180D03*
X81045107Y-175165180D03*
X81045107Y-175815180D03*
X81045107Y-176465180D03*
X81045107Y-177115180D03*
%TD*%
D15*
%TO.C,D3*%
X182752451Y-156275000D03*
X182752451Y-158375000D03*
%TD*%
D17*
%TO.C,R28*%
X69505107Y-127405180D03*
X69505107Y-128375180D03*
%TD*%
D10*
%TO.C,C4*%
X219702353Y-118680000D03*
X218732353Y-118680000D03*
%TD*%
D17*
%TO.C,R9*%
X226928113Y-86177200D03*
X226928113Y-87147200D03*
%TD*%
D23*
%TO.C,C11*%
X130122509Y-129670180D03*
X127422509Y-129670180D03*
%TD*%
D17*
%TO.C,R28*%
X213504813Y-65405180D03*
X213504813Y-66375180D03*
%TD*%
D11*
%TO.C,R10*%
X83967267Y-87154820D03*
X83967267Y-86184820D03*
%TD*%
D23*
%TO.C,C11*%
X130122509Y-191670180D03*
X127422509Y-191670180D03*
%TD*%
D10*
%TO.C,C13*%
X175629911Y-176060180D03*
X174659911Y-176060180D03*
%TD*%
D17*
%TO.C,R22*%
X126927809Y-149586900D03*
X126927809Y-150556900D03*
%TD*%
%TO.C,R22*%
X222927613Y-180586900D03*
X222927613Y-181556900D03*
%TD*%
D10*
%TO.C,C6*%
X171637451Y-155470000D03*
X170667451Y-155470000D03*
%TD*%
D15*
%TO.C,D3*%
X182752451Y-125275000D03*
X182752451Y-127375000D03*
%TD*%
D12*
%TO.C,R11*%
X216712353Y-124220000D03*
X217682353Y-124220000D03*
%TD*%
D23*
%TO.C,C11*%
X178122411Y-129670180D03*
X175422411Y-129670180D03*
%TD*%
D10*
%TO.C,C8*%
X75648647Y-88890000D03*
X74678647Y-88890000D03*
%TD*%
D12*
%TO.C,R20*%
X216772353Y-149930000D03*
X217742353Y-149930000D03*
%TD*%
D10*
%TO.C,C6*%
X123637549Y-124470000D03*
X122667549Y-124470000D03*
%TD*%
D13*
%TO.C,D1*%
X178877451Y-123450000D03*
X182177451Y-123450000D03*
%TD*%
D15*
%TO.C,D3*%
X134752549Y-187275000D03*
X134752549Y-189375000D03*
%TD*%
D17*
%TO.C,R28*%
X69505107Y-189405180D03*
X69505107Y-190375180D03*
%TD*%
D10*
%TO.C,R13*%
X181379171Y-151181880D03*
X180409171Y-151181880D03*
%TD*%
%TO.C,C7*%
X171657451Y-153200000D03*
X170687451Y-153200000D03*
%TD*%
D12*
%TO.C,R19*%
X168752451Y-150940000D03*
X169722451Y-150940000D03*
%TD*%
D10*
%TO.C,C6*%
X123637549Y-93470000D03*
X122667549Y-93470000D03*
%TD*%
D17*
%TO.C,R22*%
X78927907Y-180586900D03*
X78927907Y-181556900D03*
%TD*%
D10*
%TO.C,C3*%
X171662451Y-182970000D03*
X170692451Y-182970000D03*
%TD*%
D11*
%TO.C,R29*%
X223014813Y-124975180D03*
X223014813Y-124005180D03*
%TD*%
D10*
%TO.C,C1*%
X123642549Y-125520000D03*
X122672549Y-125520000D03*
%TD*%
D16*
%TO.C,D4*%
X121515009Y-190220180D03*
X124815009Y-190220180D03*
%TD*%
D17*
%TO.C,R9*%
X82928407Y-86177200D03*
X82928407Y-87147200D03*
%TD*%
D10*
%TO.C,C1*%
X219642353Y-63520000D03*
X218672353Y-63520000D03*
%TD*%
D11*
%TO.C,R3*%
X135427549Y-113835000D03*
X135427549Y-112865000D03*
%TD*%
%TO.C,R10*%
X131967169Y-118154820D03*
X131967169Y-117184820D03*
%TD*%
D17*
%TO.C,R6*%
X129127549Y-48665000D03*
X129127549Y-49635000D03*
%TD*%
%TO.C,R7*%
X223427353Y-141665000D03*
X223427353Y-142635000D03*
%TD*%
D12*
%TO.C,R5*%
X222659813Y-53080180D03*
X223629813Y-53080180D03*
%TD*%
%TO.C,R8*%
X168729911Y-125770180D03*
X169699911Y-125770180D03*
%TD*%
D10*
%TO.C,R18*%
X171629911Y-157530180D03*
X170659911Y-157530180D03*
%TD*%
D17*
%TO.C,R6*%
X177127451Y-48665000D03*
X177127451Y-49635000D03*
%TD*%
D22*
%TO.C,D2*%
X133352549Y-111550000D03*
X135102549Y-111550000D03*
%TD*%
D10*
%TO.C,C8*%
X171648451Y-181890000D03*
X170678451Y-181890000D03*
%TD*%
D19*
%TO.C,P1*%
X208972093Y-124345140D03*
X208972093Y-123845140D03*
X208972093Y-123345140D03*
X208972093Y-122845140D03*
X208972093Y-122345140D03*
X208972093Y-121845140D03*
X208972093Y-121345140D03*
X208972093Y-120845140D03*
X208972093Y-120345140D03*
X208972093Y-119845140D03*
X208972093Y-119345140D03*
X208972093Y-118845140D03*
X208972093Y-118345140D03*
X208972093Y-117845140D03*
X208972093Y-117345140D03*
X208972093Y-116845140D03*
X208972093Y-116345140D03*
X208972093Y-115845140D03*
X208972093Y-115345140D03*
%TD*%
D12*
%TO.C,R19*%
X72752647Y-88940000D03*
X73722647Y-88940000D03*
%TD*%
%TO.C,R15*%
X216762353Y-90580000D03*
X217732353Y-90580000D03*
%TD*%
D10*
%TO.C,C1*%
X123642549Y-63520000D03*
X122672549Y-63520000D03*
%TD*%
D11*
%TO.C,R29*%
X79015107Y-93975180D03*
X79015107Y-93005180D03*
%TD*%
D18*
%TO.C,U1*%
X82652647Y-63625000D03*
X82652647Y-64575000D03*
X82652647Y-65525000D03*
X84852647Y-65525000D03*
X84852647Y-63625000D03*
%TD*%
D12*
%TO.C,R5*%
X78660107Y-84080180D03*
X79630107Y-84080180D03*
%TD*%
D11*
%TO.C,C5*%
X118505009Y-159375180D03*
X118505009Y-158405180D03*
%TD*%
D10*
%TO.C,R2*%
X84012647Y-111250000D03*
X83042647Y-111250000D03*
%TD*%
%TO.C,C6*%
X219637353Y-62470000D03*
X218667353Y-62470000D03*
%TD*%
D12*
%TO.C,R5*%
X222659813Y-146080180D03*
X223629813Y-146080180D03*
%TD*%
D10*
%TO.C,R17*%
X125570009Y-63860180D03*
X124600009Y-63860180D03*
%TD*%
%TO.C,C4*%
X171702451Y-180680000D03*
X170732451Y-180680000D03*
%TD*%
D19*
%TO.C,P1*%
X208972093Y-155345140D03*
X208972093Y-154845140D03*
X208972093Y-154345140D03*
X208972093Y-153845140D03*
X208972093Y-153345140D03*
X208972093Y-152845140D03*
X208972093Y-152345140D03*
X208972093Y-151845140D03*
X208972093Y-151345140D03*
X208972093Y-150845140D03*
X208972093Y-150345140D03*
X208972093Y-149845140D03*
X208972093Y-149345140D03*
X208972093Y-148845140D03*
X208972093Y-148345140D03*
X208972093Y-147845140D03*
X208972093Y-147345140D03*
X208972093Y-146845140D03*
X208972093Y-146345140D03*
%TD*%
D17*
%TO.C,R9*%
X178928211Y-117177200D03*
X178928211Y-118147200D03*
%TD*%
D12*
%TO.C,R19*%
X120752549Y-57940000D03*
X121722549Y-57940000D03*
%TD*%
%TO.C,R8*%
X168729911Y-63770180D03*
X169699911Y-63770180D03*
%TD*%
D11*
%TO.C,R12*%
X119107549Y-93025000D03*
X119107549Y-92055000D03*
%TD*%
D17*
%TO.C,R22*%
X78927907Y-56586900D03*
X78927907Y-57556900D03*
%TD*%
D11*
%TO.C,R1*%
X125827549Y-113035000D03*
X125827549Y-112065000D03*
%TD*%
D10*
%TO.C,R2*%
X180012451Y-111250000D03*
X179042451Y-111250000D03*
%TD*%
D19*
%TO.C,P1*%
X160972191Y-93345140D03*
X160972191Y-92845140D03*
X160972191Y-92345140D03*
X160972191Y-91845140D03*
X160972191Y-91345140D03*
X160972191Y-90845140D03*
X160972191Y-90345140D03*
X160972191Y-89845140D03*
X160972191Y-89345140D03*
X160972191Y-88845140D03*
X160972191Y-88345140D03*
X160972191Y-87845140D03*
X160972191Y-87345140D03*
X160972191Y-86845140D03*
X160972191Y-86345140D03*
X160972191Y-85845140D03*
X160972191Y-85345140D03*
X160972191Y-84845140D03*
X160972191Y-84345140D03*
%TD*%
D11*
%TO.C,R4*%
X182327451Y-113835000D03*
X182327451Y-112865000D03*
%TD*%
D10*
%TO.C,C8*%
X219648353Y-88890000D03*
X218678353Y-88890000D03*
%TD*%
D11*
%TO.C,R3*%
X183427451Y-82835000D03*
X183427451Y-81865000D03*
%TD*%
D10*
%TO.C,C3*%
X219662353Y-182970000D03*
X218692353Y-182970000D03*
%TD*%
D22*
%TO.C,D2*%
X133352549Y-173550000D03*
X135102549Y-173550000D03*
%TD*%
D11*
%TO.C,R12*%
X167107451Y-155025000D03*
X167107451Y-154055000D03*
%TD*%
D17*
%TO.C,R6*%
X129127549Y-172665000D03*
X129127549Y-173635000D03*
%TD*%
%TO.C,R7*%
X223427353Y-172665000D03*
X223427353Y-173635000D03*
%TD*%
D11*
%TO.C,R12*%
X71107647Y-155025000D03*
X71107647Y-154055000D03*
%TD*%
D10*
%TO.C,C3*%
X75662647Y-120970000D03*
X74692647Y-120970000D03*
%TD*%
%TO.C,C6*%
X171637451Y-186470000D03*
X170667451Y-186470000D03*
%TD*%
D14*
%TO.C,C12*%
X224624813Y-64670180D03*
X224624813Y-61970180D03*
%TD*%
D15*
%TO.C,D3*%
X230752353Y-63275000D03*
X230752353Y-65375000D03*
%TD*%
D17*
%TO.C,R28*%
X213504813Y-96405180D03*
X213504813Y-97375180D03*
%TD*%
D10*
%TO.C,C8*%
X123648549Y-150890000D03*
X122678549Y-150890000D03*
%TD*%
D19*
%TO.C,P1*%
X64972387Y-124345140D03*
X64972387Y-123845140D03*
X64972387Y-123345140D03*
X64972387Y-122845140D03*
X64972387Y-122345140D03*
X64972387Y-121845140D03*
X64972387Y-121345140D03*
X64972387Y-120845140D03*
X64972387Y-120345140D03*
X64972387Y-119845140D03*
X64972387Y-119345140D03*
X64972387Y-118845140D03*
X64972387Y-118345140D03*
X64972387Y-117845140D03*
X64972387Y-117345140D03*
X64972387Y-116845140D03*
X64972387Y-116345140D03*
X64972387Y-115845140D03*
X64972387Y-115345140D03*
%TD*%
D12*
%TO.C,R8*%
X216729813Y-125770180D03*
X217699813Y-125770180D03*
%TD*%
D10*
%TO.C,C13*%
X127630009Y-176060180D03*
X126660009Y-176060180D03*
%TD*%
D23*
%TO.C,C11*%
X82122607Y-160670180D03*
X79422607Y-160670180D03*
%TD*%
D12*
%TO.C,R14*%
X179786871Y-150168420D03*
X180756871Y-150168420D03*
%TD*%
D10*
%TO.C,R2*%
X132012549Y-49250000D03*
X131042549Y-49250000D03*
%TD*%
D11*
%TO.C,R3*%
X231427353Y-82835000D03*
X231427353Y-81865000D03*
%TD*%
D10*
%TO.C,C2*%
X123662549Y-61280000D03*
X122692549Y-61280000D03*
%TD*%
%TO.C,C7*%
X219657353Y-184200000D03*
X218687353Y-184200000D03*
%TD*%
D17*
%TO.C,R16*%
X71097087Y-181153320D03*
X71097087Y-182123320D03*
%TD*%
D11*
%TO.C,R3*%
X87427647Y-113835000D03*
X87427647Y-112865000D03*
%TD*%
%TO.C,R21*%
X221924313Y-150549280D03*
X221924313Y-149579280D03*
%TD*%
D16*
%TO.C,D4*%
X217514813Y-159220180D03*
X220814813Y-159220180D03*
%TD*%
D17*
%TO.C,R7*%
X175427451Y-141665000D03*
X175427451Y-142635000D03*
%TD*%
D10*
%TO.C,R13*%
X85379367Y-182181880D03*
X84409367Y-182181880D03*
%TD*%
%TO.C,R13*%
X133379269Y-151181880D03*
X132409269Y-151181880D03*
%TD*%
D11*
%TO.C,R10*%
X131967169Y-56154820D03*
X131967169Y-55184820D03*
%TD*%
D10*
%TO.C,C8*%
X123648549Y-181890000D03*
X122678549Y-181890000D03*
%TD*%
D12*
%TO.C,R15*%
X120762549Y-90580000D03*
X121732549Y-90580000D03*
%TD*%
D14*
%TO.C,C12*%
X176624911Y-157670180D03*
X176624911Y-154970180D03*
%TD*%
D17*
%TO.C,R6*%
X225127353Y-110665000D03*
X225127353Y-111635000D03*
%TD*%
D12*
%TO.C,R20*%
X120772549Y-56930000D03*
X121742549Y-56930000D03*
%TD*%
%TO.C,R20*%
X168772451Y-118930000D03*
X169742451Y-118930000D03*
%TD*%
D11*
%TO.C,R12*%
X167107451Y-62025000D03*
X167107451Y-61055000D03*
%TD*%
D12*
%TO.C,R20*%
X216772353Y-56930000D03*
X217742353Y-56930000D03*
%TD*%
D17*
%TO.C,R9*%
X130928309Y-179177200D03*
X130928309Y-180147200D03*
%TD*%
D11*
%TO.C,R29*%
X79015107Y-155975180D03*
X79015107Y-155005180D03*
%TD*%
D17*
%TO.C,R7*%
X175427451Y-110665000D03*
X175427451Y-111635000D03*
%TD*%
D10*
%TO.C,C6*%
X219637353Y-93470000D03*
X218667353Y-93470000D03*
%TD*%
D15*
%TO.C,D3*%
X86752647Y-94275000D03*
X86752647Y-96375000D03*
%TD*%
D14*
%TO.C,C12*%
X224624813Y-157670180D03*
X224624813Y-154970180D03*
%TD*%
D11*
%TO.C,R29*%
X79015107Y-186975180D03*
X79015107Y-186005180D03*
%TD*%
D10*
%TO.C,R2*%
X84012647Y-173250000D03*
X83042647Y-173250000D03*
%TD*%
%TO.C,R2*%
X228012353Y-111250000D03*
X227042353Y-111250000D03*
%TD*%
%TO.C,C8*%
X171648451Y-88890000D03*
X170678451Y-88890000D03*
%TD*%
D11*
%TO.C,R1*%
X77827647Y-51035000D03*
X77827647Y-50065000D03*
%TD*%
%TO.C,C5*%
X214504813Y-128375180D03*
X214504813Y-127405180D03*
%TD*%
D10*
%TO.C,C6*%
X123637549Y-155470000D03*
X122667549Y-155470000D03*
%TD*%
D12*
%TO.C,R5*%
X78660107Y-146080180D03*
X79630107Y-146080180D03*
%TD*%
D17*
%TO.C,R16*%
X119096989Y-181153320D03*
X119096989Y-182123320D03*
%TD*%
D18*
%TO.C,U1*%
X178652451Y-125625000D03*
X178652451Y-126575000D03*
X178652451Y-127525000D03*
X180852451Y-127525000D03*
X180852451Y-125625000D03*
%TD*%
D10*
%TO.C,C1*%
X123642549Y-94520000D03*
X122672549Y-94520000D03*
%TD*%
%TO.C,R18*%
X75630107Y-95530180D03*
X74660107Y-95530180D03*
%TD*%
D13*
%TO.C,D1*%
X178877451Y-185450000D03*
X182177451Y-185450000D03*
%TD*%
D17*
%TO.C,R9*%
X226928113Y-117177200D03*
X226928113Y-118147200D03*
%TD*%
D10*
%TO.C,R13*%
X229379073Y-58181880D03*
X228409073Y-58181880D03*
%TD*%
D17*
%TO.C,R16*%
X71097087Y-57153320D03*
X71097087Y-58123320D03*
%TD*%
D20*
%TO.C,U2*%
X228944813Y-177115180D03*
X228944813Y-176465180D03*
X228944813Y-175815180D03*
X228944813Y-175165180D03*
X225044813Y-175165180D03*
X225044813Y-175815180D03*
X225044813Y-176465180D03*
X225044813Y-177115180D03*
%TD*%
D11*
%TO.C,R29*%
X175014911Y-124975180D03*
X175014911Y-124005180D03*
%TD*%
D12*
%TO.C,R11*%
X168712451Y-93220000D03*
X169682451Y-93220000D03*
%TD*%
D21*
%TO.C,L1*%
X84102647Y-130075000D03*
X86902647Y-130075000D03*
%TD*%
D12*
%TO.C,R23*%
X120772549Y-148340000D03*
X121742549Y-148340000D03*
%TD*%
D10*
%TO.C,C13*%
X79630107Y-52060180D03*
X78660107Y-52060180D03*
%TD*%
%TO.C,C9*%
X75697647Y-117610000D03*
X74727647Y-117610000D03*
%TD*%
D13*
%TO.C,D1*%
X130877549Y-154450000D03*
X134177549Y-154450000D03*
%TD*%
D17*
%TO.C,R16*%
X215096793Y-150153320D03*
X215096793Y-151123320D03*
%TD*%
D11*
%TO.C,R1*%
X77827647Y-144035000D03*
X77827647Y-143065000D03*
%TD*%
D12*
%TO.C,R8*%
X72730107Y-156770180D03*
X73700107Y-156770180D03*
%TD*%
%TO.C,R5*%
X126660009Y-84080180D03*
X127630009Y-84080180D03*
%TD*%
D23*
%TO.C,C11*%
X226122313Y-160670180D03*
X223422313Y-160670180D03*
%TD*%
D11*
%TO.C,R10*%
X227966973Y-56154820D03*
X227966973Y-55184820D03*
%TD*%
%TO.C,R21*%
X77924607Y-181549280D03*
X77924607Y-180579280D03*
%TD*%
D19*
%TO.C,P1*%
X64972387Y-93345140D03*
X64972387Y-92845140D03*
X64972387Y-92345140D03*
X64972387Y-91845140D03*
X64972387Y-91345140D03*
X64972387Y-90845140D03*
X64972387Y-90345140D03*
X64972387Y-89845140D03*
X64972387Y-89345140D03*
X64972387Y-88845140D03*
X64972387Y-88345140D03*
X64972387Y-87845140D03*
X64972387Y-87345140D03*
X64972387Y-86845140D03*
X64972387Y-86345140D03*
X64972387Y-85845140D03*
X64972387Y-85345140D03*
X64972387Y-84845140D03*
X64972387Y-84345140D03*
%TD*%
D10*
%TO.C,C9*%
X75697647Y-86610000D03*
X74727647Y-86610000D03*
%TD*%
%TO.C,R18*%
X219629813Y-157530180D03*
X218659813Y-157530180D03*
%TD*%
%TO.C,C9*%
X219697353Y-117610000D03*
X218727353Y-117610000D03*
%TD*%
D11*
%TO.C,C5*%
X70505107Y-190375180D03*
X70505107Y-189405180D03*
%TD*%
D16*
%TO.C,D4*%
X73515107Y-190220180D03*
X76815107Y-190220180D03*
%TD*%
D12*
%TO.C,R11*%
X216712353Y-155220000D03*
X217682353Y-155220000D03*
%TD*%
D10*
%TO.C,C7*%
X219657353Y-60200000D03*
X218687353Y-60200000D03*
%TD*%
D12*
%TO.C,R14*%
X83787067Y-119168420D03*
X84757067Y-119168420D03*
%TD*%
D10*
%TO.C,R18*%
X219629813Y-188530180D03*
X218659813Y-188530180D03*
%TD*%
%TO.C,C4*%
X123702549Y-87680000D03*
X122732549Y-87680000D03*
%TD*%
D12*
%TO.C,R14*%
X83787067Y-57168420D03*
X84757067Y-57168420D03*
%TD*%
D17*
%TO.C,R22*%
X126927809Y-87586900D03*
X126927809Y-88556900D03*
%TD*%
D12*
%TO.C,R19*%
X216752353Y-57940000D03*
X217722353Y-57940000D03*
%TD*%
D11*
%TO.C,R4*%
X182327451Y-51835000D03*
X182327451Y-50865000D03*
%TD*%
D21*
%TO.C,L1*%
X228102353Y-99075000D03*
X230902353Y-99075000D03*
%TD*%
D11*
%TO.C,C5*%
X166504911Y-128375180D03*
X166504911Y-127405180D03*
%TD*%
%TO.C,R21*%
X221924313Y-181549280D03*
X221924313Y-180579280D03*
%TD*%
D22*
%TO.C,D2*%
X133352549Y-80550000D03*
X135102549Y-80550000D03*
%TD*%
D17*
%TO.C,R22*%
X222927613Y-56586900D03*
X222927613Y-57556900D03*
%TD*%
%TO.C,R7*%
X79427647Y-172665000D03*
X79427647Y-173635000D03*
%TD*%
D11*
%TO.C,R21*%
X221924313Y-119549280D03*
X221924313Y-118579280D03*
%TD*%
D10*
%TO.C,C4*%
X123702549Y-56680000D03*
X122732549Y-56680000D03*
%TD*%
D12*
%TO.C,R15*%
X168762451Y-152580000D03*
X169732451Y-152580000D03*
%TD*%
D17*
%TO.C,R16*%
X215096793Y-88153320D03*
X215096793Y-89123320D03*
%TD*%
D10*
%TO.C,R18*%
X171629911Y-64530180D03*
X170659911Y-64530180D03*
%TD*%
%TO.C,R17*%
X77570107Y-125860180D03*
X76600107Y-125860180D03*
%TD*%
D16*
%TO.C,D4*%
X121515009Y-66220180D03*
X124815009Y-66220180D03*
%TD*%
D15*
%TO.C,D3*%
X230752353Y-187275000D03*
X230752353Y-189375000D03*
%TD*%
%TO.C,D3*%
X182752451Y-63275000D03*
X182752451Y-65375000D03*
%TD*%
D10*
%TO.C,R18*%
X171629911Y-188530180D03*
X170659911Y-188530180D03*
%TD*%
D11*
%TO.C,R4*%
X134327549Y-175835000D03*
X134327549Y-174865000D03*
%TD*%
D10*
%TO.C,C13*%
X175629911Y-83060180D03*
X174659911Y-83060180D03*
%TD*%
D17*
%TO.C,R22*%
X78927907Y-87586900D03*
X78927907Y-88556900D03*
%TD*%
D10*
%TO.C,C1*%
X171642451Y-156520000D03*
X170672451Y-156520000D03*
%TD*%
D17*
%TO.C,R6*%
X225127353Y-79665000D03*
X225127353Y-80635000D03*
%TD*%
D10*
%TO.C,C2*%
X75662647Y-154280000D03*
X74692647Y-154280000D03*
%TD*%
D17*
%TO.C,R28*%
X117505009Y-96405180D03*
X117505009Y-97375180D03*
%TD*%
D18*
%TO.C,U1*%
X226652353Y-94625000D03*
X226652353Y-95575000D03*
X226652353Y-96525000D03*
X228852353Y-96525000D03*
X228852353Y-94625000D03*
%TD*%
D14*
%TO.C,C12*%
X80625107Y-188670180D03*
X80625107Y-185970180D03*
%TD*%
D17*
%TO.C,R28*%
X165504911Y-189405180D03*
X165504911Y-190375180D03*
%TD*%
D10*
%TO.C,C1*%
X75642647Y-156520000D03*
X74672647Y-156520000D03*
%TD*%
D17*
%TO.C,R6*%
X225127353Y-48665000D03*
X225127353Y-49635000D03*
%TD*%
D10*
%TO.C,R13*%
X133379269Y-58181880D03*
X132409269Y-58181880D03*
%TD*%
D23*
%TO.C,C11*%
X178122411Y-191670180D03*
X175422411Y-191670180D03*
%TD*%
D13*
%TO.C,D1*%
X82877647Y-185450000D03*
X86177647Y-185450000D03*
%TD*%
D10*
%TO.C,R13*%
X229379073Y-120181880D03*
X228409073Y-120181880D03*
%TD*%
D17*
%TO.C,R6*%
X225127353Y-172665000D03*
X225127353Y-173635000D03*
%TD*%
D10*
%TO.C,C7*%
X219657353Y-122200000D03*
X218687353Y-122200000D03*
%TD*%
D12*
%TO.C,R11*%
X168712451Y-186220000D03*
X169682451Y-186220000D03*
%TD*%
D17*
%TO.C,R6*%
X81127647Y-110665000D03*
X81127647Y-111635000D03*
%TD*%
D12*
%TO.C,R5*%
X126660009Y-146080180D03*
X127630009Y-146080180D03*
%TD*%
D11*
%TO.C,R4*%
X182327451Y-82835000D03*
X182327451Y-81865000D03*
%TD*%
D17*
%TO.C,R28*%
X165504911Y-65405180D03*
X165504911Y-66375180D03*
%TD*%
D11*
%TO.C,R12*%
X215107353Y-155025000D03*
X215107353Y-154055000D03*
%TD*%
D10*
%TO.C,C7*%
X123657549Y-153200000D03*
X122687549Y-153200000D03*
%TD*%
%TO.C,R2*%
X180012451Y-49250000D03*
X179042451Y-49250000D03*
%TD*%
%TO.C,C1*%
X171642451Y-63520000D03*
X170672451Y-63520000D03*
%TD*%
D21*
%TO.C,L1*%
X132102549Y-192075000D03*
X134902549Y-192075000D03*
%TD*%
D11*
%TO.C,R4*%
X134327549Y-82835000D03*
X134327549Y-81865000D03*
%TD*%
D12*
%TO.C,R15*%
X72762647Y-59580000D03*
X73732647Y-59580000D03*
%TD*%
D14*
%TO.C,C12*%
X224624813Y-126670180D03*
X224624813Y-123970180D03*
%TD*%
D10*
%TO.C,R18*%
X171629911Y-95530180D03*
X170659911Y-95530180D03*
%TD*%
D12*
%TO.C,R11*%
X120712549Y-62220000D03*
X121682549Y-62220000D03*
%TD*%
D10*
%TO.C,C13*%
X79630107Y-83060180D03*
X78660107Y-83060180D03*
%TD*%
D11*
%TO.C,R12*%
X71107647Y-186025000D03*
X71107647Y-185055000D03*
%TD*%
D17*
%TO.C,R6*%
X81127647Y-79665000D03*
X81127647Y-80635000D03*
%TD*%
D15*
%TO.C,D3*%
X86752647Y-156275000D03*
X86752647Y-158375000D03*
%TD*%
D12*
%TO.C,R23*%
X120772549Y-55340000D03*
X121742549Y-55340000D03*
%TD*%
D11*
%TO.C,R12*%
X119107549Y-155025000D03*
X119107549Y-154055000D03*
%TD*%
%TO.C,C5*%
X118505009Y-66375180D03*
X118505009Y-65405180D03*
%TD*%
D12*
%TO.C,R19*%
X168752451Y-181940000D03*
X169722451Y-181940000D03*
%TD*%
%TO.C,R11*%
X120712549Y-155220000D03*
X121682549Y-155220000D03*
%TD*%
D18*
%TO.C,U1*%
X178652451Y-94625000D03*
X178652451Y-95575000D03*
X178652451Y-96525000D03*
X180852451Y-96525000D03*
X180852451Y-94625000D03*
%TD*%
D17*
%TO.C,R6*%
X81127647Y-141665000D03*
X81127647Y-142635000D03*
%TD*%
D16*
%TO.C,D4*%
X217514813Y-66220180D03*
X220814813Y-66220180D03*
%TD*%
D10*
%TO.C,C7*%
X171657451Y-184200000D03*
X170687451Y-184200000D03*
%TD*%
%TO.C,R18*%
X171629911Y-126530180D03*
X170659911Y-126530180D03*
%TD*%
%TO.C,C2*%
X75662647Y-92280000D03*
X74692647Y-92280000D03*
%TD*%
%TO.C,R2*%
X228012353Y-80250000D03*
X227042353Y-80250000D03*
%TD*%
D11*
%TO.C,R4*%
X182327451Y-144835000D03*
X182327451Y-143865000D03*
%TD*%
%TO.C,R10*%
X83967267Y-56154820D03*
X83967267Y-55184820D03*
%TD*%
D16*
%TO.C,D4*%
X73515107Y-128220180D03*
X76815107Y-128220180D03*
%TD*%
D10*
%TO.C,C4*%
X219702353Y-180680000D03*
X218732353Y-180680000D03*
%TD*%
D12*
%TO.C,R5*%
X126660009Y-53080180D03*
X127630009Y-53080180D03*
%TD*%
D17*
%TO.C,R22*%
X126927809Y-180586900D03*
X126927809Y-181556900D03*
%TD*%
D12*
%TO.C,R5*%
X78660107Y-177080180D03*
X79630107Y-177080180D03*
%TD*%
%TO.C,R8*%
X168729911Y-187770180D03*
X169699911Y-187770180D03*
%TD*%
D18*
%TO.C,U1*%
X130652549Y-187625000D03*
X130652549Y-188575000D03*
X130652549Y-189525000D03*
X132852549Y-189525000D03*
X132852549Y-187625000D03*
%TD*%
D10*
%TO.C,C13*%
X175629911Y-114060180D03*
X174659911Y-114060180D03*
%TD*%
%TO.C,C2*%
X75662647Y-185280000D03*
X74692647Y-185280000D03*
%TD*%
D11*
%TO.C,R10*%
X179967071Y-118154820D03*
X179967071Y-117184820D03*
%TD*%
D10*
%TO.C,R17*%
X77570107Y-156860180D03*
X76600107Y-156860180D03*
%TD*%
D12*
%TO.C,R11*%
X168712451Y-124220000D03*
X169682451Y-124220000D03*
%TD*%
D17*
%TO.C,R9*%
X178928211Y-55177200D03*
X178928211Y-56147200D03*
%TD*%
D11*
%TO.C,R29*%
X223014813Y-62975180D03*
X223014813Y-62005180D03*
%TD*%
D12*
%TO.C,R8*%
X216729813Y-156770180D03*
X217699813Y-156770180D03*
%TD*%
D10*
%TO.C,C9*%
X219697353Y-179610000D03*
X218727353Y-179610000D03*
%TD*%
D14*
%TO.C,C12*%
X176624911Y-64670180D03*
X176624911Y-61970180D03*
%TD*%
D23*
%TO.C,C11*%
X82122607Y-67670180D03*
X79422607Y-67670180D03*
%TD*%
D18*
%TO.C,U1*%
X130652549Y-94625000D03*
X130652549Y-95575000D03*
X130652549Y-96525000D03*
X132852549Y-96525000D03*
X132852549Y-94625000D03*
%TD*%
D10*
%TO.C,R17*%
X77570107Y-94860180D03*
X76600107Y-94860180D03*
%TD*%
D12*
%TO.C,R20*%
X72772647Y-149930000D03*
X73742647Y-149930000D03*
%TD*%
D11*
%TO.C,R1*%
X173827451Y-51035000D03*
X173827451Y-50065000D03*
%TD*%
D10*
%TO.C,C7*%
X171657451Y-60200000D03*
X170687451Y-60200000D03*
%TD*%
D17*
%TO.C,R9*%
X82928407Y-179177200D03*
X82928407Y-180147200D03*
%TD*%
%TO.C,R9*%
X130928309Y-86177200D03*
X130928309Y-87147200D03*
%TD*%
D20*
%TO.C,U2*%
X180944911Y-53115180D03*
X180944911Y-52465180D03*
X180944911Y-51815180D03*
X180944911Y-51165180D03*
X177044911Y-51165180D03*
X177044911Y-51815180D03*
X177044911Y-52465180D03*
X177044911Y-53115180D03*
%TD*%
D13*
%TO.C,D1*%
X226877353Y-154450000D03*
X230177353Y-154450000D03*
%TD*%
D17*
%TO.C,R7*%
X175427451Y-172665000D03*
X175427451Y-173635000D03*
%TD*%
D12*
%TO.C,R23*%
X72772647Y-55340000D03*
X73742647Y-55340000D03*
%TD*%
D21*
%TO.C,L1*%
X180102451Y-99075000D03*
X182902451Y-99075000D03*
%TD*%
D11*
%TO.C,R1*%
X221827353Y-144035000D03*
X221827353Y-143065000D03*
%TD*%
D12*
%TO.C,R19*%
X216752353Y-88940000D03*
X217722353Y-88940000D03*
%TD*%
D10*
%TO.C,R2*%
X180012451Y-80250000D03*
X179042451Y-80250000D03*
%TD*%
D11*
%TO.C,R12*%
X215107353Y-62025000D03*
X215107353Y-61055000D03*
%TD*%
D12*
%TO.C,R8*%
X216729813Y-63770180D03*
X217699813Y-63770180D03*
%TD*%
D21*
%TO.C,L1*%
X180102451Y-130075000D03*
X182902451Y-130075000D03*
%TD*%
D12*
%TO.C,R15*%
X72762647Y-90580000D03*
X73732647Y-90580000D03*
%TD*%
D22*
%TO.C,D2*%
X133352549Y-142550000D03*
X135102549Y-142550000D03*
%TD*%
D10*
%TO.C,C9*%
X171697451Y-179610000D03*
X170727451Y-179610000D03*
%TD*%
D17*
%TO.C,R28*%
X69505107Y-158405180D03*
X69505107Y-159375180D03*
%TD*%
D19*
%TO.C,P1*%
X208972093Y-93345140D03*
X208972093Y-92845140D03*
X208972093Y-92345140D03*
X208972093Y-91845140D03*
X208972093Y-91345140D03*
X208972093Y-90845140D03*
X208972093Y-90345140D03*
X208972093Y-89845140D03*
X208972093Y-89345140D03*
X208972093Y-88845140D03*
X208972093Y-88345140D03*
X208972093Y-87845140D03*
X208972093Y-87345140D03*
X208972093Y-86845140D03*
X208972093Y-86345140D03*
X208972093Y-85845140D03*
X208972093Y-85345140D03*
X208972093Y-84845140D03*
X208972093Y-84345140D03*
%TD*%
D10*
%TO.C,C13*%
X223629813Y-176060180D03*
X222659813Y-176060180D03*
%TD*%
D11*
%TO.C,R10*%
X227966973Y-180154820D03*
X227966973Y-179184820D03*
%TD*%
D10*
%TO.C,C4*%
X219702353Y-56680000D03*
X218732353Y-56680000D03*
%TD*%
%TO.C,C13*%
X175629911Y-145060180D03*
X174659911Y-145060180D03*
%TD*%
D12*
%TO.C,R19*%
X72752647Y-150940000D03*
X73722647Y-150940000D03*
%TD*%
D20*
%TO.C,U2*%
X180944911Y-146115180D03*
X180944911Y-145465180D03*
X180944911Y-144815180D03*
X180944911Y-144165180D03*
X177044911Y-144165180D03*
X177044911Y-144815180D03*
X177044911Y-145465180D03*
X177044911Y-146115180D03*
%TD*%
D12*
%TO.C,R15*%
X72762647Y-183580000D03*
X73732647Y-183580000D03*
%TD*%
D17*
%TO.C,R7*%
X79427647Y-79665000D03*
X79427647Y-80635000D03*
%TD*%
D23*
%TO.C,C11*%
X178122411Y-98670180D03*
X175422411Y-98670180D03*
%TD*%
D10*
%TO.C,R18*%
X123630009Y-157530180D03*
X122660009Y-157530180D03*
%TD*%
D12*
%TO.C,R23*%
X120772549Y-86340000D03*
X121742549Y-86340000D03*
%TD*%
D22*
%TO.C,D2*%
X181352451Y-111550000D03*
X183102451Y-111550000D03*
%TD*%
D20*
%TO.C,U2*%
X180944911Y-84115180D03*
X180944911Y-83465180D03*
X180944911Y-82815180D03*
X180944911Y-82165180D03*
X177044911Y-82165180D03*
X177044911Y-82815180D03*
X177044911Y-83465180D03*
X177044911Y-84115180D03*
%TD*%
D12*
%TO.C,R15*%
X216762353Y-152580000D03*
X217732353Y-152580000D03*
%TD*%
%TO.C,R11*%
X72712647Y-155220000D03*
X73682647Y-155220000D03*
%TD*%
%TO.C,R15*%
X168762451Y-90580000D03*
X169732451Y-90580000D03*
%TD*%
%TO.C,R19*%
X72752647Y-181940000D03*
X73722647Y-181940000D03*
%TD*%
D10*
%TO.C,C13*%
X223629813Y-114060180D03*
X222659813Y-114060180D03*
%TD*%
D11*
%TO.C,R10*%
X131967169Y-87154820D03*
X131967169Y-86184820D03*
%TD*%
D21*
%TO.C,L1*%
X180102451Y-192075000D03*
X182902451Y-192075000D03*
%TD*%
%TO.C,L1*%
X84102647Y-161075000D03*
X86902647Y-161075000D03*
%TD*%
D13*
%TO.C,D1*%
X226877353Y-123450000D03*
X230177353Y-123450000D03*
%TD*%
D15*
%TO.C,D3*%
X134752549Y-156275000D03*
X134752549Y-158375000D03*
%TD*%
D17*
%TO.C,R16*%
X215096793Y-119153320D03*
X215096793Y-120123320D03*
%TD*%
D12*
%TO.C,R15*%
X216762353Y-59580000D03*
X217732353Y-59580000D03*
%TD*%
D11*
%TO.C,R21*%
X77924607Y-88549280D03*
X77924607Y-87579280D03*
%TD*%
%TO.C,R3*%
X183427451Y-51835000D03*
X183427451Y-50865000D03*
%TD*%
D10*
%TO.C,R17*%
X125570009Y-187860180D03*
X124600009Y-187860180D03*
%TD*%
D11*
%TO.C,R12*%
X215107353Y-124025000D03*
X215107353Y-123055000D03*
%TD*%
D12*
%TO.C,R15*%
X168762451Y-183580000D03*
X169732451Y-183580000D03*
%TD*%
D11*
%TO.C,C5*%
X166504911Y-66375180D03*
X166504911Y-65405180D03*
%TD*%
%TO.C,R1*%
X221827353Y-82035000D03*
X221827353Y-81065000D03*
%TD*%
D12*
%TO.C,R23*%
X72772647Y-148340000D03*
X73742647Y-148340000D03*
%TD*%
D10*
%TO.C,R2*%
X180012451Y-142250000D03*
X179042451Y-142250000D03*
%TD*%
D12*
%TO.C,R11*%
X168712451Y-62220000D03*
X169682451Y-62220000D03*
%TD*%
D10*
%TO.C,C8*%
X123648549Y-88890000D03*
X122678549Y-88890000D03*
%TD*%
D22*
%TO.C,D2*%
X181352451Y-49550000D03*
X183102451Y-49550000D03*
%TD*%
D13*
%TO.C,D1*%
X130877549Y-123450000D03*
X134177549Y-123450000D03*
%TD*%
D10*
%TO.C,C7*%
X75657647Y-153200000D03*
X74687647Y-153200000D03*
%TD*%
D17*
%TO.C,R28*%
X213504813Y-189405180D03*
X213504813Y-190375180D03*
%TD*%
%TO.C,R16*%
X215096793Y-181153320D03*
X215096793Y-182123320D03*
%TD*%
D11*
%TO.C,R4*%
X86327647Y-82835000D03*
X86327647Y-81865000D03*
%TD*%
D17*
%TO.C,R6*%
X81127647Y-48665000D03*
X81127647Y-49635000D03*
%TD*%
D13*
%TO.C,D1*%
X178877451Y-154450000D03*
X182177451Y-154450000D03*
%TD*%
D10*
%TO.C,C3*%
X219662353Y-120970000D03*
X218692353Y-120970000D03*
%TD*%
D15*
%TO.C,D3*%
X182752451Y-187275000D03*
X182752451Y-189375000D03*
%TD*%
D10*
%TO.C,C8*%
X219648353Y-119890000D03*
X218678353Y-119890000D03*
%TD*%
%TO.C,R18*%
X75630107Y-126530180D03*
X74660107Y-126530180D03*
%TD*%
D20*
%TO.C,U2*%
X132945009Y-115115180D03*
X132945009Y-114465180D03*
X132945009Y-113815180D03*
X132945009Y-113165180D03*
X129045009Y-113165180D03*
X129045009Y-113815180D03*
X129045009Y-114465180D03*
X129045009Y-115115180D03*
%TD*%
D13*
%TO.C,D1*%
X130877549Y-61450000D03*
X134177549Y-61450000D03*
%TD*%
D11*
%TO.C,R3*%
X231427353Y-144835000D03*
X231427353Y-143865000D03*
%TD*%
D19*
%TO.C,P1*%
X160972191Y-124345140D03*
X160972191Y-123845140D03*
X160972191Y-123345140D03*
X160972191Y-122845140D03*
X160972191Y-122345140D03*
X160972191Y-121845140D03*
X160972191Y-121345140D03*
X160972191Y-120845140D03*
X160972191Y-120345140D03*
X160972191Y-119845140D03*
X160972191Y-119345140D03*
X160972191Y-118845140D03*
X160972191Y-118345140D03*
X160972191Y-117845140D03*
X160972191Y-117345140D03*
X160972191Y-116845140D03*
X160972191Y-116345140D03*
X160972191Y-115845140D03*
X160972191Y-115345140D03*
%TD*%
D17*
%TO.C,R16*%
X215096793Y-57153320D03*
X215096793Y-58123320D03*
%TD*%
D18*
%TO.C,U1*%
X226652353Y-63625000D03*
X226652353Y-64575000D03*
X226652353Y-65525000D03*
X228852353Y-65525000D03*
X228852353Y-63625000D03*
%TD*%
D10*
%TO.C,C1*%
X171642451Y-125520000D03*
X170672451Y-125520000D03*
%TD*%
D19*
%TO.C,P1*%
X112972289Y-186345140D03*
X112972289Y-185845140D03*
X112972289Y-185345140D03*
X112972289Y-184845140D03*
X112972289Y-184345140D03*
X112972289Y-183845140D03*
X112972289Y-183345140D03*
X112972289Y-182845140D03*
X112972289Y-182345140D03*
X112972289Y-181845140D03*
X112972289Y-181345140D03*
X112972289Y-180845140D03*
X112972289Y-180345140D03*
X112972289Y-179845140D03*
X112972289Y-179345140D03*
X112972289Y-178845140D03*
X112972289Y-178345140D03*
X112972289Y-177845140D03*
X112972289Y-177345140D03*
%TD*%
D12*
%TO.C,R11*%
X120712549Y-93220000D03*
X121682549Y-93220000D03*
%TD*%
D10*
%TO.C,C9*%
X171697451Y-117610000D03*
X170727451Y-117610000D03*
%TD*%
%TO.C,C2*%
X171662451Y-92280000D03*
X170692451Y-92280000D03*
%TD*%
D17*
%TO.C,R6*%
X177127451Y-172665000D03*
X177127451Y-173635000D03*
%TD*%
D12*
%TO.C,R23*%
X216772353Y-55340000D03*
X217742353Y-55340000D03*
%TD*%
D11*
%TO.C,R4*%
X134327549Y-113835000D03*
X134327549Y-112865000D03*
%TD*%
%TO.C,C5*%
X214504813Y-66375180D03*
X214504813Y-65405180D03*
%TD*%
D10*
%TO.C,C2*%
X219662353Y-123280000D03*
X218692353Y-123280000D03*
%TD*%
D17*
%TO.C,R6*%
X225127353Y-141665000D03*
X225127353Y-142635000D03*
%TD*%
D12*
%TO.C,R23*%
X168772451Y-179340000D03*
X169742451Y-179340000D03*
%TD*%
%TO.C,R20*%
X168772451Y-180930000D03*
X169742451Y-180930000D03*
%TD*%
D17*
%TO.C,R28*%
X69505107Y-65405180D03*
X69505107Y-66375180D03*
%TD*%
D22*
%TO.C,D2*%
X181352451Y-173550000D03*
X183102451Y-173550000D03*
%TD*%
D17*
%TO.C,R6*%
X81127647Y-172665000D03*
X81127647Y-173635000D03*
%TD*%
%TO.C,R6*%
X129127549Y-110665000D03*
X129127549Y-111635000D03*
%TD*%
D11*
%TO.C,R29*%
X79015107Y-62975180D03*
X79015107Y-62005180D03*
%TD*%
D17*
%TO.C,R16*%
X71097087Y-119153320D03*
X71097087Y-120123320D03*
%TD*%
D10*
%TO.C,C2*%
X123662549Y-154280000D03*
X122692549Y-154280000D03*
%TD*%
%TO.C,R2*%
X84012647Y-142250000D03*
X83042647Y-142250000D03*
%TD*%
D12*
%TO.C,R19*%
X168752451Y-88940000D03*
X169722451Y-88940000D03*
%TD*%
D21*
%TO.C,L1*%
X132102549Y-130075000D03*
X134902549Y-130075000D03*
%TD*%
%TO.C,L1*%
X84102647Y-192075000D03*
X86902647Y-192075000D03*
%TD*%
D11*
%TO.C,R4*%
X86327647Y-175835000D03*
X86327647Y-174865000D03*
%TD*%
D10*
%TO.C,C13*%
X175629911Y-52060180D03*
X174659911Y-52060180D03*
%TD*%
%TO.C,R13*%
X85379367Y-89181880D03*
X84409367Y-89181880D03*
%TD*%
D13*
%TO.C,D1*%
X82877647Y-123450000D03*
X86177647Y-123450000D03*
%TD*%
D10*
%TO.C,C3*%
X75662647Y-151970000D03*
X74692647Y-151970000D03*
%TD*%
D12*
%TO.C,R14*%
X179786871Y-119168420D03*
X180756871Y-119168420D03*
%TD*%
D20*
%TO.C,U2*%
X132945009Y-177115180D03*
X132945009Y-176465180D03*
X132945009Y-175815180D03*
X132945009Y-175165180D03*
X129045009Y-175165180D03*
X129045009Y-175815180D03*
X129045009Y-176465180D03*
X129045009Y-177115180D03*
%TD*%
D11*
%TO.C,R3*%
X135427549Y-51835000D03*
X135427549Y-50865000D03*
%TD*%
D21*
%TO.C,L1*%
X132102549Y-68075000D03*
X134902549Y-68075000D03*
%TD*%
D10*
%TO.C,C6*%
X219637353Y-155470000D03*
X218667353Y-155470000D03*
%TD*%
D17*
%TO.C,R16*%
X167096891Y-119153320D03*
X167096891Y-120123320D03*
%TD*%
D18*
%TO.C,U1*%
X178652451Y-156625000D03*
X178652451Y-157575000D03*
X178652451Y-158525000D03*
X180852451Y-158525000D03*
X180852451Y-156625000D03*
%TD*%
D19*
%TO.C,P1*%
X208972093Y-186345140D03*
X208972093Y-185845140D03*
X208972093Y-185345140D03*
X208972093Y-184845140D03*
X208972093Y-184345140D03*
X208972093Y-183845140D03*
X208972093Y-183345140D03*
X208972093Y-182845140D03*
X208972093Y-182345140D03*
X208972093Y-181845140D03*
X208972093Y-181345140D03*
X208972093Y-180845140D03*
X208972093Y-180345140D03*
X208972093Y-179845140D03*
X208972093Y-179345140D03*
X208972093Y-178845140D03*
X208972093Y-178345140D03*
X208972093Y-177845140D03*
X208972093Y-177345140D03*
%TD*%
D10*
%TO.C,C4*%
X171702451Y-56680000D03*
X170732451Y-56680000D03*
%TD*%
D11*
%TO.C,R3*%
X87427647Y-82835000D03*
X87427647Y-81865000D03*
%TD*%
D23*
%TO.C,C11*%
X178122411Y-67670180D03*
X175422411Y-67670180D03*
%TD*%
D10*
%TO.C,C2*%
X171662451Y-61280000D03*
X170692451Y-61280000D03*
%TD*%
D19*
%TO.C,P1*%
X64972387Y-155345140D03*
X64972387Y-154845140D03*
X64972387Y-154345140D03*
X64972387Y-153845140D03*
X64972387Y-153345140D03*
X64972387Y-152845140D03*
X64972387Y-152345140D03*
X64972387Y-151845140D03*
X64972387Y-151345140D03*
X64972387Y-150845140D03*
X64972387Y-150345140D03*
X64972387Y-149845140D03*
X64972387Y-149345140D03*
X64972387Y-148845140D03*
X64972387Y-148345140D03*
X64972387Y-147845140D03*
X64972387Y-147345140D03*
X64972387Y-146845140D03*
X64972387Y-146345140D03*
%TD*%
D17*
%TO.C,R6*%
X129127549Y-141665000D03*
X129127549Y-142635000D03*
%TD*%
D12*
%TO.C,R20*%
X168772451Y-87930000D03*
X169742451Y-87930000D03*
%TD*%
D17*
%TO.C,R9*%
X178928211Y-179177200D03*
X178928211Y-180147200D03*
%TD*%
D10*
%TO.C,C1*%
X219642353Y-156520000D03*
X218672353Y-156520000D03*
%TD*%
%TO.C,R18*%
X219629813Y-126530180D03*
X218659813Y-126530180D03*
%TD*%
D17*
%TO.C,R7*%
X127427549Y-172665000D03*
X127427549Y-173635000D03*
%TD*%
D11*
%TO.C,R4*%
X182327451Y-175835000D03*
X182327451Y-174865000D03*
%TD*%
D15*
%TO.C,D3*%
X86752647Y-63275000D03*
X86752647Y-65375000D03*
%TD*%
D11*
%TO.C,R10*%
X179967071Y-56154820D03*
X179967071Y-55184820D03*
%TD*%
%TO.C,R1*%
X77827647Y-113035000D03*
X77827647Y-112065000D03*
%TD*%
%TO.C,R3*%
X231427353Y-113835000D03*
X231427353Y-112865000D03*
%TD*%
D16*
%TO.C,D4*%
X169514911Y-97220180D03*
X172814911Y-97220180D03*
%TD*%
D23*
%TO.C,C11*%
X130122509Y-67670180D03*
X127422509Y-67670180D03*
%TD*%
D16*
%TO.C,D4*%
X169514911Y-190220180D03*
X172814911Y-190220180D03*
%TD*%
D11*
%TO.C,R12*%
X71107647Y-62025000D03*
X71107647Y-61055000D03*
%TD*%
D21*
%TO.C,L1*%
X180102451Y-68075000D03*
X182902451Y-68075000D03*
%TD*%
D22*
%TO.C,D2*%
X229352353Y-80550000D03*
X231102353Y-80550000D03*
%TD*%
D17*
%TO.C,R9*%
X82928407Y-148177200D03*
X82928407Y-149147200D03*
%TD*%
D10*
%TO.C,R2*%
X228012353Y-49250000D03*
X227042353Y-49250000D03*
%TD*%
D17*
%TO.C,R7*%
X127427549Y-79665000D03*
X127427549Y-80635000D03*
%TD*%
%TO.C,R7*%
X127427549Y-48665000D03*
X127427549Y-49635000D03*
%TD*%
D10*
%TO.C,R13*%
X85379367Y-120181880D03*
X84409367Y-120181880D03*
%TD*%
D11*
%TO.C,R21*%
X173924411Y-57549280D03*
X173924411Y-56579280D03*
%TD*%
%TO.C,R12*%
X215107353Y-93025000D03*
X215107353Y-92055000D03*
%TD*%
D17*
%TO.C,R22*%
X174927711Y-56586900D03*
X174927711Y-57556900D03*
%TD*%
%TO.C,R9*%
X82928407Y-55177200D03*
X82928407Y-56147200D03*
%TD*%
D10*
%TO.C,C13*%
X79630107Y-114060180D03*
X78660107Y-114060180D03*
%TD*%
D16*
%TO.C,D4*%
X73515107Y-66220180D03*
X76815107Y-66220180D03*
%TD*%
D22*
%TO.C,D2*%
X229352353Y-173550000D03*
X231102353Y-173550000D03*
%TD*%
D10*
%TO.C,R13*%
X229379073Y-89181880D03*
X228409073Y-89181880D03*
%TD*%
D17*
%TO.C,R6*%
X177127451Y-110665000D03*
X177127451Y-111635000D03*
%TD*%
D12*
%TO.C,R15*%
X216762353Y-183580000D03*
X217732353Y-183580000D03*
%TD*%
D10*
%TO.C,R18*%
X123630009Y-188530180D03*
X122660009Y-188530180D03*
%TD*%
D13*
%TO.C,D1*%
X178877451Y-92450000D03*
X182177451Y-92450000D03*
%TD*%
D12*
%TO.C,R20*%
X72772647Y-87930000D03*
X73742647Y-87930000D03*
%TD*%
D10*
%TO.C,C8*%
X75648647Y-181890000D03*
X74678647Y-181890000D03*
%TD*%
D11*
%TO.C,C5*%
X214504813Y-97375180D03*
X214504813Y-96405180D03*
%TD*%
D12*
%TO.C,R11*%
X120712549Y-186220000D03*
X121682549Y-186220000D03*
%TD*%
D10*
%TO.C,C9*%
X75697647Y-55610000D03*
X74727647Y-55610000D03*
%TD*%
D11*
%TO.C,R21*%
X221924313Y-88549280D03*
X221924313Y-87579280D03*
%TD*%
D10*
%TO.C,R18*%
X123630009Y-126530180D03*
X122660009Y-126530180D03*
%TD*%
D11*
%TO.C,R4*%
X230327353Y-51835000D03*
X230327353Y-50865000D03*
%TD*%
%TO.C,R29*%
X127015009Y-155975180D03*
X127015009Y-155005180D03*
%TD*%
D12*
%TO.C,R19*%
X72752647Y-119940000D03*
X73722647Y-119940000D03*
%TD*%
D10*
%TO.C,C9*%
X171697451Y-86610000D03*
X170727451Y-86610000D03*
%TD*%
D12*
%TO.C,R14*%
X227786773Y-88168420D03*
X228756773Y-88168420D03*
%TD*%
D10*
%TO.C,C3*%
X219662353Y-151970000D03*
X218692353Y-151970000D03*
%TD*%
%TO.C,R13*%
X85379367Y-151181880D03*
X84409367Y-151181880D03*
%TD*%
%TO.C,C13*%
X79630107Y-145060180D03*
X78660107Y-145060180D03*
%TD*%
D12*
%TO.C,R20*%
X72772647Y-118930000D03*
X73742647Y-118930000D03*
%TD*%
D19*
%TO.C,P1*%
X64972387Y-186345140D03*
X64972387Y-185845140D03*
X64972387Y-185345140D03*
X64972387Y-184845140D03*
X64972387Y-184345140D03*
X64972387Y-183845140D03*
X64972387Y-183345140D03*
X64972387Y-182845140D03*
X64972387Y-182345140D03*
X64972387Y-181845140D03*
X64972387Y-181345140D03*
X64972387Y-180845140D03*
X64972387Y-180345140D03*
X64972387Y-179845140D03*
X64972387Y-179345140D03*
X64972387Y-178845140D03*
X64972387Y-178345140D03*
X64972387Y-177845140D03*
X64972387Y-177345140D03*
%TD*%
D11*
%TO.C,R3*%
X87427647Y-144835000D03*
X87427647Y-143865000D03*
%TD*%
D22*
%TO.C,D2*%
X85352647Y-142550000D03*
X87102647Y-142550000D03*
%TD*%
D10*
%TO.C,C2*%
X75662647Y-123280000D03*
X74692647Y-123280000D03*
%TD*%
D16*
%TO.C,D4*%
X73515107Y-97220180D03*
X76815107Y-97220180D03*
%TD*%
D18*
%TO.C,U1*%
X130652549Y-125625000D03*
X130652549Y-126575000D03*
X130652549Y-127525000D03*
X132852549Y-127525000D03*
X132852549Y-125625000D03*
%TD*%
D10*
%TO.C,R17*%
X221569813Y-156860180D03*
X220599813Y-156860180D03*
%TD*%
D14*
%TO.C,C12*%
X80625107Y-95670180D03*
X80625107Y-92970180D03*
%TD*%
D22*
%TO.C,D2*%
X229352353Y-142550000D03*
X231102353Y-142550000D03*
%TD*%
D11*
%TO.C,R21*%
X173924411Y-119549280D03*
X173924411Y-118579280D03*
%TD*%
D10*
%TO.C,R2*%
X180012451Y-173250000D03*
X179042451Y-173250000D03*
%TD*%
D11*
%TO.C,R29*%
X223014813Y-93975180D03*
X223014813Y-93005180D03*
%TD*%
D17*
%TO.C,R28*%
X165504911Y-127405180D03*
X165504911Y-128375180D03*
%TD*%
%TO.C,R7*%
X223427353Y-79665000D03*
X223427353Y-80635000D03*
%TD*%
D11*
%TO.C,C5*%
X214504813Y-190375180D03*
X214504813Y-189405180D03*
%TD*%
D10*
%TO.C,C3*%
X75662647Y-89970000D03*
X74692647Y-89970000D03*
%TD*%
%TO.C,R13*%
X181379171Y-120181880D03*
X180409171Y-120181880D03*
%TD*%
D14*
%TO.C,C12*%
X224624813Y-95670180D03*
X224624813Y-92970180D03*
%TD*%
D11*
%TO.C,C5*%
X118505009Y-97375180D03*
X118505009Y-96405180D03*
%TD*%
%TO.C,R10*%
X227966973Y-118154820D03*
X227966973Y-117184820D03*
%TD*%
D22*
%TO.C,D2*%
X133352549Y-49550000D03*
X135102549Y-49550000D03*
%TD*%
D11*
%TO.C,R3*%
X183427451Y-113835000D03*
X183427451Y-112865000D03*
%TD*%
D21*
%TO.C,L1*%
X180102451Y-161075000D03*
X182902451Y-161075000D03*
%TD*%
D23*
%TO.C,C11*%
X226122313Y-67670180D03*
X223422313Y-67670180D03*
%TD*%
D11*
%TO.C,R10*%
X83967267Y-118154820D03*
X83967267Y-117184820D03*
%TD*%
D10*
%TO.C,C9*%
X219697353Y-55610000D03*
X218727353Y-55610000D03*
%TD*%
%TO.C,C6*%
X75637647Y-93470000D03*
X74667647Y-93470000D03*
%TD*%
D12*
%TO.C,R11*%
X72712647Y-124220000D03*
X73682647Y-124220000D03*
%TD*%
D11*
%TO.C,R1*%
X173827451Y-175035000D03*
X173827451Y-174065000D03*
%TD*%
D12*
%TO.C,R20*%
X216772353Y-87930000D03*
X217742353Y-87930000D03*
%TD*%
D10*
%TO.C,C1*%
X123642549Y-187520000D03*
X122672549Y-187520000D03*
%TD*%
D11*
%TO.C,R3*%
X183427451Y-175835000D03*
X183427451Y-174865000D03*
%TD*%
D16*
%TO.C,D4*%
X217514813Y-128220180D03*
X220814813Y-128220180D03*
%TD*%
D10*
%TO.C,C1*%
X171642451Y-94520000D03*
X170672451Y-94520000D03*
%TD*%
%TO.C,C3*%
X123662549Y-120970000D03*
X122692549Y-120970000D03*
%TD*%
%TO.C,C2*%
X219662353Y-154280000D03*
X218692353Y-154280000D03*
%TD*%
%TO.C,R2*%
X132012549Y-111250000D03*
X131042549Y-111250000D03*
%TD*%
D11*
%TO.C,C5*%
X70505107Y-159375180D03*
X70505107Y-158405180D03*
%TD*%
%TO.C,R21*%
X125924509Y-88549280D03*
X125924509Y-87579280D03*
%TD*%
D10*
%TO.C,R2*%
X132012549Y-173250000D03*
X131042549Y-173250000D03*
%TD*%
%TO.C,C1*%
X219642353Y-125520000D03*
X218672353Y-125520000D03*
%TD*%
D17*
%TO.C,R22*%
X222927613Y-149586900D03*
X222927613Y-150556900D03*
%TD*%
D12*
%TO.C,R23*%
X216772353Y-117340000D03*
X217742353Y-117340000D03*
%TD*%
D22*
%TO.C,D2*%
X229352353Y-49550000D03*
X231102353Y-49550000D03*
%TD*%
D18*
%TO.C,U1*%
X226652353Y-125625000D03*
X226652353Y-126575000D03*
X226652353Y-127525000D03*
X228852353Y-127525000D03*
X228852353Y-125625000D03*
%TD*%
D14*
%TO.C,C12*%
X80625107Y-64670180D03*
X80625107Y-61970180D03*
%TD*%
D10*
%TO.C,C4*%
X75702647Y-87680000D03*
X74732647Y-87680000D03*
%TD*%
D17*
%TO.C,R28*%
X165504911Y-96405180D03*
X165504911Y-97375180D03*
%TD*%
D22*
%TO.C,D2*%
X181352451Y-142550000D03*
X183102451Y-142550000D03*
%TD*%
D10*
%TO.C,C4*%
X75702647Y-56680000D03*
X74732647Y-56680000D03*
%TD*%
%TO.C,C1*%
X75642647Y-125520000D03*
X74672647Y-125520000D03*
%TD*%
%TO.C,C7*%
X171657451Y-122200000D03*
X170687451Y-122200000D03*
%TD*%
D18*
%TO.C,U1*%
X82652647Y-94625000D03*
X82652647Y-95575000D03*
X82652647Y-96525000D03*
X84852647Y-96525000D03*
X84852647Y-94625000D03*
%TD*%
D10*
%TO.C,C6*%
X171637451Y-93470000D03*
X170667451Y-93470000D03*
%TD*%
D16*
%TO.C,D4*%
X169514911Y-128220180D03*
X172814911Y-128220180D03*
%TD*%
D12*
%TO.C,R11*%
X216712353Y-62220000D03*
X217682353Y-62220000D03*
%TD*%
D11*
%TO.C,R29*%
X175014911Y-186975180D03*
X175014911Y-186005180D03*
%TD*%
D10*
%TO.C,C6*%
X171637451Y-62470000D03*
X170667451Y-62470000D03*
%TD*%
D12*
%TO.C,R8*%
X120730009Y-94770180D03*
X121700009Y-94770180D03*
%TD*%
D11*
%TO.C,R3*%
X87427647Y-175835000D03*
X87427647Y-174865000D03*
%TD*%
%TO.C,R4*%
X86327647Y-144835000D03*
X86327647Y-143865000D03*
%TD*%
D10*
%TO.C,C7*%
X123657549Y-60200000D03*
X122687549Y-60200000D03*
%TD*%
D11*
%TO.C,C5*%
X214504813Y-159375180D03*
X214504813Y-158405180D03*
%TD*%
D10*
%TO.C,C6*%
X171637451Y-124470000D03*
X170667451Y-124470000D03*
%TD*%
D17*
%TO.C,R9*%
X130928309Y-148177200D03*
X130928309Y-149147200D03*
%TD*%
D11*
%TO.C,R12*%
X119107549Y-62025000D03*
X119107549Y-61055000D03*
%TD*%
D23*
%TO.C,C11*%
X178122411Y-160670180D03*
X175422411Y-160670180D03*
%TD*%
D11*
%TO.C,R10*%
X83967267Y-180154820D03*
X83967267Y-179184820D03*
%TD*%
D10*
%TO.C,C1*%
X75642647Y-63520000D03*
X74672647Y-63520000D03*
%TD*%
D12*
%TO.C,R20*%
X168772451Y-56930000D03*
X169742451Y-56930000D03*
%TD*%
D10*
%TO.C,C8*%
X75648647Y-119890000D03*
X74678647Y-119890000D03*
%TD*%
%TO.C,R13*%
X133379269Y-182181880D03*
X132409269Y-182181880D03*
%TD*%
D20*
%TO.C,U2*%
X132945009Y-84115180D03*
X132945009Y-83465180D03*
X132945009Y-82815180D03*
X132945009Y-82165180D03*
X129045009Y-82165180D03*
X129045009Y-82815180D03*
X129045009Y-83465180D03*
X129045009Y-84115180D03*
%TD*%
D10*
%TO.C,R13*%
X133379269Y-120181880D03*
X132409269Y-120181880D03*
%TD*%
%TO.C,C4*%
X171702451Y-149680000D03*
X170732451Y-149680000D03*
%TD*%
D12*
%TO.C,R11*%
X168712451Y-155220000D03*
X169682451Y-155220000D03*
%TD*%
D11*
%TO.C,R12*%
X167107451Y-186025000D03*
X167107451Y-185055000D03*
%TD*%
D17*
%TO.C,R22*%
X222927613Y-118586900D03*
X222927613Y-119556900D03*
%TD*%
D12*
%TO.C,R23*%
X168772451Y-148340000D03*
X169742451Y-148340000D03*
%TD*%
%TO.C,R23*%
X120772549Y-117340000D03*
X121742549Y-117340000D03*
%TD*%
D10*
%TO.C,C2*%
X123662549Y-123280000D03*
X122692549Y-123280000D03*
%TD*%
%TO.C,C6*%
X75637647Y-124470000D03*
X74667647Y-124470000D03*
%TD*%
D17*
%TO.C,R16*%
X167096891Y-57153320D03*
X167096891Y-58123320D03*
%TD*%
D12*
%TO.C,R20*%
X72772647Y-180930000D03*
X73742647Y-180930000D03*
%TD*%
D11*
%TO.C,C5*%
X166504911Y-97375180D03*
X166504911Y-96405180D03*
%TD*%
D22*
%TO.C,D2*%
X85352647Y-49550000D03*
X87102647Y-49550000D03*
%TD*%
D17*
%TO.C,R7*%
X79427647Y-141665000D03*
X79427647Y-142635000D03*
%TD*%
D19*
%TO.C,P1*%
X160972191Y-155345140D03*
X160972191Y-154845140D03*
X160972191Y-154345140D03*
X160972191Y-153845140D03*
X160972191Y-153345140D03*
X160972191Y-152845140D03*
X160972191Y-152345140D03*
X160972191Y-151845140D03*
X160972191Y-151345140D03*
X160972191Y-150845140D03*
X160972191Y-150345140D03*
X160972191Y-149845140D03*
X160972191Y-149345140D03*
X160972191Y-148845140D03*
X160972191Y-148345140D03*
X160972191Y-147845140D03*
X160972191Y-147345140D03*
X160972191Y-146845140D03*
X160972191Y-146345140D03*
%TD*%
D13*
%TO.C,D1*%
X130877549Y-185450000D03*
X134177549Y-185450000D03*
%TD*%
%TO.C,D1*%
X226877353Y-61450000D03*
X230177353Y-61450000D03*
%TD*%
D22*
%TO.C,D2*%
X181352451Y-80550000D03*
X183102451Y-80550000D03*
%TD*%
D10*
%TO.C,R2*%
X228012353Y-173250000D03*
X227042353Y-173250000D03*
%TD*%
D23*
%TO.C,C11*%
X130122509Y-160670180D03*
X127422509Y-160670180D03*
%TD*%
D11*
%TO.C,C5*%
X70505107Y-66375180D03*
X70505107Y-65405180D03*
%TD*%
D16*
%TO.C,D4*%
X217514813Y-97220180D03*
X220814813Y-97220180D03*
%TD*%
D12*
%TO.C,R14*%
X227786773Y-119168420D03*
X228756773Y-119168420D03*
%TD*%
D18*
%TO.C,U1*%
X82652647Y-125625000D03*
X82652647Y-126575000D03*
X82652647Y-127525000D03*
X84852647Y-127525000D03*
X84852647Y-125625000D03*
%TD*%
D10*
%TO.C,C2*%
X219662353Y-185280000D03*
X218692353Y-185280000D03*
%TD*%
%TO.C,R17*%
X221569813Y-94860180D03*
X220599813Y-94860180D03*
%TD*%
%TO.C,C4*%
X219702353Y-87680000D03*
X218732353Y-87680000D03*
%TD*%
%TO.C,R18*%
X123630009Y-64530180D03*
X122660009Y-64530180D03*
%TD*%
D11*
%TO.C,R10*%
X179967071Y-180154820D03*
X179967071Y-179184820D03*
%TD*%
D17*
%TO.C,R9*%
X226928113Y-55177200D03*
X226928113Y-56147200D03*
%TD*%
D11*
%TO.C,R4*%
X230327353Y-113835000D03*
X230327353Y-112865000D03*
%TD*%
%TO.C,R1*%
X173827451Y-113035000D03*
X173827451Y-112065000D03*
%TD*%
D13*
%TO.C,D1*%
X226877353Y-92450000D03*
X230177353Y-92450000D03*
%TD*%
D11*
%TO.C,R1*%
X77827647Y-82035000D03*
X77827647Y-81065000D03*
%TD*%
D10*
%TO.C,C4*%
X171702451Y-118680000D03*
X170732451Y-118680000D03*
%TD*%
D12*
%TO.C,R11*%
X72712647Y-93220000D03*
X73682647Y-93220000D03*
%TD*%
D10*
%TO.C,C6*%
X219637353Y-124470000D03*
X218667353Y-124470000D03*
%TD*%
D11*
%TO.C,R21*%
X221924313Y-57549280D03*
X221924313Y-56579280D03*
%TD*%
D10*
%TO.C,R2*%
X84012647Y-80250000D03*
X83042647Y-80250000D03*
%TD*%
D11*
%TO.C,R12*%
X215107353Y-186025000D03*
X215107353Y-185055000D03*
%TD*%
D17*
%TO.C,R16*%
X167096891Y-88153320D03*
X167096891Y-89123320D03*
%TD*%
D11*
%TO.C,R1*%
X173827451Y-144035000D03*
X173827451Y-143065000D03*
%TD*%
D10*
%TO.C,R18*%
X75630107Y-64530180D03*
X74660107Y-64530180D03*
%TD*%
D17*
%TO.C,R22*%
X78927907Y-149586900D03*
X78927907Y-150556900D03*
%TD*%
D11*
%TO.C,R4*%
X230327353Y-144835000D03*
X230327353Y-143865000D03*
%TD*%
D23*
%TO.C,C11*%
X226122313Y-129670180D03*
X223422313Y-129670180D03*
%TD*%
D12*
%TO.C,R23*%
X168772451Y-86340000D03*
X169742451Y-86340000D03*
%TD*%
%TO.C,R8*%
X168729911Y-94770180D03*
X169699911Y-94770180D03*
%TD*%
D10*
%TO.C,C4*%
X75702647Y-149680000D03*
X74732647Y-149680000D03*
%TD*%
%TO.C,C7*%
X75657647Y-91200000D03*
X74687647Y-91200000D03*
%TD*%
D12*
%TO.C,R15*%
X72762647Y-152580000D03*
X73732647Y-152580000D03*
%TD*%
D11*
%TO.C,R1*%
X221827353Y-113035000D03*
X221827353Y-112065000D03*
%TD*%
D10*
%TO.C,C8*%
X219648353Y-150890000D03*
X218678353Y-150890000D03*
%TD*%
D11*
%TO.C,R10*%
X227966973Y-87154820D03*
X227966973Y-86184820D03*
%TD*%
D12*
%TO.C,R15*%
X72762647Y-121580000D03*
X73732647Y-121580000D03*
%TD*%
D11*
%TO.C,R29*%
X223014813Y-155975180D03*
X223014813Y-155005180D03*
%TD*%
D21*
%TO.C,L1*%
X84102647Y-68075000D03*
X86902647Y-68075000D03*
%TD*%
D10*
%TO.C,R18*%
X219629813Y-64530180D03*
X218659813Y-64530180D03*
%TD*%
D14*
%TO.C,C12*%
X128625009Y-64670180D03*
X128625009Y-61970180D03*
%TD*%
D12*
%TO.C,R5*%
X174659911Y-115080180D03*
X175629911Y-115080180D03*
%TD*%
D21*
%TO.C,L1*%
X132102549Y-99075000D03*
X134902549Y-99075000D03*
%TD*%
D17*
%TO.C,R28*%
X213504813Y-127405180D03*
X213504813Y-128375180D03*
%TD*%
D14*
%TO.C,C12*%
X80625107Y-126670180D03*
X80625107Y-123970180D03*
%TD*%
D12*
%TO.C,R19*%
X72752647Y-57940000D03*
X73722647Y-57940000D03*
%TD*%
%TO.C,R19*%
X216752353Y-150940000D03*
X217722353Y-150940000D03*
%TD*%
%TO.C,R19*%
X168752451Y-119940000D03*
X169722451Y-119940000D03*
%TD*%
D10*
%TO.C,C8*%
X75648647Y-150890000D03*
X74678647Y-150890000D03*
%TD*%
D23*
%TO.C,C11*%
X226122313Y-191670180D03*
X223422313Y-191670180D03*
%TD*%
D11*
%TO.C,R29*%
X223014813Y-186975180D03*
X223014813Y-186005180D03*
%TD*%
%TO.C,R3*%
X87427647Y-51835000D03*
X87427647Y-50865000D03*
%TD*%
D10*
%TO.C,C9*%
X219697353Y-148610000D03*
X218727353Y-148610000D03*
%TD*%
D12*
%TO.C,R15*%
X120762549Y-121580000D03*
X121732549Y-121580000D03*
%TD*%
D14*
%TO.C,C12*%
X128625009Y-126670180D03*
X128625009Y-123970180D03*
%TD*%
D15*
%TO.C,D3*%
X134752549Y-63275000D03*
X134752549Y-65375000D03*
%TD*%
D19*
%TO.C,P1*%
X160972191Y-186345140D03*
X160972191Y-185845140D03*
X160972191Y-185345140D03*
X160972191Y-184845140D03*
X160972191Y-184345140D03*
X160972191Y-183845140D03*
X160972191Y-183345140D03*
X160972191Y-182845140D03*
X160972191Y-182345140D03*
X160972191Y-181845140D03*
X160972191Y-181345140D03*
X160972191Y-180845140D03*
X160972191Y-180345140D03*
X160972191Y-179845140D03*
X160972191Y-179345140D03*
X160972191Y-178845140D03*
X160972191Y-178345140D03*
X160972191Y-177845140D03*
X160972191Y-177345140D03*
%TD*%
D13*
%TO.C,D1*%
X82877647Y-92450000D03*
X86177647Y-92450000D03*
%TD*%
D12*
%TO.C,R23*%
X168772451Y-117340000D03*
X169742451Y-117340000D03*
%TD*%
%TO.C,R5*%
X78660107Y-115080180D03*
X79630107Y-115080180D03*
%TD*%
D20*
%TO.C,U2*%
X132945009Y-53115180D03*
X132945009Y-52465180D03*
X132945009Y-51815180D03*
X132945009Y-51165180D03*
X129045009Y-51165180D03*
X129045009Y-51815180D03*
X129045009Y-52465180D03*
X129045009Y-53115180D03*
%TD*%
D11*
%TO.C,R10*%
X131967169Y-149154820D03*
X131967169Y-148184820D03*
%TD*%
D10*
%TO.C,C1*%
X171642451Y-187520000D03*
X170672451Y-187520000D03*
%TD*%
D17*
%TO.C,R7*%
X79427647Y-110665000D03*
X79427647Y-111635000D03*
%TD*%
D12*
%TO.C,R11*%
X120712549Y-124220000D03*
X121682549Y-124220000D03*
%TD*%
D14*
%TO.C,C12*%
X176624911Y-126670180D03*
X176624911Y-123970180D03*
%TD*%
D15*
%TO.C,D3*%
X134752549Y-94275000D03*
X134752549Y-96375000D03*
%TD*%
D10*
%TO.C,R17*%
X125570009Y-94860180D03*
X124600009Y-94860180D03*
%TD*%
D17*
%TO.C,R9*%
X178928211Y-148177200D03*
X178928211Y-149147200D03*
%TD*%
D12*
%TO.C,R23*%
X120772549Y-179340000D03*
X121742549Y-179340000D03*
%TD*%
D17*
%TO.C,R9*%
X130928309Y-55177200D03*
X130928309Y-56147200D03*
%TD*%
D10*
%TO.C,C9*%
X123697549Y-86610000D03*
X122727549Y-86610000D03*
%TD*%
D11*
%TO.C,C5*%
X118505009Y-190375180D03*
X118505009Y-189405180D03*
%TD*%
D12*
%TO.C,R20*%
X168772451Y-149930000D03*
X169742451Y-149930000D03*
%TD*%
%TO.C,R8*%
X216729813Y-94770180D03*
X217699813Y-94770180D03*
%TD*%
D20*
%TO.C,U2*%
X228944813Y-146115180D03*
X228944813Y-145465180D03*
X228944813Y-144815180D03*
X228944813Y-144165180D03*
X225044813Y-144165180D03*
X225044813Y-144815180D03*
X225044813Y-145465180D03*
X225044813Y-146115180D03*
%TD*%
D10*
%TO.C,C13*%
X127630009Y-83060180D03*
X126660009Y-83060180D03*
%TD*%
D23*
%TO.C,C11*%
X82122607Y-98670180D03*
X79422607Y-98670180D03*
%TD*%
D16*
%TO.C,D4*%
X169514911Y-159220180D03*
X172814911Y-159220180D03*
%TD*%
D17*
%TO.C,R7*%
X79427647Y-48665000D03*
X79427647Y-49635000D03*
%TD*%
D14*
%TO.C,C12*%
X224624813Y-188670180D03*
X224624813Y-185970180D03*
%TD*%
D12*
%TO.C,R8*%
X216729813Y-187770180D03*
X217699813Y-187770180D03*
%TD*%
D11*
%TO.C,C5*%
X166504911Y-190375180D03*
X166504911Y-189405180D03*
%TD*%
D10*
%TO.C,C9*%
X123697549Y-179610000D03*
X122727549Y-179610000D03*
%TD*%
%TO.C,R13*%
X181379171Y-89181880D03*
X180409171Y-89181880D03*
%TD*%
D20*
%TO.C,U2*%
X180944911Y-177115180D03*
X180944911Y-176465180D03*
X180944911Y-175815180D03*
X180944911Y-175165180D03*
X177044911Y-175165180D03*
X177044911Y-175815180D03*
X177044911Y-176465180D03*
X177044911Y-177115180D03*
%TD*%
D10*
%TO.C,C1*%
X123642549Y-156520000D03*
X122672549Y-156520000D03*
%TD*%
D11*
%TO.C,R4*%
X134327549Y-51835000D03*
X134327549Y-50865000D03*
%TD*%
D17*
%TO.C,R22*%
X78927907Y-118586900D03*
X78927907Y-119556900D03*
%TD*%
D21*
%TO.C,L1*%
X84102647Y-99075000D03*
X86902647Y-99075000D03*
%TD*%
D12*
%TO.C,R8*%
X72730107Y-94770180D03*
X73700107Y-94770180D03*
%TD*%
%TO.C,R5*%
X126660009Y-177080180D03*
X127630009Y-177080180D03*
%TD*%
D10*
%TO.C,R13*%
X229379073Y-151181880D03*
X228409073Y-151181880D03*
%TD*%
%TO.C,C13*%
X127630009Y-145060180D03*
X126660009Y-145060180D03*
%TD*%
D12*
%TO.C,R14*%
X227786773Y-150168420D03*
X228756773Y-150168420D03*
%TD*%
%TO.C,R20*%
X216772353Y-180930000D03*
X217742353Y-180930000D03*
%TD*%
D10*
%TO.C,R13*%
X181379171Y-182181880D03*
X180409171Y-182181880D03*
%TD*%
D11*
%TO.C,R29*%
X127015009Y-93975180D03*
X127015009Y-93005180D03*
%TD*%
%TO.C,R1*%
X125827549Y-82035000D03*
X125827549Y-81065000D03*
%TD*%
D10*
%TO.C,C8*%
X171648451Y-57890000D03*
X170678451Y-57890000D03*
%TD*%
D11*
%TO.C,R1*%
X77827647Y-175035000D03*
X77827647Y-174065000D03*
%TD*%
D10*
%TO.C,C1*%
X219642353Y-94520000D03*
X218672353Y-94520000D03*
%TD*%
D18*
%TO.C,U1*%
X130652549Y-156625000D03*
X130652549Y-157575000D03*
X130652549Y-158525000D03*
X132852549Y-158525000D03*
X132852549Y-156625000D03*
%TD*%
D11*
%TO.C,R21*%
X77924607Y-119549280D03*
X77924607Y-118579280D03*
%TD*%
D10*
%TO.C,C4*%
X75702647Y-180680000D03*
X74732647Y-180680000D03*
%TD*%
D12*
%TO.C,R5*%
X222659813Y-84080180D03*
X223629813Y-84080180D03*
%TD*%
D11*
%TO.C,C5*%
X118505009Y-128375180D03*
X118505009Y-127405180D03*
%TD*%
D10*
%TO.C,R17*%
X173569911Y-94860180D03*
X172599911Y-94860180D03*
%TD*%
D12*
%TO.C,R8*%
X168729911Y-156770180D03*
X169699911Y-156770180D03*
%TD*%
D10*
%TO.C,C3*%
X123662549Y-58970000D03*
X122692549Y-58970000D03*
%TD*%
D11*
%TO.C,R21*%
X173924411Y-181549280D03*
X173924411Y-180579280D03*
%TD*%
D12*
%TO.C,R15*%
X216762353Y-121580000D03*
X217732353Y-121580000D03*
%TD*%
D13*
%TO.C,D1*%
X226877353Y-185450000D03*
X230177353Y-185450000D03*
%TD*%
D10*
%TO.C,C4*%
X219702353Y-149680000D03*
X218732353Y-149680000D03*
%TD*%
D11*
%TO.C,R29*%
X127015009Y-186975180D03*
X127015009Y-186005180D03*
%TD*%
D17*
%TO.C,R28*%
X69505107Y-96405180D03*
X69505107Y-97375180D03*
%TD*%
D12*
%TO.C,R14*%
X131786969Y-150168420D03*
X132756969Y-150168420D03*
%TD*%
D10*
%TO.C,C8*%
X75648647Y-57890000D03*
X74678647Y-57890000D03*
%TD*%
%TO.C,C13*%
X223629813Y-52060180D03*
X222659813Y-52060180D03*
%TD*%
D11*
%TO.C,R1*%
X125827549Y-51035000D03*
X125827549Y-50065000D03*
%TD*%
M02*
