M48
;DRILL file {KiCad 5.0.2+dfsg1-1} date Sat 14 Dec 2019 12:12:17 AM CET
;FORMAT={-:-/ absolute / inch / decimal}
FMAT,2
INCH,TZ
T1C0.0157
T2C0.0362
T3C0.0394
T4C0.0906
%
G90
G05
T1
X4.87Y-3.55
X5.035Y-3.9776
X5.165Y-3.98
X5.225Y-3.89
X5.325Y-3.675
X5.335Y-3.786
X5.38Y-3.865
X5.41Y-4.2542
X5.44Y-4.1135
X5.545Y-4.1558
X5.625Y-3.37
X5.695Y-3.99
X5.695Y-4.115
X5.75Y-3.665
X5.775Y-4.155
X5.775Y-4.2542
X5.785Y-3.595
X5.8291Y-3.3259
X5.935Y-3.981
X6.015Y-3.845
X6.015Y-3.92
X6.025Y-4.025
X6.03Y-3.785
X6.105Y-3.625
X6.175Y-3.756
X6.74Y-3.845
T2
X5.2844Y-3.565
X5.3828Y-3.565
X5.4616Y-3.565
X5.56Y-3.565
X6.2744Y-3.565
X6.3728Y-3.565
X6.4516Y-3.565
X6.55Y-3.565
T3
X6.355Y-3.71
X6.355Y-3.81
X6.355Y-3.91
X6.355Y-4.01
X6.355Y-4.11
X6.355Y-4.21
X6.455Y-3.71
X6.455Y-3.81
X6.455Y-3.91
X6.455Y-4.01
X6.455Y-4.11
X6.455Y-4.21
X4.87Y-3.15
X4.87Y-3.25
X4.87Y-3.35
X4.87Y-3.45
X4.87Y-3.55
X4.87Y-3.65
X4.87Y-3.75
X4.87Y-3.85
X4.87Y-3.95
X4.87Y-4.05
X4.87Y-4.15
X4.87Y-4.25
X4.97Y-3.15
X4.97Y-3.25
X4.97Y-3.35
X4.97Y-3.45
X4.97Y-3.55
X4.97Y-3.65
X4.97Y-3.75
X4.97Y-3.85
X4.97Y-3.95
X4.97Y-4.05
X4.97Y-4.15
X4.97Y-4.25
T4
X5.1635Y-3.4583
X5.6809Y-3.4583
X6.1535Y-3.4583
X6.6709Y-3.4583
T0
M30
