G04 #@! TF.GenerationSoftware,KiCad,Pcbnew,5.0.2+dfsg1-1*
G04 #@! TF.CreationDate,2019-12-14T00:12:12+01:00*
G04 #@! TF.ProjectId,USB,5553422e-6b69-4636-9164-5f7063625858,rev?*
G04 #@! TF.SameCoordinates,Original*
G04 #@! TF.FileFunction,Copper,L2,Bot*
G04 #@! TF.FilePolarity,Positive*
%FSLAX46Y46*%
G04 Gerber Fmt 4.6, Leading zero omitted, Abs format (unit mm)*
G04 Created by KiCad (PCBNEW 5.0.2+dfsg1-1) date Sat 14 Dec 2019 12:12:12 AM CET*
%MOMM*%
%LPD*%
G01*
G04 APERTURE LIST*
G04 #@! TA.AperFunction,ComponentPad*
%ADD10R,1.700000X1.700000*%
G04 #@! TD*
G04 #@! TA.AperFunction,ComponentPad*
%ADD11O,1.700000X1.700000*%
G04 #@! TD*
G04 #@! TA.AperFunction,ComponentPad*
%ADD12C,1.600000*%
G04 #@! TD*
G04 #@! TA.AperFunction,ComponentPad*
%ADD13R,1.600000X1.600000*%
G04 #@! TD*
G04 #@! TA.AperFunction,ComponentPad*
%ADD14C,3.000000*%
G04 #@! TD*
G04 #@! TA.AperFunction,ViaPad*
%ADD15C,0.800000*%
G04 #@! TD*
G04 #@! TA.AperFunction,Conductor*
%ADD16C,0.250000*%
G04 #@! TD*
G04 #@! TA.AperFunction,Conductor*
%ADD17C,0.500000*%
G04 #@! TD*
G04 #@! TA.AperFunction,Conductor*
%ADD18C,0.200000*%
G04 #@! TD*
G04 #@! TA.AperFunction,Conductor*
%ADD19C,0.254000*%
G04 #@! TD*
G04 APERTURE END LIST*
D10*
G04 #@! TO.P,J1,1*
G04 #@! TO.N,USB2_FPGA_D-*
X126238000Y-107950000D03*
D11*
G04 #@! TO.P,J1,2*
G04 #@! TO.N,USB2_FPGA_D+*
X123698000Y-107950000D03*
G04 #@! TO.P,J1,3*
G04 #@! TO.N,+3V3*
X126238000Y-105410000D03*
G04 #@! TO.P,J1,4*
X123698000Y-105410000D03*
G04 #@! TO.P,J1,5*
G04 #@! TO.N,GND*
X126238000Y-102870000D03*
G04 #@! TO.P,J1,6*
X123698000Y-102870000D03*
G04 #@! TO.P,J1,7*
G04 #@! TO.N,USB1_FPGA_D-*
X126238000Y-100330000D03*
G04 #@! TO.P,J1,8*
G04 #@! TO.N,USB1_FPGA_D+*
X123698000Y-100330000D03*
G04 #@! TO.P,J1,9*
G04 #@! TO.N,USB1_FPGA_PULL_D-*
X126238000Y-97790000D03*
G04 #@! TO.P,J1,10*
G04 #@! TO.N,USB1_FPGA_PULL_D+*
X123698000Y-97790000D03*
G04 #@! TO.P,J1,11*
G04 #@! TO.N,USB2_FPGA_PULL_D-*
X126238000Y-95250000D03*
G04 #@! TO.P,J1,12*
G04 #@! TO.N,USB2_FPGA_PULL_D+*
X123698000Y-95250000D03*
G04 #@! TO.P,J1,13*
G04 #@! TO.N,GN24*
X126238000Y-92710000D03*
G04 #@! TO.P,J1,14*
G04 #@! TO.N,GP24*
X123698000Y-92710000D03*
G04 #@! TO.P,J1,15*
G04 #@! TO.N,GN25*
X126238000Y-90170000D03*
G04 #@! TO.P,J1,16*
G04 #@! TO.N,GP25*
X123698000Y-90170000D03*
G04 #@! TO.P,J1,17*
G04 #@! TO.N,GN26*
X126238000Y-87630000D03*
G04 #@! TO.P,J1,18*
G04 #@! TO.N,GP26*
X123698000Y-87630000D03*
G04 #@! TO.P,J1,19*
G04 #@! TO.N,GN27*
X126238000Y-85090000D03*
G04 #@! TO.P,J1,20*
G04 #@! TO.N,GP27*
X123698000Y-85090000D03*
G04 #@! TO.P,J1,21*
G04 #@! TO.N,GND*
X126238000Y-82550000D03*
G04 #@! TO.P,J1,22*
X123698000Y-82550000D03*
G04 #@! TO.P,J1,23*
G04 #@! TO.N,+5V*
X126238000Y-80010000D03*
G04 #@! TO.P,J1,24*
X123698000Y-80010000D03*
G04 #@! TD*
D10*
G04 #@! TO.P,J2,1*
G04 #@! TO.N,+3V3*
X161417000Y-106934000D03*
D11*
G04 #@! TO.P,J2,2*
X163957000Y-106934000D03*
G04 #@! TO.P,J2,3*
G04 #@! TO.N,GND*
X161417000Y-104394000D03*
G04 #@! TO.P,J2,4*
X163957000Y-104394000D03*
G04 #@! TO.P,J2,5*
G04 #@! TO.N,GN24*
X161417000Y-101854000D03*
G04 #@! TO.P,J2,6*
G04 #@! TO.N,GP24*
X163957000Y-101854000D03*
G04 #@! TO.P,J2,7*
G04 #@! TO.N,GN25*
X161417000Y-99314000D03*
G04 #@! TO.P,J2,8*
G04 #@! TO.N,GP25*
X163957000Y-99314000D03*
G04 #@! TO.P,J2,9*
G04 #@! TO.N,GN26*
X161417000Y-96774000D03*
G04 #@! TO.P,J2,10*
G04 #@! TO.N,GP26*
X163957000Y-96774000D03*
G04 #@! TO.P,J2,11*
G04 #@! TO.N,GN27*
X161417000Y-94234000D03*
G04 #@! TO.P,J2,12*
G04 #@! TO.N,GP27*
X163957000Y-94234000D03*
G04 #@! TD*
D12*
G04 #@! TO.P,US3,4*
G04 #@! TO.N,GND*
X134224000Y-90551000D03*
G04 #@! TO.P,US3,3*
G04 #@! TO.N,/FPD1+*
X136724000Y-90551000D03*
G04 #@! TO.P,US3,2*
G04 #@! TO.N,/FPD1-*
X138724000Y-90551000D03*
D13*
G04 #@! TO.P,US3,1*
G04 #@! TO.N,/US1VBUS*
X141224000Y-90551000D03*
D14*
G04 #@! TO.P,US3,5*
G04 #@! TO.N,GND*
X144294000Y-87841000D03*
X131154000Y-87841000D03*
G04 #@! TD*
G04 #@! TO.P,US4,5*
G04 #@! TO.N,GND*
X156300000Y-87841000D03*
X169440000Y-87841000D03*
D13*
G04 #@! TO.P,US4,1*
G04 #@! TO.N,/US2VBUS*
X166370000Y-90551000D03*
D12*
G04 #@! TO.P,US4,2*
G04 #@! TO.N,/FPD2-*
X163870000Y-90551000D03*
G04 #@! TO.P,US4,3*
G04 #@! TO.N,/FPD2+*
X161870000Y-90551000D03*
G04 #@! TO.P,US4,4*
G04 #@! TO.N,GND*
X159370000Y-90551000D03*
G04 #@! TD*
D15*
G04 #@! TO.N,USB1_FPGA_PULL_D-*
X137414000Y-108057000D03*
G04 #@! TO.N,Net-(D4-Pad2)*
X138176000Y-104482000D03*
X140843000Y-105557000D03*
G04 #@! TO.N,USB1_FPGA_D+*
X136652000Y-98171000D03*
X135509000Y-96164500D03*
G04 #@! TO.N,GND*
X146050000Y-93091000D03*
G04 #@! TO.N,Net-(D8-Pad1)*
X146685000Y-105537000D03*
X144653000Y-104521000D03*
X144653000Y-101346000D03*
X150749000Y-101117500D03*
G04 #@! TO.N,USB2_FPGA_PULL_D+*
X146685000Y-108057000D03*
G04 #@! TO.N,USB2_FPGA_PULL_D-*
X153035000Y-102235000D03*
X132715000Y-98806000D03*
G04 #@! TO.N,USB2_FPGA_D+*
X152781000Y-99568000D03*
X152781000Y-97663000D03*
G04 #@! TO.N,USB2_FPGA_D-*
X153162000Y-96139000D03*
X156845000Y-95402500D03*
G04 #@! TO.N,GN26*
X155067000Y-92075000D03*
G04 #@! TO.N,GP25*
X146939000Y-91313000D03*
X148059863Y-84477137D03*
X123698000Y-90170000D03*
G04 #@! TO.N,GN25*
X142875000Y-85598000D03*
X171196000Y-97663000D03*
G04 #@! TO.N,GP24*
X127889000Y-101030000D03*
X131191000Y-101092000D03*
G04 #@! TO.N,GN24*
X135255000Y-93345000D03*
G04 #@! TD*
D16*
G04 #@! TO.N,USB1_FPGA_PULL_D-*
X135942001Y-106585001D02*
X137414000Y-108057000D01*
X123133999Y-106585001D02*
X135942001Y-106585001D01*
X122522999Y-105974001D02*
X123133999Y-106585001D01*
X122522999Y-99765999D02*
X122522999Y-105974001D01*
X123323997Y-98965001D02*
X122522999Y-99765999D01*
X125062999Y-98965001D02*
X123323997Y-98965001D01*
X126238000Y-97790000D02*
X125062999Y-98965001D01*
G04 #@! TO.N,Net-(D4-Pad2)*
X138176000Y-104482000D02*
X139768000Y-104482000D01*
X139768000Y-104482000D02*
X140843000Y-105557000D01*
G04 #@! TO.N,USB1_FPGA_D+*
X136652000Y-98171000D02*
X136652000Y-97307500D01*
X136652000Y-97307500D02*
X135509000Y-96164500D01*
D17*
G04 #@! TO.N,GND*
X123698000Y-102870000D02*
X126238000Y-102870000D01*
X134224000Y-91682370D02*
X134224000Y-90551000D01*
X127440081Y-102870000D02*
X134224000Y-96086081D01*
X134224000Y-96086081D02*
X134224000Y-91682370D01*
X126238000Y-102870000D02*
X127440081Y-102870000D01*
X134224000Y-90911000D02*
X131154000Y-87841000D01*
X134224000Y-91682370D02*
X134224000Y-90911000D01*
X133275320Y-87841000D02*
X144294000Y-87841000D01*
X131154000Y-87841000D02*
X133275320Y-87841000D01*
X126238000Y-82550000D02*
X129667000Y-82550000D01*
X131154000Y-84037000D02*
X131154000Y-87841000D01*
X129667000Y-82550000D02*
X131154000Y-84037000D01*
X146415320Y-87841000D02*
X156300000Y-87841000D01*
X144294000Y-87841000D02*
X146415320Y-87841000D01*
X156660000Y-87841000D02*
X159370000Y-90551000D01*
X156300000Y-87841000D02*
X156660000Y-87841000D01*
X156300000Y-87841000D02*
X169440000Y-87841000D01*
X169440000Y-98911000D02*
X163957000Y-104394000D01*
X169440000Y-87841000D02*
X169440000Y-98911000D01*
X123698000Y-82550000D02*
X126238000Y-82550000D01*
X161417000Y-104394000D02*
X163957000Y-104394000D01*
X144294000Y-87841000D02*
X144294000Y-91335000D01*
X144294000Y-91335000D02*
X146050000Y-93091000D01*
D16*
G04 #@! TO.N,Net-(D8-Pad1)*
X146685000Y-105537000D02*
X145669000Y-105537000D01*
X145669000Y-105537000D02*
X144653000Y-104521000D01*
X150520500Y-101346000D02*
X150749000Y-101117500D01*
X144653000Y-101346000D02*
X150520500Y-101346000D01*
G04 #@! TO.N,USB2_FPGA_PULL_D+*
X122072989Y-108063991D02*
X123228998Y-109220000D01*
X123698000Y-95250000D02*
X122072989Y-96875011D01*
X122072989Y-96875011D02*
X122072989Y-108063991D01*
X123228998Y-109220000D02*
X145522000Y-109220000D01*
X145522000Y-109220000D02*
X146685000Y-108057000D01*
G04 #@! TO.N,USB2_FPGA_PULL_D-*
X132805001Y-98896001D02*
X132715000Y-98806000D01*
X149600503Y-98896001D02*
X132805001Y-98896001D01*
X152273000Y-101568498D02*
X149600503Y-98896001D01*
X152368498Y-101568498D02*
X153035000Y-102235000D01*
X152273000Y-101568498D02*
X152368498Y-101568498D01*
G04 #@! TO.N,USB2_FPGA_D+*
X152781000Y-99568000D02*
X152781000Y-97663000D01*
G04 #@! TO.N,USB2_FPGA_D-*
X153162000Y-96139000D02*
X156108500Y-96139000D01*
X156108500Y-96139000D02*
X156845000Y-95402500D01*
D18*
G04 #@! TO.N,GP27*
X123698000Y-85090000D02*
X124148000Y-84640000D01*
G04 #@! TO.N,GP26*
X123698000Y-87630000D02*
X124148000Y-87180000D01*
D16*
G04 #@! TO.N,GN26*
X156718000Y-92075000D02*
X161417000Y-96774000D01*
X155067000Y-92075000D02*
X156718000Y-92075000D01*
G04 #@! TO.N,GP25*
X156592410Y-91313000D02*
X146939000Y-91313000D01*
X162781999Y-98138999D02*
X162781999Y-93128001D01*
X161329999Y-91676001D02*
X156955411Y-91676001D01*
X163957000Y-99314000D02*
X162781999Y-98138999D01*
X162781999Y-93128001D02*
X161329999Y-91676001D01*
X156955411Y-91676001D02*
X156592410Y-91313000D01*
X122848001Y-89320001D02*
X123698000Y-90170000D01*
X122522999Y-88994999D02*
X122848001Y-89320001D01*
X122522999Y-81985999D02*
X122522999Y-88994999D01*
X123133999Y-81374999D02*
X122522999Y-81985999D01*
X144957725Y-81374999D02*
X123133999Y-81374999D01*
X148059863Y-84477137D02*
X144957725Y-81374999D01*
G04 #@! TO.N,GN25*
X171265001Y-97593999D02*
X171196000Y-97663000D01*
X171265001Y-86964999D02*
X171265001Y-97593999D01*
X142875000Y-85598000D02*
X169898002Y-85598000D01*
X169898002Y-85598000D02*
X171265001Y-86964999D01*
G04 #@! TO.N,GP24*
X127889000Y-97701998D02*
X127889000Y-101030000D01*
X125062999Y-94074999D02*
X125062999Y-95814001D01*
X123698000Y-92710000D02*
X125062999Y-94074999D01*
X125062999Y-95814001D02*
X125673999Y-96425001D01*
X125673999Y-96425001D02*
X126612003Y-96425001D01*
X126612003Y-96425001D02*
X127889000Y-97701998D01*
X162781999Y-103029001D02*
X163107001Y-102703999D01*
X133128001Y-103029001D02*
X162781999Y-103029001D01*
X163107001Y-102703999D02*
X163957000Y-101854000D01*
X131191000Y-101092000D02*
X133128001Y-103029001D01*
G04 #@! TO.N,GN24*
X145218002Y-93345000D02*
X135255000Y-93345000D01*
X161417000Y-101854000D02*
X153727002Y-101854000D01*
X153727002Y-101854000D02*
X145218002Y-93345000D01*
D17*
G04 #@! TO.N,+3V3*
X123698000Y-105410000D02*
X126238000Y-105410000D01*
X160067000Y-106934000D02*
X161417000Y-106934000D01*
X159639000Y-106506000D02*
X160067000Y-106934000D01*
X126238000Y-105410000D02*
X127440081Y-105410000D01*
X127440081Y-105410000D02*
X129218081Y-103632000D01*
X157607000Y-103632000D02*
X159639000Y-105664000D01*
X129218081Y-103632000D02*
X157607000Y-103632000D01*
X159639000Y-105664000D02*
X159639000Y-106506000D01*
X161417000Y-106934000D02*
X163957000Y-106934000D01*
G04 #@! TD*
D19*
G04 #@! TO.N,GND*
G36*
X173584000Y-109068000D02*
X146907596Y-109068000D01*
X146986898Y-109052226D01*
X147175256Y-108974205D01*
X147344774Y-108860937D01*
X147488937Y-108716774D01*
X147602205Y-108547256D01*
X147680226Y-108358898D01*
X147720000Y-108158939D01*
X147720000Y-107955061D01*
X147680226Y-107755102D01*
X147602205Y-107566744D01*
X147488937Y-107397226D01*
X147344774Y-107253063D01*
X147175256Y-107139795D01*
X146986898Y-107061774D01*
X146786939Y-107022000D01*
X146583061Y-107022000D01*
X146383102Y-107061774D01*
X146194744Y-107139795D01*
X146025226Y-107253063D01*
X145881063Y-107397226D01*
X145767795Y-107566744D01*
X145689774Y-107755102D01*
X145650000Y-107955061D01*
X145650000Y-108017198D01*
X145207199Y-108460000D01*
X138367348Y-108460000D01*
X138409226Y-108358898D01*
X138449000Y-108158939D01*
X138449000Y-107955061D01*
X138409226Y-107755102D01*
X138331205Y-107566744D01*
X138217937Y-107397226D01*
X138073774Y-107253063D01*
X137904256Y-107139795D01*
X137715898Y-107061774D01*
X137515939Y-107022000D01*
X137453802Y-107022000D01*
X136505805Y-106074004D01*
X136482002Y-106045000D01*
X136366277Y-105950027D01*
X136234248Y-105879455D01*
X136090987Y-105835998D01*
X135979334Y-105825001D01*
X135979323Y-105825001D01*
X135942001Y-105821325D01*
X135904679Y-105825001D01*
X128276658Y-105825001D01*
X129584660Y-104517000D01*
X137141000Y-104517000D01*
X137141000Y-104583939D01*
X137180774Y-104783898D01*
X137258795Y-104972256D01*
X137372063Y-105141774D01*
X137516226Y-105285937D01*
X137685744Y-105399205D01*
X137874102Y-105477226D01*
X138074061Y-105517000D01*
X138277939Y-105517000D01*
X138477898Y-105477226D01*
X138666256Y-105399205D01*
X138835774Y-105285937D01*
X138879711Y-105242000D01*
X139453199Y-105242000D01*
X139808000Y-105596802D01*
X139808000Y-105658939D01*
X139847774Y-105858898D01*
X139925795Y-106047256D01*
X140039063Y-106216774D01*
X140183226Y-106360937D01*
X140352744Y-106474205D01*
X140541102Y-106552226D01*
X140741061Y-106592000D01*
X140944939Y-106592000D01*
X141144898Y-106552226D01*
X141333256Y-106474205D01*
X141502774Y-106360937D01*
X141646937Y-106216774D01*
X141760205Y-106047256D01*
X141838226Y-105858898D01*
X141878000Y-105658939D01*
X141878000Y-105455061D01*
X141838226Y-105255102D01*
X141760205Y-105066744D01*
X141646937Y-104897226D01*
X141502774Y-104753063D01*
X141333256Y-104639795D01*
X141144898Y-104561774D01*
X140944939Y-104522000D01*
X140882802Y-104522000D01*
X140877802Y-104517000D01*
X143618000Y-104517000D01*
X143618000Y-104622939D01*
X143657774Y-104822898D01*
X143735795Y-105011256D01*
X143849063Y-105180774D01*
X143993226Y-105324937D01*
X144162744Y-105438205D01*
X144351102Y-105516226D01*
X144551061Y-105556000D01*
X144613199Y-105556000D01*
X145105201Y-106048003D01*
X145128999Y-106077001D01*
X145157997Y-106100799D01*
X145244723Y-106171974D01*
X145356252Y-106231588D01*
X145376753Y-106242546D01*
X145520014Y-106286003D01*
X145631667Y-106297000D01*
X145631677Y-106297000D01*
X145669000Y-106300676D01*
X145706322Y-106297000D01*
X145981289Y-106297000D01*
X146025226Y-106340937D01*
X146194744Y-106454205D01*
X146383102Y-106532226D01*
X146583061Y-106572000D01*
X146786939Y-106572000D01*
X146986898Y-106532226D01*
X147175256Y-106454205D01*
X147344774Y-106340937D01*
X147488937Y-106196774D01*
X147602205Y-106027256D01*
X147680226Y-105838898D01*
X147720000Y-105638939D01*
X147720000Y-105435061D01*
X147680226Y-105235102D01*
X147602205Y-105046744D01*
X147488937Y-104877226D01*
X147344774Y-104733063D01*
X147175256Y-104619795D01*
X146986898Y-104541774D01*
X146862350Y-104517000D01*
X157240422Y-104517000D01*
X158754000Y-106030579D01*
X158754000Y-106462531D01*
X158749719Y-106506000D01*
X158754000Y-106549469D01*
X158754000Y-106549477D01*
X158758355Y-106593687D01*
X158766805Y-106679490D01*
X158817412Y-106846313D01*
X158899590Y-107000059D01*
X158982468Y-107101046D01*
X158982471Y-107101049D01*
X159010184Y-107134817D01*
X159043952Y-107162530D01*
X159410466Y-107529044D01*
X159438183Y-107562817D01*
X159572941Y-107673411D01*
X159726687Y-107755589D01*
X159893510Y-107806195D01*
X159931482Y-107809935D01*
X159941188Y-107908482D01*
X159977498Y-108028180D01*
X160036463Y-108138494D01*
X160115815Y-108235185D01*
X160212506Y-108314537D01*
X160322820Y-108373502D01*
X160442518Y-108409812D01*
X160567000Y-108422072D01*
X162267000Y-108422072D01*
X162391482Y-108409812D01*
X162511180Y-108373502D01*
X162621494Y-108314537D01*
X162718185Y-108235185D01*
X162797537Y-108138494D01*
X162856502Y-108028180D01*
X162877393Y-107959313D01*
X162901866Y-107989134D01*
X163127986Y-108174706D01*
X163385966Y-108312599D01*
X163665889Y-108397513D01*
X163884050Y-108419000D01*
X164029950Y-108419000D01*
X164248111Y-108397513D01*
X164528034Y-108312599D01*
X164786014Y-108174706D01*
X165012134Y-107989134D01*
X165197706Y-107763014D01*
X165335599Y-107505034D01*
X165420513Y-107225111D01*
X165449185Y-106934000D01*
X165420513Y-106642889D01*
X165335599Y-106362966D01*
X165197706Y-106104986D01*
X165012134Y-105878866D01*
X164786014Y-105693294D01*
X164721477Y-105658799D01*
X164838355Y-105589178D01*
X165054588Y-105394269D01*
X165228641Y-105160920D01*
X165353825Y-104898099D01*
X165398476Y-104750890D01*
X165277155Y-104521000D01*
X164084000Y-104521000D01*
X164084000Y-104541000D01*
X163830000Y-104541000D01*
X163830000Y-104521000D01*
X161544000Y-104521000D01*
X161544000Y-104541000D01*
X161290000Y-104541000D01*
X161290000Y-104521000D01*
X160096845Y-104521000D01*
X159976196Y-104749617D01*
X159015579Y-103789001D01*
X160068235Y-103789001D01*
X160020175Y-103889901D01*
X159975524Y-104037110D01*
X160096845Y-104267000D01*
X161290000Y-104267000D01*
X161290000Y-104247000D01*
X161544000Y-104247000D01*
X161544000Y-104267000D01*
X163830000Y-104267000D01*
X163830000Y-104247000D01*
X164084000Y-104247000D01*
X164084000Y-104267000D01*
X165277155Y-104267000D01*
X165398476Y-104037110D01*
X165353825Y-103889901D01*
X165228641Y-103627080D01*
X165054588Y-103393731D01*
X164838355Y-103198822D01*
X164721477Y-103129201D01*
X164786014Y-103094706D01*
X165012134Y-102909134D01*
X165197706Y-102683014D01*
X165335599Y-102425034D01*
X165420513Y-102145111D01*
X165449185Y-101854000D01*
X165420513Y-101562889D01*
X165335599Y-101282966D01*
X165197706Y-101024986D01*
X165012134Y-100798866D01*
X164786014Y-100613294D01*
X164731209Y-100584000D01*
X164786014Y-100554706D01*
X165012134Y-100369134D01*
X165197706Y-100143014D01*
X165335599Y-99885034D01*
X165420513Y-99605111D01*
X165449185Y-99314000D01*
X165420513Y-99022889D01*
X165335599Y-98742966D01*
X165197706Y-98484986D01*
X165012134Y-98258866D01*
X164786014Y-98073294D01*
X164731209Y-98044000D01*
X164786014Y-98014706D01*
X165012134Y-97829134D01*
X165197706Y-97603014D01*
X165335599Y-97345034D01*
X165420513Y-97065111D01*
X165449185Y-96774000D01*
X165420513Y-96482889D01*
X165335599Y-96202966D01*
X165197706Y-95944986D01*
X165012134Y-95718866D01*
X164786014Y-95533294D01*
X164731209Y-95504000D01*
X164786014Y-95474706D01*
X165012134Y-95289134D01*
X165197706Y-95063014D01*
X165335599Y-94805034D01*
X165420513Y-94525111D01*
X165449185Y-94234000D01*
X165420513Y-93942889D01*
X165335599Y-93662966D01*
X165197706Y-93404986D01*
X165012134Y-93178866D01*
X164786014Y-92993294D01*
X164528034Y-92855401D01*
X164248111Y-92770487D01*
X164029950Y-92749000D01*
X163884050Y-92749000D01*
X163665889Y-92770487D01*
X163482409Y-92826145D01*
X163471106Y-92804999D01*
X163416973Y-92703724D01*
X163345798Y-92616998D01*
X163322000Y-92588000D01*
X163293002Y-92564202D01*
X162550778Y-91821978D01*
X162784759Y-91665637D01*
X162870000Y-91580396D01*
X162955241Y-91665637D01*
X163190273Y-91822680D01*
X163451426Y-91930853D01*
X163728665Y-91986000D01*
X164011335Y-91986000D01*
X164288574Y-91930853D01*
X164549727Y-91822680D01*
X164784759Y-91665637D01*
X164951339Y-91499057D01*
X164980498Y-91595180D01*
X165039463Y-91705494D01*
X165118815Y-91802185D01*
X165215506Y-91881537D01*
X165325820Y-91940502D01*
X165445518Y-91976812D01*
X165570000Y-91989072D01*
X167170000Y-91989072D01*
X167294482Y-91976812D01*
X167414180Y-91940502D01*
X167524494Y-91881537D01*
X167621185Y-91802185D01*
X167700537Y-91705494D01*
X167759502Y-91595180D01*
X167795812Y-91475482D01*
X167808072Y-91351000D01*
X167808072Y-89751000D01*
X167795812Y-89626518D01*
X167759502Y-89506820D01*
X167700537Y-89396506D01*
X167621185Y-89299815D01*
X167524494Y-89220463D01*
X167414180Y-89161498D01*
X167294482Y-89125188D01*
X167170000Y-89112928D01*
X165570000Y-89112928D01*
X165445518Y-89125188D01*
X165325820Y-89161498D01*
X165215506Y-89220463D01*
X165118815Y-89299815D01*
X165039463Y-89396506D01*
X164980498Y-89506820D01*
X164951339Y-89602943D01*
X164784759Y-89436363D01*
X164549727Y-89279320D01*
X164288574Y-89171147D01*
X164011335Y-89116000D01*
X163728665Y-89116000D01*
X163451426Y-89171147D01*
X163190273Y-89279320D01*
X162955241Y-89436363D01*
X162870000Y-89521604D01*
X162784759Y-89436363D01*
X162549727Y-89279320D01*
X162288574Y-89171147D01*
X162011335Y-89116000D01*
X161728665Y-89116000D01*
X161451426Y-89171147D01*
X161190273Y-89279320D01*
X160955241Y-89436363D01*
X160755363Y-89636241D01*
X160621308Y-89836869D01*
X160606671Y-89809486D01*
X160362702Y-89737903D01*
X159549605Y-90551000D01*
X159563748Y-90565143D01*
X159384143Y-90744748D01*
X159370000Y-90730605D01*
X159355858Y-90744748D01*
X159176253Y-90565143D01*
X159190395Y-90551000D01*
X158377298Y-89737903D01*
X158133329Y-89809486D01*
X158012429Y-90064996D01*
X157943700Y-90339184D01*
X157929783Y-90621512D01*
X157971213Y-90901130D01*
X157976531Y-90916001D01*
X157270212Y-90916001D01*
X157156214Y-90802003D01*
X157132411Y-90772999D01*
X157016686Y-90678026D01*
X156884657Y-90607454D01*
X156741396Y-90563997D01*
X156629743Y-90553000D01*
X156629732Y-90553000D01*
X156592410Y-90549324D01*
X156555088Y-90553000D01*
X147642711Y-90553000D01*
X147598774Y-90509063D01*
X147429256Y-90395795D01*
X147240898Y-90317774D01*
X147040939Y-90278000D01*
X146837061Y-90278000D01*
X146637102Y-90317774D01*
X146448744Y-90395795D01*
X146279226Y-90509063D01*
X146135063Y-90653226D01*
X146021795Y-90822744D01*
X145943774Y-91011102D01*
X145904000Y-91211061D01*
X145904000Y-91414939D01*
X145943774Y-91614898D01*
X146021795Y-91803256D01*
X146135063Y-91972774D01*
X146279226Y-92116937D01*
X146448744Y-92230205D01*
X146637102Y-92308226D01*
X146837061Y-92348000D01*
X147040939Y-92348000D01*
X147240898Y-92308226D01*
X147429256Y-92230205D01*
X147598774Y-92116937D01*
X147642711Y-92073000D01*
X154032000Y-92073000D01*
X154032000Y-92176939D01*
X154071774Y-92376898D01*
X154149795Y-92565256D01*
X154263063Y-92734774D01*
X154407226Y-92878937D01*
X154576744Y-92992205D01*
X154765102Y-93070226D01*
X154965061Y-93110000D01*
X155168939Y-93110000D01*
X155368898Y-93070226D01*
X155557256Y-92992205D01*
X155726774Y-92878937D01*
X155770711Y-92835000D01*
X156403199Y-92835000D01*
X159976203Y-96408005D01*
X159953487Y-96482889D01*
X159924815Y-96774000D01*
X159953487Y-97065111D01*
X160038401Y-97345034D01*
X160176294Y-97603014D01*
X160361866Y-97829134D01*
X160587986Y-98014706D01*
X160642791Y-98044000D01*
X160587986Y-98073294D01*
X160361866Y-98258866D01*
X160176294Y-98484986D01*
X160038401Y-98742966D01*
X159953487Y-99022889D01*
X159924815Y-99314000D01*
X159953487Y-99605111D01*
X160038401Y-99885034D01*
X160176294Y-100143014D01*
X160361866Y-100369134D01*
X160587986Y-100554706D01*
X160642791Y-100584000D01*
X160587986Y-100613294D01*
X160361866Y-100798866D01*
X160176294Y-101024986D01*
X160139405Y-101094000D01*
X154041804Y-101094000D01*
X153368220Y-100420416D01*
X153440774Y-100371937D01*
X153584937Y-100227774D01*
X153698205Y-100058256D01*
X153776226Y-99869898D01*
X153816000Y-99669939D01*
X153816000Y-99466061D01*
X153776226Y-99266102D01*
X153698205Y-99077744D01*
X153584937Y-98908226D01*
X153541000Y-98864289D01*
X153541000Y-98366711D01*
X153584937Y-98322774D01*
X153698205Y-98153256D01*
X153776226Y-97964898D01*
X153816000Y-97764939D01*
X153816000Y-97561061D01*
X153776226Y-97361102D01*
X153698205Y-97172744D01*
X153627256Y-97066561D01*
X153652256Y-97056205D01*
X153821774Y-96942937D01*
X153865711Y-96899000D01*
X156071178Y-96899000D01*
X156108500Y-96902676D01*
X156145822Y-96899000D01*
X156145833Y-96899000D01*
X156257486Y-96888003D01*
X156400747Y-96844546D01*
X156532776Y-96773974D01*
X156648501Y-96679001D01*
X156672303Y-96649998D01*
X156884801Y-96437500D01*
X156946939Y-96437500D01*
X157146898Y-96397726D01*
X157335256Y-96319705D01*
X157504774Y-96206437D01*
X157648937Y-96062274D01*
X157762205Y-95892756D01*
X157840226Y-95704398D01*
X157880000Y-95504439D01*
X157880000Y-95300561D01*
X157840226Y-95100602D01*
X157762205Y-94912244D01*
X157648937Y-94742726D01*
X157504774Y-94598563D01*
X157335256Y-94485295D01*
X157146898Y-94407274D01*
X156946939Y-94367500D01*
X156743061Y-94367500D01*
X156543102Y-94407274D01*
X156354744Y-94485295D01*
X156185226Y-94598563D01*
X156041063Y-94742726D01*
X155927795Y-94912244D01*
X155849774Y-95100602D01*
X155810000Y-95300561D01*
X155810000Y-95362699D01*
X155793699Y-95379000D01*
X153865711Y-95379000D01*
X153821774Y-95335063D01*
X153652256Y-95221795D01*
X153463898Y-95143774D01*
X153263939Y-95104000D01*
X153060061Y-95104000D01*
X152860102Y-95143774D01*
X152671744Y-95221795D01*
X152502226Y-95335063D01*
X152358063Y-95479226D01*
X152244795Y-95648744D01*
X152166774Y-95837102D01*
X152127000Y-96037061D01*
X152127000Y-96240939D01*
X152166774Y-96440898D01*
X152244795Y-96629256D01*
X152315744Y-96735439D01*
X152290744Y-96745795D01*
X152121226Y-96859063D01*
X151977063Y-97003226D01*
X151863795Y-97172744D01*
X151785774Y-97361102D01*
X151746000Y-97561061D01*
X151746000Y-97764939D01*
X151785774Y-97964898D01*
X151863795Y-98153256D01*
X151977063Y-98322774D01*
X152021001Y-98366712D01*
X152021000Y-98864289D01*
X151977063Y-98908226D01*
X151928584Y-98980780D01*
X145781806Y-92834003D01*
X145758003Y-92804999D01*
X145642278Y-92710026D01*
X145510249Y-92639454D01*
X145366988Y-92595997D01*
X145255335Y-92585000D01*
X145255324Y-92585000D01*
X145218002Y-92581324D01*
X145180680Y-92585000D01*
X135958711Y-92585000D01*
X135914774Y-92541063D01*
X135745256Y-92427795D01*
X135556898Y-92349774D01*
X135356939Y-92310000D01*
X135153061Y-92310000D01*
X134953102Y-92349774D01*
X134764744Y-92427795D01*
X134595226Y-92541063D01*
X134451063Y-92685226D01*
X134337795Y-92854744D01*
X134259774Y-93043102D01*
X134220000Y-93243061D01*
X134220000Y-93446939D01*
X134259774Y-93646898D01*
X134337795Y-93835256D01*
X134451063Y-94004774D01*
X134595226Y-94148937D01*
X134764744Y-94262205D01*
X134953102Y-94340226D01*
X135153061Y-94380000D01*
X135356939Y-94380000D01*
X135556898Y-94340226D01*
X135745256Y-94262205D01*
X135914774Y-94148937D01*
X135958711Y-94105000D01*
X144903201Y-94105000D01*
X148934202Y-98136001D01*
X137687000Y-98136001D01*
X137687000Y-98069061D01*
X137647226Y-97869102D01*
X137569205Y-97680744D01*
X137455937Y-97511226D01*
X137412000Y-97467289D01*
X137412000Y-97344822D01*
X137415676Y-97307499D01*
X137412000Y-97270176D01*
X137412000Y-97270167D01*
X137401003Y-97158514D01*
X137357546Y-97015253D01*
X137330686Y-96965002D01*
X137286974Y-96883223D01*
X137215799Y-96796497D01*
X137192001Y-96767499D01*
X137163003Y-96743701D01*
X136544000Y-96124699D01*
X136544000Y-96062561D01*
X136504226Y-95862602D01*
X136426205Y-95674244D01*
X136312937Y-95504726D01*
X136168774Y-95360563D01*
X135999256Y-95247295D01*
X135810898Y-95169274D01*
X135610939Y-95129500D01*
X135407061Y-95129500D01*
X135207102Y-95169274D01*
X135018744Y-95247295D01*
X134849226Y-95360563D01*
X134705063Y-95504726D01*
X134591795Y-95674244D01*
X134513774Y-95862602D01*
X134474000Y-96062561D01*
X134474000Y-96266439D01*
X134513774Y-96466398D01*
X134591795Y-96654756D01*
X134705063Y-96824274D01*
X134849226Y-96968437D01*
X135018744Y-97081705D01*
X135207102Y-97159726D01*
X135407061Y-97199500D01*
X135469199Y-97199500D01*
X135821171Y-97551473D01*
X135734795Y-97680744D01*
X135656774Y-97869102D01*
X135617000Y-98069061D01*
X135617000Y-98136001D01*
X133508712Y-98136001D01*
X133374774Y-98002063D01*
X133205256Y-97888795D01*
X133016898Y-97810774D01*
X132816939Y-97771000D01*
X132613061Y-97771000D01*
X132413102Y-97810774D01*
X132224744Y-97888795D01*
X132055226Y-98002063D01*
X131911063Y-98146226D01*
X131797795Y-98315744D01*
X131719774Y-98504102D01*
X131680000Y-98704061D01*
X131680000Y-98907939D01*
X131719774Y-99107898D01*
X131797795Y-99296256D01*
X131911063Y-99465774D01*
X132055226Y-99609937D01*
X132224744Y-99723205D01*
X132413102Y-99801226D01*
X132613061Y-99841000D01*
X132816939Y-99841000D01*
X133016898Y-99801226D01*
X133205256Y-99723205D01*
X133305834Y-99656001D01*
X149285702Y-99656001D01*
X150016245Y-100386544D01*
X149945063Y-100457726D01*
X149859353Y-100586000D01*
X145356711Y-100586000D01*
X145312774Y-100542063D01*
X145143256Y-100428795D01*
X144954898Y-100350774D01*
X144754939Y-100311000D01*
X144551061Y-100311000D01*
X144351102Y-100350774D01*
X144162744Y-100428795D01*
X143993226Y-100542063D01*
X143849063Y-100686226D01*
X143735795Y-100855744D01*
X143657774Y-101044102D01*
X143618000Y-101244061D01*
X143618000Y-101447939D01*
X143657774Y-101647898D01*
X143735795Y-101836256D01*
X143849063Y-102005774D01*
X143993226Y-102149937D01*
X144162744Y-102263205D01*
X144176737Y-102269001D01*
X133442803Y-102269001D01*
X132226000Y-101052199D01*
X132226000Y-100990061D01*
X132186226Y-100790102D01*
X132108205Y-100601744D01*
X131994937Y-100432226D01*
X131850774Y-100288063D01*
X131681256Y-100174795D01*
X131492898Y-100096774D01*
X131292939Y-100057000D01*
X131089061Y-100057000D01*
X130889102Y-100096774D01*
X130700744Y-100174795D01*
X130531226Y-100288063D01*
X130387063Y-100432226D01*
X130273795Y-100601744D01*
X130195774Y-100790102D01*
X130156000Y-100990061D01*
X130156000Y-101193939D01*
X130195774Y-101393898D01*
X130273795Y-101582256D01*
X130387063Y-101751774D01*
X130531226Y-101895937D01*
X130700744Y-102009205D01*
X130889102Y-102087226D01*
X131089061Y-102127000D01*
X131151199Y-102127000D01*
X131771198Y-102747000D01*
X129261550Y-102747000D01*
X129218081Y-102742719D01*
X129174612Y-102747000D01*
X129174604Y-102747000D01*
X129044591Y-102759805D01*
X128877768Y-102810411D01*
X128747547Y-102880015D01*
X128724022Y-102892589D01*
X128623034Y-102975468D01*
X128623032Y-102975470D01*
X128589264Y-103003183D01*
X128561551Y-103036951D01*
X127265948Y-104332555D01*
X127067014Y-104169294D01*
X127002477Y-104134799D01*
X127119355Y-104065178D01*
X127335588Y-103870269D01*
X127509641Y-103636920D01*
X127634825Y-103374099D01*
X127679476Y-103226890D01*
X127558155Y-102997000D01*
X126365000Y-102997000D01*
X126365000Y-103017000D01*
X126111000Y-103017000D01*
X126111000Y-102997000D01*
X123825000Y-102997000D01*
X123825000Y-103017000D01*
X123571000Y-103017000D01*
X123571000Y-102997000D01*
X123551000Y-102997000D01*
X123551000Y-102743000D01*
X123571000Y-102743000D01*
X123571000Y-102723000D01*
X123825000Y-102723000D01*
X123825000Y-102743000D01*
X126111000Y-102743000D01*
X126111000Y-102723000D01*
X126365000Y-102723000D01*
X126365000Y-102743000D01*
X127558155Y-102743000D01*
X127679476Y-102513110D01*
X127634825Y-102365901D01*
X127509641Y-102103080D01*
X127388041Y-101940053D01*
X127398744Y-101947205D01*
X127587102Y-102025226D01*
X127787061Y-102065000D01*
X127990939Y-102065000D01*
X128190898Y-102025226D01*
X128379256Y-101947205D01*
X128548774Y-101833937D01*
X128692937Y-101689774D01*
X128806205Y-101520256D01*
X128884226Y-101331898D01*
X128924000Y-101131939D01*
X128924000Y-100928061D01*
X128884226Y-100728102D01*
X128806205Y-100539744D01*
X128692937Y-100370226D01*
X128649000Y-100326289D01*
X128649000Y-97739320D01*
X128652676Y-97701997D01*
X128649000Y-97664674D01*
X128649000Y-97664665D01*
X128638003Y-97553012D01*
X128594546Y-97409751D01*
X128523974Y-97277722D01*
X128481692Y-97226201D01*
X128452799Y-97190994D01*
X128452795Y-97190990D01*
X128429001Y-97161997D01*
X128400009Y-97138204D01*
X127416552Y-96154749D01*
X127478706Y-96079014D01*
X127616599Y-95821034D01*
X127701513Y-95541111D01*
X127730185Y-95250000D01*
X127701513Y-94958889D01*
X127616599Y-94678966D01*
X127478706Y-94420986D01*
X127293134Y-94194866D01*
X127067014Y-94009294D01*
X127012209Y-93980000D01*
X127067014Y-93950706D01*
X127293134Y-93765134D01*
X127478706Y-93539014D01*
X127616599Y-93281034D01*
X127701513Y-93001111D01*
X127730185Y-92710000D01*
X127701513Y-92418889D01*
X127616599Y-92138966D01*
X127478706Y-91880986D01*
X127293134Y-91654866D01*
X127157681Y-91543702D01*
X133410903Y-91543702D01*
X133482486Y-91787671D01*
X133737996Y-91908571D01*
X134012184Y-91977300D01*
X134294512Y-91991217D01*
X134574130Y-91949787D01*
X134840292Y-91854603D01*
X134965514Y-91787671D01*
X135037097Y-91543702D01*
X134224000Y-90730605D01*
X133410903Y-91543702D01*
X127157681Y-91543702D01*
X127067014Y-91469294D01*
X127012209Y-91440000D01*
X127067014Y-91410706D01*
X127293134Y-91225134D01*
X127478706Y-90999014D01*
X127616599Y-90741034D01*
X127652855Y-90621512D01*
X132783783Y-90621512D01*
X132825213Y-90901130D01*
X132920397Y-91167292D01*
X132987329Y-91292514D01*
X133231298Y-91364097D01*
X134044395Y-90551000D01*
X134403605Y-90551000D01*
X135216702Y-91364097D01*
X135460671Y-91292514D01*
X135474324Y-91263659D01*
X135609363Y-91465759D01*
X135809241Y-91665637D01*
X136044273Y-91822680D01*
X136305426Y-91930853D01*
X136582665Y-91986000D01*
X136865335Y-91986000D01*
X137142574Y-91930853D01*
X137403727Y-91822680D01*
X137638759Y-91665637D01*
X137724000Y-91580396D01*
X137809241Y-91665637D01*
X138044273Y-91822680D01*
X138305426Y-91930853D01*
X138582665Y-91986000D01*
X138865335Y-91986000D01*
X139142574Y-91930853D01*
X139403727Y-91822680D01*
X139638759Y-91665637D01*
X139805339Y-91499057D01*
X139834498Y-91595180D01*
X139893463Y-91705494D01*
X139972815Y-91802185D01*
X140069506Y-91881537D01*
X140179820Y-91940502D01*
X140299518Y-91976812D01*
X140424000Y-91989072D01*
X142024000Y-91989072D01*
X142148482Y-91976812D01*
X142268180Y-91940502D01*
X142378494Y-91881537D01*
X142475185Y-91802185D01*
X142554537Y-91705494D01*
X142613502Y-91595180D01*
X142649812Y-91475482D01*
X142662072Y-91351000D01*
X142662072Y-89751000D01*
X142649812Y-89626518D01*
X142613502Y-89506820D01*
X142554537Y-89396506D01*
X142502135Y-89332653D01*
X142981952Y-89332653D01*
X143137962Y-89648214D01*
X143512745Y-89839020D01*
X143917551Y-89953044D01*
X144336824Y-89985902D01*
X144754451Y-89936334D01*
X145154383Y-89806243D01*
X145450038Y-89648214D01*
X145606048Y-89332653D01*
X154987952Y-89332653D01*
X155143962Y-89648214D01*
X155518745Y-89839020D01*
X155923551Y-89953044D01*
X156342824Y-89985902D01*
X156760451Y-89936334D01*
X157160383Y-89806243D01*
X157456038Y-89648214D01*
X157500491Y-89558298D01*
X158556903Y-89558298D01*
X159370000Y-90371395D01*
X160183097Y-89558298D01*
X160111514Y-89314329D01*
X159856004Y-89193429D01*
X159581816Y-89124700D01*
X159299488Y-89110783D01*
X159019870Y-89152213D01*
X158753708Y-89247397D01*
X158628486Y-89314329D01*
X158556903Y-89558298D01*
X157500491Y-89558298D01*
X157612048Y-89332653D01*
X156300000Y-88020605D01*
X154987952Y-89332653D01*
X145606048Y-89332653D01*
X144294000Y-88020605D01*
X142981952Y-89332653D01*
X142502135Y-89332653D01*
X142475185Y-89299815D01*
X142378494Y-89220463D01*
X142268180Y-89161498D01*
X142148482Y-89125188D01*
X142024000Y-89112928D01*
X140424000Y-89112928D01*
X140299518Y-89125188D01*
X140179820Y-89161498D01*
X140069506Y-89220463D01*
X139972815Y-89299815D01*
X139893463Y-89396506D01*
X139834498Y-89506820D01*
X139805339Y-89602943D01*
X139638759Y-89436363D01*
X139403727Y-89279320D01*
X139142574Y-89171147D01*
X138865335Y-89116000D01*
X138582665Y-89116000D01*
X138305426Y-89171147D01*
X138044273Y-89279320D01*
X137809241Y-89436363D01*
X137724000Y-89521604D01*
X137638759Y-89436363D01*
X137403727Y-89279320D01*
X137142574Y-89171147D01*
X136865335Y-89116000D01*
X136582665Y-89116000D01*
X136305426Y-89171147D01*
X136044273Y-89279320D01*
X135809241Y-89436363D01*
X135609363Y-89636241D01*
X135475308Y-89836869D01*
X135460671Y-89809486D01*
X135216702Y-89737903D01*
X134403605Y-90551000D01*
X134044395Y-90551000D01*
X133231298Y-89737903D01*
X132987329Y-89809486D01*
X132866429Y-90064996D01*
X132797700Y-90339184D01*
X132783783Y-90621512D01*
X127652855Y-90621512D01*
X127701513Y-90461111D01*
X127730185Y-90170000D01*
X127701513Y-89878889D01*
X127616599Y-89598966D01*
X127478706Y-89340986D01*
X127471868Y-89332653D01*
X129841952Y-89332653D01*
X129997962Y-89648214D01*
X130372745Y-89839020D01*
X130777551Y-89953044D01*
X131196824Y-89985902D01*
X131614451Y-89936334D01*
X132014383Y-89806243D01*
X132310038Y-89648214D01*
X132354491Y-89558298D01*
X133410903Y-89558298D01*
X134224000Y-90371395D01*
X135037097Y-89558298D01*
X134965514Y-89314329D01*
X134710004Y-89193429D01*
X134435816Y-89124700D01*
X134153488Y-89110783D01*
X133873870Y-89152213D01*
X133607708Y-89247397D01*
X133482486Y-89314329D01*
X133410903Y-89558298D01*
X132354491Y-89558298D01*
X132466048Y-89332653D01*
X131154000Y-88020605D01*
X129841952Y-89332653D01*
X127471868Y-89332653D01*
X127293134Y-89114866D01*
X127067014Y-88929294D01*
X127012209Y-88900000D01*
X127067014Y-88870706D01*
X127293134Y-88685134D01*
X127478706Y-88459014D01*
X127616599Y-88201034D01*
X127701513Y-87921111D01*
X127705185Y-87883824D01*
X129009098Y-87883824D01*
X129058666Y-88301451D01*
X129188757Y-88701383D01*
X129346786Y-88997038D01*
X129662347Y-89153048D01*
X130974395Y-87841000D01*
X131333605Y-87841000D01*
X132645653Y-89153048D01*
X132961214Y-88997038D01*
X133152020Y-88622255D01*
X133266044Y-88217449D01*
X133298902Y-87798176D01*
X133249334Y-87380549D01*
X133119243Y-86980617D01*
X132961214Y-86684962D01*
X132645653Y-86528952D01*
X131333605Y-87841000D01*
X130974395Y-87841000D01*
X129662347Y-86528952D01*
X129346786Y-86684962D01*
X129155980Y-87059745D01*
X129041956Y-87464551D01*
X129009098Y-87883824D01*
X127705185Y-87883824D01*
X127730185Y-87630000D01*
X127701513Y-87338889D01*
X127616599Y-87058966D01*
X127478706Y-86800986D01*
X127293134Y-86574866D01*
X127067014Y-86389294D01*
X127012209Y-86360000D01*
X127032139Y-86349347D01*
X129841952Y-86349347D01*
X131154000Y-87661395D01*
X132466048Y-86349347D01*
X132310038Y-86033786D01*
X131935255Y-85842980D01*
X131530449Y-85728956D01*
X131111176Y-85696098D01*
X130693549Y-85745666D01*
X130293617Y-85875757D01*
X129997962Y-86033786D01*
X129841952Y-86349347D01*
X127032139Y-86349347D01*
X127067014Y-86330706D01*
X127293134Y-86145134D01*
X127478706Y-85919014D01*
X127616599Y-85661034D01*
X127701513Y-85381111D01*
X127730185Y-85090000D01*
X127701513Y-84798889D01*
X127616599Y-84518966D01*
X127478706Y-84260986D01*
X127293134Y-84034866D01*
X127067014Y-83849294D01*
X127002477Y-83814799D01*
X127119355Y-83745178D01*
X127335588Y-83550269D01*
X127509641Y-83316920D01*
X127634825Y-83054099D01*
X127679476Y-82906890D01*
X127558155Y-82677000D01*
X126365000Y-82677000D01*
X126365000Y-82697000D01*
X126111000Y-82697000D01*
X126111000Y-82677000D01*
X123825000Y-82677000D01*
X123825000Y-82697000D01*
X123571000Y-82697000D01*
X123571000Y-82677000D01*
X123551000Y-82677000D01*
X123551000Y-82423000D01*
X123571000Y-82423000D01*
X123571000Y-82403000D01*
X123825000Y-82403000D01*
X123825000Y-82423000D01*
X126111000Y-82423000D01*
X126111000Y-82403000D01*
X126365000Y-82403000D01*
X126365000Y-82423000D01*
X127558155Y-82423000D01*
X127679476Y-82193110D01*
X127661850Y-82134999D01*
X144642924Y-82134999D01*
X147024863Y-84516939D01*
X147024863Y-84579076D01*
X147064637Y-84779035D01*
X147089061Y-84838000D01*
X143578711Y-84838000D01*
X143534774Y-84794063D01*
X143365256Y-84680795D01*
X143176898Y-84602774D01*
X142976939Y-84563000D01*
X142773061Y-84563000D01*
X142573102Y-84602774D01*
X142384744Y-84680795D01*
X142215226Y-84794063D01*
X142071063Y-84938226D01*
X141957795Y-85107744D01*
X141879774Y-85296102D01*
X141840000Y-85496061D01*
X141840000Y-85699939D01*
X141879774Y-85899898D01*
X141957795Y-86088256D01*
X142071063Y-86257774D01*
X142215226Y-86401937D01*
X142384744Y-86515205D01*
X142573102Y-86593226D01*
X142643868Y-86607302D01*
X142486786Y-86684962D01*
X142295980Y-87059745D01*
X142181956Y-87464551D01*
X142149098Y-87883824D01*
X142198666Y-88301451D01*
X142328757Y-88701383D01*
X142486786Y-88997038D01*
X142802347Y-89153048D01*
X144114395Y-87841000D01*
X144100253Y-87826858D01*
X144279858Y-87647253D01*
X144294000Y-87661395D01*
X144308143Y-87647253D01*
X144487748Y-87826858D01*
X144473605Y-87841000D01*
X145785653Y-89153048D01*
X146101214Y-88997038D01*
X146292020Y-88622255D01*
X146406044Y-88217449D01*
X146438902Y-87798176D01*
X146389334Y-87380549D01*
X146259243Y-86980617D01*
X146101214Y-86684962D01*
X145785655Y-86528953D01*
X145900347Y-86414261D01*
X145844086Y-86358000D01*
X154749914Y-86358000D01*
X154693653Y-86414261D01*
X154808345Y-86528953D01*
X154492786Y-86684962D01*
X154301980Y-87059745D01*
X154187956Y-87464551D01*
X154155098Y-87883824D01*
X154204666Y-88301451D01*
X154334757Y-88701383D01*
X154492786Y-88997038D01*
X154808347Y-89153048D01*
X156120395Y-87841000D01*
X156106253Y-87826858D01*
X156285858Y-87647253D01*
X156300000Y-87661395D01*
X156314143Y-87647253D01*
X156493748Y-87826858D01*
X156479605Y-87841000D01*
X157791653Y-89153048D01*
X158107214Y-88997038D01*
X158298020Y-88622255D01*
X158412044Y-88217449D01*
X158444902Y-87798176D01*
X158395334Y-87380549D01*
X158265243Y-86980617D01*
X158107214Y-86684962D01*
X157791655Y-86528953D01*
X157906347Y-86414261D01*
X157850086Y-86358000D01*
X167889914Y-86358000D01*
X167833653Y-86414261D01*
X167948345Y-86528953D01*
X167632786Y-86684962D01*
X167441980Y-87059745D01*
X167327956Y-87464551D01*
X167295098Y-87883824D01*
X167344666Y-88301451D01*
X167474757Y-88701383D01*
X167632786Y-88997038D01*
X167948347Y-89153048D01*
X169260395Y-87841000D01*
X169246253Y-87826858D01*
X169425858Y-87647253D01*
X169440000Y-87661395D01*
X169454143Y-87647253D01*
X169633748Y-87826858D01*
X169619605Y-87841000D01*
X169633748Y-87855143D01*
X169454143Y-88034748D01*
X169440000Y-88020605D01*
X168127952Y-89332653D01*
X168283962Y-89648214D01*
X168658745Y-89839020D01*
X169063551Y-89953044D01*
X169482824Y-89985902D01*
X169900451Y-89936334D01*
X170300383Y-89806243D01*
X170505001Y-89696874D01*
X170505002Y-96890287D01*
X170392063Y-97003226D01*
X170278795Y-97172744D01*
X170200774Y-97361102D01*
X170161000Y-97561061D01*
X170161000Y-97764939D01*
X170200774Y-97964898D01*
X170278795Y-98153256D01*
X170392063Y-98322774D01*
X170536226Y-98466937D01*
X170705744Y-98580205D01*
X170894102Y-98658226D01*
X171094061Y-98698000D01*
X171297939Y-98698000D01*
X171497898Y-98658226D01*
X171686256Y-98580205D01*
X171855774Y-98466937D01*
X171999937Y-98322774D01*
X172113205Y-98153256D01*
X172191226Y-97964898D01*
X172231000Y-97764939D01*
X172231000Y-97561061D01*
X172191226Y-97361102D01*
X172113205Y-97172744D01*
X172025001Y-97040737D01*
X172025001Y-87002332D01*
X172028678Y-86964999D01*
X172014004Y-86816013D01*
X171970547Y-86672752D01*
X171899975Y-86540723D01*
X171828800Y-86453996D01*
X171805002Y-86424998D01*
X171776005Y-86401201D01*
X170461806Y-85087003D01*
X170438003Y-85057999D01*
X170322278Y-84963026D01*
X170190249Y-84892454D01*
X170046988Y-84848997D01*
X169935335Y-84838000D01*
X169935324Y-84838000D01*
X169898002Y-84834324D01*
X169860680Y-84838000D01*
X149030665Y-84838000D01*
X149055089Y-84779035D01*
X149094863Y-84579076D01*
X149094863Y-84375198D01*
X149055089Y-84175239D01*
X148977068Y-83986881D01*
X148863800Y-83817363D01*
X148719637Y-83673200D01*
X148550119Y-83559932D01*
X148361761Y-83481911D01*
X148161802Y-83442137D01*
X148099665Y-83442137D01*
X145521529Y-80864002D01*
X145497726Y-80834998D01*
X145382001Y-80740025D01*
X145249972Y-80669453D01*
X145106711Y-80625996D01*
X144995058Y-80614999D01*
X144995047Y-80614999D01*
X144957725Y-80611323D01*
X144920403Y-80614999D01*
X127598444Y-80614999D01*
X127616599Y-80581034D01*
X127701513Y-80301111D01*
X127730185Y-80010000D01*
X127701513Y-79718889D01*
X127616599Y-79438966D01*
X127478706Y-79180986D01*
X127293134Y-78954866D01*
X127216532Y-78892000D01*
X173584001Y-78892000D01*
X173584000Y-109068000D01*
X173584000Y-109068000D01*
G37*
X173584000Y-109068000D02*
X146907596Y-109068000D01*
X146986898Y-109052226D01*
X147175256Y-108974205D01*
X147344774Y-108860937D01*
X147488937Y-108716774D01*
X147602205Y-108547256D01*
X147680226Y-108358898D01*
X147720000Y-108158939D01*
X147720000Y-107955061D01*
X147680226Y-107755102D01*
X147602205Y-107566744D01*
X147488937Y-107397226D01*
X147344774Y-107253063D01*
X147175256Y-107139795D01*
X146986898Y-107061774D01*
X146786939Y-107022000D01*
X146583061Y-107022000D01*
X146383102Y-107061774D01*
X146194744Y-107139795D01*
X146025226Y-107253063D01*
X145881063Y-107397226D01*
X145767795Y-107566744D01*
X145689774Y-107755102D01*
X145650000Y-107955061D01*
X145650000Y-108017198D01*
X145207199Y-108460000D01*
X138367348Y-108460000D01*
X138409226Y-108358898D01*
X138449000Y-108158939D01*
X138449000Y-107955061D01*
X138409226Y-107755102D01*
X138331205Y-107566744D01*
X138217937Y-107397226D01*
X138073774Y-107253063D01*
X137904256Y-107139795D01*
X137715898Y-107061774D01*
X137515939Y-107022000D01*
X137453802Y-107022000D01*
X136505805Y-106074004D01*
X136482002Y-106045000D01*
X136366277Y-105950027D01*
X136234248Y-105879455D01*
X136090987Y-105835998D01*
X135979334Y-105825001D01*
X135979323Y-105825001D01*
X135942001Y-105821325D01*
X135904679Y-105825001D01*
X128276658Y-105825001D01*
X129584660Y-104517000D01*
X137141000Y-104517000D01*
X137141000Y-104583939D01*
X137180774Y-104783898D01*
X137258795Y-104972256D01*
X137372063Y-105141774D01*
X137516226Y-105285937D01*
X137685744Y-105399205D01*
X137874102Y-105477226D01*
X138074061Y-105517000D01*
X138277939Y-105517000D01*
X138477898Y-105477226D01*
X138666256Y-105399205D01*
X138835774Y-105285937D01*
X138879711Y-105242000D01*
X139453199Y-105242000D01*
X139808000Y-105596802D01*
X139808000Y-105658939D01*
X139847774Y-105858898D01*
X139925795Y-106047256D01*
X140039063Y-106216774D01*
X140183226Y-106360937D01*
X140352744Y-106474205D01*
X140541102Y-106552226D01*
X140741061Y-106592000D01*
X140944939Y-106592000D01*
X141144898Y-106552226D01*
X141333256Y-106474205D01*
X141502774Y-106360937D01*
X141646937Y-106216774D01*
X141760205Y-106047256D01*
X141838226Y-105858898D01*
X141878000Y-105658939D01*
X141878000Y-105455061D01*
X141838226Y-105255102D01*
X141760205Y-105066744D01*
X141646937Y-104897226D01*
X141502774Y-104753063D01*
X141333256Y-104639795D01*
X141144898Y-104561774D01*
X140944939Y-104522000D01*
X140882802Y-104522000D01*
X140877802Y-104517000D01*
X143618000Y-104517000D01*
X143618000Y-104622939D01*
X143657774Y-104822898D01*
X143735795Y-105011256D01*
X143849063Y-105180774D01*
X143993226Y-105324937D01*
X144162744Y-105438205D01*
X144351102Y-105516226D01*
X144551061Y-105556000D01*
X144613199Y-105556000D01*
X145105201Y-106048003D01*
X145128999Y-106077001D01*
X145157997Y-106100799D01*
X145244723Y-106171974D01*
X145356252Y-106231588D01*
X145376753Y-106242546D01*
X145520014Y-106286003D01*
X145631667Y-106297000D01*
X145631677Y-106297000D01*
X145669000Y-106300676D01*
X145706322Y-106297000D01*
X145981289Y-106297000D01*
X146025226Y-106340937D01*
X146194744Y-106454205D01*
X146383102Y-106532226D01*
X146583061Y-106572000D01*
X146786939Y-106572000D01*
X146986898Y-106532226D01*
X147175256Y-106454205D01*
X147344774Y-106340937D01*
X147488937Y-106196774D01*
X147602205Y-106027256D01*
X147680226Y-105838898D01*
X147720000Y-105638939D01*
X147720000Y-105435061D01*
X147680226Y-105235102D01*
X147602205Y-105046744D01*
X147488937Y-104877226D01*
X147344774Y-104733063D01*
X147175256Y-104619795D01*
X146986898Y-104541774D01*
X146862350Y-104517000D01*
X157240422Y-104517000D01*
X158754000Y-106030579D01*
X158754000Y-106462531D01*
X158749719Y-106506000D01*
X158754000Y-106549469D01*
X158754000Y-106549477D01*
X158758355Y-106593687D01*
X158766805Y-106679490D01*
X158817412Y-106846313D01*
X158899590Y-107000059D01*
X158982468Y-107101046D01*
X158982471Y-107101049D01*
X159010184Y-107134817D01*
X159043952Y-107162530D01*
X159410466Y-107529044D01*
X159438183Y-107562817D01*
X159572941Y-107673411D01*
X159726687Y-107755589D01*
X159893510Y-107806195D01*
X159931482Y-107809935D01*
X159941188Y-107908482D01*
X159977498Y-108028180D01*
X160036463Y-108138494D01*
X160115815Y-108235185D01*
X160212506Y-108314537D01*
X160322820Y-108373502D01*
X160442518Y-108409812D01*
X160567000Y-108422072D01*
X162267000Y-108422072D01*
X162391482Y-108409812D01*
X162511180Y-108373502D01*
X162621494Y-108314537D01*
X162718185Y-108235185D01*
X162797537Y-108138494D01*
X162856502Y-108028180D01*
X162877393Y-107959313D01*
X162901866Y-107989134D01*
X163127986Y-108174706D01*
X163385966Y-108312599D01*
X163665889Y-108397513D01*
X163884050Y-108419000D01*
X164029950Y-108419000D01*
X164248111Y-108397513D01*
X164528034Y-108312599D01*
X164786014Y-108174706D01*
X165012134Y-107989134D01*
X165197706Y-107763014D01*
X165335599Y-107505034D01*
X165420513Y-107225111D01*
X165449185Y-106934000D01*
X165420513Y-106642889D01*
X165335599Y-106362966D01*
X165197706Y-106104986D01*
X165012134Y-105878866D01*
X164786014Y-105693294D01*
X164721477Y-105658799D01*
X164838355Y-105589178D01*
X165054588Y-105394269D01*
X165228641Y-105160920D01*
X165353825Y-104898099D01*
X165398476Y-104750890D01*
X165277155Y-104521000D01*
X164084000Y-104521000D01*
X164084000Y-104541000D01*
X163830000Y-104541000D01*
X163830000Y-104521000D01*
X161544000Y-104521000D01*
X161544000Y-104541000D01*
X161290000Y-104541000D01*
X161290000Y-104521000D01*
X160096845Y-104521000D01*
X159976196Y-104749617D01*
X159015579Y-103789001D01*
X160068235Y-103789001D01*
X160020175Y-103889901D01*
X159975524Y-104037110D01*
X160096845Y-104267000D01*
X161290000Y-104267000D01*
X161290000Y-104247000D01*
X161544000Y-104247000D01*
X161544000Y-104267000D01*
X163830000Y-104267000D01*
X163830000Y-104247000D01*
X164084000Y-104247000D01*
X164084000Y-104267000D01*
X165277155Y-104267000D01*
X165398476Y-104037110D01*
X165353825Y-103889901D01*
X165228641Y-103627080D01*
X165054588Y-103393731D01*
X164838355Y-103198822D01*
X164721477Y-103129201D01*
X164786014Y-103094706D01*
X165012134Y-102909134D01*
X165197706Y-102683014D01*
X165335599Y-102425034D01*
X165420513Y-102145111D01*
X165449185Y-101854000D01*
X165420513Y-101562889D01*
X165335599Y-101282966D01*
X165197706Y-101024986D01*
X165012134Y-100798866D01*
X164786014Y-100613294D01*
X164731209Y-100584000D01*
X164786014Y-100554706D01*
X165012134Y-100369134D01*
X165197706Y-100143014D01*
X165335599Y-99885034D01*
X165420513Y-99605111D01*
X165449185Y-99314000D01*
X165420513Y-99022889D01*
X165335599Y-98742966D01*
X165197706Y-98484986D01*
X165012134Y-98258866D01*
X164786014Y-98073294D01*
X164731209Y-98044000D01*
X164786014Y-98014706D01*
X165012134Y-97829134D01*
X165197706Y-97603014D01*
X165335599Y-97345034D01*
X165420513Y-97065111D01*
X165449185Y-96774000D01*
X165420513Y-96482889D01*
X165335599Y-96202966D01*
X165197706Y-95944986D01*
X165012134Y-95718866D01*
X164786014Y-95533294D01*
X164731209Y-95504000D01*
X164786014Y-95474706D01*
X165012134Y-95289134D01*
X165197706Y-95063014D01*
X165335599Y-94805034D01*
X165420513Y-94525111D01*
X165449185Y-94234000D01*
X165420513Y-93942889D01*
X165335599Y-93662966D01*
X165197706Y-93404986D01*
X165012134Y-93178866D01*
X164786014Y-92993294D01*
X164528034Y-92855401D01*
X164248111Y-92770487D01*
X164029950Y-92749000D01*
X163884050Y-92749000D01*
X163665889Y-92770487D01*
X163482409Y-92826145D01*
X163471106Y-92804999D01*
X163416973Y-92703724D01*
X163345798Y-92616998D01*
X163322000Y-92588000D01*
X163293002Y-92564202D01*
X162550778Y-91821978D01*
X162784759Y-91665637D01*
X162870000Y-91580396D01*
X162955241Y-91665637D01*
X163190273Y-91822680D01*
X163451426Y-91930853D01*
X163728665Y-91986000D01*
X164011335Y-91986000D01*
X164288574Y-91930853D01*
X164549727Y-91822680D01*
X164784759Y-91665637D01*
X164951339Y-91499057D01*
X164980498Y-91595180D01*
X165039463Y-91705494D01*
X165118815Y-91802185D01*
X165215506Y-91881537D01*
X165325820Y-91940502D01*
X165445518Y-91976812D01*
X165570000Y-91989072D01*
X167170000Y-91989072D01*
X167294482Y-91976812D01*
X167414180Y-91940502D01*
X167524494Y-91881537D01*
X167621185Y-91802185D01*
X167700537Y-91705494D01*
X167759502Y-91595180D01*
X167795812Y-91475482D01*
X167808072Y-91351000D01*
X167808072Y-89751000D01*
X167795812Y-89626518D01*
X167759502Y-89506820D01*
X167700537Y-89396506D01*
X167621185Y-89299815D01*
X167524494Y-89220463D01*
X167414180Y-89161498D01*
X167294482Y-89125188D01*
X167170000Y-89112928D01*
X165570000Y-89112928D01*
X165445518Y-89125188D01*
X165325820Y-89161498D01*
X165215506Y-89220463D01*
X165118815Y-89299815D01*
X165039463Y-89396506D01*
X164980498Y-89506820D01*
X164951339Y-89602943D01*
X164784759Y-89436363D01*
X164549727Y-89279320D01*
X164288574Y-89171147D01*
X164011335Y-89116000D01*
X163728665Y-89116000D01*
X163451426Y-89171147D01*
X163190273Y-89279320D01*
X162955241Y-89436363D01*
X162870000Y-89521604D01*
X162784759Y-89436363D01*
X162549727Y-89279320D01*
X162288574Y-89171147D01*
X162011335Y-89116000D01*
X161728665Y-89116000D01*
X161451426Y-89171147D01*
X161190273Y-89279320D01*
X160955241Y-89436363D01*
X160755363Y-89636241D01*
X160621308Y-89836869D01*
X160606671Y-89809486D01*
X160362702Y-89737903D01*
X159549605Y-90551000D01*
X159563748Y-90565143D01*
X159384143Y-90744748D01*
X159370000Y-90730605D01*
X159355858Y-90744748D01*
X159176253Y-90565143D01*
X159190395Y-90551000D01*
X158377298Y-89737903D01*
X158133329Y-89809486D01*
X158012429Y-90064996D01*
X157943700Y-90339184D01*
X157929783Y-90621512D01*
X157971213Y-90901130D01*
X157976531Y-90916001D01*
X157270212Y-90916001D01*
X157156214Y-90802003D01*
X157132411Y-90772999D01*
X157016686Y-90678026D01*
X156884657Y-90607454D01*
X156741396Y-90563997D01*
X156629743Y-90553000D01*
X156629732Y-90553000D01*
X156592410Y-90549324D01*
X156555088Y-90553000D01*
X147642711Y-90553000D01*
X147598774Y-90509063D01*
X147429256Y-90395795D01*
X147240898Y-90317774D01*
X147040939Y-90278000D01*
X146837061Y-90278000D01*
X146637102Y-90317774D01*
X146448744Y-90395795D01*
X146279226Y-90509063D01*
X146135063Y-90653226D01*
X146021795Y-90822744D01*
X145943774Y-91011102D01*
X145904000Y-91211061D01*
X145904000Y-91414939D01*
X145943774Y-91614898D01*
X146021795Y-91803256D01*
X146135063Y-91972774D01*
X146279226Y-92116937D01*
X146448744Y-92230205D01*
X146637102Y-92308226D01*
X146837061Y-92348000D01*
X147040939Y-92348000D01*
X147240898Y-92308226D01*
X147429256Y-92230205D01*
X147598774Y-92116937D01*
X147642711Y-92073000D01*
X154032000Y-92073000D01*
X154032000Y-92176939D01*
X154071774Y-92376898D01*
X154149795Y-92565256D01*
X154263063Y-92734774D01*
X154407226Y-92878937D01*
X154576744Y-92992205D01*
X154765102Y-93070226D01*
X154965061Y-93110000D01*
X155168939Y-93110000D01*
X155368898Y-93070226D01*
X155557256Y-92992205D01*
X155726774Y-92878937D01*
X155770711Y-92835000D01*
X156403199Y-92835000D01*
X159976203Y-96408005D01*
X159953487Y-96482889D01*
X159924815Y-96774000D01*
X159953487Y-97065111D01*
X160038401Y-97345034D01*
X160176294Y-97603014D01*
X160361866Y-97829134D01*
X160587986Y-98014706D01*
X160642791Y-98044000D01*
X160587986Y-98073294D01*
X160361866Y-98258866D01*
X160176294Y-98484986D01*
X160038401Y-98742966D01*
X159953487Y-99022889D01*
X159924815Y-99314000D01*
X159953487Y-99605111D01*
X160038401Y-99885034D01*
X160176294Y-100143014D01*
X160361866Y-100369134D01*
X160587986Y-100554706D01*
X160642791Y-100584000D01*
X160587986Y-100613294D01*
X160361866Y-100798866D01*
X160176294Y-101024986D01*
X160139405Y-101094000D01*
X154041804Y-101094000D01*
X153368220Y-100420416D01*
X153440774Y-100371937D01*
X153584937Y-100227774D01*
X153698205Y-100058256D01*
X153776226Y-99869898D01*
X153816000Y-99669939D01*
X153816000Y-99466061D01*
X153776226Y-99266102D01*
X153698205Y-99077744D01*
X153584937Y-98908226D01*
X153541000Y-98864289D01*
X153541000Y-98366711D01*
X153584937Y-98322774D01*
X153698205Y-98153256D01*
X153776226Y-97964898D01*
X153816000Y-97764939D01*
X153816000Y-97561061D01*
X153776226Y-97361102D01*
X153698205Y-97172744D01*
X153627256Y-97066561D01*
X153652256Y-97056205D01*
X153821774Y-96942937D01*
X153865711Y-96899000D01*
X156071178Y-96899000D01*
X156108500Y-96902676D01*
X156145822Y-96899000D01*
X156145833Y-96899000D01*
X156257486Y-96888003D01*
X156400747Y-96844546D01*
X156532776Y-96773974D01*
X156648501Y-96679001D01*
X156672303Y-96649998D01*
X156884801Y-96437500D01*
X156946939Y-96437500D01*
X157146898Y-96397726D01*
X157335256Y-96319705D01*
X157504774Y-96206437D01*
X157648937Y-96062274D01*
X157762205Y-95892756D01*
X157840226Y-95704398D01*
X157880000Y-95504439D01*
X157880000Y-95300561D01*
X157840226Y-95100602D01*
X157762205Y-94912244D01*
X157648937Y-94742726D01*
X157504774Y-94598563D01*
X157335256Y-94485295D01*
X157146898Y-94407274D01*
X156946939Y-94367500D01*
X156743061Y-94367500D01*
X156543102Y-94407274D01*
X156354744Y-94485295D01*
X156185226Y-94598563D01*
X156041063Y-94742726D01*
X155927795Y-94912244D01*
X155849774Y-95100602D01*
X155810000Y-95300561D01*
X155810000Y-95362699D01*
X155793699Y-95379000D01*
X153865711Y-95379000D01*
X153821774Y-95335063D01*
X153652256Y-95221795D01*
X153463898Y-95143774D01*
X153263939Y-95104000D01*
X153060061Y-95104000D01*
X152860102Y-95143774D01*
X152671744Y-95221795D01*
X152502226Y-95335063D01*
X152358063Y-95479226D01*
X152244795Y-95648744D01*
X152166774Y-95837102D01*
X152127000Y-96037061D01*
X152127000Y-96240939D01*
X152166774Y-96440898D01*
X152244795Y-96629256D01*
X152315744Y-96735439D01*
X152290744Y-96745795D01*
X152121226Y-96859063D01*
X151977063Y-97003226D01*
X151863795Y-97172744D01*
X151785774Y-97361102D01*
X151746000Y-97561061D01*
X151746000Y-97764939D01*
X151785774Y-97964898D01*
X151863795Y-98153256D01*
X151977063Y-98322774D01*
X152021001Y-98366712D01*
X152021000Y-98864289D01*
X151977063Y-98908226D01*
X151928584Y-98980780D01*
X145781806Y-92834003D01*
X145758003Y-92804999D01*
X145642278Y-92710026D01*
X145510249Y-92639454D01*
X145366988Y-92595997D01*
X145255335Y-92585000D01*
X145255324Y-92585000D01*
X145218002Y-92581324D01*
X145180680Y-92585000D01*
X135958711Y-92585000D01*
X135914774Y-92541063D01*
X135745256Y-92427795D01*
X135556898Y-92349774D01*
X135356939Y-92310000D01*
X135153061Y-92310000D01*
X134953102Y-92349774D01*
X134764744Y-92427795D01*
X134595226Y-92541063D01*
X134451063Y-92685226D01*
X134337795Y-92854744D01*
X134259774Y-93043102D01*
X134220000Y-93243061D01*
X134220000Y-93446939D01*
X134259774Y-93646898D01*
X134337795Y-93835256D01*
X134451063Y-94004774D01*
X134595226Y-94148937D01*
X134764744Y-94262205D01*
X134953102Y-94340226D01*
X135153061Y-94380000D01*
X135356939Y-94380000D01*
X135556898Y-94340226D01*
X135745256Y-94262205D01*
X135914774Y-94148937D01*
X135958711Y-94105000D01*
X144903201Y-94105000D01*
X148934202Y-98136001D01*
X137687000Y-98136001D01*
X137687000Y-98069061D01*
X137647226Y-97869102D01*
X137569205Y-97680744D01*
X137455937Y-97511226D01*
X137412000Y-97467289D01*
X137412000Y-97344822D01*
X137415676Y-97307499D01*
X137412000Y-97270176D01*
X137412000Y-97270167D01*
X137401003Y-97158514D01*
X137357546Y-97015253D01*
X137330686Y-96965002D01*
X137286974Y-96883223D01*
X137215799Y-96796497D01*
X137192001Y-96767499D01*
X137163003Y-96743701D01*
X136544000Y-96124699D01*
X136544000Y-96062561D01*
X136504226Y-95862602D01*
X136426205Y-95674244D01*
X136312937Y-95504726D01*
X136168774Y-95360563D01*
X135999256Y-95247295D01*
X135810898Y-95169274D01*
X135610939Y-95129500D01*
X135407061Y-95129500D01*
X135207102Y-95169274D01*
X135018744Y-95247295D01*
X134849226Y-95360563D01*
X134705063Y-95504726D01*
X134591795Y-95674244D01*
X134513774Y-95862602D01*
X134474000Y-96062561D01*
X134474000Y-96266439D01*
X134513774Y-96466398D01*
X134591795Y-96654756D01*
X134705063Y-96824274D01*
X134849226Y-96968437D01*
X135018744Y-97081705D01*
X135207102Y-97159726D01*
X135407061Y-97199500D01*
X135469199Y-97199500D01*
X135821171Y-97551473D01*
X135734795Y-97680744D01*
X135656774Y-97869102D01*
X135617000Y-98069061D01*
X135617000Y-98136001D01*
X133508712Y-98136001D01*
X133374774Y-98002063D01*
X133205256Y-97888795D01*
X133016898Y-97810774D01*
X132816939Y-97771000D01*
X132613061Y-97771000D01*
X132413102Y-97810774D01*
X132224744Y-97888795D01*
X132055226Y-98002063D01*
X131911063Y-98146226D01*
X131797795Y-98315744D01*
X131719774Y-98504102D01*
X131680000Y-98704061D01*
X131680000Y-98907939D01*
X131719774Y-99107898D01*
X131797795Y-99296256D01*
X131911063Y-99465774D01*
X132055226Y-99609937D01*
X132224744Y-99723205D01*
X132413102Y-99801226D01*
X132613061Y-99841000D01*
X132816939Y-99841000D01*
X133016898Y-99801226D01*
X133205256Y-99723205D01*
X133305834Y-99656001D01*
X149285702Y-99656001D01*
X150016245Y-100386544D01*
X149945063Y-100457726D01*
X149859353Y-100586000D01*
X145356711Y-100586000D01*
X145312774Y-100542063D01*
X145143256Y-100428795D01*
X144954898Y-100350774D01*
X144754939Y-100311000D01*
X144551061Y-100311000D01*
X144351102Y-100350774D01*
X144162744Y-100428795D01*
X143993226Y-100542063D01*
X143849063Y-100686226D01*
X143735795Y-100855744D01*
X143657774Y-101044102D01*
X143618000Y-101244061D01*
X143618000Y-101447939D01*
X143657774Y-101647898D01*
X143735795Y-101836256D01*
X143849063Y-102005774D01*
X143993226Y-102149937D01*
X144162744Y-102263205D01*
X144176737Y-102269001D01*
X133442803Y-102269001D01*
X132226000Y-101052199D01*
X132226000Y-100990061D01*
X132186226Y-100790102D01*
X132108205Y-100601744D01*
X131994937Y-100432226D01*
X131850774Y-100288063D01*
X131681256Y-100174795D01*
X131492898Y-100096774D01*
X131292939Y-100057000D01*
X131089061Y-100057000D01*
X130889102Y-100096774D01*
X130700744Y-100174795D01*
X130531226Y-100288063D01*
X130387063Y-100432226D01*
X130273795Y-100601744D01*
X130195774Y-100790102D01*
X130156000Y-100990061D01*
X130156000Y-101193939D01*
X130195774Y-101393898D01*
X130273795Y-101582256D01*
X130387063Y-101751774D01*
X130531226Y-101895937D01*
X130700744Y-102009205D01*
X130889102Y-102087226D01*
X131089061Y-102127000D01*
X131151199Y-102127000D01*
X131771198Y-102747000D01*
X129261550Y-102747000D01*
X129218081Y-102742719D01*
X129174612Y-102747000D01*
X129174604Y-102747000D01*
X129044591Y-102759805D01*
X128877768Y-102810411D01*
X128747547Y-102880015D01*
X128724022Y-102892589D01*
X128623034Y-102975468D01*
X128623032Y-102975470D01*
X128589264Y-103003183D01*
X128561551Y-103036951D01*
X127265948Y-104332555D01*
X127067014Y-104169294D01*
X127002477Y-104134799D01*
X127119355Y-104065178D01*
X127335588Y-103870269D01*
X127509641Y-103636920D01*
X127634825Y-103374099D01*
X127679476Y-103226890D01*
X127558155Y-102997000D01*
X126365000Y-102997000D01*
X126365000Y-103017000D01*
X126111000Y-103017000D01*
X126111000Y-102997000D01*
X123825000Y-102997000D01*
X123825000Y-103017000D01*
X123571000Y-103017000D01*
X123571000Y-102997000D01*
X123551000Y-102997000D01*
X123551000Y-102743000D01*
X123571000Y-102743000D01*
X123571000Y-102723000D01*
X123825000Y-102723000D01*
X123825000Y-102743000D01*
X126111000Y-102743000D01*
X126111000Y-102723000D01*
X126365000Y-102723000D01*
X126365000Y-102743000D01*
X127558155Y-102743000D01*
X127679476Y-102513110D01*
X127634825Y-102365901D01*
X127509641Y-102103080D01*
X127388041Y-101940053D01*
X127398744Y-101947205D01*
X127587102Y-102025226D01*
X127787061Y-102065000D01*
X127990939Y-102065000D01*
X128190898Y-102025226D01*
X128379256Y-101947205D01*
X128548774Y-101833937D01*
X128692937Y-101689774D01*
X128806205Y-101520256D01*
X128884226Y-101331898D01*
X128924000Y-101131939D01*
X128924000Y-100928061D01*
X128884226Y-100728102D01*
X128806205Y-100539744D01*
X128692937Y-100370226D01*
X128649000Y-100326289D01*
X128649000Y-97739320D01*
X128652676Y-97701997D01*
X128649000Y-97664674D01*
X128649000Y-97664665D01*
X128638003Y-97553012D01*
X128594546Y-97409751D01*
X128523974Y-97277722D01*
X128481692Y-97226201D01*
X128452799Y-97190994D01*
X128452795Y-97190990D01*
X128429001Y-97161997D01*
X128400009Y-97138204D01*
X127416552Y-96154749D01*
X127478706Y-96079014D01*
X127616599Y-95821034D01*
X127701513Y-95541111D01*
X127730185Y-95250000D01*
X127701513Y-94958889D01*
X127616599Y-94678966D01*
X127478706Y-94420986D01*
X127293134Y-94194866D01*
X127067014Y-94009294D01*
X127012209Y-93980000D01*
X127067014Y-93950706D01*
X127293134Y-93765134D01*
X127478706Y-93539014D01*
X127616599Y-93281034D01*
X127701513Y-93001111D01*
X127730185Y-92710000D01*
X127701513Y-92418889D01*
X127616599Y-92138966D01*
X127478706Y-91880986D01*
X127293134Y-91654866D01*
X127157681Y-91543702D01*
X133410903Y-91543702D01*
X133482486Y-91787671D01*
X133737996Y-91908571D01*
X134012184Y-91977300D01*
X134294512Y-91991217D01*
X134574130Y-91949787D01*
X134840292Y-91854603D01*
X134965514Y-91787671D01*
X135037097Y-91543702D01*
X134224000Y-90730605D01*
X133410903Y-91543702D01*
X127157681Y-91543702D01*
X127067014Y-91469294D01*
X127012209Y-91440000D01*
X127067014Y-91410706D01*
X127293134Y-91225134D01*
X127478706Y-90999014D01*
X127616599Y-90741034D01*
X127652855Y-90621512D01*
X132783783Y-90621512D01*
X132825213Y-90901130D01*
X132920397Y-91167292D01*
X132987329Y-91292514D01*
X133231298Y-91364097D01*
X134044395Y-90551000D01*
X134403605Y-90551000D01*
X135216702Y-91364097D01*
X135460671Y-91292514D01*
X135474324Y-91263659D01*
X135609363Y-91465759D01*
X135809241Y-91665637D01*
X136044273Y-91822680D01*
X136305426Y-91930853D01*
X136582665Y-91986000D01*
X136865335Y-91986000D01*
X137142574Y-91930853D01*
X137403727Y-91822680D01*
X137638759Y-91665637D01*
X137724000Y-91580396D01*
X137809241Y-91665637D01*
X138044273Y-91822680D01*
X138305426Y-91930853D01*
X138582665Y-91986000D01*
X138865335Y-91986000D01*
X139142574Y-91930853D01*
X139403727Y-91822680D01*
X139638759Y-91665637D01*
X139805339Y-91499057D01*
X139834498Y-91595180D01*
X139893463Y-91705494D01*
X139972815Y-91802185D01*
X140069506Y-91881537D01*
X140179820Y-91940502D01*
X140299518Y-91976812D01*
X140424000Y-91989072D01*
X142024000Y-91989072D01*
X142148482Y-91976812D01*
X142268180Y-91940502D01*
X142378494Y-91881537D01*
X142475185Y-91802185D01*
X142554537Y-91705494D01*
X142613502Y-91595180D01*
X142649812Y-91475482D01*
X142662072Y-91351000D01*
X142662072Y-89751000D01*
X142649812Y-89626518D01*
X142613502Y-89506820D01*
X142554537Y-89396506D01*
X142502135Y-89332653D01*
X142981952Y-89332653D01*
X143137962Y-89648214D01*
X143512745Y-89839020D01*
X143917551Y-89953044D01*
X144336824Y-89985902D01*
X144754451Y-89936334D01*
X145154383Y-89806243D01*
X145450038Y-89648214D01*
X145606048Y-89332653D01*
X154987952Y-89332653D01*
X155143962Y-89648214D01*
X155518745Y-89839020D01*
X155923551Y-89953044D01*
X156342824Y-89985902D01*
X156760451Y-89936334D01*
X157160383Y-89806243D01*
X157456038Y-89648214D01*
X157500491Y-89558298D01*
X158556903Y-89558298D01*
X159370000Y-90371395D01*
X160183097Y-89558298D01*
X160111514Y-89314329D01*
X159856004Y-89193429D01*
X159581816Y-89124700D01*
X159299488Y-89110783D01*
X159019870Y-89152213D01*
X158753708Y-89247397D01*
X158628486Y-89314329D01*
X158556903Y-89558298D01*
X157500491Y-89558298D01*
X157612048Y-89332653D01*
X156300000Y-88020605D01*
X154987952Y-89332653D01*
X145606048Y-89332653D01*
X144294000Y-88020605D01*
X142981952Y-89332653D01*
X142502135Y-89332653D01*
X142475185Y-89299815D01*
X142378494Y-89220463D01*
X142268180Y-89161498D01*
X142148482Y-89125188D01*
X142024000Y-89112928D01*
X140424000Y-89112928D01*
X140299518Y-89125188D01*
X140179820Y-89161498D01*
X140069506Y-89220463D01*
X139972815Y-89299815D01*
X139893463Y-89396506D01*
X139834498Y-89506820D01*
X139805339Y-89602943D01*
X139638759Y-89436363D01*
X139403727Y-89279320D01*
X139142574Y-89171147D01*
X138865335Y-89116000D01*
X138582665Y-89116000D01*
X138305426Y-89171147D01*
X138044273Y-89279320D01*
X137809241Y-89436363D01*
X137724000Y-89521604D01*
X137638759Y-89436363D01*
X137403727Y-89279320D01*
X137142574Y-89171147D01*
X136865335Y-89116000D01*
X136582665Y-89116000D01*
X136305426Y-89171147D01*
X136044273Y-89279320D01*
X135809241Y-89436363D01*
X135609363Y-89636241D01*
X135475308Y-89836869D01*
X135460671Y-89809486D01*
X135216702Y-89737903D01*
X134403605Y-90551000D01*
X134044395Y-90551000D01*
X133231298Y-89737903D01*
X132987329Y-89809486D01*
X132866429Y-90064996D01*
X132797700Y-90339184D01*
X132783783Y-90621512D01*
X127652855Y-90621512D01*
X127701513Y-90461111D01*
X127730185Y-90170000D01*
X127701513Y-89878889D01*
X127616599Y-89598966D01*
X127478706Y-89340986D01*
X127471868Y-89332653D01*
X129841952Y-89332653D01*
X129997962Y-89648214D01*
X130372745Y-89839020D01*
X130777551Y-89953044D01*
X131196824Y-89985902D01*
X131614451Y-89936334D01*
X132014383Y-89806243D01*
X132310038Y-89648214D01*
X132354491Y-89558298D01*
X133410903Y-89558298D01*
X134224000Y-90371395D01*
X135037097Y-89558298D01*
X134965514Y-89314329D01*
X134710004Y-89193429D01*
X134435816Y-89124700D01*
X134153488Y-89110783D01*
X133873870Y-89152213D01*
X133607708Y-89247397D01*
X133482486Y-89314329D01*
X133410903Y-89558298D01*
X132354491Y-89558298D01*
X132466048Y-89332653D01*
X131154000Y-88020605D01*
X129841952Y-89332653D01*
X127471868Y-89332653D01*
X127293134Y-89114866D01*
X127067014Y-88929294D01*
X127012209Y-88900000D01*
X127067014Y-88870706D01*
X127293134Y-88685134D01*
X127478706Y-88459014D01*
X127616599Y-88201034D01*
X127701513Y-87921111D01*
X127705185Y-87883824D01*
X129009098Y-87883824D01*
X129058666Y-88301451D01*
X129188757Y-88701383D01*
X129346786Y-88997038D01*
X129662347Y-89153048D01*
X130974395Y-87841000D01*
X131333605Y-87841000D01*
X132645653Y-89153048D01*
X132961214Y-88997038D01*
X133152020Y-88622255D01*
X133266044Y-88217449D01*
X133298902Y-87798176D01*
X133249334Y-87380549D01*
X133119243Y-86980617D01*
X132961214Y-86684962D01*
X132645653Y-86528952D01*
X131333605Y-87841000D01*
X130974395Y-87841000D01*
X129662347Y-86528952D01*
X129346786Y-86684962D01*
X129155980Y-87059745D01*
X129041956Y-87464551D01*
X129009098Y-87883824D01*
X127705185Y-87883824D01*
X127730185Y-87630000D01*
X127701513Y-87338889D01*
X127616599Y-87058966D01*
X127478706Y-86800986D01*
X127293134Y-86574866D01*
X127067014Y-86389294D01*
X127012209Y-86360000D01*
X127032139Y-86349347D01*
X129841952Y-86349347D01*
X131154000Y-87661395D01*
X132466048Y-86349347D01*
X132310038Y-86033786D01*
X131935255Y-85842980D01*
X131530449Y-85728956D01*
X131111176Y-85696098D01*
X130693549Y-85745666D01*
X130293617Y-85875757D01*
X129997962Y-86033786D01*
X129841952Y-86349347D01*
X127032139Y-86349347D01*
X127067014Y-86330706D01*
X127293134Y-86145134D01*
X127478706Y-85919014D01*
X127616599Y-85661034D01*
X127701513Y-85381111D01*
X127730185Y-85090000D01*
X127701513Y-84798889D01*
X127616599Y-84518966D01*
X127478706Y-84260986D01*
X127293134Y-84034866D01*
X127067014Y-83849294D01*
X127002477Y-83814799D01*
X127119355Y-83745178D01*
X127335588Y-83550269D01*
X127509641Y-83316920D01*
X127634825Y-83054099D01*
X127679476Y-82906890D01*
X127558155Y-82677000D01*
X126365000Y-82677000D01*
X126365000Y-82697000D01*
X126111000Y-82697000D01*
X126111000Y-82677000D01*
X123825000Y-82677000D01*
X123825000Y-82697000D01*
X123571000Y-82697000D01*
X123571000Y-82677000D01*
X123551000Y-82677000D01*
X123551000Y-82423000D01*
X123571000Y-82423000D01*
X123571000Y-82403000D01*
X123825000Y-82403000D01*
X123825000Y-82423000D01*
X126111000Y-82423000D01*
X126111000Y-82403000D01*
X126365000Y-82403000D01*
X126365000Y-82423000D01*
X127558155Y-82423000D01*
X127679476Y-82193110D01*
X127661850Y-82134999D01*
X144642924Y-82134999D01*
X147024863Y-84516939D01*
X147024863Y-84579076D01*
X147064637Y-84779035D01*
X147089061Y-84838000D01*
X143578711Y-84838000D01*
X143534774Y-84794063D01*
X143365256Y-84680795D01*
X143176898Y-84602774D01*
X142976939Y-84563000D01*
X142773061Y-84563000D01*
X142573102Y-84602774D01*
X142384744Y-84680795D01*
X142215226Y-84794063D01*
X142071063Y-84938226D01*
X141957795Y-85107744D01*
X141879774Y-85296102D01*
X141840000Y-85496061D01*
X141840000Y-85699939D01*
X141879774Y-85899898D01*
X141957795Y-86088256D01*
X142071063Y-86257774D01*
X142215226Y-86401937D01*
X142384744Y-86515205D01*
X142573102Y-86593226D01*
X142643868Y-86607302D01*
X142486786Y-86684962D01*
X142295980Y-87059745D01*
X142181956Y-87464551D01*
X142149098Y-87883824D01*
X142198666Y-88301451D01*
X142328757Y-88701383D01*
X142486786Y-88997038D01*
X142802347Y-89153048D01*
X144114395Y-87841000D01*
X144100253Y-87826858D01*
X144279858Y-87647253D01*
X144294000Y-87661395D01*
X144308143Y-87647253D01*
X144487748Y-87826858D01*
X144473605Y-87841000D01*
X145785653Y-89153048D01*
X146101214Y-88997038D01*
X146292020Y-88622255D01*
X146406044Y-88217449D01*
X146438902Y-87798176D01*
X146389334Y-87380549D01*
X146259243Y-86980617D01*
X146101214Y-86684962D01*
X145785655Y-86528953D01*
X145900347Y-86414261D01*
X145844086Y-86358000D01*
X154749914Y-86358000D01*
X154693653Y-86414261D01*
X154808345Y-86528953D01*
X154492786Y-86684962D01*
X154301980Y-87059745D01*
X154187956Y-87464551D01*
X154155098Y-87883824D01*
X154204666Y-88301451D01*
X154334757Y-88701383D01*
X154492786Y-88997038D01*
X154808347Y-89153048D01*
X156120395Y-87841000D01*
X156106253Y-87826858D01*
X156285858Y-87647253D01*
X156300000Y-87661395D01*
X156314143Y-87647253D01*
X156493748Y-87826858D01*
X156479605Y-87841000D01*
X157791653Y-89153048D01*
X158107214Y-88997038D01*
X158298020Y-88622255D01*
X158412044Y-88217449D01*
X158444902Y-87798176D01*
X158395334Y-87380549D01*
X158265243Y-86980617D01*
X158107214Y-86684962D01*
X157791655Y-86528953D01*
X157906347Y-86414261D01*
X157850086Y-86358000D01*
X167889914Y-86358000D01*
X167833653Y-86414261D01*
X167948345Y-86528953D01*
X167632786Y-86684962D01*
X167441980Y-87059745D01*
X167327956Y-87464551D01*
X167295098Y-87883824D01*
X167344666Y-88301451D01*
X167474757Y-88701383D01*
X167632786Y-88997038D01*
X167948347Y-89153048D01*
X169260395Y-87841000D01*
X169246253Y-87826858D01*
X169425858Y-87647253D01*
X169440000Y-87661395D01*
X169454143Y-87647253D01*
X169633748Y-87826858D01*
X169619605Y-87841000D01*
X169633748Y-87855143D01*
X169454143Y-88034748D01*
X169440000Y-88020605D01*
X168127952Y-89332653D01*
X168283962Y-89648214D01*
X168658745Y-89839020D01*
X169063551Y-89953044D01*
X169482824Y-89985902D01*
X169900451Y-89936334D01*
X170300383Y-89806243D01*
X170505001Y-89696874D01*
X170505002Y-96890287D01*
X170392063Y-97003226D01*
X170278795Y-97172744D01*
X170200774Y-97361102D01*
X170161000Y-97561061D01*
X170161000Y-97764939D01*
X170200774Y-97964898D01*
X170278795Y-98153256D01*
X170392063Y-98322774D01*
X170536226Y-98466937D01*
X170705744Y-98580205D01*
X170894102Y-98658226D01*
X171094061Y-98698000D01*
X171297939Y-98698000D01*
X171497898Y-98658226D01*
X171686256Y-98580205D01*
X171855774Y-98466937D01*
X171999937Y-98322774D01*
X172113205Y-98153256D01*
X172191226Y-97964898D01*
X172231000Y-97764939D01*
X172231000Y-97561061D01*
X172191226Y-97361102D01*
X172113205Y-97172744D01*
X172025001Y-97040737D01*
X172025001Y-87002332D01*
X172028678Y-86964999D01*
X172014004Y-86816013D01*
X171970547Y-86672752D01*
X171899975Y-86540723D01*
X171828800Y-86453996D01*
X171805002Y-86424998D01*
X171776005Y-86401201D01*
X170461806Y-85087003D01*
X170438003Y-85057999D01*
X170322278Y-84963026D01*
X170190249Y-84892454D01*
X170046988Y-84848997D01*
X169935335Y-84838000D01*
X169935324Y-84838000D01*
X169898002Y-84834324D01*
X169860680Y-84838000D01*
X149030665Y-84838000D01*
X149055089Y-84779035D01*
X149094863Y-84579076D01*
X149094863Y-84375198D01*
X149055089Y-84175239D01*
X148977068Y-83986881D01*
X148863800Y-83817363D01*
X148719637Y-83673200D01*
X148550119Y-83559932D01*
X148361761Y-83481911D01*
X148161802Y-83442137D01*
X148099665Y-83442137D01*
X145521529Y-80864002D01*
X145497726Y-80834998D01*
X145382001Y-80740025D01*
X145249972Y-80669453D01*
X145106711Y-80625996D01*
X144995058Y-80614999D01*
X144995047Y-80614999D01*
X144957725Y-80611323D01*
X144920403Y-80614999D01*
X127598444Y-80614999D01*
X127616599Y-80581034D01*
X127701513Y-80301111D01*
X127730185Y-80010000D01*
X127701513Y-79718889D01*
X127616599Y-79438966D01*
X127478706Y-79180986D01*
X127293134Y-78954866D01*
X127216532Y-78892000D01*
X173584001Y-78892000D01*
X173584000Y-109068000D01*
G04 #@! TD*
M02*
