G04 #@! TF.GenerationSoftware,KiCad,Pcbnew,5.0.2+dfsg1-1*
G04 #@! TF.CreationDate,2019-12-14T00:12:12+01:00*
G04 #@! TF.ProjectId,USB,5553422e-6b69-4636-9164-5f7063625858,rev?*
G04 #@! TF.SameCoordinates,Original*
G04 #@! TF.FileFunction,Paste,Top*
G04 #@! TF.FilePolarity,Positive*
%FSLAX46Y46*%
G04 Gerber Fmt 4.6, Leading zero omitted, Abs format (unit mm)*
G04 Created by KiCad (PCBNEW 5.0.2+dfsg1-1) date Sat 14 Dec 2019 12:12:12 AM CET*
%MOMM*%
%LPD*%
G01*
G04 APERTURE LIST*
%ADD10R,1.000000X1.000000*%
%ADD11C,0.100000*%
%ADD12C,0.875000*%
G04 APERTURE END LIST*
D10*
G04 #@! TO.C,D12*
X150221000Y-93980000D03*
X147721000Y-93980000D03*
G04 #@! TD*
G04 #@! TO.C,D1*
X130556000Y-108057000D03*
X130556000Y-105557000D03*
G04 #@! TD*
G04 #@! TO.C,D2*
X133985000Y-105557000D03*
X133985000Y-108057000D03*
G04 #@! TD*
G04 #@! TO.C,D3*
X137414000Y-108057000D03*
X137414000Y-105557000D03*
G04 #@! TD*
G04 #@! TO.C,D4*
X140843000Y-108057000D03*
X140843000Y-105557000D03*
G04 #@! TD*
G04 #@! TO.C,D5*
X141879000Y-96139000D03*
X144379000Y-96139000D03*
G04 #@! TD*
G04 #@! TO.C,D7*
X141879000Y-93980000D03*
X144379000Y-93980000D03*
G04 #@! TD*
G04 #@! TO.C,D8*
X146685000Y-105557000D03*
X146685000Y-108057000D03*
G04 #@! TD*
G04 #@! TO.C,D9*
X149987000Y-108057000D03*
X149987000Y-105557000D03*
G04 #@! TD*
G04 #@! TO.C,D10*
X153289000Y-108057000D03*
X153289000Y-105557000D03*
G04 #@! TD*
G04 #@! TO.C,D11*
X156718000Y-105557000D03*
X156718000Y-108057000D03*
G04 #@! TD*
G04 #@! TO.C,D14*
X147721000Y-96139000D03*
X150221000Y-96139000D03*
G04 #@! TD*
D11*
G04 #@! TO.C,R1*
G36*
X135913691Y-100681053D02*
X135934926Y-100684203D01*
X135955750Y-100689419D01*
X135975962Y-100696651D01*
X135995368Y-100705830D01*
X136013781Y-100716866D01*
X136031024Y-100729654D01*
X136046930Y-100744070D01*
X136061346Y-100759976D01*
X136074134Y-100777219D01*
X136085170Y-100795632D01*
X136094349Y-100815038D01*
X136101581Y-100835250D01*
X136106797Y-100856074D01*
X136109947Y-100877309D01*
X136111000Y-100898750D01*
X136111000Y-101336250D01*
X136109947Y-101357691D01*
X136106797Y-101378926D01*
X136101581Y-101399750D01*
X136094349Y-101419962D01*
X136085170Y-101439368D01*
X136074134Y-101457781D01*
X136061346Y-101475024D01*
X136046930Y-101490930D01*
X136031024Y-101505346D01*
X136013781Y-101518134D01*
X135995368Y-101529170D01*
X135975962Y-101538349D01*
X135955750Y-101545581D01*
X135934926Y-101550797D01*
X135913691Y-101553947D01*
X135892250Y-101555000D01*
X135379750Y-101555000D01*
X135358309Y-101553947D01*
X135337074Y-101550797D01*
X135316250Y-101545581D01*
X135296038Y-101538349D01*
X135276632Y-101529170D01*
X135258219Y-101518134D01*
X135240976Y-101505346D01*
X135225070Y-101490930D01*
X135210654Y-101475024D01*
X135197866Y-101457781D01*
X135186830Y-101439368D01*
X135177651Y-101419962D01*
X135170419Y-101399750D01*
X135165203Y-101378926D01*
X135162053Y-101357691D01*
X135161000Y-101336250D01*
X135161000Y-100898750D01*
X135162053Y-100877309D01*
X135165203Y-100856074D01*
X135170419Y-100835250D01*
X135177651Y-100815038D01*
X135186830Y-100795632D01*
X135197866Y-100777219D01*
X135210654Y-100759976D01*
X135225070Y-100744070D01*
X135240976Y-100729654D01*
X135258219Y-100716866D01*
X135276632Y-100705830D01*
X135296038Y-100696651D01*
X135316250Y-100689419D01*
X135337074Y-100684203D01*
X135358309Y-100681053D01*
X135379750Y-100680000D01*
X135892250Y-100680000D01*
X135913691Y-100681053D01*
X135913691Y-100681053D01*
G37*
D12*
X135636000Y-101117500D03*
D11*
G36*
X135913691Y-99106053D02*
X135934926Y-99109203D01*
X135955750Y-99114419D01*
X135975962Y-99121651D01*
X135995368Y-99130830D01*
X136013781Y-99141866D01*
X136031024Y-99154654D01*
X136046930Y-99169070D01*
X136061346Y-99184976D01*
X136074134Y-99202219D01*
X136085170Y-99220632D01*
X136094349Y-99240038D01*
X136101581Y-99260250D01*
X136106797Y-99281074D01*
X136109947Y-99302309D01*
X136111000Y-99323750D01*
X136111000Y-99761250D01*
X136109947Y-99782691D01*
X136106797Y-99803926D01*
X136101581Y-99824750D01*
X136094349Y-99844962D01*
X136085170Y-99864368D01*
X136074134Y-99882781D01*
X136061346Y-99900024D01*
X136046930Y-99915930D01*
X136031024Y-99930346D01*
X136013781Y-99943134D01*
X135995368Y-99954170D01*
X135975962Y-99963349D01*
X135955750Y-99970581D01*
X135934926Y-99975797D01*
X135913691Y-99978947D01*
X135892250Y-99980000D01*
X135379750Y-99980000D01*
X135358309Y-99978947D01*
X135337074Y-99975797D01*
X135316250Y-99970581D01*
X135296038Y-99963349D01*
X135276632Y-99954170D01*
X135258219Y-99943134D01*
X135240976Y-99930346D01*
X135225070Y-99915930D01*
X135210654Y-99900024D01*
X135197866Y-99882781D01*
X135186830Y-99864368D01*
X135177651Y-99844962D01*
X135170419Y-99824750D01*
X135165203Y-99803926D01*
X135162053Y-99782691D01*
X135161000Y-99761250D01*
X135161000Y-99323750D01*
X135162053Y-99302309D01*
X135165203Y-99281074D01*
X135170419Y-99260250D01*
X135177651Y-99240038D01*
X135186830Y-99220632D01*
X135197866Y-99202219D01*
X135210654Y-99184976D01*
X135225070Y-99169070D01*
X135240976Y-99154654D01*
X135258219Y-99141866D01*
X135276632Y-99130830D01*
X135296038Y-99121651D01*
X135316250Y-99114419D01*
X135337074Y-99109203D01*
X135358309Y-99106053D01*
X135379750Y-99105000D01*
X135892250Y-99105000D01*
X135913691Y-99106053D01*
X135913691Y-99106053D01*
G37*
D12*
X135636000Y-99542500D03*
G04 #@! TD*
D11*
G04 #@! TO.C,R2*
G36*
X137818691Y-99106053D02*
X137839926Y-99109203D01*
X137860750Y-99114419D01*
X137880962Y-99121651D01*
X137900368Y-99130830D01*
X137918781Y-99141866D01*
X137936024Y-99154654D01*
X137951930Y-99169070D01*
X137966346Y-99184976D01*
X137979134Y-99202219D01*
X137990170Y-99220632D01*
X137999349Y-99240038D01*
X138006581Y-99260250D01*
X138011797Y-99281074D01*
X138014947Y-99302309D01*
X138016000Y-99323750D01*
X138016000Y-99761250D01*
X138014947Y-99782691D01*
X138011797Y-99803926D01*
X138006581Y-99824750D01*
X137999349Y-99844962D01*
X137990170Y-99864368D01*
X137979134Y-99882781D01*
X137966346Y-99900024D01*
X137951930Y-99915930D01*
X137936024Y-99930346D01*
X137918781Y-99943134D01*
X137900368Y-99954170D01*
X137880962Y-99963349D01*
X137860750Y-99970581D01*
X137839926Y-99975797D01*
X137818691Y-99978947D01*
X137797250Y-99980000D01*
X137284750Y-99980000D01*
X137263309Y-99978947D01*
X137242074Y-99975797D01*
X137221250Y-99970581D01*
X137201038Y-99963349D01*
X137181632Y-99954170D01*
X137163219Y-99943134D01*
X137145976Y-99930346D01*
X137130070Y-99915930D01*
X137115654Y-99900024D01*
X137102866Y-99882781D01*
X137091830Y-99864368D01*
X137082651Y-99844962D01*
X137075419Y-99824750D01*
X137070203Y-99803926D01*
X137067053Y-99782691D01*
X137066000Y-99761250D01*
X137066000Y-99323750D01*
X137067053Y-99302309D01*
X137070203Y-99281074D01*
X137075419Y-99260250D01*
X137082651Y-99240038D01*
X137091830Y-99220632D01*
X137102866Y-99202219D01*
X137115654Y-99184976D01*
X137130070Y-99169070D01*
X137145976Y-99154654D01*
X137163219Y-99141866D01*
X137181632Y-99130830D01*
X137201038Y-99121651D01*
X137221250Y-99114419D01*
X137242074Y-99109203D01*
X137263309Y-99106053D01*
X137284750Y-99105000D01*
X137797250Y-99105000D01*
X137818691Y-99106053D01*
X137818691Y-99106053D01*
G37*
D12*
X137541000Y-99542500D03*
D11*
G36*
X137818691Y-100681053D02*
X137839926Y-100684203D01*
X137860750Y-100689419D01*
X137880962Y-100696651D01*
X137900368Y-100705830D01*
X137918781Y-100716866D01*
X137936024Y-100729654D01*
X137951930Y-100744070D01*
X137966346Y-100759976D01*
X137979134Y-100777219D01*
X137990170Y-100795632D01*
X137999349Y-100815038D01*
X138006581Y-100835250D01*
X138011797Y-100856074D01*
X138014947Y-100877309D01*
X138016000Y-100898750D01*
X138016000Y-101336250D01*
X138014947Y-101357691D01*
X138011797Y-101378926D01*
X138006581Y-101399750D01*
X137999349Y-101419962D01*
X137990170Y-101439368D01*
X137979134Y-101457781D01*
X137966346Y-101475024D01*
X137951930Y-101490930D01*
X137936024Y-101505346D01*
X137918781Y-101518134D01*
X137900368Y-101529170D01*
X137880962Y-101538349D01*
X137860750Y-101545581D01*
X137839926Y-101550797D01*
X137818691Y-101553947D01*
X137797250Y-101555000D01*
X137284750Y-101555000D01*
X137263309Y-101553947D01*
X137242074Y-101550797D01*
X137221250Y-101545581D01*
X137201038Y-101538349D01*
X137181632Y-101529170D01*
X137163219Y-101518134D01*
X137145976Y-101505346D01*
X137130070Y-101490930D01*
X137115654Y-101475024D01*
X137102866Y-101457781D01*
X137091830Y-101439368D01*
X137082651Y-101419962D01*
X137075419Y-101399750D01*
X137070203Y-101378926D01*
X137067053Y-101357691D01*
X137066000Y-101336250D01*
X137066000Y-100898750D01*
X137067053Y-100877309D01*
X137070203Y-100856074D01*
X137075419Y-100835250D01*
X137082651Y-100815038D01*
X137091830Y-100795632D01*
X137102866Y-100777219D01*
X137115654Y-100759976D01*
X137130070Y-100744070D01*
X137145976Y-100729654D01*
X137163219Y-100716866D01*
X137181632Y-100705830D01*
X137201038Y-100696651D01*
X137221250Y-100689419D01*
X137242074Y-100684203D01*
X137263309Y-100681053D01*
X137284750Y-100680000D01*
X137797250Y-100680000D01*
X137818691Y-100681053D01*
X137818691Y-100681053D01*
G37*
D12*
X137541000Y-101117500D03*
G04 #@! TD*
D11*
G04 #@! TO.C,R3*
G36*
X141628691Y-99106053D02*
X141649926Y-99109203D01*
X141670750Y-99114419D01*
X141690962Y-99121651D01*
X141710368Y-99130830D01*
X141728781Y-99141866D01*
X141746024Y-99154654D01*
X141761930Y-99169070D01*
X141776346Y-99184976D01*
X141789134Y-99202219D01*
X141800170Y-99220632D01*
X141809349Y-99240038D01*
X141816581Y-99260250D01*
X141821797Y-99281074D01*
X141824947Y-99302309D01*
X141826000Y-99323750D01*
X141826000Y-99761250D01*
X141824947Y-99782691D01*
X141821797Y-99803926D01*
X141816581Y-99824750D01*
X141809349Y-99844962D01*
X141800170Y-99864368D01*
X141789134Y-99882781D01*
X141776346Y-99900024D01*
X141761930Y-99915930D01*
X141746024Y-99930346D01*
X141728781Y-99943134D01*
X141710368Y-99954170D01*
X141690962Y-99963349D01*
X141670750Y-99970581D01*
X141649926Y-99975797D01*
X141628691Y-99978947D01*
X141607250Y-99980000D01*
X141094750Y-99980000D01*
X141073309Y-99978947D01*
X141052074Y-99975797D01*
X141031250Y-99970581D01*
X141011038Y-99963349D01*
X140991632Y-99954170D01*
X140973219Y-99943134D01*
X140955976Y-99930346D01*
X140940070Y-99915930D01*
X140925654Y-99900024D01*
X140912866Y-99882781D01*
X140901830Y-99864368D01*
X140892651Y-99844962D01*
X140885419Y-99824750D01*
X140880203Y-99803926D01*
X140877053Y-99782691D01*
X140876000Y-99761250D01*
X140876000Y-99323750D01*
X140877053Y-99302309D01*
X140880203Y-99281074D01*
X140885419Y-99260250D01*
X140892651Y-99240038D01*
X140901830Y-99220632D01*
X140912866Y-99202219D01*
X140925654Y-99184976D01*
X140940070Y-99169070D01*
X140955976Y-99154654D01*
X140973219Y-99141866D01*
X140991632Y-99130830D01*
X141011038Y-99121651D01*
X141031250Y-99114419D01*
X141052074Y-99109203D01*
X141073309Y-99106053D01*
X141094750Y-99105000D01*
X141607250Y-99105000D01*
X141628691Y-99106053D01*
X141628691Y-99106053D01*
G37*
D12*
X141351000Y-99542500D03*
D11*
G36*
X141628691Y-100681053D02*
X141649926Y-100684203D01*
X141670750Y-100689419D01*
X141690962Y-100696651D01*
X141710368Y-100705830D01*
X141728781Y-100716866D01*
X141746024Y-100729654D01*
X141761930Y-100744070D01*
X141776346Y-100759976D01*
X141789134Y-100777219D01*
X141800170Y-100795632D01*
X141809349Y-100815038D01*
X141816581Y-100835250D01*
X141821797Y-100856074D01*
X141824947Y-100877309D01*
X141826000Y-100898750D01*
X141826000Y-101336250D01*
X141824947Y-101357691D01*
X141821797Y-101378926D01*
X141816581Y-101399750D01*
X141809349Y-101419962D01*
X141800170Y-101439368D01*
X141789134Y-101457781D01*
X141776346Y-101475024D01*
X141761930Y-101490930D01*
X141746024Y-101505346D01*
X141728781Y-101518134D01*
X141710368Y-101529170D01*
X141690962Y-101538349D01*
X141670750Y-101545581D01*
X141649926Y-101550797D01*
X141628691Y-101553947D01*
X141607250Y-101555000D01*
X141094750Y-101555000D01*
X141073309Y-101553947D01*
X141052074Y-101550797D01*
X141031250Y-101545581D01*
X141011038Y-101538349D01*
X140991632Y-101529170D01*
X140973219Y-101518134D01*
X140955976Y-101505346D01*
X140940070Y-101490930D01*
X140925654Y-101475024D01*
X140912866Y-101457781D01*
X140901830Y-101439368D01*
X140892651Y-101419962D01*
X140885419Y-101399750D01*
X140880203Y-101378926D01*
X140877053Y-101357691D01*
X140876000Y-101336250D01*
X140876000Y-100898750D01*
X140877053Y-100877309D01*
X140880203Y-100856074D01*
X140885419Y-100835250D01*
X140892651Y-100815038D01*
X140901830Y-100795632D01*
X140912866Y-100777219D01*
X140925654Y-100759976D01*
X140940070Y-100744070D01*
X140955976Y-100729654D01*
X140973219Y-100716866D01*
X140991632Y-100705830D01*
X141011038Y-100696651D01*
X141031250Y-100689419D01*
X141052074Y-100684203D01*
X141073309Y-100681053D01*
X141094750Y-100680000D01*
X141607250Y-100680000D01*
X141628691Y-100681053D01*
X141628691Y-100681053D01*
G37*
D12*
X141351000Y-101117500D03*
G04 #@! TD*
D11*
G04 #@! TO.C,R4*
G36*
X139723691Y-100681053D02*
X139744926Y-100684203D01*
X139765750Y-100689419D01*
X139785962Y-100696651D01*
X139805368Y-100705830D01*
X139823781Y-100716866D01*
X139841024Y-100729654D01*
X139856930Y-100744070D01*
X139871346Y-100759976D01*
X139884134Y-100777219D01*
X139895170Y-100795632D01*
X139904349Y-100815038D01*
X139911581Y-100835250D01*
X139916797Y-100856074D01*
X139919947Y-100877309D01*
X139921000Y-100898750D01*
X139921000Y-101336250D01*
X139919947Y-101357691D01*
X139916797Y-101378926D01*
X139911581Y-101399750D01*
X139904349Y-101419962D01*
X139895170Y-101439368D01*
X139884134Y-101457781D01*
X139871346Y-101475024D01*
X139856930Y-101490930D01*
X139841024Y-101505346D01*
X139823781Y-101518134D01*
X139805368Y-101529170D01*
X139785962Y-101538349D01*
X139765750Y-101545581D01*
X139744926Y-101550797D01*
X139723691Y-101553947D01*
X139702250Y-101555000D01*
X139189750Y-101555000D01*
X139168309Y-101553947D01*
X139147074Y-101550797D01*
X139126250Y-101545581D01*
X139106038Y-101538349D01*
X139086632Y-101529170D01*
X139068219Y-101518134D01*
X139050976Y-101505346D01*
X139035070Y-101490930D01*
X139020654Y-101475024D01*
X139007866Y-101457781D01*
X138996830Y-101439368D01*
X138987651Y-101419962D01*
X138980419Y-101399750D01*
X138975203Y-101378926D01*
X138972053Y-101357691D01*
X138971000Y-101336250D01*
X138971000Y-100898750D01*
X138972053Y-100877309D01*
X138975203Y-100856074D01*
X138980419Y-100835250D01*
X138987651Y-100815038D01*
X138996830Y-100795632D01*
X139007866Y-100777219D01*
X139020654Y-100759976D01*
X139035070Y-100744070D01*
X139050976Y-100729654D01*
X139068219Y-100716866D01*
X139086632Y-100705830D01*
X139106038Y-100696651D01*
X139126250Y-100689419D01*
X139147074Y-100684203D01*
X139168309Y-100681053D01*
X139189750Y-100680000D01*
X139702250Y-100680000D01*
X139723691Y-100681053D01*
X139723691Y-100681053D01*
G37*
D12*
X139446000Y-101117500D03*
D11*
G36*
X139723691Y-99106053D02*
X139744926Y-99109203D01*
X139765750Y-99114419D01*
X139785962Y-99121651D01*
X139805368Y-99130830D01*
X139823781Y-99141866D01*
X139841024Y-99154654D01*
X139856930Y-99169070D01*
X139871346Y-99184976D01*
X139884134Y-99202219D01*
X139895170Y-99220632D01*
X139904349Y-99240038D01*
X139911581Y-99260250D01*
X139916797Y-99281074D01*
X139919947Y-99302309D01*
X139921000Y-99323750D01*
X139921000Y-99761250D01*
X139919947Y-99782691D01*
X139916797Y-99803926D01*
X139911581Y-99824750D01*
X139904349Y-99844962D01*
X139895170Y-99864368D01*
X139884134Y-99882781D01*
X139871346Y-99900024D01*
X139856930Y-99915930D01*
X139841024Y-99930346D01*
X139823781Y-99943134D01*
X139805368Y-99954170D01*
X139785962Y-99963349D01*
X139765750Y-99970581D01*
X139744926Y-99975797D01*
X139723691Y-99978947D01*
X139702250Y-99980000D01*
X139189750Y-99980000D01*
X139168309Y-99978947D01*
X139147074Y-99975797D01*
X139126250Y-99970581D01*
X139106038Y-99963349D01*
X139086632Y-99954170D01*
X139068219Y-99943134D01*
X139050976Y-99930346D01*
X139035070Y-99915930D01*
X139020654Y-99900024D01*
X139007866Y-99882781D01*
X138996830Y-99864368D01*
X138987651Y-99844962D01*
X138980419Y-99824750D01*
X138975203Y-99803926D01*
X138972053Y-99782691D01*
X138971000Y-99761250D01*
X138971000Y-99323750D01*
X138972053Y-99302309D01*
X138975203Y-99281074D01*
X138980419Y-99260250D01*
X138987651Y-99240038D01*
X138996830Y-99220632D01*
X139007866Y-99202219D01*
X139020654Y-99184976D01*
X139035070Y-99169070D01*
X139050976Y-99154654D01*
X139068219Y-99141866D01*
X139086632Y-99130830D01*
X139106038Y-99121651D01*
X139126250Y-99114419D01*
X139147074Y-99109203D01*
X139168309Y-99106053D01*
X139189750Y-99105000D01*
X139702250Y-99105000D01*
X139723691Y-99106053D01*
X139723691Y-99106053D01*
G37*
D12*
X139446000Y-99542500D03*
G04 #@! TD*
D11*
G04 #@! TO.C,R5*
G36*
X137691691Y-94153053D02*
X137712926Y-94156203D01*
X137733750Y-94161419D01*
X137753962Y-94168651D01*
X137773368Y-94177830D01*
X137791781Y-94188866D01*
X137809024Y-94201654D01*
X137824930Y-94216070D01*
X137839346Y-94231976D01*
X137852134Y-94249219D01*
X137863170Y-94267632D01*
X137872349Y-94287038D01*
X137879581Y-94307250D01*
X137884797Y-94328074D01*
X137887947Y-94349309D01*
X137889000Y-94370750D01*
X137889000Y-94808250D01*
X137887947Y-94829691D01*
X137884797Y-94850926D01*
X137879581Y-94871750D01*
X137872349Y-94891962D01*
X137863170Y-94911368D01*
X137852134Y-94929781D01*
X137839346Y-94947024D01*
X137824930Y-94962930D01*
X137809024Y-94977346D01*
X137791781Y-94990134D01*
X137773368Y-95001170D01*
X137753962Y-95010349D01*
X137733750Y-95017581D01*
X137712926Y-95022797D01*
X137691691Y-95025947D01*
X137670250Y-95027000D01*
X137157750Y-95027000D01*
X137136309Y-95025947D01*
X137115074Y-95022797D01*
X137094250Y-95017581D01*
X137074038Y-95010349D01*
X137054632Y-95001170D01*
X137036219Y-94990134D01*
X137018976Y-94977346D01*
X137003070Y-94962930D01*
X136988654Y-94947024D01*
X136975866Y-94929781D01*
X136964830Y-94911368D01*
X136955651Y-94891962D01*
X136948419Y-94871750D01*
X136943203Y-94850926D01*
X136940053Y-94829691D01*
X136939000Y-94808250D01*
X136939000Y-94370750D01*
X136940053Y-94349309D01*
X136943203Y-94328074D01*
X136948419Y-94307250D01*
X136955651Y-94287038D01*
X136964830Y-94267632D01*
X136975866Y-94249219D01*
X136988654Y-94231976D01*
X137003070Y-94216070D01*
X137018976Y-94201654D01*
X137036219Y-94188866D01*
X137054632Y-94177830D01*
X137074038Y-94168651D01*
X137094250Y-94161419D01*
X137115074Y-94156203D01*
X137136309Y-94153053D01*
X137157750Y-94152000D01*
X137670250Y-94152000D01*
X137691691Y-94153053D01*
X137691691Y-94153053D01*
G37*
D12*
X137414000Y-94589500D03*
D11*
G36*
X137691691Y-95728053D02*
X137712926Y-95731203D01*
X137733750Y-95736419D01*
X137753962Y-95743651D01*
X137773368Y-95752830D01*
X137791781Y-95763866D01*
X137809024Y-95776654D01*
X137824930Y-95791070D01*
X137839346Y-95806976D01*
X137852134Y-95824219D01*
X137863170Y-95842632D01*
X137872349Y-95862038D01*
X137879581Y-95882250D01*
X137884797Y-95903074D01*
X137887947Y-95924309D01*
X137889000Y-95945750D01*
X137889000Y-96383250D01*
X137887947Y-96404691D01*
X137884797Y-96425926D01*
X137879581Y-96446750D01*
X137872349Y-96466962D01*
X137863170Y-96486368D01*
X137852134Y-96504781D01*
X137839346Y-96522024D01*
X137824930Y-96537930D01*
X137809024Y-96552346D01*
X137791781Y-96565134D01*
X137773368Y-96576170D01*
X137753962Y-96585349D01*
X137733750Y-96592581D01*
X137712926Y-96597797D01*
X137691691Y-96600947D01*
X137670250Y-96602000D01*
X137157750Y-96602000D01*
X137136309Y-96600947D01*
X137115074Y-96597797D01*
X137094250Y-96592581D01*
X137074038Y-96585349D01*
X137054632Y-96576170D01*
X137036219Y-96565134D01*
X137018976Y-96552346D01*
X137003070Y-96537930D01*
X136988654Y-96522024D01*
X136975866Y-96504781D01*
X136964830Y-96486368D01*
X136955651Y-96466962D01*
X136948419Y-96446750D01*
X136943203Y-96425926D01*
X136940053Y-96404691D01*
X136939000Y-96383250D01*
X136939000Y-95945750D01*
X136940053Y-95924309D01*
X136943203Y-95903074D01*
X136948419Y-95882250D01*
X136955651Y-95862038D01*
X136964830Y-95842632D01*
X136975866Y-95824219D01*
X136988654Y-95806976D01*
X137003070Y-95791070D01*
X137018976Y-95776654D01*
X137036219Y-95763866D01*
X137054632Y-95752830D01*
X137074038Y-95743651D01*
X137094250Y-95736419D01*
X137115074Y-95731203D01*
X137136309Y-95728053D01*
X137157750Y-95727000D01*
X137670250Y-95727000D01*
X137691691Y-95728053D01*
X137691691Y-95728053D01*
G37*
D12*
X137414000Y-96164500D03*
G04 #@! TD*
D11*
G04 #@! TO.C,R6*
G36*
X135786691Y-94153053D02*
X135807926Y-94156203D01*
X135828750Y-94161419D01*
X135848962Y-94168651D01*
X135868368Y-94177830D01*
X135886781Y-94188866D01*
X135904024Y-94201654D01*
X135919930Y-94216070D01*
X135934346Y-94231976D01*
X135947134Y-94249219D01*
X135958170Y-94267632D01*
X135967349Y-94287038D01*
X135974581Y-94307250D01*
X135979797Y-94328074D01*
X135982947Y-94349309D01*
X135984000Y-94370750D01*
X135984000Y-94808250D01*
X135982947Y-94829691D01*
X135979797Y-94850926D01*
X135974581Y-94871750D01*
X135967349Y-94891962D01*
X135958170Y-94911368D01*
X135947134Y-94929781D01*
X135934346Y-94947024D01*
X135919930Y-94962930D01*
X135904024Y-94977346D01*
X135886781Y-94990134D01*
X135868368Y-95001170D01*
X135848962Y-95010349D01*
X135828750Y-95017581D01*
X135807926Y-95022797D01*
X135786691Y-95025947D01*
X135765250Y-95027000D01*
X135252750Y-95027000D01*
X135231309Y-95025947D01*
X135210074Y-95022797D01*
X135189250Y-95017581D01*
X135169038Y-95010349D01*
X135149632Y-95001170D01*
X135131219Y-94990134D01*
X135113976Y-94977346D01*
X135098070Y-94962930D01*
X135083654Y-94947024D01*
X135070866Y-94929781D01*
X135059830Y-94911368D01*
X135050651Y-94891962D01*
X135043419Y-94871750D01*
X135038203Y-94850926D01*
X135035053Y-94829691D01*
X135034000Y-94808250D01*
X135034000Y-94370750D01*
X135035053Y-94349309D01*
X135038203Y-94328074D01*
X135043419Y-94307250D01*
X135050651Y-94287038D01*
X135059830Y-94267632D01*
X135070866Y-94249219D01*
X135083654Y-94231976D01*
X135098070Y-94216070D01*
X135113976Y-94201654D01*
X135131219Y-94188866D01*
X135149632Y-94177830D01*
X135169038Y-94168651D01*
X135189250Y-94161419D01*
X135210074Y-94156203D01*
X135231309Y-94153053D01*
X135252750Y-94152000D01*
X135765250Y-94152000D01*
X135786691Y-94153053D01*
X135786691Y-94153053D01*
G37*
D12*
X135509000Y-94589500D03*
D11*
G36*
X135786691Y-95728053D02*
X135807926Y-95731203D01*
X135828750Y-95736419D01*
X135848962Y-95743651D01*
X135868368Y-95752830D01*
X135886781Y-95763866D01*
X135904024Y-95776654D01*
X135919930Y-95791070D01*
X135934346Y-95806976D01*
X135947134Y-95824219D01*
X135958170Y-95842632D01*
X135967349Y-95862038D01*
X135974581Y-95882250D01*
X135979797Y-95903074D01*
X135982947Y-95924309D01*
X135984000Y-95945750D01*
X135984000Y-96383250D01*
X135982947Y-96404691D01*
X135979797Y-96425926D01*
X135974581Y-96446750D01*
X135967349Y-96466962D01*
X135958170Y-96486368D01*
X135947134Y-96504781D01*
X135934346Y-96522024D01*
X135919930Y-96537930D01*
X135904024Y-96552346D01*
X135886781Y-96565134D01*
X135868368Y-96576170D01*
X135848962Y-96585349D01*
X135828750Y-96592581D01*
X135807926Y-96597797D01*
X135786691Y-96600947D01*
X135765250Y-96602000D01*
X135252750Y-96602000D01*
X135231309Y-96600947D01*
X135210074Y-96597797D01*
X135189250Y-96592581D01*
X135169038Y-96585349D01*
X135149632Y-96576170D01*
X135131219Y-96565134D01*
X135113976Y-96552346D01*
X135098070Y-96537930D01*
X135083654Y-96522024D01*
X135070866Y-96504781D01*
X135059830Y-96486368D01*
X135050651Y-96466962D01*
X135043419Y-96446750D01*
X135038203Y-96425926D01*
X135035053Y-96404691D01*
X135034000Y-96383250D01*
X135034000Y-95945750D01*
X135035053Y-95924309D01*
X135038203Y-95903074D01*
X135043419Y-95882250D01*
X135050651Y-95862038D01*
X135059830Y-95842632D01*
X135070866Y-95824219D01*
X135083654Y-95806976D01*
X135098070Y-95791070D01*
X135113976Y-95776654D01*
X135131219Y-95763866D01*
X135149632Y-95752830D01*
X135169038Y-95743651D01*
X135189250Y-95736419D01*
X135210074Y-95731203D01*
X135231309Y-95728053D01*
X135252750Y-95727000D01*
X135765250Y-95727000D01*
X135786691Y-95728053D01*
X135786691Y-95728053D01*
G37*
D12*
X135509000Y-96164500D03*
G04 #@! TD*
D11*
G04 #@! TO.C,R7*
G36*
X151026691Y-99106053D02*
X151047926Y-99109203D01*
X151068750Y-99114419D01*
X151088962Y-99121651D01*
X151108368Y-99130830D01*
X151126781Y-99141866D01*
X151144024Y-99154654D01*
X151159930Y-99169070D01*
X151174346Y-99184976D01*
X151187134Y-99202219D01*
X151198170Y-99220632D01*
X151207349Y-99240038D01*
X151214581Y-99260250D01*
X151219797Y-99281074D01*
X151222947Y-99302309D01*
X151224000Y-99323750D01*
X151224000Y-99761250D01*
X151222947Y-99782691D01*
X151219797Y-99803926D01*
X151214581Y-99824750D01*
X151207349Y-99844962D01*
X151198170Y-99864368D01*
X151187134Y-99882781D01*
X151174346Y-99900024D01*
X151159930Y-99915930D01*
X151144024Y-99930346D01*
X151126781Y-99943134D01*
X151108368Y-99954170D01*
X151088962Y-99963349D01*
X151068750Y-99970581D01*
X151047926Y-99975797D01*
X151026691Y-99978947D01*
X151005250Y-99980000D01*
X150492750Y-99980000D01*
X150471309Y-99978947D01*
X150450074Y-99975797D01*
X150429250Y-99970581D01*
X150409038Y-99963349D01*
X150389632Y-99954170D01*
X150371219Y-99943134D01*
X150353976Y-99930346D01*
X150338070Y-99915930D01*
X150323654Y-99900024D01*
X150310866Y-99882781D01*
X150299830Y-99864368D01*
X150290651Y-99844962D01*
X150283419Y-99824750D01*
X150278203Y-99803926D01*
X150275053Y-99782691D01*
X150274000Y-99761250D01*
X150274000Y-99323750D01*
X150275053Y-99302309D01*
X150278203Y-99281074D01*
X150283419Y-99260250D01*
X150290651Y-99240038D01*
X150299830Y-99220632D01*
X150310866Y-99202219D01*
X150323654Y-99184976D01*
X150338070Y-99169070D01*
X150353976Y-99154654D01*
X150371219Y-99141866D01*
X150389632Y-99130830D01*
X150409038Y-99121651D01*
X150429250Y-99114419D01*
X150450074Y-99109203D01*
X150471309Y-99106053D01*
X150492750Y-99105000D01*
X151005250Y-99105000D01*
X151026691Y-99106053D01*
X151026691Y-99106053D01*
G37*
D12*
X150749000Y-99542500D03*
D11*
G36*
X151026691Y-100681053D02*
X151047926Y-100684203D01*
X151068750Y-100689419D01*
X151088962Y-100696651D01*
X151108368Y-100705830D01*
X151126781Y-100716866D01*
X151144024Y-100729654D01*
X151159930Y-100744070D01*
X151174346Y-100759976D01*
X151187134Y-100777219D01*
X151198170Y-100795632D01*
X151207349Y-100815038D01*
X151214581Y-100835250D01*
X151219797Y-100856074D01*
X151222947Y-100877309D01*
X151224000Y-100898750D01*
X151224000Y-101336250D01*
X151222947Y-101357691D01*
X151219797Y-101378926D01*
X151214581Y-101399750D01*
X151207349Y-101419962D01*
X151198170Y-101439368D01*
X151187134Y-101457781D01*
X151174346Y-101475024D01*
X151159930Y-101490930D01*
X151144024Y-101505346D01*
X151126781Y-101518134D01*
X151108368Y-101529170D01*
X151088962Y-101538349D01*
X151068750Y-101545581D01*
X151047926Y-101550797D01*
X151026691Y-101553947D01*
X151005250Y-101555000D01*
X150492750Y-101555000D01*
X150471309Y-101553947D01*
X150450074Y-101550797D01*
X150429250Y-101545581D01*
X150409038Y-101538349D01*
X150389632Y-101529170D01*
X150371219Y-101518134D01*
X150353976Y-101505346D01*
X150338070Y-101490930D01*
X150323654Y-101475024D01*
X150310866Y-101457781D01*
X150299830Y-101439368D01*
X150290651Y-101419962D01*
X150283419Y-101399750D01*
X150278203Y-101378926D01*
X150275053Y-101357691D01*
X150274000Y-101336250D01*
X150274000Y-100898750D01*
X150275053Y-100877309D01*
X150278203Y-100856074D01*
X150283419Y-100835250D01*
X150290651Y-100815038D01*
X150299830Y-100795632D01*
X150310866Y-100777219D01*
X150323654Y-100759976D01*
X150338070Y-100744070D01*
X150353976Y-100729654D01*
X150371219Y-100716866D01*
X150389632Y-100705830D01*
X150409038Y-100696651D01*
X150429250Y-100689419D01*
X150450074Y-100684203D01*
X150471309Y-100681053D01*
X150492750Y-100680000D01*
X151005250Y-100680000D01*
X151026691Y-100681053D01*
X151026691Y-100681053D01*
G37*
D12*
X150749000Y-101117500D03*
G04 #@! TD*
D11*
G04 #@! TO.C,R8*
G36*
X153058691Y-99106053D02*
X153079926Y-99109203D01*
X153100750Y-99114419D01*
X153120962Y-99121651D01*
X153140368Y-99130830D01*
X153158781Y-99141866D01*
X153176024Y-99154654D01*
X153191930Y-99169070D01*
X153206346Y-99184976D01*
X153219134Y-99202219D01*
X153230170Y-99220632D01*
X153239349Y-99240038D01*
X153246581Y-99260250D01*
X153251797Y-99281074D01*
X153254947Y-99302309D01*
X153256000Y-99323750D01*
X153256000Y-99761250D01*
X153254947Y-99782691D01*
X153251797Y-99803926D01*
X153246581Y-99824750D01*
X153239349Y-99844962D01*
X153230170Y-99864368D01*
X153219134Y-99882781D01*
X153206346Y-99900024D01*
X153191930Y-99915930D01*
X153176024Y-99930346D01*
X153158781Y-99943134D01*
X153140368Y-99954170D01*
X153120962Y-99963349D01*
X153100750Y-99970581D01*
X153079926Y-99975797D01*
X153058691Y-99978947D01*
X153037250Y-99980000D01*
X152524750Y-99980000D01*
X152503309Y-99978947D01*
X152482074Y-99975797D01*
X152461250Y-99970581D01*
X152441038Y-99963349D01*
X152421632Y-99954170D01*
X152403219Y-99943134D01*
X152385976Y-99930346D01*
X152370070Y-99915930D01*
X152355654Y-99900024D01*
X152342866Y-99882781D01*
X152331830Y-99864368D01*
X152322651Y-99844962D01*
X152315419Y-99824750D01*
X152310203Y-99803926D01*
X152307053Y-99782691D01*
X152306000Y-99761250D01*
X152306000Y-99323750D01*
X152307053Y-99302309D01*
X152310203Y-99281074D01*
X152315419Y-99260250D01*
X152322651Y-99240038D01*
X152331830Y-99220632D01*
X152342866Y-99202219D01*
X152355654Y-99184976D01*
X152370070Y-99169070D01*
X152385976Y-99154654D01*
X152403219Y-99141866D01*
X152421632Y-99130830D01*
X152441038Y-99121651D01*
X152461250Y-99114419D01*
X152482074Y-99109203D01*
X152503309Y-99106053D01*
X152524750Y-99105000D01*
X153037250Y-99105000D01*
X153058691Y-99106053D01*
X153058691Y-99106053D01*
G37*
D12*
X152781000Y-99542500D03*
D11*
G36*
X153058691Y-100681053D02*
X153079926Y-100684203D01*
X153100750Y-100689419D01*
X153120962Y-100696651D01*
X153140368Y-100705830D01*
X153158781Y-100716866D01*
X153176024Y-100729654D01*
X153191930Y-100744070D01*
X153206346Y-100759976D01*
X153219134Y-100777219D01*
X153230170Y-100795632D01*
X153239349Y-100815038D01*
X153246581Y-100835250D01*
X153251797Y-100856074D01*
X153254947Y-100877309D01*
X153256000Y-100898750D01*
X153256000Y-101336250D01*
X153254947Y-101357691D01*
X153251797Y-101378926D01*
X153246581Y-101399750D01*
X153239349Y-101419962D01*
X153230170Y-101439368D01*
X153219134Y-101457781D01*
X153206346Y-101475024D01*
X153191930Y-101490930D01*
X153176024Y-101505346D01*
X153158781Y-101518134D01*
X153140368Y-101529170D01*
X153120962Y-101538349D01*
X153100750Y-101545581D01*
X153079926Y-101550797D01*
X153058691Y-101553947D01*
X153037250Y-101555000D01*
X152524750Y-101555000D01*
X152503309Y-101553947D01*
X152482074Y-101550797D01*
X152461250Y-101545581D01*
X152441038Y-101538349D01*
X152421632Y-101529170D01*
X152403219Y-101518134D01*
X152385976Y-101505346D01*
X152370070Y-101490930D01*
X152355654Y-101475024D01*
X152342866Y-101457781D01*
X152331830Y-101439368D01*
X152322651Y-101419962D01*
X152315419Y-101399750D01*
X152310203Y-101378926D01*
X152307053Y-101357691D01*
X152306000Y-101336250D01*
X152306000Y-100898750D01*
X152307053Y-100877309D01*
X152310203Y-100856074D01*
X152315419Y-100835250D01*
X152322651Y-100815038D01*
X152331830Y-100795632D01*
X152342866Y-100777219D01*
X152355654Y-100759976D01*
X152370070Y-100744070D01*
X152385976Y-100729654D01*
X152403219Y-100716866D01*
X152421632Y-100705830D01*
X152441038Y-100696651D01*
X152461250Y-100689419D01*
X152482074Y-100684203D01*
X152503309Y-100681053D01*
X152524750Y-100680000D01*
X153037250Y-100680000D01*
X153058691Y-100681053D01*
X153058691Y-100681053D01*
G37*
D12*
X152781000Y-101117500D03*
G04 #@! TD*
D11*
G04 #@! TO.C,R9*
G36*
X155090691Y-99106053D02*
X155111926Y-99109203D01*
X155132750Y-99114419D01*
X155152962Y-99121651D01*
X155172368Y-99130830D01*
X155190781Y-99141866D01*
X155208024Y-99154654D01*
X155223930Y-99169070D01*
X155238346Y-99184976D01*
X155251134Y-99202219D01*
X155262170Y-99220632D01*
X155271349Y-99240038D01*
X155278581Y-99260250D01*
X155283797Y-99281074D01*
X155286947Y-99302309D01*
X155288000Y-99323750D01*
X155288000Y-99761250D01*
X155286947Y-99782691D01*
X155283797Y-99803926D01*
X155278581Y-99824750D01*
X155271349Y-99844962D01*
X155262170Y-99864368D01*
X155251134Y-99882781D01*
X155238346Y-99900024D01*
X155223930Y-99915930D01*
X155208024Y-99930346D01*
X155190781Y-99943134D01*
X155172368Y-99954170D01*
X155152962Y-99963349D01*
X155132750Y-99970581D01*
X155111926Y-99975797D01*
X155090691Y-99978947D01*
X155069250Y-99980000D01*
X154556750Y-99980000D01*
X154535309Y-99978947D01*
X154514074Y-99975797D01*
X154493250Y-99970581D01*
X154473038Y-99963349D01*
X154453632Y-99954170D01*
X154435219Y-99943134D01*
X154417976Y-99930346D01*
X154402070Y-99915930D01*
X154387654Y-99900024D01*
X154374866Y-99882781D01*
X154363830Y-99864368D01*
X154354651Y-99844962D01*
X154347419Y-99824750D01*
X154342203Y-99803926D01*
X154339053Y-99782691D01*
X154338000Y-99761250D01*
X154338000Y-99323750D01*
X154339053Y-99302309D01*
X154342203Y-99281074D01*
X154347419Y-99260250D01*
X154354651Y-99240038D01*
X154363830Y-99220632D01*
X154374866Y-99202219D01*
X154387654Y-99184976D01*
X154402070Y-99169070D01*
X154417976Y-99154654D01*
X154435219Y-99141866D01*
X154453632Y-99130830D01*
X154473038Y-99121651D01*
X154493250Y-99114419D01*
X154514074Y-99109203D01*
X154535309Y-99106053D01*
X154556750Y-99105000D01*
X155069250Y-99105000D01*
X155090691Y-99106053D01*
X155090691Y-99106053D01*
G37*
D12*
X154813000Y-99542500D03*
D11*
G36*
X155090691Y-100681053D02*
X155111926Y-100684203D01*
X155132750Y-100689419D01*
X155152962Y-100696651D01*
X155172368Y-100705830D01*
X155190781Y-100716866D01*
X155208024Y-100729654D01*
X155223930Y-100744070D01*
X155238346Y-100759976D01*
X155251134Y-100777219D01*
X155262170Y-100795632D01*
X155271349Y-100815038D01*
X155278581Y-100835250D01*
X155283797Y-100856074D01*
X155286947Y-100877309D01*
X155288000Y-100898750D01*
X155288000Y-101336250D01*
X155286947Y-101357691D01*
X155283797Y-101378926D01*
X155278581Y-101399750D01*
X155271349Y-101419962D01*
X155262170Y-101439368D01*
X155251134Y-101457781D01*
X155238346Y-101475024D01*
X155223930Y-101490930D01*
X155208024Y-101505346D01*
X155190781Y-101518134D01*
X155172368Y-101529170D01*
X155152962Y-101538349D01*
X155132750Y-101545581D01*
X155111926Y-101550797D01*
X155090691Y-101553947D01*
X155069250Y-101555000D01*
X154556750Y-101555000D01*
X154535309Y-101553947D01*
X154514074Y-101550797D01*
X154493250Y-101545581D01*
X154473038Y-101538349D01*
X154453632Y-101529170D01*
X154435219Y-101518134D01*
X154417976Y-101505346D01*
X154402070Y-101490930D01*
X154387654Y-101475024D01*
X154374866Y-101457781D01*
X154363830Y-101439368D01*
X154354651Y-101419962D01*
X154347419Y-101399750D01*
X154342203Y-101378926D01*
X154339053Y-101357691D01*
X154338000Y-101336250D01*
X154338000Y-100898750D01*
X154339053Y-100877309D01*
X154342203Y-100856074D01*
X154347419Y-100835250D01*
X154354651Y-100815038D01*
X154363830Y-100795632D01*
X154374866Y-100777219D01*
X154387654Y-100759976D01*
X154402070Y-100744070D01*
X154417976Y-100729654D01*
X154435219Y-100716866D01*
X154453632Y-100705830D01*
X154473038Y-100696651D01*
X154493250Y-100689419D01*
X154514074Y-100684203D01*
X154535309Y-100681053D01*
X154556750Y-100680000D01*
X155069250Y-100680000D01*
X155090691Y-100681053D01*
X155090691Y-100681053D01*
G37*
D12*
X154813000Y-101117500D03*
G04 #@! TD*
D11*
G04 #@! TO.C,R10*
G36*
X156995691Y-100681053D02*
X157016926Y-100684203D01*
X157037750Y-100689419D01*
X157057962Y-100696651D01*
X157077368Y-100705830D01*
X157095781Y-100716866D01*
X157113024Y-100729654D01*
X157128930Y-100744070D01*
X157143346Y-100759976D01*
X157156134Y-100777219D01*
X157167170Y-100795632D01*
X157176349Y-100815038D01*
X157183581Y-100835250D01*
X157188797Y-100856074D01*
X157191947Y-100877309D01*
X157193000Y-100898750D01*
X157193000Y-101336250D01*
X157191947Y-101357691D01*
X157188797Y-101378926D01*
X157183581Y-101399750D01*
X157176349Y-101419962D01*
X157167170Y-101439368D01*
X157156134Y-101457781D01*
X157143346Y-101475024D01*
X157128930Y-101490930D01*
X157113024Y-101505346D01*
X157095781Y-101518134D01*
X157077368Y-101529170D01*
X157057962Y-101538349D01*
X157037750Y-101545581D01*
X157016926Y-101550797D01*
X156995691Y-101553947D01*
X156974250Y-101555000D01*
X156461750Y-101555000D01*
X156440309Y-101553947D01*
X156419074Y-101550797D01*
X156398250Y-101545581D01*
X156378038Y-101538349D01*
X156358632Y-101529170D01*
X156340219Y-101518134D01*
X156322976Y-101505346D01*
X156307070Y-101490930D01*
X156292654Y-101475024D01*
X156279866Y-101457781D01*
X156268830Y-101439368D01*
X156259651Y-101419962D01*
X156252419Y-101399750D01*
X156247203Y-101378926D01*
X156244053Y-101357691D01*
X156243000Y-101336250D01*
X156243000Y-100898750D01*
X156244053Y-100877309D01*
X156247203Y-100856074D01*
X156252419Y-100835250D01*
X156259651Y-100815038D01*
X156268830Y-100795632D01*
X156279866Y-100777219D01*
X156292654Y-100759976D01*
X156307070Y-100744070D01*
X156322976Y-100729654D01*
X156340219Y-100716866D01*
X156358632Y-100705830D01*
X156378038Y-100696651D01*
X156398250Y-100689419D01*
X156419074Y-100684203D01*
X156440309Y-100681053D01*
X156461750Y-100680000D01*
X156974250Y-100680000D01*
X156995691Y-100681053D01*
X156995691Y-100681053D01*
G37*
D12*
X156718000Y-101117500D03*
D11*
G36*
X156995691Y-99106053D02*
X157016926Y-99109203D01*
X157037750Y-99114419D01*
X157057962Y-99121651D01*
X157077368Y-99130830D01*
X157095781Y-99141866D01*
X157113024Y-99154654D01*
X157128930Y-99169070D01*
X157143346Y-99184976D01*
X157156134Y-99202219D01*
X157167170Y-99220632D01*
X157176349Y-99240038D01*
X157183581Y-99260250D01*
X157188797Y-99281074D01*
X157191947Y-99302309D01*
X157193000Y-99323750D01*
X157193000Y-99761250D01*
X157191947Y-99782691D01*
X157188797Y-99803926D01*
X157183581Y-99824750D01*
X157176349Y-99844962D01*
X157167170Y-99864368D01*
X157156134Y-99882781D01*
X157143346Y-99900024D01*
X157128930Y-99915930D01*
X157113024Y-99930346D01*
X157095781Y-99943134D01*
X157077368Y-99954170D01*
X157057962Y-99963349D01*
X157037750Y-99970581D01*
X157016926Y-99975797D01*
X156995691Y-99978947D01*
X156974250Y-99980000D01*
X156461750Y-99980000D01*
X156440309Y-99978947D01*
X156419074Y-99975797D01*
X156398250Y-99970581D01*
X156378038Y-99963349D01*
X156358632Y-99954170D01*
X156340219Y-99943134D01*
X156322976Y-99930346D01*
X156307070Y-99915930D01*
X156292654Y-99900024D01*
X156279866Y-99882781D01*
X156268830Y-99864368D01*
X156259651Y-99844962D01*
X156252419Y-99824750D01*
X156247203Y-99803926D01*
X156244053Y-99782691D01*
X156243000Y-99761250D01*
X156243000Y-99323750D01*
X156244053Y-99302309D01*
X156247203Y-99281074D01*
X156252419Y-99260250D01*
X156259651Y-99240038D01*
X156268830Y-99220632D01*
X156279866Y-99202219D01*
X156292654Y-99184976D01*
X156307070Y-99169070D01*
X156322976Y-99154654D01*
X156340219Y-99141866D01*
X156358632Y-99130830D01*
X156378038Y-99121651D01*
X156398250Y-99114419D01*
X156419074Y-99109203D01*
X156440309Y-99106053D01*
X156461750Y-99105000D01*
X156974250Y-99105000D01*
X156995691Y-99106053D01*
X156995691Y-99106053D01*
G37*
D12*
X156718000Y-99542500D03*
G04 #@! TD*
D11*
G04 #@! TO.C,R11*
G36*
X157122691Y-94966053D02*
X157143926Y-94969203D01*
X157164750Y-94974419D01*
X157184962Y-94981651D01*
X157204368Y-94990830D01*
X157222781Y-95001866D01*
X157240024Y-95014654D01*
X157255930Y-95029070D01*
X157270346Y-95044976D01*
X157283134Y-95062219D01*
X157294170Y-95080632D01*
X157303349Y-95100038D01*
X157310581Y-95120250D01*
X157315797Y-95141074D01*
X157318947Y-95162309D01*
X157320000Y-95183750D01*
X157320000Y-95621250D01*
X157318947Y-95642691D01*
X157315797Y-95663926D01*
X157310581Y-95684750D01*
X157303349Y-95704962D01*
X157294170Y-95724368D01*
X157283134Y-95742781D01*
X157270346Y-95760024D01*
X157255930Y-95775930D01*
X157240024Y-95790346D01*
X157222781Y-95803134D01*
X157204368Y-95814170D01*
X157184962Y-95823349D01*
X157164750Y-95830581D01*
X157143926Y-95835797D01*
X157122691Y-95838947D01*
X157101250Y-95840000D01*
X156588750Y-95840000D01*
X156567309Y-95838947D01*
X156546074Y-95835797D01*
X156525250Y-95830581D01*
X156505038Y-95823349D01*
X156485632Y-95814170D01*
X156467219Y-95803134D01*
X156449976Y-95790346D01*
X156434070Y-95775930D01*
X156419654Y-95760024D01*
X156406866Y-95742781D01*
X156395830Y-95724368D01*
X156386651Y-95704962D01*
X156379419Y-95684750D01*
X156374203Y-95663926D01*
X156371053Y-95642691D01*
X156370000Y-95621250D01*
X156370000Y-95183750D01*
X156371053Y-95162309D01*
X156374203Y-95141074D01*
X156379419Y-95120250D01*
X156386651Y-95100038D01*
X156395830Y-95080632D01*
X156406866Y-95062219D01*
X156419654Y-95044976D01*
X156434070Y-95029070D01*
X156449976Y-95014654D01*
X156467219Y-95001866D01*
X156485632Y-94990830D01*
X156505038Y-94981651D01*
X156525250Y-94974419D01*
X156546074Y-94969203D01*
X156567309Y-94966053D01*
X156588750Y-94965000D01*
X157101250Y-94965000D01*
X157122691Y-94966053D01*
X157122691Y-94966053D01*
G37*
D12*
X156845000Y-95402500D03*
D11*
G36*
X157122691Y-93391053D02*
X157143926Y-93394203D01*
X157164750Y-93399419D01*
X157184962Y-93406651D01*
X157204368Y-93415830D01*
X157222781Y-93426866D01*
X157240024Y-93439654D01*
X157255930Y-93454070D01*
X157270346Y-93469976D01*
X157283134Y-93487219D01*
X157294170Y-93505632D01*
X157303349Y-93525038D01*
X157310581Y-93545250D01*
X157315797Y-93566074D01*
X157318947Y-93587309D01*
X157320000Y-93608750D01*
X157320000Y-94046250D01*
X157318947Y-94067691D01*
X157315797Y-94088926D01*
X157310581Y-94109750D01*
X157303349Y-94129962D01*
X157294170Y-94149368D01*
X157283134Y-94167781D01*
X157270346Y-94185024D01*
X157255930Y-94200930D01*
X157240024Y-94215346D01*
X157222781Y-94228134D01*
X157204368Y-94239170D01*
X157184962Y-94248349D01*
X157164750Y-94255581D01*
X157143926Y-94260797D01*
X157122691Y-94263947D01*
X157101250Y-94265000D01*
X156588750Y-94265000D01*
X156567309Y-94263947D01*
X156546074Y-94260797D01*
X156525250Y-94255581D01*
X156505038Y-94248349D01*
X156485632Y-94239170D01*
X156467219Y-94228134D01*
X156449976Y-94215346D01*
X156434070Y-94200930D01*
X156419654Y-94185024D01*
X156406866Y-94167781D01*
X156395830Y-94149368D01*
X156386651Y-94129962D01*
X156379419Y-94109750D01*
X156374203Y-94088926D01*
X156371053Y-94067691D01*
X156370000Y-94046250D01*
X156370000Y-93608750D01*
X156371053Y-93587309D01*
X156374203Y-93566074D01*
X156379419Y-93545250D01*
X156386651Y-93525038D01*
X156395830Y-93505632D01*
X156406866Y-93487219D01*
X156419654Y-93469976D01*
X156434070Y-93454070D01*
X156449976Y-93439654D01*
X156467219Y-93426866D01*
X156485632Y-93415830D01*
X156505038Y-93406651D01*
X156525250Y-93399419D01*
X156546074Y-93394203D01*
X156567309Y-93391053D01*
X156588750Y-93390000D01*
X157101250Y-93390000D01*
X157122691Y-93391053D01*
X157122691Y-93391053D01*
G37*
D12*
X156845000Y-93827500D03*
G04 #@! TD*
D11*
G04 #@! TO.C,R12*
G36*
X155090691Y-93416553D02*
X155111926Y-93419703D01*
X155132750Y-93424919D01*
X155152962Y-93432151D01*
X155172368Y-93441330D01*
X155190781Y-93452366D01*
X155208024Y-93465154D01*
X155223930Y-93479570D01*
X155238346Y-93495476D01*
X155251134Y-93512719D01*
X155262170Y-93531132D01*
X155271349Y-93550538D01*
X155278581Y-93570750D01*
X155283797Y-93591574D01*
X155286947Y-93612809D01*
X155288000Y-93634250D01*
X155288000Y-94071750D01*
X155286947Y-94093191D01*
X155283797Y-94114426D01*
X155278581Y-94135250D01*
X155271349Y-94155462D01*
X155262170Y-94174868D01*
X155251134Y-94193281D01*
X155238346Y-94210524D01*
X155223930Y-94226430D01*
X155208024Y-94240846D01*
X155190781Y-94253634D01*
X155172368Y-94264670D01*
X155152962Y-94273849D01*
X155132750Y-94281081D01*
X155111926Y-94286297D01*
X155090691Y-94289447D01*
X155069250Y-94290500D01*
X154556750Y-94290500D01*
X154535309Y-94289447D01*
X154514074Y-94286297D01*
X154493250Y-94281081D01*
X154473038Y-94273849D01*
X154453632Y-94264670D01*
X154435219Y-94253634D01*
X154417976Y-94240846D01*
X154402070Y-94226430D01*
X154387654Y-94210524D01*
X154374866Y-94193281D01*
X154363830Y-94174868D01*
X154354651Y-94155462D01*
X154347419Y-94135250D01*
X154342203Y-94114426D01*
X154339053Y-94093191D01*
X154338000Y-94071750D01*
X154338000Y-93634250D01*
X154339053Y-93612809D01*
X154342203Y-93591574D01*
X154347419Y-93570750D01*
X154354651Y-93550538D01*
X154363830Y-93531132D01*
X154374866Y-93512719D01*
X154387654Y-93495476D01*
X154402070Y-93479570D01*
X154417976Y-93465154D01*
X154435219Y-93452366D01*
X154453632Y-93441330D01*
X154473038Y-93432151D01*
X154493250Y-93424919D01*
X154514074Y-93419703D01*
X154535309Y-93416553D01*
X154556750Y-93415500D01*
X155069250Y-93415500D01*
X155090691Y-93416553D01*
X155090691Y-93416553D01*
G37*
D12*
X154813000Y-93853000D03*
D11*
G36*
X155090691Y-94991553D02*
X155111926Y-94994703D01*
X155132750Y-94999919D01*
X155152962Y-95007151D01*
X155172368Y-95016330D01*
X155190781Y-95027366D01*
X155208024Y-95040154D01*
X155223930Y-95054570D01*
X155238346Y-95070476D01*
X155251134Y-95087719D01*
X155262170Y-95106132D01*
X155271349Y-95125538D01*
X155278581Y-95145750D01*
X155283797Y-95166574D01*
X155286947Y-95187809D01*
X155288000Y-95209250D01*
X155288000Y-95646750D01*
X155286947Y-95668191D01*
X155283797Y-95689426D01*
X155278581Y-95710250D01*
X155271349Y-95730462D01*
X155262170Y-95749868D01*
X155251134Y-95768281D01*
X155238346Y-95785524D01*
X155223930Y-95801430D01*
X155208024Y-95815846D01*
X155190781Y-95828634D01*
X155172368Y-95839670D01*
X155152962Y-95848849D01*
X155132750Y-95856081D01*
X155111926Y-95861297D01*
X155090691Y-95864447D01*
X155069250Y-95865500D01*
X154556750Y-95865500D01*
X154535309Y-95864447D01*
X154514074Y-95861297D01*
X154493250Y-95856081D01*
X154473038Y-95848849D01*
X154453632Y-95839670D01*
X154435219Y-95828634D01*
X154417976Y-95815846D01*
X154402070Y-95801430D01*
X154387654Y-95785524D01*
X154374866Y-95768281D01*
X154363830Y-95749868D01*
X154354651Y-95730462D01*
X154347419Y-95710250D01*
X154342203Y-95689426D01*
X154339053Y-95668191D01*
X154338000Y-95646750D01*
X154338000Y-95209250D01*
X154339053Y-95187809D01*
X154342203Y-95166574D01*
X154347419Y-95145750D01*
X154354651Y-95125538D01*
X154363830Y-95106132D01*
X154374866Y-95087719D01*
X154387654Y-95070476D01*
X154402070Y-95054570D01*
X154417976Y-95040154D01*
X154435219Y-95027366D01*
X154453632Y-95016330D01*
X154473038Y-95007151D01*
X154493250Y-94999919D01*
X154514074Y-94994703D01*
X154535309Y-94991553D01*
X154556750Y-94990500D01*
X155069250Y-94990500D01*
X155090691Y-94991553D01*
X155090691Y-94991553D01*
G37*
D12*
X154813000Y-95428000D03*
G04 #@! TD*
M02*
