G04 #@! TF.GenerationSoftware,KiCad,Pcbnew,5.0.2+dfsg1-1*
G04 #@! TF.CreationDate,2019-12-14T00:12:12+01:00*
G04 #@! TF.ProjectId,USB,5553422e-6b69-4636-9164-5f7063625858,rev?*
G04 #@! TF.SameCoordinates,Original*
G04 #@! TF.FileFunction,Soldermask,Top*
G04 #@! TF.FilePolarity,Negative*
%FSLAX46Y46*%
G04 Gerber Fmt 4.6, Leading zero omitted, Abs format (unit mm)*
G04 Created by KiCad (PCBNEW 5.0.2+dfsg1-1) date Sat 14 Dec 2019 12:12:12 AM CET*
%MOMM*%
%LPD*%
G01*
G04 APERTURE LIST*
%ADD10C,1.200000*%
%ADD11C,0.100000*%
G04 APERTURE END LIST*
D10*
G04 #@! TO.C,D6*
X146431000Y-84169000D02*
X146431000Y-80169000D01*
G04 #@! TO.C,D13*
X171577000Y-84201000D02*
X171577000Y-80201000D01*
D11*
G36*
X127139000Y-108851000D02*
X125337000Y-108851000D01*
X125337000Y-107049000D01*
X127139000Y-107049000D01*
X127139000Y-108851000D01*
X127139000Y-108851000D01*
G37*
G36*
X123808442Y-107055518D02*
X123874627Y-107062037D01*
X123987853Y-107096384D01*
X124044467Y-107113557D01*
X124183087Y-107187652D01*
X124200991Y-107197222D01*
X124236729Y-107226552D01*
X124338186Y-107309814D01*
X124421448Y-107411271D01*
X124450778Y-107447009D01*
X124450779Y-107447011D01*
X124534443Y-107603533D01*
X124534443Y-107603534D01*
X124585963Y-107773373D01*
X124603359Y-107950000D01*
X124585963Y-108126627D01*
X124551616Y-108239853D01*
X124534443Y-108296467D01*
X124460348Y-108435087D01*
X124450778Y-108452991D01*
X124421448Y-108488729D01*
X124338186Y-108590186D01*
X124236729Y-108673448D01*
X124200991Y-108702778D01*
X124200989Y-108702779D01*
X124044467Y-108786443D01*
X123987853Y-108803616D01*
X123874627Y-108837963D01*
X123808442Y-108844482D01*
X123742260Y-108851000D01*
X123653740Y-108851000D01*
X123587558Y-108844482D01*
X123521373Y-108837963D01*
X123408147Y-108803616D01*
X123351533Y-108786443D01*
X123195011Y-108702779D01*
X123195009Y-108702778D01*
X123159271Y-108673448D01*
X123057814Y-108590186D01*
X122974552Y-108488729D01*
X122945222Y-108452991D01*
X122935652Y-108435087D01*
X122861557Y-108296467D01*
X122844384Y-108239853D01*
X122810037Y-108126627D01*
X122792641Y-107950000D01*
X122810037Y-107773373D01*
X122861557Y-107603534D01*
X122861557Y-107603533D01*
X122945221Y-107447011D01*
X122945222Y-107447009D01*
X122974552Y-107411271D01*
X123057814Y-107309814D01*
X123159271Y-107226552D01*
X123195009Y-107197222D01*
X123212913Y-107187652D01*
X123351533Y-107113557D01*
X123408147Y-107096384D01*
X123521373Y-107062037D01*
X123587558Y-107055518D01*
X123653740Y-107049000D01*
X123742260Y-107049000D01*
X123808442Y-107055518D01*
X123808442Y-107055518D01*
G37*
G36*
X157269000Y-108608000D02*
X156167000Y-108608000D01*
X156167000Y-107506000D01*
X157269000Y-107506000D01*
X157269000Y-108608000D01*
X157269000Y-108608000D01*
G37*
G36*
X141394000Y-108608000D02*
X140292000Y-108608000D01*
X140292000Y-107506000D01*
X141394000Y-107506000D01*
X141394000Y-108608000D01*
X141394000Y-108608000D01*
G37*
G36*
X137965000Y-108608000D02*
X136863000Y-108608000D01*
X136863000Y-107506000D01*
X137965000Y-107506000D01*
X137965000Y-108608000D01*
X137965000Y-108608000D01*
G37*
G36*
X134536000Y-108608000D02*
X133434000Y-108608000D01*
X133434000Y-107506000D01*
X134536000Y-107506000D01*
X134536000Y-108608000D01*
X134536000Y-108608000D01*
G37*
G36*
X131107000Y-108608000D02*
X130005000Y-108608000D01*
X130005000Y-107506000D01*
X131107000Y-107506000D01*
X131107000Y-108608000D01*
X131107000Y-108608000D01*
G37*
G36*
X150538000Y-108608000D02*
X149436000Y-108608000D01*
X149436000Y-107506000D01*
X150538000Y-107506000D01*
X150538000Y-108608000D01*
X150538000Y-108608000D01*
G37*
G36*
X153840000Y-108608000D02*
X152738000Y-108608000D01*
X152738000Y-107506000D01*
X153840000Y-107506000D01*
X153840000Y-108608000D01*
X153840000Y-108608000D01*
G37*
G36*
X147236000Y-108608000D02*
X146134000Y-108608000D01*
X146134000Y-107506000D01*
X147236000Y-107506000D01*
X147236000Y-108608000D01*
X147236000Y-108608000D01*
G37*
G36*
X162318000Y-107835000D02*
X160516000Y-107835000D01*
X160516000Y-106033000D01*
X162318000Y-106033000D01*
X162318000Y-107835000D01*
X162318000Y-107835000D01*
G37*
G36*
X164067443Y-106039519D02*
X164133627Y-106046037D01*
X164246853Y-106080384D01*
X164303467Y-106097557D01*
X164425485Y-106162778D01*
X164459991Y-106181222D01*
X164495729Y-106210552D01*
X164597186Y-106293814D01*
X164680448Y-106395271D01*
X164709778Y-106431009D01*
X164709779Y-106431011D01*
X164793443Y-106587533D01*
X164793443Y-106587534D01*
X164844963Y-106757373D01*
X164862359Y-106934000D01*
X164844963Y-107110627D01*
X164844074Y-107113557D01*
X164793443Y-107280467D01*
X164777756Y-107309814D01*
X164709778Y-107436991D01*
X164680448Y-107472729D01*
X164597186Y-107574186D01*
X164495729Y-107657448D01*
X164459991Y-107686778D01*
X164459989Y-107686779D01*
X164303467Y-107770443D01*
X164246853Y-107787616D01*
X164133627Y-107821963D01*
X164067443Y-107828481D01*
X164001260Y-107835000D01*
X163912740Y-107835000D01*
X163846557Y-107828481D01*
X163780373Y-107821963D01*
X163667147Y-107787616D01*
X163610533Y-107770443D01*
X163454011Y-107686779D01*
X163454009Y-107686778D01*
X163418271Y-107657448D01*
X163316814Y-107574186D01*
X163233552Y-107472729D01*
X163204222Y-107436991D01*
X163136244Y-107309814D01*
X163120557Y-107280467D01*
X163069926Y-107113557D01*
X163069037Y-107110627D01*
X163051641Y-106934000D01*
X163069037Y-106757373D01*
X163120557Y-106587534D01*
X163120557Y-106587533D01*
X163204221Y-106431011D01*
X163204222Y-106431009D01*
X163233552Y-106395271D01*
X163316814Y-106293814D01*
X163418271Y-106210552D01*
X163454009Y-106181222D01*
X163488515Y-106162778D01*
X163610533Y-106097557D01*
X163667147Y-106080384D01*
X163780373Y-106046037D01*
X163846557Y-106039519D01*
X163912740Y-106033000D01*
X164001260Y-106033000D01*
X164067443Y-106039519D01*
X164067443Y-106039519D01*
G37*
G36*
X123808443Y-104515519D02*
X123874627Y-104522037D01*
X123987853Y-104556384D01*
X124044467Y-104573557D01*
X124183087Y-104647652D01*
X124200991Y-104657222D01*
X124236729Y-104686552D01*
X124338186Y-104769814D01*
X124421448Y-104871271D01*
X124450778Y-104907009D01*
X124450779Y-104907011D01*
X124534443Y-105063533D01*
X124534443Y-105063534D01*
X124585963Y-105233373D01*
X124603359Y-105410000D01*
X124585963Y-105586627D01*
X124551616Y-105699853D01*
X124534443Y-105756467D01*
X124460348Y-105895087D01*
X124450778Y-105912991D01*
X124421448Y-105948729D01*
X124338186Y-106050186D01*
X124267738Y-106108000D01*
X124200991Y-106162778D01*
X124200989Y-106162779D01*
X124044467Y-106246443D01*
X123987853Y-106263616D01*
X123874627Y-106297963D01*
X123808442Y-106304482D01*
X123742260Y-106311000D01*
X123653740Y-106311000D01*
X123587558Y-106304482D01*
X123521373Y-106297963D01*
X123408147Y-106263616D01*
X123351533Y-106246443D01*
X123195011Y-106162779D01*
X123195009Y-106162778D01*
X123128262Y-106108000D01*
X123057814Y-106050186D01*
X122974552Y-105948729D01*
X122945222Y-105912991D01*
X122935652Y-105895087D01*
X122861557Y-105756467D01*
X122844384Y-105699853D01*
X122810037Y-105586627D01*
X122792641Y-105410000D01*
X122810037Y-105233373D01*
X122861557Y-105063534D01*
X122861557Y-105063533D01*
X122945221Y-104907011D01*
X122945222Y-104907009D01*
X122974552Y-104871271D01*
X123057814Y-104769814D01*
X123159271Y-104686552D01*
X123195009Y-104657222D01*
X123212913Y-104647652D01*
X123351533Y-104573557D01*
X123408147Y-104556384D01*
X123521373Y-104522037D01*
X123587557Y-104515519D01*
X123653740Y-104509000D01*
X123742260Y-104509000D01*
X123808443Y-104515519D01*
X123808443Y-104515519D01*
G37*
G36*
X126348443Y-104515519D02*
X126414627Y-104522037D01*
X126527853Y-104556384D01*
X126584467Y-104573557D01*
X126723087Y-104647652D01*
X126740991Y-104657222D01*
X126776729Y-104686552D01*
X126878186Y-104769814D01*
X126961448Y-104871271D01*
X126990778Y-104907009D01*
X126990779Y-104907011D01*
X127074443Y-105063533D01*
X127074443Y-105063534D01*
X127125963Y-105233373D01*
X127143359Y-105410000D01*
X127125963Y-105586627D01*
X127091616Y-105699853D01*
X127074443Y-105756467D01*
X127000348Y-105895087D01*
X126990778Y-105912991D01*
X126961448Y-105948729D01*
X126878186Y-106050186D01*
X126807738Y-106108000D01*
X126740991Y-106162778D01*
X126740989Y-106162779D01*
X126584467Y-106246443D01*
X126527853Y-106263616D01*
X126414627Y-106297963D01*
X126348442Y-106304482D01*
X126282260Y-106311000D01*
X126193740Y-106311000D01*
X126127558Y-106304482D01*
X126061373Y-106297963D01*
X125948147Y-106263616D01*
X125891533Y-106246443D01*
X125735011Y-106162779D01*
X125735009Y-106162778D01*
X125668262Y-106108000D01*
X125597814Y-106050186D01*
X125514552Y-105948729D01*
X125485222Y-105912991D01*
X125475652Y-105895087D01*
X125401557Y-105756467D01*
X125384384Y-105699853D01*
X125350037Y-105586627D01*
X125332641Y-105410000D01*
X125350037Y-105233373D01*
X125401557Y-105063534D01*
X125401557Y-105063533D01*
X125485221Y-104907011D01*
X125485222Y-104907009D01*
X125514552Y-104871271D01*
X125597814Y-104769814D01*
X125699271Y-104686552D01*
X125735009Y-104657222D01*
X125752913Y-104647652D01*
X125891533Y-104573557D01*
X125948147Y-104556384D01*
X126061373Y-104522037D01*
X126127557Y-104515519D01*
X126193740Y-104509000D01*
X126282260Y-104509000D01*
X126348443Y-104515519D01*
X126348443Y-104515519D01*
G37*
G36*
X131107000Y-106108000D02*
X130005000Y-106108000D01*
X130005000Y-105006000D01*
X131107000Y-105006000D01*
X131107000Y-106108000D01*
X131107000Y-106108000D01*
G37*
G36*
X157269000Y-106108000D02*
X156167000Y-106108000D01*
X156167000Y-105006000D01*
X157269000Y-105006000D01*
X157269000Y-106108000D01*
X157269000Y-106108000D01*
G37*
G36*
X153840000Y-106108000D02*
X152738000Y-106108000D01*
X152738000Y-105006000D01*
X153840000Y-105006000D01*
X153840000Y-106108000D01*
X153840000Y-106108000D01*
G37*
G36*
X150538000Y-106108000D02*
X149436000Y-106108000D01*
X149436000Y-105006000D01*
X150538000Y-105006000D01*
X150538000Y-106108000D01*
X150538000Y-106108000D01*
G37*
G36*
X147236000Y-106108000D02*
X146134000Y-106108000D01*
X146134000Y-105006000D01*
X147236000Y-105006000D01*
X147236000Y-106108000D01*
X147236000Y-106108000D01*
G37*
G36*
X134536000Y-106108000D02*
X133434000Y-106108000D01*
X133434000Y-105006000D01*
X134536000Y-105006000D01*
X134536000Y-106108000D01*
X134536000Y-106108000D01*
G37*
G36*
X137965000Y-106108000D02*
X136863000Y-106108000D01*
X136863000Y-105006000D01*
X137965000Y-105006000D01*
X137965000Y-106108000D01*
X137965000Y-106108000D01*
G37*
G36*
X141394000Y-106108000D02*
X140292000Y-106108000D01*
X140292000Y-105006000D01*
X141394000Y-105006000D01*
X141394000Y-106108000D01*
X141394000Y-106108000D01*
G37*
G36*
X161527442Y-103499518D02*
X161593627Y-103506037D01*
X161706853Y-103540384D01*
X161763467Y-103557557D01*
X161885485Y-103622778D01*
X161919991Y-103641222D01*
X161955729Y-103670552D01*
X162057186Y-103753814D01*
X162140448Y-103855271D01*
X162169778Y-103891009D01*
X162169779Y-103891011D01*
X162253443Y-104047533D01*
X162253443Y-104047534D01*
X162304963Y-104217373D01*
X162322359Y-104394000D01*
X162304963Y-104570627D01*
X162304074Y-104573557D01*
X162253443Y-104740467D01*
X162237756Y-104769814D01*
X162169778Y-104896991D01*
X162140448Y-104932729D01*
X162057186Y-105034186D01*
X161955729Y-105117448D01*
X161919991Y-105146778D01*
X161919989Y-105146779D01*
X161763467Y-105230443D01*
X161706853Y-105247616D01*
X161593627Y-105281963D01*
X161527443Y-105288481D01*
X161461260Y-105295000D01*
X161372740Y-105295000D01*
X161306558Y-105288482D01*
X161240373Y-105281963D01*
X161127147Y-105247616D01*
X161070533Y-105230443D01*
X160914011Y-105146779D01*
X160914009Y-105146778D01*
X160878271Y-105117448D01*
X160776814Y-105034186D01*
X160693552Y-104932729D01*
X160664222Y-104896991D01*
X160596244Y-104769814D01*
X160580557Y-104740467D01*
X160529926Y-104573557D01*
X160529037Y-104570627D01*
X160511641Y-104394000D01*
X160529037Y-104217373D01*
X160580557Y-104047534D01*
X160580557Y-104047533D01*
X160664221Y-103891011D01*
X160664222Y-103891009D01*
X160693552Y-103855271D01*
X160776814Y-103753814D01*
X160878271Y-103670552D01*
X160914009Y-103641222D01*
X160948515Y-103622778D01*
X161070533Y-103557557D01*
X161127147Y-103540384D01*
X161240373Y-103506037D01*
X161306557Y-103499519D01*
X161372740Y-103493000D01*
X161461260Y-103493000D01*
X161527442Y-103499518D01*
X161527442Y-103499518D01*
G37*
G36*
X164067442Y-103499518D02*
X164133627Y-103506037D01*
X164246853Y-103540384D01*
X164303467Y-103557557D01*
X164425485Y-103622778D01*
X164459991Y-103641222D01*
X164495729Y-103670552D01*
X164597186Y-103753814D01*
X164680448Y-103855271D01*
X164709778Y-103891009D01*
X164709779Y-103891011D01*
X164793443Y-104047533D01*
X164793443Y-104047534D01*
X164844963Y-104217373D01*
X164862359Y-104394000D01*
X164844963Y-104570627D01*
X164844074Y-104573557D01*
X164793443Y-104740467D01*
X164777756Y-104769814D01*
X164709778Y-104896991D01*
X164680448Y-104932729D01*
X164597186Y-105034186D01*
X164495729Y-105117448D01*
X164459991Y-105146778D01*
X164459989Y-105146779D01*
X164303467Y-105230443D01*
X164246853Y-105247616D01*
X164133627Y-105281963D01*
X164067443Y-105288481D01*
X164001260Y-105295000D01*
X163912740Y-105295000D01*
X163846558Y-105288482D01*
X163780373Y-105281963D01*
X163667147Y-105247616D01*
X163610533Y-105230443D01*
X163454011Y-105146779D01*
X163454009Y-105146778D01*
X163418271Y-105117448D01*
X163316814Y-105034186D01*
X163233552Y-104932729D01*
X163204222Y-104896991D01*
X163136244Y-104769814D01*
X163120557Y-104740467D01*
X163069926Y-104573557D01*
X163069037Y-104570627D01*
X163051641Y-104394000D01*
X163069037Y-104217373D01*
X163120557Y-104047534D01*
X163120557Y-104047533D01*
X163204221Y-103891011D01*
X163204222Y-103891009D01*
X163233552Y-103855271D01*
X163316814Y-103753814D01*
X163418271Y-103670552D01*
X163454009Y-103641222D01*
X163488515Y-103622778D01*
X163610533Y-103557557D01*
X163667147Y-103540384D01*
X163780373Y-103506037D01*
X163846557Y-103499519D01*
X163912740Y-103493000D01*
X164001260Y-103493000D01*
X164067442Y-103499518D01*
X164067442Y-103499518D01*
G37*
G36*
X123808442Y-101975518D02*
X123874627Y-101982037D01*
X123987853Y-102016384D01*
X124044467Y-102033557D01*
X124183087Y-102107652D01*
X124200991Y-102117222D01*
X124236729Y-102146552D01*
X124338186Y-102229814D01*
X124421448Y-102331271D01*
X124450778Y-102367009D01*
X124450779Y-102367011D01*
X124534443Y-102523533D01*
X124534443Y-102523534D01*
X124585963Y-102693373D01*
X124603359Y-102870000D01*
X124585963Y-103046627D01*
X124551616Y-103159853D01*
X124534443Y-103216467D01*
X124460348Y-103355087D01*
X124450778Y-103372991D01*
X124421448Y-103408729D01*
X124338186Y-103510186D01*
X124236729Y-103593448D01*
X124200991Y-103622778D01*
X124200989Y-103622779D01*
X124044467Y-103706443D01*
X123987853Y-103723616D01*
X123874627Y-103757963D01*
X123808443Y-103764481D01*
X123742260Y-103771000D01*
X123653740Y-103771000D01*
X123587557Y-103764481D01*
X123521373Y-103757963D01*
X123408147Y-103723616D01*
X123351533Y-103706443D01*
X123195011Y-103622779D01*
X123195009Y-103622778D01*
X123159271Y-103593448D01*
X123057814Y-103510186D01*
X122974552Y-103408729D01*
X122945222Y-103372991D01*
X122935652Y-103355087D01*
X122861557Y-103216467D01*
X122844384Y-103159853D01*
X122810037Y-103046627D01*
X122792641Y-102870000D01*
X122810037Y-102693373D01*
X122861557Y-102523534D01*
X122861557Y-102523533D01*
X122945221Y-102367011D01*
X122945222Y-102367009D01*
X122974552Y-102331271D01*
X123057814Y-102229814D01*
X123159271Y-102146552D01*
X123195009Y-102117222D01*
X123212913Y-102107652D01*
X123351533Y-102033557D01*
X123408147Y-102016384D01*
X123521373Y-101982037D01*
X123587558Y-101975518D01*
X123653740Y-101969000D01*
X123742260Y-101969000D01*
X123808442Y-101975518D01*
X123808442Y-101975518D01*
G37*
G36*
X126348442Y-101975518D02*
X126414627Y-101982037D01*
X126527853Y-102016384D01*
X126584467Y-102033557D01*
X126723087Y-102107652D01*
X126740991Y-102117222D01*
X126776729Y-102146552D01*
X126878186Y-102229814D01*
X126961448Y-102331271D01*
X126990778Y-102367009D01*
X126990779Y-102367011D01*
X127074443Y-102523533D01*
X127074443Y-102523534D01*
X127125963Y-102693373D01*
X127143359Y-102870000D01*
X127125963Y-103046627D01*
X127091616Y-103159853D01*
X127074443Y-103216467D01*
X127000348Y-103355087D01*
X126990778Y-103372991D01*
X126961448Y-103408729D01*
X126878186Y-103510186D01*
X126776729Y-103593448D01*
X126740991Y-103622778D01*
X126740989Y-103622779D01*
X126584467Y-103706443D01*
X126527853Y-103723616D01*
X126414627Y-103757963D01*
X126348443Y-103764481D01*
X126282260Y-103771000D01*
X126193740Y-103771000D01*
X126127557Y-103764481D01*
X126061373Y-103757963D01*
X125948147Y-103723616D01*
X125891533Y-103706443D01*
X125735011Y-103622779D01*
X125735009Y-103622778D01*
X125699271Y-103593448D01*
X125597814Y-103510186D01*
X125514552Y-103408729D01*
X125485222Y-103372991D01*
X125475652Y-103355087D01*
X125401557Y-103216467D01*
X125384384Y-103159853D01*
X125350037Y-103046627D01*
X125332641Y-102870000D01*
X125350037Y-102693373D01*
X125401557Y-102523534D01*
X125401557Y-102523533D01*
X125485221Y-102367011D01*
X125485222Y-102367009D01*
X125514552Y-102331271D01*
X125597814Y-102229814D01*
X125699271Y-102146552D01*
X125735009Y-102117222D01*
X125752913Y-102107652D01*
X125891533Y-102033557D01*
X125948147Y-102016384D01*
X126061373Y-101982037D01*
X126127558Y-101975518D01*
X126193740Y-101969000D01*
X126282260Y-101969000D01*
X126348442Y-101975518D01*
X126348442Y-101975518D01*
G37*
G36*
X161527443Y-100959519D02*
X161593627Y-100966037D01*
X161706853Y-101000384D01*
X161763467Y-101017557D01*
X161885485Y-101082778D01*
X161919991Y-101101222D01*
X161955729Y-101130552D01*
X162057186Y-101213814D01*
X162140448Y-101315271D01*
X162169778Y-101351009D01*
X162169779Y-101351011D01*
X162253443Y-101507533D01*
X162253443Y-101507534D01*
X162304963Y-101677373D01*
X162322359Y-101854000D01*
X162304963Y-102030627D01*
X162304074Y-102033557D01*
X162253443Y-102200467D01*
X162237756Y-102229814D01*
X162169778Y-102356991D01*
X162140448Y-102392729D01*
X162057186Y-102494186D01*
X161955729Y-102577448D01*
X161919991Y-102606778D01*
X161919989Y-102606779D01*
X161763467Y-102690443D01*
X161706853Y-102707616D01*
X161593627Y-102741963D01*
X161527442Y-102748482D01*
X161461260Y-102755000D01*
X161372740Y-102755000D01*
X161306557Y-102748481D01*
X161240373Y-102741963D01*
X161127147Y-102707616D01*
X161070533Y-102690443D01*
X160914011Y-102606779D01*
X160914009Y-102606778D01*
X160878271Y-102577448D01*
X160776814Y-102494186D01*
X160693552Y-102392729D01*
X160664222Y-102356991D01*
X160596244Y-102229814D01*
X160580557Y-102200467D01*
X160529926Y-102033557D01*
X160529037Y-102030627D01*
X160511641Y-101854000D01*
X160529037Y-101677373D01*
X160580557Y-101507534D01*
X160580557Y-101507533D01*
X160664221Y-101351011D01*
X160664222Y-101351009D01*
X160693552Y-101315271D01*
X160776814Y-101213814D01*
X160878271Y-101130552D01*
X160914009Y-101101222D01*
X160948515Y-101082778D01*
X161070533Y-101017557D01*
X161127147Y-101000384D01*
X161240373Y-100966037D01*
X161306558Y-100959518D01*
X161372740Y-100953000D01*
X161461260Y-100953000D01*
X161527443Y-100959519D01*
X161527443Y-100959519D01*
G37*
G36*
X164067443Y-100959519D02*
X164133627Y-100966037D01*
X164246853Y-101000384D01*
X164303467Y-101017557D01*
X164425485Y-101082778D01*
X164459991Y-101101222D01*
X164495729Y-101130552D01*
X164597186Y-101213814D01*
X164680448Y-101315271D01*
X164709778Y-101351009D01*
X164709779Y-101351011D01*
X164793443Y-101507533D01*
X164793443Y-101507534D01*
X164844963Y-101677373D01*
X164862359Y-101854000D01*
X164844963Y-102030627D01*
X164844074Y-102033557D01*
X164793443Y-102200467D01*
X164777756Y-102229814D01*
X164709778Y-102356991D01*
X164680448Y-102392729D01*
X164597186Y-102494186D01*
X164495729Y-102577448D01*
X164459991Y-102606778D01*
X164459989Y-102606779D01*
X164303467Y-102690443D01*
X164246853Y-102707616D01*
X164133627Y-102741963D01*
X164067442Y-102748482D01*
X164001260Y-102755000D01*
X163912740Y-102755000D01*
X163846557Y-102748481D01*
X163780373Y-102741963D01*
X163667147Y-102707616D01*
X163610533Y-102690443D01*
X163454011Y-102606779D01*
X163454009Y-102606778D01*
X163418271Y-102577448D01*
X163316814Y-102494186D01*
X163233552Y-102392729D01*
X163204222Y-102356991D01*
X163136244Y-102229814D01*
X163120557Y-102200467D01*
X163069926Y-102033557D01*
X163069037Y-102030627D01*
X163051641Y-101854000D01*
X163069037Y-101677373D01*
X163120557Y-101507534D01*
X163120557Y-101507533D01*
X163204221Y-101351011D01*
X163204222Y-101351009D01*
X163233552Y-101315271D01*
X163316814Y-101213814D01*
X163418271Y-101130552D01*
X163454009Y-101101222D01*
X163488515Y-101082778D01*
X163610533Y-101017557D01*
X163667147Y-101000384D01*
X163780373Y-100966037D01*
X163846558Y-100959518D01*
X163912740Y-100953000D01*
X164001260Y-100953000D01*
X164067443Y-100959519D01*
X164067443Y-100959519D01*
G37*
G36*
X151128591Y-100633085D02*
X151162569Y-100643393D01*
X151193887Y-100660133D01*
X151221339Y-100682661D01*
X151243867Y-100710113D01*
X151260607Y-100741431D01*
X151270915Y-100775409D01*
X151275000Y-100816890D01*
X151275000Y-101418110D01*
X151270915Y-101459591D01*
X151260607Y-101493569D01*
X151243867Y-101524887D01*
X151221339Y-101552339D01*
X151193887Y-101574867D01*
X151162569Y-101591607D01*
X151128591Y-101601915D01*
X151087110Y-101606000D01*
X150410890Y-101606000D01*
X150369409Y-101601915D01*
X150335431Y-101591607D01*
X150304113Y-101574867D01*
X150276661Y-101552339D01*
X150254133Y-101524887D01*
X150237393Y-101493569D01*
X150227085Y-101459591D01*
X150223000Y-101418110D01*
X150223000Y-100816890D01*
X150227085Y-100775409D01*
X150237393Y-100741431D01*
X150254133Y-100710113D01*
X150276661Y-100682661D01*
X150304113Y-100660133D01*
X150335431Y-100643393D01*
X150369409Y-100633085D01*
X150410890Y-100629000D01*
X151087110Y-100629000D01*
X151128591Y-100633085D01*
X151128591Y-100633085D01*
G37*
G36*
X141730591Y-100633085D02*
X141764569Y-100643393D01*
X141795887Y-100660133D01*
X141823339Y-100682661D01*
X141845867Y-100710113D01*
X141862607Y-100741431D01*
X141872915Y-100775409D01*
X141877000Y-100816890D01*
X141877000Y-101418110D01*
X141872915Y-101459591D01*
X141862607Y-101493569D01*
X141845867Y-101524887D01*
X141823339Y-101552339D01*
X141795887Y-101574867D01*
X141764569Y-101591607D01*
X141730591Y-101601915D01*
X141689110Y-101606000D01*
X141012890Y-101606000D01*
X140971409Y-101601915D01*
X140937431Y-101591607D01*
X140906113Y-101574867D01*
X140878661Y-101552339D01*
X140856133Y-101524887D01*
X140839393Y-101493569D01*
X140829085Y-101459591D01*
X140825000Y-101418110D01*
X140825000Y-100816890D01*
X140829085Y-100775409D01*
X140839393Y-100741431D01*
X140856133Y-100710113D01*
X140878661Y-100682661D01*
X140906113Y-100660133D01*
X140937431Y-100643393D01*
X140971409Y-100633085D01*
X141012890Y-100629000D01*
X141689110Y-100629000D01*
X141730591Y-100633085D01*
X141730591Y-100633085D01*
G37*
G36*
X139825591Y-100633085D02*
X139859569Y-100643393D01*
X139890887Y-100660133D01*
X139918339Y-100682661D01*
X139940867Y-100710113D01*
X139957607Y-100741431D01*
X139967915Y-100775409D01*
X139972000Y-100816890D01*
X139972000Y-101418110D01*
X139967915Y-101459591D01*
X139957607Y-101493569D01*
X139940867Y-101524887D01*
X139918339Y-101552339D01*
X139890887Y-101574867D01*
X139859569Y-101591607D01*
X139825591Y-101601915D01*
X139784110Y-101606000D01*
X139107890Y-101606000D01*
X139066409Y-101601915D01*
X139032431Y-101591607D01*
X139001113Y-101574867D01*
X138973661Y-101552339D01*
X138951133Y-101524887D01*
X138934393Y-101493569D01*
X138924085Y-101459591D01*
X138920000Y-101418110D01*
X138920000Y-100816890D01*
X138924085Y-100775409D01*
X138934393Y-100741431D01*
X138951133Y-100710113D01*
X138973661Y-100682661D01*
X139001113Y-100660133D01*
X139032431Y-100643393D01*
X139066409Y-100633085D01*
X139107890Y-100629000D01*
X139784110Y-100629000D01*
X139825591Y-100633085D01*
X139825591Y-100633085D01*
G37*
G36*
X136015591Y-100633085D02*
X136049569Y-100643393D01*
X136080887Y-100660133D01*
X136108339Y-100682661D01*
X136130867Y-100710113D01*
X136147607Y-100741431D01*
X136157915Y-100775409D01*
X136162000Y-100816890D01*
X136162000Y-101418110D01*
X136157915Y-101459591D01*
X136147607Y-101493569D01*
X136130867Y-101524887D01*
X136108339Y-101552339D01*
X136080887Y-101574867D01*
X136049569Y-101591607D01*
X136015591Y-101601915D01*
X135974110Y-101606000D01*
X135297890Y-101606000D01*
X135256409Y-101601915D01*
X135222431Y-101591607D01*
X135191113Y-101574867D01*
X135163661Y-101552339D01*
X135141133Y-101524887D01*
X135124393Y-101493569D01*
X135114085Y-101459591D01*
X135110000Y-101418110D01*
X135110000Y-100816890D01*
X135114085Y-100775409D01*
X135124393Y-100741431D01*
X135141133Y-100710113D01*
X135163661Y-100682661D01*
X135191113Y-100660133D01*
X135222431Y-100643393D01*
X135256409Y-100633085D01*
X135297890Y-100629000D01*
X135974110Y-100629000D01*
X136015591Y-100633085D01*
X136015591Y-100633085D01*
G37*
G36*
X137920591Y-100633085D02*
X137954569Y-100643393D01*
X137985887Y-100660133D01*
X138013339Y-100682661D01*
X138035867Y-100710113D01*
X138052607Y-100741431D01*
X138062915Y-100775409D01*
X138067000Y-100816890D01*
X138067000Y-101418110D01*
X138062915Y-101459591D01*
X138052607Y-101493569D01*
X138035867Y-101524887D01*
X138013339Y-101552339D01*
X137985887Y-101574867D01*
X137954569Y-101591607D01*
X137920591Y-101601915D01*
X137879110Y-101606000D01*
X137202890Y-101606000D01*
X137161409Y-101601915D01*
X137127431Y-101591607D01*
X137096113Y-101574867D01*
X137068661Y-101552339D01*
X137046133Y-101524887D01*
X137029393Y-101493569D01*
X137019085Y-101459591D01*
X137015000Y-101418110D01*
X137015000Y-100816890D01*
X137019085Y-100775409D01*
X137029393Y-100741431D01*
X137046133Y-100710113D01*
X137068661Y-100682661D01*
X137096113Y-100660133D01*
X137127431Y-100643393D01*
X137161409Y-100633085D01*
X137202890Y-100629000D01*
X137879110Y-100629000D01*
X137920591Y-100633085D01*
X137920591Y-100633085D01*
G37*
G36*
X153160591Y-100633085D02*
X153194569Y-100643393D01*
X153225887Y-100660133D01*
X153253339Y-100682661D01*
X153275867Y-100710113D01*
X153292607Y-100741431D01*
X153302915Y-100775409D01*
X153307000Y-100816890D01*
X153307000Y-101418110D01*
X153302915Y-101459591D01*
X153292607Y-101493569D01*
X153275867Y-101524887D01*
X153253339Y-101552339D01*
X153225887Y-101574867D01*
X153194569Y-101591607D01*
X153160591Y-101601915D01*
X153119110Y-101606000D01*
X152442890Y-101606000D01*
X152401409Y-101601915D01*
X152367431Y-101591607D01*
X152336113Y-101574867D01*
X152308661Y-101552339D01*
X152286133Y-101524887D01*
X152269393Y-101493569D01*
X152259085Y-101459591D01*
X152255000Y-101418110D01*
X152255000Y-100816890D01*
X152259085Y-100775409D01*
X152269393Y-100741431D01*
X152286133Y-100710113D01*
X152308661Y-100682661D01*
X152336113Y-100660133D01*
X152367431Y-100643393D01*
X152401409Y-100633085D01*
X152442890Y-100629000D01*
X153119110Y-100629000D01*
X153160591Y-100633085D01*
X153160591Y-100633085D01*
G37*
G36*
X155192591Y-100633085D02*
X155226569Y-100643393D01*
X155257887Y-100660133D01*
X155285339Y-100682661D01*
X155307867Y-100710113D01*
X155324607Y-100741431D01*
X155334915Y-100775409D01*
X155339000Y-100816890D01*
X155339000Y-101418110D01*
X155334915Y-101459591D01*
X155324607Y-101493569D01*
X155307867Y-101524887D01*
X155285339Y-101552339D01*
X155257887Y-101574867D01*
X155226569Y-101591607D01*
X155192591Y-101601915D01*
X155151110Y-101606000D01*
X154474890Y-101606000D01*
X154433409Y-101601915D01*
X154399431Y-101591607D01*
X154368113Y-101574867D01*
X154340661Y-101552339D01*
X154318133Y-101524887D01*
X154301393Y-101493569D01*
X154291085Y-101459591D01*
X154287000Y-101418110D01*
X154287000Y-100816890D01*
X154291085Y-100775409D01*
X154301393Y-100741431D01*
X154318133Y-100710113D01*
X154340661Y-100682661D01*
X154368113Y-100660133D01*
X154399431Y-100643393D01*
X154433409Y-100633085D01*
X154474890Y-100629000D01*
X155151110Y-100629000D01*
X155192591Y-100633085D01*
X155192591Y-100633085D01*
G37*
G36*
X157097591Y-100633085D02*
X157131569Y-100643393D01*
X157162887Y-100660133D01*
X157190339Y-100682661D01*
X157212867Y-100710113D01*
X157229607Y-100741431D01*
X157239915Y-100775409D01*
X157244000Y-100816890D01*
X157244000Y-101418110D01*
X157239915Y-101459591D01*
X157229607Y-101493569D01*
X157212867Y-101524887D01*
X157190339Y-101552339D01*
X157162887Y-101574867D01*
X157131569Y-101591607D01*
X157097591Y-101601915D01*
X157056110Y-101606000D01*
X156379890Y-101606000D01*
X156338409Y-101601915D01*
X156304431Y-101591607D01*
X156273113Y-101574867D01*
X156245661Y-101552339D01*
X156223133Y-101524887D01*
X156206393Y-101493569D01*
X156196085Y-101459591D01*
X156192000Y-101418110D01*
X156192000Y-100816890D01*
X156196085Y-100775409D01*
X156206393Y-100741431D01*
X156223133Y-100710113D01*
X156245661Y-100682661D01*
X156273113Y-100660133D01*
X156304431Y-100643393D01*
X156338409Y-100633085D01*
X156379890Y-100629000D01*
X157056110Y-100629000D01*
X157097591Y-100633085D01*
X157097591Y-100633085D01*
G37*
G36*
X123808443Y-99435519D02*
X123874627Y-99442037D01*
X123987853Y-99476384D01*
X124044467Y-99493557D01*
X124183087Y-99567652D01*
X124200991Y-99577222D01*
X124236729Y-99606552D01*
X124338186Y-99689814D01*
X124417738Y-99786750D01*
X124450778Y-99827009D01*
X124450779Y-99827011D01*
X124534443Y-99983533D01*
X124548842Y-100031000D01*
X124585963Y-100153373D01*
X124603359Y-100330000D01*
X124585963Y-100506627D01*
X124551616Y-100619853D01*
X124534443Y-100676467D01*
X124479220Y-100779780D01*
X124450778Y-100832991D01*
X124421448Y-100868729D01*
X124338186Y-100970186D01*
X124236729Y-101053448D01*
X124200991Y-101082778D01*
X124200989Y-101082779D01*
X124044467Y-101166443D01*
X123987853Y-101183616D01*
X123874627Y-101217963D01*
X123808443Y-101224481D01*
X123742260Y-101231000D01*
X123653740Y-101231000D01*
X123587558Y-101224482D01*
X123521373Y-101217963D01*
X123408147Y-101183616D01*
X123351533Y-101166443D01*
X123195011Y-101082779D01*
X123195009Y-101082778D01*
X123159271Y-101053448D01*
X123057814Y-100970186D01*
X122974552Y-100868729D01*
X122945222Y-100832991D01*
X122916780Y-100779780D01*
X122861557Y-100676467D01*
X122844384Y-100619853D01*
X122810037Y-100506627D01*
X122792641Y-100330000D01*
X122810037Y-100153373D01*
X122847158Y-100031000D01*
X122861557Y-99983533D01*
X122945221Y-99827011D01*
X122945222Y-99827009D01*
X122978262Y-99786750D01*
X123057814Y-99689814D01*
X123159271Y-99606552D01*
X123195009Y-99577222D01*
X123212913Y-99567652D01*
X123351533Y-99493557D01*
X123408147Y-99476384D01*
X123521373Y-99442037D01*
X123587558Y-99435518D01*
X123653740Y-99429000D01*
X123742260Y-99429000D01*
X123808443Y-99435519D01*
X123808443Y-99435519D01*
G37*
G36*
X126348443Y-99435519D02*
X126414627Y-99442037D01*
X126527853Y-99476384D01*
X126584467Y-99493557D01*
X126723087Y-99567652D01*
X126740991Y-99577222D01*
X126776729Y-99606552D01*
X126878186Y-99689814D01*
X126957738Y-99786750D01*
X126990778Y-99827009D01*
X126990779Y-99827011D01*
X127074443Y-99983533D01*
X127088842Y-100031000D01*
X127125963Y-100153373D01*
X127143359Y-100330000D01*
X127125963Y-100506627D01*
X127091616Y-100619853D01*
X127074443Y-100676467D01*
X127019220Y-100779780D01*
X126990778Y-100832991D01*
X126961448Y-100868729D01*
X126878186Y-100970186D01*
X126776729Y-101053448D01*
X126740991Y-101082778D01*
X126740989Y-101082779D01*
X126584467Y-101166443D01*
X126527853Y-101183616D01*
X126414627Y-101217963D01*
X126348443Y-101224481D01*
X126282260Y-101231000D01*
X126193740Y-101231000D01*
X126127558Y-101224482D01*
X126061373Y-101217963D01*
X125948147Y-101183616D01*
X125891533Y-101166443D01*
X125735011Y-101082779D01*
X125735009Y-101082778D01*
X125699271Y-101053448D01*
X125597814Y-100970186D01*
X125514552Y-100868729D01*
X125485222Y-100832991D01*
X125456780Y-100779780D01*
X125401557Y-100676467D01*
X125384384Y-100619853D01*
X125350037Y-100506627D01*
X125332641Y-100330000D01*
X125350037Y-100153373D01*
X125387158Y-100031000D01*
X125401557Y-99983533D01*
X125485221Y-99827011D01*
X125485222Y-99827009D01*
X125518262Y-99786750D01*
X125597814Y-99689814D01*
X125699271Y-99606552D01*
X125735009Y-99577222D01*
X125752913Y-99567652D01*
X125891533Y-99493557D01*
X125948147Y-99476384D01*
X126061373Y-99442037D01*
X126127558Y-99435518D01*
X126193740Y-99429000D01*
X126282260Y-99429000D01*
X126348443Y-99435519D01*
X126348443Y-99435519D01*
G37*
G36*
X161527443Y-98419519D02*
X161593627Y-98426037D01*
X161706853Y-98460384D01*
X161763467Y-98477557D01*
X161885485Y-98542778D01*
X161919991Y-98561222D01*
X161955729Y-98590552D01*
X162057186Y-98673814D01*
X162140448Y-98775271D01*
X162169778Y-98811009D01*
X162169779Y-98811011D01*
X162253443Y-98967533D01*
X162253443Y-98967534D01*
X162304963Y-99137373D01*
X162322359Y-99314000D01*
X162304963Y-99490627D01*
X162304074Y-99493557D01*
X162253443Y-99660467D01*
X162237756Y-99689814D01*
X162169778Y-99816991D01*
X162140448Y-99852729D01*
X162057186Y-99954186D01*
X161969305Y-100026307D01*
X161919991Y-100066778D01*
X161919989Y-100066779D01*
X161763467Y-100150443D01*
X161706853Y-100167616D01*
X161593627Y-100201963D01*
X161527442Y-100208482D01*
X161461260Y-100215000D01*
X161372740Y-100215000D01*
X161306558Y-100208482D01*
X161240373Y-100201963D01*
X161127147Y-100167616D01*
X161070533Y-100150443D01*
X160914011Y-100066779D01*
X160914009Y-100066778D01*
X160864695Y-100026307D01*
X160776814Y-99954186D01*
X160693552Y-99852729D01*
X160664222Y-99816991D01*
X160596244Y-99689814D01*
X160580557Y-99660467D01*
X160529926Y-99493557D01*
X160529037Y-99490627D01*
X160511641Y-99314000D01*
X160529037Y-99137373D01*
X160580557Y-98967534D01*
X160580557Y-98967533D01*
X160664221Y-98811011D01*
X160664222Y-98811009D01*
X160693552Y-98775271D01*
X160776814Y-98673814D01*
X160878271Y-98590552D01*
X160914009Y-98561222D01*
X160948515Y-98542778D01*
X161070533Y-98477557D01*
X161127147Y-98460384D01*
X161240373Y-98426037D01*
X161306557Y-98419519D01*
X161372740Y-98413000D01*
X161461260Y-98413000D01*
X161527443Y-98419519D01*
X161527443Y-98419519D01*
G37*
G36*
X164067443Y-98419519D02*
X164133627Y-98426037D01*
X164246853Y-98460384D01*
X164303467Y-98477557D01*
X164425485Y-98542778D01*
X164459991Y-98561222D01*
X164495729Y-98590552D01*
X164597186Y-98673814D01*
X164680448Y-98775271D01*
X164709778Y-98811009D01*
X164709779Y-98811011D01*
X164793443Y-98967533D01*
X164793443Y-98967534D01*
X164844963Y-99137373D01*
X164862359Y-99314000D01*
X164844963Y-99490627D01*
X164844074Y-99493557D01*
X164793443Y-99660467D01*
X164777756Y-99689814D01*
X164709778Y-99816991D01*
X164680448Y-99852729D01*
X164597186Y-99954186D01*
X164509305Y-100026307D01*
X164459991Y-100066778D01*
X164459989Y-100066779D01*
X164303467Y-100150443D01*
X164246853Y-100167616D01*
X164133627Y-100201963D01*
X164067442Y-100208482D01*
X164001260Y-100215000D01*
X163912740Y-100215000D01*
X163846558Y-100208482D01*
X163780373Y-100201963D01*
X163667147Y-100167616D01*
X163610533Y-100150443D01*
X163454011Y-100066779D01*
X163454009Y-100066778D01*
X163404695Y-100026307D01*
X163316814Y-99954186D01*
X163233552Y-99852729D01*
X163204222Y-99816991D01*
X163136244Y-99689814D01*
X163120557Y-99660467D01*
X163069926Y-99493557D01*
X163069037Y-99490627D01*
X163051641Y-99314000D01*
X163069037Y-99137373D01*
X163120557Y-98967534D01*
X163120557Y-98967533D01*
X163204221Y-98811011D01*
X163204222Y-98811009D01*
X163233552Y-98775271D01*
X163316814Y-98673814D01*
X163418271Y-98590552D01*
X163454009Y-98561222D01*
X163488515Y-98542778D01*
X163610533Y-98477557D01*
X163667147Y-98460384D01*
X163780373Y-98426037D01*
X163846557Y-98419519D01*
X163912740Y-98413000D01*
X164001260Y-98413000D01*
X164067443Y-98419519D01*
X164067443Y-98419519D01*
G37*
G36*
X136015591Y-99058085D02*
X136049569Y-99068393D01*
X136080887Y-99085133D01*
X136108339Y-99107661D01*
X136130867Y-99135113D01*
X136147607Y-99166431D01*
X136157915Y-99200409D01*
X136162000Y-99241890D01*
X136162000Y-99843110D01*
X136157915Y-99884591D01*
X136147607Y-99918569D01*
X136130867Y-99949887D01*
X136108339Y-99977339D01*
X136080887Y-99999867D01*
X136049569Y-100016607D01*
X136015591Y-100026915D01*
X135974110Y-100031000D01*
X135297890Y-100031000D01*
X135256409Y-100026915D01*
X135222431Y-100016607D01*
X135191113Y-99999867D01*
X135163661Y-99977339D01*
X135141133Y-99949887D01*
X135124393Y-99918569D01*
X135114085Y-99884591D01*
X135110000Y-99843110D01*
X135110000Y-99241890D01*
X135114085Y-99200409D01*
X135124393Y-99166431D01*
X135141133Y-99135113D01*
X135163661Y-99107661D01*
X135191113Y-99085133D01*
X135222431Y-99068393D01*
X135256409Y-99058085D01*
X135297890Y-99054000D01*
X135974110Y-99054000D01*
X136015591Y-99058085D01*
X136015591Y-99058085D01*
G37*
G36*
X137920591Y-99058085D02*
X137954569Y-99068393D01*
X137985887Y-99085133D01*
X138013339Y-99107661D01*
X138035867Y-99135113D01*
X138052607Y-99166431D01*
X138062915Y-99200409D01*
X138067000Y-99241890D01*
X138067000Y-99843110D01*
X138062915Y-99884591D01*
X138052607Y-99918569D01*
X138035867Y-99949887D01*
X138013339Y-99977339D01*
X137985887Y-99999867D01*
X137954569Y-100016607D01*
X137920591Y-100026915D01*
X137879110Y-100031000D01*
X137202890Y-100031000D01*
X137161409Y-100026915D01*
X137127431Y-100016607D01*
X137096113Y-99999867D01*
X137068661Y-99977339D01*
X137046133Y-99949887D01*
X137029393Y-99918569D01*
X137019085Y-99884591D01*
X137015000Y-99843110D01*
X137015000Y-99241890D01*
X137019085Y-99200409D01*
X137029393Y-99166431D01*
X137046133Y-99135113D01*
X137068661Y-99107661D01*
X137096113Y-99085133D01*
X137127431Y-99068393D01*
X137161409Y-99058085D01*
X137202890Y-99054000D01*
X137879110Y-99054000D01*
X137920591Y-99058085D01*
X137920591Y-99058085D01*
G37*
G36*
X141730591Y-99058085D02*
X141764569Y-99068393D01*
X141795887Y-99085133D01*
X141823339Y-99107661D01*
X141845867Y-99135113D01*
X141862607Y-99166431D01*
X141872915Y-99200409D01*
X141877000Y-99241890D01*
X141877000Y-99843110D01*
X141872915Y-99884591D01*
X141862607Y-99918569D01*
X141845867Y-99949887D01*
X141823339Y-99977339D01*
X141795887Y-99999867D01*
X141764569Y-100016607D01*
X141730591Y-100026915D01*
X141689110Y-100031000D01*
X141012890Y-100031000D01*
X140971409Y-100026915D01*
X140937431Y-100016607D01*
X140906113Y-99999867D01*
X140878661Y-99977339D01*
X140856133Y-99949887D01*
X140839393Y-99918569D01*
X140829085Y-99884591D01*
X140825000Y-99843110D01*
X140825000Y-99241890D01*
X140829085Y-99200409D01*
X140839393Y-99166431D01*
X140856133Y-99135113D01*
X140878661Y-99107661D01*
X140906113Y-99085133D01*
X140937431Y-99068393D01*
X140971409Y-99058085D01*
X141012890Y-99054000D01*
X141689110Y-99054000D01*
X141730591Y-99058085D01*
X141730591Y-99058085D01*
G37*
G36*
X139825591Y-99058085D02*
X139859569Y-99068393D01*
X139890887Y-99085133D01*
X139918339Y-99107661D01*
X139940867Y-99135113D01*
X139957607Y-99166431D01*
X139967915Y-99200409D01*
X139972000Y-99241890D01*
X139972000Y-99843110D01*
X139967915Y-99884591D01*
X139957607Y-99918569D01*
X139940867Y-99949887D01*
X139918339Y-99977339D01*
X139890887Y-99999867D01*
X139859569Y-100016607D01*
X139825591Y-100026915D01*
X139784110Y-100031000D01*
X139107890Y-100031000D01*
X139066409Y-100026915D01*
X139032431Y-100016607D01*
X139001113Y-99999867D01*
X138973661Y-99977339D01*
X138951133Y-99949887D01*
X138934393Y-99918569D01*
X138924085Y-99884591D01*
X138920000Y-99843110D01*
X138920000Y-99241890D01*
X138924085Y-99200409D01*
X138934393Y-99166431D01*
X138951133Y-99135113D01*
X138973661Y-99107661D01*
X139001113Y-99085133D01*
X139032431Y-99068393D01*
X139066409Y-99058085D01*
X139107890Y-99054000D01*
X139784110Y-99054000D01*
X139825591Y-99058085D01*
X139825591Y-99058085D01*
G37*
G36*
X151128591Y-99058085D02*
X151162569Y-99068393D01*
X151193887Y-99085133D01*
X151221339Y-99107661D01*
X151243867Y-99135113D01*
X151260607Y-99166431D01*
X151270915Y-99200409D01*
X151275000Y-99241890D01*
X151275000Y-99843110D01*
X151270915Y-99884591D01*
X151260607Y-99918569D01*
X151243867Y-99949887D01*
X151221339Y-99977339D01*
X151193887Y-99999867D01*
X151162569Y-100016607D01*
X151128591Y-100026915D01*
X151087110Y-100031000D01*
X150410890Y-100031000D01*
X150369409Y-100026915D01*
X150335431Y-100016607D01*
X150304113Y-99999867D01*
X150276661Y-99977339D01*
X150254133Y-99949887D01*
X150237393Y-99918569D01*
X150227085Y-99884591D01*
X150223000Y-99843110D01*
X150223000Y-99241890D01*
X150227085Y-99200409D01*
X150237393Y-99166431D01*
X150254133Y-99135113D01*
X150276661Y-99107661D01*
X150304113Y-99085133D01*
X150335431Y-99068393D01*
X150369409Y-99058085D01*
X150410890Y-99054000D01*
X151087110Y-99054000D01*
X151128591Y-99058085D01*
X151128591Y-99058085D01*
G37*
G36*
X153160591Y-99058085D02*
X153194569Y-99068393D01*
X153225887Y-99085133D01*
X153253339Y-99107661D01*
X153275867Y-99135113D01*
X153292607Y-99166431D01*
X153302915Y-99200409D01*
X153307000Y-99241890D01*
X153307000Y-99843110D01*
X153302915Y-99884591D01*
X153292607Y-99918569D01*
X153275867Y-99949887D01*
X153253339Y-99977339D01*
X153225887Y-99999867D01*
X153194569Y-100016607D01*
X153160591Y-100026915D01*
X153119110Y-100031000D01*
X152442890Y-100031000D01*
X152401409Y-100026915D01*
X152367431Y-100016607D01*
X152336113Y-99999867D01*
X152308661Y-99977339D01*
X152286133Y-99949887D01*
X152269393Y-99918569D01*
X152259085Y-99884591D01*
X152255000Y-99843110D01*
X152255000Y-99241890D01*
X152259085Y-99200409D01*
X152269393Y-99166431D01*
X152286133Y-99135113D01*
X152308661Y-99107661D01*
X152336113Y-99085133D01*
X152367431Y-99068393D01*
X152401409Y-99058085D01*
X152442890Y-99054000D01*
X153119110Y-99054000D01*
X153160591Y-99058085D01*
X153160591Y-99058085D01*
G37*
G36*
X155192591Y-99058085D02*
X155226569Y-99068393D01*
X155257887Y-99085133D01*
X155285339Y-99107661D01*
X155307867Y-99135113D01*
X155324607Y-99166431D01*
X155334915Y-99200409D01*
X155339000Y-99241890D01*
X155339000Y-99843110D01*
X155334915Y-99884591D01*
X155324607Y-99918569D01*
X155307867Y-99949887D01*
X155285339Y-99977339D01*
X155257887Y-99999867D01*
X155226569Y-100016607D01*
X155192591Y-100026915D01*
X155151110Y-100031000D01*
X154474890Y-100031000D01*
X154433409Y-100026915D01*
X154399431Y-100016607D01*
X154368113Y-99999867D01*
X154340661Y-99977339D01*
X154318133Y-99949887D01*
X154301393Y-99918569D01*
X154291085Y-99884591D01*
X154287000Y-99843110D01*
X154287000Y-99241890D01*
X154291085Y-99200409D01*
X154301393Y-99166431D01*
X154318133Y-99135113D01*
X154340661Y-99107661D01*
X154368113Y-99085133D01*
X154399431Y-99068393D01*
X154433409Y-99058085D01*
X154474890Y-99054000D01*
X155151110Y-99054000D01*
X155192591Y-99058085D01*
X155192591Y-99058085D01*
G37*
G36*
X157097591Y-99058085D02*
X157131569Y-99068393D01*
X157162887Y-99085133D01*
X157190339Y-99107661D01*
X157212867Y-99135113D01*
X157229607Y-99166431D01*
X157239915Y-99200409D01*
X157244000Y-99241890D01*
X157244000Y-99843110D01*
X157239915Y-99884591D01*
X157229607Y-99918569D01*
X157212867Y-99949887D01*
X157190339Y-99977339D01*
X157162887Y-99999867D01*
X157131569Y-100016607D01*
X157097591Y-100026915D01*
X157056110Y-100031000D01*
X156379890Y-100031000D01*
X156338409Y-100026915D01*
X156304431Y-100016607D01*
X156273113Y-99999867D01*
X156245661Y-99977339D01*
X156223133Y-99949887D01*
X156206393Y-99918569D01*
X156196085Y-99884591D01*
X156192000Y-99843110D01*
X156192000Y-99241890D01*
X156196085Y-99200409D01*
X156206393Y-99166431D01*
X156223133Y-99135113D01*
X156245661Y-99107661D01*
X156273113Y-99085133D01*
X156304431Y-99068393D01*
X156338409Y-99058085D01*
X156379890Y-99054000D01*
X157056110Y-99054000D01*
X157097591Y-99058085D01*
X157097591Y-99058085D01*
G37*
G36*
X126348442Y-96895518D02*
X126414627Y-96902037D01*
X126527853Y-96936384D01*
X126584467Y-96953557D01*
X126723087Y-97027652D01*
X126740991Y-97037222D01*
X126776729Y-97066552D01*
X126878186Y-97149814D01*
X126961448Y-97251271D01*
X126990778Y-97287009D01*
X126990779Y-97287011D01*
X127074443Y-97443533D01*
X127074443Y-97443534D01*
X127125963Y-97613373D01*
X127143359Y-97790000D01*
X127125963Y-97966627D01*
X127091616Y-98079853D01*
X127074443Y-98136467D01*
X127000348Y-98275087D01*
X126990778Y-98292991D01*
X126961448Y-98328729D01*
X126878186Y-98430186D01*
X126776729Y-98513448D01*
X126740991Y-98542778D01*
X126740989Y-98542779D01*
X126584467Y-98626443D01*
X126527853Y-98643616D01*
X126414627Y-98677963D01*
X126348442Y-98684482D01*
X126282260Y-98691000D01*
X126193740Y-98691000D01*
X126127558Y-98684482D01*
X126061373Y-98677963D01*
X125948147Y-98643616D01*
X125891533Y-98626443D01*
X125735011Y-98542779D01*
X125735009Y-98542778D01*
X125699271Y-98513448D01*
X125597814Y-98430186D01*
X125514552Y-98328729D01*
X125485222Y-98292991D01*
X125475652Y-98275087D01*
X125401557Y-98136467D01*
X125384384Y-98079853D01*
X125350037Y-97966627D01*
X125332641Y-97790000D01*
X125350037Y-97613373D01*
X125401557Y-97443534D01*
X125401557Y-97443533D01*
X125485221Y-97287011D01*
X125485222Y-97287009D01*
X125514552Y-97251271D01*
X125597814Y-97149814D01*
X125699271Y-97066552D01*
X125735009Y-97037222D01*
X125752913Y-97027652D01*
X125891533Y-96953557D01*
X125948147Y-96936384D01*
X126061373Y-96902037D01*
X126127558Y-96895518D01*
X126193740Y-96889000D01*
X126282260Y-96889000D01*
X126348442Y-96895518D01*
X126348442Y-96895518D01*
G37*
G36*
X123808442Y-96895518D02*
X123874627Y-96902037D01*
X123987853Y-96936384D01*
X124044467Y-96953557D01*
X124183087Y-97027652D01*
X124200991Y-97037222D01*
X124236729Y-97066552D01*
X124338186Y-97149814D01*
X124421448Y-97251271D01*
X124450778Y-97287009D01*
X124450779Y-97287011D01*
X124534443Y-97443533D01*
X124534443Y-97443534D01*
X124585963Y-97613373D01*
X124603359Y-97790000D01*
X124585963Y-97966627D01*
X124551616Y-98079853D01*
X124534443Y-98136467D01*
X124460348Y-98275087D01*
X124450778Y-98292991D01*
X124421448Y-98328729D01*
X124338186Y-98430186D01*
X124236729Y-98513448D01*
X124200991Y-98542778D01*
X124200989Y-98542779D01*
X124044467Y-98626443D01*
X123987853Y-98643616D01*
X123874627Y-98677963D01*
X123808442Y-98684482D01*
X123742260Y-98691000D01*
X123653740Y-98691000D01*
X123587558Y-98684482D01*
X123521373Y-98677963D01*
X123408147Y-98643616D01*
X123351533Y-98626443D01*
X123195011Y-98542779D01*
X123195009Y-98542778D01*
X123159271Y-98513448D01*
X123057814Y-98430186D01*
X122974552Y-98328729D01*
X122945222Y-98292991D01*
X122935652Y-98275087D01*
X122861557Y-98136467D01*
X122844384Y-98079853D01*
X122810037Y-97966627D01*
X122792641Y-97790000D01*
X122810037Y-97613373D01*
X122861557Y-97443534D01*
X122861557Y-97443533D01*
X122945221Y-97287011D01*
X122945222Y-97287009D01*
X122974552Y-97251271D01*
X123057814Y-97149814D01*
X123159271Y-97066552D01*
X123195009Y-97037222D01*
X123212913Y-97027652D01*
X123351533Y-96953557D01*
X123408147Y-96936384D01*
X123521373Y-96902037D01*
X123587558Y-96895518D01*
X123653740Y-96889000D01*
X123742260Y-96889000D01*
X123808442Y-96895518D01*
X123808442Y-96895518D01*
G37*
G36*
X161527442Y-95879518D02*
X161593627Y-95886037D01*
X161694050Y-95916500D01*
X161763467Y-95937557D01*
X161885485Y-96002778D01*
X161919991Y-96021222D01*
X161955729Y-96050552D01*
X162057186Y-96133814D01*
X162140448Y-96235271D01*
X162169778Y-96271009D01*
X162169779Y-96271011D01*
X162253443Y-96427533D01*
X162253443Y-96427534D01*
X162304963Y-96597373D01*
X162322359Y-96774000D01*
X162304963Y-96950627D01*
X162304074Y-96953557D01*
X162253443Y-97120467D01*
X162237756Y-97149814D01*
X162169778Y-97276991D01*
X162140448Y-97312729D01*
X162057186Y-97414186D01*
X161955729Y-97497448D01*
X161919991Y-97526778D01*
X161919989Y-97526779D01*
X161763467Y-97610443D01*
X161706853Y-97627616D01*
X161593627Y-97661963D01*
X161527443Y-97668481D01*
X161461260Y-97675000D01*
X161372740Y-97675000D01*
X161306557Y-97668481D01*
X161240373Y-97661963D01*
X161127147Y-97627616D01*
X161070533Y-97610443D01*
X160914011Y-97526779D01*
X160914009Y-97526778D01*
X160878271Y-97497448D01*
X160776814Y-97414186D01*
X160693552Y-97312729D01*
X160664222Y-97276991D01*
X160596244Y-97149814D01*
X160580557Y-97120467D01*
X160529926Y-96953557D01*
X160529037Y-96950627D01*
X160511641Y-96774000D01*
X160529037Y-96597373D01*
X160580557Y-96427534D01*
X160580557Y-96427533D01*
X160664221Y-96271011D01*
X160664222Y-96271009D01*
X160693552Y-96235271D01*
X160776814Y-96133814D01*
X160878271Y-96050552D01*
X160914009Y-96021222D01*
X160948515Y-96002778D01*
X161070533Y-95937557D01*
X161139950Y-95916500D01*
X161240373Y-95886037D01*
X161306557Y-95879519D01*
X161372740Y-95873000D01*
X161461260Y-95873000D01*
X161527442Y-95879518D01*
X161527442Y-95879518D01*
G37*
G36*
X164067442Y-95879518D02*
X164133627Y-95886037D01*
X164234050Y-95916500D01*
X164303467Y-95937557D01*
X164425485Y-96002778D01*
X164459991Y-96021222D01*
X164495729Y-96050552D01*
X164597186Y-96133814D01*
X164680448Y-96235271D01*
X164709778Y-96271009D01*
X164709779Y-96271011D01*
X164793443Y-96427533D01*
X164793443Y-96427534D01*
X164844963Y-96597373D01*
X164862359Y-96774000D01*
X164844963Y-96950627D01*
X164844074Y-96953557D01*
X164793443Y-97120467D01*
X164777756Y-97149814D01*
X164709778Y-97276991D01*
X164680448Y-97312729D01*
X164597186Y-97414186D01*
X164495729Y-97497448D01*
X164459991Y-97526778D01*
X164459989Y-97526779D01*
X164303467Y-97610443D01*
X164246853Y-97627616D01*
X164133627Y-97661963D01*
X164067443Y-97668481D01*
X164001260Y-97675000D01*
X163912740Y-97675000D01*
X163846557Y-97668481D01*
X163780373Y-97661963D01*
X163667147Y-97627616D01*
X163610533Y-97610443D01*
X163454011Y-97526779D01*
X163454009Y-97526778D01*
X163418271Y-97497448D01*
X163316814Y-97414186D01*
X163233552Y-97312729D01*
X163204222Y-97276991D01*
X163136244Y-97149814D01*
X163120557Y-97120467D01*
X163069926Y-96953557D01*
X163069037Y-96950627D01*
X163051641Y-96774000D01*
X163069037Y-96597373D01*
X163120557Y-96427534D01*
X163120557Y-96427533D01*
X163204221Y-96271011D01*
X163204222Y-96271009D01*
X163233552Y-96235271D01*
X163316814Y-96133814D01*
X163418271Y-96050552D01*
X163454009Y-96021222D01*
X163488515Y-96002778D01*
X163610533Y-95937557D01*
X163679950Y-95916500D01*
X163780373Y-95886037D01*
X163846557Y-95879519D01*
X163912740Y-95873000D01*
X164001260Y-95873000D01*
X164067442Y-95879518D01*
X164067442Y-95879518D01*
G37*
G36*
X148272000Y-96690000D02*
X147170000Y-96690000D01*
X147170000Y-95588000D01*
X148272000Y-95588000D01*
X148272000Y-96690000D01*
X148272000Y-96690000D01*
G37*
G36*
X144930000Y-96690000D02*
X143828000Y-96690000D01*
X143828000Y-95588000D01*
X144930000Y-95588000D01*
X144930000Y-96690000D01*
X144930000Y-96690000D01*
G37*
G36*
X142430000Y-96690000D02*
X141328000Y-96690000D01*
X141328000Y-95588000D01*
X142430000Y-95588000D01*
X142430000Y-96690000D01*
X142430000Y-96690000D01*
G37*
G36*
X150772000Y-96690000D02*
X149670000Y-96690000D01*
X149670000Y-95588000D01*
X150772000Y-95588000D01*
X150772000Y-96690000D01*
X150772000Y-96690000D01*
G37*
G36*
X135888591Y-95680085D02*
X135922569Y-95690393D01*
X135953887Y-95707133D01*
X135981339Y-95729661D01*
X136003867Y-95757113D01*
X136020607Y-95788431D01*
X136030915Y-95822409D01*
X136035000Y-95863890D01*
X136035000Y-96465110D01*
X136030915Y-96506591D01*
X136020607Y-96540569D01*
X136003867Y-96571887D01*
X135981339Y-96599339D01*
X135953887Y-96621867D01*
X135922569Y-96638607D01*
X135888591Y-96648915D01*
X135847110Y-96653000D01*
X135170890Y-96653000D01*
X135129409Y-96648915D01*
X135095431Y-96638607D01*
X135064113Y-96621867D01*
X135036661Y-96599339D01*
X135014133Y-96571887D01*
X134997393Y-96540569D01*
X134987085Y-96506591D01*
X134983000Y-96465110D01*
X134983000Y-95863890D01*
X134987085Y-95822409D01*
X134997393Y-95788431D01*
X135014133Y-95757113D01*
X135036661Y-95729661D01*
X135064113Y-95707133D01*
X135095431Y-95690393D01*
X135129409Y-95680085D01*
X135170890Y-95676000D01*
X135847110Y-95676000D01*
X135888591Y-95680085D01*
X135888591Y-95680085D01*
G37*
G36*
X137793591Y-95680085D02*
X137827569Y-95690393D01*
X137858887Y-95707133D01*
X137886339Y-95729661D01*
X137908867Y-95757113D01*
X137925607Y-95788431D01*
X137935915Y-95822409D01*
X137940000Y-95863890D01*
X137940000Y-96465110D01*
X137935915Y-96506591D01*
X137925607Y-96540569D01*
X137908867Y-96571887D01*
X137886339Y-96599339D01*
X137858887Y-96621867D01*
X137827569Y-96638607D01*
X137793591Y-96648915D01*
X137752110Y-96653000D01*
X137075890Y-96653000D01*
X137034409Y-96648915D01*
X137000431Y-96638607D01*
X136969113Y-96621867D01*
X136941661Y-96599339D01*
X136919133Y-96571887D01*
X136902393Y-96540569D01*
X136892085Y-96506591D01*
X136888000Y-96465110D01*
X136888000Y-95863890D01*
X136892085Y-95822409D01*
X136902393Y-95788431D01*
X136919133Y-95757113D01*
X136941661Y-95729661D01*
X136969113Y-95707133D01*
X137000431Y-95690393D01*
X137034409Y-95680085D01*
X137075890Y-95676000D01*
X137752110Y-95676000D01*
X137793591Y-95680085D01*
X137793591Y-95680085D01*
G37*
G36*
X126348442Y-94355518D02*
X126414627Y-94362037D01*
X126527853Y-94396384D01*
X126584467Y-94413557D01*
X126723087Y-94487652D01*
X126740991Y-94497222D01*
X126776729Y-94526552D01*
X126878186Y-94609814D01*
X126961448Y-94711271D01*
X126990778Y-94747009D01*
X126990779Y-94747011D01*
X127074443Y-94903533D01*
X127081628Y-94927220D01*
X127125963Y-95073373D01*
X127143359Y-95250000D01*
X127125963Y-95426627D01*
X127091616Y-95539853D01*
X127074443Y-95596467D01*
X127024238Y-95690393D01*
X126990778Y-95752991D01*
X126966603Y-95782448D01*
X126878186Y-95890186D01*
X126776729Y-95973448D01*
X126740991Y-96002778D01*
X126740989Y-96002779D01*
X126584467Y-96086443D01*
X126527853Y-96103616D01*
X126414627Y-96137963D01*
X126348443Y-96144481D01*
X126282260Y-96151000D01*
X126193740Y-96151000D01*
X126127558Y-96144482D01*
X126061373Y-96137963D01*
X125948147Y-96103616D01*
X125891533Y-96086443D01*
X125735011Y-96002779D01*
X125735009Y-96002778D01*
X125699271Y-95973448D01*
X125597814Y-95890186D01*
X125509397Y-95782448D01*
X125485222Y-95752991D01*
X125451762Y-95690393D01*
X125401557Y-95596467D01*
X125384384Y-95539853D01*
X125350037Y-95426627D01*
X125332641Y-95250000D01*
X125350037Y-95073373D01*
X125394372Y-94927220D01*
X125401557Y-94903533D01*
X125485221Y-94747011D01*
X125485222Y-94747009D01*
X125514552Y-94711271D01*
X125597814Y-94609814D01*
X125699271Y-94526552D01*
X125735009Y-94497222D01*
X125752913Y-94487652D01*
X125891533Y-94413557D01*
X125948147Y-94396384D01*
X126061373Y-94362037D01*
X126127557Y-94355519D01*
X126193740Y-94349000D01*
X126282260Y-94349000D01*
X126348442Y-94355518D01*
X126348442Y-94355518D01*
G37*
G36*
X123808442Y-94355518D02*
X123874627Y-94362037D01*
X123987853Y-94396384D01*
X124044467Y-94413557D01*
X124183087Y-94487652D01*
X124200991Y-94497222D01*
X124236729Y-94526552D01*
X124338186Y-94609814D01*
X124421448Y-94711271D01*
X124450778Y-94747009D01*
X124450779Y-94747011D01*
X124534443Y-94903533D01*
X124541628Y-94927220D01*
X124585963Y-95073373D01*
X124603359Y-95250000D01*
X124585963Y-95426627D01*
X124551616Y-95539853D01*
X124534443Y-95596467D01*
X124484238Y-95690393D01*
X124450778Y-95752991D01*
X124426603Y-95782448D01*
X124338186Y-95890186D01*
X124236729Y-95973448D01*
X124200991Y-96002778D01*
X124200989Y-96002779D01*
X124044467Y-96086443D01*
X123987853Y-96103616D01*
X123874627Y-96137963D01*
X123808443Y-96144481D01*
X123742260Y-96151000D01*
X123653740Y-96151000D01*
X123587558Y-96144482D01*
X123521373Y-96137963D01*
X123408147Y-96103616D01*
X123351533Y-96086443D01*
X123195011Y-96002779D01*
X123195009Y-96002778D01*
X123159271Y-95973448D01*
X123057814Y-95890186D01*
X122969397Y-95782448D01*
X122945222Y-95752991D01*
X122911762Y-95690393D01*
X122861557Y-95596467D01*
X122844384Y-95539853D01*
X122810037Y-95426627D01*
X122792641Y-95250000D01*
X122810037Y-95073373D01*
X122854372Y-94927220D01*
X122861557Y-94903533D01*
X122945221Y-94747011D01*
X122945222Y-94747009D01*
X122974552Y-94711271D01*
X123057814Y-94609814D01*
X123159271Y-94526552D01*
X123195009Y-94497222D01*
X123212913Y-94487652D01*
X123351533Y-94413557D01*
X123408147Y-94396384D01*
X123521373Y-94362037D01*
X123587557Y-94355519D01*
X123653740Y-94349000D01*
X123742260Y-94349000D01*
X123808442Y-94355518D01*
X123808442Y-94355518D01*
G37*
G36*
X155192591Y-94943585D02*
X155226569Y-94953893D01*
X155257887Y-94970633D01*
X155285339Y-94993161D01*
X155307867Y-95020613D01*
X155324607Y-95051931D01*
X155334915Y-95085909D01*
X155339000Y-95127390D01*
X155339000Y-95728610D01*
X155334915Y-95770091D01*
X155324607Y-95804069D01*
X155307867Y-95835387D01*
X155285339Y-95862839D01*
X155257887Y-95885367D01*
X155226569Y-95902107D01*
X155192591Y-95912415D01*
X155151110Y-95916500D01*
X154474890Y-95916500D01*
X154433409Y-95912415D01*
X154399431Y-95902107D01*
X154368113Y-95885367D01*
X154340661Y-95862839D01*
X154318133Y-95835387D01*
X154301393Y-95804069D01*
X154291085Y-95770091D01*
X154287000Y-95728610D01*
X154287000Y-95127390D01*
X154291085Y-95085909D01*
X154301393Y-95051931D01*
X154318133Y-95020613D01*
X154340661Y-94993161D01*
X154368113Y-94970633D01*
X154399431Y-94953893D01*
X154433409Y-94943585D01*
X154474890Y-94939500D01*
X155151110Y-94939500D01*
X155192591Y-94943585D01*
X155192591Y-94943585D01*
G37*
G36*
X157224591Y-94918085D02*
X157258569Y-94928393D01*
X157289887Y-94945133D01*
X157317339Y-94967661D01*
X157339867Y-94995113D01*
X157356607Y-95026431D01*
X157366915Y-95060409D01*
X157371000Y-95101890D01*
X157371000Y-95703110D01*
X157366915Y-95744591D01*
X157356607Y-95778569D01*
X157339867Y-95809887D01*
X157317339Y-95837339D01*
X157289887Y-95859867D01*
X157258569Y-95876607D01*
X157224591Y-95886915D01*
X157183110Y-95891000D01*
X156506890Y-95891000D01*
X156465409Y-95886915D01*
X156431431Y-95876607D01*
X156400113Y-95859867D01*
X156372661Y-95837339D01*
X156350133Y-95809887D01*
X156333393Y-95778569D01*
X156323085Y-95744591D01*
X156319000Y-95703110D01*
X156319000Y-95101890D01*
X156323085Y-95060409D01*
X156333393Y-95026431D01*
X156350133Y-94995113D01*
X156372661Y-94967661D01*
X156400113Y-94945133D01*
X156431431Y-94928393D01*
X156465409Y-94918085D01*
X156506890Y-94914000D01*
X157183110Y-94914000D01*
X157224591Y-94918085D01*
X157224591Y-94918085D01*
G37*
G36*
X164062178Y-93339000D02*
X164133627Y-93346037D01*
X164241939Y-93378893D01*
X164303467Y-93397557D01*
X164425485Y-93462778D01*
X164459991Y-93481222D01*
X164495729Y-93510552D01*
X164597186Y-93593814D01*
X164680448Y-93695271D01*
X164709778Y-93731009D01*
X164709779Y-93731011D01*
X164793443Y-93887533D01*
X164793443Y-93887534D01*
X164844963Y-94057373D01*
X164862359Y-94234000D01*
X164844963Y-94410627D01*
X164844074Y-94413557D01*
X164793443Y-94580467D01*
X164777756Y-94609814D01*
X164709778Y-94736991D01*
X164680448Y-94772729D01*
X164597186Y-94874186D01*
X164495729Y-94957448D01*
X164459991Y-94986778D01*
X164459989Y-94986779D01*
X164303467Y-95070443D01*
X164278554Y-95078000D01*
X164133627Y-95121963D01*
X164078525Y-95127390D01*
X164001260Y-95135000D01*
X163912740Y-95135000D01*
X163835475Y-95127390D01*
X163780373Y-95121963D01*
X163635446Y-95078000D01*
X163610533Y-95070443D01*
X163454011Y-94986779D01*
X163454009Y-94986778D01*
X163418271Y-94957448D01*
X163316814Y-94874186D01*
X163233552Y-94772729D01*
X163204222Y-94736991D01*
X163136244Y-94609814D01*
X163120557Y-94580467D01*
X163069926Y-94413557D01*
X163069037Y-94410627D01*
X163051641Y-94234000D01*
X163069037Y-94057373D01*
X163120557Y-93887534D01*
X163120557Y-93887533D01*
X163204221Y-93731011D01*
X163204222Y-93731009D01*
X163233552Y-93695271D01*
X163316814Y-93593814D01*
X163418271Y-93510552D01*
X163454009Y-93481222D01*
X163488515Y-93462778D01*
X163610533Y-93397557D01*
X163672061Y-93378893D01*
X163780373Y-93346037D01*
X163851822Y-93339000D01*
X163912740Y-93333000D01*
X164001260Y-93333000D01*
X164062178Y-93339000D01*
X164062178Y-93339000D01*
G37*
G36*
X161522178Y-93339000D02*
X161593627Y-93346037D01*
X161701939Y-93378893D01*
X161763467Y-93397557D01*
X161885485Y-93462778D01*
X161919991Y-93481222D01*
X161955729Y-93510552D01*
X162057186Y-93593814D01*
X162140448Y-93695271D01*
X162169778Y-93731009D01*
X162169779Y-93731011D01*
X162253443Y-93887533D01*
X162253443Y-93887534D01*
X162304963Y-94057373D01*
X162322359Y-94234000D01*
X162304963Y-94410627D01*
X162304074Y-94413557D01*
X162253443Y-94580467D01*
X162237756Y-94609814D01*
X162169778Y-94736991D01*
X162140448Y-94772729D01*
X162057186Y-94874186D01*
X161955729Y-94957448D01*
X161919991Y-94986778D01*
X161919989Y-94986779D01*
X161763467Y-95070443D01*
X161738554Y-95078000D01*
X161593627Y-95121963D01*
X161538525Y-95127390D01*
X161461260Y-95135000D01*
X161372740Y-95135000D01*
X161295475Y-95127390D01*
X161240373Y-95121963D01*
X161095446Y-95078000D01*
X161070533Y-95070443D01*
X160914011Y-94986779D01*
X160914009Y-94986778D01*
X160878271Y-94957448D01*
X160776814Y-94874186D01*
X160693552Y-94772729D01*
X160664222Y-94736991D01*
X160596244Y-94609814D01*
X160580557Y-94580467D01*
X160529926Y-94413557D01*
X160529037Y-94410627D01*
X160511641Y-94234000D01*
X160529037Y-94057373D01*
X160580557Y-93887534D01*
X160580557Y-93887533D01*
X160664221Y-93731011D01*
X160664222Y-93731009D01*
X160693552Y-93695271D01*
X160776814Y-93593814D01*
X160878271Y-93510552D01*
X160914009Y-93481222D01*
X160948515Y-93462778D01*
X161070533Y-93397557D01*
X161132061Y-93378893D01*
X161240373Y-93346037D01*
X161311822Y-93339000D01*
X161372740Y-93333000D01*
X161461260Y-93333000D01*
X161522178Y-93339000D01*
X161522178Y-93339000D01*
G37*
G36*
X137793591Y-94105085D02*
X137827569Y-94115393D01*
X137858887Y-94132133D01*
X137886339Y-94154661D01*
X137908867Y-94182113D01*
X137925607Y-94213431D01*
X137935915Y-94247409D01*
X137940000Y-94288890D01*
X137940000Y-94890110D01*
X137935915Y-94931591D01*
X137925607Y-94965569D01*
X137908867Y-94996887D01*
X137886339Y-95024339D01*
X137858887Y-95046867D01*
X137827569Y-95063607D01*
X137793591Y-95073915D01*
X137752110Y-95078000D01*
X137075890Y-95078000D01*
X137034409Y-95073915D01*
X137000431Y-95063607D01*
X136969113Y-95046867D01*
X136941661Y-95024339D01*
X136919133Y-94996887D01*
X136902393Y-94965569D01*
X136892085Y-94931591D01*
X136888000Y-94890110D01*
X136888000Y-94288890D01*
X136892085Y-94247409D01*
X136902393Y-94213431D01*
X136919133Y-94182113D01*
X136941661Y-94154661D01*
X136969113Y-94132133D01*
X137000431Y-94115393D01*
X137034409Y-94105085D01*
X137075890Y-94101000D01*
X137752110Y-94101000D01*
X137793591Y-94105085D01*
X137793591Y-94105085D01*
G37*
G36*
X135888591Y-94105085D02*
X135922569Y-94115393D01*
X135953887Y-94132133D01*
X135981339Y-94154661D01*
X136003867Y-94182113D01*
X136020607Y-94213431D01*
X136030915Y-94247409D01*
X136035000Y-94288890D01*
X136035000Y-94890110D01*
X136030915Y-94931591D01*
X136020607Y-94965569D01*
X136003867Y-94996887D01*
X135981339Y-95024339D01*
X135953887Y-95046867D01*
X135922569Y-95063607D01*
X135888591Y-95073915D01*
X135847110Y-95078000D01*
X135170890Y-95078000D01*
X135129409Y-95073915D01*
X135095431Y-95063607D01*
X135064113Y-95046867D01*
X135036661Y-95024339D01*
X135014133Y-94996887D01*
X134997393Y-94965569D01*
X134987085Y-94931591D01*
X134983000Y-94890110D01*
X134983000Y-94288890D01*
X134987085Y-94247409D01*
X134997393Y-94213431D01*
X135014133Y-94182113D01*
X135036661Y-94154661D01*
X135064113Y-94132133D01*
X135095431Y-94115393D01*
X135129409Y-94105085D01*
X135170890Y-94101000D01*
X135847110Y-94101000D01*
X135888591Y-94105085D01*
X135888591Y-94105085D01*
G37*
G36*
X142430000Y-94531000D02*
X141328000Y-94531000D01*
X141328000Y-93429000D01*
X142430000Y-93429000D01*
X142430000Y-94531000D01*
X142430000Y-94531000D01*
G37*
G36*
X144930000Y-94531000D02*
X143828000Y-94531000D01*
X143828000Y-93429000D01*
X144930000Y-93429000D01*
X144930000Y-94531000D01*
X144930000Y-94531000D01*
G37*
G36*
X150772000Y-94531000D02*
X149670000Y-94531000D01*
X149670000Y-93429000D01*
X150772000Y-93429000D01*
X150772000Y-94531000D01*
X150772000Y-94531000D01*
G37*
G36*
X148272000Y-94531000D02*
X147170000Y-94531000D01*
X147170000Y-93429000D01*
X148272000Y-93429000D01*
X148272000Y-94531000D01*
X148272000Y-94531000D01*
G37*
G36*
X155192591Y-93368585D02*
X155226569Y-93378893D01*
X155257887Y-93395633D01*
X155285339Y-93418161D01*
X155307867Y-93445613D01*
X155324607Y-93476931D01*
X155334915Y-93510909D01*
X155339000Y-93552390D01*
X155339000Y-94153610D01*
X155334915Y-94195091D01*
X155324607Y-94229069D01*
X155307867Y-94260387D01*
X155285339Y-94287839D01*
X155257887Y-94310367D01*
X155226569Y-94327107D01*
X155192591Y-94337415D01*
X155151110Y-94341500D01*
X154474890Y-94341500D01*
X154433409Y-94337415D01*
X154399431Y-94327107D01*
X154368113Y-94310367D01*
X154340661Y-94287839D01*
X154318133Y-94260387D01*
X154301393Y-94229069D01*
X154291085Y-94195091D01*
X154287000Y-94153610D01*
X154287000Y-93552390D01*
X154291085Y-93510909D01*
X154301393Y-93476931D01*
X154318133Y-93445613D01*
X154340661Y-93418161D01*
X154368113Y-93395633D01*
X154399431Y-93378893D01*
X154433409Y-93368585D01*
X154474890Y-93364500D01*
X155151110Y-93364500D01*
X155192591Y-93368585D01*
X155192591Y-93368585D01*
G37*
G36*
X157224591Y-93343085D02*
X157258569Y-93353393D01*
X157289887Y-93370133D01*
X157317339Y-93392661D01*
X157339867Y-93420113D01*
X157356607Y-93451431D01*
X157366915Y-93485409D01*
X157371000Y-93526890D01*
X157371000Y-94128110D01*
X157366915Y-94169591D01*
X157356607Y-94203569D01*
X157339867Y-94234887D01*
X157317339Y-94262339D01*
X157289887Y-94284867D01*
X157258569Y-94301607D01*
X157224591Y-94311915D01*
X157183110Y-94316000D01*
X156506890Y-94316000D01*
X156465409Y-94311915D01*
X156431431Y-94301607D01*
X156400113Y-94284867D01*
X156372661Y-94262339D01*
X156350133Y-94234887D01*
X156333393Y-94203569D01*
X156323085Y-94169591D01*
X156319000Y-94128110D01*
X156319000Y-93526890D01*
X156323085Y-93485409D01*
X156333393Y-93451431D01*
X156350133Y-93420113D01*
X156372661Y-93392661D01*
X156400113Y-93370133D01*
X156431431Y-93353393D01*
X156465409Y-93343085D01*
X156506890Y-93339000D01*
X157183110Y-93339000D01*
X157224591Y-93343085D01*
X157224591Y-93343085D01*
G37*
G36*
X123808442Y-91815518D02*
X123874627Y-91822037D01*
X123987853Y-91856384D01*
X124044467Y-91873557D01*
X124183087Y-91947652D01*
X124200991Y-91957222D01*
X124236729Y-91986552D01*
X124338186Y-92069814D01*
X124421448Y-92171271D01*
X124450778Y-92207009D01*
X124450779Y-92207011D01*
X124534443Y-92363533D01*
X124534443Y-92363534D01*
X124585963Y-92533373D01*
X124603359Y-92710000D01*
X124585963Y-92886627D01*
X124551616Y-92999853D01*
X124534443Y-93056467D01*
X124460348Y-93195087D01*
X124450778Y-93212991D01*
X124421448Y-93248729D01*
X124338186Y-93350186D01*
X124255357Y-93418161D01*
X124200991Y-93462778D01*
X124200989Y-93462779D01*
X124044467Y-93546443D01*
X123996152Y-93561099D01*
X123874627Y-93597963D01*
X123808442Y-93604482D01*
X123742260Y-93611000D01*
X123653740Y-93611000D01*
X123587557Y-93604481D01*
X123521373Y-93597963D01*
X123399848Y-93561099D01*
X123351533Y-93546443D01*
X123195011Y-93462779D01*
X123195009Y-93462778D01*
X123140643Y-93418161D01*
X123057814Y-93350186D01*
X122974552Y-93248729D01*
X122945222Y-93212991D01*
X122935652Y-93195087D01*
X122861557Y-93056467D01*
X122844384Y-92999853D01*
X122810037Y-92886627D01*
X122792641Y-92710000D01*
X122810037Y-92533373D01*
X122861557Y-92363534D01*
X122861557Y-92363533D01*
X122945221Y-92207011D01*
X122945222Y-92207009D01*
X122974552Y-92171271D01*
X123057814Y-92069814D01*
X123159271Y-91986552D01*
X123195009Y-91957222D01*
X123212913Y-91947652D01*
X123351533Y-91873557D01*
X123408147Y-91856384D01*
X123521373Y-91822037D01*
X123587558Y-91815518D01*
X123653740Y-91809000D01*
X123742260Y-91809000D01*
X123808442Y-91815518D01*
X123808442Y-91815518D01*
G37*
G36*
X126348442Y-91815518D02*
X126414627Y-91822037D01*
X126527853Y-91856384D01*
X126584467Y-91873557D01*
X126723087Y-91947652D01*
X126740991Y-91957222D01*
X126776729Y-91986552D01*
X126878186Y-92069814D01*
X126961448Y-92171271D01*
X126990778Y-92207009D01*
X126990779Y-92207011D01*
X127074443Y-92363533D01*
X127074443Y-92363534D01*
X127125963Y-92533373D01*
X127143359Y-92710000D01*
X127125963Y-92886627D01*
X127091616Y-92999853D01*
X127074443Y-93056467D01*
X127000348Y-93195087D01*
X126990778Y-93212991D01*
X126961448Y-93248729D01*
X126878186Y-93350186D01*
X126795357Y-93418161D01*
X126740991Y-93462778D01*
X126740989Y-93462779D01*
X126584467Y-93546443D01*
X126536152Y-93561099D01*
X126414627Y-93597963D01*
X126348442Y-93604482D01*
X126282260Y-93611000D01*
X126193740Y-93611000D01*
X126127557Y-93604481D01*
X126061373Y-93597963D01*
X125939848Y-93561099D01*
X125891533Y-93546443D01*
X125735011Y-93462779D01*
X125735009Y-93462778D01*
X125680643Y-93418161D01*
X125597814Y-93350186D01*
X125514552Y-93248729D01*
X125485222Y-93212991D01*
X125475652Y-93195087D01*
X125401557Y-93056467D01*
X125384384Y-92999853D01*
X125350037Y-92886627D01*
X125332641Y-92710000D01*
X125350037Y-92533373D01*
X125401557Y-92363534D01*
X125401557Y-92363533D01*
X125485221Y-92207011D01*
X125485222Y-92207009D01*
X125514552Y-92171271D01*
X125597814Y-92069814D01*
X125699271Y-91986552D01*
X125735009Y-91957222D01*
X125752913Y-91947652D01*
X125891533Y-91873557D01*
X125948147Y-91856384D01*
X126061373Y-91822037D01*
X126127558Y-91815518D01*
X126193740Y-91809000D01*
X126282260Y-91809000D01*
X126348442Y-91815518D01*
X126348442Y-91815518D01*
G37*
G36*
X136972228Y-89732703D02*
X137127100Y-89796853D01*
X137266481Y-89889985D01*
X137385015Y-90008519D01*
X137478147Y-90147900D01*
X137542297Y-90302772D01*
X137575000Y-90467184D01*
X137575000Y-90634816D01*
X137542297Y-90799228D01*
X137478147Y-90954100D01*
X137385015Y-91093481D01*
X137266481Y-91212015D01*
X137127100Y-91305147D01*
X136972228Y-91369297D01*
X136807816Y-91402000D01*
X136640184Y-91402000D01*
X136475772Y-91369297D01*
X136320900Y-91305147D01*
X136181519Y-91212015D01*
X136062985Y-91093481D01*
X135969853Y-90954100D01*
X135905703Y-90799228D01*
X135873000Y-90634816D01*
X135873000Y-90467184D01*
X135905703Y-90302772D01*
X135969853Y-90147900D01*
X136062985Y-90008519D01*
X136181519Y-89889985D01*
X136320900Y-89796853D01*
X136475772Y-89732703D01*
X136640184Y-89700000D01*
X136807816Y-89700000D01*
X136972228Y-89732703D01*
X136972228Y-89732703D01*
G37*
G36*
X167221000Y-91402000D02*
X165519000Y-91402000D01*
X165519000Y-89700000D01*
X167221000Y-89700000D01*
X167221000Y-91402000D01*
X167221000Y-91402000D01*
G37*
G36*
X134472228Y-89732703D02*
X134627100Y-89796853D01*
X134766481Y-89889985D01*
X134885015Y-90008519D01*
X134978147Y-90147900D01*
X135042297Y-90302772D01*
X135075000Y-90467184D01*
X135075000Y-90634816D01*
X135042297Y-90799228D01*
X134978147Y-90954100D01*
X134885015Y-91093481D01*
X134766481Y-91212015D01*
X134627100Y-91305147D01*
X134472228Y-91369297D01*
X134307816Y-91402000D01*
X134140184Y-91402000D01*
X133975772Y-91369297D01*
X133820900Y-91305147D01*
X133681519Y-91212015D01*
X133562985Y-91093481D01*
X133469853Y-90954100D01*
X133405703Y-90799228D01*
X133373000Y-90634816D01*
X133373000Y-90467184D01*
X133405703Y-90302772D01*
X133469853Y-90147900D01*
X133562985Y-90008519D01*
X133681519Y-89889985D01*
X133820900Y-89796853D01*
X133975772Y-89732703D01*
X134140184Y-89700000D01*
X134307816Y-89700000D01*
X134472228Y-89732703D01*
X134472228Y-89732703D01*
G37*
G36*
X142075000Y-91402000D02*
X140373000Y-91402000D01*
X140373000Y-89700000D01*
X142075000Y-89700000D01*
X142075000Y-91402000D01*
X142075000Y-91402000D01*
G37*
G36*
X162118228Y-89732703D02*
X162273100Y-89796853D01*
X162412481Y-89889985D01*
X162531015Y-90008519D01*
X162624147Y-90147900D01*
X162688297Y-90302772D01*
X162721000Y-90467184D01*
X162721000Y-90634816D01*
X162688297Y-90799228D01*
X162624147Y-90954100D01*
X162531015Y-91093481D01*
X162412481Y-91212015D01*
X162273100Y-91305147D01*
X162118228Y-91369297D01*
X161953816Y-91402000D01*
X161786184Y-91402000D01*
X161621772Y-91369297D01*
X161466900Y-91305147D01*
X161327519Y-91212015D01*
X161208985Y-91093481D01*
X161115853Y-90954100D01*
X161051703Y-90799228D01*
X161019000Y-90634816D01*
X161019000Y-90467184D01*
X161051703Y-90302772D01*
X161115853Y-90147900D01*
X161208985Y-90008519D01*
X161327519Y-89889985D01*
X161466900Y-89796853D01*
X161621772Y-89732703D01*
X161786184Y-89700000D01*
X161953816Y-89700000D01*
X162118228Y-89732703D01*
X162118228Y-89732703D01*
G37*
G36*
X164118228Y-89732703D02*
X164273100Y-89796853D01*
X164412481Y-89889985D01*
X164531015Y-90008519D01*
X164624147Y-90147900D01*
X164688297Y-90302772D01*
X164721000Y-90467184D01*
X164721000Y-90634816D01*
X164688297Y-90799228D01*
X164624147Y-90954100D01*
X164531015Y-91093481D01*
X164412481Y-91212015D01*
X164273100Y-91305147D01*
X164118228Y-91369297D01*
X163953816Y-91402000D01*
X163786184Y-91402000D01*
X163621772Y-91369297D01*
X163466900Y-91305147D01*
X163327519Y-91212015D01*
X163208985Y-91093481D01*
X163115853Y-90954100D01*
X163051703Y-90799228D01*
X163019000Y-90634816D01*
X163019000Y-90467184D01*
X163051703Y-90302772D01*
X163115853Y-90147900D01*
X163208985Y-90008519D01*
X163327519Y-89889985D01*
X163466900Y-89796853D01*
X163621772Y-89732703D01*
X163786184Y-89700000D01*
X163953816Y-89700000D01*
X164118228Y-89732703D01*
X164118228Y-89732703D01*
G37*
G36*
X138972228Y-89732703D02*
X139127100Y-89796853D01*
X139266481Y-89889985D01*
X139385015Y-90008519D01*
X139478147Y-90147900D01*
X139542297Y-90302772D01*
X139575000Y-90467184D01*
X139575000Y-90634816D01*
X139542297Y-90799228D01*
X139478147Y-90954100D01*
X139385015Y-91093481D01*
X139266481Y-91212015D01*
X139127100Y-91305147D01*
X138972228Y-91369297D01*
X138807816Y-91402000D01*
X138640184Y-91402000D01*
X138475772Y-91369297D01*
X138320900Y-91305147D01*
X138181519Y-91212015D01*
X138062985Y-91093481D01*
X137969853Y-90954100D01*
X137905703Y-90799228D01*
X137873000Y-90634816D01*
X137873000Y-90467184D01*
X137905703Y-90302772D01*
X137969853Y-90147900D01*
X138062985Y-90008519D01*
X138181519Y-89889985D01*
X138320900Y-89796853D01*
X138475772Y-89732703D01*
X138640184Y-89700000D01*
X138807816Y-89700000D01*
X138972228Y-89732703D01*
X138972228Y-89732703D01*
G37*
G36*
X159618228Y-89732703D02*
X159773100Y-89796853D01*
X159912481Y-89889985D01*
X160031015Y-90008519D01*
X160124147Y-90147900D01*
X160188297Y-90302772D01*
X160221000Y-90467184D01*
X160221000Y-90634816D01*
X160188297Y-90799228D01*
X160124147Y-90954100D01*
X160031015Y-91093481D01*
X159912481Y-91212015D01*
X159773100Y-91305147D01*
X159618228Y-91369297D01*
X159453816Y-91402000D01*
X159286184Y-91402000D01*
X159121772Y-91369297D01*
X158966900Y-91305147D01*
X158827519Y-91212015D01*
X158708985Y-91093481D01*
X158615853Y-90954100D01*
X158551703Y-90799228D01*
X158519000Y-90634816D01*
X158519000Y-90467184D01*
X158551703Y-90302772D01*
X158615853Y-90147900D01*
X158708985Y-90008519D01*
X158827519Y-89889985D01*
X158966900Y-89796853D01*
X159121772Y-89732703D01*
X159286184Y-89700000D01*
X159453816Y-89700000D01*
X159618228Y-89732703D01*
X159618228Y-89732703D01*
G37*
G36*
X126348443Y-89275519D02*
X126414627Y-89282037D01*
X126527853Y-89316384D01*
X126584467Y-89333557D01*
X126723087Y-89407652D01*
X126740991Y-89417222D01*
X126776729Y-89446552D01*
X126878186Y-89529814D01*
X126961448Y-89631271D01*
X126990778Y-89667009D01*
X126990779Y-89667011D01*
X127074443Y-89823533D01*
X127074443Y-89823534D01*
X127125963Y-89993373D01*
X127143359Y-90170000D01*
X127125963Y-90346627D01*
X127091616Y-90459853D01*
X127074443Y-90516467D01*
X127011183Y-90634816D01*
X126990778Y-90672991D01*
X126961448Y-90708729D01*
X126878186Y-90810186D01*
X126776729Y-90893448D01*
X126740991Y-90922778D01*
X126740989Y-90922779D01*
X126584467Y-91006443D01*
X126527853Y-91023616D01*
X126414627Y-91057963D01*
X126348442Y-91064482D01*
X126282260Y-91071000D01*
X126193740Y-91071000D01*
X126127558Y-91064482D01*
X126061373Y-91057963D01*
X125948147Y-91023616D01*
X125891533Y-91006443D01*
X125735011Y-90922779D01*
X125735009Y-90922778D01*
X125699271Y-90893448D01*
X125597814Y-90810186D01*
X125514552Y-90708729D01*
X125485222Y-90672991D01*
X125464817Y-90634816D01*
X125401557Y-90516467D01*
X125384384Y-90459853D01*
X125350037Y-90346627D01*
X125332641Y-90170000D01*
X125350037Y-89993373D01*
X125401557Y-89823534D01*
X125401557Y-89823533D01*
X125485221Y-89667011D01*
X125485222Y-89667009D01*
X125514552Y-89631271D01*
X125597814Y-89529814D01*
X125699271Y-89446552D01*
X125735009Y-89417222D01*
X125752913Y-89407652D01*
X125891533Y-89333557D01*
X125948147Y-89316384D01*
X126061373Y-89282037D01*
X126127557Y-89275519D01*
X126193740Y-89269000D01*
X126282260Y-89269000D01*
X126348443Y-89275519D01*
X126348443Y-89275519D01*
G37*
G36*
X123808443Y-89275519D02*
X123874627Y-89282037D01*
X123987853Y-89316384D01*
X124044467Y-89333557D01*
X124183087Y-89407652D01*
X124200991Y-89417222D01*
X124236729Y-89446552D01*
X124338186Y-89529814D01*
X124421448Y-89631271D01*
X124450778Y-89667009D01*
X124450779Y-89667011D01*
X124534443Y-89823533D01*
X124534443Y-89823534D01*
X124585963Y-89993373D01*
X124603359Y-90170000D01*
X124585963Y-90346627D01*
X124551616Y-90459853D01*
X124534443Y-90516467D01*
X124471183Y-90634816D01*
X124450778Y-90672991D01*
X124421448Y-90708729D01*
X124338186Y-90810186D01*
X124236729Y-90893448D01*
X124200991Y-90922778D01*
X124200989Y-90922779D01*
X124044467Y-91006443D01*
X123987853Y-91023616D01*
X123874627Y-91057963D01*
X123808442Y-91064482D01*
X123742260Y-91071000D01*
X123653740Y-91071000D01*
X123587558Y-91064482D01*
X123521373Y-91057963D01*
X123408147Y-91023616D01*
X123351533Y-91006443D01*
X123195011Y-90922779D01*
X123195009Y-90922778D01*
X123159271Y-90893448D01*
X123057814Y-90810186D01*
X122974552Y-90708729D01*
X122945222Y-90672991D01*
X122924817Y-90634816D01*
X122861557Y-90516467D01*
X122844384Y-90459853D01*
X122810037Y-90346627D01*
X122792641Y-90170000D01*
X122810037Y-89993373D01*
X122861557Y-89823534D01*
X122861557Y-89823533D01*
X122945221Y-89667011D01*
X122945222Y-89667009D01*
X122974552Y-89631271D01*
X123057814Y-89529814D01*
X123159271Y-89446552D01*
X123195009Y-89417222D01*
X123212913Y-89407652D01*
X123351533Y-89333557D01*
X123408147Y-89316384D01*
X123521373Y-89282037D01*
X123587557Y-89275519D01*
X123653740Y-89269000D01*
X123742260Y-89269000D01*
X123808443Y-89275519D01*
X123808443Y-89275519D01*
G37*
G36*
X169792527Y-86329736D02*
X169892410Y-86349604D01*
X170174674Y-86466521D01*
X170428705Y-86636259D01*
X170644741Y-86852295D01*
X170814479Y-87106326D01*
X170931396Y-87388590D01*
X170951264Y-87488473D01*
X170979416Y-87630000D01*
X170991000Y-87688240D01*
X170991000Y-87993760D01*
X170931396Y-88293410D01*
X170814479Y-88575674D01*
X170644741Y-88829705D01*
X170428705Y-89045741D01*
X170174674Y-89215479D01*
X169892410Y-89332396D01*
X169792527Y-89352264D01*
X169592762Y-89392000D01*
X169287238Y-89392000D01*
X169087473Y-89352264D01*
X168987590Y-89332396D01*
X168705326Y-89215479D01*
X168451295Y-89045741D01*
X168235259Y-88829705D01*
X168065521Y-88575674D01*
X167948604Y-88293410D01*
X167889000Y-87993760D01*
X167889000Y-87688240D01*
X167900585Y-87630000D01*
X167928736Y-87488473D01*
X167948604Y-87388590D01*
X168065521Y-87106326D01*
X168235259Y-86852295D01*
X168451295Y-86636259D01*
X168705326Y-86466521D01*
X168987590Y-86349604D01*
X169087473Y-86329736D01*
X169287238Y-86290000D01*
X169592762Y-86290000D01*
X169792527Y-86329736D01*
X169792527Y-86329736D01*
G37*
G36*
X156652527Y-86329736D02*
X156752410Y-86349604D01*
X157034674Y-86466521D01*
X157288705Y-86636259D01*
X157504741Y-86852295D01*
X157674479Y-87106326D01*
X157791396Y-87388590D01*
X157811264Y-87488473D01*
X157839416Y-87630000D01*
X157851000Y-87688240D01*
X157851000Y-87993760D01*
X157791396Y-88293410D01*
X157674479Y-88575674D01*
X157504741Y-88829705D01*
X157288705Y-89045741D01*
X157034674Y-89215479D01*
X156752410Y-89332396D01*
X156652527Y-89352264D01*
X156452762Y-89392000D01*
X156147238Y-89392000D01*
X155947473Y-89352264D01*
X155847590Y-89332396D01*
X155565326Y-89215479D01*
X155311295Y-89045741D01*
X155095259Y-88829705D01*
X154925521Y-88575674D01*
X154808604Y-88293410D01*
X154749000Y-87993760D01*
X154749000Y-87688240D01*
X154760585Y-87630000D01*
X154788736Y-87488473D01*
X154808604Y-87388590D01*
X154925521Y-87106326D01*
X155095259Y-86852295D01*
X155311295Y-86636259D01*
X155565326Y-86466521D01*
X155847590Y-86349604D01*
X155947473Y-86329736D01*
X156147238Y-86290000D01*
X156452762Y-86290000D01*
X156652527Y-86329736D01*
X156652527Y-86329736D01*
G37*
G36*
X131506527Y-86329736D02*
X131606410Y-86349604D01*
X131888674Y-86466521D01*
X132142705Y-86636259D01*
X132358741Y-86852295D01*
X132528479Y-87106326D01*
X132645396Y-87388590D01*
X132665264Y-87488473D01*
X132693416Y-87630000D01*
X132705000Y-87688240D01*
X132705000Y-87993760D01*
X132645396Y-88293410D01*
X132528479Y-88575674D01*
X132358741Y-88829705D01*
X132142705Y-89045741D01*
X131888674Y-89215479D01*
X131606410Y-89332396D01*
X131506527Y-89352264D01*
X131306762Y-89392000D01*
X131001238Y-89392000D01*
X130801473Y-89352264D01*
X130701590Y-89332396D01*
X130419326Y-89215479D01*
X130165295Y-89045741D01*
X129949259Y-88829705D01*
X129779521Y-88575674D01*
X129662604Y-88293410D01*
X129603000Y-87993760D01*
X129603000Y-87688240D01*
X129614585Y-87630000D01*
X129642736Y-87488473D01*
X129662604Y-87388590D01*
X129779521Y-87106326D01*
X129949259Y-86852295D01*
X130165295Y-86636259D01*
X130419326Y-86466521D01*
X130701590Y-86349604D01*
X130801473Y-86329736D01*
X131001238Y-86290000D01*
X131306762Y-86290000D01*
X131506527Y-86329736D01*
X131506527Y-86329736D01*
G37*
G36*
X144646527Y-86329736D02*
X144746410Y-86349604D01*
X145028674Y-86466521D01*
X145282705Y-86636259D01*
X145498741Y-86852295D01*
X145668479Y-87106326D01*
X145785396Y-87388590D01*
X145805264Y-87488473D01*
X145833416Y-87630000D01*
X145845000Y-87688240D01*
X145845000Y-87993760D01*
X145785396Y-88293410D01*
X145668479Y-88575674D01*
X145498741Y-88829705D01*
X145282705Y-89045741D01*
X145028674Y-89215479D01*
X144746410Y-89332396D01*
X144646527Y-89352264D01*
X144446762Y-89392000D01*
X144141238Y-89392000D01*
X143941473Y-89352264D01*
X143841590Y-89332396D01*
X143559326Y-89215479D01*
X143305295Y-89045741D01*
X143089259Y-88829705D01*
X142919521Y-88575674D01*
X142802604Y-88293410D01*
X142743000Y-87993760D01*
X142743000Y-87688240D01*
X142754585Y-87630000D01*
X142782736Y-87488473D01*
X142802604Y-87388590D01*
X142919521Y-87106326D01*
X143089259Y-86852295D01*
X143305295Y-86636259D01*
X143559326Y-86466521D01*
X143841590Y-86349604D01*
X143941473Y-86329736D01*
X144141238Y-86290000D01*
X144446762Y-86290000D01*
X144646527Y-86329736D01*
X144646527Y-86329736D01*
G37*
G36*
X123808442Y-86735518D02*
X123874627Y-86742037D01*
X123987853Y-86776384D01*
X124044467Y-86793557D01*
X124154356Y-86852295D01*
X124200991Y-86877222D01*
X124236729Y-86906552D01*
X124338186Y-86989814D01*
X124421448Y-87091271D01*
X124450778Y-87127009D01*
X124450779Y-87127011D01*
X124534443Y-87283533D01*
X124534443Y-87283534D01*
X124585963Y-87453373D01*
X124603359Y-87630000D01*
X124585963Y-87806627D01*
X124551616Y-87919853D01*
X124534443Y-87976467D01*
X124525198Y-87993762D01*
X124450778Y-88132991D01*
X124421448Y-88168729D01*
X124338186Y-88270186D01*
X124236729Y-88353448D01*
X124200991Y-88382778D01*
X124200989Y-88382779D01*
X124044467Y-88466443D01*
X123987853Y-88483616D01*
X123874627Y-88517963D01*
X123808442Y-88524482D01*
X123742260Y-88531000D01*
X123653740Y-88531000D01*
X123587558Y-88524482D01*
X123521373Y-88517963D01*
X123408147Y-88483616D01*
X123351533Y-88466443D01*
X123195011Y-88382779D01*
X123195009Y-88382778D01*
X123159271Y-88353448D01*
X123057814Y-88270186D01*
X122974552Y-88168729D01*
X122945222Y-88132991D01*
X122870802Y-87993762D01*
X122861557Y-87976467D01*
X122844384Y-87919853D01*
X122810037Y-87806627D01*
X122792641Y-87630000D01*
X122810037Y-87453373D01*
X122861557Y-87283534D01*
X122861557Y-87283533D01*
X122945221Y-87127011D01*
X122945222Y-87127009D01*
X122974552Y-87091271D01*
X123057814Y-86989814D01*
X123159271Y-86906552D01*
X123195009Y-86877222D01*
X123241644Y-86852295D01*
X123351533Y-86793557D01*
X123408147Y-86776384D01*
X123521373Y-86742037D01*
X123587558Y-86735518D01*
X123653740Y-86729000D01*
X123742260Y-86729000D01*
X123808442Y-86735518D01*
X123808442Y-86735518D01*
G37*
G36*
X126348442Y-86735518D02*
X126414627Y-86742037D01*
X126527853Y-86776384D01*
X126584467Y-86793557D01*
X126694356Y-86852295D01*
X126740991Y-86877222D01*
X126776729Y-86906552D01*
X126878186Y-86989814D01*
X126961448Y-87091271D01*
X126990778Y-87127009D01*
X126990779Y-87127011D01*
X127074443Y-87283533D01*
X127074443Y-87283534D01*
X127125963Y-87453373D01*
X127143359Y-87630000D01*
X127125963Y-87806627D01*
X127091616Y-87919853D01*
X127074443Y-87976467D01*
X127065198Y-87993762D01*
X126990778Y-88132991D01*
X126961448Y-88168729D01*
X126878186Y-88270186D01*
X126776729Y-88353448D01*
X126740991Y-88382778D01*
X126740989Y-88382779D01*
X126584467Y-88466443D01*
X126527853Y-88483616D01*
X126414627Y-88517963D01*
X126348442Y-88524482D01*
X126282260Y-88531000D01*
X126193740Y-88531000D01*
X126127558Y-88524482D01*
X126061373Y-88517963D01*
X125948147Y-88483616D01*
X125891533Y-88466443D01*
X125735011Y-88382779D01*
X125735009Y-88382778D01*
X125699271Y-88353448D01*
X125597814Y-88270186D01*
X125514552Y-88168729D01*
X125485222Y-88132991D01*
X125410802Y-87993762D01*
X125401557Y-87976467D01*
X125384384Y-87919853D01*
X125350037Y-87806627D01*
X125332641Y-87630000D01*
X125350037Y-87453373D01*
X125401557Y-87283534D01*
X125401557Y-87283533D01*
X125485221Y-87127011D01*
X125485222Y-87127009D01*
X125514552Y-87091271D01*
X125597814Y-86989814D01*
X125699271Y-86906552D01*
X125735009Y-86877222D01*
X125781644Y-86852295D01*
X125891533Y-86793557D01*
X125948147Y-86776384D01*
X126061373Y-86742037D01*
X126127558Y-86735518D01*
X126193740Y-86729000D01*
X126282260Y-86729000D01*
X126348442Y-86735518D01*
X126348442Y-86735518D01*
G37*
G36*
X126348442Y-84195518D02*
X126414627Y-84202037D01*
X126527853Y-84236384D01*
X126584467Y-84253557D01*
X126723087Y-84327652D01*
X126740991Y-84337222D01*
X126776729Y-84366552D01*
X126878186Y-84449814D01*
X126961448Y-84551271D01*
X126990778Y-84587009D01*
X126990779Y-84587011D01*
X127074443Y-84743533D01*
X127074443Y-84743534D01*
X127125963Y-84913373D01*
X127143359Y-85090000D01*
X127125963Y-85266627D01*
X127106518Y-85330729D01*
X127074443Y-85436467D01*
X127044298Y-85492863D01*
X126990778Y-85592991D01*
X126961448Y-85628729D01*
X126878186Y-85730186D01*
X126776729Y-85813448D01*
X126740991Y-85842778D01*
X126740989Y-85842779D01*
X126584467Y-85926443D01*
X126527853Y-85943616D01*
X126414627Y-85977963D01*
X126348442Y-85984482D01*
X126282260Y-85991000D01*
X126193740Y-85991000D01*
X126127558Y-85984482D01*
X126061373Y-85977963D01*
X125948147Y-85943616D01*
X125891533Y-85926443D01*
X125735011Y-85842779D01*
X125735009Y-85842778D01*
X125699271Y-85813448D01*
X125597814Y-85730186D01*
X125514552Y-85628729D01*
X125485222Y-85592991D01*
X125431702Y-85492863D01*
X125401557Y-85436467D01*
X125369482Y-85330729D01*
X125350037Y-85266627D01*
X125332641Y-85090000D01*
X125350037Y-84913373D01*
X125401557Y-84743534D01*
X125401557Y-84743533D01*
X125485221Y-84587011D01*
X125485222Y-84587009D01*
X125514552Y-84551271D01*
X125597814Y-84449814D01*
X125699271Y-84366552D01*
X125735009Y-84337222D01*
X125752913Y-84327652D01*
X125891533Y-84253557D01*
X125948147Y-84236384D01*
X126061373Y-84202037D01*
X126127558Y-84195518D01*
X126193740Y-84189000D01*
X126282260Y-84189000D01*
X126348442Y-84195518D01*
X126348442Y-84195518D01*
G37*
G36*
X123808442Y-84195518D02*
X123874627Y-84202037D01*
X123987853Y-84236384D01*
X124044467Y-84253557D01*
X124183087Y-84327652D01*
X124200991Y-84337222D01*
X124236729Y-84366552D01*
X124338186Y-84449814D01*
X124421448Y-84551271D01*
X124450778Y-84587009D01*
X124450779Y-84587011D01*
X124534443Y-84743533D01*
X124534443Y-84743534D01*
X124585963Y-84913373D01*
X124603359Y-85090000D01*
X124585963Y-85266627D01*
X124566518Y-85330729D01*
X124534443Y-85436467D01*
X124504298Y-85492863D01*
X124450778Y-85592991D01*
X124421448Y-85628729D01*
X124338186Y-85730186D01*
X124236729Y-85813448D01*
X124200991Y-85842778D01*
X124200989Y-85842779D01*
X124044467Y-85926443D01*
X123987853Y-85943616D01*
X123874627Y-85977963D01*
X123808442Y-85984482D01*
X123742260Y-85991000D01*
X123653740Y-85991000D01*
X123587558Y-85984482D01*
X123521373Y-85977963D01*
X123408147Y-85943616D01*
X123351533Y-85926443D01*
X123195011Y-85842779D01*
X123195009Y-85842778D01*
X123159271Y-85813448D01*
X123057814Y-85730186D01*
X122974552Y-85628729D01*
X122945222Y-85592991D01*
X122891702Y-85492863D01*
X122861557Y-85436467D01*
X122829482Y-85330729D01*
X122810037Y-85266627D01*
X122792641Y-85090000D01*
X122810037Y-84913373D01*
X122861557Y-84743534D01*
X122861557Y-84743533D01*
X122945221Y-84587011D01*
X122945222Y-84587009D01*
X122974552Y-84551271D01*
X123057814Y-84449814D01*
X123159271Y-84366552D01*
X123195009Y-84337222D01*
X123212913Y-84327652D01*
X123351533Y-84253557D01*
X123408147Y-84236384D01*
X123521373Y-84202037D01*
X123587558Y-84195518D01*
X123653740Y-84189000D01*
X123742260Y-84189000D01*
X123808442Y-84195518D01*
X123808442Y-84195518D01*
G37*
G36*
X172195453Y-82908529D02*
X172272821Y-82931998D01*
X172344111Y-82970103D01*
X172406607Y-83021393D01*
X172457897Y-83083889D01*
X172496002Y-83155179D01*
X172519471Y-83232547D01*
X172528000Y-83319141D01*
X172528000Y-85082859D01*
X172519471Y-85169453D01*
X172496002Y-85246821D01*
X172457897Y-85318111D01*
X172406607Y-85380607D01*
X172344111Y-85431897D01*
X172272821Y-85470002D01*
X172195453Y-85493471D01*
X172108859Y-85502000D01*
X171045141Y-85502000D01*
X170958547Y-85493471D01*
X170881179Y-85470002D01*
X170809889Y-85431897D01*
X170747393Y-85380607D01*
X170696103Y-85318111D01*
X170657998Y-85246821D01*
X170634529Y-85169453D01*
X170626000Y-85082859D01*
X170626000Y-83319141D01*
X170634529Y-83232547D01*
X170657998Y-83155179D01*
X170696103Y-83083889D01*
X170747393Y-83021393D01*
X170809889Y-82970103D01*
X170881179Y-82931998D01*
X170958547Y-82908529D01*
X171045141Y-82900000D01*
X172108859Y-82900000D01*
X172195453Y-82908529D01*
X172195453Y-82908529D01*
G37*
G36*
X147049453Y-82876529D02*
X147126821Y-82899998D01*
X147198111Y-82938103D01*
X147260607Y-82989393D01*
X147311897Y-83051889D01*
X147350002Y-83123179D01*
X147373471Y-83200547D01*
X147382000Y-83287141D01*
X147382000Y-85050859D01*
X147373471Y-85137453D01*
X147350002Y-85214821D01*
X147311897Y-85286111D01*
X147260607Y-85348607D01*
X147198111Y-85399897D01*
X147126821Y-85438002D01*
X147049453Y-85461471D01*
X146962859Y-85470000D01*
X145899141Y-85470000D01*
X145812547Y-85461471D01*
X145735179Y-85438002D01*
X145663889Y-85399897D01*
X145601393Y-85348607D01*
X145550103Y-85286111D01*
X145511998Y-85214821D01*
X145488529Y-85137453D01*
X145480000Y-85050859D01*
X145480000Y-83287141D01*
X145488529Y-83200547D01*
X145511998Y-83123179D01*
X145550103Y-83051889D01*
X145601393Y-82989393D01*
X145663889Y-82938103D01*
X145735179Y-82899998D01*
X145812547Y-82876529D01*
X145899141Y-82868000D01*
X146962859Y-82868000D01*
X147049453Y-82876529D01*
X147049453Y-82876529D01*
G37*
G36*
X123808443Y-81655519D02*
X123874627Y-81662037D01*
X123987853Y-81696384D01*
X124044467Y-81713557D01*
X124183087Y-81787652D01*
X124200991Y-81797222D01*
X124236729Y-81826552D01*
X124338186Y-81909814D01*
X124421448Y-82011271D01*
X124450778Y-82047009D01*
X124450779Y-82047011D01*
X124534443Y-82203533D01*
X124534443Y-82203534D01*
X124585963Y-82373373D01*
X124603359Y-82550000D01*
X124585963Y-82726627D01*
X124551616Y-82839853D01*
X124534443Y-82896467D01*
X124506825Y-82948136D01*
X124450778Y-83052991D01*
X124429165Y-83079326D01*
X124338186Y-83190186D01*
X124236729Y-83273448D01*
X124200991Y-83302778D01*
X124200989Y-83302779D01*
X124044467Y-83386443D01*
X123987853Y-83403616D01*
X123874627Y-83437963D01*
X123808443Y-83444481D01*
X123742260Y-83451000D01*
X123653740Y-83451000D01*
X123587557Y-83444481D01*
X123521373Y-83437963D01*
X123408147Y-83403616D01*
X123351533Y-83386443D01*
X123195011Y-83302779D01*
X123195009Y-83302778D01*
X123159271Y-83273448D01*
X123057814Y-83190186D01*
X122966835Y-83079326D01*
X122945222Y-83052991D01*
X122889175Y-82948136D01*
X122861557Y-82896467D01*
X122844384Y-82839853D01*
X122810037Y-82726627D01*
X122792641Y-82550000D01*
X122810037Y-82373373D01*
X122861557Y-82203534D01*
X122861557Y-82203533D01*
X122945221Y-82047011D01*
X122945222Y-82047009D01*
X122974552Y-82011271D01*
X123057814Y-81909814D01*
X123159271Y-81826552D01*
X123195009Y-81797222D01*
X123212913Y-81787652D01*
X123351533Y-81713557D01*
X123408147Y-81696384D01*
X123521373Y-81662037D01*
X123587557Y-81655519D01*
X123653740Y-81649000D01*
X123742260Y-81649000D01*
X123808443Y-81655519D01*
X123808443Y-81655519D01*
G37*
G36*
X126348443Y-81655519D02*
X126414627Y-81662037D01*
X126527853Y-81696384D01*
X126584467Y-81713557D01*
X126723087Y-81787652D01*
X126740991Y-81797222D01*
X126776729Y-81826552D01*
X126878186Y-81909814D01*
X126961448Y-82011271D01*
X126990778Y-82047009D01*
X126990779Y-82047011D01*
X127074443Y-82203533D01*
X127074443Y-82203534D01*
X127125963Y-82373373D01*
X127143359Y-82550000D01*
X127125963Y-82726627D01*
X127091616Y-82839853D01*
X127074443Y-82896467D01*
X127046825Y-82948136D01*
X126990778Y-83052991D01*
X126969165Y-83079326D01*
X126878186Y-83190186D01*
X126776729Y-83273448D01*
X126740991Y-83302778D01*
X126740989Y-83302779D01*
X126584467Y-83386443D01*
X126527853Y-83403616D01*
X126414627Y-83437963D01*
X126348443Y-83444481D01*
X126282260Y-83451000D01*
X126193740Y-83451000D01*
X126127557Y-83444481D01*
X126061373Y-83437963D01*
X125948147Y-83403616D01*
X125891533Y-83386443D01*
X125735011Y-83302779D01*
X125735009Y-83302778D01*
X125699271Y-83273448D01*
X125597814Y-83190186D01*
X125506835Y-83079326D01*
X125485222Y-83052991D01*
X125429175Y-82948136D01*
X125401557Y-82896467D01*
X125384384Y-82839853D01*
X125350037Y-82726627D01*
X125332641Y-82550000D01*
X125350037Y-82373373D01*
X125401557Y-82203534D01*
X125401557Y-82203533D01*
X125485221Y-82047011D01*
X125485222Y-82047009D01*
X125514552Y-82011271D01*
X125597814Y-81909814D01*
X125699271Y-81826552D01*
X125735009Y-81797222D01*
X125752913Y-81787652D01*
X125891533Y-81713557D01*
X125948147Y-81696384D01*
X126061373Y-81662037D01*
X126127557Y-81655519D01*
X126193740Y-81649000D01*
X126282260Y-81649000D01*
X126348443Y-81655519D01*
X126348443Y-81655519D01*
G37*
G36*
X172195453Y-78908529D02*
X172272821Y-78931998D01*
X172344111Y-78970103D01*
X172406607Y-79021393D01*
X172457897Y-79083889D01*
X172496002Y-79155179D01*
X172519471Y-79232547D01*
X172528000Y-79319141D01*
X172528000Y-81082859D01*
X172519471Y-81169453D01*
X172496002Y-81246821D01*
X172457897Y-81318111D01*
X172406607Y-81380607D01*
X172344111Y-81431897D01*
X172272821Y-81470002D01*
X172195453Y-81493471D01*
X172108859Y-81502000D01*
X171045141Y-81502000D01*
X170958547Y-81493471D01*
X170881179Y-81470002D01*
X170809889Y-81431897D01*
X170747393Y-81380607D01*
X170696103Y-81318111D01*
X170657998Y-81246821D01*
X170634529Y-81169453D01*
X170626000Y-81082859D01*
X170626000Y-79319141D01*
X170634529Y-79232547D01*
X170657998Y-79155179D01*
X170696103Y-79083889D01*
X170747393Y-79021393D01*
X170809889Y-78970103D01*
X170881179Y-78931998D01*
X170958547Y-78908529D01*
X171045141Y-78900000D01*
X172108859Y-78900000D01*
X172195453Y-78908529D01*
X172195453Y-78908529D01*
G37*
G36*
X147049453Y-78876529D02*
X147126821Y-78899998D01*
X147198111Y-78938103D01*
X147260607Y-78989393D01*
X147311897Y-79051889D01*
X147350002Y-79123179D01*
X147373471Y-79200547D01*
X147382000Y-79287141D01*
X147382000Y-81050859D01*
X147373471Y-81137453D01*
X147350002Y-81214821D01*
X147311897Y-81286111D01*
X147260607Y-81348607D01*
X147198111Y-81399897D01*
X147126821Y-81438002D01*
X147049453Y-81461471D01*
X146962859Y-81470000D01*
X145899141Y-81470000D01*
X145812547Y-81461471D01*
X145735179Y-81438002D01*
X145663889Y-81399897D01*
X145601393Y-81348607D01*
X145550103Y-81286111D01*
X145511998Y-81214821D01*
X145488529Y-81137453D01*
X145480000Y-81050859D01*
X145480000Y-79287141D01*
X145488529Y-79200547D01*
X145511998Y-79123179D01*
X145550103Y-79051889D01*
X145601393Y-78989393D01*
X145663889Y-78938103D01*
X145735179Y-78899998D01*
X145812547Y-78876529D01*
X145899141Y-78868000D01*
X146962859Y-78868000D01*
X147049453Y-78876529D01*
X147049453Y-78876529D01*
G37*
G36*
X126348443Y-79115519D02*
X126414627Y-79122037D01*
X126523882Y-79155179D01*
X126584467Y-79173557D01*
X126694828Y-79232547D01*
X126740991Y-79257222D01*
X126772078Y-79282735D01*
X126878186Y-79369814D01*
X126961448Y-79471271D01*
X126990778Y-79507009D01*
X126990779Y-79507011D01*
X127074443Y-79663533D01*
X127074443Y-79663534D01*
X127125963Y-79833373D01*
X127143359Y-80010000D01*
X127125963Y-80186627D01*
X127091616Y-80299853D01*
X127074443Y-80356467D01*
X127000348Y-80495087D01*
X126990778Y-80512991D01*
X126961448Y-80548729D01*
X126878186Y-80650186D01*
X126776729Y-80733448D01*
X126740991Y-80762778D01*
X126740989Y-80762779D01*
X126584467Y-80846443D01*
X126527853Y-80863616D01*
X126414627Y-80897963D01*
X126348442Y-80904482D01*
X126282260Y-80911000D01*
X126193740Y-80911000D01*
X126127558Y-80904482D01*
X126061373Y-80897963D01*
X125948147Y-80863616D01*
X125891533Y-80846443D01*
X125735011Y-80762779D01*
X125735009Y-80762778D01*
X125699271Y-80733448D01*
X125597814Y-80650186D01*
X125514552Y-80548729D01*
X125485222Y-80512991D01*
X125475652Y-80495087D01*
X125401557Y-80356467D01*
X125384384Y-80299853D01*
X125350037Y-80186627D01*
X125332641Y-80010000D01*
X125350037Y-79833373D01*
X125401557Y-79663534D01*
X125401557Y-79663533D01*
X125485221Y-79507011D01*
X125485222Y-79507009D01*
X125514552Y-79471271D01*
X125597814Y-79369814D01*
X125703922Y-79282735D01*
X125735009Y-79257222D01*
X125781172Y-79232547D01*
X125891533Y-79173557D01*
X125952118Y-79155179D01*
X126061373Y-79122037D01*
X126127557Y-79115519D01*
X126193740Y-79109000D01*
X126282260Y-79109000D01*
X126348443Y-79115519D01*
X126348443Y-79115519D01*
G37*
G36*
X123808443Y-79115519D02*
X123874627Y-79122037D01*
X123983882Y-79155179D01*
X124044467Y-79173557D01*
X124154828Y-79232547D01*
X124200991Y-79257222D01*
X124232078Y-79282735D01*
X124338186Y-79369814D01*
X124421448Y-79471271D01*
X124450778Y-79507009D01*
X124450779Y-79507011D01*
X124534443Y-79663533D01*
X124534443Y-79663534D01*
X124585963Y-79833373D01*
X124603359Y-80010000D01*
X124585963Y-80186627D01*
X124551616Y-80299853D01*
X124534443Y-80356467D01*
X124460348Y-80495087D01*
X124450778Y-80512991D01*
X124421448Y-80548729D01*
X124338186Y-80650186D01*
X124236729Y-80733448D01*
X124200991Y-80762778D01*
X124200989Y-80762779D01*
X124044467Y-80846443D01*
X123987853Y-80863616D01*
X123874627Y-80897963D01*
X123808442Y-80904482D01*
X123742260Y-80911000D01*
X123653740Y-80911000D01*
X123587558Y-80904482D01*
X123521373Y-80897963D01*
X123408147Y-80863616D01*
X123351533Y-80846443D01*
X123195011Y-80762779D01*
X123195009Y-80762778D01*
X123159271Y-80733448D01*
X123057814Y-80650186D01*
X122974552Y-80548729D01*
X122945222Y-80512991D01*
X122935652Y-80495087D01*
X122861557Y-80356467D01*
X122844384Y-80299853D01*
X122810037Y-80186627D01*
X122792641Y-80010000D01*
X122810037Y-79833373D01*
X122861557Y-79663534D01*
X122861557Y-79663533D01*
X122945221Y-79507011D01*
X122945222Y-79507009D01*
X122974552Y-79471271D01*
X123057814Y-79369814D01*
X123163922Y-79282735D01*
X123195009Y-79257222D01*
X123241172Y-79232547D01*
X123351533Y-79173557D01*
X123412118Y-79155179D01*
X123521373Y-79122037D01*
X123587557Y-79115519D01*
X123653740Y-79109000D01*
X123742260Y-79109000D01*
X123808443Y-79115519D01*
X123808443Y-79115519D01*
G37*
M02*
