G04 #@! TF.GenerationSoftware,KiCad,Pcbnew,5.0.2+dfsg1-1*
G04 #@! TF.CreationDate,2019-12-14T00:12:12+01:00*
G04 #@! TF.ProjectId,USB,5553422e-6b69-4636-9164-5f7063625858,rev?*
G04 #@! TF.SameCoordinates,Original*
G04 #@! TF.FileFunction,Legend,Top*
G04 #@! TF.FilePolarity,Positive*
%FSLAX46Y46*%
G04 Gerber Fmt 4.6, Leading zero omitted, Abs format (unit mm)*
G04 Created by KiCad (PCBNEW 5.0.2+dfsg1-1) date Sat 14 Dec 2019 12:12:12 AM CET*
%MOMM*%
%LPD*%
G01*
G04 APERTURE LIST*
%ADD10C,0.125000*%
%ADD11C,0.010000*%
%ADD12C,0.120000*%
%ADD13C,0.150000*%
G04 APERTURE END LIST*
D10*
X123229761Y-106430000D02*
X123182142Y-106406190D01*
X123110714Y-106406190D01*
X123039285Y-106430000D01*
X122991666Y-106477619D01*
X122967857Y-106525238D01*
X122944047Y-106620476D01*
X122944047Y-106691904D01*
X122967857Y-106787142D01*
X122991666Y-106834761D01*
X123039285Y-106882380D01*
X123110714Y-106906190D01*
X123158333Y-106906190D01*
X123229761Y-106882380D01*
X123253571Y-106858571D01*
X123253571Y-106691904D01*
X123158333Y-106691904D01*
X123467857Y-106906190D02*
X123467857Y-106406190D01*
X123658333Y-106406190D01*
X123705952Y-106430000D01*
X123729761Y-106453809D01*
X123753571Y-106501428D01*
X123753571Y-106572857D01*
X123729761Y-106620476D01*
X123705952Y-106644285D01*
X123658333Y-106668095D01*
X123467857Y-106668095D01*
X123944047Y-106453809D02*
X123967857Y-106430000D01*
X124015476Y-106406190D01*
X124134523Y-106406190D01*
X124182142Y-106430000D01*
X124205952Y-106453809D01*
X124229761Y-106501428D01*
X124229761Y-106549047D01*
X124205952Y-106620476D01*
X123920238Y-106906190D01*
X124229761Y-106906190D01*
X124539285Y-106406190D02*
X124586904Y-106406190D01*
X124634523Y-106430000D01*
X124658333Y-106453809D01*
X124682142Y-106501428D01*
X124705952Y-106596666D01*
X124705952Y-106715714D01*
X124682142Y-106810952D01*
X124658333Y-106858571D01*
X124634523Y-106882380D01*
X124586904Y-106906190D01*
X124539285Y-106906190D01*
X124491666Y-106882380D01*
X124467857Y-106858571D01*
X124444047Y-106810952D01*
X124420238Y-106715714D01*
X124420238Y-106596666D01*
X124444047Y-106501428D01*
X124467857Y-106453809D01*
X124491666Y-106430000D01*
X124539285Y-106406190D01*
X125630857Y-106430000D02*
X125583238Y-106406190D01*
X125511809Y-106406190D01*
X125440380Y-106430000D01*
X125392761Y-106477619D01*
X125368952Y-106525238D01*
X125345142Y-106620476D01*
X125345142Y-106691904D01*
X125368952Y-106787142D01*
X125392761Y-106834761D01*
X125440380Y-106882380D01*
X125511809Y-106906190D01*
X125559428Y-106906190D01*
X125630857Y-106882380D01*
X125654666Y-106858571D01*
X125654666Y-106691904D01*
X125559428Y-106691904D01*
X125868952Y-106906190D02*
X125868952Y-106406190D01*
X126154666Y-106906190D01*
X126154666Y-106406190D01*
X126368952Y-106453809D02*
X126392761Y-106430000D01*
X126440380Y-106406190D01*
X126559428Y-106406190D01*
X126607047Y-106430000D01*
X126630857Y-106453809D01*
X126654666Y-106501428D01*
X126654666Y-106549047D01*
X126630857Y-106620476D01*
X126345142Y-106906190D01*
X126654666Y-106906190D01*
X126964190Y-106406190D02*
X127011809Y-106406190D01*
X127059428Y-106430000D01*
X127083238Y-106453809D01*
X127107047Y-106501428D01*
X127130857Y-106596666D01*
X127130857Y-106715714D01*
X127107047Y-106810952D01*
X127083238Y-106858571D01*
X127059428Y-106882380D01*
X127011809Y-106906190D01*
X126964190Y-106906190D01*
X126916571Y-106882380D01*
X126892761Y-106858571D01*
X126868952Y-106810952D01*
X126845142Y-106715714D01*
X126845142Y-106596666D01*
X126868952Y-106501428D01*
X126892761Y-106453809D01*
X126916571Y-106430000D01*
X126964190Y-106406190D01*
X123205952Y-103866190D02*
X123515476Y-103866190D01*
X123348809Y-104056666D01*
X123420238Y-104056666D01*
X123467857Y-104080476D01*
X123491666Y-104104285D01*
X123515476Y-104151904D01*
X123515476Y-104270952D01*
X123491666Y-104318571D01*
X123467857Y-104342380D01*
X123420238Y-104366190D01*
X123277380Y-104366190D01*
X123229761Y-104342380D01*
X123205952Y-104318571D01*
X123658333Y-103866190D02*
X123825000Y-104366190D01*
X123991666Y-103866190D01*
X124110714Y-103866190D02*
X124420238Y-103866190D01*
X124253571Y-104056666D01*
X124325000Y-104056666D01*
X124372619Y-104080476D01*
X124396428Y-104104285D01*
X124420238Y-104151904D01*
X124420238Y-104270952D01*
X124396428Y-104318571D01*
X124372619Y-104342380D01*
X124325000Y-104366190D01*
X124182142Y-104366190D01*
X124134523Y-104342380D01*
X124110714Y-104318571D01*
X125618952Y-103866190D02*
X125928476Y-103866190D01*
X125761809Y-104056666D01*
X125833238Y-104056666D01*
X125880857Y-104080476D01*
X125904666Y-104104285D01*
X125928476Y-104151904D01*
X125928476Y-104270952D01*
X125904666Y-104318571D01*
X125880857Y-104342380D01*
X125833238Y-104366190D01*
X125690380Y-104366190D01*
X125642761Y-104342380D01*
X125618952Y-104318571D01*
X126071333Y-103866190D02*
X126238000Y-104366190D01*
X126404666Y-103866190D01*
X126523714Y-103866190D02*
X126833238Y-103866190D01*
X126666571Y-104056666D01*
X126738000Y-104056666D01*
X126785619Y-104080476D01*
X126809428Y-104104285D01*
X126833238Y-104151904D01*
X126833238Y-104270952D01*
X126809428Y-104318571D01*
X126785619Y-104342380D01*
X126738000Y-104366190D01*
X126595142Y-104366190D01*
X126547523Y-104342380D01*
X126523714Y-104318571D01*
X123444047Y-101350000D02*
X123396428Y-101326190D01*
X123325000Y-101326190D01*
X123253571Y-101350000D01*
X123205952Y-101397619D01*
X123182142Y-101445238D01*
X123158333Y-101540476D01*
X123158333Y-101611904D01*
X123182142Y-101707142D01*
X123205952Y-101754761D01*
X123253571Y-101802380D01*
X123325000Y-101826190D01*
X123372619Y-101826190D01*
X123444047Y-101802380D01*
X123467857Y-101778571D01*
X123467857Y-101611904D01*
X123372619Y-101611904D01*
X123682142Y-101826190D02*
X123682142Y-101326190D01*
X123967857Y-101826190D01*
X123967857Y-101326190D01*
X124205952Y-101826190D02*
X124205952Y-101326190D01*
X124325000Y-101326190D01*
X124396428Y-101350000D01*
X124444047Y-101397619D01*
X124467857Y-101445238D01*
X124491666Y-101540476D01*
X124491666Y-101611904D01*
X124467857Y-101707142D01*
X124444047Y-101754761D01*
X124396428Y-101802380D01*
X124325000Y-101826190D01*
X124205952Y-101826190D01*
X125857047Y-101350000D02*
X125809428Y-101326190D01*
X125738000Y-101326190D01*
X125666571Y-101350000D01*
X125618952Y-101397619D01*
X125595142Y-101445238D01*
X125571333Y-101540476D01*
X125571333Y-101611904D01*
X125595142Y-101707142D01*
X125618952Y-101754761D01*
X125666571Y-101802380D01*
X125738000Y-101826190D01*
X125785619Y-101826190D01*
X125857047Y-101802380D01*
X125880857Y-101778571D01*
X125880857Y-101611904D01*
X125785619Y-101611904D01*
X126095142Y-101826190D02*
X126095142Y-101326190D01*
X126380857Y-101826190D01*
X126380857Y-101326190D01*
X126618952Y-101826190D02*
X126618952Y-101326190D01*
X126738000Y-101326190D01*
X126809428Y-101350000D01*
X126857047Y-101397619D01*
X126880857Y-101445238D01*
X126904666Y-101540476D01*
X126904666Y-101611904D01*
X126880857Y-101707142D01*
X126857047Y-101754761D01*
X126809428Y-101802380D01*
X126738000Y-101826190D01*
X126618952Y-101826190D01*
X125630857Y-98810000D02*
X125583238Y-98786190D01*
X125511809Y-98786190D01*
X125440380Y-98810000D01*
X125392761Y-98857619D01*
X125368952Y-98905238D01*
X125345142Y-99000476D01*
X125345142Y-99071904D01*
X125368952Y-99167142D01*
X125392761Y-99214761D01*
X125440380Y-99262380D01*
X125511809Y-99286190D01*
X125559428Y-99286190D01*
X125630857Y-99262380D01*
X125654666Y-99238571D01*
X125654666Y-99071904D01*
X125559428Y-99071904D01*
X125868952Y-99286190D02*
X125868952Y-98786190D01*
X126154666Y-99286190D01*
X126154666Y-98786190D01*
X126368952Y-98833809D02*
X126392761Y-98810000D01*
X126440380Y-98786190D01*
X126559428Y-98786190D01*
X126607047Y-98810000D01*
X126630857Y-98833809D01*
X126654666Y-98881428D01*
X126654666Y-98929047D01*
X126630857Y-99000476D01*
X126345142Y-99286190D01*
X126654666Y-99286190D01*
X127130857Y-99286190D02*
X126845142Y-99286190D01*
X126988000Y-99286190D02*
X126988000Y-98786190D01*
X126940380Y-98857619D01*
X126892761Y-98905238D01*
X126845142Y-98929047D01*
X123229761Y-98810000D02*
X123182142Y-98786190D01*
X123110714Y-98786190D01*
X123039285Y-98810000D01*
X122991666Y-98857619D01*
X122967857Y-98905238D01*
X122944047Y-99000476D01*
X122944047Y-99071904D01*
X122967857Y-99167142D01*
X122991666Y-99214761D01*
X123039285Y-99262380D01*
X123110714Y-99286190D01*
X123158333Y-99286190D01*
X123229761Y-99262380D01*
X123253571Y-99238571D01*
X123253571Y-99071904D01*
X123158333Y-99071904D01*
X123467857Y-99286190D02*
X123467857Y-98786190D01*
X123658333Y-98786190D01*
X123705952Y-98810000D01*
X123729761Y-98833809D01*
X123753571Y-98881428D01*
X123753571Y-98952857D01*
X123729761Y-99000476D01*
X123705952Y-99024285D01*
X123658333Y-99048095D01*
X123467857Y-99048095D01*
X123944047Y-98833809D02*
X123967857Y-98810000D01*
X124015476Y-98786190D01*
X124134523Y-98786190D01*
X124182142Y-98810000D01*
X124205952Y-98833809D01*
X124229761Y-98881428D01*
X124229761Y-98929047D01*
X124205952Y-99000476D01*
X123920238Y-99286190D01*
X124229761Y-99286190D01*
X124705952Y-99286190D02*
X124420238Y-99286190D01*
X124563095Y-99286190D02*
X124563095Y-98786190D01*
X124515476Y-98857619D01*
X124467857Y-98905238D01*
X124420238Y-98929047D01*
X123229761Y-96270000D02*
X123182142Y-96246190D01*
X123110714Y-96246190D01*
X123039285Y-96270000D01*
X122991666Y-96317619D01*
X122967857Y-96365238D01*
X122944047Y-96460476D01*
X122944047Y-96531904D01*
X122967857Y-96627142D01*
X122991666Y-96674761D01*
X123039285Y-96722380D01*
X123110714Y-96746190D01*
X123158333Y-96746190D01*
X123229761Y-96722380D01*
X123253571Y-96698571D01*
X123253571Y-96531904D01*
X123158333Y-96531904D01*
X123467857Y-96746190D02*
X123467857Y-96246190D01*
X123658333Y-96246190D01*
X123705952Y-96270000D01*
X123729761Y-96293809D01*
X123753571Y-96341428D01*
X123753571Y-96412857D01*
X123729761Y-96460476D01*
X123705952Y-96484285D01*
X123658333Y-96508095D01*
X123467857Y-96508095D01*
X123944047Y-96293809D02*
X123967857Y-96270000D01*
X124015476Y-96246190D01*
X124134523Y-96246190D01*
X124182142Y-96270000D01*
X124205952Y-96293809D01*
X124229761Y-96341428D01*
X124229761Y-96389047D01*
X124205952Y-96460476D01*
X123920238Y-96746190D01*
X124229761Y-96746190D01*
X124420238Y-96293809D02*
X124444047Y-96270000D01*
X124491666Y-96246190D01*
X124610714Y-96246190D01*
X124658333Y-96270000D01*
X124682142Y-96293809D01*
X124705952Y-96341428D01*
X124705952Y-96389047D01*
X124682142Y-96460476D01*
X124396428Y-96746190D01*
X124705952Y-96746190D01*
X125630857Y-96270000D02*
X125583238Y-96246190D01*
X125511809Y-96246190D01*
X125440380Y-96270000D01*
X125392761Y-96317619D01*
X125368952Y-96365238D01*
X125345142Y-96460476D01*
X125345142Y-96531904D01*
X125368952Y-96627142D01*
X125392761Y-96674761D01*
X125440380Y-96722380D01*
X125511809Y-96746190D01*
X125559428Y-96746190D01*
X125630857Y-96722380D01*
X125654666Y-96698571D01*
X125654666Y-96531904D01*
X125559428Y-96531904D01*
X125868952Y-96746190D02*
X125868952Y-96246190D01*
X126154666Y-96746190D01*
X126154666Y-96246190D01*
X126368952Y-96293809D02*
X126392761Y-96270000D01*
X126440380Y-96246190D01*
X126559428Y-96246190D01*
X126607047Y-96270000D01*
X126630857Y-96293809D01*
X126654666Y-96341428D01*
X126654666Y-96389047D01*
X126630857Y-96460476D01*
X126345142Y-96746190D01*
X126654666Y-96746190D01*
X126845142Y-96293809D02*
X126868952Y-96270000D01*
X126916571Y-96246190D01*
X127035619Y-96246190D01*
X127083238Y-96270000D01*
X127107047Y-96293809D01*
X127130857Y-96341428D01*
X127130857Y-96389047D01*
X127107047Y-96460476D01*
X126821333Y-96746190D01*
X127130857Y-96746190D01*
X123229761Y-93730000D02*
X123182142Y-93706190D01*
X123110714Y-93706190D01*
X123039285Y-93730000D01*
X122991666Y-93777619D01*
X122967857Y-93825238D01*
X122944047Y-93920476D01*
X122944047Y-93991904D01*
X122967857Y-94087142D01*
X122991666Y-94134761D01*
X123039285Y-94182380D01*
X123110714Y-94206190D01*
X123158333Y-94206190D01*
X123229761Y-94182380D01*
X123253571Y-94158571D01*
X123253571Y-93991904D01*
X123158333Y-93991904D01*
X123467857Y-94206190D02*
X123467857Y-93706190D01*
X123658333Y-93706190D01*
X123705952Y-93730000D01*
X123729761Y-93753809D01*
X123753571Y-93801428D01*
X123753571Y-93872857D01*
X123729761Y-93920476D01*
X123705952Y-93944285D01*
X123658333Y-93968095D01*
X123467857Y-93968095D01*
X123944047Y-93753809D02*
X123967857Y-93730000D01*
X124015476Y-93706190D01*
X124134523Y-93706190D01*
X124182142Y-93730000D01*
X124205952Y-93753809D01*
X124229761Y-93801428D01*
X124229761Y-93849047D01*
X124205952Y-93920476D01*
X123920238Y-94206190D01*
X124229761Y-94206190D01*
X124396428Y-93706190D02*
X124705952Y-93706190D01*
X124539285Y-93896666D01*
X124610714Y-93896666D01*
X124658333Y-93920476D01*
X124682142Y-93944285D01*
X124705952Y-93991904D01*
X124705952Y-94110952D01*
X124682142Y-94158571D01*
X124658333Y-94182380D01*
X124610714Y-94206190D01*
X124467857Y-94206190D01*
X124420238Y-94182380D01*
X124396428Y-94158571D01*
X125630857Y-93730000D02*
X125583238Y-93706190D01*
X125511809Y-93706190D01*
X125440380Y-93730000D01*
X125392761Y-93777619D01*
X125368952Y-93825238D01*
X125345142Y-93920476D01*
X125345142Y-93991904D01*
X125368952Y-94087142D01*
X125392761Y-94134761D01*
X125440380Y-94182380D01*
X125511809Y-94206190D01*
X125559428Y-94206190D01*
X125630857Y-94182380D01*
X125654666Y-94158571D01*
X125654666Y-93991904D01*
X125559428Y-93991904D01*
X125868952Y-94206190D02*
X125868952Y-93706190D01*
X126154666Y-94206190D01*
X126154666Y-93706190D01*
X126368952Y-93753809D02*
X126392761Y-93730000D01*
X126440380Y-93706190D01*
X126559428Y-93706190D01*
X126607047Y-93730000D01*
X126630857Y-93753809D01*
X126654666Y-93801428D01*
X126654666Y-93849047D01*
X126630857Y-93920476D01*
X126345142Y-94206190D01*
X126654666Y-94206190D01*
X126821333Y-93706190D02*
X127130857Y-93706190D01*
X126964190Y-93896666D01*
X127035619Y-93896666D01*
X127083238Y-93920476D01*
X127107047Y-93944285D01*
X127130857Y-93991904D01*
X127130857Y-94110952D01*
X127107047Y-94158571D01*
X127083238Y-94182380D01*
X127035619Y-94206190D01*
X126892761Y-94206190D01*
X126845142Y-94182380D01*
X126821333Y-94158571D01*
X123229761Y-91190000D02*
X123182142Y-91166190D01*
X123110714Y-91166190D01*
X123039285Y-91190000D01*
X122991666Y-91237619D01*
X122967857Y-91285238D01*
X122944047Y-91380476D01*
X122944047Y-91451904D01*
X122967857Y-91547142D01*
X122991666Y-91594761D01*
X123039285Y-91642380D01*
X123110714Y-91666190D01*
X123158333Y-91666190D01*
X123229761Y-91642380D01*
X123253571Y-91618571D01*
X123253571Y-91451904D01*
X123158333Y-91451904D01*
X123467857Y-91666190D02*
X123467857Y-91166190D01*
X123658333Y-91166190D01*
X123705952Y-91190000D01*
X123729761Y-91213809D01*
X123753571Y-91261428D01*
X123753571Y-91332857D01*
X123729761Y-91380476D01*
X123705952Y-91404285D01*
X123658333Y-91428095D01*
X123467857Y-91428095D01*
X123944047Y-91213809D02*
X123967857Y-91190000D01*
X124015476Y-91166190D01*
X124134523Y-91166190D01*
X124182142Y-91190000D01*
X124205952Y-91213809D01*
X124229761Y-91261428D01*
X124229761Y-91309047D01*
X124205952Y-91380476D01*
X123920238Y-91666190D01*
X124229761Y-91666190D01*
X124658333Y-91332857D02*
X124658333Y-91666190D01*
X124539285Y-91142380D02*
X124420238Y-91499523D01*
X124729761Y-91499523D01*
X125630857Y-91190000D02*
X125583238Y-91166190D01*
X125511809Y-91166190D01*
X125440380Y-91190000D01*
X125392761Y-91237619D01*
X125368952Y-91285238D01*
X125345142Y-91380476D01*
X125345142Y-91451904D01*
X125368952Y-91547142D01*
X125392761Y-91594761D01*
X125440380Y-91642380D01*
X125511809Y-91666190D01*
X125559428Y-91666190D01*
X125630857Y-91642380D01*
X125654666Y-91618571D01*
X125654666Y-91451904D01*
X125559428Y-91451904D01*
X125868952Y-91666190D02*
X125868952Y-91166190D01*
X126154666Y-91666190D01*
X126154666Y-91166190D01*
X126368952Y-91213809D02*
X126392761Y-91190000D01*
X126440380Y-91166190D01*
X126559428Y-91166190D01*
X126607047Y-91190000D01*
X126630857Y-91213809D01*
X126654666Y-91261428D01*
X126654666Y-91309047D01*
X126630857Y-91380476D01*
X126345142Y-91666190D01*
X126654666Y-91666190D01*
X127083238Y-91332857D02*
X127083238Y-91666190D01*
X126964190Y-91142380D02*
X126845142Y-91499523D01*
X127154666Y-91499523D01*
X125630857Y-88650000D02*
X125583238Y-88626190D01*
X125511809Y-88626190D01*
X125440380Y-88650000D01*
X125392761Y-88697619D01*
X125368952Y-88745238D01*
X125345142Y-88840476D01*
X125345142Y-88911904D01*
X125368952Y-89007142D01*
X125392761Y-89054761D01*
X125440380Y-89102380D01*
X125511809Y-89126190D01*
X125559428Y-89126190D01*
X125630857Y-89102380D01*
X125654666Y-89078571D01*
X125654666Y-88911904D01*
X125559428Y-88911904D01*
X125868952Y-89126190D02*
X125868952Y-88626190D01*
X126154666Y-89126190D01*
X126154666Y-88626190D01*
X126368952Y-88673809D02*
X126392761Y-88650000D01*
X126440380Y-88626190D01*
X126559428Y-88626190D01*
X126607047Y-88650000D01*
X126630857Y-88673809D01*
X126654666Y-88721428D01*
X126654666Y-88769047D01*
X126630857Y-88840476D01*
X126345142Y-89126190D01*
X126654666Y-89126190D01*
X127107047Y-88626190D02*
X126868952Y-88626190D01*
X126845142Y-88864285D01*
X126868952Y-88840476D01*
X126916571Y-88816666D01*
X127035619Y-88816666D01*
X127083238Y-88840476D01*
X127107047Y-88864285D01*
X127130857Y-88911904D01*
X127130857Y-89030952D01*
X127107047Y-89078571D01*
X127083238Y-89102380D01*
X127035619Y-89126190D01*
X126916571Y-89126190D01*
X126868952Y-89102380D01*
X126845142Y-89078571D01*
X123229761Y-88650000D02*
X123182142Y-88626190D01*
X123110714Y-88626190D01*
X123039285Y-88650000D01*
X122991666Y-88697619D01*
X122967857Y-88745238D01*
X122944047Y-88840476D01*
X122944047Y-88911904D01*
X122967857Y-89007142D01*
X122991666Y-89054761D01*
X123039285Y-89102380D01*
X123110714Y-89126190D01*
X123158333Y-89126190D01*
X123229761Y-89102380D01*
X123253571Y-89078571D01*
X123253571Y-88911904D01*
X123158333Y-88911904D01*
X123467857Y-89126190D02*
X123467857Y-88626190D01*
X123658333Y-88626190D01*
X123705952Y-88650000D01*
X123729761Y-88673809D01*
X123753571Y-88721428D01*
X123753571Y-88792857D01*
X123729761Y-88840476D01*
X123705952Y-88864285D01*
X123658333Y-88888095D01*
X123467857Y-88888095D01*
X123944047Y-88673809D02*
X123967857Y-88650000D01*
X124015476Y-88626190D01*
X124134523Y-88626190D01*
X124182142Y-88650000D01*
X124205952Y-88673809D01*
X124229761Y-88721428D01*
X124229761Y-88769047D01*
X124205952Y-88840476D01*
X123920238Y-89126190D01*
X124229761Y-89126190D01*
X124682142Y-88626190D02*
X124444047Y-88626190D01*
X124420238Y-88864285D01*
X124444047Y-88840476D01*
X124491666Y-88816666D01*
X124610714Y-88816666D01*
X124658333Y-88840476D01*
X124682142Y-88864285D01*
X124705952Y-88911904D01*
X124705952Y-89030952D01*
X124682142Y-89078571D01*
X124658333Y-89102380D01*
X124610714Y-89126190D01*
X124491666Y-89126190D01*
X124444047Y-89102380D01*
X124420238Y-89078571D01*
X125757857Y-86110000D02*
X125710238Y-86086190D01*
X125638809Y-86086190D01*
X125567380Y-86110000D01*
X125519761Y-86157619D01*
X125495952Y-86205238D01*
X125472142Y-86300476D01*
X125472142Y-86371904D01*
X125495952Y-86467142D01*
X125519761Y-86514761D01*
X125567380Y-86562380D01*
X125638809Y-86586190D01*
X125686428Y-86586190D01*
X125757857Y-86562380D01*
X125781666Y-86538571D01*
X125781666Y-86371904D01*
X125686428Y-86371904D01*
X125995952Y-86586190D02*
X125995952Y-86086190D01*
X126281666Y-86586190D01*
X126281666Y-86086190D01*
X126495952Y-86133809D02*
X126519761Y-86110000D01*
X126567380Y-86086190D01*
X126686428Y-86086190D01*
X126734047Y-86110000D01*
X126757857Y-86133809D01*
X126781666Y-86181428D01*
X126781666Y-86229047D01*
X126757857Y-86300476D01*
X126472142Y-86586190D01*
X126781666Y-86586190D01*
X127210238Y-86086190D02*
X127115000Y-86086190D01*
X127067380Y-86110000D01*
X127043571Y-86133809D01*
X126995952Y-86205238D01*
X126972142Y-86300476D01*
X126972142Y-86490952D01*
X126995952Y-86538571D01*
X127019761Y-86562380D01*
X127067380Y-86586190D01*
X127162619Y-86586190D01*
X127210238Y-86562380D01*
X127234047Y-86538571D01*
X127257857Y-86490952D01*
X127257857Y-86371904D01*
X127234047Y-86324285D01*
X127210238Y-86300476D01*
X127162619Y-86276666D01*
X127067380Y-86276666D01*
X127019761Y-86300476D01*
X126995952Y-86324285D01*
X126972142Y-86371904D01*
X123229761Y-86110000D02*
X123182142Y-86086190D01*
X123110714Y-86086190D01*
X123039285Y-86110000D01*
X122991666Y-86157619D01*
X122967857Y-86205238D01*
X122944047Y-86300476D01*
X122944047Y-86371904D01*
X122967857Y-86467142D01*
X122991666Y-86514761D01*
X123039285Y-86562380D01*
X123110714Y-86586190D01*
X123158333Y-86586190D01*
X123229761Y-86562380D01*
X123253571Y-86538571D01*
X123253571Y-86371904D01*
X123158333Y-86371904D01*
X123467857Y-86586190D02*
X123467857Y-86086190D01*
X123658333Y-86086190D01*
X123705952Y-86110000D01*
X123729761Y-86133809D01*
X123753571Y-86181428D01*
X123753571Y-86252857D01*
X123729761Y-86300476D01*
X123705952Y-86324285D01*
X123658333Y-86348095D01*
X123467857Y-86348095D01*
X123944047Y-86133809D02*
X123967857Y-86110000D01*
X124015476Y-86086190D01*
X124134523Y-86086190D01*
X124182142Y-86110000D01*
X124205952Y-86133809D01*
X124229761Y-86181428D01*
X124229761Y-86229047D01*
X124205952Y-86300476D01*
X123920238Y-86586190D01*
X124229761Y-86586190D01*
X124658333Y-86086190D02*
X124563095Y-86086190D01*
X124515476Y-86110000D01*
X124491666Y-86133809D01*
X124444047Y-86205238D01*
X124420238Y-86300476D01*
X124420238Y-86490952D01*
X124444047Y-86538571D01*
X124467857Y-86562380D01*
X124515476Y-86586190D01*
X124610714Y-86586190D01*
X124658333Y-86562380D01*
X124682142Y-86538571D01*
X124705952Y-86490952D01*
X124705952Y-86371904D01*
X124682142Y-86324285D01*
X124658333Y-86300476D01*
X124610714Y-86276666D01*
X124515476Y-86276666D01*
X124467857Y-86300476D01*
X124444047Y-86324285D01*
X124420238Y-86371904D01*
X125630857Y-83570000D02*
X125583238Y-83546190D01*
X125511809Y-83546190D01*
X125440380Y-83570000D01*
X125392761Y-83617619D01*
X125368952Y-83665238D01*
X125345142Y-83760476D01*
X125345142Y-83831904D01*
X125368952Y-83927142D01*
X125392761Y-83974761D01*
X125440380Y-84022380D01*
X125511809Y-84046190D01*
X125559428Y-84046190D01*
X125630857Y-84022380D01*
X125654666Y-83998571D01*
X125654666Y-83831904D01*
X125559428Y-83831904D01*
X125868952Y-84046190D02*
X125868952Y-83546190D01*
X126154666Y-84046190D01*
X126154666Y-83546190D01*
X126368952Y-83593809D02*
X126392761Y-83570000D01*
X126440380Y-83546190D01*
X126559428Y-83546190D01*
X126607047Y-83570000D01*
X126630857Y-83593809D01*
X126654666Y-83641428D01*
X126654666Y-83689047D01*
X126630857Y-83760476D01*
X126345142Y-84046190D01*
X126654666Y-84046190D01*
X126821333Y-83546190D02*
X127154666Y-83546190D01*
X126940380Y-84046190D01*
X123102761Y-83570000D02*
X123055142Y-83546190D01*
X122983714Y-83546190D01*
X122912285Y-83570000D01*
X122864666Y-83617619D01*
X122840857Y-83665238D01*
X122817047Y-83760476D01*
X122817047Y-83831904D01*
X122840857Y-83927142D01*
X122864666Y-83974761D01*
X122912285Y-84022380D01*
X122983714Y-84046190D01*
X123031333Y-84046190D01*
X123102761Y-84022380D01*
X123126571Y-83998571D01*
X123126571Y-83831904D01*
X123031333Y-83831904D01*
X123340857Y-84046190D02*
X123340857Y-83546190D01*
X123531333Y-83546190D01*
X123578952Y-83570000D01*
X123602761Y-83593809D01*
X123626571Y-83641428D01*
X123626571Y-83712857D01*
X123602761Y-83760476D01*
X123578952Y-83784285D01*
X123531333Y-83808095D01*
X123340857Y-83808095D01*
X123817047Y-83593809D02*
X123840857Y-83570000D01*
X123888476Y-83546190D01*
X124007523Y-83546190D01*
X124055142Y-83570000D01*
X124078952Y-83593809D01*
X124102761Y-83641428D01*
X124102761Y-83689047D01*
X124078952Y-83760476D01*
X123793238Y-84046190D01*
X124102761Y-84046190D01*
X124269428Y-83546190D02*
X124602761Y-83546190D01*
X124388476Y-84046190D01*
X123317047Y-81030000D02*
X123269428Y-81006190D01*
X123198000Y-81006190D01*
X123126571Y-81030000D01*
X123078952Y-81077619D01*
X123055142Y-81125238D01*
X123031333Y-81220476D01*
X123031333Y-81291904D01*
X123055142Y-81387142D01*
X123078952Y-81434761D01*
X123126571Y-81482380D01*
X123198000Y-81506190D01*
X123245619Y-81506190D01*
X123317047Y-81482380D01*
X123340857Y-81458571D01*
X123340857Y-81291904D01*
X123245619Y-81291904D01*
X123555142Y-81506190D02*
X123555142Y-81006190D01*
X123840857Y-81506190D01*
X123840857Y-81006190D01*
X124078952Y-81506190D02*
X124078952Y-81006190D01*
X124198000Y-81006190D01*
X124269428Y-81030000D01*
X124317047Y-81077619D01*
X124340857Y-81125238D01*
X124364666Y-81220476D01*
X124364666Y-81291904D01*
X124340857Y-81387142D01*
X124317047Y-81434761D01*
X124269428Y-81482380D01*
X124198000Y-81506190D01*
X124078952Y-81506190D01*
X125730047Y-81030000D02*
X125682428Y-81006190D01*
X125611000Y-81006190D01*
X125539571Y-81030000D01*
X125491952Y-81077619D01*
X125468142Y-81125238D01*
X125444333Y-81220476D01*
X125444333Y-81291904D01*
X125468142Y-81387142D01*
X125491952Y-81434761D01*
X125539571Y-81482380D01*
X125611000Y-81506190D01*
X125658619Y-81506190D01*
X125730047Y-81482380D01*
X125753857Y-81458571D01*
X125753857Y-81291904D01*
X125658619Y-81291904D01*
X125968142Y-81506190D02*
X125968142Y-81006190D01*
X126253857Y-81506190D01*
X126253857Y-81006190D01*
X126491952Y-81506190D02*
X126491952Y-81006190D01*
X126611000Y-81006190D01*
X126682428Y-81030000D01*
X126730047Y-81077619D01*
X126753857Y-81125238D01*
X126777666Y-81220476D01*
X126777666Y-81291904D01*
X126753857Y-81387142D01*
X126730047Y-81434761D01*
X126682428Y-81482380D01*
X126611000Y-81506190D01*
X126491952Y-81506190D01*
X125468142Y-78775714D02*
X125849095Y-78775714D01*
X125658619Y-78966190D02*
X125658619Y-78585238D01*
X126325285Y-78466190D02*
X126087190Y-78466190D01*
X126063380Y-78704285D01*
X126087190Y-78680476D01*
X126134809Y-78656666D01*
X126253857Y-78656666D01*
X126301476Y-78680476D01*
X126325285Y-78704285D01*
X126349095Y-78751904D01*
X126349095Y-78870952D01*
X126325285Y-78918571D01*
X126301476Y-78942380D01*
X126253857Y-78966190D01*
X126134809Y-78966190D01*
X126087190Y-78942380D01*
X126063380Y-78918571D01*
X126491952Y-78466190D02*
X126658619Y-78966190D01*
X126825285Y-78466190D01*
X122928142Y-78775714D02*
X123309095Y-78775714D01*
X123118619Y-78966190D02*
X123118619Y-78585238D01*
X123785285Y-78466190D02*
X123547190Y-78466190D01*
X123523380Y-78704285D01*
X123547190Y-78680476D01*
X123594809Y-78656666D01*
X123713857Y-78656666D01*
X123761476Y-78680476D01*
X123785285Y-78704285D01*
X123809095Y-78751904D01*
X123809095Y-78870952D01*
X123785285Y-78918571D01*
X123761476Y-78942380D01*
X123713857Y-78966190D01*
X123594809Y-78966190D01*
X123547190Y-78942380D01*
X123523380Y-78918571D01*
X123951952Y-78466190D02*
X124118619Y-78966190D01*
X124285285Y-78466190D01*
X160936857Y-95254000D02*
X160889238Y-95230190D01*
X160817809Y-95230190D01*
X160746380Y-95254000D01*
X160698761Y-95301619D01*
X160674952Y-95349238D01*
X160651142Y-95444476D01*
X160651142Y-95515904D01*
X160674952Y-95611142D01*
X160698761Y-95658761D01*
X160746380Y-95706380D01*
X160817809Y-95730190D01*
X160865428Y-95730190D01*
X160936857Y-95706380D01*
X160960666Y-95682571D01*
X160960666Y-95515904D01*
X160865428Y-95515904D01*
X161174952Y-95730190D02*
X161174952Y-95230190D01*
X161460666Y-95730190D01*
X161460666Y-95230190D01*
X161674952Y-95277809D02*
X161698761Y-95254000D01*
X161746380Y-95230190D01*
X161865428Y-95230190D01*
X161913047Y-95254000D01*
X161936857Y-95277809D01*
X161960666Y-95325428D01*
X161960666Y-95373047D01*
X161936857Y-95444476D01*
X161651142Y-95730190D01*
X161960666Y-95730190D01*
X162389238Y-95230190D02*
X162294000Y-95230190D01*
X162246380Y-95254000D01*
X162222571Y-95277809D01*
X162174952Y-95349238D01*
X162151142Y-95444476D01*
X162151142Y-95634952D01*
X162174952Y-95682571D01*
X162198761Y-95706380D01*
X162246380Y-95730190D01*
X162341619Y-95730190D01*
X162389238Y-95706380D01*
X162413047Y-95682571D01*
X162436857Y-95634952D01*
X162436857Y-95515904D01*
X162413047Y-95468285D01*
X162389238Y-95444476D01*
X162341619Y-95420666D01*
X162246380Y-95420666D01*
X162198761Y-95444476D01*
X162174952Y-95468285D01*
X162151142Y-95515904D01*
X163488761Y-95254000D02*
X163441142Y-95230190D01*
X163369714Y-95230190D01*
X163298285Y-95254000D01*
X163250666Y-95301619D01*
X163226857Y-95349238D01*
X163203047Y-95444476D01*
X163203047Y-95515904D01*
X163226857Y-95611142D01*
X163250666Y-95658761D01*
X163298285Y-95706380D01*
X163369714Y-95730190D01*
X163417333Y-95730190D01*
X163488761Y-95706380D01*
X163512571Y-95682571D01*
X163512571Y-95515904D01*
X163417333Y-95515904D01*
X163726857Y-95730190D02*
X163726857Y-95230190D01*
X163917333Y-95230190D01*
X163964952Y-95254000D01*
X163988761Y-95277809D01*
X164012571Y-95325428D01*
X164012571Y-95396857D01*
X163988761Y-95444476D01*
X163964952Y-95468285D01*
X163917333Y-95492095D01*
X163726857Y-95492095D01*
X164203047Y-95277809D02*
X164226857Y-95254000D01*
X164274476Y-95230190D01*
X164393523Y-95230190D01*
X164441142Y-95254000D01*
X164464952Y-95277809D01*
X164488761Y-95325428D01*
X164488761Y-95373047D01*
X164464952Y-95444476D01*
X164179238Y-95730190D01*
X164488761Y-95730190D01*
X164917333Y-95230190D02*
X164822095Y-95230190D01*
X164774476Y-95254000D01*
X164750666Y-95277809D01*
X164703047Y-95349238D01*
X164679238Y-95444476D01*
X164679238Y-95634952D01*
X164703047Y-95682571D01*
X164726857Y-95706380D01*
X164774476Y-95730190D01*
X164869714Y-95730190D01*
X164917333Y-95706380D01*
X164941142Y-95682571D01*
X164964952Y-95634952D01*
X164964952Y-95515904D01*
X164941142Y-95468285D01*
X164917333Y-95444476D01*
X164869714Y-95420666D01*
X164774476Y-95420666D01*
X164726857Y-95444476D01*
X164703047Y-95468285D01*
X164679238Y-95515904D01*
X160809857Y-97921000D02*
X160762238Y-97897190D01*
X160690809Y-97897190D01*
X160619380Y-97921000D01*
X160571761Y-97968619D01*
X160547952Y-98016238D01*
X160524142Y-98111476D01*
X160524142Y-98182904D01*
X160547952Y-98278142D01*
X160571761Y-98325761D01*
X160619380Y-98373380D01*
X160690809Y-98397190D01*
X160738428Y-98397190D01*
X160809857Y-98373380D01*
X160833666Y-98349571D01*
X160833666Y-98182904D01*
X160738428Y-98182904D01*
X161047952Y-98397190D02*
X161047952Y-97897190D01*
X161333666Y-98397190D01*
X161333666Y-97897190D01*
X161547952Y-97944809D02*
X161571761Y-97921000D01*
X161619380Y-97897190D01*
X161738428Y-97897190D01*
X161786047Y-97921000D01*
X161809857Y-97944809D01*
X161833666Y-97992428D01*
X161833666Y-98040047D01*
X161809857Y-98111476D01*
X161524142Y-98397190D01*
X161833666Y-98397190D01*
X162286047Y-97897190D02*
X162047952Y-97897190D01*
X162024142Y-98135285D01*
X162047952Y-98111476D01*
X162095571Y-98087666D01*
X162214619Y-98087666D01*
X162262238Y-98111476D01*
X162286047Y-98135285D01*
X162309857Y-98182904D01*
X162309857Y-98301952D01*
X162286047Y-98349571D01*
X162262238Y-98373380D01*
X162214619Y-98397190D01*
X162095571Y-98397190D01*
X162047952Y-98373380D01*
X162024142Y-98349571D01*
X163488761Y-97921000D02*
X163441142Y-97897190D01*
X163369714Y-97897190D01*
X163298285Y-97921000D01*
X163250666Y-97968619D01*
X163226857Y-98016238D01*
X163203047Y-98111476D01*
X163203047Y-98182904D01*
X163226857Y-98278142D01*
X163250666Y-98325761D01*
X163298285Y-98373380D01*
X163369714Y-98397190D01*
X163417333Y-98397190D01*
X163488761Y-98373380D01*
X163512571Y-98349571D01*
X163512571Y-98182904D01*
X163417333Y-98182904D01*
X163726857Y-98397190D02*
X163726857Y-97897190D01*
X163917333Y-97897190D01*
X163964952Y-97921000D01*
X163988761Y-97944809D01*
X164012571Y-97992428D01*
X164012571Y-98063857D01*
X163988761Y-98111476D01*
X163964952Y-98135285D01*
X163917333Y-98159095D01*
X163726857Y-98159095D01*
X164203047Y-97944809D02*
X164226857Y-97921000D01*
X164274476Y-97897190D01*
X164393523Y-97897190D01*
X164441142Y-97921000D01*
X164464952Y-97944809D01*
X164488761Y-97992428D01*
X164488761Y-98040047D01*
X164464952Y-98111476D01*
X164179238Y-98397190D01*
X164488761Y-98397190D01*
X164941142Y-97897190D02*
X164703047Y-97897190D01*
X164679238Y-98135285D01*
X164703047Y-98111476D01*
X164750666Y-98087666D01*
X164869714Y-98087666D01*
X164917333Y-98111476D01*
X164941142Y-98135285D01*
X164964952Y-98182904D01*
X164964952Y-98301952D01*
X164941142Y-98349571D01*
X164917333Y-98373380D01*
X164869714Y-98397190D01*
X164750666Y-98397190D01*
X164703047Y-98373380D01*
X164679238Y-98349571D01*
X160936857Y-100334000D02*
X160889238Y-100310190D01*
X160817809Y-100310190D01*
X160746380Y-100334000D01*
X160698761Y-100381619D01*
X160674952Y-100429238D01*
X160651142Y-100524476D01*
X160651142Y-100595904D01*
X160674952Y-100691142D01*
X160698761Y-100738761D01*
X160746380Y-100786380D01*
X160817809Y-100810190D01*
X160865428Y-100810190D01*
X160936857Y-100786380D01*
X160960666Y-100762571D01*
X160960666Y-100595904D01*
X160865428Y-100595904D01*
X161174952Y-100810190D02*
X161174952Y-100310190D01*
X161460666Y-100810190D01*
X161460666Y-100310190D01*
X161674952Y-100357809D02*
X161698761Y-100334000D01*
X161746380Y-100310190D01*
X161865428Y-100310190D01*
X161913047Y-100334000D01*
X161936857Y-100357809D01*
X161960666Y-100405428D01*
X161960666Y-100453047D01*
X161936857Y-100524476D01*
X161651142Y-100810190D01*
X161960666Y-100810190D01*
X162389238Y-100476857D02*
X162389238Y-100810190D01*
X162270190Y-100286380D02*
X162151142Y-100643523D01*
X162460666Y-100643523D01*
X163488761Y-100334000D02*
X163441142Y-100310190D01*
X163369714Y-100310190D01*
X163298285Y-100334000D01*
X163250666Y-100381619D01*
X163226857Y-100429238D01*
X163203047Y-100524476D01*
X163203047Y-100595904D01*
X163226857Y-100691142D01*
X163250666Y-100738761D01*
X163298285Y-100786380D01*
X163369714Y-100810190D01*
X163417333Y-100810190D01*
X163488761Y-100786380D01*
X163512571Y-100762571D01*
X163512571Y-100595904D01*
X163417333Y-100595904D01*
X163726857Y-100810190D02*
X163726857Y-100310190D01*
X163917333Y-100310190D01*
X163964952Y-100334000D01*
X163988761Y-100357809D01*
X164012571Y-100405428D01*
X164012571Y-100476857D01*
X163988761Y-100524476D01*
X163964952Y-100548285D01*
X163917333Y-100572095D01*
X163726857Y-100572095D01*
X164203047Y-100357809D02*
X164226857Y-100334000D01*
X164274476Y-100310190D01*
X164393523Y-100310190D01*
X164441142Y-100334000D01*
X164464952Y-100357809D01*
X164488761Y-100405428D01*
X164488761Y-100453047D01*
X164464952Y-100524476D01*
X164179238Y-100810190D01*
X164488761Y-100810190D01*
X164917333Y-100476857D02*
X164917333Y-100810190D01*
X164798285Y-100286380D02*
X164679238Y-100643523D01*
X164988761Y-100643523D01*
X160924952Y-105390190D02*
X161234476Y-105390190D01*
X161067809Y-105580666D01*
X161139238Y-105580666D01*
X161186857Y-105604476D01*
X161210666Y-105628285D01*
X161234476Y-105675904D01*
X161234476Y-105794952D01*
X161210666Y-105842571D01*
X161186857Y-105866380D01*
X161139238Y-105890190D01*
X160996380Y-105890190D01*
X160948761Y-105866380D01*
X160924952Y-105842571D01*
X161377333Y-105390190D02*
X161544000Y-105890190D01*
X161710666Y-105390190D01*
X161829714Y-105390190D02*
X162139238Y-105390190D01*
X161972571Y-105580666D01*
X162044000Y-105580666D01*
X162091619Y-105604476D01*
X162115428Y-105628285D01*
X162139238Y-105675904D01*
X162139238Y-105794952D01*
X162115428Y-105842571D01*
X162091619Y-105866380D01*
X162044000Y-105890190D01*
X161901142Y-105890190D01*
X161853523Y-105866380D01*
X161829714Y-105842571D01*
X161163047Y-102874000D02*
X161115428Y-102850190D01*
X161044000Y-102850190D01*
X160972571Y-102874000D01*
X160924952Y-102921619D01*
X160901142Y-102969238D01*
X160877333Y-103064476D01*
X160877333Y-103135904D01*
X160901142Y-103231142D01*
X160924952Y-103278761D01*
X160972571Y-103326380D01*
X161044000Y-103350190D01*
X161091619Y-103350190D01*
X161163047Y-103326380D01*
X161186857Y-103302571D01*
X161186857Y-103135904D01*
X161091619Y-103135904D01*
X161401142Y-103350190D02*
X161401142Y-102850190D01*
X161686857Y-103350190D01*
X161686857Y-102850190D01*
X161924952Y-103350190D02*
X161924952Y-102850190D01*
X162044000Y-102850190D01*
X162115428Y-102874000D01*
X162163047Y-102921619D01*
X162186857Y-102969238D01*
X162210666Y-103064476D01*
X162210666Y-103135904D01*
X162186857Y-103231142D01*
X162163047Y-103278761D01*
X162115428Y-103326380D01*
X162044000Y-103350190D01*
X161924952Y-103350190D01*
X163464952Y-105390190D02*
X163774476Y-105390190D01*
X163607809Y-105580666D01*
X163679238Y-105580666D01*
X163726857Y-105604476D01*
X163750666Y-105628285D01*
X163774476Y-105675904D01*
X163774476Y-105794952D01*
X163750666Y-105842571D01*
X163726857Y-105866380D01*
X163679238Y-105890190D01*
X163536380Y-105890190D01*
X163488761Y-105866380D01*
X163464952Y-105842571D01*
X163917333Y-105390190D02*
X164084000Y-105890190D01*
X164250666Y-105390190D01*
X164369714Y-105390190D02*
X164679238Y-105390190D01*
X164512571Y-105580666D01*
X164584000Y-105580666D01*
X164631619Y-105604476D01*
X164655428Y-105628285D01*
X164679238Y-105675904D01*
X164679238Y-105794952D01*
X164655428Y-105842571D01*
X164631619Y-105866380D01*
X164584000Y-105890190D01*
X164441142Y-105890190D01*
X164393523Y-105866380D01*
X164369714Y-105842571D01*
X163703047Y-102874000D02*
X163655428Y-102850190D01*
X163584000Y-102850190D01*
X163512571Y-102874000D01*
X163464952Y-102921619D01*
X163441142Y-102969238D01*
X163417333Y-103064476D01*
X163417333Y-103135904D01*
X163441142Y-103231142D01*
X163464952Y-103278761D01*
X163512571Y-103326380D01*
X163584000Y-103350190D01*
X163631619Y-103350190D01*
X163703047Y-103326380D01*
X163726857Y-103302571D01*
X163726857Y-103135904D01*
X163631619Y-103135904D01*
X163941142Y-103350190D02*
X163941142Y-102850190D01*
X164226857Y-103350190D01*
X164226857Y-102850190D01*
X164464952Y-103350190D02*
X164464952Y-102850190D01*
X164584000Y-102850190D01*
X164655428Y-102874000D01*
X164703047Y-102921619D01*
X164726857Y-102969238D01*
X164750666Y-103064476D01*
X164750666Y-103135904D01*
X164726857Y-103231142D01*
X164703047Y-103278761D01*
X164655428Y-103326380D01*
X164584000Y-103350190D01*
X164464952Y-103350190D01*
X163361761Y-92587000D02*
X163314142Y-92563190D01*
X163242714Y-92563190D01*
X163171285Y-92587000D01*
X163123666Y-92634619D01*
X163099857Y-92682238D01*
X163076047Y-92777476D01*
X163076047Y-92848904D01*
X163099857Y-92944142D01*
X163123666Y-92991761D01*
X163171285Y-93039380D01*
X163242714Y-93063190D01*
X163290333Y-93063190D01*
X163361761Y-93039380D01*
X163385571Y-93015571D01*
X163385571Y-92848904D01*
X163290333Y-92848904D01*
X163599857Y-93063190D02*
X163599857Y-92563190D01*
X163790333Y-92563190D01*
X163837952Y-92587000D01*
X163861761Y-92610809D01*
X163885571Y-92658428D01*
X163885571Y-92729857D01*
X163861761Y-92777476D01*
X163837952Y-92801285D01*
X163790333Y-92825095D01*
X163599857Y-92825095D01*
X164076047Y-92610809D02*
X164099857Y-92587000D01*
X164147476Y-92563190D01*
X164266523Y-92563190D01*
X164314142Y-92587000D01*
X164337952Y-92610809D01*
X164361761Y-92658428D01*
X164361761Y-92706047D01*
X164337952Y-92777476D01*
X164052238Y-93063190D01*
X164361761Y-93063190D01*
X164528428Y-92563190D02*
X164861761Y-92563190D01*
X164647476Y-93063190D01*
X160936857Y-92587000D02*
X160889238Y-92563190D01*
X160817809Y-92563190D01*
X160746380Y-92587000D01*
X160698761Y-92634619D01*
X160674952Y-92682238D01*
X160651142Y-92777476D01*
X160651142Y-92848904D01*
X160674952Y-92944142D01*
X160698761Y-92991761D01*
X160746380Y-93039380D01*
X160817809Y-93063190D01*
X160865428Y-93063190D01*
X160936857Y-93039380D01*
X160960666Y-93015571D01*
X160960666Y-92848904D01*
X160865428Y-92848904D01*
X161174952Y-93063190D02*
X161174952Y-92563190D01*
X161460666Y-93063190D01*
X161460666Y-92563190D01*
X161674952Y-92610809D02*
X161698761Y-92587000D01*
X161746380Y-92563190D01*
X161865428Y-92563190D01*
X161913047Y-92587000D01*
X161936857Y-92610809D01*
X161960666Y-92658428D01*
X161960666Y-92706047D01*
X161936857Y-92777476D01*
X161651142Y-93063190D01*
X161960666Y-93063190D01*
X162127333Y-92563190D02*
X162460666Y-92563190D01*
X162246380Y-93063190D01*
D11*
G04 #@! TO.C,G\002A\002A\002A*
G36*
X132950125Y-102245065D02*
X132925128Y-102259098D01*
X132885577Y-102280724D01*
X132833198Y-102309030D01*
X132769718Y-102343104D01*
X132696862Y-102382036D01*
X132616356Y-102424913D01*
X132529928Y-102470823D01*
X132439304Y-102518856D01*
X132346209Y-102568098D01*
X132252371Y-102617640D01*
X132159515Y-102666568D01*
X132069368Y-102713972D01*
X131983656Y-102758939D01*
X131904106Y-102800558D01*
X131832443Y-102837917D01*
X131770395Y-102870105D01*
X131719687Y-102896210D01*
X131682046Y-102915320D01*
X131659198Y-102926524D01*
X131652977Y-102929164D01*
X131650024Y-102927844D01*
X131647480Y-102921586D01*
X131645315Y-102909034D01*
X131643500Y-102888832D01*
X131642005Y-102859623D01*
X131640802Y-102820052D01*
X131639860Y-102768761D01*
X131639150Y-102704396D01*
X131638643Y-102625598D01*
X131638310Y-102531013D01*
X131638120Y-102419285D01*
X131638045Y-102289055D01*
X131638040Y-102240080D01*
X131638100Y-102101238D01*
X131638294Y-101981448D01*
X131638647Y-101879440D01*
X131639185Y-101793945D01*
X131639931Y-101723695D01*
X131640911Y-101667421D01*
X131642150Y-101623854D01*
X131643671Y-101591726D01*
X131645499Y-101569767D01*
X131647659Y-101556709D01*
X131650177Y-101551284D01*
X131651434Y-101550995D01*
X131663180Y-101556329D01*
X131690907Y-101570166D01*
X131732888Y-101591597D01*
X131787397Y-101619712D01*
X131852708Y-101653602D01*
X131859020Y-101656890D01*
X131859020Y-101912225D01*
X131857164Y-101922968D01*
X131855471Y-101951582D01*
X131853999Y-101995619D01*
X131852803Y-102052632D01*
X131851942Y-102120172D01*
X131851472Y-102195791D01*
X131851400Y-102240080D01*
X131851631Y-102319127D01*
X131852283Y-102391461D01*
X131853302Y-102454633D01*
X131854629Y-102506189D01*
X131856207Y-102543679D01*
X131857981Y-102564651D01*
X131859020Y-102568258D01*
X131868840Y-102564346D01*
X131893943Y-102552025D01*
X131931793Y-102532654D01*
X131979856Y-102507592D01*
X132035596Y-102478198D01*
X132096477Y-102445829D01*
X132159963Y-102411846D01*
X132223521Y-102377606D01*
X132284613Y-102344469D01*
X132340705Y-102313793D01*
X132389260Y-102286936D01*
X132427745Y-102265257D01*
X132453622Y-102250116D01*
X132459156Y-102246661D01*
X132455605Y-102239894D01*
X132435806Y-102225185D01*
X132399387Y-102202311D01*
X132345976Y-102171049D01*
X132275202Y-102131177D01*
X132186692Y-102082471D01*
X132169596Y-102073156D01*
X132097758Y-102034293D01*
X132031560Y-101998921D01*
X131973115Y-101968135D01*
X131924533Y-101943030D01*
X131887928Y-101924700D01*
X131865411Y-101914240D01*
X131859020Y-101912225D01*
X131859020Y-101656890D01*
X131927095Y-101692358D01*
X132008830Y-101735071D01*
X132096187Y-101780831D01*
X132187441Y-101828730D01*
X132280865Y-101877858D01*
X132374732Y-101927306D01*
X132467315Y-101976165D01*
X132556889Y-102023525D01*
X132641728Y-102068478D01*
X132720104Y-102110113D01*
X132790291Y-102147523D01*
X132850564Y-102179798D01*
X132899195Y-102206028D01*
X132934458Y-102225304D01*
X132954627Y-102236718D01*
X132958841Y-102239535D01*
X132950125Y-102245065D01*
X132950125Y-102245065D01*
G37*
X132950125Y-102245065D02*
X132925128Y-102259098D01*
X132885577Y-102280724D01*
X132833198Y-102309030D01*
X132769718Y-102343104D01*
X132696862Y-102382036D01*
X132616356Y-102424913D01*
X132529928Y-102470823D01*
X132439304Y-102518856D01*
X132346209Y-102568098D01*
X132252371Y-102617640D01*
X132159515Y-102666568D01*
X132069368Y-102713972D01*
X131983656Y-102758939D01*
X131904106Y-102800558D01*
X131832443Y-102837917D01*
X131770395Y-102870105D01*
X131719687Y-102896210D01*
X131682046Y-102915320D01*
X131659198Y-102926524D01*
X131652977Y-102929164D01*
X131650024Y-102927844D01*
X131647480Y-102921586D01*
X131645315Y-102909034D01*
X131643500Y-102888832D01*
X131642005Y-102859623D01*
X131640802Y-102820052D01*
X131639860Y-102768761D01*
X131639150Y-102704396D01*
X131638643Y-102625598D01*
X131638310Y-102531013D01*
X131638120Y-102419285D01*
X131638045Y-102289055D01*
X131638040Y-102240080D01*
X131638100Y-102101238D01*
X131638294Y-101981448D01*
X131638647Y-101879440D01*
X131639185Y-101793945D01*
X131639931Y-101723695D01*
X131640911Y-101667421D01*
X131642150Y-101623854D01*
X131643671Y-101591726D01*
X131645499Y-101569767D01*
X131647659Y-101556709D01*
X131650177Y-101551284D01*
X131651434Y-101550995D01*
X131663180Y-101556329D01*
X131690907Y-101570166D01*
X131732888Y-101591597D01*
X131787397Y-101619712D01*
X131852708Y-101653602D01*
X131859020Y-101656890D01*
X131859020Y-101912225D01*
X131857164Y-101922968D01*
X131855471Y-101951582D01*
X131853999Y-101995619D01*
X131852803Y-102052632D01*
X131851942Y-102120172D01*
X131851472Y-102195791D01*
X131851400Y-102240080D01*
X131851631Y-102319127D01*
X131852283Y-102391461D01*
X131853302Y-102454633D01*
X131854629Y-102506189D01*
X131856207Y-102543679D01*
X131857981Y-102564651D01*
X131859020Y-102568258D01*
X131868840Y-102564346D01*
X131893943Y-102552025D01*
X131931793Y-102532654D01*
X131979856Y-102507592D01*
X132035596Y-102478198D01*
X132096477Y-102445829D01*
X132159963Y-102411846D01*
X132223521Y-102377606D01*
X132284613Y-102344469D01*
X132340705Y-102313793D01*
X132389260Y-102286936D01*
X132427745Y-102265257D01*
X132453622Y-102250116D01*
X132459156Y-102246661D01*
X132455605Y-102239894D01*
X132435806Y-102225185D01*
X132399387Y-102202311D01*
X132345976Y-102171049D01*
X132275202Y-102131177D01*
X132186692Y-102082471D01*
X132169596Y-102073156D01*
X132097758Y-102034293D01*
X132031560Y-101998921D01*
X131973115Y-101968135D01*
X131924533Y-101943030D01*
X131887928Y-101924700D01*
X131865411Y-101914240D01*
X131859020Y-101912225D01*
X131859020Y-101656890D01*
X131927095Y-101692358D01*
X132008830Y-101735071D01*
X132096187Y-101780831D01*
X132187441Y-101828730D01*
X132280865Y-101877858D01*
X132374732Y-101927306D01*
X132467315Y-101976165D01*
X132556889Y-102023525D01*
X132641728Y-102068478D01*
X132720104Y-102110113D01*
X132790291Y-102147523D01*
X132850564Y-102179798D01*
X132899195Y-102206028D01*
X132934458Y-102225304D01*
X132954627Y-102236718D01*
X132958841Y-102239535D01*
X132950125Y-102245065D01*
G36*
X132936313Y-100362214D02*
X132933440Y-100475709D01*
X132476240Y-100796554D01*
X132019040Y-101117400D01*
X132478780Y-101120043D01*
X132938520Y-101122687D01*
X132938520Y-101335840D01*
X131638040Y-101335840D01*
X131638040Y-101117062D01*
X132095487Y-100797191D01*
X132552933Y-100477320D01*
X132095487Y-100474676D01*
X131638040Y-100472032D01*
X131638040Y-100248720D01*
X132939186Y-100248720D01*
X132936313Y-100362214D01*
X132936313Y-100362214D01*
G37*
X132936313Y-100362214D02*
X132933440Y-100475709D01*
X132476240Y-100796554D01*
X132019040Y-101117400D01*
X132478780Y-101120043D01*
X132938520Y-101122687D01*
X132938520Y-101335840D01*
X131638040Y-101335840D01*
X131638040Y-101117062D01*
X132095487Y-100797191D01*
X132552933Y-100477320D01*
X132095487Y-100474676D01*
X131638040Y-100472032D01*
X131638040Y-100248720D01*
X132939186Y-100248720D01*
X132936313Y-100362214D01*
G36*
X132626100Y-99818221D02*
X132553025Y-99860255D01*
X132484880Y-99898850D01*
X132423803Y-99932841D01*
X132371933Y-99961065D01*
X132331405Y-99982356D01*
X132304358Y-99995549D01*
X132293360Y-99999537D01*
X132280108Y-99994670D01*
X132251428Y-99980706D01*
X132209444Y-99958793D01*
X132156280Y-99930076D01*
X132094059Y-99895701D01*
X132024903Y-99856814D01*
X131955540Y-99817209D01*
X131638040Y-99634618D01*
X131638198Y-99258409D01*
X131638355Y-98882200D01*
X131961690Y-98696780D01*
X132035543Y-98654538D01*
X132103862Y-98615675D01*
X132164643Y-98581314D01*
X132215882Y-98552579D01*
X132255575Y-98530593D01*
X132281718Y-98516479D01*
X132291941Y-98511540D01*
X132291941Y-98756879D01*
X132211371Y-98803201D01*
X132172794Y-98825399D01*
X132122337Y-98854461D01*
X132065719Y-98887092D01*
X132008658Y-98919997D01*
X131990925Y-98930227D01*
X131851049Y-99010932D01*
X131853765Y-99261194D01*
X131856480Y-99511456D01*
X132074571Y-99635959D01*
X132292662Y-99760461D01*
X132323491Y-99742557D01*
X132341507Y-99732158D01*
X132373975Y-99713478D01*
X132417718Y-99688343D01*
X132469560Y-99658578D01*
X132526325Y-99626007D01*
X132539612Y-99618386D01*
X132724903Y-99512120D01*
X132724723Y-99258120D01*
X132724544Y-99004120D01*
X132555352Y-98907600D01*
X132498798Y-98875325D01*
X132444983Y-98844592D01*
X132397706Y-98817571D01*
X132360762Y-98796432D01*
X132339051Y-98783979D01*
X132291941Y-98756879D01*
X132291941Y-98511540D01*
X132292309Y-98511362D01*
X132292355Y-98511360D01*
X132302540Y-98516269D01*
X132328288Y-98530240D01*
X132367590Y-98552137D01*
X132418433Y-98580826D01*
X132478805Y-98615171D01*
X132546695Y-98654038D01*
X132619104Y-98695721D01*
X132938520Y-98880082D01*
X132938520Y-99637168D01*
X132626100Y-99818221D01*
X132626100Y-99818221D01*
G37*
X132626100Y-99818221D02*
X132553025Y-99860255D01*
X132484880Y-99898850D01*
X132423803Y-99932841D01*
X132371933Y-99961065D01*
X132331405Y-99982356D01*
X132304358Y-99995549D01*
X132293360Y-99999537D01*
X132280108Y-99994670D01*
X132251428Y-99980706D01*
X132209444Y-99958793D01*
X132156280Y-99930076D01*
X132094059Y-99895701D01*
X132024903Y-99856814D01*
X131955540Y-99817209D01*
X131638040Y-99634618D01*
X131638198Y-99258409D01*
X131638355Y-98882200D01*
X131961690Y-98696780D01*
X132035543Y-98654538D01*
X132103862Y-98615675D01*
X132164643Y-98581314D01*
X132215882Y-98552579D01*
X132255575Y-98530593D01*
X132281718Y-98516479D01*
X132291941Y-98511540D01*
X132291941Y-98756879D01*
X132211371Y-98803201D01*
X132172794Y-98825399D01*
X132122337Y-98854461D01*
X132065719Y-98887092D01*
X132008658Y-98919997D01*
X131990925Y-98930227D01*
X131851049Y-99010932D01*
X131853765Y-99261194D01*
X131856480Y-99511456D01*
X132074571Y-99635959D01*
X132292662Y-99760461D01*
X132323491Y-99742557D01*
X132341507Y-99732158D01*
X132373975Y-99713478D01*
X132417718Y-99688343D01*
X132469560Y-99658578D01*
X132526325Y-99626007D01*
X132539612Y-99618386D01*
X132724903Y-99512120D01*
X132724723Y-99258120D01*
X132724544Y-99004120D01*
X132555352Y-98907600D01*
X132498798Y-98875325D01*
X132444983Y-98844592D01*
X132397706Y-98817571D01*
X132360762Y-98796432D01*
X132339051Y-98783979D01*
X132291941Y-98756879D01*
X132291941Y-98511540D01*
X132292309Y-98511362D01*
X132292355Y-98511360D01*
X132302540Y-98516269D01*
X132328288Y-98530240D01*
X132367590Y-98552137D01*
X132418433Y-98580826D01*
X132478805Y-98615171D01*
X132546695Y-98654038D01*
X132619104Y-98695721D01*
X132938520Y-98880082D01*
X132938520Y-99637168D01*
X132626100Y-99818221D01*
G36*
X132725160Y-98308160D02*
X132725160Y-98044000D01*
X131861560Y-98044000D01*
X131861560Y-98308160D01*
X131638040Y-98308160D01*
X131638040Y-97555632D01*
X131856480Y-97561400D01*
X131862168Y-97820480D01*
X132725160Y-97820480D01*
X132725160Y-97556320D01*
X132938520Y-97556320D01*
X132938520Y-98308160D01*
X132725160Y-98308160D01*
X132725160Y-98308160D01*
G37*
X132725160Y-98308160D02*
X132725160Y-98044000D01*
X131861560Y-98044000D01*
X131861560Y-98308160D01*
X131638040Y-98308160D01*
X131638040Y-97555632D01*
X131856480Y-97561400D01*
X131862168Y-97820480D01*
X132725160Y-97820480D01*
X132725160Y-97556320D01*
X132938520Y-97556320D01*
X132938520Y-98308160D01*
X132725160Y-98308160D01*
G36*
X132935686Y-96522540D02*
X132932321Y-96604144D01*
X132927538Y-96669739D01*
X132920897Y-96723611D01*
X132911960Y-96770046D01*
X132909193Y-96781483D01*
X132870187Y-96904967D01*
X132819492Y-97012985D01*
X132757459Y-97105047D01*
X132684438Y-97180665D01*
X132600782Y-97239348D01*
X132568771Y-97255930D01*
X132509591Y-97281090D01*
X132453046Y-97297965D01*
X132392577Y-97307861D01*
X132321629Y-97312083D01*
X132284835Y-97312480D01*
X132169712Y-97304405D01*
X132066476Y-97279989D01*
X131974555Y-97238944D01*
X131893377Y-97180983D01*
X131822370Y-97105815D01*
X131792204Y-97064246D01*
X131742976Y-96981268D01*
X131704495Y-96894267D01*
X131675831Y-96799846D01*
X131656055Y-96694611D01*
X131644236Y-96575164D01*
X131641138Y-96512380D01*
X131635194Y-96347280D01*
X132291902Y-96347280D01*
X132291902Y-96560640D01*
X131858643Y-96560640D01*
X131865213Y-96631335D01*
X131871929Y-96677601D01*
X131883271Y-96731406D01*
X131896804Y-96781231D01*
X131897043Y-96781991D01*
X131935395Y-96877807D01*
X131984457Y-96956386D01*
X132044200Y-97017705D01*
X132114598Y-97061739D01*
X132195622Y-97088465D01*
X132263809Y-97097162D01*
X132357152Y-97093285D01*
X132441055Y-97071610D01*
X132515066Y-97032563D01*
X132578730Y-96976571D01*
X132631595Y-96904061D01*
X132673207Y-96815459D01*
X132703112Y-96711192D01*
X132709619Y-96677579D01*
X132716604Y-96636030D01*
X132721962Y-96601316D01*
X132724869Y-96578902D01*
X132725160Y-96574549D01*
X132722287Y-96571098D01*
X132712569Y-96568247D01*
X132694365Y-96565942D01*
X132666031Y-96564132D01*
X132625922Y-96562762D01*
X132572395Y-96561782D01*
X132503807Y-96561137D01*
X132418515Y-96560775D01*
X132314874Y-96560643D01*
X132291902Y-96560640D01*
X132291902Y-96347280D01*
X132941080Y-96347280D01*
X132935686Y-96522540D01*
X132935686Y-96522540D01*
G37*
X132935686Y-96522540D02*
X132932321Y-96604144D01*
X132927538Y-96669739D01*
X132920897Y-96723611D01*
X132911960Y-96770046D01*
X132909193Y-96781483D01*
X132870187Y-96904967D01*
X132819492Y-97012985D01*
X132757459Y-97105047D01*
X132684438Y-97180665D01*
X132600782Y-97239348D01*
X132568771Y-97255930D01*
X132509591Y-97281090D01*
X132453046Y-97297965D01*
X132392577Y-97307861D01*
X132321629Y-97312083D01*
X132284835Y-97312480D01*
X132169712Y-97304405D01*
X132066476Y-97279989D01*
X131974555Y-97238944D01*
X131893377Y-97180983D01*
X131822370Y-97105815D01*
X131792204Y-97064246D01*
X131742976Y-96981268D01*
X131704495Y-96894267D01*
X131675831Y-96799846D01*
X131656055Y-96694611D01*
X131644236Y-96575164D01*
X131641138Y-96512380D01*
X131635194Y-96347280D01*
X132291902Y-96347280D01*
X132291902Y-96560640D01*
X131858643Y-96560640D01*
X131865213Y-96631335D01*
X131871929Y-96677601D01*
X131883271Y-96731406D01*
X131896804Y-96781231D01*
X131897043Y-96781991D01*
X131935395Y-96877807D01*
X131984457Y-96956386D01*
X132044200Y-97017705D01*
X132114598Y-97061739D01*
X132195622Y-97088465D01*
X132263809Y-97097162D01*
X132357152Y-97093285D01*
X132441055Y-97071610D01*
X132515066Y-97032563D01*
X132578730Y-96976571D01*
X132631595Y-96904061D01*
X132673207Y-96815459D01*
X132703112Y-96711192D01*
X132709619Y-96677579D01*
X132716604Y-96636030D01*
X132721962Y-96601316D01*
X132724869Y-96578902D01*
X132725160Y-96574549D01*
X132722287Y-96571098D01*
X132712569Y-96568247D01*
X132694365Y-96565942D01*
X132666031Y-96564132D01*
X132625922Y-96562762D01*
X132572395Y-96561782D01*
X132503807Y-96561137D01*
X132418515Y-96560775D01*
X132314874Y-96560643D01*
X132291902Y-96560640D01*
X132291902Y-96347280D01*
X132941080Y-96347280D01*
X132935686Y-96522540D01*
G36*
X132949883Y-95568617D02*
X132938520Y-95573422D01*
X132924800Y-95578945D01*
X132893964Y-95591471D01*
X132847704Y-95610312D01*
X132787709Y-95634776D01*
X132715673Y-95664174D01*
X132633285Y-95697815D01*
X132542237Y-95735010D01*
X132444220Y-95775067D01*
X132340925Y-95817297D01*
X132328920Y-95822206D01*
X132224128Y-95865045D01*
X132123638Y-95906102D01*
X132029248Y-95944642D01*
X131942757Y-95979932D01*
X131865963Y-96011240D01*
X131800665Y-96037833D01*
X131748662Y-96058975D01*
X131711753Y-96073936D01*
X131691735Y-96081981D01*
X131691068Y-96082244D01*
X131637415Y-96103389D01*
X131640268Y-95980487D01*
X131643120Y-95857584D01*
X131995493Y-95713653D01*
X132075149Y-95681023D01*
X132148825Y-95650664D01*
X132214413Y-95623458D01*
X132269805Y-95600287D01*
X132312893Y-95582034D01*
X132341572Y-95569579D01*
X132353732Y-95563805D01*
X132353951Y-95563635D01*
X132347006Y-95558080D01*
X132324008Y-95546338D01*
X132287793Y-95529712D01*
X132241197Y-95509505D01*
X132189539Y-95488035D01*
X132120781Y-95459990D01*
X132040743Y-95427325D01*
X131956953Y-95393113D01*
X131876938Y-95360429D01*
X131831080Y-95341688D01*
X131643120Y-95264854D01*
X131640258Y-95145667D01*
X131639852Y-95097921D01*
X131640966Y-95059694D01*
X131643402Y-95034671D01*
X131646658Y-95026480D01*
X131657289Y-95030200D01*
X131684858Y-95040855D01*
X131727496Y-95057686D01*
X131783335Y-95079936D01*
X131850506Y-95106846D01*
X131927140Y-95137657D01*
X132011368Y-95171612D01*
X132101321Y-95207952D01*
X132195130Y-95245919D01*
X132290926Y-95284755D01*
X132386840Y-95323702D01*
X132481004Y-95362000D01*
X132571548Y-95398892D01*
X132656604Y-95433620D01*
X132734302Y-95465426D01*
X132802775Y-95493550D01*
X132860152Y-95517235D01*
X132904564Y-95535723D01*
X132934144Y-95548255D01*
X132946990Y-95554055D01*
X132956728Y-95561842D01*
X132949883Y-95568617D01*
X132949883Y-95568617D01*
G37*
X132949883Y-95568617D02*
X132938520Y-95573422D01*
X132924800Y-95578945D01*
X132893964Y-95591471D01*
X132847704Y-95610312D01*
X132787709Y-95634776D01*
X132715673Y-95664174D01*
X132633285Y-95697815D01*
X132542237Y-95735010D01*
X132444220Y-95775067D01*
X132340925Y-95817297D01*
X132328920Y-95822206D01*
X132224128Y-95865045D01*
X132123638Y-95906102D01*
X132029248Y-95944642D01*
X131942757Y-95979932D01*
X131865963Y-96011240D01*
X131800665Y-96037833D01*
X131748662Y-96058975D01*
X131711753Y-96073936D01*
X131691735Y-96081981D01*
X131691068Y-96082244D01*
X131637415Y-96103389D01*
X131640268Y-95980487D01*
X131643120Y-95857584D01*
X131995493Y-95713653D01*
X132075149Y-95681023D01*
X132148825Y-95650664D01*
X132214413Y-95623458D01*
X132269805Y-95600287D01*
X132312893Y-95582034D01*
X132341572Y-95569579D01*
X132353732Y-95563805D01*
X132353951Y-95563635D01*
X132347006Y-95558080D01*
X132324008Y-95546338D01*
X132287793Y-95529712D01*
X132241197Y-95509505D01*
X132189539Y-95488035D01*
X132120781Y-95459990D01*
X132040743Y-95427325D01*
X131956953Y-95393113D01*
X131876938Y-95360429D01*
X131831080Y-95341688D01*
X131643120Y-95264854D01*
X131640258Y-95145667D01*
X131639852Y-95097921D01*
X131640966Y-95059694D01*
X131643402Y-95034671D01*
X131646658Y-95026480D01*
X131657289Y-95030200D01*
X131684858Y-95040855D01*
X131727496Y-95057686D01*
X131783335Y-95079936D01*
X131850506Y-95106846D01*
X131927140Y-95137657D01*
X132011368Y-95171612D01*
X132101321Y-95207952D01*
X132195130Y-95245919D01*
X132290926Y-95284755D01*
X132386840Y-95323702D01*
X132481004Y-95362000D01*
X132571548Y-95398892D01*
X132656604Y-95433620D01*
X132734302Y-95465426D01*
X132802775Y-95493550D01*
X132860152Y-95517235D01*
X132904564Y-95535723D01*
X132934144Y-95548255D01*
X132946990Y-95554055D01*
X132956728Y-95561842D01*
X132949883Y-95568617D01*
G36*
X132938140Y-94255677D02*
X132936713Y-94328460D01*
X132933812Y-94387413D01*
X132929010Y-94435778D01*
X132921877Y-94476794D01*
X132911986Y-94513703D01*
X132898910Y-94549745D01*
X132882973Y-94586516D01*
X132846441Y-94646003D01*
X132795696Y-94700341D01*
X132736820Y-94743341D01*
X132720080Y-94752322D01*
X132693772Y-94764028D01*
X132668299Y-94771462D01*
X132637832Y-94775555D01*
X132596543Y-94777238D01*
X132562600Y-94777480D01*
X132512406Y-94776990D01*
X132476479Y-94774744D01*
X132448781Y-94769703D01*
X132423273Y-94760833D01*
X132398409Y-94749317D01*
X132331314Y-94705171D01*
X132275750Y-94644455D01*
X132242745Y-94589964D01*
X132227719Y-94562131D01*
X132215919Y-94543549D01*
X132211124Y-94538800D01*
X132200810Y-94542898D01*
X132174383Y-94554495D01*
X132134163Y-94572541D01*
X132082473Y-94595985D01*
X132021633Y-94623779D01*
X131953966Y-94654871D01*
X131930268Y-94665800D01*
X131860665Y-94697792D01*
X131796944Y-94726828D01*
X131741460Y-94751855D01*
X131696568Y-94771819D01*
X131664622Y-94785668D01*
X131647977Y-94792348D01*
X131646251Y-94792800D01*
X131643002Y-94783315D01*
X131640795Y-94757528D01*
X131639834Y-94719439D01*
X131640258Y-94675638D01*
X131643120Y-94558477D01*
X131912360Y-94434194D01*
X132181600Y-94309912D01*
X132181600Y-94137480D01*
X131638040Y-94132068D01*
X131638040Y-93919040D01*
X132400040Y-93919040D01*
X132400040Y-94132400D01*
X132400040Y-94262635D01*
X132401968Y-94344864D01*
X132407734Y-94407592D01*
X132415390Y-94444559D01*
X132438506Y-94494136D01*
X132472681Y-94531819D01*
X132514267Y-94556410D01*
X132559614Y-94566709D01*
X132605074Y-94561518D01*
X132646997Y-94539639D01*
X132662222Y-94525666D01*
X132683223Y-94499340D01*
X132698772Y-94469104D01*
X132709751Y-94431353D01*
X132717041Y-94382484D01*
X132721527Y-94318896D01*
X132723093Y-94277180D01*
X132727420Y-94132400D01*
X132400040Y-94132400D01*
X132400040Y-93919040D01*
X132938520Y-93919040D01*
X132938520Y-94165825D01*
X132938140Y-94255677D01*
X132938140Y-94255677D01*
G37*
X132938140Y-94255677D02*
X132936713Y-94328460D01*
X132933812Y-94387413D01*
X132929010Y-94435778D01*
X132921877Y-94476794D01*
X132911986Y-94513703D01*
X132898910Y-94549745D01*
X132882973Y-94586516D01*
X132846441Y-94646003D01*
X132795696Y-94700341D01*
X132736820Y-94743341D01*
X132720080Y-94752322D01*
X132693772Y-94764028D01*
X132668299Y-94771462D01*
X132637832Y-94775555D01*
X132596543Y-94777238D01*
X132562600Y-94777480D01*
X132512406Y-94776990D01*
X132476479Y-94774744D01*
X132448781Y-94769703D01*
X132423273Y-94760833D01*
X132398409Y-94749317D01*
X132331314Y-94705171D01*
X132275750Y-94644455D01*
X132242745Y-94589964D01*
X132227719Y-94562131D01*
X132215919Y-94543549D01*
X132211124Y-94538800D01*
X132200810Y-94542898D01*
X132174383Y-94554495D01*
X132134163Y-94572541D01*
X132082473Y-94595985D01*
X132021633Y-94623779D01*
X131953966Y-94654871D01*
X131930268Y-94665800D01*
X131860665Y-94697792D01*
X131796944Y-94726828D01*
X131741460Y-94751855D01*
X131696568Y-94771819D01*
X131664622Y-94785668D01*
X131647977Y-94792348D01*
X131646251Y-94792800D01*
X131643002Y-94783315D01*
X131640795Y-94757528D01*
X131639834Y-94719439D01*
X131640258Y-94675638D01*
X131643120Y-94558477D01*
X131912360Y-94434194D01*
X132181600Y-94309912D01*
X132181600Y-94137480D01*
X131638040Y-94132068D01*
X131638040Y-93919040D01*
X132400040Y-93919040D01*
X132400040Y-94132400D01*
X132400040Y-94262635D01*
X132401968Y-94344864D01*
X132407734Y-94407592D01*
X132415390Y-94444559D01*
X132438506Y-94494136D01*
X132472681Y-94531819D01*
X132514267Y-94556410D01*
X132559614Y-94566709D01*
X132605074Y-94561518D01*
X132646997Y-94539639D01*
X132662222Y-94525666D01*
X132683223Y-94499340D01*
X132698772Y-94469104D01*
X132709751Y-94431353D01*
X132717041Y-94382484D01*
X132721527Y-94318896D01*
X132723093Y-94277180D01*
X132727420Y-94132400D01*
X132400040Y-94132400D01*
X132400040Y-93919040D01*
X132938520Y-93919040D01*
X132938520Y-94165825D01*
X132938140Y-94255677D01*
G36*
X131370303Y-98420229D02*
X131359045Y-98455997D01*
X131339321Y-98475673D01*
X131314605Y-98480880D01*
X131285025Y-98475241D01*
X131265470Y-98465826D01*
X131248144Y-98456170D01*
X131236839Y-98459982D01*
X131231486Y-98465826D01*
X131213126Y-98476011D01*
X131184337Y-98480802D01*
X131180173Y-98480880D01*
X131148448Y-98476276D01*
X131127256Y-98460726D01*
X131114987Y-98431623D01*
X131110028Y-98386356D01*
X131109720Y-98366859D01*
X131109720Y-98298000D01*
X131186071Y-98298000D01*
X131186071Y-98358960D01*
X131185246Y-98358960D01*
X131161285Y-98360447D01*
X131152103Y-98367890D01*
X131152212Y-98385761D01*
X131152226Y-98385875D01*
X131160466Y-98409988D01*
X131171840Y-98423052D01*
X131195846Y-98429490D01*
X131213728Y-98418436D01*
X131221426Y-98392611D01*
X131221480Y-98389758D01*
X131219587Y-98369205D01*
X131209824Y-98360673D01*
X131186071Y-98358960D01*
X131186071Y-98298000D01*
X131298508Y-98298000D01*
X131298508Y-98358960D01*
X131298355Y-98358960D01*
X131273949Y-98360842D01*
X131263846Y-98369097D01*
X131262120Y-98383115D01*
X131268562Y-98407759D01*
X131278212Y-98420626D01*
X131298928Y-98427741D01*
X131317756Y-98417899D01*
X131329875Y-98394252D01*
X131331375Y-98385875D01*
X131331515Y-98367945D01*
X131322388Y-98360464D01*
X131298508Y-98358960D01*
X131298508Y-98298000D01*
X131373880Y-98298000D01*
X131373880Y-98366859D01*
X131370303Y-98420229D01*
X131370303Y-98420229D01*
G37*
X131370303Y-98420229D02*
X131359045Y-98455997D01*
X131339321Y-98475673D01*
X131314605Y-98480880D01*
X131285025Y-98475241D01*
X131265470Y-98465826D01*
X131248144Y-98456170D01*
X131236839Y-98459982D01*
X131231486Y-98465826D01*
X131213126Y-98476011D01*
X131184337Y-98480802D01*
X131180173Y-98480880D01*
X131148448Y-98476276D01*
X131127256Y-98460726D01*
X131114987Y-98431623D01*
X131110028Y-98386356D01*
X131109720Y-98366859D01*
X131109720Y-98298000D01*
X131186071Y-98298000D01*
X131186071Y-98358960D01*
X131185246Y-98358960D01*
X131161285Y-98360447D01*
X131152103Y-98367890D01*
X131152212Y-98385761D01*
X131152226Y-98385875D01*
X131160466Y-98409988D01*
X131171840Y-98423052D01*
X131195846Y-98429490D01*
X131213728Y-98418436D01*
X131221426Y-98392611D01*
X131221480Y-98389758D01*
X131219587Y-98369205D01*
X131209824Y-98360673D01*
X131186071Y-98358960D01*
X131186071Y-98298000D01*
X131298508Y-98298000D01*
X131298508Y-98358960D01*
X131298355Y-98358960D01*
X131273949Y-98360842D01*
X131263846Y-98369097D01*
X131262120Y-98383115D01*
X131268562Y-98407759D01*
X131278212Y-98420626D01*
X131298928Y-98427741D01*
X131317756Y-98417899D01*
X131329875Y-98394252D01*
X131331375Y-98385875D01*
X131331515Y-98367945D01*
X131322388Y-98360464D01*
X131298508Y-98358960D01*
X131298508Y-98298000D01*
X131373880Y-98298000D01*
X131373880Y-98366859D01*
X131370303Y-98420229D01*
G36*
X131373456Y-97444417D02*
X131371502Y-97468688D01*
X131366997Y-97480820D01*
X131358918Y-97484900D01*
X131353560Y-97485200D01*
X131341870Y-97482802D01*
X131335750Y-97472413D01*
X131333476Y-97449240D01*
X131333240Y-97428676D01*
X131333240Y-97372152D01*
X131300220Y-97375336D01*
X131279312Y-97379003D01*
X131269150Y-97388707D01*
X131264971Y-97410560D01*
X131264076Y-97421700D01*
X131260233Y-97449690D01*
X131252345Y-97462388D01*
X131241216Y-97464880D01*
X131228848Y-97461693D01*
X131223005Y-97448731D01*
X131221483Y-97420890D01*
X131221480Y-97419160D01*
X131220721Y-97391067D01*
X131215577Y-97377765D01*
X131201745Y-97373722D01*
X131185920Y-97373440D01*
X131150360Y-97373440D01*
X131150360Y-97429320D01*
X131149479Y-97461612D01*
X131145665Y-97478435D01*
X131137169Y-97484604D01*
X131130040Y-97485200D01*
X131119916Y-97483503D01*
X131113848Y-97475687D01*
X131110815Y-97457665D01*
X131109795Y-97425350D01*
X131109720Y-97403920D01*
X131109720Y-97322640D01*
X131373880Y-97322640D01*
X131373880Y-97403920D01*
X131373456Y-97444417D01*
X131373456Y-97444417D01*
G37*
X131373456Y-97444417D02*
X131371502Y-97468688D01*
X131366997Y-97480820D01*
X131358918Y-97484900D01*
X131353560Y-97485200D01*
X131341870Y-97482802D01*
X131335750Y-97472413D01*
X131333476Y-97449240D01*
X131333240Y-97428676D01*
X131333240Y-97372152D01*
X131300220Y-97375336D01*
X131279312Y-97379003D01*
X131269150Y-97388707D01*
X131264971Y-97410560D01*
X131264076Y-97421700D01*
X131260233Y-97449690D01*
X131252345Y-97462388D01*
X131241216Y-97464880D01*
X131228848Y-97461693D01*
X131223005Y-97448731D01*
X131221483Y-97420890D01*
X131221480Y-97419160D01*
X131220721Y-97391067D01*
X131215577Y-97377765D01*
X131201745Y-97373722D01*
X131185920Y-97373440D01*
X131150360Y-97373440D01*
X131150360Y-97429320D01*
X131149479Y-97461612D01*
X131145665Y-97478435D01*
X131137169Y-97484604D01*
X131130040Y-97485200D01*
X131119916Y-97483503D01*
X131113848Y-97475687D01*
X131110815Y-97457665D01*
X131109795Y-97425350D01*
X131109720Y-97403920D01*
X131109720Y-97322640D01*
X131373880Y-97322640D01*
X131373880Y-97403920D01*
X131373456Y-97444417D01*
G36*
X131371993Y-96423230D02*
X131365291Y-96451708D01*
X131352823Y-96472909D01*
X131324327Y-96494302D01*
X131288867Y-96499420D01*
X131252034Y-96487968D01*
X131238528Y-96478966D01*
X131212196Y-96458253D01*
X131160958Y-96484218D01*
X131109720Y-96510182D01*
X131109720Y-96479813D01*
X131112004Y-96461009D01*
X131121973Y-96447613D01*
X131144307Y-96434816D01*
X131160520Y-96427591D01*
X131194481Y-96409844D01*
X131209944Y-96393365D01*
X131211320Y-96386668D01*
X131208230Y-96375164D01*
X131195713Y-96369432D01*
X131168898Y-96367645D01*
X131160520Y-96367600D01*
X131130371Y-96366776D01*
X131115330Y-96362573D01*
X131110202Y-96352393D01*
X131109720Y-96342200D01*
X131109720Y-96316800D01*
X131292600Y-96316800D01*
X131292600Y-96367600D01*
X131266151Y-96368525D01*
X131254703Y-96374227D01*
X131252941Y-96389094D01*
X131253857Y-96399595D01*
X131261438Y-96425688D01*
X131274820Y-96442723D01*
X131298015Y-96447868D01*
X131317677Y-96435749D01*
X131329809Y-96409419D01*
X131331344Y-96399595D01*
X131332147Y-96379341D01*
X131325588Y-96370171D01*
X131306351Y-96367698D01*
X131292600Y-96367600D01*
X131292600Y-96316800D01*
X131373880Y-96316800D01*
X131373880Y-96381469D01*
X131371993Y-96423230D01*
X131371993Y-96423230D01*
G37*
X131371993Y-96423230D02*
X131365291Y-96451708D01*
X131352823Y-96472909D01*
X131324327Y-96494302D01*
X131288867Y-96499420D01*
X131252034Y-96487968D01*
X131238528Y-96478966D01*
X131212196Y-96458253D01*
X131160958Y-96484218D01*
X131109720Y-96510182D01*
X131109720Y-96479813D01*
X131112004Y-96461009D01*
X131121973Y-96447613D01*
X131144307Y-96434816D01*
X131160520Y-96427591D01*
X131194481Y-96409844D01*
X131209944Y-96393365D01*
X131211320Y-96386668D01*
X131208230Y-96375164D01*
X131195713Y-96369432D01*
X131168898Y-96367645D01*
X131160520Y-96367600D01*
X131130371Y-96366776D01*
X131115330Y-96362573D01*
X131110202Y-96352393D01*
X131109720Y-96342200D01*
X131109720Y-96316800D01*
X131292600Y-96316800D01*
X131292600Y-96367600D01*
X131266151Y-96368525D01*
X131254703Y-96374227D01*
X131252941Y-96389094D01*
X131253857Y-96399595D01*
X131261438Y-96425688D01*
X131274820Y-96442723D01*
X131298015Y-96447868D01*
X131317677Y-96435749D01*
X131329809Y-96409419D01*
X131331344Y-96399595D01*
X131332147Y-96379341D01*
X131325588Y-96370171D01*
X131306351Y-96367698D01*
X131292600Y-96367600D01*
X131292600Y-96316800D01*
X131373880Y-96316800D01*
X131373880Y-96381469D01*
X131371993Y-96423230D01*
G36*
X131371796Y-95435262D02*
X131359871Y-95466206D01*
X131339906Y-95487391D01*
X131317424Y-95493840D01*
X131297842Y-95487400D01*
X131292674Y-95472039D01*
X131302473Y-95453691D01*
X131312920Y-95445397D01*
X131329249Y-95425535D01*
X131332190Y-95400343D01*
X131321667Y-95378330D01*
X131313588Y-95372277D01*
X131288196Y-95365237D01*
X131251725Y-95362213D01*
X131213019Y-95363206D01*
X131180919Y-95368215D01*
X131170013Y-95372277D01*
X131153612Y-95390023D01*
X131151787Y-95413007D01*
X131162276Y-95435085D01*
X131182820Y-95450114D01*
X131199786Y-95453200D01*
X131208942Y-95444562D01*
X131213154Y-95430443D01*
X131222688Y-95411088D01*
X131234180Y-95404298D01*
X131244684Y-95405245D01*
X131250055Y-95416203D01*
X131251872Y-95441574D01*
X131251960Y-95453870D01*
X131251960Y-95506830D01*
X131198620Y-95500608D01*
X131154169Y-95490441D01*
X131126283Y-95470639D01*
X131112429Y-95438502D01*
X131109720Y-95405892D01*
X131113535Y-95370012D01*
X131127182Y-95344096D01*
X131134659Y-95335898D01*
X131149343Y-95323297D01*
X131165929Y-95315812D01*
X131189986Y-95312147D01*
X131227082Y-95311004D01*
X131241800Y-95310960D01*
X131283968Y-95311592D01*
X131311401Y-95314353D01*
X131329670Y-95320539D01*
X131344344Y-95331446D01*
X131348942Y-95335898D01*
X131367369Y-95364906D01*
X131374641Y-95399761D01*
X131371796Y-95435262D01*
X131371796Y-95435262D01*
G37*
X131371796Y-95435262D02*
X131359871Y-95466206D01*
X131339906Y-95487391D01*
X131317424Y-95493840D01*
X131297842Y-95487400D01*
X131292674Y-95472039D01*
X131302473Y-95453691D01*
X131312920Y-95445397D01*
X131329249Y-95425535D01*
X131332190Y-95400343D01*
X131321667Y-95378330D01*
X131313588Y-95372277D01*
X131288196Y-95365237D01*
X131251725Y-95362213D01*
X131213019Y-95363206D01*
X131180919Y-95368215D01*
X131170013Y-95372277D01*
X131153612Y-95390023D01*
X131151787Y-95413007D01*
X131162276Y-95435085D01*
X131182820Y-95450114D01*
X131199786Y-95453200D01*
X131208942Y-95444562D01*
X131213154Y-95430443D01*
X131222688Y-95411088D01*
X131234180Y-95404298D01*
X131244684Y-95405245D01*
X131250055Y-95416203D01*
X131251872Y-95441574D01*
X131251960Y-95453870D01*
X131251960Y-95506830D01*
X131198620Y-95500608D01*
X131154169Y-95490441D01*
X131126283Y-95470639D01*
X131112429Y-95438502D01*
X131109720Y-95405892D01*
X131113535Y-95370012D01*
X131127182Y-95344096D01*
X131134659Y-95335898D01*
X131149343Y-95323297D01*
X131165929Y-95315812D01*
X131189986Y-95312147D01*
X131227082Y-95311004D01*
X131241800Y-95310960D01*
X131283968Y-95311592D01*
X131311401Y-95314353D01*
X131329670Y-95320539D01*
X131344344Y-95331446D01*
X131348942Y-95335898D01*
X131367369Y-95364906D01*
X131374641Y-95399761D01*
X131371796Y-95435262D01*
G36*
X131368656Y-94420230D02*
X131366499Y-94430101D01*
X131359747Y-94438466D01*
X131345815Y-94446557D01*
X131322121Y-94455610D01*
X131286081Y-94466855D01*
X131235110Y-94481528D01*
X131183380Y-94496130D01*
X131109720Y-94516914D01*
X131109720Y-94488487D01*
X131113369Y-94467352D01*
X131128395Y-94456923D01*
X131140791Y-94453845D01*
X131160246Y-94448385D01*
X131168583Y-94438157D01*
X131169509Y-94416641D01*
X131168731Y-94404720D01*
X131164756Y-94376465D01*
X131155811Y-94362160D01*
X131140200Y-94355923D01*
X131118613Y-94343370D01*
X131111685Y-94323526D01*
X131108569Y-94297016D01*
X131225839Y-94331614D01*
X131225839Y-94379637D01*
X131214849Y-94381528D01*
X131211328Y-94400438D01*
X131211320Y-94401851D01*
X131212546Y-94418986D01*
X131219923Y-94425839D01*
X131239002Y-94425094D01*
X131254500Y-94422738D01*
X131288854Y-94415261D01*
X131304605Y-94407208D01*
X131301207Y-94399308D01*
X131278112Y-94392292D01*
X131277398Y-94392157D01*
X131248759Y-94386043D01*
X131227527Y-94380246D01*
X131225839Y-94379637D01*
X131225839Y-94331614D01*
X131238685Y-94335405D01*
X131368800Y-94373795D01*
X131368800Y-94407620D01*
X131368656Y-94420230D01*
X131368656Y-94420230D01*
G37*
X131368656Y-94420230D02*
X131366499Y-94430101D01*
X131359747Y-94438466D01*
X131345815Y-94446557D01*
X131322121Y-94455610D01*
X131286081Y-94466855D01*
X131235110Y-94481528D01*
X131183380Y-94496130D01*
X131109720Y-94516914D01*
X131109720Y-94488487D01*
X131113369Y-94467352D01*
X131128395Y-94456923D01*
X131140791Y-94453845D01*
X131160246Y-94448385D01*
X131168583Y-94438157D01*
X131169509Y-94416641D01*
X131168731Y-94404720D01*
X131164756Y-94376465D01*
X131155811Y-94362160D01*
X131140200Y-94355923D01*
X131118613Y-94343370D01*
X131111685Y-94323526D01*
X131108569Y-94297016D01*
X131225839Y-94331614D01*
X131225839Y-94379637D01*
X131214849Y-94381528D01*
X131211328Y-94400438D01*
X131211320Y-94401851D01*
X131212546Y-94418986D01*
X131219923Y-94425839D01*
X131239002Y-94425094D01*
X131254500Y-94422738D01*
X131288854Y-94415261D01*
X131304605Y-94407208D01*
X131301207Y-94399308D01*
X131278112Y-94392292D01*
X131277398Y-94392157D01*
X131248759Y-94386043D01*
X131227527Y-94380246D01*
X131225839Y-94379637D01*
X131225839Y-94331614D01*
X131238685Y-94335405D01*
X131368800Y-94373795D01*
X131368800Y-94407620D01*
X131368656Y-94420230D01*
G36*
X131373328Y-93458745D02*
X131371189Y-93484826D01*
X131366743Y-93498119D01*
X131359268Y-93502380D01*
X131357306Y-93502480D01*
X131341818Y-93497643D01*
X131313512Y-93484624D01*
X131277020Y-93465653D01*
X131251960Y-93451680D01*
X131214002Y-93430300D01*
X131182784Y-93413360D01*
X131162369Y-93403027D01*
X131156775Y-93400879D01*
X131153115Y-93410022D01*
X131150793Y-93433397D01*
X131150360Y-93451680D01*
X131149291Y-93482150D01*
X131144750Y-93497346D01*
X131134740Y-93502262D01*
X131130040Y-93502480D01*
X131120160Y-93500872D01*
X131114125Y-93493402D01*
X131111001Y-93476096D01*
X131109851Y-93444980D01*
X131109720Y-93416120D01*
X131110273Y-93373494D01*
X131112412Y-93347413D01*
X131116858Y-93334120D01*
X131124333Y-93329859D01*
X131126295Y-93329760D01*
X131141783Y-93334596D01*
X131170089Y-93347615D01*
X131206581Y-93366586D01*
X131231640Y-93380559D01*
X131269599Y-93401939D01*
X131300817Y-93418879D01*
X131321232Y-93429212D01*
X131326826Y-93431359D01*
X131330486Y-93422217D01*
X131332808Y-93398842D01*
X131333240Y-93380560D01*
X131334310Y-93350089D01*
X131338851Y-93334893D01*
X131348861Y-93329977D01*
X131353560Y-93329760D01*
X131363441Y-93331367D01*
X131369476Y-93338837D01*
X131372600Y-93356143D01*
X131373750Y-93387259D01*
X131373880Y-93416120D01*
X131373328Y-93458745D01*
X131373328Y-93458745D01*
G37*
X131373328Y-93458745D02*
X131371189Y-93484826D01*
X131366743Y-93498119D01*
X131359268Y-93502380D01*
X131357306Y-93502480D01*
X131341818Y-93497643D01*
X131313512Y-93484624D01*
X131277020Y-93465653D01*
X131251960Y-93451680D01*
X131214002Y-93430300D01*
X131182784Y-93413360D01*
X131162369Y-93403027D01*
X131156775Y-93400879D01*
X131153115Y-93410022D01*
X131150793Y-93433397D01*
X131150360Y-93451680D01*
X131149291Y-93482150D01*
X131144750Y-93497346D01*
X131134740Y-93502262D01*
X131130040Y-93502480D01*
X131120160Y-93500872D01*
X131114125Y-93493402D01*
X131111001Y-93476096D01*
X131109851Y-93444980D01*
X131109720Y-93416120D01*
X131110273Y-93373494D01*
X131112412Y-93347413D01*
X131116858Y-93334120D01*
X131124333Y-93329859D01*
X131126295Y-93329760D01*
X131141783Y-93334596D01*
X131170089Y-93347615D01*
X131206581Y-93366586D01*
X131231640Y-93380559D01*
X131269599Y-93401939D01*
X131300817Y-93418879D01*
X131321232Y-93429212D01*
X131326826Y-93431359D01*
X131330486Y-93422217D01*
X131332808Y-93398842D01*
X131333240Y-93380560D01*
X131334310Y-93350089D01*
X131338851Y-93334893D01*
X131348861Y-93329977D01*
X131353560Y-93329760D01*
X131363441Y-93331367D01*
X131369476Y-93338837D01*
X131372600Y-93356143D01*
X131373750Y-93387259D01*
X131373880Y-93416120D01*
X131373328Y-93458745D01*
G36*
X131138490Y-96086775D02*
X131125170Y-96097584D01*
X131098028Y-96119529D01*
X131059064Y-96150993D01*
X131010278Y-96190363D01*
X130953670Y-96236025D01*
X130891241Y-96286364D01*
X130837908Y-96329355D01*
X130773180Y-96381640D01*
X130713532Y-96430044D01*
X130660802Y-96473057D01*
X130616831Y-96509170D01*
X130583456Y-96536873D01*
X130562519Y-96554656D01*
X130555868Y-96560854D01*
X130562356Y-96568854D01*
X130583057Y-96588095D01*
X130616293Y-96617152D01*
X130660383Y-96654604D01*
X130713650Y-96699027D01*
X130774414Y-96748999D01*
X130840997Y-96803097D01*
X130855620Y-96814895D01*
X130923343Y-96869516D01*
X130985840Y-96920008D01*
X131041403Y-96964985D01*
X131088326Y-97003060D01*
X131124900Y-97032849D01*
X131149417Y-97052964D01*
X131160171Y-97062020D01*
X131160520Y-97062387D01*
X131152870Y-97068908D01*
X131131061Y-97086730D01*
X131096811Y-97114470D01*
X131051836Y-97150744D01*
X130997852Y-97194168D01*
X130936576Y-97243359D01*
X130869723Y-97296932D01*
X130856269Y-97307703D01*
X130788459Y-97362128D01*
X130725880Y-97412640D01*
X130670253Y-97457826D01*
X130623305Y-97496272D01*
X130586759Y-97526566D01*
X130562339Y-97547293D01*
X130551769Y-97557042D01*
X130551469Y-97557533D01*
X130558991Y-97565086D01*
X130580670Y-97583926D01*
X130614800Y-97612641D01*
X130659674Y-97649819D01*
X130713587Y-97694048D01*
X130774832Y-97743916D01*
X130841703Y-97798012D01*
X130856670Y-97810075D01*
X130924228Y-97864846D01*
X130986176Y-97915769D01*
X131040860Y-97961429D01*
X131086627Y-98000415D01*
X131121824Y-98031314D01*
X131144795Y-98052713D01*
X131153889Y-98063201D01*
X131153850Y-98063915D01*
X131144222Y-98071801D01*
X131120549Y-98090943D01*
X131084640Y-98119884D01*
X131038303Y-98157169D01*
X130983348Y-98201342D01*
X130921583Y-98250949D01*
X130854818Y-98304533D01*
X130850640Y-98307885D01*
X130783882Y-98361564D01*
X130722280Y-98411327D01*
X130667601Y-98455732D01*
X130621611Y-98493335D01*
X130586075Y-98522690D01*
X130562758Y-98542355D01*
X130553426Y-98550885D01*
X130553341Y-98551030D01*
X130560405Y-98558663D01*
X130581683Y-98577515D01*
X130615471Y-98606174D01*
X130660067Y-98643226D01*
X130713767Y-98687258D01*
X130774869Y-98736859D01*
X130841670Y-98790614D01*
X130854987Y-98801278D01*
X130922777Y-98855644D01*
X130985321Y-98906043D01*
X131040900Y-98951073D01*
X131087792Y-98989327D01*
X131124276Y-99019402D01*
X131148633Y-99039892D01*
X131159142Y-99049393D01*
X131159432Y-99049840D01*
X131151806Y-99057105D01*
X131130011Y-99075635D01*
X131095763Y-99104023D01*
X131050779Y-99140865D01*
X130996777Y-99184756D01*
X130935474Y-99234290D01*
X130868586Y-99288062D01*
X130855246Y-99298755D01*
X130787484Y-99353180D01*
X130724978Y-99403637D01*
X130669445Y-99448720D01*
X130622602Y-99487025D01*
X130586166Y-99517147D01*
X130561853Y-99537680D01*
X130551382Y-99547219D01*
X130551098Y-99547675D01*
X130558788Y-99554952D01*
X130580630Y-99573511D01*
X130614904Y-99601941D01*
X130659893Y-99638836D01*
X130713876Y-99682785D01*
X130775135Y-99732381D01*
X130841952Y-99786216D01*
X130854875Y-99796600D01*
X130939757Y-99865131D01*
X131009163Y-99921980D01*
X131063798Y-99967758D01*
X131104365Y-100003079D01*
X131131567Y-100028554D01*
X131146108Y-100044796D01*
X131148742Y-100052357D01*
X131138835Y-100061248D01*
X131114885Y-100081347D01*
X131078715Y-100111165D01*
X131032146Y-100149215D01*
X130977001Y-100194008D01*
X130915101Y-100244054D01*
X130848269Y-100297867D01*
X130844965Y-100300521D01*
X130778424Y-100354140D01*
X130717167Y-100403802D01*
X130662939Y-100448071D01*
X130617484Y-100485510D01*
X130582546Y-100514681D01*
X130559870Y-100534147D01*
X130551199Y-100542472D01*
X130551162Y-100542603D01*
X130558873Y-100550044D01*
X130580749Y-100568743D01*
X130615067Y-100597289D01*
X130660107Y-100634270D01*
X130714146Y-100678274D01*
X130775465Y-100727889D01*
X130842341Y-100781702D01*
X130855169Y-100791992D01*
X130922719Y-100846407D01*
X130984832Y-100896935D01*
X131039818Y-100942164D01*
X131085983Y-100980679D01*
X131121637Y-101011067D01*
X131145086Y-101031913D01*
X131154639Y-101041803D01*
X131154743Y-101042328D01*
X131146141Y-101050014D01*
X131123443Y-101068978D01*
X131088409Y-101097788D01*
X131042795Y-101135008D01*
X130988360Y-101179207D01*
X130926861Y-101228949D01*
X130860056Y-101282801D01*
X130850736Y-101290300D01*
X130783547Y-101344524D01*
X130721638Y-101394819D01*
X130666733Y-101439761D01*
X130620556Y-101477922D01*
X130584831Y-101507878D01*
X130561284Y-101528201D01*
X130551636Y-101537466D01*
X130551493Y-101537804D01*
X130559168Y-101544967D01*
X130580612Y-101563165D01*
X130613749Y-101590711D01*
X130656504Y-101625920D01*
X130706799Y-101667104D01*
X130762559Y-101712577D01*
X130821709Y-101760654D01*
X130882171Y-101809647D01*
X130941870Y-101857870D01*
X130998731Y-101903637D01*
X131050676Y-101945262D01*
X131095630Y-101981057D01*
X131131517Y-102009336D01*
X131142140Y-102017602D01*
X131146960Y-102022142D01*
X131148794Y-102027528D01*
X131146275Y-102035018D01*
X131138038Y-102045869D01*
X131122717Y-102061338D01*
X131098947Y-102082683D01*
X131065362Y-102111163D01*
X131020596Y-102148034D01*
X130963285Y-102194553D01*
X130892063Y-102251980D01*
X130857031Y-102280170D01*
X130789279Y-102335009D01*
X130727008Y-102386054D01*
X130671893Y-102431883D01*
X130625611Y-102471074D01*
X130589836Y-102502206D01*
X130566244Y-102523855D01*
X130556510Y-102534599D01*
X130556399Y-102535364D01*
X130565406Y-102543715D01*
X130588319Y-102563158D01*
X130623183Y-102592085D01*
X130668042Y-102628889D01*
X130720942Y-102671960D01*
X130779926Y-102719691D01*
X130809893Y-102743840D01*
X131057882Y-102943407D01*
X130994901Y-103021413D01*
X130967107Y-103054852D01*
X130943350Y-103081621D01*
X130926877Y-103098157D01*
X130921760Y-103101704D01*
X130912169Y-103096019D01*
X130888757Y-103079087D01*
X130853482Y-103052468D01*
X130808304Y-103017717D01*
X130755180Y-102976393D01*
X130696069Y-102930053D01*
X130632930Y-102880254D01*
X130567721Y-102828555D01*
X130502400Y-102776511D01*
X130438925Y-102725681D01*
X130379257Y-102677622D01*
X130325351Y-102633892D01*
X130279168Y-102596047D01*
X130242666Y-102565646D01*
X130217802Y-102544246D01*
X130206536Y-102533403D01*
X130206074Y-102532567D01*
X130213595Y-102524811D01*
X130235289Y-102505796D01*
X130269449Y-102476939D01*
X130314366Y-102439655D01*
X130368332Y-102395361D01*
X130429638Y-102345473D01*
X130496575Y-102291407D01*
X130511419Y-102279469D01*
X130588995Y-102217068D01*
X130652068Y-102166103D01*
X130702006Y-102125317D01*
X130740175Y-102093453D01*
X130767941Y-102069254D01*
X130786672Y-102051464D01*
X130797732Y-102038826D01*
X130802489Y-102030084D01*
X130802310Y-102023981D01*
X130798561Y-102019260D01*
X130796347Y-102017462D01*
X130767499Y-101994961D01*
X130728268Y-101963872D01*
X130680741Y-101925893D01*
X130627007Y-101882719D01*
X130569153Y-101836047D01*
X130509267Y-101787573D01*
X130449436Y-101738995D01*
X130391748Y-101692007D01*
X130338290Y-101648308D01*
X130291150Y-101609592D01*
X130252415Y-101577557D01*
X130224174Y-101553900D01*
X130208513Y-101540315D01*
X130206016Y-101537738D01*
X130213541Y-101530164D01*
X130235223Y-101511306D01*
X130269355Y-101482576D01*
X130314230Y-101445387D01*
X130368140Y-101401153D01*
X130429378Y-101351285D01*
X130496239Y-101297198D01*
X130510999Y-101285302D01*
X130578687Y-101230648D01*
X130641004Y-101180058D01*
X130696266Y-101134922D01*
X130742786Y-101096627D01*
X130778879Y-101066564D01*
X130802859Y-101046122D01*
X130813039Y-101036690D01*
X130813259Y-101036230D01*
X130804877Y-101029402D01*
X130782405Y-101011254D01*
X130747591Y-100983194D01*
X130702184Y-100946629D01*
X130647931Y-100902967D01*
X130586582Y-100853617D01*
X130519886Y-100799986D01*
X130510280Y-100792264D01*
X130442953Y-100738015D01*
X130380763Y-100687667D01*
X130325459Y-100642652D01*
X130278790Y-100604406D01*
X130242504Y-100574362D01*
X130218349Y-100553954D01*
X130208076Y-100544615D01*
X130207848Y-100544281D01*
X130214872Y-100536550D01*
X130236059Y-100517557D01*
X130269701Y-100488731D01*
X130314092Y-100451502D01*
X130367526Y-100407299D01*
X130428296Y-100357552D01*
X130494695Y-100303691D01*
X130505201Y-100295211D01*
X130572557Y-100240795D01*
X130634829Y-100190320D01*
X130690267Y-100145217D01*
X130737120Y-100106916D01*
X130773638Y-100076851D01*
X130798072Y-100056451D01*
X130808670Y-100047148D01*
X130808953Y-100046809D01*
X130802133Y-100039253D01*
X130781113Y-100020452D01*
X130747584Y-99991819D01*
X130703242Y-99954766D01*
X130649780Y-99910708D01*
X130588893Y-99861057D01*
X130522273Y-99807226D01*
X130509060Y-99796604D01*
X130441404Y-99742127D01*
X130378994Y-99691612D01*
X130323547Y-99646469D01*
X130276781Y-99608109D01*
X130240415Y-99577942D01*
X130216167Y-99557378D01*
X130205753Y-99547828D01*
X130205480Y-99547380D01*
X130213133Y-99540038D01*
X130234946Y-99521426D01*
X130269198Y-99492956D01*
X130314172Y-99456036D01*
X130368148Y-99412077D01*
X130429407Y-99362489D01*
X130496229Y-99308683D01*
X130508968Y-99298456D01*
X130576481Y-99244011D01*
X130638559Y-99193430D01*
X130693509Y-99148133D01*
X130739639Y-99109538D01*
X130775256Y-99079063D01*
X130798667Y-99058126D01*
X130808181Y-99048146D01*
X130808280Y-99047610D01*
X130799680Y-99039803D01*
X130776984Y-99020725D01*
X130741951Y-98991813D01*
X130696340Y-98954505D01*
X130641910Y-98910240D01*
X130580420Y-98860455D01*
X130513628Y-98806588D01*
X130504585Y-98799311D01*
X130437509Y-98745101D01*
X130375812Y-98694774D01*
X130321205Y-98649761D01*
X130275397Y-98611491D01*
X130240101Y-98581396D01*
X130217026Y-98560907D01*
X130207883Y-98551453D01*
X130207813Y-98551088D01*
X130216091Y-98543308D01*
X130238487Y-98524269D01*
X130273251Y-98495406D01*
X130318635Y-98458155D01*
X130372889Y-98413950D01*
X130434264Y-98364226D01*
X130501011Y-98310419D01*
X130510280Y-98302966D01*
X130577585Y-98248863D01*
X130639785Y-98198846D01*
X130695131Y-98154322D01*
X130741875Y-98116699D01*
X130778267Y-98087384D01*
X130802559Y-98067786D01*
X130813002Y-98059312D01*
X130813259Y-98059094D01*
X130806356Y-98052290D01*
X130785281Y-98034169D01*
X130751721Y-98006120D01*
X130707360Y-97969531D01*
X130653886Y-97925792D01*
X130592983Y-97876291D01*
X130526338Y-97822417D01*
X130510999Y-97810057D01*
X130443161Y-97755254D01*
X130380577Y-97704371D01*
X130324956Y-97658821D01*
X130278006Y-97620018D01*
X130241433Y-97589374D01*
X130216946Y-97568302D01*
X130206253Y-97558215D01*
X130205919Y-97557621D01*
X130213671Y-97550007D01*
X130235516Y-97531213D01*
X130269655Y-97502719D01*
X130314288Y-97466008D01*
X130367615Y-97422560D01*
X130427838Y-97373856D01*
X130485241Y-97327720D01*
X130551347Y-97274728D01*
X130613352Y-97225010D01*
X130669235Y-97180186D01*
X130716976Y-97141878D01*
X130754554Y-97111705D01*
X130779949Y-97091291D01*
X130790257Y-97082975D01*
X130816392Y-97061751D01*
X130510407Y-96815414D01*
X130429906Y-96750382D01*
X130364244Y-96696787D01*
X130312228Y-96653576D01*
X130272666Y-96619699D01*
X130244366Y-96594104D01*
X130226137Y-96575740D01*
X130216785Y-96563555D01*
X130215120Y-96556498D01*
X130215706Y-96555480D01*
X130225977Y-96546200D01*
X130250280Y-96525726D01*
X130286782Y-96495561D01*
X130333649Y-96457205D01*
X130389046Y-96412160D01*
X130451138Y-96361926D01*
X130518091Y-96308004D01*
X130521254Y-96305463D01*
X130600159Y-96241830D01*
X130664196Y-96189604D01*
X130714552Y-96147738D01*
X130752413Y-96115185D01*
X130778966Y-96090895D01*
X130795397Y-96073823D01*
X130802895Y-96062920D01*
X130802644Y-96057138D01*
X130802599Y-96057095D01*
X130791923Y-96048153D01*
X130767271Y-96028005D01*
X130730514Y-95998164D01*
X130683521Y-95960144D01*
X130628165Y-95915457D01*
X130566314Y-95865618D01*
X130502862Y-95814570D01*
X130436901Y-95761422D01*
X130375985Y-95712109D01*
X130321927Y-95668115D01*
X130276537Y-95630924D01*
X130241627Y-95602019D01*
X130219009Y-95582886D01*
X130210525Y-95575063D01*
X130216936Y-95566934D01*
X130237571Y-95547577D01*
X130270758Y-95518415D01*
X130314820Y-95480872D01*
X130368082Y-95436371D01*
X130428869Y-95386337D01*
X130495507Y-95332193D01*
X130510851Y-95319819D01*
X130588403Y-95257298D01*
X130651459Y-95206222D01*
X130701385Y-95165336D01*
X130739546Y-95133385D01*
X130767307Y-95109113D01*
X130786036Y-95091267D01*
X130797097Y-95078591D01*
X130801857Y-95069829D01*
X130801681Y-95063727D01*
X130797935Y-95059030D01*
X130796197Y-95057612D01*
X130763320Y-95031841D01*
X130720764Y-94998058D01*
X130670604Y-94957947D01*
X130614911Y-94913190D01*
X130555759Y-94865472D01*
X130495221Y-94816477D01*
X130435369Y-94767888D01*
X130378278Y-94721390D01*
X130326019Y-94678665D01*
X130280666Y-94641397D01*
X130244293Y-94611271D01*
X130218971Y-94589970D01*
X130206774Y-94579178D01*
X130205982Y-94578226D01*
X130213514Y-94570671D01*
X130235200Y-94551832D01*
X130269330Y-94523122D01*
X130314197Y-94485956D01*
X130368089Y-94441748D01*
X130429299Y-94391913D01*
X130496116Y-94337864D01*
X130510277Y-94326452D01*
X130815073Y-94080972D01*
X130782057Y-94052711D01*
X130765331Y-94038829D01*
X130735223Y-94014280D01*
X130694229Y-93981081D01*
X130644843Y-93941248D01*
X130589559Y-93896797D01*
X130535680Y-93853595D01*
X130478770Y-93807985D01*
X130426903Y-93766348D01*
X130382245Y-93730428D01*
X130346965Y-93701970D01*
X130323227Y-93682720D01*
X130313210Y-93674430D01*
X130315220Y-93663671D01*
X130327766Y-93641959D01*
X130347663Y-93613335D01*
X130371729Y-93581838D01*
X130396780Y-93551506D01*
X130419635Y-93526379D01*
X130437108Y-93510495D01*
X130445038Y-93507146D01*
X130455536Y-93514236D01*
X130479641Y-93532501D01*
X130515401Y-93560364D01*
X130560862Y-93596246D01*
X130614073Y-93638572D01*
X130673080Y-93685764D01*
X130735932Y-93736245D01*
X130800675Y-93788438D01*
X130865358Y-93840766D01*
X130928027Y-93891652D01*
X130986731Y-93939518D01*
X131039516Y-93982787D01*
X131084430Y-94019883D01*
X131119521Y-94049228D01*
X131142836Y-94069245D01*
X131152423Y-94078358D01*
X131152556Y-94078628D01*
X131145249Y-94086588D01*
X131123781Y-94105784D01*
X131089874Y-94134775D01*
X131045250Y-94172123D01*
X130991630Y-94216387D01*
X130930738Y-94266128D01*
X130864294Y-94319906D01*
X130855307Y-94327144D01*
X130788110Y-94381401D01*
X130726075Y-94431820D01*
X130670950Y-94476954D01*
X130624484Y-94515357D01*
X130588423Y-94545584D01*
X130564518Y-94566188D01*
X130554515Y-94575724D01*
X130554330Y-94576064D01*
X130561494Y-94584080D01*
X130582872Y-94603299D01*
X130616757Y-94632295D01*
X130661440Y-94669644D01*
X130715216Y-94713921D01*
X130776377Y-94763702D01*
X130843215Y-94817562D01*
X130856311Y-94828056D01*
X130924042Y-94882328D01*
X130986528Y-94932495D01*
X131042055Y-94977171D01*
X131088904Y-95014971D01*
X131125360Y-95044510D01*
X131149706Y-95064402D01*
X131160226Y-95073262D01*
X131160520Y-95073585D01*
X131152886Y-95080174D01*
X131131120Y-95098105D01*
X131096932Y-95125990D01*
X131052031Y-95162443D01*
X130998126Y-95206078D01*
X130936926Y-95255506D01*
X130870139Y-95309342D01*
X130855602Y-95321047D01*
X130787991Y-95375788D01*
X130725847Y-95426705D01*
X130670850Y-95472377D01*
X130624679Y-95511381D01*
X130589015Y-95542295D01*
X130565538Y-95563696D01*
X130555927Y-95574164D01*
X130555827Y-95574838D01*
X130564646Y-95582879D01*
X130587553Y-95602191D01*
X130622785Y-95631333D01*
X130668580Y-95668860D01*
X130723176Y-95713330D01*
X130784810Y-95763300D01*
X130851721Y-95817325D01*
X130861575Y-95825263D01*
X131162179Y-96067365D01*
X131138490Y-96086775D01*
X131138490Y-96086775D01*
G37*
X131138490Y-96086775D02*
X131125170Y-96097584D01*
X131098028Y-96119529D01*
X131059064Y-96150993D01*
X131010278Y-96190363D01*
X130953670Y-96236025D01*
X130891241Y-96286364D01*
X130837908Y-96329355D01*
X130773180Y-96381640D01*
X130713532Y-96430044D01*
X130660802Y-96473057D01*
X130616831Y-96509170D01*
X130583456Y-96536873D01*
X130562519Y-96554656D01*
X130555868Y-96560854D01*
X130562356Y-96568854D01*
X130583057Y-96588095D01*
X130616293Y-96617152D01*
X130660383Y-96654604D01*
X130713650Y-96699027D01*
X130774414Y-96748999D01*
X130840997Y-96803097D01*
X130855620Y-96814895D01*
X130923343Y-96869516D01*
X130985840Y-96920008D01*
X131041403Y-96964985D01*
X131088326Y-97003060D01*
X131124900Y-97032849D01*
X131149417Y-97052964D01*
X131160171Y-97062020D01*
X131160520Y-97062387D01*
X131152870Y-97068908D01*
X131131061Y-97086730D01*
X131096811Y-97114470D01*
X131051836Y-97150744D01*
X130997852Y-97194168D01*
X130936576Y-97243359D01*
X130869723Y-97296932D01*
X130856269Y-97307703D01*
X130788459Y-97362128D01*
X130725880Y-97412640D01*
X130670253Y-97457826D01*
X130623305Y-97496272D01*
X130586759Y-97526566D01*
X130562339Y-97547293D01*
X130551769Y-97557042D01*
X130551469Y-97557533D01*
X130558991Y-97565086D01*
X130580670Y-97583926D01*
X130614800Y-97612641D01*
X130659674Y-97649819D01*
X130713587Y-97694048D01*
X130774832Y-97743916D01*
X130841703Y-97798012D01*
X130856670Y-97810075D01*
X130924228Y-97864846D01*
X130986176Y-97915769D01*
X131040860Y-97961429D01*
X131086627Y-98000415D01*
X131121824Y-98031314D01*
X131144795Y-98052713D01*
X131153889Y-98063201D01*
X131153850Y-98063915D01*
X131144222Y-98071801D01*
X131120549Y-98090943D01*
X131084640Y-98119884D01*
X131038303Y-98157169D01*
X130983348Y-98201342D01*
X130921583Y-98250949D01*
X130854818Y-98304533D01*
X130850640Y-98307885D01*
X130783882Y-98361564D01*
X130722280Y-98411327D01*
X130667601Y-98455732D01*
X130621611Y-98493335D01*
X130586075Y-98522690D01*
X130562758Y-98542355D01*
X130553426Y-98550885D01*
X130553341Y-98551030D01*
X130560405Y-98558663D01*
X130581683Y-98577515D01*
X130615471Y-98606174D01*
X130660067Y-98643226D01*
X130713767Y-98687258D01*
X130774869Y-98736859D01*
X130841670Y-98790614D01*
X130854987Y-98801278D01*
X130922777Y-98855644D01*
X130985321Y-98906043D01*
X131040900Y-98951073D01*
X131087792Y-98989327D01*
X131124276Y-99019402D01*
X131148633Y-99039892D01*
X131159142Y-99049393D01*
X131159432Y-99049840D01*
X131151806Y-99057105D01*
X131130011Y-99075635D01*
X131095763Y-99104023D01*
X131050779Y-99140865D01*
X130996777Y-99184756D01*
X130935474Y-99234290D01*
X130868586Y-99288062D01*
X130855246Y-99298755D01*
X130787484Y-99353180D01*
X130724978Y-99403637D01*
X130669445Y-99448720D01*
X130622602Y-99487025D01*
X130586166Y-99517147D01*
X130561853Y-99537680D01*
X130551382Y-99547219D01*
X130551098Y-99547675D01*
X130558788Y-99554952D01*
X130580630Y-99573511D01*
X130614904Y-99601941D01*
X130659893Y-99638836D01*
X130713876Y-99682785D01*
X130775135Y-99732381D01*
X130841952Y-99786216D01*
X130854875Y-99796600D01*
X130939757Y-99865131D01*
X131009163Y-99921980D01*
X131063798Y-99967758D01*
X131104365Y-100003079D01*
X131131567Y-100028554D01*
X131146108Y-100044796D01*
X131148742Y-100052357D01*
X131138835Y-100061248D01*
X131114885Y-100081347D01*
X131078715Y-100111165D01*
X131032146Y-100149215D01*
X130977001Y-100194008D01*
X130915101Y-100244054D01*
X130848269Y-100297867D01*
X130844965Y-100300521D01*
X130778424Y-100354140D01*
X130717167Y-100403802D01*
X130662939Y-100448071D01*
X130617484Y-100485510D01*
X130582546Y-100514681D01*
X130559870Y-100534147D01*
X130551199Y-100542472D01*
X130551162Y-100542603D01*
X130558873Y-100550044D01*
X130580749Y-100568743D01*
X130615067Y-100597289D01*
X130660107Y-100634270D01*
X130714146Y-100678274D01*
X130775465Y-100727889D01*
X130842341Y-100781702D01*
X130855169Y-100791992D01*
X130922719Y-100846407D01*
X130984832Y-100896935D01*
X131039818Y-100942164D01*
X131085983Y-100980679D01*
X131121637Y-101011067D01*
X131145086Y-101031913D01*
X131154639Y-101041803D01*
X131154743Y-101042328D01*
X131146141Y-101050014D01*
X131123443Y-101068978D01*
X131088409Y-101097788D01*
X131042795Y-101135008D01*
X130988360Y-101179207D01*
X130926861Y-101228949D01*
X130860056Y-101282801D01*
X130850736Y-101290300D01*
X130783547Y-101344524D01*
X130721638Y-101394819D01*
X130666733Y-101439761D01*
X130620556Y-101477922D01*
X130584831Y-101507878D01*
X130561284Y-101528201D01*
X130551636Y-101537466D01*
X130551493Y-101537804D01*
X130559168Y-101544967D01*
X130580612Y-101563165D01*
X130613749Y-101590711D01*
X130656504Y-101625920D01*
X130706799Y-101667104D01*
X130762559Y-101712577D01*
X130821709Y-101760654D01*
X130882171Y-101809647D01*
X130941870Y-101857870D01*
X130998731Y-101903637D01*
X131050676Y-101945262D01*
X131095630Y-101981057D01*
X131131517Y-102009336D01*
X131142140Y-102017602D01*
X131146960Y-102022142D01*
X131148794Y-102027528D01*
X131146275Y-102035018D01*
X131138038Y-102045869D01*
X131122717Y-102061338D01*
X131098947Y-102082683D01*
X131065362Y-102111163D01*
X131020596Y-102148034D01*
X130963285Y-102194553D01*
X130892063Y-102251980D01*
X130857031Y-102280170D01*
X130789279Y-102335009D01*
X130727008Y-102386054D01*
X130671893Y-102431883D01*
X130625611Y-102471074D01*
X130589836Y-102502206D01*
X130566244Y-102523855D01*
X130556510Y-102534599D01*
X130556399Y-102535364D01*
X130565406Y-102543715D01*
X130588319Y-102563158D01*
X130623183Y-102592085D01*
X130668042Y-102628889D01*
X130720942Y-102671960D01*
X130779926Y-102719691D01*
X130809893Y-102743840D01*
X131057882Y-102943407D01*
X130994901Y-103021413D01*
X130967107Y-103054852D01*
X130943350Y-103081621D01*
X130926877Y-103098157D01*
X130921760Y-103101704D01*
X130912169Y-103096019D01*
X130888757Y-103079087D01*
X130853482Y-103052468D01*
X130808304Y-103017717D01*
X130755180Y-102976393D01*
X130696069Y-102930053D01*
X130632930Y-102880254D01*
X130567721Y-102828555D01*
X130502400Y-102776511D01*
X130438925Y-102725681D01*
X130379257Y-102677622D01*
X130325351Y-102633892D01*
X130279168Y-102596047D01*
X130242666Y-102565646D01*
X130217802Y-102544246D01*
X130206536Y-102533403D01*
X130206074Y-102532567D01*
X130213595Y-102524811D01*
X130235289Y-102505796D01*
X130269449Y-102476939D01*
X130314366Y-102439655D01*
X130368332Y-102395361D01*
X130429638Y-102345473D01*
X130496575Y-102291407D01*
X130511419Y-102279469D01*
X130588995Y-102217068D01*
X130652068Y-102166103D01*
X130702006Y-102125317D01*
X130740175Y-102093453D01*
X130767941Y-102069254D01*
X130786672Y-102051464D01*
X130797732Y-102038826D01*
X130802489Y-102030084D01*
X130802310Y-102023981D01*
X130798561Y-102019260D01*
X130796347Y-102017462D01*
X130767499Y-101994961D01*
X130728268Y-101963872D01*
X130680741Y-101925893D01*
X130627007Y-101882719D01*
X130569153Y-101836047D01*
X130509267Y-101787573D01*
X130449436Y-101738995D01*
X130391748Y-101692007D01*
X130338290Y-101648308D01*
X130291150Y-101609592D01*
X130252415Y-101577557D01*
X130224174Y-101553900D01*
X130208513Y-101540315D01*
X130206016Y-101537738D01*
X130213541Y-101530164D01*
X130235223Y-101511306D01*
X130269355Y-101482576D01*
X130314230Y-101445387D01*
X130368140Y-101401153D01*
X130429378Y-101351285D01*
X130496239Y-101297198D01*
X130510999Y-101285302D01*
X130578687Y-101230648D01*
X130641004Y-101180058D01*
X130696266Y-101134922D01*
X130742786Y-101096627D01*
X130778879Y-101066564D01*
X130802859Y-101046122D01*
X130813039Y-101036690D01*
X130813259Y-101036230D01*
X130804877Y-101029402D01*
X130782405Y-101011254D01*
X130747591Y-100983194D01*
X130702184Y-100946629D01*
X130647931Y-100902967D01*
X130586582Y-100853617D01*
X130519886Y-100799986D01*
X130510280Y-100792264D01*
X130442953Y-100738015D01*
X130380763Y-100687667D01*
X130325459Y-100642652D01*
X130278790Y-100604406D01*
X130242504Y-100574362D01*
X130218349Y-100553954D01*
X130208076Y-100544615D01*
X130207848Y-100544281D01*
X130214872Y-100536550D01*
X130236059Y-100517557D01*
X130269701Y-100488731D01*
X130314092Y-100451502D01*
X130367526Y-100407299D01*
X130428296Y-100357552D01*
X130494695Y-100303691D01*
X130505201Y-100295211D01*
X130572557Y-100240795D01*
X130634829Y-100190320D01*
X130690267Y-100145217D01*
X130737120Y-100106916D01*
X130773638Y-100076851D01*
X130798072Y-100056451D01*
X130808670Y-100047148D01*
X130808953Y-100046809D01*
X130802133Y-100039253D01*
X130781113Y-100020452D01*
X130747584Y-99991819D01*
X130703242Y-99954766D01*
X130649780Y-99910708D01*
X130588893Y-99861057D01*
X130522273Y-99807226D01*
X130509060Y-99796604D01*
X130441404Y-99742127D01*
X130378994Y-99691612D01*
X130323547Y-99646469D01*
X130276781Y-99608109D01*
X130240415Y-99577942D01*
X130216167Y-99557378D01*
X130205753Y-99547828D01*
X130205480Y-99547380D01*
X130213133Y-99540038D01*
X130234946Y-99521426D01*
X130269198Y-99492956D01*
X130314172Y-99456036D01*
X130368148Y-99412077D01*
X130429407Y-99362489D01*
X130496229Y-99308683D01*
X130508968Y-99298456D01*
X130576481Y-99244011D01*
X130638559Y-99193430D01*
X130693509Y-99148133D01*
X130739639Y-99109538D01*
X130775256Y-99079063D01*
X130798667Y-99058126D01*
X130808181Y-99048146D01*
X130808280Y-99047610D01*
X130799680Y-99039803D01*
X130776984Y-99020725D01*
X130741951Y-98991813D01*
X130696340Y-98954505D01*
X130641910Y-98910240D01*
X130580420Y-98860455D01*
X130513628Y-98806588D01*
X130504585Y-98799311D01*
X130437509Y-98745101D01*
X130375812Y-98694774D01*
X130321205Y-98649761D01*
X130275397Y-98611491D01*
X130240101Y-98581396D01*
X130217026Y-98560907D01*
X130207883Y-98551453D01*
X130207813Y-98551088D01*
X130216091Y-98543308D01*
X130238487Y-98524269D01*
X130273251Y-98495406D01*
X130318635Y-98458155D01*
X130372889Y-98413950D01*
X130434264Y-98364226D01*
X130501011Y-98310419D01*
X130510280Y-98302966D01*
X130577585Y-98248863D01*
X130639785Y-98198846D01*
X130695131Y-98154322D01*
X130741875Y-98116699D01*
X130778267Y-98087384D01*
X130802559Y-98067786D01*
X130813002Y-98059312D01*
X130813259Y-98059094D01*
X130806356Y-98052290D01*
X130785281Y-98034169D01*
X130751721Y-98006120D01*
X130707360Y-97969531D01*
X130653886Y-97925792D01*
X130592983Y-97876291D01*
X130526338Y-97822417D01*
X130510999Y-97810057D01*
X130443161Y-97755254D01*
X130380577Y-97704371D01*
X130324956Y-97658821D01*
X130278006Y-97620018D01*
X130241433Y-97589374D01*
X130216946Y-97568302D01*
X130206253Y-97558215D01*
X130205919Y-97557621D01*
X130213671Y-97550007D01*
X130235516Y-97531213D01*
X130269655Y-97502719D01*
X130314288Y-97466008D01*
X130367615Y-97422560D01*
X130427838Y-97373856D01*
X130485241Y-97327720D01*
X130551347Y-97274728D01*
X130613352Y-97225010D01*
X130669235Y-97180186D01*
X130716976Y-97141878D01*
X130754554Y-97111705D01*
X130779949Y-97091291D01*
X130790257Y-97082975D01*
X130816392Y-97061751D01*
X130510407Y-96815414D01*
X130429906Y-96750382D01*
X130364244Y-96696787D01*
X130312228Y-96653576D01*
X130272666Y-96619699D01*
X130244366Y-96594104D01*
X130226137Y-96575740D01*
X130216785Y-96563555D01*
X130215120Y-96556498D01*
X130215706Y-96555480D01*
X130225977Y-96546200D01*
X130250280Y-96525726D01*
X130286782Y-96495561D01*
X130333649Y-96457205D01*
X130389046Y-96412160D01*
X130451138Y-96361926D01*
X130518091Y-96308004D01*
X130521254Y-96305463D01*
X130600159Y-96241830D01*
X130664196Y-96189604D01*
X130714552Y-96147738D01*
X130752413Y-96115185D01*
X130778966Y-96090895D01*
X130795397Y-96073823D01*
X130802895Y-96062920D01*
X130802644Y-96057138D01*
X130802599Y-96057095D01*
X130791923Y-96048153D01*
X130767271Y-96028005D01*
X130730514Y-95998164D01*
X130683521Y-95960144D01*
X130628165Y-95915457D01*
X130566314Y-95865618D01*
X130502862Y-95814570D01*
X130436901Y-95761422D01*
X130375985Y-95712109D01*
X130321927Y-95668115D01*
X130276537Y-95630924D01*
X130241627Y-95602019D01*
X130219009Y-95582886D01*
X130210525Y-95575063D01*
X130216936Y-95566934D01*
X130237571Y-95547577D01*
X130270758Y-95518415D01*
X130314820Y-95480872D01*
X130368082Y-95436371D01*
X130428869Y-95386337D01*
X130495507Y-95332193D01*
X130510851Y-95319819D01*
X130588403Y-95257298D01*
X130651459Y-95206222D01*
X130701385Y-95165336D01*
X130739546Y-95133385D01*
X130767307Y-95109113D01*
X130786036Y-95091267D01*
X130797097Y-95078591D01*
X130801857Y-95069829D01*
X130801681Y-95063727D01*
X130797935Y-95059030D01*
X130796197Y-95057612D01*
X130763320Y-95031841D01*
X130720764Y-94998058D01*
X130670604Y-94957947D01*
X130614911Y-94913190D01*
X130555759Y-94865472D01*
X130495221Y-94816477D01*
X130435369Y-94767888D01*
X130378278Y-94721390D01*
X130326019Y-94678665D01*
X130280666Y-94641397D01*
X130244293Y-94611271D01*
X130218971Y-94589970D01*
X130206774Y-94579178D01*
X130205982Y-94578226D01*
X130213514Y-94570671D01*
X130235200Y-94551832D01*
X130269330Y-94523122D01*
X130314197Y-94485956D01*
X130368089Y-94441748D01*
X130429299Y-94391913D01*
X130496116Y-94337864D01*
X130510277Y-94326452D01*
X130815073Y-94080972D01*
X130782057Y-94052711D01*
X130765331Y-94038829D01*
X130735223Y-94014280D01*
X130694229Y-93981081D01*
X130644843Y-93941248D01*
X130589559Y-93896797D01*
X130535680Y-93853595D01*
X130478770Y-93807985D01*
X130426903Y-93766348D01*
X130382245Y-93730428D01*
X130346965Y-93701970D01*
X130323227Y-93682720D01*
X130313210Y-93674430D01*
X130315220Y-93663671D01*
X130327766Y-93641959D01*
X130347663Y-93613335D01*
X130371729Y-93581838D01*
X130396780Y-93551506D01*
X130419635Y-93526379D01*
X130437108Y-93510495D01*
X130445038Y-93507146D01*
X130455536Y-93514236D01*
X130479641Y-93532501D01*
X130515401Y-93560364D01*
X130560862Y-93596246D01*
X130614073Y-93638572D01*
X130673080Y-93685764D01*
X130735932Y-93736245D01*
X130800675Y-93788438D01*
X130865358Y-93840766D01*
X130928027Y-93891652D01*
X130986731Y-93939518D01*
X131039516Y-93982787D01*
X131084430Y-94019883D01*
X131119521Y-94049228D01*
X131142836Y-94069245D01*
X131152423Y-94078358D01*
X131152556Y-94078628D01*
X131145249Y-94086588D01*
X131123781Y-94105784D01*
X131089874Y-94134775D01*
X131045250Y-94172123D01*
X130991630Y-94216387D01*
X130930738Y-94266128D01*
X130864294Y-94319906D01*
X130855307Y-94327144D01*
X130788110Y-94381401D01*
X130726075Y-94431820D01*
X130670950Y-94476954D01*
X130624484Y-94515357D01*
X130588423Y-94545584D01*
X130564518Y-94566188D01*
X130554515Y-94575724D01*
X130554330Y-94576064D01*
X130561494Y-94584080D01*
X130582872Y-94603299D01*
X130616757Y-94632295D01*
X130661440Y-94669644D01*
X130715216Y-94713921D01*
X130776377Y-94763702D01*
X130843215Y-94817562D01*
X130856311Y-94828056D01*
X130924042Y-94882328D01*
X130986528Y-94932495D01*
X131042055Y-94977171D01*
X131088904Y-95014971D01*
X131125360Y-95044510D01*
X131149706Y-95064402D01*
X131160226Y-95073262D01*
X131160520Y-95073585D01*
X131152886Y-95080174D01*
X131131120Y-95098105D01*
X131096932Y-95125990D01*
X131052031Y-95162443D01*
X130998126Y-95206078D01*
X130936926Y-95255506D01*
X130870139Y-95309342D01*
X130855602Y-95321047D01*
X130787991Y-95375788D01*
X130725847Y-95426705D01*
X130670850Y-95472377D01*
X130624679Y-95511381D01*
X130589015Y-95542295D01*
X130565538Y-95563696D01*
X130555927Y-95574164D01*
X130555827Y-95574838D01*
X130564646Y-95582879D01*
X130587553Y-95602191D01*
X130622785Y-95631333D01*
X130668580Y-95668860D01*
X130723176Y-95713330D01*
X130784810Y-95763300D01*
X130851721Y-95817325D01*
X130861575Y-95825263D01*
X131162179Y-96067365D01*
X131138490Y-96086775D01*
G36*
X130184736Y-103235617D02*
X130182782Y-103259888D01*
X130178277Y-103272020D01*
X130170198Y-103276100D01*
X130164840Y-103276400D01*
X130153098Y-103273974D01*
X130146980Y-103263487D01*
X130144737Y-103240124D01*
X130144520Y-103220520D01*
X130144009Y-103188574D01*
X130140655Y-103171946D01*
X130131730Y-103165635D01*
X130114507Y-103164640D01*
X130114040Y-103164640D01*
X130095298Y-103165965D01*
X130086421Y-103173617D01*
X130083733Y-103193111D01*
X130083560Y-103210360D01*
X130082185Y-103239012D01*
X130076590Y-103252549D01*
X130064572Y-103256074D01*
X130063825Y-103256080D01*
X130050743Y-103252103D01*
X130043837Y-103236853D01*
X130040965Y-103212900D01*
X130037726Y-103185592D01*
X130030106Y-103172487D01*
X130013341Y-103167473D01*
X130004820Y-103166536D01*
X129971800Y-103163352D01*
X129971800Y-103220582D01*
X129971177Y-103252961D01*
X129968010Y-103269623D01*
X129960354Y-103275161D01*
X129948940Y-103274566D01*
X129937343Y-103271336D01*
X129930225Y-103262797D01*
X129926210Y-103244585D01*
X129923925Y-103212338D01*
X129923113Y-103192580D01*
X129920146Y-103113840D01*
X130185160Y-103113840D01*
X130185160Y-103195120D01*
X130184736Y-103235617D01*
X130184736Y-103235617D01*
G37*
X130184736Y-103235617D02*
X130182782Y-103259888D01*
X130178277Y-103272020D01*
X130170198Y-103276100D01*
X130164840Y-103276400D01*
X130153098Y-103273974D01*
X130146980Y-103263487D01*
X130144737Y-103240124D01*
X130144520Y-103220520D01*
X130144009Y-103188574D01*
X130140655Y-103171946D01*
X130131730Y-103165635D01*
X130114507Y-103164640D01*
X130114040Y-103164640D01*
X130095298Y-103165965D01*
X130086421Y-103173617D01*
X130083733Y-103193111D01*
X130083560Y-103210360D01*
X130082185Y-103239012D01*
X130076590Y-103252549D01*
X130064572Y-103256074D01*
X130063825Y-103256080D01*
X130050743Y-103252103D01*
X130043837Y-103236853D01*
X130040965Y-103212900D01*
X130037726Y-103185592D01*
X130030106Y-103172487D01*
X130013341Y-103167473D01*
X130004820Y-103166536D01*
X129971800Y-103163352D01*
X129971800Y-103220582D01*
X129971177Y-103252961D01*
X129968010Y-103269623D01*
X129960354Y-103275161D01*
X129948940Y-103274566D01*
X129937343Y-103271336D01*
X129930225Y-103262797D01*
X129926210Y-103244585D01*
X129923925Y-103212338D01*
X129923113Y-103192580D01*
X129920146Y-103113840D01*
X130185160Y-103113840D01*
X130185160Y-103195120D01*
X130184736Y-103235617D01*
G36*
X130181325Y-102254004D02*
X130174263Y-102264109D01*
X130152789Y-102283050D01*
X130130198Y-102291071D01*
X130112056Y-102287662D01*
X130103931Y-102272314D01*
X130103880Y-102270560D01*
X130107834Y-102254045D01*
X130113315Y-102250240D01*
X130128569Y-102242921D01*
X130145225Y-102226836D01*
X130154476Y-102210789D01*
X130154680Y-102208874D01*
X130148146Y-102195424D01*
X130134360Y-102179120D01*
X130109538Y-102165842D01*
X130072213Y-102158949D01*
X130029391Y-102159145D01*
X129994997Y-102165115D01*
X129973083Y-102179323D01*
X129964346Y-102201875D01*
X129968962Y-102225542D01*
X129987103Y-102243093D01*
X129993059Y-102245457D01*
X130009831Y-102257940D01*
X130012246Y-102274731D01*
X130001220Y-102287944D01*
X129987778Y-102290880D01*
X129959584Y-102281842D01*
X129938052Y-102258154D01*
X129925218Y-102224951D01*
X129923114Y-102187368D01*
X129932884Y-102152339D01*
X129950755Y-102130288D01*
X129980715Y-102116232D01*
X130025579Y-102109225D01*
X130064500Y-102108000D01*
X130103302Y-102108769D01*
X130128381Y-102112365D01*
X130146313Y-102120719D01*
X130163674Y-102135762D01*
X130165622Y-102137698D01*
X130189662Y-102174251D01*
X130194994Y-102214453D01*
X130181325Y-102254004D01*
X130181325Y-102254004D01*
G37*
X130181325Y-102254004D02*
X130174263Y-102264109D01*
X130152789Y-102283050D01*
X130130198Y-102291071D01*
X130112056Y-102287662D01*
X130103931Y-102272314D01*
X130103880Y-102270560D01*
X130107834Y-102254045D01*
X130113315Y-102250240D01*
X130128569Y-102242921D01*
X130145225Y-102226836D01*
X130154476Y-102210789D01*
X130154680Y-102208874D01*
X130148146Y-102195424D01*
X130134360Y-102179120D01*
X130109538Y-102165842D01*
X130072213Y-102158949D01*
X130029391Y-102159145D01*
X129994997Y-102165115D01*
X129973083Y-102179323D01*
X129964346Y-102201875D01*
X129968962Y-102225542D01*
X129987103Y-102243093D01*
X129993059Y-102245457D01*
X130009831Y-102257940D01*
X130012246Y-102274731D01*
X130001220Y-102287944D01*
X129987778Y-102290880D01*
X129959584Y-102281842D01*
X129938052Y-102258154D01*
X129925218Y-102224951D01*
X129923114Y-102187368D01*
X129932884Y-102152339D01*
X129950755Y-102130288D01*
X129980715Y-102116232D01*
X130025579Y-102109225D01*
X130064500Y-102108000D01*
X130103302Y-102108769D01*
X130128381Y-102112365D01*
X130146313Y-102120719D01*
X130163674Y-102135762D01*
X130165622Y-102137698D01*
X130189662Y-102174251D01*
X130194994Y-102214453D01*
X130181325Y-102254004D01*
G36*
X130057868Y-101276682D02*
X130003741Y-101291613D01*
X129966116Y-101300761D01*
X129942162Y-101304601D01*
X129929047Y-101303606D01*
X129924212Y-101299073D01*
X129923237Y-101274778D01*
X129940707Y-101257674D01*
X129960767Y-101251178D01*
X129981124Y-101245059D01*
X129990026Y-101233182D01*
X129992109Y-101208689D01*
X129992120Y-101204801D01*
X129990324Y-101178073D01*
X129981359Y-101163766D01*
X129959862Y-101154062D01*
X129956560Y-101152960D01*
X129934131Y-101140725D01*
X129921445Y-101124993D01*
X129920280Y-101110777D01*
X129932415Y-101103093D01*
X129938780Y-101102806D01*
X129955289Y-101105861D01*
X129986531Y-101113659D01*
X130027819Y-101124970D01*
X130035300Y-101127142D01*
X130035300Y-101173434D01*
X130033497Y-101182147D01*
X130032760Y-101202941D01*
X130033817Y-101221809D01*
X130040798Y-101228283D01*
X130059424Y-101225250D01*
X130070860Y-101222173D01*
X130103456Y-101212249D01*
X130116732Y-101204528D01*
X130111294Y-101197218D01*
X130087745Y-101188530D01*
X130082738Y-101187012D01*
X130055594Y-101179015D01*
X130038239Y-101174127D01*
X130035300Y-101173434D01*
X130035300Y-101127142D01*
X130068320Y-101136732D01*
X130180080Y-101170011D01*
X130186140Y-101240259D01*
X130057868Y-101276682D01*
X130057868Y-101276682D01*
G37*
X130057868Y-101276682D02*
X130003741Y-101291613D01*
X129966116Y-101300761D01*
X129942162Y-101304601D01*
X129929047Y-101303606D01*
X129924212Y-101299073D01*
X129923237Y-101274778D01*
X129940707Y-101257674D01*
X129960767Y-101251178D01*
X129981124Y-101245059D01*
X129990026Y-101233182D01*
X129992109Y-101208689D01*
X129992120Y-101204801D01*
X129990324Y-101178073D01*
X129981359Y-101163766D01*
X129959862Y-101154062D01*
X129956560Y-101152960D01*
X129934131Y-101140725D01*
X129921445Y-101124993D01*
X129920280Y-101110777D01*
X129932415Y-101103093D01*
X129938780Y-101102806D01*
X129955289Y-101105861D01*
X129986531Y-101113659D01*
X130027819Y-101124970D01*
X130035300Y-101127142D01*
X130035300Y-101173434D01*
X130033497Y-101182147D01*
X130032760Y-101202941D01*
X130033817Y-101221809D01*
X130040798Y-101228283D01*
X130059424Y-101225250D01*
X130070860Y-101222173D01*
X130103456Y-101212249D01*
X130116732Y-101204528D01*
X130111294Y-101197218D01*
X130087745Y-101188530D01*
X130082738Y-101187012D01*
X130055594Y-101179015D01*
X130038239Y-101174127D01*
X130035300Y-101173434D01*
X130035300Y-101127142D01*
X130068320Y-101136732D01*
X130180080Y-101170011D01*
X130186140Y-101240259D01*
X130057868Y-101276682D01*
G36*
X130185005Y-100205540D02*
X130184004Y-100247645D01*
X130179981Y-100274633D01*
X130171059Y-100291674D01*
X130155360Y-100303939D01*
X130147728Y-100308159D01*
X130109004Y-100318873D01*
X130072719Y-100312368D01*
X130043444Y-100291333D01*
X130025753Y-100258462D01*
X130022600Y-100234498D01*
X130021599Y-100213067D01*
X130015017Y-100202240D01*
X129997483Y-100197729D01*
X129974340Y-100195936D01*
X129943993Y-100192408D01*
X129928670Y-100185274D01*
X129923112Y-100172101D01*
X129923792Y-100151913D01*
X129927345Y-100144161D01*
X129939739Y-100141400D01*
X129968277Y-100139128D01*
X130008783Y-100137573D01*
X130057081Y-100136961D01*
X130059854Y-100136960D01*
X130103880Y-100136960D01*
X130103880Y-100197920D01*
X130077419Y-100198970D01*
X130066014Y-100204550D01*
X130064421Y-100218299D01*
X130065106Y-100224835D01*
X130073885Y-100249339D01*
X130086100Y-100262883D01*
X130109372Y-100267809D01*
X130129597Y-100255919D01*
X130141717Y-100230619D01*
X130142655Y-100224835D01*
X130143051Y-100207792D01*
X130135271Y-100200055D01*
X130114070Y-100197981D01*
X130103880Y-100197920D01*
X130103880Y-100136960D01*
X130185160Y-100136960D01*
X130185005Y-100205540D01*
X130185005Y-100205540D01*
G37*
X130185005Y-100205540D02*
X130184004Y-100247645D01*
X130179981Y-100274633D01*
X130171059Y-100291674D01*
X130155360Y-100303939D01*
X130147728Y-100308159D01*
X130109004Y-100318873D01*
X130072719Y-100312368D01*
X130043444Y-100291333D01*
X130025753Y-100258462D01*
X130022600Y-100234498D01*
X130021599Y-100213067D01*
X130015017Y-100202240D01*
X129997483Y-100197729D01*
X129974340Y-100195936D01*
X129943993Y-100192408D01*
X129928670Y-100185274D01*
X129923112Y-100172101D01*
X129923792Y-100151913D01*
X129927345Y-100144161D01*
X129939739Y-100141400D01*
X129968277Y-100139128D01*
X130008783Y-100137573D01*
X130057081Y-100136961D01*
X130059854Y-100136960D01*
X130103880Y-100136960D01*
X130103880Y-100197920D01*
X130077419Y-100198970D01*
X130066014Y-100204550D01*
X130064421Y-100218299D01*
X130065106Y-100224835D01*
X130073885Y-100249339D01*
X130086100Y-100262883D01*
X130109372Y-100267809D01*
X130129597Y-100255919D01*
X130141717Y-100230619D01*
X130142655Y-100224835D01*
X130143051Y-100207792D01*
X130135271Y-100200055D01*
X130114070Y-100197981D01*
X130103880Y-100197920D01*
X130103880Y-100136960D01*
X130185160Y-100136960D01*
X130185005Y-100205540D01*
G36*
X130190380Y-99266280D02*
X130185090Y-99283689D01*
X130172550Y-99307409D01*
X130160490Y-99312447D01*
X130145629Y-99300091D01*
X130145059Y-99299409D01*
X130138132Y-99281654D01*
X130144378Y-99263465D01*
X130150984Y-99238274D01*
X130149479Y-99222176D01*
X130137006Y-99204886D01*
X130119370Y-99204132D01*
X130101578Y-99218858D01*
X130093161Y-99234069D01*
X130066602Y-99282300D01*
X130034930Y-99312353D01*
X129999229Y-99323508D01*
X129967176Y-99317848D01*
X129945889Y-99299959D01*
X129930438Y-99268866D01*
X129922754Y-99231305D01*
X129924765Y-99194015D01*
X129928247Y-99181920D01*
X129942715Y-99155214D01*
X129960069Y-99147657D01*
X129972112Y-99151606D01*
X129983742Y-99159986D01*
X129984409Y-99171528D01*
X129974918Y-99192962D01*
X129965081Y-99220678D01*
X129968314Y-99244007D01*
X129970375Y-99248888D01*
X129985788Y-99269329D01*
X130003278Y-99270155D01*
X130021235Y-99251735D01*
X130029960Y-99235260D01*
X130057469Y-99187520D01*
X130087866Y-99159393D01*
X130120761Y-99151080D01*
X130155763Y-99162782D01*
X130162174Y-99166972D01*
X130182005Y-99191936D01*
X130191916Y-99227631D01*
X130190380Y-99266280D01*
X130190380Y-99266280D01*
G37*
X130190380Y-99266280D02*
X130185090Y-99283689D01*
X130172550Y-99307409D01*
X130160490Y-99312447D01*
X130145629Y-99300091D01*
X130145059Y-99299409D01*
X130138132Y-99281654D01*
X130144378Y-99263465D01*
X130150984Y-99238274D01*
X130149479Y-99222176D01*
X130137006Y-99204886D01*
X130119370Y-99204132D01*
X130101578Y-99218858D01*
X130093161Y-99234069D01*
X130066602Y-99282300D01*
X130034930Y-99312353D01*
X129999229Y-99323508D01*
X129967176Y-99317848D01*
X129945889Y-99299959D01*
X129930438Y-99268866D01*
X129922754Y-99231305D01*
X129924765Y-99194015D01*
X129928247Y-99181920D01*
X129942715Y-99155214D01*
X129960069Y-99147657D01*
X129972112Y-99151606D01*
X129983742Y-99159986D01*
X129984409Y-99171528D01*
X129974918Y-99192962D01*
X129965081Y-99220678D01*
X129968314Y-99244007D01*
X129970375Y-99248888D01*
X129985788Y-99269329D01*
X130003278Y-99270155D01*
X130021235Y-99251735D01*
X130029960Y-99235260D01*
X130057469Y-99187520D01*
X130087866Y-99159393D01*
X130120761Y-99151080D01*
X130155763Y-99162782D01*
X130162174Y-99166972D01*
X130182005Y-99191936D01*
X130191916Y-99227631D01*
X130190380Y-99266280D01*
G36*
X130184034Y-98265059D02*
X130179753Y-98290316D01*
X130170964Y-98306821D01*
X130164335Y-98313697D01*
X130134374Y-98329441D01*
X130099278Y-98332192D01*
X130067190Y-98322239D01*
X130052319Y-98309743D01*
X130033856Y-98286942D01*
X129982846Y-98312791D01*
X129954064Y-98326926D01*
X129933245Y-98336315D01*
X129926418Y-98338640D01*
X129922331Y-98329927D01*
X129921000Y-98313411D01*
X129925022Y-98296125D01*
X129939832Y-98280894D01*
X129969554Y-98263584D01*
X129971800Y-98262440D01*
X130006293Y-98241967D01*
X130021116Y-98225628D01*
X130016258Y-98213663D01*
X129991710Y-98206310D01*
X129974340Y-98204576D01*
X129944378Y-98201246D01*
X129929198Y-98194428D01*
X129923272Y-98181337D01*
X129922834Y-98178620D01*
X129922124Y-98169324D01*
X129925213Y-98162967D01*
X129935268Y-98158991D01*
X129955452Y-98156837D01*
X129988931Y-98155946D01*
X130038869Y-98155761D01*
X130052374Y-98155760D01*
X130104524Y-98155760D01*
X130104524Y-98206560D01*
X130077960Y-98208014D01*
X130066094Y-98214429D01*
X130063394Y-98228880D01*
X130063396Y-98229420D01*
X130067194Y-98253941D01*
X130072119Y-98265793D01*
X130087961Y-98274796D01*
X130110063Y-98275953D01*
X130131063Y-98270264D01*
X130140269Y-98255218D01*
X130142624Y-98239580D01*
X130143472Y-98218565D01*
X130136978Y-98209134D01*
X130117789Y-98206649D01*
X130104524Y-98206560D01*
X130104524Y-98155760D01*
X130185160Y-98155760D01*
X130185160Y-98225305D01*
X130184034Y-98265059D01*
X130184034Y-98265059D01*
G37*
X130184034Y-98265059D02*
X130179753Y-98290316D01*
X130170964Y-98306821D01*
X130164335Y-98313697D01*
X130134374Y-98329441D01*
X130099278Y-98332192D01*
X130067190Y-98322239D01*
X130052319Y-98309743D01*
X130033856Y-98286942D01*
X129982846Y-98312791D01*
X129954064Y-98326926D01*
X129933245Y-98336315D01*
X129926418Y-98338640D01*
X129922331Y-98329927D01*
X129921000Y-98313411D01*
X129925022Y-98296125D01*
X129939832Y-98280894D01*
X129969554Y-98263584D01*
X129971800Y-98262440D01*
X130006293Y-98241967D01*
X130021116Y-98225628D01*
X130016258Y-98213663D01*
X129991710Y-98206310D01*
X129974340Y-98204576D01*
X129944378Y-98201246D01*
X129929198Y-98194428D01*
X129923272Y-98181337D01*
X129922834Y-98178620D01*
X129922124Y-98169324D01*
X129925213Y-98162967D01*
X129935268Y-98158991D01*
X129955452Y-98156837D01*
X129988931Y-98155946D01*
X130038869Y-98155761D01*
X130052374Y-98155760D01*
X130104524Y-98155760D01*
X130104524Y-98206560D01*
X130077960Y-98208014D01*
X130066094Y-98214429D01*
X130063394Y-98228880D01*
X130063396Y-98229420D01*
X130067194Y-98253941D01*
X130072119Y-98265793D01*
X130087961Y-98274796D01*
X130110063Y-98275953D01*
X130131063Y-98270264D01*
X130140269Y-98255218D01*
X130142624Y-98239580D01*
X130143472Y-98218565D01*
X130136978Y-98209134D01*
X130117789Y-98206649D01*
X130104524Y-98206560D01*
X130104524Y-98155760D01*
X130185160Y-98155760D01*
X130185160Y-98225305D01*
X130184034Y-98265059D01*
G36*
X130184736Y-97292017D02*
X130182782Y-97316288D01*
X130178277Y-97328420D01*
X130170198Y-97332500D01*
X130164840Y-97332800D01*
X130153098Y-97330374D01*
X130146980Y-97319887D01*
X130144737Y-97296524D01*
X130144520Y-97276920D01*
X130144009Y-97244974D01*
X130140655Y-97228346D01*
X130131730Y-97222035D01*
X130114507Y-97221040D01*
X130114040Y-97221040D01*
X130095298Y-97222365D01*
X130086421Y-97230017D01*
X130083733Y-97249511D01*
X130083560Y-97266760D01*
X130082185Y-97295412D01*
X130076590Y-97308949D01*
X130064572Y-97312474D01*
X130063825Y-97312480D01*
X130050743Y-97308503D01*
X130043837Y-97293253D01*
X130040965Y-97269300D01*
X130037726Y-97241992D01*
X130030106Y-97228887D01*
X130013341Y-97223873D01*
X130004820Y-97222936D01*
X129971800Y-97219752D01*
X129971800Y-97276276D01*
X129971159Y-97308509D01*
X129967751Y-97325375D01*
X129959356Y-97331820D01*
X129946400Y-97332800D01*
X129933368Y-97331819D01*
X129925786Y-97325994D01*
X129922181Y-97310995D01*
X129921077Y-97282494D01*
X129921000Y-97258293D01*
X129921865Y-97221127D01*
X129924143Y-97192333D01*
X129927365Y-97177557D01*
X129927774Y-97177013D01*
X129939996Y-97174416D01*
X129968379Y-97172280D01*
X130008768Y-97170817D01*
X130057004Y-97170241D01*
X130059854Y-97170240D01*
X130185160Y-97170240D01*
X130185160Y-97251520D01*
X130184736Y-97292017D01*
X130184736Y-97292017D01*
G37*
X130184736Y-97292017D02*
X130182782Y-97316288D01*
X130178277Y-97328420D01*
X130170198Y-97332500D01*
X130164840Y-97332800D01*
X130153098Y-97330374D01*
X130146980Y-97319887D01*
X130144737Y-97296524D01*
X130144520Y-97276920D01*
X130144009Y-97244974D01*
X130140655Y-97228346D01*
X130131730Y-97222035D01*
X130114507Y-97221040D01*
X130114040Y-97221040D01*
X130095298Y-97222365D01*
X130086421Y-97230017D01*
X130083733Y-97249511D01*
X130083560Y-97266760D01*
X130082185Y-97295412D01*
X130076590Y-97308949D01*
X130064572Y-97312474D01*
X130063825Y-97312480D01*
X130050743Y-97308503D01*
X130043837Y-97293253D01*
X130040965Y-97269300D01*
X130037726Y-97241992D01*
X130030106Y-97228887D01*
X130013341Y-97223873D01*
X130004820Y-97222936D01*
X129971800Y-97219752D01*
X129971800Y-97276276D01*
X129971159Y-97308509D01*
X129967751Y-97325375D01*
X129959356Y-97331820D01*
X129946400Y-97332800D01*
X129933368Y-97331819D01*
X129925786Y-97325994D01*
X129922181Y-97310995D01*
X129921077Y-97282494D01*
X129921000Y-97258293D01*
X129921865Y-97221127D01*
X129924143Y-97192333D01*
X129927365Y-97177557D01*
X129927774Y-97177013D01*
X129939996Y-97174416D01*
X129968379Y-97172280D01*
X130008768Y-97170817D01*
X130057004Y-97170241D01*
X130059854Y-97170240D01*
X130185160Y-97170240D01*
X130185160Y-97251520D01*
X130184736Y-97292017D01*
G36*
X130184291Y-96212022D02*
X130178421Y-96221126D01*
X130162658Y-96224752D01*
X130132111Y-96225462D01*
X130126740Y-96225474D01*
X130068320Y-96225589D01*
X130126605Y-96263574D01*
X130158911Y-96286149D01*
X130176871Y-96303611D01*
X130184191Y-96320176D01*
X130185025Y-96329988D01*
X130185160Y-96358416D01*
X130140150Y-96327448D01*
X130112782Y-96310023D01*
X130091216Y-96298790D01*
X130083433Y-96296480D01*
X130068938Y-96300345D01*
X130041541Y-96310542D01*
X130006832Y-96324973D01*
X130002280Y-96326960D01*
X129968035Y-96341666D01*
X129941447Y-96352478D01*
X129927584Y-96357348D01*
X129926918Y-96357440D01*
X129922513Y-96348702D01*
X129921000Y-96331279D01*
X129923711Y-96315689D01*
X129934602Y-96303017D01*
X129957817Y-96289705D01*
X129982218Y-96278704D01*
X130017215Y-96261438D01*
X130032297Y-96247979D01*
X130027368Y-96237688D01*
X130002330Y-96229924D01*
X129974294Y-96225821D01*
X129943605Y-96220493D01*
X129928156Y-96211966D01*
X129923112Y-96199541D01*
X129923792Y-96179353D01*
X129927345Y-96171601D01*
X129939739Y-96168840D01*
X129968277Y-96166568D01*
X130008783Y-96165013D01*
X130057081Y-96164401D01*
X130059854Y-96164400D01*
X130185160Y-96164400D01*
X130185160Y-96194880D01*
X130184291Y-96212022D01*
X130184291Y-96212022D01*
G37*
X130184291Y-96212022D02*
X130178421Y-96221126D01*
X130162658Y-96224752D01*
X130132111Y-96225462D01*
X130126740Y-96225474D01*
X130068320Y-96225589D01*
X130126605Y-96263574D01*
X130158911Y-96286149D01*
X130176871Y-96303611D01*
X130184191Y-96320176D01*
X130185025Y-96329988D01*
X130185160Y-96358416D01*
X130140150Y-96327448D01*
X130112782Y-96310023D01*
X130091216Y-96298790D01*
X130083433Y-96296480D01*
X130068938Y-96300345D01*
X130041541Y-96310542D01*
X130006832Y-96324973D01*
X130002280Y-96326960D01*
X129968035Y-96341666D01*
X129941447Y-96352478D01*
X129927584Y-96357348D01*
X129926918Y-96357440D01*
X129922513Y-96348702D01*
X129921000Y-96331279D01*
X129923711Y-96315689D01*
X129934602Y-96303017D01*
X129957817Y-96289705D01*
X129982218Y-96278704D01*
X130017215Y-96261438D01*
X130032297Y-96247979D01*
X130027368Y-96237688D01*
X130002330Y-96229924D01*
X129974294Y-96225821D01*
X129943605Y-96220493D01*
X129928156Y-96211966D01*
X129923112Y-96199541D01*
X129923792Y-96179353D01*
X129927345Y-96171601D01*
X129939739Y-96168840D01*
X129968277Y-96166568D01*
X130008783Y-96165013D01*
X130057081Y-96164401D01*
X130059854Y-96164400D01*
X130185160Y-96164400D01*
X130185160Y-96194880D01*
X130184291Y-96212022D01*
G36*
X130065780Y-95321197D02*
X130010898Y-95336557D01*
X129972641Y-95346842D01*
X129948018Y-95352283D01*
X129934041Y-95353110D01*
X129927717Y-95349551D01*
X129926058Y-95341836D01*
X129926080Y-95331925D01*
X129930843Y-95312898D01*
X129948694Y-95301701D01*
X129959100Y-95298615D01*
X129980586Y-95290995D01*
X129989945Y-95278423D01*
X129992110Y-95253636D01*
X129992120Y-95250000D01*
X129990432Y-95223501D01*
X129982078Y-95209993D01*
X129962127Y-95202223D01*
X129959100Y-95201429D01*
X129932304Y-95188779D01*
X129922834Y-95170659D01*
X129925479Y-95152334D01*
X129934018Y-95148400D01*
X129953783Y-95151394D01*
X129977904Y-95157909D01*
X130000965Y-95165100D01*
X130037067Y-95176078D01*
X130050645Y-95180151D01*
X130050645Y-95226989D01*
X130037289Y-95227753D01*
X130033094Y-95237094D01*
X130032760Y-95250000D01*
X130033683Y-95266629D01*
X130039998Y-95273264D01*
X130057022Y-95271907D01*
X130078480Y-95267198D01*
X130105545Y-95259689D01*
X130121946Y-95252600D01*
X130124200Y-95250000D01*
X130115269Y-95243968D01*
X130092631Y-95236371D01*
X130078480Y-95232801D01*
X130050645Y-95226989D01*
X130050645Y-95180151D01*
X130079758Y-95188887D01*
X130096260Y-95193796D01*
X130138114Y-95206460D01*
X130164205Y-95215884D01*
X130178259Y-95224588D01*
X130184000Y-95235094D01*
X130185153Y-95249923D01*
X130185160Y-95253973D01*
X130185160Y-95287772D01*
X130065780Y-95321197D01*
X130065780Y-95321197D01*
G37*
X130065780Y-95321197D02*
X130010898Y-95336557D01*
X129972641Y-95346842D01*
X129948018Y-95352283D01*
X129934041Y-95353110D01*
X129927717Y-95349551D01*
X129926058Y-95341836D01*
X129926080Y-95331925D01*
X129930843Y-95312898D01*
X129948694Y-95301701D01*
X129959100Y-95298615D01*
X129980586Y-95290995D01*
X129989945Y-95278423D01*
X129992110Y-95253636D01*
X129992120Y-95250000D01*
X129990432Y-95223501D01*
X129982078Y-95209993D01*
X129962127Y-95202223D01*
X129959100Y-95201429D01*
X129932304Y-95188779D01*
X129922834Y-95170659D01*
X129925479Y-95152334D01*
X129934018Y-95148400D01*
X129953783Y-95151394D01*
X129977904Y-95157909D01*
X130000965Y-95165100D01*
X130037067Y-95176078D01*
X130050645Y-95180151D01*
X130050645Y-95226989D01*
X130037289Y-95227753D01*
X130033094Y-95237094D01*
X130032760Y-95250000D01*
X130033683Y-95266629D01*
X130039998Y-95273264D01*
X130057022Y-95271907D01*
X130078480Y-95267198D01*
X130105545Y-95259689D01*
X130121946Y-95252600D01*
X130124200Y-95250000D01*
X130115269Y-95243968D01*
X130092631Y-95236371D01*
X130078480Y-95232801D01*
X130050645Y-95226989D01*
X130050645Y-95180151D01*
X130079758Y-95188887D01*
X130096260Y-95193796D01*
X130138114Y-95206460D01*
X130164205Y-95215884D01*
X130178259Y-95224588D01*
X130184000Y-95235094D01*
X130185153Y-95249923D01*
X130185160Y-95253973D01*
X130185160Y-95287772D01*
X130065780Y-95321197D01*
G36*
X130183604Y-94167351D02*
X130175692Y-94180467D01*
X130156564Y-94191022D01*
X130134360Y-94199426D01*
X130105998Y-94210849D01*
X130087558Y-94220623D01*
X130083560Y-94224826D01*
X130092274Y-94231942D01*
X130114661Y-94242581D01*
X130134360Y-94250226D01*
X130164057Y-94261990D01*
X130179171Y-94272840D01*
X130184565Y-94287765D01*
X130185160Y-94302350D01*
X130185160Y-94336207D01*
X130055620Y-94333363D01*
X130002275Y-94331999D01*
X129965985Y-94330281D01*
X129943486Y-94327627D01*
X129931515Y-94323453D01*
X129926809Y-94317174D01*
X129926080Y-94310200D01*
X129927662Y-94300392D01*
X129935032Y-94294368D01*
X129952129Y-94291217D01*
X129982894Y-94290030D01*
X130014032Y-94289880D01*
X130052813Y-94289156D01*
X130081826Y-94287223D01*
X130096744Y-94284434D01*
X130097732Y-94283036D01*
X130086412Y-94276209D01*
X130062016Y-94266136D01*
X130042801Y-94259360D01*
X130007352Y-94243965D01*
X129992212Y-94228135D01*
X129997383Y-94211965D01*
X130022870Y-94195549D01*
X130040380Y-94188324D01*
X130075804Y-94174132D01*
X130093010Y-94164140D01*
X130091521Y-94157689D01*
X130070858Y-94154123D01*
X130030545Y-94152785D01*
X130014472Y-94152720D01*
X129970458Y-94152394D01*
X129942932Y-94150862D01*
X129928068Y-94147291D01*
X129922038Y-94140850D01*
X129921000Y-94132400D01*
X129922121Y-94124104D01*
X129927640Y-94118436D01*
X129940798Y-94114898D01*
X129964831Y-94112992D01*
X130002978Y-94112218D01*
X130053080Y-94112080D01*
X130185160Y-94112080D01*
X130185160Y-94146619D01*
X130183604Y-94167351D01*
X130183604Y-94167351D01*
G37*
X130183604Y-94167351D02*
X130175692Y-94180467D01*
X130156564Y-94191022D01*
X130134360Y-94199426D01*
X130105998Y-94210849D01*
X130087558Y-94220623D01*
X130083560Y-94224826D01*
X130092274Y-94231942D01*
X130114661Y-94242581D01*
X130134360Y-94250226D01*
X130164057Y-94261990D01*
X130179171Y-94272840D01*
X130184565Y-94287765D01*
X130185160Y-94302350D01*
X130185160Y-94336207D01*
X130055620Y-94333363D01*
X130002275Y-94331999D01*
X129965985Y-94330281D01*
X129943486Y-94327627D01*
X129931515Y-94323453D01*
X129926809Y-94317174D01*
X129926080Y-94310200D01*
X129927662Y-94300392D01*
X129935032Y-94294368D01*
X129952129Y-94291217D01*
X129982894Y-94290030D01*
X130014032Y-94289880D01*
X130052813Y-94289156D01*
X130081826Y-94287223D01*
X130096744Y-94284434D01*
X130097732Y-94283036D01*
X130086412Y-94276209D01*
X130062016Y-94266136D01*
X130042801Y-94259360D01*
X130007352Y-94243965D01*
X129992212Y-94228135D01*
X129997383Y-94211965D01*
X130022870Y-94195549D01*
X130040380Y-94188324D01*
X130075804Y-94174132D01*
X130093010Y-94164140D01*
X130091521Y-94157689D01*
X130070858Y-94154123D01*
X130030545Y-94152785D01*
X130014472Y-94152720D01*
X129970458Y-94152394D01*
X129942932Y-94150862D01*
X129928068Y-94147291D01*
X129922038Y-94140850D01*
X129921000Y-94132400D01*
X129922121Y-94124104D01*
X129927640Y-94118436D01*
X129940798Y-94114898D01*
X129964831Y-94112992D01*
X130002978Y-94112218D01*
X130053080Y-94112080D01*
X130185160Y-94112080D01*
X130185160Y-94146619D01*
X130183604Y-94167351D01*
D12*
G04 #@! TO.C,D12*
X150871000Y-94830000D02*
X150871000Y-93130000D01*
X150871000Y-93130000D02*
X147721000Y-93130000D01*
X150871000Y-94830000D02*
X147721000Y-94830000D01*
G04 #@! TO.C,J1*
X122258000Y-109280000D02*
X122258000Y-78680000D01*
X122258000Y-78680000D02*
X119598000Y-78680000D01*
X119598000Y-78680000D02*
X119598000Y-109280000D01*
X119598000Y-109280000D02*
X122258000Y-109280000D01*
X119598000Y-108330000D02*
X113598000Y-108330000D01*
X113598000Y-108330000D02*
X113598000Y-107570000D01*
X113598000Y-107570000D02*
X119598000Y-107570000D01*
X119598000Y-108270000D02*
X113598000Y-108270000D01*
X119598000Y-108150000D02*
X113598000Y-108150000D01*
X119598000Y-108030000D02*
X113598000Y-108030000D01*
X119598000Y-107910000D02*
X113598000Y-107910000D01*
X119598000Y-107790000D02*
X113598000Y-107790000D01*
X119598000Y-107670000D02*
X113598000Y-107670000D01*
X122655071Y-108330000D02*
X122258000Y-108330000D01*
X122655071Y-107570000D02*
X122258000Y-107570000D01*
X125128000Y-108330000D02*
X124740929Y-108330000D01*
X125128000Y-107570000D02*
X124740929Y-107570000D01*
X122258000Y-106680000D02*
X119598000Y-106680000D01*
X119598000Y-105790000D02*
X113598000Y-105790000D01*
X113598000Y-105790000D02*
X113598000Y-105030000D01*
X113598000Y-105030000D02*
X119598000Y-105030000D01*
X122655071Y-105790000D02*
X122258000Y-105790000D01*
X122655071Y-105030000D02*
X122258000Y-105030000D01*
X125195071Y-105790000D02*
X124740929Y-105790000D01*
X125195071Y-105030000D02*
X124740929Y-105030000D01*
X122258000Y-104140000D02*
X119598000Y-104140000D01*
X119598000Y-103250000D02*
X113598000Y-103250000D01*
X113598000Y-103250000D02*
X113598000Y-102490000D01*
X113598000Y-102490000D02*
X119598000Y-102490000D01*
X122655071Y-103250000D02*
X122258000Y-103250000D01*
X122655071Y-102490000D02*
X122258000Y-102490000D01*
X125195071Y-103250000D02*
X124740929Y-103250000D01*
X125195071Y-102490000D02*
X124740929Y-102490000D01*
X122258000Y-101600000D02*
X119598000Y-101600000D01*
X119598000Y-100710000D02*
X113598000Y-100710000D01*
X113598000Y-100710000D02*
X113598000Y-99950000D01*
X113598000Y-99950000D02*
X119598000Y-99950000D01*
X122655071Y-100710000D02*
X122258000Y-100710000D01*
X122655071Y-99950000D02*
X122258000Y-99950000D01*
X125195071Y-100710000D02*
X124740929Y-100710000D01*
X125195071Y-99950000D02*
X124740929Y-99950000D01*
X122258000Y-99060000D02*
X119598000Y-99060000D01*
X119598000Y-98170000D02*
X113598000Y-98170000D01*
X113598000Y-98170000D02*
X113598000Y-97410000D01*
X113598000Y-97410000D02*
X119598000Y-97410000D01*
X122655071Y-98170000D02*
X122258000Y-98170000D01*
X122655071Y-97410000D02*
X122258000Y-97410000D01*
X125195071Y-98170000D02*
X124740929Y-98170000D01*
X125195071Y-97410000D02*
X124740929Y-97410000D01*
X122258000Y-96520000D02*
X119598000Y-96520000D01*
X119598000Y-95630000D02*
X113598000Y-95630000D01*
X113598000Y-95630000D02*
X113598000Y-94870000D01*
X113598000Y-94870000D02*
X119598000Y-94870000D01*
X122655071Y-95630000D02*
X122258000Y-95630000D01*
X122655071Y-94870000D02*
X122258000Y-94870000D01*
X125195071Y-95630000D02*
X124740929Y-95630000D01*
X125195071Y-94870000D02*
X124740929Y-94870000D01*
X122258000Y-93980000D02*
X119598000Y-93980000D01*
X119598000Y-93090000D02*
X113598000Y-93090000D01*
X113598000Y-93090000D02*
X113598000Y-92330000D01*
X113598000Y-92330000D02*
X119598000Y-92330000D01*
X122655071Y-93090000D02*
X122258000Y-93090000D01*
X122655071Y-92330000D02*
X122258000Y-92330000D01*
X125195071Y-93090000D02*
X124740929Y-93090000D01*
X125195071Y-92330000D02*
X124740929Y-92330000D01*
X122258000Y-91440000D02*
X119598000Y-91440000D01*
X119598000Y-90550000D02*
X113598000Y-90550000D01*
X113598000Y-90550000D02*
X113598000Y-89790000D01*
X113598000Y-89790000D02*
X119598000Y-89790000D01*
X122655071Y-90550000D02*
X122258000Y-90550000D01*
X122655071Y-89790000D02*
X122258000Y-89790000D01*
X125195071Y-90550000D02*
X124740929Y-90550000D01*
X125195071Y-89790000D02*
X124740929Y-89790000D01*
X122258000Y-88900000D02*
X119598000Y-88900000D01*
X119598000Y-88010000D02*
X113598000Y-88010000D01*
X113598000Y-88010000D02*
X113598000Y-87250000D01*
X113598000Y-87250000D02*
X119598000Y-87250000D01*
X122655071Y-88010000D02*
X122258000Y-88010000D01*
X122655071Y-87250000D02*
X122258000Y-87250000D01*
X125195071Y-88010000D02*
X124740929Y-88010000D01*
X125195071Y-87250000D02*
X124740929Y-87250000D01*
X122258000Y-86360000D02*
X119598000Y-86360000D01*
X119598000Y-85470000D02*
X113598000Y-85470000D01*
X113598000Y-85470000D02*
X113598000Y-84710000D01*
X113598000Y-84710000D02*
X119598000Y-84710000D01*
X122655071Y-85470000D02*
X122258000Y-85470000D01*
X122655071Y-84710000D02*
X122258000Y-84710000D01*
X125195071Y-85470000D02*
X124740929Y-85470000D01*
X125195071Y-84710000D02*
X124740929Y-84710000D01*
X122258000Y-83820000D02*
X119598000Y-83820000D01*
X119598000Y-82930000D02*
X113598000Y-82930000D01*
X113598000Y-82930000D02*
X113598000Y-82170000D01*
X113598000Y-82170000D02*
X119598000Y-82170000D01*
X122655071Y-82930000D02*
X122258000Y-82930000D01*
X122655071Y-82170000D02*
X122258000Y-82170000D01*
X125195071Y-82930000D02*
X124740929Y-82930000D01*
X125195071Y-82170000D02*
X124740929Y-82170000D01*
X122258000Y-81280000D02*
X119598000Y-81280000D01*
X119598000Y-80390000D02*
X113598000Y-80390000D01*
X113598000Y-80390000D02*
X113598000Y-79630000D01*
X113598000Y-79630000D02*
X119598000Y-79630000D01*
X122655071Y-80390000D02*
X122258000Y-80390000D01*
X122655071Y-79630000D02*
X122258000Y-79630000D01*
X125195071Y-80390000D02*
X124740929Y-80390000D01*
X125195071Y-79630000D02*
X124740929Y-79630000D01*
X127508000Y-107950000D02*
X127508000Y-109220000D01*
X127508000Y-109220000D02*
X126238000Y-109220000D01*
G04 #@! TO.C,D1*
X131406000Y-104907000D02*
X131406000Y-108057000D01*
X129706000Y-104907000D02*
X129706000Y-108057000D01*
X131406000Y-104907000D02*
X129706000Y-104907000D01*
G04 #@! TO.C,D2*
X133135000Y-108707000D02*
X133135000Y-105557000D01*
X134835000Y-108707000D02*
X134835000Y-105557000D01*
X133135000Y-108707000D02*
X134835000Y-108707000D01*
G04 #@! TO.C,D3*
X138264000Y-104907000D02*
X138264000Y-108057000D01*
X136564000Y-104907000D02*
X136564000Y-108057000D01*
X138264000Y-104907000D02*
X136564000Y-104907000D01*
G04 #@! TO.C,D4*
X139993000Y-108707000D02*
X141693000Y-108707000D01*
X141693000Y-108707000D02*
X141693000Y-105557000D01*
X139993000Y-108707000D02*
X139993000Y-105557000D01*
G04 #@! TO.C,D5*
X141229000Y-95289000D02*
X141229000Y-96989000D01*
X141229000Y-96989000D02*
X144379000Y-96989000D01*
X141229000Y-95289000D02*
X144379000Y-95289000D01*
G04 #@! TO.C,D6*
X144781000Y-85569000D02*
X148081000Y-85569000D01*
X148081000Y-85569000D02*
X148081000Y-80169000D01*
X144781000Y-85569000D02*
X144781000Y-80169000D01*
G04 #@! TO.C,D7*
X141229000Y-93130000D02*
X141229000Y-94830000D01*
X141229000Y-94830000D02*
X144379000Y-94830000D01*
X141229000Y-93130000D02*
X144379000Y-93130000D01*
G04 #@! TO.C,D8*
X147535000Y-104907000D02*
X145835000Y-104907000D01*
X145835000Y-104907000D02*
X145835000Y-108057000D01*
X147535000Y-104907000D02*
X147535000Y-108057000D01*
G04 #@! TO.C,D9*
X149137000Y-108707000D02*
X150837000Y-108707000D01*
X150837000Y-108707000D02*
X150837000Y-105557000D01*
X149137000Y-108707000D02*
X149137000Y-105557000D01*
G04 #@! TO.C,D10*
X154139000Y-104907000D02*
X154139000Y-108057000D01*
X152439000Y-104907000D02*
X152439000Y-108057000D01*
X154139000Y-104907000D02*
X152439000Y-104907000D01*
G04 #@! TO.C,D11*
X155868000Y-108707000D02*
X155868000Y-105557000D01*
X157568000Y-108707000D02*
X157568000Y-105557000D01*
X155868000Y-108707000D02*
X157568000Y-108707000D01*
G04 #@! TO.C,D13*
X169927000Y-85601000D02*
X169927000Y-80201000D01*
X173227000Y-85601000D02*
X173227000Y-80201000D01*
X169927000Y-85601000D02*
X173227000Y-85601000D01*
G04 #@! TO.C,D14*
X150871000Y-96989000D02*
X147721000Y-96989000D01*
X150871000Y-95289000D02*
X147721000Y-95289000D01*
X150871000Y-96989000D02*
X150871000Y-95289000D01*
G04 #@! TO.C,R1*
X135126000Y-100492779D02*
X135126000Y-100167221D01*
X136146000Y-100492779D02*
X136146000Y-100167221D01*
G04 #@! TO.C,R2*
X138051000Y-100492779D02*
X138051000Y-100167221D01*
X137031000Y-100492779D02*
X137031000Y-100167221D01*
G04 #@! TO.C,R3*
X141861000Y-100167221D02*
X141861000Y-100492779D01*
X140841000Y-100167221D02*
X140841000Y-100492779D01*
G04 #@! TO.C,R4*
X138936000Y-100492779D02*
X138936000Y-100167221D01*
X139956000Y-100492779D02*
X139956000Y-100167221D01*
G04 #@! TO.C,R5*
X137924000Y-95539779D02*
X137924000Y-95214221D01*
X136904000Y-95539779D02*
X136904000Y-95214221D01*
G04 #@! TO.C,R6*
X136019000Y-95539779D02*
X136019000Y-95214221D01*
X134999000Y-95539779D02*
X134999000Y-95214221D01*
G04 #@! TO.C,R7*
X151259000Y-100492779D02*
X151259000Y-100167221D01*
X150239000Y-100492779D02*
X150239000Y-100167221D01*
G04 #@! TO.C,R8*
X153291000Y-100492779D02*
X153291000Y-100167221D01*
X152271000Y-100492779D02*
X152271000Y-100167221D01*
G04 #@! TO.C,R9*
X155323000Y-100167221D02*
X155323000Y-100492779D01*
X154303000Y-100167221D02*
X154303000Y-100492779D01*
G04 #@! TO.C,R10*
X156208000Y-100492779D02*
X156208000Y-100167221D01*
X157228000Y-100492779D02*
X157228000Y-100167221D01*
G04 #@! TO.C,R11*
X156335000Y-94777779D02*
X156335000Y-94452221D01*
X157355000Y-94777779D02*
X157355000Y-94452221D01*
G04 #@! TO.C,R12*
X155323000Y-94803279D02*
X155323000Y-94477721D01*
X154303000Y-94803279D02*
X154303000Y-94477721D01*
G04 #@! TO.C,J2*
X174047000Y-108144000D02*
X165417000Y-108144000D01*
X174047000Y-108025905D02*
X165417000Y-108025905D01*
X174047000Y-107907810D02*
X165417000Y-107907810D01*
X174047000Y-107789715D02*
X165417000Y-107789715D01*
X174047000Y-107671620D02*
X165417000Y-107671620D01*
X174047000Y-107553525D02*
X165417000Y-107553525D01*
X174047000Y-107435430D02*
X165417000Y-107435430D01*
X174047000Y-107317335D02*
X165417000Y-107317335D01*
X174047000Y-107199240D02*
X165417000Y-107199240D01*
X174047000Y-107081145D02*
X165417000Y-107081145D01*
X174047000Y-106963050D02*
X165417000Y-106963050D01*
X174047000Y-106844955D02*
X165417000Y-106844955D01*
X174047000Y-106726860D02*
X165417000Y-106726860D01*
X174047000Y-106608765D02*
X165417000Y-106608765D01*
X174047000Y-106490670D02*
X165417000Y-106490670D01*
X174047000Y-106372575D02*
X165417000Y-106372575D01*
X174047000Y-106254480D02*
X165417000Y-106254480D01*
X174047000Y-106136385D02*
X165417000Y-106136385D01*
X174047000Y-106018290D02*
X165417000Y-106018290D01*
X174047000Y-105900195D02*
X165417000Y-105900195D01*
X174047000Y-105782100D02*
X165417000Y-105782100D01*
X165417000Y-107294000D02*
X165007000Y-107294000D01*
X162907000Y-107294000D02*
X162527000Y-107294000D01*
X165417000Y-106574000D02*
X165007000Y-106574000D01*
X162907000Y-106574000D02*
X162527000Y-106574000D01*
X165417000Y-104754000D02*
X165007000Y-104754000D01*
X162907000Y-104754000D02*
X162467000Y-104754000D01*
X165417000Y-104034000D02*
X165007000Y-104034000D01*
X162907000Y-104034000D02*
X162467000Y-104034000D01*
X165417000Y-102214000D02*
X165007000Y-102214000D01*
X162907000Y-102214000D02*
X162467000Y-102214000D01*
X165417000Y-101494000D02*
X165007000Y-101494000D01*
X162907000Y-101494000D02*
X162467000Y-101494000D01*
X165417000Y-99674000D02*
X165007000Y-99674000D01*
X162907000Y-99674000D02*
X162467000Y-99674000D01*
X165417000Y-98954000D02*
X165007000Y-98954000D01*
X162907000Y-98954000D02*
X162467000Y-98954000D01*
X165417000Y-97134000D02*
X165007000Y-97134000D01*
X162907000Y-97134000D02*
X162467000Y-97134000D01*
X165417000Y-96414000D02*
X165007000Y-96414000D01*
X162907000Y-96414000D02*
X162467000Y-96414000D01*
X165417000Y-94594000D02*
X165007000Y-94594000D01*
X162907000Y-94594000D02*
X162467000Y-94594000D01*
X165417000Y-93874000D02*
X165007000Y-93874000D01*
X162907000Y-93874000D02*
X162467000Y-93874000D01*
X174047000Y-105664000D02*
X165417000Y-105664000D01*
X174047000Y-103124000D02*
X165417000Y-103124000D01*
X174047000Y-100584000D02*
X165417000Y-100584000D01*
X174047000Y-98044000D02*
X165417000Y-98044000D01*
X174047000Y-95504000D02*
X165417000Y-95504000D01*
X174047000Y-108264000D02*
X165417000Y-108264000D01*
X165417000Y-108264000D02*
X165417000Y-92904000D01*
X174047000Y-92904000D02*
X165417000Y-92904000D01*
X174047000Y-108264000D02*
X174047000Y-92904000D01*
X160307000Y-108264000D02*
X160307000Y-106934000D01*
X161417000Y-108264000D02*
X160307000Y-108264000D01*
G04 #@! TO.C,US3*
X144974000Y-77561000D02*
X130474000Y-77561000D01*
X130474000Y-77561000D02*
X130474000Y-78061000D01*
X130474000Y-78061000D02*
X131474000Y-78061000D01*
X131474000Y-78061000D02*
X131474000Y-86061000D01*
X131474000Y-89561000D02*
X131474000Y-91561000D01*
X131474000Y-91561000D02*
X143974000Y-91561000D01*
X143974000Y-91561000D02*
X143974000Y-89561000D01*
X143974000Y-86061000D02*
X143974000Y-78061000D01*
X143974000Y-78061000D02*
X144974000Y-78061000D01*
X144974000Y-78061000D02*
X144974000Y-77561000D01*
X141724000Y-91811000D02*
X140724000Y-91811000D01*
G04 #@! TO.C,US4*
X166870000Y-91811000D02*
X165870000Y-91811000D01*
X170120000Y-78061000D02*
X170120000Y-77561000D01*
X169120000Y-78061000D02*
X170120000Y-78061000D01*
X169120000Y-86061000D02*
X169120000Y-78061000D01*
X169120000Y-91561000D02*
X169120000Y-89561000D01*
X156620000Y-91561000D02*
X169120000Y-91561000D01*
X156620000Y-89561000D02*
X156620000Y-91561000D01*
X156620000Y-78061000D02*
X156620000Y-86061000D01*
X155620000Y-78061000D02*
X156620000Y-78061000D01*
X155620000Y-77561000D02*
X155620000Y-78061000D01*
X170120000Y-77561000D02*
X155620000Y-77561000D01*
G04 #@! TO.C,D12*
D13*
X147629714Y-92908380D02*
X147629714Y-91908380D01*
X147867809Y-91908380D01*
X148010666Y-91956000D01*
X148105904Y-92051238D01*
X148153523Y-92146476D01*
X148201142Y-92336952D01*
X148201142Y-92479809D01*
X148153523Y-92670285D01*
X148105904Y-92765523D01*
X148010666Y-92860761D01*
X147867809Y-92908380D01*
X147629714Y-92908380D01*
X149153523Y-92908380D02*
X148582095Y-92908380D01*
X148867809Y-92908380D02*
X148867809Y-91908380D01*
X148772571Y-92051238D01*
X148677333Y-92146476D01*
X148582095Y-92194095D01*
X149534476Y-92003619D02*
X149582095Y-91956000D01*
X149677333Y-91908380D01*
X149915428Y-91908380D01*
X150010666Y-91956000D01*
X150058285Y-92003619D01*
X150105904Y-92098857D01*
X150105904Y-92194095D01*
X150058285Y-92336952D01*
X149486857Y-92908380D01*
X150105904Y-92908380D01*
G04 #@! TO.C,J1*
X124634666Y-108418380D02*
X124634666Y-109132666D01*
X124587047Y-109275523D01*
X124491809Y-109370761D01*
X124348952Y-109418380D01*
X124253714Y-109418380D01*
X125634666Y-109418380D02*
X125063238Y-109418380D01*
X125348952Y-109418380D02*
X125348952Y-108418380D01*
X125253714Y-108561238D01*
X125158476Y-108656476D01*
X125063238Y-108704095D01*
G04 #@! TO.C,D1*
X129357380Y-107545095D02*
X128357380Y-107545095D01*
X128357380Y-107307000D01*
X128405000Y-107164142D01*
X128500238Y-107068904D01*
X128595476Y-107021285D01*
X128785952Y-106973666D01*
X128928809Y-106973666D01*
X129119285Y-107021285D01*
X129214523Y-107068904D01*
X129309761Y-107164142D01*
X129357380Y-107307000D01*
X129357380Y-107545095D01*
X129357380Y-106021285D02*
X129357380Y-106592714D01*
X129357380Y-106307000D02*
X128357380Y-106307000D01*
X128500238Y-106402238D01*
X128595476Y-106497476D01*
X128643095Y-106592714D01*
G04 #@! TO.C,D2*
X132786380Y-107545095D02*
X131786380Y-107545095D01*
X131786380Y-107307000D01*
X131834000Y-107164142D01*
X131929238Y-107068904D01*
X132024476Y-107021285D01*
X132214952Y-106973666D01*
X132357809Y-106973666D01*
X132548285Y-107021285D01*
X132643523Y-107068904D01*
X132738761Y-107164142D01*
X132786380Y-107307000D01*
X132786380Y-107545095D01*
X131881619Y-106592714D02*
X131834000Y-106545095D01*
X131786380Y-106449857D01*
X131786380Y-106211761D01*
X131834000Y-106116523D01*
X131881619Y-106068904D01*
X131976857Y-106021285D01*
X132072095Y-106021285D01*
X132214952Y-106068904D01*
X132786380Y-106640333D01*
X132786380Y-106021285D01*
G04 #@! TO.C,D3*
X136215380Y-107545095D02*
X135215380Y-107545095D01*
X135215380Y-107307000D01*
X135263000Y-107164142D01*
X135358238Y-107068904D01*
X135453476Y-107021285D01*
X135643952Y-106973666D01*
X135786809Y-106973666D01*
X135977285Y-107021285D01*
X136072523Y-107068904D01*
X136167761Y-107164142D01*
X136215380Y-107307000D01*
X136215380Y-107545095D01*
X135215380Y-106640333D02*
X135215380Y-106021285D01*
X135596333Y-106354619D01*
X135596333Y-106211761D01*
X135643952Y-106116523D01*
X135691571Y-106068904D01*
X135786809Y-106021285D01*
X136024904Y-106021285D01*
X136120142Y-106068904D01*
X136167761Y-106116523D01*
X136215380Y-106211761D01*
X136215380Y-106497476D01*
X136167761Y-106592714D01*
X136120142Y-106640333D01*
G04 #@! TO.C,D4*
X139644380Y-107545095D02*
X138644380Y-107545095D01*
X138644380Y-107307000D01*
X138692000Y-107164142D01*
X138787238Y-107068904D01*
X138882476Y-107021285D01*
X139072952Y-106973666D01*
X139215809Y-106973666D01*
X139406285Y-107021285D01*
X139501523Y-107068904D01*
X139596761Y-107164142D01*
X139644380Y-107307000D01*
X139644380Y-107545095D01*
X138977714Y-106116523D02*
X139644380Y-106116523D01*
X138596761Y-106354619D02*
X139311047Y-106592714D01*
X139311047Y-105973666D01*
G04 #@! TO.C,D5*
X142263904Y-98242380D02*
X142263904Y-97242380D01*
X142502000Y-97242380D01*
X142644857Y-97290000D01*
X142740095Y-97385238D01*
X142787714Y-97480476D01*
X142835333Y-97670952D01*
X142835333Y-97813809D01*
X142787714Y-98004285D01*
X142740095Y-98099523D01*
X142644857Y-98194761D01*
X142502000Y-98242380D01*
X142263904Y-98242380D01*
X143740095Y-97242380D02*
X143263904Y-97242380D01*
X143216285Y-97718571D01*
X143263904Y-97670952D01*
X143359142Y-97623333D01*
X143597238Y-97623333D01*
X143692476Y-97670952D01*
X143740095Y-97718571D01*
X143787714Y-97813809D01*
X143787714Y-98051904D01*
X143740095Y-98147142D01*
X143692476Y-98194761D01*
X143597238Y-98242380D01*
X143359142Y-98242380D01*
X143263904Y-98194761D01*
X143216285Y-98147142D01*
G04 #@! TO.C,D6*
X146883380Y-83002095D02*
X145883380Y-83002095D01*
X145883380Y-82764000D01*
X145931000Y-82621142D01*
X146026238Y-82525904D01*
X146121476Y-82478285D01*
X146311952Y-82430666D01*
X146454809Y-82430666D01*
X146645285Y-82478285D01*
X146740523Y-82525904D01*
X146835761Y-82621142D01*
X146883380Y-82764000D01*
X146883380Y-83002095D01*
X145883380Y-81573523D02*
X145883380Y-81764000D01*
X145931000Y-81859238D01*
X145978619Y-81906857D01*
X146121476Y-82002095D01*
X146311952Y-82049714D01*
X146692904Y-82049714D01*
X146788142Y-82002095D01*
X146835761Y-81954476D01*
X146883380Y-81859238D01*
X146883380Y-81668761D01*
X146835761Y-81573523D01*
X146788142Y-81525904D01*
X146692904Y-81478285D01*
X146454809Y-81478285D01*
X146359571Y-81525904D01*
X146311952Y-81573523D01*
X146264333Y-81668761D01*
X146264333Y-81859238D01*
X146311952Y-81954476D01*
X146359571Y-82002095D01*
X146454809Y-82049714D01*
G04 #@! TO.C,D7*
X142390904Y-92908380D02*
X142390904Y-91908380D01*
X142629000Y-91908380D01*
X142771857Y-91956000D01*
X142867095Y-92051238D01*
X142914714Y-92146476D01*
X142962333Y-92336952D01*
X142962333Y-92479809D01*
X142914714Y-92670285D01*
X142867095Y-92765523D01*
X142771857Y-92860761D01*
X142629000Y-92908380D01*
X142390904Y-92908380D01*
X143295666Y-91908380D02*
X143962333Y-91908380D01*
X143533761Y-92908380D01*
G04 #@! TO.C,D8*
X145486380Y-107418095D02*
X144486380Y-107418095D01*
X144486380Y-107180000D01*
X144534000Y-107037142D01*
X144629238Y-106941904D01*
X144724476Y-106894285D01*
X144914952Y-106846666D01*
X145057809Y-106846666D01*
X145248285Y-106894285D01*
X145343523Y-106941904D01*
X145438761Y-107037142D01*
X145486380Y-107180000D01*
X145486380Y-107418095D01*
X144914952Y-106275238D02*
X144867333Y-106370476D01*
X144819714Y-106418095D01*
X144724476Y-106465714D01*
X144676857Y-106465714D01*
X144581619Y-106418095D01*
X144534000Y-106370476D01*
X144486380Y-106275238D01*
X144486380Y-106084761D01*
X144534000Y-105989523D01*
X144581619Y-105941904D01*
X144676857Y-105894285D01*
X144724476Y-105894285D01*
X144819714Y-105941904D01*
X144867333Y-105989523D01*
X144914952Y-106084761D01*
X144914952Y-106275238D01*
X144962571Y-106370476D01*
X145010190Y-106418095D01*
X145105428Y-106465714D01*
X145295904Y-106465714D01*
X145391142Y-106418095D01*
X145438761Y-106370476D01*
X145486380Y-106275238D01*
X145486380Y-106084761D01*
X145438761Y-105989523D01*
X145391142Y-105941904D01*
X145295904Y-105894285D01*
X145105428Y-105894285D01*
X145010190Y-105941904D01*
X144962571Y-105989523D01*
X144914952Y-106084761D01*
G04 #@! TO.C,D9*
X148788380Y-107418095D02*
X147788380Y-107418095D01*
X147788380Y-107180000D01*
X147836000Y-107037142D01*
X147931238Y-106941904D01*
X148026476Y-106894285D01*
X148216952Y-106846666D01*
X148359809Y-106846666D01*
X148550285Y-106894285D01*
X148645523Y-106941904D01*
X148740761Y-107037142D01*
X148788380Y-107180000D01*
X148788380Y-107418095D01*
X148788380Y-106370476D02*
X148788380Y-106180000D01*
X148740761Y-106084761D01*
X148693142Y-106037142D01*
X148550285Y-105941904D01*
X148359809Y-105894285D01*
X147978857Y-105894285D01*
X147883619Y-105941904D01*
X147836000Y-105989523D01*
X147788380Y-106084761D01*
X147788380Y-106275238D01*
X147836000Y-106370476D01*
X147883619Y-106418095D01*
X147978857Y-106465714D01*
X148216952Y-106465714D01*
X148312190Y-106418095D01*
X148359809Y-106370476D01*
X148407428Y-106275238D01*
X148407428Y-106084761D01*
X148359809Y-105989523D01*
X148312190Y-105941904D01*
X148216952Y-105894285D01*
G04 #@! TO.C,D10*
X152090380Y-108021285D02*
X151090380Y-108021285D01*
X151090380Y-107783190D01*
X151138000Y-107640333D01*
X151233238Y-107545095D01*
X151328476Y-107497476D01*
X151518952Y-107449857D01*
X151661809Y-107449857D01*
X151852285Y-107497476D01*
X151947523Y-107545095D01*
X152042761Y-107640333D01*
X152090380Y-107783190D01*
X152090380Y-108021285D01*
X152090380Y-106497476D02*
X152090380Y-107068904D01*
X152090380Y-106783190D02*
X151090380Y-106783190D01*
X151233238Y-106878428D01*
X151328476Y-106973666D01*
X151376095Y-107068904D01*
X151090380Y-105878428D02*
X151090380Y-105783190D01*
X151138000Y-105687952D01*
X151185619Y-105640333D01*
X151280857Y-105592714D01*
X151471333Y-105545095D01*
X151709428Y-105545095D01*
X151899904Y-105592714D01*
X151995142Y-105640333D01*
X152042761Y-105687952D01*
X152090380Y-105783190D01*
X152090380Y-105878428D01*
X152042761Y-105973666D01*
X151995142Y-106021285D01*
X151899904Y-106068904D01*
X151709428Y-106116523D01*
X151471333Y-106116523D01*
X151280857Y-106068904D01*
X151185619Y-106021285D01*
X151138000Y-105973666D01*
X151090380Y-105878428D01*
G04 #@! TO.C,D11*
X155519380Y-107894285D02*
X154519380Y-107894285D01*
X154519380Y-107656190D01*
X154567000Y-107513333D01*
X154662238Y-107418095D01*
X154757476Y-107370476D01*
X154947952Y-107322857D01*
X155090809Y-107322857D01*
X155281285Y-107370476D01*
X155376523Y-107418095D01*
X155471761Y-107513333D01*
X155519380Y-107656190D01*
X155519380Y-107894285D01*
X155519380Y-106370476D02*
X155519380Y-106941904D01*
X155519380Y-106656190D02*
X154519380Y-106656190D01*
X154662238Y-106751428D01*
X154757476Y-106846666D01*
X154805095Y-106941904D01*
X155519380Y-105418095D02*
X155519380Y-105989523D01*
X155519380Y-105703809D02*
X154519380Y-105703809D01*
X154662238Y-105799047D01*
X154757476Y-105894285D01*
X154805095Y-105989523D01*
G04 #@! TO.C,D13*
X172029380Y-83415285D02*
X171029380Y-83415285D01*
X171029380Y-83177190D01*
X171077000Y-83034333D01*
X171172238Y-82939095D01*
X171267476Y-82891476D01*
X171457952Y-82843857D01*
X171600809Y-82843857D01*
X171791285Y-82891476D01*
X171886523Y-82939095D01*
X171981761Y-83034333D01*
X172029380Y-83177190D01*
X172029380Y-83415285D01*
X172029380Y-81891476D02*
X172029380Y-82462904D01*
X172029380Y-82177190D02*
X171029380Y-82177190D01*
X171172238Y-82272428D01*
X171267476Y-82367666D01*
X171315095Y-82462904D01*
X171029380Y-81558142D02*
X171029380Y-80939095D01*
X171410333Y-81272428D01*
X171410333Y-81129571D01*
X171457952Y-81034333D01*
X171505571Y-80986714D01*
X171600809Y-80939095D01*
X171838904Y-80939095D01*
X171934142Y-80986714D01*
X171981761Y-81034333D01*
X172029380Y-81129571D01*
X172029380Y-81415285D01*
X171981761Y-81510523D01*
X171934142Y-81558142D01*
G04 #@! TO.C,D14*
X148010714Y-98242380D02*
X148010714Y-97242380D01*
X148248809Y-97242380D01*
X148391666Y-97290000D01*
X148486904Y-97385238D01*
X148534523Y-97480476D01*
X148582142Y-97670952D01*
X148582142Y-97813809D01*
X148534523Y-98004285D01*
X148486904Y-98099523D01*
X148391666Y-98194761D01*
X148248809Y-98242380D01*
X148010714Y-98242380D01*
X149534523Y-98242380D02*
X148963095Y-98242380D01*
X149248809Y-98242380D02*
X149248809Y-97242380D01*
X149153571Y-97385238D01*
X149058333Y-97480476D01*
X148963095Y-97528095D01*
X150391666Y-97575714D02*
X150391666Y-98242380D01*
X150153571Y-97194761D02*
X149915476Y-97909047D01*
X150534523Y-97909047D01*
G04 #@! TO.C,R1*
X136088380Y-102909666D02*
X135612190Y-103243000D01*
X136088380Y-103481095D02*
X135088380Y-103481095D01*
X135088380Y-103100142D01*
X135136000Y-103004904D01*
X135183619Y-102957285D01*
X135278857Y-102909666D01*
X135421714Y-102909666D01*
X135516952Y-102957285D01*
X135564571Y-103004904D01*
X135612190Y-103100142D01*
X135612190Y-103481095D01*
X136088380Y-101957285D02*
X136088380Y-102528714D01*
X136088380Y-102243000D02*
X135088380Y-102243000D01*
X135231238Y-102338238D01*
X135326476Y-102433476D01*
X135374095Y-102528714D01*
G04 #@! TO.C,R2*
X137993380Y-102909666D02*
X137517190Y-103243000D01*
X137993380Y-103481095D02*
X136993380Y-103481095D01*
X136993380Y-103100142D01*
X137041000Y-103004904D01*
X137088619Y-102957285D01*
X137183857Y-102909666D01*
X137326714Y-102909666D01*
X137421952Y-102957285D01*
X137469571Y-103004904D01*
X137517190Y-103100142D01*
X137517190Y-103481095D01*
X137088619Y-102528714D02*
X137041000Y-102481095D01*
X136993380Y-102385857D01*
X136993380Y-102147761D01*
X137041000Y-102052523D01*
X137088619Y-102004904D01*
X137183857Y-101957285D01*
X137279095Y-101957285D01*
X137421952Y-102004904D01*
X137993380Y-102576333D01*
X137993380Y-101957285D01*
G04 #@! TO.C,R3*
X141803380Y-102909666D02*
X141327190Y-103243000D01*
X141803380Y-103481095D02*
X140803380Y-103481095D01*
X140803380Y-103100142D01*
X140851000Y-103004904D01*
X140898619Y-102957285D01*
X140993857Y-102909666D01*
X141136714Y-102909666D01*
X141231952Y-102957285D01*
X141279571Y-103004904D01*
X141327190Y-103100142D01*
X141327190Y-103481095D01*
X140803380Y-102576333D02*
X140803380Y-101957285D01*
X141184333Y-102290619D01*
X141184333Y-102147761D01*
X141231952Y-102052523D01*
X141279571Y-102004904D01*
X141374809Y-101957285D01*
X141612904Y-101957285D01*
X141708142Y-102004904D01*
X141755761Y-102052523D01*
X141803380Y-102147761D01*
X141803380Y-102433476D01*
X141755761Y-102528714D01*
X141708142Y-102576333D01*
G04 #@! TO.C,R4*
X140025380Y-102909666D02*
X139549190Y-103243000D01*
X140025380Y-103481095D02*
X139025380Y-103481095D01*
X139025380Y-103100142D01*
X139073000Y-103004904D01*
X139120619Y-102957285D01*
X139215857Y-102909666D01*
X139358714Y-102909666D01*
X139453952Y-102957285D01*
X139501571Y-103004904D01*
X139549190Y-103100142D01*
X139549190Y-103481095D01*
X139358714Y-102052523D02*
X140025380Y-102052523D01*
X138977761Y-102290619D02*
X139692047Y-102528714D01*
X139692047Y-101909666D01*
G04 #@! TO.C,R5*
X137866380Y-97956666D02*
X137390190Y-98290000D01*
X137866380Y-98528095D02*
X136866380Y-98528095D01*
X136866380Y-98147142D01*
X136914000Y-98051904D01*
X136961619Y-98004285D01*
X137056857Y-97956666D01*
X137199714Y-97956666D01*
X137294952Y-98004285D01*
X137342571Y-98051904D01*
X137390190Y-98147142D01*
X137390190Y-98528095D01*
X136866380Y-97051904D02*
X136866380Y-97528095D01*
X137342571Y-97575714D01*
X137294952Y-97528095D01*
X137247333Y-97432857D01*
X137247333Y-97194761D01*
X137294952Y-97099523D01*
X137342571Y-97051904D01*
X137437809Y-97004285D01*
X137675904Y-97004285D01*
X137771142Y-97051904D01*
X137818761Y-97099523D01*
X137866380Y-97194761D01*
X137866380Y-97432857D01*
X137818761Y-97528095D01*
X137771142Y-97575714D01*
G04 #@! TO.C,R6*
X135961380Y-98058166D02*
X135485190Y-98391500D01*
X135961380Y-98629595D02*
X134961380Y-98629595D01*
X134961380Y-98248642D01*
X135009000Y-98153404D01*
X135056619Y-98105785D01*
X135151857Y-98058166D01*
X135294714Y-98058166D01*
X135389952Y-98105785D01*
X135437571Y-98153404D01*
X135485190Y-98248642D01*
X135485190Y-98629595D01*
X134961380Y-97201023D02*
X134961380Y-97391500D01*
X135009000Y-97486738D01*
X135056619Y-97534357D01*
X135199476Y-97629595D01*
X135389952Y-97677214D01*
X135770904Y-97677214D01*
X135866142Y-97629595D01*
X135913761Y-97581976D01*
X135961380Y-97486738D01*
X135961380Y-97296261D01*
X135913761Y-97201023D01*
X135866142Y-97153404D01*
X135770904Y-97105785D01*
X135532809Y-97105785D01*
X135437571Y-97153404D01*
X135389952Y-97201023D01*
X135342333Y-97296261D01*
X135342333Y-97486738D01*
X135389952Y-97581976D01*
X135437571Y-97629595D01*
X135532809Y-97677214D01*
G04 #@! TO.C,R7*
X151201380Y-103036666D02*
X150725190Y-103370000D01*
X151201380Y-103608095D02*
X150201380Y-103608095D01*
X150201380Y-103227142D01*
X150249000Y-103131904D01*
X150296619Y-103084285D01*
X150391857Y-103036666D01*
X150534714Y-103036666D01*
X150629952Y-103084285D01*
X150677571Y-103131904D01*
X150725190Y-103227142D01*
X150725190Y-103608095D01*
X150201380Y-102703333D02*
X150201380Y-102036666D01*
X151201380Y-102465238D01*
G04 #@! TO.C,R8*
X153233380Y-103163666D02*
X152757190Y-103497000D01*
X153233380Y-103735095D02*
X152233380Y-103735095D01*
X152233380Y-103354142D01*
X152281000Y-103258904D01*
X152328619Y-103211285D01*
X152423857Y-103163666D01*
X152566714Y-103163666D01*
X152661952Y-103211285D01*
X152709571Y-103258904D01*
X152757190Y-103354142D01*
X152757190Y-103735095D01*
X152661952Y-102592238D02*
X152614333Y-102687476D01*
X152566714Y-102735095D01*
X152471476Y-102782714D01*
X152423857Y-102782714D01*
X152328619Y-102735095D01*
X152281000Y-102687476D01*
X152233380Y-102592238D01*
X152233380Y-102401761D01*
X152281000Y-102306523D01*
X152328619Y-102258904D01*
X152423857Y-102211285D01*
X152471476Y-102211285D01*
X152566714Y-102258904D01*
X152614333Y-102306523D01*
X152661952Y-102401761D01*
X152661952Y-102592238D01*
X152709571Y-102687476D01*
X152757190Y-102735095D01*
X152852428Y-102782714D01*
X153042904Y-102782714D01*
X153138142Y-102735095D01*
X153185761Y-102687476D01*
X153233380Y-102592238D01*
X153233380Y-102401761D01*
X153185761Y-102306523D01*
X153138142Y-102258904D01*
X153042904Y-102211285D01*
X152852428Y-102211285D01*
X152757190Y-102258904D01*
X152709571Y-102306523D01*
X152661952Y-102401761D01*
G04 #@! TO.C,R9*
X155392380Y-103163666D02*
X154916190Y-103497000D01*
X155392380Y-103735095D02*
X154392380Y-103735095D01*
X154392380Y-103354142D01*
X154440000Y-103258904D01*
X154487619Y-103211285D01*
X154582857Y-103163666D01*
X154725714Y-103163666D01*
X154820952Y-103211285D01*
X154868571Y-103258904D01*
X154916190Y-103354142D01*
X154916190Y-103735095D01*
X155392380Y-102687476D02*
X155392380Y-102497000D01*
X155344761Y-102401761D01*
X155297142Y-102354142D01*
X155154285Y-102258904D01*
X154963809Y-102211285D01*
X154582857Y-102211285D01*
X154487619Y-102258904D01*
X154440000Y-102306523D01*
X154392380Y-102401761D01*
X154392380Y-102592238D01*
X154440000Y-102687476D01*
X154487619Y-102735095D01*
X154582857Y-102782714D01*
X154820952Y-102782714D01*
X154916190Y-102735095D01*
X154963809Y-102687476D01*
X155011428Y-102592238D01*
X155011428Y-102401761D01*
X154963809Y-102306523D01*
X154916190Y-102258904D01*
X154820952Y-102211285D01*
G04 #@! TO.C,R10*
X157170380Y-104020857D02*
X156694190Y-104354190D01*
X157170380Y-104592285D02*
X156170380Y-104592285D01*
X156170380Y-104211333D01*
X156218000Y-104116095D01*
X156265619Y-104068476D01*
X156360857Y-104020857D01*
X156503714Y-104020857D01*
X156598952Y-104068476D01*
X156646571Y-104116095D01*
X156694190Y-104211333D01*
X156694190Y-104592285D01*
X157170380Y-103068476D02*
X157170380Y-103639904D01*
X157170380Y-103354190D02*
X156170380Y-103354190D01*
X156313238Y-103449428D01*
X156408476Y-103544666D01*
X156456095Y-103639904D01*
X156170380Y-102449428D02*
X156170380Y-102354190D01*
X156218000Y-102258952D01*
X156265619Y-102211333D01*
X156360857Y-102163714D01*
X156551333Y-102116095D01*
X156789428Y-102116095D01*
X156979904Y-102163714D01*
X157075142Y-102211333D01*
X157122761Y-102258952D01*
X157170380Y-102354190D01*
X157170380Y-102449428D01*
X157122761Y-102544666D01*
X157075142Y-102592285D01*
X156979904Y-102639904D01*
X156789428Y-102687523D01*
X156551333Y-102687523D01*
X156360857Y-102639904D01*
X156265619Y-102592285D01*
X156218000Y-102544666D01*
X156170380Y-102449428D01*
G04 #@! TO.C,R11*
X157297380Y-98178857D02*
X156821190Y-98512190D01*
X157297380Y-98750285D02*
X156297380Y-98750285D01*
X156297380Y-98369333D01*
X156345000Y-98274095D01*
X156392619Y-98226476D01*
X156487857Y-98178857D01*
X156630714Y-98178857D01*
X156725952Y-98226476D01*
X156773571Y-98274095D01*
X156821190Y-98369333D01*
X156821190Y-98750285D01*
X157297380Y-97226476D02*
X157297380Y-97797904D01*
X157297380Y-97512190D02*
X156297380Y-97512190D01*
X156440238Y-97607428D01*
X156535476Y-97702666D01*
X156583095Y-97797904D01*
X157297380Y-96274095D02*
X157297380Y-96845523D01*
X157297380Y-96559809D02*
X156297380Y-96559809D01*
X156440238Y-96655047D01*
X156535476Y-96750285D01*
X156583095Y-96845523D01*
G04 #@! TO.C,R12*
X155265380Y-98204357D02*
X154789190Y-98537690D01*
X155265380Y-98775785D02*
X154265380Y-98775785D01*
X154265380Y-98394833D01*
X154313000Y-98299595D01*
X154360619Y-98251976D01*
X154455857Y-98204357D01*
X154598714Y-98204357D01*
X154693952Y-98251976D01*
X154741571Y-98299595D01*
X154789190Y-98394833D01*
X154789190Y-98775785D01*
X155265380Y-97251976D02*
X155265380Y-97823404D01*
X155265380Y-97537690D02*
X154265380Y-97537690D01*
X154408238Y-97632928D01*
X154503476Y-97728166D01*
X154551095Y-97823404D01*
X154360619Y-96871023D02*
X154313000Y-96823404D01*
X154265380Y-96728166D01*
X154265380Y-96490071D01*
X154313000Y-96394833D01*
X154360619Y-96347214D01*
X154455857Y-96299595D01*
X154551095Y-96299595D01*
X154693952Y-96347214D01*
X155265380Y-96918642D01*
X155265380Y-96299595D01*
G04 #@! TO.C,J2*
X169211666Y-108418380D02*
X169211666Y-109132666D01*
X169164047Y-109275523D01*
X169068809Y-109370761D01*
X168925952Y-109418380D01*
X168830714Y-109418380D01*
X169640238Y-108513619D02*
X169687857Y-108466000D01*
X169783095Y-108418380D01*
X170021190Y-108418380D01*
X170116428Y-108466000D01*
X170164047Y-108513619D01*
X170211666Y-108608857D01*
X170211666Y-108704095D01*
X170164047Y-108846952D01*
X169592619Y-109418380D01*
X170211666Y-109418380D01*
G04 #@! TO.C,US3*
X146645380Y-89122095D02*
X147454904Y-89122095D01*
X147550142Y-89074476D01*
X147597761Y-89026857D01*
X147645380Y-88931619D01*
X147645380Y-88741142D01*
X147597761Y-88645904D01*
X147550142Y-88598285D01*
X147454904Y-88550666D01*
X146645380Y-88550666D01*
X147597761Y-88122095D02*
X147645380Y-87979238D01*
X147645380Y-87741142D01*
X147597761Y-87645904D01*
X147550142Y-87598285D01*
X147454904Y-87550666D01*
X147359666Y-87550666D01*
X147264428Y-87598285D01*
X147216809Y-87645904D01*
X147169190Y-87741142D01*
X147121571Y-87931619D01*
X147073952Y-88026857D01*
X147026333Y-88074476D01*
X146931095Y-88122095D01*
X146835857Y-88122095D01*
X146740619Y-88074476D01*
X146693000Y-88026857D01*
X146645380Y-87931619D01*
X146645380Y-87693523D01*
X146693000Y-87550666D01*
X146645380Y-87217333D02*
X146645380Y-86598285D01*
X147026333Y-86931619D01*
X147026333Y-86788761D01*
X147073952Y-86693523D01*
X147121571Y-86645904D01*
X147216809Y-86598285D01*
X147454904Y-86598285D01*
X147550142Y-86645904D01*
X147597761Y-86693523D01*
X147645380Y-86788761D01*
X147645380Y-87074476D01*
X147597761Y-87169714D01*
X147550142Y-87217333D01*
G04 #@! TO.C,US4*
X171918380Y-89122095D02*
X172727904Y-89122095D01*
X172823142Y-89074476D01*
X172870761Y-89026857D01*
X172918380Y-88931619D01*
X172918380Y-88741142D01*
X172870761Y-88645904D01*
X172823142Y-88598285D01*
X172727904Y-88550666D01*
X171918380Y-88550666D01*
X172870761Y-88122095D02*
X172918380Y-87979238D01*
X172918380Y-87741142D01*
X172870761Y-87645904D01*
X172823142Y-87598285D01*
X172727904Y-87550666D01*
X172632666Y-87550666D01*
X172537428Y-87598285D01*
X172489809Y-87645904D01*
X172442190Y-87741142D01*
X172394571Y-87931619D01*
X172346952Y-88026857D01*
X172299333Y-88074476D01*
X172204095Y-88122095D01*
X172108857Y-88122095D01*
X172013619Y-88074476D01*
X171966000Y-88026857D01*
X171918380Y-87931619D01*
X171918380Y-87693523D01*
X171966000Y-87550666D01*
X172251714Y-86693523D02*
X172918380Y-86693523D01*
X171870761Y-86931619D02*
X172585047Y-87169714D01*
X172585047Y-86550666D01*
G04 #@! TD*
M02*
