G04 #@! TF.GenerationSoftware,KiCad,Pcbnew,5.0.2+dfsg1-1*
G04 #@! TF.CreationDate,2019-12-14T00:12:12+01:00*
G04 #@! TF.ProjectId,USB,5553422e-6b69-4636-9164-5f7063625858,rev?*
G04 #@! TF.SameCoordinates,Original*
G04 #@! TF.FileFunction,Copper,L1,Top*
G04 #@! TF.FilePolarity,Positive*
%FSLAX46Y46*%
G04 Gerber Fmt 4.6, Leading zero omitted, Abs format (unit mm)*
G04 Created by KiCad (PCBNEW 5.0.2+dfsg1-1) date Sat 14 Dec 2019 12:12:12 AM CET*
%MOMM*%
%LPD*%
G01*
G04 APERTURE LIST*
G04 #@! TA.AperFunction,EtchedComponent*
%ADD10C,0.100000*%
G04 #@! TD*
G04 #@! TA.AperFunction,SMDPad,CuDef*
%ADD11R,1.000000X1.000000*%
G04 #@! TD*
G04 #@! TA.AperFunction,ComponentPad*
%ADD12R,1.700000X1.700000*%
G04 #@! TD*
G04 #@! TA.AperFunction,ComponentPad*
%ADD13O,1.700000X1.700000*%
G04 #@! TD*
G04 #@! TA.AperFunction,Conductor*
%ADD14C,0.100000*%
G04 #@! TD*
G04 #@! TA.AperFunction,SMDPad,CuDef*
%ADD15C,1.800000*%
G04 #@! TD*
G04 #@! TA.AperFunction,SMDPad,CuDef*
%ADD16C,0.875000*%
G04 #@! TD*
G04 #@! TA.AperFunction,ComponentPad*
%ADD17C,1.600000*%
G04 #@! TD*
G04 #@! TA.AperFunction,ComponentPad*
%ADD18R,1.600000X1.600000*%
G04 #@! TD*
G04 #@! TA.AperFunction,ComponentPad*
%ADD19C,3.000000*%
G04 #@! TD*
G04 #@! TA.AperFunction,ViaPad*
%ADD20C,0.800000*%
G04 #@! TD*
G04 #@! TA.AperFunction,Conductor*
%ADD21C,0.250000*%
G04 #@! TD*
G04 #@! TA.AperFunction,Conductor*
%ADD22C,0.200000*%
G04 #@! TD*
G04 #@! TA.AperFunction,Conductor*
%ADD23C,0.500000*%
G04 #@! TD*
G04 #@! TA.AperFunction,Conductor*
%ADD24C,0.254000*%
G04 #@! TD*
G04 APERTURE END LIST*
D10*
G04 #@! TO.C,D6*
G36*
X145931000Y-83069000D02*
X145931000Y-81269000D01*
X146931000Y-81269000D01*
X146931000Y-83069000D01*
X145931000Y-83069000D01*
G37*
X145931000Y-83069000D02*
X145931000Y-81269000D01*
X146931000Y-81269000D01*
X146931000Y-83069000D01*
X145931000Y-83069000D01*
G04 #@! TO.C,D13*
G36*
X171077000Y-83101000D02*
X171077000Y-81301000D01*
X172077000Y-81301000D01*
X172077000Y-83101000D01*
X171077000Y-83101000D01*
G37*
X171077000Y-83101000D02*
X171077000Y-81301000D01*
X172077000Y-81301000D01*
X172077000Y-83101000D01*
X171077000Y-83101000D01*
G04 #@! TD*
D11*
G04 #@! TO.P,D12,1*
G04 #@! TO.N,USB2_FPGA_D+*
X150221000Y-93980000D03*
G04 #@! TO.P,D12,2*
G04 #@! TO.N,GND*
X147721000Y-93980000D03*
G04 #@! TD*
D12*
G04 #@! TO.P,J1,1*
G04 #@! TO.N,USB2_FPGA_D-*
X126238000Y-107950000D03*
D13*
G04 #@! TO.P,J1,2*
G04 #@! TO.N,USB2_FPGA_D+*
X123698000Y-107950000D03*
G04 #@! TO.P,J1,3*
G04 #@! TO.N,+3V3*
X126238000Y-105410000D03*
G04 #@! TO.P,J1,4*
X123698000Y-105410000D03*
G04 #@! TO.P,J1,5*
G04 #@! TO.N,GND*
X126238000Y-102870000D03*
G04 #@! TO.P,J1,6*
X123698000Y-102870000D03*
G04 #@! TO.P,J1,7*
G04 #@! TO.N,USB1_FPGA_D-*
X126238000Y-100330000D03*
G04 #@! TO.P,J1,8*
G04 #@! TO.N,USB1_FPGA_D+*
X123698000Y-100330000D03*
G04 #@! TO.P,J1,9*
G04 #@! TO.N,USB1_FPGA_PULL_D-*
X126238000Y-97790000D03*
G04 #@! TO.P,J1,10*
G04 #@! TO.N,USB1_FPGA_PULL_D+*
X123698000Y-97790000D03*
G04 #@! TO.P,J1,11*
G04 #@! TO.N,USB2_FPGA_PULL_D-*
X126238000Y-95250000D03*
G04 #@! TO.P,J1,12*
G04 #@! TO.N,USB2_FPGA_PULL_D+*
X123698000Y-95250000D03*
G04 #@! TO.P,J1,13*
G04 #@! TO.N,GN24*
X126238000Y-92710000D03*
G04 #@! TO.P,J1,14*
G04 #@! TO.N,GP24*
X123698000Y-92710000D03*
G04 #@! TO.P,J1,15*
G04 #@! TO.N,GN25*
X126238000Y-90170000D03*
G04 #@! TO.P,J1,16*
G04 #@! TO.N,GP25*
X123698000Y-90170000D03*
G04 #@! TO.P,J1,17*
G04 #@! TO.N,GN26*
X126238000Y-87630000D03*
G04 #@! TO.P,J1,18*
G04 #@! TO.N,GP26*
X123698000Y-87630000D03*
G04 #@! TO.P,J1,19*
G04 #@! TO.N,GN27*
X126238000Y-85090000D03*
G04 #@! TO.P,J1,20*
G04 #@! TO.N,GP27*
X123698000Y-85090000D03*
G04 #@! TO.P,J1,21*
G04 #@! TO.N,GND*
X126238000Y-82550000D03*
G04 #@! TO.P,J1,22*
X123698000Y-82550000D03*
G04 #@! TO.P,J1,23*
G04 #@! TO.N,+5V*
X126238000Y-80010000D03*
G04 #@! TO.P,J1,24*
X123698000Y-80010000D03*
G04 #@! TD*
D11*
G04 #@! TO.P,D1,2*
G04 #@! TO.N,USB1_FPGA_PULL_D+*
X130556000Y-108057000D03*
G04 #@! TO.P,D1,1*
G04 #@! TO.N,Net-(D1-Pad1)*
X130556000Y-105557000D03*
G04 #@! TD*
G04 #@! TO.P,D2,2*
G04 #@! TO.N,Net-(D2-Pad2)*
X133985000Y-105557000D03*
G04 #@! TO.P,D2,1*
G04 #@! TO.N,USB1_FPGA_PULL_D+*
X133985000Y-108057000D03*
G04 #@! TD*
G04 #@! TO.P,D3,2*
G04 #@! TO.N,USB1_FPGA_PULL_D-*
X137414000Y-108057000D03*
G04 #@! TO.P,D3,1*
G04 #@! TO.N,Net-(D3-Pad1)*
X137414000Y-105557000D03*
G04 #@! TD*
G04 #@! TO.P,D4,1*
G04 #@! TO.N,USB1_FPGA_PULL_D-*
X140843000Y-108057000D03*
G04 #@! TO.P,D4,2*
G04 #@! TO.N,Net-(D4-Pad2)*
X140843000Y-105557000D03*
G04 #@! TD*
G04 #@! TO.P,D5,1*
G04 #@! TO.N,USB1_FPGA_D+*
X141879000Y-96139000D03*
G04 #@! TO.P,D5,2*
G04 #@! TO.N,GND*
X144379000Y-96139000D03*
G04 #@! TD*
D14*
G04 #@! TO.N,/US1VBUS*
G04 #@! TO.C,D6*
G36*
X146925108Y-82921167D02*
X146968791Y-82927647D01*
X147011628Y-82938377D01*
X147053208Y-82953254D01*
X147093129Y-82972135D01*
X147131007Y-82994839D01*
X147166477Y-83021145D01*
X147199198Y-83050802D01*
X147228855Y-83083523D01*
X147255161Y-83118993D01*
X147277865Y-83156871D01*
X147296746Y-83196792D01*
X147311623Y-83238372D01*
X147322353Y-83281209D01*
X147328833Y-83324892D01*
X147331000Y-83369000D01*
X147331000Y-84969000D01*
X147328833Y-85013108D01*
X147322353Y-85056791D01*
X147311623Y-85099628D01*
X147296746Y-85141208D01*
X147277865Y-85181129D01*
X147255161Y-85219007D01*
X147228855Y-85254477D01*
X147199198Y-85287198D01*
X147166477Y-85316855D01*
X147131007Y-85343161D01*
X147093129Y-85365865D01*
X147053208Y-85384746D01*
X147011628Y-85399623D01*
X146968791Y-85410353D01*
X146925108Y-85416833D01*
X146881000Y-85419000D01*
X145981000Y-85419000D01*
X145936892Y-85416833D01*
X145893209Y-85410353D01*
X145850372Y-85399623D01*
X145808792Y-85384746D01*
X145768871Y-85365865D01*
X145730993Y-85343161D01*
X145695523Y-85316855D01*
X145662802Y-85287198D01*
X145633145Y-85254477D01*
X145606839Y-85219007D01*
X145584135Y-85181129D01*
X145565254Y-85141208D01*
X145550377Y-85099628D01*
X145539647Y-85056791D01*
X145533167Y-85013108D01*
X145531000Y-84969000D01*
X145531000Y-83369000D01*
X145533167Y-83324892D01*
X145539647Y-83281209D01*
X145550377Y-83238372D01*
X145565254Y-83196792D01*
X145584135Y-83156871D01*
X145606839Y-83118993D01*
X145633145Y-83083523D01*
X145662802Y-83050802D01*
X145695523Y-83021145D01*
X145730993Y-82994839D01*
X145768871Y-82972135D01*
X145808792Y-82953254D01*
X145850372Y-82938377D01*
X145893209Y-82927647D01*
X145936892Y-82921167D01*
X145981000Y-82919000D01*
X146881000Y-82919000D01*
X146925108Y-82921167D01*
X146925108Y-82921167D01*
G37*
D15*
G04 #@! TD*
G04 #@! TO.P,D6,1*
G04 #@! TO.N,/US1VBUS*
X146431000Y-84169000D03*
D14*
G04 #@! TO.N,+5V*
G04 #@! TO.C,D6*
G36*
X146925108Y-78921167D02*
X146968791Y-78927647D01*
X147011628Y-78938377D01*
X147053208Y-78953254D01*
X147093129Y-78972135D01*
X147131007Y-78994839D01*
X147166477Y-79021145D01*
X147199198Y-79050802D01*
X147228855Y-79083523D01*
X147255161Y-79118993D01*
X147277865Y-79156871D01*
X147296746Y-79196792D01*
X147311623Y-79238372D01*
X147322353Y-79281209D01*
X147328833Y-79324892D01*
X147331000Y-79369000D01*
X147331000Y-80969000D01*
X147328833Y-81013108D01*
X147322353Y-81056791D01*
X147311623Y-81099628D01*
X147296746Y-81141208D01*
X147277865Y-81181129D01*
X147255161Y-81219007D01*
X147228855Y-81254477D01*
X147199198Y-81287198D01*
X147166477Y-81316855D01*
X147131007Y-81343161D01*
X147093129Y-81365865D01*
X147053208Y-81384746D01*
X147011628Y-81399623D01*
X146968791Y-81410353D01*
X146925108Y-81416833D01*
X146881000Y-81419000D01*
X145981000Y-81419000D01*
X145936892Y-81416833D01*
X145893209Y-81410353D01*
X145850372Y-81399623D01*
X145808792Y-81384746D01*
X145768871Y-81365865D01*
X145730993Y-81343161D01*
X145695523Y-81316855D01*
X145662802Y-81287198D01*
X145633145Y-81254477D01*
X145606839Y-81219007D01*
X145584135Y-81181129D01*
X145565254Y-81141208D01*
X145550377Y-81099628D01*
X145539647Y-81056791D01*
X145533167Y-81013108D01*
X145531000Y-80969000D01*
X145531000Y-79369000D01*
X145533167Y-79324892D01*
X145539647Y-79281209D01*
X145550377Y-79238372D01*
X145565254Y-79196792D01*
X145584135Y-79156871D01*
X145606839Y-79118993D01*
X145633145Y-79083523D01*
X145662802Y-79050802D01*
X145695523Y-79021145D01*
X145730993Y-78994839D01*
X145768871Y-78972135D01*
X145808792Y-78953254D01*
X145850372Y-78938377D01*
X145893209Y-78927647D01*
X145936892Y-78921167D01*
X145981000Y-78919000D01*
X146881000Y-78919000D01*
X146925108Y-78921167D01*
X146925108Y-78921167D01*
G37*
D15*
G04 #@! TD*
G04 #@! TO.P,D6,2*
G04 #@! TO.N,+5V*
X146431000Y-80169000D03*
D11*
G04 #@! TO.P,D7,1*
G04 #@! TO.N,USB1_FPGA_D-*
X141879000Y-93980000D03*
G04 #@! TO.P,D7,2*
G04 #@! TO.N,GND*
X144379000Y-93980000D03*
G04 #@! TD*
G04 #@! TO.P,D8,1*
G04 #@! TO.N,Net-(D8-Pad1)*
X146685000Y-105557000D03*
G04 #@! TO.P,D8,2*
G04 #@! TO.N,USB2_FPGA_PULL_D+*
X146685000Y-108057000D03*
G04 #@! TD*
G04 #@! TO.P,D9,1*
G04 #@! TO.N,USB2_FPGA_PULL_D+*
X149987000Y-108057000D03*
G04 #@! TO.P,D9,2*
G04 #@! TO.N,Net-(D9-Pad2)*
X149987000Y-105557000D03*
G04 #@! TD*
G04 #@! TO.P,D10,2*
G04 #@! TO.N,USB2_FPGA_PULL_D-*
X153289000Y-108057000D03*
G04 #@! TO.P,D10,1*
G04 #@! TO.N,Net-(D10-Pad1)*
X153289000Y-105557000D03*
G04 #@! TD*
G04 #@! TO.P,D11,2*
G04 #@! TO.N,Net-(D11-Pad2)*
X156718000Y-105557000D03*
G04 #@! TO.P,D11,1*
G04 #@! TO.N,USB2_FPGA_PULL_D-*
X156718000Y-108057000D03*
G04 #@! TD*
D14*
G04 #@! TO.N,+5V*
G04 #@! TO.C,D13*
G36*
X172071108Y-78953167D02*
X172114791Y-78959647D01*
X172157628Y-78970377D01*
X172199208Y-78985254D01*
X172239129Y-79004135D01*
X172277007Y-79026839D01*
X172312477Y-79053145D01*
X172345198Y-79082802D01*
X172374855Y-79115523D01*
X172401161Y-79150993D01*
X172423865Y-79188871D01*
X172442746Y-79228792D01*
X172457623Y-79270372D01*
X172468353Y-79313209D01*
X172474833Y-79356892D01*
X172477000Y-79401000D01*
X172477000Y-81001000D01*
X172474833Y-81045108D01*
X172468353Y-81088791D01*
X172457623Y-81131628D01*
X172442746Y-81173208D01*
X172423865Y-81213129D01*
X172401161Y-81251007D01*
X172374855Y-81286477D01*
X172345198Y-81319198D01*
X172312477Y-81348855D01*
X172277007Y-81375161D01*
X172239129Y-81397865D01*
X172199208Y-81416746D01*
X172157628Y-81431623D01*
X172114791Y-81442353D01*
X172071108Y-81448833D01*
X172027000Y-81451000D01*
X171127000Y-81451000D01*
X171082892Y-81448833D01*
X171039209Y-81442353D01*
X170996372Y-81431623D01*
X170954792Y-81416746D01*
X170914871Y-81397865D01*
X170876993Y-81375161D01*
X170841523Y-81348855D01*
X170808802Y-81319198D01*
X170779145Y-81286477D01*
X170752839Y-81251007D01*
X170730135Y-81213129D01*
X170711254Y-81173208D01*
X170696377Y-81131628D01*
X170685647Y-81088791D01*
X170679167Y-81045108D01*
X170677000Y-81001000D01*
X170677000Y-79401000D01*
X170679167Y-79356892D01*
X170685647Y-79313209D01*
X170696377Y-79270372D01*
X170711254Y-79228792D01*
X170730135Y-79188871D01*
X170752839Y-79150993D01*
X170779145Y-79115523D01*
X170808802Y-79082802D01*
X170841523Y-79053145D01*
X170876993Y-79026839D01*
X170914871Y-79004135D01*
X170954792Y-78985254D01*
X170996372Y-78970377D01*
X171039209Y-78959647D01*
X171082892Y-78953167D01*
X171127000Y-78951000D01*
X172027000Y-78951000D01*
X172071108Y-78953167D01*
X172071108Y-78953167D01*
G37*
D15*
G04 #@! TD*
G04 #@! TO.P,D13,2*
G04 #@! TO.N,+5V*
X171577000Y-80201000D03*
D14*
G04 #@! TO.N,/US2VBUS*
G04 #@! TO.C,D13*
G36*
X172071108Y-82953167D02*
X172114791Y-82959647D01*
X172157628Y-82970377D01*
X172199208Y-82985254D01*
X172239129Y-83004135D01*
X172277007Y-83026839D01*
X172312477Y-83053145D01*
X172345198Y-83082802D01*
X172374855Y-83115523D01*
X172401161Y-83150993D01*
X172423865Y-83188871D01*
X172442746Y-83228792D01*
X172457623Y-83270372D01*
X172468353Y-83313209D01*
X172474833Y-83356892D01*
X172477000Y-83401000D01*
X172477000Y-85001000D01*
X172474833Y-85045108D01*
X172468353Y-85088791D01*
X172457623Y-85131628D01*
X172442746Y-85173208D01*
X172423865Y-85213129D01*
X172401161Y-85251007D01*
X172374855Y-85286477D01*
X172345198Y-85319198D01*
X172312477Y-85348855D01*
X172277007Y-85375161D01*
X172239129Y-85397865D01*
X172199208Y-85416746D01*
X172157628Y-85431623D01*
X172114791Y-85442353D01*
X172071108Y-85448833D01*
X172027000Y-85451000D01*
X171127000Y-85451000D01*
X171082892Y-85448833D01*
X171039209Y-85442353D01*
X170996372Y-85431623D01*
X170954792Y-85416746D01*
X170914871Y-85397865D01*
X170876993Y-85375161D01*
X170841523Y-85348855D01*
X170808802Y-85319198D01*
X170779145Y-85286477D01*
X170752839Y-85251007D01*
X170730135Y-85213129D01*
X170711254Y-85173208D01*
X170696377Y-85131628D01*
X170685647Y-85088791D01*
X170679167Y-85045108D01*
X170677000Y-85001000D01*
X170677000Y-83401000D01*
X170679167Y-83356892D01*
X170685647Y-83313209D01*
X170696377Y-83270372D01*
X170711254Y-83228792D01*
X170730135Y-83188871D01*
X170752839Y-83150993D01*
X170779145Y-83115523D01*
X170808802Y-83082802D01*
X170841523Y-83053145D01*
X170876993Y-83026839D01*
X170914871Y-83004135D01*
X170954792Y-82985254D01*
X170996372Y-82970377D01*
X171039209Y-82959647D01*
X171082892Y-82953167D01*
X171127000Y-82951000D01*
X172027000Y-82951000D01*
X172071108Y-82953167D01*
X172071108Y-82953167D01*
G37*
D15*
G04 #@! TD*
G04 #@! TO.P,D13,1*
G04 #@! TO.N,/US2VBUS*
X171577000Y-84201000D03*
D11*
G04 #@! TO.P,D14,2*
G04 #@! TO.N,GND*
X147721000Y-96139000D03*
G04 #@! TO.P,D14,1*
G04 #@! TO.N,USB2_FPGA_D-*
X150221000Y-96139000D03*
G04 #@! TD*
D14*
G04 #@! TO.N,Net-(D1-Pad1)*
G04 #@! TO.C,R1*
G36*
X135913691Y-100681053D02*
X135934926Y-100684203D01*
X135955750Y-100689419D01*
X135975962Y-100696651D01*
X135995368Y-100705830D01*
X136013781Y-100716866D01*
X136031024Y-100729654D01*
X136046930Y-100744070D01*
X136061346Y-100759976D01*
X136074134Y-100777219D01*
X136085170Y-100795632D01*
X136094349Y-100815038D01*
X136101581Y-100835250D01*
X136106797Y-100856074D01*
X136109947Y-100877309D01*
X136111000Y-100898750D01*
X136111000Y-101336250D01*
X136109947Y-101357691D01*
X136106797Y-101378926D01*
X136101581Y-101399750D01*
X136094349Y-101419962D01*
X136085170Y-101439368D01*
X136074134Y-101457781D01*
X136061346Y-101475024D01*
X136046930Y-101490930D01*
X136031024Y-101505346D01*
X136013781Y-101518134D01*
X135995368Y-101529170D01*
X135975962Y-101538349D01*
X135955750Y-101545581D01*
X135934926Y-101550797D01*
X135913691Y-101553947D01*
X135892250Y-101555000D01*
X135379750Y-101555000D01*
X135358309Y-101553947D01*
X135337074Y-101550797D01*
X135316250Y-101545581D01*
X135296038Y-101538349D01*
X135276632Y-101529170D01*
X135258219Y-101518134D01*
X135240976Y-101505346D01*
X135225070Y-101490930D01*
X135210654Y-101475024D01*
X135197866Y-101457781D01*
X135186830Y-101439368D01*
X135177651Y-101419962D01*
X135170419Y-101399750D01*
X135165203Y-101378926D01*
X135162053Y-101357691D01*
X135161000Y-101336250D01*
X135161000Y-100898750D01*
X135162053Y-100877309D01*
X135165203Y-100856074D01*
X135170419Y-100835250D01*
X135177651Y-100815038D01*
X135186830Y-100795632D01*
X135197866Y-100777219D01*
X135210654Y-100759976D01*
X135225070Y-100744070D01*
X135240976Y-100729654D01*
X135258219Y-100716866D01*
X135276632Y-100705830D01*
X135296038Y-100696651D01*
X135316250Y-100689419D01*
X135337074Y-100684203D01*
X135358309Y-100681053D01*
X135379750Y-100680000D01*
X135892250Y-100680000D01*
X135913691Y-100681053D01*
X135913691Y-100681053D01*
G37*
D16*
G04 #@! TD*
G04 #@! TO.P,R1,1*
G04 #@! TO.N,Net-(D1-Pad1)*
X135636000Y-101117500D03*
D14*
G04 #@! TO.N,USB1_FPGA_D+*
G04 #@! TO.C,R1*
G36*
X135913691Y-99106053D02*
X135934926Y-99109203D01*
X135955750Y-99114419D01*
X135975962Y-99121651D01*
X135995368Y-99130830D01*
X136013781Y-99141866D01*
X136031024Y-99154654D01*
X136046930Y-99169070D01*
X136061346Y-99184976D01*
X136074134Y-99202219D01*
X136085170Y-99220632D01*
X136094349Y-99240038D01*
X136101581Y-99260250D01*
X136106797Y-99281074D01*
X136109947Y-99302309D01*
X136111000Y-99323750D01*
X136111000Y-99761250D01*
X136109947Y-99782691D01*
X136106797Y-99803926D01*
X136101581Y-99824750D01*
X136094349Y-99844962D01*
X136085170Y-99864368D01*
X136074134Y-99882781D01*
X136061346Y-99900024D01*
X136046930Y-99915930D01*
X136031024Y-99930346D01*
X136013781Y-99943134D01*
X135995368Y-99954170D01*
X135975962Y-99963349D01*
X135955750Y-99970581D01*
X135934926Y-99975797D01*
X135913691Y-99978947D01*
X135892250Y-99980000D01*
X135379750Y-99980000D01*
X135358309Y-99978947D01*
X135337074Y-99975797D01*
X135316250Y-99970581D01*
X135296038Y-99963349D01*
X135276632Y-99954170D01*
X135258219Y-99943134D01*
X135240976Y-99930346D01*
X135225070Y-99915930D01*
X135210654Y-99900024D01*
X135197866Y-99882781D01*
X135186830Y-99864368D01*
X135177651Y-99844962D01*
X135170419Y-99824750D01*
X135165203Y-99803926D01*
X135162053Y-99782691D01*
X135161000Y-99761250D01*
X135161000Y-99323750D01*
X135162053Y-99302309D01*
X135165203Y-99281074D01*
X135170419Y-99260250D01*
X135177651Y-99240038D01*
X135186830Y-99220632D01*
X135197866Y-99202219D01*
X135210654Y-99184976D01*
X135225070Y-99169070D01*
X135240976Y-99154654D01*
X135258219Y-99141866D01*
X135276632Y-99130830D01*
X135296038Y-99121651D01*
X135316250Y-99114419D01*
X135337074Y-99109203D01*
X135358309Y-99106053D01*
X135379750Y-99105000D01*
X135892250Y-99105000D01*
X135913691Y-99106053D01*
X135913691Y-99106053D01*
G37*
D16*
G04 #@! TD*
G04 #@! TO.P,R1,2*
G04 #@! TO.N,USB1_FPGA_D+*
X135636000Y-99542500D03*
D14*
G04 #@! TO.N,USB1_FPGA_D+*
G04 #@! TO.C,R2*
G36*
X137818691Y-99106053D02*
X137839926Y-99109203D01*
X137860750Y-99114419D01*
X137880962Y-99121651D01*
X137900368Y-99130830D01*
X137918781Y-99141866D01*
X137936024Y-99154654D01*
X137951930Y-99169070D01*
X137966346Y-99184976D01*
X137979134Y-99202219D01*
X137990170Y-99220632D01*
X137999349Y-99240038D01*
X138006581Y-99260250D01*
X138011797Y-99281074D01*
X138014947Y-99302309D01*
X138016000Y-99323750D01*
X138016000Y-99761250D01*
X138014947Y-99782691D01*
X138011797Y-99803926D01*
X138006581Y-99824750D01*
X137999349Y-99844962D01*
X137990170Y-99864368D01*
X137979134Y-99882781D01*
X137966346Y-99900024D01*
X137951930Y-99915930D01*
X137936024Y-99930346D01*
X137918781Y-99943134D01*
X137900368Y-99954170D01*
X137880962Y-99963349D01*
X137860750Y-99970581D01*
X137839926Y-99975797D01*
X137818691Y-99978947D01*
X137797250Y-99980000D01*
X137284750Y-99980000D01*
X137263309Y-99978947D01*
X137242074Y-99975797D01*
X137221250Y-99970581D01*
X137201038Y-99963349D01*
X137181632Y-99954170D01*
X137163219Y-99943134D01*
X137145976Y-99930346D01*
X137130070Y-99915930D01*
X137115654Y-99900024D01*
X137102866Y-99882781D01*
X137091830Y-99864368D01*
X137082651Y-99844962D01*
X137075419Y-99824750D01*
X137070203Y-99803926D01*
X137067053Y-99782691D01*
X137066000Y-99761250D01*
X137066000Y-99323750D01*
X137067053Y-99302309D01*
X137070203Y-99281074D01*
X137075419Y-99260250D01*
X137082651Y-99240038D01*
X137091830Y-99220632D01*
X137102866Y-99202219D01*
X137115654Y-99184976D01*
X137130070Y-99169070D01*
X137145976Y-99154654D01*
X137163219Y-99141866D01*
X137181632Y-99130830D01*
X137201038Y-99121651D01*
X137221250Y-99114419D01*
X137242074Y-99109203D01*
X137263309Y-99106053D01*
X137284750Y-99105000D01*
X137797250Y-99105000D01*
X137818691Y-99106053D01*
X137818691Y-99106053D01*
G37*
D16*
G04 #@! TD*
G04 #@! TO.P,R2,2*
G04 #@! TO.N,USB1_FPGA_D+*
X137541000Y-99542500D03*
D14*
G04 #@! TO.N,Net-(D2-Pad2)*
G04 #@! TO.C,R2*
G36*
X137818691Y-100681053D02*
X137839926Y-100684203D01*
X137860750Y-100689419D01*
X137880962Y-100696651D01*
X137900368Y-100705830D01*
X137918781Y-100716866D01*
X137936024Y-100729654D01*
X137951930Y-100744070D01*
X137966346Y-100759976D01*
X137979134Y-100777219D01*
X137990170Y-100795632D01*
X137999349Y-100815038D01*
X138006581Y-100835250D01*
X138011797Y-100856074D01*
X138014947Y-100877309D01*
X138016000Y-100898750D01*
X138016000Y-101336250D01*
X138014947Y-101357691D01*
X138011797Y-101378926D01*
X138006581Y-101399750D01*
X137999349Y-101419962D01*
X137990170Y-101439368D01*
X137979134Y-101457781D01*
X137966346Y-101475024D01*
X137951930Y-101490930D01*
X137936024Y-101505346D01*
X137918781Y-101518134D01*
X137900368Y-101529170D01*
X137880962Y-101538349D01*
X137860750Y-101545581D01*
X137839926Y-101550797D01*
X137818691Y-101553947D01*
X137797250Y-101555000D01*
X137284750Y-101555000D01*
X137263309Y-101553947D01*
X137242074Y-101550797D01*
X137221250Y-101545581D01*
X137201038Y-101538349D01*
X137181632Y-101529170D01*
X137163219Y-101518134D01*
X137145976Y-101505346D01*
X137130070Y-101490930D01*
X137115654Y-101475024D01*
X137102866Y-101457781D01*
X137091830Y-101439368D01*
X137082651Y-101419962D01*
X137075419Y-101399750D01*
X137070203Y-101378926D01*
X137067053Y-101357691D01*
X137066000Y-101336250D01*
X137066000Y-100898750D01*
X137067053Y-100877309D01*
X137070203Y-100856074D01*
X137075419Y-100835250D01*
X137082651Y-100815038D01*
X137091830Y-100795632D01*
X137102866Y-100777219D01*
X137115654Y-100759976D01*
X137130070Y-100744070D01*
X137145976Y-100729654D01*
X137163219Y-100716866D01*
X137181632Y-100705830D01*
X137201038Y-100696651D01*
X137221250Y-100689419D01*
X137242074Y-100684203D01*
X137263309Y-100681053D01*
X137284750Y-100680000D01*
X137797250Y-100680000D01*
X137818691Y-100681053D01*
X137818691Y-100681053D01*
G37*
D16*
G04 #@! TD*
G04 #@! TO.P,R2,1*
G04 #@! TO.N,Net-(D2-Pad2)*
X137541000Y-101117500D03*
D14*
G04 #@! TO.N,USB1_FPGA_D-*
G04 #@! TO.C,R3*
G36*
X141628691Y-99106053D02*
X141649926Y-99109203D01*
X141670750Y-99114419D01*
X141690962Y-99121651D01*
X141710368Y-99130830D01*
X141728781Y-99141866D01*
X141746024Y-99154654D01*
X141761930Y-99169070D01*
X141776346Y-99184976D01*
X141789134Y-99202219D01*
X141800170Y-99220632D01*
X141809349Y-99240038D01*
X141816581Y-99260250D01*
X141821797Y-99281074D01*
X141824947Y-99302309D01*
X141826000Y-99323750D01*
X141826000Y-99761250D01*
X141824947Y-99782691D01*
X141821797Y-99803926D01*
X141816581Y-99824750D01*
X141809349Y-99844962D01*
X141800170Y-99864368D01*
X141789134Y-99882781D01*
X141776346Y-99900024D01*
X141761930Y-99915930D01*
X141746024Y-99930346D01*
X141728781Y-99943134D01*
X141710368Y-99954170D01*
X141690962Y-99963349D01*
X141670750Y-99970581D01*
X141649926Y-99975797D01*
X141628691Y-99978947D01*
X141607250Y-99980000D01*
X141094750Y-99980000D01*
X141073309Y-99978947D01*
X141052074Y-99975797D01*
X141031250Y-99970581D01*
X141011038Y-99963349D01*
X140991632Y-99954170D01*
X140973219Y-99943134D01*
X140955976Y-99930346D01*
X140940070Y-99915930D01*
X140925654Y-99900024D01*
X140912866Y-99882781D01*
X140901830Y-99864368D01*
X140892651Y-99844962D01*
X140885419Y-99824750D01*
X140880203Y-99803926D01*
X140877053Y-99782691D01*
X140876000Y-99761250D01*
X140876000Y-99323750D01*
X140877053Y-99302309D01*
X140880203Y-99281074D01*
X140885419Y-99260250D01*
X140892651Y-99240038D01*
X140901830Y-99220632D01*
X140912866Y-99202219D01*
X140925654Y-99184976D01*
X140940070Y-99169070D01*
X140955976Y-99154654D01*
X140973219Y-99141866D01*
X140991632Y-99130830D01*
X141011038Y-99121651D01*
X141031250Y-99114419D01*
X141052074Y-99109203D01*
X141073309Y-99106053D01*
X141094750Y-99105000D01*
X141607250Y-99105000D01*
X141628691Y-99106053D01*
X141628691Y-99106053D01*
G37*
D16*
G04 #@! TD*
G04 #@! TO.P,R3,1*
G04 #@! TO.N,USB1_FPGA_D-*
X141351000Y-99542500D03*
D14*
G04 #@! TO.N,Net-(D3-Pad1)*
G04 #@! TO.C,R3*
G36*
X141628691Y-100681053D02*
X141649926Y-100684203D01*
X141670750Y-100689419D01*
X141690962Y-100696651D01*
X141710368Y-100705830D01*
X141728781Y-100716866D01*
X141746024Y-100729654D01*
X141761930Y-100744070D01*
X141776346Y-100759976D01*
X141789134Y-100777219D01*
X141800170Y-100795632D01*
X141809349Y-100815038D01*
X141816581Y-100835250D01*
X141821797Y-100856074D01*
X141824947Y-100877309D01*
X141826000Y-100898750D01*
X141826000Y-101336250D01*
X141824947Y-101357691D01*
X141821797Y-101378926D01*
X141816581Y-101399750D01*
X141809349Y-101419962D01*
X141800170Y-101439368D01*
X141789134Y-101457781D01*
X141776346Y-101475024D01*
X141761930Y-101490930D01*
X141746024Y-101505346D01*
X141728781Y-101518134D01*
X141710368Y-101529170D01*
X141690962Y-101538349D01*
X141670750Y-101545581D01*
X141649926Y-101550797D01*
X141628691Y-101553947D01*
X141607250Y-101555000D01*
X141094750Y-101555000D01*
X141073309Y-101553947D01*
X141052074Y-101550797D01*
X141031250Y-101545581D01*
X141011038Y-101538349D01*
X140991632Y-101529170D01*
X140973219Y-101518134D01*
X140955976Y-101505346D01*
X140940070Y-101490930D01*
X140925654Y-101475024D01*
X140912866Y-101457781D01*
X140901830Y-101439368D01*
X140892651Y-101419962D01*
X140885419Y-101399750D01*
X140880203Y-101378926D01*
X140877053Y-101357691D01*
X140876000Y-101336250D01*
X140876000Y-100898750D01*
X140877053Y-100877309D01*
X140880203Y-100856074D01*
X140885419Y-100835250D01*
X140892651Y-100815038D01*
X140901830Y-100795632D01*
X140912866Y-100777219D01*
X140925654Y-100759976D01*
X140940070Y-100744070D01*
X140955976Y-100729654D01*
X140973219Y-100716866D01*
X140991632Y-100705830D01*
X141011038Y-100696651D01*
X141031250Y-100689419D01*
X141052074Y-100684203D01*
X141073309Y-100681053D01*
X141094750Y-100680000D01*
X141607250Y-100680000D01*
X141628691Y-100681053D01*
X141628691Y-100681053D01*
G37*
D16*
G04 #@! TD*
G04 #@! TO.P,R3,2*
G04 #@! TO.N,Net-(D3-Pad1)*
X141351000Y-101117500D03*
D14*
G04 #@! TO.N,Net-(D4-Pad2)*
G04 #@! TO.C,R4*
G36*
X139723691Y-100681053D02*
X139744926Y-100684203D01*
X139765750Y-100689419D01*
X139785962Y-100696651D01*
X139805368Y-100705830D01*
X139823781Y-100716866D01*
X139841024Y-100729654D01*
X139856930Y-100744070D01*
X139871346Y-100759976D01*
X139884134Y-100777219D01*
X139895170Y-100795632D01*
X139904349Y-100815038D01*
X139911581Y-100835250D01*
X139916797Y-100856074D01*
X139919947Y-100877309D01*
X139921000Y-100898750D01*
X139921000Y-101336250D01*
X139919947Y-101357691D01*
X139916797Y-101378926D01*
X139911581Y-101399750D01*
X139904349Y-101419962D01*
X139895170Y-101439368D01*
X139884134Y-101457781D01*
X139871346Y-101475024D01*
X139856930Y-101490930D01*
X139841024Y-101505346D01*
X139823781Y-101518134D01*
X139805368Y-101529170D01*
X139785962Y-101538349D01*
X139765750Y-101545581D01*
X139744926Y-101550797D01*
X139723691Y-101553947D01*
X139702250Y-101555000D01*
X139189750Y-101555000D01*
X139168309Y-101553947D01*
X139147074Y-101550797D01*
X139126250Y-101545581D01*
X139106038Y-101538349D01*
X139086632Y-101529170D01*
X139068219Y-101518134D01*
X139050976Y-101505346D01*
X139035070Y-101490930D01*
X139020654Y-101475024D01*
X139007866Y-101457781D01*
X138996830Y-101439368D01*
X138987651Y-101419962D01*
X138980419Y-101399750D01*
X138975203Y-101378926D01*
X138972053Y-101357691D01*
X138971000Y-101336250D01*
X138971000Y-100898750D01*
X138972053Y-100877309D01*
X138975203Y-100856074D01*
X138980419Y-100835250D01*
X138987651Y-100815038D01*
X138996830Y-100795632D01*
X139007866Y-100777219D01*
X139020654Y-100759976D01*
X139035070Y-100744070D01*
X139050976Y-100729654D01*
X139068219Y-100716866D01*
X139086632Y-100705830D01*
X139106038Y-100696651D01*
X139126250Y-100689419D01*
X139147074Y-100684203D01*
X139168309Y-100681053D01*
X139189750Y-100680000D01*
X139702250Y-100680000D01*
X139723691Y-100681053D01*
X139723691Y-100681053D01*
G37*
D16*
G04 #@! TD*
G04 #@! TO.P,R4,1*
G04 #@! TO.N,Net-(D4-Pad2)*
X139446000Y-101117500D03*
D14*
G04 #@! TO.N,USB1_FPGA_D-*
G04 #@! TO.C,R4*
G36*
X139723691Y-99106053D02*
X139744926Y-99109203D01*
X139765750Y-99114419D01*
X139785962Y-99121651D01*
X139805368Y-99130830D01*
X139823781Y-99141866D01*
X139841024Y-99154654D01*
X139856930Y-99169070D01*
X139871346Y-99184976D01*
X139884134Y-99202219D01*
X139895170Y-99220632D01*
X139904349Y-99240038D01*
X139911581Y-99260250D01*
X139916797Y-99281074D01*
X139919947Y-99302309D01*
X139921000Y-99323750D01*
X139921000Y-99761250D01*
X139919947Y-99782691D01*
X139916797Y-99803926D01*
X139911581Y-99824750D01*
X139904349Y-99844962D01*
X139895170Y-99864368D01*
X139884134Y-99882781D01*
X139871346Y-99900024D01*
X139856930Y-99915930D01*
X139841024Y-99930346D01*
X139823781Y-99943134D01*
X139805368Y-99954170D01*
X139785962Y-99963349D01*
X139765750Y-99970581D01*
X139744926Y-99975797D01*
X139723691Y-99978947D01*
X139702250Y-99980000D01*
X139189750Y-99980000D01*
X139168309Y-99978947D01*
X139147074Y-99975797D01*
X139126250Y-99970581D01*
X139106038Y-99963349D01*
X139086632Y-99954170D01*
X139068219Y-99943134D01*
X139050976Y-99930346D01*
X139035070Y-99915930D01*
X139020654Y-99900024D01*
X139007866Y-99882781D01*
X138996830Y-99864368D01*
X138987651Y-99844962D01*
X138980419Y-99824750D01*
X138975203Y-99803926D01*
X138972053Y-99782691D01*
X138971000Y-99761250D01*
X138971000Y-99323750D01*
X138972053Y-99302309D01*
X138975203Y-99281074D01*
X138980419Y-99260250D01*
X138987651Y-99240038D01*
X138996830Y-99220632D01*
X139007866Y-99202219D01*
X139020654Y-99184976D01*
X139035070Y-99169070D01*
X139050976Y-99154654D01*
X139068219Y-99141866D01*
X139086632Y-99130830D01*
X139106038Y-99121651D01*
X139126250Y-99114419D01*
X139147074Y-99109203D01*
X139168309Y-99106053D01*
X139189750Y-99105000D01*
X139702250Y-99105000D01*
X139723691Y-99106053D01*
X139723691Y-99106053D01*
G37*
D16*
G04 #@! TD*
G04 #@! TO.P,R4,2*
G04 #@! TO.N,USB1_FPGA_D-*
X139446000Y-99542500D03*
D14*
G04 #@! TO.N,/FPD1-*
G04 #@! TO.C,R5*
G36*
X137691691Y-94153053D02*
X137712926Y-94156203D01*
X137733750Y-94161419D01*
X137753962Y-94168651D01*
X137773368Y-94177830D01*
X137791781Y-94188866D01*
X137809024Y-94201654D01*
X137824930Y-94216070D01*
X137839346Y-94231976D01*
X137852134Y-94249219D01*
X137863170Y-94267632D01*
X137872349Y-94287038D01*
X137879581Y-94307250D01*
X137884797Y-94328074D01*
X137887947Y-94349309D01*
X137889000Y-94370750D01*
X137889000Y-94808250D01*
X137887947Y-94829691D01*
X137884797Y-94850926D01*
X137879581Y-94871750D01*
X137872349Y-94891962D01*
X137863170Y-94911368D01*
X137852134Y-94929781D01*
X137839346Y-94947024D01*
X137824930Y-94962930D01*
X137809024Y-94977346D01*
X137791781Y-94990134D01*
X137773368Y-95001170D01*
X137753962Y-95010349D01*
X137733750Y-95017581D01*
X137712926Y-95022797D01*
X137691691Y-95025947D01*
X137670250Y-95027000D01*
X137157750Y-95027000D01*
X137136309Y-95025947D01*
X137115074Y-95022797D01*
X137094250Y-95017581D01*
X137074038Y-95010349D01*
X137054632Y-95001170D01*
X137036219Y-94990134D01*
X137018976Y-94977346D01*
X137003070Y-94962930D01*
X136988654Y-94947024D01*
X136975866Y-94929781D01*
X136964830Y-94911368D01*
X136955651Y-94891962D01*
X136948419Y-94871750D01*
X136943203Y-94850926D01*
X136940053Y-94829691D01*
X136939000Y-94808250D01*
X136939000Y-94370750D01*
X136940053Y-94349309D01*
X136943203Y-94328074D01*
X136948419Y-94307250D01*
X136955651Y-94287038D01*
X136964830Y-94267632D01*
X136975866Y-94249219D01*
X136988654Y-94231976D01*
X137003070Y-94216070D01*
X137018976Y-94201654D01*
X137036219Y-94188866D01*
X137054632Y-94177830D01*
X137074038Y-94168651D01*
X137094250Y-94161419D01*
X137115074Y-94156203D01*
X137136309Y-94153053D01*
X137157750Y-94152000D01*
X137670250Y-94152000D01*
X137691691Y-94153053D01*
X137691691Y-94153053D01*
G37*
D16*
G04 #@! TD*
G04 #@! TO.P,R5,2*
G04 #@! TO.N,/FPD1-*
X137414000Y-94589500D03*
D14*
G04 #@! TO.N,USB1_FPGA_D-*
G04 #@! TO.C,R5*
G36*
X137691691Y-95728053D02*
X137712926Y-95731203D01*
X137733750Y-95736419D01*
X137753962Y-95743651D01*
X137773368Y-95752830D01*
X137791781Y-95763866D01*
X137809024Y-95776654D01*
X137824930Y-95791070D01*
X137839346Y-95806976D01*
X137852134Y-95824219D01*
X137863170Y-95842632D01*
X137872349Y-95862038D01*
X137879581Y-95882250D01*
X137884797Y-95903074D01*
X137887947Y-95924309D01*
X137889000Y-95945750D01*
X137889000Y-96383250D01*
X137887947Y-96404691D01*
X137884797Y-96425926D01*
X137879581Y-96446750D01*
X137872349Y-96466962D01*
X137863170Y-96486368D01*
X137852134Y-96504781D01*
X137839346Y-96522024D01*
X137824930Y-96537930D01*
X137809024Y-96552346D01*
X137791781Y-96565134D01*
X137773368Y-96576170D01*
X137753962Y-96585349D01*
X137733750Y-96592581D01*
X137712926Y-96597797D01*
X137691691Y-96600947D01*
X137670250Y-96602000D01*
X137157750Y-96602000D01*
X137136309Y-96600947D01*
X137115074Y-96597797D01*
X137094250Y-96592581D01*
X137074038Y-96585349D01*
X137054632Y-96576170D01*
X137036219Y-96565134D01*
X137018976Y-96552346D01*
X137003070Y-96537930D01*
X136988654Y-96522024D01*
X136975866Y-96504781D01*
X136964830Y-96486368D01*
X136955651Y-96466962D01*
X136948419Y-96446750D01*
X136943203Y-96425926D01*
X136940053Y-96404691D01*
X136939000Y-96383250D01*
X136939000Y-95945750D01*
X136940053Y-95924309D01*
X136943203Y-95903074D01*
X136948419Y-95882250D01*
X136955651Y-95862038D01*
X136964830Y-95842632D01*
X136975866Y-95824219D01*
X136988654Y-95806976D01*
X137003070Y-95791070D01*
X137018976Y-95776654D01*
X137036219Y-95763866D01*
X137054632Y-95752830D01*
X137074038Y-95743651D01*
X137094250Y-95736419D01*
X137115074Y-95731203D01*
X137136309Y-95728053D01*
X137157750Y-95727000D01*
X137670250Y-95727000D01*
X137691691Y-95728053D01*
X137691691Y-95728053D01*
G37*
D16*
G04 #@! TD*
G04 #@! TO.P,R5,1*
G04 #@! TO.N,USB1_FPGA_D-*
X137414000Y-96164500D03*
D14*
G04 #@! TO.N,/FPD1+*
G04 #@! TO.C,R6*
G36*
X135786691Y-94153053D02*
X135807926Y-94156203D01*
X135828750Y-94161419D01*
X135848962Y-94168651D01*
X135868368Y-94177830D01*
X135886781Y-94188866D01*
X135904024Y-94201654D01*
X135919930Y-94216070D01*
X135934346Y-94231976D01*
X135947134Y-94249219D01*
X135958170Y-94267632D01*
X135967349Y-94287038D01*
X135974581Y-94307250D01*
X135979797Y-94328074D01*
X135982947Y-94349309D01*
X135984000Y-94370750D01*
X135984000Y-94808250D01*
X135982947Y-94829691D01*
X135979797Y-94850926D01*
X135974581Y-94871750D01*
X135967349Y-94891962D01*
X135958170Y-94911368D01*
X135947134Y-94929781D01*
X135934346Y-94947024D01*
X135919930Y-94962930D01*
X135904024Y-94977346D01*
X135886781Y-94990134D01*
X135868368Y-95001170D01*
X135848962Y-95010349D01*
X135828750Y-95017581D01*
X135807926Y-95022797D01*
X135786691Y-95025947D01*
X135765250Y-95027000D01*
X135252750Y-95027000D01*
X135231309Y-95025947D01*
X135210074Y-95022797D01*
X135189250Y-95017581D01*
X135169038Y-95010349D01*
X135149632Y-95001170D01*
X135131219Y-94990134D01*
X135113976Y-94977346D01*
X135098070Y-94962930D01*
X135083654Y-94947024D01*
X135070866Y-94929781D01*
X135059830Y-94911368D01*
X135050651Y-94891962D01*
X135043419Y-94871750D01*
X135038203Y-94850926D01*
X135035053Y-94829691D01*
X135034000Y-94808250D01*
X135034000Y-94370750D01*
X135035053Y-94349309D01*
X135038203Y-94328074D01*
X135043419Y-94307250D01*
X135050651Y-94287038D01*
X135059830Y-94267632D01*
X135070866Y-94249219D01*
X135083654Y-94231976D01*
X135098070Y-94216070D01*
X135113976Y-94201654D01*
X135131219Y-94188866D01*
X135149632Y-94177830D01*
X135169038Y-94168651D01*
X135189250Y-94161419D01*
X135210074Y-94156203D01*
X135231309Y-94153053D01*
X135252750Y-94152000D01*
X135765250Y-94152000D01*
X135786691Y-94153053D01*
X135786691Y-94153053D01*
G37*
D16*
G04 #@! TD*
G04 #@! TO.P,R6,2*
G04 #@! TO.N,/FPD1+*
X135509000Y-94589500D03*
D14*
G04 #@! TO.N,USB1_FPGA_D+*
G04 #@! TO.C,R6*
G36*
X135786691Y-95728053D02*
X135807926Y-95731203D01*
X135828750Y-95736419D01*
X135848962Y-95743651D01*
X135868368Y-95752830D01*
X135886781Y-95763866D01*
X135904024Y-95776654D01*
X135919930Y-95791070D01*
X135934346Y-95806976D01*
X135947134Y-95824219D01*
X135958170Y-95842632D01*
X135967349Y-95862038D01*
X135974581Y-95882250D01*
X135979797Y-95903074D01*
X135982947Y-95924309D01*
X135984000Y-95945750D01*
X135984000Y-96383250D01*
X135982947Y-96404691D01*
X135979797Y-96425926D01*
X135974581Y-96446750D01*
X135967349Y-96466962D01*
X135958170Y-96486368D01*
X135947134Y-96504781D01*
X135934346Y-96522024D01*
X135919930Y-96537930D01*
X135904024Y-96552346D01*
X135886781Y-96565134D01*
X135868368Y-96576170D01*
X135848962Y-96585349D01*
X135828750Y-96592581D01*
X135807926Y-96597797D01*
X135786691Y-96600947D01*
X135765250Y-96602000D01*
X135252750Y-96602000D01*
X135231309Y-96600947D01*
X135210074Y-96597797D01*
X135189250Y-96592581D01*
X135169038Y-96585349D01*
X135149632Y-96576170D01*
X135131219Y-96565134D01*
X135113976Y-96552346D01*
X135098070Y-96537930D01*
X135083654Y-96522024D01*
X135070866Y-96504781D01*
X135059830Y-96486368D01*
X135050651Y-96466962D01*
X135043419Y-96446750D01*
X135038203Y-96425926D01*
X135035053Y-96404691D01*
X135034000Y-96383250D01*
X135034000Y-95945750D01*
X135035053Y-95924309D01*
X135038203Y-95903074D01*
X135043419Y-95882250D01*
X135050651Y-95862038D01*
X135059830Y-95842632D01*
X135070866Y-95824219D01*
X135083654Y-95806976D01*
X135098070Y-95791070D01*
X135113976Y-95776654D01*
X135131219Y-95763866D01*
X135149632Y-95752830D01*
X135169038Y-95743651D01*
X135189250Y-95736419D01*
X135210074Y-95731203D01*
X135231309Y-95728053D01*
X135252750Y-95727000D01*
X135765250Y-95727000D01*
X135786691Y-95728053D01*
X135786691Y-95728053D01*
G37*
D16*
G04 #@! TD*
G04 #@! TO.P,R6,1*
G04 #@! TO.N,USB1_FPGA_D+*
X135509000Y-96164500D03*
D14*
G04 #@! TO.N,USB2_FPGA_D+*
G04 #@! TO.C,R7*
G36*
X151026691Y-99106053D02*
X151047926Y-99109203D01*
X151068750Y-99114419D01*
X151088962Y-99121651D01*
X151108368Y-99130830D01*
X151126781Y-99141866D01*
X151144024Y-99154654D01*
X151159930Y-99169070D01*
X151174346Y-99184976D01*
X151187134Y-99202219D01*
X151198170Y-99220632D01*
X151207349Y-99240038D01*
X151214581Y-99260250D01*
X151219797Y-99281074D01*
X151222947Y-99302309D01*
X151224000Y-99323750D01*
X151224000Y-99761250D01*
X151222947Y-99782691D01*
X151219797Y-99803926D01*
X151214581Y-99824750D01*
X151207349Y-99844962D01*
X151198170Y-99864368D01*
X151187134Y-99882781D01*
X151174346Y-99900024D01*
X151159930Y-99915930D01*
X151144024Y-99930346D01*
X151126781Y-99943134D01*
X151108368Y-99954170D01*
X151088962Y-99963349D01*
X151068750Y-99970581D01*
X151047926Y-99975797D01*
X151026691Y-99978947D01*
X151005250Y-99980000D01*
X150492750Y-99980000D01*
X150471309Y-99978947D01*
X150450074Y-99975797D01*
X150429250Y-99970581D01*
X150409038Y-99963349D01*
X150389632Y-99954170D01*
X150371219Y-99943134D01*
X150353976Y-99930346D01*
X150338070Y-99915930D01*
X150323654Y-99900024D01*
X150310866Y-99882781D01*
X150299830Y-99864368D01*
X150290651Y-99844962D01*
X150283419Y-99824750D01*
X150278203Y-99803926D01*
X150275053Y-99782691D01*
X150274000Y-99761250D01*
X150274000Y-99323750D01*
X150275053Y-99302309D01*
X150278203Y-99281074D01*
X150283419Y-99260250D01*
X150290651Y-99240038D01*
X150299830Y-99220632D01*
X150310866Y-99202219D01*
X150323654Y-99184976D01*
X150338070Y-99169070D01*
X150353976Y-99154654D01*
X150371219Y-99141866D01*
X150389632Y-99130830D01*
X150409038Y-99121651D01*
X150429250Y-99114419D01*
X150450074Y-99109203D01*
X150471309Y-99106053D01*
X150492750Y-99105000D01*
X151005250Y-99105000D01*
X151026691Y-99106053D01*
X151026691Y-99106053D01*
G37*
D16*
G04 #@! TD*
G04 #@! TO.P,R7,2*
G04 #@! TO.N,USB2_FPGA_D+*
X150749000Y-99542500D03*
D14*
G04 #@! TO.N,Net-(D8-Pad1)*
G04 #@! TO.C,R7*
G36*
X151026691Y-100681053D02*
X151047926Y-100684203D01*
X151068750Y-100689419D01*
X151088962Y-100696651D01*
X151108368Y-100705830D01*
X151126781Y-100716866D01*
X151144024Y-100729654D01*
X151159930Y-100744070D01*
X151174346Y-100759976D01*
X151187134Y-100777219D01*
X151198170Y-100795632D01*
X151207349Y-100815038D01*
X151214581Y-100835250D01*
X151219797Y-100856074D01*
X151222947Y-100877309D01*
X151224000Y-100898750D01*
X151224000Y-101336250D01*
X151222947Y-101357691D01*
X151219797Y-101378926D01*
X151214581Y-101399750D01*
X151207349Y-101419962D01*
X151198170Y-101439368D01*
X151187134Y-101457781D01*
X151174346Y-101475024D01*
X151159930Y-101490930D01*
X151144024Y-101505346D01*
X151126781Y-101518134D01*
X151108368Y-101529170D01*
X151088962Y-101538349D01*
X151068750Y-101545581D01*
X151047926Y-101550797D01*
X151026691Y-101553947D01*
X151005250Y-101555000D01*
X150492750Y-101555000D01*
X150471309Y-101553947D01*
X150450074Y-101550797D01*
X150429250Y-101545581D01*
X150409038Y-101538349D01*
X150389632Y-101529170D01*
X150371219Y-101518134D01*
X150353976Y-101505346D01*
X150338070Y-101490930D01*
X150323654Y-101475024D01*
X150310866Y-101457781D01*
X150299830Y-101439368D01*
X150290651Y-101419962D01*
X150283419Y-101399750D01*
X150278203Y-101378926D01*
X150275053Y-101357691D01*
X150274000Y-101336250D01*
X150274000Y-100898750D01*
X150275053Y-100877309D01*
X150278203Y-100856074D01*
X150283419Y-100835250D01*
X150290651Y-100815038D01*
X150299830Y-100795632D01*
X150310866Y-100777219D01*
X150323654Y-100759976D01*
X150338070Y-100744070D01*
X150353976Y-100729654D01*
X150371219Y-100716866D01*
X150389632Y-100705830D01*
X150409038Y-100696651D01*
X150429250Y-100689419D01*
X150450074Y-100684203D01*
X150471309Y-100681053D01*
X150492750Y-100680000D01*
X151005250Y-100680000D01*
X151026691Y-100681053D01*
X151026691Y-100681053D01*
G37*
D16*
G04 #@! TD*
G04 #@! TO.P,R7,1*
G04 #@! TO.N,Net-(D8-Pad1)*
X150749000Y-101117500D03*
D14*
G04 #@! TO.N,USB2_FPGA_D+*
G04 #@! TO.C,R8*
G36*
X153058691Y-99106053D02*
X153079926Y-99109203D01*
X153100750Y-99114419D01*
X153120962Y-99121651D01*
X153140368Y-99130830D01*
X153158781Y-99141866D01*
X153176024Y-99154654D01*
X153191930Y-99169070D01*
X153206346Y-99184976D01*
X153219134Y-99202219D01*
X153230170Y-99220632D01*
X153239349Y-99240038D01*
X153246581Y-99260250D01*
X153251797Y-99281074D01*
X153254947Y-99302309D01*
X153256000Y-99323750D01*
X153256000Y-99761250D01*
X153254947Y-99782691D01*
X153251797Y-99803926D01*
X153246581Y-99824750D01*
X153239349Y-99844962D01*
X153230170Y-99864368D01*
X153219134Y-99882781D01*
X153206346Y-99900024D01*
X153191930Y-99915930D01*
X153176024Y-99930346D01*
X153158781Y-99943134D01*
X153140368Y-99954170D01*
X153120962Y-99963349D01*
X153100750Y-99970581D01*
X153079926Y-99975797D01*
X153058691Y-99978947D01*
X153037250Y-99980000D01*
X152524750Y-99980000D01*
X152503309Y-99978947D01*
X152482074Y-99975797D01*
X152461250Y-99970581D01*
X152441038Y-99963349D01*
X152421632Y-99954170D01*
X152403219Y-99943134D01*
X152385976Y-99930346D01*
X152370070Y-99915930D01*
X152355654Y-99900024D01*
X152342866Y-99882781D01*
X152331830Y-99864368D01*
X152322651Y-99844962D01*
X152315419Y-99824750D01*
X152310203Y-99803926D01*
X152307053Y-99782691D01*
X152306000Y-99761250D01*
X152306000Y-99323750D01*
X152307053Y-99302309D01*
X152310203Y-99281074D01*
X152315419Y-99260250D01*
X152322651Y-99240038D01*
X152331830Y-99220632D01*
X152342866Y-99202219D01*
X152355654Y-99184976D01*
X152370070Y-99169070D01*
X152385976Y-99154654D01*
X152403219Y-99141866D01*
X152421632Y-99130830D01*
X152441038Y-99121651D01*
X152461250Y-99114419D01*
X152482074Y-99109203D01*
X152503309Y-99106053D01*
X152524750Y-99105000D01*
X153037250Y-99105000D01*
X153058691Y-99106053D01*
X153058691Y-99106053D01*
G37*
D16*
G04 #@! TD*
G04 #@! TO.P,R8,2*
G04 #@! TO.N,USB2_FPGA_D+*
X152781000Y-99542500D03*
D14*
G04 #@! TO.N,Net-(D9-Pad2)*
G04 #@! TO.C,R8*
G36*
X153058691Y-100681053D02*
X153079926Y-100684203D01*
X153100750Y-100689419D01*
X153120962Y-100696651D01*
X153140368Y-100705830D01*
X153158781Y-100716866D01*
X153176024Y-100729654D01*
X153191930Y-100744070D01*
X153206346Y-100759976D01*
X153219134Y-100777219D01*
X153230170Y-100795632D01*
X153239349Y-100815038D01*
X153246581Y-100835250D01*
X153251797Y-100856074D01*
X153254947Y-100877309D01*
X153256000Y-100898750D01*
X153256000Y-101336250D01*
X153254947Y-101357691D01*
X153251797Y-101378926D01*
X153246581Y-101399750D01*
X153239349Y-101419962D01*
X153230170Y-101439368D01*
X153219134Y-101457781D01*
X153206346Y-101475024D01*
X153191930Y-101490930D01*
X153176024Y-101505346D01*
X153158781Y-101518134D01*
X153140368Y-101529170D01*
X153120962Y-101538349D01*
X153100750Y-101545581D01*
X153079926Y-101550797D01*
X153058691Y-101553947D01*
X153037250Y-101555000D01*
X152524750Y-101555000D01*
X152503309Y-101553947D01*
X152482074Y-101550797D01*
X152461250Y-101545581D01*
X152441038Y-101538349D01*
X152421632Y-101529170D01*
X152403219Y-101518134D01*
X152385976Y-101505346D01*
X152370070Y-101490930D01*
X152355654Y-101475024D01*
X152342866Y-101457781D01*
X152331830Y-101439368D01*
X152322651Y-101419962D01*
X152315419Y-101399750D01*
X152310203Y-101378926D01*
X152307053Y-101357691D01*
X152306000Y-101336250D01*
X152306000Y-100898750D01*
X152307053Y-100877309D01*
X152310203Y-100856074D01*
X152315419Y-100835250D01*
X152322651Y-100815038D01*
X152331830Y-100795632D01*
X152342866Y-100777219D01*
X152355654Y-100759976D01*
X152370070Y-100744070D01*
X152385976Y-100729654D01*
X152403219Y-100716866D01*
X152421632Y-100705830D01*
X152441038Y-100696651D01*
X152461250Y-100689419D01*
X152482074Y-100684203D01*
X152503309Y-100681053D01*
X152524750Y-100680000D01*
X153037250Y-100680000D01*
X153058691Y-100681053D01*
X153058691Y-100681053D01*
G37*
D16*
G04 #@! TD*
G04 #@! TO.P,R8,1*
G04 #@! TO.N,Net-(D9-Pad2)*
X152781000Y-101117500D03*
D14*
G04 #@! TO.N,USB2_FPGA_D-*
G04 #@! TO.C,R9*
G36*
X155090691Y-99106053D02*
X155111926Y-99109203D01*
X155132750Y-99114419D01*
X155152962Y-99121651D01*
X155172368Y-99130830D01*
X155190781Y-99141866D01*
X155208024Y-99154654D01*
X155223930Y-99169070D01*
X155238346Y-99184976D01*
X155251134Y-99202219D01*
X155262170Y-99220632D01*
X155271349Y-99240038D01*
X155278581Y-99260250D01*
X155283797Y-99281074D01*
X155286947Y-99302309D01*
X155288000Y-99323750D01*
X155288000Y-99761250D01*
X155286947Y-99782691D01*
X155283797Y-99803926D01*
X155278581Y-99824750D01*
X155271349Y-99844962D01*
X155262170Y-99864368D01*
X155251134Y-99882781D01*
X155238346Y-99900024D01*
X155223930Y-99915930D01*
X155208024Y-99930346D01*
X155190781Y-99943134D01*
X155172368Y-99954170D01*
X155152962Y-99963349D01*
X155132750Y-99970581D01*
X155111926Y-99975797D01*
X155090691Y-99978947D01*
X155069250Y-99980000D01*
X154556750Y-99980000D01*
X154535309Y-99978947D01*
X154514074Y-99975797D01*
X154493250Y-99970581D01*
X154473038Y-99963349D01*
X154453632Y-99954170D01*
X154435219Y-99943134D01*
X154417976Y-99930346D01*
X154402070Y-99915930D01*
X154387654Y-99900024D01*
X154374866Y-99882781D01*
X154363830Y-99864368D01*
X154354651Y-99844962D01*
X154347419Y-99824750D01*
X154342203Y-99803926D01*
X154339053Y-99782691D01*
X154338000Y-99761250D01*
X154338000Y-99323750D01*
X154339053Y-99302309D01*
X154342203Y-99281074D01*
X154347419Y-99260250D01*
X154354651Y-99240038D01*
X154363830Y-99220632D01*
X154374866Y-99202219D01*
X154387654Y-99184976D01*
X154402070Y-99169070D01*
X154417976Y-99154654D01*
X154435219Y-99141866D01*
X154453632Y-99130830D01*
X154473038Y-99121651D01*
X154493250Y-99114419D01*
X154514074Y-99109203D01*
X154535309Y-99106053D01*
X154556750Y-99105000D01*
X155069250Y-99105000D01*
X155090691Y-99106053D01*
X155090691Y-99106053D01*
G37*
D16*
G04 #@! TD*
G04 #@! TO.P,R9,1*
G04 #@! TO.N,USB2_FPGA_D-*
X154813000Y-99542500D03*
D14*
G04 #@! TO.N,Net-(D10-Pad1)*
G04 #@! TO.C,R9*
G36*
X155090691Y-100681053D02*
X155111926Y-100684203D01*
X155132750Y-100689419D01*
X155152962Y-100696651D01*
X155172368Y-100705830D01*
X155190781Y-100716866D01*
X155208024Y-100729654D01*
X155223930Y-100744070D01*
X155238346Y-100759976D01*
X155251134Y-100777219D01*
X155262170Y-100795632D01*
X155271349Y-100815038D01*
X155278581Y-100835250D01*
X155283797Y-100856074D01*
X155286947Y-100877309D01*
X155288000Y-100898750D01*
X155288000Y-101336250D01*
X155286947Y-101357691D01*
X155283797Y-101378926D01*
X155278581Y-101399750D01*
X155271349Y-101419962D01*
X155262170Y-101439368D01*
X155251134Y-101457781D01*
X155238346Y-101475024D01*
X155223930Y-101490930D01*
X155208024Y-101505346D01*
X155190781Y-101518134D01*
X155172368Y-101529170D01*
X155152962Y-101538349D01*
X155132750Y-101545581D01*
X155111926Y-101550797D01*
X155090691Y-101553947D01*
X155069250Y-101555000D01*
X154556750Y-101555000D01*
X154535309Y-101553947D01*
X154514074Y-101550797D01*
X154493250Y-101545581D01*
X154473038Y-101538349D01*
X154453632Y-101529170D01*
X154435219Y-101518134D01*
X154417976Y-101505346D01*
X154402070Y-101490930D01*
X154387654Y-101475024D01*
X154374866Y-101457781D01*
X154363830Y-101439368D01*
X154354651Y-101419962D01*
X154347419Y-101399750D01*
X154342203Y-101378926D01*
X154339053Y-101357691D01*
X154338000Y-101336250D01*
X154338000Y-100898750D01*
X154339053Y-100877309D01*
X154342203Y-100856074D01*
X154347419Y-100835250D01*
X154354651Y-100815038D01*
X154363830Y-100795632D01*
X154374866Y-100777219D01*
X154387654Y-100759976D01*
X154402070Y-100744070D01*
X154417976Y-100729654D01*
X154435219Y-100716866D01*
X154453632Y-100705830D01*
X154473038Y-100696651D01*
X154493250Y-100689419D01*
X154514074Y-100684203D01*
X154535309Y-100681053D01*
X154556750Y-100680000D01*
X155069250Y-100680000D01*
X155090691Y-100681053D01*
X155090691Y-100681053D01*
G37*
D16*
G04 #@! TD*
G04 #@! TO.P,R9,2*
G04 #@! TO.N,Net-(D10-Pad1)*
X154813000Y-101117500D03*
D14*
G04 #@! TO.N,Net-(D11-Pad2)*
G04 #@! TO.C,R10*
G36*
X156995691Y-100681053D02*
X157016926Y-100684203D01*
X157037750Y-100689419D01*
X157057962Y-100696651D01*
X157077368Y-100705830D01*
X157095781Y-100716866D01*
X157113024Y-100729654D01*
X157128930Y-100744070D01*
X157143346Y-100759976D01*
X157156134Y-100777219D01*
X157167170Y-100795632D01*
X157176349Y-100815038D01*
X157183581Y-100835250D01*
X157188797Y-100856074D01*
X157191947Y-100877309D01*
X157193000Y-100898750D01*
X157193000Y-101336250D01*
X157191947Y-101357691D01*
X157188797Y-101378926D01*
X157183581Y-101399750D01*
X157176349Y-101419962D01*
X157167170Y-101439368D01*
X157156134Y-101457781D01*
X157143346Y-101475024D01*
X157128930Y-101490930D01*
X157113024Y-101505346D01*
X157095781Y-101518134D01*
X157077368Y-101529170D01*
X157057962Y-101538349D01*
X157037750Y-101545581D01*
X157016926Y-101550797D01*
X156995691Y-101553947D01*
X156974250Y-101555000D01*
X156461750Y-101555000D01*
X156440309Y-101553947D01*
X156419074Y-101550797D01*
X156398250Y-101545581D01*
X156378038Y-101538349D01*
X156358632Y-101529170D01*
X156340219Y-101518134D01*
X156322976Y-101505346D01*
X156307070Y-101490930D01*
X156292654Y-101475024D01*
X156279866Y-101457781D01*
X156268830Y-101439368D01*
X156259651Y-101419962D01*
X156252419Y-101399750D01*
X156247203Y-101378926D01*
X156244053Y-101357691D01*
X156243000Y-101336250D01*
X156243000Y-100898750D01*
X156244053Y-100877309D01*
X156247203Y-100856074D01*
X156252419Y-100835250D01*
X156259651Y-100815038D01*
X156268830Y-100795632D01*
X156279866Y-100777219D01*
X156292654Y-100759976D01*
X156307070Y-100744070D01*
X156322976Y-100729654D01*
X156340219Y-100716866D01*
X156358632Y-100705830D01*
X156378038Y-100696651D01*
X156398250Y-100689419D01*
X156419074Y-100684203D01*
X156440309Y-100681053D01*
X156461750Y-100680000D01*
X156974250Y-100680000D01*
X156995691Y-100681053D01*
X156995691Y-100681053D01*
G37*
D16*
G04 #@! TD*
G04 #@! TO.P,R10,1*
G04 #@! TO.N,Net-(D11-Pad2)*
X156718000Y-101117500D03*
D14*
G04 #@! TO.N,USB2_FPGA_D-*
G04 #@! TO.C,R10*
G36*
X156995691Y-99106053D02*
X157016926Y-99109203D01*
X157037750Y-99114419D01*
X157057962Y-99121651D01*
X157077368Y-99130830D01*
X157095781Y-99141866D01*
X157113024Y-99154654D01*
X157128930Y-99169070D01*
X157143346Y-99184976D01*
X157156134Y-99202219D01*
X157167170Y-99220632D01*
X157176349Y-99240038D01*
X157183581Y-99260250D01*
X157188797Y-99281074D01*
X157191947Y-99302309D01*
X157193000Y-99323750D01*
X157193000Y-99761250D01*
X157191947Y-99782691D01*
X157188797Y-99803926D01*
X157183581Y-99824750D01*
X157176349Y-99844962D01*
X157167170Y-99864368D01*
X157156134Y-99882781D01*
X157143346Y-99900024D01*
X157128930Y-99915930D01*
X157113024Y-99930346D01*
X157095781Y-99943134D01*
X157077368Y-99954170D01*
X157057962Y-99963349D01*
X157037750Y-99970581D01*
X157016926Y-99975797D01*
X156995691Y-99978947D01*
X156974250Y-99980000D01*
X156461750Y-99980000D01*
X156440309Y-99978947D01*
X156419074Y-99975797D01*
X156398250Y-99970581D01*
X156378038Y-99963349D01*
X156358632Y-99954170D01*
X156340219Y-99943134D01*
X156322976Y-99930346D01*
X156307070Y-99915930D01*
X156292654Y-99900024D01*
X156279866Y-99882781D01*
X156268830Y-99864368D01*
X156259651Y-99844962D01*
X156252419Y-99824750D01*
X156247203Y-99803926D01*
X156244053Y-99782691D01*
X156243000Y-99761250D01*
X156243000Y-99323750D01*
X156244053Y-99302309D01*
X156247203Y-99281074D01*
X156252419Y-99260250D01*
X156259651Y-99240038D01*
X156268830Y-99220632D01*
X156279866Y-99202219D01*
X156292654Y-99184976D01*
X156307070Y-99169070D01*
X156322976Y-99154654D01*
X156340219Y-99141866D01*
X156358632Y-99130830D01*
X156378038Y-99121651D01*
X156398250Y-99114419D01*
X156419074Y-99109203D01*
X156440309Y-99106053D01*
X156461750Y-99105000D01*
X156974250Y-99105000D01*
X156995691Y-99106053D01*
X156995691Y-99106053D01*
G37*
D16*
G04 #@! TD*
G04 #@! TO.P,R10,2*
G04 #@! TO.N,USB2_FPGA_D-*
X156718000Y-99542500D03*
D14*
G04 #@! TO.N,USB2_FPGA_D-*
G04 #@! TO.C,R11*
G36*
X157122691Y-94966053D02*
X157143926Y-94969203D01*
X157164750Y-94974419D01*
X157184962Y-94981651D01*
X157204368Y-94990830D01*
X157222781Y-95001866D01*
X157240024Y-95014654D01*
X157255930Y-95029070D01*
X157270346Y-95044976D01*
X157283134Y-95062219D01*
X157294170Y-95080632D01*
X157303349Y-95100038D01*
X157310581Y-95120250D01*
X157315797Y-95141074D01*
X157318947Y-95162309D01*
X157320000Y-95183750D01*
X157320000Y-95621250D01*
X157318947Y-95642691D01*
X157315797Y-95663926D01*
X157310581Y-95684750D01*
X157303349Y-95704962D01*
X157294170Y-95724368D01*
X157283134Y-95742781D01*
X157270346Y-95760024D01*
X157255930Y-95775930D01*
X157240024Y-95790346D01*
X157222781Y-95803134D01*
X157204368Y-95814170D01*
X157184962Y-95823349D01*
X157164750Y-95830581D01*
X157143926Y-95835797D01*
X157122691Y-95838947D01*
X157101250Y-95840000D01*
X156588750Y-95840000D01*
X156567309Y-95838947D01*
X156546074Y-95835797D01*
X156525250Y-95830581D01*
X156505038Y-95823349D01*
X156485632Y-95814170D01*
X156467219Y-95803134D01*
X156449976Y-95790346D01*
X156434070Y-95775930D01*
X156419654Y-95760024D01*
X156406866Y-95742781D01*
X156395830Y-95724368D01*
X156386651Y-95704962D01*
X156379419Y-95684750D01*
X156374203Y-95663926D01*
X156371053Y-95642691D01*
X156370000Y-95621250D01*
X156370000Y-95183750D01*
X156371053Y-95162309D01*
X156374203Y-95141074D01*
X156379419Y-95120250D01*
X156386651Y-95100038D01*
X156395830Y-95080632D01*
X156406866Y-95062219D01*
X156419654Y-95044976D01*
X156434070Y-95029070D01*
X156449976Y-95014654D01*
X156467219Y-95001866D01*
X156485632Y-94990830D01*
X156505038Y-94981651D01*
X156525250Y-94974419D01*
X156546074Y-94969203D01*
X156567309Y-94966053D01*
X156588750Y-94965000D01*
X157101250Y-94965000D01*
X157122691Y-94966053D01*
X157122691Y-94966053D01*
G37*
D16*
G04 #@! TD*
G04 #@! TO.P,R11,1*
G04 #@! TO.N,USB2_FPGA_D-*
X156845000Y-95402500D03*
D14*
G04 #@! TO.N,/FPD2-*
G04 #@! TO.C,R11*
G36*
X157122691Y-93391053D02*
X157143926Y-93394203D01*
X157164750Y-93399419D01*
X157184962Y-93406651D01*
X157204368Y-93415830D01*
X157222781Y-93426866D01*
X157240024Y-93439654D01*
X157255930Y-93454070D01*
X157270346Y-93469976D01*
X157283134Y-93487219D01*
X157294170Y-93505632D01*
X157303349Y-93525038D01*
X157310581Y-93545250D01*
X157315797Y-93566074D01*
X157318947Y-93587309D01*
X157320000Y-93608750D01*
X157320000Y-94046250D01*
X157318947Y-94067691D01*
X157315797Y-94088926D01*
X157310581Y-94109750D01*
X157303349Y-94129962D01*
X157294170Y-94149368D01*
X157283134Y-94167781D01*
X157270346Y-94185024D01*
X157255930Y-94200930D01*
X157240024Y-94215346D01*
X157222781Y-94228134D01*
X157204368Y-94239170D01*
X157184962Y-94248349D01*
X157164750Y-94255581D01*
X157143926Y-94260797D01*
X157122691Y-94263947D01*
X157101250Y-94265000D01*
X156588750Y-94265000D01*
X156567309Y-94263947D01*
X156546074Y-94260797D01*
X156525250Y-94255581D01*
X156505038Y-94248349D01*
X156485632Y-94239170D01*
X156467219Y-94228134D01*
X156449976Y-94215346D01*
X156434070Y-94200930D01*
X156419654Y-94185024D01*
X156406866Y-94167781D01*
X156395830Y-94149368D01*
X156386651Y-94129962D01*
X156379419Y-94109750D01*
X156374203Y-94088926D01*
X156371053Y-94067691D01*
X156370000Y-94046250D01*
X156370000Y-93608750D01*
X156371053Y-93587309D01*
X156374203Y-93566074D01*
X156379419Y-93545250D01*
X156386651Y-93525038D01*
X156395830Y-93505632D01*
X156406866Y-93487219D01*
X156419654Y-93469976D01*
X156434070Y-93454070D01*
X156449976Y-93439654D01*
X156467219Y-93426866D01*
X156485632Y-93415830D01*
X156505038Y-93406651D01*
X156525250Y-93399419D01*
X156546074Y-93394203D01*
X156567309Y-93391053D01*
X156588750Y-93390000D01*
X157101250Y-93390000D01*
X157122691Y-93391053D01*
X157122691Y-93391053D01*
G37*
D16*
G04 #@! TD*
G04 #@! TO.P,R11,2*
G04 #@! TO.N,/FPD2-*
X156845000Y-93827500D03*
D14*
G04 #@! TO.N,/FPD2+*
G04 #@! TO.C,R12*
G36*
X155090691Y-93416553D02*
X155111926Y-93419703D01*
X155132750Y-93424919D01*
X155152962Y-93432151D01*
X155172368Y-93441330D01*
X155190781Y-93452366D01*
X155208024Y-93465154D01*
X155223930Y-93479570D01*
X155238346Y-93495476D01*
X155251134Y-93512719D01*
X155262170Y-93531132D01*
X155271349Y-93550538D01*
X155278581Y-93570750D01*
X155283797Y-93591574D01*
X155286947Y-93612809D01*
X155288000Y-93634250D01*
X155288000Y-94071750D01*
X155286947Y-94093191D01*
X155283797Y-94114426D01*
X155278581Y-94135250D01*
X155271349Y-94155462D01*
X155262170Y-94174868D01*
X155251134Y-94193281D01*
X155238346Y-94210524D01*
X155223930Y-94226430D01*
X155208024Y-94240846D01*
X155190781Y-94253634D01*
X155172368Y-94264670D01*
X155152962Y-94273849D01*
X155132750Y-94281081D01*
X155111926Y-94286297D01*
X155090691Y-94289447D01*
X155069250Y-94290500D01*
X154556750Y-94290500D01*
X154535309Y-94289447D01*
X154514074Y-94286297D01*
X154493250Y-94281081D01*
X154473038Y-94273849D01*
X154453632Y-94264670D01*
X154435219Y-94253634D01*
X154417976Y-94240846D01*
X154402070Y-94226430D01*
X154387654Y-94210524D01*
X154374866Y-94193281D01*
X154363830Y-94174868D01*
X154354651Y-94155462D01*
X154347419Y-94135250D01*
X154342203Y-94114426D01*
X154339053Y-94093191D01*
X154338000Y-94071750D01*
X154338000Y-93634250D01*
X154339053Y-93612809D01*
X154342203Y-93591574D01*
X154347419Y-93570750D01*
X154354651Y-93550538D01*
X154363830Y-93531132D01*
X154374866Y-93512719D01*
X154387654Y-93495476D01*
X154402070Y-93479570D01*
X154417976Y-93465154D01*
X154435219Y-93452366D01*
X154453632Y-93441330D01*
X154473038Y-93432151D01*
X154493250Y-93424919D01*
X154514074Y-93419703D01*
X154535309Y-93416553D01*
X154556750Y-93415500D01*
X155069250Y-93415500D01*
X155090691Y-93416553D01*
X155090691Y-93416553D01*
G37*
D16*
G04 #@! TD*
G04 #@! TO.P,R12,2*
G04 #@! TO.N,/FPD2+*
X154813000Y-93853000D03*
D14*
G04 #@! TO.N,USB2_FPGA_D+*
G04 #@! TO.C,R12*
G36*
X155090691Y-94991553D02*
X155111926Y-94994703D01*
X155132750Y-94999919D01*
X155152962Y-95007151D01*
X155172368Y-95016330D01*
X155190781Y-95027366D01*
X155208024Y-95040154D01*
X155223930Y-95054570D01*
X155238346Y-95070476D01*
X155251134Y-95087719D01*
X155262170Y-95106132D01*
X155271349Y-95125538D01*
X155278581Y-95145750D01*
X155283797Y-95166574D01*
X155286947Y-95187809D01*
X155288000Y-95209250D01*
X155288000Y-95646750D01*
X155286947Y-95668191D01*
X155283797Y-95689426D01*
X155278581Y-95710250D01*
X155271349Y-95730462D01*
X155262170Y-95749868D01*
X155251134Y-95768281D01*
X155238346Y-95785524D01*
X155223930Y-95801430D01*
X155208024Y-95815846D01*
X155190781Y-95828634D01*
X155172368Y-95839670D01*
X155152962Y-95848849D01*
X155132750Y-95856081D01*
X155111926Y-95861297D01*
X155090691Y-95864447D01*
X155069250Y-95865500D01*
X154556750Y-95865500D01*
X154535309Y-95864447D01*
X154514074Y-95861297D01*
X154493250Y-95856081D01*
X154473038Y-95848849D01*
X154453632Y-95839670D01*
X154435219Y-95828634D01*
X154417976Y-95815846D01*
X154402070Y-95801430D01*
X154387654Y-95785524D01*
X154374866Y-95768281D01*
X154363830Y-95749868D01*
X154354651Y-95730462D01*
X154347419Y-95710250D01*
X154342203Y-95689426D01*
X154339053Y-95668191D01*
X154338000Y-95646750D01*
X154338000Y-95209250D01*
X154339053Y-95187809D01*
X154342203Y-95166574D01*
X154347419Y-95145750D01*
X154354651Y-95125538D01*
X154363830Y-95106132D01*
X154374866Y-95087719D01*
X154387654Y-95070476D01*
X154402070Y-95054570D01*
X154417976Y-95040154D01*
X154435219Y-95027366D01*
X154453632Y-95016330D01*
X154473038Y-95007151D01*
X154493250Y-94999919D01*
X154514074Y-94994703D01*
X154535309Y-94991553D01*
X154556750Y-94990500D01*
X155069250Y-94990500D01*
X155090691Y-94991553D01*
X155090691Y-94991553D01*
G37*
D16*
G04 #@! TD*
G04 #@! TO.P,R12,1*
G04 #@! TO.N,USB2_FPGA_D+*
X154813000Y-95428000D03*
D12*
G04 #@! TO.P,J2,1*
G04 #@! TO.N,+3V3*
X161417000Y-106934000D03*
D13*
G04 #@! TO.P,J2,2*
X163957000Y-106934000D03*
G04 #@! TO.P,J2,3*
G04 #@! TO.N,GND*
X161417000Y-104394000D03*
G04 #@! TO.P,J2,4*
X163957000Y-104394000D03*
G04 #@! TO.P,J2,5*
G04 #@! TO.N,GN24*
X161417000Y-101854000D03*
G04 #@! TO.P,J2,6*
G04 #@! TO.N,GP24*
X163957000Y-101854000D03*
G04 #@! TO.P,J2,7*
G04 #@! TO.N,GN25*
X161417000Y-99314000D03*
G04 #@! TO.P,J2,8*
G04 #@! TO.N,GP25*
X163957000Y-99314000D03*
G04 #@! TO.P,J2,9*
G04 #@! TO.N,GN26*
X161417000Y-96774000D03*
G04 #@! TO.P,J2,10*
G04 #@! TO.N,GP26*
X163957000Y-96774000D03*
G04 #@! TO.P,J2,11*
G04 #@! TO.N,GN27*
X161417000Y-94234000D03*
G04 #@! TO.P,J2,12*
G04 #@! TO.N,GP27*
X163957000Y-94234000D03*
G04 #@! TD*
D17*
G04 #@! TO.P,US3,4*
G04 #@! TO.N,GND*
X134224000Y-90551000D03*
G04 #@! TO.P,US3,3*
G04 #@! TO.N,/FPD1+*
X136724000Y-90551000D03*
G04 #@! TO.P,US3,2*
G04 #@! TO.N,/FPD1-*
X138724000Y-90551000D03*
D18*
G04 #@! TO.P,US3,1*
G04 #@! TO.N,/US1VBUS*
X141224000Y-90551000D03*
D19*
G04 #@! TO.P,US3,5*
G04 #@! TO.N,GND*
X144294000Y-87841000D03*
X131154000Y-87841000D03*
G04 #@! TD*
G04 #@! TO.P,US4,5*
G04 #@! TO.N,GND*
X156300000Y-87841000D03*
X169440000Y-87841000D03*
D18*
G04 #@! TO.P,US4,1*
G04 #@! TO.N,/US2VBUS*
X166370000Y-90551000D03*
D17*
G04 #@! TO.P,US4,2*
G04 #@! TO.N,/FPD2-*
X163870000Y-90551000D03*
G04 #@! TO.P,US4,3*
G04 #@! TO.N,/FPD2+*
X161870000Y-90551000D03*
G04 #@! TO.P,US4,4*
G04 #@! TO.N,GND*
X159370000Y-90551000D03*
G04 #@! TD*
D20*
G04 #@! TO.N,USB1_FPGA_PULL_D-*
X137414000Y-108057000D03*
G04 #@! TO.N,Net-(D4-Pad2)*
X138176000Y-104482000D03*
X140843000Y-105557000D03*
G04 #@! TO.N,USB1_FPGA_D+*
X136652000Y-98171000D03*
X135509000Y-96164500D03*
G04 #@! TO.N,GND*
X146050000Y-93091000D03*
G04 #@! TO.N,Net-(D8-Pad1)*
X146685000Y-105537000D03*
X144653000Y-104521000D03*
X144653000Y-101346000D03*
X150749000Y-101117500D03*
G04 #@! TO.N,USB2_FPGA_PULL_D+*
X146685000Y-108057000D03*
G04 #@! TO.N,USB2_FPGA_PULL_D-*
X153035000Y-102235000D03*
X132715000Y-98806000D03*
G04 #@! TO.N,USB2_FPGA_D+*
X152781000Y-99568000D03*
X152781000Y-97663000D03*
G04 #@! TO.N,USB2_FPGA_D-*
X153162000Y-96139000D03*
X156845000Y-95402500D03*
G04 #@! TO.N,GN26*
X155067000Y-92075000D03*
G04 #@! TO.N,GP25*
X146939000Y-91313000D03*
X148059863Y-84477137D03*
X123698000Y-90170000D03*
G04 #@! TO.N,GN25*
X142875000Y-85598000D03*
X171196000Y-97663000D03*
G04 #@! TO.N,GP24*
X127889000Y-101030000D03*
X131191000Y-101092000D03*
G04 #@! TO.N,GN24*
X135255000Y-93345000D03*
G04 #@! TD*
D21*
G04 #@! TO.N,USB1_FPGA_PULL_D+*
X133235000Y-108057000D02*
X130556000Y-108057000D01*
X133985000Y-108057000D02*
X133235000Y-108057000D01*
X122848001Y-98639999D02*
X123698000Y-97790000D01*
X122522999Y-98965001D02*
X122848001Y-98639999D01*
X122522999Y-108514001D02*
X122522999Y-98965001D01*
X123133999Y-109125001D02*
X122522999Y-108514001D01*
X128737999Y-109125001D02*
X123133999Y-109125001D01*
X129806000Y-108057000D02*
X128737999Y-109125001D01*
X130556000Y-108057000D02*
X129806000Y-108057000D01*
G04 #@! TO.N,Net-(D1-Pad1)*
X135161000Y-101117500D02*
X135636000Y-101117500D01*
X134245500Y-101117500D02*
X135161000Y-101117500D01*
X130556000Y-104807000D02*
X134245500Y-101117500D01*
X130556000Y-105557000D02*
X130556000Y-104807000D01*
G04 #@! TO.N,Net-(D2-Pad2)*
X133985000Y-104198500D02*
X137066000Y-101117500D01*
X137066000Y-101117500D02*
X137541000Y-101117500D01*
X133985000Y-105557000D02*
X133985000Y-104198500D01*
G04 #@! TO.N,USB1_FPGA_PULL_D-*
X140843000Y-108057000D02*
X137414000Y-108057000D01*
G04 #@! TO.N,Net-(D3-Pad1)*
X141351000Y-101555000D02*
X141351000Y-101117500D01*
X141351000Y-102370000D02*
X141351000Y-101555000D01*
X138164000Y-105557000D02*
X141351000Y-102370000D01*
X137414000Y-105557000D02*
X138164000Y-105557000D01*
G04 #@! TO.N,Net-(D4-Pad2)*
X138176000Y-102825000D02*
X138176000Y-104482000D01*
X139446000Y-101117500D02*
X139446000Y-101555000D01*
X139446000Y-101555000D02*
X138176000Y-102825000D01*
D22*
G04 #@! TO.N,USB1_FPGA_D+*
X135509000Y-97433103D02*
X135509000Y-96164500D01*
X133062103Y-99880000D02*
X135509000Y-97433103D01*
X127490002Y-99880000D02*
X133062103Y-99880000D01*
X124148000Y-99880000D02*
X124985998Y-99880000D01*
X126790001Y-99179999D02*
X127490002Y-99880000D01*
X123698000Y-100330000D02*
X124148000Y-99880000D01*
X124985998Y-99880000D02*
X125685999Y-99179999D01*
X125685999Y-99179999D02*
X126790001Y-99179999D01*
D21*
X137541000Y-99980000D02*
X137541000Y-99542500D01*
X137866010Y-100305010D02*
X137541000Y-99980000D01*
X141832484Y-100305010D02*
X137866010Y-100305010D01*
X142151010Y-99986484D02*
X141832484Y-100305010D01*
X142151010Y-99098516D02*
X142151010Y-99986484D01*
X141879000Y-98826506D02*
X142151010Y-99098516D01*
X141879000Y-96139000D02*
X141879000Y-98826506D01*
X137541000Y-99542500D02*
X135636000Y-99542500D01*
X135636000Y-99542500D02*
X135636000Y-99187000D01*
X135636000Y-99187000D02*
X136652000Y-98171000D01*
D23*
G04 #@! TO.N,GND*
X126482000Y-82306000D02*
X126238000Y-82550000D01*
X145268000Y-93091000D02*
X144379000Y-93980000D01*
X146050000Y-93091000D02*
X145268000Y-93091000D01*
X146832000Y-93091000D02*
X147721000Y-93980000D01*
X146050000Y-93091000D02*
X146832000Y-93091000D01*
X144379000Y-93980000D02*
X144379000Y-96139000D01*
X147721000Y-93980000D02*
X147721000Y-96139000D01*
G04 #@! TO.N,/US1VBUS*
X142524000Y-90551000D02*
X141224000Y-90551000D01*
X146431000Y-88590002D02*
X144470002Y-90551000D01*
X144470002Y-90551000D02*
X142524000Y-90551000D01*
X146431000Y-84169000D02*
X146431000Y-88590002D01*
G04 #@! TO.N,+5V*
X123698000Y-80010000D02*
X126238000Y-80010000D01*
X146272000Y-80010000D02*
X146431000Y-80169000D01*
X126238000Y-80010000D02*
X146272000Y-80010000D01*
X171545000Y-80169000D02*
X171577000Y-80201000D01*
X146431000Y-80169000D02*
X171545000Y-80169000D01*
D22*
G04 #@! TO.N,USB1_FPGA_D-*
X135827198Y-97751302D02*
X137414000Y-96164500D01*
X133248500Y-100330000D02*
X135827198Y-97751302D01*
X126238000Y-100330000D02*
X133248500Y-100330000D01*
D21*
X139598500Y-93980000D02*
X137414000Y-96164500D01*
X141879000Y-93980000D02*
X139598500Y-93980000D01*
X138971000Y-99542500D02*
X139446000Y-99542500D01*
X137414000Y-97985500D02*
X138971000Y-99542500D01*
X137414000Y-96164500D02*
X137414000Y-97985500D01*
X139446000Y-99542500D02*
X141351000Y-99542500D01*
G04 #@! TO.N,Net-(D8-Pad1)*
X146685000Y-105557000D02*
X146685000Y-105537000D01*
X144653000Y-104521000D02*
X144653000Y-102489000D01*
X144653000Y-102489000D02*
X144653000Y-101346000D01*
G04 #@! TO.N,USB2_FPGA_PULL_D+*
X149237000Y-108057000D02*
X146685000Y-108057000D01*
X149987000Y-108057000D02*
X149237000Y-108057000D01*
G04 #@! TO.N,Net-(D9-Pad2)*
X149987000Y-103911500D02*
X152781000Y-101117500D01*
X149987000Y-105557000D02*
X149987000Y-103911500D01*
G04 #@! TO.N,USB2_FPGA_PULL_D-*
X155968000Y-108057000D02*
X153289000Y-108057000D01*
X156718000Y-108057000D02*
X155968000Y-108057000D01*
X153289000Y-108057000D02*
X152539000Y-108057000D01*
X152539000Y-108057000D02*
X152273000Y-107791000D01*
X129159000Y-95250000D02*
X126238000Y-95250000D01*
X132715000Y-98806000D02*
X129159000Y-95250000D01*
X152273000Y-102997000D02*
X153035000Y-102235000D01*
X152273000Y-107791000D02*
X152273000Y-102997000D01*
G04 #@! TO.N,Net-(D10-Pad1)*
X153289000Y-105557000D02*
X153289000Y-104013000D01*
X154813000Y-102489000D02*
X154813000Y-101117500D01*
X153289000Y-104013000D02*
X154813000Y-102489000D01*
G04 #@! TO.N,Net-(D11-Pad2)*
X156718000Y-104807000D02*
X156718000Y-101117500D01*
X156718000Y-105557000D02*
X156718000Y-104807000D01*
D22*
G04 #@! TO.N,USB2_FPGA_D+*
X149973990Y-101637113D02*
X149973990Y-100504487D01*
X152123478Y-98354999D02*
X153256104Y-98354999D01*
X149973990Y-100504487D02*
X152123478Y-98354999D01*
X146854104Y-104756999D02*
X149973990Y-101637113D01*
X145944999Y-104756999D02*
X146854104Y-104756999D01*
X124148000Y-107500000D02*
X124447998Y-107500000D01*
X125147999Y-106799999D02*
X143901999Y-106799999D01*
X143901999Y-106799999D02*
X145944999Y-104756999D01*
X154813000Y-96798103D02*
X154813000Y-95428000D01*
X124447998Y-107500000D02*
X125147999Y-106799999D01*
X123698000Y-107950000D02*
X124148000Y-107500000D01*
D21*
X153365000Y-93980000D02*
X154813000Y-95428000D01*
X150221000Y-93980000D02*
X153365000Y-93980000D01*
X149973990Y-100504487D02*
X149973990Y-100470010D01*
X149973990Y-99842510D02*
X149973990Y-100504487D01*
X150274000Y-99542500D02*
X149973990Y-99842510D01*
X150749000Y-99542500D02*
X150274000Y-99542500D01*
X152781000Y-97663000D02*
X153346685Y-97663000D01*
D22*
X153256104Y-98354999D02*
X153924000Y-97663000D01*
D21*
X153346685Y-97663000D02*
X153924000Y-97663000D01*
D22*
X153924000Y-97663000D02*
X154813000Y-96798103D01*
D23*
G04 #@! TO.N,/US2VBUS*
X167670000Y-90551000D02*
X166370000Y-90551000D01*
X169616002Y-90551000D02*
X167670000Y-90551000D01*
X171577000Y-88590002D02*
X169616002Y-90551000D01*
X171577000Y-84201000D02*
X171577000Y-88590002D01*
D22*
G04 #@! TO.N,USB2_FPGA_D-*
X155131198Y-97116302D02*
X156845000Y-95402500D01*
X151220130Y-101855010D02*
X152005990Y-101069150D01*
X146525003Y-107256999D02*
X147485001Y-106297001D01*
X152005990Y-101069150D02*
X152005990Y-99108870D01*
X126238000Y-107950000D02*
X129122998Y-107950000D01*
X129122998Y-107950000D02*
X129815999Y-107256999D01*
X129815999Y-107256999D02*
X146525003Y-107256999D01*
X147485001Y-106297001D02*
X147485001Y-104762499D01*
X147485001Y-104762499D02*
X150392490Y-101855010D01*
X150392490Y-101855010D02*
X151220130Y-101855010D01*
X152005990Y-99108870D02*
X152309870Y-98804990D01*
X152309870Y-98804990D02*
X153442510Y-98804990D01*
D21*
X150221000Y-96139000D02*
X153162000Y-96139000D01*
X156718000Y-99542500D02*
X154813000Y-99542500D01*
X154813000Y-99542500D02*
X154338000Y-99542500D01*
D22*
X153442510Y-98804990D02*
X154178000Y-98171000D01*
D21*
X154178000Y-99382500D02*
X154178000Y-98171000D01*
X154338000Y-99542500D02*
X154178000Y-99382500D01*
D22*
X154178000Y-98171000D02*
X155131198Y-97116302D01*
D21*
G04 #@! TO.N,GP27*
X165159081Y-94234000D02*
X163957000Y-94234000D01*
X166746188Y-94234000D02*
X165159081Y-94234000D01*
X172802010Y-88178178D02*
X166746188Y-94234000D01*
X172802010Y-83079978D02*
X172802010Y-88178178D01*
X171866012Y-82143980D02*
X172802010Y-83079978D01*
X141151608Y-82143980D02*
X171866012Y-82143980D01*
X139380589Y-83914999D02*
X141151608Y-82143980D01*
X124873001Y-83914999D02*
X139380589Y-83914999D01*
X123698000Y-85090000D02*
X124873001Y-83914999D01*
G04 #@! TO.N,GN27*
X163067997Y-93384001D02*
X162266999Y-93384001D01*
X162266999Y-93384001D02*
X161417000Y-94234000D01*
X164995001Y-91456997D02*
X163067997Y-93384001D01*
X158638947Y-89425999D02*
X164410001Y-89425999D01*
X157224978Y-90839968D02*
X158638947Y-89425999D01*
X155448000Y-90839968D02*
X157224978Y-90839968D01*
X164995001Y-90010999D02*
X164995001Y-91456997D01*
X147202022Y-82593990D02*
X155448000Y-90839968D01*
X141338008Y-82593990D02*
X147202022Y-82593990D01*
X138841998Y-85090000D02*
X141338008Y-82593990D01*
X164410001Y-89425999D02*
X164995001Y-90010999D01*
X126238000Y-85090000D02*
X138841998Y-85090000D01*
G04 #@! TO.N,GP26*
X165159081Y-96774000D02*
X163957000Y-96774000D01*
X173252019Y-88681062D02*
X165159081Y-96774000D01*
X173252019Y-79529987D02*
X173252019Y-88681062D01*
X172316022Y-78593990D02*
X173252019Y-79529987D01*
X123375008Y-78593990D02*
X172316022Y-78593990D01*
X122522999Y-79445999D02*
X123375008Y-78593990D01*
X122522999Y-86454999D02*
X122522999Y-79445999D01*
X123698000Y-87630000D02*
X122522999Y-86454999D01*
G04 #@! TO.N,GN26*
X140562998Y-92075000D02*
X155067000Y-92075000D01*
X127852001Y-86015999D02*
X136623999Y-86015999D01*
X126238000Y-87630000D02*
X127852001Y-86015999D01*
X136623999Y-86015999D02*
X140098999Y-89490999D01*
X140098999Y-89490999D02*
X140098999Y-91611001D01*
X140098999Y-91611001D02*
X140562998Y-92075000D01*
G04 #@! TO.N,GP25*
X146939000Y-91313000D02*
X148059863Y-90192137D01*
X148059863Y-90192137D02*
X148059863Y-84477137D01*
G04 #@! TO.N,GN25*
X142842989Y-85565989D02*
X142875000Y-85598000D01*
X127665601Y-85565989D02*
X142842989Y-85565989D01*
X125062999Y-88994999D02*
X125062999Y-87065999D01*
X126238000Y-90170000D02*
X125062999Y-88994999D01*
X125062999Y-87065999D02*
X125673999Y-86454999D01*
X125673999Y-86454999D02*
X126776591Y-86454999D01*
X126776591Y-86454999D02*
X127665601Y-85565989D01*
X164331003Y-98138999D02*
X162592001Y-98138999D01*
X162266999Y-98464001D02*
X161417000Y-99314000D01*
X164807002Y-97663000D02*
X164331003Y-98138999D01*
X162592001Y-98138999D02*
X162266999Y-98464001D01*
X171196000Y-97663000D02*
X164807002Y-97663000D01*
G04 #@! TO.N,GP24*
X127889000Y-101030000D02*
X131129000Y-101030000D01*
X131129000Y-101030000D02*
X131191000Y-101092000D01*
G04 #@! TO.N,GN24*
X126873000Y-93345000D02*
X126238000Y-92710000D01*
X135255000Y-93345000D02*
X126873000Y-93345000D01*
D22*
G04 #@! TO.N,/FPD1-*
X137414000Y-93320897D02*
X137414000Y-94589500D01*
X137949000Y-92785897D02*
X137414000Y-93320897D01*
X137949000Y-91326000D02*
X137949000Y-92785897D01*
X138724000Y-90551000D02*
X137949000Y-91326000D01*
G04 #@! TO.N,/FPD1+*
X137499000Y-91326000D02*
X137499000Y-92599500D01*
X136724000Y-90551000D02*
X137499000Y-91326000D01*
X137499000Y-92599500D02*
X137095802Y-93002698D01*
X137095802Y-93002698D02*
X135509000Y-94589500D01*
G04 #@! TO.N,/FPD2-*
X163420000Y-91001000D02*
X163870000Y-90551000D01*
X163048002Y-91001000D02*
X163420000Y-91001000D01*
X161948010Y-92100992D02*
X163048002Y-91001000D01*
X157201405Y-92100992D02*
X161948010Y-92100992D01*
X156845000Y-92457397D02*
X157201405Y-92100992D01*
X156845000Y-93827500D02*
X156845000Y-92457397D01*
G04 #@! TO.N,/FPD2+*
X157014999Y-91651001D02*
X160319999Y-91651001D01*
X154813000Y-93853000D02*
X157014999Y-91651001D01*
X160319999Y-91651001D02*
X161420000Y-90551000D01*
X161420000Y-90551000D02*
X161870000Y-90551000D01*
G04 #@! TD*
D24*
G04 #@! TO.N,GND*
G36*
X173584000Y-109068000D02*
X157596300Y-109068000D01*
X157669185Y-109008185D01*
X157748537Y-108911494D01*
X157807502Y-108801180D01*
X157843812Y-108681482D01*
X157856072Y-108557000D01*
X157856072Y-107557000D01*
X157843812Y-107432518D01*
X157807502Y-107312820D01*
X157748537Y-107202506D01*
X157669185Y-107105815D01*
X157572494Y-107026463D01*
X157462180Y-106967498D01*
X157342482Y-106931188D01*
X157218000Y-106918928D01*
X156218000Y-106918928D01*
X156093518Y-106931188D01*
X155973820Y-106967498D01*
X155863506Y-107026463D01*
X155766815Y-107105815D01*
X155687463Y-107202506D01*
X155636954Y-107297000D01*
X154370046Y-107297000D01*
X154319537Y-107202506D01*
X154240185Y-107105815D01*
X154143494Y-107026463D01*
X154033180Y-106967498D01*
X153913482Y-106931188D01*
X153789000Y-106918928D01*
X153033000Y-106918928D01*
X153033000Y-106695072D01*
X153789000Y-106695072D01*
X153913482Y-106682812D01*
X154033180Y-106646502D01*
X154143494Y-106587537D01*
X154240185Y-106508185D01*
X154319537Y-106411494D01*
X154378502Y-106301180D01*
X154414812Y-106181482D01*
X154427072Y-106057000D01*
X154427072Y-105057000D01*
X154414812Y-104932518D01*
X154378502Y-104812820D01*
X154319537Y-104702506D01*
X154240185Y-104605815D01*
X154143494Y-104526463D01*
X154049000Y-104475954D01*
X154049000Y-104327801D01*
X155324009Y-103052794D01*
X155353001Y-103029001D01*
X155376795Y-103000008D01*
X155376799Y-103000004D01*
X155447973Y-102913277D01*
X155447974Y-102913276D01*
X155518546Y-102781247D01*
X155562003Y-102637986D01*
X155573000Y-102526333D01*
X155573000Y-102526324D01*
X155576676Y-102489001D01*
X155573000Y-102451678D01*
X155573000Y-102025918D01*
X155675115Y-101942115D01*
X155765500Y-101831980D01*
X155855885Y-101942115D01*
X155958001Y-102025918D01*
X155958000Y-104475954D01*
X155863506Y-104526463D01*
X155766815Y-104605815D01*
X155687463Y-104702506D01*
X155628498Y-104812820D01*
X155592188Y-104932518D01*
X155579928Y-105057000D01*
X155579928Y-106057000D01*
X155592188Y-106181482D01*
X155628498Y-106301180D01*
X155687463Y-106411494D01*
X155766815Y-106508185D01*
X155863506Y-106587537D01*
X155973820Y-106646502D01*
X156093518Y-106682812D01*
X156218000Y-106695072D01*
X157218000Y-106695072D01*
X157342482Y-106682812D01*
X157462180Y-106646502D01*
X157572494Y-106587537D01*
X157669185Y-106508185D01*
X157748537Y-106411494D01*
X157807502Y-106301180D01*
X157843812Y-106181482D01*
X157853412Y-106084000D01*
X159928928Y-106084000D01*
X159928928Y-107784000D01*
X159941188Y-107908482D01*
X159977498Y-108028180D01*
X160036463Y-108138494D01*
X160115815Y-108235185D01*
X160212506Y-108314537D01*
X160322820Y-108373502D01*
X160442518Y-108409812D01*
X160567000Y-108422072D01*
X162267000Y-108422072D01*
X162391482Y-108409812D01*
X162511180Y-108373502D01*
X162621494Y-108314537D01*
X162718185Y-108235185D01*
X162797537Y-108138494D01*
X162856502Y-108028180D01*
X162877393Y-107959313D01*
X162901866Y-107989134D01*
X163127986Y-108174706D01*
X163385966Y-108312599D01*
X163665889Y-108397513D01*
X163884050Y-108419000D01*
X164029950Y-108419000D01*
X164248111Y-108397513D01*
X164528034Y-108312599D01*
X164786014Y-108174706D01*
X165012134Y-107989134D01*
X165197706Y-107763014D01*
X165335599Y-107505034D01*
X165420513Y-107225111D01*
X165449185Y-106934000D01*
X165420513Y-106642889D01*
X165335599Y-106362966D01*
X165197706Y-106104986D01*
X165012134Y-105878866D01*
X164786014Y-105693294D01*
X164721477Y-105658799D01*
X164838355Y-105589178D01*
X165054588Y-105394269D01*
X165228641Y-105160920D01*
X165353825Y-104898099D01*
X165398476Y-104750890D01*
X165277155Y-104521000D01*
X164084000Y-104521000D01*
X164084000Y-104541000D01*
X163830000Y-104541000D01*
X163830000Y-104521000D01*
X161544000Y-104521000D01*
X161544000Y-104541000D01*
X161290000Y-104541000D01*
X161290000Y-104521000D01*
X160096845Y-104521000D01*
X159975524Y-104750890D01*
X160020175Y-104898099D01*
X160145359Y-105160920D01*
X160319412Y-105394269D01*
X160403466Y-105470034D01*
X160322820Y-105494498D01*
X160212506Y-105553463D01*
X160115815Y-105632815D01*
X160036463Y-105729506D01*
X159977498Y-105839820D01*
X159941188Y-105959518D01*
X159928928Y-106084000D01*
X157853412Y-106084000D01*
X157856072Y-106057000D01*
X157856072Y-105057000D01*
X157843812Y-104932518D01*
X157807502Y-104812820D01*
X157748537Y-104702506D01*
X157669185Y-104605815D01*
X157572494Y-104526463D01*
X157478000Y-104475954D01*
X157478000Y-102025918D01*
X157580115Y-101942115D01*
X157686671Y-101812275D01*
X157765850Y-101664142D01*
X157814608Y-101503408D01*
X157831072Y-101336250D01*
X157831072Y-100898750D01*
X157814608Y-100731592D01*
X157765850Y-100570858D01*
X157686671Y-100422725D01*
X157610574Y-100330000D01*
X157686671Y-100237275D01*
X157765850Y-100089142D01*
X157814608Y-99928408D01*
X157831072Y-99761250D01*
X157831072Y-99323750D01*
X157814608Y-99156592D01*
X157765850Y-98995858D01*
X157686671Y-98847725D01*
X157580115Y-98717885D01*
X157450275Y-98611329D01*
X157302142Y-98532150D01*
X157141408Y-98483392D01*
X156974250Y-98466928D01*
X156461750Y-98466928D01*
X156294592Y-98483392D01*
X156133858Y-98532150D01*
X155985725Y-98611329D01*
X155855885Y-98717885D01*
X155802857Y-98782500D01*
X155728143Y-98782500D01*
X155675115Y-98717885D01*
X155545275Y-98611329D01*
X155397142Y-98532150D01*
X155236408Y-98483392D01*
X155069250Y-98466928D01*
X154938000Y-98466928D01*
X154938000Y-98426258D01*
X155664061Y-97622885D01*
X156808875Y-96478072D01*
X157101250Y-96478072D01*
X157268408Y-96461608D01*
X157429142Y-96412850D01*
X157577275Y-96333671D01*
X157707115Y-96227115D01*
X157813671Y-96097275D01*
X157892850Y-95949142D01*
X157941608Y-95788408D01*
X157958072Y-95621250D01*
X157958072Y-95183750D01*
X157941608Y-95016592D01*
X157892850Y-94855858D01*
X157813671Y-94707725D01*
X157737574Y-94615000D01*
X157813671Y-94522275D01*
X157892850Y-94374142D01*
X157941608Y-94213408D01*
X157958072Y-94046250D01*
X157958072Y-93608750D01*
X157941608Y-93441592D01*
X157892850Y-93280858D01*
X157813671Y-93132725D01*
X157707115Y-93002885D01*
X157580000Y-92898565D01*
X157580000Y-92835992D01*
X160909949Y-92835992D01*
X160845966Y-92855401D01*
X160587986Y-92993294D01*
X160361866Y-93178866D01*
X160176294Y-93404986D01*
X160038401Y-93662966D01*
X159953487Y-93942889D01*
X159924815Y-94234000D01*
X159953487Y-94525111D01*
X160038401Y-94805034D01*
X160176294Y-95063014D01*
X160361866Y-95289134D01*
X160587986Y-95474706D01*
X160642791Y-95504000D01*
X160587986Y-95533294D01*
X160361866Y-95718866D01*
X160176294Y-95944986D01*
X160038401Y-96202966D01*
X159953487Y-96482889D01*
X159924815Y-96774000D01*
X159953487Y-97065111D01*
X160038401Y-97345034D01*
X160176294Y-97603014D01*
X160361866Y-97829134D01*
X160587986Y-98014706D01*
X160642791Y-98044000D01*
X160587986Y-98073294D01*
X160361866Y-98258866D01*
X160176294Y-98484986D01*
X160038401Y-98742966D01*
X159953487Y-99022889D01*
X159924815Y-99314000D01*
X159953487Y-99605111D01*
X160038401Y-99885034D01*
X160176294Y-100143014D01*
X160361866Y-100369134D01*
X160587986Y-100554706D01*
X160642791Y-100584000D01*
X160587986Y-100613294D01*
X160361866Y-100798866D01*
X160176294Y-101024986D01*
X160038401Y-101282966D01*
X159953487Y-101562889D01*
X159924815Y-101854000D01*
X159953487Y-102145111D01*
X160038401Y-102425034D01*
X160176294Y-102683014D01*
X160361866Y-102909134D01*
X160587986Y-103094706D01*
X160652523Y-103129201D01*
X160535645Y-103198822D01*
X160319412Y-103393731D01*
X160145359Y-103627080D01*
X160020175Y-103889901D01*
X159975524Y-104037110D01*
X160096845Y-104267000D01*
X161290000Y-104267000D01*
X161290000Y-104247000D01*
X161544000Y-104247000D01*
X161544000Y-104267000D01*
X163830000Y-104267000D01*
X163830000Y-104247000D01*
X164084000Y-104247000D01*
X164084000Y-104267000D01*
X165277155Y-104267000D01*
X165398476Y-104037110D01*
X165353825Y-103889901D01*
X165228641Y-103627080D01*
X165054588Y-103393731D01*
X164838355Y-103198822D01*
X164721477Y-103129201D01*
X164786014Y-103094706D01*
X165012134Y-102909134D01*
X165197706Y-102683014D01*
X165335599Y-102425034D01*
X165420513Y-102145111D01*
X165449185Y-101854000D01*
X165420513Y-101562889D01*
X165335599Y-101282966D01*
X165197706Y-101024986D01*
X165012134Y-100798866D01*
X164786014Y-100613294D01*
X164731209Y-100584000D01*
X164786014Y-100554706D01*
X165012134Y-100369134D01*
X165197706Y-100143014D01*
X165335599Y-99885034D01*
X165420513Y-99605111D01*
X165449185Y-99314000D01*
X165420513Y-99022889D01*
X165335599Y-98742966D01*
X165197706Y-98484986D01*
X165146835Y-98423000D01*
X170492289Y-98423000D01*
X170536226Y-98466937D01*
X170705744Y-98580205D01*
X170894102Y-98658226D01*
X171094061Y-98698000D01*
X171297939Y-98698000D01*
X171497898Y-98658226D01*
X171686256Y-98580205D01*
X171855774Y-98466937D01*
X171999937Y-98322774D01*
X172113205Y-98153256D01*
X172191226Y-97964898D01*
X172231000Y-97764939D01*
X172231000Y-97561061D01*
X172191226Y-97361102D01*
X172113205Y-97172744D01*
X171999937Y-97003226D01*
X171855774Y-96859063D01*
X171686256Y-96745795D01*
X171497898Y-96667774D01*
X171297939Y-96628000D01*
X171094061Y-96628000D01*
X170894102Y-96667774D01*
X170705744Y-96745795D01*
X170536226Y-96859063D01*
X170492289Y-96903000D01*
X166104882Y-96903000D01*
X173584001Y-89423882D01*
X173584000Y-109068000D01*
X173584000Y-109068000D01*
G37*
X173584000Y-109068000D02*
X157596300Y-109068000D01*
X157669185Y-109008185D01*
X157748537Y-108911494D01*
X157807502Y-108801180D01*
X157843812Y-108681482D01*
X157856072Y-108557000D01*
X157856072Y-107557000D01*
X157843812Y-107432518D01*
X157807502Y-107312820D01*
X157748537Y-107202506D01*
X157669185Y-107105815D01*
X157572494Y-107026463D01*
X157462180Y-106967498D01*
X157342482Y-106931188D01*
X157218000Y-106918928D01*
X156218000Y-106918928D01*
X156093518Y-106931188D01*
X155973820Y-106967498D01*
X155863506Y-107026463D01*
X155766815Y-107105815D01*
X155687463Y-107202506D01*
X155636954Y-107297000D01*
X154370046Y-107297000D01*
X154319537Y-107202506D01*
X154240185Y-107105815D01*
X154143494Y-107026463D01*
X154033180Y-106967498D01*
X153913482Y-106931188D01*
X153789000Y-106918928D01*
X153033000Y-106918928D01*
X153033000Y-106695072D01*
X153789000Y-106695072D01*
X153913482Y-106682812D01*
X154033180Y-106646502D01*
X154143494Y-106587537D01*
X154240185Y-106508185D01*
X154319537Y-106411494D01*
X154378502Y-106301180D01*
X154414812Y-106181482D01*
X154427072Y-106057000D01*
X154427072Y-105057000D01*
X154414812Y-104932518D01*
X154378502Y-104812820D01*
X154319537Y-104702506D01*
X154240185Y-104605815D01*
X154143494Y-104526463D01*
X154049000Y-104475954D01*
X154049000Y-104327801D01*
X155324009Y-103052794D01*
X155353001Y-103029001D01*
X155376795Y-103000008D01*
X155376799Y-103000004D01*
X155447973Y-102913277D01*
X155447974Y-102913276D01*
X155518546Y-102781247D01*
X155562003Y-102637986D01*
X155573000Y-102526333D01*
X155573000Y-102526324D01*
X155576676Y-102489001D01*
X155573000Y-102451678D01*
X155573000Y-102025918D01*
X155675115Y-101942115D01*
X155765500Y-101831980D01*
X155855885Y-101942115D01*
X155958001Y-102025918D01*
X155958000Y-104475954D01*
X155863506Y-104526463D01*
X155766815Y-104605815D01*
X155687463Y-104702506D01*
X155628498Y-104812820D01*
X155592188Y-104932518D01*
X155579928Y-105057000D01*
X155579928Y-106057000D01*
X155592188Y-106181482D01*
X155628498Y-106301180D01*
X155687463Y-106411494D01*
X155766815Y-106508185D01*
X155863506Y-106587537D01*
X155973820Y-106646502D01*
X156093518Y-106682812D01*
X156218000Y-106695072D01*
X157218000Y-106695072D01*
X157342482Y-106682812D01*
X157462180Y-106646502D01*
X157572494Y-106587537D01*
X157669185Y-106508185D01*
X157748537Y-106411494D01*
X157807502Y-106301180D01*
X157843812Y-106181482D01*
X157853412Y-106084000D01*
X159928928Y-106084000D01*
X159928928Y-107784000D01*
X159941188Y-107908482D01*
X159977498Y-108028180D01*
X160036463Y-108138494D01*
X160115815Y-108235185D01*
X160212506Y-108314537D01*
X160322820Y-108373502D01*
X160442518Y-108409812D01*
X160567000Y-108422072D01*
X162267000Y-108422072D01*
X162391482Y-108409812D01*
X162511180Y-108373502D01*
X162621494Y-108314537D01*
X162718185Y-108235185D01*
X162797537Y-108138494D01*
X162856502Y-108028180D01*
X162877393Y-107959313D01*
X162901866Y-107989134D01*
X163127986Y-108174706D01*
X163385966Y-108312599D01*
X163665889Y-108397513D01*
X163884050Y-108419000D01*
X164029950Y-108419000D01*
X164248111Y-108397513D01*
X164528034Y-108312599D01*
X164786014Y-108174706D01*
X165012134Y-107989134D01*
X165197706Y-107763014D01*
X165335599Y-107505034D01*
X165420513Y-107225111D01*
X165449185Y-106934000D01*
X165420513Y-106642889D01*
X165335599Y-106362966D01*
X165197706Y-106104986D01*
X165012134Y-105878866D01*
X164786014Y-105693294D01*
X164721477Y-105658799D01*
X164838355Y-105589178D01*
X165054588Y-105394269D01*
X165228641Y-105160920D01*
X165353825Y-104898099D01*
X165398476Y-104750890D01*
X165277155Y-104521000D01*
X164084000Y-104521000D01*
X164084000Y-104541000D01*
X163830000Y-104541000D01*
X163830000Y-104521000D01*
X161544000Y-104521000D01*
X161544000Y-104541000D01*
X161290000Y-104541000D01*
X161290000Y-104521000D01*
X160096845Y-104521000D01*
X159975524Y-104750890D01*
X160020175Y-104898099D01*
X160145359Y-105160920D01*
X160319412Y-105394269D01*
X160403466Y-105470034D01*
X160322820Y-105494498D01*
X160212506Y-105553463D01*
X160115815Y-105632815D01*
X160036463Y-105729506D01*
X159977498Y-105839820D01*
X159941188Y-105959518D01*
X159928928Y-106084000D01*
X157853412Y-106084000D01*
X157856072Y-106057000D01*
X157856072Y-105057000D01*
X157843812Y-104932518D01*
X157807502Y-104812820D01*
X157748537Y-104702506D01*
X157669185Y-104605815D01*
X157572494Y-104526463D01*
X157478000Y-104475954D01*
X157478000Y-102025918D01*
X157580115Y-101942115D01*
X157686671Y-101812275D01*
X157765850Y-101664142D01*
X157814608Y-101503408D01*
X157831072Y-101336250D01*
X157831072Y-100898750D01*
X157814608Y-100731592D01*
X157765850Y-100570858D01*
X157686671Y-100422725D01*
X157610574Y-100330000D01*
X157686671Y-100237275D01*
X157765850Y-100089142D01*
X157814608Y-99928408D01*
X157831072Y-99761250D01*
X157831072Y-99323750D01*
X157814608Y-99156592D01*
X157765850Y-98995858D01*
X157686671Y-98847725D01*
X157580115Y-98717885D01*
X157450275Y-98611329D01*
X157302142Y-98532150D01*
X157141408Y-98483392D01*
X156974250Y-98466928D01*
X156461750Y-98466928D01*
X156294592Y-98483392D01*
X156133858Y-98532150D01*
X155985725Y-98611329D01*
X155855885Y-98717885D01*
X155802857Y-98782500D01*
X155728143Y-98782500D01*
X155675115Y-98717885D01*
X155545275Y-98611329D01*
X155397142Y-98532150D01*
X155236408Y-98483392D01*
X155069250Y-98466928D01*
X154938000Y-98466928D01*
X154938000Y-98426258D01*
X155664061Y-97622885D01*
X156808875Y-96478072D01*
X157101250Y-96478072D01*
X157268408Y-96461608D01*
X157429142Y-96412850D01*
X157577275Y-96333671D01*
X157707115Y-96227115D01*
X157813671Y-96097275D01*
X157892850Y-95949142D01*
X157941608Y-95788408D01*
X157958072Y-95621250D01*
X157958072Y-95183750D01*
X157941608Y-95016592D01*
X157892850Y-94855858D01*
X157813671Y-94707725D01*
X157737574Y-94615000D01*
X157813671Y-94522275D01*
X157892850Y-94374142D01*
X157941608Y-94213408D01*
X157958072Y-94046250D01*
X157958072Y-93608750D01*
X157941608Y-93441592D01*
X157892850Y-93280858D01*
X157813671Y-93132725D01*
X157707115Y-93002885D01*
X157580000Y-92898565D01*
X157580000Y-92835992D01*
X160909949Y-92835992D01*
X160845966Y-92855401D01*
X160587986Y-92993294D01*
X160361866Y-93178866D01*
X160176294Y-93404986D01*
X160038401Y-93662966D01*
X159953487Y-93942889D01*
X159924815Y-94234000D01*
X159953487Y-94525111D01*
X160038401Y-94805034D01*
X160176294Y-95063014D01*
X160361866Y-95289134D01*
X160587986Y-95474706D01*
X160642791Y-95504000D01*
X160587986Y-95533294D01*
X160361866Y-95718866D01*
X160176294Y-95944986D01*
X160038401Y-96202966D01*
X159953487Y-96482889D01*
X159924815Y-96774000D01*
X159953487Y-97065111D01*
X160038401Y-97345034D01*
X160176294Y-97603014D01*
X160361866Y-97829134D01*
X160587986Y-98014706D01*
X160642791Y-98044000D01*
X160587986Y-98073294D01*
X160361866Y-98258866D01*
X160176294Y-98484986D01*
X160038401Y-98742966D01*
X159953487Y-99022889D01*
X159924815Y-99314000D01*
X159953487Y-99605111D01*
X160038401Y-99885034D01*
X160176294Y-100143014D01*
X160361866Y-100369134D01*
X160587986Y-100554706D01*
X160642791Y-100584000D01*
X160587986Y-100613294D01*
X160361866Y-100798866D01*
X160176294Y-101024986D01*
X160038401Y-101282966D01*
X159953487Y-101562889D01*
X159924815Y-101854000D01*
X159953487Y-102145111D01*
X160038401Y-102425034D01*
X160176294Y-102683014D01*
X160361866Y-102909134D01*
X160587986Y-103094706D01*
X160652523Y-103129201D01*
X160535645Y-103198822D01*
X160319412Y-103393731D01*
X160145359Y-103627080D01*
X160020175Y-103889901D01*
X159975524Y-104037110D01*
X160096845Y-104267000D01*
X161290000Y-104267000D01*
X161290000Y-104247000D01*
X161544000Y-104247000D01*
X161544000Y-104267000D01*
X163830000Y-104267000D01*
X163830000Y-104247000D01*
X164084000Y-104247000D01*
X164084000Y-104267000D01*
X165277155Y-104267000D01*
X165398476Y-104037110D01*
X165353825Y-103889901D01*
X165228641Y-103627080D01*
X165054588Y-103393731D01*
X164838355Y-103198822D01*
X164721477Y-103129201D01*
X164786014Y-103094706D01*
X165012134Y-102909134D01*
X165197706Y-102683014D01*
X165335599Y-102425034D01*
X165420513Y-102145111D01*
X165449185Y-101854000D01*
X165420513Y-101562889D01*
X165335599Y-101282966D01*
X165197706Y-101024986D01*
X165012134Y-100798866D01*
X164786014Y-100613294D01*
X164731209Y-100584000D01*
X164786014Y-100554706D01*
X165012134Y-100369134D01*
X165197706Y-100143014D01*
X165335599Y-99885034D01*
X165420513Y-99605111D01*
X165449185Y-99314000D01*
X165420513Y-99022889D01*
X165335599Y-98742966D01*
X165197706Y-98484986D01*
X165146835Y-98423000D01*
X170492289Y-98423000D01*
X170536226Y-98466937D01*
X170705744Y-98580205D01*
X170894102Y-98658226D01*
X171094061Y-98698000D01*
X171297939Y-98698000D01*
X171497898Y-98658226D01*
X171686256Y-98580205D01*
X171855774Y-98466937D01*
X171999937Y-98322774D01*
X172113205Y-98153256D01*
X172191226Y-97964898D01*
X172231000Y-97764939D01*
X172231000Y-97561061D01*
X172191226Y-97361102D01*
X172113205Y-97172744D01*
X171999937Y-97003226D01*
X171855774Y-96859063D01*
X171686256Y-96745795D01*
X171497898Y-96667774D01*
X171297939Y-96628000D01*
X171094061Y-96628000D01*
X170894102Y-96667774D01*
X170705744Y-96745795D01*
X170536226Y-96859063D01*
X170492289Y-96903000D01*
X166104882Y-96903000D01*
X173584001Y-89423882D01*
X173584000Y-109068000D01*
G36*
X139393453Y-91903247D02*
X139464025Y-92035277D01*
X139535200Y-92122003D01*
X139558999Y-92151002D01*
X139587997Y-92174800D01*
X139999194Y-92585997D01*
X140022997Y-92615001D01*
X140138722Y-92709974D01*
X140270751Y-92780546D01*
X140414012Y-92824003D01*
X140525665Y-92835000D01*
X140525673Y-92835000D01*
X140562998Y-92838676D01*
X140600323Y-92835000D01*
X154254077Y-92835000D01*
X154228858Y-92842650D01*
X154080725Y-92921829D01*
X153950885Y-93028385D01*
X153844329Y-93158225D01*
X153765150Y-93306358D01*
X153758423Y-93328534D01*
X153657247Y-93274454D01*
X153513986Y-93230997D01*
X153402333Y-93220000D01*
X153402322Y-93220000D01*
X153365000Y-93216324D01*
X153327678Y-93220000D01*
X151302046Y-93220000D01*
X151251537Y-93125506D01*
X151172185Y-93028815D01*
X151075494Y-92949463D01*
X150965180Y-92890498D01*
X150845482Y-92854188D01*
X150721000Y-92841928D01*
X149721000Y-92841928D01*
X149596518Y-92854188D01*
X149476820Y-92890498D01*
X149366506Y-92949463D01*
X149269815Y-93028815D01*
X149190463Y-93125506D01*
X149131498Y-93235820D01*
X149095188Y-93355518D01*
X149082928Y-93480000D01*
X149082928Y-94480000D01*
X149095188Y-94604482D01*
X149131498Y-94724180D01*
X149190463Y-94834494D01*
X149269815Y-94931185D01*
X149366506Y-95010537D01*
X149458108Y-95059500D01*
X149366506Y-95108463D01*
X149269815Y-95187815D01*
X149190463Y-95284506D01*
X149131498Y-95394820D01*
X149095188Y-95514518D01*
X149082928Y-95639000D01*
X149082928Y-96639000D01*
X149095188Y-96763482D01*
X149131498Y-96883180D01*
X149190463Y-96993494D01*
X149269815Y-97090185D01*
X149366506Y-97169537D01*
X149476820Y-97228502D01*
X149596518Y-97264812D01*
X149721000Y-97277072D01*
X150721000Y-97277072D01*
X150845482Y-97264812D01*
X150965180Y-97228502D01*
X151075494Y-97169537D01*
X151172185Y-97090185D01*
X151251537Y-96993494D01*
X151302046Y-96899000D01*
X152081289Y-96899000D01*
X151977063Y-97003226D01*
X151863795Y-97172744D01*
X151785774Y-97361102D01*
X151746000Y-97561061D01*
X151746000Y-97723358D01*
X151713158Y-97740912D01*
X151601240Y-97832761D01*
X151578224Y-97860806D01*
X150972102Y-98466928D01*
X150492750Y-98466928D01*
X150325592Y-98483392D01*
X150164858Y-98532150D01*
X150016725Y-98611329D01*
X149886885Y-98717885D01*
X149780329Y-98847725D01*
X149701150Y-98995858D01*
X149681690Y-99060009D01*
X149462993Y-99278706D01*
X149433989Y-99302509D01*
X149388644Y-99357763D01*
X149339016Y-99418234D01*
X149291917Y-99506350D01*
X149268444Y-99550264D01*
X149224987Y-99693525D01*
X149213990Y-99805178D01*
X149213990Y-99805188D01*
X149210314Y-99842510D01*
X149213990Y-99879832D01*
X149213990Y-100541819D01*
X149224987Y-100653472D01*
X149238991Y-100699637D01*
X149238990Y-101332666D01*
X146549658Y-104021999D01*
X145981093Y-104021999D01*
X145944998Y-104018444D01*
X145908903Y-104021999D01*
X145908894Y-104021999D01*
X145800914Y-104032634D01*
X145662366Y-104074662D01*
X145601805Y-104107032D01*
X145570205Y-104030744D01*
X145456937Y-103861226D01*
X145413000Y-103817289D01*
X145413000Y-102049711D01*
X145456937Y-102005774D01*
X145570205Y-101836256D01*
X145648226Y-101647898D01*
X145688000Y-101447939D01*
X145688000Y-101244061D01*
X145648226Y-101044102D01*
X145570205Y-100855744D01*
X145456937Y-100686226D01*
X145312774Y-100542063D01*
X145143256Y-100428795D01*
X144954898Y-100350774D01*
X144754939Y-100311000D01*
X144551061Y-100311000D01*
X144351102Y-100350774D01*
X144162744Y-100428795D01*
X143993226Y-100542063D01*
X143849063Y-100686226D01*
X143735795Y-100855744D01*
X143657774Y-101044102D01*
X143618000Y-101244061D01*
X143618000Y-101447939D01*
X143657774Y-101647898D01*
X143735795Y-101836256D01*
X143849063Y-102005774D01*
X143893000Y-102049711D01*
X143893000Y-102526332D01*
X143893001Y-102526342D01*
X143893000Y-103817289D01*
X143849063Y-103861226D01*
X143735795Y-104030744D01*
X143657774Y-104219102D01*
X143618000Y-104419061D01*
X143618000Y-104622939D01*
X143657774Y-104822898D01*
X143735795Y-105011256D01*
X143849063Y-105180774D01*
X143993226Y-105324937D01*
X144162744Y-105438205D01*
X144206304Y-105456248D01*
X143597553Y-106064999D01*
X141980284Y-106064999D01*
X141981072Y-106057000D01*
X141981072Y-105057000D01*
X141968812Y-104932518D01*
X141932502Y-104812820D01*
X141873537Y-104702506D01*
X141794185Y-104605815D01*
X141697494Y-104526463D01*
X141587180Y-104467498D01*
X141467482Y-104431188D01*
X141343000Y-104418928D01*
X140376874Y-104418928D01*
X141862004Y-102933798D01*
X141891001Y-102910001D01*
X141985974Y-102794276D01*
X142056546Y-102662247D01*
X142100003Y-102518986D01*
X142111000Y-102407333D01*
X142111000Y-102407332D01*
X142114677Y-102370000D01*
X142111000Y-102332667D01*
X142111000Y-102025918D01*
X142213115Y-101942115D01*
X142319671Y-101812275D01*
X142398850Y-101664142D01*
X142447608Y-101503408D01*
X142464072Y-101336250D01*
X142464072Y-100898750D01*
X142450575Y-100761720D01*
X142662007Y-100550288D01*
X142691011Y-100526485D01*
X142785984Y-100410760D01*
X142856556Y-100278731D01*
X142900013Y-100135470D01*
X142911010Y-100023817D01*
X142911010Y-100023809D01*
X142914686Y-99986484D01*
X142911010Y-99949159D01*
X142911010Y-99135838D01*
X142914686Y-99098515D01*
X142911010Y-99061192D01*
X142911010Y-99061183D01*
X142900013Y-98949530D01*
X142856556Y-98806269D01*
X142785984Y-98674240D01*
X142691011Y-98558515D01*
X142662008Y-98534713D01*
X142639000Y-98511705D01*
X142639000Y-97220046D01*
X142733494Y-97169537D01*
X142830185Y-97090185D01*
X142909537Y-96993494D01*
X142968502Y-96883180D01*
X143004812Y-96763482D01*
X143017072Y-96639000D01*
X143017072Y-96424750D01*
X143244000Y-96424750D01*
X143244000Y-96701542D01*
X143268403Y-96824223D01*
X143316270Y-96939785D01*
X143385763Y-97043789D01*
X143474211Y-97132237D01*
X143578215Y-97201730D01*
X143693777Y-97249597D01*
X143816458Y-97274000D01*
X144093250Y-97274000D01*
X144252000Y-97115250D01*
X144252000Y-96266000D01*
X144506000Y-96266000D01*
X144506000Y-97115250D01*
X144664750Y-97274000D01*
X144941542Y-97274000D01*
X145064223Y-97249597D01*
X145179785Y-97201730D01*
X145283789Y-97132237D01*
X145372237Y-97043789D01*
X145441730Y-96939785D01*
X145489597Y-96824223D01*
X145514000Y-96701542D01*
X145514000Y-96424750D01*
X146586000Y-96424750D01*
X146586000Y-96701542D01*
X146610403Y-96824223D01*
X146658270Y-96939785D01*
X146727763Y-97043789D01*
X146816211Y-97132237D01*
X146920215Y-97201730D01*
X147035777Y-97249597D01*
X147158458Y-97274000D01*
X147435250Y-97274000D01*
X147594000Y-97115250D01*
X147594000Y-96266000D01*
X147848000Y-96266000D01*
X147848000Y-97115250D01*
X148006750Y-97274000D01*
X148283542Y-97274000D01*
X148406223Y-97249597D01*
X148521785Y-97201730D01*
X148625789Y-97132237D01*
X148714237Y-97043789D01*
X148783730Y-96939785D01*
X148831597Y-96824223D01*
X148856000Y-96701542D01*
X148856000Y-96424750D01*
X148697250Y-96266000D01*
X147848000Y-96266000D01*
X147594000Y-96266000D01*
X146744750Y-96266000D01*
X146586000Y-96424750D01*
X145514000Y-96424750D01*
X145355250Y-96266000D01*
X144506000Y-96266000D01*
X144252000Y-96266000D01*
X143402750Y-96266000D01*
X143244000Y-96424750D01*
X143017072Y-96424750D01*
X143017072Y-95639000D01*
X143004812Y-95514518D01*
X142968502Y-95394820D01*
X142909537Y-95284506D01*
X142830185Y-95187815D01*
X142733494Y-95108463D01*
X142641892Y-95059500D01*
X142733494Y-95010537D01*
X142830185Y-94931185D01*
X142909537Y-94834494D01*
X142968502Y-94724180D01*
X143004812Y-94604482D01*
X143017072Y-94480000D01*
X143017072Y-94265750D01*
X143244000Y-94265750D01*
X143244000Y-94542542D01*
X143268403Y-94665223D01*
X143316270Y-94780785D01*
X143385763Y-94884789D01*
X143474211Y-94973237D01*
X143578215Y-95042730D01*
X143618702Y-95059500D01*
X143578215Y-95076270D01*
X143474211Y-95145763D01*
X143385763Y-95234211D01*
X143316270Y-95338215D01*
X143268403Y-95453777D01*
X143244000Y-95576458D01*
X143244000Y-95853250D01*
X143402750Y-96012000D01*
X144252000Y-96012000D01*
X144252000Y-95162750D01*
X144148750Y-95059500D01*
X144252000Y-94956250D01*
X144252000Y-94107000D01*
X144506000Y-94107000D01*
X144506000Y-94956250D01*
X144609250Y-95059500D01*
X144506000Y-95162750D01*
X144506000Y-96012000D01*
X145355250Y-96012000D01*
X145514000Y-95853250D01*
X145514000Y-95576458D01*
X145489597Y-95453777D01*
X145441730Y-95338215D01*
X145372237Y-95234211D01*
X145283789Y-95145763D01*
X145179785Y-95076270D01*
X145139298Y-95059500D01*
X145179785Y-95042730D01*
X145283789Y-94973237D01*
X145372237Y-94884789D01*
X145441730Y-94780785D01*
X145489597Y-94665223D01*
X145514000Y-94542542D01*
X145514000Y-94265750D01*
X146586000Y-94265750D01*
X146586000Y-94542542D01*
X146610403Y-94665223D01*
X146658270Y-94780785D01*
X146727763Y-94884789D01*
X146816211Y-94973237D01*
X146920215Y-95042730D01*
X146960702Y-95059500D01*
X146920215Y-95076270D01*
X146816211Y-95145763D01*
X146727763Y-95234211D01*
X146658270Y-95338215D01*
X146610403Y-95453777D01*
X146586000Y-95576458D01*
X146586000Y-95853250D01*
X146744750Y-96012000D01*
X147594000Y-96012000D01*
X147594000Y-95162750D01*
X147490750Y-95059500D01*
X147594000Y-94956250D01*
X147594000Y-94107000D01*
X147848000Y-94107000D01*
X147848000Y-94956250D01*
X147951250Y-95059500D01*
X147848000Y-95162750D01*
X147848000Y-96012000D01*
X148697250Y-96012000D01*
X148856000Y-95853250D01*
X148856000Y-95576458D01*
X148831597Y-95453777D01*
X148783730Y-95338215D01*
X148714237Y-95234211D01*
X148625789Y-95145763D01*
X148521785Y-95076270D01*
X148481298Y-95059500D01*
X148521785Y-95042730D01*
X148625789Y-94973237D01*
X148714237Y-94884789D01*
X148783730Y-94780785D01*
X148831597Y-94665223D01*
X148856000Y-94542542D01*
X148856000Y-94265750D01*
X148697250Y-94107000D01*
X147848000Y-94107000D01*
X147594000Y-94107000D01*
X146744750Y-94107000D01*
X146586000Y-94265750D01*
X145514000Y-94265750D01*
X145355250Y-94107000D01*
X144506000Y-94107000D01*
X144252000Y-94107000D01*
X143402750Y-94107000D01*
X143244000Y-94265750D01*
X143017072Y-94265750D01*
X143017072Y-93480000D01*
X143010913Y-93417458D01*
X143244000Y-93417458D01*
X143244000Y-93694250D01*
X143402750Y-93853000D01*
X144252000Y-93853000D01*
X144252000Y-93003750D01*
X144506000Y-93003750D01*
X144506000Y-93853000D01*
X145355250Y-93853000D01*
X145514000Y-93694250D01*
X145514000Y-93417458D01*
X146586000Y-93417458D01*
X146586000Y-93694250D01*
X146744750Y-93853000D01*
X147594000Y-93853000D01*
X147594000Y-93003750D01*
X147848000Y-93003750D01*
X147848000Y-93853000D01*
X148697250Y-93853000D01*
X148856000Y-93694250D01*
X148856000Y-93417458D01*
X148831597Y-93294777D01*
X148783730Y-93179215D01*
X148714237Y-93075211D01*
X148625789Y-92986763D01*
X148521785Y-92917270D01*
X148406223Y-92869403D01*
X148283542Y-92845000D01*
X148006750Y-92845000D01*
X147848000Y-93003750D01*
X147594000Y-93003750D01*
X147435250Y-92845000D01*
X147158458Y-92845000D01*
X147035777Y-92869403D01*
X146920215Y-92917270D01*
X146816211Y-92986763D01*
X146727763Y-93075211D01*
X146658270Y-93179215D01*
X146610403Y-93294777D01*
X146586000Y-93417458D01*
X145514000Y-93417458D01*
X145489597Y-93294777D01*
X145441730Y-93179215D01*
X145372237Y-93075211D01*
X145283789Y-92986763D01*
X145179785Y-92917270D01*
X145064223Y-92869403D01*
X144941542Y-92845000D01*
X144664750Y-92845000D01*
X144506000Y-93003750D01*
X144252000Y-93003750D01*
X144093250Y-92845000D01*
X143816458Y-92845000D01*
X143693777Y-92869403D01*
X143578215Y-92917270D01*
X143474211Y-92986763D01*
X143385763Y-93075211D01*
X143316270Y-93179215D01*
X143268403Y-93294777D01*
X143244000Y-93417458D01*
X143010913Y-93417458D01*
X143004812Y-93355518D01*
X142968502Y-93235820D01*
X142909537Y-93125506D01*
X142830185Y-93028815D01*
X142733494Y-92949463D01*
X142623180Y-92890498D01*
X142503482Y-92854188D01*
X142379000Y-92841928D01*
X141379000Y-92841928D01*
X141254518Y-92854188D01*
X141134820Y-92890498D01*
X141024506Y-92949463D01*
X140927815Y-93028815D01*
X140848463Y-93125506D01*
X140797954Y-93220000D01*
X139635833Y-93220000D01*
X139598500Y-93216323D01*
X139561167Y-93220000D01*
X139449514Y-93230997D01*
X139306253Y-93274454D01*
X139174224Y-93345026D01*
X139058499Y-93439999D01*
X139034701Y-93468997D01*
X138461498Y-94042200D01*
X138382671Y-93894725D01*
X138276115Y-93764885D01*
X138149000Y-93660565D01*
X138149000Y-93625343D01*
X138443192Y-93331151D01*
X138471238Y-93308135D01*
X138563087Y-93196217D01*
X138631337Y-93068530D01*
X138673365Y-92929982D01*
X138684000Y-92822002D01*
X138684000Y-92821993D01*
X138687555Y-92785898D01*
X138684000Y-92749803D01*
X138684000Y-91986000D01*
X138865335Y-91986000D01*
X139142574Y-91930853D01*
X139372889Y-91835454D01*
X139393453Y-91903247D01*
X139393453Y-91903247D01*
G37*
X139393453Y-91903247D02*
X139464025Y-92035277D01*
X139535200Y-92122003D01*
X139558999Y-92151002D01*
X139587997Y-92174800D01*
X139999194Y-92585997D01*
X140022997Y-92615001D01*
X140138722Y-92709974D01*
X140270751Y-92780546D01*
X140414012Y-92824003D01*
X140525665Y-92835000D01*
X140525673Y-92835000D01*
X140562998Y-92838676D01*
X140600323Y-92835000D01*
X154254077Y-92835000D01*
X154228858Y-92842650D01*
X154080725Y-92921829D01*
X153950885Y-93028385D01*
X153844329Y-93158225D01*
X153765150Y-93306358D01*
X153758423Y-93328534D01*
X153657247Y-93274454D01*
X153513986Y-93230997D01*
X153402333Y-93220000D01*
X153402322Y-93220000D01*
X153365000Y-93216324D01*
X153327678Y-93220000D01*
X151302046Y-93220000D01*
X151251537Y-93125506D01*
X151172185Y-93028815D01*
X151075494Y-92949463D01*
X150965180Y-92890498D01*
X150845482Y-92854188D01*
X150721000Y-92841928D01*
X149721000Y-92841928D01*
X149596518Y-92854188D01*
X149476820Y-92890498D01*
X149366506Y-92949463D01*
X149269815Y-93028815D01*
X149190463Y-93125506D01*
X149131498Y-93235820D01*
X149095188Y-93355518D01*
X149082928Y-93480000D01*
X149082928Y-94480000D01*
X149095188Y-94604482D01*
X149131498Y-94724180D01*
X149190463Y-94834494D01*
X149269815Y-94931185D01*
X149366506Y-95010537D01*
X149458108Y-95059500D01*
X149366506Y-95108463D01*
X149269815Y-95187815D01*
X149190463Y-95284506D01*
X149131498Y-95394820D01*
X149095188Y-95514518D01*
X149082928Y-95639000D01*
X149082928Y-96639000D01*
X149095188Y-96763482D01*
X149131498Y-96883180D01*
X149190463Y-96993494D01*
X149269815Y-97090185D01*
X149366506Y-97169537D01*
X149476820Y-97228502D01*
X149596518Y-97264812D01*
X149721000Y-97277072D01*
X150721000Y-97277072D01*
X150845482Y-97264812D01*
X150965180Y-97228502D01*
X151075494Y-97169537D01*
X151172185Y-97090185D01*
X151251537Y-96993494D01*
X151302046Y-96899000D01*
X152081289Y-96899000D01*
X151977063Y-97003226D01*
X151863795Y-97172744D01*
X151785774Y-97361102D01*
X151746000Y-97561061D01*
X151746000Y-97723358D01*
X151713158Y-97740912D01*
X151601240Y-97832761D01*
X151578224Y-97860806D01*
X150972102Y-98466928D01*
X150492750Y-98466928D01*
X150325592Y-98483392D01*
X150164858Y-98532150D01*
X150016725Y-98611329D01*
X149886885Y-98717885D01*
X149780329Y-98847725D01*
X149701150Y-98995858D01*
X149681690Y-99060009D01*
X149462993Y-99278706D01*
X149433989Y-99302509D01*
X149388644Y-99357763D01*
X149339016Y-99418234D01*
X149291917Y-99506350D01*
X149268444Y-99550264D01*
X149224987Y-99693525D01*
X149213990Y-99805178D01*
X149213990Y-99805188D01*
X149210314Y-99842510D01*
X149213990Y-99879832D01*
X149213990Y-100541819D01*
X149224987Y-100653472D01*
X149238991Y-100699637D01*
X149238990Y-101332666D01*
X146549658Y-104021999D01*
X145981093Y-104021999D01*
X145944998Y-104018444D01*
X145908903Y-104021999D01*
X145908894Y-104021999D01*
X145800914Y-104032634D01*
X145662366Y-104074662D01*
X145601805Y-104107032D01*
X145570205Y-104030744D01*
X145456937Y-103861226D01*
X145413000Y-103817289D01*
X145413000Y-102049711D01*
X145456937Y-102005774D01*
X145570205Y-101836256D01*
X145648226Y-101647898D01*
X145688000Y-101447939D01*
X145688000Y-101244061D01*
X145648226Y-101044102D01*
X145570205Y-100855744D01*
X145456937Y-100686226D01*
X145312774Y-100542063D01*
X145143256Y-100428795D01*
X144954898Y-100350774D01*
X144754939Y-100311000D01*
X144551061Y-100311000D01*
X144351102Y-100350774D01*
X144162744Y-100428795D01*
X143993226Y-100542063D01*
X143849063Y-100686226D01*
X143735795Y-100855744D01*
X143657774Y-101044102D01*
X143618000Y-101244061D01*
X143618000Y-101447939D01*
X143657774Y-101647898D01*
X143735795Y-101836256D01*
X143849063Y-102005774D01*
X143893000Y-102049711D01*
X143893000Y-102526332D01*
X143893001Y-102526342D01*
X143893000Y-103817289D01*
X143849063Y-103861226D01*
X143735795Y-104030744D01*
X143657774Y-104219102D01*
X143618000Y-104419061D01*
X143618000Y-104622939D01*
X143657774Y-104822898D01*
X143735795Y-105011256D01*
X143849063Y-105180774D01*
X143993226Y-105324937D01*
X144162744Y-105438205D01*
X144206304Y-105456248D01*
X143597553Y-106064999D01*
X141980284Y-106064999D01*
X141981072Y-106057000D01*
X141981072Y-105057000D01*
X141968812Y-104932518D01*
X141932502Y-104812820D01*
X141873537Y-104702506D01*
X141794185Y-104605815D01*
X141697494Y-104526463D01*
X141587180Y-104467498D01*
X141467482Y-104431188D01*
X141343000Y-104418928D01*
X140376874Y-104418928D01*
X141862004Y-102933798D01*
X141891001Y-102910001D01*
X141985974Y-102794276D01*
X142056546Y-102662247D01*
X142100003Y-102518986D01*
X142111000Y-102407333D01*
X142111000Y-102407332D01*
X142114677Y-102370000D01*
X142111000Y-102332667D01*
X142111000Y-102025918D01*
X142213115Y-101942115D01*
X142319671Y-101812275D01*
X142398850Y-101664142D01*
X142447608Y-101503408D01*
X142464072Y-101336250D01*
X142464072Y-100898750D01*
X142450575Y-100761720D01*
X142662007Y-100550288D01*
X142691011Y-100526485D01*
X142785984Y-100410760D01*
X142856556Y-100278731D01*
X142900013Y-100135470D01*
X142911010Y-100023817D01*
X142911010Y-100023809D01*
X142914686Y-99986484D01*
X142911010Y-99949159D01*
X142911010Y-99135838D01*
X142914686Y-99098515D01*
X142911010Y-99061192D01*
X142911010Y-99061183D01*
X142900013Y-98949530D01*
X142856556Y-98806269D01*
X142785984Y-98674240D01*
X142691011Y-98558515D01*
X142662008Y-98534713D01*
X142639000Y-98511705D01*
X142639000Y-97220046D01*
X142733494Y-97169537D01*
X142830185Y-97090185D01*
X142909537Y-96993494D01*
X142968502Y-96883180D01*
X143004812Y-96763482D01*
X143017072Y-96639000D01*
X143017072Y-96424750D01*
X143244000Y-96424750D01*
X143244000Y-96701542D01*
X143268403Y-96824223D01*
X143316270Y-96939785D01*
X143385763Y-97043789D01*
X143474211Y-97132237D01*
X143578215Y-97201730D01*
X143693777Y-97249597D01*
X143816458Y-97274000D01*
X144093250Y-97274000D01*
X144252000Y-97115250D01*
X144252000Y-96266000D01*
X144506000Y-96266000D01*
X144506000Y-97115250D01*
X144664750Y-97274000D01*
X144941542Y-97274000D01*
X145064223Y-97249597D01*
X145179785Y-97201730D01*
X145283789Y-97132237D01*
X145372237Y-97043789D01*
X145441730Y-96939785D01*
X145489597Y-96824223D01*
X145514000Y-96701542D01*
X145514000Y-96424750D01*
X146586000Y-96424750D01*
X146586000Y-96701542D01*
X146610403Y-96824223D01*
X146658270Y-96939785D01*
X146727763Y-97043789D01*
X146816211Y-97132237D01*
X146920215Y-97201730D01*
X147035777Y-97249597D01*
X147158458Y-97274000D01*
X147435250Y-97274000D01*
X147594000Y-97115250D01*
X147594000Y-96266000D01*
X147848000Y-96266000D01*
X147848000Y-97115250D01*
X148006750Y-97274000D01*
X148283542Y-97274000D01*
X148406223Y-97249597D01*
X148521785Y-97201730D01*
X148625789Y-97132237D01*
X148714237Y-97043789D01*
X148783730Y-96939785D01*
X148831597Y-96824223D01*
X148856000Y-96701542D01*
X148856000Y-96424750D01*
X148697250Y-96266000D01*
X147848000Y-96266000D01*
X147594000Y-96266000D01*
X146744750Y-96266000D01*
X146586000Y-96424750D01*
X145514000Y-96424750D01*
X145355250Y-96266000D01*
X144506000Y-96266000D01*
X144252000Y-96266000D01*
X143402750Y-96266000D01*
X143244000Y-96424750D01*
X143017072Y-96424750D01*
X143017072Y-95639000D01*
X143004812Y-95514518D01*
X142968502Y-95394820D01*
X142909537Y-95284506D01*
X142830185Y-95187815D01*
X142733494Y-95108463D01*
X142641892Y-95059500D01*
X142733494Y-95010537D01*
X142830185Y-94931185D01*
X142909537Y-94834494D01*
X142968502Y-94724180D01*
X143004812Y-94604482D01*
X143017072Y-94480000D01*
X143017072Y-94265750D01*
X143244000Y-94265750D01*
X143244000Y-94542542D01*
X143268403Y-94665223D01*
X143316270Y-94780785D01*
X143385763Y-94884789D01*
X143474211Y-94973237D01*
X143578215Y-95042730D01*
X143618702Y-95059500D01*
X143578215Y-95076270D01*
X143474211Y-95145763D01*
X143385763Y-95234211D01*
X143316270Y-95338215D01*
X143268403Y-95453777D01*
X143244000Y-95576458D01*
X143244000Y-95853250D01*
X143402750Y-96012000D01*
X144252000Y-96012000D01*
X144252000Y-95162750D01*
X144148750Y-95059500D01*
X144252000Y-94956250D01*
X144252000Y-94107000D01*
X144506000Y-94107000D01*
X144506000Y-94956250D01*
X144609250Y-95059500D01*
X144506000Y-95162750D01*
X144506000Y-96012000D01*
X145355250Y-96012000D01*
X145514000Y-95853250D01*
X145514000Y-95576458D01*
X145489597Y-95453777D01*
X145441730Y-95338215D01*
X145372237Y-95234211D01*
X145283789Y-95145763D01*
X145179785Y-95076270D01*
X145139298Y-95059500D01*
X145179785Y-95042730D01*
X145283789Y-94973237D01*
X145372237Y-94884789D01*
X145441730Y-94780785D01*
X145489597Y-94665223D01*
X145514000Y-94542542D01*
X145514000Y-94265750D01*
X146586000Y-94265750D01*
X146586000Y-94542542D01*
X146610403Y-94665223D01*
X146658270Y-94780785D01*
X146727763Y-94884789D01*
X146816211Y-94973237D01*
X146920215Y-95042730D01*
X146960702Y-95059500D01*
X146920215Y-95076270D01*
X146816211Y-95145763D01*
X146727763Y-95234211D01*
X146658270Y-95338215D01*
X146610403Y-95453777D01*
X146586000Y-95576458D01*
X146586000Y-95853250D01*
X146744750Y-96012000D01*
X147594000Y-96012000D01*
X147594000Y-95162750D01*
X147490750Y-95059500D01*
X147594000Y-94956250D01*
X147594000Y-94107000D01*
X147848000Y-94107000D01*
X147848000Y-94956250D01*
X147951250Y-95059500D01*
X147848000Y-95162750D01*
X147848000Y-96012000D01*
X148697250Y-96012000D01*
X148856000Y-95853250D01*
X148856000Y-95576458D01*
X148831597Y-95453777D01*
X148783730Y-95338215D01*
X148714237Y-95234211D01*
X148625789Y-95145763D01*
X148521785Y-95076270D01*
X148481298Y-95059500D01*
X148521785Y-95042730D01*
X148625789Y-94973237D01*
X148714237Y-94884789D01*
X148783730Y-94780785D01*
X148831597Y-94665223D01*
X148856000Y-94542542D01*
X148856000Y-94265750D01*
X148697250Y-94107000D01*
X147848000Y-94107000D01*
X147594000Y-94107000D01*
X146744750Y-94107000D01*
X146586000Y-94265750D01*
X145514000Y-94265750D01*
X145355250Y-94107000D01*
X144506000Y-94107000D01*
X144252000Y-94107000D01*
X143402750Y-94107000D01*
X143244000Y-94265750D01*
X143017072Y-94265750D01*
X143017072Y-93480000D01*
X143010913Y-93417458D01*
X143244000Y-93417458D01*
X143244000Y-93694250D01*
X143402750Y-93853000D01*
X144252000Y-93853000D01*
X144252000Y-93003750D01*
X144506000Y-93003750D01*
X144506000Y-93853000D01*
X145355250Y-93853000D01*
X145514000Y-93694250D01*
X145514000Y-93417458D01*
X146586000Y-93417458D01*
X146586000Y-93694250D01*
X146744750Y-93853000D01*
X147594000Y-93853000D01*
X147594000Y-93003750D01*
X147848000Y-93003750D01*
X147848000Y-93853000D01*
X148697250Y-93853000D01*
X148856000Y-93694250D01*
X148856000Y-93417458D01*
X148831597Y-93294777D01*
X148783730Y-93179215D01*
X148714237Y-93075211D01*
X148625789Y-92986763D01*
X148521785Y-92917270D01*
X148406223Y-92869403D01*
X148283542Y-92845000D01*
X148006750Y-92845000D01*
X147848000Y-93003750D01*
X147594000Y-93003750D01*
X147435250Y-92845000D01*
X147158458Y-92845000D01*
X147035777Y-92869403D01*
X146920215Y-92917270D01*
X146816211Y-92986763D01*
X146727763Y-93075211D01*
X146658270Y-93179215D01*
X146610403Y-93294777D01*
X146586000Y-93417458D01*
X145514000Y-93417458D01*
X145489597Y-93294777D01*
X145441730Y-93179215D01*
X145372237Y-93075211D01*
X145283789Y-92986763D01*
X145179785Y-92917270D01*
X145064223Y-92869403D01*
X144941542Y-92845000D01*
X144664750Y-92845000D01*
X144506000Y-93003750D01*
X144252000Y-93003750D01*
X144093250Y-92845000D01*
X143816458Y-92845000D01*
X143693777Y-92869403D01*
X143578215Y-92917270D01*
X143474211Y-92986763D01*
X143385763Y-93075211D01*
X143316270Y-93179215D01*
X143268403Y-93294777D01*
X143244000Y-93417458D01*
X143010913Y-93417458D01*
X143004812Y-93355518D01*
X142968502Y-93235820D01*
X142909537Y-93125506D01*
X142830185Y-93028815D01*
X142733494Y-92949463D01*
X142623180Y-92890498D01*
X142503482Y-92854188D01*
X142379000Y-92841928D01*
X141379000Y-92841928D01*
X141254518Y-92854188D01*
X141134820Y-92890498D01*
X141024506Y-92949463D01*
X140927815Y-93028815D01*
X140848463Y-93125506D01*
X140797954Y-93220000D01*
X139635833Y-93220000D01*
X139598500Y-93216323D01*
X139561167Y-93220000D01*
X139449514Y-93230997D01*
X139306253Y-93274454D01*
X139174224Y-93345026D01*
X139058499Y-93439999D01*
X139034701Y-93468997D01*
X138461498Y-94042200D01*
X138382671Y-93894725D01*
X138276115Y-93764885D01*
X138149000Y-93660565D01*
X138149000Y-93625343D01*
X138443192Y-93331151D01*
X138471238Y-93308135D01*
X138563087Y-93196217D01*
X138631337Y-93068530D01*
X138673365Y-92929982D01*
X138684000Y-92822002D01*
X138684000Y-92821993D01*
X138687555Y-92785898D01*
X138684000Y-92749803D01*
X138684000Y-91986000D01*
X138865335Y-91986000D01*
X139142574Y-91930853D01*
X139372889Y-91835454D01*
X139393453Y-91903247D01*
G36*
X133222230Y-101065969D02*
X130044998Y-104243201D01*
X130016000Y-104266999D01*
X129992202Y-104295997D01*
X129992201Y-104295998D01*
X129921026Y-104382724D01*
X129888078Y-104444365D01*
X129811820Y-104467498D01*
X129701506Y-104526463D01*
X129604815Y-104605815D01*
X129525463Y-104702506D01*
X129466498Y-104812820D01*
X129430188Y-104932518D01*
X129417928Y-105057000D01*
X129417928Y-106057000D01*
X129418716Y-106064999D01*
X127571719Y-106064999D01*
X127616599Y-105981034D01*
X127701513Y-105701111D01*
X127730185Y-105410000D01*
X127701513Y-105118889D01*
X127616599Y-104838966D01*
X127478706Y-104580986D01*
X127293134Y-104354866D01*
X127067014Y-104169294D01*
X127002477Y-104134799D01*
X127119355Y-104065178D01*
X127335588Y-103870269D01*
X127509641Y-103636920D01*
X127634825Y-103374099D01*
X127679476Y-103226890D01*
X127558155Y-102997000D01*
X126365000Y-102997000D01*
X126365000Y-103017000D01*
X126111000Y-103017000D01*
X126111000Y-102997000D01*
X123825000Y-102997000D01*
X123825000Y-103017000D01*
X123571000Y-103017000D01*
X123571000Y-102997000D01*
X123551000Y-102997000D01*
X123551000Y-102743000D01*
X123571000Y-102743000D01*
X123571000Y-102723000D01*
X123825000Y-102723000D01*
X123825000Y-102743000D01*
X126111000Y-102743000D01*
X126111000Y-102723000D01*
X126365000Y-102723000D01*
X126365000Y-102743000D01*
X127558155Y-102743000D01*
X127679476Y-102513110D01*
X127634825Y-102365901D01*
X127509641Y-102103080D01*
X127388041Y-101940053D01*
X127398744Y-101947205D01*
X127587102Y-102025226D01*
X127787061Y-102065000D01*
X127990939Y-102065000D01*
X128190898Y-102025226D01*
X128379256Y-101947205D01*
X128548774Y-101833937D01*
X128592711Y-101790000D01*
X130425289Y-101790000D01*
X130531226Y-101895937D01*
X130700744Y-102009205D01*
X130889102Y-102087226D01*
X131089061Y-102127000D01*
X131292939Y-102127000D01*
X131492898Y-102087226D01*
X131681256Y-102009205D01*
X131850774Y-101895937D01*
X131994937Y-101751774D01*
X132108205Y-101582256D01*
X132186226Y-101393898D01*
X132226000Y-101193939D01*
X132226000Y-101065000D01*
X133212395Y-101065000D01*
X133222230Y-101065969D01*
X133222230Y-101065969D01*
G37*
X133222230Y-101065969D02*
X130044998Y-104243201D01*
X130016000Y-104266999D01*
X129992202Y-104295997D01*
X129992201Y-104295998D01*
X129921026Y-104382724D01*
X129888078Y-104444365D01*
X129811820Y-104467498D01*
X129701506Y-104526463D01*
X129604815Y-104605815D01*
X129525463Y-104702506D01*
X129466498Y-104812820D01*
X129430188Y-104932518D01*
X129417928Y-105057000D01*
X129417928Y-106057000D01*
X129418716Y-106064999D01*
X127571719Y-106064999D01*
X127616599Y-105981034D01*
X127701513Y-105701111D01*
X127730185Y-105410000D01*
X127701513Y-105118889D01*
X127616599Y-104838966D01*
X127478706Y-104580986D01*
X127293134Y-104354866D01*
X127067014Y-104169294D01*
X127002477Y-104134799D01*
X127119355Y-104065178D01*
X127335588Y-103870269D01*
X127509641Y-103636920D01*
X127634825Y-103374099D01*
X127679476Y-103226890D01*
X127558155Y-102997000D01*
X126365000Y-102997000D01*
X126365000Y-103017000D01*
X126111000Y-103017000D01*
X126111000Y-102997000D01*
X123825000Y-102997000D01*
X123825000Y-103017000D01*
X123571000Y-103017000D01*
X123571000Y-102997000D01*
X123551000Y-102997000D01*
X123551000Y-102743000D01*
X123571000Y-102743000D01*
X123571000Y-102723000D01*
X123825000Y-102723000D01*
X123825000Y-102743000D01*
X126111000Y-102743000D01*
X126111000Y-102723000D01*
X126365000Y-102723000D01*
X126365000Y-102743000D01*
X127558155Y-102743000D01*
X127679476Y-102513110D01*
X127634825Y-102365901D01*
X127509641Y-102103080D01*
X127388041Y-101940053D01*
X127398744Y-101947205D01*
X127587102Y-102025226D01*
X127787061Y-102065000D01*
X127990939Y-102065000D01*
X128190898Y-102025226D01*
X128379256Y-101947205D01*
X128548774Y-101833937D01*
X128592711Y-101790000D01*
X130425289Y-101790000D01*
X130531226Y-101895937D01*
X130700744Y-102009205D01*
X130889102Y-102087226D01*
X131089061Y-102127000D01*
X131292939Y-102127000D01*
X131492898Y-102087226D01*
X131681256Y-102009205D01*
X131850774Y-101895937D01*
X131994937Y-101751774D01*
X132108205Y-101582256D01*
X132186226Y-101393898D01*
X132226000Y-101193939D01*
X132226000Y-101065000D01*
X133212395Y-101065000D01*
X133222230Y-101065969D01*
G36*
X129155980Y-87059745D02*
X129041956Y-87464551D01*
X129009098Y-87883824D01*
X129058666Y-88301451D01*
X129188757Y-88701383D01*
X129346786Y-88997038D01*
X129662347Y-89153048D01*
X130974395Y-87841000D01*
X130960253Y-87826858D01*
X131139858Y-87647253D01*
X131154000Y-87661395D01*
X131168143Y-87647253D01*
X131347748Y-87826858D01*
X131333605Y-87841000D01*
X132645653Y-89153048D01*
X132961214Y-88997038D01*
X133152020Y-88622255D01*
X133266044Y-88217449D01*
X133298902Y-87798176D01*
X133249334Y-87380549D01*
X133119243Y-86980617D01*
X133009874Y-86775999D01*
X136309198Y-86775999D01*
X138649198Y-89116000D01*
X138582665Y-89116000D01*
X138305426Y-89171147D01*
X138044273Y-89279320D01*
X137809241Y-89436363D01*
X137724000Y-89521604D01*
X137638759Y-89436363D01*
X137403727Y-89279320D01*
X137142574Y-89171147D01*
X136865335Y-89116000D01*
X136582665Y-89116000D01*
X136305426Y-89171147D01*
X136044273Y-89279320D01*
X135809241Y-89436363D01*
X135609363Y-89636241D01*
X135475308Y-89836869D01*
X135460671Y-89809486D01*
X135216702Y-89737903D01*
X134403605Y-90551000D01*
X135216702Y-91364097D01*
X135460671Y-91292514D01*
X135474324Y-91263659D01*
X135609363Y-91465759D01*
X135809241Y-91665637D01*
X136044273Y-91822680D01*
X136305426Y-91930853D01*
X136582665Y-91986000D01*
X136764001Y-91986000D01*
X136764001Y-92295053D01*
X136601614Y-92457440D01*
X136601608Y-92457445D01*
X136181608Y-92877445D01*
X136172205Y-92854744D01*
X136058937Y-92685226D01*
X135914774Y-92541063D01*
X135745256Y-92427795D01*
X135556898Y-92349774D01*
X135356939Y-92310000D01*
X135153061Y-92310000D01*
X134953102Y-92349774D01*
X134764744Y-92427795D01*
X134595226Y-92541063D01*
X134551289Y-92585000D01*
X127717874Y-92585000D01*
X127701513Y-92418889D01*
X127616599Y-92138966D01*
X127478706Y-91880986D01*
X127293134Y-91654866D01*
X127157681Y-91543702D01*
X133410903Y-91543702D01*
X133482486Y-91787671D01*
X133737996Y-91908571D01*
X134012184Y-91977300D01*
X134294512Y-91991217D01*
X134574130Y-91949787D01*
X134840292Y-91854603D01*
X134965514Y-91787671D01*
X135037097Y-91543702D01*
X134224000Y-90730605D01*
X133410903Y-91543702D01*
X127157681Y-91543702D01*
X127067014Y-91469294D01*
X127012209Y-91440000D01*
X127067014Y-91410706D01*
X127293134Y-91225134D01*
X127478706Y-90999014D01*
X127616599Y-90741034D01*
X127652855Y-90621512D01*
X132783783Y-90621512D01*
X132825213Y-90901130D01*
X132920397Y-91167292D01*
X132987329Y-91292514D01*
X133231298Y-91364097D01*
X134044395Y-90551000D01*
X133231298Y-89737903D01*
X132987329Y-89809486D01*
X132866429Y-90064996D01*
X132797700Y-90339184D01*
X132783783Y-90621512D01*
X127652855Y-90621512D01*
X127701513Y-90461111D01*
X127730185Y-90170000D01*
X127701513Y-89878889D01*
X127616599Y-89598966D01*
X127478706Y-89340986D01*
X127471868Y-89332653D01*
X129841952Y-89332653D01*
X129997962Y-89648214D01*
X130372745Y-89839020D01*
X130777551Y-89953044D01*
X131196824Y-89985902D01*
X131614451Y-89936334D01*
X132014383Y-89806243D01*
X132310038Y-89648214D01*
X132354491Y-89558298D01*
X133410903Y-89558298D01*
X134224000Y-90371395D01*
X135037097Y-89558298D01*
X134965514Y-89314329D01*
X134710004Y-89193429D01*
X134435816Y-89124700D01*
X134153488Y-89110783D01*
X133873870Y-89152213D01*
X133607708Y-89247397D01*
X133482486Y-89314329D01*
X133410903Y-89558298D01*
X132354491Y-89558298D01*
X132466048Y-89332653D01*
X131154000Y-88020605D01*
X129841952Y-89332653D01*
X127471868Y-89332653D01*
X127293134Y-89114866D01*
X127067014Y-88929294D01*
X127012209Y-88900000D01*
X127067014Y-88870706D01*
X127293134Y-88685134D01*
X127478706Y-88459014D01*
X127616599Y-88201034D01*
X127701513Y-87921111D01*
X127730185Y-87630000D01*
X127701513Y-87338889D01*
X127678797Y-87264005D01*
X128166803Y-86775999D01*
X129300438Y-86775999D01*
X129155980Y-87059745D01*
X129155980Y-87059745D01*
G37*
X129155980Y-87059745D02*
X129041956Y-87464551D01*
X129009098Y-87883824D01*
X129058666Y-88301451D01*
X129188757Y-88701383D01*
X129346786Y-88997038D01*
X129662347Y-89153048D01*
X130974395Y-87841000D01*
X130960253Y-87826858D01*
X131139858Y-87647253D01*
X131154000Y-87661395D01*
X131168143Y-87647253D01*
X131347748Y-87826858D01*
X131333605Y-87841000D01*
X132645653Y-89153048D01*
X132961214Y-88997038D01*
X133152020Y-88622255D01*
X133266044Y-88217449D01*
X133298902Y-87798176D01*
X133249334Y-87380549D01*
X133119243Y-86980617D01*
X133009874Y-86775999D01*
X136309198Y-86775999D01*
X138649198Y-89116000D01*
X138582665Y-89116000D01*
X138305426Y-89171147D01*
X138044273Y-89279320D01*
X137809241Y-89436363D01*
X137724000Y-89521604D01*
X137638759Y-89436363D01*
X137403727Y-89279320D01*
X137142574Y-89171147D01*
X136865335Y-89116000D01*
X136582665Y-89116000D01*
X136305426Y-89171147D01*
X136044273Y-89279320D01*
X135809241Y-89436363D01*
X135609363Y-89636241D01*
X135475308Y-89836869D01*
X135460671Y-89809486D01*
X135216702Y-89737903D01*
X134403605Y-90551000D01*
X135216702Y-91364097D01*
X135460671Y-91292514D01*
X135474324Y-91263659D01*
X135609363Y-91465759D01*
X135809241Y-91665637D01*
X136044273Y-91822680D01*
X136305426Y-91930853D01*
X136582665Y-91986000D01*
X136764001Y-91986000D01*
X136764001Y-92295053D01*
X136601614Y-92457440D01*
X136601608Y-92457445D01*
X136181608Y-92877445D01*
X136172205Y-92854744D01*
X136058937Y-92685226D01*
X135914774Y-92541063D01*
X135745256Y-92427795D01*
X135556898Y-92349774D01*
X135356939Y-92310000D01*
X135153061Y-92310000D01*
X134953102Y-92349774D01*
X134764744Y-92427795D01*
X134595226Y-92541063D01*
X134551289Y-92585000D01*
X127717874Y-92585000D01*
X127701513Y-92418889D01*
X127616599Y-92138966D01*
X127478706Y-91880986D01*
X127293134Y-91654866D01*
X127157681Y-91543702D01*
X133410903Y-91543702D01*
X133482486Y-91787671D01*
X133737996Y-91908571D01*
X134012184Y-91977300D01*
X134294512Y-91991217D01*
X134574130Y-91949787D01*
X134840292Y-91854603D01*
X134965514Y-91787671D01*
X135037097Y-91543702D01*
X134224000Y-90730605D01*
X133410903Y-91543702D01*
X127157681Y-91543702D01*
X127067014Y-91469294D01*
X127012209Y-91440000D01*
X127067014Y-91410706D01*
X127293134Y-91225134D01*
X127478706Y-90999014D01*
X127616599Y-90741034D01*
X127652855Y-90621512D01*
X132783783Y-90621512D01*
X132825213Y-90901130D01*
X132920397Y-91167292D01*
X132987329Y-91292514D01*
X133231298Y-91364097D01*
X134044395Y-90551000D01*
X133231298Y-89737903D01*
X132987329Y-89809486D01*
X132866429Y-90064996D01*
X132797700Y-90339184D01*
X132783783Y-90621512D01*
X127652855Y-90621512D01*
X127701513Y-90461111D01*
X127730185Y-90170000D01*
X127701513Y-89878889D01*
X127616599Y-89598966D01*
X127478706Y-89340986D01*
X127471868Y-89332653D01*
X129841952Y-89332653D01*
X129997962Y-89648214D01*
X130372745Y-89839020D01*
X130777551Y-89953044D01*
X131196824Y-89985902D01*
X131614451Y-89936334D01*
X132014383Y-89806243D01*
X132310038Y-89648214D01*
X132354491Y-89558298D01*
X133410903Y-89558298D01*
X134224000Y-90371395D01*
X135037097Y-89558298D01*
X134965514Y-89314329D01*
X134710004Y-89193429D01*
X134435816Y-89124700D01*
X134153488Y-89110783D01*
X133873870Y-89152213D01*
X133607708Y-89247397D01*
X133482486Y-89314329D01*
X133410903Y-89558298D01*
X132354491Y-89558298D01*
X132466048Y-89332653D01*
X131154000Y-88020605D01*
X129841952Y-89332653D01*
X127471868Y-89332653D01*
X127293134Y-89114866D01*
X127067014Y-88929294D01*
X127012209Y-88900000D01*
X127067014Y-88870706D01*
X127293134Y-88685134D01*
X127478706Y-88459014D01*
X127616599Y-88201034D01*
X127701513Y-87921111D01*
X127730185Y-87630000D01*
X127701513Y-87338889D01*
X127678797Y-87264005D01*
X128166803Y-86775999D01*
X129300438Y-86775999D01*
X129155980Y-87059745D01*
G36*
X159563748Y-90536858D02*
X159549605Y-90551000D01*
X159563748Y-90565143D01*
X159384143Y-90744748D01*
X159370000Y-90730605D01*
X159355858Y-90744748D01*
X159176253Y-90565143D01*
X159190395Y-90551000D01*
X159176253Y-90536858D01*
X159355858Y-90357253D01*
X159370000Y-90371395D01*
X159384143Y-90357253D01*
X159563748Y-90536858D01*
X159563748Y-90536858D01*
G37*
X159563748Y-90536858D02*
X159549605Y-90551000D01*
X159563748Y-90565143D01*
X159384143Y-90744748D01*
X159370000Y-90730605D01*
X159355858Y-90744748D01*
X159176253Y-90565143D01*
X159190395Y-90551000D01*
X159176253Y-90536858D01*
X159355858Y-90357253D01*
X159370000Y-90371395D01*
X159384143Y-90357253D01*
X159563748Y-90536858D01*
G36*
X142215226Y-86401937D02*
X142384744Y-86515205D01*
X142573102Y-86593226D01*
X142643868Y-86607302D01*
X142486786Y-86684962D01*
X142295980Y-87059745D01*
X142181956Y-87464551D01*
X142149098Y-87883824D01*
X142198666Y-88301451D01*
X142328757Y-88701383D01*
X142486786Y-88997038D01*
X142802347Y-89153048D01*
X144114395Y-87841000D01*
X144100253Y-87826858D01*
X144279858Y-87647253D01*
X144294000Y-87661395D01*
X144308143Y-87647253D01*
X144487748Y-87826858D01*
X144473605Y-87841000D01*
X144487748Y-87855143D01*
X144308143Y-88034748D01*
X144294000Y-88020605D01*
X142981952Y-89332653D01*
X143137962Y-89648214D01*
X143172897Y-89666000D01*
X142653701Y-89666000D01*
X142649812Y-89626518D01*
X142613502Y-89506820D01*
X142554537Y-89396506D01*
X142475185Y-89299815D01*
X142378494Y-89220463D01*
X142268180Y-89161498D01*
X142148482Y-89125188D01*
X142024000Y-89112928D01*
X140758671Y-89112928D01*
X140733973Y-89066722D01*
X140662798Y-88979996D01*
X140639000Y-88950998D01*
X140610003Y-88927201D01*
X138008790Y-86325989D01*
X142139278Y-86325989D01*
X142215226Y-86401937D01*
X142215226Y-86401937D01*
G37*
X142215226Y-86401937D02*
X142384744Y-86515205D01*
X142573102Y-86593226D01*
X142643868Y-86607302D01*
X142486786Y-86684962D01*
X142295980Y-87059745D01*
X142181956Y-87464551D01*
X142149098Y-87883824D01*
X142198666Y-88301451D01*
X142328757Y-88701383D01*
X142486786Y-88997038D01*
X142802347Y-89153048D01*
X144114395Y-87841000D01*
X144100253Y-87826858D01*
X144279858Y-87647253D01*
X144294000Y-87661395D01*
X144308143Y-87647253D01*
X144487748Y-87826858D01*
X144473605Y-87841000D01*
X144487748Y-87855143D01*
X144308143Y-88034748D01*
X144294000Y-88020605D01*
X142981952Y-89332653D01*
X143137962Y-89648214D01*
X143172897Y-89666000D01*
X142653701Y-89666000D01*
X142649812Y-89626518D01*
X142613502Y-89506820D01*
X142554537Y-89396506D01*
X142475185Y-89299815D01*
X142378494Y-89220463D01*
X142268180Y-89161498D01*
X142148482Y-89125188D01*
X142024000Y-89112928D01*
X140758671Y-89112928D01*
X140733973Y-89066722D01*
X140662798Y-88979996D01*
X140639000Y-88950998D01*
X140610003Y-88927201D01*
X138008790Y-86325989D01*
X142139278Y-86325989D01*
X142215226Y-86401937D01*
G36*
X170121753Y-82984613D02*
X170059835Y-83188728D01*
X170038928Y-83401000D01*
X170038928Y-85001000D01*
X170059835Y-85213272D01*
X170121753Y-85417387D01*
X170222301Y-85605500D01*
X170357617Y-85770383D01*
X170522500Y-85905699D01*
X170692000Y-85996298D01*
X170692000Y-86227889D01*
X170596038Y-86033786D01*
X170221255Y-85842980D01*
X169816449Y-85728956D01*
X169397176Y-85696098D01*
X168979549Y-85745666D01*
X168579617Y-85875757D01*
X168283962Y-86033786D01*
X168127952Y-86349347D01*
X169440000Y-87661395D01*
X169454143Y-87647253D01*
X169633748Y-87826858D01*
X169619605Y-87841000D01*
X169633748Y-87855143D01*
X169454143Y-88034748D01*
X169440000Y-88020605D01*
X168127952Y-89332653D01*
X168283962Y-89648214D01*
X168318897Y-89666000D01*
X167799701Y-89666000D01*
X167795812Y-89626518D01*
X167759502Y-89506820D01*
X167700537Y-89396506D01*
X167621185Y-89299815D01*
X167524494Y-89220463D01*
X167414180Y-89161498D01*
X167294482Y-89125188D01*
X167170000Y-89112928D01*
X165570000Y-89112928D01*
X165445518Y-89125188D01*
X165325820Y-89161498D01*
X165257057Y-89198253D01*
X164973804Y-88915001D01*
X164950002Y-88885998D01*
X164834277Y-88791025D01*
X164702248Y-88720453D01*
X164558987Y-88676996D01*
X164447334Y-88665999D01*
X164447323Y-88665999D01*
X164410001Y-88662323D01*
X164372679Y-88665999D01*
X158676269Y-88665999D01*
X158638946Y-88662323D01*
X158601623Y-88665999D01*
X158601614Y-88665999D01*
X158489961Y-88676996D01*
X158346700Y-88720453D01*
X158214670Y-88791025D01*
X158210251Y-88794652D01*
X158298020Y-88622255D01*
X158412044Y-88217449D01*
X158438189Y-87883824D01*
X167295098Y-87883824D01*
X167344666Y-88301451D01*
X167474757Y-88701383D01*
X167632786Y-88997038D01*
X167948347Y-89153048D01*
X169260395Y-87841000D01*
X167948347Y-86528952D01*
X167632786Y-86684962D01*
X167441980Y-87059745D01*
X167327956Y-87464551D01*
X167295098Y-87883824D01*
X158438189Y-87883824D01*
X158444902Y-87798176D01*
X158395334Y-87380549D01*
X158265243Y-86980617D01*
X158107214Y-86684962D01*
X157791653Y-86528952D01*
X156479605Y-87841000D01*
X156493748Y-87855143D01*
X156314143Y-88034748D01*
X156300000Y-88020605D01*
X156285858Y-88034748D01*
X156106253Y-87855143D01*
X156120395Y-87841000D01*
X154808347Y-86528952D01*
X154492786Y-86684962D01*
X154301980Y-87059745D01*
X154187956Y-87464551D01*
X154155098Y-87883824D01*
X154204666Y-88301451D01*
X154310912Y-88628079D01*
X152032180Y-86349347D01*
X154987952Y-86349347D01*
X156300000Y-87661395D01*
X157612048Y-86349347D01*
X157456038Y-86033786D01*
X157081255Y-85842980D01*
X156676449Y-85728956D01*
X156257176Y-85696098D01*
X155839549Y-85745666D01*
X155439617Y-85875757D01*
X155143962Y-86033786D01*
X154987952Y-86349347D01*
X152032180Y-86349347D01*
X148586813Y-82903980D01*
X170164852Y-82903980D01*
X170121753Y-82984613D01*
X170121753Y-82984613D01*
G37*
X170121753Y-82984613D02*
X170059835Y-83188728D01*
X170038928Y-83401000D01*
X170038928Y-85001000D01*
X170059835Y-85213272D01*
X170121753Y-85417387D01*
X170222301Y-85605500D01*
X170357617Y-85770383D01*
X170522500Y-85905699D01*
X170692000Y-85996298D01*
X170692000Y-86227889D01*
X170596038Y-86033786D01*
X170221255Y-85842980D01*
X169816449Y-85728956D01*
X169397176Y-85696098D01*
X168979549Y-85745666D01*
X168579617Y-85875757D01*
X168283962Y-86033786D01*
X168127952Y-86349347D01*
X169440000Y-87661395D01*
X169454143Y-87647253D01*
X169633748Y-87826858D01*
X169619605Y-87841000D01*
X169633748Y-87855143D01*
X169454143Y-88034748D01*
X169440000Y-88020605D01*
X168127952Y-89332653D01*
X168283962Y-89648214D01*
X168318897Y-89666000D01*
X167799701Y-89666000D01*
X167795812Y-89626518D01*
X167759502Y-89506820D01*
X167700537Y-89396506D01*
X167621185Y-89299815D01*
X167524494Y-89220463D01*
X167414180Y-89161498D01*
X167294482Y-89125188D01*
X167170000Y-89112928D01*
X165570000Y-89112928D01*
X165445518Y-89125188D01*
X165325820Y-89161498D01*
X165257057Y-89198253D01*
X164973804Y-88915001D01*
X164950002Y-88885998D01*
X164834277Y-88791025D01*
X164702248Y-88720453D01*
X164558987Y-88676996D01*
X164447334Y-88665999D01*
X164447323Y-88665999D01*
X164410001Y-88662323D01*
X164372679Y-88665999D01*
X158676269Y-88665999D01*
X158638946Y-88662323D01*
X158601623Y-88665999D01*
X158601614Y-88665999D01*
X158489961Y-88676996D01*
X158346700Y-88720453D01*
X158214670Y-88791025D01*
X158210251Y-88794652D01*
X158298020Y-88622255D01*
X158412044Y-88217449D01*
X158438189Y-87883824D01*
X167295098Y-87883824D01*
X167344666Y-88301451D01*
X167474757Y-88701383D01*
X167632786Y-88997038D01*
X167948347Y-89153048D01*
X169260395Y-87841000D01*
X167948347Y-86528952D01*
X167632786Y-86684962D01*
X167441980Y-87059745D01*
X167327956Y-87464551D01*
X167295098Y-87883824D01*
X158438189Y-87883824D01*
X158444902Y-87798176D01*
X158395334Y-87380549D01*
X158265243Y-86980617D01*
X158107214Y-86684962D01*
X157791653Y-86528952D01*
X156479605Y-87841000D01*
X156493748Y-87855143D01*
X156314143Y-88034748D01*
X156300000Y-88020605D01*
X156285858Y-88034748D01*
X156106253Y-87855143D01*
X156120395Y-87841000D01*
X154808347Y-86528952D01*
X154492786Y-86684962D01*
X154301980Y-87059745D01*
X154187956Y-87464551D01*
X154155098Y-87883824D01*
X154204666Y-88301451D01*
X154310912Y-88628079D01*
X152032180Y-86349347D01*
X154987952Y-86349347D01*
X156300000Y-87661395D01*
X157612048Y-86349347D01*
X157456038Y-86033786D01*
X157081255Y-85842980D01*
X156676449Y-85728956D01*
X156257176Y-85696098D01*
X155839549Y-85745666D01*
X155439617Y-85875757D01*
X155143962Y-86033786D01*
X154987952Y-86349347D01*
X152032180Y-86349347D01*
X148586813Y-82903980D01*
X170164852Y-82903980D01*
X170121753Y-82984613D01*
G36*
X144892928Y-80969000D02*
X144913835Y-81181272D01*
X144975326Y-81383980D01*
X141188930Y-81383980D01*
X141151607Y-81380304D01*
X141114284Y-81383980D01*
X141114275Y-81383980D01*
X141002622Y-81394977D01*
X140889288Y-81429356D01*
X140859361Y-81438434D01*
X140727331Y-81509006D01*
X140657339Y-81566448D01*
X140611607Y-81603979D01*
X140587809Y-81632977D01*
X139065788Y-83154999D01*
X127586765Y-83154999D01*
X127634825Y-83054099D01*
X127679476Y-82906890D01*
X127558155Y-82677000D01*
X126365000Y-82677000D01*
X126365000Y-82697000D01*
X126111000Y-82697000D01*
X126111000Y-82677000D01*
X123825000Y-82677000D01*
X123825000Y-82697000D01*
X123571000Y-82697000D01*
X123571000Y-82677000D01*
X123551000Y-82677000D01*
X123551000Y-82423000D01*
X123571000Y-82423000D01*
X123571000Y-82403000D01*
X123825000Y-82403000D01*
X123825000Y-82423000D01*
X126111000Y-82423000D01*
X126111000Y-82403000D01*
X126365000Y-82403000D01*
X126365000Y-82423000D01*
X127558155Y-82423000D01*
X127679476Y-82193110D01*
X127634825Y-82045901D01*
X127509641Y-81783080D01*
X127335588Y-81549731D01*
X127119355Y-81354822D01*
X127002477Y-81285201D01*
X127067014Y-81250706D01*
X127293134Y-81065134D01*
X127432759Y-80895000D01*
X144892928Y-80895000D01*
X144892928Y-80969000D01*
X144892928Y-80969000D01*
G37*
X144892928Y-80969000D02*
X144913835Y-81181272D01*
X144975326Y-81383980D01*
X141188930Y-81383980D01*
X141151607Y-81380304D01*
X141114284Y-81383980D01*
X141114275Y-81383980D01*
X141002622Y-81394977D01*
X140889288Y-81429356D01*
X140859361Y-81438434D01*
X140727331Y-81509006D01*
X140657339Y-81566448D01*
X140611607Y-81603979D01*
X140587809Y-81632977D01*
X139065788Y-83154999D01*
X127586765Y-83154999D01*
X127634825Y-83054099D01*
X127679476Y-82906890D01*
X127558155Y-82677000D01*
X126365000Y-82677000D01*
X126365000Y-82697000D01*
X126111000Y-82697000D01*
X126111000Y-82677000D01*
X123825000Y-82677000D01*
X123825000Y-82697000D01*
X123571000Y-82697000D01*
X123571000Y-82677000D01*
X123551000Y-82677000D01*
X123551000Y-82423000D01*
X123571000Y-82423000D01*
X123571000Y-82403000D01*
X123825000Y-82403000D01*
X123825000Y-82423000D01*
X126111000Y-82423000D01*
X126111000Y-82403000D01*
X126365000Y-82403000D01*
X126365000Y-82423000D01*
X127558155Y-82423000D01*
X127679476Y-82193110D01*
X127634825Y-82045901D01*
X127509641Y-81783080D01*
X127335588Y-81549731D01*
X127119355Y-81354822D01*
X127002477Y-81285201D01*
X127067014Y-81250706D01*
X127293134Y-81065134D01*
X127432759Y-80895000D01*
X144892928Y-80895000D01*
X144892928Y-80969000D01*
G04 #@! TD*
M02*
