M48
; DRILL file {KiCad 7.0.6+dfsg-1} date Thu 24 Aug 2023 12:50:26 PM CEST
; FORMAT={-:-/ absolute / metric / decimal}
; #@! TF.CreationDate,2023-08-24T12:50:26+02:00
; #@! TF.GenerationSoftware,Kicad,Pcbnew,7.0.6+dfsg-1
; #@! TF.FileFunction,Plated,1,4,PTH
FMAT,2
METRIC
; #@! TA.AperFunction,Plated,PTH,ViaDrill
T1C0.300
; #@! TA.AperFunction,Plated,PTH,ComponentDrill
T2C1.000
%
G90
G05
T1
X61.65Y-36.76
X62.158Y-49.215
X62.812Y-38.328
X63.828Y-38.328
X66.15Y-43.56
X68.378Y-39.22
X68.478Y-40.184
X68.816Y-42.776
X70.45Y-37.36
X79.758Y-38.735
X80.65Y-37.56
X81.092Y-38.953
X81.092Y-39.752
X82.609Y-41.527
X82.618Y-38.327
X82.998Y-43.509
X83.308Y-38.953
X83.633Y-42.735
X84.15Y-39.6
X85.461Y-40.242
X85.851Y-41.326
X85.851Y-42.223
X85.918Y-36.975
X86.838Y-39.061
X87.462Y-37.812
X87.659Y-39.565
X88.673Y-38.434
X91.768Y-34.264
T2
X57.55Y-32.97
X57.55Y-35.51
X60.09Y-32.97
X60.09Y-35.51
X62.63Y-32.97
X62.63Y-35.51
X64.98Y-45.694
X64.98Y-48.234
X65.17Y-32.97
X65.17Y-35.51
X67.52Y-45.694
X67.52Y-48.234
X67.71Y-32.97
X67.71Y-35.51
X70.06Y-45.694
X70.06Y-48.234
X70.15Y-39.22
X70.15Y-41.76
X70.25Y-32.97
X70.25Y-35.51
X72.6Y-45.694
X72.6Y-48.234
X72.8Y-32.97
X72.8Y-35.51
X72.8Y-39.22
X72.8Y-41.76
X75.14Y-45.694
X75.14Y-48.234
X75.34Y-32.97
X75.34Y-35.51
X75.34Y-39.22
X75.34Y-41.76
X77.68Y-45.694
X77.68Y-48.234
X77.88Y-32.97
X77.88Y-35.51
X77.88Y-39.22
X77.88Y-41.76
X80.22Y-45.694
X80.22Y-48.234
X80.55Y-32.97
X80.55Y-35.51
X82.76Y-45.694
X82.76Y-48.234
X83.09Y-32.97
X83.09Y-35.51
X85.3Y-45.694
X85.3Y-48.234
X85.63Y-32.97
X85.63Y-35.51
X88.17Y-32.97
X88.17Y-35.51
X90.71Y-32.97
X90.71Y-35.51
X93.25Y-32.97
X93.25Y-35.51
T0
M30
