G04 #@! TF.GenerationSoftware,KiCad,Pcbnew,7.0.6+dfsg-1*
G04 #@! TF.CreationDate,2023-08-24T12:50:22+02:00*
G04 #@! TF.ProjectId,OV7670,4f563736-3730-42e6-9b69-6361645f7063,v1.2*
G04 #@! TF.SameCoordinates,Original*
G04 #@! TF.FileFunction,Soldermask,Top*
G04 #@! TF.FilePolarity,Negative*
%FSLAX46Y46*%
G04 Gerber Fmt 4.6, Leading zero omitted, Abs format (unit mm)*
G04 Created by KiCad (PCBNEW 7.0.6+dfsg-1) date 2023-08-24 12:50:22*
%MOMM*%
%LPD*%
G01*
G04 APERTURE LIST*
G04 APERTURE END LIST*
G36*
X86169517Y-47336882D02*
G01*
X86186062Y-47347938D01*
X86197118Y-47364483D01*
X86201000Y-47384000D01*
X86201000Y-49084000D01*
X86197118Y-49103517D01*
X86186062Y-49120062D01*
X86169517Y-49131118D01*
X86150000Y-49135000D01*
X84450000Y-49135000D01*
X84430483Y-49131118D01*
X84413938Y-49120062D01*
X84402882Y-49103517D01*
X84399000Y-49084000D01*
X84399000Y-47384000D01*
X84402882Y-47364483D01*
X84413938Y-47347938D01*
X84430483Y-47336882D01*
X84450000Y-47333000D01*
X86150000Y-47333000D01*
X86169517Y-47336882D01*
G37*
G36*
X65023983Y-47337936D02*
G01*
X65074180Y-47337936D01*
X65117524Y-47347149D01*
X65155659Y-47350905D01*
X65203566Y-47365437D01*
X65258424Y-47377098D01*
X65293530Y-47392728D01*
X65324566Y-47402143D01*
X65373884Y-47428504D01*
X65430500Y-47453711D01*
X65456822Y-47472835D01*
X65480232Y-47485348D01*
X65527988Y-47524540D01*
X65582887Y-47564427D01*
X65600711Y-47584223D01*
X65616675Y-47597324D01*
X65659572Y-47649594D01*
X65708924Y-47704405D01*
X65719292Y-47722363D01*
X65728651Y-47733767D01*
X65763273Y-47798542D01*
X65803104Y-47867530D01*
X65807685Y-47881630D01*
X65811856Y-47889433D01*
X65834852Y-47965242D01*
X65861311Y-48046672D01*
X65862242Y-48055532D01*
X65863094Y-48058340D01*
X65871385Y-48142520D01*
X65881000Y-48234000D01*
X65871382Y-48325501D01*
X65863094Y-48409659D01*
X65862242Y-48412466D01*
X65861311Y-48421328D01*
X65834848Y-48502771D01*
X65811856Y-48578566D01*
X65807686Y-48586366D01*
X65803104Y-48600470D01*
X65763266Y-48669470D01*
X65728651Y-48734232D01*
X65719294Y-48745633D01*
X65708924Y-48763595D01*
X65659563Y-48818415D01*
X65616675Y-48870675D01*
X65600714Y-48883773D01*
X65582887Y-48903573D01*
X65527977Y-48943467D01*
X65480232Y-48982651D01*
X65456827Y-48995161D01*
X65430500Y-49014289D01*
X65373873Y-49039500D01*
X65324566Y-49065856D01*
X65293537Y-49075268D01*
X65258424Y-49090902D01*
X65203555Y-49102564D01*
X65155659Y-49117094D01*
X65117532Y-49120849D01*
X65074180Y-49130064D01*
X65023973Y-49130064D01*
X64980000Y-49134395D01*
X64936027Y-49130064D01*
X64885820Y-49130064D01*
X64842467Y-49120849D01*
X64804340Y-49117094D01*
X64756441Y-49102563D01*
X64701576Y-49090902D01*
X64666464Y-49075269D01*
X64635433Y-49065856D01*
X64586120Y-49039498D01*
X64529500Y-49014289D01*
X64503175Y-48995163D01*
X64479767Y-48982651D01*
X64432013Y-48943460D01*
X64377113Y-48903573D01*
X64359287Y-48883776D01*
X64343324Y-48870675D01*
X64300425Y-48818402D01*
X64251076Y-48763595D01*
X64240708Y-48745637D01*
X64231348Y-48734232D01*
X64196719Y-48669447D01*
X64156896Y-48600470D01*
X64152315Y-48586371D01*
X64148143Y-48578566D01*
X64125136Y-48502725D01*
X64098689Y-48421328D01*
X64097758Y-48412471D01*
X64096905Y-48409659D01*
X64088601Y-48325349D01*
X64079000Y-48234000D01*
X64088598Y-48142672D01*
X64096905Y-48058340D01*
X64097758Y-48055527D01*
X64098689Y-48046672D01*
X64125132Y-47965288D01*
X64148143Y-47889433D01*
X64152315Y-47881626D01*
X64156896Y-47867530D01*
X64196712Y-47798565D01*
X64231348Y-47733767D01*
X64240710Y-47722359D01*
X64251076Y-47704405D01*
X64300416Y-47649607D01*
X64343324Y-47597324D01*
X64359291Y-47584219D01*
X64377113Y-47564427D01*
X64432002Y-47524546D01*
X64479767Y-47485348D01*
X64503180Y-47472833D01*
X64529500Y-47453711D01*
X64586109Y-47428506D01*
X64635433Y-47402143D01*
X64666471Y-47392727D01*
X64701576Y-47377098D01*
X64756430Y-47365438D01*
X64804340Y-47350905D01*
X64842476Y-47347148D01*
X64885820Y-47337936D01*
X64936016Y-47337936D01*
X64980000Y-47333604D01*
X65023983Y-47337936D01*
G37*
G36*
X67563983Y-47337936D02*
G01*
X67614180Y-47337936D01*
X67657524Y-47347149D01*
X67695659Y-47350905D01*
X67743566Y-47365437D01*
X67798424Y-47377098D01*
X67833530Y-47392728D01*
X67864566Y-47402143D01*
X67913884Y-47428504D01*
X67970500Y-47453711D01*
X67996822Y-47472835D01*
X68020232Y-47485348D01*
X68067988Y-47524540D01*
X68122887Y-47564427D01*
X68140711Y-47584223D01*
X68156675Y-47597324D01*
X68199572Y-47649594D01*
X68248924Y-47704405D01*
X68259292Y-47722363D01*
X68268651Y-47733767D01*
X68303273Y-47798542D01*
X68343104Y-47867530D01*
X68347685Y-47881630D01*
X68351856Y-47889433D01*
X68374852Y-47965242D01*
X68401311Y-48046672D01*
X68402242Y-48055532D01*
X68403094Y-48058340D01*
X68411385Y-48142520D01*
X68421000Y-48234000D01*
X68411382Y-48325501D01*
X68403094Y-48409659D01*
X68402242Y-48412466D01*
X68401311Y-48421328D01*
X68374848Y-48502771D01*
X68351856Y-48578566D01*
X68347686Y-48586366D01*
X68343104Y-48600470D01*
X68303266Y-48669470D01*
X68268651Y-48734232D01*
X68259294Y-48745633D01*
X68248924Y-48763595D01*
X68199563Y-48818415D01*
X68156675Y-48870675D01*
X68140714Y-48883773D01*
X68122887Y-48903573D01*
X68067977Y-48943467D01*
X68020232Y-48982651D01*
X67996827Y-48995161D01*
X67970500Y-49014289D01*
X67913873Y-49039500D01*
X67864566Y-49065856D01*
X67833537Y-49075268D01*
X67798424Y-49090902D01*
X67743555Y-49102564D01*
X67695659Y-49117094D01*
X67657532Y-49120849D01*
X67614180Y-49130064D01*
X67563973Y-49130064D01*
X67520000Y-49134395D01*
X67476027Y-49130064D01*
X67425820Y-49130064D01*
X67382467Y-49120849D01*
X67344340Y-49117094D01*
X67296441Y-49102563D01*
X67241576Y-49090902D01*
X67206464Y-49075269D01*
X67175433Y-49065856D01*
X67126120Y-49039498D01*
X67069500Y-49014289D01*
X67043175Y-48995163D01*
X67019767Y-48982651D01*
X66972013Y-48943460D01*
X66917113Y-48903573D01*
X66899287Y-48883776D01*
X66883324Y-48870675D01*
X66840425Y-48818402D01*
X66791076Y-48763595D01*
X66780708Y-48745637D01*
X66771348Y-48734232D01*
X66736719Y-48669447D01*
X66696896Y-48600470D01*
X66692315Y-48586371D01*
X66688143Y-48578566D01*
X66665136Y-48502725D01*
X66638689Y-48421328D01*
X66637758Y-48412471D01*
X66636905Y-48409659D01*
X66628601Y-48325349D01*
X66619000Y-48234000D01*
X66628598Y-48142672D01*
X66636905Y-48058340D01*
X66637758Y-48055527D01*
X66638689Y-48046672D01*
X66665132Y-47965288D01*
X66688143Y-47889433D01*
X66692315Y-47881626D01*
X66696896Y-47867530D01*
X66736712Y-47798565D01*
X66771348Y-47733767D01*
X66780710Y-47722359D01*
X66791076Y-47704405D01*
X66840416Y-47649607D01*
X66883324Y-47597324D01*
X66899291Y-47584219D01*
X66917113Y-47564427D01*
X66972002Y-47524546D01*
X67019767Y-47485348D01*
X67043180Y-47472833D01*
X67069500Y-47453711D01*
X67126109Y-47428506D01*
X67175433Y-47402143D01*
X67206471Y-47392727D01*
X67241576Y-47377098D01*
X67296430Y-47365438D01*
X67344340Y-47350905D01*
X67382476Y-47347148D01*
X67425820Y-47337936D01*
X67476016Y-47337936D01*
X67520000Y-47333604D01*
X67563983Y-47337936D01*
G37*
G36*
X70103983Y-47337936D02*
G01*
X70154180Y-47337936D01*
X70197524Y-47347149D01*
X70235659Y-47350905D01*
X70283566Y-47365437D01*
X70338424Y-47377098D01*
X70373530Y-47392728D01*
X70404566Y-47402143D01*
X70453884Y-47428504D01*
X70510500Y-47453711D01*
X70536822Y-47472835D01*
X70560232Y-47485348D01*
X70607988Y-47524540D01*
X70662887Y-47564427D01*
X70680711Y-47584223D01*
X70696675Y-47597324D01*
X70739572Y-47649594D01*
X70788924Y-47704405D01*
X70799292Y-47722363D01*
X70808651Y-47733767D01*
X70843273Y-47798542D01*
X70883104Y-47867530D01*
X70887685Y-47881630D01*
X70891856Y-47889433D01*
X70914852Y-47965242D01*
X70941311Y-48046672D01*
X70942242Y-48055532D01*
X70943094Y-48058340D01*
X70951385Y-48142520D01*
X70961000Y-48234000D01*
X70951382Y-48325501D01*
X70943094Y-48409659D01*
X70942242Y-48412466D01*
X70941311Y-48421328D01*
X70914848Y-48502771D01*
X70891856Y-48578566D01*
X70887686Y-48586366D01*
X70883104Y-48600470D01*
X70843266Y-48669470D01*
X70808651Y-48734232D01*
X70799294Y-48745633D01*
X70788924Y-48763595D01*
X70739563Y-48818415D01*
X70696675Y-48870675D01*
X70680714Y-48883773D01*
X70662887Y-48903573D01*
X70607977Y-48943467D01*
X70560232Y-48982651D01*
X70536827Y-48995161D01*
X70510500Y-49014289D01*
X70453873Y-49039500D01*
X70404566Y-49065856D01*
X70373537Y-49075268D01*
X70338424Y-49090902D01*
X70283555Y-49102564D01*
X70235659Y-49117094D01*
X70197532Y-49120849D01*
X70154180Y-49130064D01*
X70103973Y-49130064D01*
X70060000Y-49134395D01*
X70016027Y-49130064D01*
X69965820Y-49130064D01*
X69922467Y-49120849D01*
X69884340Y-49117094D01*
X69836441Y-49102563D01*
X69781576Y-49090902D01*
X69746464Y-49075269D01*
X69715433Y-49065856D01*
X69666120Y-49039498D01*
X69609500Y-49014289D01*
X69583175Y-48995163D01*
X69559767Y-48982651D01*
X69512013Y-48943460D01*
X69457113Y-48903573D01*
X69439287Y-48883776D01*
X69423324Y-48870675D01*
X69380425Y-48818402D01*
X69331076Y-48763595D01*
X69320708Y-48745637D01*
X69311348Y-48734232D01*
X69276719Y-48669447D01*
X69236896Y-48600470D01*
X69232315Y-48586371D01*
X69228143Y-48578566D01*
X69205136Y-48502725D01*
X69178689Y-48421328D01*
X69177758Y-48412471D01*
X69176905Y-48409659D01*
X69168601Y-48325349D01*
X69159000Y-48234000D01*
X69168598Y-48142672D01*
X69176905Y-48058340D01*
X69177758Y-48055527D01*
X69178689Y-48046672D01*
X69205132Y-47965288D01*
X69228143Y-47889433D01*
X69232315Y-47881626D01*
X69236896Y-47867530D01*
X69276712Y-47798565D01*
X69311348Y-47733767D01*
X69320710Y-47722359D01*
X69331076Y-47704405D01*
X69380416Y-47649607D01*
X69423324Y-47597324D01*
X69439291Y-47584219D01*
X69457113Y-47564427D01*
X69512002Y-47524546D01*
X69559767Y-47485348D01*
X69583180Y-47472833D01*
X69609500Y-47453711D01*
X69666109Y-47428506D01*
X69715433Y-47402143D01*
X69746471Y-47392727D01*
X69781576Y-47377098D01*
X69836430Y-47365438D01*
X69884340Y-47350905D01*
X69922476Y-47347148D01*
X69965820Y-47337936D01*
X70016016Y-47337936D01*
X70060000Y-47333604D01*
X70103983Y-47337936D01*
G37*
G36*
X72643983Y-47337936D02*
G01*
X72694180Y-47337936D01*
X72737524Y-47347149D01*
X72775659Y-47350905D01*
X72823566Y-47365437D01*
X72878424Y-47377098D01*
X72913530Y-47392728D01*
X72944566Y-47402143D01*
X72993884Y-47428504D01*
X73050500Y-47453711D01*
X73076822Y-47472835D01*
X73100232Y-47485348D01*
X73147988Y-47524540D01*
X73202887Y-47564427D01*
X73220711Y-47584223D01*
X73236675Y-47597324D01*
X73279572Y-47649594D01*
X73328924Y-47704405D01*
X73339292Y-47722363D01*
X73348651Y-47733767D01*
X73383273Y-47798542D01*
X73423104Y-47867530D01*
X73427685Y-47881630D01*
X73431856Y-47889433D01*
X73454852Y-47965242D01*
X73481311Y-48046672D01*
X73482242Y-48055532D01*
X73483094Y-48058340D01*
X73491384Y-48142513D01*
X73501000Y-48234000D01*
X73491383Y-48325494D01*
X73483094Y-48409659D01*
X73482242Y-48412466D01*
X73481311Y-48421328D01*
X73454848Y-48502771D01*
X73431856Y-48578566D01*
X73427686Y-48586366D01*
X73423104Y-48600470D01*
X73383266Y-48669470D01*
X73348651Y-48734232D01*
X73339294Y-48745633D01*
X73328924Y-48763595D01*
X73279563Y-48818415D01*
X73236675Y-48870675D01*
X73220714Y-48883773D01*
X73202887Y-48903573D01*
X73147977Y-48943467D01*
X73100232Y-48982651D01*
X73076827Y-48995161D01*
X73050500Y-49014289D01*
X72993873Y-49039500D01*
X72944566Y-49065856D01*
X72913537Y-49075268D01*
X72878424Y-49090902D01*
X72823555Y-49102564D01*
X72775659Y-49117094D01*
X72737532Y-49120849D01*
X72694180Y-49130064D01*
X72643973Y-49130064D01*
X72600000Y-49134395D01*
X72556027Y-49130064D01*
X72505820Y-49130064D01*
X72462467Y-49120849D01*
X72424340Y-49117094D01*
X72376441Y-49102563D01*
X72321576Y-49090902D01*
X72286464Y-49075269D01*
X72255433Y-49065856D01*
X72206120Y-49039498D01*
X72149500Y-49014289D01*
X72123175Y-48995163D01*
X72099767Y-48982651D01*
X72052013Y-48943460D01*
X71997113Y-48903573D01*
X71979287Y-48883776D01*
X71963324Y-48870675D01*
X71920425Y-48818402D01*
X71871076Y-48763595D01*
X71860708Y-48745637D01*
X71851348Y-48734232D01*
X71816719Y-48669447D01*
X71776896Y-48600470D01*
X71772315Y-48586371D01*
X71768143Y-48578566D01*
X71745136Y-48502725D01*
X71718689Y-48421328D01*
X71717758Y-48412471D01*
X71716905Y-48409659D01*
X71708600Y-48325342D01*
X71699000Y-48234000D01*
X71708599Y-48142664D01*
X71716905Y-48058340D01*
X71717758Y-48055527D01*
X71718689Y-48046672D01*
X71745132Y-47965288D01*
X71768143Y-47889433D01*
X71772315Y-47881626D01*
X71776896Y-47867530D01*
X71816712Y-47798565D01*
X71851348Y-47733767D01*
X71860710Y-47722359D01*
X71871076Y-47704405D01*
X71920416Y-47649607D01*
X71963324Y-47597324D01*
X71979291Y-47584219D01*
X71997113Y-47564427D01*
X72052002Y-47524546D01*
X72099767Y-47485348D01*
X72123180Y-47472833D01*
X72149500Y-47453711D01*
X72206109Y-47428506D01*
X72255433Y-47402143D01*
X72286471Y-47392727D01*
X72321576Y-47377098D01*
X72376430Y-47365438D01*
X72424340Y-47350905D01*
X72462476Y-47347148D01*
X72505820Y-47337936D01*
X72556016Y-47337936D01*
X72600000Y-47333604D01*
X72643983Y-47337936D01*
G37*
G36*
X75183983Y-47337936D02*
G01*
X75234180Y-47337936D01*
X75277524Y-47347149D01*
X75315659Y-47350905D01*
X75363566Y-47365437D01*
X75418424Y-47377098D01*
X75453530Y-47392728D01*
X75484566Y-47402143D01*
X75533884Y-47428504D01*
X75590500Y-47453711D01*
X75616822Y-47472835D01*
X75640232Y-47485348D01*
X75687988Y-47524540D01*
X75742887Y-47564427D01*
X75760711Y-47584223D01*
X75776675Y-47597324D01*
X75819572Y-47649594D01*
X75868924Y-47704405D01*
X75879292Y-47722363D01*
X75888651Y-47733767D01*
X75923273Y-47798542D01*
X75963104Y-47867530D01*
X75967685Y-47881630D01*
X75971856Y-47889433D01*
X75994852Y-47965242D01*
X76021311Y-48046672D01*
X76022242Y-48055532D01*
X76023094Y-48058340D01*
X76031385Y-48142520D01*
X76041000Y-48234000D01*
X76031382Y-48325501D01*
X76023094Y-48409659D01*
X76022242Y-48412466D01*
X76021311Y-48421328D01*
X75994848Y-48502771D01*
X75971856Y-48578566D01*
X75967686Y-48586366D01*
X75963104Y-48600470D01*
X75923266Y-48669470D01*
X75888651Y-48734232D01*
X75879294Y-48745633D01*
X75868924Y-48763595D01*
X75819563Y-48818415D01*
X75776675Y-48870675D01*
X75760714Y-48883773D01*
X75742887Y-48903573D01*
X75687977Y-48943467D01*
X75640232Y-48982651D01*
X75616827Y-48995161D01*
X75590500Y-49014289D01*
X75533873Y-49039500D01*
X75484566Y-49065856D01*
X75453537Y-49075268D01*
X75418424Y-49090902D01*
X75363555Y-49102564D01*
X75315659Y-49117094D01*
X75277532Y-49120849D01*
X75234180Y-49130064D01*
X75183973Y-49130064D01*
X75140000Y-49134395D01*
X75096027Y-49130064D01*
X75045820Y-49130064D01*
X75002467Y-49120849D01*
X74964340Y-49117094D01*
X74916441Y-49102563D01*
X74861576Y-49090902D01*
X74826464Y-49075269D01*
X74795433Y-49065856D01*
X74746120Y-49039498D01*
X74689500Y-49014289D01*
X74663175Y-48995163D01*
X74639767Y-48982651D01*
X74592013Y-48943460D01*
X74537113Y-48903573D01*
X74519287Y-48883776D01*
X74503324Y-48870675D01*
X74460425Y-48818402D01*
X74411076Y-48763595D01*
X74400708Y-48745637D01*
X74391348Y-48734232D01*
X74356719Y-48669447D01*
X74316896Y-48600470D01*
X74312315Y-48586371D01*
X74308143Y-48578566D01*
X74285136Y-48502725D01*
X74258689Y-48421328D01*
X74257758Y-48412471D01*
X74256905Y-48409659D01*
X74248601Y-48325349D01*
X74239000Y-48234000D01*
X74248598Y-48142672D01*
X74256905Y-48058340D01*
X74257758Y-48055527D01*
X74258689Y-48046672D01*
X74285132Y-47965288D01*
X74308143Y-47889433D01*
X74312315Y-47881626D01*
X74316896Y-47867530D01*
X74356712Y-47798565D01*
X74391348Y-47733767D01*
X74400710Y-47722359D01*
X74411076Y-47704405D01*
X74460416Y-47649607D01*
X74503324Y-47597324D01*
X74519291Y-47584219D01*
X74537113Y-47564427D01*
X74592002Y-47524546D01*
X74639767Y-47485348D01*
X74663180Y-47472833D01*
X74689500Y-47453711D01*
X74746109Y-47428506D01*
X74795433Y-47402143D01*
X74826471Y-47392727D01*
X74861576Y-47377098D01*
X74916430Y-47365438D01*
X74964340Y-47350905D01*
X75002476Y-47347148D01*
X75045820Y-47337936D01*
X75096016Y-47337936D01*
X75140000Y-47333604D01*
X75183983Y-47337936D01*
G37*
G36*
X77723983Y-47337936D02*
G01*
X77774180Y-47337936D01*
X77817524Y-47347149D01*
X77855659Y-47350905D01*
X77903566Y-47365437D01*
X77958424Y-47377098D01*
X77993530Y-47392728D01*
X78024566Y-47402143D01*
X78073884Y-47428504D01*
X78130500Y-47453711D01*
X78156822Y-47472835D01*
X78180232Y-47485348D01*
X78227988Y-47524540D01*
X78282887Y-47564427D01*
X78300711Y-47584223D01*
X78316675Y-47597324D01*
X78359572Y-47649594D01*
X78408924Y-47704405D01*
X78419292Y-47722363D01*
X78428651Y-47733767D01*
X78463273Y-47798542D01*
X78503104Y-47867530D01*
X78507685Y-47881630D01*
X78511856Y-47889433D01*
X78534852Y-47965242D01*
X78561311Y-48046672D01*
X78562242Y-48055532D01*
X78563094Y-48058340D01*
X78571385Y-48142520D01*
X78581000Y-48234000D01*
X78571382Y-48325501D01*
X78563094Y-48409659D01*
X78562242Y-48412466D01*
X78561311Y-48421328D01*
X78534848Y-48502771D01*
X78511856Y-48578566D01*
X78507686Y-48586366D01*
X78503104Y-48600470D01*
X78463266Y-48669470D01*
X78428651Y-48734232D01*
X78419294Y-48745633D01*
X78408924Y-48763595D01*
X78359563Y-48818415D01*
X78316675Y-48870675D01*
X78300714Y-48883773D01*
X78282887Y-48903573D01*
X78227977Y-48943467D01*
X78180232Y-48982651D01*
X78156827Y-48995161D01*
X78130500Y-49014289D01*
X78073873Y-49039500D01*
X78024566Y-49065856D01*
X77993537Y-49075268D01*
X77958424Y-49090902D01*
X77903555Y-49102564D01*
X77855659Y-49117094D01*
X77817532Y-49120849D01*
X77774180Y-49130064D01*
X77723973Y-49130064D01*
X77680000Y-49134395D01*
X77636027Y-49130064D01*
X77585820Y-49130064D01*
X77542467Y-49120849D01*
X77504340Y-49117094D01*
X77456441Y-49102563D01*
X77401576Y-49090902D01*
X77366464Y-49075269D01*
X77335433Y-49065856D01*
X77286120Y-49039498D01*
X77229500Y-49014289D01*
X77203175Y-48995163D01*
X77179767Y-48982651D01*
X77132013Y-48943460D01*
X77077113Y-48903573D01*
X77059287Y-48883776D01*
X77043324Y-48870675D01*
X77000425Y-48818402D01*
X76951076Y-48763595D01*
X76940708Y-48745637D01*
X76931348Y-48734232D01*
X76896719Y-48669447D01*
X76856896Y-48600470D01*
X76852315Y-48586371D01*
X76848143Y-48578566D01*
X76825136Y-48502725D01*
X76798689Y-48421328D01*
X76797758Y-48412471D01*
X76796905Y-48409659D01*
X76788601Y-48325349D01*
X76779000Y-48234000D01*
X76788598Y-48142672D01*
X76796905Y-48058340D01*
X76797758Y-48055527D01*
X76798689Y-48046672D01*
X76825132Y-47965288D01*
X76848143Y-47889433D01*
X76852315Y-47881626D01*
X76856896Y-47867530D01*
X76896712Y-47798565D01*
X76931348Y-47733767D01*
X76940710Y-47722359D01*
X76951076Y-47704405D01*
X77000416Y-47649607D01*
X77043324Y-47597324D01*
X77059291Y-47584219D01*
X77077113Y-47564427D01*
X77132002Y-47524546D01*
X77179767Y-47485348D01*
X77203180Y-47472833D01*
X77229500Y-47453711D01*
X77286109Y-47428506D01*
X77335433Y-47402143D01*
X77366471Y-47392727D01*
X77401576Y-47377098D01*
X77456430Y-47365438D01*
X77504340Y-47350905D01*
X77542476Y-47347148D01*
X77585820Y-47337936D01*
X77636016Y-47337936D01*
X77680000Y-47333604D01*
X77723983Y-47337936D01*
G37*
G36*
X80263983Y-47337936D02*
G01*
X80314180Y-47337936D01*
X80357524Y-47347149D01*
X80395659Y-47350905D01*
X80443566Y-47365437D01*
X80498424Y-47377098D01*
X80533530Y-47392728D01*
X80564566Y-47402143D01*
X80613884Y-47428504D01*
X80670500Y-47453711D01*
X80696822Y-47472835D01*
X80720232Y-47485348D01*
X80767988Y-47524540D01*
X80822887Y-47564427D01*
X80840711Y-47584223D01*
X80856675Y-47597324D01*
X80899572Y-47649594D01*
X80948924Y-47704405D01*
X80959292Y-47722363D01*
X80968651Y-47733767D01*
X81003273Y-47798542D01*
X81043104Y-47867530D01*
X81047685Y-47881630D01*
X81051856Y-47889433D01*
X81074852Y-47965242D01*
X81101311Y-48046672D01*
X81102242Y-48055532D01*
X81103094Y-48058340D01*
X81111385Y-48142520D01*
X81121000Y-48234000D01*
X81111382Y-48325501D01*
X81103094Y-48409659D01*
X81102242Y-48412466D01*
X81101311Y-48421328D01*
X81074848Y-48502771D01*
X81051856Y-48578566D01*
X81047686Y-48586366D01*
X81043104Y-48600470D01*
X81003266Y-48669470D01*
X80968651Y-48734232D01*
X80959294Y-48745633D01*
X80948924Y-48763595D01*
X80899563Y-48818415D01*
X80856675Y-48870675D01*
X80840714Y-48883773D01*
X80822887Y-48903573D01*
X80767977Y-48943467D01*
X80720232Y-48982651D01*
X80696827Y-48995161D01*
X80670500Y-49014289D01*
X80613873Y-49039500D01*
X80564566Y-49065856D01*
X80533537Y-49075268D01*
X80498424Y-49090902D01*
X80443555Y-49102564D01*
X80395659Y-49117094D01*
X80357532Y-49120849D01*
X80314180Y-49130064D01*
X80263973Y-49130064D01*
X80220000Y-49134395D01*
X80176027Y-49130064D01*
X80125820Y-49130064D01*
X80082467Y-49120849D01*
X80044340Y-49117094D01*
X79996441Y-49102563D01*
X79941576Y-49090902D01*
X79906464Y-49075269D01*
X79875433Y-49065856D01*
X79826120Y-49039498D01*
X79769500Y-49014289D01*
X79743175Y-48995163D01*
X79719767Y-48982651D01*
X79672013Y-48943460D01*
X79617113Y-48903573D01*
X79599287Y-48883776D01*
X79583324Y-48870675D01*
X79540425Y-48818402D01*
X79491076Y-48763595D01*
X79480708Y-48745637D01*
X79471348Y-48734232D01*
X79436719Y-48669447D01*
X79396896Y-48600470D01*
X79392315Y-48586371D01*
X79388143Y-48578566D01*
X79365136Y-48502725D01*
X79338689Y-48421328D01*
X79337758Y-48412471D01*
X79336905Y-48409659D01*
X79328601Y-48325349D01*
X79319000Y-48234000D01*
X79328598Y-48142672D01*
X79336905Y-48058340D01*
X79337758Y-48055527D01*
X79338689Y-48046672D01*
X79365132Y-47965288D01*
X79388143Y-47889433D01*
X79392315Y-47881626D01*
X79396896Y-47867530D01*
X79436712Y-47798565D01*
X79471348Y-47733767D01*
X79480710Y-47722359D01*
X79491076Y-47704405D01*
X79540416Y-47649607D01*
X79583324Y-47597324D01*
X79599291Y-47584219D01*
X79617113Y-47564427D01*
X79672002Y-47524546D01*
X79719767Y-47485348D01*
X79743180Y-47472833D01*
X79769500Y-47453711D01*
X79826109Y-47428506D01*
X79875433Y-47402143D01*
X79906471Y-47392727D01*
X79941576Y-47377098D01*
X79996430Y-47365438D01*
X80044340Y-47350905D01*
X80082476Y-47347148D01*
X80125820Y-47337936D01*
X80176016Y-47337936D01*
X80220000Y-47333604D01*
X80263983Y-47337936D01*
G37*
G36*
X82803983Y-47337936D02*
G01*
X82854180Y-47337936D01*
X82897524Y-47347149D01*
X82935659Y-47350905D01*
X82983566Y-47365437D01*
X83038424Y-47377098D01*
X83073530Y-47392728D01*
X83104566Y-47402143D01*
X83153884Y-47428504D01*
X83210500Y-47453711D01*
X83236822Y-47472835D01*
X83260232Y-47485348D01*
X83307988Y-47524540D01*
X83362887Y-47564427D01*
X83380711Y-47584223D01*
X83396675Y-47597324D01*
X83439572Y-47649594D01*
X83488924Y-47704405D01*
X83499292Y-47722363D01*
X83508651Y-47733767D01*
X83543273Y-47798542D01*
X83583104Y-47867530D01*
X83587685Y-47881630D01*
X83591856Y-47889433D01*
X83614852Y-47965242D01*
X83641311Y-48046672D01*
X83642242Y-48055532D01*
X83643094Y-48058340D01*
X83651384Y-48142513D01*
X83661000Y-48234000D01*
X83651383Y-48325494D01*
X83643094Y-48409659D01*
X83642242Y-48412466D01*
X83641311Y-48421328D01*
X83614848Y-48502771D01*
X83591856Y-48578566D01*
X83587686Y-48586366D01*
X83583104Y-48600470D01*
X83543266Y-48669470D01*
X83508651Y-48734232D01*
X83499294Y-48745633D01*
X83488924Y-48763595D01*
X83439563Y-48818415D01*
X83396675Y-48870675D01*
X83380714Y-48883773D01*
X83362887Y-48903573D01*
X83307977Y-48943467D01*
X83260232Y-48982651D01*
X83236827Y-48995161D01*
X83210500Y-49014289D01*
X83153873Y-49039500D01*
X83104566Y-49065856D01*
X83073537Y-49075268D01*
X83038424Y-49090902D01*
X82983555Y-49102564D01*
X82935659Y-49117094D01*
X82897532Y-49120849D01*
X82854180Y-49130064D01*
X82803973Y-49130064D01*
X82760000Y-49134395D01*
X82716027Y-49130064D01*
X82665820Y-49130064D01*
X82622467Y-49120849D01*
X82584340Y-49117094D01*
X82536441Y-49102563D01*
X82481576Y-49090902D01*
X82446464Y-49075269D01*
X82415433Y-49065856D01*
X82366120Y-49039498D01*
X82309500Y-49014289D01*
X82283175Y-48995163D01*
X82259767Y-48982651D01*
X82212013Y-48943460D01*
X82157113Y-48903573D01*
X82139287Y-48883776D01*
X82123324Y-48870675D01*
X82080425Y-48818402D01*
X82031076Y-48763595D01*
X82020708Y-48745637D01*
X82011348Y-48734232D01*
X81976719Y-48669447D01*
X81936896Y-48600470D01*
X81932315Y-48586371D01*
X81928143Y-48578566D01*
X81905136Y-48502725D01*
X81878689Y-48421328D01*
X81877758Y-48412471D01*
X81876905Y-48409659D01*
X81868600Y-48325342D01*
X81859000Y-48234000D01*
X81868599Y-48142664D01*
X81876905Y-48058340D01*
X81877758Y-48055527D01*
X81878689Y-48046672D01*
X81905132Y-47965288D01*
X81928143Y-47889433D01*
X81932315Y-47881626D01*
X81936896Y-47867530D01*
X81976712Y-47798565D01*
X82011348Y-47733767D01*
X82020710Y-47722359D01*
X82031076Y-47704405D01*
X82080416Y-47649607D01*
X82123324Y-47597324D01*
X82139291Y-47584219D01*
X82157113Y-47564427D01*
X82212002Y-47524546D01*
X82259767Y-47485348D01*
X82283180Y-47472833D01*
X82309500Y-47453711D01*
X82366109Y-47428506D01*
X82415433Y-47402143D01*
X82446471Y-47392727D01*
X82481576Y-47377098D01*
X82536430Y-47365438D01*
X82584340Y-47350905D01*
X82622476Y-47347148D01*
X82665820Y-47337936D01*
X82716016Y-47337936D01*
X82760000Y-47333604D01*
X82803983Y-47337936D01*
G37*
G36*
X65023983Y-44797936D02*
G01*
X65074180Y-44797936D01*
X65117524Y-44807149D01*
X65155659Y-44810905D01*
X65203566Y-44825437D01*
X65258424Y-44837098D01*
X65293530Y-44852728D01*
X65324566Y-44862143D01*
X65373884Y-44888504D01*
X65430500Y-44913711D01*
X65456822Y-44932835D01*
X65480232Y-44945348D01*
X65527988Y-44984540D01*
X65582887Y-45024427D01*
X65600711Y-45044223D01*
X65616675Y-45057324D01*
X65659572Y-45109594D01*
X65708924Y-45164405D01*
X65719292Y-45182363D01*
X65728651Y-45193767D01*
X65763273Y-45258542D01*
X65803104Y-45327530D01*
X65807685Y-45341630D01*
X65811856Y-45349433D01*
X65834852Y-45425242D01*
X65861311Y-45506672D01*
X65862242Y-45515532D01*
X65863094Y-45518340D01*
X65871384Y-45602513D01*
X65881000Y-45694000D01*
X65871383Y-45785494D01*
X65863094Y-45869659D01*
X65862242Y-45872466D01*
X65861311Y-45881328D01*
X65834848Y-45962771D01*
X65811856Y-46038566D01*
X65807686Y-46046366D01*
X65803104Y-46060470D01*
X65763266Y-46129470D01*
X65728651Y-46194232D01*
X65719294Y-46205633D01*
X65708924Y-46223595D01*
X65659563Y-46278415D01*
X65616675Y-46330675D01*
X65600714Y-46343773D01*
X65582887Y-46363573D01*
X65527977Y-46403467D01*
X65480232Y-46442651D01*
X65456827Y-46455161D01*
X65430500Y-46474289D01*
X65373873Y-46499500D01*
X65324566Y-46525856D01*
X65293537Y-46535268D01*
X65258424Y-46550902D01*
X65203555Y-46562564D01*
X65155659Y-46577094D01*
X65117532Y-46580849D01*
X65074180Y-46590064D01*
X65023973Y-46590064D01*
X64980000Y-46594395D01*
X64936027Y-46590064D01*
X64885820Y-46590064D01*
X64842467Y-46580849D01*
X64804340Y-46577094D01*
X64756441Y-46562563D01*
X64701576Y-46550902D01*
X64666464Y-46535269D01*
X64635433Y-46525856D01*
X64586120Y-46499498D01*
X64529500Y-46474289D01*
X64503175Y-46455163D01*
X64479767Y-46442651D01*
X64432013Y-46403460D01*
X64377113Y-46363573D01*
X64359287Y-46343776D01*
X64343324Y-46330675D01*
X64300425Y-46278402D01*
X64251076Y-46223595D01*
X64240708Y-46205637D01*
X64231348Y-46194232D01*
X64196719Y-46129447D01*
X64156896Y-46060470D01*
X64152315Y-46046371D01*
X64148143Y-46038566D01*
X64125136Y-45962725D01*
X64098689Y-45881328D01*
X64097758Y-45872471D01*
X64096905Y-45869659D01*
X64088600Y-45785342D01*
X64079000Y-45694000D01*
X64088599Y-45602664D01*
X64096905Y-45518340D01*
X64097758Y-45515527D01*
X64098689Y-45506672D01*
X64125132Y-45425288D01*
X64148143Y-45349433D01*
X64152315Y-45341626D01*
X64156896Y-45327530D01*
X64196712Y-45258565D01*
X64231348Y-45193767D01*
X64240710Y-45182359D01*
X64251076Y-45164405D01*
X64300416Y-45109607D01*
X64343324Y-45057324D01*
X64359291Y-45044219D01*
X64377113Y-45024427D01*
X64432002Y-44984546D01*
X64479767Y-44945348D01*
X64503180Y-44932833D01*
X64529500Y-44913711D01*
X64586109Y-44888506D01*
X64635433Y-44862143D01*
X64666471Y-44852727D01*
X64701576Y-44837098D01*
X64756430Y-44825438D01*
X64804340Y-44810905D01*
X64842476Y-44807148D01*
X64885820Y-44797936D01*
X64936016Y-44797936D01*
X64980000Y-44793604D01*
X65023983Y-44797936D01*
G37*
G36*
X67563983Y-44797936D02*
G01*
X67614180Y-44797936D01*
X67657524Y-44807149D01*
X67695659Y-44810905D01*
X67743566Y-44825437D01*
X67798424Y-44837098D01*
X67833530Y-44852728D01*
X67864566Y-44862143D01*
X67913884Y-44888504D01*
X67970500Y-44913711D01*
X67996822Y-44932835D01*
X68020232Y-44945348D01*
X68067988Y-44984540D01*
X68122887Y-45024427D01*
X68140711Y-45044223D01*
X68156675Y-45057324D01*
X68199572Y-45109594D01*
X68248924Y-45164405D01*
X68259292Y-45182363D01*
X68268651Y-45193767D01*
X68303273Y-45258542D01*
X68343104Y-45327530D01*
X68347685Y-45341630D01*
X68351856Y-45349433D01*
X68374852Y-45425242D01*
X68401311Y-45506672D01*
X68402242Y-45515532D01*
X68403094Y-45518340D01*
X68411385Y-45602520D01*
X68421000Y-45694000D01*
X68411382Y-45785501D01*
X68403094Y-45869659D01*
X68402242Y-45872466D01*
X68401311Y-45881328D01*
X68374848Y-45962771D01*
X68351856Y-46038566D01*
X68347686Y-46046366D01*
X68343104Y-46060470D01*
X68303266Y-46129470D01*
X68268651Y-46194232D01*
X68259294Y-46205633D01*
X68248924Y-46223595D01*
X68199563Y-46278415D01*
X68156675Y-46330675D01*
X68140714Y-46343773D01*
X68122887Y-46363573D01*
X68067977Y-46403467D01*
X68020232Y-46442651D01*
X67996827Y-46455161D01*
X67970500Y-46474289D01*
X67913873Y-46499500D01*
X67864566Y-46525856D01*
X67833537Y-46535268D01*
X67798424Y-46550902D01*
X67743555Y-46562564D01*
X67695659Y-46577094D01*
X67657532Y-46580849D01*
X67614180Y-46590064D01*
X67563973Y-46590064D01*
X67520000Y-46594395D01*
X67476027Y-46590064D01*
X67425820Y-46590064D01*
X67382467Y-46580849D01*
X67344340Y-46577094D01*
X67296441Y-46562563D01*
X67241576Y-46550902D01*
X67206464Y-46535269D01*
X67175433Y-46525856D01*
X67126120Y-46499498D01*
X67069500Y-46474289D01*
X67043175Y-46455163D01*
X67019767Y-46442651D01*
X66972013Y-46403460D01*
X66917113Y-46363573D01*
X66899287Y-46343776D01*
X66883324Y-46330675D01*
X66840425Y-46278402D01*
X66791076Y-46223595D01*
X66780708Y-46205637D01*
X66771348Y-46194232D01*
X66736719Y-46129447D01*
X66696896Y-46060470D01*
X66692315Y-46046371D01*
X66688143Y-46038566D01*
X66665136Y-45962725D01*
X66638689Y-45881328D01*
X66637758Y-45872471D01*
X66636905Y-45869659D01*
X66628601Y-45785349D01*
X66619000Y-45694000D01*
X66628598Y-45602672D01*
X66636905Y-45518340D01*
X66637758Y-45515527D01*
X66638689Y-45506672D01*
X66665132Y-45425288D01*
X66688143Y-45349433D01*
X66692315Y-45341626D01*
X66696896Y-45327530D01*
X66736712Y-45258565D01*
X66771348Y-45193767D01*
X66780710Y-45182359D01*
X66791076Y-45164405D01*
X66840416Y-45109607D01*
X66883324Y-45057324D01*
X66899291Y-45044219D01*
X66917113Y-45024427D01*
X66972002Y-44984546D01*
X67019767Y-44945348D01*
X67043180Y-44932833D01*
X67069500Y-44913711D01*
X67126109Y-44888506D01*
X67175433Y-44862143D01*
X67206471Y-44852727D01*
X67241576Y-44837098D01*
X67296430Y-44825438D01*
X67344340Y-44810905D01*
X67382476Y-44807148D01*
X67425820Y-44797936D01*
X67476016Y-44797936D01*
X67520000Y-44793604D01*
X67563983Y-44797936D01*
G37*
G36*
X70103983Y-44797936D02*
G01*
X70154180Y-44797936D01*
X70197524Y-44807149D01*
X70235659Y-44810905D01*
X70283566Y-44825437D01*
X70338424Y-44837098D01*
X70373530Y-44852728D01*
X70404566Y-44862143D01*
X70453884Y-44888504D01*
X70510500Y-44913711D01*
X70536822Y-44932835D01*
X70560232Y-44945348D01*
X70607988Y-44984540D01*
X70662887Y-45024427D01*
X70680711Y-45044223D01*
X70696675Y-45057324D01*
X70739572Y-45109594D01*
X70788924Y-45164405D01*
X70799292Y-45182363D01*
X70808651Y-45193767D01*
X70843273Y-45258542D01*
X70883104Y-45327530D01*
X70887685Y-45341630D01*
X70891856Y-45349433D01*
X70914852Y-45425242D01*
X70941311Y-45506672D01*
X70942242Y-45515532D01*
X70943094Y-45518340D01*
X70951384Y-45602513D01*
X70961000Y-45694000D01*
X70951383Y-45785494D01*
X70943094Y-45869659D01*
X70942242Y-45872466D01*
X70941311Y-45881328D01*
X70914848Y-45962771D01*
X70891856Y-46038566D01*
X70887686Y-46046366D01*
X70883104Y-46060470D01*
X70843266Y-46129470D01*
X70808651Y-46194232D01*
X70799294Y-46205633D01*
X70788924Y-46223595D01*
X70739563Y-46278415D01*
X70696675Y-46330675D01*
X70680714Y-46343773D01*
X70662887Y-46363573D01*
X70607977Y-46403467D01*
X70560232Y-46442651D01*
X70536827Y-46455161D01*
X70510500Y-46474289D01*
X70453873Y-46499500D01*
X70404566Y-46525856D01*
X70373537Y-46535268D01*
X70338424Y-46550902D01*
X70283555Y-46562564D01*
X70235659Y-46577094D01*
X70197532Y-46580849D01*
X70154180Y-46590064D01*
X70103973Y-46590064D01*
X70060000Y-46594395D01*
X70016027Y-46590064D01*
X69965820Y-46590064D01*
X69922467Y-46580849D01*
X69884340Y-46577094D01*
X69836441Y-46562563D01*
X69781576Y-46550902D01*
X69746464Y-46535269D01*
X69715433Y-46525856D01*
X69666120Y-46499498D01*
X69609500Y-46474289D01*
X69583175Y-46455163D01*
X69559767Y-46442651D01*
X69512013Y-46403460D01*
X69457113Y-46363573D01*
X69439287Y-46343776D01*
X69423324Y-46330675D01*
X69380425Y-46278402D01*
X69331076Y-46223595D01*
X69320708Y-46205637D01*
X69311348Y-46194232D01*
X69276719Y-46129447D01*
X69236896Y-46060470D01*
X69232315Y-46046371D01*
X69228143Y-46038566D01*
X69205136Y-45962725D01*
X69178689Y-45881328D01*
X69177758Y-45872471D01*
X69176905Y-45869659D01*
X69168600Y-45785342D01*
X69159000Y-45694000D01*
X69168599Y-45602664D01*
X69176905Y-45518340D01*
X69177758Y-45515527D01*
X69178689Y-45506672D01*
X69205132Y-45425288D01*
X69228143Y-45349433D01*
X69232315Y-45341626D01*
X69236896Y-45327530D01*
X69276712Y-45258565D01*
X69311348Y-45193767D01*
X69320710Y-45182359D01*
X69331076Y-45164405D01*
X69380416Y-45109607D01*
X69423324Y-45057324D01*
X69439291Y-45044219D01*
X69457113Y-45024427D01*
X69512002Y-44984546D01*
X69559767Y-44945348D01*
X69583180Y-44932833D01*
X69609500Y-44913711D01*
X69666109Y-44888506D01*
X69715433Y-44862143D01*
X69746471Y-44852727D01*
X69781576Y-44837098D01*
X69836430Y-44825438D01*
X69884340Y-44810905D01*
X69922476Y-44807148D01*
X69965820Y-44797936D01*
X70016016Y-44797936D01*
X70060000Y-44793604D01*
X70103983Y-44797936D01*
G37*
G36*
X72643983Y-44797936D02*
G01*
X72694180Y-44797936D01*
X72737524Y-44807149D01*
X72775659Y-44810905D01*
X72823566Y-44825437D01*
X72878424Y-44837098D01*
X72913530Y-44852728D01*
X72944566Y-44862143D01*
X72993884Y-44888504D01*
X73050500Y-44913711D01*
X73076822Y-44932835D01*
X73100232Y-44945348D01*
X73147988Y-44984540D01*
X73202887Y-45024427D01*
X73220711Y-45044223D01*
X73236675Y-45057324D01*
X73279572Y-45109594D01*
X73328924Y-45164405D01*
X73339292Y-45182363D01*
X73348651Y-45193767D01*
X73383273Y-45258542D01*
X73423104Y-45327530D01*
X73427685Y-45341630D01*
X73431856Y-45349433D01*
X73454852Y-45425242D01*
X73481311Y-45506672D01*
X73482242Y-45515532D01*
X73483094Y-45518340D01*
X73491384Y-45602513D01*
X73501000Y-45694000D01*
X73491383Y-45785494D01*
X73483094Y-45869659D01*
X73482242Y-45872466D01*
X73481311Y-45881328D01*
X73454848Y-45962771D01*
X73431856Y-46038566D01*
X73427686Y-46046366D01*
X73423104Y-46060470D01*
X73383266Y-46129470D01*
X73348651Y-46194232D01*
X73339294Y-46205633D01*
X73328924Y-46223595D01*
X73279563Y-46278415D01*
X73236675Y-46330675D01*
X73220714Y-46343773D01*
X73202887Y-46363573D01*
X73147977Y-46403467D01*
X73100232Y-46442651D01*
X73076827Y-46455161D01*
X73050500Y-46474289D01*
X72993873Y-46499500D01*
X72944566Y-46525856D01*
X72913537Y-46535268D01*
X72878424Y-46550902D01*
X72823555Y-46562564D01*
X72775659Y-46577094D01*
X72737532Y-46580849D01*
X72694180Y-46590064D01*
X72643973Y-46590064D01*
X72600000Y-46594395D01*
X72556027Y-46590064D01*
X72505820Y-46590064D01*
X72462467Y-46580849D01*
X72424340Y-46577094D01*
X72376441Y-46562563D01*
X72321576Y-46550902D01*
X72286464Y-46535269D01*
X72255433Y-46525856D01*
X72206120Y-46499498D01*
X72149500Y-46474289D01*
X72123175Y-46455163D01*
X72099767Y-46442651D01*
X72052013Y-46403460D01*
X71997113Y-46363573D01*
X71979287Y-46343776D01*
X71963324Y-46330675D01*
X71920425Y-46278402D01*
X71871076Y-46223595D01*
X71860708Y-46205637D01*
X71851348Y-46194232D01*
X71816719Y-46129447D01*
X71776896Y-46060470D01*
X71772315Y-46046371D01*
X71768143Y-46038566D01*
X71745136Y-45962725D01*
X71718689Y-45881328D01*
X71717758Y-45872471D01*
X71716905Y-45869659D01*
X71708600Y-45785342D01*
X71699000Y-45694000D01*
X71708599Y-45602664D01*
X71716905Y-45518340D01*
X71717758Y-45515527D01*
X71718689Y-45506672D01*
X71745132Y-45425288D01*
X71768143Y-45349433D01*
X71772315Y-45341626D01*
X71776896Y-45327530D01*
X71816712Y-45258565D01*
X71851348Y-45193767D01*
X71860710Y-45182359D01*
X71871076Y-45164405D01*
X71920416Y-45109607D01*
X71963324Y-45057324D01*
X71979291Y-45044219D01*
X71997113Y-45024427D01*
X72052002Y-44984546D01*
X72099767Y-44945348D01*
X72123180Y-44932833D01*
X72149500Y-44913711D01*
X72206109Y-44888506D01*
X72255433Y-44862143D01*
X72286471Y-44852727D01*
X72321576Y-44837098D01*
X72376430Y-44825438D01*
X72424340Y-44810905D01*
X72462476Y-44807148D01*
X72505820Y-44797936D01*
X72556016Y-44797936D01*
X72600000Y-44793604D01*
X72643983Y-44797936D01*
G37*
G36*
X75183983Y-44797936D02*
G01*
X75234180Y-44797936D01*
X75277524Y-44807149D01*
X75315659Y-44810905D01*
X75363566Y-44825437D01*
X75418424Y-44837098D01*
X75453530Y-44852728D01*
X75484566Y-44862143D01*
X75533884Y-44888504D01*
X75590500Y-44913711D01*
X75616822Y-44932835D01*
X75640232Y-44945348D01*
X75687988Y-44984540D01*
X75742887Y-45024427D01*
X75760711Y-45044223D01*
X75776675Y-45057324D01*
X75819572Y-45109594D01*
X75868924Y-45164405D01*
X75879292Y-45182363D01*
X75888651Y-45193767D01*
X75923273Y-45258542D01*
X75963104Y-45327530D01*
X75967685Y-45341630D01*
X75971856Y-45349433D01*
X75994852Y-45425242D01*
X76021311Y-45506672D01*
X76022242Y-45515532D01*
X76023094Y-45518340D01*
X76031384Y-45602513D01*
X76041000Y-45694000D01*
X76031383Y-45785494D01*
X76023094Y-45869659D01*
X76022242Y-45872466D01*
X76021311Y-45881328D01*
X75994848Y-45962771D01*
X75971856Y-46038566D01*
X75967686Y-46046366D01*
X75963104Y-46060470D01*
X75923266Y-46129470D01*
X75888651Y-46194232D01*
X75879294Y-46205633D01*
X75868924Y-46223595D01*
X75819563Y-46278415D01*
X75776675Y-46330675D01*
X75760714Y-46343773D01*
X75742887Y-46363573D01*
X75687977Y-46403467D01*
X75640232Y-46442651D01*
X75616827Y-46455161D01*
X75590500Y-46474289D01*
X75533873Y-46499500D01*
X75484566Y-46525856D01*
X75453537Y-46535268D01*
X75418424Y-46550902D01*
X75363555Y-46562564D01*
X75315659Y-46577094D01*
X75277532Y-46580849D01*
X75234180Y-46590064D01*
X75183973Y-46590064D01*
X75140000Y-46594395D01*
X75096027Y-46590064D01*
X75045820Y-46590064D01*
X75002467Y-46580849D01*
X74964340Y-46577094D01*
X74916441Y-46562563D01*
X74861576Y-46550902D01*
X74826464Y-46535269D01*
X74795433Y-46525856D01*
X74746120Y-46499498D01*
X74689500Y-46474289D01*
X74663175Y-46455163D01*
X74639767Y-46442651D01*
X74592013Y-46403460D01*
X74537113Y-46363573D01*
X74519287Y-46343776D01*
X74503324Y-46330675D01*
X74460425Y-46278402D01*
X74411076Y-46223595D01*
X74400708Y-46205637D01*
X74391348Y-46194232D01*
X74356719Y-46129447D01*
X74316896Y-46060470D01*
X74312315Y-46046371D01*
X74308143Y-46038566D01*
X74285136Y-45962725D01*
X74258689Y-45881328D01*
X74257758Y-45872471D01*
X74256905Y-45869659D01*
X74248600Y-45785342D01*
X74239000Y-45694000D01*
X74248599Y-45602664D01*
X74256905Y-45518340D01*
X74257758Y-45515527D01*
X74258689Y-45506672D01*
X74285132Y-45425288D01*
X74308143Y-45349433D01*
X74312315Y-45341626D01*
X74316896Y-45327530D01*
X74356712Y-45258565D01*
X74391348Y-45193767D01*
X74400710Y-45182359D01*
X74411076Y-45164405D01*
X74460416Y-45109607D01*
X74503324Y-45057324D01*
X74519291Y-45044219D01*
X74537113Y-45024427D01*
X74592002Y-44984546D01*
X74639767Y-44945348D01*
X74663180Y-44932833D01*
X74689500Y-44913711D01*
X74746109Y-44888506D01*
X74795433Y-44862143D01*
X74826471Y-44852727D01*
X74861576Y-44837098D01*
X74916430Y-44825438D01*
X74964340Y-44810905D01*
X75002476Y-44807148D01*
X75045820Y-44797936D01*
X75096016Y-44797936D01*
X75140000Y-44793604D01*
X75183983Y-44797936D01*
G37*
G36*
X77723983Y-44797936D02*
G01*
X77774180Y-44797936D01*
X77817524Y-44807149D01*
X77855659Y-44810905D01*
X77903566Y-44825437D01*
X77958424Y-44837098D01*
X77993530Y-44852728D01*
X78024566Y-44862143D01*
X78073884Y-44888504D01*
X78130500Y-44913711D01*
X78156822Y-44932835D01*
X78180232Y-44945348D01*
X78227988Y-44984540D01*
X78282887Y-45024427D01*
X78300711Y-45044223D01*
X78316675Y-45057324D01*
X78359572Y-45109594D01*
X78408924Y-45164405D01*
X78419292Y-45182363D01*
X78428651Y-45193767D01*
X78463273Y-45258542D01*
X78503104Y-45327530D01*
X78507685Y-45341630D01*
X78511856Y-45349433D01*
X78534852Y-45425242D01*
X78561311Y-45506672D01*
X78562242Y-45515532D01*
X78563094Y-45518340D01*
X78571385Y-45602520D01*
X78581000Y-45694000D01*
X78571382Y-45785501D01*
X78563094Y-45869659D01*
X78562242Y-45872466D01*
X78561311Y-45881328D01*
X78534848Y-45962771D01*
X78511856Y-46038566D01*
X78507686Y-46046366D01*
X78503104Y-46060470D01*
X78463266Y-46129470D01*
X78428651Y-46194232D01*
X78419294Y-46205633D01*
X78408924Y-46223595D01*
X78359563Y-46278415D01*
X78316675Y-46330675D01*
X78300714Y-46343773D01*
X78282887Y-46363573D01*
X78227977Y-46403467D01*
X78180232Y-46442651D01*
X78156827Y-46455161D01*
X78130500Y-46474289D01*
X78073873Y-46499500D01*
X78024566Y-46525856D01*
X77993537Y-46535268D01*
X77958424Y-46550902D01*
X77903555Y-46562564D01*
X77855659Y-46577094D01*
X77817532Y-46580849D01*
X77774180Y-46590064D01*
X77723973Y-46590064D01*
X77680000Y-46594395D01*
X77636027Y-46590064D01*
X77585820Y-46590064D01*
X77542467Y-46580849D01*
X77504340Y-46577094D01*
X77456441Y-46562563D01*
X77401576Y-46550902D01*
X77366464Y-46535269D01*
X77335433Y-46525856D01*
X77286120Y-46499498D01*
X77229500Y-46474289D01*
X77203175Y-46455163D01*
X77179767Y-46442651D01*
X77132013Y-46403460D01*
X77077113Y-46363573D01*
X77059287Y-46343776D01*
X77043324Y-46330675D01*
X77000425Y-46278402D01*
X76951076Y-46223595D01*
X76940708Y-46205637D01*
X76931348Y-46194232D01*
X76896719Y-46129447D01*
X76856896Y-46060470D01*
X76852315Y-46046371D01*
X76848143Y-46038566D01*
X76825136Y-45962725D01*
X76798689Y-45881328D01*
X76797758Y-45872471D01*
X76796905Y-45869659D01*
X76788601Y-45785349D01*
X76779000Y-45694000D01*
X76788598Y-45602672D01*
X76796905Y-45518340D01*
X76797758Y-45515527D01*
X76798689Y-45506672D01*
X76825132Y-45425288D01*
X76848143Y-45349433D01*
X76852315Y-45341626D01*
X76856896Y-45327530D01*
X76896712Y-45258565D01*
X76931348Y-45193767D01*
X76940710Y-45182359D01*
X76951076Y-45164405D01*
X77000416Y-45109607D01*
X77043324Y-45057324D01*
X77059291Y-45044219D01*
X77077113Y-45024427D01*
X77132002Y-44984546D01*
X77179767Y-44945348D01*
X77203180Y-44932833D01*
X77229500Y-44913711D01*
X77286109Y-44888506D01*
X77335433Y-44862143D01*
X77366471Y-44852727D01*
X77401576Y-44837098D01*
X77456430Y-44825438D01*
X77504340Y-44810905D01*
X77542476Y-44807148D01*
X77585820Y-44797936D01*
X77636016Y-44797936D01*
X77680000Y-44793604D01*
X77723983Y-44797936D01*
G37*
G36*
X80263983Y-44797936D02*
G01*
X80314180Y-44797936D01*
X80357524Y-44807149D01*
X80395659Y-44810905D01*
X80443566Y-44825437D01*
X80498424Y-44837098D01*
X80533530Y-44852728D01*
X80564566Y-44862143D01*
X80613884Y-44888504D01*
X80670500Y-44913711D01*
X80696822Y-44932835D01*
X80720232Y-44945348D01*
X80767988Y-44984540D01*
X80822887Y-45024427D01*
X80840711Y-45044223D01*
X80856675Y-45057324D01*
X80899572Y-45109594D01*
X80948924Y-45164405D01*
X80959292Y-45182363D01*
X80968651Y-45193767D01*
X81003273Y-45258542D01*
X81043104Y-45327530D01*
X81047685Y-45341630D01*
X81051856Y-45349433D01*
X81074852Y-45425242D01*
X81101311Y-45506672D01*
X81102242Y-45515532D01*
X81103094Y-45518340D01*
X81111384Y-45602513D01*
X81121000Y-45694000D01*
X81111383Y-45785494D01*
X81103094Y-45869659D01*
X81102242Y-45872466D01*
X81101311Y-45881328D01*
X81074848Y-45962771D01*
X81051856Y-46038566D01*
X81047686Y-46046366D01*
X81043104Y-46060470D01*
X81003266Y-46129470D01*
X80968651Y-46194232D01*
X80959294Y-46205633D01*
X80948924Y-46223595D01*
X80899563Y-46278415D01*
X80856675Y-46330675D01*
X80840714Y-46343773D01*
X80822887Y-46363573D01*
X80767977Y-46403467D01*
X80720232Y-46442651D01*
X80696827Y-46455161D01*
X80670500Y-46474289D01*
X80613873Y-46499500D01*
X80564566Y-46525856D01*
X80533537Y-46535268D01*
X80498424Y-46550902D01*
X80443555Y-46562564D01*
X80395659Y-46577094D01*
X80357532Y-46580849D01*
X80314180Y-46590064D01*
X80263973Y-46590064D01*
X80220000Y-46594395D01*
X80176027Y-46590064D01*
X80125820Y-46590064D01*
X80082467Y-46580849D01*
X80044340Y-46577094D01*
X79996441Y-46562563D01*
X79941576Y-46550902D01*
X79906464Y-46535269D01*
X79875433Y-46525856D01*
X79826120Y-46499498D01*
X79769500Y-46474289D01*
X79743175Y-46455163D01*
X79719767Y-46442651D01*
X79672013Y-46403460D01*
X79617113Y-46363573D01*
X79599287Y-46343776D01*
X79583324Y-46330675D01*
X79540425Y-46278402D01*
X79491076Y-46223595D01*
X79480708Y-46205637D01*
X79471348Y-46194232D01*
X79436719Y-46129447D01*
X79396896Y-46060470D01*
X79392315Y-46046371D01*
X79388143Y-46038566D01*
X79365136Y-45962725D01*
X79338689Y-45881328D01*
X79337758Y-45872471D01*
X79336905Y-45869659D01*
X79328600Y-45785342D01*
X79319000Y-45694000D01*
X79328599Y-45602664D01*
X79336905Y-45518340D01*
X79337758Y-45515527D01*
X79338689Y-45506672D01*
X79365132Y-45425288D01*
X79388143Y-45349433D01*
X79392315Y-45341626D01*
X79396896Y-45327530D01*
X79436712Y-45258565D01*
X79471348Y-45193767D01*
X79480710Y-45182359D01*
X79491076Y-45164405D01*
X79540416Y-45109607D01*
X79583324Y-45057324D01*
X79599291Y-45044219D01*
X79617113Y-45024427D01*
X79672002Y-44984546D01*
X79719767Y-44945348D01*
X79743180Y-44932833D01*
X79769500Y-44913711D01*
X79826109Y-44888506D01*
X79875433Y-44862143D01*
X79906471Y-44852727D01*
X79941576Y-44837098D01*
X79996430Y-44825438D01*
X80044340Y-44810905D01*
X80082476Y-44807148D01*
X80125820Y-44797936D01*
X80176016Y-44797936D01*
X80220000Y-44793604D01*
X80263983Y-44797936D01*
G37*
G36*
X82803983Y-44797936D02*
G01*
X82854180Y-44797936D01*
X82897524Y-44807149D01*
X82935659Y-44810905D01*
X82983566Y-44825437D01*
X83038424Y-44837098D01*
X83073530Y-44852728D01*
X83104566Y-44862143D01*
X83153884Y-44888504D01*
X83210500Y-44913711D01*
X83236822Y-44932835D01*
X83260232Y-44945348D01*
X83307988Y-44984540D01*
X83362887Y-45024427D01*
X83380711Y-45044223D01*
X83396675Y-45057324D01*
X83439572Y-45109594D01*
X83488924Y-45164405D01*
X83499292Y-45182363D01*
X83508651Y-45193767D01*
X83543273Y-45258542D01*
X83583104Y-45327530D01*
X83587685Y-45341630D01*
X83591856Y-45349433D01*
X83614852Y-45425242D01*
X83641311Y-45506672D01*
X83642242Y-45515532D01*
X83643094Y-45518340D01*
X83651384Y-45602513D01*
X83661000Y-45694000D01*
X83651383Y-45785494D01*
X83643094Y-45869659D01*
X83642242Y-45872466D01*
X83641311Y-45881328D01*
X83614848Y-45962771D01*
X83591856Y-46038566D01*
X83587686Y-46046366D01*
X83583104Y-46060470D01*
X83543266Y-46129470D01*
X83508651Y-46194232D01*
X83499294Y-46205633D01*
X83488924Y-46223595D01*
X83439563Y-46278415D01*
X83396675Y-46330675D01*
X83380714Y-46343773D01*
X83362887Y-46363573D01*
X83307977Y-46403467D01*
X83260232Y-46442651D01*
X83236827Y-46455161D01*
X83210500Y-46474289D01*
X83153873Y-46499500D01*
X83104566Y-46525856D01*
X83073537Y-46535268D01*
X83038424Y-46550902D01*
X82983555Y-46562564D01*
X82935659Y-46577094D01*
X82897532Y-46580849D01*
X82854180Y-46590064D01*
X82803973Y-46590064D01*
X82760000Y-46594395D01*
X82716027Y-46590064D01*
X82665820Y-46590064D01*
X82622467Y-46580849D01*
X82584340Y-46577094D01*
X82536441Y-46562563D01*
X82481576Y-46550902D01*
X82446464Y-46535269D01*
X82415433Y-46525856D01*
X82366120Y-46499498D01*
X82309500Y-46474289D01*
X82283175Y-46455163D01*
X82259767Y-46442651D01*
X82212013Y-46403460D01*
X82157113Y-46363573D01*
X82139287Y-46343776D01*
X82123324Y-46330675D01*
X82080425Y-46278402D01*
X82031076Y-46223595D01*
X82020708Y-46205637D01*
X82011348Y-46194232D01*
X81976719Y-46129447D01*
X81936896Y-46060470D01*
X81932315Y-46046371D01*
X81928143Y-46038566D01*
X81905136Y-45962725D01*
X81878689Y-45881328D01*
X81877758Y-45872471D01*
X81876905Y-45869659D01*
X81868600Y-45785342D01*
X81859000Y-45694000D01*
X81868599Y-45602664D01*
X81876905Y-45518340D01*
X81877758Y-45515527D01*
X81878689Y-45506672D01*
X81905132Y-45425288D01*
X81928143Y-45349433D01*
X81932315Y-45341626D01*
X81936896Y-45327530D01*
X81976712Y-45258565D01*
X82011348Y-45193767D01*
X82020710Y-45182359D01*
X82031076Y-45164405D01*
X82080416Y-45109607D01*
X82123324Y-45057324D01*
X82139291Y-45044219D01*
X82157113Y-45024427D01*
X82212002Y-44984546D01*
X82259767Y-44945348D01*
X82283180Y-44932833D01*
X82309500Y-44913711D01*
X82366109Y-44888506D01*
X82415433Y-44862143D01*
X82446471Y-44852727D01*
X82481576Y-44837098D01*
X82536430Y-44825438D01*
X82584340Y-44810905D01*
X82622476Y-44807148D01*
X82665820Y-44797936D01*
X82716016Y-44797936D01*
X82760000Y-44793604D01*
X82803983Y-44797936D01*
G37*
G36*
X85343983Y-44797936D02*
G01*
X85394180Y-44797936D01*
X85437524Y-44807149D01*
X85475659Y-44810905D01*
X85523566Y-44825437D01*
X85578424Y-44837098D01*
X85613530Y-44852728D01*
X85644566Y-44862143D01*
X85693884Y-44888504D01*
X85750500Y-44913711D01*
X85776822Y-44932835D01*
X85800232Y-44945348D01*
X85847988Y-44984540D01*
X85902887Y-45024427D01*
X85920711Y-45044223D01*
X85936675Y-45057324D01*
X85979572Y-45109594D01*
X86028924Y-45164405D01*
X86039292Y-45182363D01*
X86048651Y-45193767D01*
X86083273Y-45258542D01*
X86123104Y-45327530D01*
X86127685Y-45341630D01*
X86131856Y-45349433D01*
X86154852Y-45425242D01*
X86181311Y-45506672D01*
X86182242Y-45515532D01*
X86183094Y-45518340D01*
X86191384Y-45602513D01*
X86201000Y-45694000D01*
X86191383Y-45785494D01*
X86183094Y-45869659D01*
X86182242Y-45872466D01*
X86181311Y-45881328D01*
X86154848Y-45962771D01*
X86131856Y-46038566D01*
X86127686Y-46046366D01*
X86123104Y-46060470D01*
X86083266Y-46129470D01*
X86048651Y-46194232D01*
X86039294Y-46205633D01*
X86028924Y-46223595D01*
X85979563Y-46278415D01*
X85936675Y-46330675D01*
X85920714Y-46343773D01*
X85902887Y-46363573D01*
X85847977Y-46403467D01*
X85800232Y-46442651D01*
X85776827Y-46455161D01*
X85750500Y-46474289D01*
X85693873Y-46499500D01*
X85644566Y-46525856D01*
X85613537Y-46535268D01*
X85578424Y-46550902D01*
X85523555Y-46562564D01*
X85475659Y-46577094D01*
X85437532Y-46580849D01*
X85394180Y-46590064D01*
X85343973Y-46590064D01*
X85300000Y-46594395D01*
X85256027Y-46590064D01*
X85205820Y-46590064D01*
X85162467Y-46580849D01*
X85124340Y-46577094D01*
X85076441Y-46562563D01*
X85021576Y-46550902D01*
X84986464Y-46535269D01*
X84955433Y-46525856D01*
X84906120Y-46499498D01*
X84849500Y-46474289D01*
X84823175Y-46455163D01*
X84799767Y-46442651D01*
X84752013Y-46403460D01*
X84697113Y-46363573D01*
X84679287Y-46343776D01*
X84663324Y-46330675D01*
X84620425Y-46278402D01*
X84571076Y-46223595D01*
X84560708Y-46205637D01*
X84551348Y-46194232D01*
X84516719Y-46129447D01*
X84476896Y-46060470D01*
X84472315Y-46046371D01*
X84468143Y-46038566D01*
X84445136Y-45962725D01*
X84418689Y-45881328D01*
X84417758Y-45872471D01*
X84416905Y-45869659D01*
X84408600Y-45785342D01*
X84399000Y-45694000D01*
X84408599Y-45602664D01*
X84416905Y-45518340D01*
X84417758Y-45515527D01*
X84418689Y-45506672D01*
X84445132Y-45425288D01*
X84468143Y-45349433D01*
X84472315Y-45341626D01*
X84476896Y-45327530D01*
X84516712Y-45258565D01*
X84551348Y-45193767D01*
X84560710Y-45182359D01*
X84571076Y-45164405D01*
X84620416Y-45109607D01*
X84663324Y-45057324D01*
X84679291Y-45044219D01*
X84697113Y-45024427D01*
X84752002Y-44984546D01*
X84799767Y-44945348D01*
X84823180Y-44932833D01*
X84849500Y-44913711D01*
X84906109Y-44888506D01*
X84955433Y-44862143D01*
X84986471Y-44852727D01*
X85021576Y-44837098D01*
X85076430Y-44825438D01*
X85124340Y-44810905D01*
X85162476Y-44807148D01*
X85205820Y-44797936D01*
X85256016Y-44797936D01*
X85300000Y-44793604D01*
X85343983Y-44797936D01*
G37*
G36*
X71019517Y-40862882D02*
G01*
X71036062Y-40873938D01*
X71047118Y-40890483D01*
X71051000Y-40910000D01*
X71051000Y-42610000D01*
X71047118Y-42629517D01*
X71036062Y-42646062D01*
X71019517Y-42657118D01*
X71000000Y-42661000D01*
X69300000Y-42661000D01*
X69280483Y-42657118D01*
X69263938Y-42646062D01*
X69252882Y-42629517D01*
X69249000Y-42610000D01*
X69249000Y-40910000D01*
X69252882Y-40890483D01*
X69263938Y-40873938D01*
X69280483Y-40862882D01*
X69300000Y-40859000D01*
X71000000Y-40859000D01*
X71019517Y-40862882D01*
G37*
G36*
X73669517Y-40862882D02*
G01*
X73686062Y-40873938D01*
X73697118Y-40890483D01*
X73701000Y-40910000D01*
X73701000Y-42610000D01*
X73697118Y-42629517D01*
X73686062Y-42646062D01*
X73669517Y-42657118D01*
X73650000Y-42661000D01*
X71950000Y-42661000D01*
X71930483Y-42657118D01*
X71913938Y-42646062D01*
X71902882Y-42629517D01*
X71899000Y-42610000D01*
X71899000Y-40910000D01*
X71902882Y-40890483D01*
X71913938Y-40873938D01*
X71930483Y-40862882D01*
X71950000Y-40859000D01*
X73650000Y-40859000D01*
X73669517Y-40862882D01*
G37*
G36*
X75383983Y-40863936D02*
G01*
X75434180Y-40863936D01*
X75477524Y-40873149D01*
X75515659Y-40876905D01*
X75563566Y-40891437D01*
X75618424Y-40903098D01*
X75653530Y-40918728D01*
X75684566Y-40928143D01*
X75733884Y-40954504D01*
X75790500Y-40979711D01*
X75816822Y-40998835D01*
X75840232Y-41011348D01*
X75887988Y-41050540D01*
X75942887Y-41090427D01*
X75960711Y-41110223D01*
X75976675Y-41123324D01*
X76019572Y-41175594D01*
X76068924Y-41230405D01*
X76079292Y-41248363D01*
X76088651Y-41259767D01*
X76123273Y-41324542D01*
X76163104Y-41393530D01*
X76167685Y-41407630D01*
X76171856Y-41415433D01*
X76194852Y-41491242D01*
X76221311Y-41572672D01*
X76222242Y-41581532D01*
X76223094Y-41584340D01*
X76231384Y-41668513D01*
X76241000Y-41760000D01*
X76231383Y-41851494D01*
X76223094Y-41935659D01*
X76222242Y-41938466D01*
X76221311Y-41947328D01*
X76194848Y-42028771D01*
X76171856Y-42104566D01*
X76167686Y-42112366D01*
X76163104Y-42126470D01*
X76123266Y-42195470D01*
X76088651Y-42260232D01*
X76079294Y-42271633D01*
X76068924Y-42289595D01*
X76019563Y-42344415D01*
X75976675Y-42396675D01*
X75960714Y-42409773D01*
X75942887Y-42429573D01*
X75887977Y-42469467D01*
X75840232Y-42508651D01*
X75816827Y-42521161D01*
X75790500Y-42540289D01*
X75733873Y-42565500D01*
X75684566Y-42591856D01*
X75653537Y-42601268D01*
X75618424Y-42616902D01*
X75563555Y-42628564D01*
X75515659Y-42643094D01*
X75477532Y-42646849D01*
X75434180Y-42656064D01*
X75383973Y-42656064D01*
X75340000Y-42660395D01*
X75296027Y-42656064D01*
X75245820Y-42656064D01*
X75202467Y-42646849D01*
X75164340Y-42643094D01*
X75116441Y-42628563D01*
X75061576Y-42616902D01*
X75026464Y-42601269D01*
X74995433Y-42591856D01*
X74946120Y-42565498D01*
X74889500Y-42540289D01*
X74863175Y-42521163D01*
X74839767Y-42508651D01*
X74792013Y-42469460D01*
X74737113Y-42429573D01*
X74719287Y-42409776D01*
X74703324Y-42396675D01*
X74660425Y-42344402D01*
X74611076Y-42289595D01*
X74600708Y-42271637D01*
X74591348Y-42260232D01*
X74556719Y-42195447D01*
X74516896Y-42126470D01*
X74512315Y-42112371D01*
X74508143Y-42104566D01*
X74485136Y-42028725D01*
X74458689Y-41947328D01*
X74457758Y-41938471D01*
X74456905Y-41935659D01*
X74448600Y-41851342D01*
X74439000Y-41760000D01*
X74448599Y-41668664D01*
X74456905Y-41584340D01*
X74457758Y-41581527D01*
X74458689Y-41572672D01*
X74485132Y-41491288D01*
X74508143Y-41415433D01*
X74512315Y-41407626D01*
X74516896Y-41393530D01*
X74556712Y-41324565D01*
X74591348Y-41259767D01*
X74600710Y-41248359D01*
X74611076Y-41230405D01*
X74660416Y-41175607D01*
X74703324Y-41123324D01*
X74719291Y-41110219D01*
X74737113Y-41090427D01*
X74792002Y-41050546D01*
X74839767Y-41011348D01*
X74863180Y-40998833D01*
X74889500Y-40979711D01*
X74946109Y-40954506D01*
X74995433Y-40928143D01*
X75026471Y-40918727D01*
X75061576Y-40903098D01*
X75116430Y-40891438D01*
X75164340Y-40876905D01*
X75202476Y-40873148D01*
X75245820Y-40863936D01*
X75296016Y-40863936D01*
X75340000Y-40859604D01*
X75383983Y-40863936D01*
G37*
G36*
X77923983Y-40863936D02*
G01*
X77974180Y-40863936D01*
X78017524Y-40873149D01*
X78055659Y-40876905D01*
X78103566Y-40891437D01*
X78158424Y-40903098D01*
X78193530Y-40918728D01*
X78224566Y-40928143D01*
X78273884Y-40954504D01*
X78330500Y-40979711D01*
X78356822Y-40998835D01*
X78380232Y-41011348D01*
X78427988Y-41050540D01*
X78482887Y-41090427D01*
X78500711Y-41110223D01*
X78516675Y-41123324D01*
X78559572Y-41175594D01*
X78608924Y-41230405D01*
X78619292Y-41248363D01*
X78628651Y-41259767D01*
X78663273Y-41324542D01*
X78703104Y-41393530D01*
X78707685Y-41407630D01*
X78711856Y-41415433D01*
X78734852Y-41491242D01*
X78761311Y-41572672D01*
X78762242Y-41581532D01*
X78763094Y-41584340D01*
X78771384Y-41668513D01*
X78781000Y-41760000D01*
X78771383Y-41851494D01*
X78763094Y-41935659D01*
X78762242Y-41938466D01*
X78761311Y-41947328D01*
X78734848Y-42028771D01*
X78711856Y-42104566D01*
X78707686Y-42112366D01*
X78703104Y-42126470D01*
X78663266Y-42195470D01*
X78628651Y-42260232D01*
X78619294Y-42271633D01*
X78608924Y-42289595D01*
X78559563Y-42344415D01*
X78516675Y-42396675D01*
X78500714Y-42409773D01*
X78482887Y-42429573D01*
X78427977Y-42469467D01*
X78380232Y-42508651D01*
X78356827Y-42521161D01*
X78330500Y-42540289D01*
X78273873Y-42565500D01*
X78224566Y-42591856D01*
X78193537Y-42601268D01*
X78158424Y-42616902D01*
X78103555Y-42628564D01*
X78055659Y-42643094D01*
X78017532Y-42646849D01*
X77974180Y-42656064D01*
X77923973Y-42656064D01*
X77880000Y-42660395D01*
X77836027Y-42656064D01*
X77785820Y-42656064D01*
X77742467Y-42646849D01*
X77704340Y-42643094D01*
X77656441Y-42628563D01*
X77601576Y-42616902D01*
X77566464Y-42601269D01*
X77535433Y-42591856D01*
X77486120Y-42565498D01*
X77429500Y-42540289D01*
X77403175Y-42521163D01*
X77379767Y-42508651D01*
X77332013Y-42469460D01*
X77277113Y-42429573D01*
X77259287Y-42409776D01*
X77243324Y-42396675D01*
X77200425Y-42344402D01*
X77151076Y-42289595D01*
X77140708Y-42271637D01*
X77131348Y-42260232D01*
X77096719Y-42195447D01*
X77056896Y-42126470D01*
X77052315Y-42112371D01*
X77048143Y-42104566D01*
X77025136Y-42028725D01*
X76998689Y-41947328D01*
X76997758Y-41938471D01*
X76996905Y-41935659D01*
X76988600Y-41851342D01*
X76979000Y-41760000D01*
X76988599Y-41668664D01*
X76996905Y-41584340D01*
X76997758Y-41581527D01*
X76998689Y-41572672D01*
X77025132Y-41491288D01*
X77048143Y-41415433D01*
X77052315Y-41407626D01*
X77056896Y-41393530D01*
X77096712Y-41324565D01*
X77131348Y-41259767D01*
X77140710Y-41248359D01*
X77151076Y-41230405D01*
X77200416Y-41175607D01*
X77243324Y-41123324D01*
X77259291Y-41110219D01*
X77277113Y-41090427D01*
X77332002Y-41050546D01*
X77379767Y-41011348D01*
X77403180Y-40998833D01*
X77429500Y-40979711D01*
X77486109Y-40954506D01*
X77535433Y-40928143D01*
X77566471Y-40918727D01*
X77601576Y-40903098D01*
X77656430Y-40891438D01*
X77704340Y-40876905D01*
X77742476Y-40873148D01*
X77785820Y-40863936D01*
X77836016Y-40863936D01*
X77880000Y-40859604D01*
X77923983Y-40863936D01*
G37*
G36*
X70193983Y-38323936D02*
G01*
X70244180Y-38323936D01*
X70287524Y-38333149D01*
X70325659Y-38336905D01*
X70373566Y-38351437D01*
X70428424Y-38363098D01*
X70463530Y-38378728D01*
X70494566Y-38388143D01*
X70543884Y-38414504D01*
X70600500Y-38439711D01*
X70626822Y-38458835D01*
X70650232Y-38471348D01*
X70697988Y-38510540D01*
X70752887Y-38550427D01*
X70770711Y-38570223D01*
X70786675Y-38583324D01*
X70829572Y-38635594D01*
X70878924Y-38690405D01*
X70889292Y-38708363D01*
X70898651Y-38719767D01*
X70933273Y-38784542D01*
X70973104Y-38853530D01*
X70977685Y-38867630D01*
X70981856Y-38875433D01*
X71004852Y-38951242D01*
X71031311Y-39032672D01*
X71032242Y-39041532D01*
X71033094Y-39044340D01*
X71041385Y-39128520D01*
X71051000Y-39220000D01*
X71041382Y-39311501D01*
X71033094Y-39395659D01*
X71032242Y-39398466D01*
X71031311Y-39407328D01*
X71004848Y-39488771D01*
X70981856Y-39564566D01*
X70977686Y-39572366D01*
X70973104Y-39586470D01*
X70933266Y-39655470D01*
X70898651Y-39720232D01*
X70889294Y-39731633D01*
X70878924Y-39749595D01*
X70829563Y-39804415D01*
X70786675Y-39856675D01*
X70770714Y-39869773D01*
X70752887Y-39889573D01*
X70697977Y-39929467D01*
X70650232Y-39968651D01*
X70626827Y-39981161D01*
X70600500Y-40000289D01*
X70543873Y-40025500D01*
X70494566Y-40051856D01*
X70463537Y-40061268D01*
X70428424Y-40076902D01*
X70373555Y-40088564D01*
X70325659Y-40103094D01*
X70287533Y-40106849D01*
X70244180Y-40116064D01*
X70193972Y-40116064D01*
X70149999Y-40120395D01*
X70106026Y-40116064D01*
X70055820Y-40116064D01*
X70012467Y-40106849D01*
X69974340Y-40103094D01*
X69926441Y-40088563D01*
X69871576Y-40076902D01*
X69836464Y-40061269D01*
X69805433Y-40051856D01*
X69756120Y-40025498D01*
X69699500Y-40000289D01*
X69673175Y-39981163D01*
X69649767Y-39968651D01*
X69602013Y-39929460D01*
X69547113Y-39889573D01*
X69529287Y-39869776D01*
X69513324Y-39856675D01*
X69470425Y-39804402D01*
X69421076Y-39749595D01*
X69410708Y-39731637D01*
X69401348Y-39720232D01*
X69366719Y-39655447D01*
X69326896Y-39586470D01*
X69322315Y-39572371D01*
X69318143Y-39564566D01*
X69295136Y-39488725D01*
X69268689Y-39407328D01*
X69267758Y-39398471D01*
X69266905Y-39395659D01*
X69258601Y-39311349D01*
X69249000Y-39220000D01*
X69258598Y-39128672D01*
X69266905Y-39044340D01*
X69267758Y-39041527D01*
X69268689Y-39032672D01*
X69295132Y-38951288D01*
X69318143Y-38875433D01*
X69322315Y-38867626D01*
X69326896Y-38853530D01*
X69366712Y-38784565D01*
X69401348Y-38719767D01*
X69410710Y-38708359D01*
X69421076Y-38690405D01*
X69470416Y-38635607D01*
X69513324Y-38583324D01*
X69529291Y-38570219D01*
X69547113Y-38550427D01*
X69602002Y-38510546D01*
X69649767Y-38471348D01*
X69673180Y-38458833D01*
X69699500Y-38439711D01*
X69756109Y-38414506D01*
X69805433Y-38388143D01*
X69836471Y-38378727D01*
X69871576Y-38363098D01*
X69926430Y-38351438D01*
X69974340Y-38336905D01*
X70012476Y-38333148D01*
X70055820Y-38323936D01*
X70106016Y-38323936D01*
X70149999Y-38319604D01*
X70193983Y-38323936D01*
G37*
G36*
X72843983Y-38323936D02*
G01*
X72894180Y-38323936D01*
X72937524Y-38333149D01*
X72975659Y-38336905D01*
X73023566Y-38351437D01*
X73078424Y-38363098D01*
X73113530Y-38378728D01*
X73144566Y-38388143D01*
X73193884Y-38414504D01*
X73250500Y-38439711D01*
X73276822Y-38458835D01*
X73300232Y-38471348D01*
X73347988Y-38510540D01*
X73402887Y-38550427D01*
X73420711Y-38570223D01*
X73436675Y-38583324D01*
X73479572Y-38635594D01*
X73528924Y-38690405D01*
X73539292Y-38708363D01*
X73548651Y-38719767D01*
X73583273Y-38784542D01*
X73623104Y-38853530D01*
X73627685Y-38867630D01*
X73631856Y-38875433D01*
X73654852Y-38951242D01*
X73681311Y-39032672D01*
X73682242Y-39041532D01*
X73683094Y-39044340D01*
X73691385Y-39128520D01*
X73701000Y-39220000D01*
X73691382Y-39311501D01*
X73683094Y-39395659D01*
X73682242Y-39398466D01*
X73681311Y-39407328D01*
X73654848Y-39488771D01*
X73631856Y-39564566D01*
X73627686Y-39572366D01*
X73623104Y-39586470D01*
X73583266Y-39655470D01*
X73548651Y-39720232D01*
X73539294Y-39731633D01*
X73528924Y-39749595D01*
X73479563Y-39804415D01*
X73436675Y-39856675D01*
X73420714Y-39869773D01*
X73402887Y-39889573D01*
X73347977Y-39929467D01*
X73300232Y-39968651D01*
X73276827Y-39981161D01*
X73250500Y-40000289D01*
X73193873Y-40025500D01*
X73144566Y-40051856D01*
X73113537Y-40061268D01*
X73078424Y-40076902D01*
X73023555Y-40088564D01*
X72975659Y-40103094D01*
X72937532Y-40106849D01*
X72894180Y-40116064D01*
X72843973Y-40116064D01*
X72800000Y-40120395D01*
X72756027Y-40116064D01*
X72705820Y-40116064D01*
X72662467Y-40106849D01*
X72624340Y-40103094D01*
X72576441Y-40088563D01*
X72521576Y-40076902D01*
X72486464Y-40061269D01*
X72455433Y-40051856D01*
X72406120Y-40025498D01*
X72349500Y-40000289D01*
X72323175Y-39981163D01*
X72299767Y-39968651D01*
X72252013Y-39929460D01*
X72197113Y-39889573D01*
X72179287Y-39869776D01*
X72163324Y-39856675D01*
X72120425Y-39804402D01*
X72071076Y-39749595D01*
X72060708Y-39731637D01*
X72051348Y-39720232D01*
X72016719Y-39655447D01*
X71976896Y-39586470D01*
X71972315Y-39572371D01*
X71968143Y-39564566D01*
X71945136Y-39488725D01*
X71918689Y-39407328D01*
X71917758Y-39398471D01*
X71916905Y-39395659D01*
X71908601Y-39311349D01*
X71899000Y-39220000D01*
X71908598Y-39128672D01*
X71916905Y-39044340D01*
X71917758Y-39041527D01*
X71918689Y-39032672D01*
X71945132Y-38951288D01*
X71968143Y-38875433D01*
X71972315Y-38867626D01*
X71976896Y-38853530D01*
X72016712Y-38784565D01*
X72051348Y-38719767D01*
X72060710Y-38708359D01*
X72071076Y-38690405D01*
X72120416Y-38635607D01*
X72163324Y-38583324D01*
X72179291Y-38570219D01*
X72197113Y-38550427D01*
X72252002Y-38510546D01*
X72299767Y-38471348D01*
X72323180Y-38458833D01*
X72349500Y-38439711D01*
X72406109Y-38414506D01*
X72455433Y-38388143D01*
X72486471Y-38378727D01*
X72521576Y-38363098D01*
X72576430Y-38351438D01*
X72624340Y-38336905D01*
X72662476Y-38333148D01*
X72705820Y-38323936D01*
X72756016Y-38323936D01*
X72800000Y-38319604D01*
X72843983Y-38323936D01*
G37*
G36*
X75383983Y-38323936D02*
G01*
X75434180Y-38323936D01*
X75477524Y-38333149D01*
X75515659Y-38336905D01*
X75563566Y-38351437D01*
X75618424Y-38363098D01*
X75653530Y-38378728D01*
X75684566Y-38388143D01*
X75733884Y-38414504D01*
X75790500Y-38439711D01*
X75816822Y-38458835D01*
X75840232Y-38471348D01*
X75887988Y-38510540D01*
X75942887Y-38550427D01*
X75960711Y-38570223D01*
X75976675Y-38583324D01*
X76019572Y-38635594D01*
X76068924Y-38690405D01*
X76079292Y-38708363D01*
X76088651Y-38719767D01*
X76123273Y-38784542D01*
X76163104Y-38853530D01*
X76167685Y-38867630D01*
X76171856Y-38875433D01*
X76194852Y-38951242D01*
X76221311Y-39032672D01*
X76222242Y-39041532D01*
X76223094Y-39044340D01*
X76231385Y-39128520D01*
X76241000Y-39220000D01*
X76231382Y-39311501D01*
X76223094Y-39395659D01*
X76222242Y-39398466D01*
X76221311Y-39407328D01*
X76194848Y-39488771D01*
X76171856Y-39564566D01*
X76167686Y-39572366D01*
X76163104Y-39586470D01*
X76123266Y-39655470D01*
X76088651Y-39720232D01*
X76079294Y-39731633D01*
X76068924Y-39749595D01*
X76019563Y-39804415D01*
X75976675Y-39856675D01*
X75960714Y-39869773D01*
X75942887Y-39889573D01*
X75887977Y-39929467D01*
X75840232Y-39968651D01*
X75816827Y-39981161D01*
X75790500Y-40000289D01*
X75733873Y-40025500D01*
X75684566Y-40051856D01*
X75653537Y-40061268D01*
X75618424Y-40076902D01*
X75563555Y-40088564D01*
X75515659Y-40103094D01*
X75477532Y-40106849D01*
X75434180Y-40116064D01*
X75383973Y-40116064D01*
X75340000Y-40120395D01*
X75296027Y-40116064D01*
X75245820Y-40116064D01*
X75202467Y-40106849D01*
X75164340Y-40103094D01*
X75116441Y-40088563D01*
X75061576Y-40076902D01*
X75026464Y-40061269D01*
X74995433Y-40051856D01*
X74946120Y-40025498D01*
X74889500Y-40000289D01*
X74863175Y-39981163D01*
X74839767Y-39968651D01*
X74792013Y-39929460D01*
X74737113Y-39889573D01*
X74719287Y-39869776D01*
X74703324Y-39856675D01*
X74660425Y-39804402D01*
X74611076Y-39749595D01*
X74600708Y-39731637D01*
X74591348Y-39720232D01*
X74556719Y-39655447D01*
X74516896Y-39586470D01*
X74512315Y-39572371D01*
X74508143Y-39564566D01*
X74485136Y-39488725D01*
X74458689Y-39407328D01*
X74457758Y-39398471D01*
X74456905Y-39395659D01*
X74448600Y-39311342D01*
X74439000Y-39220000D01*
X74448599Y-39128664D01*
X74456905Y-39044340D01*
X74457758Y-39041527D01*
X74458689Y-39032672D01*
X74485132Y-38951288D01*
X74508143Y-38875433D01*
X74512315Y-38867626D01*
X74516896Y-38853530D01*
X74556712Y-38784565D01*
X74591348Y-38719767D01*
X74600710Y-38708359D01*
X74611076Y-38690405D01*
X74660416Y-38635607D01*
X74703324Y-38583324D01*
X74719291Y-38570219D01*
X74737113Y-38550427D01*
X74792002Y-38510546D01*
X74839767Y-38471348D01*
X74863180Y-38458833D01*
X74889500Y-38439711D01*
X74946109Y-38414506D01*
X74995433Y-38388143D01*
X75026471Y-38378727D01*
X75061576Y-38363098D01*
X75116430Y-38351438D01*
X75164340Y-38336905D01*
X75202476Y-38333148D01*
X75245820Y-38323936D01*
X75296016Y-38323936D01*
X75340000Y-38319604D01*
X75383983Y-38323936D01*
G37*
G36*
X77923983Y-38323936D02*
G01*
X77974180Y-38323936D01*
X78017524Y-38333149D01*
X78055659Y-38336905D01*
X78103566Y-38351437D01*
X78158424Y-38363098D01*
X78193530Y-38378728D01*
X78224566Y-38388143D01*
X78273884Y-38414504D01*
X78330500Y-38439711D01*
X78356822Y-38458835D01*
X78380232Y-38471348D01*
X78427988Y-38510540D01*
X78482887Y-38550427D01*
X78500711Y-38570223D01*
X78516675Y-38583324D01*
X78559572Y-38635594D01*
X78608924Y-38690405D01*
X78619292Y-38708363D01*
X78628651Y-38719767D01*
X78663273Y-38784542D01*
X78703104Y-38853530D01*
X78707685Y-38867630D01*
X78711856Y-38875433D01*
X78734852Y-38951242D01*
X78761311Y-39032672D01*
X78762242Y-39041532D01*
X78763094Y-39044340D01*
X78771384Y-39128513D01*
X78781000Y-39220000D01*
X78771383Y-39311494D01*
X78763094Y-39395659D01*
X78762242Y-39398466D01*
X78761311Y-39407328D01*
X78734848Y-39488771D01*
X78711856Y-39564566D01*
X78707686Y-39572366D01*
X78703104Y-39586470D01*
X78663266Y-39655470D01*
X78628651Y-39720232D01*
X78619294Y-39731633D01*
X78608924Y-39749595D01*
X78559563Y-39804415D01*
X78516675Y-39856675D01*
X78500714Y-39869773D01*
X78482887Y-39889573D01*
X78427977Y-39929467D01*
X78380232Y-39968651D01*
X78356827Y-39981161D01*
X78330500Y-40000289D01*
X78273873Y-40025500D01*
X78224566Y-40051856D01*
X78193537Y-40061268D01*
X78158424Y-40076902D01*
X78103555Y-40088564D01*
X78055659Y-40103094D01*
X78017532Y-40106849D01*
X77974180Y-40116064D01*
X77923973Y-40116064D01*
X77880000Y-40120395D01*
X77836027Y-40116064D01*
X77785820Y-40116064D01*
X77742467Y-40106849D01*
X77704340Y-40103094D01*
X77656441Y-40088563D01*
X77601576Y-40076902D01*
X77566464Y-40061269D01*
X77535433Y-40051856D01*
X77486120Y-40025498D01*
X77429500Y-40000289D01*
X77403175Y-39981163D01*
X77379767Y-39968651D01*
X77332013Y-39929460D01*
X77277113Y-39889573D01*
X77259287Y-39869776D01*
X77243324Y-39856675D01*
X77200425Y-39804402D01*
X77151076Y-39749595D01*
X77140708Y-39731637D01*
X77131348Y-39720232D01*
X77096719Y-39655447D01*
X77056896Y-39586470D01*
X77052315Y-39572371D01*
X77048143Y-39564566D01*
X77025136Y-39488725D01*
X76998689Y-39407328D01*
X76997758Y-39398471D01*
X76996905Y-39395659D01*
X76988600Y-39311342D01*
X76979000Y-39220000D01*
X76988599Y-39128664D01*
X76996905Y-39044340D01*
X76997758Y-39041527D01*
X76998689Y-39032672D01*
X77025132Y-38951288D01*
X77048143Y-38875433D01*
X77052315Y-38867626D01*
X77056896Y-38853530D01*
X77096712Y-38784565D01*
X77131348Y-38719767D01*
X77140710Y-38708359D01*
X77151076Y-38690405D01*
X77200416Y-38635607D01*
X77243324Y-38583324D01*
X77259291Y-38570219D01*
X77277113Y-38550427D01*
X77332002Y-38510546D01*
X77379767Y-38471348D01*
X77403180Y-38458833D01*
X77429500Y-38439711D01*
X77486109Y-38414506D01*
X77535433Y-38388143D01*
X77566471Y-38378727D01*
X77601576Y-38363098D01*
X77656430Y-38351438D01*
X77704340Y-38336905D01*
X77742476Y-38333148D01*
X77785820Y-38323936D01*
X77836016Y-38323936D01*
X77880000Y-38319604D01*
X77923983Y-38323936D01*
G37*
G36*
X58419517Y-34612882D02*
G01*
X58436062Y-34623938D01*
X58447118Y-34640483D01*
X58451000Y-34660000D01*
X58451000Y-36360000D01*
X58447118Y-36379517D01*
X58436062Y-36396062D01*
X58419517Y-36407118D01*
X58400000Y-36411000D01*
X56700000Y-36411000D01*
X56680483Y-36407118D01*
X56663938Y-36396062D01*
X56652882Y-36379517D01*
X56649000Y-36360000D01*
X56649000Y-34660000D01*
X56652882Y-34640483D01*
X56663938Y-34623938D01*
X56680483Y-34612882D01*
X56700000Y-34609000D01*
X58400000Y-34609000D01*
X58419517Y-34612882D01*
G37*
G36*
X73669517Y-34612882D02*
G01*
X73686062Y-34623938D01*
X73697118Y-34640483D01*
X73701000Y-34660000D01*
X73701000Y-36360000D01*
X73697118Y-36379517D01*
X73686062Y-36396062D01*
X73669517Y-36407118D01*
X73650000Y-36411000D01*
X71950000Y-36411000D01*
X71930483Y-36407118D01*
X71913938Y-36396062D01*
X71902882Y-36379517D01*
X71899000Y-36360000D01*
X71899000Y-34660000D01*
X71902882Y-34640483D01*
X71913938Y-34623938D01*
X71930483Y-34612882D01*
X71950000Y-34609000D01*
X73650000Y-34609000D01*
X73669517Y-34612882D01*
G37*
G36*
X81419517Y-34612882D02*
G01*
X81436062Y-34623938D01*
X81447118Y-34640483D01*
X81451000Y-34660000D01*
X81451000Y-36360000D01*
X81447118Y-36379517D01*
X81436062Y-36396062D01*
X81419517Y-36407118D01*
X81400000Y-36411000D01*
X79700000Y-36411000D01*
X79680483Y-36407118D01*
X79663938Y-36396062D01*
X79652882Y-36379517D01*
X79649000Y-36360000D01*
X79649000Y-34660000D01*
X79652882Y-34640483D01*
X79663938Y-34623938D01*
X79680483Y-34612882D01*
X79700000Y-34609000D01*
X81400000Y-34609000D01*
X81419517Y-34612882D01*
G37*
G36*
X60133983Y-34613936D02*
G01*
X60184180Y-34613936D01*
X60227524Y-34623149D01*
X60265659Y-34626905D01*
X60313566Y-34641437D01*
X60368424Y-34653098D01*
X60403530Y-34668728D01*
X60434566Y-34678143D01*
X60483884Y-34704504D01*
X60540500Y-34729711D01*
X60566822Y-34748835D01*
X60590232Y-34761348D01*
X60637988Y-34800540D01*
X60692887Y-34840427D01*
X60710711Y-34860223D01*
X60726675Y-34873324D01*
X60769572Y-34925594D01*
X60818924Y-34980405D01*
X60829292Y-34998363D01*
X60838651Y-35009767D01*
X60873273Y-35074542D01*
X60913104Y-35143530D01*
X60917685Y-35157630D01*
X60921856Y-35165433D01*
X60944852Y-35241242D01*
X60971311Y-35322672D01*
X60972242Y-35331532D01*
X60973094Y-35334340D01*
X60981385Y-35418520D01*
X60991000Y-35510000D01*
X60981382Y-35601501D01*
X60973094Y-35685659D01*
X60972242Y-35688466D01*
X60971311Y-35697328D01*
X60944848Y-35778771D01*
X60921856Y-35854566D01*
X60917686Y-35862366D01*
X60913104Y-35876470D01*
X60873266Y-35945470D01*
X60838651Y-36010232D01*
X60829294Y-36021633D01*
X60818924Y-36039595D01*
X60769563Y-36094415D01*
X60726675Y-36146675D01*
X60710714Y-36159773D01*
X60692887Y-36179573D01*
X60637977Y-36219467D01*
X60590232Y-36258651D01*
X60566827Y-36271161D01*
X60540500Y-36290289D01*
X60483873Y-36315500D01*
X60434566Y-36341856D01*
X60403537Y-36351268D01*
X60368424Y-36366902D01*
X60313555Y-36378564D01*
X60265659Y-36393094D01*
X60227533Y-36396849D01*
X60184180Y-36406064D01*
X60133972Y-36406064D01*
X60089999Y-36410395D01*
X60046026Y-36406064D01*
X59995820Y-36406064D01*
X59952467Y-36396849D01*
X59914340Y-36393094D01*
X59866441Y-36378563D01*
X59811576Y-36366902D01*
X59776464Y-36351269D01*
X59745433Y-36341856D01*
X59696120Y-36315498D01*
X59639500Y-36290289D01*
X59613175Y-36271163D01*
X59589767Y-36258651D01*
X59542013Y-36219460D01*
X59487113Y-36179573D01*
X59469287Y-36159776D01*
X59453324Y-36146675D01*
X59410425Y-36094402D01*
X59361076Y-36039595D01*
X59350708Y-36021637D01*
X59341348Y-36010232D01*
X59306719Y-35945447D01*
X59266896Y-35876470D01*
X59262315Y-35862371D01*
X59258143Y-35854566D01*
X59235136Y-35778725D01*
X59208689Y-35697328D01*
X59207758Y-35688471D01*
X59206905Y-35685659D01*
X59198600Y-35601342D01*
X59189000Y-35510000D01*
X59198599Y-35418664D01*
X59206905Y-35334340D01*
X59207758Y-35331527D01*
X59208689Y-35322672D01*
X59235132Y-35241288D01*
X59258143Y-35165433D01*
X59262315Y-35157626D01*
X59266896Y-35143530D01*
X59306712Y-35074565D01*
X59341348Y-35009767D01*
X59350710Y-34998359D01*
X59361076Y-34980405D01*
X59410416Y-34925607D01*
X59453324Y-34873324D01*
X59469291Y-34860219D01*
X59487113Y-34840427D01*
X59542002Y-34800546D01*
X59589767Y-34761348D01*
X59613180Y-34748833D01*
X59639500Y-34729711D01*
X59696109Y-34704506D01*
X59745433Y-34678143D01*
X59776471Y-34668727D01*
X59811576Y-34653098D01*
X59866430Y-34641438D01*
X59914340Y-34626905D01*
X59952476Y-34623148D01*
X59995820Y-34613936D01*
X60046016Y-34613936D01*
X60090000Y-34609604D01*
X60133983Y-34613936D01*
G37*
G36*
X62673983Y-34613936D02*
G01*
X62724180Y-34613936D01*
X62767524Y-34623149D01*
X62805659Y-34626905D01*
X62853566Y-34641437D01*
X62908424Y-34653098D01*
X62943530Y-34668728D01*
X62974566Y-34678143D01*
X63023884Y-34704504D01*
X63080500Y-34729711D01*
X63106822Y-34748835D01*
X63130232Y-34761348D01*
X63177988Y-34800540D01*
X63232887Y-34840427D01*
X63250711Y-34860223D01*
X63266675Y-34873324D01*
X63309572Y-34925594D01*
X63358924Y-34980405D01*
X63369292Y-34998363D01*
X63378651Y-35009767D01*
X63413273Y-35074542D01*
X63453104Y-35143530D01*
X63457685Y-35157630D01*
X63461856Y-35165433D01*
X63484852Y-35241242D01*
X63511311Y-35322672D01*
X63512242Y-35331532D01*
X63513094Y-35334340D01*
X63521384Y-35418513D01*
X63531000Y-35510000D01*
X63521383Y-35601494D01*
X63513094Y-35685659D01*
X63512242Y-35688466D01*
X63511311Y-35697328D01*
X63484848Y-35778771D01*
X63461856Y-35854566D01*
X63457686Y-35862366D01*
X63453104Y-35876470D01*
X63413266Y-35945470D01*
X63378651Y-36010232D01*
X63369294Y-36021633D01*
X63358924Y-36039595D01*
X63309563Y-36094415D01*
X63266675Y-36146675D01*
X63250714Y-36159773D01*
X63232887Y-36179573D01*
X63177977Y-36219467D01*
X63130232Y-36258651D01*
X63106827Y-36271161D01*
X63080500Y-36290289D01*
X63023873Y-36315500D01*
X62974566Y-36341856D01*
X62943537Y-36351268D01*
X62908424Y-36366902D01*
X62853555Y-36378564D01*
X62805659Y-36393094D01*
X62767532Y-36396849D01*
X62724180Y-36406064D01*
X62673973Y-36406064D01*
X62630000Y-36410395D01*
X62586027Y-36406064D01*
X62535820Y-36406064D01*
X62492467Y-36396849D01*
X62454340Y-36393094D01*
X62406441Y-36378563D01*
X62351576Y-36366902D01*
X62316464Y-36351269D01*
X62285433Y-36341856D01*
X62236120Y-36315498D01*
X62179500Y-36290289D01*
X62153175Y-36271163D01*
X62129767Y-36258651D01*
X62082013Y-36219460D01*
X62027113Y-36179573D01*
X62009287Y-36159776D01*
X61993324Y-36146675D01*
X61950425Y-36094402D01*
X61901076Y-36039595D01*
X61890708Y-36021637D01*
X61881348Y-36010232D01*
X61846719Y-35945447D01*
X61806896Y-35876470D01*
X61802315Y-35862371D01*
X61798143Y-35854566D01*
X61775136Y-35778725D01*
X61748689Y-35697328D01*
X61747758Y-35688471D01*
X61746905Y-35685659D01*
X61738600Y-35601342D01*
X61729000Y-35510000D01*
X61738599Y-35418664D01*
X61746905Y-35334340D01*
X61747758Y-35331527D01*
X61748689Y-35322672D01*
X61775132Y-35241288D01*
X61798143Y-35165433D01*
X61802315Y-35157626D01*
X61806896Y-35143530D01*
X61846712Y-35074565D01*
X61881348Y-35009767D01*
X61890710Y-34998359D01*
X61901076Y-34980405D01*
X61950416Y-34925607D01*
X61993324Y-34873324D01*
X62009291Y-34860219D01*
X62027113Y-34840427D01*
X62082002Y-34800546D01*
X62129767Y-34761348D01*
X62153180Y-34748833D01*
X62179500Y-34729711D01*
X62236109Y-34704506D01*
X62285433Y-34678143D01*
X62316471Y-34668727D01*
X62351576Y-34653098D01*
X62406430Y-34641438D01*
X62454340Y-34626905D01*
X62492476Y-34623148D01*
X62535820Y-34613936D01*
X62586016Y-34613936D01*
X62629999Y-34609604D01*
X62673983Y-34613936D01*
G37*
G36*
X65213983Y-34613936D02*
G01*
X65264180Y-34613936D01*
X65307524Y-34623149D01*
X65345659Y-34626905D01*
X65393566Y-34641437D01*
X65448424Y-34653098D01*
X65483530Y-34668728D01*
X65514566Y-34678143D01*
X65563884Y-34704504D01*
X65620500Y-34729711D01*
X65646822Y-34748835D01*
X65670232Y-34761348D01*
X65717988Y-34800540D01*
X65772887Y-34840427D01*
X65790711Y-34860223D01*
X65806675Y-34873324D01*
X65849572Y-34925594D01*
X65898924Y-34980405D01*
X65909292Y-34998363D01*
X65918651Y-35009767D01*
X65953273Y-35074542D01*
X65993104Y-35143530D01*
X65997685Y-35157630D01*
X66001856Y-35165433D01*
X66024852Y-35241242D01*
X66051311Y-35322672D01*
X66052242Y-35331532D01*
X66053094Y-35334340D01*
X66061384Y-35418513D01*
X66071000Y-35510000D01*
X66061383Y-35601494D01*
X66053094Y-35685659D01*
X66052242Y-35688466D01*
X66051311Y-35697328D01*
X66024848Y-35778771D01*
X66001856Y-35854566D01*
X65997686Y-35862366D01*
X65993104Y-35876470D01*
X65953266Y-35945470D01*
X65918651Y-36010232D01*
X65909294Y-36021633D01*
X65898924Y-36039595D01*
X65849563Y-36094415D01*
X65806675Y-36146675D01*
X65790714Y-36159773D01*
X65772887Y-36179573D01*
X65717977Y-36219467D01*
X65670232Y-36258651D01*
X65646827Y-36271161D01*
X65620500Y-36290289D01*
X65563873Y-36315500D01*
X65514566Y-36341856D01*
X65483537Y-36351268D01*
X65448424Y-36366902D01*
X65393555Y-36378564D01*
X65345659Y-36393094D01*
X65307533Y-36396849D01*
X65264180Y-36406064D01*
X65213972Y-36406064D01*
X65169999Y-36410395D01*
X65126026Y-36406064D01*
X65075820Y-36406064D01*
X65032467Y-36396849D01*
X64994340Y-36393094D01*
X64946441Y-36378563D01*
X64891576Y-36366902D01*
X64856464Y-36351269D01*
X64825433Y-36341856D01*
X64776120Y-36315498D01*
X64719500Y-36290289D01*
X64693175Y-36271163D01*
X64669767Y-36258651D01*
X64622013Y-36219460D01*
X64567113Y-36179573D01*
X64549287Y-36159776D01*
X64533324Y-36146675D01*
X64490425Y-36094402D01*
X64441076Y-36039595D01*
X64430708Y-36021637D01*
X64421348Y-36010232D01*
X64386719Y-35945447D01*
X64346896Y-35876470D01*
X64342315Y-35862371D01*
X64338143Y-35854566D01*
X64315136Y-35778725D01*
X64288689Y-35697328D01*
X64287758Y-35688471D01*
X64286905Y-35685659D01*
X64278601Y-35601349D01*
X64269000Y-35510000D01*
X64278598Y-35418672D01*
X64286905Y-35334340D01*
X64287758Y-35331527D01*
X64288689Y-35322672D01*
X64315132Y-35241288D01*
X64338143Y-35165433D01*
X64342315Y-35157626D01*
X64346896Y-35143530D01*
X64386712Y-35074565D01*
X64421348Y-35009767D01*
X64430710Y-34998359D01*
X64441076Y-34980405D01*
X64490416Y-34925607D01*
X64533324Y-34873324D01*
X64549291Y-34860219D01*
X64567113Y-34840427D01*
X64622002Y-34800546D01*
X64669767Y-34761348D01*
X64693180Y-34748833D01*
X64719500Y-34729711D01*
X64776109Y-34704506D01*
X64825433Y-34678143D01*
X64856471Y-34668727D01*
X64891576Y-34653098D01*
X64946430Y-34641438D01*
X64994340Y-34626905D01*
X65032476Y-34623148D01*
X65075820Y-34613936D01*
X65126016Y-34613936D01*
X65170000Y-34609604D01*
X65213983Y-34613936D01*
G37*
G36*
X67753983Y-34613936D02*
G01*
X67804180Y-34613936D01*
X67847524Y-34623149D01*
X67885659Y-34626905D01*
X67933566Y-34641437D01*
X67988424Y-34653098D01*
X68023530Y-34668728D01*
X68054566Y-34678143D01*
X68103884Y-34704504D01*
X68160500Y-34729711D01*
X68186822Y-34748835D01*
X68210232Y-34761348D01*
X68257988Y-34800540D01*
X68312887Y-34840427D01*
X68330711Y-34860223D01*
X68346675Y-34873324D01*
X68389572Y-34925594D01*
X68438924Y-34980405D01*
X68449292Y-34998363D01*
X68458651Y-35009767D01*
X68493273Y-35074542D01*
X68533104Y-35143530D01*
X68537685Y-35157630D01*
X68541856Y-35165433D01*
X68564852Y-35241242D01*
X68591311Y-35322672D01*
X68592242Y-35331532D01*
X68593094Y-35334340D01*
X68601385Y-35418520D01*
X68611000Y-35510000D01*
X68601382Y-35601501D01*
X68593094Y-35685659D01*
X68592242Y-35688466D01*
X68591311Y-35697328D01*
X68564848Y-35778771D01*
X68541856Y-35854566D01*
X68537686Y-35862366D01*
X68533104Y-35876470D01*
X68493266Y-35945470D01*
X68458651Y-36010232D01*
X68449294Y-36021633D01*
X68438924Y-36039595D01*
X68389563Y-36094415D01*
X68346675Y-36146675D01*
X68330714Y-36159773D01*
X68312887Y-36179573D01*
X68257977Y-36219467D01*
X68210232Y-36258651D01*
X68186827Y-36271161D01*
X68160500Y-36290289D01*
X68103873Y-36315500D01*
X68054566Y-36341856D01*
X68023537Y-36351268D01*
X67988424Y-36366902D01*
X67933555Y-36378564D01*
X67885659Y-36393094D01*
X67847532Y-36396849D01*
X67804180Y-36406064D01*
X67753973Y-36406064D01*
X67710000Y-36410395D01*
X67666027Y-36406064D01*
X67615820Y-36406064D01*
X67572467Y-36396849D01*
X67534340Y-36393094D01*
X67486441Y-36378563D01*
X67431576Y-36366902D01*
X67396464Y-36351269D01*
X67365433Y-36341856D01*
X67316120Y-36315498D01*
X67259500Y-36290289D01*
X67233175Y-36271163D01*
X67209767Y-36258651D01*
X67162013Y-36219460D01*
X67107113Y-36179573D01*
X67089287Y-36159776D01*
X67073324Y-36146675D01*
X67030425Y-36094402D01*
X66981076Y-36039595D01*
X66970708Y-36021637D01*
X66961348Y-36010232D01*
X66926719Y-35945447D01*
X66886896Y-35876470D01*
X66882315Y-35862371D01*
X66878143Y-35854566D01*
X66855136Y-35778725D01*
X66828689Y-35697328D01*
X66827758Y-35688471D01*
X66826905Y-35685659D01*
X66818600Y-35601342D01*
X66809000Y-35510000D01*
X66818599Y-35418664D01*
X66826905Y-35334340D01*
X66827758Y-35331527D01*
X66828689Y-35322672D01*
X66855132Y-35241288D01*
X66878143Y-35165433D01*
X66882315Y-35157626D01*
X66886896Y-35143530D01*
X66926712Y-35074565D01*
X66961348Y-35009767D01*
X66970710Y-34998359D01*
X66981076Y-34980405D01*
X67030416Y-34925607D01*
X67073324Y-34873324D01*
X67089291Y-34860219D01*
X67107113Y-34840427D01*
X67162002Y-34800546D01*
X67209767Y-34761348D01*
X67233180Y-34748833D01*
X67259500Y-34729711D01*
X67316109Y-34704506D01*
X67365433Y-34678143D01*
X67396471Y-34668727D01*
X67431576Y-34653098D01*
X67486430Y-34641438D01*
X67534340Y-34626905D01*
X67572476Y-34623148D01*
X67615820Y-34613936D01*
X67666016Y-34613936D01*
X67709999Y-34609604D01*
X67753983Y-34613936D01*
G37*
G36*
X70293983Y-34613936D02*
G01*
X70344180Y-34613936D01*
X70387524Y-34623149D01*
X70425659Y-34626905D01*
X70473566Y-34641437D01*
X70528424Y-34653098D01*
X70563530Y-34668728D01*
X70594566Y-34678143D01*
X70643884Y-34704504D01*
X70700500Y-34729711D01*
X70726822Y-34748835D01*
X70750232Y-34761348D01*
X70797988Y-34800540D01*
X70852887Y-34840427D01*
X70870711Y-34860223D01*
X70886675Y-34873324D01*
X70929572Y-34925594D01*
X70978924Y-34980405D01*
X70989292Y-34998363D01*
X70998651Y-35009767D01*
X71033273Y-35074542D01*
X71073104Y-35143530D01*
X71077685Y-35157630D01*
X71081856Y-35165433D01*
X71104852Y-35241242D01*
X71131311Y-35322672D01*
X71132242Y-35331532D01*
X71133094Y-35334340D01*
X71141384Y-35418513D01*
X71151000Y-35510000D01*
X71141383Y-35601494D01*
X71133094Y-35685659D01*
X71132242Y-35688466D01*
X71131311Y-35697328D01*
X71104848Y-35778771D01*
X71081856Y-35854566D01*
X71077686Y-35862366D01*
X71073104Y-35876470D01*
X71033266Y-35945470D01*
X70998651Y-36010232D01*
X70989294Y-36021633D01*
X70978924Y-36039595D01*
X70929563Y-36094415D01*
X70886675Y-36146675D01*
X70870714Y-36159773D01*
X70852887Y-36179573D01*
X70797977Y-36219467D01*
X70750232Y-36258651D01*
X70726827Y-36271161D01*
X70700500Y-36290289D01*
X70643873Y-36315500D01*
X70594566Y-36341856D01*
X70563537Y-36351268D01*
X70528424Y-36366902D01*
X70473555Y-36378564D01*
X70425659Y-36393094D01*
X70387533Y-36396849D01*
X70344180Y-36406064D01*
X70293972Y-36406064D01*
X70249999Y-36410395D01*
X70206026Y-36406064D01*
X70155820Y-36406064D01*
X70112467Y-36396849D01*
X70074340Y-36393094D01*
X70026441Y-36378563D01*
X69971576Y-36366902D01*
X69936464Y-36351269D01*
X69905433Y-36341856D01*
X69856120Y-36315498D01*
X69799500Y-36290289D01*
X69773175Y-36271163D01*
X69749767Y-36258651D01*
X69702013Y-36219460D01*
X69647113Y-36179573D01*
X69629287Y-36159776D01*
X69613324Y-36146675D01*
X69570425Y-36094402D01*
X69521076Y-36039595D01*
X69510708Y-36021637D01*
X69501348Y-36010232D01*
X69466719Y-35945447D01*
X69426896Y-35876470D01*
X69422315Y-35862371D01*
X69418143Y-35854566D01*
X69395136Y-35778725D01*
X69368689Y-35697328D01*
X69367758Y-35688471D01*
X69366905Y-35685659D01*
X69358600Y-35601342D01*
X69349000Y-35510000D01*
X69358599Y-35418664D01*
X69366905Y-35334340D01*
X69367758Y-35331527D01*
X69368689Y-35322672D01*
X69395132Y-35241288D01*
X69418143Y-35165433D01*
X69422315Y-35157626D01*
X69426896Y-35143530D01*
X69466712Y-35074565D01*
X69501348Y-35009767D01*
X69510710Y-34998359D01*
X69521076Y-34980405D01*
X69570416Y-34925607D01*
X69613324Y-34873324D01*
X69629291Y-34860219D01*
X69647113Y-34840427D01*
X69702002Y-34800546D01*
X69749767Y-34761348D01*
X69773180Y-34748833D01*
X69799500Y-34729711D01*
X69856109Y-34704506D01*
X69905433Y-34678143D01*
X69936471Y-34668727D01*
X69971576Y-34653098D01*
X70026430Y-34641438D01*
X70074340Y-34626905D01*
X70112476Y-34623148D01*
X70155820Y-34613936D01*
X70206016Y-34613936D01*
X70250000Y-34609604D01*
X70293983Y-34613936D01*
G37*
G36*
X75383983Y-34613936D02*
G01*
X75434180Y-34613936D01*
X75477524Y-34623149D01*
X75515659Y-34626905D01*
X75563566Y-34641437D01*
X75618424Y-34653098D01*
X75653530Y-34668728D01*
X75684566Y-34678143D01*
X75733884Y-34704504D01*
X75790500Y-34729711D01*
X75816822Y-34748835D01*
X75840232Y-34761348D01*
X75887988Y-34800540D01*
X75942887Y-34840427D01*
X75960711Y-34860223D01*
X75976675Y-34873324D01*
X76019572Y-34925594D01*
X76068924Y-34980405D01*
X76079292Y-34998363D01*
X76088651Y-35009767D01*
X76123273Y-35074542D01*
X76163104Y-35143530D01*
X76167685Y-35157630D01*
X76171856Y-35165433D01*
X76194852Y-35241242D01*
X76221311Y-35322672D01*
X76222242Y-35331532D01*
X76223094Y-35334340D01*
X76231384Y-35418513D01*
X76241000Y-35510000D01*
X76231383Y-35601494D01*
X76223094Y-35685659D01*
X76222242Y-35688466D01*
X76221311Y-35697328D01*
X76194848Y-35778771D01*
X76171856Y-35854566D01*
X76167686Y-35862366D01*
X76163104Y-35876470D01*
X76123266Y-35945470D01*
X76088651Y-36010232D01*
X76079294Y-36021633D01*
X76068924Y-36039595D01*
X76019563Y-36094415D01*
X75976675Y-36146675D01*
X75960714Y-36159773D01*
X75942887Y-36179573D01*
X75887977Y-36219467D01*
X75840232Y-36258651D01*
X75816827Y-36271161D01*
X75790500Y-36290289D01*
X75733873Y-36315500D01*
X75684566Y-36341856D01*
X75653537Y-36351268D01*
X75618424Y-36366902D01*
X75563555Y-36378564D01*
X75515659Y-36393094D01*
X75477532Y-36396849D01*
X75434180Y-36406064D01*
X75383973Y-36406064D01*
X75340000Y-36410395D01*
X75296027Y-36406064D01*
X75245820Y-36406064D01*
X75202467Y-36396849D01*
X75164340Y-36393094D01*
X75116441Y-36378563D01*
X75061576Y-36366902D01*
X75026464Y-36351269D01*
X74995433Y-36341856D01*
X74946120Y-36315498D01*
X74889500Y-36290289D01*
X74863175Y-36271163D01*
X74839767Y-36258651D01*
X74792013Y-36219460D01*
X74737113Y-36179573D01*
X74719287Y-36159776D01*
X74703324Y-36146675D01*
X74660425Y-36094402D01*
X74611076Y-36039595D01*
X74600708Y-36021637D01*
X74591348Y-36010232D01*
X74556719Y-35945447D01*
X74516896Y-35876470D01*
X74512315Y-35862371D01*
X74508143Y-35854566D01*
X74485136Y-35778725D01*
X74458689Y-35697328D01*
X74457758Y-35688471D01*
X74456905Y-35685659D01*
X74448600Y-35601342D01*
X74439000Y-35510000D01*
X74448599Y-35418664D01*
X74456905Y-35334340D01*
X74457758Y-35331527D01*
X74458689Y-35322672D01*
X74485132Y-35241288D01*
X74508143Y-35165433D01*
X74512315Y-35157626D01*
X74516896Y-35143530D01*
X74556712Y-35074565D01*
X74591348Y-35009767D01*
X74600710Y-34998359D01*
X74611076Y-34980405D01*
X74660416Y-34925607D01*
X74703324Y-34873324D01*
X74719291Y-34860219D01*
X74737113Y-34840427D01*
X74792002Y-34800546D01*
X74839767Y-34761348D01*
X74863180Y-34748833D01*
X74889500Y-34729711D01*
X74946109Y-34704506D01*
X74995433Y-34678143D01*
X75026471Y-34668727D01*
X75061576Y-34653098D01*
X75116430Y-34641438D01*
X75164340Y-34626905D01*
X75202476Y-34623148D01*
X75245820Y-34613936D01*
X75296016Y-34613936D01*
X75340000Y-34609604D01*
X75383983Y-34613936D01*
G37*
G36*
X77923983Y-34613936D02*
G01*
X77974180Y-34613936D01*
X78017524Y-34623149D01*
X78055659Y-34626905D01*
X78103566Y-34641437D01*
X78158424Y-34653098D01*
X78193530Y-34668728D01*
X78224566Y-34678143D01*
X78273884Y-34704504D01*
X78330500Y-34729711D01*
X78356822Y-34748835D01*
X78380232Y-34761348D01*
X78427988Y-34800540D01*
X78482887Y-34840427D01*
X78500711Y-34860223D01*
X78516675Y-34873324D01*
X78559572Y-34925594D01*
X78608924Y-34980405D01*
X78619292Y-34998363D01*
X78628651Y-35009767D01*
X78663273Y-35074542D01*
X78703104Y-35143530D01*
X78707685Y-35157630D01*
X78711856Y-35165433D01*
X78734852Y-35241242D01*
X78761311Y-35322672D01*
X78762242Y-35331532D01*
X78763094Y-35334340D01*
X78771385Y-35418520D01*
X78781000Y-35510000D01*
X78771382Y-35601501D01*
X78763094Y-35685659D01*
X78762242Y-35688466D01*
X78761311Y-35697328D01*
X78734848Y-35778771D01*
X78711856Y-35854566D01*
X78707686Y-35862366D01*
X78703104Y-35876470D01*
X78663266Y-35945470D01*
X78628651Y-36010232D01*
X78619294Y-36021633D01*
X78608924Y-36039595D01*
X78559563Y-36094415D01*
X78516675Y-36146675D01*
X78500714Y-36159773D01*
X78482887Y-36179573D01*
X78427977Y-36219467D01*
X78380232Y-36258651D01*
X78356827Y-36271161D01*
X78330500Y-36290289D01*
X78273873Y-36315500D01*
X78224566Y-36341856D01*
X78193537Y-36351268D01*
X78158424Y-36366902D01*
X78103555Y-36378564D01*
X78055659Y-36393094D01*
X78017532Y-36396849D01*
X77974180Y-36406064D01*
X77923973Y-36406064D01*
X77880000Y-36410395D01*
X77836027Y-36406064D01*
X77785820Y-36406064D01*
X77742467Y-36396849D01*
X77704340Y-36393094D01*
X77656441Y-36378563D01*
X77601576Y-36366902D01*
X77566464Y-36351269D01*
X77535433Y-36341856D01*
X77486120Y-36315498D01*
X77429500Y-36290289D01*
X77403175Y-36271163D01*
X77379767Y-36258651D01*
X77332013Y-36219460D01*
X77277113Y-36179573D01*
X77259287Y-36159776D01*
X77243324Y-36146675D01*
X77200425Y-36094402D01*
X77151076Y-36039595D01*
X77140708Y-36021637D01*
X77131348Y-36010232D01*
X77096719Y-35945447D01*
X77056896Y-35876470D01*
X77052315Y-35862371D01*
X77048143Y-35854566D01*
X77025136Y-35778725D01*
X76998689Y-35697328D01*
X76997758Y-35688471D01*
X76996905Y-35685659D01*
X76988601Y-35601349D01*
X76979000Y-35510000D01*
X76988598Y-35418672D01*
X76996905Y-35334340D01*
X76997758Y-35331527D01*
X76998689Y-35322672D01*
X77025132Y-35241288D01*
X77048143Y-35165433D01*
X77052315Y-35157626D01*
X77056896Y-35143530D01*
X77096712Y-35074565D01*
X77131348Y-35009767D01*
X77140710Y-34998359D01*
X77151076Y-34980405D01*
X77200416Y-34925607D01*
X77243324Y-34873324D01*
X77259291Y-34860219D01*
X77277113Y-34840427D01*
X77332002Y-34800546D01*
X77379767Y-34761348D01*
X77403180Y-34748833D01*
X77429500Y-34729711D01*
X77486109Y-34704506D01*
X77535433Y-34678143D01*
X77566471Y-34668727D01*
X77601576Y-34653098D01*
X77656430Y-34641438D01*
X77704340Y-34626905D01*
X77742476Y-34623148D01*
X77785820Y-34613936D01*
X77836016Y-34613936D01*
X77880000Y-34609604D01*
X77923983Y-34613936D01*
G37*
G36*
X83133983Y-34613936D02*
G01*
X83184180Y-34613936D01*
X83227524Y-34623149D01*
X83265659Y-34626905D01*
X83313566Y-34641437D01*
X83368424Y-34653098D01*
X83403530Y-34668728D01*
X83434566Y-34678143D01*
X83483884Y-34704504D01*
X83540500Y-34729711D01*
X83566822Y-34748835D01*
X83590232Y-34761348D01*
X83637988Y-34800540D01*
X83692887Y-34840427D01*
X83710711Y-34860223D01*
X83726675Y-34873324D01*
X83769572Y-34925594D01*
X83818924Y-34980405D01*
X83829292Y-34998363D01*
X83838651Y-35009767D01*
X83873273Y-35074542D01*
X83913104Y-35143530D01*
X83917685Y-35157630D01*
X83921856Y-35165433D01*
X83944852Y-35241242D01*
X83971311Y-35322672D01*
X83972242Y-35331532D01*
X83973094Y-35334340D01*
X83981384Y-35418513D01*
X83991000Y-35510000D01*
X83981383Y-35601494D01*
X83973094Y-35685659D01*
X83972242Y-35688466D01*
X83971311Y-35697328D01*
X83944848Y-35778771D01*
X83921856Y-35854566D01*
X83917686Y-35862366D01*
X83913104Y-35876470D01*
X83873266Y-35945470D01*
X83838651Y-36010232D01*
X83829294Y-36021633D01*
X83818924Y-36039595D01*
X83769563Y-36094415D01*
X83726675Y-36146675D01*
X83710714Y-36159773D01*
X83692887Y-36179573D01*
X83637977Y-36219467D01*
X83590232Y-36258651D01*
X83566827Y-36271161D01*
X83540500Y-36290289D01*
X83483873Y-36315500D01*
X83434566Y-36341856D01*
X83403537Y-36351268D01*
X83368424Y-36366902D01*
X83313555Y-36378564D01*
X83265659Y-36393094D01*
X83227532Y-36396849D01*
X83184180Y-36406064D01*
X83133973Y-36406064D01*
X83090000Y-36410395D01*
X83046027Y-36406064D01*
X82995820Y-36406064D01*
X82952467Y-36396849D01*
X82914340Y-36393094D01*
X82866441Y-36378563D01*
X82811576Y-36366902D01*
X82776464Y-36351269D01*
X82745433Y-36341856D01*
X82696120Y-36315498D01*
X82639500Y-36290289D01*
X82613175Y-36271163D01*
X82589767Y-36258651D01*
X82542013Y-36219460D01*
X82487113Y-36179573D01*
X82469287Y-36159776D01*
X82453324Y-36146675D01*
X82410425Y-36094402D01*
X82361076Y-36039595D01*
X82350708Y-36021637D01*
X82341348Y-36010232D01*
X82306719Y-35945447D01*
X82266896Y-35876470D01*
X82262315Y-35862371D01*
X82258143Y-35854566D01*
X82235136Y-35778725D01*
X82208689Y-35697328D01*
X82207758Y-35688471D01*
X82206905Y-35685659D01*
X82198601Y-35601349D01*
X82189000Y-35510000D01*
X82198598Y-35418672D01*
X82206905Y-35334340D01*
X82207758Y-35331527D01*
X82208689Y-35322672D01*
X82235132Y-35241288D01*
X82258143Y-35165433D01*
X82262315Y-35157626D01*
X82266896Y-35143530D01*
X82306712Y-35074565D01*
X82341348Y-35009767D01*
X82350710Y-34998359D01*
X82361076Y-34980405D01*
X82410416Y-34925607D01*
X82453324Y-34873324D01*
X82469291Y-34860219D01*
X82487113Y-34840427D01*
X82542002Y-34800546D01*
X82589767Y-34761348D01*
X82613180Y-34748833D01*
X82639500Y-34729711D01*
X82696109Y-34704506D01*
X82745433Y-34678143D01*
X82776471Y-34668727D01*
X82811576Y-34653098D01*
X82866430Y-34641438D01*
X82914340Y-34626905D01*
X82952476Y-34623148D01*
X82995820Y-34613936D01*
X83046016Y-34613936D01*
X83090000Y-34609604D01*
X83133983Y-34613936D01*
G37*
G36*
X85673983Y-34613936D02*
G01*
X85724180Y-34613936D01*
X85767524Y-34623149D01*
X85805659Y-34626905D01*
X85853566Y-34641437D01*
X85908424Y-34653098D01*
X85943530Y-34668728D01*
X85974566Y-34678143D01*
X86023884Y-34704504D01*
X86080500Y-34729711D01*
X86106822Y-34748835D01*
X86130232Y-34761348D01*
X86177988Y-34800540D01*
X86232887Y-34840427D01*
X86250711Y-34860223D01*
X86266675Y-34873324D01*
X86309572Y-34925594D01*
X86358924Y-34980405D01*
X86369292Y-34998363D01*
X86378651Y-35009767D01*
X86413273Y-35074542D01*
X86453104Y-35143530D01*
X86457685Y-35157630D01*
X86461856Y-35165433D01*
X86484852Y-35241242D01*
X86511311Y-35322672D01*
X86512242Y-35331532D01*
X86513094Y-35334340D01*
X86521385Y-35418520D01*
X86531000Y-35510000D01*
X86521382Y-35601501D01*
X86513094Y-35685659D01*
X86512242Y-35688466D01*
X86511311Y-35697328D01*
X86484848Y-35778771D01*
X86461856Y-35854566D01*
X86457686Y-35862366D01*
X86453104Y-35876470D01*
X86413266Y-35945470D01*
X86378651Y-36010232D01*
X86369294Y-36021633D01*
X86358924Y-36039595D01*
X86309563Y-36094415D01*
X86266675Y-36146675D01*
X86250714Y-36159773D01*
X86232887Y-36179573D01*
X86177977Y-36219467D01*
X86130232Y-36258651D01*
X86106827Y-36271161D01*
X86080500Y-36290289D01*
X86023873Y-36315500D01*
X85974566Y-36341856D01*
X85943537Y-36351268D01*
X85908424Y-36366902D01*
X85853555Y-36378564D01*
X85805659Y-36393094D01*
X85767532Y-36396849D01*
X85724180Y-36406064D01*
X85673973Y-36406064D01*
X85630000Y-36410395D01*
X85586027Y-36406064D01*
X85535820Y-36406064D01*
X85492467Y-36396849D01*
X85454340Y-36393094D01*
X85406441Y-36378563D01*
X85351576Y-36366902D01*
X85316464Y-36351269D01*
X85285433Y-36341856D01*
X85236120Y-36315498D01*
X85179500Y-36290289D01*
X85153175Y-36271163D01*
X85129767Y-36258651D01*
X85082013Y-36219460D01*
X85027113Y-36179573D01*
X85009287Y-36159776D01*
X84993324Y-36146675D01*
X84950425Y-36094402D01*
X84901076Y-36039595D01*
X84890708Y-36021637D01*
X84881348Y-36010232D01*
X84846719Y-35945447D01*
X84806896Y-35876470D01*
X84802315Y-35862371D01*
X84798143Y-35854566D01*
X84775136Y-35778725D01*
X84748689Y-35697328D01*
X84747758Y-35688471D01*
X84746905Y-35685659D01*
X84738600Y-35601342D01*
X84729000Y-35510000D01*
X84738599Y-35418664D01*
X84746905Y-35334340D01*
X84747758Y-35331527D01*
X84748689Y-35322672D01*
X84775132Y-35241288D01*
X84798143Y-35165433D01*
X84802315Y-35157626D01*
X84806896Y-35143530D01*
X84846712Y-35074565D01*
X84881348Y-35009767D01*
X84890710Y-34998359D01*
X84901076Y-34980405D01*
X84950416Y-34925607D01*
X84993324Y-34873324D01*
X85009291Y-34860219D01*
X85027113Y-34840427D01*
X85082002Y-34800546D01*
X85129767Y-34761348D01*
X85153180Y-34748833D01*
X85179500Y-34729711D01*
X85236109Y-34704506D01*
X85285433Y-34678143D01*
X85316471Y-34668727D01*
X85351576Y-34653098D01*
X85406430Y-34641438D01*
X85454340Y-34626905D01*
X85492476Y-34623148D01*
X85535820Y-34613936D01*
X85586016Y-34613936D01*
X85629999Y-34609604D01*
X85673983Y-34613936D01*
G37*
G36*
X88213983Y-34613936D02*
G01*
X88264180Y-34613936D01*
X88307524Y-34623149D01*
X88345659Y-34626905D01*
X88393566Y-34641437D01*
X88448424Y-34653098D01*
X88483530Y-34668728D01*
X88514566Y-34678143D01*
X88563884Y-34704504D01*
X88620500Y-34729711D01*
X88646822Y-34748835D01*
X88670232Y-34761348D01*
X88717988Y-34800540D01*
X88772887Y-34840427D01*
X88790711Y-34860223D01*
X88806675Y-34873324D01*
X88849572Y-34925594D01*
X88898924Y-34980405D01*
X88909292Y-34998363D01*
X88918651Y-35009767D01*
X88953273Y-35074542D01*
X88993104Y-35143530D01*
X88997685Y-35157630D01*
X89001856Y-35165433D01*
X89024852Y-35241242D01*
X89051311Y-35322672D01*
X89052242Y-35331532D01*
X89053094Y-35334340D01*
X89061384Y-35418513D01*
X89071000Y-35510000D01*
X89061383Y-35601494D01*
X89053094Y-35685659D01*
X89052242Y-35688466D01*
X89051311Y-35697328D01*
X89024848Y-35778771D01*
X89001856Y-35854566D01*
X88997686Y-35862366D01*
X88993104Y-35876470D01*
X88953266Y-35945470D01*
X88918651Y-36010232D01*
X88909294Y-36021633D01*
X88898924Y-36039595D01*
X88849563Y-36094415D01*
X88806675Y-36146675D01*
X88790714Y-36159773D01*
X88772887Y-36179573D01*
X88717977Y-36219467D01*
X88670232Y-36258651D01*
X88646827Y-36271161D01*
X88620500Y-36290289D01*
X88563873Y-36315500D01*
X88514566Y-36341856D01*
X88483537Y-36351268D01*
X88448424Y-36366902D01*
X88393555Y-36378564D01*
X88345659Y-36393094D01*
X88307532Y-36396849D01*
X88264180Y-36406064D01*
X88213973Y-36406064D01*
X88170000Y-36410395D01*
X88126027Y-36406064D01*
X88075820Y-36406064D01*
X88032467Y-36396849D01*
X87994340Y-36393094D01*
X87946441Y-36378563D01*
X87891576Y-36366902D01*
X87856464Y-36351269D01*
X87825433Y-36341856D01*
X87776120Y-36315498D01*
X87719500Y-36290289D01*
X87693175Y-36271163D01*
X87669767Y-36258651D01*
X87622013Y-36219460D01*
X87567113Y-36179573D01*
X87549287Y-36159776D01*
X87533324Y-36146675D01*
X87490425Y-36094402D01*
X87441076Y-36039595D01*
X87430708Y-36021637D01*
X87421348Y-36010232D01*
X87386719Y-35945447D01*
X87346896Y-35876470D01*
X87342315Y-35862371D01*
X87338143Y-35854566D01*
X87315136Y-35778725D01*
X87288689Y-35697328D01*
X87287758Y-35688471D01*
X87286905Y-35685659D01*
X87278600Y-35601342D01*
X87269000Y-35510000D01*
X87278599Y-35418664D01*
X87286905Y-35334340D01*
X87287758Y-35331527D01*
X87288689Y-35322672D01*
X87315132Y-35241288D01*
X87338143Y-35165433D01*
X87342315Y-35157626D01*
X87346896Y-35143530D01*
X87386712Y-35074565D01*
X87421348Y-35009767D01*
X87430710Y-34998359D01*
X87441076Y-34980405D01*
X87490416Y-34925607D01*
X87533324Y-34873324D01*
X87549291Y-34860219D01*
X87567113Y-34840427D01*
X87622002Y-34800546D01*
X87669767Y-34761348D01*
X87693180Y-34748833D01*
X87719500Y-34729711D01*
X87776109Y-34704506D01*
X87825433Y-34678143D01*
X87856471Y-34668727D01*
X87891576Y-34653098D01*
X87946430Y-34641438D01*
X87994340Y-34626905D01*
X88032476Y-34623148D01*
X88075820Y-34613936D01*
X88126016Y-34613936D01*
X88170000Y-34609604D01*
X88213983Y-34613936D01*
G37*
G36*
X90753983Y-34613936D02*
G01*
X90804180Y-34613936D01*
X90847524Y-34623149D01*
X90885659Y-34626905D01*
X90933566Y-34641437D01*
X90988424Y-34653098D01*
X91023530Y-34668728D01*
X91054566Y-34678143D01*
X91103884Y-34704504D01*
X91160500Y-34729711D01*
X91186822Y-34748835D01*
X91210232Y-34761348D01*
X91257988Y-34800540D01*
X91312887Y-34840427D01*
X91330711Y-34860223D01*
X91346675Y-34873324D01*
X91389572Y-34925594D01*
X91438924Y-34980405D01*
X91449292Y-34998363D01*
X91458651Y-35009767D01*
X91493273Y-35074542D01*
X91533104Y-35143530D01*
X91537685Y-35157630D01*
X91541856Y-35165433D01*
X91564852Y-35241242D01*
X91591311Y-35322672D01*
X91592242Y-35331532D01*
X91593094Y-35334340D01*
X91601384Y-35418513D01*
X91611000Y-35510000D01*
X91601383Y-35601494D01*
X91593094Y-35685659D01*
X91592242Y-35688466D01*
X91591311Y-35697328D01*
X91564848Y-35778771D01*
X91541856Y-35854566D01*
X91537686Y-35862366D01*
X91533104Y-35876470D01*
X91493266Y-35945470D01*
X91458651Y-36010232D01*
X91449294Y-36021633D01*
X91438924Y-36039595D01*
X91389563Y-36094415D01*
X91346675Y-36146675D01*
X91330714Y-36159773D01*
X91312887Y-36179573D01*
X91257977Y-36219467D01*
X91210232Y-36258651D01*
X91186827Y-36271161D01*
X91160500Y-36290289D01*
X91103873Y-36315500D01*
X91054566Y-36341856D01*
X91023537Y-36351268D01*
X90988424Y-36366902D01*
X90933555Y-36378564D01*
X90885659Y-36393094D01*
X90847532Y-36396849D01*
X90804180Y-36406064D01*
X90753973Y-36406064D01*
X90710000Y-36410395D01*
X90666027Y-36406064D01*
X90615820Y-36406064D01*
X90572467Y-36396849D01*
X90534340Y-36393094D01*
X90486441Y-36378563D01*
X90431576Y-36366902D01*
X90396464Y-36351269D01*
X90365433Y-36341856D01*
X90316120Y-36315498D01*
X90259500Y-36290289D01*
X90233175Y-36271163D01*
X90209767Y-36258651D01*
X90162013Y-36219460D01*
X90107113Y-36179573D01*
X90089287Y-36159776D01*
X90073324Y-36146675D01*
X90030425Y-36094402D01*
X89981076Y-36039595D01*
X89970708Y-36021637D01*
X89961348Y-36010232D01*
X89926719Y-35945447D01*
X89886896Y-35876470D01*
X89882315Y-35862371D01*
X89878143Y-35854566D01*
X89855136Y-35778725D01*
X89828689Y-35697328D01*
X89827758Y-35688471D01*
X89826905Y-35685659D01*
X89818600Y-35601342D01*
X89809000Y-35510000D01*
X89818599Y-35418664D01*
X89826905Y-35334340D01*
X89827758Y-35331527D01*
X89828689Y-35322672D01*
X89855132Y-35241288D01*
X89878143Y-35165433D01*
X89882315Y-35157626D01*
X89886896Y-35143530D01*
X89926712Y-35074565D01*
X89961348Y-35009767D01*
X89970710Y-34998359D01*
X89981076Y-34980405D01*
X90030416Y-34925607D01*
X90073324Y-34873324D01*
X90089291Y-34860219D01*
X90107113Y-34840427D01*
X90162002Y-34800546D01*
X90209767Y-34761348D01*
X90233180Y-34748833D01*
X90259500Y-34729711D01*
X90316109Y-34704506D01*
X90365433Y-34678143D01*
X90396471Y-34668727D01*
X90431576Y-34653098D01*
X90486430Y-34641438D01*
X90534340Y-34626905D01*
X90572476Y-34623148D01*
X90615820Y-34613936D01*
X90666016Y-34613936D01*
X90709999Y-34609604D01*
X90753983Y-34613936D01*
G37*
G36*
X93293983Y-34613936D02*
G01*
X93344180Y-34613936D01*
X93387524Y-34623149D01*
X93425659Y-34626905D01*
X93473566Y-34641437D01*
X93528424Y-34653098D01*
X93563530Y-34668728D01*
X93594566Y-34678143D01*
X93643884Y-34704504D01*
X93700500Y-34729711D01*
X93726822Y-34748835D01*
X93750232Y-34761348D01*
X93797988Y-34800540D01*
X93852887Y-34840427D01*
X93870711Y-34860223D01*
X93886675Y-34873324D01*
X93929572Y-34925594D01*
X93978924Y-34980405D01*
X93989292Y-34998363D01*
X93998651Y-35009767D01*
X94033273Y-35074542D01*
X94073104Y-35143530D01*
X94077685Y-35157630D01*
X94081856Y-35165433D01*
X94104852Y-35241242D01*
X94131311Y-35322672D01*
X94132242Y-35331532D01*
X94133094Y-35334340D01*
X94141384Y-35418513D01*
X94151000Y-35510000D01*
X94141383Y-35601494D01*
X94133094Y-35685659D01*
X94132242Y-35688466D01*
X94131311Y-35697328D01*
X94104848Y-35778771D01*
X94081856Y-35854566D01*
X94077686Y-35862366D01*
X94073104Y-35876470D01*
X94033266Y-35945470D01*
X93998651Y-36010232D01*
X93989294Y-36021633D01*
X93978924Y-36039595D01*
X93929563Y-36094415D01*
X93886675Y-36146675D01*
X93870714Y-36159773D01*
X93852887Y-36179573D01*
X93797977Y-36219467D01*
X93750232Y-36258651D01*
X93726827Y-36271161D01*
X93700500Y-36290289D01*
X93643873Y-36315500D01*
X93594566Y-36341856D01*
X93563537Y-36351268D01*
X93528424Y-36366902D01*
X93473555Y-36378564D01*
X93425659Y-36393094D01*
X93387532Y-36396849D01*
X93344180Y-36406064D01*
X93293973Y-36406064D01*
X93250000Y-36410395D01*
X93206027Y-36406064D01*
X93155820Y-36406064D01*
X93112467Y-36396849D01*
X93074340Y-36393094D01*
X93026441Y-36378563D01*
X92971576Y-36366902D01*
X92936464Y-36351269D01*
X92905433Y-36341856D01*
X92856120Y-36315498D01*
X92799500Y-36290289D01*
X92773175Y-36271163D01*
X92749767Y-36258651D01*
X92702013Y-36219460D01*
X92647113Y-36179573D01*
X92629287Y-36159776D01*
X92613324Y-36146675D01*
X92570425Y-36094402D01*
X92521076Y-36039595D01*
X92510708Y-36021637D01*
X92501348Y-36010232D01*
X92466719Y-35945447D01*
X92426896Y-35876470D01*
X92422315Y-35862371D01*
X92418143Y-35854566D01*
X92395136Y-35778725D01*
X92368689Y-35697328D01*
X92367758Y-35688471D01*
X92366905Y-35685659D01*
X92358601Y-35601349D01*
X92349000Y-35510000D01*
X92358598Y-35418672D01*
X92366905Y-35334340D01*
X92367758Y-35331527D01*
X92368689Y-35322672D01*
X92395132Y-35241288D01*
X92418143Y-35165433D01*
X92422315Y-35157626D01*
X92426896Y-35143530D01*
X92466712Y-35074565D01*
X92501348Y-35009767D01*
X92510710Y-34998359D01*
X92521076Y-34980405D01*
X92570416Y-34925607D01*
X92613324Y-34873324D01*
X92629291Y-34860219D01*
X92647113Y-34840427D01*
X92702002Y-34800546D01*
X92749767Y-34761348D01*
X92773180Y-34748833D01*
X92799500Y-34729711D01*
X92856109Y-34704506D01*
X92905433Y-34678143D01*
X92936471Y-34668727D01*
X92971576Y-34653098D01*
X93026430Y-34641438D01*
X93074340Y-34626905D01*
X93112476Y-34623148D01*
X93155820Y-34613936D01*
X93206016Y-34613936D01*
X93250000Y-34609604D01*
X93293983Y-34613936D01*
G37*
G36*
X57593983Y-32073936D02*
G01*
X57644180Y-32073936D01*
X57687524Y-32083149D01*
X57725659Y-32086905D01*
X57773566Y-32101437D01*
X57828424Y-32113098D01*
X57863530Y-32128728D01*
X57894566Y-32138143D01*
X57943884Y-32164504D01*
X58000500Y-32189711D01*
X58026822Y-32208835D01*
X58050232Y-32221348D01*
X58097988Y-32260540D01*
X58152887Y-32300427D01*
X58170711Y-32320223D01*
X58186675Y-32333324D01*
X58229572Y-32385594D01*
X58278924Y-32440405D01*
X58289292Y-32458363D01*
X58298651Y-32469767D01*
X58333273Y-32534542D01*
X58373104Y-32603530D01*
X58377685Y-32617630D01*
X58381856Y-32625433D01*
X58404852Y-32701242D01*
X58431311Y-32782672D01*
X58432242Y-32791532D01*
X58433094Y-32794340D01*
X58441384Y-32878513D01*
X58451000Y-32970000D01*
X58441383Y-33061494D01*
X58433094Y-33145659D01*
X58432242Y-33148466D01*
X58431311Y-33157328D01*
X58404848Y-33238771D01*
X58381856Y-33314566D01*
X58377686Y-33322366D01*
X58373104Y-33336470D01*
X58333266Y-33405470D01*
X58298651Y-33470232D01*
X58289294Y-33481633D01*
X58278924Y-33499595D01*
X58229563Y-33554415D01*
X58186675Y-33606675D01*
X58170714Y-33619773D01*
X58152887Y-33639573D01*
X58097977Y-33679467D01*
X58050232Y-33718651D01*
X58026827Y-33731161D01*
X58000500Y-33750289D01*
X57943873Y-33775500D01*
X57894566Y-33801856D01*
X57863537Y-33811268D01*
X57828424Y-33826902D01*
X57773555Y-33838564D01*
X57725659Y-33853094D01*
X57687532Y-33856849D01*
X57644180Y-33866064D01*
X57593973Y-33866064D01*
X57550000Y-33870395D01*
X57506027Y-33866064D01*
X57455820Y-33866064D01*
X57412467Y-33856849D01*
X57374340Y-33853094D01*
X57326441Y-33838563D01*
X57271576Y-33826902D01*
X57236464Y-33811269D01*
X57205433Y-33801856D01*
X57156120Y-33775498D01*
X57099500Y-33750289D01*
X57073175Y-33731163D01*
X57049767Y-33718651D01*
X57002013Y-33679460D01*
X56947113Y-33639573D01*
X56929287Y-33619776D01*
X56913324Y-33606675D01*
X56870425Y-33554402D01*
X56821076Y-33499595D01*
X56810708Y-33481637D01*
X56801348Y-33470232D01*
X56766719Y-33405447D01*
X56726896Y-33336470D01*
X56722315Y-33322371D01*
X56718143Y-33314566D01*
X56695136Y-33238725D01*
X56668689Y-33157328D01*
X56667758Y-33148471D01*
X56666905Y-33145659D01*
X56658601Y-33061349D01*
X56649000Y-32970000D01*
X56658598Y-32878672D01*
X56666905Y-32794340D01*
X56667758Y-32791527D01*
X56668689Y-32782672D01*
X56695132Y-32701288D01*
X56718143Y-32625433D01*
X56722315Y-32617626D01*
X56726896Y-32603530D01*
X56766712Y-32534565D01*
X56801348Y-32469767D01*
X56810710Y-32458359D01*
X56821076Y-32440405D01*
X56870416Y-32385607D01*
X56913324Y-32333324D01*
X56929291Y-32320219D01*
X56947113Y-32300427D01*
X57002002Y-32260546D01*
X57049767Y-32221348D01*
X57073180Y-32208833D01*
X57099500Y-32189711D01*
X57156109Y-32164506D01*
X57205433Y-32138143D01*
X57236471Y-32128727D01*
X57271576Y-32113098D01*
X57326430Y-32101438D01*
X57374340Y-32086905D01*
X57412476Y-32083148D01*
X57455820Y-32073936D01*
X57506016Y-32073936D01*
X57550000Y-32069604D01*
X57593983Y-32073936D01*
G37*
G36*
X60133983Y-32073936D02*
G01*
X60184180Y-32073936D01*
X60227524Y-32083149D01*
X60265659Y-32086905D01*
X60313566Y-32101437D01*
X60368424Y-32113098D01*
X60403530Y-32128728D01*
X60434566Y-32138143D01*
X60483884Y-32164504D01*
X60540500Y-32189711D01*
X60566822Y-32208835D01*
X60590232Y-32221348D01*
X60637988Y-32260540D01*
X60692887Y-32300427D01*
X60710711Y-32320223D01*
X60726675Y-32333324D01*
X60769572Y-32385594D01*
X60818924Y-32440405D01*
X60829292Y-32458363D01*
X60838651Y-32469767D01*
X60873273Y-32534542D01*
X60913104Y-32603530D01*
X60917685Y-32617630D01*
X60921856Y-32625433D01*
X60944852Y-32701242D01*
X60971311Y-32782672D01*
X60972242Y-32791532D01*
X60973094Y-32794340D01*
X60981385Y-32878520D01*
X60991000Y-32970000D01*
X60981382Y-33061501D01*
X60973094Y-33145659D01*
X60972242Y-33148466D01*
X60971311Y-33157328D01*
X60944848Y-33238771D01*
X60921856Y-33314566D01*
X60917686Y-33322366D01*
X60913104Y-33336470D01*
X60873266Y-33405470D01*
X60838651Y-33470232D01*
X60829294Y-33481633D01*
X60818924Y-33499595D01*
X60769563Y-33554415D01*
X60726675Y-33606675D01*
X60710714Y-33619773D01*
X60692887Y-33639573D01*
X60637977Y-33679467D01*
X60590232Y-33718651D01*
X60566827Y-33731161D01*
X60540500Y-33750289D01*
X60483873Y-33775500D01*
X60434566Y-33801856D01*
X60403537Y-33811268D01*
X60368424Y-33826902D01*
X60313555Y-33838564D01*
X60265659Y-33853094D01*
X60227532Y-33856849D01*
X60184180Y-33866064D01*
X60133973Y-33866064D01*
X60090000Y-33870395D01*
X60046027Y-33866064D01*
X59995820Y-33866064D01*
X59952467Y-33856849D01*
X59914340Y-33853094D01*
X59866441Y-33838563D01*
X59811576Y-33826902D01*
X59776464Y-33811269D01*
X59745433Y-33801856D01*
X59696120Y-33775498D01*
X59639500Y-33750289D01*
X59613175Y-33731163D01*
X59589767Y-33718651D01*
X59542013Y-33679460D01*
X59487113Y-33639573D01*
X59469287Y-33619776D01*
X59453324Y-33606675D01*
X59410425Y-33554402D01*
X59361076Y-33499595D01*
X59350708Y-33481637D01*
X59341348Y-33470232D01*
X59306719Y-33405447D01*
X59266896Y-33336470D01*
X59262315Y-33322371D01*
X59258143Y-33314566D01*
X59235136Y-33238725D01*
X59208689Y-33157328D01*
X59207758Y-33148471D01*
X59206905Y-33145659D01*
X59198601Y-33061349D01*
X59189000Y-32970000D01*
X59198598Y-32878672D01*
X59206905Y-32794340D01*
X59207758Y-32791527D01*
X59208689Y-32782672D01*
X59235132Y-32701288D01*
X59258143Y-32625433D01*
X59262315Y-32617626D01*
X59266896Y-32603530D01*
X59306712Y-32534565D01*
X59341348Y-32469767D01*
X59350710Y-32458359D01*
X59361076Y-32440405D01*
X59410416Y-32385607D01*
X59453324Y-32333324D01*
X59469291Y-32320219D01*
X59487113Y-32300427D01*
X59542002Y-32260546D01*
X59589767Y-32221348D01*
X59613180Y-32208833D01*
X59639500Y-32189711D01*
X59696109Y-32164506D01*
X59745433Y-32138143D01*
X59776471Y-32128727D01*
X59811576Y-32113098D01*
X59866430Y-32101438D01*
X59914340Y-32086905D01*
X59952476Y-32083148D01*
X59995820Y-32073936D01*
X60046016Y-32073936D01*
X60089999Y-32069604D01*
X60133983Y-32073936D01*
G37*
G36*
X62673983Y-32073936D02*
G01*
X62724180Y-32073936D01*
X62767524Y-32083149D01*
X62805659Y-32086905D01*
X62853566Y-32101437D01*
X62908424Y-32113098D01*
X62943530Y-32128728D01*
X62974566Y-32138143D01*
X63023884Y-32164504D01*
X63080500Y-32189711D01*
X63106822Y-32208835D01*
X63130232Y-32221348D01*
X63177988Y-32260540D01*
X63232887Y-32300427D01*
X63250711Y-32320223D01*
X63266675Y-32333324D01*
X63309572Y-32385594D01*
X63358924Y-32440405D01*
X63369292Y-32458363D01*
X63378651Y-32469767D01*
X63413273Y-32534542D01*
X63453104Y-32603530D01*
X63457685Y-32617630D01*
X63461856Y-32625433D01*
X63484852Y-32701242D01*
X63511311Y-32782672D01*
X63512242Y-32791532D01*
X63513094Y-32794340D01*
X63521385Y-32878520D01*
X63531000Y-32970000D01*
X63521382Y-33061501D01*
X63513094Y-33145659D01*
X63512242Y-33148466D01*
X63511311Y-33157328D01*
X63484848Y-33238771D01*
X63461856Y-33314566D01*
X63457686Y-33322366D01*
X63453104Y-33336470D01*
X63413266Y-33405470D01*
X63378651Y-33470232D01*
X63369294Y-33481633D01*
X63358924Y-33499595D01*
X63309563Y-33554415D01*
X63266675Y-33606675D01*
X63250714Y-33619773D01*
X63232887Y-33639573D01*
X63177977Y-33679467D01*
X63130232Y-33718651D01*
X63106827Y-33731161D01*
X63080500Y-33750289D01*
X63023873Y-33775500D01*
X62974566Y-33801856D01*
X62943537Y-33811268D01*
X62908424Y-33826902D01*
X62853555Y-33838564D01*
X62805659Y-33853094D01*
X62767532Y-33856849D01*
X62724180Y-33866064D01*
X62673973Y-33866064D01*
X62630000Y-33870395D01*
X62586027Y-33866064D01*
X62535820Y-33866064D01*
X62492467Y-33856849D01*
X62454340Y-33853094D01*
X62406441Y-33838563D01*
X62351576Y-33826902D01*
X62316464Y-33811269D01*
X62285433Y-33801856D01*
X62236120Y-33775498D01*
X62179500Y-33750289D01*
X62153175Y-33731163D01*
X62129767Y-33718651D01*
X62082013Y-33679460D01*
X62027113Y-33639573D01*
X62009287Y-33619776D01*
X61993324Y-33606675D01*
X61950425Y-33554402D01*
X61901076Y-33499595D01*
X61890708Y-33481637D01*
X61881348Y-33470232D01*
X61846719Y-33405447D01*
X61806896Y-33336470D01*
X61802315Y-33322371D01*
X61798143Y-33314566D01*
X61775136Y-33238725D01*
X61748689Y-33157328D01*
X61747758Y-33148471D01*
X61746905Y-33145659D01*
X61738601Y-33061349D01*
X61729000Y-32970000D01*
X61738598Y-32878672D01*
X61746905Y-32794340D01*
X61747758Y-32791527D01*
X61748689Y-32782672D01*
X61775132Y-32701288D01*
X61798143Y-32625433D01*
X61802315Y-32617626D01*
X61806896Y-32603530D01*
X61846712Y-32534565D01*
X61881348Y-32469767D01*
X61890710Y-32458359D01*
X61901076Y-32440405D01*
X61950416Y-32385607D01*
X61993324Y-32333324D01*
X62009291Y-32320219D01*
X62027113Y-32300427D01*
X62082002Y-32260546D01*
X62129767Y-32221348D01*
X62153180Y-32208833D01*
X62179500Y-32189711D01*
X62236109Y-32164506D01*
X62285433Y-32138143D01*
X62316471Y-32128727D01*
X62351576Y-32113098D01*
X62406430Y-32101438D01*
X62454340Y-32086905D01*
X62492476Y-32083148D01*
X62535820Y-32073936D01*
X62586016Y-32073936D01*
X62630000Y-32069604D01*
X62673983Y-32073936D01*
G37*
G36*
X65213983Y-32073936D02*
G01*
X65264180Y-32073936D01*
X65307524Y-32083149D01*
X65345659Y-32086905D01*
X65393566Y-32101437D01*
X65448424Y-32113098D01*
X65483530Y-32128728D01*
X65514566Y-32138143D01*
X65563884Y-32164504D01*
X65620500Y-32189711D01*
X65646822Y-32208835D01*
X65670232Y-32221348D01*
X65717988Y-32260540D01*
X65772887Y-32300427D01*
X65790711Y-32320223D01*
X65806675Y-32333324D01*
X65849572Y-32385594D01*
X65898924Y-32440405D01*
X65909292Y-32458363D01*
X65918651Y-32469767D01*
X65953273Y-32534542D01*
X65993104Y-32603530D01*
X65997685Y-32617630D01*
X66001856Y-32625433D01*
X66024852Y-32701242D01*
X66051311Y-32782672D01*
X66052242Y-32791532D01*
X66053094Y-32794340D01*
X66061385Y-32878520D01*
X66071000Y-32970000D01*
X66061382Y-33061501D01*
X66053094Y-33145659D01*
X66052242Y-33148466D01*
X66051311Y-33157328D01*
X66024848Y-33238771D01*
X66001856Y-33314566D01*
X65997686Y-33322366D01*
X65993104Y-33336470D01*
X65953266Y-33405470D01*
X65918651Y-33470232D01*
X65909294Y-33481633D01*
X65898924Y-33499595D01*
X65849563Y-33554415D01*
X65806675Y-33606675D01*
X65790714Y-33619773D01*
X65772887Y-33639573D01*
X65717977Y-33679467D01*
X65670232Y-33718651D01*
X65646827Y-33731161D01*
X65620500Y-33750289D01*
X65563873Y-33775500D01*
X65514566Y-33801856D01*
X65483537Y-33811268D01*
X65448424Y-33826902D01*
X65393555Y-33838564D01*
X65345659Y-33853094D01*
X65307532Y-33856849D01*
X65264180Y-33866064D01*
X65213973Y-33866064D01*
X65170000Y-33870395D01*
X65126027Y-33866064D01*
X65075820Y-33866064D01*
X65032467Y-33856849D01*
X64994340Y-33853094D01*
X64946441Y-33838563D01*
X64891576Y-33826902D01*
X64856464Y-33811269D01*
X64825433Y-33801856D01*
X64776120Y-33775498D01*
X64719500Y-33750289D01*
X64693175Y-33731163D01*
X64669767Y-33718651D01*
X64622013Y-33679460D01*
X64567113Y-33639573D01*
X64549287Y-33619776D01*
X64533324Y-33606675D01*
X64490425Y-33554402D01*
X64441076Y-33499595D01*
X64430708Y-33481637D01*
X64421348Y-33470232D01*
X64386719Y-33405447D01*
X64346896Y-33336470D01*
X64342315Y-33322371D01*
X64338143Y-33314566D01*
X64315136Y-33238725D01*
X64288689Y-33157328D01*
X64287758Y-33148471D01*
X64286905Y-33145659D01*
X64278600Y-33061342D01*
X64269000Y-32970000D01*
X64278599Y-32878664D01*
X64286905Y-32794340D01*
X64287758Y-32791527D01*
X64288689Y-32782672D01*
X64315132Y-32701288D01*
X64338143Y-32625433D01*
X64342315Y-32617626D01*
X64346896Y-32603530D01*
X64386712Y-32534565D01*
X64421348Y-32469767D01*
X64430710Y-32458359D01*
X64441076Y-32440405D01*
X64490416Y-32385607D01*
X64533324Y-32333324D01*
X64549291Y-32320219D01*
X64567113Y-32300427D01*
X64622002Y-32260546D01*
X64669767Y-32221348D01*
X64693180Y-32208833D01*
X64719500Y-32189711D01*
X64776109Y-32164506D01*
X64825433Y-32138143D01*
X64856471Y-32128727D01*
X64891576Y-32113098D01*
X64946430Y-32101438D01*
X64994340Y-32086905D01*
X65032476Y-32083148D01*
X65075820Y-32073936D01*
X65126016Y-32073936D01*
X65169999Y-32069604D01*
X65213983Y-32073936D01*
G37*
G36*
X67753983Y-32073936D02*
G01*
X67804180Y-32073936D01*
X67847524Y-32083149D01*
X67885659Y-32086905D01*
X67933566Y-32101437D01*
X67988424Y-32113098D01*
X68023530Y-32128728D01*
X68054566Y-32138143D01*
X68103884Y-32164504D01*
X68160500Y-32189711D01*
X68186822Y-32208835D01*
X68210232Y-32221348D01*
X68257988Y-32260540D01*
X68312887Y-32300427D01*
X68330711Y-32320223D01*
X68346675Y-32333324D01*
X68389572Y-32385594D01*
X68438924Y-32440405D01*
X68449292Y-32458363D01*
X68458651Y-32469767D01*
X68493273Y-32534542D01*
X68533104Y-32603530D01*
X68537685Y-32617630D01*
X68541856Y-32625433D01*
X68564852Y-32701242D01*
X68591311Y-32782672D01*
X68592242Y-32791532D01*
X68593094Y-32794340D01*
X68601384Y-32878513D01*
X68611000Y-32970000D01*
X68601383Y-33061494D01*
X68593094Y-33145659D01*
X68592242Y-33148466D01*
X68591311Y-33157328D01*
X68564848Y-33238771D01*
X68541856Y-33314566D01*
X68537686Y-33322366D01*
X68533104Y-33336470D01*
X68493266Y-33405470D01*
X68458651Y-33470232D01*
X68449294Y-33481633D01*
X68438924Y-33499595D01*
X68389563Y-33554415D01*
X68346675Y-33606675D01*
X68330714Y-33619773D01*
X68312887Y-33639573D01*
X68257977Y-33679467D01*
X68210232Y-33718651D01*
X68186827Y-33731161D01*
X68160500Y-33750289D01*
X68103873Y-33775500D01*
X68054566Y-33801856D01*
X68023537Y-33811268D01*
X67988424Y-33826902D01*
X67933555Y-33838564D01*
X67885659Y-33853094D01*
X67847532Y-33856849D01*
X67804180Y-33866064D01*
X67753973Y-33866064D01*
X67710000Y-33870395D01*
X67666027Y-33866064D01*
X67615820Y-33866064D01*
X67572467Y-33856849D01*
X67534340Y-33853094D01*
X67486441Y-33838563D01*
X67431576Y-33826902D01*
X67396464Y-33811269D01*
X67365433Y-33801856D01*
X67316120Y-33775498D01*
X67259500Y-33750289D01*
X67233175Y-33731163D01*
X67209767Y-33718651D01*
X67162013Y-33679460D01*
X67107113Y-33639573D01*
X67089287Y-33619776D01*
X67073324Y-33606675D01*
X67030425Y-33554402D01*
X66981076Y-33499595D01*
X66970708Y-33481637D01*
X66961348Y-33470232D01*
X66926719Y-33405447D01*
X66886896Y-33336470D01*
X66882315Y-33322371D01*
X66878143Y-33314566D01*
X66855136Y-33238725D01*
X66828689Y-33157328D01*
X66827758Y-33148471D01*
X66826905Y-33145659D01*
X66818601Y-33061349D01*
X66809000Y-32970000D01*
X66818598Y-32878672D01*
X66826905Y-32794340D01*
X66827758Y-32791527D01*
X66828689Y-32782672D01*
X66855132Y-32701288D01*
X66878143Y-32625433D01*
X66882315Y-32617626D01*
X66886896Y-32603530D01*
X66926712Y-32534565D01*
X66961348Y-32469767D01*
X66970710Y-32458359D01*
X66981076Y-32440405D01*
X67030416Y-32385607D01*
X67073324Y-32333324D01*
X67089291Y-32320219D01*
X67107113Y-32300427D01*
X67162002Y-32260546D01*
X67209767Y-32221348D01*
X67233180Y-32208833D01*
X67259500Y-32189711D01*
X67316109Y-32164506D01*
X67365433Y-32138143D01*
X67396471Y-32128727D01*
X67431576Y-32113098D01*
X67486430Y-32101438D01*
X67534340Y-32086905D01*
X67572476Y-32083148D01*
X67615820Y-32073936D01*
X67666016Y-32073936D01*
X67710000Y-32069604D01*
X67753983Y-32073936D01*
G37*
G36*
X70293983Y-32073936D02*
G01*
X70344180Y-32073936D01*
X70387524Y-32083149D01*
X70425659Y-32086905D01*
X70473566Y-32101437D01*
X70528424Y-32113098D01*
X70563530Y-32128728D01*
X70594566Y-32138143D01*
X70643884Y-32164504D01*
X70700500Y-32189711D01*
X70726822Y-32208835D01*
X70750232Y-32221348D01*
X70797988Y-32260540D01*
X70852887Y-32300427D01*
X70870711Y-32320223D01*
X70886675Y-32333324D01*
X70929572Y-32385594D01*
X70978924Y-32440405D01*
X70989292Y-32458363D01*
X70998651Y-32469767D01*
X71033273Y-32534542D01*
X71073104Y-32603530D01*
X71077685Y-32617630D01*
X71081856Y-32625433D01*
X71104852Y-32701242D01*
X71131311Y-32782672D01*
X71132242Y-32791532D01*
X71133094Y-32794340D01*
X71141385Y-32878520D01*
X71151000Y-32970000D01*
X71141382Y-33061501D01*
X71133094Y-33145659D01*
X71132242Y-33148466D01*
X71131311Y-33157328D01*
X71104848Y-33238771D01*
X71081856Y-33314566D01*
X71077686Y-33322366D01*
X71073104Y-33336470D01*
X71033266Y-33405470D01*
X70998651Y-33470232D01*
X70989294Y-33481633D01*
X70978924Y-33499595D01*
X70929563Y-33554415D01*
X70886675Y-33606675D01*
X70870714Y-33619773D01*
X70852887Y-33639573D01*
X70797977Y-33679467D01*
X70750232Y-33718651D01*
X70726827Y-33731161D01*
X70700500Y-33750289D01*
X70643873Y-33775500D01*
X70594566Y-33801856D01*
X70563537Y-33811268D01*
X70528424Y-33826902D01*
X70473555Y-33838564D01*
X70425659Y-33853094D01*
X70387532Y-33856849D01*
X70344180Y-33866064D01*
X70293973Y-33866064D01*
X70250000Y-33870395D01*
X70206027Y-33866064D01*
X70155820Y-33866064D01*
X70112467Y-33856849D01*
X70074340Y-33853094D01*
X70026441Y-33838563D01*
X69971576Y-33826902D01*
X69936464Y-33811269D01*
X69905433Y-33801856D01*
X69856120Y-33775498D01*
X69799500Y-33750289D01*
X69773175Y-33731163D01*
X69749767Y-33718651D01*
X69702013Y-33679460D01*
X69647113Y-33639573D01*
X69629287Y-33619776D01*
X69613324Y-33606675D01*
X69570425Y-33554402D01*
X69521076Y-33499595D01*
X69510708Y-33481637D01*
X69501348Y-33470232D01*
X69466719Y-33405447D01*
X69426896Y-33336470D01*
X69422315Y-33322371D01*
X69418143Y-33314566D01*
X69395136Y-33238725D01*
X69368689Y-33157328D01*
X69367758Y-33148471D01*
X69366905Y-33145659D01*
X69358601Y-33061349D01*
X69349000Y-32970000D01*
X69358598Y-32878672D01*
X69366905Y-32794340D01*
X69367758Y-32791527D01*
X69368689Y-32782672D01*
X69395132Y-32701288D01*
X69418143Y-32625433D01*
X69422315Y-32617626D01*
X69426896Y-32603530D01*
X69466712Y-32534565D01*
X69501348Y-32469767D01*
X69510710Y-32458359D01*
X69521076Y-32440405D01*
X69570416Y-32385607D01*
X69613324Y-32333324D01*
X69629291Y-32320219D01*
X69647113Y-32300427D01*
X69702002Y-32260546D01*
X69749767Y-32221348D01*
X69773180Y-32208833D01*
X69799500Y-32189711D01*
X69856109Y-32164506D01*
X69905433Y-32138143D01*
X69936471Y-32128727D01*
X69971576Y-32113098D01*
X70026430Y-32101438D01*
X70074340Y-32086905D01*
X70112476Y-32083148D01*
X70155820Y-32073936D01*
X70206016Y-32073936D01*
X70249999Y-32069604D01*
X70293983Y-32073936D01*
G37*
G36*
X72843983Y-32073936D02*
G01*
X72894180Y-32073936D01*
X72937524Y-32083149D01*
X72975659Y-32086905D01*
X73023566Y-32101437D01*
X73078424Y-32113098D01*
X73113530Y-32128728D01*
X73144566Y-32138143D01*
X73193884Y-32164504D01*
X73250500Y-32189711D01*
X73276822Y-32208835D01*
X73300232Y-32221348D01*
X73347988Y-32260540D01*
X73402887Y-32300427D01*
X73420711Y-32320223D01*
X73436675Y-32333324D01*
X73479572Y-32385594D01*
X73528924Y-32440405D01*
X73539292Y-32458363D01*
X73548651Y-32469767D01*
X73583273Y-32534542D01*
X73623104Y-32603530D01*
X73627685Y-32617630D01*
X73631856Y-32625433D01*
X73654852Y-32701242D01*
X73681311Y-32782672D01*
X73682242Y-32791532D01*
X73683094Y-32794340D01*
X73691385Y-32878520D01*
X73701000Y-32970000D01*
X73691382Y-33061501D01*
X73683094Y-33145659D01*
X73682242Y-33148466D01*
X73681311Y-33157328D01*
X73654848Y-33238771D01*
X73631856Y-33314566D01*
X73627686Y-33322366D01*
X73623104Y-33336470D01*
X73583266Y-33405470D01*
X73548651Y-33470232D01*
X73539294Y-33481633D01*
X73528924Y-33499595D01*
X73479563Y-33554415D01*
X73436675Y-33606675D01*
X73420714Y-33619773D01*
X73402887Y-33639573D01*
X73347977Y-33679467D01*
X73300232Y-33718651D01*
X73276827Y-33731161D01*
X73250500Y-33750289D01*
X73193873Y-33775500D01*
X73144566Y-33801856D01*
X73113537Y-33811268D01*
X73078424Y-33826902D01*
X73023555Y-33838564D01*
X72975659Y-33853094D01*
X72937533Y-33856849D01*
X72894180Y-33866064D01*
X72843972Y-33866064D01*
X72799999Y-33870395D01*
X72756026Y-33866064D01*
X72705820Y-33866064D01*
X72662467Y-33856849D01*
X72624340Y-33853094D01*
X72576441Y-33838563D01*
X72521576Y-33826902D01*
X72486464Y-33811269D01*
X72455433Y-33801856D01*
X72406120Y-33775498D01*
X72349500Y-33750289D01*
X72323175Y-33731163D01*
X72299767Y-33718651D01*
X72252013Y-33679460D01*
X72197113Y-33639573D01*
X72179287Y-33619776D01*
X72163324Y-33606675D01*
X72120425Y-33554402D01*
X72071076Y-33499595D01*
X72060708Y-33481637D01*
X72051348Y-33470232D01*
X72016719Y-33405447D01*
X71976896Y-33336470D01*
X71972315Y-33322371D01*
X71968143Y-33314566D01*
X71945136Y-33238725D01*
X71918689Y-33157328D01*
X71917758Y-33148471D01*
X71916905Y-33145659D01*
X71908601Y-33061349D01*
X71899000Y-32970000D01*
X71908598Y-32878672D01*
X71916905Y-32794340D01*
X71917758Y-32791527D01*
X71918689Y-32782672D01*
X71945132Y-32701288D01*
X71968143Y-32625433D01*
X71972315Y-32617626D01*
X71976896Y-32603530D01*
X72016712Y-32534565D01*
X72051348Y-32469767D01*
X72060710Y-32458359D01*
X72071076Y-32440405D01*
X72120416Y-32385607D01*
X72163324Y-32333324D01*
X72179291Y-32320219D01*
X72197113Y-32300427D01*
X72252002Y-32260546D01*
X72299767Y-32221348D01*
X72323180Y-32208833D01*
X72349500Y-32189711D01*
X72406109Y-32164506D01*
X72455433Y-32138143D01*
X72486471Y-32128727D01*
X72521576Y-32113098D01*
X72576430Y-32101438D01*
X72624340Y-32086905D01*
X72662476Y-32083148D01*
X72705820Y-32073936D01*
X72756016Y-32073936D01*
X72800000Y-32069604D01*
X72843983Y-32073936D01*
G37*
G36*
X75383983Y-32073936D02*
G01*
X75434180Y-32073936D01*
X75477524Y-32083149D01*
X75515659Y-32086905D01*
X75563566Y-32101437D01*
X75618424Y-32113098D01*
X75653530Y-32128728D01*
X75684566Y-32138143D01*
X75733884Y-32164504D01*
X75790500Y-32189711D01*
X75816822Y-32208835D01*
X75840232Y-32221348D01*
X75887988Y-32260540D01*
X75942887Y-32300427D01*
X75960711Y-32320223D01*
X75976675Y-32333324D01*
X76019572Y-32385594D01*
X76068924Y-32440405D01*
X76079292Y-32458363D01*
X76088651Y-32469767D01*
X76123273Y-32534542D01*
X76163104Y-32603530D01*
X76167685Y-32617630D01*
X76171856Y-32625433D01*
X76194852Y-32701242D01*
X76221311Y-32782672D01*
X76222242Y-32791532D01*
X76223094Y-32794340D01*
X76231385Y-32878520D01*
X76241000Y-32970000D01*
X76231382Y-33061501D01*
X76223094Y-33145659D01*
X76222242Y-33148466D01*
X76221311Y-33157328D01*
X76194848Y-33238771D01*
X76171856Y-33314566D01*
X76167686Y-33322366D01*
X76163104Y-33336470D01*
X76123266Y-33405470D01*
X76088651Y-33470232D01*
X76079294Y-33481633D01*
X76068924Y-33499595D01*
X76019563Y-33554415D01*
X75976675Y-33606675D01*
X75960714Y-33619773D01*
X75942887Y-33639573D01*
X75887977Y-33679467D01*
X75840232Y-33718651D01*
X75816827Y-33731161D01*
X75790500Y-33750289D01*
X75733873Y-33775500D01*
X75684566Y-33801856D01*
X75653537Y-33811268D01*
X75618424Y-33826902D01*
X75563555Y-33838564D01*
X75515659Y-33853094D01*
X75477532Y-33856849D01*
X75434180Y-33866064D01*
X75383973Y-33866064D01*
X75340000Y-33870395D01*
X75296027Y-33866064D01*
X75245820Y-33866064D01*
X75202467Y-33856849D01*
X75164340Y-33853094D01*
X75116441Y-33838563D01*
X75061576Y-33826902D01*
X75026464Y-33811269D01*
X74995433Y-33801856D01*
X74946120Y-33775498D01*
X74889500Y-33750289D01*
X74863175Y-33731163D01*
X74839767Y-33718651D01*
X74792013Y-33679460D01*
X74737113Y-33639573D01*
X74719287Y-33619776D01*
X74703324Y-33606675D01*
X74660425Y-33554402D01*
X74611076Y-33499595D01*
X74600708Y-33481637D01*
X74591348Y-33470232D01*
X74556719Y-33405447D01*
X74516896Y-33336470D01*
X74512315Y-33322371D01*
X74508143Y-33314566D01*
X74485136Y-33238725D01*
X74458689Y-33157328D01*
X74457758Y-33148471D01*
X74456905Y-33145659D01*
X74448601Y-33061349D01*
X74439000Y-32970000D01*
X74448598Y-32878672D01*
X74456905Y-32794340D01*
X74457758Y-32791527D01*
X74458689Y-32782672D01*
X74485132Y-32701288D01*
X74508143Y-32625433D01*
X74512315Y-32617626D01*
X74516896Y-32603530D01*
X74556712Y-32534565D01*
X74591348Y-32469767D01*
X74600710Y-32458359D01*
X74611076Y-32440405D01*
X74660416Y-32385607D01*
X74703324Y-32333324D01*
X74719291Y-32320219D01*
X74737113Y-32300427D01*
X74792002Y-32260546D01*
X74839767Y-32221348D01*
X74863180Y-32208833D01*
X74889500Y-32189711D01*
X74946109Y-32164506D01*
X74995433Y-32138143D01*
X75026471Y-32128727D01*
X75061576Y-32113098D01*
X75116430Y-32101438D01*
X75164340Y-32086905D01*
X75202476Y-32083148D01*
X75245820Y-32073936D01*
X75296016Y-32073936D01*
X75340000Y-32069604D01*
X75383983Y-32073936D01*
G37*
G36*
X77923983Y-32073936D02*
G01*
X77974180Y-32073936D01*
X78017524Y-32083149D01*
X78055659Y-32086905D01*
X78103566Y-32101437D01*
X78158424Y-32113098D01*
X78193530Y-32128728D01*
X78224566Y-32138143D01*
X78273884Y-32164504D01*
X78330500Y-32189711D01*
X78356822Y-32208835D01*
X78380232Y-32221348D01*
X78427988Y-32260540D01*
X78482887Y-32300427D01*
X78500711Y-32320223D01*
X78516675Y-32333324D01*
X78559572Y-32385594D01*
X78608924Y-32440405D01*
X78619292Y-32458363D01*
X78628651Y-32469767D01*
X78663273Y-32534542D01*
X78703104Y-32603530D01*
X78707685Y-32617630D01*
X78711856Y-32625433D01*
X78734852Y-32701242D01*
X78761311Y-32782672D01*
X78762242Y-32791532D01*
X78763094Y-32794340D01*
X78771384Y-32878513D01*
X78781000Y-32970000D01*
X78771383Y-33061494D01*
X78763094Y-33145659D01*
X78762242Y-33148466D01*
X78761311Y-33157328D01*
X78734848Y-33238771D01*
X78711856Y-33314566D01*
X78707686Y-33322366D01*
X78703104Y-33336470D01*
X78663266Y-33405470D01*
X78628651Y-33470232D01*
X78619294Y-33481633D01*
X78608924Y-33499595D01*
X78559563Y-33554415D01*
X78516675Y-33606675D01*
X78500714Y-33619773D01*
X78482887Y-33639573D01*
X78427977Y-33679467D01*
X78380232Y-33718651D01*
X78356827Y-33731161D01*
X78330500Y-33750289D01*
X78273873Y-33775500D01*
X78224566Y-33801856D01*
X78193537Y-33811268D01*
X78158424Y-33826902D01*
X78103555Y-33838564D01*
X78055659Y-33853094D01*
X78017533Y-33856849D01*
X77974180Y-33866064D01*
X77923972Y-33866064D01*
X77879999Y-33870395D01*
X77836026Y-33866064D01*
X77785820Y-33866064D01*
X77742467Y-33856849D01*
X77704340Y-33853094D01*
X77656441Y-33838563D01*
X77601576Y-33826902D01*
X77566464Y-33811269D01*
X77535433Y-33801856D01*
X77486120Y-33775498D01*
X77429500Y-33750289D01*
X77403175Y-33731163D01*
X77379767Y-33718651D01*
X77332013Y-33679460D01*
X77277113Y-33639573D01*
X77259287Y-33619776D01*
X77243324Y-33606675D01*
X77200425Y-33554402D01*
X77151076Y-33499595D01*
X77140708Y-33481637D01*
X77131348Y-33470232D01*
X77096719Y-33405447D01*
X77056896Y-33336470D01*
X77052315Y-33322371D01*
X77048143Y-33314566D01*
X77025136Y-33238725D01*
X76998689Y-33157328D01*
X76997758Y-33148471D01*
X76996905Y-33145659D01*
X76988600Y-33061342D01*
X76979000Y-32970000D01*
X76988599Y-32878664D01*
X76996905Y-32794340D01*
X76997758Y-32791527D01*
X76998689Y-32782672D01*
X77025132Y-32701288D01*
X77048143Y-32625433D01*
X77052315Y-32617626D01*
X77056896Y-32603530D01*
X77096712Y-32534565D01*
X77131348Y-32469767D01*
X77140710Y-32458359D01*
X77151076Y-32440405D01*
X77200416Y-32385607D01*
X77243324Y-32333324D01*
X77259291Y-32320219D01*
X77277113Y-32300427D01*
X77332002Y-32260546D01*
X77379767Y-32221348D01*
X77403180Y-32208833D01*
X77429500Y-32189711D01*
X77486109Y-32164506D01*
X77535433Y-32138143D01*
X77566471Y-32128727D01*
X77601576Y-32113098D01*
X77656430Y-32101438D01*
X77704340Y-32086905D01*
X77742476Y-32083148D01*
X77785820Y-32073936D01*
X77836016Y-32073936D01*
X77880000Y-32069604D01*
X77923983Y-32073936D01*
G37*
G36*
X80593983Y-32073936D02*
G01*
X80644180Y-32073936D01*
X80687524Y-32083149D01*
X80725659Y-32086905D01*
X80773566Y-32101437D01*
X80828424Y-32113098D01*
X80863530Y-32128728D01*
X80894566Y-32138143D01*
X80943884Y-32164504D01*
X81000500Y-32189711D01*
X81026822Y-32208835D01*
X81050232Y-32221348D01*
X81097988Y-32260540D01*
X81152887Y-32300427D01*
X81170711Y-32320223D01*
X81186675Y-32333324D01*
X81229572Y-32385594D01*
X81278924Y-32440405D01*
X81289292Y-32458363D01*
X81298651Y-32469767D01*
X81333273Y-32534542D01*
X81373104Y-32603530D01*
X81377685Y-32617630D01*
X81381856Y-32625433D01*
X81404852Y-32701242D01*
X81431311Y-32782672D01*
X81432242Y-32791532D01*
X81433094Y-32794340D01*
X81441385Y-32878520D01*
X81451000Y-32970000D01*
X81441382Y-33061501D01*
X81433094Y-33145659D01*
X81432242Y-33148466D01*
X81431311Y-33157328D01*
X81404848Y-33238771D01*
X81381856Y-33314566D01*
X81377686Y-33322366D01*
X81373104Y-33336470D01*
X81333266Y-33405470D01*
X81298651Y-33470232D01*
X81289294Y-33481633D01*
X81278924Y-33499595D01*
X81229563Y-33554415D01*
X81186675Y-33606675D01*
X81170714Y-33619773D01*
X81152887Y-33639573D01*
X81097977Y-33679467D01*
X81050232Y-33718651D01*
X81026827Y-33731161D01*
X81000500Y-33750289D01*
X80943873Y-33775500D01*
X80894566Y-33801856D01*
X80863537Y-33811268D01*
X80828424Y-33826902D01*
X80773555Y-33838564D01*
X80725659Y-33853094D01*
X80687532Y-33856849D01*
X80644180Y-33866064D01*
X80593973Y-33866064D01*
X80550000Y-33870395D01*
X80506027Y-33866064D01*
X80455820Y-33866064D01*
X80412467Y-33856849D01*
X80374340Y-33853094D01*
X80326441Y-33838563D01*
X80271576Y-33826902D01*
X80236464Y-33811269D01*
X80205433Y-33801856D01*
X80156120Y-33775498D01*
X80099500Y-33750289D01*
X80073175Y-33731163D01*
X80049767Y-33718651D01*
X80002013Y-33679460D01*
X79947113Y-33639573D01*
X79929287Y-33619776D01*
X79913324Y-33606675D01*
X79870425Y-33554402D01*
X79821076Y-33499595D01*
X79810708Y-33481637D01*
X79801348Y-33470232D01*
X79766719Y-33405447D01*
X79726896Y-33336470D01*
X79722315Y-33322371D01*
X79718143Y-33314566D01*
X79695136Y-33238725D01*
X79668689Y-33157328D01*
X79667758Y-33148471D01*
X79666905Y-33145659D01*
X79658601Y-33061349D01*
X79649000Y-32970000D01*
X79658598Y-32878672D01*
X79666905Y-32794340D01*
X79667758Y-32791527D01*
X79668689Y-32782672D01*
X79695132Y-32701288D01*
X79718143Y-32625433D01*
X79722315Y-32617626D01*
X79726896Y-32603530D01*
X79766712Y-32534565D01*
X79801348Y-32469767D01*
X79810710Y-32458359D01*
X79821076Y-32440405D01*
X79870416Y-32385607D01*
X79913324Y-32333324D01*
X79929291Y-32320219D01*
X79947113Y-32300427D01*
X80002002Y-32260546D01*
X80049767Y-32221348D01*
X80073180Y-32208833D01*
X80099500Y-32189711D01*
X80156109Y-32164506D01*
X80205433Y-32138143D01*
X80236471Y-32128727D01*
X80271576Y-32113098D01*
X80326430Y-32101438D01*
X80374340Y-32086905D01*
X80412476Y-32083148D01*
X80455820Y-32073936D01*
X80506016Y-32073936D01*
X80550000Y-32069604D01*
X80593983Y-32073936D01*
G37*
G36*
X83133983Y-32073936D02*
G01*
X83184180Y-32073936D01*
X83227524Y-32083149D01*
X83265659Y-32086905D01*
X83313566Y-32101437D01*
X83368424Y-32113098D01*
X83403530Y-32128728D01*
X83434566Y-32138143D01*
X83483884Y-32164504D01*
X83540500Y-32189711D01*
X83566822Y-32208835D01*
X83590232Y-32221348D01*
X83637988Y-32260540D01*
X83692887Y-32300427D01*
X83710711Y-32320223D01*
X83726675Y-32333324D01*
X83769572Y-32385594D01*
X83818924Y-32440405D01*
X83829292Y-32458363D01*
X83838651Y-32469767D01*
X83873273Y-32534542D01*
X83913104Y-32603530D01*
X83917685Y-32617630D01*
X83921856Y-32625433D01*
X83944852Y-32701242D01*
X83971311Y-32782672D01*
X83972242Y-32791532D01*
X83973094Y-32794340D01*
X83981385Y-32878520D01*
X83991000Y-32970000D01*
X83981382Y-33061501D01*
X83973094Y-33145659D01*
X83972242Y-33148466D01*
X83971311Y-33157328D01*
X83944848Y-33238771D01*
X83921856Y-33314566D01*
X83917686Y-33322366D01*
X83913104Y-33336470D01*
X83873266Y-33405470D01*
X83838651Y-33470232D01*
X83829294Y-33481633D01*
X83818924Y-33499595D01*
X83769563Y-33554415D01*
X83726675Y-33606675D01*
X83710714Y-33619773D01*
X83692887Y-33639573D01*
X83637977Y-33679467D01*
X83590232Y-33718651D01*
X83566827Y-33731161D01*
X83540500Y-33750289D01*
X83483873Y-33775500D01*
X83434566Y-33801856D01*
X83403537Y-33811268D01*
X83368424Y-33826902D01*
X83313555Y-33838564D01*
X83265659Y-33853094D01*
X83227532Y-33856849D01*
X83184180Y-33866064D01*
X83133973Y-33866064D01*
X83090000Y-33870395D01*
X83046027Y-33866064D01*
X82995820Y-33866064D01*
X82952467Y-33856849D01*
X82914340Y-33853094D01*
X82866441Y-33838563D01*
X82811576Y-33826902D01*
X82776464Y-33811269D01*
X82745433Y-33801856D01*
X82696120Y-33775498D01*
X82639500Y-33750289D01*
X82613175Y-33731163D01*
X82589767Y-33718651D01*
X82542013Y-33679460D01*
X82487113Y-33639573D01*
X82469287Y-33619776D01*
X82453324Y-33606675D01*
X82410425Y-33554402D01*
X82361076Y-33499595D01*
X82350708Y-33481637D01*
X82341348Y-33470232D01*
X82306719Y-33405447D01*
X82266896Y-33336470D01*
X82262315Y-33322371D01*
X82258143Y-33314566D01*
X82235136Y-33238725D01*
X82208689Y-33157328D01*
X82207758Y-33148471D01*
X82206905Y-33145659D01*
X82198600Y-33061342D01*
X82189000Y-32970000D01*
X82198599Y-32878664D01*
X82206905Y-32794340D01*
X82207758Y-32791527D01*
X82208689Y-32782672D01*
X82235132Y-32701288D01*
X82258143Y-32625433D01*
X82262315Y-32617626D01*
X82266896Y-32603530D01*
X82306712Y-32534565D01*
X82341348Y-32469767D01*
X82350710Y-32458359D01*
X82361076Y-32440405D01*
X82410416Y-32385607D01*
X82453324Y-32333324D01*
X82469291Y-32320219D01*
X82487113Y-32300427D01*
X82542002Y-32260546D01*
X82589767Y-32221348D01*
X82613180Y-32208833D01*
X82639500Y-32189711D01*
X82696109Y-32164506D01*
X82745433Y-32138143D01*
X82776471Y-32128727D01*
X82811576Y-32113098D01*
X82866430Y-32101438D01*
X82914340Y-32086905D01*
X82952476Y-32083148D01*
X82995820Y-32073936D01*
X83046016Y-32073936D01*
X83089999Y-32069604D01*
X83133983Y-32073936D01*
G37*
G36*
X85673983Y-32073936D02*
G01*
X85724180Y-32073936D01*
X85767524Y-32083149D01*
X85805659Y-32086905D01*
X85853566Y-32101437D01*
X85908424Y-32113098D01*
X85943530Y-32128728D01*
X85974566Y-32138143D01*
X86023884Y-32164504D01*
X86080500Y-32189711D01*
X86106822Y-32208835D01*
X86130232Y-32221348D01*
X86177988Y-32260540D01*
X86232887Y-32300427D01*
X86250711Y-32320223D01*
X86266675Y-32333324D01*
X86309572Y-32385594D01*
X86358924Y-32440405D01*
X86369292Y-32458363D01*
X86378651Y-32469767D01*
X86413273Y-32534542D01*
X86453104Y-32603530D01*
X86457685Y-32617630D01*
X86461856Y-32625433D01*
X86484852Y-32701242D01*
X86511311Y-32782672D01*
X86512242Y-32791532D01*
X86513094Y-32794340D01*
X86521384Y-32878513D01*
X86531000Y-32970000D01*
X86521383Y-33061494D01*
X86513094Y-33145659D01*
X86512242Y-33148466D01*
X86511311Y-33157328D01*
X86484848Y-33238771D01*
X86461856Y-33314566D01*
X86457686Y-33322366D01*
X86453104Y-33336470D01*
X86413266Y-33405470D01*
X86378651Y-33470232D01*
X86369294Y-33481633D01*
X86358924Y-33499595D01*
X86309563Y-33554415D01*
X86266675Y-33606675D01*
X86250714Y-33619773D01*
X86232887Y-33639573D01*
X86177977Y-33679467D01*
X86130232Y-33718651D01*
X86106827Y-33731161D01*
X86080500Y-33750289D01*
X86023873Y-33775500D01*
X85974566Y-33801856D01*
X85943537Y-33811268D01*
X85908424Y-33826902D01*
X85853555Y-33838564D01*
X85805659Y-33853094D01*
X85767532Y-33856849D01*
X85724180Y-33866064D01*
X85673973Y-33866064D01*
X85630000Y-33870395D01*
X85586027Y-33866064D01*
X85535820Y-33866064D01*
X85492467Y-33856849D01*
X85454340Y-33853094D01*
X85406441Y-33838563D01*
X85351576Y-33826902D01*
X85316464Y-33811269D01*
X85285433Y-33801856D01*
X85236120Y-33775498D01*
X85179500Y-33750289D01*
X85153175Y-33731163D01*
X85129767Y-33718651D01*
X85082013Y-33679460D01*
X85027113Y-33639573D01*
X85009287Y-33619776D01*
X84993324Y-33606675D01*
X84950425Y-33554402D01*
X84901076Y-33499595D01*
X84890708Y-33481637D01*
X84881348Y-33470232D01*
X84846719Y-33405447D01*
X84806896Y-33336470D01*
X84802315Y-33322371D01*
X84798143Y-33314566D01*
X84775136Y-33238725D01*
X84748689Y-33157328D01*
X84747758Y-33148471D01*
X84746905Y-33145659D01*
X84738601Y-33061349D01*
X84729000Y-32970000D01*
X84738598Y-32878672D01*
X84746905Y-32794340D01*
X84747758Y-32791527D01*
X84748689Y-32782672D01*
X84775132Y-32701288D01*
X84798143Y-32625433D01*
X84802315Y-32617626D01*
X84806896Y-32603530D01*
X84846712Y-32534565D01*
X84881348Y-32469767D01*
X84890710Y-32458359D01*
X84901076Y-32440405D01*
X84950416Y-32385607D01*
X84993324Y-32333324D01*
X85009291Y-32320219D01*
X85027113Y-32300427D01*
X85082002Y-32260546D01*
X85129767Y-32221348D01*
X85153180Y-32208833D01*
X85179500Y-32189711D01*
X85236109Y-32164506D01*
X85285433Y-32138143D01*
X85316471Y-32128727D01*
X85351576Y-32113098D01*
X85406430Y-32101438D01*
X85454340Y-32086905D01*
X85492476Y-32083148D01*
X85535820Y-32073936D01*
X85586016Y-32073936D01*
X85630000Y-32069604D01*
X85673983Y-32073936D01*
G37*
G36*
X88213983Y-32073936D02*
G01*
X88264180Y-32073936D01*
X88307524Y-32083149D01*
X88345659Y-32086905D01*
X88393566Y-32101437D01*
X88448424Y-32113098D01*
X88483530Y-32128728D01*
X88514566Y-32138143D01*
X88563884Y-32164504D01*
X88620500Y-32189711D01*
X88646822Y-32208835D01*
X88670232Y-32221348D01*
X88717988Y-32260540D01*
X88772887Y-32300427D01*
X88790711Y-32320223D01*
X88806675Y-32333324D01*
X88849572Y-32385594D01*
X88898924Y-32440405D01*
X88909292Y-32458363D01*
X88918651Y-32469767D01*
X88953273Y-32534542D01*
X88993104Y-32603530D01*
X88997685Y-32617630D01*
X89001856Y-32625433D01*
X89024852Y-32701242D01*
X89051311Y-32782672D01*
X89052242Y-32791532D01*
X89053094Y-32794340D01*
X89061385Y-32878520D01*
X89071000Y-32970000D01*
X89061382Y-33061501D01*
X89053094Y-33145659D01*
X89052242Y-33148466D01*
X89051311Y-33157328D01*
X89024848Y-33238771D01*
X89001856Y-33314566D01*
X88997686Y-33322366D01*
X88993104Y-33336470D01*
X88953266Y-33405470D01*
X88918651Y-33470232D01*
X88909294Y-33481633D01*
X88898924Y-33499595D01*
X88849563Y-33554415D01*
X88806675Y-33606675D01*
X88790714Y-33619773D01*
X88772887Y-33639573D01*
X88717977Y-33679467D01*
X88670232Y-33718651D01*
X88646827Y-33731161D01*
X88620500Y-33750289D01*
X88563873Y-33775500D01*
X88514566Y-33801856D01*
X88483537Y-33811268D01*
X88448424Y-33826902D01*
X88393555Y-33838564D01*
X88345659Y-33853094D01*
X88307532Y-33856849D01*
X88264180Y-33866064D01*
X88213973Y-33866064D01*
X88170000Y-33870395D01*
X88126027Y-33866064D01*
X88075820Y-33866064D01*
X88032467Y-33856849D01*
X87994340Y-33853094D01*
X87946441Y-33838563D01*
X87891576Y-33826902D01*
X87856464Y-33811269D01*
X87825433Y-33801856D01*
X87776120Y-33775498D01*
X87719500Y-33750289D01*
X87693175Y-33731163D01*
X87669767Y-33718651D01*
X87622013Y-33679460D01*
X87567113Y-33639573D01*
X87549287Y-33619776D01*
X87533324Y-33606675D01*
X87490425Y-33554402D01*
X87441076Y-33499595D01*
X87430708Y-33481637D01*
X87421348Y-33470232D01*
X87386719Y-33405447D01*
X87346896Y-33336470D01*
X87342315Y-33322371D01*
X87338143Y-33314566D01*
X87315136Y-33238725D01*
X87288689Y-33157328D01*
X87287758Y-33148471D01*
X87286905Y-33145659D01*
X87278601Y-33061349D01*
X87269000Y-32970000D01*
X87278598Y-32878672D01*
X87286905Y-32794340D01*
X87287758Y-32791527D01*
X87288689Y-32782672D01*
X87315132Y-32701288D01*
X87338143Y-32625433D01*
X87342315Y-32617626D01*
X87346896Y-32603530D01*
X87386712Y-32534565D01*
X87421348Y-32469767D01*
X87430710Y-32458359D01*
X87441076Y-32440405D01*
X87490416Y-32385607D01*
X87533324Y-32333324D01*
X87549291Y-32320219D01*
X87567113Y-32300427D01*
X87622002Y-32260546D01*
X87669767Y-32221348D01*
X87693180Y-32208833D01*
X87719500Y-32189711D01*
X87776109Y-32164506D01*
X87825433Y-32138143D01*
X87856471Y-32128727D01*
X87891576Y-32113098D01*
X87946430Y-32101438D01*
X87994340Y-32086905D01*
X88032476Y-32083148D01*
X88075820Y-32073936D01*
X88126016Y-32073936D01*
X88169999Y-32069604D01*
X88213983Y-32073936D01*
G37*
G36*
X90753983Y-32073936D02*
G01*
X90804180Y-32073936D01*
X90847524Y-32083149D01*
X90885659Y-32086905D01*
X90933566Y-32101437D01*
X90988424Y-32113098D01*
X91023530Y-32128728D01*
X91054566Y-32138143D01*
X91103884Y-32164504D01*
X91160500Y-32189711D01*
X91186822Y-32208835D01*
X91210232Y-32221348D01*
X91257988Y-32260540D01*
X91312887Y-32300427D01*
X91330711Y-32320223D01*
X91346675Y-32333324D01*
X91389572Y-32385594D01*
X91438924Y-32440405D01*
X91449292Y-32458363D01*
X91458651Y-32469767D01*
X91493273Y-32534542D01*
X91533104Y-32603530D01*
X91537685Y-32617630D01*
X91541856Y-32625433D01*
X91564852Y-32701242D01*
X91591311Y-32782672D01*
X91592242Y-32791532D01*
X91593094Y-32794340D01*
X91601385Y-32878520D01*
X91611000Y-32970000D01*
X91601382Y-33061501D01*
X91593094Y-33145659D01*
X91592242Y-33148466D01*
X91591311Y-33157328D01*
X91564848Y-33238771D01*
X91541856Y-33314566D01*
X91537686Y-33322366D01*
X91533104Y-33336470D01*
X91493266Y-33405470D01*
X91458651Y-33470232D01*
X91449294Y-33481633D01*
X91438924Y-33499595D01*
X91389563Y-33554415D01*
X91346675Y-33606675D01*
X91330714Y-33619773D01*
X91312887Y-33639573D01*
X91257977Y-33679467D01*
X91210232Y-33718651D01*
X91186827Y-33731161D01*
X91160500Y-33750289D01*
X91103873Y-33775500D01*
X91054566Y-33801856D01*
X91023537Y-33811268D01*
X90988424Y-33826902D01*
X90933555Y-33838564D01*
X90885659Y-33853094D01*
X90847532Y-33856849D01*
X90804180Y-33866064D01*
X90753973Y-33866064D01*
X90710000Y-33870395D01*
X90666027Y-33866064D01*
X90615820Y-33866064D01*
X90572467Y-33856849D01*
X90534340Y-33853094D01*
X90486441Y-33838563D01*
X90431576Y-33826902D01*
X90396464Y-33811269D01*
X90365433Y-33801856D01*
X90316120Y-33775498D01*
X90259500Y-33750289D01*
X90233175Y-33731163D01*
X90209767Y-33718651D01*
X90162013Y-33679460D01*
X90107113Y-33639573D01*
X90089287Y-33619776D01*
X90073324Y-33606675D01*
X90030425Y-33554402D01*
X89981076Y-33499595D01*
X89970708Y-33481637D01*
X89961348Y-33470232D01*
X89926719Y-33405447D01*
X89886896Y-33336470D01*
X89882315Y-33322371D01*
X89878143Y-33314566D01*
X89855136Y-33238725D01*
X89828689Y-33157328D01*
X89827758Y-33148471D01*
X89826905Y-33145659D01*
X89818601Y-33061349D01*
X89809000Y-32970000D01*
X89818598Y-32878672D01*
X89826905Y-32794340D01*
X89827758Y-32791527D01*
X89828689Y-32782672D01*
X89855132Y-32701288D01*
X89878143Y-32625433D01*
X89882315Y-32617626D01*
X89886896Y-32603530D01*
X89926712Y-32534565D01*
X89961348Y-32469767D01*
X89970710Y-32458359D01*
X89981076Y-32440405D01*
X90030416Y-32385607D01*
X90073324Y-32333324D01*
X90089291Y-32320219D01*
X90107113Y-32300427D01*
X90162002Y-32260546D01*
X90209767Y-32221348D01*
X90233180Y-32208833D01*
X90259500Y-32189711D01*
X90316109Y-32164506D01*
X90365433Y-32138143D01*
X90396471Y-32128727D01*
X90431576Y-32113098D01*
X90486430Y-32101438D01*
X90534340Y-32086905D01*
X90572476Y-32083148D01*
X90615820Y-32073936D01*
X90666016Y-32073936D01*
X90710000Y-32069604D01*
X90753983Y-32073936D01*
G37*
G36*
X93293983Y-32073936D02*
G01*
X93344180Y-32073936D01*
X93387524Y-32083149D01*
X93425659Y-32086905D01*
X93473566Y-32101437D01*
X93528424Y-32113098D01*
X93563530Y-32128728D01*
X93594566Y-32138143D01*
X93643884Y-32164504D01*
X93700500Y-32189711D01*
X93726822Y-32208835D01*
X93750232Y-32221348D01*
X93797988Y-32260540D01*
X93852887Y-32300427D01*
X93870711Y-32320223D01*
X93886675Y-32333324D01*
X93929572Y-32385594D01*
X93978924Y-32440405D01*
X93989292Y-32458363D01*
X93998651Y-32469767D01*
X94033273Y-32534542D01*
X94073104Y-32603530D01*
X94077685Y-32617630D01*
X94081856Y-32625433D01*
X94104852Y-32701242D01*
X94131311Y-32782672D01*
X94132242Y-32791532D01*
X94133094Y-32794340D01*
X94141385Y-32878520D01*
X94151000Y-32970000D01*
X94141382Y-33061501D01*
X94133094Y-33145659D01*
X94132242Y-33148466D01*
X94131311Y-33157328D01*
X94104848Y-33238771D01*
X94081856Y-33314566D01*
X94077686Y-33322366D01*
X94073104Y-33336470D01*
X94033266Y-33405470D01*
X93998651Y-33470232D01*
X93989294Y-33481633D01*
X93978924Y-33499595D01*
X93929563Y-33554415D01*
X93886675Y-33606675D01*
X93870714Y-33619773D01*
X93852887Y-33639573D01*
X93797977Y-33679467D01*
X93750232Y-33718651D01*
X93726827Y-33731161D01*
X93700500Y-33750289D01*
X93643873Y-33775500D01*
X93594566Y-33801856D01*
X93563537Y-33811268D01*
X93528424Y-33826902D01*
X93473555Y-33838564D01*
X93425659Y-33853094D01*
X93387532Y-33856849D01*
X93344180Y-33866064D01*
X93293973Y-33866064D01*
X93250000Y-33870395D01*
X93206027Y-33866064D01*
X93155820Y-33866064D01*
X93112467Y-33856849D01*
X93074340Y-33853094D01*
X93026441Y-33838563D01*
X92971576Y-33826902D01*
X92936464Y-33811269D01*
X92905433Y-33801856D01*
X92856120Y-33775498D01*
X92799500Y-33750289D01*
X92773175Y-33731163D01*
X92749767Y-33718651D01*
X92702013Y-33679460D01*
X92647113Y-33639573D01*
X92629287Y-33619776D01*
X92613324Y-33606675D01*
X92570425Y-33554402D01*
X92521076Y-33499595D01*
X92510708Y-33481637D01*
X92501348Y-33470232D01*
X92466719Y-33405447D01*
X92426896Y-33336470D01*
X92422315Y-33322371D01*
X92418143Y-33314566D01*
X92395136Y-33238725D01*
X92368689Y-33157328D01*
X92367758Y-33148471D01*
X92366905Y-33145659D01*
X92358600Y-33061342D01*
X92349000Y-32970000D01*
X92358599Y-32878664D01*
X92366905Y-32794340D01*
X92367758Y-32791527D01*
X92368689Y-32782672D01*
X92395132Y-32701288D01*
X92418143Y-32625433D01*
X92422315Y-32617626D01*
X92426896Y-32603530D01*
X92466712Y-32534565D01*
X92501348Y-32469767D01*
X92510710Y-32458359D01*
X92521076Y-32440405D01*
X92570416Y-32385607D01*
X92613324Y-32333324D01*
X92629291Y-32320219D01*
X92647113Y-32300427D01*
X92702002Y-32260546D01*
X92749767Y-32221348D01*
X92773180Y-32208833D01*
X92799500Y-32189711D01*
X92856109Y-32164506D01*
X92905433Y-32138143D01*
X92936471Y-32128727D01*
X92971576Y-32113098D01*
X93026430Y-32101438D01*
X93074340Y-32086905D01*
X93112476Y-32083148D01*
X93155820Y-32073936D01*
X93206016Y-32073936D01*
X93249999Y-32069604D01*
X93293983Y-32073936D01*
G37*
M02*
