G04 #@! TF.GenerationSoftware,KiCad,Pcbnew,7.0.6+dfsg-1*
G04 #@! TF.CreationDate,2023-08-24T12:50:21+02:00*
G04 #@! TF.ProjectId,OV7670,4f563736-3730-42e6-9b69-6361645f7063,v1.2*
G04 #@! TF.SameCoordinates,Original*
G04 #@! TF.FileFunction,Copper,L4,Bot*
G04 #@! TF.FilePolarity,Positive*
%FSLAX46Y46*%
G04 Gerber Fmt 4.6, Leading zero omitted, Abs format (unit mm)*
G04 Created by KiCad (PCBNEW 7.0.6+dfsg-1) date 2023-08-24 12:50:21*
%MOMM*%
%LPD*%
G01*
G04 APERTURE LIST*
G04 #@! TA.AperFunction,ComponentPad*
%ADD10R,1.700000X1.700000*%
G04 #@! TD*
G04 #@! TA.AperFunction,ComponentPad*
%ADD11O,1.700000X1.700000*%
G04 #@! TD*
G04 #@! TA.AperFunction,ViaPad*
%ADD12C,0.600000*%
G04 #@! TD*
G04 #@! TA.AperFunction,Conductor*
%ADD13C,0.250000*%
G04 #@! TD*
G04 APERTURE END LIST*
D10*
X57550000Y-35510000D03*
D11*
X57550000Y-32970000D03*
X60090000Y-35510000D03*
X60090000Y-32970000D03*
X62630000Y-35510000D03*
X62630000Y-32970000D03*
X65170000Y-35510000D03*
X65170000Y-32970000D03*
X67710000Y-35510000D03*
X67710000Y-32970000D03*
X70250000Y-35510000D03*
X70250000Y-32970000D03*
D10*
X80550000Y-35510000D03*
D11*
X80550000Y-32970000D03*
X83090000Y-35510000D03*
X83090000Y-32970000D03*
X85630000Y-35510000D03*
X85630000Y-32970000D03*
X88170000Y-35510000D03*
X88170000Y-32970000D03*
X90710000Y-35510000D03*
X90710000Y-32970000D03*
X93250000Y-35510000D03*
X93250000Y-32970000D03*
D10*
X72800000Y-35510000D03*
D11*
X72800000Y-32970000D03*
X75340000Y-35510000D03*
X75340000Y-32970000D03*
X77880000Y-35510000D03*
X77880000Y-32970000D03*
D10*
X72800000Y-41760000D03*
D11*
X72800000Y-39220000D03*
X75340000Y-41760000D03*
X75340000Y-39220000D03*
X77880000Y-41760000D03*
X77880000Y-39220000D03*
D10*
X70150000Y-41760000D03*
D11*
X70150000Y-39220000D03*
D10*
X85300000Y-48234000D03*
D11*
X85300000Y-45694000D03*
X82760000Y-48234000D03*
X82760000Y-45694000D03*
X80220000Y-48234000D03*
X80220000Y-45694000D03*
X77680000Y-48234000D03*
X77680000Y-45694000D03*
X75140000Y-48234000D03*
X75140000Y-45694000D03*
X72600000Y-48234000D03*
X72600000Y-45694000D03*
X70060000Y-48234000D03*
X70060000Y-45694000D03*
X67520000Y-48234000D03*
X67520000Y-45694000D03*
X64980000Y-48234000D03*
X64980000Y-45694000D03*
D12*
X61650000Y-36760000D03*
X68377707Y-39220000D03*
X66150000Y-43560000D03*
X62157707Y-49214988D03*
X70450000Y-37360000D03*
X80650000Y-37560000D03*
X68816347Y-42776348D03*
X62812000Y-38328000D03*
X81092207Y-39752003D03*
X68478348Y-40184347D03*
X63828000Y-38328000D03*
X81092207Y-38952500D03*
X83633207Y-42734988D03*
X85850523Y-42222585D03*
X85461118Y-40241577D03*
X86837806Y-39060685D03*
X82609296Y-41526577D03*
X87462306Y-37811685D03*
X83307707Y-38953010D03*
X82997707Y-43509488D03*
X87658633Y-39565352D03*
X85850523Y-41325633D03*
X79757707Y-38734988D03*
X82618132Y-38327018D03*
X85917707Y-36974988D03*
X91768000Y-34264000D03*
X88673207Y-38433635D03*
X84149769Y-39600437D03*
D13*
X76607707Y-32498705D02*
X75904001Y-31794999D01*
X76607707Y-35976709D02*
X76607707Y-32498705D01*
X84774770Y-39963071D02*
X84774770Y-39322051D01*
X82127408Y-37702998D02*
X81309398Y-36884988D01*
X84774770Y-39322051D02*
X83155717Y-37702998D01*
X83155717Y-37702998D02*
X82127408Y-37702998D01*
X81309398Y-36884988D02*
X77515986Y-36884988D01*
X75904001Y-31794999D02*
X66345001Y-31794999D01*
X83889829Y-40848012D02*
X84774770Y-39963071D01*
X77515986Y-36884988D02*
X76607707Y-35976709D01*
X82404683Y-40848012D02*
X83889829Y-40848012D01*
X79044999Y-44207696D02*
X82404683Y-40848012D01*
X79044999Y-47058999D02*
X79044999Y-44207696D01*
X80220000Y-48234000D02*
X79044999Y-47058999D01*
X66345001Y-31794999D02*
X65170000Y-32970000D01*
X79267707Y-32618705D02*
X77993990Y-31344988D01*
X86283694Y-46869001D02*
X87257707Y-45894988D01*
X83685695Y-36802976D02*
X82597689Y-36802976D01*
X81395001Y-46869001D02*
X86283694Y-46869001D01*
X79439999Y-34334999D02*
X79267707Y-34162707D01*
X81827707Y-34502705D02*
X81660001Y-34334999D01*
X81660001Y-34334999D02*
X79439999Y-34334999D01*
X79267707Y-34162707D02*
X79267707Y-32618705D01*
X81827707Y-36032994D02*
X81827707Y-34502705D01*
X82597689Y-36802976D02*
X81827707Y-36032994D01*
X87257707Y-45894988D02*
X87257707Y-40374988D01*
X87257707Y-40374988D02*
X83685695Y-36802976D01*
X77993990Y-31344988D02*
X65056010Y-31344988D01*
X80220000Y-45694000D02*
X81395001Y-46869001D01*
X65056010Y-31344988D02*
X63847707Y-32553291D01*
X63847707Y-32553291D02*
X63847707Y-34187707D01*
X63847707Y-34187707D02*
X65170000Y-35510000D01*
X70250000Y-32970000D02*
X68937707Y-34282293D01*
X63804999Y-41145000D02*
X63804999Y-47058999D01*
X68937707Y-34282293D02*
X68937707Y-36012292D01*
X68937707Y-36012292D02*
X63804999Y-41145000D01*
X63804999Y-47058999D02*
X64980000Y-48234000D01*
X63828000Y-38328000D02*
X63828000Y-34915281D01*
X63828000Y-34915281D02*
X62630000Y-33717281D01*
X62630000Y-33717281D02*
X62630000Y-32970000D01*
X82997707Y-43509488D02*
X82997707Y-42022050D01*
X83074769Y-41944988D02*
X85231168Y-41944988D01*
X82997707Y-42022050D02*
X83074769Y-41944988D01*
X85231168Y-41944988D02*
X85850523Y-41325633D01*
X83633207Y-42734988D02*
X83973207Y-42394988D01*
X83973207Y-42394988D02*
X85678120Y-42394988D01*
X85678120Y-42394988D02*
X85850523Y-42222585D01*
X85300000Y-45694000D02*
X85300000Y-45682695D01*
X85300000Y-45682695D02*
X86475023Y-44507672D01*
X86475023Y-44507672D02*
X86475023Y-40372304D01*
X86475023Y-40372304D02*
X83355706Y-37252987D01*
X80570821Y-35510000D02*
X80550000Y-35510000D01*
X83355706Y-37252987D02*
X82313808Y-37252987D01*
X82313808Y-37252987D02*
X80570821Y-35510000D01*
X75140000Y-48234000D02*
X76315001Y-49409001D01*
X76315001Y-49409001D02*
X86410001Y-49409001D01*
X91029413Y-40106000D02*
X94875012Y-36260401D01*
X94875012Y-32219599D02*
X94000401Y-31344988D01*
X86410001Y-49409001D02*
X87707707Y-48111295D01*
X87707707Y-48111295D02*
X87707707Y-40524988D01*
X87255012Y-31344988D02*
X85630000Y-32970000D01*
X87707707Y-40524988D02*
X88126695Y-40106000D01*
X88126695Y-40106000D02*
X91029413Y-40106000D01*
X94875012Y-36260401D02*
X94875012Y-32219599D01*
X94000401Y-31344988D02*
X87255012Y-31344988D01*
X82609296Y-41526577D02*
X82640885Y-41494988D01*
X82640885Y-41494988D02*
X84207707Y-41494988D01*
X84207707Y-41494988D02*
X85461118Y-40241577D01*
X68816347Y-42776348D02*
X68975000Y-42935000D01*
X68975000Y-42935000D02*
X78366701Y-42935000D01*
X78366701Y-42935000D02*
X81092207Y-40209494D01*
X81092207Y-40209494D02*
X81092207Y-39752003D01*
X83307707Y-38953010D02*
X82985087Y-38953010D01*
X82985087Y-38953010D02*
X78472108Y-43465989D01*
X78472108Y-43465989D02*
X72288011Y-43465989D01*
X72288011Y-43465989D02*
X70060000Y-45694000D01*
X67520000Y-48234000D02*
X68884999Y-46869001D01*
X68884999Y-46869001D02*
X73164001Y-46869001D01*
X78658493Y-43916000D02*
X82976483Y-39598010D01*
X73164001Y-46869001D02*
X73775001Y-46258001D01*
X73775001Y-46258001D02*
X73775001Y-45319997D01*
X73775001Y-45319997D02*
X75178998Y-43916000D01*
X75178998Y-43916000D02*
X78658493Y-43916000D01*
X82976483Y-39598010D02*
X84147342Y-39598010D01*
X84147342Y-39598010D02*
X84149769Y-39600437D01*
X67710000Y-32970000D02*
X66437707Y-34242293D01*
X66437707Y-37714988D02*
X62917707Y-41234988D01*
X73086701Y-49409000D02*
X73965000Y-48530701D01*
X66437707Y-34242293D02*
X66437707Y-37714988D01*
X62917707Y-47833408D02*
X64493299Y-49409000D01*
X62917707Y-41234988D02*
X62917707Y-47833408D01*
X64493299Y-49409000D02*
X73086701Y-49409000D01*
X73965000Y-48530701D02*
X73965000Y-47701707D01*
X73965000Y-47701707D02*
X74797707Y-46869000D01*
X74797707Y-46869000D02*
X76505000Y-46869000D01*
X76505000Y-46869000D02*
X77680000Y-45694000D01*
X70250000Y-35510000D02*
X64980000Y-40780000D01*
X64980000Y-40780000D02*
X64980000Y-45694000D01*
X68478348Y-40184347D02*
X68689001Y-40395001D01*
X68689001Y-40395001D02*
X78981578Y-40395001D01*
X78981578Y-40395001D02*
X80424079Y-38952500D01*
X80424079Y-38952500D02*
X81092207Y-38952500D01*
X68377707Y-39220000D02*
X70150000Y-39220000D01*
X87462306Y-37811685D02*
X88408315Y-37811685D01*
X88408315Y-37811685D02*
X90710000Y-35510000D01*
X86837806Y-39060685D02*
X86837806Y-36842194D01*
X86837806Y-36842194D02*
X88170000Y-35510000D01*
X86994999Y-34945999D02*
X87676998Y-34264000D01*
X86994999Y-35897696D02*
X86994999Y-34945999D01*
X85917707Y-36974988D02*
X86994999Y-35897696D01*
X87676998Y-34264000D02*
X91768000Y-34264000D01*
X89525367Y-38433635D02*
X92074999Y-35884003D01*
X92074999Y-34882005D02*
X92400001Y-34557003D01*
X92400001Y-33819999D02*
X93250000Y-32970000D01*
X88673207Y-38433635D02*
X89525367Y-38433635D01*
X92074999Y-35884003D02*
X92074999Y-34882005D01*
X92400001Y-34557003D02*
X92400001Y-33819999D01*
X82618132Y-38327018D02*
X80165677Y-38327018D01*
X80165677Y-38327018D02*
X79757707Y-38734988D01*
X57700000Y-36760000D02*
X61650000Y-36760000D01*
X57550000Y-36610000D02*
X57700000Y-36760000D01*
X57550000Y-35510000D02*
X57550000Y-36610000D01*
X62812000Y-35692000D02*
X62630000Y-35510000D01*
X62812000Y-38328000D02*
X62812000Y-35692000D01*
X94425001Y-36074001D02*
X94425001Y-32405999D01*
X87658633Y-39565352D02*
X90933650Y-39565352D01*
X90933650Y-39565352D02*
X94425001Y-36074001D01*
X91559999Y-32120001D02*
X90710000Y-32970000D01*
X91885001Y-31794999D02*
X91559999Y-32120001D01*
X94425001Y-32405999D02*
X93814001Y-31794999D01*
X93814001Y-31794999D02*
X91885001Y-31794999D01*
M02*
