%TF.GenerationSoftware,KiCad,Pcbnew,7.0.6+dfsg-1*%
%TF.CreationDate,2023-08-24T12:50:27+02:00*%
%TF.ProjectId,OV7670,4f563736-3730-42e6-9b69-6361645f7063,v1.2*%
%TF.SameCoordinates,Original*%
%TF.FileFunction,Drillmap*%
%TF.FilePolarity,Positive*%
%FSLAX45Y45*%
G04 Gerber Fmt 4.5, Leading zero omitted, Abs format (unit mm)*
G04 Created by KiCad (PCBNEW 7.0.6+dfsg-1) date 2023-08-24 12:50:27*
%MOMM*%
%LPD*%
G01*
G04 APERTURE LIST*
%ADD10C,0.150000*%
%ADD11C,0.200000*%
G04 APERTURE END LIST*
D10*
X9513771Y-4076000D02*
X9513771Y-2876000D01*
X6157000Y-4994000D02*
X8854000Y-4994000D01*
X6157000Y-4076000D02*
X6157000Y-4994000D01*
X8854000Y-4076501D02*
X9514000Y-4076501D01*
X8854000Y-4994000D02*
X8854000Y-4076501D01*
X5574459Y-4076000D02*
X6157000Y-4076000D01*
X5575000Y-2876000D02*
X5575000Y-4076000D01*
X9513771Y-2876000D02*
X5575000Y-2876000D01*
D11*
X5827735Y-5312984D02*
X5827735Y-5112984D01*
X5827735Y-5112984D02*
X5875354Y-5112984D01*
X5875354Y-5112984D02*
X5903926Y-5122508D01*
X5903926Y-5122508D02*
X5922973Y-5141555D01*
X5922973Y-5141555D02*
X5932497Y-5160603D01*
X5932497Y-5160603D02*
X5942021Y-5198698D01*
X5942021Y-5198698D02*
X5942021Y-5227270D01*
X5942021Y-5227270D02*
X5932497Y-5265365D01*
X5932497Y-5265365D02*
X5922973Y-5284412D01*
X5922973Y-5284412D02*
X5903926Y-5303460D01*
X5903926Y-5303460D02*
X5875354Y-5312984D01*
X5875354Y-5312984D02*
X5827735Y-5312984D01*
X6027735Y-5312984D02*
X6027735Y-5179650D01*
X6027735Y-5217746D02*
X6037259Y-5198698D01*
X6037259Y-5198698D02*
X6046783Y-5189174D01*
X6046783Y-5189174D02*
X6065831Y-5179650D01*
X6065831Y-5179650D02*
X6084878Y-5179650D01*
X6151545Y-5312984D02*
X6151545Y-5179650D01*
X6151545Y-5112984D02*
X6142021Y-5122508D01*
X6142021Y-5122508D02*
X6151545Y-5132031D01*
X6151545Y-5132031D02*
X6161069Y-5122508D01*
X6161069Y-5122508D02*
X6151545Y-5112984D01*
X6151545Y-5112984D02*
X6151545Y-5132031D01*
X6275354Y-5312984D02*
X6256307Y-5303460D01*
X6256307Y-5303460D02*
X6246783Y-5284412D01*
X6246783Y-5284412D02*
X6246783Y-5112984D01*
X6380116Y-5312984D02*
X6361069Y-5303460D01*
X6361069Y-5303460D02*
X6351545Y-5284412D01*
X6351545Y-5284412D02*
X6351545Y-5112984D01*
X6608688Y-5312984D02*
X6608688Y-5112984D01*
X6608688Y-5112984D02*
X6675354Y-5255841D01*
X6675354Y-5255841D02*
X6742021Y-5112984D01*
X6742021Y-5112984D02*
X6742021Y-5312984D01*
X6922973Y-5312984D02*
X6922973Y-5208222D01*
X6922973Y-5208222D02*
X6913450Y-5189174D01*
X6913450Y-5189174D02*
X6894402Y-5179650D01*
X6894402Y-5179650D02*
X6856307Y-5179650D01*
X6856307Y-5179650D02*
X6837259Y-5189174D01*
X6922973Y-5303460D02*
X6903926Y-5312984D01*
X6903926Y-5312984D02*
X6856307Y-5312984D01*
X6856307Y-5312984D02*
X6837259Y-5303460D01*
X6837259Y-5303460D02*
X6827735Y-5284412D01*
X6827735Y-5284412D02*
X6827735Y-5265365D01*
X6827735Y-5265365D02*
X6837259Y-5246317D01*
X6837259Y-5246317D02*
X6856307Y-5236793D01*
X6856307Y-5236793D02*
X6903926Y-5236793D01*
X6903926Y-5236793D02*
X6922973Y-5227270D01*
X7018212Y-5179650D02*
X7018212Y-5379650D01*
X7018212Y-5189174D02*
X7037259Y-5179650D01*
X7037259Y-5179650D02*
X7075354Y-5179650D01*
X7075354Y-5179650D02*
X7094402Y-5189174D01*
X7094402Y-5189174D02*
X7103926Y-5198698D01*
X7103926Y-5198698D02*
X7113450Y-5217746D01*
X7113450Y-5217746D02*
X7113450Y-5274889D01*
X7113450Y-5274889D02*
X7103926Y-5293936D01*
X7103926Y-5293936D02*
X7094402Y-5303460D01*
X7094402Y-5303460D02*
X7075354Y-5312984D01*
X7075354Y-5312984D02*
X7037259Y-5312984D01*
X7037259Y-5312984D02*
X7018212Y-5303460D01*
X7199164Y-5293936D02*
X7208688Y-5303460D01*
X7208688Y-5303460D02*
X7199164Y-5312984D01*
X7199164Y-5312984D02*
X7189640Y-5303460D01*
X7189640Y-5303460D02*
X7199164Y-5293936D01*
X7199164Y-5293936D02*
X7199164Y-5312984D01*
X7199164Y-5189174D02*
X7208688Y-5198698D01*
X7208688Y-5198698D02*
X7199164Y-5208222D01*
X7199164Y-5208222D02*
X7189640Y-5198698D01*
X7189640Y-5198698D02*
X7199164Y-5189174D01*
X7199164Y-5189174D02*
X7199164Y-5208222D01*
M02*
