<?xml version="1.0" encoding="utf-8"?>
<!-- Generator: Adobe Illustrator 23.0.1, SVG Export Plug-In . SVG Version: 6.00 Build 0)  -->
<svg version="1.0" id="Layer_1" xmlns="http://www.w3.org/2000/svg" xmlns:xlink="http://www.w3.org/1999/xlink" x="0px" y="0px"
	 viewBox="0 0 306 306" style="enable-background:new 0 0 306 306;" xml:space="preserve">
<style type="text/css">
	.st0{clip-path:url(#SVGID_2_);}
	.st1{fill:#662D91;}
	.st2{fill:#662D91;stroke:#662D91;stroke-miterlimit:10;}
	.st3{fill:#FFFFFF;stroke:#662D91;stroke-miterlimit:10;}
</style>
<g>
	<defs>
		<polygon id="SVGID_1_" points="35.11,79.71 35.11,213.4 150.88,280.25 266.66,213.4 266.66,79.71 150.88,12.87 		"/>
	</defs>
	<clipPath id="SVGID_2_">
		<use xlink:href="#SVGID_1_"  style="overflow:visible;"/>
	</clipPath>
	<g class="st0">
		<path class="st1" d="M249.13,216.79l-19.44-5.12c-0.58-2.75-1.31-5.46-2.17-8.09l14.28-14.16c4.6-4.87,7.48-10.34,4.26-15.92
			c-3.22-5.56-9.78-5.82-15.92-4.26l-19.41,5.29c-1.87-2.07-3.84-4.04-5.9-5.91l5.3-19.41c1.54-6.52,1.3-12.7-4.27-15.93
			c-5.57-3.22-11.39-0.14-15.92,4.27l-14.15,14.28c-2.63-0.85-5.33-1.53-8.07-2.11l-5.14-19.5c-1.94-6.42-5.23-11.66-11.66-11.66
			c-6.44,0-9.94,5.56-11.66,11.65l-5.13,19.5c-2.73,0.58-5.44,1.25-8.07,2.1l-14.16-14.28c-4.89-4.57-10.35-7.48-15.93-4.26
			c-5.58,3.23-5.83,9.79-4.26,15.93l5.3,19.4c-2.08,1.87-4.05,3.84-5.92,5.92l-19.4-5.29c-6.52-1.55-12.71-1.31-15.93,4.26
			c-3.22,5.58-0.15,11.39,4.27,15.92l14.27,14.15c-0.85,2.64-1.58,5.34-2.17,8.09l-19.44,5.12c-6.42,1.93-11.65,5.22-11.65,11.65
			c0,6.43,5.56,9.94,11.65,11.66l19.44,5.12c0.58,2.75,1.31,5.44,2.17,8.08L60,267.45c-4.6,4.88-7.49,10.35-4.27,15.93
			c3.22,5.57,9.79,5.82,15.93,4.26l19.4-5.3c1.87,2.07,3.84,4.04,5.92,5.91l-5.3,19.41c-1.55,6.52-1.31,12.71,4.26,15.92
			c5.58,3.22,11.39,0.16,15.92-4.26l14.16-14.28c2.64,0.86,5.34,1.58,8.09,2.17l5.12,19.44c1.93,6.4,5.22,11.64,11.66,11.64
			c6.43,0,9.93-5.55,11.65-11.64l5.12-19.45c2.75-0.58,5.44-1.31,8.09-2.17l14.16,14.28c4.87,4.6,10.35,7.49,15.92,4.26
			c5.57-3.22,5.82-9.78,4.27-15.92l-5.3-19.41c2.07-1.87,4.04-3.84,5.91-5.91l19.41,5.3c6.52,1.54,12.71,1.3,15.93-4.27
			c3.22-5.58,0.15-11.38-4.27-15.92l-14.28-14.16c0.85-2.65,1.59-5.33,2.17-8.08l19.44-5.12c6.42-1.92,11.66-5.22,11.66-11.66
			C260.78,222.02,255.22,218.51,249.13,216.79z M150.89,261.75c-18.39,0-33.29-14.92-33.29-33.31c0-18.38,14.9-33.29,33.29-33.29
			c18.38,0,33.29,14.91,33.29,33.29C184.19,246.84,169.28,261.75,150.89,261.75z"/>
	</g>
	<g class="st0">
	</g>
	<use xlink:href="#SVGID_1_"  style="overflow:visible;fill:none;stroke:#662D91;stroke-width:9;stroke-miterlimit:10;"/>
</g>
<g>
	<g>
		<path class="st2" d="M15.28,78.51c0-2.97,0.55-5.73,1.64-8.29c1.09-2.56,2.61-4.8,4.56-6.7c1.94-1.91,4.27-3.4,6.97-4.48
			c2.7-1.08,5.68-1.62,8.93-1.62c3.21,0,6.18,0.54,8.9,1.62c2.72,1.08,5.06,2.57,7.02,4.48s3.49,4.14,4.58,6.7
			c1.09,2.56,1.64,5.33,1.64,8.29c0,2.97-0.55,5.73-1.64,8.29c-1.1,2.56-2.62,4.8-4.58,6.7c-1.96,1.91-4.3,3.4-7.02,4.48
			c-2.72,1.08-5.69,1.62-8.9,1.62c-3.25,0-6.23-0.54-8.93-1.62c-2.7-1.08-5.03-2.57-6.97-4.48c-1.94-1.91-3.46-4.14-4.56-6.7
			C15.83,84.24,15.28,81.48,15.28,78.51z M26.15,78.51c0,1.59,0.3,3.06,0.9,4.4c0.6,1.34,1.41,2.51,2.44,3.5
			c1.02,0.99,2.22,1.76,3.58,2.31c1.36,0.55,2.8,0.82,4.32,0.82c1.52,0,2.96-0.27,4.32-0.82c1.36-0.55,2.56-1.32,3.6-2.31
			c1.04-0.99,1.86-2.15,2.46-3.5c0.6-1.34,0.9-2.81,0.9-4.4s-0.3-3.06-0.9-4.4c-0.6-1.34-1.42-2.51-2.46-3.5
			c-1.04-0.99-2.24-1.76-3.6-2.31c-1.36-0.55-2.8-0.82-4.32-0.82c-1.52,0-2.96,0.27-4.32,0.82c-1.36,0.55-2.55,1.32-3.58,2.31
			c-1.02,0.99-1.84,2.16-2.44,3.5C26.45,75.45,26.15,76.92,26.15,78.51z"/>
		<path class="st2" d="M88.05,68.76c-1.13-0.92-2.26-1.6-3.39-2.04c-1.13-0.44-2.23-0.66-3.29-0.66c-1.34,0-2.44,0.32-3.29,0.95
			c-0.85,0.64-1.27,1.47-1.27,2.49c0,0.71,0.21,1.29,0.64,1.75c0.42,0.46,0.98,0.86,1.67,1.19c0.69,0.34,1.47,0.63,2.33,0.87
			c0.87,0.25,1.72,0.51,2.57,0.79c3.39,1.13,5.87,2.64,7.45,4.53c1.57,1.89,2.36,4.36,2.36,7.39c0,2.05-0.34,3.9-1.03,5.56
			c-0.69,1.66-1.7,3.08-3.02,4.27c-1.33,1.18-2.95,2.1-4.88,2.76c-1.93,0.65-4.11,0.98-6.55,0.98c-5.05,0-9.73-1.5-14.05-4.5
			l4.45-8.37c1.55,1.38,3.09,2.4,4.61,3.07c1.52,0.67,3.02,1.01,4.5,1.01c1.7,0,2.96-0.39,3.79-1.17c0.83-0.78,1.25-1.66,1.25-2.65
			c0-0.6-0.11-1.12-0.32-1.56c-0.21-0.44-0.57-0.85-1.06-1.22c-0.5-0.37-1.14-0.72-1.93-1.03c-0.79-0.32-1.76-0.67-2.89-1.06
			c-1.34-0.42-2.66-0.89-3.95-1.4c-1.29-0.51-2.44-1.19-3.44-2.04c-1.01-0.85-1.82-1.92-2.44-3.21c-0.62-1.29-0.93-2.92-0.93-4.9
			c0-1.98,0.33-3.77,0.98-5.38c0.65-1.61,1.57-2.99,2.76-4.13c1.18-1.15,2.63-2.04,4.35-2.68c1.71-0.64,3.63-0.95,5.75-0.95
			c1.98,0,4.05,0.27,6.2,0.82c2.15,0.55,4.22,1.35,6.2,2.41L88.05,68.76z"/>
		<path class="st2" d="M110.74,73.95h15V58.53h10.39v39.96h-10.39V82.01h-15v16.48h-10.39V58.53h10.39V73.95z"/>
		<path class="st2" d="M172.9,98.49h-10.39V58.53h16.54c4.49,0,7.92,1.17,10.31,3.5s3.58,5.62,3.58,9.86c0,4.24-1.19,7.53-3.58,9.86
			s-5.82,3.5-10.31,3.5h-6.15V98.49z M172.9,76.87h3.44c3.82,0,5.72-1.66,5.72-4.98c0-3.32-1.91-4.98-5.72-4.98h-3.44V76.87z"/>
		<path class="st2" d="M217.9,71.3h9.65v27.19h-9.65v-3.02c-2.05,2.58-4.82,3.87-8.32,3.87c-1.98,0-3.8-0.36-5.46-1.09
			c-1.66-0.72-3.11-1.74-4.35-3.05c-1.24-1.31-2.2-2.84-2.89-4.61c-0.69-1.77-1.03-3.69-1.03-5.78c0-1.94,0.34-3.79,1.01-5.54
			c0.67-1.75,1.61-3.28,2.81-4.58c1.2-1.31,2.63-2.34,4.29-3.1c1.66-0.76,3.5-1.14,5.51-1.14c3.39,0,6.2,1.18,8.43,3.55V71.3z
			 M205.82,84.82c0,0.88,0.16,1.71,0.48,2.46c0.32,0.76,0.75,1.42,1.3,1.99c0.55,0.57,1.2,1.01,1.96,1.33
			c0.76,0.32,1.58,0.48,2.46,0.48c0.85,0,1.65-0.16,2.41-0.48c0.76-0.32,1.41-0.76,1.96-1.33c0.55-0.56,0.99-1.22,1.33-1.96
			c0.33-0.74,0.5-1.54,0.5-2.38c0-0.85-0.17-1.65-0.5-2.41c-0.34-0.76-0.78-1.42-1.33-1.99c-0.55-0.56-1.2-1.01-1.96-1.33
			c-0.76-0.32-1.56-0.48-2.41-0.48c-0.88,0-1.71,0.16-2.46,0.48c-0.76,0.32-1.41,0.76-1.96,1.33c-0.55,0.57-0.98,1.21-1.3,1.93
			C205.98,83.18,205.82,83.97,205.82,84.82z"/>
		<path class="st2" d="M234.07,71.3h9.59v4.45c1.02-1.62,2.28-2.87,3.76-3.74c1.48-0.87,3.21-1.3,5.19-1.3c0.25,0,0.52,0,0.82,0
			c0.3,0,0.64,0.04,1.03,0.11v9.17c-1.27-0.64-2.65-0.95-4.13-0.95c-2.23,0-3.9,0.66-5.01,1.99c-1.11,1.32-1.67,3.26-1.67,5.8v11.66
			h-9.59V71.3z"/>
		<path class="st2" d="M268.36,54.5v26.61l10.07-9.81h13.14l-13.62,12.56l14.42,14.63H278.9l-10.55-11.08v11.08h-9.59V54.5H268.36z"
			/>
	</g>
	<g>
		<g>
			<path class="st3" d="M11.68,74.91c0-2.97,0.55-5.73,1.64-8.29c1.09-2.56,2.61-4.8,4.56-6.7c1.94-1.91,4.27-3.4,6.97-4.48
				c2.7-1.08,5.68-1.62,8.93-1.62c3.21,0,6.18,0.54,8.9,1.62c2.72,1.08,5.06,2.57,7.02,4.48s3.49,4.14,4.58,6.7
				c1.09,2.56,1.64,5.33,1.64,8.29c0,2.97-0.55,5.73-1.64,8.29c-1.1,2.56-2.62,4.8-4.58,6.7c-1.96,1.91-4.3,3.4-7.02,4.48
				C39.97,95.46,37,96,33.79,96c-3.25,0-6.23-0.54-8.93-1.62c-2.7-1.08-5.03-2.57-6.97-4.48c-1.94-1.91-3.46-4.14-4.56-6.7
				C12.23,80.64,11.68,77.88,11.68,74.91z M22.55,74.91c0,1.59,0.3,3.06,0.9,4.4c0.6,1.34,1.41,2.51,2.44,3.5
				c1.02,0.99,2.22,1.76,3.58,2.31c1.36,0.55,2.8,0.82,4.32,0.82c1.52,0,2.96-0.27,4.32-0.82c1.36-0.55,2.56-1.32,3.6-2.31
				c1.04-0.99,1.86-2.15,2.46-3.5c0.6-1.34,0.9-2.81,0.9-4.4s-0.3-3.06-0.9-4.4c-0.6-1.34-1.42-2.51-2.46-3.5
				c-1.04-0.99-2.24-1.76-3.6-2.31c-1.36-0.55-2.8-0.82-4.32-0.82c-1.52,0-2.96,0.27-4.32,0.82c-1.36,0.55-2.55,1.32-3.58,2.31
				c-1.02,0.99-1.84,2.16-2.44,3.5C22.85,71.85,22.55,73.32,22.55,74.91z"/>
			<path class="st3" d="M84.45,65.16c-1.13-0.92-2.26-1.6-3.39-2.04c-1.13-0.44-2.23-0.66-3.29-0.66c-1.34,0-2.44,0.32-3.29,0.95
				c-0.85,0.64-1.27,1.47-1.27,2.49c0,0.71,0.21,1.29,0.64,1.75c0.42,0.46,0.98,0.86,1.67,1.19c0.69,0.34,1.47,0.63,2.33,0.87
				c0.87,0.25,1.72,0.51,2.57,0.79c3.39,1.13,5.87,2.64,7.45,4.53c1.57,1.89,2.36,4.36,2.36,7.39c0,2.05-0.34,3.9-1.03,5.56
				c-0.69,1.66-1.7,3.08-3.02,4.27c-1.33,1.18-2.95,2.1-4.88,2.76C79.37,95.68,77.19,96,74.75,96c-5.05,0-9.73-1.5-14.05-4.5
				l4.45-8.37c1.55,1.38,3.09,2.4,4.61,3.07c1.52,0.67,3.02,1.01,4.5,1.01c1.7,0,2.96-0.39,3.79-1.17c0.83-0.78,1.25-1.66,1.25-2.65
				c0-0.6-0.11-1.12-0.32-1.56c-0.21-0.44-0.57-0.85-1.06-1.22c-0.5-0.37-1.14-0.72-1.93-1.03c-0.79-0.32-1.76-0.67-2.89-1.06
				c-1.34-0.42-2.66-0.89-3.95-1.4c-1.29-0.51-2.44-1.19-3.44-2.04c-1.01-0.85-1.82-1.92-2.44-3.21c-0.62-1.29-0.93-2.92-0.93-4.9
				c0-1.98,0.33-3.77,0.98-5.38c0.65-1.61,1.57-2.99,2.76-4.13c1.18-1.15,2.63-2.04,4.35-2.68c1.71-0.64,3.63-0.95,5.75-0.95
				c1.98,0,4.05,0.27,6.2,0.82c2.15,0.55,4.22,1.35,6.2,2.41L84.45,65.16z"/>
			<path class="st3" d="M107.14,70.35h15V54.93h10.39v39.96h-10.39V78.41h-15v16.48H96.75V54.93h10.39V70.35z"/>
			<path class="st3" d="M169.3,94.89h-10.39V54.93h16.54c4.49,0,7.92,1.17,10.31,3.5s3.58,5.62,3.58,9.86
				c0,4.24-1.19,7.53-3.58,9.86s-5.82,3.5-10.31,3.5h-6.15V94.89z M169.3,73.27h3.44c3.82,0,5.72-1.66,5.72-4.98
				c0-3.32-1.91-4.98-5.72-4.98h-3.44V73.27z"/>
			<path class="st3" d="M214.3,67.7h9.65v27.19h-9.65v-3.02c-2.05,2.58-4.82,3.87-8.32,3.87c-1.98,0-3.8-0.36-5.46-1.09
				c-1.66-0.72-3.11-1.74-4.35-3.05c-1.24-1.31-2.2-2.84-2.89-4.61c-0.69-1.77-1.03-3.69-1.03-5.78c0-1.94,0.34-3.79,1.01-5.54
				c0.67-1.75,1.61-3.28,2.81-4.58c1.2-1.31,2.63-2.34,4.29-3.1c1.66-0.76,3.5-1.14,5.51-1.14c3.39,0,6.2,1.18,8.43,3.55V67.7z
				 M202.22,81.22c0,0.88,0.16,1.71,0.48,2.46c0.32,0.76,0.75,1.42,1.3,1.99c0.55,0.57,1.2,1.01,1.96,1.33
				c0.76,0.32,1.58,0.48,2.46,0.48c0.85,0,1.65-0.16,2.41-0.48c0.76-0.32,1.41-0.76,1.96-1.33c0.55-0.56,0.99-1.22,1.33-1.96
				c0.33-0.74,0.5-1.54,0.5-2.38c0-0.85-0.17-1.65-0.5-2.41c-0.34-0.76-0.78-1.42-1.33-1.99c-0.55-0.56-1.2-1.01-1.96-1.33
				c-0.76-0.32-1.56-0.48-2.41-0.48c-0.88,0-1.71,0.16-2.46,0.48c-0.76,0.32-1.41,0.76-1.96,1.33c-0.55,0.57-0.98,1.21-1.3,1.93
				C202.38,79.58,202.22,80.37,202.22,81.22z"/>
			<path class="st3" d="M230.47,67.7h9.59v4.45c1.02-1.62,2.28-2.87,3.76-3.74c1.48-0.87,3.21-1.3,5.19-1.3c0.25,0,0.52,0,0.82,0
				c0.3,0,0.64,0.04,1.03,0.11v9.17c-1.27-0.64-2.65-0.95-4.13-0.95c-2.23,0-3.9,0.66-5.01,1.99c-1.11,1.32-1.67,3.26-1.67,5.8
				v11.66h-9.59V67.7z"/>
			<path class="st3" d="M264.76,50.9v26.61l10.07-9.81h13.14l-13.62,12.56l14.42,14.63H275.3l-10.55-11.08v11.08h-9.59V50.9H264.76z
				"/>
		</g>
	</g>
</g>
<g>
	<path class="st3" d="M25.39,153h-7.06v-27.14h11.23c3.05,0,5.38,0.79,7,2.38s2.43,3.82,2.43,6.7c0,2.88-0.81,5.11-2.43,6.7
		s-3.95,2.38-7,2.38h-4.18V153z M25.39,138.31h2.34c2.59,0,3.89-1.13,3.89-3.38s-1.3-3.38-3.89-3.38h-2.34V138.31z"/>
	<path class="st3" d="M47.57,144.86c0,2.81,1.32,4.21,3.96,4.21c1.42,0,2.48-0.58,3.2-1.73h6.3c-1.27,4.22-4.45,6.34-9.54,6.34
		c-1.56,0-2.99-0.23-4.28-0.7c-1.3-0.47-2.41-1.13-3.33-2c-0.92-0.86-1.64-1.9-2.14-3.1c-0.5-1.2-0.76-2.54-0.76-4.03
		c0-1.54,0.24-2.92,0.72-4.16c0.48-1.24,1.16-2.29,2.05-3.15c0.89-0.86,1.96-1.53,3.22-2c1.26-0.47,2.68-0.7,4.27-0.7
		c1.56,0,2.96,0.23,4.21,0.7c1.25,0.47,2.3,1.15,3.17,2.03c0.86,0.89,1.52,1.97,1.98,3.26c0.46,1.28,0.68,2.73,0.68,4.34v0.68H47.57
		z M55.2,141.08c-0.22-0.91-0.66-1.64-1.33-2.2c-0.67-0.55-1.49-0.83-2.45-0.83c-1.01,0-1.83,0.26-2.47,0.79
		c-0.64,0.53-1.04,1.27-1.21,2.23H55.2z"/>
	<path class="st3" d="M64.99,134.53h6.52v3.02c0.7-1.1,1.55-1.95,2.56-2.54c1.01-0.59,2.18-0.88,3.53-0.88c0.17,0,0.35,0,0.56,0
		c0.2,0,0.44,0.02,0.7,0.07v6.23c-0.86-0.43-1.8-0.65-2.81-0.65c-1.51,0-2.65,0.45-3.4,1.35c-0.76,0.9-1.13,2.21-1.13,3.94V153
		h-6.52V134.53z"/>
	<path class="st3" d="M89.72,139.97V153h-6.52v-13.03h-2.34v-5.44h2.34v-2.77c0-1.54,0.14-2.76,0.43-3.67
		c0.24-0.77,0.62-1.48,1.15-2.14c0.53-0.66,1.15-1.23,1.85-1.71c0.71-0.48,1.47-0.85,2.29-1.12c0.82-0.26,1.62-0.4,2.41-0.4
		c0.55,0,1.06,0.06,1.53,0.18c0.47,0.12,0.94,0.29,1.42,0.5v5.69c-0.43-0.22-0.83-0.38-1.21-0.49s-0.76-0.16-1.17-0.16
		c-0.26,0-0.53,0.04-0.81,0.13s-0.53,0.26-0.77,0.52c-0.24,0.26-0.4,0.64-0.49,1.13c-0.08,0.49-0.13,1.16-0.13,2v2.3h4.57v5.44
		H89.72z"/>
	<path class="st3" d="M103,144.86c0,2.81,1.32,4.21,3.96,4.21c1.42,0,2.48-0.58,3.2-1.73h6.3c-1.27,4.22-4.45,6.34-9.54,6.34
		c-1.56,0-2.99-0.23-4.28-0.7c-1.3-0.47-2.41-1.13-3.33-2c-0.92-0.86-1.64-1.9-2.14-3.1c-0.5-1.2-0.76-2.54-0.76-4.03
		c0-1.54,0.24-2.92,0.72-4.16c0.48-1.24,1.16-2.29,2.05-3.15c0.89-0.86,1.96-1.53,3.22-2c1.26-0.47,2.68-0.7,4.27-0.7
		c1.56,0,2.96,0.23,4.21,0.7c1.25,0.47,2.3,1.15,3.17,2.03c0.86,0.89,1.52,1.97,1.98,3.26c0.46,1.28,0.68,2.73,0.68,4.34v0.68H103z
		 M110.64,141.08c-0.22-0.91-0.66-1.64-1.33-2.2c-0.67-0.55-1.49-0.83-2.45-0.83c-1.01,0-1.83,0.26-2.47,0.79
		c-0.64,0.53-1.04,1.27-1.21,2.23H110.64z"/>
	<path class="st3" d="M134.36,140.51c-1.13-0.77-2.27-1.15-3.42-1.15c-0.62,0-1.21,0.11-1.75,0.32c-0.54,0.22-1.01,0.52-1.42,0.92
		c-0.41,0.4-0.73,0.86-0.95,1.4c-0.23,0.54-0.34,1.15-0.34,1.82c0,0.65,0.11,1.24,0.34,1.78c0.23,0.54,0.54,1.01,0.94,1.4
		c0.4,0.4,0.87,0.7,1.42,0.92c0.55,0.22,1.14,0.32,1.76,0.32c1.22,0,2.36-0.42,3.42-1.26v5.54c-1.61,0.7-3.13,1.04-4.57,1.04
		c-1.34,0-2.62-0.23-3.83-0.68c-1.21-0.46-2.28-1.11-3.2-1.96c-0.92-0.85-1.66-1.87-2.21-3.06c-0.55-1.19-0.83-2.51-0.83-3.98
		c0-1.46,0.26-2.8,0.79-4.01c0.53-1.21,1.25-2.26,2.16-3.13c0.91-0.88,2-1.56,3.26-2.05c1.26-0.49,2.61-0.74,4.05-0.74
		c1.58,0,3.05,0.34,4.39,1.01V140.51z"/>
	<path class="st3" d="M145.34,139.97V153h-6.52v-13.03h-2.16v-5.44h2.16v-5.54h6.52v5.54h3.71v5.44H145.34z"/>
	<path class="st3" d="M171.4,153h-7.06v-27.14h11.23c3.05,0,5.38,0.79,7,2.38s2.43,3.82,2.43,6.7c0,2.88-0.81,5.11-2.43,6.7
		s-3.95,2.38-7,2.38h-4.18V153z M171.4,138.31h2.34c2.59,0,3.89-1.13,3.89-3.38s-1.3-3.38-3.89-3.38h-2.34V138.31z"/>
	<path class="st3" d="M194.66,134.53v10.4c0,2.28,1.1,3.42,3.31,3.42s3.31-1.14,3.31-3.42v-10.4h6.52v11.66
		c0,2.5-0.82,4.37-2.47,5.62c-1.64,1.25-4.1,1.87-7.36,1.87s-5.72-0.62-7.36-1.87c-1.64-1.25-2.47-3.12-2.47-5.62v-11.66H194.66z"/>
	<path class="st3" d="M212.23,134.53h6.52v3.02c0.7-1.1,1.55-1.95,2.56-2.54c1.01-0.59,2.18-0.88,3.53-0.88c0.17,0,0.35,0,0.56,0
		s0.44,0.02,0.7,0.07v6.23c-0.86-0.43-1.8-0.65-2.81-0.65c-1.51,0-2.65,0.45-3.4,1.35c-0.76,0.9-1.13,2.21-1.13,3.94V153h-6.52
		V134.53z"/>
	<path class="st3" d="M235.52,162.22H229v-27.68h6.52v2.05c1.39-1.75,3.29-2.63,5.69-2.63c1.32,0,2.55,0.26,3.69,0.77
		c1.14,0.52,2.13,1.22,2.97,2.11c0.84,0.89,1.49,1.93,1.96,3.13c0.47,1.2,0.7,2.48,0.7,3.85s-0.23,2.64-0.7,3.82
		c-0.47,1.18-1.12,2.21-1.94,3.1s-1.81,1.58-2.93,2.09s-2.35,0.76-3.67,0.76c-2.3,0-4.22-0.79-5.76-2.38V162.22z M243.73,143.82
		c0-0.58-0.1-1.12-0.31-1.64c-0.2-0.52-0.5-0.97-0.88-1.35c-0.38-0.38-0.83-0.69-1.35-0.92c-0.52-0.23-1.07-0.34-1.67-0.34
		c-0.58,0-1.12,0.11-1.62,0.32s-0.94,0.52-1.31,0.9c-0.37,0.38-0.67,0.83-0.9,1.35c-0.23,0.52-0.34,1.06-0.34,1.64
		s0.11,1.12,0.32,1.62c0.22,0.5,0.52,0.94,0.9,1.31c0.38,0.37,0.83,0.67,1.35,0.9c0.52,0.23,1.06,0.34,1.64,0.34
		s1.12-0.11,1.62-0.32s0.94-0.52,1.31-0.9s0.67-0.83,0.9-1.33C243.61,144.9,243.73,144.37,243.73,143.82z"/>
	<path class="st3" d="M260.75,123.12V153h-6.52v-29.88H260.75z"/>
	<path class="st3" d="M271.08,144.86c0,2.81,1.32,4.21,3.96,4.21c1.42,0,2.48-0.58,3.2-1.73h6.3c-1.27,4.22-4.45,6.34-9.54,6.34
		c-1.56,0-2.99-0.23-4.28-0.7c-1.3-0.47-2.41-1.13-3.33-2c-0.92-0.86-1.64-1.9-2.14-3.1c-0.5-1.2-0.76-2.54-0.76-4.03
		c0-1.54,0.24-2.92,0.72-4.16c0.48-1.24,1.16-2.29,2.05-3.15c0.89-0.86,1.96-1.53,3.22-2c1.26-0.47,2.68-0.7,4.27-0.7
		c1.56,0,2.96,0.23,4.21,0.7c1.25,0.47,2.3,1.15,3.17,2.03c0.86,0.89,1.52,1.97,1.98,3.26c0.46,1.28,0.68,2.73,0.68,4.34v0.68
		H271.08z M278.72,141.08c-0.22-0.91-0.66-1.64-1.33-2.2c-0.67-0.55-1.49-0.83-2.45-0.83c-1.01,0-1.83,0.26-2.47,0.79
		c-0.64,0.53-1.04,1.27-1.21,2.23H278.72z"/>
	<path class="st3" d="M114.96,186h-7.06v-27.14h11.23c3.05,0,5.38,0.79,7,2.38s2.43,3.82,2.43,6.7s-0.81,5.11-2.43,6.7
		s-3.95,2.38-7,2.38h-4.18V186z M114.96,171.31h2.34c2.59,0,3.89-1.13,3.89-3.38c0-2.25-1.3-3.38-3.89-3.38h-2.34V171.31z"/>
	<path class="st3" d="M151.86,167.93c-1.63-1.99-3.65-2.99-6.05-2.99c-1.06,0-2.03,0.19-2.93,0.58c-0.9,0.38-1.67,0.91-2.32,1.57
		s-1.16,1.45-1.53,2.36c-0.37,0.91-0.56,1.9-0.56,2.95c0,1.08,0.19,2.08,0.56,2.99c0.37,0.91,0.89,1.7,1.55,2.38
		c0.66,0.67,1.43,1.2,2.32,1.58c0.89,0.38,1.85,0.58,2.88,0.58c2.26,0,4.28-0.96,6.08-2.88v8.35l-0.72,0.25
		c-1.08,0.38-2.09,0.67-3.02,0.85c-0.94,0.18-1.86,0.27-2.77,0.27c-1.87,0-3.67-0.35-5.38-1.06c-1.72-0.71-3.23-1.7-4.54-2.99
		c-1.31-1.28-2.36-2.81-3.15-4.57c-0.79-1.76-1.19-3.69-1.19-5.78c0-2.09,0.39-4,1.17-5.74c0.78-1.74,1.82-3.24,3.13-4.5
		c1.31-1.26,2.83-2.24,4.55-2.95s3.54-1.06,5.44-1.06c1.08,0,2.14,0.11,3.19,0.34c1.04,0.23,2.14,0.58,3.29,1.06V167.93z"/>
	<path class="st3" d="M156.32,158.86h10.51c2.49,0,4.39,0.6,5.69,1.8c1.29,1.2,1.94,2.93,1.94,5.18c0,1.37-0.25,2.5-0.74,3.4
		c-0.49,0.9-1.24,1.66-2.25,2.29c1.01,0.19,1.87,0.49,2.57,0.88c0.71,0.4,1.28,0.88,1.73,1.46c0.44,0.58,0.76,1.22,0.95,1.94
		c0.19,0.72,0.29,1.49,0.29,2.3c0,1.27-0.22,2.4-0.67,3.38c-0.45,0.98-1.07,1.81-1.87,2.48s-1.78,1.18-2.93,1.51s-2.45,0.5-3.89,0.5
		h-11.34V158.86z M163.38,169.51h1.3c2.21,0,3.31-0.88,3.31-2.63c0-1.75-1.1-2.63-3.31-2.63h-1.3V169.51z M163.38,180.53h1.55
		c1.78,0,3.05-0.23,3.81-0.68c0.77-0.46,1.15-1.19,1.15-2.2c0-1.01-0.38-1.74-1.15-2.2c-0.77-0.46-2.04-0.68-3.81-0.68h-1.55V180.53
		z"/>
	<path class="st3" d="M192.86,172.28c-1.2-0.62-2.38-0.94-3.53-0.94c-0.6,0-1.09,0.12-1.46,0.36c-0.37,0.24-0.56,0.56-0.56,0.97
		c0,0.22,0.03,0.39,0.09,0.52s0.19,0.26,0.4,0.38c0.2,0.12,0.5,0.23,0.9,0.32c0.4,0.1,0.92,0.22,1.57,0.36
		c1.8,0.36,3.14,1,4.03,1.93c0.89,0.92,1.33,2.11,1.33,3.55c0,1.08-0.22,2.05-0.65,2.92c-0.43,0.86-1.03,1.59-1.8,2.18
		c-0.77,0.59-1.69,1.04-2.77,1.37c-1.08,0.32-2.27,0.49-3.56,0.49c-2.5,0-4.96-0.71-7.38-2.12l2.38-4.61
		c1.82,1.25,3.55,1.87,5.18,1.87c0.6,0,1.09-0.13,1.48-0.4c0.38-0.26,0.58-0.6,0.58-1.01c0-0.24-0.03-0.44-0.09-0.59
		c-0.06-0.16-0.19-0.3-0.38-0.43c-0.19-0.13-0.47-0.25-0.85-0.36c-0.37-0.11-0.86-0.22-1.46-0.34c-2.02-0.41-3.43-1.01-4.23-1.82
		c-0.8-0.8-1.21-1.91-1.21-3.33c0-1.03,0.19-1.96,0.58-2.79s0.94-1.53,1.66-2.11c0.72-0.58,1.59-1.02,2.61-1.33
		c1.02-0.31,2.15-0.47,3.4-0.47c2.04,0,4.02,0.4,5.94,1.19L192.86,172.28z"/>
</g>
<g>
</g>
<g>
</g>
<g>
</g>
<g>
</g>
<g>
</g>
<g>
</g>
</svg>
