G04 #@! TF.GenerationSoftware,KiCad,Pcbnew,7.0.6+dfsg-1*
G04 #@! TF.CreationDate,2023-08-23T13:02:17+02:00*
G04 #@! TF.ProjectId,GPDI_ULX3S,47504449-5f55-44c5-9833-532e6b696361,1.6*
G04 #@! TF.SameCoordinates,Original*
G04 #@! TF.FileFunction,Paste,Top*
G04 #@! TF.FilePolarity,Positive*
%FSLAX46Y46*%
G04 Gerber Fmt 4.6, Leading zero omitted, Abs format (unit mm)*
G04 Created by KiCad (PCBNEW 7.0.6+dfsg-1) date 2023-08-23 13:02:17*
%MOMM*%
%LPD*%
G01*
G04 APERTURE LIST*
G04 Aperture macros list*
%AMRoundRect*
0 Rectangle with rounded corners*
0 $1 Rounding radius*
0 $2 $3 $4 $5 $6 $7 $8 $9 X,Y pos of 4 corners*
0 Add a 4 corners polygon primitive as box body*
4,1,4,$2,$3,$4,$5,$6,$7,$8,$9,$2,$3,0*
0 Add four circle primitives for the rounded corners*
1,1,$1+$1,$2,$3*
1,1,$1+$1,$4,$5*
1,1,$1+$1,$6,$7*
1,1,$1+$1,$8,$9*
0 Add four rect primitives between the rounded corners*
20,1,$1+$1,$2,$3,$4,$5,0*
20,1,$1+$1,$4,$5,$6,$7,0*
20,1,$1+$1,$6,$7,$8,$9,0*
20,1,$1+$1,$8,$9,$2,$3,0*%
G04 Aperture macros list end*
%ADD10R,1.100000X0.450000*%
%ADD11RoundRect,0.225000X-0.225000X-0.375000X0.225000X-0.375000X0.225000X0.375000X-0.225000X0.375000X0*%
%ADD12RoundRect,0.249999X0.450001X0.425001X-0.450001X0.425001X-0.450001X-0.425001X0.450001X-0.425001X0*%
%ADD13RoundRect,0.249999X0.425001X-0.450001X0.425001X0.450001X-0.425001X0.450001X-0.425001X-0.450001X0*%
%ADD14R,0.900000X1.200000*%
%ADD15RoundRect,0.147500X0.147500X0.172500X-0.147500X0.172500X-0.147500X-0.172500X0.147500X-0.172500X0*%
%ADD16RoundRect,0.147500X0.172500X-0.147500X0.172500X0.147500X-0.172500X0.147500X-0.172500X-0.147500X0*%
%ADD17R,0.450000X0.600000*%
%ADD18RoundRect,0.250000X-0.375000X-1.075000X0.375000X-1.075000X0.375000X1.075000X-0.375000X1.075000X0*%
%ADD19RoundRect,0.147500X-0.172500X0.147500X-0.172500X-0.147500X0.172500X-0.147500X0.172500X0.147500X0*%
%ADD20RoundRect,0.147500X-0.147500X-0.172500X0.147500X-0.172500X0.147500X0.172500X-0.147500X0.172500X0*%
%ADD21R,1.060000X0.650000*%
%ADD22RoundRect,0.237500X-0.287500X-0.237500X0.287500X-0.237500X0.287500X0.237500X-0.287500X0.237500X0*%
%ADD23R,1.900000X0.300000*%
G04 APERTURE END LIST*
D10*
X135042460Y-72040180D03*
X135042460Y-71390180D03*
X135042460Y-70740180D03*
X135042460Y-70090180D03*
X138942460Y-70090180D03*
X138942460Y-70740180D03*
X138942460Y-71390180D03*
X138942460Y-72040180D03*
D11*
X130812460Y-85145180D03*
X127512460Y-85145180D03*
D12*
X136119960Y-86595180D03*
X133419960Y-86595180D03*
D13*
X134622460Y-83595180D03*
X134622460Y-80895180D03*
D14*
X136875000Y-80375000D03*
X140175000Y-80375000D03*
D15*
X129640000Y-82445000D03*
X128670000Y-82445000D03*
X129660000Y-80205000D03*
X128690000Y-80205000D03*
X129660000Y-77895000D03*
X128690000Y-77895000D03*
X129700000Y-75605000D03*
X128730000Y-75605000D03*
D16*
X124502460Y-85300180D03*
X124502460Y-84330180D03*
D15*
X129635000Y-81395000D03*
X128665000Y-81395000D03*
X129655000Y-79125000D03*
X128685000Y-79125000D03*
X129646000Y-76815000D03*
X128676000Y-76815000D03*
X129695000Y-74535000D03*
X128725000Y-74535000D03*
X133627460Y-70985180D03*
X132657460Y-70985180D03*
D17*
X140750000Y-82200000D03*
X140750000Y-84300000D03*
D18*
X138100000Y-87000000D03*
X140900000Y-87000000D03*
D16*
X131825000Y-68990000D03*
X131825000Y-69960000D03*
D15*
X138010000Y-68175000D03*
X137040000Y-68175000D03*
D16*
X141425000Y-70760000D03*
X141425000Y-69790000D03*
X140325000Y-70760000D03*
X140325000Y-69790000D03*
D19*
X135125000Y-67590000D03*
X135125000Y-68560000D03*
D20*
X126727460Y-82695180D03*
X127697460Y-82695180D03*
D19*
X136925760Y-74102200D03*
X136925760Y-75072200D03*
D16*
X137964620Y-75079820D03*
X137964620Y-74109820D03*
D15*
X139376720Y-77106880D03*
X138406720Y-77106880D03*
D20*
X137784420Y-76093420D03*
X138754420Y-76093420D03*
X126760000Y-78505000D03*
X127730000Y-78505000D03*
D19*
X132925260Y-75511900D03*
X132925260Y-76481900D03*
D16*
X133012460Y-81900180D03*
X133012460Y-80930180D03*
D21*
X138850000Y-82550000D03*
X138850000Y-84450000D03*
X136650000Y-84450000D03*
X136650000Y-83500000D03*
X136650000Y-82550000D03*
D20*
X126770000Y-74265000D03*
X127740000Y-74265000D03*
X126770000Y-75855000D03*
X127740000Y-75855000D03*
D16*
X125105000Y-80950000D03*
X125105000Y-79980000D03*
D20*
X126710000Y-81145000D03*
X127680000Y-81145000D03*
X132657460Y-72005180D03*
X133627460Y-72005180D03*
D15*
X131567460Y-82785180D03*
X130597460Y-82785180D03*
X129627460Y-83455180D03*
X128657460Y-83455180D03*
D16*
X131921960Y-76474280D03*
X131921960Y-75504280D03*
D19*
X133425000Y-67590000D03*
X133425000Y-68560000D03*
X123502460Y-84330180D03*
X123502460Y-85300180D03*
D22*
X139350000Y-68475000D03*
X141100000Y-68475000D03*
D20*
X126750000Y-76865000D03*
X127720000Y-76865000D03*
D19*
X125094440Y-76078320D03*
X125094440Y-77048320D03*
D23*
X118969740Y-81270140D03*
X118969740Y-80770140D03*
X118969740Y-80270140D03*
X118969740Y-79770140D03*
X118969740Y-79270140D03*
X118969740Y-78770140D03*
X118969740Y-78270140D03*
X118969740Y-77770140D03*
X118969740Y-77270140D03*
X118969740Y-76770140D03*
X118969740Y-76270140D03*
X118969740Y-75770140D03*
X118969740Y-75270140D03*
X118969740Y-74770140D03*
X118969740Y-74270140D03*
X118969740Y-73770140D03*
X118969740Y-73270140D03*
X118969740Y-72770140D03*
X118969740Y-72270140D03*
M02*
