M48
; DRILL file {KiCad 7.0.6+dfsg-1} date Wed 23 Aug 2023 01:02:26 PM CEST
; FORMAT={-:-/ absolute / metric / decimal}
; #@! TF.CreationDate,2023-08-23T13:02:26+02:00
; #@! TF.GenerationSoftware,Kicad,Pcbnew,7.0.6+dfsg-1
; #@! TF.FileFunction,Plated,1,4,PTH
FMAT,2
METRIC
; #@! TA.AperFunction,Plated,PTH,ViaDrill
T1C0.200
; #@! TA.AperFunction,Plated,PTH,ComponentDrill
T2C1.000
; #@! TA.AperFunction,Plated,PTH,ComponentDrill
T3C1.300
%
G90
G05
T1
X111.412Y-88.205
X111.422Y-66.585
X111.422Y-69.585
X111.422Y-72.585
X111.422Y-75.585
X111.422Y-78.585
X111.422Y-81.585
X111.422Y-84.585
X114.362Y-88.205
X114.422Y-66.585
X115.362Y-77.085
X115.392Y-73.205
X115.392Y-80.555
X117.362Y-88.205
X117.422Y-66.585
X117.561Y-76.264
X117.563Y-73.259
X117.563Y-77.749
X117.568Y-79.263
X117.579Y-80.767
X120.362Y-88.205
X120.422Y-66.585
X120.522Y-72.77
X121.348Y-74.816
X121.502Y-85.535
X121.522Y-69.955
X123.362Y-88.205
X123.422Y-66.585
X124.652Y-70.035
X124.952Y-83.505
X125.58Y-78.672
X125.646Y-77.163
X125.775Y-80.935
X126.082Y-84.585
X126.095Y-78.535
X126.105Y-75.855
X126.105Y-76.865
X126.269Y-80.579
X126.362Y-88.205
X126.422Y-66.585
X126.509Y-83.305
X126.787Y-73.557
X127.582Y-83.985
X128.642Y-83.995
X128.842Y-68.255
X129.112Y-85.165
X129.532Y-70.275
X129.582Y-73.125
X129.742Y-68.475
X129.872Y-71.015
X130.002Y-69.465
X130.672Y-69.025
X130.914Y-73.444
X131.176Y-84.135
X131.353Y-76.474
X131.602Y-83.495
X132.212Y-84.675
X132.362Y-88.205
X132.412Y-68.965
X132.412Y-86.655
X132.422Y-66.585
X132.57Y-74.12
X133.162Y-82.595
X133.304Y-69.545
X133.44Y-70.205
X133.452Y-80.405
X133.565Y-76.482
X133.908Y-82.647
X133.942Y-79.785
X134.116Y-75.884
X134.282Y-73.416
X134.432Y-68.765
X134.534Y-75.466
X134.942Y-74.995
X135.052Y-72.525
X135.103Y-79.803
X135.412Y-74.545
X135.422Y-66.585
X135.716Y-75.066
X135.775Y-68.125
X135.872Y-88.185
X135.883Y-79.828
X136.134Y-75.484
X136.442Y-73.685
X136.642Y-79.115
X136.652Y-67.555
X136.925Y-76.079
X136.925Y-76.671
X137.356Y-86.975
X137.625Y-77.079
X137.625Y-77.671
X137.975Y-84.437
X138.402Y-80.675
X138.422Y-66.585
X138.652Y-73.705
X139.032Y-79.505
X139.112Y-75.635
X139.428Y-76.54
X139.532Y-88.185
X139.788Y-84.773
X139.902Y-71.985
X139.966Y-71.292
X140.189Y-85.135
X140.845Y-81.284
X141.135Y-84.985
X141.325Y-82.175
X141.422Y-66.585
X141.532Y-73.755
X141.622Y-83.605
X141.973Y-70.936
X142.022Y-81.135
X142.142Y-75.925
X142.152Y-68.415
X142.262Y-78.825
X144.982Y-69.315
X145.022Y-71.085
X145.072Y-73.875
X145.082Y-79.055
X145.102Y-77.075
X147.422Y-66.585
X149.342Y-69.585
X149.342Y-72.585
X149.342Y-75.585
X149.342Y-78.585
X149.342Y-81.585
X149.342Y-84.585
X149.372Y-66.585
X149.382Y-88.145
T2
X143.764Y-67.31
X143.764Y-69.85
X143.764Y-72.39
X143.764Y-74.93
X143.764Y-77.47
X143.764Y-80.01
X143.764Y-82.55
X143.764Y-85.09
X143.764Y-87.63
X146.304Y-67.31
X146.304Y-69.85
X146.304Y-72.39
X146.304Y-74.93
X146.304Y-77.47
X146.304Y-80.01
X146.304Y-82.55
X146.304Y-85.09
X146.304Y-87.63
T3
X113.07Y-68.67
X113.07Y-84.37
X117.97Y-69.27
X117.97Y-83.77
T0
M30
