G04 #@! TF.GenerationSoftware,KiCad,Pcbnew,7.0.6+dfsg-1*
G04 #@! TF.CreationDate,2023-08-23T13:02:17+02:00*
G04 #@! TF.ProjectId,GPDI_ULX3S,47504449-5f55-44c5-9833-532e6b696361,1.6*
G04 #@! TF.SameCoordinates,Original*
G04 #@! TF.FileFunction,Copper,L4,Bot*
G04 #@! TF.FilePolarity,Positive*
%FSLAX46Y46*%
G04 Gerber Fmt 4.6, Leading zero omitted, Abs format (unit mm)*
G04 Created by KiCad (PCBNEW 7.0.6+dfsg-1) date 2023-08-23 13:02:17*
%MOMM*%
%LPD*%
G01*
G04 APERTURE LIST*
G04 Aperture macros list*
%AMFreePoly0*
4,1,19,0.500000,-0.750000,0.000000,-0.750000,0.000000,-0.744911,-0.071157,-0.744911,-0.207708,-0.704816,-0.327430,-0.627875,-0.420627,-0.520320,-0.479746,-0.390866,-0.500000,-0.250000,-0.500000,0.250000,-0.479746,0.390866,-0.420627,0.520320,-0.327430,0.627875,-0.207708,0.704816,-0.071157,0.744911,0.000000,0.744911,0.000000,0.750000,0.500000,0.750000,0.500000,-0.750000,0.500000,-0.750000,
$1*%
%AMFreePoly1*
4,1,19,0.000000,0.744911,0.071157,0.744911,0.207708,0.704816,0.327430,0.627875,0.420627,0.520320,0.479746,0.390866,0.500000,0.250000,0.500000,-0.250000,0.479746,-0.390866,0.420627,-0.520320,0.327430,-0.627875,0.207708,-0.704816,0.071157,-0.744911,0.000000,-0.744911,0.000000,-0.750000,-0.500000,-0.750000,-0.500000,0.750000,0.000000,0.750000,0.000000,0.744911,0.000000,0.744911,
$1*%
G04 Aperture macros list end*
G04 #@! TA.AperFunction,ComponentPad*
%ADD10R,1.700000X1.700000*%
G04 #@! TD*
G04 #@! TA.AperFunction,ComponentPad*
%ADD11O,1.700000X1.700000*%
G04 #@! TD*
G04 #@! TA.AperFunction,ComponentPad*
%ADD12C,2.000000*%
G04 #@! TD*
G04 #@! TA.AperFunction,SMDPad,CuDef*
%ADD13FreePoly0,180.000000*%
G04 #@! TD*
G04 #@! TA.AperFunction,SMDPad,CuDef*
%ADD14FreePoly1,180.000000*%
G04 #@! TD*
G04 #@! TA.AperFunction,SMDPad,CuDef*
%ADD15FreePoly0,0.000000*%
G04 #@! TD*
G04 #@! TA.AperFunction,SMDPad,CuDef*
%ADD16FreePoly1,0.000000*%
G04 #@! TD*
G04 #@! TA.AperFunction,ViaPad*
%ADD17C,0.400000*%
G04 #@! TD*
G04 #@! TA.AperFunction,Conductor*
%ADD18C,0.150000*%
G04 #@! TD*
G04 #@! TA.AperFunction,Conductor*
%ADD19C,0.127000*%
G04 #@! TD*
G04 #@! TA.AperFunction,Conductor*
%ADD20C,0.200000*%
G04 #@! TD*
G04 #@! TA.AperFunction,Conductor*
%ADD21C,0.300000*%
G04 #@! TD*
G04 #@! TA.AperFunction,Conductor*
%ADD22C,0.500000*%
G04 #@! TD*
G04 APERTURE END LIST*
D10*
X143764000Y-67310000D03*
D11*
X146304000Y-67310000D03*
X143764000Y-69850000D03*
X146304000Y-69850000D03*
X143764000Y-72390000D03*
X146304000Y-72390000D03*
X143764000Y-74930000D03*
X146304000Y-74930000D03*
X143764000Y-77470000D03*
X146304000Y-77470000D03*
X143764000Y-80010000D03*
X146304000Y-80010000D03*
X143764000Y-82550000D03*
X146304000Y-82550000D03*
X143764000Y-85090000D03*
X146304000Y-85090000D03*
X143764000Y-87630000D03*
X146304000Y-87630000D03*
D12*
X113069740Y-68670140D03*
X117969740Y-69270140D03*
X117969740Y-83770140D03*
X113069740Y-84370140D03*
D13*
X135225000Y-83675000D03*
D14*
X133925000Y-83675000D03*
D15*
X133875000Y-86375000D03*
D16*
X135175000Y-86375000D03*
D17*
X135052460Y-72525180D03*
X139902460Y-71985180D03*
X115392460Y-80555180D03*
X115362460Y-77085180D03*
X115392460Y-73205180D03*
X141622460Y-83605180D03*
X142022460Y-81135180D03*
X138402460Y-80675180D03*
X124652460Y-70035180D03*
X121522460Y-69955180D03*
X121502460Y-85535180D03*
X124952460Y-83505180D03*
X127582460Y-83985180D03*
X129112460Y-85165180D03*
X131175960Y-84135180D03*
X136642460Y-79115180D03*
X139032460Y-79505180D03*
X142262460Y-78825180D03*
X142142460Y-75925180D03*
X141532460Y-73755180D03*
X129582460Y-73125180D03*
X129532460Y-70275180D03*
X130672460Y-69025180D03*
X128842460Y-68255180D03*
X149342460Y-84585180D03*
X149342460Y-81585180D03*
X149342460Y-75585180D03*
X149342460Y-78585180D03*
X149342460Y-72585180D03*
X149342460Y-69585180D03*
X111412460Y-88205180D03*
X111422460Y-84585180D03*
X111422460Y-81585180D03*
X111422460Y-78585180D03*
X111422460Y-75585180D03*
X111422460Y-72585180D03*
X111422460Y-69585180D03*
X149382460Y-88145180D03*
X139532460Y-88185180D03*
X135872460Y-88185180D03*
X132362460Y-88205180D03*
X126362460Y-88205180D03*
X123362460Y-88205180D03*
X120362460Y-88205180D03*
X117362460Y-88205180D03*
X114362460Y-88205180D03*
X149372460Y-66585180D03*
X147422460Y-66585180D03*
X141422460Y-66585180D03*
X138422460Y-66585180D03*
X135422460Y-66585180D03*
X132422460Y-66585180D03*
X126422460Y-66585180D03*
X123422460Y-66585180D03*
X120422460Y-66585180D03*
X117422460Y-66585180D03*
X114422460Y-66585180D03*
X111422460Y-66585180D03*
X144982460Y-69315180D03*
X145022460Y-71085180D03*
X145072460Y-73875180D03*
X145082460Y-79055180D03*
X145102460Y-77075180D03*
X135412460Y-74545180D03*
X134942460Y-74995180D03*
X131602460Y-83495180D03*
X126508960Y-83305180D03*
X126082460Y-84585180D03*
X120522460Y-72770140D03*
X128642460Y-83995180D03*
X132412460Y-86655180D03*
X132212460Y-84675000D03*
X135103240Y-79802960D03*
X135883020Y-79828360D03*
X133452460Y-80405180D03*
X133942460Y-79785180D03*
X130913580Y-73444200D03*
X132569660Y-74119840D03*
X134281620Y-73416260D03*
X117563340Y-73258780D03*
X138652460Y-73705180D03*
X137974780Y-84437320D03*
X139112460Y-75635180D03*
X117578580Y-80767020D03*
X136652460Y-67555180D03*
X117560800Y-76263600D03*
X117568420Y-79263340D03*
X117563340Y-77749500D03*
X141134523Y-84984523D03*
X133565340Y-76482040D03*
X133440000Y-70204818D03*
X136442460Y-73685180D03*
X126095000Y-78535000D03*
X126105000Y-76865000D03*
X131353140Y-76474280D03*
X126786563Y-73556563D03*
X137356020Y-86975009D03*
X139427700Y-76540420D03*
X125775000Y-80935000D03*
X126105000Y-75855000D03*
X126268918Y-80578515D03*
X139965840Y-71291550D03*
X141973438Y-70936158D03*
X137625000Y-77671000D03*
X136925000Y-76671000D03*
X136134304Y-75484304D03*
X134115696Y-75884304D03*
X139788340Y-84772600D03*
X137625000Y-77079000D03*
X136925000Y-76079000D03*
X135715696Y-75065696D03*
X134534304Y-75465696D03*
X140189167Y-85135249D03*
X141325000Y-82175000D03*
X140845000Y-81284490D03*
X142152460Y-68415180D03*
X133907610Y-82646842D03*
X133162460Y-82595180D03*
X130002460Y-69465180D03*
X133304500Y-69545180D03*
X134432460Y-68765180D03*
X135775140Y-68125440D03*
X129742460Y-68475180D03*
X132411890Y-68965272D03*
X125579580Y-78671520D03*
X125645620Y-77162760D03*
X129872460Y-71015180D03*
X121347940Y-74815800D03*
D18*
X135282460Y-72525180D02*
X136442460Y-73685180D01*
X135052460Y-72525180D02*
X135282460Y-72525180D01*
D19*
X139965840Y-71291550D02*
X138836090Y-71291550D01*
X138836090Y-71291550D02*
X136442460Y-73685180D01*
X133304500Y-69545180D02*
X133214500Y-69455180D01*
X133214500Y-69455180D02*
X130012460Y-69455180D01*
X130012460Y-69455180D02*
X130002460Y-69465180D01*
D20*
X133925000Y-83675000D02*
X133925000Y-83357720D01*
X133925000Y-83357720D02*
X133162460Y-82595180D01*
X126508960Y-83305180D02*
X126508960Y-80818557D01*
X131432460Y-83325180D02*
X131602460Y-83495180D01*
X126508960Y-80818557D02*
X126268918Y-80578515D01*
X126508960Y-83305180D02*
X126528960Y-83325180D01*
X126528960Y-83325180D02*
X131432460Y-83325180D01*
D19*
X131353140Y-76474280D02*
X132293360Y-76474280D01*
X132293360Y-76474280D02*
X135082460Y-73685180D01*
X135082460Y-73685180D02*
X136442460Y-73685180D01*
X126803160Y-76553160D02*
X126105000Y-75855000D01*
X131353140Y-76474280D02*
X131274260Y-76553160D01*
X131274260Y-76553160D02*
X126803160Y-76553160D01*
X142152460Y-68415180D02*
X142658820Y-68415180D01*
X142658820Y-68415180D02*
X143764000Y-67310000D01*
X146304000Y-67310000D02*
X144808820Y-68805180D01*
X144808820Y-68805180D02*
X137114711Y-68805180D01*
X137114711Y-68805180D02*
X137104211Y-68794680D01*
X137104211Y-68794680D02*
X136522960Y-68794680D01*
X136522960Y-68794680D02*
X136162460Y-69155180D01*
X136162460Y-69155180D02*
X132601798Y-69155180D01*
X132601798Y-69155180D02*
X132411890Y-68965272D01*
X134432460Y-68765180D02*
X134422460Y-68755180D01*
X134422460Y-68755180D02*
X132754049Y-68755180D01*
X132754049Y-68755180D02*
X132474049Y-68475180D01*
X132474049Y-68475180D02*
X129742460Y-68475180D01*
X135075400Y-68825180D02*
X135775140Y-68125440D01*
X134432460Y-68765180D02*
X134492460Y-68825180D01*
X134492460Y-68825180D02*
X135075400Y-68825180D01*
X141973438Y-70936158D02*
X141618046Y-71291550D01*
X141618046Y-71291550D02*
X139965840Y-71291550D01*
X139427700Y-76540420D02*
X139584651Y-76697371D01*
X143333010Y-76429500D02*
X147036780Y-76429500D01*
X147036780Y-76429500D02*
X147392460Y-76785180D01*
X139584651Y-76697371D02*
X143065139Y-76697371D01*
X143065139Y-76697371D02*
X143333010Y-76429500D01*
X147392460Y-76785180D02*
X147392460Y-86541540D01*
X147392460Y-86541540D02*
X146304000Y-87630000D01*
X141325000Y-82175000D02*
X141325180Y-82175180D01*
X143389180Y-82175180D02*
X143764000Y-82550000D01*
X141325180Y-82175180D02*
X143389180Y-82175180D01*
X146304000Y-82550000D02*
X145209360Y-81455360D01*
X145209360Y-81455360D02*
X143373458Y-81455360D01*
X143373458Y-81455360D02*
X143153818Y-81675000D01*
X143153818Y-81675000D02*
X140912640Y-81675000D01*
X140912640Y-81675000D02*
X139788340Y-82799300D01*
X139788340Y-82799300D02*
X139788340Y-84772600D01*
X133907610Y-82910018D02*
X133925000Y-82927408D01*
X133907610Y-82646842D02*
X133907610Y-82910018D01*
X133925000Y-82927408D02*
X133925000Y-83675000D01*
X129872460Y-71015180D02*
X128775680Y-71015180D01*
X128775680Y-71015180D02*
X124975060Y-74815800D01*
X124975060Y-74815800D02*
X121347940Y-74815800D01*
D21*
X137356020Y-86975009D02*
X137395849Y-86935180D01*
X137395849Y-86935180D02*
X145609180Y-86935180D01*
X145609180Y-86935180D02*
X146304000Y-87630000D01*
D20*
X131602460Y-83495180D02*
X131602460Y-85241310D01*
X131602460Y-85241310D02*
X133148000Y-86786850D01*
X133148000Y-86786850D02*
X133148000Y-86926134D01*
X133148000Y-86926134D02*
X133737046Y-87515180D01*
X133737046Y-87515180D02*
X136815849Y-87515180D01*
X136815849Y-87515180D02*
X137356020Y-86975009D01*
D19*
X126268918Y-80578515D02*
X126268918Y-78708918D01*
X126268918Y-78708918D02*
X126095000Y-78535000D01*
X126268918Y-80578515D02*
X126131485Y-80578515D01*
X126131485Y-80578515D02*
X125775000Y-80935000D01*
X126105000Y-76865000D02*
X126095000Y-76875000D01*
X126095000Y-76875000D02*
X126095000Y-78535000D01*
X126105000Y-75855000D02*
X126105000Y-76865000D01*
X126105000Y-75855000D02*
X126786563Y-75173437D01*
X126786563Y-75173437D02*
X126786563Y-73556563D01*
D20*
X126082460Y-82028030D02*
X120522460Y-76468030D01*
X126082460Y-84585180D02*
X126082460Y-82028030D01*
X120522460Y-76468030D02*
X120522460Y-72770140D01*
X133875000Y-86375000D02*
X133875000Y-86337540D01*
X133875000Y-86337540D02*
X132212460Y-84675000D01*
D19*
X143264559Y-78510501D02*
X144263441Y-78510501D01*
X144263441Y-78510501D02*
X144984942Y-77789000D01*
X137765865Y-77671000D02*
X137883865Y-77789000D01*
X145985000Y-77789000D02*
X146304000Y-77470000D01*
X137625000Y-77671000D02*
X137765865Y-77671000D01*
X142543058Y-77789000D02*
X143264559Y-78510501D01*
X144984942Y-77789000D02*
X145985000Y-77789000D01*
X137883865Y-77789000D02*
X142543058Y-77789000D01*
X141249737Y-75377672D02*
X141261977Y-75342692D01*
X139037153Y-75203792D02*
X139123709Y-75149406D01*
X139424260Y-74308779D02*
X139461088Y-74304629D01*
X140276588Y-75414500D02*
X140276588Y-75986866D01*
X139626588Y-74792496D02*
X139638033Y-74894078D01*
X140214275Y-75285106D02*
X140240481Y-75311312D01*
X144984942Y-75249000D02*
X145985000Y-75249000D01*
X138811088Y-75249000D02*
X138839083Y-75249000D01*
X141073709Y-76343776D02*
X141145993Y-76271492D01*
X144263441Y-75970501D02*
X144984942Y-75249000D01*
X140535022Y-76398162D02*
X140631510Y-76431925D01*
X140272438Y-75377672D02*
X140276588Y-75414500D01*
X141411088Y-75249000D02*
X142543058Y-75249000D01*
X141261977Y-75342692D02*
X141281694Y-75311312D01*
X141234142Y-76088448D02*
X141245588Y-75986866D01*
X139250379Y-74990566D02*
X139284142Y-74894078D01*
X139798466Y-75149406D02*
X139885022Y-75203792D01*
X141374260Y-75253149D02*
X141411088Y-75249000D01*
X141245588Y-75414500D02*
X141249737Y-75377672D01*
X139532895Y-74321019D02*
X139564275Y-74340736D01*
X141339280Y-75265389D02*
X141374260Y-75253149D01*
X140631510Y-76431925D02*
X140733092Y-76443371D01*
X140789083Y-76443371D02*
X140890665Y-76431925D01*
X139284142Y-74894078D02*
X139295588Y-74792496D01*
X139299737Y-74433302D02*
X139311977Y-74398322D01*
X139590481Y-74366942D02*
X139610198Y-74398322D01*
X139726182Y-75077122D02*
X139798466Y-75149406D01*
X139295588Y-74792496D02*
X139295588Y-74470129D01*
X139123709Y-75149406D02*
X139195993Y-75077122D01*
X137525588Y-76534500D02*
X138811088Y-75249000D01*
X141145993Y-76271492D02*
X141200379Y-76184936D01*
X139331694Y-74366942D02*
X139357900Y-74340736D01*
X140147915Y-75253149D02*
X140182895Y-75265389D01*
X139981510Y-75237555D02*
X140083092Y-75249000D01*
X139497915Y-74308779D02*
X139532895Y-74321019D01*
X140288033Y-76088448D02*
X140321796Y-76184936D01*
X139195993Y-75077122D02*
X139250379Y-74990566D01*
X140182895Y-75265389D02*
X140214275Y-75285106D01*
X139626588Y-74470129D02*
X139626588Y-74792496D01*
X139671796Y-74990566D02*
X139726182Y-75077122D01*
X139885022Y-75203792D02*
X139981510Y-75237555D01*
X140276588Y-75986866D02*
X140288033Y-76088448D01*
X140376182Y-76271492D02*
X140448466Y-76343776D01*
X139389280Y-74321019D02*
X139424260Y-74308779D01*
X140240481Y-75311312D02*
X140260198Y-75342692D01*
X136925000Y-76671000D02*
X137061500Y-76534500D01*
X140987153Y-76398162D02*
X141073709Y-76343776D01*
X139357900Y-74340736D02*
X139389280Y-74321019D01*
X141200379Y-76184936D02*
X141234142Y-76088448D01*
X138940665Y-75237555D02*
X139037153Y-75203792D01*
X139564275Y-74340736D02*
X139590481Y-74366942D01*
X140733092Y-76443371D02*
X140789083Y-76443371D01*
X145985000Y-75249000D02*
X146304000Y-74930000D01*
X140083092Y-75249000D02*
X140111088Y-75249000D01*
X140260198Y-75342692D02*
X140272438Y-75377672D01*
X140448466Y-76343776D02*
X140535022Y-76398162D01*
X137061500Y-76534500D02*
X137525588Y-76534500D01*
X139461088Y-74304629D02*
X139497915Y-74308779D01*
X140890665Y-76431925D02*
X140987153Y-76398162D01*
X141245588Y-75986866D02*
X141245588Y-75414500D01*
X140111088Y-75249000D02*
X140147915Y-75253149D01*
X141307900Y-75285106D02*
X141339280Y-75265389D01*
X139622438Y-74433302D02*
X139626588Y-74470129D01*
X139610198Y-74398322D02*
X139622438Y-74433302D01*
X143264559Y-75970501D02*
X144263441Y-75970501D01*
X138839083Y-75249000D02*
X138940665Y-75237555D01*
X139295588Y-74470129D02*
X139299737Y-74433302D01*
X142543058Y-75249000D02*
X143264559Y-75970501D01*
X139311977Y-74398322D02*
X139331694Y-74366942D01*
X140321796Y-76184936D02*
X140376182Y-76271492D01*
X141281694Y-75311312D02*
X141307900Y-75285106D01*
X139638033Y-74894078D02*
X139671796Y-74990566D01*
X137600086Y-74449247D02*
X137684320Y-74468473D01*
X144984942Y-72709000D02*
X145985000Y-72709000D01*
X137975006Y-73450556D02*
X138045719Y-73379847D01*
X137714103Y-75290607D02*
X137735677Y-75196088D01*
X138104522Y-74253715D02*
X138158392Y-74186165D01*
X137854954Y-74449247D02*
X137932798Y-74411759D01*
X137949068Y-73524682D02*
X137949068Y-73504416D01*
X137611591Y-74841472D02*
X137592817Y-74822697D01*
X137156922Y-74311991D02*
X137163923Y-74281318D01*
X137770720Y-74468473D02*
X137854954Y-74449247D01*
X138158392Y-73775609D02*
X138104522Y-73708058D01*
X137932798Y-74411759D02*
X138000349Y-74357890D01*
X137231294Y-74206947D02*
X137251051Y-74202437D01*
X137213035Y-74215740D02*
X137231294Y-74206947D01*
X137574042Y-75491303D02*
X137611591Y-75453754D01*
X137714103Y-75004619D02*
X137672038Y-74917270D01*
X138017080Y-74341158D02*
X138104522Y-74253715D01*
X138158392Y-74186165D02*
X138195879Y-74108321D01*
X136373261Y-75057287D02*
X136401607Y-75043636D01*
X137953578Y-73544439D02*
X137949068Y-73524682D01*
X137949068Y-73504416D02*
X137953578Y-73484659D01*
X136547360Y-75076903D02*
X136961760Y-75491303D01*
X137672038Y-74917270D02*
X137611591Y-74841472D01*
X138215105Y-74024087D02*
X138215105Y-73937686D01*
X137163923Y-74374126D02*
X137156922Y-74343453D01*
X137316376Y-75615389D02*
X137410895Y-75593816D01*
X136134304Y-75291264D02*
X136348663Y-75076903D01*
X137163923Y-74281318D02*
X137177574Y-74252971D01*
X137197190Y-74427070D02*
X137177574Y-74402472D01*
X137735677Y-75196088D02*
X137735677Y-75099138D01*
X137962371Y-73466400D02*
X137975006Y-73450556D01*
X138195879Y-73853452D02*
X138158392Y-73775609D01*
X142543058Y-72709000D02*
X143264559Y-73430501D01*
X137975006Y-73578542D02*
X137962371Y-73562698D01*
X136348663Y-75076903D02*
X136373261Y-75057287D01*
X137156922Y-74343453D02*
X137156922Y-74311991D01*
X137037559Y-75551751D02*
X137124907Y-75593816D01*
X137522242Y-74411759D02*
X137600086Y-74449247D01*
X144263441Y-73430501D02*
X144984942Y-72709000D01*
X137271317Y-74202437D02*
X137291074Y-74206947D01*
X137611591Y-75453754D02*
X137672038Y-75377955D01*
X137197191Y-74228375D02*
X137213035Y-74215740D01*
X137684320Y-74468473D02*
X137770720Y-74468473D01*
X137962371Y-73562698D02*
X137953578Y-73544439D01*
X138045719Y-73379847D02*
X138716568Y-72709000D01*
X137309333Y-74215740D02*
X137325177Y-74228375D01*
X145985000Y-72709000D02*
X146304000Y-72390000D01*
X137251051Y-74202437D02*
X137271317Y-74202437D01*
X136961760Y-75491303D02*
X137037559Y-75551751D01*
X137177574Y-74402472D02*
X137163923Y-74374126D01*
X137410895Y-75593816D02*
X137498244Y-75551751D01*
X137592817Y-74822697D02*
X137197190Y-74427070D01*
X136134304Y-75484304D02*
X136134304Y-75291264D01*
X137953578Y-73484659D02*
X137962371Y-73466400D01*
X138000349Y-74357890D02*
X138017080Y-74341158D01*
X138195879Y-74108321D02*
X138215105Y-74024087D01*
X137672038Y-75377955D02*
X137714103Y-75290607D01*
X143264559Y-73430501D02*
X144263441Y-73430501D01*
X137325177Y-74228375D02*
X137454692Y-74357890D01*
X136494416Y-75043636D02*
X136522762Y-75057287D01*
X138104522Y-73708058D02*
X137975006Y-73578542D01*
X137735677Y-75099138D02*
X137714103Y-75004619D01*
X136401607Y-75043636D02*
X136432281Y-75036635D01*
X136463743Y-75036635D02*
X136494416Y-75043636D01*
X138716568Y-72709000D02*
X142543058Y-72709000D01*
X137454692Y-74357890D02*
X137522242Y-74411759D01*
X137197190Y-74228373D02*
X137197191Y-74228375D01*
X138215105Y-73937686D02*
X138195879Y-73853452D01*
X136522762Y-75057287D02*
X136547360Y-75076903D01*
X136432281Y-75036635D02*
X136463743Y-75036635D01*
X137177574Y-74252971D02*
X137197190Y-74228373D01*
X137219426Y-75615389D02*
X137316376Y-75615389D01*
X137291074Y-74206947D02*
X137309333Y-74215740D01*
X137498244Y-75551751D02*
X137574042Y-75491303D01*
X137124907Y-75593816D02*
X137219426Y-75615389D01*
X136148366Y-77458202D02*
X136131827Y-77530663D01*
X136131827Y-77530663D02*
X136131827Y-77604987D01*
X136362007Y-77193416D02*
X136358776Y-77200128D01*
X134822884Y-78128249D02*
X134922545Y-78105502D01*
X136354132Y-77158908D02*
X136358776Y-77164732D01*
X135003429Y-76630059D02*
X135003429Y-76667119D01*
X134620998Y-78105502D02*
X134720660Y-78128249D01*
X136161300Y-76967256D02*
X136167124Y-76971900D01*
X136180613Y-77744410D02*
X136226953Y-77802520D01*
X136139876Y-76962365D02*
X136147326Y-76962366D01*
X136148366Y-77677448D02*
X136180613Y-77744410D01*
X136363665Y-77178704D02*
X136363666Y-77186154D01*
X134278546Y-77583912D02*
X134278546Y-77686136D01*
X134995182Y-76593928D02*
X135003429Y-76630059D01*
X136358776Y-77164732D02*
X136362007Y-77171442D01*
X142081312Y-80329000D02*
X142543058Y-80329000D01*
X136362007Y-77171442D02*
X136363665Y-77178704D01*
X134345647Y-77392149D02*
X134301293Y-77484250D01*
X136226953Y-77333128D02*
X136180614Y-77391238D01*
X134409383Y-77957821D02*
X134448975Y-77997413D01*
X136120080Y-76971900D02*
X136125904Y-76967256D01*
X145985000Y-80329000D02*
X146304000Y-80010000D01*
X134301293Y-77484250D02*
X134278546Y-77583912D01*
X135094569Y-77997413D02*
X136120080Y-76971900D01*
X134278546Y-77686136D02*
X134301293Y-77785798D01*
X134409383Y-77312227D02*
X134345647Y-77392149D01*
X134955996Y-76765615D02*
X134409383Y-77312227D01*
X136132614Y-76964023D02*
X136139876Y-76962365D01*
X136147326Y-76962366D02*
X136154588Y-76964024D01*
X140489352Y-78737040D02*
X142081312Y-80329000D01*
X136226953Y-77802520D02*
X137161472Y-78737040D01*
X144984942Y-80329000D02*
X145985000Y-80329000D01*
X134720660Y-78128249D02*
X134822884Y-78128249D01*
X134301293Y-77785798D02*
X134345647Y-77877899D01*
X143264559Y-81050501D02*
X144263441Y-81050501D01*
X136125904Y-76967256D02*
X136132614Y-76964023D01*
X135014647Y-78061149D02*
X135094569Y-77997413D01*
X134528897Y-78061149D02*
X134620998Y-78105502D01*
X137161472Y-78737040D02*
X140489352Y-78737040D01*
X134979103Y-76560538D02*
X134995182Y-76593928D01*
X136358776Y-77200128D02*
X136354132Y-77205952D01*
X134345647Y-77877899D02*
X134409383Y-77957821D01*
X134448975Y-77997413D02*
X134528897Y-78061149D01*
X136154588Y-76964024D02*
X136161300Y-76967256D01*
X134308736Y-75884304D02*
X134955996Y-76531563D01*
X136180614Y-77391238D02*
X136148366Y-77458202D01*
X136363666Y-77186154D02*
X136362007Y-77193416D01*
X142543058Y-80329000D02*
X143264559Y-81050501D01*
X134995182Y-76703250D02*
X134979103Y-76736641D01*
X135003429Y-76667119D02*
X134995182Y-76703250D01*
X144263441Y-81050501D02*
X144984942Y-80329000D01*
X134979103Y-76736641D02*
X134955996Y-76765615D01*
X134115696Y-75884304D02*
X134308736Y-75884304D01*
X134955996Y-76531563D02*
X134979103Y-76560538D01*
X136131827Y-77604987D02*
X136148366Y-77677448D01*
X134922545Y-78105502D02*
X135014647Y-78061149D01*
X136167124Y-76971900D02*
X136354132Y-77158908D01*
X136354132Y-77205952D02*
X136226953Y-77333128D01*
X143445000Y-77470000D02*
X143764000Y-77470000D01*
X137625000Y-77079000D02*
X138016000Y-77470000D01*
X138016000Y-77470000D02*
X143445000Y-77470000D01*
X138678952Y-74930000D02*
X138811088Y-74930000D01*
X140864275Y-76088264D02*
X140890481Y-76062058D01*
X141026182Y-75101878D02*
X141098466Y-75029594D01*
X140910198Y-76030678D02*
X140922438Y-75995698D01*
X139148466Y-74085224D02*
X139235022Y-74030838D01*
X139331510Y-73997075D02*
X139433092Y-73985629D01*
X140631694Y-76062058D02*
X140657900Y-76088264D01*
X140938033Y-75284922D02*
X140971796Y-75188434D01*
X139773709Y-74085224D02*
X139845993Y-74157508D01*
X139021796Y-74244064D02*
X139076182Y-74157508D01*
X143445000Y-74930000D02*
X143764000Y-74930000D01*
X140599737Y-75995698D02*
X140611977Y-76030678D01*
X139235022Y-74030838D02*
X139331510Y-73997075D01*
X140423709Y-75029594D02*
X140495993Y-75101878D01*
X139900379Y-74244064D02*
X139934142Y-74340552D01*
X140495993Y-75101878D02*
X140550379Y-75188434D01*
X140926588Y-75386504D02*
X140938033Y-75284922D01*
X141098466Y-75029594D02*
X141185022Y-74975208D01*
X138976588Y-74442134D02*
X138988033Y-74340552D01*
X139934142Y-74340552D02*
X139945588Y-74442134D01*
X140724260Y-76120221D02*
X140761088Y-76124371D01*
X140595588Y-75958871D02*
X140599737Y-75995698D01*
X139949737Y-74801328D02*
X139961977Y-74836308D01*
X138972438Y-74801328D02*
X138976588Y-74764500D01*
X140611977Y-76030678D02*
X140631694Y-76062058D01*
X139590665Y-73997075D02*
X139687153Y-74030838D01*
X140832895Y-76107981D02*
X140864275Y-76088264D01*
X140689280Y-76107981D02*
X140724260Y-76120221D01*
X137393452Y-76215500D02*
X138678952Y-74930000D01*
X139433092Y-73985629D02*
X139489083Y-73985629D01*
X140926588Y-75958871D02*
X140926588Y-75386504D01*
X138988033Y-74340552D02*
X139021796Y-74244064D01*
X141185022Y-74975208D02*
X141281510Y-74941445D01*
X139981694Y-74867688D02*
X140007900Y-74893894D01*
X138940481Y-74867688D02*
X138960198Y-74836308D01*
X140139083Y-74930000D02*
X140240665Y-74941445D01*
X140657900Y-76088264D02*
X140689280Y-76107981D01*
X138811088Y-74930000D02*
X138847915Y-74925851D01*
X139845993Y-74157508D02*
X139900379Y-74244064D01*
X140074260Y-74925851D02*
X140111088Y-74930000D01*
X140240665Y-74941445D02*
X140337153Y-74975208D01*
X141281510Y-74941445D02*
X141383092Y-74930000D01*
X140584142Y-75284922D02*
X140595588Y-75386504D01*
X138882895Y-74913611D02*
X138914275Y-74893894D01*
X139076182Y-74157508D02*
X139148466Y-74085224D01*
X140337153Y-74975208D02*
X140423709Y-75029594D01*
X138976588Y-74764500D02*
X138976588Y-74442134D01*
X137061500Y-76215500D02*
X137393452Y-76215500D01*
X140971796Y-75188434D02*
X141026182Y-75101878D01*
X139961977Y-74836308D02*
X139981694Y-74867688D01*
X139945588Y-74764500D02*
X139949737Y-74801328D01*
X140111088Y-74930000D02*
X140139083Y-74930000D01*
X140550379Y-75188434D02*
X140584142Y-75284922D01*
X136925000Y-76079000D02*
X137061500Y-76215500D01*
X138960198Y-74836308D02*
X138972438Y-74801328D01*
X140007900Y-74893894D02*
X140039280Y-74913611D01*
X140761088Y-76124371D02*
X140797915Y-76120221D01*
X140797915Y-76120221D02*
X140832895Y-76107981D01*
X138914275Y-74893894D02*
X138940481Y-74867688D01*
X139945588Y-74442134D02*
X139945588Y-74764500D01*
X140039280Y-74913611D02*
X140074260Y-74925851D01*
X140890481Y-76062058D02*
X140910198Y-76030678D01*
X138847915Y-74925851D02*
X138882895Y-74913611D01*
X140922438Y-75995698D02*
X140926588Y-75958871D01*
X140595588Y-75386504D02*
X140595588Y-75958871D01*
X141383092Y-74930000D02*
X143445000Y-74930000D01*
X139687153Y-74030838D02*
X139773709Y-74085224D01*
X139489083Y-73985629D02*
X139590665Y-73997075D01*
X136141871Y-74832561D02*
X136217669Y-74772114D01*
X136952849Y-74021581D02*
X136971623Y-74002806D01*
X137367250Y-75048264D02*
X136952849Y-74633863D01*
X137388618Y-73894719D02*
X137466462Y-73932207D01*
X137732707Y-73241720D02*
X137820152Y-73154280D01*
X136892401Y-74558064D02*
X136850336Y-74470716D01*
X137641350Y-73387115D02*
X137678838Y-73309271D01*
X137133750Y-73894719D02*
X137217984Y-73875493D01*
X137678838Y-73309271D02*
X137732707Y-73241720D01*
X137407518Y-75131882D02*
X137400517Y-75101209D01*
X137252170Y-75287230D02*
X137283632Y-75287230D01*
X137717387Y-74141529D02*
X137737653Y-74141529D01*
X137775669Y-74128226D02*
X137791513Y-74115591D01*
X136988356Y-73986076D02*
X137055906Y-73932207D01*
X137697630Y-74137019D02*
X137717387Y-74141529D01*
X136678354Y-74772114D02*
X136754152Y-74832561D01*
X137367250Y-75246962D02*
X137386866Y-75222364D01*
X137055906Y-73932207D02*
X137133750Y-73894719D01*
X137622124Y-73557749D02*
X137622124Y-73471349D01*
X137193151Y-75266578D02*
X137221497Y-75280229D01*
X137407518Y-75163344D02*
X137407518Y-75131882D01*
X137283632Y-75287230D02*
X137314305Y-75280229D01*
X136971624Y-74002808D02*
X136988356Y-73986076D01*
X137862223Y-73916893D02*
X137732707Y-73787377D01*
X136828763Y-74279247D02*
X136850336Y-74184728D01*
X137622124Y-73471349D02*
X137641350Y-73387115D01*
X135908736Y-75065696D02*
X136141871Y-74832561D01*
X136850336Y-74470716D02*
X136828763Y-74376197D01*
X137883651Y-73950996D02*
X137874859Y-73932738D01*
X136850336Y-74184728D02*
X136892401Y-74097379D01*
X137663527Y-74115591D02*
X137679371Y-74128226D01*
X136952849Y-74633863D02*
X136892401Y-74558064D01*
X137221497Y-75280229D02*
X137252170Y-75287230D01*
X138584432Y-72390000D02*
X143445000Y-72390000D01*
X137888161Y-73970754D02*
X137883651Y-73950996D01*
X137883651Y-74010777D02*
X137888161Y-73991019D01*
X137168553Y-75246962D02*
X137193151Y-75266578D01*
X137314305Y-75280229D02*
X137342652Y-75266578D01*
X136399537Y-74708476D02*
X136496486Y-74708476D01*
X143445000Y-72390000D02*
X143764000Y-72390000D01*
X137874859Y-74029036D02*
X137883651Y-74010777D01*
X137550744Y-74002808D02*
X137663527Y-74115591D01*
X137342652Y-75266578D02*
X137367250Y-75246962D01*
X136754152Y-74832561D02*
X137168553Y-75246962D01*
X137679371Y-74128226D02*
X137697630Y-74137019D01*
X137874859Y-73932738D02*
X137862223Y-73916893D01*
X137820152Y-73154280D02*
X138584432Y-72390000D01*
X137386866Y-75072862D02*
X137367250Y-75048264D01*
X136591005Y-74730049D02*
X136678354Y-74772114D01*
X137534013Y-73986076D02*
X137550744Y-74002808D01*
X137888161Y-73991019D02*
X137888161Y-73970754D01*
X136496486Y-74708476D02*
X136591005Y-74730049D01*
X137217984Y-73875493D02*
X137304384Y-73875493D01*
X136892401Y-74097379D02*
X136952849Y-74021581D01*
X137791513Y-74115591D02*
X137862223Y-74044880D01*
X137400517Y-75194017D02*
X137407518Y-75163344D01*
X137466462Y-73932207D02*
X137534013Y-73986076D01*
X137732707Y-73787377D02*
X137678838Y-73719827D01*
X137386866Y-75222364D02*
X137400517Y-75194017D01*
X137304384Y-73875493D02*
X137388618Y-73894719D01*
X137641350Y-73641983D02*
X137622124Y-73557749D01*
X136217669Y-74772114D02*
X136305018Y-74730049D01*
X136305018Y-74730049D02*
X136399537Y-74708476D01*
X136828763Y-74376197D02*
X136828763Y-74279247D01*
X137757410Y-74137019D02*
X137775669Y-74128226D01*
X137400517Y-75101209D02*
X137386866Y-75072862D01*
X137862223Y-74044880D02*
X137874859Y-74029036D01*
X136971623Y-74002806D02*
X136971624Y-74002808D01*
X135715696Y-75065696D02*
X135908736Y-75065696D01*
X137737653Y-74141529D02*
X137757410Y-74137019D01*
X137678838Y-73719827D02*
X137641350Y-73641983D01*
X134607313Y-77653554D02*
X134615560Y-77689685D01*
X136672681Y-77072807D02*
X136689218Y-77145267D01*
X136459038Y-77556838D02*
X136457380Y-77564100D01*
X134534304Y-75658736D02*
X135201359Y-76325792D01*
X135309449Y-76799363D02*
X135265095Y-76891464D01*
X134615560Y-77689685D02*
X134631639Y-77723075D01*
X136672681Y-77292053D02*
X136640433Y-77359017D01*
X135265095Y-76891464D02*
X135201359Y-76971386D01*
X134859823Y-77775156D02*
X134888798Y-77752050D01*
X136459037Y-77578810D02*
X136462269Y-77585522D01*
X134654746Y-77517998D02*
X134631639Y-77546973D01*
X134607313Y-77616494D02*
X134607313Y-77653554D01*
X136466913Y-77544302D02*
X136462269Y-77550126D01*
X136033980Y-76653353D02*
X136106439Y-76636813D01*
X136640433Y-77359017D02*
X136594092Y-77417126D01*
X136689218Y-77219591D02*
X136672681Y-77292053D01*
X136579699Y-77431519D02*
X136466913Y-77544302D01*
X136378296Y-76731939D02*
X136392691Y-76746333D01*
X135265095Y-76405714D02*
X135309449Y-76497815D01*
X136658449Y-77782881D02*
X137293608Y-78418040D01*
X140621488Y-78418040D02*
X142213448Y-80010000D01*
X134631639Y-77723075D02*
X134654746Y-77752050D01*
X136640433Y-77005843D02*
X136672681Y-77072807D01*
X136253224Y-76653351D02*
X136320188Y-76685600D01*
X134534304Y-75465696D02*
X134534304Y-75658736D01*
X136457379Y-77571548D02*
X136459037Y-77578810D01*
X136392691Y-76746333D02*
X136594092Y-76947734D01*
X135201359Y-76325792D02*
X135265095Y-76405714D01*
X143445000Y-80010000D02*
X143764000Y-80010000D01*
X134615560Y-77580363D02*
X134607313Y-77616494D01*
X136594092Y-76947734D02*
X136640433Y-77005843D01*
X136180765Y-76636814D02*
X136253224Y-76653351D01*
X136689218Y-77145267D02*
X136689218Y-77219591D01*
X136462269Y-77585522D02*
X136466913Y-77591346D01*
X134683720Y-77775156D02*
X134717110Y-77791236D01*
X136320188Y-76685600D02*
X136378296Y-76731939D01*
X134631639Y-77546973D02*
X134615560Y-77580363D01*
X135309449Y-76497815D02*
X135332196Y-76597477D01*
X135908906Y-76731940D02*
X135967016Y-76685601D01*
X142213448Y-80010000D02*
X143445000Y-80010000D01*
X136466913Y-77591346D02*
X136658449Y-77782881D01*
X135201359Y-76971386D02*
X134654746Y-77517998D01*
X137293608Y-78418040D02*
X140621488Y-78418040D01*
X136457380Y-77564100D02*
X136457379Y-77571548D01*
X136594092Y-77417126D02*
X136579699Y-77431519D01*
X134753242Y-77799483D02*
X134790302Y-77799483D01*
X135332196Y-76597477D02*
X135332196Y-76699701D01*
X135967016Y-76685601D02*
X136033980Y-76653353D01*
X134654746Y-77752050D02*
X134683720Y-77775156D01*
X136106439Y-76636813D02*
X136180765Y-76636814D01*
X134826433Y-77791236D02*
X134859823Y-77775156D01*
X134888798Y-77752050D02*
X135908906Y-76731940D01*
X135332196Y-76699701D02*
X135309449Y-76799363D01*
X136462269Y-77550126D02*
X136459038Y-77556838D01*
X134790302Y-77799483D02*
X134826433Y-77791236D01*
X134717110Y-77791236D02*
X134753242Y-77799483D01*
X140187120Y-82762880D02*
X140187120Y-85133202D01*
X140187120Y-85133202D02*
X140189167Y-85135249D01*
X140775000Y-82175000D02*
X140187120Y-82762880D01*
X141325000Y-82175000D02*
X140775000Y-82175000D01*
X135361120Y-85138360D02*
X134182560Y-85138360D01*
D22*
X133925000Y-83675000D02*
X135225000Y-83675000D01*
D19*
X133936180Y-84891980D02*
X133928560Y-84891980D01*
X135225000Y-83675000D02*
X137615510Y-81284490D01*
X135759900Y-85790100D02*
X135759900Y-85537140D01*
X134182560Y-85138360D02*
X133936180Y-84891980D01*
X133928560Y-83678560D02*
X133925000Y-83675000D01*
X135175000Y-86375000D02*
X135759900Y-85790100D01*
X137615510Y-81284490D02*
X140845000Y-81284490D01*
X135759900Y-85537140D02*
X135361120Y-85138360D01*
X133928560Y-84891980D02*
X133928560Y-83678560D01*
X125579580Y-78671520D02*
X125579580Y-77228800D01*
X125579580Y-77228800D02*
X125645620Y-77162760D01*
M02*
