G04 #@! TF.GenerationSoftware,KiCad,Pcbnew,7.0.6+dfsg-1*
G04 #@! TF.CreationDate,2023-08-23T13:02:17+02:00*
G04 #@! TF.ProjectId,GPDI_ULX3S,47504449-5f55-44c5-9833-532e6b696361,1.6*
G04 #@! TF.SameCoordinates,Original*
G04 #@! TF.FileFunction,Copper,L2,Inr*
G04 #@! TF.FilePolarity,Positive*
%FSLAX46Y46*%
G04 Gerber Fmt 4.6, Leading zero omitted, Abs format (unit mm)*
G04 Created by KiCad (PCBNEW 7.0.6+dfsg-1) date 2023-08-23 13:02:17*
%MOMM*%
%LPD*%
G01*
G04 APERTURE LIST*
G04 #@! TA.AperFunction,ComponentPad*
%ADD10R,1.700000X1.700000*%
G04 #@! TD*
G04 #@! TA.AperFunction,ComponentPad*
%ADD11O,1.700000X1.700000*%
G04 #@! TD*
G04 #@! TA.AperFunction,ComponentPad*
%ADD12C,2.000000*%
G04 #@! TD*
G04 #@! TA.AperFunction,ViaPad*
%ADD13C,0.400000*%
G04 #@! TD*
G04 #@! TA.AperFunction,Conductor*
%ADD14C,0.500000*%
G04 #@! TD*
G04 APERTURE END LIST*
D10*
X143764000Y-67310000D03*
D11*
X146304000Y-67310000D03*
X143764000Y-69850000D03*
X146304000Y-69850000D03*
X143764000Y-72390000D03*
X146304000Y-72390000D03*
X143764000Y-74930000D03*
X146304000Y-74930000D03*
X143764000Y-77470000D03*
X146304000Y-77470000D03*
X143764000Y-80010000D03*
X146304000Y-80010000D03*
X143764000Y-82550000D03*
X146304000Y-82550000D03*
X143764000Y-85090000D03*
X146304000Y-85090000D03*
X143764000Y-87630000D03*
X146304000Y-87630000D03*
D12*
X113069740Y-68670140D03*
X117969740Y-69270140D03*
X117969740Y-83770140D03*
X113069740Y-84370140D03*
D13*
X135052460Y-72525180D03*
X139902460Y-71985180D03*
X115392460Y-80555180D03*
X115362460Y-77085180D03*
X115392460Y-73205180D03*
X141622460Y-83605180D03*
X142022460Y-81135180D03*
X138402460Y-80675180D03*
X124652460Y-70035180D03*
X121522460Y-69955180D03*
X121502460Y-85535180D03*
X124952460Y-83505180D03*
X127582460Y-83985180D03*
X129112460Y-85165180D03*
X131175960Y-84135180D03*
X136642460Y-79115180D03*
X139032460Y-79505180D03*
X142262460Y-78825180D03*
X142142460Y-75925180D03*
X141532460Y-73755180D03*
X129582460Y-73125180D03*
X129532460Y-70275180D03*
X130672460Y-69025180D03*
X128842460Y-68255180D03*
X149342460Y-84585180D03*
X149342460Y-81585180D03*
X149342460Y-75585180D03*
X149342460Y-78585180D03*
X149342460Y-72585180D03*
X149342460Y-69585180D03*
X111412460Y-88205180D03*
X111422460Y-84585180D03*
X111422460Y-81585180D03*
X111422460Y-78585180D03*
X111422460Y-75585180D03*
X111422460Y-72585180D03*
X111422460Y-69585180D03*
X149382460Y-88145180D03*
X139532460Y-88185180D03*
X135872460Y-88185180D03*
X132362460Y-88205180D03*
X126362460Y-88205180D03*
X123362460Y-88205180D03*
X120362460Y-88205180D03*
X117362460Y-88205180D03*
X114362460Y-88205180D03*
X149372460Y-66585180D03*
X147422460Y-66585180D03*
X141422460Y-66585180D03*
X138422460Y-66585180D03*
X135422460Y-66585180D03*
X132422460Y-66585180D03*
X126422460Y-66585180D03*
X123422460Y-66585180D03*
X120422460Y-66585180D03*
X117422460Y-66585180D03*
X114422460Y-66585180D03*
X111422460Y-66585180D03*
X144982460Y-69315180D03*
X145022460Y-71085180D03*
X145072460Y-73875180D03*
X145082460Y-79055180D03*
X145102460Y-77075180D03*
X135412460Y-74545180D03*
X134942460Y-74995180D03*
X131602460Y-83495180D03*
X126508960Y-83305180D03*
X126082460Y-84585180D03*
X120522460Y-72770140D03*
X128642460Y-83995180D03*
X132412460Y-86655180D03*
X132212460Y-84675000D03*
X135103240Y-79802960D03*
X135883020Y-79828360D03*
X133452460Y-80405180D03*
X133942460Y-79785180D03*
X130913580Y-73444200D03*
X132569660Y-74119840D03*
X134281620Y-73416260D03*
X117563340Y-73258780D03*
X138652460Y-73705180D03*
X137974780Y-84437320D03*
X139112460Y-75635180D03*
X117578580Y-80767020D03*
X136652460Y-67555180D03*
X117560800Y-76263600D03*
X117568420Y-79263340D03*
X117563340Y-77749500D03*
X141134523Y-84984523D03*
X133565340Y-76482040D03*
X133440000Y-70204818D03*
X136442460Y-73685180D03*
X126095000Y-78535000D03*
X126105000Y-76865000D03*
X131353140Y-76474280D03*
X126786563Y-73556563D03*
X137356020Y-86975009D03*
X139427700Y-76540420D03*
X125775000Y-80935000D03*
X126105000Y-75855000D03*
X126268918Y-80578515D03*
X139965840Y-71291550D03*
X141973438Y-70936158D03*
X137625000Y-77671000D03*
X136925000Y-76671000D03*
X136134304Y-75484304D03*
X134115696Y-75884304D03*
X139788340Y-84772600D03*
X137625000Y-77079000D03*
X136925000Y-76079000D03*
X135715696Y-75065696D03*
X134534304Y-75465696D03*
X140189167Y-85135249D03*
X141325000Y-82175000D03*
X140845000Y-81284490D03*
X142152460Y-68415180D03*
X133907610Y-82646842D03*
X133162460Y-82595180D03*
X130002460Y-69465180D03*
X133304500Y-69545180D03*
X134432460Y-68765180D03*
X135775140Y-68125440D03*
X129742460Y-68475180D03*
X132411890Y-68965272D03*
X125579580Y-78671520D03*
X125645620Y-77162760D03*
X129872460Y-71015180D03*
X121347940Y-74815800D03*
D14*
X143878400Y-85204400D02*
X143764000Y-85090000D01*
G04 #@! TA.AperFunction,Conductor*
G36*
X128822392Y-66018806D02*
G01*
X128838981Y-66052719D01*
X128839714Y-66052573D01*
X128840158Y-66054797D01*
X128904822Y-66288590D01*
X129002489Y-66510649D01*
X129131105Y-66716309D01*
X129131105Y-66716310D01*
X129288003Y-66901312D01*
X129288008Y-66901317D01*
X129288907Y-66902110D01*
X129469911Y-67061792D01*
X129673030Y-67194401D01*
X129893123Y-67296374D01*
X129893124Y-67296374D01*
X129893130Y-67296377D01*
X130125621Y-67365593D01*
X130281879Y-67388385D01*
X130365647Y-67400605D01*
X130365649Y-67400605D01*
X130365656Y-67400606D01*
X130607663Y-67400685D01*
X130608224Y-67400686D01*
X130608224Y-67400685D01*
X130608231Y-67400686D01*
X130848290Y-67365833D01*
X131080827Y-67296771D01*
X131300994Y-67194942D01*
X131504202Y-67062467D01*
X131686213Y-66902110D01*
X131843235Y-66717212D01*
X131971992Y-66511629D01*
X132069801Y-66289646D01*
X132134622Y-66055892D01*
X132134709Y-66055198D01*
X132134789Y-66055057D01*
X132135069Y-66053664D01*
X132135530Y-66053756D01*
X132158386Y-66013637D01*
X132196720Y-66000500D01*
X150357000Y-66000500D01*
X150401194Y-66018806D01*
X150419500Y-66063000D01*
X150419500Y-88787000D01*
X150401194Y-88831194D01*
X150357000Y-88849500D01*
X146465636Y-88849500D01*
X146421442Y-88831194D01*
X146403136Y-88787000D01*
X146421442Y-88742806D01*
X146454152Y-88725564D01*
X146485108Y-88719777D01*
X146607556Y-88696888D01*
X146798427Y-88622944D01*
X146972462Y-88515186D01*
X147123732Y-88377285D01*
X147247088Y-88213935D01*
X147338328Y-88030701D01*
X147394345Y-87833821D01*
X147406647Y-87701061D01*
X147413232Y-87630004D01*
X147413232Y-87629995D01*
X147394346Y-87426186D01*
X147394344Y-87426174D01*
X147364712Y-87322030D01*
X147338328Y-87229299D01*
X147247088Y-87046065D01*
X147247085Y-87046061D01*
X147247084Y-87046059D01*
X147123740Y-86882724D01*
X147123735Y-86882719D01*
X147123732Y-86882715D01*
X147028834Y-86796204D01*
X146972466Y-86744817D01*
X146972463Y-86744815D01*
X146972462Y-86744814D01*
X146798427Y-86637056D01*
X146798425Y-86637055D01*
X146607553Y-86563111D01*
X146539422Y-86550375D01*
X146499344Y-86524260D01*
X146489471Y-86477454D01*
X146515586Y-86437376D01*
X146540620Y-86427291D01*
X146638512Y-86410956D01*
X146851371Y-86337881D01*
X146851372Y-86337880D01*
X147049300Y-86230768D01*
X147049302Y-86230767D01*
X147226895Y-86092541D01*
X147226898Y-86092538D01*
X147379322Y-85926962D01*
X147379325Y-85926957D01*
X147502414Y-85738557D01*
X147502416Y-85738554D01*
X147592820Y-85532455D01*
X147592821Y-85532451D01*
X147640543Y-85344000D01*
X146735116Y-85344000D01*
X146763493Y-85299844D01*
X146804000Y-85161889D01*
X146804000Y-85018111D01*
X146763493Y-84880156D01*
X146735116Y-84836000D01*
X147640543Y-84836000D01*
X147592821Y-84647548D01*
X147592820Y-84647544D01*
X147502416Y-84441445D01*
X147502414Y-84441442D01*
X147379325Y-84253042D01*
X147379322Y-84253037D01*
X147226898Y-84087461D01*
X147226895Y-84087458D01*
X147049302Y-83949232D01*
X147049300Y-83949231D01*
X146851372Y-83842119D01*
X146851371Y-83842118D01*
X146638512Y-83769043D01*
X146540620Y-83752708D01*
X146500041Y-83727377D01*
X146489259Y-83680773D01*
X146514590Y-83640194D01*
X146539422Y-83629624D01*
X146607556Y-83616888D01*
X146798427Y-83542944D01*
X146972462Y-83435186D01*
X147123732Y-83297285D01*
X147127312Y-83292545D01*
X147236346Y-83148160D01*
X147247088Y-83133935D01*
X147338328Y-82950701D01*
X147394345Y-82753821D01*
X147405865Y-82629500D01*
X147413232Y-82550004D01*
X147413232Y-82549995D01*
X147394346Y-82346186D01*
X147394344Y-82346174D01*
X147361051Y-82229163D01*
X147338328Y-82149299D01*
X147247088Y-81966065D01*
X147247085Y-81966061D01*
X147247084Y-81966059D01*
X147123740Y-81802724D01*
X147123735Y-81802719D01*
X147123732Y-81802715D01*
X147013440Y-81702170D01*
X146972466Y-81664817D01*
X146972463Y-81664815D01*
X146972462Y-81664814D01*
X146798427Y-81557056D01*
X146798425Y-81557055D01*
X146735647Y-81532735D01*
X146607556Y-81483112D01*
X146607553Y-81483111D01*
X146607552Y-81483111D01*
X146406351Y-81445500D01*
X146406347Y-81445500D01*
X146201653Y-81445500D01*
X146201648Y-81445500D01*
X146000447Y-81483111D01*
X145809574Y-81557055D01*
X145635533Y-81664817D01*
X145484266Y-81802717D01*
X145484259Y-81802724D01*
X145360915Y-81966059D01*
X145360912Y-81966065D01*
X145269672Y-82149298D01*
X145213655Y-82346174D01*
X145213653Y-82346186D01*
X145194768Y-82549995D01*
X145194768Y-82550004D01*
X145213653Y-82753813D01*
X145213655Y-82753825D01*
X145260418Y-82918177D01*
X145269672Y-82950701D01*
X145360912Y-83133935D01*
X145360913Y-83133936D01*
X145360915Y-83133940D01*
X145484259Y-83297275D01*
X145484264Y-83297280D01*
X145484268Y-83297285D01*
X145544859Y-83352521D01*
X145635533Y-83435182D01*
X145635534Y-83435183D01*
X145635538Y-83435186D01*
X145809573Y-83542944D01*
X146000444Y-83616888D01*
X146059637Y-83627953D01*
X146068576Y-83629624D01*
X146108654Y-83655739D01*
X146118528Y-83702544D01*
X146092413Y-83742622D01*
X146067379Y-83752708D01*
X145969487Y-83769043D01*
X145756628Y-83842118D01*
X145756627Y-83842119D01*
X145558699Y-83949231D01*
X145558697Y-83949232D01*
X145381104Y-84087458D01*
X145381101Y-84087461D01*
X145228677Y-84253037D01*
X145228674Y-84253042D01*
X145105585Y-84441442D01*
X145105580Y-84441451D01*
X145091235Y-84474155D01*
X145056718Y-84507273D01*
X145008893Y-84506283D01*
X144976765Y-84474155D01*
X144962419Y-84441451D01*
X144962414Y-84441442D01*
X144839325Y-84253042D01*
X144839322Y-84253037D01*
X144686898Y-84087461D01*
X144686895Y-84087458D01*
X144509302Y-83949232D01*
X144509300Y-83949231D01*
X144311372Y-83842119D01*
X144311371Y-83842118D01*
X144098512Y-83769043D01*
X144000620Y-83752708D01*
X143960041Y-83727377D01*
X143949259Y-83680773D01*
X143974590Y-83640194D01*
X143999422Y-83629624D01*
X144067556Y-83616888D01*
X144258427Y-83542944D01*
X144432462Y-83435186D01*
X144583732Y-83297285D01*
X144587312Y-83292545D01*
X144696346Y-83148160D01*
X144707088Y-83133935D01*
X144798328Y-82950701D01*
X144854345Y-82753821D01*
X144865865Y-82629500D01*
X144873232Y-82550004D01*
X144873232Y-82549995D01*
X144854346Y-82346186D01*
X144854344Y-82346174D01*
X144821051Y-82229163D01*
X144798328Y-82149299D01*
X144707088Y-81966065D01*
X144707085Y-81966061D01*
X144707084Y-81966059D01*
X144583740Y-81802724D01*
X144583735Y-81802719D01*
X144583732Y-81802715D01*
X144473440Y-81702170D01*
X144432466Y-81664817D01*
X144432463Y-81664815D01*
X144432462Y-81664814D01*
X144258427Y-81557056D01*
X144258425Y-81557055D01*
X144195647Y-81532735D01*
X144067556Y-81483112D01*
X144067553Y-81483111D01*
X144067552Y-81483111D01*
X143866351Y-81445500D01*
X143866347Y-81445500D01*
X143661653Y-81445500D01*
X143661648Y-81445500D01*
X143460447Y-81483111D01*
X143269574Y-81557055D01*
X143095533Y-81664817D01*
X142944266Y-81802717D01*
X142944259Y-81802724D01*
X142820915Y-81966059D01*
X142820912Y-81966065D01*
X142729672Y-82149298D01*
X142673655Y-82346174D01*
X142673653Y-82346186D01*
X142654768Y-82549995D01*
X142654768Y-82550004D01*
X142673653Y-82753813D01*
X142673655Y-82753825D01*
X142720418Y-82918177D01*
X142729672Y-82950701D01*
X142820912Y-83133935D01*
X142820913Y-83133936D01*
X142820915Y-83133940D01*
X142944259Y-83297275D01*
X142944264Y-83297280D01*
X142944268Y-83297285D01*
X143004859Y-83352521D01*
X143095533Y-83435182D01*
X143095534Y-83435183D01*
X143095538Y-83435186D01*
X143269573Y-83542944D01*
X143460444Y-83616888D01*
X143519637Y-83627953D01*
X143528576Y-83629624D01*
X143568654Y-83655739D01*
X143578528Y-83702544D01*
X143552413Y-83742622D01*
X143527379Y-83752708D01*
X143429487Y-83769043D01*
X143216628Y-83842118D01*
X143216627Y-83842119D01*
X143018699Y-83949231D01*
X143018697Y-83949232D01*
X142841104Y-84087458D01*
X142841101Y-84087461D01*
X142688677Y-84253037D01*
X142688674Y-84253042D01*
X142565585Y-84441442D01*
X142565583Y-84441445D01*
X142475179Y-84647544D01*
X142475178Y-84647548D01*
X142427457Y-84836000D01*
X143332884Y-84836000D01*
X143304507Y-84880156D01*
X143264000Y-85018111D01*
X143264000Y-85161889D01*
X143304507Y-85299844D01*
X143332884Y-85344000D01*
X142427457Y-85344000D01*
X142475178Y-85532451D01*
X142475179Y-85532455D01*
X142565583Y-85738554D01*
X142565585Y-85738557D01*
X142688674Y-85926957D01*
X142688677Y-85926962D01*
X142841101Y-86092538D01*
X142841104Y-86092541D01*
X143018697Y-86230767D01*
X143018699Y-86230768D01*
X143216627Y-86337880D01*
X143216628Y-86337881D01*
X143429487Y-86410956D01*
X143527379Y-86427291D01*
X143567957Y-86452621D01*
X143578740Y-86499226D01*
X143553410Y-86539804D01*
X143528577Y-86550375D01*
X143460446Y-86563111D01*
X143269574Y-86637055D01*
X143095533Y-86744817D01*
X142944266Y-86882717D01*
X142944259Y-86882724D01*
X142820915Y-87046059D01*
X142820912Y-87046065D01*
X142729672Y-87229298D01*
X142673655Y-87426174D01*
X142673653Y-87426186D01*
X142654768Y-87629995D01*
X142654768Y-87630004D01*
X142673653Y-87833813D01*
X142673655Y-87833825D01*
X142729671Y-88030701D01*
X142729672Y-88030701D01*
X142820912Y-88213935D01*
X142820913Y-88213936D01*
X142820915Y-88213940D01*
X142944259Y-88377275D01*
X142944264Y-88377280D01*
X142944268Y-88377285D01*
X143035674Y-88460613D01*
X143095533Y-88515182D01*
X143095534Y-88515183D01*
X143095538Y-88515186D01*
X143269573Y-88622944D01*
X143460444Y-88696888D01*
X143575174Y-88718334D01*
X143613848Y-88725564D01*
X143653926Y-88751679D01*
X143663800Y-88798484D01*
X143637685Y-88838562D01*
X143602364Y-88849500D01*
X132287556Y-88849500D01*
X132243362Y-88831194D01*
X132225692Y-88795895D01*
X132210013Y-88686853D01*
X132191353Y-88557069D01*
X132121776Y-88320109D01*
X132064882Y-88195530D01*
X132019187Y-88095470D01*
X131981925Y-88037489D01*
X131885665Y-87887704D01*
X131885664Y-87887702D01*
X131723938Y-87701061D01*
X131537297Y-87539335D01*
X131329529Y-87405812D01*
X131146070Y-87322030D01*
X131104891Y-87303224D01*
X131025904Y-87280031D01*
X130867933Y-87233647D01*
X130623484Y-87198500D01*
X130623482Y-87198500D01*
X130376518Y-87198500D01*
X130376516Y-87198500D01*
X130132066Y-87233647D01*
X129895109Y-87303224D01*
X129670470Y-87405812D01*
X129462702Y-87539335D01*
X129276061Y-87701061D01*
X129114335Y-87887702D01*
X128980812Y-88095470D01*
X128878224Y-88320109D01*
X128808647Y-88557066D01*
X128774308Y-88795895D01*
X128749899Y-88837034D01*
X128712444Y-88849500D01*
X110638000Y-88849500D01*
X110593806Y-88831194D01*
X110575500Y-88787000D01*
X110575500Y-86975008D01*
X136896846Y-86975008D01*
X136915445Y-87104371D01*
X136915446Y-87104373D01*
X136969738Y-87223257D01*
X136978741Y-87233647D01*
X137039029Y-87303224D01*
X137055325Y-87322030D01*
X137165272Y-87392688D01*
X137165274Y-87392688D01*
X137165275Y-87392689D01*
X137290670Y-87429508D01*
X137290672Y-87429509D01*
X137290673Y-87429509D01*
X137421368Y-87429509D01*
X137421368Y-87429508D01*
X137546768Y-87392688D01*
X137656715Y-87322030D01*
X137742302Y-87223257D01*
X137796594Y-87104373D01*
X137815194Y-86975009D01*
X137796594Y-86845645D01*
X137742302Y-86726761D01*
X137678111Y-86652681D01*
X137656716Y-86627989D01*
X137656715Y-86627988D01*
X137546768Y-86557330D01*
X137546766Y-86557329D01*
X137546764Y-86557328D01*
X137421369Y-86520509D01*
X137421367Y-86520509D01*
X137290673Y-86520509D01*
X137290671Y-86520509D01*
X137165275Y-86557328D01*
X137055323Y-86627989D01*
X136969740Y-86726758D01*
X136969737Y-86726763D01*
X136915446Y-86845643D01*
X136915445Y-86845646D01*
X136896846Y-86975008D01*
X110575500Y-86975008D01*
X110575500Y-84370144D01*
X111557077Y-84370144D01*
X111575698Y-84606766D01*
X111575699Y-84606770D01*
X111631110Y-84837572D01*
X111721948Y-85056876D01*
X111836636Y-85244031D01*
X111836636Y-85244032D01*
X112465805Y-84614862D01*
X112476928Y-84649096D01*
X112564926Y-84787759D01*
X112684643Y-84900180D01*
X112822900Y-84976188D01*
X112195846Y-85603241D01*
X112195847Y-85603242D01*
X112383003Y-85717931D01*
X112602307Y-85808769D01*
X112833109Y-85864180D01*
X112833113Y-85864181D01*
X113069736Y-85882803D01*
X113069744Y-85882803D01*
X113306366Y-85864181D01*
X113306370Y-85864180D01*
X113537172Y-85808769D01*
X113756479Y-85717930D01*
X113943631Y-85603241D01*
X113943632Y-85603241D01*
X113313221Y-84972831D01*
X113385369Y-84944266D01*
X113518232Y-84847735D01*
X113622915Y-84721195D01*
X113673181Y-84614372D01*
X114302841Y-85244032D01*
X114302841Y-85244031D01*
X114417530Y-85056879D01*
X114508369Y-84837572D01*
X114563780Y-84606770D01*
X114563781Y-84606766D01*
X114582403Y-84370144D01*
X114582403Y-84370135D01*
X114563781Y-84133513D01*
X114563780Y-84133509D01*
X114508369Y-83902707D01*
X114453460Y-83770144D01*
X116457077Y-83770144D01*
X116475698Y-84006766D01*
X116475699Y-84006770D01*
X116531110Y-84237572D01*
X116621948Y-84456876D01*
X116736636Y-84644031D01*
X116736636Y-84644032D01*
X117365805Y-84014862D01*
X117376928Y-84049096D01*
X117464926Y-84187759D01*
X117584643Y-84300180D01*
X117722900Y-84376188D01*
X117095846Y-85003241D01*
X117095847Y-85003242D01*
X117283003Y-85117931D01*
X117502307Y-85208769D01*
X117733109Y-85264180D01*
X117733113Y-85264181D01*
X117969736Y-85282803D01*
X117969744Y-85282803D01*
X118206366Y-85264181D01*
X118206370Y-85264180D01*
X118437172Y-85208769D01*
X118656479Y-85117930D01*
X118843631Y-85003241D01*
X118843632Y-85003241D01*
X118213221Y-84372831D01*
X118285369Y-84344266D01*
X118418232Y-84247735D01*
X118522915Y-84121195D01*
X118573182Y-84014372D01*
X119202841Y-84644031D01*
X119238906Y-84585180D01*
X125623286Y-84585180D01*
X125641885Y-84714542D01*
X125641886Y-84714545D01*
X125662280Y-84759202D01*
X125696178Y-84833428D01*
X125696180Y-84833430D01*
X125774004Y-84923245D01*
X125781765Y-84932201D01*
X125891712Y-85002859D01*
X125891714Y-85002859D01*
X125891715Y-85002860D01*
X126017110Y-85039679D01*
X126017112Y-85039680D01*
X126017113Y-85039680D01*
X126147808Y-85039680D01*
X126147808Y-85039679D01*
X126273208Y-85002859D01*
X126383155Y-84932201D01*
X126468742Y-84833428D01*
X126523034Y-84714544D01*
X126528720Y-84675000D01*
X131753286Y-84675000D01*
X131771885Y-84804362D01*
X131771886Y-84804365D01*
X131787051Y-84837572D01*
X131826178Y-84923248D01*
X131826180Y-84923250D01*
X131910748Y-85020848D01*
X131911765Y-85022021D01*
X132021712Y-85092679D01*
X132113461Y-85119619D01*
X132147110Y-85129499D01*
X132147112Y-85129500D01*
X132147113Y-85129500D01*
X132277808Y-85129500D01*
X132277808Y-85129499D01*
X132403208Y-85092679D01*
X132513155Y-85022021D01*
X132598742Y-84923248D01*
X132653034Y-84804364D01*
X132657601Y-84772600D01*
X139329166Y-84772600D01*
X139347765Y-84901962D01*
X139347766Y-84901965D01*
X139367084Y-84944266D01*
X139402058Y-85020848D01*
X139418375Y-85039679D01*
X139486180Y-85117931D01*
X139487645Y-85119621D01*
X139597592Y-85190279D01*
X139597594Y-85190279D01*
X139597595Y-85190280D01*
X139706208Y-85222172D01*
X139743455Y-85252187D01*
X139748565Y-85264521D01*
X139748590Y-85264607D01*
X139748593Y-85264613D01*
X139802885Y-85383497D01*
X139888472Y-85482270D01*
X139998419Y-85552928D01*
X139998421Y-85552928D01*
X139998422Y-85552929D01*
X140123817Y-85589748D01*
X140123819Y-85589749D01*
X140123820Y-85589749D01*
X140254515Y-85589749D01*
X140254515Y-85589748D01*
X140379915Y-85552928D01*
X140489862Y-85482270D01*
X140575449Y-85383497D01*
X140629741Y-85264613D01*
X140648341Y-85135249D01*
X140629741Y-85005885D01*
X140575449Y-84887001D01*
X140489862Y-84788228D01*
X140379915Y-84717570D01*
X140379913Y-84717569D01*
X140379911Y-84717568D01*
X140271297Y-84685676D01*
X140234051Y-84655661D01*
X140228938Y-84643318D01*
X140228913Y-84643234D01*
X140174622Y-84524352D01*
X140090053Y-84426754D01*
X140089036Y-84425580D01*
X140089035Y-84425579D01*
X139979088Y-84354921D01*
X139979086Y-84354920D01*
X139979084Y-84354919D01*
X139853689Y-84318100D01*
X139853687Y-84318100D01*
X139722993Y-84318100D01*
X139722991Y-84318100D01*
X139597595Y-84354919D01*
X139487643Y-84425580D01*
X139402060Y-84524349D01*
X139402057Y-84524354D01*
X139347766Y-84643234D01*
X139347765Y-84643237D01*
X139329166Y-84772600D01*
X132657601Y-84772600D01*
X132671634Y-84675000D01*
X132653034Y-84545636D01*
X132598742Y-84426752D01*
X132520910Y-84336929D01*
X132513156Y-84327980D01*
X132513155Y-84327979D01*
X132403208Y-84257321D01*
X132403206Y-84257320D01*
X132403204Y-84257319D01*
X132277809Y-84220500D01*
X132277807Y-84220500D01*
X132147113Y-84220500D01*
X132147111Y-84220500D01*
X132021715Y-84257319D01*
X131911763Y-84327980D01*
X131826180Y-84426749D01*
X131826177Y-84426754D01*
X131771886Y-84545634D01*
X131771885Y-84545637D01*
X131753286Y-84675000D01*
X126528720Y-84675000D01*
X126541634Y-84585180D01*
X126523034Y-84455816D01*
X126468742Y-84336932D01*
X126383155Y-84238159D01*
X126273208Y-84167501D01*
X126273206Y-84167500D01*
X126273204Y-84167499D01*
X126147809Y-84130680D01*
X126147807Y-84130680D01*
X126017113Y-84130680D01*
X126017111Y-84130680D01*
X125891715Y-84167499D01*
X125781763Y-84238160D01*
X125696180Y-84336929D01*
X125696177Y-84336934D01*
X125641886Y-84455814D01*
X125641885Y-84455817D01*
X125623286Y-84585180D01*
X119238906Y-84585180D01*
X119317530Y-84456879D01*
X119408369Y-84237572D01*
X119463780Y-84006770D01*
X119463781Y-84006766D01*
X119482403Y-83770144D01*
X119482403Y-83770135D01*
X119463781Y-83533513D01*
X119463780Y-83533509D01*
X119408963Y-83305180D01*
X126049786Y-83305180D01*
X126068385Y-83434542D01*
X126068386Y-83434544D01*
X126122678Y-83553428D01*
X126208265Y-83652201D01*
X126318212Y-83722859D01*
X126388270Y-83743430D01*
X126443610Y-83759679D01*
X126443612Y-83759680D01*
X126443613Y-83759680D01*
X126574308Y-83759680D01*
X126574308Y-83759679D01*
X126699708Y-83722859D01*
X126809655Y-83652201D01*
X126895242Y-83553428D01*
X126921843Y-83495180D01*
X131143286Y-83495180D01*
X131161885Y-83624542D01*
X131161886Y-83624544D01*
X131216178Y-83743428D01*
X131301765Y-83842201D01*
X131411712Y-83912859D01*
X131535587Y-83949232D01*
X131537110Y-83949679D01*
X131537112Y-83949680D01*
X131537113Y-83949680D01*
X131667808Y-83949680D01*
X131667808Y-83949679D01*
X131793208Y-83912859D01*
X131903155Y-83842201D01*
X131988742Y-83743428D01*
X132043034Y-83624544D01*
X132061634Y-83495180D01*
X132043034Y-83365816D01*
X131988742Y-83246932D01*
X131903155Y-83148159D01*
X131793208Y-83077501D01*
X131793206Y-83077500D01*
X131793204Y-83077499D01*
X131667809Y-83040680D01*
X131667807Y-83040680D01*
X131537113Y-83040680D01*
X131537111Y-83040680D01*
X131411715Y-83077499D01*
X131301763Y-83148160D01*
X131216180Y-83246929D01*
X131216177Y-83246934D01*
X131161886Y-83365814D01*
X131161885Y-83365817D01*
X131143286Y-83495180D01*
X126921843Y-83495180D01*
X126949534Y-83434544D01*
X126968134Y-83305180D01*
X126949534Y-83175816D01*
X126895242Y-83056932D01*
X126809655Y-82958159D01*
X126699708Y-82887501D01*
X126699706Y-82887500D01*
X126699704Y-82887499D01*
X126574309Y-82850680D01*
X126574307Y-82850680D01*
X126443613Y-82850680D01*
X126443611Y-82850680D01*
X126318215Y-82887499D01*
X126208263Y-82958160D01*
X126122680Y-83056929D01*
X126122677Y-83056934D01*
X126068386Y-83175814D01*
X126068385Y-83175817D01*
X126049786Y-83305180D01*
X119408963Y-83305180D01*
X119408369Y-83302707D01*
X119317531Y-83083403D01*
X119202842Y-82896247D01*
X119202842Y-82896246D01*
X118573673Y-83525414D01*
X118562552Y-83491184D01*
X118474554Y-83352521D01*
X118354837Y-83240100D01*
X118216577Y-83164090D01*
X118785488Y-82595180D01*
X132703286Y-82595180D01*
X132721885Y-82724542D01*
X132721886Y-82724545D01*
X132735256Y-82753821D01*
X132776178Y-82843428D01*
X132861765Y-82942201D01*
X132971712Y-83012859D01*
X132971714Y-83012859D01*
X132971715Y-83012860D01*
X133097110Y-83049679D01*
X133097112Y-83049680D01*
X133097113Y-83049680D01*
X133227808Y-83049680D01*
X133227808Y-83049679D01*
X133353208Y-83012859D01*
X133463155Y-82942201D01*
X133465414Y-82939593D01*
X133508186Y-82918177D01*
X133553575Y-82933278D01*
X133559876Y-82939577D01*
X133606915Y-82993863D01*
X133716862Y-83064521D01*
X133716864Y-83064521D01*
X133716865Y-83064522D01*
X133842260Y-83101341D01*
X133842262Y-83101342D01*
X133842263Y-83101342D01*
X133972958Y-83101342D01*
X133972958Y-83101341D01*
X134098358Y-83064521D01*
X134208305Y-82993863D01*
X134293892Y-82895090D01*
X134348184Y-82776206D01*
X134366784Y-82646842D01*
X134348184Y-82517478D01*
X134293892Y-82398594D01*
X134210574Y-82302439D01*
X134208306Y-82299822D01*
X134208305Y-82299821D01*
X134098358Y-82229163D01*
X134098356Y-82229162D01*
X134098354Y-82229161D01*
X133972959Y-82192342D01*
X133972957Y-82192342D01*
X133842263Y-82192342D01*
X133842261Y-82192342D01*
X133716865Y-82229161D01*
X133606911Y-82299823D01*
X133604645Y-82302439D01*
X133561867Y-82323844D01*
X133516481Y-82308731D01*
X133510183Y-82302432D01*
X133463156Y-82248160D01*
X133463155Y-82248159D01*
X133353208Y-82177501D01*
X133353206Y-82177500D01*
X133353204Y-82177499D01*
X133227809Y-82140680D01*
X133227807Y-82140680D01*
X133097113Y-82140680D01*
X133097111Y-82140680D01*
X132971715Y-82177499D01*
X132861763Y-82248160D01*
X132776180Y-82346929D01*
X132776177Y-82346934D01*
X132721886Y-82465814D01*
X132721885Y-82465817D01*
X132703286Y-82595180D01*
X118785488Y-82595180D01*
X118843632Y-82537036D01*
X118656476Y-82422348D01*
X118437172Y-82331510D01*
X118206370Y-82276099D01*
X118206366Y-82276098D01*
X117969744Y-82257477D01*
X117969736Y-82257477D01*
X117733113Y-82276098D01*
X117733109Y-82276099D01*
X117502307Y-82331510D01*
X117283003Y-82422348D01*
X117095847Y-82537036D01*
X117095846Y-82537036D01*
X117726258Y-83167448D01*
X117654111Y-83196014D01*
X117521248Y-83292545D01*
X117416565Y-83419085D01*
X117366297Y-83525907D01*
X116736636Y-82896246D01*
X116736636Y-82896247D01*
X116621948Y-83083403D01*
X116531110Y-83302707D01*
X116475699Y-83533509D01*
X116475698Y-83533513D01*
X116457077Y-83770135D01*
X116457077Y-83770144D01*
X114453460Y-83770144D01*
X114417531Y-83683403D01*
X114302842Y-83496247D01*
X114302841Y-83496246D01*
X113673673Y-84125413D01*
X113662552Y-84091184D01*
X113574554Y-83952521D01*
X113454837Y-83840100D01*
X113316577Y-83764090D01*
X113943632Y-83137036D01*
X113756476Y-83022348D01*
X113537172Y-82931510D01*
X113306370Y-82876099D01*
X113306366Y-82876098D01*
X113069744Y-82857477D01*
X113069736Y-82857477D01*
X112833113Y-82876098D01*
X112833109Y-82876099D01*
X112602307Y-82931510D01*
X112383003Y-83022348D01*
X112195847Y-83137036D01*
X112195846Y-83137036D01*
X112826258Y-83767448D01*
X112754111Y-83796014D01*
X112621248Y-83892545D01*
X112516565Y-84019085D01*
X112466297Y-84125907D01*
X111836636Y-83496246D01*
X111836636Y-83496247D01*
X111721948Y-83683403D01*
X111631110Y-83902707D01*
X111575699Y-84133509D01*
X111575698Y-84133513D01*
X111557077Y-84370135D01*
X111557077Y-84370144D01*
X110575500Y-84370144D01*
X110575500Y-80935000D01*
X125315826Y-80935000D01*
X125334425Y-81064362D01*
X125334426Y-81064364D01*
X125388718Y-81183248D01*
X125474305Y-81282021D01*
X125584252Y-81352679D01*
X125584254Y-81352679D01*
X125584255Y-81352680D01*
X125709650Y-81389499D01*
X125709652Y-81389500D01*
X125709653Y-81389500D01*
X125840348Y-81389500D01*
X125840348Y-81389499D01*
X125965748Y-81352679D01*
X126071855Y-81284489D01*
X140385826Y-81284489D01*
X140404425Y-81413852D01*
X140404426Y-81413854D01*
X140458718Y-81532738D01*
X140544305Y-81631511D01*
X140654252Y-81702169D01*
X140768717Y-81735779D01*
X140779650Y-81738989D01*
X140779652Y-81738990D01*
X140779653Y-81738990D01*
X140910347Y-81738990D01*
X140962382Y-81723711D01*
X141009944Y-81728824D01*
X141039959Y-81766070D01*
X141034846Y-81813632D01*
X141027226Y-81824607D01*
X140938720Y-81926749D01*
X140938717Y-81926754D01*
X140884426Y-82045634D01*
X140884425Y-82045637D01*
X140865826Y-82175000D01*
X140884425Y-82304362D01*
X140884426Y-82304365D01*
X140903866Y-82346932D01*
X140938718Y-82423248D01*
X141024305Y-82522021D01*
X141134252Y-82592679D01*
X141134254Y-82592679D01*
X141134255Y-82592680D01*
X141259650Y-82629499D01*
X141259652Y-82629500D01*
X141259653Y-82629500D01*
X141390348Y-82629500D01*
X141390348Y-82629499D01*
X141515748Y-82592679D01*
X141625695Y-82522021D01*
X141711282Y-82423248D01*
X141765574Y-82304364D01*
X141784174Y-82175000D01*
X141765574Y-82045636D01*
X141711282Y-81926752D01*
X141625695Y-81827979D01*
X141515748Y-81757321D01*
X141515746Y-81757320D01*
X141515744Y-81757319D01*
X141390349Y-81720500D01*
X141390347Y-81720500D01*
X141259653Y-81720500D01*
X141207615Y-81735779D01*
X141160054Y-81730665D01*
X141130039Y-81693417D01*
X141135153Y-81645856D01*
X141142774Y-81634881D01*
X141145692Y-81631512D01*
X141145695Y-81631511D01*
X141231282Y-81532738D01*
X141285574Y-81413854D01*
X141304174Y-81284490D01*
X141285574Y-81155126D01*
X141231282Y-81036242D01*
X141145695Y-80937469D01*
X141035748Y-80866811D01*
X141035746Y-80866810D01*
X141035744Y-80866809D01*
X140910349Y-80829990D01*
X140910347Y-80829990D01*
X140779653Y-80829990D01*
X140779651Y-80829990D01*
X140654255Y-80866809D01*
X140544303Y-80937470D01*
X140458720Y-81036239D01*
X140458717Y-81036244D01*
X140404426Y-81155124D01*
X140404425Y-81155127D01*
X140385826Y-81284489D01*
X126071855Y-81284489D01*
X126075695Y-81282021D01*
X126161282Y-81183248D01*
X126213204Y-81069552D01*
X126248215Y-81036956D01*
X126270057Y-81033015D01*
X126334266Y-81033015D01*
X126334266Y-81033014D01*
X126459666Y-80996194D01*
X126569613Y-80925536D01*
X126655200Y-80826763D01*
X126709492Y-80707879D01*
X126728092Y-80578515D01*
X126709492Y-80449151D01*
X126655200Y-80330267D01*
X126569613Y-80231494D01*
X126459666Y-80160836D01*
X126459664Y-80160835D01*
X126459662Y-80160834D01*
X126334267Y-80124015D01*
X126334265Y-80124015D01*
X126203571Y-80124015D01*
X126203569Y-80124015D01*
X126078173Y-80160834D01*
X125968221Y-80231495D01*
X125882638Y-80330264D01*
X125882635Y-80330269D01*
X125830713Y-80443963D01*
X125795703Y-80476559D01*
X125773861Y-80480500D01*
X125709651Y-80480500D01*
X125584255Y-80517319D01*
X125474303Y-80587980D01*
X125388720Y-80686749D01*
X125388717Y-80686754D01*
X125334426Y-80805634D01*
X125334425Y-80805637D01*
X125315826Y-80935000D01*
X110575500Y-80935000D01*
X110575500Y-80010004D01*
X142654768Y-80010004D01*
X142673653Y-80213813D01*
X142673655Y-80213825D01*
X142706787Y-80330269D01*
X142729672Y-80410701D01*
X142820912Y-80593935D01*
X142820913Y-80593936D01*
X142820915Y-80593940D01*
X142944259Y-80757275D01*
X142944264Y-80757280D01*
X142944268Y-80757285D01*
X143046870Y-80850819D01*
X143095533Y-80895182D01*
X143095534Y-80895183D01*
X143095538Y-80895186D01*
X143269573Y-81002944D01*
X143460444Y-81076888D01*
X143661653Y-81114500D01*
X143661656Y-81114500D01*
X143866344Y-81114500D01*
X143866347Y-81114500D01*
X144067556Y-81076888D01*
X144258427Y-81002944D01*
X144432462Y-80895186D01*
X144583732Y-80757285D01*
X144636995Y-80686754D01*
X144707084Y-80593940D01*
X144707083Y-80593940D01*
X144707088Y-80593935D01*
X144798328Y-80410701D01*
X144854345Y-80213821D01*
X144873232Y-80010004D01*
X145194768Y-80010004D01*
X145213653Y-80213813D01*
X145213655Y-80213825D01*
X145246787Y-80330269D01*
X145269672Y-80410701D01*
X145360912Y-80593935D01*
X145360913Y-80593936D01*
X145360915Y-80593940D01*
X145484259Y-80757275D01*
X145484264Y-80757280D01*
X145484268Y-80757285D01*
X145586870Y-80850819D01*
X145635533Y-80895182D01*
X145635534Y-80895183D01*
X145635538Y-80895186D01*
X145809573Y-81002944D01*
X146000444Y-81076888D01*
X146201653Y-81114500D01*
X146201656Y-81114500D01*
X146406344Y-81114500D01*
X146406347Y-81114500D01*
X146607556Y-81076888D01*
X146798427Y-81002944D01*
X146972462Y-80895186D01*
X147123732Y-80757285D01*
X147176995Y-80686754D01*
X147247084Y-80593940D01*
X147247083Y-80593940D01*
X147247088Y-80593935D01*
X147338328Y-80410701D01*
X147394345Y-80213821D01*
X147413232Y-80010000D01*
X147394345Y-79806179D01*
X147338328Y-79609299D01*
X147247088Y-79426065D01*
X147247085Y-79426061D01*
X147247084Y-79426059D01*
X147123740Y-79262724D01*
X147123735Y-79262719D01*
X147123732Y-79262715D01*
X147028834Y-79176204D01*
X146972466Y-79124817D01*
X146972463Y-79124815D01*
X146972462Y-79124814D01*
X146798427Y-79017056D01*
X146798425Y-79017055D01*
X146742948Y-78995563D01*
X146607556Y-78943112D01*
X146607553Y-78943111D01*
X146607552Y-78943111D01*
X146406351Y-78905500D01*
X146406347Y-78905500D01*
X146201653Y-78905500D01*
X146201648Y-78905500D01*
X146000447Y-78943111D01*
X145809574Y-79017055D01*
X145635533Y-79124817D01*
X145484266Y-79262717D01*
X145484259Y-79262724D01*
X145360915Y-79426059D01*
X145360912Y-79426065D01*
X145269672Y-79609298D01*
X145213655Y-79806174D01*
X145213653Y-79806186D01*
X145194768Y-80009995D01*
X145194768Y-80010004D01*
X144873232Y-80010004D01*
X144873232Y-80010000D01*
X144854345Y-79806179D01*
X144798328Y-79609299D01*
X144707088Y-79426065D01*
X144707085Y-79426061D01*
X144707084Y-79426059D01*
X144583740Y-79262724D01*
X144583735Y-79262719D01*
X144583732Y-79262715D01*
X144488834Y-79176204D01*
X144432466Y-79124817D01*
X144432463Y-79124815D01*
X144432462Y-79124814D01*
X144258427Y-79017056D01*
X144258425Y-79017055D01*
X144202948Y-78995563D01*
X144067556Y-78943112D01*
X144067553Y-78943111D01*
X144067552Y-78943111D01*
X143866351Y-78905500D01*
X143866347Y-78905500D01*
X143661653Y-78905500D01*
X143661648Y-78905500D01*
X143460447Y-78943111D01*
X143269574Y-79017055D01*
X143095533Y-79124817D01*
X142944266Y-79262717D01*
X142944259Y-79262724D01*
X142820915Y-79426059D01*
X142820912Y-79426065D01*
X142729672Y-79609298D01*
X142673655Y-79806174D01*
X142673653Y-79806186D01*
X142654768Y-80009995D01*
X142654768Y-80010004D01*
X110575500Y-80010004D01*
X110575500Y-78671520D01*
X125120406Y-78671520D01*
X125139005Y-78800882D01*
X125139006Y-78800884D01*
X125193298Y-78919768D01*
X125278885Y-79018541D01*
X125388832Y-79089199D01*
X125388834Y-79089199D01*
X125388835Y-79089200D01*
X125514230Y-79126019D01*
X125514232Y-79126020D01*
X125514233Y-79126020D01*
X125644928Y-79126020D01*
X125644928Y-79126019D01*
X125770328Y-79089199D01*
X125880275Y-79018541D01*
X125904329Y-78990780D01*
X125947103Y-78969368D01*
X125969170Y-78971740D01*
X125999301Y-78980588D01*
X126029652Y-78989500D01*
X126029653Y-78989500D01*
X126160348Y-78989500D01*
X126160348Y-78989499D01*
X126285748Y-78952679D01*
X126395695Y-78882021D01*
X126481282Y-78783248D01*
X126535574Y-78664364D01*
X126554174Y-78535000D01*
X126535574Y-78405636D01*
X126481282Y-78286752D01*
X126395695Y-78187979D01*
X126285748Y-78117321D01*
X126285746Y-78117320D01*
X126285744Y-78117319D01*
X126160349Y-78080500D01*
X126160347Y-78080500D01*
X126029653Y-78080500D01*
X126029651Y-78080500D01*
X125904255Y-78117319D01*
X125794303Y-78187980D01*
X125770250Y-78215739D01*
X125727474Y-78237151D01*
X125705408Y-78234778D01*
X125644929Y-78217020D01*
X125644927Y-78217020D01*
X125514233Y-78217020D01*
X125514231Y-78217020D01*
X125388835Y-78253839D01*
X125278883Y-78324500D01*
X125193300Y-78423269D01*
X125193297Y-78423274D01*
X125139006Y-78542154D01*
X125139005Y-78542157D01*
X125120406Y-78671520D01*
X110575500Y-78671520D01*
X110575500Y-77162760D01*
X125186446Y-77162760D01*
X125205045Y-77292122D01*
X125205046Y-77292125D01*
X125221086Y-77327248D01*
X125259338Y-77411008D01*
X125344925Y-77509781D01*
X125454872Y-77580439D01*
X125454874Y-77580439D01*
X125454875Y-77580440D01*
X125580270Y-77617259D01*
X125580272Y-77617260D01*
X125580273Y-77617260D01*
X125710968Y-77617260D01*
X125710968Y-77617259D01*
X125836368Y-77580439D01*
X125946315Y-77509781D01*
X126031902Y-77411008D01*
X126057006Y-77356036D01*
X126092016Y-77323441D01*
X126113858Y-77319500D01*
X126170348Y-77319500D01*
X126170348Y-77319499D01*
X126295748Y-77282679D01*
X126405695Y-77212021D01*
X126491282Y-77113248D01*
X126545574Y-76994364D01*
X126564174Y-76865000D01*
X126545574Y-76735636D01*
X126491282Y-76616752D01*
X126405695Y-76517979D01*
X126337697Y-76474280D01*
X130893966Y-76474280D01*
X130912565Y-76603642D01*
X130912566Y-76603645D01*
X130936248Y-76655500D01*
X130966858Y-76722528D01*
X130986400Y-76745081D01*
X131047625Y-76815739D01*
X131052445Y-76821301D01*
X131162392Y-76891959D01*
X131162394Y-76891959D01*
X131162395Y-76891960D01*
X131287790Y-76928779D01*
X131287792Y-76928780D01*
X131287793Y-76928780D01*
X131418488Y-76928780D01*
X131418488Y-76928779D01*
X131543888Y-76891959D01*
X131653835Y-76821301D01*
X131739422Y-76722528D01*
X131793714Y-76603644D01*
X131812314Y-76474280D01*
X131793714Y-76344916D01*
X131739422Y-76226032D01*
X131653835Y-76127259D01*
X131543888Y-76056601D01*
X131543886Y-76056600D01*
X131543884Y-76056599D01*
X131418489Y-76019780D01*
X131418487Y-76019780D01*
X131287793Y-76019780D01*
X131287791Y-76019780D01*
X131162395Y-76056599D01*
X131052443Y-76127260D01*
X130966860Y-76226029D01*
X130966857Y-76226034D01*
X130912566Y-76344914D01*
X130912565Y-76344917D01*
X130893966Y-76474280D01*
X126337697Y-76474280D01*
X126295748Y-76447321D01*
X126295746Y-76447320D01*
X126295744Y-76447319D01*
X126202594Y-76419968D01*
X126165347Y-76389953D01*
X126160234Y-76342392D01*
X126190249Y-76305145D01*
X126202594Y-76300032D01*
X126273587Y-76279185D01*
X126295748Y-76272679D01*
X126405695Y-76202021D01*
X126491282Y-76103248D01*
X126545574Y-75984364D01*
X126559961Y-75884304D01*
X133656522Y-75884304D01*
X133675121Y-76013666D01*
X133675122Y-76013669D01*
X133694728Y-76056599D01*
X133729414Y-76132552D01*
X133729416Y-76132554D01*
X133810414Y-76226032D01*
X133815001Y-76231325D01*
X133924948Y-76301983D01*
X133924950Y-76301983D01*
X133924951Y-76301984D01*
X133987648Y-76320393D01*
X134020525Y-76330047D01*
X134050346Y-76338803D01*
X134050348Y-76338804D01*
X134050349Y-76338804D01*
X134181044Y-76338804D01*
X134181044Y-76338803D01*
X134306444Y-76301983D01*
X134416391Y-76231325D01*
X134501978Y-76132552D01*
X134556270Y-76013668D01*
X134562673Y-75969132D01*
X134587082Y-75927993D01*
X134606929Y-75918059D01*
X134721888Y-75884304D01*
X134725052Y-75883375D01*
X134834999Y-75812717D01*
X134920586Y-75713944D01*
X134974878Y-75595060D01*
X134993478Y-75465696D01*
X134974878Y-75336332D01*
X134920586Y-75217448D01*
X134834999Y-75118675D01*
X134752561Y-75065696D01*
X135256522Y-75065696D01*
X135275121Y-75195058D01*
X135275122Y-75195061D01*
X135293843Y-75236053D01*
X135329414Y-75313944D01*
X135415001Y-75412717D01*
X135524948Y-75483375D01*
X135524950Y-75483375D01*
X135524951Y-75483376D01*
X135643070Y-75518059D01*
X135680317Y-75548074D01*
X135687326Y-75569132D01*
X135693729Y-75613666D01*
X135693730Y-75613669D01*
X135703954Y-75636056D01*
X135748022Y-75732552D01*
X135748024Y-75732554D01*
X135819624Y-75815186D01*
X135833609Y-75831325D01*
X135943556Y-75901983D01*
X135943558Y-75901983D01*
X135943559Y-75901984D01*
X136068954Y-75938803D01*
X136068956Y-75938804D01*
X136068957Y-75938804D01*
X136199652Y-75938804D01*
X136199652Y-75938803D01*
X136325052Y-75901983D01*
X136402370Y-75852293D01*
X136449444Y-75843800D01*
X136488737Y-75871082D01*
X136497231Y-75918157D01*
X136493012Y-75930833D01*
X136484426Y-75949634D01*
X136484425Y-75949637D01*
X136465826Y-76079000D01*
X136484425Y-76208362D01*
X136484426Y-76208365D01*
X136494911Y-76231323D01*
X136538718Y-76327248D01*
X136538720Y-76327250D01*
X136544632Y-76334074D01*
X136559735Y-76379462D01*
X136544632Y-76415926D01*
X136538720Y-76422749D01*
X136538717Y-76422754D01*
X136484426Y-76541634D01*
X136484425Y-76541637D01*
X136465826Y-76671000D01*
X136484425Y-76800362D01*
X136484426Y-76800365D01*
X136513944Y-76865000D01*
X136538718Y-76919248D01*
X136624305Y-77018021D01*
X136734252Y-77088679D01*
X136817926Y-77113248D01*
X136859650Y-77125499D01*
X136859652Y-77125500D01*
X136859653Y-77125500D01*
X136990347Y-77125500D01*
X137095926Y-77094499D01*
X137143486Y-77099612D01*
X137173501Y-77136858D01*
X137175397Y-77145572D01*
X137184425Y-77208362D01*
X137184426Y-77208364D01*
X137238718Y-77327248D01*
X137238720Y-77327250D01*
X137244632Y-77334074D01*
X137259735Y-77379462D01*
X137244632Y-77415926D01*
X137238720Y-77422749D01*
X137238717Y-77422754D01*
X137184426Y-77541634D01*
X137184425Y-77541637D01*
X137165826Y-77671000D01*
X137184425Y-77800362D01*
X137184426Y-77800364D01*
X137238718Y-77919248D01*
X137324305Y-78018021D01*
X137434252Y-78088679D01*
X137434254Y-78088679D01*
X137434255Y-78088680D01*
X137559650Y-78125499D01*
X137559652Y-78125500D01*
X137559653Y-78125500D01*
X137690348Y-78125500D01*
X137690348Y-78125499D01*
X137815748Y-78088679D01*
X137925695Y-78018021D01*
X138011282Y-77919248D01*
X138065574Y-77800364D01*
X138084174Y-77671000D01*
X138065574Y-77541636D01*
X138032861Y-77470004D01*
X142654768Y-77470004D01*
X142673653Y-77673813D01*
X142673655Y-77673825D01*
X142729671Y-77870701D01*
X142729672Y-77870701D01*
X142820912Y-78053935D01*
X142820913Y-78053936D01*
X142820915Y-78053940D01*
X142944259Y-78217275D01*
X142944264Y-78217280D01*
X142944268Y-78217285D01*
X143020470Y-78286752D01*
X143095533Y-78355182D01*
X143095534Y-78355183D01*
X143095538Y-78355186D01*
X143269573Y-78462944D01*
X143460444Y-78536888D01*
X143661653Y-78574500D01*
X143661656Y-78574500D01*
X143866344Y-78574500D01*
X143866347Y-78574500D01*
X144067556Y-78536888D01*
X144258427Y-78462944D01*
X144432462Y-78355186D01*
X144583732Y-78217285D01*
X144583933Y-78217020D01*
X144707084Y-78053940D01*
X144707083Y-78053940D01*
X144707088Y-78053935D01*
X144798328Y-77870701D01*
X144854345Y-77673821D01*
X144854346Y-77673813D01*
X144873232Y-77470004D01*
X145194768Y-77470004D01*
X145213653Y-77673813D01*
X145213655Y-77673825D01*
X145269672Y-77870701D01*
X145360912Y-78053935D01*
X145360913Y-78053936D01*
X145360915Y-78053940D01*
X145484259Y-78217275D01*
X145484264Y-78217280D01*
X145484268Y-78217285D01*
X145560470Y-78286752D01*
X145635533Y-78355182D01*
X145635534Y-78355183D01*
X145635538Y-78355186D01*
X145809573Y-78462944D01*
X146000444Y-78536888D01*
X146201653Y-78574500D01*
X146201656Y-78574500D01*
X146406344Y-78574500D01*
X146406347Y-78574500D01*
X146607556Y-78536888D01*
X146798427Y-78462944D01*
X146972462Y-78355186D01*
X147123732Y-78217285D01*
X147123933Y-78217020D01*
X147247084Y-78053940D01*
X147247083Y-78053940D01*
X147247088Y-78053935D01*
X147338328Y-77870701D01*
X147394345Y-77673821D01*
X147394346Y-77673813D01*
X147413232Y-77470004D01*
X147413232Y-77469995D01*
X147394346Y-77266186D01*
X147394344Y-77266174D01*
X147357550Y-77136858D01*
X147338328Y-77069299D01*
X147247088Y-76886065D01*
X147247085Y-76886061D01*
X147247084Y-76886059D01*
X147123740Y-76722724D01*
X147123735Y-76722719D01*
X147123732Y-76722715D01*
X147028834Y-76636204D01*
X146972466Y-76584817D01*
X146972463Y-76584815D01*
X146972462Y-76584814D01*
X146798427Y-76477056D01*
X146798425Y-76477055D01*
X146721667Y-76447319D01*
X146607556Y-76403112D01*
X146607553Y-76403111D01*
X146607552Y-76403111D01*
X146406351Y-76365500D01*
X146406347Y-76365500D01*
X146201653Y-76365500D01*
X146201648Y-76365500D01*
X146000447Y-76403111D01*
X146000444Y-76403111D01*
X146000444Y-76403112D01*
X145979938Y-76411056D01*
X145809574Y-76477055D01*
X145635533Y-76584817D01*
X145540203Y-76671723D01*
X145484477Y-76722525D01*
X145484266Y-76722717D01*
X145484259Y-76722724D01*
X145360915Y-76886059D01*
X145360912Y-76886065D01*
X145269672Y-77069298D01*
X145213655Y-77266174D01*
X145213653Y-77266186D01*
X145194768Y-77469995D01*
X145194768Y-77470004D01*
X144873232Y-77470004D01*
X144873232Y-77469995D01*
X144854346Y-77266186D01*
X144854344Y-77266174D01*
X144817550Y-77136858D01*
X144798328Y-77069299D01*
X144707088Y-76886065D01*
X144707085Y-76886061D01*
X144707084Y-76886059D01*
X144583740Y-76722724D01*
X144583735Y-76722719D01*
X144583732Y-76722715D01*
X144488834Y-76636204D01*
X144432466Y-76584817D01*
X144432463Y-76584815D01*
X144432462Y-76584814D01*
X144258427Y-76477056D01*
X144258425Y-76477055D01*
X144181667Y-76447319D01*
X144067556Y-76403112D01*
X144067553Y-76403111D01*
X144067552Y-76403111D01*
X143866351Y-76365500D01*
X143866347Y-76365500D01*
X143661653Y-76365500D01*
X143661648Y-76365500D01*
X143460447Y-76403111D01*
X143460444Y-76403111D01*
X143460444Y-76403112D01*
X143439938Y-76411056D01*
X143269574Y-76477055D01*
X143095533Y-76584817D01*
X143000203Y-76671723D01*
X142944477Y-76722525D01*
X142944266Y-76722717D01*
X142944259Y-76722724D01*
X142820915Y-76886059D01*
X142820912Y-76886065D01*
X142729672Y-77069298D01*
X142673655Y-77266174D01*
X142673653Y-77266186D01*
X142654768Y-77469995D01*
X142654768Y-77470004D01*
X138032861Y-77470004D01*
X138011282Y-77422752D01*
X138005369Y-77415928D01*
X137990262Y-77370544D01*
X138005368Y-77334072D01*
X138011282Y-77327248D01*
X138065574Y-77208364D01*
X138084174Y-77079000D01*
X138065574Y-76949636D01*
X138011282Y-76830752D01*
X137925695Y-76731979D01*
X137815748Y-76661321D01*
X137815746Y-76661320D01*
X137815744Y-76661319D01*
X137690349Y-76624500D01*
X137690347Y-76624500D01*
X137559653Y-76624500D01*
X137559651Y-76624500D01*
X137454074Y-76655500D01*
X137406513Y-76650387D01*
X137376498Y-76613140D01*
X137374602Y-76604427D01*
X137374490Y-76603645D01*
X137365574Y-76541636D01*
X137365018Y-76540419D01*
X138968526Y-76540419D01*
X138987125Y-76669782D01*
X138987126Y-76669785D01*
X139011299Y-76722717D01*
X139041418Y-76788668D01*
X139064875Y-76815739D01*
X139125812Y-76886065D01*
X139127005Y-76887441D01*
X139236952Y-76958099D01*
X139360459Y-76994364D01*
X139362350Y-76994919D01*
X139362352Y-76994920D01*
X139362353Y-76994920D01*
X139493048Y-76994920D01*
X139493048Y-76994919D01*
X139618448Y-76958099D01*
X139728395Y-76887441D01*
X139813982Y-76788668D01*
X139868274Y-76669784D01*
X139886874Y-76540420D01*
X139868274Y-76411056D01*
X139813982Y-76292172D01*
X139741362Y-76208364D01*
X139728396Y-76193400D01*
X139728395Y-76193399D01*
X139618448Y-76122741D01*
X139618446Y-76122740D01*
X139618444Y-76122739D01*
X139493049Y-76085920D01*
X139493047Y-76085920D01*
X139362353Y-76085920D01*
X139362351Y-76085920D01*
X139236955Y-76122739D01*
X139127003Y-76193400D01*
X139041420Y-76292169D01*
X139041417Y-76292174D01*
X138987126Y-76411054D01*
X138987125Y-76411057D01*
X138968526Y-76540419D01*
X137365018Y-76540419D01*
X137311282Y-76422752D01*
X137305369Y-76415928D01*
X137290262Y-76370544D01*
X137305368Y-76334072D01*
X137311282Y-76327248D01*
X137365574Y-76208364D01*
X137384174Y-76079000D01*
X137365574Y-75949636D01*
X137311282Y-75830752D01*
X137225695Y-75731979D01*
X137115748Y-75661321D01*
X137115746Y-75661320D01*
X137115744Y-75661319D01*
X136990349Y-75624500D01*
X136990347Y-75624500D01*
X136859653Y-75624500D01*
X136859651Y-75624500D01*
X136734254Y-75661320D01*
X136656933Y-75711010D01*
X136609858Y-75719503D01*
X136570565Y-75692220D01*
X136562072Y-75645145D01*
X136566289Y-75632473D01*
X136574878Y-75613668D01*
X136593478Y-75484304D01*
X136574878Y-75354940D01*
X136520586Y-75236056D01*
X136434999Y-75137283D01*
X136325052Y-75066625D01*
X136325050Y-75066624D01*
X136325048Y-75066623D01*
X136206928Y-75031940D01*
X136169682Y-75001925D01*
X136162673Y-74980866D01*
X136157540Y-74945164D01*
X136156270Y-74936332D01*
X136153380Y-74930004D01*
X142654768Y-74930004D01*
X142673653Y-75133813D01*
X142673655Y-75133825D01*
X142712486Y-75270299D01*
X142729672Y-75330701D01*
X142820912Y-75513935D01*
X142820913Y-75513936D01*
X142820915Y-75513940D01*
X142944259Y-75677275D01*
X142944264Y-75677280D01*
X142944268Y-75677285D01*
X143046870Y-75770819D01*
X143095533Y-75815182D01*
X143095534Y-75815183D01*
X143095538Y-75815186D01*
X143269573Y-75922944D01*
X143460444Y-75996888D01*
X143661653Y-76034500D01*
X143661656Y-76034500D01*
X143866344Y-76034500D01*
X143866347Y-76034500D01*
X144067556Y-75996888D01*
X144258427Y-75922944D01*
X144432462Y-75815186D01*
X144583732Y-75677285D01*
X144595788Y-75661321D01*
X144702360Y-75520196D01*
X144707088Y-75513935D01*
X144798328Y-75330701D01*
X144854345Y-75133821D01*
X144854346Y-75133813D01*
X144873232Y-74930004D01*
X145194768Y-74930004D01*
X145213653Y-75133813D01*
X145213655Y-75133825D01*
X145252486Y-75270299D01*
X145269672Y-75330701D01*
X145360912Y-75513935D01*
X145360913Y-75513936D01*
X145360915Y-75513940D01*
X145484259Y-75677275D01*
X145484264Y-75677280D01*
X145484268Y-75677285D01*
X145586870Y-75770819D01*
X145635533Y-75815182D01*
X145635534Y-75815183D01*
X145635538Y-75815186D01*
X145809573Y-75922944D01*
X146000444Y-75996888D01*
X146201653Y-76034500D01*
X146201656Y-76034500D01*
X146406344Y-76034500D01*
X146406347Y-76034500D01*
X146607556Y-75996888D01*
X146798427Y-75922944D01*
X146972462Y-75815186D01*
X147123732Y-75677285D01*
X147135788Y-75661321D01*
X147242360Y-75520196D01*
X147247088Y-75513935D01*
X147338328Y-75330701D01*
X147394345Y-75133821D01*
X147394346Y-75133813D01*
X147413232Y-74930004D01*
X147413232Y-74929995D01*
X147394346Y-74726186D01*
X147394344Y-74726174D01*
X147372105Y-74648015D01*
X147338328Y-74529299D01*
X147247088Y-74346065D01*
X147247085Y-74346061D01*
X147247084Y-74346059D01*
X147123740Y-74182724D01*
X147123735Y-74182719D01*
X147123732Y-74182715D01*
X147028834Y-74096204D01*
X146972466Y-74044817D01*
X146972463Y-74044815D01*
X146972462Y-74044814D01*
X146798427Y-73937056D01*
X146798425Y-73937055D01*
X146712021Y-73903582D01*
X146607556Y-73863112D01*
X146607553Y-73863111D01*
X146607552Y-73863111D01*
X146406351Y-73825500D01*
X146406347Y-73825500D01*
X146201653Y-73825500D01*
X146201648Y-73825500D01*
X146000447Y-73863111D01*
X145809574Y-73937055D01*
X145635533Y-74044817D01*
X145484266Y-74182717D01*
X145484259Y-74182724D01*
X145360915Y-74346059D01*
X145360912Y-74346065D01*
X145269672Y-74529298D01*
X145213655Y-74726174D01*
X145213653Y-74726186D01*
X145194768Y-74929995D01*
X145194768Y-74930004D01*
X144873232Y-74930004D01*
X144873232Y-74929995D01*
X144854346Y-74726186D01*
X144854344Y-74726174D01*
X144832105Y-74648015D01*
X144798328Y-74529299D01*
X144707088Y-74346065D01*
X144707085Y-74346061D01*
X144707084Y-74346059D01*
X144583740Y-74182724D01*
X144583735Y-74182719D01*
X144583732Y-74182715D01*
X144488834Y-74096204D01*
X144432466Y-74044817D01*
X144432463Y-74044815D01*
X144432462Y-74044814D01*
X144258427Y-73937056D01*
X144258425Y-73937055D01*
X144172021Y-73903582D01*
X144067556Y-73863112D01*
X144067553Y-73863111D01*
X144067552Y-73863111D01*
X143866351Y-73825500D01*
X143866347Y-73825500D01*
X143661653Y-73825500D01*
X143661648Y-73825500D01*
X143460447Y-73863111D01*
X143269574Y-73937055D01*
X143095533Y-74044817D01*
X142944266Y-74182717D01*
X142944259Y-74182724D01*
X142820915Y-74346059D01*
X142820912Y-74346065D01*
X142729672Y-74529298D01*
X142673655Y-74726174D01*
X142673653Y-74726186D01*
X142654768Y-74929995D01*
X142654768Y-74930004D01*
X136153380Y-74930004D01*
X136101978Y-74817448D01*
X136016391Y-74718675D01*
X135906444Y-74648017D01*
X135906442Y-74648016D01*
X135906440Y-74648015D01*
X135781045Y-74611196D01*
X135781043Y-74611196D01*
X135650349Y-74611196D01*
X135650347Y-74611196D01*
X135524951Y-74648015D01*
X135414999Y-74718676D01*
X135329416Y-74817445D01*
X135329413Y-74817450D01*
X135275122Y-74936330D01*
X135275121Y-74936333D01*
X135256522Y-75065696D01*
X134752561Y-75065696D01*
X134725052Y-75048017D01*
X134725050Y-75048016D01*
X134725048Y-75048015D01*
X134599653Y-75011196D01*
X134599651Y-75011196D01*
X134468957Y-75011196D01*
X134468955Y-75011196D01*
X134343559Y-75048015D01*
X134233607Y-75118676D01*
X134148024Y-75217445D01*
X134148021Y-75217450D01*
X134093730Y-75336330D01*
X134093729Y-75336332D01*
X134087326Y-75380868D01*
X134062916Y-75422006D01*
X134043071Y-75431940D01*
X133924951Y-75466623D01*
X133814999Y-75537284D01*
X133729416Y-75636053D01*
X133729413Y-75636058D01*
X133675122Y-75754938D01*
X133675121Y-75754941D01*
X133656522Y-75884304D01*
X126559961Y-75884304D01*
X126564174Y-75855000D01*
X126545574Y-75725636D01*
X126491282Y-75606752D01*
X126405695Y-75507979D01*
X126295748Y-75437321D01*
X126295746Y-75437320D01*
X126295744Y-75437319D01*
X126170349Y-75400500D01*
X126170347Y-75400500D01*
X126039653Y-75400500D01*
X126039651Y-75400500D01*
X125914255Y-75437319D01*
X125804303Y-75507980D01*
X125718720Y-75606749D01*
X125718717Y-75606754D01*
X125664426Y-75725634D01*
X125664425Y-75725637D01*
X125645826Y-75854999D01*
X125664425Y-75984362D01*
X125664426Y-75984365D01*
X125677809Y-76013669D01*
X125718718Y-76103248D01*
X125804305Y-76202021D01*
X125914252Y-76272679D01*
X125914254Y-76272679D01*
X125914255Y-76272680D01*
X126007406Y-76300032D01*
X126044652Y-76330047D01*
X126049765Y-76377609D01*
X126019750Y-76414855D01*
X126007406Y-76419968D01*
X125914255Y-76447319D01*
X125804303Y-76517980D01*
X125718720Y-76616749D01*
X125718717Y-76616754D01*
X125693614Y-76671723D01*
X125658604Y-76704319D01*
X125636762Y-76708260D01*
X125580271Y-76708260D01*
X125454875Y-76745079D01*
X125344923Y-76815740D01*
X125259340Y-76914509D01*
X125259337Y-76914514D01*
X125205046Y-77033394D01*
X125205045Y-77033397D01*
X125186446Y-77162760D01*
X110575500Y-77162760D01*
X110575500Y-74815800D01*
X120888766Y-74815800D01*
X120907365Y-74945162D01*
X120907366Y-74945164D01*
X120961658Y-75064048D01*
X120961660Y-75064050D01*
X121022109Y-75133813D01*
X121047245Y-75162821D01*
X121157192Y-75233479D01*
X121157194Y-75233479D01*
X121157195Y-75233480D01*
X121282590Y-75270299D01*
X121282592Y-75270300D01*
X121282593Y-75270300D01*
X121413288Y-75270300D01*
X121413288Y-75270299D01*
X121538688Y-75233479D01*
X121648635Y-75162821D01*
X121734222Y-75064048D01*
X121788514Y-74945164D01*
X121807114Y-74815800D01*
X121788514Y-74686436D01*
X121734222Y-74567552D01*
X121648635Y-74468779D01*
X121538688Y-74398121D01*
X121538686Y-74398120D01*
X121538684Y-74398119D01*
X121413289Y-74361300D01*
X121413287Y-74361300D01*
X121282593Y-74361300D01*
X121282591Y-74361300D01*
X121157195Y-74398119D01*
X121047243Y-74468780D01*
X120961660Y-74567549D01*
X120961657Y-74567554D01*
X120907366Y-74686434D01*
X120907365Y-74686437D01*
X120888766Y-74815800D01*
X110575500Y-74815800D01*
X110575500Y-73556563D01*
X126327389Y-73556563D01*
X126345988Y-73685925D01*
X126345989Y-73685927D01*
X126400281Y-73804811D01*
X126485868Y-73903584D01*
X126595815Y-73974242D01*
X126595817Y-73974242D01*
X126595818Y-73974243D01*
X126721213Y-74011062D01*
X126721215Y-74011063D01*
X126721216Y-74011063D01*
X126851911Y-74011063D01*
X126851911Y-74011062D01*
X126977311Y-73974242D01*
X127087258Y-73903584D01*
X127172845Y-73804811D01*
X127227137Y-73685927D01*
X127227244Y-73685180D01*
X135983286Y-73685180D01*
X136001885Y-73814542D01*
X136001886Y-73814545D01*
X136024066Y-73863112D01*
X136056178Y-73933428D01*
X136141765Y-74032201D01*
X136251712Y-74102859D01*
X136251714Y-74102859D01*
X136251715Y-74102860D01*
X136377110Y-74139679D01*
X136377112Y-74139680D01*
X136377113Y-74139680D01*
X136507808Y-74139680D01*
X136507808Y-74139679D01*
X136633208Y-74102859D01*
X136743155Y-74032201D01*
X136828742Y-73933428D01*
X136883034Y-73814544D01*
X136901634Y-73685180D01*
X136883034Y-73555816D01*
X136828742Y-73436932D01*
X136743155Y-73338159D01*
X136633208Y-73267501D01*
X136633206Y-73267500D01*
X136633204Y-73267499D01*
X136507809Y-73230680D01*
X136507807Y-73230680D01*
X136377113Y-73230680D01*
X136377111Y-73230680D01*
X136251715Y-73267499D01*
X136141763Y-73338160D01*
X136056180Y-73436929D01*
X136056177Y-73436934D01*
X136001886Y-73555814D01*
X136001885Y-73555817D01*
X135983286Y-73685180D01*
X127227244Y-73685180D01*
X127245737Y-73556563D01*
X127227137Y-73427199D01*
X127172845Y-73308315D01*
X127087258Y-73209542D01*
X126977311Y-73138884D01*
X126977309Y-73138883D01*
X126977307Y-73138882D01*
X126851912Y-73102063D01*
X126851910Y-73102063D01*
X126721216Y-73102063D01*
X126721214Y-73102063D01*
X126595818Y-73138882D01*
X126485866Y-73209543D01*
X126400283Y-73308312D01*
X126400280Y-73308317D01*
X126345989Y-73427197D01*
X126345988Y-73427200D01*
X126327389Y-73556563D01*
X110575500Y-73556563D01*
X110575500Y-72770140D01*
X120063286Y-72770140D01*
X120081885Y-72899502D01*
X120081886Y-72899504D01*
X120136178Y-73018388D01*
X120136180Y-73018390D01*
X120208682Y-73102063D01*
X120221765Y-73117161D01*
X120331712Y-73187819D01*
X120331714Y-73187819D01*
X120331715Y-73187820D01*
X120457110Y-73224639D01*
X120457112Y-73224640D01*
X120457113Y-73224640D01*
X120587808Y-73224640D01*
X120587808Y-73224639D01*
X120713208Y-73187819D01*
X120823155Y-73117161D01*
X120908742Y-73018388D01*
X120963034Y-72899504D01*
X120981634Y-72770140D01*
X120963034Y-72640776D01*
X120910244Y-72525180D01*
X134593286Y-72525180D01*
X134611885Y-72654542D01*
X134611886Y-72654544D01*
X134666178Y-72773428D01*
X134751765Y-72872201D01*
X134861712Y-72942859D01*
X134967564Y-72973940D01*
X134987110Y-72979679D01*
X134987112Y-72979680D01*
X134987113Y-72979680D01*
X135117808Y-72979680D01*
X135117808Y-72979679D01*
X135243208Y-72942859D01*
X135353155Y-72872201D01*
X135438742Y-72773428D01*
X135493034Y-72654544D01*
X135511634Y-72525180D01*
X135493034Y-72395816D01*
X135490380Y-72390004D01*
X142654768Y-72390004D01*
X142673653Y-72593813D01*
X142673655Y-72593825D01*
X142724757Y-72773428D01*
X142729672Y-72790701D01*
X142820912Y-72973935D01*
X142820913Y-72973936D01*
X142820915Y-72973940D01*
X142944259Y-73137275D01*
X142944264Y-73137280D01*
X142944268Y-73137285D01*
X143023530Y-73209542D01*
X143095533Y-73275182D01*
X143095534Y-73275183D01*
X143095538Y-73275186D01*
X143269573Y-73382944D01*
X143460444Y-73456888D01*
X143661653Y-73494500D01*
X143661656Y-73494500D01*
X143866344Y-73494500D01*
X143866347Y-73494500D01*
X144067556Y-73456888D01*
X144258427Y-73382944D01*
X144432462Y-73275186D01*
X144583732Y-73137285D01*
X144598931Y-73117159D01*
X144673521Y-73018385D01*
X144707088Y-72973935D01*
X144798328Y-72790701D01*
X144854345Y-72593821D01*
X144861010Y-72521894D01*
X144873232Y-72390004D01*
X145194768Y-72390004D01*
X145213653Y-72593813D01*
X145213655Y-72593825D01*
X145264757Y-72773428D01*
X145269672Y-72790701D01*
X145360912Y-72973935D01*
X145360913Y-72973936D01*
X145360915Y-72973940D01*
X145484259Y-73137275D01*
X145484264Y-73137280D01*
X145484268Y-73137285D01*
X145563530Y-73209542D01*
X145635533Y-73275182D01*
X145635534Y-73275183D01*
X145635538Y-73275186D01*
X145809573Y-73382944D01*
X146000444Y-73456888D01*
X146201653Y-73494500D01*
X146201656Y-73494500D01*
X146406344Y-73494500D01*
X146406347Y-73494500D01*
X146607556Y-73456888D01*
X146798427Y-73382944D01*
X146972462Y-73275186D01*
X147123732Y-73137285D01*
X147138931Y-73117159D01*
X147213521Y-73018385D01*
X147247088Y-72973935D01*
X147338328Y-72790701D01*
X147394345Y-72593821D01*
X147401010Y-72521894D01*
X147413232Y-72390004D01*
X147413232Y-72389995D01*
X147394346Y-72186186D01*
X147394344Y-72186174D01*
X147361483Y-72070680D01*
X147338328Y-71989299D01*
X147247088Y-71806065D01*
X147247085Y-71806061D01*
X147247084Y-71806059D01*
X147123740Y-71642724D01*
X147123735Y-71642719D01*
X147123732Y-71642715D01*
X147010838Y-71539798D01*
X146972466Y-71504817D01*
X146972463Y-71504815D01*
X146972462Y-71504814D01*
X146798427Y-71397056D01*
X146798425Y-71397055D01*
X146708451Y-71362199D01*
X146607556Y-71323112D01*
X146607553Y-71323111D01*
X146607552Y-71323111D01*
X146406351Y-71285500D01*
X146406347Y-71285500D01*
X146201653Y-71285500D01*
X146201648Y-71285500D01*
X146000447Y-71323111D01*
X145809574Y-71397055D01*
X145635533Y-71504817D01*
X145484266Y-71642717D01*
X145484259Y-71642724D01*
X145360915Y-71806059D01*
X145360912Y-71806065D01*
X145269672Y-71989298D01*
X145213655Y-72186174D01*
X145213653Y-72186186D01*
X145194768Y-72389995D01*
X145194768Y-72390004D01*
X144873232Y-72390004D01*
X144873232Y-72389995D01*
X144854346Y-72186186D01*
X144854344Y-72186174D01*
X144821483Y-72070680D01*
X144798328Y-71989299D01*
X144707088Y-71806065D01*
X144707085Y-71806061D01*
X144707084Y-71806059D01*
X144583740Y-71642724D01*
X144583735Y-71642719D01*
X144583732Y-71642715D01*
X144470838Y-71539798D01*
X144432466Y-71504817D01*
X144432463Y-71504815D01*
X144432462Y-71504814D01*
X144258427Y-71397056D01*
X144258425Y-71397055D01*
X144168451Y-71362199D01*
X144067556Y-71323112D01*
X144067553Y-71323111D01*
X144067552Y-71323111D01*
X143866351Y-71285500D01*
X143866347Y-71285500D01*
X143661653Y-71285500D01*
X143661648Y-71285500D01*
X143460447Y-71323111D01*
X143269574Y-71397055D01*
X143095533Y-71504817D01*
X142944266Y-71642717D01*
X142944259Y-71642724D01*
X142820915Y-71806059D01*
X142820912Y-71806065D01*
X142729672Y-71989298D01*
X142673655Y-72186174D01*
X142673653Y-72186186D01*
X142654768Y-72389995D01*
X142654768Y-72390004D01*
X135490380Y-72390004D01*
X135438742Y-72276932D01*
X135374551Y-72202852D01*
X135353156Y-72178160D01*
X135353155Y-72178159D01*
X135243208Y-72107501D01*
X135243206Y-72107500D01*
X135243204Y-72107499D01*
X135117809Y-72070680D01*
X135117807Y-72070680D01*
X134987113Y-72070680D01*
X134987111Y-72070680D01*
X134861715Y-72107499D01*
X134751763Y-72178160D01*
X134666180Y-72276929D01*
X134666177Y-72276934D01*
X134611886Y-72395814D01*
X134611885Y-72395817D01*
X134593286Y-72525180D01*
X120910244Y-72525180D01*
X120908742Y-72521892D01*
X120823155Y-72423119D01*
X120713208Y-72352461D01*
X120713206Y-72352460D01*
X120713204Y-72352459D01*
X120587809Y-72315640D01*
X120587807Y-72315640D01*
X120457113Y-72315640D01*
X120457111Y-72315640D01*
X120331715Y-72352459D01*
X120221763Y-72423120D01*
X120136180Y-72521889D01*
X120136177Y-72521894D01*
X120081886Y-72640774D01*
X120081885Y-72640777D01*
X120063286Y-72770140D01*
X110575500Y-72770140D01*
X110575500Y-71015180D01*
X129413286Y-71015180D01*
X129431885Y-71144542D01*
X129431886Y-71144545D01*
X129439943Y-71162187D01*
X129486178Y-71263428D01*
X129510545Y-71291549D01*
X129564517Y-71353837D01*
X129571765Y-71362201D01*
X129681712Y-71432859D01*
X129681714Y-71432859D01*
X129681715Y-71432860D01*
X129807110Y-71469679D01*
X129807112Y-71469680D01*
X129807113Y-71469680D01*
X129937808Y-71469680D01*
X129937808Y-71469679D01*
X130063208Y-71432859D01*
X130173155Y-71362201D01*
X130234374Y-71291550D01*
X139506666Y-71291550D01*
X139525265Y-71420912D01*
X139525266Y-71420915D01*
X139547536Y-71469679D01*
X139579558Y-71539798D01*
X139665145Y-71638571D01*
X139775092Y-71709229D01*
X139775094Y-71709229D01*
X139775095Y-71709230D01*
X139900490Y-71746049D01*
X139900492Y-71746050D01*
X139900493Y-71746050D01*
X140031188Y-71746050D01*
X140031188Y-71746049D01*
X140156588Y-71709229D01*
X140266535Y-71638571D01*
X140352122Y-71539798D01*
X140406414Y-71420914D01*
X140425014Y-71291550D01*
X140406414Y-71162186D01*
X140352122Y-71043302D01*
X140266535Y-70944529D01*
X140253509Y-70936158D01*
X141514264Y-70936158D01*
X141532863Y-71065520D01*
X141532864Y-71065522D01*
X141587156Y-71184406D01*
X141672743Y-71283179D01*
X141782690Y-71353837D01*
X141782692Y-71353837D01*
X141782693Y-71353838D01*
X141908088Y-71390657D01*
X141908090Y-71390658D01*
X141908091Y-71390658D01*
X142038786Y-71390658D01*
X142038786Y-71390657D01*
X142164186Y-71353837D01*
X142274133Y-71283179D01*
X142359720Y-71184406D01*
X142414012Y-71065522D01*
X142432612Y-70936158D01*
X142414012Y-70806794D01*
X142359720Y-70687910D01*
X142295529Y-70613830D01*
X142274134Y-70589138D01*
X142274133Y-70589137D01*
X142164186Y-70518479D01*
X142164184Y-70518478D01*
X142164182Y-70518477D01*
X142038787Y-70481658D01*
X142038785Y-70481658D01*
X141908091Y-70481658D01*
X141908089Y-70481658D01*
X141782693Y-70518477D01*
X141672741Y-70589138D01*
X141587158Y-70687907D01*
X141587155Y-70687912D01*
X141532864Y-70806792D01*
X141532863Y-70806795D01*
X141514264Y-70936158D01*
X140253509Y-70936158D01*
X140156588Y-70873871D01*
X140156586Y-70873870D01*
X140156584Y-70873869D01*
X140031189Y-70837050D01*
X140031187Y-70837050D01*
X139900493Y-70837050D01*
X139900491Y-70837050D01*
X139775095Y-70873869D01*
X139665143Y-70944530D01*
X139579560Y-71043299D01*
X139579557Y-71043304D01*
X139525266Y-71162184D01*
X139525265Y-71162187D01*
X139506666Y-71291550D01*
X130234374Y-71291550D01*
X130258742Y-71263428D01*
X130313034Y-71144544D01*
X130331634Y-71015180D01*
X130313034Y-70885816D01*
X130258742Y-70766932D01*
X130173155Y-70668159D01*
X130063208Y-70597501D01*
X130063206Y-70597500D01*
X130063204Y-70597499D01*
X129937809Y-70560680D01*
X129937807Y-70560680D01*
X129807113Y-70560680D01*
X129807111Y-70560680D01*
X129681715Y-70597499D01*
X129571763Y-70668160D01*
X129486180Y-70766929D01*
X129486177Y-70766934D01*
X129431886Y-70885814D01*
X129431885Y-70885817D01*
X129413286Y-71015180D01*
X110575500Y-71015180D01*
X110575500Y-68670144D01*
X111557077Y-68670144D01*
X111575698Y-68906766D01*
X111575699Y-68906770D01*
X111631110Y-69137572D01*
X111721948Y-69356876D01*
X111836636Y-69544031D01*
X111836636Y-69544032D01*
X112465805Y-68914862D01*
X112476928Y-68949096D01*
X112564926Y-69087759D01*
X112684643Y-69200180D01*
X112822900Y-69276188D01*
X112195846Y-69903241D01*
X112195847Y-69903242D01*
X112383003Y-70017931D01*
X112602307Y-70108769D01*
X112833109Y-70164180D01*
X112833113Y-70164181D01*
X113069736Y-70182803D01*
X113069744Y-70182803D01*
X113306366Y-70164181D01*
X113306370Y-70164180D01*
X113537172Y-70108769D01*
X113756479Y-70017930D01*
X113943631Y-69903241D01*
X113943632Y-69903241D01*
X113313221Y-69272831D01*
X113385369Y-69244266D01*
X113518232Y-69147735D01*
X113622915Y-69021195D01*
X113673181Y-68914372D01*
X114302841Y-69544032D01*
X114302841Y-69544031D01*
X114417530Y-69356879D01*
X114453456Y-69270144D01*
X116457077Y-69270144D01*
X116475698Y-69506766D01*
X116475699Y-69506770D01*
X116531110Y-69737572D01*
X116621948Y-69956876D01*
X116736636Y-70144031D01*
X116736636Y-70144032D01*
X117365805Y-69514862D01*
X117376928Y-69549096D01*
X117464926Y-69687759D01*
X117584643Y-69800180D01*
X117722900Y-69876188D01*
X117095846Y-70503241D01*
X117095847Y-70503242D01*
X117283003Y-70617931D01*
X117502307Y-70708769D01*
X117733109Y-70764180D01*
X117733113Y-70764181D01*
X117969736Y-70782803D01*
X117969744Y-70782803D01*
X118206366Y-70764181D01*
X118206370Y-70764180D01*
X118437172Y-70708769D01*
X118656479Y-70617930D01*
X118843631Y-70503241D01*
X118843632Y-70503241D01*
X118213221Y-69872831D01*
X118285369Y-69844266D01*
X118418232Y-69747735D01*
X118522915Y-69621195D01*
X118573182Y-69514372D01*
X119202841Y-70144031D01*
X119317530Y-69956879D01*
X119408369Y-69737572D01*
X119463780Y-69506770D01*
X119463781Y-69506766D01*
X119482403Y-69270144D01*
X119482403Y-69270135D01*
X119463781Y-69033513D01*
X119463780Y-69033509D01*
X119408369Y-68802707D01*
X119317531Y-68583403D01*
X119251211Y-68475179D01*
X129283286Y-68475179D01*
X129301885Y-68604542D01*
X129301886Y-68604545D01*
X129308146Y-68618252D01*
X129356178Y-68723428D01*
X129441765Y-68822201D01*
X129551712Y-68892859D01*
X129551714Y-68892859D01*
X129551715Y-68892860D01*
X129677110Y-68929679D01*
X129677112Y-68929680D01*
X129782397Y-68929680D01*
X129826591Y-68947986D01*
X129844897Y-68992180D01*
X129826591Y-69036374D01*
X129815032Y-69044398D01*
X129815473Y-69045085D01*
X129811714Y-69047500D01*
X129811712Y-69047501D01*
X129749069Y-69087759D01*
X129701763Y-69118160D01*
X129616180Y-69216929D01*
X129616177Y-69216934D01*
X129561886Y-69335814D01*
X129561885Y-69335817D01*
X129543286Y-69465180D01*
X129561885Y-69594542D01*
X129561886Y-69594544D01*
X129616178Y-69713428D01*
X129616180Y-69713430D01*
X129685495Y-69793425D01*
X129701765Y-69812201D01*
X129811712Y-69882859D01*
X129811714Y-69882859D01*
X129811715Y-69882860D01*
X129937110Y-69919679D01*
X129937112Y-69919680D01*
X129937113Y-69919680D01*
X130067808Y-69919680D01*
X130067808Y-69919679D01*
X130193208Y-69882859D01*
X130303155Y-69812201D01*
X130388742Y-69713428D01*
X130443034Y-69594544D01*
X130450132Y-69545179D01*
X132845326Y-69545179D01*
X132863925Y-69674542D01*
X132863926Y-69674545D01*
X132881684Y-69713430D01*
X132918218Y-69793428D01*
X132918220Y-69793430D01*
X132992624Y-69879298D01*
X133003805Y-69892201D01*
X133113752Y-69962859D01*
X133113754Y-69962859D01*
X133113755Y-69962860D01*
X133239150Y-69999679D01*
X133239152Y-69999680D01*
X133239153Y-69999680D01*
X133369848Y-69999680D01*
X133369848Y-69999679D01*
X133495248Y-69962859D01*
X133605195Y-69892201D01*
X133641759Y-69850004D01*
X142654768Y-69850004D01*
X142673653Y-70053813D01*
X142673655Y-70053825D01*
X142705055Y-70164181D01*
X142729672Y-70250701D01*
X142820912Y-70433935D01*
X142820913Y-70433936D01*
X142820915Y-70433940D01*
X142944259Y-70597275D01*
X142944264Y-70597280D01*
X142944268Y-70597285D01*
X143043679Y-70687910D01*
X143095533Y-70735182D01*
X143095534Y-70735183D01*
X143095538Y-70735186D01*
X143269573Y-70842944D01*
X143460444Y-70916888D01*
X143661653Y-70954500D01*
X143661656Y-70954500D01*
X143866344Y-70954500D01*
X143866347Y-70954500D01*
X144067556Y-70916888D01*
X144258427Y-70842944D01*
X144432462Y-70735186D01*
X144583732Y-70597285D01*
X144589885Y-70589138D01*
X144707084Y-70433940D01*
X144707083Y-70433940D01*
X144707088Y-70433935D01*
X144798328Y-70250701D01*
X144854345Y-70053821D01*
X144863328Y-69956879D01*
X144873232Y-69850004D01*
X145194768Y-69850004D01*
X145213653Y-70053813D01*
X145213655Y-70053825D01*
X145245055Y-70164181D01*
X145269672Y-70250701D01*
X145360912Y-70433935D01*
X145360913Y-70433936D01*
X145360915Y-70433940D01*
X145484259Y-70597275D01*
X145484264Y-70597280D01*
X145484268Y-70597285D01*
X145583679Y-70687910D01*
X145635533Y-70735182D01*
X145635534Y-70735183D01*
X145635538Y-70735186D01*
X145809573Y-70842944D01*
X146000444Y-70916888D01*
X146201653Y-70954500D01*
X146201656Y-70954500D01*
X146406344Y-70954500D01*
X146406347Y-70954500D01*
X146607556Y-70916888D01*
X146798427Y-70842944D01*
X146972462Y-70735186D01*
X147123732Y-70597285D01*
X147129885Y-70589138D01*
X147247084Y-70433940D01*
X147247083Y-70433940D01*
X147247088Y-70433935D01*
X147338328Y-70250701D01*
X147394345Y-70053821D01*
X147403328Y-69956879D01*
X147413232Y-69850004D01*
X147413232Y-69849995D01*
X147394346Y-69646186D01*
X147394344Y-69646174D01*
X147373542Y-69573066D01*
X147338328Y-69449299D01*
X147247088Y-69266065D01*
X147247085Y-69266061D01*
X147247084Y-69266059D01*
X147123740Y-69102724D01*
X147123735Y-69102719D01*
X147123732Y-69102715D01*
X147002481Y-68992180D01*
X146972466Y-68964817D01*
X146972463Y-68964815D01*
X146972462Y-68964814D01*
X146798427Y-68857056D01*
X146798425Y-68857055D01*
X146658136Y-68802707D01*
X146607556Y-68783112D01*
X146607553Y-68783111D01*
X146607552Y-68783111D01*
X146406351Y-68745500D01*
X146406347Y-68745500D01*
X146201653Y-68745500D01*
X146201648Y-68745500D01*
X146000447Y-68783111D01*
X145809574Y-68857055D01*
X145635533Y-68964817D01*
X145522696Y-69067683D01*
X145493133Y-69094634D01*
X145484266Y-69102717D01*
X145484259Y-69102724D01*
X145360915Y-69266059D01*
X145360912Y-69266065D01*
X145269672Y-69449298D01*
X145213655Y-69646174D01*
X145213653Y-69646186D01*
X145194768Y-69849995D01*
X145194768Y-69850004D01*
X144873232Y-69850004D01*
X144873232Y-69849995D01*
X144854346Y-69646186D01*
X144854344Y-69646174D01*
X144833542Y-69573066D01*
X144798328Y-69449299D01*
X144707088Y-69266065D01*
X144707085Y-69266061D01*
X144707084Y-69266059D01*
X144583740Y-69102724D01*
X144583735Y-69102719D01*
X144583732Y-69102715D01*
X144462481Y-68992180D01*
X144432466Y-68964817D01*
X144432463Y-68964815D01*
X144432462Y-68964814D01*
X144258427Y-68857056D01*
X144258425Y-68857055D01*
X144118136Y-68802707D01*
X144067556Y-68783112D01*
X144067553Y-68783111D01*
X144067552Y-68783111D01*
X143866351Y-68745500D01*
X143866347Y-68745500D01*
X143661653Y-68745500D01*
X143661648Y-68745500D01*
X143460447Y-68783111D01*
X143269574Y-68857055D01*
X143095533Y-68964817D01*
X142982696Y-69067683D01*
X142953133Y-69094634D01*
X142944266Y-69102717D01*
X142944259Y-69102724D01*
X142820915Y-69266059D01*
X142820912Y-69266065D01*
X142729672Y-69449298D01*
X142673655Y-69646174D01*
X142673653Y-69646186D01*
X142654768Y-69849995D01*
X142654768Y-69850004D01*
X133641759Y-69850004D01*
X133690782Y-69793428D01*
X133745074Y-69674544D01*
X133763674Y-69545180D01*
X133745074Y-69415816D01*
X133690782Y-69296932D01*
X133605195Y-69198159D01*
X133495248Y-69127501D01*
X133495246Y-69127500D01*
X133495244Y-69127499D01*
X133369849Y-69090680D01*
X133369847Y-69090680D01*
X133239153Y-69090680D01*
X133239151Y-69090680D01*
X133113755Y-69127499D01*
X133003803Y-69198160D01*
X132918220Y-69296929D01*
X132918217Y-69296934D01*
X132863926Y-69415814D01*
X132863925Y-69415817D01*
X132845326Y-69545179D01*
X130450132Y-69545179D01*
X130461634Y-69465180D01*
X130443034Y-69335816D01*
X130388742Y-69216932D01*
X130303155Y-69118159D01*
X130193208Y-69047501D01*
X130193206Y-69047500D01*
X130193204Y-69047499D01*
X130067809Y-69010680D01*
X130067807Y-69010680D01*
X129962523Y-69010680D01*
X129918329Y-68992374D01*
X129907103Y-68965272D01*
X131952716Y-68965272D01*
X131971315Y-69094634D01*
X131971316Y-69094637D01*
X131982058Y-69118159D01*
X132025608Y-69213520D01*
X132068401Y-69262906D01*
X132110315Y-69311278D01*
X132111195Y-69312293D01*
X132221142Y-69382951D01*
X132221144Y-69382951D01*
X132221145Y-69382952D01*
X132283842Y-69401361D01*
X132333073Y-69415817D01*
X132346540Y-69419771D01*
X132346542Y-69419772D01*
X132346543Y-69419772D01*
X132477238Y-69419772D01*
X132477238Y-69419771D01*
X132602638Y-69382951D01*
X132712585Y-69312293D01*
X132798172Y-69213520D01*
X132852464Y-69094636D01*
X132871064Y-68965272D01*
X132852464Y-68835908D01*
X132820163Y-68765179D01*
X133973286Y-68765179D01*
X133991885Y-68894542D01*
X133991886Y-68894545D01*
X134016799Y-68949096D01*
X134046178Y-69013428D01*
X134131765Y-69112201D01*
X134241712Y-69182859D01*
X134357754Y-69216932D01*
X134367110Y-69219679D01*
X134367112Y-69219680D01*
X134367113Y-69219680D01*
X134497808Y-69219680D01*
X134497808Y-69219679D01*
X134623208Y-69182859D01*
X134733155Y-69112201D01*
X134818742Y-69013428D01*
X134873034Y-68894544D01*
X134891634Y-68765180D01*
X134873034Y-68635816D01*
X134818742Y-68516932D01*
X134733155Y-68418159D01*
X134623208Y-68347501D01*
X134623206Y-68347500D01*
X134623204Y-68347499D01*
X134497809Y-68310680D01*
X134497807Y-68310680D01*
X134367113Y-68310680D01*
X134367111Y-68310680D01*
X134241715Y-68347499D01*
X134131763Y-68418160D01*
X134046180Y-68516929D01*
X134046177Y-68516934D01*
X133991886Y-68635814D01*
X133991885Y-68635817D01*
X133973286Y-68765179D01*
X132820163Y-68765179D01*
X132798172Y-68717024D01*
X132712585Y-68618251D01*
X132602638Y-68547593D01*
X132602636Y-68547592D01*
X132602634Y-68547591D01*
X132477239Y-68510772D01*
X132477237Y-68510772D01*
X132346543Y-68510772D01*
X132346541Y-68510772D01*
X132221145Y-68547591D01*
X132111193Y-68618252D01*
X132025610Y-68717021D01*
X132025607Y-68717026D01*
X131971316Y-68835906D01*
X131971315Y-68835909D01*
X131952716Y-68965272D01*
X129907103Y-68965272D01*
X129900023Y-68948180D01*
X129918329Y-68903986D01*
X129929887Y-68895961D01*
X129929447Y-68895275D01*
X129933205Y-68892859D01*
X129933208Y-68892859D01*
X130043155Y-68822201D01*
X130128742Y-68723428D01*
X130183034Y-68604544D01*
X130201634Y-68475180D01*
X130183034Y-68345816D01*
X130128742Y-68226932D01*
X130043155Y-68128159D01*
X130038924Y-68125440D01*
X135315966Y-68125440D01*
X135334565Y-68254802D01*
X135334566Y-68254805D01*
X135360083Y-68310680D01*
X135388858Y-68373688D01*
X135474445Y-68472461D01*
X135584392Y-68543119D01*
X135584394Y-68543119D01*
X135584395Y-68543120D01*
X135709790Y-68579939D01*
X135709792Y-68579940D01*
X135709793Y-68579940D01*
X135840488Y-68579940D01*
X135840488Y-68579939D01*
X135965888Y-68543119D01*
X136075835Y-68472461D01*
X136125469Y-68415180D01*
X141693286Y-68415180D01*
X141695921Y-68433509D01*
X141711885Y-68544542D01*
X141711886Y-68544545D01*
X141729632Y-68583403D01*
X141766178Y-68663428D01*
X141794414Y-68696014D01*
X141837293Y-68745500D01*
X141851765Y-68762201D01*
X141961712Y-68832859D01*
X141961714Y-68832859D01*
X141961715Y-68832860D01*
X142087110Y-68869679D01*
X142087112Y-68869680D01*
X142087113Y-68869680D01*
X142217808Y-68869680D01*
X142217808Y-68869679D01*
X142343208Y-68832859D01*
X142453155Y-68762201D01*
X142538742Y-68663428D01*
X142593034Y-68544544D01*
X142611634Y-68415180D01*
X142605105Y-68369771D01*
X142616935Y-68323422D01*
X142658074Y-68299013D01*
X142704424Y-68310843D01*
X142718936Y-68326154D01*
X142730515Y-68343484D01*
X142814697Y-68399733D01*
X142814699Y-68399734D01*
X142888933Y-68414500D01*
X144639066Y-68414499D01*
X144713301Y-68399734D01*
X144797484Y-68343484D01*
X144853734Y-68259301D01*
X144868500Y-68185067D01*
X144868500Y-67310004D01*
X145194768Y-67310004D01*
X145213653Y-67513813D01*
X145213655Y-67513825D01*
X145269671Y-67710701D01*
X145269672Y-67710701D01*
X145360912Y-67893935D01*
X145360913Y-67893936D01*
X145360915Y-67893940D01*
X145484259Y-68057275D01*
X145484264Y-68057280D01*
X145484268Y-68057285D01*
X145562013Y-68128159D01*
X145635533Y-68195182D01*
X145635534Y-68195183D01*
X145635538Y-68195186D01*
X145809573Y-68302944D01*
X146000444Y-68376888D01*
X146201653Y-68414500D01*
X146201656Y-68414500D01*
X146406344Y-68414500D01*
X146406347Y-68414500D01*
X146607556Y-68376888D01*
X146798427Y-68302944D01*
X146972462Y-68195186D01*
X147123732Y-68057285D01*
X147139024Y-68037036D01*
X147205969Y-67948385D01*
X147247088Y-67893935D01*
X147338328Y-67710701D01*
X147394345Y-67513821D01*
X147394346Y-67513813D01*
X147413232Y-67310004D01*
X147413232Y-67309995D01*
X147394346Y-67106186D01*
X147394344Y-67106174D01*
X147373542Y-67033066D01*
X147338328Y-66909299D01*
X147247088Y-66726065D01*
X147247085Y-66726061D01*
X147247084Y-66726059D01*
X147123740Y-66562724D01*
X147123735Y-66562719D01*
X147123732Y-66562715D01*
X147028834Y-66476204D01*
X146972466Y-66424817D01*
X146972463Y-66424815D01*
X146972462Y-66424814D01*
X146798427Y-66317056D01*
X146798425Y-66317055D01*
X146693781Y-66276516D01*
X146607556Y-66243112D01*
X146607553Y-66243111D01*
X146607552Y-66243111D01*
X146406351Y-66205500D01*
X146406347Y-66205500D01*
X146201653Y-66205500D01*
X146201648Y-66205500D01*
X146000447Y-66243111D01*
X145809574Y-66317055D01*
X145635533Y-66424817D01*
X145484266Y-66562717D01*
X145484259Y-66562724D01*
X145360915Y-66726059D01*
X145360912Y-66726065D01*
X145269672Y-66909298D01*
X145213655Y-67106174D01*
X145213653Y-67106186D01*
X145194768Y-67309995D01*
X145194768Y-67310004D01*
X144868500Y-67310004D01*
X144868499Y-66434934D01*
X144853734Y-66360699D01*
X144853230Y-66359944D01*
X144797484Y-66276515D01*
X144713302Y-66220266D01*
X144713300Y-66220265D01*
X144639067Y-66205500D01*
X142888935Y-66205500D01*
X142888931Y-66205501D01*
X142814700Y-66220265D01*
X142814696Y-66220267D01*
X142730515Y-66276515D01*
X142674266Y-66360697D01*
X142674265Y-66360699D01*
X142659500Y-66434932D01*
X142659500Y-68144050D01*
X142641194Y-68188244D01*
X142597000Y-68206550D01*
X142552806Y-68188244D01*
X142540148Y-68170012D01*
X142538742Y-68166932D01*
X142453155Y-68068159D01*
X142343208Y-67997501D01*
X142343206Y-67997500D01*
X142343204Y-67997499D01*
X142217809Y-67960680D01*
X142217807Y-67960680D01*
X142087113Y-67960680D01*
X142087111Y-67960680D01*
X141961715Y-67997499D01*
X141851763Y-68068160D01*
X141766180Y-68166929D01*
X141766177Y-68166934D01*
X141711886Y-68285814D01*
X141711885Y-68285817D01*
X141696736Y-68391184D01*
X141693286Y-68415180D01*
X136125469Y-68415180D01*
X136161422Y-68373688D01*
X136215714Y-68254804D01*
X136234314Y-68125440D01*
X136215714Y-67996076D01*
X136161422Y-67877192D01*
X136075835Y-67778419D01*
X135965888Y-67707761D01*
X135965886Y-67707760D01*
X135965884Y-67707759D01*
X135840489Y-67670940D01*
X135840487Y-67670940D01*
X135709793Y-67670940D01*
X135709791Y-67670940D01*
X135584395Y-67707759D01*
X135474443Y-67778420D01*
X135388860Y-67877189D01*
X135388857Y-67877194D01*
X135334566Y-67996074D01*
X135334565Y-67996077D01*
X135315966Y-68125440D01*
X130038924Y-68125440D01*
X129933208Y-68057501D01*
X129933206Y-68057500D01*
X129933204Y-68057499D01*
X129807809Y-68020680D01*
X129807807Y-68020680D01*
X129677113Y-68020680D01*
X129677111Y-68020680D01*
X129551715Y-68057499D01*
X129441763Y-68128160D01*
X129356180Y-68226929D01*
X129356177Y-68226934D01*
X129301886Y-68345814D01*
X129301885Y-68345817D01*
X129283286Y-68475179D01*
X119251211Y-68475179D01*
X119202842Y-68396247D01*
X119202842Y-68396246D01*
X118573673Y-69025414D01*
X118562552Y-68991184D01*
X118474554Y-68852521D01*
X118354837Y-68740100D01*
X118216577Y-68664090D01*
X118843632Y-68037036D01*
X118656476Y-67922348D01*
X118437172Y-67831510D01*
X118206370Y-67776099D01*
X118206366Y-67776098D01*
X117969744Y-67757477D01*
X117969736Y-67757477D01*
X117733113Y-67776098D01*
X117733109Y-67776099D01*
X117502307Y-67831510D01*
X117283003Y-67922348D01*
X117095847Y-68037036D01*
X117095846Y-68037036D01*
X117726258Y-68667448D01*
X117654111Y-68696014D01*
X117521248Y-68792545D01*
X117416565Y-68919085D01*
X117366297Y-69025907D01*
X116736636Y-68396246D01*
X116736636Y-68396247D01*
X116621948Y-68583403D01*
X116531110Y-68802707D01*
X116475699Y-69033509D01*
X116475698Y-69033513D01*
X116457077Y-69270135D01*
X116457077Y-69270144D01*
X114453456Y-69270144D01*
X114508369Y-69137572D01*
X114563780Y-68906770D01*
X114563781Y-68906766D01*
X114582403Y-68670144D01*
X114582403Y-68670135D01*
X114563781Y-68433513D01*
X114563780Y-68433509D01*
X114508369Y-68202707D01*
X114417531Y-67983403D01*
X114302842Y-67796247D01*
X114302841Y-67796246D01*
X113673673Y-68425413D01*
X113662552Y-68391184D01*
X113574554Y-68252521D01*
X113454837Y-68140100D01*
X113316577Y-68064090D01*
X113943632Y-67437036D01*
X113756476Y-67322348D01*
X113537172Y-67231510D01*
X113306370Y-67176099D01*
X113306366Y-67176098D01*
X113069744Y-67157477D01*
X113069736Y-67157477D01*
X112833113Y-67176098D01*
X112833109Y-67176099D01*
X112602307Y-67231510D01*
X112383003Y-67322348D01*
X112195847Y-67437036D01*
X112195846Y-67437036D01*
X112826258Y-68067448D01*
X112754111Y-68096014D01*
X112621248Y-68192545D01*
X112516565Y-68319085D01*
X112466297Y-68425907D01*
X111836636Y-67796246D01*
X111836636Y-67796247D01*
X111721948Y-67983403D01*
X111631110Y-68202707D01*
X111575699Y-68433509D01*
X111575698Y-68433513D01*
X111557077Y-68670135D01*
X111557077Y-68670144D01*
X110575500Y-68670144D01*
X110575500Y-66063000D01*
X110593806Y-66018806D01*
X110638000Y-66000500D01*
X128778198Y-66000500D01*
X128822392Y-66018806D01*
G37*
G04 #@! TD.AperFunction*
G04 #@! TA.AperFunction,Conductor*
G36*
X145844507Y-84880156D02*
G01*
X145804000Y-85018111D01*
X145804000Y-85161889D01*
X145844507Y-85299844D01*
X145872884Y-85344000D01*
X144195116Y-85344000D01*
X144223493Y-85299844D01*
X144264000Y-85161889D01*
X144264000Y-85018111D01*
X144223493Y-84880156D01*
X144195116Y-84836000D01*
X145872884Y-84836000D01*
X145844507Y-84880156D01*
G37*
G04 #@! TD.AperFunction*
M02*
