G04 #@! TF.GenerationSoftware,KiCad,Pcbnew,7.0.6+dfsg-1*
G04 #@! TF.CreationDate,2023-08-23T13:02:18+02:00*
G04 #@! TF.ProjectId,GPDI_ULX3S,47504449-5f55-44c5-9833-532e6b696361,1.6*
G04 #@! TF.SameCoordinates,Original*
G04 #@! TF.FileFunction,OtherDrawing,Comment*
%FSLAX46Y46*%
G04 Gerber Fmt 4.6, Leading zero omitted, Abs format (unit mm)*
G04 Created by KiCad (PCBNEW 7.0.6+dfsg-1) date 2023-08-23 13:02:18*
%MOMM*%
%LPD*%
G01*
G04 APERTURE LIST*
%ADD10C,0.150000*%
G04 APERTURE END LIST*
D10*
X100350058Y-82019046D02*
X100302439Y-81971427D01*
X100302439Y-81971427D02*
X100254820Y-81876189D01*
X100254820Y-81876189D02*
X100254820Y-81638094D01*
X100254820Y-81638094D02*
X100302439Y-81542856D01*
X100302439Y-81542856D02*
X100350058Y-81495237D01*
X100350058Y-81495237D02*
X100445296Y-81447618D01*
X100445296Y-81447618D02*
X100540534Y-81447618D01*
X100540534Y-81447618D02*
X100683391Y-81495237D01*
X100683391Y-81495237D02*
X101254820Y-82066665D01*
X101254820Y-82066665D02*
X101254820Y-81447618D01*
X100254820Y-81114284D02*
X100254820Y-80495237D01*
X100254820Y-80495237D02*
X100635772Y-80828570D01*
X100635772Y-80828570D02*
X100635772Y-80685713D01*
X100635772Y-80685713D02*
X100683391Y-80590475D01*
X100683391Y-80590475D02*
X100731010Y-80542856D01*
X100731010Y-80542856D02*
X100826248Y-80495237D01*
X100826248Y-80495237D02*
X101064343Y-80495237D01*
X101064343Y-80495237D02*
X101159581Y-80542856D01*
X101159581Y-80542856D02*
X101207201Y-80590475D01*
X101207201Y-80590475D02*
X101254820Y-80685713D01*
X101254820Y-80685713D02*
X101254820Y-80971427D01*
X101254820Y-80971427D02*
X101207201Y-81066665D01*
X101207201Y-81066665D02*
X101159581Y-81114284D01*
X101159581Y-80066665D02*
X101207201Y-80019046D01*
X101207201Y-80019046D02*
X101254820Y-80066665D01*
X101254820Y-80066665D02*
X101207201Y-80114284D01*
X101207201Y-80114284D02*
X101159581Y-80066665D01*
X101159581Y-80066665D02*
X101254820Y-80066665D01*
X100254820Y-79399999D02*
X100254820Y-79304761D01*
X100254820Y-79304761D02*
X100302439Y-79209523D01*
X100302439Y-79209523D02*
X100350058Y-79161904D01*
X100350058Y-79161904D02*
X100445296Y-79114285D01*
X100445296Y-79114285D02*
X100635772Y-79066666D01*
X100635772Y-79066666D02*
X100873867Y-79066666D01*
X100873867Y-79066666D02*
X101064343Y-79114285D01*
X101064343Y-79114285D02*
X101159581Y-79161904D01*
X101159581Y-79161904D02*
X101207201Y-79209523D01*
X101207201Y-79209523D02*
X101254820Y-79304761D01*
X101254820Y-79304761D02*
X101254820Y-79399999D01*
X101254820Y-79399999D02*
X101207201Y-79495237D01*
X101207201Y-79495237D02*
X101159581Y-79542856D01*
X101159581Y-79542856D02*
X101064343Y-79590475D01*
X101064343Y-79590475D02*
X100873867Y-79638094D01*
X100873867Y-79638094D02*
X100635772Y-79638094D01*
X100635772Y-79638094D02*
X100445296Y-79590475D01*
X100445296Y-79590475D02*
X100350058Y-79542856D01*
X100350058Y-79542856D02*
X100302439Y-79495237D01*
X100302439Y-79495237D02*
X100254820Y-79399999D01*
X100254820Y-78447618D02*
X100254820Y-78352380D01*
X100254820Y-78352380D02*
X100302439Y-78257142D01*
X100302439Y-78257142D02*
X100350058Y-78209523D01*
X100350058Y-78209523D02*
X100445296Y-78161904D01*
X100445296Y-78161904D02*
X100635772Y-78114285D01*
X100635772Y-78114285D02*
X100873867Y-78114285D01*
X100873867Y-78114285D02*
X101064343Y-78161904D01*
X101064343Y-78161904D02*
X101159581Y-78209523D01*
X101159581Y-78209523D02*
X101207201Y-78257142D01*
X101207201Y-78257142D02*
X101254820Y-78352380D01*
X101254820Y-78352380D02*
X101254820Y-78447618D01*
X101254820Y-78447618D02*
X101207201Y-78542856D01*
X101207201Y-78542856D02*
X101159581Y-78590475D01*
X101159581Y-78590475D02*
X101064343Y-78638094D01*
X101064343Y-78638094D02*
X100873867Y-78685713D01*
X100873867Y-78685713D02*
X100635772Y-78685713D01*
X100635772Y-78685713D02*
X100445296Y-78638094D01*
X100445296Y-78638094D02*
X100350058Y-78590475D01*
X100350058Y-78590475D02*
X100302439Y-78542856D01*
X100302439Y-78542856D02*
X100254820Y-78447618D01*
X100254820Y-77495237D02*
X100254820Y-77399999D01*
X100254820Y-77399999D02*
X100302439Y-77304761D01*
X100302439Y-77304761D02*
X100350058Y-77257142D01*
X100350058Y-77257142D02*
X100445296Y-77209523D01*
X100445296Y-77209523D02*
X100635772Y-77161904D01*
X100635772Y-77161904D02*
X100873867Y-77161904D01*
X100873867Y-77161904D02*
X101064343Y-77209523D01*
X101064343Y-77209523D02*
X101159581Y-77257142D01*
X101159581Y-77257142D02*
X101207201Y-77304761D01*
X101207201Y-77304761D02*
X101254820Y-77399999D01*
X101254820Y-77399999D02*
X101254820Y-77495237D01*
X101254820Y-77495237D02*
X101207201Y-77590475D01*
X101207201Y-77590475D02*
X101159581Y-77638094D01*
X101159581Y-77638094D02*
X101064343Y-77685713D01*
X101064343Y-77685713D02*
X100873867Y-77733332D01*
X100873867Y-77733332D02*
X100635772Y-77733332D01*
X100635772Y-77733332D02*
X100445296Y-77685713D01*
X100445296Y-77685713D02*
X100350058Y-77638094D01*
X100350058Y-77638094D02*
X100302439Y-77590475D01*
X100302439Y-77590475D02*
X100254820Y-77495237D01*
X100254820Y-76542856D02*
X100254820Y-76447618D01*
X100254820Y-76447618D02*
X100302439Y-76352380D01*
X100302439Y-76352380D02*
X100350058Y-76304761D01*
X100350058Y-76304761D02*
X100445296Y-76257142D01*
X100445296Y-76257142D02*
X100635772Y-76209523D01*
X100635772Y-76209523D02*
X100873867Y-76209523D01*
X100873867Y-76209523D02*
X101064343Y-76257142D01*
X101064343Y-76257142D02*
X101159581Y-76304761D01*
X101159581Y-76304761D02*
X101207201Y-76352380D01*
X101207201Y-76352380D02*
X101254820Y-76447618D01*
X101254820Y-76447618D02*
X101254820Y-76542856D01*
X101254820Y-76542856D02*
X101207201Y-76638094D01*
X101207201Y-76638094D02*
X101159581Y-76685713D01*
X101159581Y-76685713D02*
X101064343Y-76733332D01*
X101064343Y-76733332D02*
X100873867Y-76780951D01*
X100873867Y-76780951D02*
X100635772Y-76780951D01*
X100635772Y-76780951D02*
X100445296Y-76733332D01*
X100445296Y-76733332D02*
X100350058Y-76685713D01*
X100350058Y-76685713D02*
X100302439Y-76638094D01*
X100302439Y-76638094D02*
X100254820Y-76542856D01*
X101254820Y-75019046D02*
X100588153Y-75019046D01*
X100683391Y-75019046D02*
X100635772Y-74971427D01*
X100635772Y-74971427D02*
X100588153Y-74876189D01*
X100588153Y-74876189D02*
X100588153Y-74733332D01*
X100588153Y-74733332D02*
X100635772Y-74638094D01*
X100635772Y-74638094D02*
X100731010Y-74590475D01*
X100731010Y-74590475D02*
X101254820Y-74590475D01*
X100731010Y-74590475D02*
X100635772Y-74542856D01*
X100635772Y-74542856D02*
X100588153Y-74447618D01*
X100588153Y-74447618D02*
X100588153Y-74304761D01*
X100588153Y-74304761D02*
X100635772Y-74209522D01*
X100635772Y-74209522D02*
X100731010Y-74161903D01*
X100731010Y-74161903D02*
X101254820Y-74161903D01*
X101254820Y-73685713D02*
X100588153Y-73685713D01*
X100683391Y-73685713D02*
X100635772Y-73638094D01*
X100635772Y-73638094D02*
X100588153Y-73542856D01*
X100588153Y-73542856D02*
X100588153Y-73399999D01*
X100588153Y-73399999D02*
X100635772Y-73304761D01*
X100635772Y-73304761D02*
X100731010Y-73257142D01*
X100731010Y-73257142D02*
X101254820Y-73257142D01*
X100731010Y-73257142D02*
X100635772Y-73209523D01*
X100635772Y-73209523D02*
X100588153Y-73114285D01*
X100588153Y-73114285D02*
X100588153Y-72971428D01*
X100588153Y-72971428D02*
X100635772Y-72876189D01*
X100635772Y-72876189D02*
X100731010Y-72828570D01*
X100731010Y-72828570D02*
X101254820Y-72828570D01*
X108300000Y-88900000D02*
X101363581Y-88900000D01*
X108300000Y-65900000D02*
X101363581Y-65900000D01*
X101950001Y-88900000D02*
X101950001Y-65900000D01*
X101950001Y-88900000D02*
X101950001Y-65900000D01*
X101950001Y-88900000D02*
X101363580Y-87773496D01*
X101950001Y-88900000D02*
X102536422Y-87773496D01*
X101950001Y-65900000D02*
X102536422Y-67026504D01*
X101950001Y-65900000D02*
X101363580Y-67026504D01*
X126357143Y-57688152D02*
X126357143Y-58354819D01*
X126119048Y-57307200D02*
X125880953Y-58021485D01*
X125880953Y-58021485D02*
X126500000Y-58021485D01*
X127071429Y-57354819D02*
X127166667Y-57354819D01*
X127166667Y-57354819D02*
X127261905Y-57402438D01*
X127261905Y-57402438D02*
X127309524Y-57450057D01*
X127309524Y-57450057D02*
X127357143Y-57545295D01*
X127357143Y-57545295D02*
X127404762Y-57735771D01*
X127404762Y-57735771D02*
X127404762Y-57973866D01*
X127404762Y-57973866D02*
X127357143Y-58164342D01*
X127357143Y-58164342D02*
X127309524Y-58259580D01*
X127309524Y-58259580D02*
X127261905Y-58307200D01*
X127261905Y-58307200D02*
X127166667Y-58354819D01*
X127166667Y-58354819D02*
X127071429Y-58354819D01*
X127071429Y-58354819D02*
X126976191Y-58307200D01*
X126976191Y-58307200D02*
X126928572Y-58259580D01*
X126928572Y-58259580D02*
X126880953Y-58164342D01*
X126880953Y-58164342D02*
X126833334Y-57973866D01*
X126833334Y-57973866D02*
X126833334Y-57735771D01*
X126833334Y-57735771D02*
X126880953Y-57545295D01*
X126880953Y-57545295D02*
X126928572Y-57450057D01*
X126928572Y-57450057D02*
X126976191Y-57402438D01*
X126976191Y-57402438D02*
X127071429Y-57354819D01*
X127833334Y-58259580D02*
X127880953Y-58307200D01*
X127880953Y-58307200D02*
X127833334Y-58354819D01*
X127833334Y-58354819D02*
X127785715Y-58307200D01*
X127785715Y-58307200D02*
X127833334Y-58259580D01*
X127833334Y-58259580D02*
X127833334Y-58354819D01*
X128500000Y-57354819D02*
X128595238Y-57354819D01*
X128595238Y-57354819D02*
X128690476Y-57402438D01*
X128690476Y-57402438D02*
X128738095Y-57450057D01*
X128738095Y-57450057D02*
X128785714Y-57545295D01*
X128785714Y-57545295D02*
X128833333Y-57735771D01*
X128833333Y-57735771D02*
X128833333Y-57973866D01*
X128833333Y-57973866D02*
X128785714Y-58164342D01*
X128785714Y-58164342D02*
X128738095Y-58259580D01*
X128738095Y-58259580D02*
X128690476Y-58307200D01*
X128690476Y-58307200D02*
X128595238Y-58354819D01*
X128595238Y-58354819D02*
X128500000Y-58354819D01*
X128500000Y-58354819D02*
X128404762Y-58307200D01*
X128404762Y-58307200D02*
X128357143Y-58259580D01*
X128357143Y-58259580D02*
X128309524Y-58164342D01*
X128309524Y-58164342D02*
X128261905Y-57973866D01*
X128261905Y-57973866D02*
X128261905Y-57735771D01*
X128261905Y-57735771D02*
X128309524Y-57545295D01*
X128309524Y-57545295D02*
X128357143Y-57450057D01*
X128357143Y-57450057D02*
X128404762Y-57402438D01*
X128404762Y-57402438D02*
X128500000Y-57354819D01*
X129452381Y-57354819D02*
X129547619Y-57354819D01*
X129547619Y-57354819D02*
X129642857Y-57402438D01*
X129642857Y-57402438D02*
X129690476Y-57450057D01*
X129690476Y-57450057D02*
X129738095Y-57545295D01*
X129738095Y-57545295D02*
X129785714Y-57735771D01*
X129785714Y-57735771D02*
X129785714Y-57973866D01*
X129785714Y-57973866D02*
X129738095Y-58164342D01*
X129738095Y-58164342D02*
X129690476Y-58259580D01*
X129690476Y-58259580D02*
X129642857Y-58307200D01*
X129642857Y-58307200D02*
X129547619Y-58354819D01*
X129547619Y-58354819D02*
X129452381Y-58354819D01*
X129452381Y-58354819D02*
X129357143Y-58307200D01*
X129357143Y-58307200D02*
X129309524Y-58259580D01*
X129309524Y-58259580D02*
X129261905Y-58164342D01*
X129261905Y-58164342D02*
X129214286Y-57973866D01*
X129214286Y-57973866D02*
X129214286Y-57735771D01*
X129214286Y-57735771D02*
X129261905Y-57545295D01*
X129261905Y-57545295D02*
X129309524Y-57450057D01*
X129309524Y-57450057D02*
X129357143Y-57402438D01*
X129357143Y-57402438D02*
X129452381Y-57354819D01*
X130404762Y-57354819D02*
X130500000Y-57354819D01*
X130500000Y-57354819D02*
X130595238Y-57402438D01*
X130595238Y-57402438D02*
X130642857Y-57450057D01*
X130642857Y-57450057D02*
X130690476Y-57545295D01*
X130690476Y-57545295D02*
X130738095Y-57735771D01*
X130738095Y-57735771D02*
X130738095Y-57973866D01*
X130738095Y-57973866D02*
X130690476Y-58164342D01*
X130690476Y-58164342D02*
X130642857Y-58259580D01*
X130642857Y-58259580D02*
X130595238Y-58307200D01*
X130595238Y-58307200D02*
X130500000Y-58354819D01*
X130500000Y-58354819D02*
X130404762Y-58354819D01*
X130404762Y-58354819D02*
X130309524Y-58307200D01*
X130309524Y-58307200D02*
X130261905Y-58259580D01*
X130261905Y-58259580D02*
X130214286Y-58164342D01*
X130214286Y-58164342D02*
X130166667Y-57973866D01*
X130166667Y-57973866D02*
X130166667Y-57735771D01*
X130166667Y-57735771D02*
X130214286Y-57545295D01*
X130214286Y-57545295D02*
X130261905Y-57450057D01*
X130261905Y-57450057D02*
X130309524Y-57402438D01*
X130309524Y-57402438D02*
X130404762Y-57354819D01*
X131357143Y-57354819D02*
X131452381Y-57354819D01*
X131452381Y-57354819D02*
X131547619Y-57402438D01*
X131547619Y-57402438D02*
X131595238Y-57450057D01*
X131595238Y-57450057D02*
X131642857Y-57545295D01*
X131642857Y-57545295D02*
X131690476Y-57735771D01*
X131690476Y-57735771D02*
X131690476Y-57973866D01*
X131690476Y-57973866D02*
X131642857Y-58164342D01*
X131642857Y-58164342D02*
X131595238Y-58259580D01*
X131595238Y-58259580D02*
X131547619Y-58307200D01*
X131547619Y-58307200D02*
X131452381Y-58354819D01*
X131452381Y-58354819D02*
X131357143Y-58354819D01*
X131357143Y-58354819D02*
X131261905Y-58307200D01*
X131261905Y-58307200D02*
X131214286Y-58259580D01*
X131214286Y-58259580D02*
X131166667Y-58164342D01*
X131166667Y-58164342D02*
X131119048Y-57973866D01*
X131119048Y-57973866D02*
X131119048Y-57735771D01*
X131119048Y-57735771D02*
X131166667Y-57545295D01*
X131166667Y-57545295D02*
X131214286Y-57450057D01*
X131214286Y-57450057D02*
X131261905Y-57402438D01*
X131261905Y-57402438D02*
X131357143Y-57354819D01*
X132880953Y-58354819D02*
X132880953Y-57688152D01*
X132880953Y-57783390D02*
X132928572Y-57735771D01*
X132928572Y-57735771D02*
X133023810Y-57688152D01*
X133023810Y-57688152D02*
X133166667Y-57688152D01*
X133166667Y-57688152D02*
X133261905Y-57735771D01*
X133261905Y-57735771D02*
X133309524Y-57831009D01*
X133309524Y-57831009D02*
X133309524Y-58354819D01*
X133309524Y-57831009D02*
X133357143Y-57735771D01*
X133357143Y-57735771D02*
X133452381Y-57688152D01*
X133452381Y-57688152D02*
X133595238Y-57688152D01*
X133595238Y-57688152D02*
X133690477Y-57735771D01*
X133690477Y-57735771D02*
X133738096Y-57831009D01*
X133738096Y-57831009D02*
X133738096Y-58354819D01*
X134214286Y-58354819D02*
X134214286Y-57688152D01*
X134214286Y-57783390D02*
X134261905Y-57735771D01*
X134261905Y-57735771D02*
X134357143Y-57688152D01*
X134357143Y-57688152D02*
X134500000Y-57688152D01*
X134500000Y-57688152D02*
X134595238Y-57735771D01*
X134595238Y-57735771D02*
X134642857Y-57831009D01*
X134642857Y-57831009D02*
X134642857Y-58354819D01*
X134642857Y-57831009D02*
X134690476Y-57735771D01*
X134690476Y-57735771D02*
X134785714Y-57688152D01*
X134785714Y-57688152D02*
X134928571Y-57688152D01*
X134928571Y-57688152D02*
X135023810Y-57735771D01*
X135023810Y-57735771D02*
X135071429Y-57831009D01*
X135071429Y-57831009D02*
X135071429Y-58354819D01*
X110500000Y-62300000D02*
X110500000Y-58463580D01*
X150500000Y-62300000D02*
X150500000Y-58463580D01*
X110500000Y-59050000D02*
X150500000Y-59050000D01*
X110500000Y-59050000D02*
X150500000Y-59050000D01*
X110500000Y-59050000D02*
X111626504Y-58463579D01*
X110500000Y-59050000D02*
X111626504Y-59636421D01*
X150500000Y-59050000D02*
X149373496Y-59636421D01*
X150500000Y-59050000D02*
X149373496Y-58463579D01*
X135880953Y-60700057D02*
X135928572Y-60652438D01*
X135928572Y-60652438D02*
X136023810Y-60604819D01*
X136023810Y-60604819D02*
X136261905Y-60604819D01*
X136261905Y-60604819D02*
X136357143Y-60652438D01*
X136357143Y-60652438D02*
X136404762Y-60700057D01*
X136404762Y-60700057D02*
X136452381Y-60795295D01*
X136452381Y-60795295D02*
X136452381Y-60890533D01*
X136452381Y-60890533D02*
X136404762Y-61033390D01*
X136404762Y-61033390D02*
X135833334Y-61604819D01*
X135833334Y-61604819D02*
X136452381Y-61604819D01*
X137071429Y-60604819D02*
X137166667Y-60604819D01*
X137166667Y-60604819D02*
X137261905Y-60652438D01*
X137261905Y-60652438D02*
X137309524Y-60700057D01*
X137309524Y-60700057D02*
X137357143Y-60795295D01*
X137357143Y-60795295D02*
X137404762Y-60985771D01*
X137404762Y-60985771D02*
X137404762Y-61223866D01*
X137404762Y-61223866D02*
X137357143Y-61414342D01*
X137357143Y-61414342D02*
X137309524Y-61509580D01*
X137309524Y-61509580D02*
X137261905Y-61557200D01*
X137261905Y-61557200D02*
X137166667Y-61604819D01*
X137166667Y-61604819D02*
X137071429Y-61604819D01*
X137071429Y-61604819D02*
X136976191Y-61557200D01*
X136976191Y-61557200D02*
X136928572Y-61509580D01*
X136928572Y-61509580D02*
X136880953Y-61414342D01*
X136880953Y-61414342D02*
X136833334Y-61223866D01*
X136833334Y-61223866D02*
X136833334Y-60985771D01*
X136833334Y-60985771D02*
X136880953Y-60795295D01*
X136880953Y-60795295D02*
X136928572Y-60700057D01*
X136928572Y-60700057D02*
X136976191Y-60652438D01*
X136976191Y-60652438D02*
X137071429Y-60604819D01*
X137833334Y-61509580D02*
X137880953Y-61557200D01*
X137880953Y-61557200D02*
X137833334Y-61604819D01*
X137833334Y-61604819D02*
X137785715Y-61557200D01*
X137785715Y-61557200D02*
X137833334Y-61509580D01*
X137833334Y-61509580D02*
X137833334Y-61604819D01*
X138500000Y-60604819D02*
X138595238Y-60604819D01*
X138595238Y-60604819D02*
X138690476Y-60652438D01*
X138690476Y-60652438D02*
X138738095Y-60700057D01*
X138738095Y-60700057D02*
X138785714Y-60795295D01*
X138785714Y-60795295D02*
X138833333Y-60985771D01*
X138833333Y-60985771D02*
X138833333Y-61223866D01*
X138833333Y-61223866D02*
X138785714Y-61414342D01*
X138785714Y-61414342D02*
X138738095Y-61509580D01*
X138738095Y-61509580D02*
X138690476Y-61557200D01*
X138690476Y-61557200D02*
X138595238Y-61604819D01*
X138595238Y-61604819D02*
X138500000Y-61604819D01*
X138500000Y-61604819D02*
X138404762Y-61557200D01*
X138404762Y-61557200D02*
X138357143Y-61509580D01*
X138357143Y-61509580D02*
X138309524Y-61414342D01*
X138309524Y-61414342D02*
X138261905Y-61223866D01*
X138261905Y-61223866D02*
X138261905Y-60985771D01*
X138261905Y-60985771D02*
X138309524Y-60795295D01*
X138309524Y-60795295D02*
X138357143Y-60700057D01*
X138357143Y-60700057D02*
X138404762Y-60652438D01*
X138404762Y-60652438D02*
X138500000Y-60604819D01*
X139452381Y-60604819D02*
X139547619Y-60604819D01*
X139547619Y-60604819D02*
X139642857Y-60652438D01*
X139642857Y-60652438D02*
X139690476Y-60700057D01*
X139690476Y-60700057D02*
X139738095Y-60795295D01*
X139738095Y-60795295D02*
X139785714Y-60985771D01*
X139785714Y-60985771D02*
X139785714Y-61223866D01*
X139785714Y-61223866D02*
X139738095Y-61414342D01*
X139738095Y-61414342D02*
X139690476Y-61509580D01*
X139690476Y-61509580D02*
X139642857Y-61557200D01*
X139642857Y-61557200D02*
X139547619Y-61604819D01*
X139547619Y-61604819D02*
X139452381Y-61604819D01*
X139452381Y-61604819D02*
X139357143Y-61557200D01*
X139357143Y-61557200D02*
X139309524Y-61509580D01*
X139309524Y-61509580D02*
X139261905Y-61414342D01*
X139261905Y-61414342D02*
X139214286Y-61223866D01*
X139214286Y-61223866D02*
X139214286Y-60985771D01*
X139214286Y-60985771D02*
X139261905Y-60795295D01*
X139261905Y-60795295D02*
X139309524Y-60700057D01*
X139309524Y-60700057D02*
X139357143Y-60652438D01*
X139357143Y-60652438D02*
X139452381Y-60604819D01*
X140404762Y-60604819D02*
X140500000Y-60604819D01*
X140500000Y-60604819D02*
X140595238Y-60652438D01*
X140595238Y-60652438D02*
X140642857Y-60700057D01*
X140642857Y-60700057D02*
X140690476Y-60795295D01*
X140690476Y-60795295D02*
X140738095Y-60985771D01*
X140738095Y-60985771D02*
X140738095Y-61223866D01*
X140738095Y-61223866D02*
X140690476Y-61414342D01*
X140690476Y-61414342D02*
X140642857Y-61509580D01*
X140642857Y-61509580D02*
X140595238Y-61557200D01*
X140595238Y-61557200D02*
X140500000Y-61604819D01*
X140500000Y-61604819D02*
X140404762Y-61604819D01*
X140404762Y-61604819D02*
X140309524Y-61557200D01*
X140309524Y-61557200D02*
X140261905Y-61509580D01*
X140261905Y-61509580D02*
X140214286Y-61414342D01*
X140214286Y-61414342D02*
X140166667Y-61223866D01*
X140166667Y-61223866D02*
X140166667Y-60985771D01*
X140166667Y-60985771D02*
X140214286Y-60795295D01*
X140214286Y-60795295D02*
X140261905Y-60700057D01*
X140261905Y-60700057D02*
X140309524Y-60652438D01*
X140309524Y-60652438D02*
X140404762Y-60604819D01*
X141357143Y-60604819D02*
X141452381Y-60604819D01*
X141452381Y-60604819D02*
X141547619Y-60652438D01*
X141547619Y-60652438D02*
X141595238Y-60700057D01*
X141595238Y-60700057D02*
X141642857Y-60795295D01*
X141642857Y-60795295D02*
X141690476Y-60985771D01*
X141690476Y-60985771D02*
X141690476Y-61223866D01*
X141690476Y-61223866D02*
X141642857Y-61414342D01*
X141642857Y-61414342D02*
X141595238Y-61509580D01*
X141595238Y-61509580D02*
X141547619Y-61557200D01*
X141547619Y-61557200D02*
X141452381Y-61604819D01*
X141452381Y-61604819D02*
X141357143Y-61604819D01*
X141357143Y-61604819D02*
X141261905Y-61557200D01*
X141261905Y-61557200D02*
X141214286Y-61509580D01*
X141214286Y-61509580D02*
X141166667Y-61414342D01*
X141166667Y-61414342D02*
X141119048Y-61223866D01*
X141119048Y-61223866D02*
X141119048Y-60985771D01*
X141119048Y-60985771D02*
X141166667Y-60795295D01*
X141166667Y-60795295D02*
X141214286Y-60700057D01*
X141214286Y-60700057D02*
X141261905Y-60652438D01*
X141261905Y-60652438D02*
X141357143Y-60604819D01*
X142880953Y-61604819D02*
X142880953Y-60938152D01*
X142880953Y-61033390D02*
X142928572Y-60985771D01*
X142928572Y-60985771D02*
X143023810Y-60938152D01*
X143023810Y-60938152D02*
X143166667Y-60938152D01*
X143166667Y-60938152D02*
X143261905Y-60985771D01*
X143261905Y-60985771D02*
X143309524Y-61081009D01*
X143309524Y-61081009D02*
X143309524Y-61604819D01*
X143309524Y-61081009D02*
X143357143Y-60985771D01*
X143357143Y-60985771D02*
X143452381Y-60938152D01*
X143452381Y-60938152D02*
X143595238Y-60938152D01*
X143595238Y-60938152D02*
X143690477Y-60985771D01*
X143690477Y-60985771D02*
X143738096Y-61081009D01*
X143738096Y-61081009D02*
X143738096Y-61604819D01*
X144214286Y-61604819D02*
X144214286Y-60938152D01*
X144214286Y-61033390D02*
X144261905Y-60985771D01*
X144261905Y-60985771D02*
X144357143Y-60938152D01*
X144357143Y-60938152D02*
X144500000Y-60938152D01*
X144500000Y-60938152D02*
X144595238Y-60985771D01*
X144595238Y-60985771D02*
X144642857Y-61081009D01*
X144642857Y-61081009D02*
X144642857Y-61604819D01*
X144642857Y-61081009D02*
X144690476Y-60985771D01*
X144690476Y-60985771D02*
X144785714Y-60938152D01*
X144785714Y-60938152D02*
X144928571Y-60938152D01*
X144928571Y-60938152D02*
X145023810Y-60985771D01*
X145023810Y-60985771D02*
X145071429Y-61081009D01*
X145071429Y-61081009D02*
X145071429Y-61604819D01*
X130500000Y-61800000D02*
X130500000Y-62886420D01*
X150500000Y-61800000D02*
X150500000Y-62886420D01*
X130500000Y-62300000D02*
X150500000Y-62300000D01*
X130500000Y-62300000D02*
X150500000Y-62300000D01*
X130500000Y-62300000D02*
X131626504Y-61713579D01*
X130500000Y-62300000D02*
X131626504Y-62886421D01*
X150500000Y-62300000D02*
X149373496Y-62886421D01*
X150500000Y-62300000D02*
X149373496Y-61713579D01*
M02*
