G04 #@! TF.GenerationSoftware,KiCad,Pcbnew,7.0.6+dfsg-1*
G04 #@! TF.CreationDate,2023-08-23T13:02:17+02:00*
G04 #@! TF.ProjectId,GPDI_ULX3S,47504449-5f55-44c5-9833-532e6b696361,1.6*
G04 #@! TF.SameCoordinates,Original*
G04 #@! TF.FileFunction,Copper,L1,Top*
G04 #@! TF.FilePolarity,Positive*
%FSLAX46Y46*%
G04 Gerber Fmt 4.6, Leading zero omitted, Abs format (unit mm)*
G04 Created by KiCad (PCBNEW 7.0.6+dfsg-1) date 2023-08-23 13:02:17*
%MOMM*%
%LPD*%
G01*
G04 APERTURE LIST*
G04 Aperture macros list*
%AMRoundRect*
0 Rectangle with rounded corners*
0 $1 Rounding radius*
0 $2 $3 $4 $5 $6 $7 $8 $9 X,Y pos of 4 corners*
0 Add a 4 corners polygon primitive as box body*
4,1,4,$2,$3,$4,$5,$6,$7,$8,$9,$2,$3,0*
0 Add four circle primitives for the rounded corners*
1,1,$1+$1,$2,$3*
1,1,$1+$1,$4,$5*
1,1,$1+$1,$6,$7*
1,1,$1+$1,$8,$9*
0 Add four rect primitives between the rounded corners*
20,1,$1+$1,$2,$3,$4,$5,0*
20,1,$1+$1,$4,$5,$6,$7,0*
20,1,$1+$1,$6,$7,$8,$9,0*
20,1,$1+$1,$8,$9,$2,$3,0*%
G04 Aperture macros list end*
G04 #@! TA.AperFunction,SMDPad,CuDef*
%ADD10R,1.100000X0.450000*%
G04 #@! TD*
G04 #@! TA.AperFunction,SMDPad,CuDef*
%ADD11RoundRect,0.225000X-0.225000X-0.375000X0.225000X-0.375000X0.225000X0.375000X-0.225000X0.375000X0*%
G04 #@! TD*
G04 #@! TA.AperFunction,SMDPad,CuDef*
%ADD12RoundRect,0.249999X0.450001X0.425001X-0.450001X0.425001X-0.450001X-0.425001X0.450001X-0.425001X0*%
G04 #@! TD*
G04 #@! TA.AperFunction,SMDPad,CuDef*
%ADD13RoundRect,0.249999X0.425001X-0.450001X0.425001X0.450001X-0.425001X0.450001X-0.425001X-0.450001X0*%
G04 #@! TD*
G04 #@! TA.AperFunction,SMDPad,CuDef*
%ADD14R,0.900000X1.200000*%
G04 #@! TD*
G04 #@! TA.AperFunction,ComponentPad*
%ADD15R,1.700000X1.700000*%
G04 #@! TD*
G04 #@! TA.AperFunction,ComponentPad*
%ADD16O,1.700000X1.700000*%
G04 #@! TD*
G04 #@! TA.AperFunction,SMDPad,CuDef*
%ADD17RoundRect,0.147500X0.147500X0.172500X-0.147500X0.172500X-0.147500X-0.172500X0.147500X-0.172500X0*%
G04 #@! TD*
G04 #@! TA.AperFunction,SMDPad,CuDef*
%ADD18RoundRect,0.147500X0.172500X-0.147500X0.172500X0.147500X-0.172500X0.147500X-0.172500X-0.147500X0*%
G04 #@! TD*
G04 #@! TA.AperFunction,SMDPad,CuDef*
%ADD19R,0.450000X0.600000*%
G04 #@! TD*
G04 #@! TA.AperFunction,SMDPad,CuDef*
%ADD20RoundRect,0.250000X-0.375000X-1.075000X0.375000X-1.075000X0.375000X1.075000X-0.375000X1.075000X0*%
G04 #@! TD*
G04 #@! TA.AperFunction,SMDPad,CuDef*
%ADD21RoundRect,0.147500X-0.172500X0.147500X-0.172500X-0.147500X0.172500X-0.147500X0.172500X0.147500X0*%
G04 #@! TD*
G04 #@! TA.AperFunction,SMDPad,CuDef*
%ADD22RoundRect,0.147500X-0.147500X-0.172500X0.147500X-0.172500X0.147500X0.172500X-0.147500X0.172500X0*%
G04 #@! TD*
G04 #@! TA.AperFunction,SMDPad,CuDef*
%ADD23R,1.060000X0.650000*%
G04 #@! TD*
G04 #@! TA.AperFunction,SMDPad,CuDef*
%ADD24RoundRect,0.237500X-0.287500X-0.237500X0.287500X-0.237500X0.287500X0.237500X-0.287500X0.237500X0*%
G04 #@! TD*
G04 #@! TA.AperFunction,ComponentPad*
%ADD25C,2.000000*%
G04 #@! TD*
G04 #@! TA.AperFunction,SMDPad,CuDef*
%ADD26R,1.900000X0.300000*%
G04 #@! TD*
G04 #@! TA.AperFunction,ViaPad*
%ADD27C,0.400000*%
G04 #@! TD*
G04 #@! TA.AperFunction,Conductor*
%ADD28C,0.127000*%
G04 #@! TD*
G04 #@! TA.AperFunction,Conductor*
%ADD29C,0.200000*%
G04 #@! TD*
G04 #@! TA.AperFunction,Conductor*
%ADD30C,0.150000*%
G04 #@! TD*
G04 APERTURE END LIST*
D10*
X135042460Y-72040180D03*
X135042460Y-71390180D03*
X135042460Y-70740180D03*
X135042460Y-70090180D03*
X138942460Y-70090180D03*
X138942460Y-70740180D03*
X138942460Y-71390180D03*
X138942460Y-72040180D03*
D11*
X130812460Y-85145180D03*
X127512460Y-85145180D03*
D12*
X136119960Y-86595180D03*
X133419960Y-86595180D03*
D13*
X134622460Y-83595180D03*
X134622460Y-80895180D03*
D14*
X136875000Y-80375000D03*
X140175000Y-80375000D03*
D15*
X143764000Y-67310000D03*
D16*
X146304000Y-67310000D03*
X143764000Y-69850000D03*
X146304000Y-69850000D03*
X143764000Y-72390000D03*
X146304000Y-72390000D03*
X143764000Y-74930000D03*
X146304000Y-74930000D03*
X143764000Y-77470000D03*
X146304000Y-77470000D03*
X143764000Y-80010000D03*
X146304000Y-80010000D03*
X143764000Y-82550000D03*
X146304000Y-82550000D03*
X143764000Y-85090000D03*
X146304000Y-85090000D03*
X143764000Y-87630000D03*
X146304000Y-87630000D03*
D17*
X129640000Y-82445000D03*
X128670000Y-82445000D03*
X129660000Y-80205000D03*
X128690000Y-80205000D03*
X129660000Y-77895000D03*
X128690000Y-77895000D03*
X129700000Y-75605000D03*
X128730000Y-75605000D03*
D18*
X124502460Y-85300180D03*
X124502460Y-84330180D03*
D17*
X129635000Y-81395000D03*
X128665000Y-81395000D03*
X129655000Y-79125000D03*
X128685000Y-79125000D03*
X129646000Y-76815000D03*
X128676000Y-76815000D03*
X129695000Y-74535000D03*
X128725000Y-74535000D03*
X133627460Y-70985180D03*
X132657460Y-70985180D03*
D19*
X140750000Y-82200000D03*
X140750000Y-84300000D03*
D20*
X138100000Y-87000000D03*
X140900000Y-87000000D03*
D18*
X131825000Y-68990000D03*
X131825000Y-69960000D03*
D17*
X138010000Y-68175000D03*
X137040000Y-68175000D03*
D18*
X141425000Y-70760000D03*
X141425000Y-69790000D03*
X140325000Y-70760000D03*
X140325000Y-69790000D03*
D21*
X135125000Y-67590000D03*
X135125000Y-68560000D03*
D22*
X126727460Y-82695180D03*
X127697460Y-82695180D03*
D21*
X136925760Y-74102200D03*
X136925760Y-75072200D03*
D18*
X137964620Y-75079820D03*
X137964620Y-74109820D03*
D17*
X139376720Y-77106880D03*
X138406720Y-77106880D03*
D22*
X137784420Y-76093420D03*
X138754420Y-76093420D03*
X126760000Y-78505000D03*
X127730000Y-78505000D03*
D21*
X132925260Y-75511900D03*
X132925260Y-76481900D03*
D18*
X133012460Y-81900180D03*
X133012460Y-80930180D03*
D23*
X138850000Y-82550000D03*
X138850000Y-84450000D03*
X136650000Y-84450000D03*
X136650000Y-83500000D03*
X136650000Y-82550000D03*
D22*
X126770000Y-74265000D03*
X127740000Y-74265000D03*
X126770000Y-75855000D03*
X127740000Y-75855000D03*
D18*
X125105000Y-80950000D03*
X125105000Y-79980000D03*
D22*
X126710000Y-81145000D03*
X127680000Y-81145000D03*
X132657460Y-72005180D03*
X133627460Y-72005180D03*
D17*
X131567460Y-82785180D03*
X130597460Y-82785180D03*
X129627460Y-83455180D03*
X128657460Y-83455180D03*
D18*
X131921960Y-76474280D03*
X131921960Y-75504280D03*
D21*
X133425000Y-67590000D03*
X133425000Y-68560000D03*
X123502460Y-84330180D03*
X123502460Y-85300180D03*
D24*
X139350000Y-68475000D03*
X141100000Y-68475000D03*
D22*
X126750000Y-76865000D03*
X127720000Y-76865000D03*
D21*
X125094440Y-76078320D03*
X125094440Y-77048320D03*
D25*
X113069740Y-68670140D03*
X117969740Y-69270140D03*
X117969740Y-83770140D03*
X113069740Y-84370140D03*
D26*
X118969740Y-81270140D03*
X118969740Y-80770140D03*
X118969740Y-80270140D03*
X118969740Y-79770140D03*
X118969740Y-79270140D03*
X118969740Y-78770140D03*
X118969740Y-78270140D03*
X118969740Y-77770140D03*
X118969740Y-77270140D03*
X118969740Y-76770140D03*
X118969740Y-76270140D03*
X118969740Y-75770140D03*
X118969740Y-75270140D03*
X118969740Y-74770140D03*
X118969740Y-74270140D03*
X118969740Y-73770140D03*
X118969740Y-73270140D03*
X118969740Y-72770140D03*
X118969740Y-72270140D03*
D27*
X135052460Y-72525180D03*
X139902460Y-71985180D03*
X115392460Y-80555180D03*
X115362460Y-77085180D03*
X115392460Y-73205180D03*
X141622460Y-83605180D03*
X142022460Y-81135180D03*
X138402460Y-80675180D03*
X124652460Y-70035180D03*
X121522460Y-69955180D03*
X121502460Y-85535180D03*
X124952460Y-83505180D03*
X127582460Y-83985180D03*
X129112460Y-85165180D03*
X131175960Y-84135180D03*
X136642460Y-79115180D03*
X139032460Y-79505180D03*
X142262460Y-78825180D03*
X142142460Y-75925180D03*
X141532460Y-73755180D03*
X129582460Y-73125180D03*
X129532460Y-70275180D03*
X130672460Y-69025180D03*
X128842460Y-68255180D03*
X149342460Y-84585180D03*
X149342460Y-81585180D03*
X149342460Y-75585180D03*
X149342460Y-78585180D03*
X149342460Y-72585180D03*
X149342460Y-69585180D03*
X111412460Y-88205180D03*
X111422460Y-84585180D03*
X111422460Y-81585180D03*
X111422460Y-78585180D03*
X111422460Y-75585180D03*
X111422460Y-72585180D03*
X111422460Y-69585180D03*
X149382460Y-88145180D03*
X139532460Y-88185180D03*
X135872460Y-88185180D03*
X132362460Y-88205180D03*
X126362460Y-88205180D03*
X123362460Y-88205180D03*
X120362460Y-88205180D03*
X117362460Y-88205180D03*
X114362460Y-88205180D03*
X149372460Y-66585180D03*
X147422460Y-66585180D03*
X141422460Y-66585180D03*
X138422460Y-66585180D03*
X135422460Y-66585180D03*
X132422460Y-66585180D03*
X126422460Y-66585180D03*
X123422460Y-66585180D03*
X120422460Y-66585180D03*
X117422460Y-66585180D03*
X114422460Y-66585180D03*
X111422460Y-66585180D03*
X144982460Y-69315180D03*
X145022460Y-71085180D03*
X145072460Y-73875180D03*
X145082460Y-79055180D03*
X145102460Y-77075180D03*
X135412460Y-74545180D03*
X134942460Y-74995180D03*
X131602460Y-83495180D03*
X126508960Y-83305180D03*
X126082460Y-84585180D03*
X120522460Y-72770140D03*
X128642460Y-83995180D03*
X132412460Y-86655180D03*
X132212460Y-84675000D03*
X135103240Y-79802960D03*
X135883020Y-79828360D03*
X133452460Y-80405180D03*
X133942460Y-79785180D03*
X130913580Y-73444200D03*
X132569660Y-74119840D03*
X134281620Y-73416260D03*
X117563340Y-73258780D03*
X138652460Y-73705180D03*
X137974780Y-84437320D03*
X139112460Y-75635180D03*
X117578580Y-80767020D03*
X136652460Y-67555180D03*
X117560800Y-76263600D03*
X117568420Y-79263340D03*
X117563340Y-77749500D03*
X141134523Y-84984523D03*
X133565340Y-76482040D03*
X133440000Y-70204818D03*
X136442460Y-73685180D03*
X126095000Y-78535000D03*
X126105000Y-76865000D03*
X131353140Y-76474280D03*
X126786563Y-73556563D03*
X137356020Y-86975009D03*
X139427700Y-76540420D03*
X125775000Y-80935000D03*
X126105000Y-75855000D03*
X126268918Y-80578515D03*
X139965840Y-71291550D03*
X141973438Y-70936158D03*
X137625000Y-77671000D03*
X136925000Y-76671000D03*
X136134304Y-75484304D03*
X134115696Y-75884304D03*
X139788340Y-84772600D03*
X137625000Y-77079000D03*
X136925000Y-76079000D03*
X135715696Y-75065696D03*
X134534304Y-75465696D03*
X140189167Y-85135249D03*
X141325000Y-82175000D03*
X140845000Y-81284490D03*
X142152460Y-68415180D03*
X133907610Y-82646842D03*
X133162460Y-82595180D03*
X130002460Y-69465180D03*
X133304500Y-69545180D03*
X134432460Y-68765180D03*
X135775140Y-68125440D03*
X129742460Y-68475180D03*
X132411890Y-68965272D03*
X125579580Y-78671520D03*
X125645620Y-77162760D03*
X129872460Y-71015180D03*
X121347940Y-74815800D03*
D28*
X137040000Y-68175000D02*
X137040000Y-67942720D01*
X137040000Y-67942720D02*
X136652460Y-67555180D01*
D29*
X132027460Y-70720180D02*
X132027460Y-71375180D01*
X132027460Y-71375180D02*
X132657460Y-72005180D01*
D30*
X133627460Y-72005180D02*
X133627460Y-70985180D01*
D29*
X132878000Y-68137000D02*
X132878000Y-69869640D01*
X133425000Y-67590000D02*
X132878000Y-68137000D01*
X132878000Y-69869640D02*
X132027460Y-70720180D01*
D30*
X135042460Y-72515180D02*
X135052460Y-72525180D01*
X135042460Y-72040180D02*
X135042460Y-72515180D01*
X138942460Y-70090180D02*
X139739640Y-69293000D01*
X139739640Y-69293000D02*
X140928000Y-69293000D01*
X140928000Y-69293000D02*
X141425000Y-69790000D01*
X138942460Y-70740180D02*
X139530552Y-70740180D01*
X139530552Y-70740180D02*
X140325000Y-69945732D01*
X140325000Y-69945732D02*
X140325000Y-69790000D01*
X138942460Y-71390180D02*
X139867210Y-71390180D01*
X139867210Y-71390180D02*
X139965840Y-71291550D01*
X139847460Y-72040180D02*
X139902460Y-71985180D01*
X138942460Y-72040180D02*
X139847460Y-72040180D01*
D28*
X133627460Y-70985180D02*
X134032460Y-71390180D01*
X134032460Y-71390180D02*
X135042460Y-71390180D01*
D30*
X135042460Y-70090180D02*
X135775140Y-69357500D01*
X135775140Y-69357500D02*
X135775140Y-68125440D01*
D28*
X133304500Y-69545180D02*
X133552460Y-69545180D01*
X133552460Y-69545180D02*
X134301960Y-70294680D01*
X134301960Y-70294680D02*
X134301960Y-70676680D01*
X134301960Y-70676680D02*
X134365460Y-70740180D01*
X134365460Y-70740180D02*
X135042460Y-70740180D01*
X135125000Y-68560000D02*
X134822960Y-68862040D01*
X134822960Y-68862040D02*
X134822960Y-68926931D01*
X134822960Y-68926931D02*
X134204711Y-69545180D01*
X134204711Y-69545180D02*
X133304500Y-69545180D01*
X133437822Y-70204818D02*
X133440000Y-70204818D01*
X132657460Y-70985180D02*
X133437822Y-70204818D01*
X123502460Y-85300180D02*
X123821460Y-85619180D01*
X131411670Y-86445180D02*
X132531670Y-85325180D01*
X123821460Y-85619180D02*
X124023456Y-85619180D01*
X124023456Y-85619180D02*
X124189956Y-85785680D01*
X139977942Y-85135249D02*
X140189167Y-85135249D01*
X124189956Y-85785680D02*
X124814964Y-85785680D01*
X124814964Y-85785680D02*
X124981464Y-85619180D01*
X132531670Y-85325180D02*
X139788011Y-85325180D01*
X124981464Y-85619180D02*
X125350892Y-85619180D01*
X125350892Y-85619180D02*
X126176892Y-86445180D01*
X126176892Y-86445180D02*
X131411670Y-86445180D01*
X139788011Y-85325180D02*
X139977942Y-85135249D01*
X124502460Y-85300180D02*
X125483028Y-85300180D01*
X125483028Y-85300180D02*
X126338028Y-86155180D01*
X131342460Y-86155180D02*
X132467160Y-85030480D01*
X126338028Y-86155180D02*
X131342460Y-86155180D01*
X132467160Y-85030480D02*
X139530460Y-85030480D01*
X139530460Y-85030480D02*
X139788340Y-84772600D01*
D29*
X132212460Y-84675000D02*
X132212460Y-84375180D01*
X132212460Y-84375180D02*
X132572460Y-84015180D01*
X132572460Y-84015180D02*
X134202460Y-84015180D01*
X134202460Y-84015180D02*
X134622460Y-83595180D01*
X133162460Y-82595180D02*
X133012460Y-82445180D01*
X133012460Y-82445180D02*
X133012460Y-81900180D01*
X126508960Y-83305180D02*
X126727460Y-83086680D01*
X126727460Y-83086680D02*
X126727460Y-82695180D01*
D28*
X131353140Y-76474280D02*
X131921960Y-76474280D01*
D29*
X133452460Y-80405180D02*
X133012460Y-80845180D01*
X133012460Y-80845180D02*
X133012460Y-80930180D01*
D28*
X142152460Y-68415180D02*
X142092640Y-68475000D01*
X142092640Y-68475000D02*
X141100000Y-68475000D01*
X134432460Y-68765180D02*
X134412460Y-68745180D01*
X134412460Y-68745180D02*
X133610180Y-68745180D01*
X133610180Y-68745180D02*
X133425000Y-68560000D01*
X143764000Y-69850000D02*
X143611140Y-69850000D01*
X140913560Y-71541502D02*
X140913560Y-71048440D01*
X143611140Y-69850000D02*
X141745960Y-71715180D01*
X141745960Y-71715180D02*
X141087238Y-71715180D01*
X141087238Y-71715180D02*
X140913560Y-71541502D01*
X140913560Y-71048440D02*
X140914490Y-71047510D01*
X140914490Y-71047510D02*
X140914490Y-70379490D01*
X140914490Y-70379490D02*
X140325000Y-69790000D01*
X141425000Y-70760000D02*
X141797280Y-70760000D01*
X141797280Y-70760000D02*
X141973438Y-70936158D01*
X140325000Y-70760000D02*
X140325000Y-70932390D01*
X140325000Y-70932390D02*
X139965840Y-71291550D01*
X136442460Y-73685180D02*
X136859480Y-74102200D01*
X136859480Y-74102200D02*
X136925760Y-74102200D01*
X139427700Y-76540420D02*
X139376720Y-76591400D01*
X139376720Y-76591400D02*
X139376720Y-77106880D01*
X139112460Y-75635180D02*
X139112460Y-75735380D01*
X139112460Y-75735380D02*
X138754420Y-76093420D01*
X138652460Y-73705180D02*
X138247820Y-74109820D01*
X138247820Y-74109820D02*
X137964620Y-74109820D01*
X143764000Y-67310000D02*
X144764058Y-67310000D01*
X144764058Y-67310000D02*
X145889378Y-68435320D01*
X143204640Y-86487100D02*
X142332460Y-85614920D01*
X145889378Y-68435320D02*
X146959827Y-68435320D01*
X141012432Y-81284490D02*
X140845000Y-81284490D01*
X146959827Y-68435320D02*
X147998193Y-69473686D01*
X147998193Y-69473686D02*
X147998193Y-85394747D01*
X147998193Y-85394747D02*
X146905840Y-86487100D01*
X142332460Y-85614920D02*
X142332460Y-82604518D01*
X146905840Y-86487100D02*
X143204640Y-86487100D01*
X142332460Y-82604518D02*
X141012432Y-81284490D01*
X133907610Y-82646842D02*
X134199272Y-82355180D01*
X134199272Y-82355180D02*
X136455180Y-82355180D01*
X136455180Y-82355180D02*
X136650000Y-82550000D01*
D29*
X133425000Y-67590000D02*
X128903770Y-67590000D01*
X128903770Y-67590000D02*
X128415460Y-68078310D01*
X128415460Y-68078310D02*
X128415460Y-68092180D01*
X128415460Y-68092180D02*
X123737500Y-72770140D01*
X123737500Y-72770140D02*
X120522460Y-72770140D01*
D28*
X129872460Y-71015180D02*
X130927640Y-69960000D01*
X130927640Y-69960000D02*
X131825000Y-69960000D01*
X130002460Y-69465180D02*
X129362460Y-69465180D01*
X129362460Y-69465180D02*
X124568640Y-74259000D01*
X124568640Y-74259000D02*
X118980880Y-74259000D01*
X118980880Y-74259000D02*
X118969740Y-74270140D01*
X129742460Y-68475180D02*
X124458640Y-73759000D01*
X124458640Y-73759000D02*
X122517000Y-73759000D01*
X122517000Y-73759000D02*
X122505860Y-73770140D01*
X122505860Y-73770140D02*
X118969740Y-73770140D01*
X126268918Y-80578515D02*
X126710000Y-81019597D01*
X126710000Y-81019597D02*
X126710000Y-81145000D01*
X130643568Y-82082000D02*
X130643568Y-82739072D01*
X130643568Y-82739072D02*
X130597460Y-82785180D01*
D29*
X129627460Y-83455180D02*
X129627460Y-82457540D01*
X129627460Y-82457540D02*
X129640000Y-82445000D01*
X134622460Y-80895180D02*
X134622460Y-80283740D01*
X134622460Y-80283740D02*
X135103240Y-79802960D01*
X131567460Y-83460180D02*
X131602460Y-83495180D01*
X131567460Y-82785180D02*
X131567460Y-83460180D01*
X126642460Y-85145180D02*
X126082460Y-84585180D01*
X127512460Y-85145180D02*
X126642460Y-85145180D01*
X120522460Y-72770140D02*
X118969740Y-72770140D01*
X135125000Y-67590000D02*
X133425000Y-67590000D01*
X128657460Y-83980180D02*
X128642460Y-83995180D01*
X128657460Y-83455180D02*
X128657460Y-83980180D01*
X132472460Y-86595180D02*
X132412460Y-86655180D01*
X133419960Y-86595180D02*
X132472460Y-86595180D01*
X136119960Y-86595180D02*
X136976191Y-86595180D01*
X136976191Y-86595180D02*
X137356020Y-86975009D01*
X131282640Y-84675000D02*
X132212460Y-84675000D01*
X136650000Y-83500000D02*
X137009000Y-83500000D01*
X137009000Y-83500000D02*
X137762460Y-82746540D01*
X137762460Y-82746540D02*
X137762460Y-81262460D01*
X137762460Y-81262460D02*
X136875000Y-80375000D01*
X134622460Y-83595180D02*
X134717640Y-83500000D01*
X134717640Y-83500000D02*
X136650000Y-83500000D01*
X130812460Y-85145180D02*
X131282640Y-84675000D01*
D28*
X117129028Y-81948640D02*
X116904960Y-81724572D01*
X120081000Y-81948640D02*
X117129028Y-81948640D01*
X121835620Y-83703260D02*
X120081000Y-81948640D01*
X116904960Y-81724572D02*
X116904960Y-74958040D01*
X123875540Y-83703260D02*
X121835620Y-83703260D01*
X124502460Y-84330180D02*
X123875540Y-83703260D01*
X116904960Y-74958040D02*
X117092860Y-74770140D01*
X117092860Y-74770140D02*
X118969740Y-74770140D01*
X116996892Y-82267640D02*
X116585960Y-81856708D01*
X123502460Y-84330180D02*
X123167640Y-83995360D01*
X123167640Y-83995360D02*
X121768496Y-83995360D01*
X121768496Y-83995360D02*
X120040776Y-82267640D01*
X116585960Y-81856708D02*
X116585960Y-74993572D01*
X120040776Y-82267640D02*
X116996892Y-82267640D01*
X127697460Y-82695180D02*
X128419820Y-82695180D01*
X128419820Y-82695180D02*
X128670000Y-82445000D01*
X133565200Y-76481900D02*
X133565340Y-76482040D01*
D29*
X117575220Y-79270140D02*
X117568420Y-79263340D01*
X118969740Y-79270140D02*
X117575220Y-79270140D01*
X118969740Y-80770140D02*
X117581700Y-80770140D01*
D28*
X138850000Y-84450000D02*
X137987460Y-84450000D01*
D29*
X117567340Y-76270140D02*
X117560800Y-76263600D01*
X118969740Y-73270140D02*
X117574700Y-73270140D01*
D28*
X137987460Y-84450000D02*
X137974780Y-84437320D01*
D29*
X117583980Y-77770140D02*
X117563340Y-77749500D01*
D28*
X140750000Y-84300000D02*
X140750000Y-84600000D01*
D29*
X118969740Y-76270140D02*
X117567340Y-76270140D01*
D28*
X140750000Y-84600000D02*
X141134523Y-84984523D01*
X132925260Y-76481900D02*
X133565200Y-76481900D01*
D29*
X117574700Y-73270140D02*
X117563340Y-73258780D01*
X118969740Y-77770140D02*
X117583980Y-77770140D01*
X117581700Y-80770140D02*
X117578580Y-80767020D01*
D28*
X126770000Y-75855000D02*
X126105000Y-75855000D01*
X138100000Y-87000000D02*
X137381011Y-87000000D01*
X125094440Y-76078320D02*
X125881680Y-76078320D01*
X126770000Y-74265000D02*
X126770000Y-73573126D01*
X125760000Y-80950000D02*
X125775000Y-80935000D01*
X126750000Y-76865000D02*
X126105000Y-76865000D01*
X125105000Y-80950000D02*
X125760000Y-80950000D01*
X137381011Y-87000000D02*
X137356020Y-86975009D01*
X125881680Y-76078320D02*
X126105000Y-75855000D01*
X126770000Y-73573126D02*
X126786563Y-73556563D01*
X126760000Y-78505000D02*
X126125000Y-78505000D01*
X126125000Y-78505000D02*
X126095000Y-78535000D01*
X131618380Y-82109048D02*
X131712899Y-82130621D01*
X131712899Y-82130621D02*
X131809848Y-82130621D01*
X132229149Y-81614370D02*
X132207575Y-81519851D01*
X131991716Y-82066983D02*
X132067514Y-82006536D01*
X131904367Y-82109048D02*
X131991716Y-82066983D01*
X129640000Y-82445000D02*
X130003000Y-82082000D01*
X131040727Y-81704516D02*
X131071401Y-81697515D01*
X131455233Y-82006536D02*
X131531031Y-82066983D01*
X131803043Y-81035006D02*
X131796042Y-81004332D01*
X135091068Y-79334500D02*
X136891068Y-77534500D01*
X131836311Y-80889255D02*
X133391068Y-79334500D01*
X131809848Y-82130621D02*
X131904367Y-82109048D01*
X131531031Y-82066983D02*
X131618380Y-82109048D01*
X132105063Y-81968986D02*
X132165510Y-81893187D01*
X136891068Y-77534500D02*
X137488500Y-77534500D01*
X130643568Y-82082000D02*
X130987783Y-81737783D01*
X132086289Y-81337929D02*
X131836310Y-81087950D01*
X131836310Y-81087950D02*
X131816694Y-81063352D01*
X132207575Y-81805839D02*
X132229149Y-81711320D01*
X132165510Y-81893187D02*
X132207575Y-81805839D01*
X131071401Y-81697515D02*
X131102863Y-81697515D01*
X131796042Y-81004332D02*
X131796042Y-80972870D01*
X131796042Y-80972870D02*
X131803043Y-80942197D01*
X131816694Y-80913851D02*
X131836310Y-80889253D01*
X130003000Y-82082000D02*
X130643568Y-82082000D01*
X132067514Y-82006536D02*
X132105063Y-81968986D01*
X132229149Y-81711320D02*
X132229149Y-81614370D01*
X131012381Y-81718167D02*
X131040727Y-81704516D01*
X131133536Y-81704516D02*
X131161882Y-81718167D01*
X131161882Y-81718167D02*
X131186480Y-81737783D01*
X130987783Y-81737783D02*
X131012381Y-81718167D01*
X131816694Y-81063352D02*
X131803043Y-81035006D01*
X132207575Y-81519851D02*
X132165510Y-81432502D01*
X132105063Y-81356704D02*
X132086289Y-81337929D01*
X132165510Y-81432502D02*
X132105063Y-81356704D01*
X131102863Y-81697515D02*
X131133536Y-81704516D01*
X131836310Y-80889253D02*
X131836311Y-80889255D01*
X133391068Y-79334500D02*
X135091068Y-79334500D01*
X131186480Y-81737783D02*
X131455233Y-82006536D01*
X131803043Y-80942197D02*
X131816694Y-80913851D01*
X137488500Y-77534500D02*
X137625000Y-77671000D01*
X135543956Y-77339601D02*
X135604477Y-77310455D01*
X135347114Y-77804019D02*
X135121993Y-77578898D01*
X134710291Y-78466859D02*
X134762809Y-78508741D01*
X131398568Y-79827000D02*
X132791068Y-78434500D01*
X135021477Y-78537885D02*
X135081997Y-78508741D01*
X136391068Y-76534500D02*
X136788500Y-76534500D01*
X135478469Y-77354547D02*
X135543956Y-77339601D01*
X130038000Y-79827000D02*
X131398568Y-79827000D01*
X135121993Y-77578898D02*
X135132506Y-77567495D01*
X135132506Y-77567495D02*
X134907386Y-77342375D01*
X134584499Y-78341067D02*
X134710291Y-78466859D01*
X135431148Y-77930065D02*
X135402003Y-77869545D01*
X135411297Y-77354547D02*
X135478469Y-77354547D01*
X135360122Y-78241250D02*
X135402003Y-78188733D01*
X135081997Y-78508741D02*
X135134514Y-78466859D01*
X135345808Y-77339601D02*
X135411297Y-77354547D01*
X135402003Y-77869545D02*
X135360122Y-77817028D01*
X135232770Y-77268575D02*
X135285289Y-77310455D01*
X134762809Y-78508741D02*
X134823329Y-78537885D01*
X135402003Y-78188733D02*
X135431148Y-78128213D01*
X135604477Y-77310455D02*
X135656994Y-77268574D01*
X136925000Y-76671000D02*
X137408360Y-76187640D01*
X129660000Y-80205000D02*
X130038000Y-79827000D01*
X134888817Y-78552833D02*
X134955989Y-78552833D01*
X135360122Y-77817028D02*
X135347114Y-77804019D01*
X137690200Y-76187640D02*
X137784420Y-76093420D01*
X132791068Y-78434500D02*
X134491068Y-78434500D01*
X134955989Y-78552833D02*
X135021477Y-78537885D01*
X135285289Y-77310455D02*
X135345808Y-77339601D01*
X134907386Y-77342375D02*
X135106978Y-77142783D01*
X135446095Y-78062725D02*
X135446095Y-77995553D01*
X137408360Y-76187640D02*
X137690200Y-76187640D01*
X138406720Y-76715720D02*
X137784420Y-76093420D01*
X135446095Y-77995553D02*
X135431148Y-77930065D01*
X138406720Y-77106880D02*
X138406720Y-76715720D01*
X134491068Y-78434500D02*
X134584499Y-78341067D01*
X135431148Y-78128213D02*
X135446095Y-78062725D01*
X136788500Y-76534500D02*
X136925000Y-76671000D01*
X135134514Y-78466859D02*
X135360122Y-78241250D01*
X135656994Y-77268574D02*
X136391068Y-76534500D01*
X135106978Y-77142783D02*
X135232770Y-77268575D01*
X134823329Y-78537885D02*
X134888817Y-78552833D01*
X131712000Y-77662000D02*
X131715522Y-77630735D01*
X131701145Y-78330774D02*
X131712000Y-78234434D01*
X130762347Y-77574399D02*
X130779086Y-77601039D01*
X129660000Y-77895000D02*
X130033500Y-77521500D01*
X131129608Y-78656528D02*
X131225948Y-78667383D01*
X135941264Y-75484304D02*
X136134304Y-75484304D01*
X131715522Y-77630735D02*
X131725913Y-77601039D01*
X131764899Y-77552152D02*
X131791539Y-77535413D01*
X136134304Y-75297376D02*
X136359480Y-75072200D01*
X131725913Y-77601039D02*
X131742652Y-77574399D01*
X131225948Y-78667383D02*
X131279051Y-78667383D01*
X130652500Y-77521500D02*
X130683764Y-77525022D01*
X130793000Y-77662000D02*
X130793000Y-78234434D01*
X131669124Y-78422283D02*
X131701145Y-78330774D01*
X136925760Y-75072200D02*
X137957000Y-75072200D01*
X130956009Y-78572927D02*
X131038099Y-78624507D01*
X131466900Y-78624507D02*
X131548990Y-78572927D01*
X136359480Y-75072200D02*
X136925760Y-75072200D01*
X131742652Y-77574399D02*
X131764899Y-77552152D01*
X130713460Y-77535413D02*
X130740100Y-77552152D01*
X130683764Y-77525022D02*
X130713460Y-77535413D01*
X136134304Y-75484304D02*
X136134304Y-75297376D01*
X130779086Y-77601039D02*
X130789477Y-77630735D01*
X131375391Y-78656528D02*
X131466900Y-78624507D01*
X131712000Y-78234434D02*
X131712000Y-77662000D01*
X131548990Y-78572927D02*
X131617544Y-78504373D01*
X130793000Y-78234434D02*
X130803854Y-78330774D01*
X130887455Y-78504373D02*
X130956009Y-78572927D01*
X131617544Y-78504373D02*
X131669124Y-78422283D01*
X131791539Y-77535413D02*
X131821235Y-77525022D01*
X131279051Y-78667383D02*
X131375391Y-78656528D01*
X131821235Y-77525022D02*
X131852500Y-77521500D01*
X130033500Y-77521500D02*
X130652500Y-77521500D01*
X137957000Y-75072200D02*
X137964620Y-75079820D01*
X130803854Y-78330774D02*
X130835875Y-78422283D01*
X130835875Y-78422283D02*
X130887455Y-78504373D01*
X130740100Y-77552152D02*
X130762347Y-77574399D01*
X131038099Y-78624507D02*
X131129608Y-78656528D01*
X131852500Y-77521500D02*
X133904068Y-77521500D01*
X133904068Y-77521500D02*
X135941264Y-75484304D01*
X130789477Y-77630735D02*
X130793000Y-77662000D01*
X131109891Y-76128159D02*
X131201400Y-76096138D01*
X131450022Y-75341235D02*
X131460413Y-75311539D01*
X131352044Y-75976004D02*
X131403624Y-75893914D01*
X130447960Y-75245913D02*
X130474600Y-75262652D01*
X131446500Y-75372500D02*
X131450022Y-75341235D01*
X130523977Y-75341235D02*
X130527500Y-75372500D01*
X131921960Y-75504280D02*
X131921960Y-75255220D01*
X131201400Y-76096138D02*
X131283490Y-76044558D01*
X131555735Y-75235522D02*
X131587000Y-75232000D01*
X129700000Y-75605000D02*
X130073000Y-75232000D01*
X130418264Y-75235522D02*
X130447960Y-75245913D01*
X131477152Y-75284899D02*
X131499399Y-75262652D01*
X131403624Y-75893914D02*
X131435645Y-75802405D01*
X131945180Y-75232000D02*
X132925620Y-75232000D01*
X130960448Y-76139014D02*
X131013551Y-76139014D01*
X130621955Y-75976004D02*
X130690509Y-76044558D01*
X131446500Y-75706065D02*
X131446500Y-75372500D01*
X131526039Y-75245913D02*
X131555735Y-75235522D01*
X132925260Y-75511900D02*
X132925260Y-75232360D01*
X131587000Y-75232000D02*
X131945180Y-75232000D01*
X131283490Y-76044558D02*
X131352044Y-75976004D01*
X130513586Y-75311539D02*
X130523977Y-75341235D01*
X130570375Y-75893914D02*
X130621955Y-75976004D01*
X132925260Y-75232360D02*
X132925620Y-75232000D01*
X130690509Y-76044558D02*
X130772599Y-76096138D01*
X131013551Y-76139014D02*
X131109891Y-76128159D01*
X130527500Y-75706065D02*
X130538354Y-75802405D01*
X130073000Y-75232000D02*
X130387000Y-75232000D01*
X130474600Y-75262652D02*
X130496847Y-75284899D01*
X130496847Y-75284899D02*
X130513586Y-75311539D01*
X131921960Y-75255220D02*
X131945180Y-75232000D01*
X130387000Y-75232000D02*
X130418264Y-75235522D01*
X131435645Y-75802405D02*
X131446500Y-75706065D01*
X130527500Y-75372500D02*
X130527500Y-75706065D01*
X130538354Y-75802405D02*
X130570375Y-75893914D01*
X130772599Y-76096138D02*
X130864108Y-76128159D01*
X132925620Y-75232000D02*
X133656432Y-75232000D01*
X131460413Y-75311539D02*
X131477152Y-75284899D01*
X133656432Y-75232000D02*
X134115696Y-75691264D01*
X131499399Y-75262652D02*
X131526039Y-75245913D01*
X134115696Y-75691264D02*
X134115696Y-75884304D01*
X130864108Y-76128159D02*
X130960448Y-76139014D01*
X131714969Y-81795461D02*
X131745643Y-81802462D01*
X131230125Y-81390929D02*
X131317474Y-81432994D01*
X131317474Y-81432994D02*
X131393272Y-81493441D01*
X131777105Y-81802462D02*
X131807778Y-81795461D01*
X134958932Y-79015500D02*
X136758932Y-77215500D01*
X130856789Y-81432994D02*
X130944138Y-81390929D01*
X131531521Y-81218944D02*
X131489456Y-81131595D01*
X131135606Y-81369356D02*
X131230125Y-81390929D01*
X131880338Y-81588094D02*
X131860722Y-81563496D01*
X137488500Y-77215500D02*
X137625000Y-77079000D01*
X131662025Y-81762194D02*
X131686623Y-81781810D01*
X136758932Y-77215500D02*
X137488500Y-77215500D01*
X131900990Y-81647114D02*
X131893989Y-81616441D01*
X131467883Y-80940127D02*
X131489456Y-80845608D01*
X131893989Y-81616441D02*
X131880338Y-81588094D01*
X131591968Y-80682461D02*
X131610743Y-80663686D01*
X131686623Y-81781810D02*
X131714969Y-81795461D01*
X131610743Y-80663686D02*
X131610744Y-80663688D01*
X131393272Y-81493441D02*
X131662025Y-81762194D01*
X130511432Y-81763000D02*
X130780991Y-81493441D01*
X130944138Y-81390929D02*
X131038657Y-81369356D01*
X129635000Y-81395000D02*
X130003000Y-81763000D01*
X131880338Y-81737596D02*
X131893989Y-81709249D01*
X131900990Y-81678576D02*
X131900990Y-81647114D01*
X131893989Y-81709249D02*
X131900990Y-81678576D01*
X131467883Y-81037076D02*
X131467883Y-80940127D01*
X131610744Y-80663688D02*
X133258932Y-79015500D01*
X131489456Y-81131595D02*
X131467883Y-81037076D01*
X131591968Y-81294742D02*
X131531521Y-81218944D01*
X131860722Y-81563496D02*
X131591968Y-81294742D01*
X131038657Y-81369356D02*
X131135606Y-81369356D01*
X131860722Y-81762194D02*
X131880338Y-81737596D01*
X133258932Y-79015500D02*
X134958932Y-79015500D01*
X131836124Y-81781810D02*
X131860722Y-81762194D01*
X131745643Y-81802462D02*
X131777105Y-81802462D01*
X131807778Y-81795461D02*
X131836124Y-81781810D01*
X131489456Y-80845608D02*
X131531521Y-80758259D01*
X131531521Y-80758259D02*
X131591968Y-80682461D01*
X130003000Y-81763000D02*
X130511432Y-81763000D01*
X130780991Y-81493441D02*
X130856789Y-81432994D01*
X134668813Y-77554932D02*
X134626931Y-77502415D01*
X134617637Y-78016519D02*
X134683125Y-78031466D01*
X134683125Y-78031466D02*
X134743645Y-78060611D01*
X135121547Y-78028692D02*
X134896427Y-77803571D01*
X134484977Y-78031466D02*
X134550465Y-78016519D01*
X134743645Y-78060611D02*
X134796163Y-78102492D01*
X134597785Y-77243748D02*
X134626931Y-77183227D01*
X135007458Y-76834076D02*
X135072945Y-76819130D01*
X134371940Y-78102492D02*
X134424457Y-78060611D01*
X131266432Y-79508000D02*
X132658932Y-78115500D01*
X134582839Y-77309234D02*
X134597785Y-77243748D01*
X134626931Y-77502415D02*
X134597787Y-77441894D01*
X134796163Y-78102492D02*
X134921955Y-78228284D01*
X134668812Y-77130710D02*
X134894420Y-76905103D01*
X134582839Y-77376406D02*
X134582839Y-77309234D01*
X130038000Y-79508000D02*
X131266432Y-79508000D01*
X135072945Y-76819130D02*
X135140117Y-76819130D01*
X135331652Y-76918110D02*
X135444437Y-77030895D01*
X136788500Y-76215500D02*
X136925000Y-76079000D01*
X136258932Y-76215500D02*
X136788500Y-76215500D01*
X134921955Y-78228284D02*
X135121547Y-78028692D01*
X134906941Y-77793060D02*
X134668813Y-77554932D01*
X135444437Y-77030895D02*
X136258932Y-76215500D01*
X134894420Y-76905103D02*
X134946937Y-76863222D01*
X134626931Y-77183227D02*
X134668812Y-77130710D01*
X134896427Y-77803571D02*
X134906941Y-77793060D01*
X134424457Y-78060611D02*
X134484977Y-78031466D01*
X134550465Y-78016519D02*
X134617637Y-78016519D01*
X134358932Y-78115500D02*
X134371940Y-78102492D01*
X135140117Y-76819130D02*
X135205606Y-76834076D01*
X134597787Y-77441894D02*
X134582839Y-77376406D01*
X129655000Y-79125000D02*
X130038000Y-79508000D01*
X134946937Y-76863222D02*
X135007458Y-76834076D01*
X135318642Y-76905103D02*
X135331652Y-76918110D01*
X135266125Y-76863222D02*
X135318642Y-76905103D01*
X135205606Y-76834076D02*
X135266125Y-76863222D01*
X132658932Y-78115500D02*
X134358932Y-78115500D01*
X131389477Y-78239147D02*
X131393000Y-78207883D01*
X130775391Y-77213354D02*
X130866900Y-77245375D01*
X131393000Y-78207883D02*
X131393000Y-77635448D01*
X131112000Y-78207883D02*
X131115522Y-78239147D01*
X131556009Y-77296955D02*
X131638099Y-77245375D01*
X131115522Y-78239147D02*
X131125913Y-78268843D01*
X131638099Y-77245375D02*
X131729608Y-77213354D01*
X133771932Y-77202500D02*
X135715696Y-75258736D01*
X130948990Y-77296955D02*
X131017544Y-77365509D01*
X131403854Y-77539108D02*
X131435875Y-77447599D01*
X131340100Y-78317730D02*
X131362347Y-78295483D01*
X130033500Y-77202500D02*
X130679051Y-77202500D01*
X131487455Y-77365509D02*
X131556009Y-77296955D01*
X131393000Y-77635448D02*
X131403854Y-77539108D01*
X131221235Y-78344860D02*
X131252500Y-78348383D01*
X131362347Y-78295483D02*
X131379086Y-78268843D01*
X131017544Y-77365509D02*
X131069124Y-77447599D01*
X131435875Y-77447599D02*
X131487455Y-77365509D01*
X131252500Y-78348383D02*
X131283764Y-78344860D01*
X131313460Y-78334469D02*
X131340100Y-78317730D01*
X131069124Y-77447599D02*
X131101145Y-77539108D01*
X131112000Y-77635448D02*
X131112000Y-78207883D01*
X135715696Y-75258736D02*
X135715696Y-75065696D01*
X130866900Y-77245375D02*
X130948990Y-77296955D01*
X131729608Y-77213354D02*
X131825948Y-77202500D01*
X131825948Y-77202500D02*
X133771932Y-77202500D01*
X131191539Y-78334469D02*
X131221235Y-78344860D01*
X131142652Y-78295483D02*
X131164899Y-78317730D01*
X131125913Y-78268843D02*
X131142652Y-78295483D01*
X131164899Y-78317730D02*
X131191539Y-78334469D01*
X131379086Y-78268843D02*
X131389477Y-78239147D01*
X131283764Y-78344860D02*
X131313460Y-78334469D01*
X131101145Y-77539108D02*
X131112000Y-77635448D01*
X130679051Y-77202500D02*
X130775391Y-77213354D01*
X129646000Y-76815000D02*
X130033500Y-77202500D01*
X131113586Y-75740474D02*
X131123977Y-75710778D01*
X133788568Y-74913000D02*
X134341264Y-75465696D01*
X131018264Y-75816491D02*
X131047960Y-75806100D01*
X131123977Y-75710778D02*
X131127500Y-75679514D01*
X131221955Y-75076009D02*
X131290509Y-75007455D01*
X130846500Y-75345948D02*
X130846500Y-75679514D01*
X131170375Y-75158099D02*
X131221955Y-75076009D01*
X131127500Y-75345948D02*
X131138354Y-75249608D01*
X131047960Y-75806100D02*
X131074600Y-75789361D01*
X130835645Y-75249608D02*
X130846500Y-75345948D01*
X131464108Y-74923854D02*
X131560448Y-74913000D01*
X131290509Y-75007455D02*
X131372599Y-74955875D01*
X130803624Y-75158099D02*
X130835645Y-75249608D01*
X131127500Y-75679514D02*
X131127500Y-75345948D01*
X130846500Y-75679514D02*
X130850022Y-75710778D01*
X130877152Y-75767114D02*
X130899399Y-75789361D01*
X130509891Y-74923854D02*
X130601400Y-74955875D01*
X131074600Y-75789361D02*
X131096847Y-75767114D01*
X129695000Y-74535000D02*
X130073000Y-74913000D01*
X134341264Y-75465696D02*
X134534304Y-75465696D01*
X131096847Y-75767114D02*
X131113586Y-75740474D01*
X130073000Y-74913000D02*
X130413551Y-74913000D01*
X130413551Y-74913000D02*
X130509891Y-74923854D01*
X130899399Y-75789361D02*
X130926039Y-75806100D01*
X130850022Y-75710778D02*
X130860413Y-75740474D01*
X131560448Y-74913000D02*
X133788568Y-74913000D01*
X131372599Y-74955875D02*
X131464108Y-74923854D01*
X130683490Y-75007455D02*
X130752044Y-75076009D01*
X130926039Y-75806100D02*
X130955735Y-75816491D01*
X130987000Y-75820014D02*
X131018264Y-75816491D01*
X130752044Y-75076009D02*
X130803624Y-75158099D01*
X130601400Y-74955875D02*
X130683490Y-75007455D01*
X131138354Y-75249608D02*
X131170375Y-75158099D01*
X130955735Y-75816491D02*
X130987000Y-75820014D01*
X130860413Y-75740474D02*
X130877152Y-75767114D01*
X141300000Y-82200000D02*
X141325000Y-82175000D01*
X140750000Y-82200000D02*
X141300000Y-82200000D01*
X140900000Y-85675000D02*
X140900000Y-87000000D01*
X140372599Y-84790501D02*
X140581277Y-84790501D01*
X140581277Y-84790501D02*
X140709702Y-84918926D01*
X140709702Y-85484702D02*
X140900000Y-85675000D01*
X138850000Y-83267902D02*
X140372599Y-84790501D01*
X140709702Y-84918926D02*
X140709702Y-85484702D01*
X140175000Y-81225000D02*
X138850000Y-82550000D01*
X140175000Y-80375000D02*
X140175000Y-81225000D01*
X138850000Y-82550000D02*
X138850000Y-83267902D01*
X143299000Y-67775000D02*
X143764000Y-67310000D01*
X131825000Y-68990000D02*
X132387162Y-68990000D01*
X132387162Y-68990000D02*
X132411890Y-68965272D01*
X143375490Y-70238510D02*
X143764000Y-69850000D01*
X142497740Y-68717260D02*
X145171260Y-68717260D01*
X145171260Y-68717260D02*
X146304000Y-69850000D01*
X141425000Y-69790000D02*
X142497740Y-68717260D01*
X126067500Y-82428701D02*
X126067500Y-82219500D01*
X123574595Y-81924555D02*
X123574595Y-81483617D01*
X122432011Y-82571232D02*
X122481508Y-82650006D01*
X125239366Y-82699815D02*
X125308219Y-82768668D01*
X124088781Y-81459624D02*
X124091485Y-81483617D01*
X122401284Y-82483420D02*
X122432011Y-82571232D01*
X125308219Y-82768668D02*
X125390666Y-82820472D01*
X125972633Y-82699815D02*
X126024437Y-82617368D01*
X122095451Y-82091111D02*
X122283040Y-82091110D01*
X122283040Y-82091110D02*
X122307033Y-82093813D01*
X123417553Y-82715790D02*
X123483337Y-82650006D01*
X124326683Y-82049967D02*
X124414495Y-82080694D01*
X125090847Y-82108089D02*
X125113410Y-82130652D01*
X128670000Y-82125000D02*
X128670000Y-82445000D01*
X123635638Y-81386468D02*
X123658429Y-81378493D01*
X126121152Y-82108089D02*
X126148171Y-82091111D01*
X125390666Y-82820472D02*
X125482573Y-82852632D01*
X125140927Y-82187790D02*
X125144500Y-82219500D01*
X124414495Y-82080694D02*
X124506944Y-82091110D01*
X122390868Y-82198938D02*
X122390868Y-82390971D01*
X123598119Y-81416388D02*
X123615193Y-81399314D01*
X123577298Y-81459624D02*
X123585273Y-81436833D01*
X125482573Y-82852632D02*
X125579333Y-82863535D01*
X124247909Y-82000470D02*
X124326683Y-82049967D01*
X123563561Y-82483420D02*
X123573978Y-82390971D01*
X122713878Y-82796014D02*
X122806327Y-82806431D01*
X123574595Y-81483617D02*
X123577298Y-81459624D01*
X123983657Y-81375789D02*
X124007650Y-81378493D01*
X120394741Y-81270140D02*
X120735241Y-80929640D01*
X125903780Y-82768668D02*
X125972633Y-82699815D01*
X122626066Y-82765287D02*
X122713878Y-82796014D01*
X126081611Y-82157671D02*
X126098589Y-82130652D01*
X124030441Y-81386468D02*
X124050886Y-81399314D01*
X123338779Y-82765287D02*
X123417553Y-82715790D01*
X126071072Y-82187790D02*
X126081611Y-82157671D01*
X120933400Y-80929060D02*
X122095451Y-82091111D01*
X122806327Y-82806431D02*
X123158518Y-82806431D01*
X122350269Y-82114634D02*
X122367343Y-82131708D01*
X124080806Y-81436833D02*
X124088781Y-81459624D01*
X126056597Y-82525461D02*
X126067500Y-82428701D01*
X126148171Y-82091111D02*
X128636111Y-82091111D01*
X123483337Y-82650006D02*
X123532834Y-82571232D01*
X122390868Y-82390971D02*
X122401284Y-82483420D01*
X123658429Y-81378493D02*
X123682423Y-81375789D01*
X124007650Y-81378493D02*
X124030441Y-81386468D01*
X122380189Y-82152153D02*
X122388164Y-82174944D01*
X123615193Y-81399314D02*
X123635638Y-81386468D01*
X125113410Y-82130652D02*
X125130388Y-82157671D01*
X122388164Y-82174944D02*
X122390868Y-82198938D01*
X124132628Y-81855912D02*
X124182125Y-81934686D01*
X123585273Y-81436833D02*
X123598119Y-81416388D01*
X124101901Y-81768100D02*
X124132628Y-81855912D01*
X124506944Y-82091110D02*
X125063828Y-82091111D01*
X124050886Y-81399314D02*
X124067960Y-81416388D01*
X125729426Y-82852632D02*
X125821333Y-82820472D01*
X123158518Y-82806431D02*
X123250967Y-82796014D01*
X125155402Y-82525461D02*
X125187562Y-82617368D01*
X122367343Y-82131708D02*
X122380189Y-82152153D01*
X124091485Y-81675651D02*
X124101901Y-81768100D01*
X122329824Y-82101788D02*
X122350269Y-82114634D01*
X122547292Y-82715790D02*
X122626066Y-82765287D01*
X125821333Y-82820472D02*
X125903780Y-82768668D01*
X122307033Y-82093813D02*
X122329824Y-82101788D01*
X125063828Y-82091111D02*
X125090847Y-82108089D01*
X125144500Y-82428701D02*
X125155402Y-82525461D01*
X125130388Y-82157671D02*
X125140927Y-82187790D01*
X124067960Y-81416388D02*
X124080806Y-81436833D01*
X125632666Y-82863535D02*
X125729426Y-82852632D01*
X118969740Y-81270140D02*
X120394741Y-81270140D01*
X120735800Y-80929060D02*
X120933400Y-80929060D01*
X123573978Y-81924555D02*
X123574595Y-81924555D01*
X128636111Y-82091111D02*
X128670000Y-82125000D01*
X125579333Y-82863535D02*
X125632666Y-82863535D01*
X124182125Y-81934686D02*
X124247909Y-82000470D01*
X125187562Y-82617368D02*
X125239366Y-82699815D01*
X123532834Y-82571232D02*
X123563561Y-82483420D01*
X122481508Y-82650006D02*
X122547292Y-82715790D01*
X126024437Y-82617368D02*
X126056597Y-82525461D01*
X123682423Y-81375789D02*
X123983657Y-81375789D01*
X126098589Y-82130652D02*
X126121152Y-82108089D01*
X126067500Y-82219500D02*
X126071072Y-82187790D01*
X123250967Y-82796014D02*
X123338779Y-82765287D01*
X123573978Y-82390971D02*
X123573978Y-81924555D01*
X124091485Y-81483617D02*
X124091485Y-81675651D01*
X125144500Y-82219500D02*
X125144500Y-82428701D01*
X121755597Y-79511909D02*
X121755597Y-79695239D01*
X121975577Y-80045336D02*
X122057708Y-80074075D01*
X121765339Y-79781706D02*
X121794078Y-79863837D01*
X125789180Y-80039054D02*
X125855720Y-80105594D01*
X122727477Y-79427750D02*
X122747220Y-79420841D01*
X121901900Y-79999042D02*
X121975577Y-80045336D01*
X122768006Y-79418500D02*
X125570500Y-79418500D01*
X122674597Y-79695239D02*
X122674597Y-79511909D01*
X121753255Y-79491123D02*
X121755597Y-79511909D01*
X126762000Y-79464000D02*
X127949000Y-79464000D01*
X121735218Y-79453669D02*
X121746346Y-79471380D01*
X121840372Y-79937514D02*
X121901900Y-79999042D01*
X121682973Y-79420841D02*
X121702716Y-79427750D01*
X125697500Y-79777046D02*
X125708036Y-79870556D01*
X122528293Y-79999042D02*
X122589821Y-79937514D01*
X121662188Y-79418500D02*
X121682973Y-79420841D01*
X125739115Y-79959376D02*
X125789180Y-80039054D01*
X125697500Y-79545500D02*
X125697500Y-79777046D01*
X125855720Y-80105594D02*
X125935398Y-80155659D01*
X126497819Y-80039054D02*
X126547884Y-79959376D01*
X121794078Y-79863837D02*
X121840372Y-79937514D01*
X122057708Y-80074075D02*
X122144175Y-80083818D01*
X126169271Y-80197275D02*
X126262781Y-80186738D01*
X126578963Y-79870556D02*
X126589500Y-79777046D01*
X125598760Y-79421684D02*
X125625603Y-79431076D01*
X122372485Y-80074075D02*
X122454616Y-80045336D01*
X122589821Y-79937514D02*
X122636115Y-79863837D01*
X122683847Y-79471380D02*
X122694975Y-79453669D01*
X126547884Y-79959376D02*
X126578963Y-79870556D01*
X126589500Y-79777046D02*
X126589500Y-79636500D01*
X121746346Y-79471380D02*
X121753255Y-79491123D01*
X122694975Y-79453669D02*
X122709766Y-79438878D01*
X121755597Y-79695239D02*
X121765339Y-79781706D01*
X125935398Y-80155659D02*
X126024218Y-80186738D01*
X125669792Y-79466316D02*
X125684923Y-79490396D01*
X125649683Y-79446207D02*
X125669792Y-79466316D01*
X122709766Y-79438878D02*
X122727477Y-79427750D01*
X120394741Y-79770140D02*
X120735241Y-79429640D01*
X122674597Y-79511909D02*
X122676938Y-79491123D01*
X121651048Y-79429640D02*
X121662188Y-79418500D01*
X125684923Y-79490396D02*
X125694315Y-79517239D01*
X122286018Y-80083818D02*
X122372485Y-80074075D01*
X121720427Y-79438878D02*
X121735218Y-79453669D01*
X122747220Y-79420841D02*
X122768006Y-79418500D01*
X125694315Y-79517239D02*
X125697500Y-79545500D01*
X126117728Y-80197275D02*
X126169271Y-80197275D01*
X122664854Y-79781706D02*
X122674597Y-79695239D01*
X126589500Y-79636500D02*
X126762000Y-79464000D01*
X127979026Y-79494026D02*
X128690000Y-80205000D01*
X125105000Y-79980000D02*
X125105000Y-79435000D01*
X122454616Y-80045336D02*
X122528293Y-79999042D01*
X122144175Y-80083818D02*
X122286018Y-80083818D01*
X126351601Y-80155659D02*
X126431279Y-80105594D01*
X118969740Y-79770140D02*
X120394741Y-79770140D01*
X127949000Y-79464000D02*
X127979026Y-79494026D01*
X122676938Y-79491123D02*
X122683847Y-79471380D01*
X125708036Y-79870556D02*
X125739115Y-79959376D01*
X122636115Y-79863837D02*
X122664854Y-79781706D01*
X126262781Y-80186738D02*
X126351601Y-80155659D01*
X125570500Y-79418500D02*
X125598760Y-79421684D01*
X125625603Y-79431076D02*
X125649683Y-79446207D01*
X120735241Y-79429640D02*
X121651048Y-79429640D01*
X126431279Y-80105594D02*
X126497819Y-80039054D01*
X126024218Y-80186738D02*
X126117728Y-80197275D01*
X121702716Y-79427750D02*
X121720427Y-79438878D01*
X124557500Y-78284460D02*
X124557500Y-78045500D01*
X125727683Y-77946207D02*
X125703603Y-77931076D01*
X125029271Y-78704689D02*
X124977728Y-78704689D01*
X125548239Y-77921684D02*
X125521396Y-77931076D01*
X125357819Y-78546468D02*
X125454528Y-78546468D01*
X125930760Y-78175785D02*
X125902500Y-78178970D01*
X122791213Y-77376976D02*
X122782967Y-77374091D01*
X121474075Y-78477710D02*
X121402777Y-78452762D01*
X122333277Y-77403444D02*
X122332299Y-77412126D01*
X122068548Y-78477710D02*
X121993486Y-78486167D01*
X122297406Y-78295202D02*
X122257218Y-78359161D01*
X125291279Y-78613008D02*
X125211601Y-78663073D01*
X122812320Y-77403444D02*
X122809435Y-77395198D01*
X122362630Y-77374091D02*
X122354384Y-77376976D01*
X125449500Y-78284460D02*
X125438963Y-78377970D01*
X122340810Y-77387801D02*
X122336162Y-77395198D01*
X121211812Y-78148842D02*
X121211812Y-77968653D01*
X122940305Y-77856046D02*
X122886892Y-77802633D01*
X122813299Y-77592314D02*
X122813299Y-77412126D01*
X125438963Y-78377970D02*
X125407884Y-78466790D01*
X125462076Y-77990396D02*
X125452684Y-78017239D01*
X121993486Y-78486167D02*
X121549137Y-78486167D01*
X123643948Y-77589140D02*
X123303448Y-77929640D01*
X124509683Y-77946207D02*
X124485603Y-77931076D01*
X121197123Y-77938152D02*
X121189726Y-77933504D01*
X126156500Y-77918500D02*
X126128239Y-77921684D01*
X123303448Y-77929640D02*
X123150624Y-77929640D01*
X123150624Y-77929640D02*
X123075562Y-77921182D01*
X125477207Y-77966316D02*
X125462076Y-77990396D01*
X124649180Y-78546468D02*
X124599115Y-78466790D01*
X125521396Y-77931076D02*
X125497316Y-77946207D01*
X121172799Y-77929640D02*
X120735241Y-77929640D01*
X126042076Y-77990396D02*
X126032684Y-78017239D01*
X120735241Y-77929640D02*
X120394741Y-78270140D01*
X125747792Y-77966316D02*
X125727683Y-77946207D01*
X123004264Y-77896234D02*
X122940305Y-77856046D01*
X125874239Y-78175785D02*
X125847396Y-78166393D01*
X123075562Y-77921182D02*
X123004264Y-77896234D01*
X122139846Y-78452762D02*
X122068548Y-78477710D01*
X121189726Y-77933504D02*
X121181480Y-77930619D01*
X125902500Y-78178970D02*
X125874239Y-78175785D01*
X126029500Y-78051970D02*
X126026315Y-78080230D01*
X124599115Y-78466790D02*
X124568036Y-78377970D01*
X125981683Y-78151262D02*
X125957603Y-78166393D01*
X126026315Y-78080230D02*
X126016923Y-78107073D01*
X126057207Y-77966316D02*
X126042076Y-77990396D01*
X124485603Y-77931076D02*
X124458760Y-77921684D01*
X121402777Y-78452762D02*
X121338818Y-78412574D01*
X121338818Y-78412574D02*
X121285405Y-78359161D01*
X125648500Y-77918500D02*
X125576500Y-77918500D01*
X122354384Y-77376976D02*
X122346987Y-77381624D01*
X125775500Y-78045500D02*
X125772315Y-78017239D01*
X122813299Y-77412126D02*
X122812320Y-77403444D01*
X121245217Y-78295202D02*
X121220269Y-78223904D01*
X125676760Y-77921684D02*
X125648500Y-77918500D01*
X124977728Y-78704689D02*
X124884218Y-78694152D01*
X124568036Y-78377970D02*
X124557500Y-78284460D01*
X125576500Y-77918500D02*
X125548239Y-77921684D01*
X126077316Y-77946207D02*
X126057207Y-77966316D01*
X122330812Y-77770140D02*
X122330812Y-78148842D01*
X125957603Y-78166393D02*
X125930760Y-78175785D01*
X124458760Y-77921684D02*
X124430500Y-77918500D01*
X122821756Y-77667376D02*
X122813299Y-77592314D01*
X119793813Y-78270140D02*
X118969740Y-78270140D01*
X122774286Y-77373113D02*
X122371312Y-77373113D01*
X124101140Y-77589140D02*
X123643948Y-77589140D01*
X125823316Y-78151262D02*
X125803207Y-78131153D01*
X125762923Y-77990396D02*
X125747792Y-77966316D01*
X124557500Y-78045500D02*
X124554315Y-78017239D01*
X122203805Y-78412574D02*
X122139846Y-78452762D01*
X120394741Y-78270140D02*
X119793813Y-78270140D01*
X121210833Y-77959972D02*
X121207948Y-77951726D01*
X121549137Y-78486167D02*
X121474075Y-78477710D01*
X125211601Y-78663073D02*
X125122781Y-78694152D01*
X121285405Y-78359161D02*
X121245217Y-78295202D01*
X125407884Y-78466790D02*
X125357819Y-78546468D01*
X125531180Y-77048320D02*
X125645620Y-77162760D01*
X124544923Y-77990396D02*
X124529792Y-77966316D01*
X126001792Y-78131153D02*
X125981683Y-78151262D01*
X122371312Y-77373113D02*
X122362630Y-77374091D01*
X121220269Y-78223904D02*
X121211812Y-78148842D01*
X124529792Y-77966316D02*
X124509683Y-77946207D01*
X124554315Y-78017239D02*
X124544923Y-77990396D01*
X125778684Y-78080230D02*
X125775500Y-78051970D01*
X125357819Y-78546468D02*
X125291279Y-78613008D01*
X122782967Y-77374091D02*
X122774286Y-77373113D01*
X125772315Y-78017239D02*
X125762923Y-77990396D01*
X122798610Y-77381624D02*
X122791213Y-77376976D01*
X122257218Y-78359161D02*
X122203805Y-78412574D01*
X128095000Y-77895000D02*
X128071500Y-77918500D01*
X125452684Y-78017239D02*
X125449500Y-78045500D01*
X125094440Y-77048320D02*
X125531180Y-77048320D01*
X126029500Y-78045500D02*
X126029500Y-78051970D01*
X124795398Y-78663073D02*
X124715720Y-78613008D01*
X125454528Y-78546468D02*
X125579580Y-78671520D01*
X124430500Y-77918500D02*
X124101140Y-77589140D01*
X126101396Y-77931076D02*
X126077316Y-77946207D01*
X122322354Y-78223904D02*
X122297406Y-78295202D01*
X122346987Y-77381624D02*
X122340810Y-77387801D01*
X125847396Y-78166393D02*
X125823316Y-78151262D01*
X128071500Y-77918500D02*
X126156500Y-77918500D01*
X124884218Y-78694152D02*
X124795398Y-78663073D01*
X122332299Y-77412126D02*
X122332299Y-77770140D01*
X122336162Y-77395198D02*
X122333277Y-77403444D01*
X122846704Y-77738674D02*
X122821756Y-77667376D01*
X122332299Y-77770140D02*
X122330812Y-77770140D01*
X125122781Y-78694152D02*
X125029271Y-78704689D01*
X121203300Y-77944329D02*
X121197123Y-77938152D01*
X122804787Y-77387801D02*
X122798610Y-77381624D01*
X125788076Y-78107073D02*
X125778684Y-78080230D01*
X124715720Y-78613008D02*
X124649180Y-78546468D01*
X121211812Y-77968653D02*
X121210833Y-77959972D01*
X125803207Y-78131153D02*
X125788076Y-78107073D01*
X122809435Y-77395198D02*
X122804787Y-77387801D01*
X122886892Y-77802633D02*
X122846704Y-77738674D01*
X121207948Y-77951726D02*
X121203300Y-77944329D01*
X122330812Y-78148842D02*
X122322354Y-78223904D01*
X126016923Y-78107073D02*
X126001792Y-78131153D01*
X125703603Y-77931076D02*
X125676760Y-77921684D01*
X128690000Y-77895000D02*
X128095000Y-77895000D01*
X126128239Y-77921684D02*
X126101396Y-77931076D01*
X121181480Y-77930619D02*
X121172799Y-77929640D01*
X126032684Y-78017239D02*
X126029500Y-78045500D01*
X125497316Y-77946207D02*
X125477207Y-77966316D01*
X125449500Y-78045500D02*
X125449500Y-78284460D01*
X125775500Y-78051970D02*
X125775500Y-78045500D01*
X122054917Y-76432575D02*
X122080972Y-76429640D01*
X121046341Y-76473724D02*
X121060290Y-76495924D01*
X121809182Y-77052670D02*
X121874243Y-76987609D01*
X121963886Y-76546726D02*
X121966821Y-76520671D01*
X121226589Y-77052670D02*
X121304496Y-77101622D01*
X122030170Y-76441235D02*
X122054917Y-76432575D01*
X121112576Y-76909702D02*
X121161528Y-76987609D01*
X121644429Y-77132011D02*
X121731275Y-77101622D01*
X121060290Y-76495924D02*
X121068950Y-76520671D01*
X121966821Y-76520671D02*
X121975481Y-76495924D01*
X122007970Y-76455184D02*
X122030170Y-76441235D01*
X121975481Y-76495924D02*
X121989430Y-76473724D01*
X120394741Y-76770140D02*
X120735241Y-76429640D01*
X120735241Y-76429640D02*
X120954800Y-76429640D01*
X121005601Y-76441235D02*
X121027801Y-76455184D01*
X121161528Y-76987609D02*
X121226589Y-77052670D01*
X121923195Y-76909702D02*
X121953584Y-76822856D01*
X121953584Y-76822856D02*
X121963886Y-76731425D01*
X121027801Y-76455184D02*
X121046341Y-76473724D01*
X121071886Y-76731425D02*
X121082187Y-76822856D01*
X120980854Y-76432575D02*
X121005601Y-76441235D01*
X120954800Y-76429640D02*
X120980854Y-76432575D01*
X124703068Y-75227000D02*
X128352000Y-75227000D01*
X121552998Y-77142313D02*
X121644429Y-77132011D01*
X121731275Y-77101622D02*
X121809182Y-77052670D01*
X121082187Y-76822856D02*
X121112576Y-76909702D01*
X118969740Y-76770140D02*
X120394741Y-76770140D01*
D30*
X127740000Y-75855000D02*
X127740000Y-75260000D01*
D28*
X121304496Y-77101622D02*
X121391342Y-77132011D01*
X121874243Y-76987609D02*
X121923195Y-76909702D01*
X121989430Y-76473724D02*
X122007970Y-76455184D01*
X123500428Y-76429640D02*
X124703068Y-75227000D01*
X121963886Y-76731425D02*
X121963886Y-76546726D01*
X121068950Y-76520671D02*
X121071886Y-76546726D01*
X121482773Y-77142313D02*
X121552998Y-77142313D01*
X121071886Y-76546726D02*
X121071886Y-76731425D01*
X121391342Y-77132011D02*
X121482773Y-77142313D01*
X128352000Y-75227000D02*
X128730000Y-75605000D01*
X122080972Y-76429640D02*
X123500428Y-76429640D01*
X121135100Y-80610060D02*
X122283040Y-81758000D01*
X125217333Y-81801062D02*
X125299780Y-81852866D01*
X125744927Y-82433744D02*
X125748500Y-82402035D01*
X122726681Y-82389486D02*
X122734656Y-82412277D01*
X123217343Y-82432722D02*
X123230189Y-82412277D01*
X125463500Y-82402035D02*
X125467072Y-82433744D01*
X122567553Y-81848640D02*
X122633337Y-81914424D01*
X124414178Y-81365690D02*
X124424595Y-81458139D01*
X123240868Y-81924555D02*
X123241485Y-81924555D01*
X125606000Y-82544535D02*
X125637709Y-82540962D01*
X123241485Y-81458139D02*
X123251901Y-81365690D01*
X124383451Y-81277878D02*
X124414178Y-81365690D01*
X124333954Y-81199104D02*
X124383451Y-81277878D01*
X125467072Y-82433744D02*
X125477611Y-82463863D01*
X124009135Y-81042679D02*
X124101584Y-81053096D01*
X122723978Y-82173459D02*
X122723978Y-82365493D01*
X122764576Y-82449796D02*
X122785021Y-82462642D01*
X122488779Y-81799143D02*
X122567553Y-81848640D01*
X123238164Y-82389486D02*
X123240868Y-82365493D01*
X124189396Y-81083823D02*
X124268170Y-81133320D01*
X120735800Y-80610060D02*
X121135100Y-80610060D01*
X125452597Y-82096073D02*
X125463500Y-82192833D01*
X125637709Y-82540962D02*
X125667828Y-82530423D01*
X127680000Y-81145000D02*
X128415000Y-81145000D01*
X122283040Y-81758000D02*
X122308518Y-81758000D01*
X124101584Y-81053096D02*
X124189396Y-81083823D01*
X124508429Y-81755297D02*
X124532423Y-81758000D01*
X124532423Y-81758000D02*
X125028666Y-81758000D01*
X125477611Y-82463863D02*
X125494589Y-82490882D01*
X126183333Y-81758000D02*
X128302000Y-81758000D01*
X123133040Y-82473321D02*
X123157033Y-82470617D01*
X122747502Y-82432722D02*
X122764576Y-82449796D01*
X125299780Y-81852866D02*
X125368633Y-81921719D01*
X122713561Y-82081010D02*
X122723978Y-82173459D01*
X124485638Y-81747322D02*
X124508429Y-81755297D01*
X122723978Y-82365493D02*
X122726681Y-82389486D01*
X125791562Y-82004166D02*
X125843366Y-81921719D01*
X122734656Y-82412277D02*
X122747502Y-82432722D01*
X123332125Y-81199104D02*
X123397909Y-81133320D01*
X125843366Y-81921719D02*
X125912219Y-81852866D01*
X123282628Y-81277878D02*
X123332125Y-81199104D01*
X123240868Y-82365493D02*
X123240868Y-81924555D01*
X125748500Y-82192833D02*
X125759402Y-82096073D01*
X123230189Y-82412277D02*
X123238164Y-82389486D01*
X128302000Y-81758000D02*
X128665000Y-81395000D01*
X125748500Y-82402035D02*
X125748500Y-82192833D01*
X125912219Y-81852866D02*
X125994666Y-81801062D01*
X122682834Y-81993198D02*
X122713561Y-82081010D01*
X125694847Y-82513445D02*
X125717410Y-82490882D01*
X123200269Y-82449796D02*
X123217343Y-82432722D01*
X125368633Y-81921719D02*
X125420437Y-82004166D01*
X125574290Y-82540962D02*
X125606000Y-82544535D01*
X122785021Y-82462642D02*
X122807812Y-82470617D01*
X124435273Y-81696957D02*
X124448119Y-81717402D01*
X124424595Y-81650172D02*
X124427298Y-81674166D01*
X123179824Y-82462642D02*
X123200269Y-82449796D01*
X125544171Y-82530423D02*
X125574290Y-82540962D01*
X128415000Y-81145000D02*
X128665000Y-81395000D01*
X122831806Y-82473321D02*
X123133040Y-82473321D01*
X125420437Y-82004166D02*
X125452597Y-82096073D01*
X122807812Y-82470617D02*
X122831806Y-82473321D01*
X125028666Y-81758000D02*
X125125426Y-81768902D01*
X124427298Y-81674166D02*
X124435273Y-81696957D01*
X122400967Y-81768416D02*
X122488779Y-81799143D01*
X123564495Y-81053096D02*
X123656944Y-81042679D01*
X125517152Y-82513445D02*
X125544171Y-82530423D01*
X123241485Y-81924555D02*
X123241485Y-81458139D01*
X122308518Y-81758000D02*
X122400967Y-81768416D01*
X120394741Y-80270140D02*
X120735241Y-80610640D01*
X124448119Y-81717402D02*
X124465193Y-81734476D01*
X123251901Y-81365690D02*
X123282628Y-81277878D01*
X125994666Y-81801062D02*
X126086573Y-81768902D01*
X125759402Y-82096073D02*
X125791562Y-82004166D01*
X125734388Y-82463863D02*
X125744927Y-82433744D01*
X125667828Y-82530423D02*
X125694847Y-82513445D01*
X123397909Y-81133320D02*
X123476683Y-81083823D01*
X123656944Y-81042679D02*
X124009135Y-81042679D01*
X124465193Y-81734476D02*
X124485638Y-81747322D01*
X118969740Y-80270140D02*
X120394741Y-80270140D01*
X125463500Y-82192833D02*
X125463500Y-82402035D01*
X123157033Y-82470617D02*
X123179824Y-82462642D01*
X126086573Y-81768902D02*
X126183333Y-81758000D01*
X124424595Y-81458139D02*
X124424595Y-81650172D01*
X125125426Y-81768902D02*
X125217333Y-81801062D01*
X124268170Y-81133320D02*
X124333954Y-81199104D01*
X125494589Y-82490882D02*
X125517152Y-82513445D01*
X125717410Y-82490882D02*
X125734388Y-82463863D01*
X123476683Y-81083823D02*
X123564495Y-81053096D01*
X122633337Y-81914424D02*
X122682834Y-81993198D01*
X122575577Y-79137981D02*
X122657708Y-79109242D01*
X126839500Y-79099500D02*
X126850626Y-79100753D01*
X126428720Y-79191180D02*
X126508398Y-79141115D01*
X122109766Y-79744439D02*
X122127477Y-79755567D01*
X122083847Y-79711937D02*
X122094975Y-79729648D01*
X126143500Y-79878275D02*
X126171760Y-79875090D01*
X126508398Y-79141115D02*
X126597218Y-79110036D01*
X126016500Y-79519728D02*
X126016500Y-79751275D01*
X126939500Y-79199500D02*
X127093500Y-79199500D01*
X122147220Y-79762476D02*
X122168006Y-79764818D01*
X121772485Y-79109242D02*
X121854616Y-79137981D01*
X126690728Y-79099500D02*
X126839500Y-79099500D01*
X127115194Y-79194548D02*
X127124674Y-79188591D01*
X125596271Y-79099500D02*
X125689781Y-79110036D01*
X127404709Y-79058286D02*
X127413383Y-79072090D01*
X126267315Y-79779535D02*
X126270500Y-79751275D01*
X122076938Y-79692194D02*
X122083847Y-79711937D01*
X126019684Y-79779535D02*
X126029076Y-79806378D01*
X128659500Y-79099500D02*
X128685000Y-79125000D01*
X122302716Y-79755567D02*
X122320427Y-79744439D01*
X121989821Y-79245803D02*
X122036115Y-79319480D01*
X127150709Y-78995110D02*
X127159383Y-78981306D01*
X122353255Y-79692194D02*
X122355597Y-79671409D01*
X126908325Y-79188591D02*
X126917805Y-79194548D01*
X126270500Y-79519728D02*
X126281036Y-79426218D01*
X127370089Y-78969779D02*
X127381616Y-78981306D01*
X125778601Y-79141115D02*
X125858279Y-79191180D01*
X118969740Y-78770140D02*
X120394741Y-78770140D01*
X126198603Y-79865698D02*
X126222683Y-79850567D01*
X126281036Y-79426218D02*
X126312115Y-79337398D01*
X127143500Y-79026697D02*
X127145325Y-79010498D01*
X127142246Y-79160626D02*
X127143500Y-79149500D01*
X126029076Y-79806378D02*
X126044207Y-79830458D01*
X121530052Y-79099500D02*
X121686018Y-79099500D01*
X127399325Y-79042898D02*
X127404709Y-79058286D01*
X122282973Y-79762476D02*
X122302716Y-79755567D01*
X127159383Y-78981306D02*
X127170910Y-78969779D01*
X126894451Y-79171194D02*
X126900408Y-79180674D01*
X127356285Y-78961105D02*
X127370089Y-78969779D01*
X127143500Y-79149500D02*
X127143500Y-79026697D01*
X121686018Y-79099500D02*
X121772485Y-79109242D01*
X127470302Y-79099500D02*
X127729500Y-79099500D01*
X120394741Y-78770140D02*
X120735241Y-79110640D01*
X122657708Y-79109242D02*
X122744175Y-79099500D01*
X121928293Y-79184275D02*
X121989821Y-79245803D01*
X127730000Y-79099000D02*
X127729500Y-79099500D01*
X126242792Y-79830458D02*
X126257923Y-79806378D01*
X127104626Y-79198246D02*
X127115194Y-79194548D01*
X126088396Y-79865698D02*
X126115239Y-79875090D01*
X127413383Y-79072090D02*
X127424910Y-79083617D01*
X126005963Y-79426218D02*
X126016500Y-79519728D01*
X122440372Y-79245803D02*
X122501900Y-79184275D01*
X122320427Y-79744439D02*
X122335218Y-79729648D01*
X126312115Y-79337398D02*
X126362180Y-79257720D01*
X122335218Y-79729648D02*
X122346346Y-79711937D01*
X127184714Y-78961105D02*
X127200102Y-78955721D01*
X127093500Y-79199500D02*
X127104626Y-79198246D01*
X126884548Y-79127805D02*
X126888246Y-79138373D01*
X127424910Y-79083617D02*
X127438714Y-79092291D01*
X126850626Y-79100753D02*
X126861194Y-79104451D01*
X121518912Y-79110640D02*
X121530052Y-79099500D01*
X122168006Y-79764818D02*
X122262188Y-79764818D01*
X127216302Y-78953895D02*
X127324698Y-78953895D01*
X127381616Y-78981306D02*
X127390290Y-78995110D01*
X127454102Y-79097675D02*
X127470302Y-79099500D01*
X122744175Y-79099500D02*
X125596271Y-79099500D01*
X126900408Y-79180674D02*
X126908325Y-79188591D01*
X126861194Y-79104451D02*
X126870674Y-79110408D01*
X127390290Y-78995110D02*
X127395674Y-79010498D01*
X125689781Y-79110036D02*
X125778601Y-79141115D01*
X122064854Y-79401611D02*
X122074597Y-79488078D01*
X126257923Y-79806378D02*
X126267315Y-79779535D01*
X125974884Y-79337398D02*
X126005963Y-79426218D01*
X127200102Y-78955721D02*
X127216302Y-78953895D01*
X126171760Y-79875090D02*
X126198603Y-79865698D01*
X127730000Y-78505000D02*
X127730000Y-79099000D01*
X126064316Y-79850567D02*
X126088396Y-79865698D01*
X126890753Y-79160626D02*
X126894451Y-79171194D01*
X122365339Y-79401611D02*
X122394078Y-79319480D01*
X122074597Y-79671409D02*
X122076938Y-79692194D01*
X127132591Y-79180674D02*
X127138548Y-79171194D01*
X122094975Y-79729648D02*
X122109766Y-79744439D01*
X127395674Y-79010498D02*
X127399325Y-79042898D01*
X122355597Y-79671409D02*
X122355597Y-79488078D01*
X127138548Y-79171194D02*
X127142246Y-79160626D01*
X122074597Y-79488078D02*
X122074597Y-79671409D01*
X126888246Y-79138373D02*
X126890753Y-79160626D01*
X127340897Y-78955721D02*
X127356285Y-78961105D01*
X126870674Y-79110408D02*
X126878591Y-79118325D01*
X120735241Y-79110640D02*
X121518912Y-79110640D01*
X127324698Y-78953895D02*
X127340897Y-78955721D01*
X122355597Y-79488078D02*
X122365339Y-79401611D01*
X126016500Y-79751275D02*
X126019684Y-79779535D01*
X121854616Y-79137981D02*
X121928293Y-79184275D01*
X122346346Y-79711937D02*
X122353255Y-79692194D01*
X126928373Y-79198246D02*
X126939500Y-79199500D01*
X126115239Y-79875090D02*
X126143500Y-79878275D01*
X122262188Y-79764818D02*
X122282973Y-79762476D01*
X127170910Y-78969779D02*
X127184714Y-78961105D01*
X126917805Y-79194548D02*
X126928373Y-79198246D01*
X126878591Y-79118325D02*
X126884548Y-79127805D01*
X126597218Y-79110036D02*
X126690728Y-79099500D01*
X126362180Y-79257720D02*
X126428720Y-79191180D01*
X122127477Y-79755567D02*
X122147220Y-79762476D01*
X127145325Y-79010498D02*
X127150709Y-78995110D01*
X122394078Y-79319480D02*
X122440372Y-79245803D01*
X122036115Y-79319480D02*
X122064854Y-79401611D01*
X126044207Y-79830458D02*
X126064316Y-79850567D01*
X125858279Y-79191180D02*
X125924819Y-79257720D01*
X125924819Y-79257720D02*
X125974884Y-79337398D01*
X127124674Y-79188591D02*
X127132591Y-79180674D01*
X122501900Y-79184275D02*
X122575577Y-79137981D01*
X126270500Y-79751275D02*
X126270500Y-79519728D01*
X127438714Y-79092291D02*
X127454102Y-79097675D01*
X126222683Y-79850567D02*
X126242792Y-79830458D01*
X127729500Y-79099500D02*
X128659500Y-79099500D01*
X121339846Y-77644046D02*
X121268548Y-77619098D01*
X123123841Y-77316376D02*
X123098893Y-77245078D01*
X120735241Y-77610640D02*
X120394741Y-77270140D01*
X121972799Y-78167167D02*
X121569825Y-78167167D01*
X121457218Y-77737647D02*
X121403805Y-77684234D01*
X122275562Y-77062570D02*
X122204264Y-77087518D01*
X122013299Y-77770140D02*
X122011812Y-77770140D01*
X121569825Y-78167167D02*
X121561143Y-78166189D01*
X121561143Y-78166189D02*
X121552897Y-78163304D01*
X124876500Y-78019728D02*
X124865963Y-77926218D01*
X121989726Y-78163304D02*
X121981480Y-78166189D01*
X124834884Y-77837398D02*
X124784819Y-77757720D01*
X124865963Y-77926218D02*
X124834884Y-77837398D01*
X125058603Y-78373112D02*
X125031760Y-78382504D01*
X122941333Y-77087518D02*
X122870035Y-77062570D01*
X122086892Y-77181119D02*
X122046704Y-77245078D01*
X123133277Y-77580308D02*
X123132299Y-77571627D01*
X125141036Y-77926218D02*
X125130500Y-78019728D01*
X123511812Y-77270140D02*
X123171312Y-77610640D01*
X127700500Y-77599500D02*
X125550728Y-77599500D01*
X122794973Y-77054113D02*
X122350624Y-77054113D01*
X123058705Y-77181119D02*
X123005292Y-77127706D01*
X125368398Y-77641115D02*
X125288720Y-77691180D01*
X125082683Y-78357981D02*
X125058603Y-78373112D01*
X123132299Y-77571627D02*
X123132299Y-77391438D01*
X121981480Y-78166189D02*
X121972799Y-78167167D01*
X122011812Y-78128154D02*
X122010833Y-78136836D01*
X122010833Y-78136836D02*
X122007948Y-78145082D01*
X123005292Y-77127706D02*
X122941333Y-77087518D01*
X121531790Y-78136836D02*
X121530812Y-78128154D01*
X119793813Y-77270140D02*
X118969740Y-77270140D01*
X122140305Y-77127706D02*
X122086892Y-77181119D01*
X122870035Y-77062570D02*
X122794973Y-77054113D01*
X122007948Y-78145082D02*
X122003300Y-78152479D01*
X125288720Y-77691180D02*
X125222180Y-77757720D01*
X123171312Y-77610640D02*
X123162630Y-77609661D01*
D30*
X127720000Y-76865000D02*
X127720000Y-77580000D01*
D28*
X123162630Y-77609661D02*
X123154384Y-77606776D01*
X124975239Y-78382504D02*
X124948396Y-78373112D01*
X122204264Y-77087518D02*
X122140305Y-77127706D01*
X123132299Y-77391438D02*
X123123841Y-77316376D01*
X125130500Y-78019728D02*
X125130500Y-78258689D01*
X122003300Y-78152479D02*
X121997123Y-78158656D01*
X121545500Y-78158656D02*
X121539323Y-78152479D01*
X125222180Y-77757720D02*
X125172115Y-77837398D01*
X128626000Y-76865000D02*
X128676000Y-76815000D01*
D30*
X127720000Y-77580000D02*
X127700500Y-77599500D01*
D28*
X123098893Y-77245078D02*
X123058705Y-77181119D01*
X121997123Y-78158656D02*
X121989726Y-78163304D01*
X123154384Y-77606776D02*
X123146987Y-77602128D01*
X125550728Y-77599500D02*
X125457218Y-77610036D01*
X125172115Y-77837398D02*
X125141036Y-77926218D01*
X125031760Y-78382504D02*
X125003500Y-78385689D01*
X121193486Y-77610640D02*
X120735241Y-77610640D01*
X121522354Y-77872904D02*
X121497406Y-77801606D01*
X122046704Y-77245078D02*
X122021756Y-77316376D01*
X125003500Y-78385689D02*
X124975239Y-78382504D01*
X125457218Y-77610036D02*
X125368398Y-77641115D01*
X125117923Y-78313792D02*
X125102792Y-78337872D01*
X123146987Y-77602128D02*
X123140810Y-77595951D01*
X123140810Y-77595951D02*
X123136162Y-77588554D01*
X128389137Y-77101863D02*
X128676000Y-76815000D01*
X125102792Y-78337872D02*
X125082683Y-78357981D01*
X121539323Y-78152479D02*
X121534675Y-78145082D01*
X122021756Y-77316376D02*
X122013299Y-77391438D01*
X123136162Y-77588554D02*
X123133277Y-77580308D01*
X124879684Y-78286949D02*
X124876500Y-78258689D01*
X122011812Y-77770140D02*
X122011812Y-78128154D01*
X124297239Y-77270140D02*
X123511812Y-77270140D01*
X124904207Y-78337872D02*
X124889076Y-78313792D01*
X124948396Y-78373112D02*
X124924316Y-78357981D01*
X121403805Y-77684234D02*
X121339846Y-77644046D01*
X127700500Y-77599500D02*
X127891500Y-77599500D01*
X121497406Y-77801606D02*
X121457218Y-77737647D01*
X127891500Y-77599500D02*
X128389137Y-77101863D01*
X124784819Y-77757720D02*
X124297239Y-77270140D01*
X121534675Y-78145082D02*
X121531790Y-78136836D01*
X121552897Y-78163304D02*
X121545500Y-78158656D01*
X124876500Y-78258689D02*
X124876500Y-78019728D01*
X125127315Y-78286949D02*
X125117923Y-78313792D01*
X124924316Y-78357981D02*
X124904207Y-78337872D01*
X122350624Y-77054113D02*
X122275562Y-77062570D01*
X124889076Y-78313792D02*
X124879684Y-78286949D01*
X121530812Y-78128154D02*
X121530812Y-77947966D01*
X120394741Y-77270140D02*
X119793813Y-77270140D01*
X121530812Y-77947966D02*
X121522354Y-77872904D01*
X122013299Y-77391438D02*
X122013299Y-77770140D01*
X121268548Y-77619098D02*
X121193486Y-77610640D01*
X125130500Y-78258689D02*
X125127315Y-78286949D01*
X117892740Y-72270140D02*
X118969740Y-72270140D01*
X116585960Y-74993572D02*
X116585960Y-74958040D01*
X116585960Y-73576920D02*
X117892740Y-72270140D01*
X116585960Y-74993572D02*
X116585960Y-73576920D01*
X118969740Y-75270140D02*
X120893600Y-75270140D01*
X120893600Y-75270140D02*
X121347940Y-74815800D01*
X121390886Y-76706227D02*
X121393821Y-76732281D01*
X124886432Y-74908000D02*
X127758000Y-74908000D01*
X121553854Y-76820377D02*
X121578601Y-76811717D01*
X124570932Y-74908000D02*
X124886432Y-74908000D01*
X121402481Y-76757028D02*
X121416430Y-76779228D01*
X118969740Y-75770140D02*
X120394741Y-75770140D01*
X121457170Y-76811717D02*
X121481917Y-76820377D01*
X121799589Y-76200282D02*
X121877496Y-76151330D01*
X121655187Y-76430096D02*
X121685576Y-76343250D01*
X121644886Y-76521527D02*
X121655187Y-76430096D01*
X127740000Y-74265000D02*
X127740000Y-74890000D01*
X122055773Y-76110640D02*
X123368292Y-76110640D01*
X121734528Y-76265343D02*
X121799589Y-76200282D01*
X121619341Y-76779228D02*
X121633290Y-76757028D01*
X127740000Y-74890000D02*
X127758000Y-74908000D01*
X121644886Y-76706227D02*
X121644886Y-76521527D01*
X121393821Y-76732281D02*
X121402481Y-76757028D01*
X121416430Y-76779228D02*
X121434970Y-76797768D01*
X121350195Y-76343250D02*
X121380584Y-76430096D01*
X121685576Y-76343250D02*
X121734528Y-76265343D01*
X121158275Y-76151330D02*
X121236182Y-76200282D01*
X121578601Y-76811717D02*
X121600801Y-76797768D01*
X121481917Y-76820377D02*
X121507972Y-76823313D01*
X121507972Y-76823313D02*
X121527800Y-76823313D01*
X121964342Y-76120941D02*
X122055773Y-76110640D01*
X121633290Y-76757028D02*
X121641950Y-76732281D01*
X121527800Y-76823313D02*
X121553854Y-76820377D01*
X127758000Y-74908000D02*
X128352000Y-74908000D01*
X121071429Y-76120941D02*
X121158275Y-76151330D01*
X123368292Y-76110640D02*
X124570932Y-74908000D01*
X121434970Y-76797768D02*
X121457170Y-76811717D01*
X121877496Y-76151330D02*
X121964342Y-76120941D01*
X121600801Y-76797768D02*
X121619341Y-76779228D01*
X121236182Y-76200282D02*
X121301243Y-76265343D01*
X121301243Y-76265343D02*
X121350195Y-76343250D01*
X121641950Y-76732281D02*
X121644886Y-76706227D01*
X121390886Y-76521527D02*
X121390886Y-76706227D01*
X121380584Y-76430096D02*
X121390886Y-76521527D01*
X120394741Y-75770140D02*
X120735241Y-76110640D01*
X128352000Y-74908000D02*
X128725000Y-74535000D01*
X120735241Y-76110640D02*
X120979998Y-76110640D01*
X120979998Y-76110640D02*
X121071429Y-76120941D01*
X139050000Y-68175000D02*
X139350000Y-68475000D01*
X138010000Y-68175000D02*
X139050000Y-68175000D01*
M02*
