M48
; DRILL file {KiCad 7.0.6+dfsg-1} date Thu 24 Aug 2023 06:37:57 PM CEST
; FORMAT={-:-/ absolute / metric / decimal}
; #@! TF.CreationDate,2023-08-24T18:37:57+02:00
; #@! TF.GenerationSoftware,Kicad,Pcbnew,7.0.6+dfsg-1
; #@! TF.FileFunction,Plated,1,4,PTH
FMAT,2
METRIC
; #@! TA.AperFunction,Plated,PTH,ViaDrill
T1C0.300
; #@! TA.AperFunction,Plated,PTH,ViaDrill
T2C0.400
; #@! TA.AperFunction,Plated,PTH,ComponentDrill
T3C0.700
; #@! TA.AperFunction,Plated,PTH,ComponentDrill
T4C0.900
; #@! TA.AperFunction,Plated,PTH,ComponentDrill
T5C0.920
; #@! TA.AperFunction,Plated,PTH,ComponentDrill
T6C1.000
; #@! TA.AperFunction,Plated,PTH,ComponentDrill
T7C2.300
%
G90
G05
T1
X41.163Y-60.883
X41.163Y-62.583
X41.163Y-99.871
X41.163Y-101.571
X41.163Y-138.859
X41.163Y-140.559
X41.163Y-177.847
X41.163Y-179.547
X41.163Y-216.835
X41.163Y-218.535
X41.843Y-58.943
X41.843Y-97.931
X41.843Y-136.919
X41.843Y-175.907
X41.843Y-214.895
X42.853Y-59.653
X42.853Y-98.641
X42.853Y-137.629
X42.853Y-176.617
X42.853Y-215.605
X42.898Y-62.014
X42.898Y-101.001
X42.898Y-139.989
X42.898Y-178.977
X42.898Y-217.965
X42.973Y-63.528
X42.973Y-64.378
X42.973Y-102.516
X42.973Y-103.366
X42.973Y-141.504
X42.973Y-142.354
X42.973Y-180.492
X42.973Y-181.342
X42.973Y-219.48
X42.973Y-220.33
X45.183Y-62.553
X45.183Y-101.541
X45.183Y-140.529
X45.183Y-179.517
X45.183Y-218.505
X47.883Y-71.713
X47.883Y-110.701
X47.883Y-149.689
X47.883Y-188.677
X47.883Y-227.665
X48.783Y-68.423
X48.783Y-107.411
X48.783Y-146.399
X48.783Y-185.387
X48.783Y-224.375
X49.293Y-62.593
X49.293Y-101.581
X49.293Y-140.569
X49.293Y-179.557
X49.293Y-218.545
X49.343Y-55.933
X49.343Y-94.921
X49.343Y-133.909
X49.343Y-172.897
X49.343Y-211.885
X49.678Y-60.463
X49.678Y-99.451
X49.678Y-138.439
X49.678Y-177.427
X49.678Y-216.415
X50.528Y-60.463
X50.528Y-99.451
X50.528Y-138.439
X50.528Y-177.427
X50.528Y-216.415
X58.973Y-70.713
X58.973Y-109.701
X58.973Y-148.689
X58.973Y-187.677
X58.973Y-226.665
X60.833Y-59.204
X60.833Y-98.192
X60.833Y-137.18
X60.833Y-176.168
X60.833Y-215.156
X61.434Y-58.602
X61.434Y-97.59
X61.434Y-136.578
X61.434Y-175.566
X61.434Y-214.554
X66.153Y-62.163
X66.153Y-101.151
X66.153Y-140.139
X66.153Y-179.127
X66.153Y-218.115
X66.263Y-60.163
X66.263Y-99.151
X66.263Y-138.139
X66.263Y-177.127
X66.263Y-216.115
X68.493Y-62.623
X68.493Y-101.611
X68.493Y-140.599
X68.493Y-179.587
X68.493Y-218.575
X70.253Y-62.523
X70.253Y-101.511
X70.253Y-140.499
X70.253Y-179.487
X70.253Y-218.475
X74.393Y-62.563
X74.393Y-101.551
X74.393Y-140.539
X74.393Y-179.527
X74.393Y-218.515
X74.423Y-55.803
X74.423Y-94.791
X74.423Y-133.779
X74.423Y-172.767
X74.423Y-211.755
X74.688Y-60.473
X74.688Y-99.461
X74.688Y-138.449
X74.688Y-177.437
X74.688Y-216.425
X75.538Y-60.473
X75.538Y-99.461
X75.538Y-138.449
X75.538Y-177.437
X75.538Y-216.425
X78.443Y-62.293
X78.443Y-101.281
X78.443Y-140.269
X78.443Y-179.257
X78.443Y-218.245
X103.773Y-60.883
X103.773Y-62.583
X103.773Y-99.871
X103.773Y-101.571
X103.773Y-138.859
X103.773Y-140.559
X103.773Y-177.847
X103.773Y-179.547
X103.773Y-216.835
X103.773Y-218.535
X104.453Y-58.943
X104.453Y-97.931
X104.453Y-136.919
X104.453Y-175.907
X104.453Y-214.895
X105.463Y-59.653
X105.463Y-98.641
X105.463Y-137.629
X105.463Y-176.617
X105.463Y-215.605
X105.508Y-62.014
X105.508Y-101.001
X105.508Y-139.989
X105.508Y-178.977
X105.508Y-217.965
X105.583Y-63.528
X105.583Y-64.378
X105.583Y-102.516
X105.583Y-103.366
X105.583Y-141.504
X105.583Y-142.354
X105.583Y-180.492
X105.583Y-181.342
X105.583Y-219.48
X105.583Y-220.33
X107.793Y-62.553
X107.793Y-101.541
X107.793Y-140.529
X107.793Y-179.517
X107.793Y-218.505
X110.493Y-71.713
X110.493Y-110.701
X110.493Y-149.689
X110.493Y-188.677
X110.493Y-227.665
X111.393Y-68.423
X111.393Y-107.411
X111.393Y-146.399
X111.393Y-185.387
X111.393Y-224.375
X111.903Y-62.593
X111.903Y-101.581
X111.903Y-140.569
X111.903Y-179.557
X111.903Y-218.545
X111.953Y-55.933
X111.953Y-94.921
X111.953Y-133.909
X111.953Y-172.897
X111.953Y-211.885
X112.288Y-60.463
X112.288Y-99.451
X112.288Y-138.439
X112.288Y-177.427
X112.288Y-216.415
X113.138Y-60.463
X113.138Y-99.451
X113.138Y-138.439
X113.138Y-177.427
X113.138Y-216.415
X121.583Y-70.713
X121.583Y-109.701
X121.583Y-148.689
X121.583Y-187.677
X121.583Y-226.665
X123.443Y-59.204
X123.443Y-98.192
X123.443Y-137.18
X123.443Y-176.168
X123.443Y-215.156
X124.044Y-58.602
X124.044Y-97.59
X124.044Y-136.578
X124.044Y-175.566
X124.044Y-214.554
X128.763Y-62.163
X128.763Y-101.151
X128.763Y-140.139
X128.763Y-179.127
X128.763Y-218.115
X128.873Y-60.163
X128.873Y-99.151
X128.873Y-138.139
X128.873Y-177.127
X128.873Y-216.115
X131.103Y-62.623
X131.103Y-101.611
X131.103Y-140.599
X131.103Y-179.587
X131.103Y-218.575
X132.863Y-62.523
X132.863Y-101.511
X132.863Y-140.499
X132.863Y-179.487
X132.863Y-218.475
X137.003Y-62.563
X137.003Y-101.551
X137.003Y-140.539
X137.003Y-179.527
X137.003Y-218.515
X137.033Y-55.803
X137.033Y-94.791
X137.033Y-133.779
X137.033Y-172.767
X137.033Y-211.755
X137.298Y-60.473
X137.298Y-99.461
X137.298Y-138.449
X137.298Y-177.437
X137.298Y-216.425
X138.148Y-60.473
X138.148Y-99.461
X138.148Y-138.449
X138.148Y-177.437
X138.148Y-216.425
X141.053Y-62.293
X141.053Y-101.281
X141.053Y-140.269
X141.053Y-179.257
X141.053Y-218.245
X166.383Y-60.883
X166.383Y-62.583
X166.383Y-99.871
X166.383Y-101.571
X166.383Y-138.859
X166.383Y-140.559
X166.383Y-177.847
X166.383Y-179.547
X166.383Y-216.835
X166.383Y-218.535
X167.063Y-58.943
X167.063Y-97.931
X167.063Y-136.919
X167.063Y-175.907
X167.063Y-214.895
X168.073Y-59.653
X168.073Y-98.641
X168.073Y-137.629
X168.073Y-176.617
X168.073Y-215.605
X168.118Y-62.014
X168.118Y-101.001
X168.118Y-139.989
X168.118Y-178.977
X168.118Y-217.965
X168.193Y-63.528
X168.193Y-64.378
X168.193Y-102.516
X168.193Y-103.366
X168.193Y-141.504
X168.193Y-142.354
X168.193Y-180.492
X168.193Y-181.342
X168.193Y-219.48
X168.193Y-220.33
X170.403Y-62.553
X170.403Y-101.541
X170.403Y-140.529
X170.403Y-179.517
X170.403Y-218.505
X173.103Y-71.713
X173.103Y-110.701
X173.103Y-149.689
X173.103Y-188.677
X173.103Y-227.665
X174.003Y-68.423
X174.003Y-107.411
X174.003Y-146.399
X174.003Y-185.387
X174.003Y-224.375
X174.513Y-62.593
X174.513Y-101.581
X174.513Y-140.569
X174.513Y-179.557
X174.513Y-218.545
X174.563Y-55.933
X174.563Y-94.921
X174.563Y-133.909
X174.563Y-172.897
X174.563Y-211.885
X174.898Y-60.463
X174.898Y-99.451
X174.898Y-138.439
X174.898Y-177.427
X174.898Y-216.415
X175.748Y-60.463
X175.748Y-99.451
X175.748Y-138.439
X175.748Y-177.427
X175.748Y-216.415
X184.193Y-70.713
X184.193Y-109.701
X184.193Y-148.689
X184.193Y-187.677
X184.193Y-226.665
X186.053Y-59.204
X186.053Y-98.192
X186.053Y-137.18
X186.053Y-176.168
X186.053Y-215.156
X186.654Y-58.602
X186.654Y-97.59
X186.654Y-136.578
X186.654Y-175.566
X186.654Y-214.554
X191.373Y-62.163
X191.373Y-101.151
X191.373Y-140.139
X191.373Y-179.127
X191.373Y-218.115
X191.483Y-60.163
X191.483Y-99.151
X191.483Y-138.139
X191.483Y-177.127
X191.483Y-216.115
X193.713Y-62.623
X193.713Y-101.611
X193.713Y-140.599
X193.713Y-179.587
X193.713Y-218.575
X195.473Y-62.523
X195.473Y-101.511
X195.473Y-140.499
X195.473Y-179.487
X195.473Y-218.475
X199.613Y-62.563
X199.613Y-101.551
X199.613Y-140.539
X199.613Y-179.527
X199.613Y-218.515
X199.643Y-55.803
X199.643Y-94.791
X199.643Y-133.779
X199.643Y-172.767
X199.643Y-211.755
X199.908Y-60.473
X199.908Y-99.461
X199.908Y-138.449
X199.908Y-177.437
X199.908Y-216.425
X200.758Y-60.473
X200.758Y-99.461
X200.758Y-138.449
X200.758Y-177.437
X200.758Y-216.425
X203.663Y-62.293
X203.663Y-101.281
X203.663Y-140.269
X203.663Y-179.257
X203.663Y-218.245
X228.993Y-60.883
X228.993Y-62.583
X228.993Y-99.871
X228.993Y-101.571
X228.993Y-138.859
X228.993Y-140.559
X228.993Y-177.847
X228.993Y-179.547
X228.993Y-216.835
X228.993Y-218.535
X229.673Y-58.943
X229.673Y-97.931
X229.673Y-136.919
X229.673Y-175.907
X229.673Y-214.895
X230.683Y-59.653
X230.683Y-98.641
X230.683Y-137.629
X230.683Y-176.617
X230.683Y-215.605
X230.728Y-62.014
X230.728Y-101.001
X230.728Y-139.989
X230.728Y-178.977
X230.728Y-217.965
X230.803Y-63.528
X230.803Y-64.378
X230.803Y-102.516
X230.803Y-103.366
X230.803Y-141.504
X230.803Y-142.354
X230.803Y-180.492
X230.803Y-181.342
X230.803Y-219.48
X230.803Y-220.33
X233.013Y-62.553
X233.013Y-101.541
X233.013Y-140.529
X233.013Y-179.517
X233.013Y-218.505
X235.713Y-71.713
X235.713Y-110.701
X235.713Y-149.689
X235.713Y-188.677
X235.713Y-227.665
X236.613Y-68.423
X236.613Y-107.411
X236.613Y-146.399
X236.613Y-185.387
X236.613Y-224.375
X237.123Y-62.593
X237.123Y-101.581
X237.123Y-140.569
X237.123Y-179.557
X237.123Y-218.545
X237.173Y-55.933
X237.173Y-94.921
X237.173Y-133.909
X237.173Y-172.897
X237.173Y-211.885
X237.508Y-60.463
X237.508Y-99.451
X237.508Y-138.439
X237.508Y-177.427
X237.508Y-216.415
X238.358Y-60.463
X238.358Y-99.451
X238.358Y-138.439
X238.358Y-177.427
X238.358Y-216.415
X246.803Y-70.713
X246.803Y-109.701
X246.803Y-148.689
X246.803Y-187.677
X246.803Y-226.665
X248.663Y-59.204
X248.663Y-98.192
X248.663Y-137.18
X248.663Y-176.168
X248.663Y-215.156
X249.264Y-58.602
X249.264Y-97.59
X249.264Y-136.578
X249.264Y-175.566
X249.264Y-214.554
X253.983Y-62.163
X253.983Y-101.151
X253.983Y-140.139
X253.983Y-179.127
X253.983Y-218.115
X254.093Y-60.163
X254.093Y-99.151
X254.093Y-138.139
X254.093Y-177.127
X254.093Y-216.115
X256.323Y-62.623
X256.323Y-101.611
X256.323Y-140.599
X256.323Y-179.587
X256.323Y-218.575
X258.083Y-62.523
X258.083Y-101.511
X258.083Y-140.499
X258.083Y-179.487
X258.083Y-218.475
X262.223Y-62.563
X262.223Y-101.551
X262.223Y-140.539
X262.223Y-179.527
X262.223Y-218.515
X262.253Y-55.803
X262.253Y-94.791
X262.253Y-133.779
X262.253Y-172.767
X262.253Y-211.755
X262.518Y-60.473
X262.518Y-99.461
X262.518Y-138.449
X262.518Y-177.437
X262.518Y-216.425
X263.368Y-60.473
X263.368Y-99.461
X263.368Y-138.449
X263.368Y-177.437
X263.368Y-216.425
X266.273Y-62.293
X266.273Y-101.281
X266.273Y-140.269
X266.273Y-179.257
X266.273Y-218.245
T2
X41.881Y-45.25
X41.881Y-84.238
X41.881Y-123.226
X41.881Y-162.214
X41.881Y-201.202
X44.259Y-41.975
X44.259Y-80.963
X44.259Y-119.951
X44.259Y-158.939
X44.259Y-197.927
X104.491Y-45.25
X104.491Y-84.238
X104.491Y-123.226
X104.491Y-162.214
X104.491Y-201.202
X106.869Y-41.975
X106.869Y-80.963
X106.869Y-119.951
X106.869Y-158.939
X106.869Y-197.927
X167.101Y-45.25
X167.101Y-84.238
X167.101Y-123.226
X167.101Y-162.214
X167.101Y-201.202
X169.479Y-41.975
X169.479Y-80.963
X169.479Y-119.951
X169.479Y-158.939
X169.479Y-197.927
X229.711Y-45.25
X229.711Y-84.238
X229.711Y-123.226
X229.711Y-162.214
X229.711Y-201.202
X232.089Y-41.975
X232.089Y-80.963
X232.089Y-119.951
X232.089Y-158.939
X232.089Y-197.927
T3
X38.653Y-70.423
X38.653Y-109.411
X38.653Y-148.399
X38.653Y-187.387
X38.653Y-226.375
X43.733Y-70.423
X43.733Y-109.411
X43.733Y-148.399
X43.733Y-187.387
X43.733Y-226.375
X46.273Y-70.423
X46.273Y-109.411
X46.273Y-148.399
X46.273Y-187.387
X46.273Y-226.375
X101.263Y-70.423
X101.263Y-109.411
X101.263Y-148.399
X101.263Y-187.387
X101.263Y-226.375
X106.343Y-70.423
X106.343Y-109.411
X106.343Y-148.399
X106.343Y-187.387
X106.343Y-226.375
X108.883Y-70.423
X108.883Y-109.411
X108.883Y-148.399
X108.883Y-187.387
X108.883Y-226.375
X163.873Y-70.423
X163.873Y-109.411
X163.873Y-148.399
X163.873Y-187.387
X163.873Y-226.375
X168.953Y-70.423
X168.953Y-109.411
X168.953Y-148.399
X168.953Y-187.387
X168.953Y-226.375
X171.493Y-70.423
X171.493Y-109.411
X171.493Y-148.399
X171.493Y-187.387
X171.493Y-226.375
X226.483Y-70.423
X226.483Y-109.411
X226.483Y-148.399
X226.483Y-187.387
X226.483Y-226.375
X231.563Y-70.423
X231.563Y-109.411
X231.563Y-148.399
X231.563Y-187.387
X231.563Y-226.375
X234.103Y-70.423
X234.103Y-109.411
X234.103Y-148.399
X234.103Y-187.387
X234.103Y-226.375
T4
X52.319Y-66.075
X52.319Y-105.063
X52.319Y-144.051
X52.319Y-183.039
X52.319Y-222.027
X54.859Y-66.075
X54.859Y-105.063
X54.859Y-144.051
X54.859Y-183.039
X54.859Y-222.027
X57.219Y-66.075
X57.219Y-105.063
X57.219Y-144.051
X57.219Y-183.039
X57.219Y-222.027
X59.759Y-66.075
X59.759Y-105.063
X59.759Y-144.051
X59.759Y-183.039
X59.759Y-222.027
X62.119Y-66.075
X62.119Y-105.063
X62.119Y-144.051
X62.119Y-183.039
X62.119Y-222.027
X64.659Y-66.075
X64.659Y-105.063
X64.659Y-144.051
X64.659Y-183.039
X64.659Y-222.027
X114.929Y-66.075
X114.929Y-105.063
X114.929Y-144.051
X114.929Y-183.039
X114.929Y-222.027
X117.469Y-66.075
X117.469Y-105.063
X117.469Y-144.051
X117.469Y-183.039
X117.469Y-222.027
X119.829Y-66.075
X119.829Y-105.063
X119.829Y-144.051
X119.829Y-183.039
X119.829Y-222.027
X122.369Y-66.075
X122.369Y-105.063
X122.369Y-144.051
X122.369Y-183.039
X122.369Y-222.027
X124.729Y-66.075
X124.729Y-105.063
X124.729Y-144.051
X124.729Y-183.039
X124.729Y-222.027
X127.269Y-66.075
X127.269Y-105.063
X127.269Y-144.051
X127.269Y-183.039
X127.269Y-222.027
X177.539Y-66.075
X177.539Y-105.063
X177.539Y-144.051
X177.539Y-183.039
X177.539Y-222.027
X180.079Y-66.075
X180.079Y-105.063
X180.079Y-144.051
X180.079Y-183.039
X180.079Y-222.027
X182.439Y-66.075
X182.439Y-105.063
X182.439Y-144.051
X182.439Y-183.039
X182.439Y-222.027
X184.979Y-66.075
X184.979Y-105.063
X184.979Y-144.051
X184.979Y-183.039
X184.979Y-222.027
X187.339Y-66.075
X187.339Y-105.063
X187.339Y-144.051
X187.339Y-183.039
X187.339Y-222.027
X189.879Y-66.075
X189.879Y-105.063
X189.879Y-144.051
X189.879Y-183.039
X189.879Y-222.027
X240.149Y-66.075
X240.149Y-105.063
X240.149Y-144.051
X240.149Y-183.039
X240.149Y-222.027
X242.689Y-66.075
X242.689Y-105.063
X242.689Y-144.051
X242.689Y-183.039
X242.689Y-222.027
X245.049Y-66.075
X245.049Y-105.063
X245.049Y-144.051
X245.049Y-183.039
X245.049Y-222.027
X247.589Y-66.075
X247.589Y-105.063
X247.589Y-144.051
X247.589Y-183.039
X247.589Y-222.027
X249.949Y-66.075
X249.949Y-105.063
X249.949Y-144.051
X249.949Y-183.039
X249.949Y-222.027
X252.489Y-66.075
X252.489Y-105.063
X252.489Y-144.051
X252.489Y-183.039
X252.489Y-222.027
T5
X42.559Y-53.675
X42.559Y-92.663
X42.559Y-131.651
X42.559Y-170.639
X42.559Y-209.627
X45.059Y-53.675
X45.059Y-92.663
X45.059Y-131.651
X45.059Y-170.639
X45.059Y-209.627
X47.059Y-53.675
X47.059Y-92.663
X47.059Y-131.651
X47.059Y-170.639
X47.059Y-209.627
X49.559Y-53.675
X49.559Y-92.663
X49.559Y-131.651
X49.559Y-170.639
X49.559Y-209.627
X68.583Y-53.761
X68.583Y-92.749
X68.583Y-131.737
X68.583Y-170.725
X68.583Y-209.713
X71.083Y-53.761
X71.083Y-92.749
X71.083Y-131.737
X71.083Y-170.725
X71.083Y-209.713
X73.083Y-53.761
X73.083Y-92.749
X73.083Y-131.737
X73.083Y-170.725
X73.083Y-209.713
X75.583Y-53.761
X75.583Y-92.749
X75.583Y-131.737
X75.583Y-170.725
X75.583Y-209.713
X105.169Y-53.675
X105.169Y-92.663
X105.169Y-131.651
X105.169Y-170.639
X105.169Y-209.627
X107.669Y-53.675
X107.669Y-92.663
X107.669Y-131.651
X107.669Y-170.639
X107.669Y-209.627
X109.669Y-53.675
X109.669Y-92.663
X109.669Y-131.651
X109.669Y-170.639
X109.669Y-209.627
X112.169Y-53.675
X112.169Y-92.663
X112.169Y-131.651
X112.169Y-170.639
X112.169Y-209.627
X131.193Y-53.761
X131.193Y-92.749
X131.193Y-131.737
X131.193Y-170.725
X131.193Y-209.713
X133.693Y-53.761
X133.693Y-92.749
X133.693Y-131.737
X133.693Y-170.725
X133.693Y-209.713
X135.693Y-53.761
X135.693Y-92.749
X135.693Y-131.737
X135.693Y-170.725
X135.693Y-209.713
X138.193Y-53.761
X138.193Y-92.749
X138.193Y-131.737
X138.193Y-170.725
X138.193Y-209.713
X167.779Y-53.675
X167.779Y-92.663
X167.779Y-131.651
X167.779Y-170.639
X167.779Y-209.627
X170.279Y-53.675
X170.279Y-92.663
X170.279Y-131.651
X170.279Y-170.639
X170.279Y-209.627
X172.279Y-53.675
X172.279Y-92.663
X172.279Y-131.651
X172.279Y-170.639
X172.279Y-209.627
X174.779Y-53.675
X174.779Y-92.663
X174.779Y-131.651
X174.779Y-170.639
X174.779Y-209.627
X193.803Y-53.761
X193.803Y-92.749
X193.803Y-131.737
X193.803Y-170.725
X193.803Y-209.713
X196.303Y-53.761
X196.303Y-92.749
X196.303Y-131.737
X196.303Y-170.725
X196.303Y-209.713
X198.303Y-53.761
X198.303Y-92.749
X198.303Y-131.737
X198.303Y-170.725
X198.303Y-209.713
X200.803Y-53.761
X200.803Y-92.749
X200.803Y-131.737
X200.803Y-170.725
X200.803Y-209.713
X230.389Y-53.675
X230.389Y-92.663
X230.389Y-131.651
X230.389Y-170.639
X230.389Y-209.627
X232.889Y-53.675
X232.889Y-92.663
X232.889Y-131.651
X232.889Y-170.639
X232.889Y-209.627
X234.889Y-53.675
X234.889Y-92.663
X234.889Y-131.651
X234.889Y-170.639
X234.889Y-209.627
X237.389Y-53.675
X237.389Y-92.663
X237.389Y-131.651
X237.389Y-170.639
X237.389Y-209.627
X256.413Y-53.761
X256.413Y-92.749
X256.413Y-131.737
X256.413Y-170.725
X256.413Y-209.713
X258.913Y-53.761
X258.913Y-92.749
X258.913Y-131.737
X258.913Y-170.725
X258.913Y-209.713
X260.913Y-53.761
X260.913Y-92.749
X260.913Y-131.737
X260.913Y-170.725
X260.913Y-209.713
X263.413Y-53.761
X263.413Y-92.749
X263.413Y-131.737
X263.413Y-170.725
X263.413Y-209.713
T6
X32.657Y-42.585
X32.657Y-45.125
X32.657Y-47.665
X32.657Y-50.205
X32.657Y-52.745
X32.657Y-55.285
X32.657Y-57.825
X32.657Y-60.365
X32.657Y-62.905
X32.657Y-65.445
X32.657Y-67.985
X32.657Y-70.525
X32.657Y-81.573
X32.657Y-84.113
X32.657Y-86.653
X32.657Y-89.193
X32.657Y-91.733
X32.657Y-94.273
X32.657Y-96.813
X32.657Y-99.353
X32.657Y-101.893
X32.657Y-104.433
X32.657Y-106.973
X32.657Y-109.513
X32.657Y-120.561
X32.657Y-123.101
X32.657Y-125.641
X32.657Y-128.181
X32.657Y-130.721
X32.657Y-133.261
X32.657Y-135.801
X32.657Y-138.341
X32.657Y-140.881
X32.657Y-143.421
X32.657Y-145.961
X32.657Y-148.501
X32.657Y-159.549
X32.657Y-162.089
X32.657Y-164.629
X32.657Y-167.169
X32.657Y-169.709
X32.657Y-172.249
X32.657Y-174.789
X32.657Y-177.329
X32.657Y-179.869
X32.657Y-182.409
X32.657Y-184.949
X32.657Y-187.489
X32.657Y-198.537
X32.657Y-201.077
X32.657Y-203.617
X32.657Y-206.157
X32.657Y-208.697
X32.657Y-211.237
X32.657Y-213.777
X32.657Y-216.317
X32.657Y-218.857
X32.657Y-221.397
X32.657Y-223.937
X32.657Y-226.477
X35.197Y-42.585
X35.197Y-45.125
X35.197Y-47.665
X35.197Y-50.205
X35.197Y-52.745
X35.197Y-55.285
X35.197Y-57.825
X35.197Y-60.365
X35.197Y-62.905
X35.197Y-65.445
X35.197Y-67.985
X35.197Y-70.525
X35.197Y-81.573
X35.197Y-84.113
X35.197Y-86.653
X35.197Y-89.193
X35.197Y-91.733
X35.197Y-94.273
X35.197Y-96.813
X35.197Y-99.353
X35.197Y-101.893
X35.197Y-104.433
X35.197Y-106.973
X35.197Y-109.513
X35.197Y-120.561
X35.197Y-123.101
X35.197Y-125.641
X35.197Y-128.181
X35.197Y-130.721
X35.197Y-133.261
X35.197Y-135.801
X35.197Y-138.341
X35.197Y-140.881
X35.197Y-143.421
X35.197Y-145.961
X35.197Y-148.501
X35.197Y-159.549
X35.197Y-162.089
X35.197Y-164.629
X35.197Y-167.169
X35.197Y-169.709
X35.197Y-172.249
X35.197Y-174.789
X35.197Y-177.329
X35.197Y-179.869
X35.197Y-182.409
X35.197Y-184.949
X35.197Y-187.489
X35.197Y-198.537
X35.197Y-201.077
X35.197Y-203.617
X35.197Y-206.157
X35.197Y-208.697
X35.197Y-211.237
X35.197Y-213.777
X35.197Y-216.317
X35.197Y-218.857
X35.197Y-221.397
X35.197Y-223.937
X35.197Y-226.477
X81.171Y-59.095
X81.171Y-61.635
X81.171Y-64.175
X81.171Y-66.715
X81.171Y-69.255
X81.171Y-98.083
X81.171Y-100.623
X81.171Y-103.163
X81.171Y-105.703
X81.171Y-108.243
X81.171Y-137.071
X81.171Y-139.611
X81.171Y-142.151
X81.171Y-144.691
X81.171Y-147.231
X81.171Y-176.059
X81.171Y-178.599
X81.171Y-181.139
X81.171Y-183.679
X81.171Y-186.219
X81.171Y-215.047
X81.171Y-217.587
X81.171Y-220.127
X81.171Y-222.667
X81.171Y-225.207
X95.267Y-42.585
X95.267Y-45.125
X95.267Y-47.665
X95.267Y-50.205
X95.267Y-52.745
X95.267Y-55.285
X95.267Y-57.825
X95.267Y-60.365
X95.267Y-62.905
X95.267Y-65.445
X95.267Y-67.985
X95.267Y-70.525
X95.267Y-81.573
X95.267Y-84.113
X95.267Y-86.653
X95.267Y-89.193
X95.267Y-91.733
X95.267Y-94.273
X95.267Y-96.813
X95.267Y-99.353
X95.267Y-101.893
X95.267Y-104.433
X95.267Y-106.973
X95.267Y-109.513
X95.267Y-120.561
X95.267Y-123.101
X95.267Y-125.641
X95.267Y-128.181
X95.267Y-130.721
X95.267Y-133.261
X95.267Y-135.801
X95.267Y-138.341
X95.267Y-140.881
X95.267Y-143.421
X95.267Y-145.961
X95.267Y-148.501
X95.267Y-159.549
X95.267Y-162.089
X95.267Y-164.629
X95.267Y-167.169
X95.267Y-169.709
X95.267Y-172.249
X95.267Y-174.789
X95.267Y-177.329
X95.267Y-179.869
X95.267Y-182.409
X95.267Y-184.949
X95.267Y-187.489
X95.267Y-198.537
X95.267Y-201.077
X95.267Y-203.617
X95.267Y-206.157
X95.267Y-208.697
X95.267Y-211.237
X95.267Y-213.777
X95.267Y-216.317
X95.267Y-218.857
X95.267Y-221.397
X95.267Y-223.937
X95.267Y-226.477
X97.807Y-42.585
X97.807Y-45.125
X97.807Y-47.665
X97.807Y-50.205
X97.807Y-52.745
X97.807Y-55.285
X97.807Y-57.825
X97.807Y-60.365
X97.807Y-62.905
X97.807Y-65.445
X97.807Y-67.985
X97.807Y-70.525
X97.807Y-81.573
X97.807Y-84.113
X97.807Y-86.653
X97.807Y-89.193
X97.807Y-91.733
X97.807Y-94.273
X97.807Y-96.813
X97.807Y-99.353
X97.807Y-101.893
X97.807Y-104.433
X97.807Y-106.973
X97.807Y-109.513
X97.807Y-120.561
X97.807Y-123.101
X97.807Y-125.641
X97.807Y-128.181
X97.807Y-130.721
X97.807Y-133.261
X97.807Y-135.801
X97.807Y-138.341
X97.807Y-140.881
X97.807Y-143.421
X97.807Y-145.961
X97.807Y-148.501
X97.807Y-159.549
X97.807Y-162.089
X97.807Y-164.629
X97.807Y-167.169
X97.807Y-169.709
X97.807Y-172.249
X97.807Y-174.789
X97.807Y-177.329
X97.807Y-179.869
X97.807Y-182.409
X97.807Y-184.949
X97.807Y-187.489
X97.807Y-198.537
X97.807Y-201.077
X97.807Y-203.617
X97.807Y-206.157
X97.807Y-208.697
X97.807Y-211.237
X97.807Y-213.777
X97.807Y-216.317
X97.807Y-218.857
X97.807Y-221.397
X97.807Y-223.937
X97.807Y-226.477
X143.781Y-59.095
X143.781Y-61.635
X143.781Y-64.175
X143.781Y-66.715
X143.781Y-69.255
X143.781Y-98.083
X143.781Y-100.623
X143.781Y-103.163
X143.781Y-105.703
X143.781Y-108.243
X143.781Y-137.071
X143.781Y-139.611
X143.781Y-142.151
X143.781Y-144.691
X143.781Y-147.231
X143.781Y-176.059
X143.781Y-178.599
X143.781Y-181.139
X143.781Y-183.679
X143.781Y-186.219
X143.781Y-215.047
X143.781Y-217.587
X143.781Y-220.127
X143.781Y-222.667
X143.781Y-225.207
X157.877Y-42.585
X157.877Y-45.125
X157.877Y-47.665
X157.877Y-50.205
X157.877Y-52.745
X157.877Y-55.285
X157.877Y-57.825
X157.877Y-60.365
X157.877Y-62.905
X157.877Y-65.445
X157.877Y-67.985
X157.877Y-70.525
X157.877Y-81.573
X157.877Y-84.113
X157.877Y-86.653
X157.877Y-89.193
X157.877Y-91.733
X157.877Y-94.273
X157.877Y-96.813
X157.877Y-99.353
X157.877Y-101.893
X157.877Y-104.433
X157.877Y-106.973
X157.877Y-109.513
X157.877Y-120.561
X157.877Y-123.101
X157.877Y-125.641
X157.877Y-128.181
X157.877Y-130.721
X157.877Y-133.261
X157.877Y-135.801
X157.877Y-138.341
X157.877Y-140.881
X157.877Y-143.421
X157.877Y-145.961
X157.877Y-148.501
X157.877Y-159.549
X157.877Y-162.089
X157.877Y-164.629
X157.877Y-167.169
X157.877Y-169.709
X157.877Y-172.249
X157.877Y-174.789
X157.877Y-177.329
X157.877Y-179.869
X157.877Y-182.409
X157.877Y-184.949
X157.877Y-187.489
X157.877Y-198.537
X157.877Y-201.077
X157.877Y-203.617
X157.877Y-206.157
X157.877Y-208.697
X157.877Y-211.237
X157.877Y-213.777
X157.877Y-216.317
X157.877Y-218.857
X157.877Y-221.397
X157.877Y-223.937
X157.877Y-226.477
X160.417Y-42.585
X160.417Y-45.125
X160.417Y-47.665
X160.417Y-50.205
X160.417Y-52.745
X160.417Y-55.285
X160.417Y-57.825
X160.417Y-60.365
X160.417Y-62.905
X160.417Y-65.445
X160.417Y-67.985
X160.417Y-70.525
X160.417Y-81.573
X160.417Y-84.113
X160.417Y-86.653
X160.417Y-89.193
X160.417Y-91.733
X160.417Y-94.273
X160.417Y-96.813
X160.417Y-99.353
X160.417Y-101.893
X160.417Y-104.433
X160.417Y-106.973
X160.417Y-109.513
X160.417Y-120.561
X160.417Y-123.101
X160.417Y-125.641
X160.417Y-128.181
X160.417Y-130.721
X160.417Y-133.261
X160.417Y-135.801
X160.417Y-138.341
X160.417Y-140.881
X160.417Y-143.421
X160.417Y-145.961
X160.417Y-148.501
X160.417Y-159.549
X160.417Y-162.089
X160.417Y-164.629
X160.417Y-167.169
X160.417Y-169.709
X160.417Y-172.249
X160.417Y-174.789
X160.417Y-177.329
X160.417Y-179.869
X160.417Y-182.409
X160.417Y-184.949
X160.417Y-187.489
X160.417Y-198.537
X160.417Y-201.077
X160.417Y-203.617
X160.417Y-206.157
X160.417Y-208.697
X160.417Y-211.237
X160.417Y-213.777
X160.417Y-216.317
X160.417Y-218.857
X160.417Y-221.397
X160.417Y-223.937
X160.417Y-226.477
X206.391Y-59.095
X206.391Y-61.635
X206.391Y-64.175
X206.391Y-66.715
X206.391Y-69.255
X206.391Y-98.083
X206.391Y-100.623
X206.391Y-103.163
X206.391Y-105.703
X206.391Y-108.243
X206.391Y-137.071
X206.391Y-139.611
X206.391Y-142.151
X206.391Y-144.691
X206.391Y-147.231
X206.391Y-176.059
X206.391Y-178.599
X206.391Y-181.139
X206.391Y-183.679
X206.391Y-186.219
X206.391Y-215.047
X206.391Y-217.587
X206.391Y-220.127
X206.391Y-222.667
X206.391Y-225.207
X220.487Y-42.585
X220.487Y-45.125
X220.487Y-47.665
X220.487Y-50.205
X220.487Y-52.745
X220.487Y-55.285
X220.487Y-57.825
X220.487Y-60.365
X220.487Y-62.905
X220.487Y-65.445
X220.487Y-67.985
X220.487Y-70.525
X220.487Y-81.573
X220.487Y-84.113
X220.487Y-86.653
X220.487Y-89.193
X220.487Y-91.733
X220.487Y-94.273
X220.487Y-96.813
X220.487Y-99.353
X220.487Y-101.893
X220.487Y-104.433
X220.487Y-106.973
X220.487Y-109.513
X220.487Y-120.561
X220.487Y-123.101
X220.487Y-125.641
X220.487Y-128.181
X220.487Y-130.721
X220.487Y-133.261
X220.487Y-135.801
X220.487Y-138.341
X220.487Y-140.881
X220.487Y-143.421
X220.487Y-145.961
X220.487Y-148.501
X220.487Y-159.549
X220.487Y-162.089
X220.487Y-164.629
X220.487Y-167.169
X220.487Y-169.709
X220.487Y-172.249
X220.487Y-174.789
X220.487Y-177.329
X220.487Y-179.869
X220.487Y-182.409
X220.487Y-184.949
X220.487Y-187.489
X220.487Y-198.537
X220.487Y-201.077
X220.487Y-203.617
X220.487Y-206.157
X220.487Y-208.697
X220.487Y-211.237
X220.487Y-213.777
X220.487Y-216.317
X220.487Y-218.857
X220.487Y-221.397
X220.487Y-223.937
X220.487Y-226.477
X223.027Y-42.585
X223.027Y-45.125
X223.027Y-47.665
X223.027Y-50.205
X223.027Y-52.745
X223.027Y-55.285
X223.027Y-57.825
X223.027Y-60.365
X223.027Y-62.905
X223.027Y-65.445
X223.027Y-67.985
X223.027Y-70.525
X223.027Y-81.573
X223.027Y-84.113
X223.027Y-86.653
X223.027Y-89.193
X223.027Y-91.733
X223.027Y-94.273
X223.027Y-96.813
X223.027Y-99.353
X223.027Y-101.893
X223.027Y-104.433
X223.027Y-106.973
X223.027Y-109.513
X223.027Y-120.561
X223.027Y-123.101
X223.027Y-125.641
X223.027Y-128.181
X223.027Y-130.721
X223.027Y-133.261
X223.027Y-135.801
X223.027Y-138.341
X223.027Y-140.881
X223.027Y-143.421
X223.027Y-145.961
X223.027Y-148.501
X223.027Y-159.549
X223.027Y-162.089
X223.027Y-164.629
X223.027Y-167.169
X223.027Y-169.709
X223.027Y-172.249
X223.027Y-174.789
X223.027Y-177.329
X223.027Y-179.869
X223.027Y-182.409
X223.027Y-184.949
X223.027Y-187.489
X223.027Y-198.537
X223.027Y-201.077
X223.027Y-203.617
X223.027Y-206.157
X223.027Y-208.697
X223.027Y-211.237
X223.027Y-213.777
X223.027Y-216.317
X223.027Y-218.857
X223.027Y-221.397
X223.027Y-223.937
X223.027Y-226.477
X269.001Y-59.095
X269.001Y-61.635
X269.001Y-64.175
X269.001Y-66.715
X269.001Y-69.255
X269.001Y-98.083
X269.001Y-100.623
X269.001Y-103.163
X269.001Y-105.703
X269.001Y-108.243
X269.001Y-137.071
X269.001Y-139.611
X269.001Y-142.151
X269.001Y-144.691
X269.001Y-147.231
X269.001Y-176.059
X269.001Y-178.599
X269.001Y-181.139
X269.001Y-183.679
X269.001Y-186.219
X269.001Y-215.047
X269.001Y-217.587
X269.001Y-220.127
X269.001Y-222.667
X269.001Y-225.207
T7
X39.489Y-50.965
X39.489Y-89.953
X39.489Y-128.941
X39.489Y-167.929
X39.489Y-206.917
X52.629Y-50.965
X52.629Y-89.953
X52.629Y-128.941
X52.629Y-167.929
X52.629Y-206.917
X65.513Y-51.051
X65.513Y-90.039
X65.513Y-129.027
X65.513Y-168.015
X65.513Y-207.003
X78.653Y-51.051
X78.653Y-90.039
X78.653Y-129.027
X78.653Y-168.015
X78.653Y-207.003
X102.099Y-50.965
X102.099Y-89.953
X102.099Y-128.941
X102.099Y-167.929
X102.099Y-206.917
X115.239Y-50.965
X115.239Y-89.953
X115.239Y-128.941
X115.239Y-167.929
X115.239Y-206.917
X128.123Y-51.051
X128.123Y-90.039
X128.123Y-129.027
X128.123Y-168.015
X128.123Y-207.003
X141.263Y-51.051
X141.263Y-90.039
X141.263Y-129.027
X141.263Y-168.015
X141.263Y-207.003
X164.709Y-50.965
X164.709Y-89.953
X164.709Y-128.941
X164.709Y-167.929
X164.709Y-206.917
X177.849Y-50.965
X177.849Y-89.953
X177.849Y-128.941
X177.849Y-167.929
X177.849Y-206.917
X190.733Y-51.051
X190.733Y-90.039
X190.733Y-129.027
X190.733Y-168.015
X190.733Y-207.003
X203.873Y-51.051
X203.873Y-90.039
X203.873Y-129.027
X203.873Y-168.015
X203.873Y-207.003
X227.319Y-50.965
X227.319Y-89.953
X227.319Y-128.941
X227.319Y-167.929
X227.319Y-206.917
X240.459Y-50.965
X240.459Y-89.953
X240.459Y-128.941
X240.459Y-167.929
X240.459Y-206.917
X253.343Y-51.051
X253.343Y-90.039
X253.343Y-129.027
X253.343Y-168.015
X253.343Y-207.003
X266.483Y-51.051
X266.483Y-90.039
X266.483Y-129.027
X266.483Y-168.015
X266.483Y-207.003
T0
M30
