G04 #@! TF.GenerationSoftware,KiCad,Pcbnew,(5.1.4)-1*
G04 #@! TF.CreationDate,2019-12-30T10:25:26+01:00*
G04 #@! TF.ProjectId,HDMI,48444d49-2e6b-4696-9361-645f70636258,rev?*
G04 #@! TF.SameCoordinates,Original*
G04 #@! TF.FileFunction,Copper,L1,Top*
G04 #@! TF.FilePolarity,Positive*
%FSLAX46Y46*%
G04 Gerber Fmt 4.6, Leading zero omitted, Abs format (unit mm)*
G04 Created by KiCad (PCBNEW (5.1.4)-1) date 2019-12-30 10:25:26*
%MOMM*%
%LPD*%
G04 APERTURE LIST*
%ADD10R,1.150000X0.600000*%
%ADD11R,1.700000X1.700000*%
%ADD12O,1.700000X1.700000*%
%ADD13O,2.700000X1.300000*%
%ADD14O,2.300000X1.300000*%
%ADD15R,1.600000X0.250000*%
%ADD16C,0.100000*%
%ADD17C,0.950000*%
%ADD18R,1.600000X0.300000*%
%ADD19R,1.200000X0.900000*%
%ADD20C,1.425000*%
%ADD21C,1.350000*%
%ADD22C,0.800000*%
%ADD23C,0.250000*%
%ADD24C,0.500000*%
%ADD25C,0.200000*%
%ADD26C,0.254000*%
G04 APERTURE END LIST*
D10*
X137638000Y-84394000D03*
X137638000Y-85344000D03*
X137638000Y-86294000D03*
X140238000Y-86294000D03*
X140238000Y-84394000D03*
D11*
X143764000Y-67310000D03*
D12*
X146304000Y-67310000D03*
X143764000Y-69850000D03*
X146304000Y-69850000D03*
X143764000Y-72390000D03*
X146304000Y-72390000D03*
X143764000Y-74930000D03*
X146304000Y-74930000D03*
X143764000Y-77470000D03*
X146304000Y-77470000D03*
X143764000Y-80010000D03*
X146304000Y-80010000D03*
X143764000Y-82550000D03*
X146304000Y-82550000D03*
X143764000Y-85090000D03*
X146304000Y-85090000D03*
X143764000Y-87630000D03*
X146304000Y-87630000D03*
D13*
X121567000Y-69459000D03*
X121567000Y-84059000D03*
D14*
X115517000Y-84059000D03*
D15*
X122517000Y-81259000D03*
X122517000Y-80759000D03*
X122517000Y-80259000D03*
X122517000Y-79759000D03*
X122517000Y-79259000D03*
X122517000Y-78759000D03*
X122517000Y-78259000D03*
X122517000Y-77759000D03*
X122517000Y-77259000D03*
X122517000Y-76759000D03*
X122517000Y-76259000D03*
X122517000Y-75759000D03*
X122517000Y-75259000D03*
X122517000Y-74759000D03*
X122517000Y-74259000D03*
X122517000Y-73759000D03*
X122517000Y-73259000D03*
X122517000Y-72759000D03*
X122517000Y-72259000D03*
D14*
X115517000Y-69459000D03*
D16*
G36*
X128834779Y-69122144D02*
G01*
X128857834Y-69125563D01*
X128880443Y-69131227D01*
X128902387Y-69139079D01*
X128923457Y-69149044D01*
X128943448Y-69161026D01*
X128962168Y-69174910D01*
X128979438Y-69190562D01*
X128995090Y-69207832D01*
X129008974Y-69226552D01*
X129020956Y-69246543D01*
X129030921Y-69267613D01*
X129038773Y-69289557D01*
X129044437Y-69312166D01*
X129047856Y-69335221D01*
X129049000Y-69358500D01*
X129049000Y-69833500D01*
X129047856Y-69856779D01*
X129044437Y-69879834D01*
X129038773Y-69902443D01*
X129030921Y-69924387D01*
X129020956Y-69945457D01*
X129008974Y-69965448D01*
X128995090Y-69984168D01*
X128979438Y-70001438D01*
X128962168Y-70017090D01*
X128943448Y-70030974D01*
X128923457Y-70042956D01*
X128902387Y-70052921D01*
X128880443Y-70060773D01*
X128857834Y-70066437D01*
X128834779Y-70069856D01*
X128811500Y-70071000D01*
X128236500Y-70071000D01*
X128213221Y-70069856D01*
X128190166Y-70066437D01*
X128167557Y-70060773D01*
X128145613Y-70052921D01*
X128124543Y-70042956D01*
X128104552Y-70030974D01*
X128085832Y-70017090D01*
X128068562Y-70001438D01*
X128052910Y-69984168D01*
X128039026Y-69965448D01*
X128027044Y-69945457D01*
X128017079Y-69924387D01*
X128009227Y-69902443D01*
X128003563Y-69879834D01*
X128000144Y-69856779D01*
X127999000Y-69833500D01*
X127999000Y-69358500D01*
X128000144Y-69335221D01*
X128003563Y-69312166D01*
X128009227Y-69289557D01*
X128017079Y-69267613D01*
X128027044Y-69246543D01*
X128039026Y-69226552D01*
X128052910Y-69207832D01*
X128068562Y-69190562D01*
X128085832Y-69174910D01*
X128104552Y-69161026D01*
X128124543Y-69149044D01*
X128145613Y-69139079D01*
X128167557Y-69131227D01*
X128190166Y-69125563D01*
X128213221Y-69122144D01*
X128236500Y-69121000D01*
X128811500Y-69121000D01*
X128834779Y-69122144D01*
X128834779Y-69122144D01*
G37*
D17*
X128524000Y-69596000D03*
D16*
G36*
X130584779Y-69122144D02*
G01*
X130607834Y-69125563D01*
X130630443Y-69131227D01*
X130652387Y-69139079D01*
X130673457Y-69149044D01*
X130693448Y-69161026D01*
X130712168Y-69174910D01*
X130729438Y-69190562D01*
X130745090Y-69207832D01*
X130758974Y-69226552D01*
X130770956Y-69246543D01*
X130780921Y-69267613D01*
X130788773Y-69289557D01*
X130794437Y-69312166D01*
X130797856Y-69335221D01*
X130799000Y-69358500D01*
X130799000Y-69833500D01*
X130797856Y-69856779D01*
X130794437Y-69879834D01*
X130788773Y-69902443D01*
X130780921Y-69924387D01*
X130770956Y-69945457D01*
X130758974Y-69965448D01*
X130745090Y-69984168D01*
X130729438Y-70001438D01*
X130712168Y-70017090D01*
X130693448Y-70030974D01*
X130673457Y-70042956D01*
X130652387Y-70052921D01*
X130630443Y-70060773D01*
X130607834Y-70066437D01*
X130584779Y-70069856D01*
X130561500Y-70071000D01*
X129986500Y-70071000D01*
X129963221Y-70069856D01*
X129940166Y-70066437D01*
X129917557Y-70060773D01*
X129895613Y-70052921D01*
X129874543Y-70042956D01*
X129854552Y-70030974D01*
X129835832Y-70017090D01*
X129818562Y-70001438D01*
X129802910Y-69984168D01*
X129789026Y-69965448D01*
X129777044Y-69945457D01*
X129767079Y-69924387D01*
X129759227Y-69902443D01*
X129753563Y-69879834D01*
X129750144Y-69856779D01*
X129749000Y-69833500D01*
X129749000Y-69358500D01*
X129750144Y-69335221D01*
X129753563Y-69312166D01*
X129759227Y-69289557D01*
X129767079Y-69267613D01*
X129777044Y-69246543D01*
X129789026Y-69226552D01*
X129802910Y-69207832D01*
X129818562Y-69190562D01*
X129835832Y-69174910D01*
X129854552Y-69161026D01*
X129874543Y-69149044D01*
X129895613Y-69139079D01*
X129917557Y-69131227D01*
X129940166Y-69125563D01*
X129963221Y-69122144D01*
X129986500Y-69121000D01*
X130561500Y-69121000D01*
X130584779Y-69122144D01*
X130584779Y-69122144D01*
G37*
D17*
X130274000Y-69596000D03*
D16*
G36*
X126153779Y-67090144D02*
G01*
X126176834Y-67093563D01*
X126199443Y-67099227D01*
X126221387Y-67107079D01*
X126242457Y-67117044D01*
X126262448Y-67129026D01*
X126281168Y-67142910D01*
X126298438Y-67158562D01*
X126314090Y-67175832D01*
X126327974Y-67194552D01*
X126339956Y-67214543D01*
X126349921Y-67235613D01*
X126357773Y-67257557D01*
X126363437Y-67280166D01*
X126366856Y-67303221D01*
X126368000Y-67326500D01*
X126368000Y-67801500D01*
X126366856Y-67824779D01*
X126363437Y-67847834D01*
X126357773Y-67870443D01*
X126349921Y-67892387D01*
X126339956Y-67913457D01*
X126327974Y-67933448D01*
X126314090Y-67952168D01*
X126298438Y-67969438D01*
X126281168Y-67985090D01*
X126262448Y-67998974D01*
X126242457Y-68010956D01*
X126221387Y-68020921D01*
X126199443Y-68028773D01*
X126176834Y-68034437D01*
X126153779Y-68037856D01*
X126130500Y-68039000D01*
X125555500Y-68039000D01*
X125532221Y-68037856D01*
X125509166Y-68034437D01*
X125486557Y-68028773D01*
X125464613Y-68020921D01*
X125443543Y-68010956D01*
X125423552Y-67998974D01*
X125404832Y-67985090D01*
X125387562Y-67969438D01*
X125371910Y-67952168D01*
X125358026Y-67933448D01*
X125346044Y-67913457D01*
X125336079Y-67892387D01*
X125328227Y-67870443D01*
X125322563Y-67847834D01*
X125319144Y-67824779D01*
X125318000Y-67801500D01*
X125318000Y-67326500D01*
X125319144Y-67303221D01*
X125322563Y-67280166D01*
X125328227Y-67257557D01*
X125336079Y-67235613D01*
X125346044Y-67214543D01*
X125358026Y-67194552D01*
X125371910Y-67175832D01*
X125387562Y-67158562D01*
X125404832Y-67142910D01*
X125423552Y-67129026D01*
X125443543Y-67117044D01*
X125464613Y-67107079D01*
X125486557Y-67099227D01*
X125509166Y-67093563D01*
X125532221Y-67090144D01*
X125555500Y-67089000D01*
X126130500Y-67089000D01*
X126153779Y-67090144D01*
X126153779Y-67090144D01*
G37*
D17*
X125843000Y-67564000D03*
D16*
G36*
X124403779Y-67090144D02*
G01*
X124426834Y-67093563D01*
X124449443Y-67099227D01*
X124471387Y-67107079D01*
X124492457Y-67117044D01*
X124512448Y-67129026D01*
X124531168Y-67142910D01*
X124548438Y-67158562D01*
X124564090Y-67175832D01*
X124577974Y-67194552D01*
X124589956Y-67214543D01*
X124599921Y-67235613D01*
X124607773Y-67257557D01*
X124613437Y-67280166D01*
X124616856Y-67303221D01*
X124618000Y-67326500D01*
X124618000Y-67801500D01*
X124616856Y-67824779D01*
X124613437Y-67847834D01*
X124607773Y-67870443D01*
X124599921Y-67892387D01*
X124589956Y-67913457D01*
X124577974Y-67933448D01*
X124564090Y-67952168D01*
X124548438Y-67969438D01*
X124531168Y-67985090D01*
X124512448Y-67998974D01*
X124492457Y-68010956D01*
X124471387Y-68020921D01*
X124449443Y-68028773D01*
X124426834Y-68034437D01*
X124403779Y-68037856D01*
X124380500Y-68039000D01*
X123805500Y-68039000D01*
X123782221Y-68037856D01*
X123759166Y-68034437D01*
X123736557Y-68028773D01*
X123714613Y-68020921D01*
X123693543Y-68010956D01*
X123673552Y-67998974D01*
X123654832Y-67985090D01*
X123637562Y-67969438D01*
X123621910Y-67952168D01*
X123608026Y-67933448D01*
X123596044Y-67913457D01*
X123586079Y-67892387D01*
X123578227Y-67870443D01*
X123572563Y-67847834D01*
X123569144Y-67824779D01*
X123568000Y-67801500D01*
X123568000Y-67326500D01*
X123569144Y-67303221D01*
X123572563Y-67280166D01*
X123578227Y-67257557D01*
X123586079Y-67235613D01*
X123596044Y-67214543D01*
X123608026Y-67194552D01*
X123621910Y-67175832D01*
X123637562Y-67158562D01*
X123654832Y-67142910D01*
X123673552Y-67129026D01*
X123693543Y-67117044D01*
X123714613Y-67107079D01*
X123736557Y-67099227D01*
X123759166Y-67093563D01*
X123782221Y-67090144D01*
X123805500Y-67089000D01*
X124380500Y-67089000D01*
X124403779Y-67090144D01*
X124403779Y-67090144D01*
G37*
D17*
X124093000Y-67564000D03*
D16*
G36*
X139389779Y-65058144D02*
G01*
X139412834Y-65061563D01*
X139435443Y-65067227D01*
X139457387Y-65075079D01*
X139478457Y-65085044D01*
X139498448Y-65097026D01*
X139517168Y-65110910D01*
X139534438Y-65126562D01*
X139550090Y-65143832D01*
X139563974Y-65162552D01*
X139575956Y-65182543D01*
X139585921Y-65203613D01*
X139593773Y-65225557D01*
X139599437Y-65248166D01*
X139602856Y-65271221D01*
X139604000Y-65294500D01*
X139604000Y-65769500D01*
X139602856Y-65792779D01*
X139599437Y-65815834D01*
X139593773Y-65838443D01*
X139585921Y-65860387D01*
X139575956Y-65881457D01*
X139563974Y-65901448D01*
X139550090Y-65920168D01*
X139534438Y-65937438D01*
X139517168Y-65953090D01*
X139498448Y-65966974D01*
X139478457Y-65978956D01*
X139457387Y-65988921D01*
X139435443Y-65996773D01*
X139412834Y-66002437D01*
X139389779Y-66005856D01*
X139366500Y-66007000D01*
X138791500Y-66007000D01*
X138768221Y-66005856D01*
X138745166Y-66002437D01*
X138722557Y-65996773D01*
X138700613Y-65988921D01*
X138679543Y-65978956D01*
X138659552Y-65966974D01*
X138640832Y-65953090D01*
X138623562Y-65937438D01*
X138607910Y-65920168D01*
X138594026Y-65901448D01*
X138582044Y-65881457D01*
X138572079Y-65860387D01*
X138564227Y-65838443D01*
X138558563Y-65815834D01*
X138555144Y-65792779D01*
X138554000Y-65769500D01*
X138554000Y-65294500D01*
X138555144Y-65271221D01*
X138558563Y-65248166D01*
X138564227Y-65225557D01*
X138572079Y-65203613D01*
X138582044Y-65182543D01*
X138594026Y-65162552D01*
X138607910Y-65143832D01*
X138623562Y-65126562D01*
X138640832Y-65110910D01*
X138659552Y-65097026D01*
X138679543Y-65085044D01*
X138700613Y-65075079D01*
X138722557Y-65067227D01*
X138745166Y-65061563D01*
X138768221Y-65058144D01*
X138791500Y-65057000D01*
X139366500Y-65057000D01*
X139389779Y-65058144D01*
X139389779Y-65058144D01*
G37*
D17*
X139079000Y-65532000D03*
D16*
G36*
X141139779Y-65058144D02*
G01*
X141162834Y-65061563D01*
X141185443Y-65067227D01*
X141207387Y-65075079D01*
X141228457Y-65085044D01*
X141248448Y-65097026D01*
X141267168Y-65110910D01*
X141284438Y-65126562D01*
X141300090Y-65143832D01*
X141313974Y-65162552D01*
X141325956Y-65182543D01*
X141335921Y-65203613D01*
X141343773Y-65225557D01*
X141349437Y-65248166D01*
X141352856Y-65271221D01*
X141354000Y-65294500D01*
X141354000Y-65769500D01*
X141352856Y-65792779D01*
X141349437Y-65815834D01*
X141343773Y-65838443D01*
X141335921Y-65860387D01*
X141325956Y-65881457D01*
X141313974Y-65901448D01*
X141300090Y-65920168D01*
X141284438Y-65937438D01*
X141267168Y-65953090D01*
X141248448Y-65966974D01*
X141228457Y-65978956D01*
X141207387Y-65988921D01*
X141185443Y-65996773D01*
X141162834Y-66002437D01*
X141139779Y-66005856D01*
X141116500Y-66007000D01*
X140541500Y-66007000D01*
X140518221Y-66005856D01*
X140495166Y-66002437D01*
X140472557Y-65996773D01*
X140450613Y-65988921D01*
X140429543Y-65978956D01*
X140409552Y-65966974D01*
X140390832Y-65953090D01*
X140373562Y-65937438D01*
X140357910Y-65920168D01*
X140344026Y-65901448D01*
X140332044Y-65881457D01*
X140322079Y-65860387D01*
X140314227Y-65838443D01*
X140308563Y-65815834D01*
X140305144Y-65792779D01*
X140304000Y-65769500D01*
X140304000Y-65294500D01*
X140305144Y-65271221D01*
X140308563Y-65248166D01*
X140314227Y-65225557D01*
X140322079Y-65203613D01*
X140332044Y-65182543D01*
X140344026Y-65162552D01*
X140357910Y-65143832D01*
X140373562Y-65126562D01*
X140390832Y-65110910D01*
X140409552Y-65097026D01*
X140429543Y-65085044D01*
X140450613Y-65075079D01*
X140472557Y-65067227D01*
X140495166Y-65061563D01*
X140518221Y-65058144D01*
X140541500Y-65057000D01*
X141116500Y-65057000D01*
X141139779Y-65058144D01*
X141139779Y-65058144D01*
G37*
D17*
X140829000Y-65532000D03*
D16*
G36*
X137964779Y-87664144D02*
G01*
X137987834Y-87667563D01*
X138010443Y-87673227D01*
X138032387Y-87681079D01*
X138053457Y-87691044D01*
X138073448Y-87703026D01*
X138092168Y-87716910D01*
X138109438Y-87732562D01*
X138125090Y-87749832D01*
X138138974Y-87768552D01*
X138150956Y-87788543D01*
X138160921Y-87809613D01*
X138168773Y-87831557D01*
X138174437Y-87854166D01*
X138177856Y-87877221D01*
X138179000Y-87900500D01*
X138179000Y-88375500D01*
X138177856Y-88398779D01*
X138174437Y-88421834D01*
X138168773Y-88444443D01*
X138160921Y-88466387D01*
X138150956Y-88487457D01*
X138138974Y-88507448D01*
X138125090Y-88526168D01*
X138109438Y-88543438D01*
X138092168Y-88559090D01*
X138073448Y-88572974D01*
X138053457Y-88584956D01*
X138032387Y-88594921D01*
X138010443Y-88602773D01*
X137987834Y-88608437D01*
X137964779Y-88611856D01*
X137941500Y-88613000D01*
X137366500Y-88613000D01*
X137343221Y-88611856D01*
X137320166Y-88608437D01*
X137297557Y-88602773D01*
X137275613Y-88594921D01*
X137254543Y-88584956D01*
X137234552Y-88572974D01*
X137215832Y-88559090D01*
X137198562Y-88543438D01*
X137182910Y-88526168D01*
X137169026Y-88507448D01*
X137157044Y-88487457D01*
X137147079Y-88466387D01*
X137139227Y-88444443D01*
X137133563Y-88421834D01*
X137130144Y-88398779D01*
X137129000Y-88375500D01*
X137129000Y-87900500D01*
X137130144Y-87877221D01*
X137133563Y-87854166D01*
X137139227Y-87831557D01*
X137147079Y-87809613D01*
X137157044Y-87788543D01*
X137169026Y-87768552D01*
X137182910Y-87749832D01*
X137198562Y-87732562D01*
X137215832Y-87716910D01*
X137234552Y-87703026D01*
X137254543Y-87691044D01*
X137275613Y-87681079D01*
X137297557Y-87673227D01*
X137320166Y-87667563D01*
X137343221Y-87664144D01*
X137366500Y-87663000D01*
X137941500Y-87663000D01*
X137964779Y-87664144D01*
X137964779Y-87664144D01*
G37*
D17*
X137654000Y-88138000D03*
D16*
G36*
X136214779Y-87664144D02*
G01*
X136237834Y-87667563D01*
X136260443Y-87673227D01*
X136282387Y-87681079D01*
X136303457Y-87691044D01*
X136323448Y-87703026D01*
X136342168Y-87716910D01*
X136359438Y-87732562D01*
X136375090Y-87749832D01*
X136388974Y-87768552D01*
X136400956Y-87788543D01*
X136410921Y-87809613D01*
X136418773Y-87831557D01*
X136424437Y-87854166D01*
X136427856Y-87877221D01*
X136429000Y-87900500D01*
X136429000Y-88375500D01*
X136427856Y-88398779D01*
X136424437Y-88421834D01*
X136418773Y-88444443D01*
X136410921Y-88466387D01*
X136400956Y-88487457D01*
X136388974Y-88507448D01*
X136375090Y-88526168D01*
X136359438Y-88543438D01*
X136342168Y-88559090D01*
X136323448Y-88572974D01*
X136303457Y-88584956D01*
X136282387Y-88594921D01*
X136260443Y-88602773D01*
X136237834Y-88608437D01*
X136214779Y-88611856D01*
X136191500Y-88613000D01*
X135616500Y-88613000D01*
X135593221Y-88611856D01*
X135570166Y-88608437D01*
X135547557Y-88602773D01*
X135525613Y-88594921D01*
X135504543Y-88584956D01*
X135484552Y-88572974D01*
X135465832Y-88559090D01*
X135448562Y-88543438D01*
X135432910Y-88526168D01*
X135419026Y-88507448D01*
X135407044Y-88487457D01*
X135397079Y-88466387D01*
X135389227Y-88444443D01*
X135383563Y-88421834D01*
X135380144Y-88398779D01*
X135379000Y-88375500D01*
X135379000Y-87900500D01*
X135380144Y-87877221D01*
X135383563Y-87854166D01*
X135389227Y-87831557D01*
X135397079Y-87809613D01*
X135407044Y-87788543D01*
X135419026Y-87768552D01*
X135432910Y-87749832D01*
X135448562Y-87732562D01*
X135465832Y-87716910D01*
X135484552Y-87703026D01*
X135504543Y-87691044D01*
X135525613Y-87681079D01*
X135547557Y-87673227D01*
X135570166Y-87667563D01*
X135593221Y-87664144D01*
X135616500Y-87663000D01*
X136191500Y-87663000D01*
X136214779Y-87664144D01*
X136214779Y-87664144D01*
G37*
D17*
X135904000Y-88138000D03*
D16*
G36*
X139643779Y-87664144D02*
G01*
X139666834Y-87667563D01*
X139689443Y-87673227D01*
X139711387Y-87681079D01*
X139732457Y-87691044D01*
X139752448Y-87703026D01*
X139771168Y-87716910D01*
X139788438Y-87732562D01*
X139804090Y-87749832D01*
X139817974Y-87768552D01*
X139829956Y-87788543D01*
X139839921Y-87809613D01*
X139847773Y-87831557D01*
X139853437Y-87854166D01*
X139856856Y-87877221D01*
X139858000Y-87900500D01*
X139858000Y-88375500D01*
X139856856Y-88398779D01*
X139853437Y-88421834D01*
X139847773Y-88444443D01*
X139839921Y-88466387D01*
X139829956Y-88487457D01*
X139817974Y-88507448D01*
X139804090Y-88526168D01*
X139788438Y-88543438D01*
X139771168Y-88559090D01*
X139752448Y-88572974D01*
X139732457Y-88584956D01*
X139711387Y-88594921D01*
X139689443Y-88602773D01*
X139666834Y-88608437D01*
X139643779Y-88611856D01*
X139620500Y-88613000D01*
X139045500Y-88613000D01*
X139022221Y-88611856D01*
X138999166Y-88608437D01*
X138976557Y-88602773D01*
X138954613Y-88594921D01*
X138933543Y-88584956D01*
X138913552Y-88572974D01*
X138894832Y-88559090D01*
X138877562Y-88543438D01*
X138861910Y-88526168D01*
X138848026Y-88507448D01*
X138836044Y-88487457D01*
X138826079Y-88466387D01*
X138818227Y-88444443D01*
X138812563Y-88421834D01*
X138809144Y-88398779D01*
X138808000Y-88375500D01*
X138808000Y-87900500D01*
X138809144Y-87877221D01*
X138812563Y-87854166D01*
X138818227Y-87831557D01*
X138826079Y-87809613D01*
X138836044Y-87788543D01*
X138848026Y-87768552D01*
X138861910Y-87749832D01*
X138877562Y-87732562D01*
X138894832Y-87716910D01*
X138913552Y-87703026D01*
X138933543Y-87691044D01*
X138954613Y-87681079D01*
X138976557Y-87673227D01*
X138999166Y-87667563D01*
X139022221Y-87664144D01*
X139045500Y-87663000D01*
X139620500Y-87663000D01*
X139643779Y-87664144D01*
X139643779Y-87664144D01*
G37*
D17*
X139333000Y-88138000D03*
D16*
G36*
X141393779Y-87664144D02*
G01*
X141416834Y-87667563D01*
X141439443Y-87673227D01*
X141461387Y-87681079D01*
X141482457Y-87691044D01*
X141502448Y-87703026D01*
X141521168Y-87716910D01*
X141538438Y-87732562D01*
X141554090Y-87749832D01*
X141567974Y-87768552D01*
X141579956Y-87788543D01*
X141589921Y-87809613D01*
X141597773Y-87831557D01*
X141603437Y-87854166D01*
X141606856Y-87877221D01*
X141608000Y-87900500D01*
X141608000Y-88375500D01*
X141606856Y-88398779D01*
X141603437Y-88421834D01*
X141597773Y-88444443D01*
X141589921Y-88466387D01*
X141579956Y-88487457D01*
X141567974Y-88507448D01*
X141554090Y-88526168D01*
X141538438Y-88543438D01*
X141521168Y-88559090D01*
X141502448Y-88572974D01*
X141482457Y-88584956D01*
X141461387Y-88594921D01*
X141439443Y-88602773D01*
X141416834Y-88608437D01*
X141393779Y-88611856D01*
X141370500Y-88613000D01*
X140795500Y-88613000D01*
X140772221Y-88611856D01*
X140749166Y-88608437D01*
X140726557Y-88602773D01*
X140704613Y-88594921D01*
X140683543Y-88584956D01*
X140663552Y-88572974D01*
X140644832Y-88559090D01*
X140627562Y-88543438D01*
X140611910Y-88526168D01*
X140598026Y-88507448D01*
X140586044Y-88487457D01*
X140576079Y-88466387D01*
X140568227Y-88444443D01*
X140562563Y-88421834D01*
X140559144Y-88398779D01*
X140558000Y-88375500D01*
X140558000Y-87900500D01*
X140559144Y-87877221D01*
X140562563Y-87854166D01*
X140568227Y-87831557D01*
X140576079Y-87809613D01*
X140586044Y-87788543D01*
X140598026Y-87768552D01*
X140611910Y-87749832D01*
X140627562Y-87732562D01*
X140644832Y-87716910D01*
X140663552Y-87703026D01*
X140683543Y-87691044D01*
X140704613Y-87681079D01*
X140726557Y-87673227D01*
X140749166Y-87667563D01*
X140772221Y-87664144D01*
X140795500Y-87663000D01*
X141370500Y-87663000D01*
X141393779Y-87664144D01*
X141393779Y-87664144D01*
G37*
D17*
X141083000Y-88138000D03*
D16*
G36*
X124403779Y-65058144D02*
G01*
X124426834Y-65061563D01*
X124449443Y-65067227D01*
X124471387Y-65075079D01*
X124492457Y-65085044D01*
X124512448Y-65097026D01*
X124531168Y-65110910D01*
X124548438Y-65126562D01*
X124564090Y-65143832D01*
X124577974Y-65162552D01*
X124589956Y-65182543D01*
X124599921Y-65203613D01*
X124607773Y-65225557D01*
X124613437Y-65248166D01*
X124616856Y-65271221D01*
X124618000Y-65294500D01*
X124618000Y-65769500D01*
X124616856Y-65792779D01*
X124613437Y-65815834D01*
X124607773Y-65838443D01*
X124599921Y-65860387D01*
X124589956Y-65881457D01*
X124577974Y-65901448D01*
X124564090Y-65920168D01*
X124548438Y-65937438D01*
X124531168Y-65953090D01*
X124512448Y-65966974D01*
X124492457Y-65978956D01*
X124471387Y-65988921D01*
X124449443Y-65996773D01*
X124426834Y-66002437D01*
X124403779Y-66005856D01*
X124380500Y-66007000D01*
X123805500Y-66007000D01*
X123782221Y-66005856D01*
X123759166Y-66002437D01*
X123736557Y-65996773D01*
X123714613Y-65988921D01*
X123693543Y-65978956D01*
X123673552Y-65966974D01*
X123654832Y-65953090D01*
X123637562Y-65937438D01*
X123621910Y-65920168D01*
X123608026Y-65901448D01*
X123596044Y-65881457D01*
X123586079Y-65860387D01*
X123578227Y-65838443D01*
X123572563Y-65815834D01*
X123569144Y-65792779D01*
X123568000Y-65769500D01*
X123568000Y-65294500D01*
X123569144Y-65271221D01*
X123572563Y-65248166D01*
X123578227Y-65225557D01*
X123586079Y-65203613D01*
X123596044Y-65182543D01*
X123608026Y-65162552D01*
X123621910Y-65143832D01*
X123637562Y-65126562D01*
X123654832Y-65110910D01*
X123673552Y-65097026D01*
X123693543Y-65085044D01*
X123714613Y-65075079D01*
X123736557Y-65067227D01*
X123759166Y-65061563D01*
X123782221Y-65058144D01*
X123805500Y-65057000D01*
X124380500Y-65057000D01*
X124403779Y-65058144D01*
X124403779Y-65058144D01*
G37*
D17*
X124093000Y-65532000D03*
D16*
G36*
X126153779Y-65058144D02*
G01*
X126176834Y-65061563D01*
X126199443Y-65067227D01*
X126221387Y-65075079D01*
X126242457Y-65085044D01*
X126262448Y-65097026D01*
X126281168Y-65110910D01*
X126298438Y-65126562D01*
X126314090Y-65143832D01*
X126327974Y-65162552D01*
X126339956Y-65182543D01*
X126349921Y-65203613D01*
X126357773Y-65225557D01*
X126363437Y-65248166D01*
X126366856Y-65271221D01*
X126368000Y-65294500D01*
X126368000Y-65769500D01*
X126366856Y-65792779D01*
X126363437Y-65815834D01*
X126357773Y-65838443D01*
X126349921Y-65860387D01*
X126339956Y-65881457D01*
X126327974Y-65901448D01*
X126314090Y-65920168D01*
X126298438Y-65937438D01*
X126281168Y-65953090D01*
X126262448Y-65966974D01*
X126242457Y-65978956D01*
X126221387Y-65988921D01*
X126199443Y-65996773D01*
X126176834Y-66002437D01*
X126153779Y-66005856D01*
X126130500Y-66007000D01*
X125555500Y-66007000D01*
X125532221Y-66005856D01*
X125509166Y-66002437D01*
X125486557Y-65996773D01*
X125464613Y-65988921D01*
X125443543Y-65978956D01*
X125423552Y-65966974D01*
X125404832Y-65953090D01*
X125387562Y-65937438D01*
X125371910Y-65920168D01*
X125358026Y-65901448D01*
X125346044Y-65881457D01*
X125336079Y-65860387D01*
X125328227Y-65838443D01*
X125322563Y-65815834D01*
X125319144Y-65792779D01*
X125318000Y-65769500D01*
X125318000Y-65294500D01*
X125319144Y-65271221D01*
X125322563Y-65248166D01*
X125328227Y-65225557D01*
X125336079Y-65203613D01*
X125346044Y-65182543D01*
X125358026Y-65162552D01*
X125371910Y-65143832D01*
X125387562Y-65126562D01*
X125404832Y-65110910D01*
X125423552Y-65097026D01*
X125443543Y-65085044D01*
X125464613Y-65075079D01*
X125486557Y-65067227D01*
X125509166Y-65061563D01*
X125532221Y-65058144D01*
X125555500Y-65057000D01*
X126130500Y-65057000D01*
X126153779Y-65058144D01*
X126153779Y-65058144D01*
G37*
D17*
X125843000Y-65532000D03*
D16*
G36*
X134372779Y-87600144D02*
G01*
X134395834Y-87603563D01*
X134418443Y-87609227D01*
X134440387Y-87617079D01*
X134461457Y-87627044D01*
X134481448Y-87639026D01*
X134500168Y-87652910D01*
X134517438Y-87668562D01*
X134533090Y-87685832D01*
X134546974Y-87704552D01*
X134558956Y-87724543D01*
X134568921Y-87745613D01*
X134576773Y-87767557D01*
X134582437Y-87790166D01*
X134585856Y-87813221D01*
X134587000Y-87836500D01*
X134587000Y-88411500D01*
X134585856Y-88434779D01*
X134582437Y-88457834D01*
X134576773Y-88480443D01*
X134568921Y-88502387D01*
X134558956Y-88523457D01*
X134546974Y-88543448D01*
X134533090Y-88562168D01*
X134517438Y-88579438D01*
X134500168Y-88595090D01*
X134481448Y-88608974D01*
X134461457Y-88620956D01*
X134440387Y-88630921D01*
X134418443Y-88638773D01*
X134395834Y-88644437D01*
X134372779Y-88647856D01*
X134349500Y-88649000D01*
X133874500Y-88649000D01*
X133851221Y-88647856D01*
X133828166Y-88644437D01*
X133805557Y-88638773D01*
X133783613Y-88630921D01*
X133762543Y-88620956D01*
X133742552Y-88608974D01*
X133723832Y-88595090D01*
X133706562Y-88579438D01*
X133690910Y-88562168D01*
X133677026Y-88543448D01*
X133665044Y-88523457D01*
X133655079Y-88502387D01*
X133647227Y-88480443D01*
X133641563Y-88457834D01*
X133638144Y-88434779D01*
X133637000Y-88411500D01*
X133637000Y-87836500D01*
X133638144Y-87813221D01*
X133641563Y-87790166D01*
X133647227Y-87767557D01*
X133655079Y-87745613D01*
X133665044Y-87724543D01*
X133677026Y-87704552D01*
X133690910Y-87685832D01*
X133706562Y-87668562D01*
X133723832Y-87652910D01*
X133742552Y-87639026D01*
X133762543Y-87627044D01*
X133783613Y-87617079D01*
X133805557Y-87609227D01*
X133828166Y-87603563D01*
X133851221Y-87600144D01*
X133874500Y-87599000D01*
X134349500Y-87599000D01*
X134372779Y-87600144D01*
X134372779Y-87600144D01*
G37*
D17*
X134112000Y-88124000D03*
D16*
G36*
X134372779Y-85850144D02*
G01*
X134395834Y-85853563D01*
X134418443Y-85859227D01*
X134440387Y-85867079D01*
X134461457Y-85877044D01*
X134481448Y-85889026D01*
X134500168Y-85902910D01*
X134517438Y-85918562D01*
X134533090Y-85935832D01*
X134546974Y-85954552D01*
X134558956Y-85974543D01*
X134568921Y-85995613D01*
X134576773Y-86017557D01*
X134582437Y-86040166D01*
X134585856Y-86063221D01*
X134587000Y-86086500D01*
X134587000Y-86661500D01*
X134585856Y-86684779D01*
X134582437Y-86707834D01*
X134576773Y-86730443D01*
X134568921Y-86752387D01*
X134558956Y-86773457D01*
X134546974Y-86793448D01*
X134533090Y-86812168D01*
X134517438Y-86829438D01*
X134500168Y-86845090D01*
X134481448Y-86858974D01*
X134461457Y-86870956D01*
X134440387Y-86880921D01*
X134418443Y-86888773D01*
X134395834Y-86894437D01*
X134372779Y-86897856D01*
X134349500Y-86899000D01*
X133874500Y-86899000D01*
X133851221Y-86897856D01*
X133828166Y-86894437D01*
X133805557Y-86888773D01*
X133783613Y-86880921D01*
X133762543Y-86870956D01*
X133742552Y-86858974D01*
X133723832Y-86845090D01*
X133706562Y-86829438D01*
X133690910Y-86812168D01*
X133677026Y-86793448D01*
X133665044Y-86773457D01*
X133655079Y-86752387D01*
X133647227Y-86730443D01*
X133641563Y-86707834D01*
X133638144Y-86684779D01*
X133637000Y-86661500D01*
X133637000Y-86086500D01*
X133638144Y-86063221D01*
X133641563Y-86040166D01*
X133647227Y-86017557D01*
X133655079Y-85995613D01*
X133665044Y-85974543D01*
X133677026Y-85954552D01*
X133690910Y-85935832D01*
X133706562Y-85918562D01*
X133723832Y-85902910D01*
X133742552Y-85889026D01*
X133762543Y-85877044D01*
X133783613Y-85867079D01*
X133805557Y-85859227D01*
X133828166Y-85853563D01*
X133851221Y-85850144D01*
X133874500Y-85849000D01*
X134349500Y-85849000D01*
X134372779Y-85850144D01*
X134372779Y-85850144D01*
G37*
D17*
X134112000Y-86374000D03*
D16*
G36*
X113735779Y-66074144D02*
G01*
X113758834Y-66077563D01*
X113781443Y-66083227D01*
X113803387Y-66091079D01*
X113824457Y-66101044D01*
X113844448Y-66113026D01*
X113863168Y-66126910D01*
X113880438Y-66142562D01*
X113896090Y-66159832D01*
X113909974Y-66178552D01*
X113921956Y-66198543D01*
X113931921Y-66219613D01*
X113939773Y-66241557D01*
X113945437Y-66264166D01*
X113948856Y-66287221D01*
X113950000Y-66310500D01*
X113950000Y-66785500D01*
X113948856Y-66808779D01*
X113945437Y-66831834D01*
X113939773Y-66854443D01*
X113931921Y-66876387D01*
X113921956Y-66897457D01*
X113909974Y-66917448D01*
X113896090Y-66936168D01*
X113880438Y-66953438D01*
X113863168Y-66969090D01*
X113844448Y-66982974D01*
X113824457Y-66994956D01*
X113803387Y-67004921D01*
X113781443Y-67012773D01*
X113758834Y-67018437D01*
X113735779Y-67021856D01*
X113712500Y-67023000D01*
X113137500Y-67023000D01*
X113114221Y-67021856D01*
X113091166Y-67018437D01*
X113068557Y-67012773D01*
X113046613Y-67004921D01*
X113025543Y-66994956D01*
X113005552Y-66982974D01*
X112986832Y-66969090D01*
X112969562Y-66953438D01*
X112953910Y-66936168D01*
X112940026Y-66917448D01*
X112928044Y-66897457D01*
X112918079Y-66876387D01*
X112910227Y-66854443D01*
X112904563Y-66831834D01*
X112901144Y-66808779D01*
X112900000Y-66785500D01*
X112900000Y-66310500D01*
X112901144Y-66287221D01*
X112904563Y-66264166D01*
X112910227Y-66241557D01*
X112918079Y-66219613D01*
X112928044Y-66198543D01*
X112940026Y-66178552D01*
X112953910Y-66159832D01*
X112969562Y-66142562D01*
X112986832Y-66126910D01*
X113005552Y-66113026D01*
X113025543Y-66101044D01*
X113046613Y-66091079D01*
X113068557Y-66083227D01*
X113091166Y-66077563D01*
X113114221Y-66074144D01*
X113137500Y-66073000D01*
X113712500Y-66073000D01*
X113735779Y-66074144D01*
X113735779Y-66074144D01*
G37*
D17*
X113425000Y-66548000D03*
D16*
G36*
X115485779Y-66074144D02*
G01*
X115508834Y-66077563D01*
X115531443Y-66083227D01*
X115553387Y-66091079D01*
X115574457Y-66101044D01*
X115594448Y-66113026D01*
X115613168Y-66126910D01*
X115630438Y-66142562D01*
X115646090Y-66159832D01*
X115659974Y-66178552D01*
X115671956Y-66198543D01*
X115681921Y-66219613D01*
X115689773Y-66241557D01*
X115695437Y-66264166D01*
X115698856Y-66287221D01*
X115700000Y-66310500D01*
X115700000Y-66785500D01*
X115698856Y-66808779D01*
X115695437Y-66831834D01*
X115689773Y-66854443D01*
X115681921Y-66876387D01*
X115671956Y-66897457D01*
X115659974Y-66917448D01*
X115646090Y-66936168D01*
X115630438Y-66953438D01*
X115613168Y-66969090D01*
X115594448Y-66982974D01*
X115574457Y-66994956D01*
X115553387Y-67004921D01*
X115531443Y-67012773D01*
X115508834Y-67018437D01*
X115485779Y-67021856D01*
X115462500Y-67023000D01*
X114887500Y-67023000D01*
X114864221Y-67021856D01*
X114841166Y-67018437D01*
X114818557Y-67012773D01*
X114796613Y-67004921D01*
X114775543Y-66994956D01*
X114755552Y-66982974D01*
X114736832Y-66969090D01*
X114719562Y-66953438D01*
X114703910Y-66936168D01*
X114690026Y-66917448D01*
X114678044Y-66897457D01*
X114668079Y-66876387D01*
X114660227Y-66854443D01*
X114654563Y-66831834D01*
X114651144Y-66808779D01*
X114650000Y-66785500D01*
X114650000Y-66310500D01*
X114651144Y-66287221D01*
X114654563Y-66264166D01*
X114660227Y-66241557D01*
X114668079Y-66219613D01*
X114678044Y-66198543D01*
X114690026Y-66178552D01*
X114703910Y-66159832D01*
X114719562Y-66142562D01*
X114736832Y-66126910D01*
X114755552Y-66113026D01*
X114775543Y-66101044D01*
X114796613Y-66091079D01*
X114818557Y-66083227D01*
X114841166Y-66077563D01*
X114864221Y-66074144D01*
X114887500Y-66073000D01*
X115462500Y-66073000D01*
X115485779Y-66074144D01*
X115485779Y-66074144D01*
G37*
D17*
X115175000Y-66548000D03*
D16*
G36*
X119069779Y-66074144D02*
G01*
X119092834Y-66077563D01*
X119115443Y-66083227D01*
X119137387Y-66091079D01*
X119158457Y-66101044D01*
X119178448Y-66113026D01*
X119197168Y-66126910D01*
X119214438Y-66142562D01*
X119230090Y-66159832D01*
X119243974Y-66178552D01*
X119255956Y-66198543D01*
X119265921Y-66219613D01*
X119273773Y-66241557D01*
X119279437Y-66264166D01*
X119282856Y-66287221D01*
X119284000Y-66310500D01*
X119284000Y-66785500D01*
X119282856Y-66808779D01*
X119279437Y-66831834D01*
X119273773Y-66854443D01*
X119265921Y-66876387D01*
X119255956Y-66897457D01*
X119243974Y-66917448D01*
X119230090Y-66936168D01*
X119214438Y-66953438D01*
X119197168Y-66969090D01*
X119178448Y-66982974D01*
X119158457Y-66994956D01*
X119137387Y-67004921D01*
X119115443Y-67012773D01*
X119092834Y-67018437D01*
X119069779Y-67021856D01*
X119046500Y-67023000D01*
X118471500Y-67023000D01*
X118448221Y-67021856D01*
X118425166Y-67018437D01*
X118402557Y-67012773D01*
X118380613Y-67004921D01*
X118359543Y-66994956D01*
X118339552Y-66982974D01*
X118320832Y-66969090D01*
X118303562Y-66953438D01*
X118287910Y-66936168D01*
X118274026Y-66917448D01*
X118262044Y-66897457D01*
X118252079Y-66876387D01*
X118244227Y-66854443D01*
X118238563Y-66831834D01*
X118235144Y-66808779D01*
X118234000Y-66785500D01*
X118234000Y-66310500D01*
X118235144Y-66287221D01*
X118238563Y-66264166D01*
X118244227Y-66241557D01*
X118252079Y-66219613D01*
X118262044Y-66198543D01*
X118274026Y-66178552D01*
X118287910Y-66159832D01*
X118303562Y-66142562D01*
X118320832Y-66126910D01*
X118339552Y-66113026D01*
X118359543Y-66101044D01*
X118380613Y-66091079D01*
X118402557Y-66083227D01*
X118425166Y-66077563D01*
X118448221Y-66074144D01*
X118471500Y-66073000D01*
X119046500Y-66073000D01*
X119069779Y-66074144D01*
X119069779Y-66074144D01*
G37*
D17*
X118759000Y-66548000D03*
D16*
G36*
X120819779Y-66074144D02*
G01*
X120842834Y-66077563D01*
X120865443Y-66083227D01*
X120887387Y-66091079D01*
X120908457Y-66101044D01*
X120928448Y-66113026D01*
X120947168Y-66126910D01*
X120964438Y-66142562D01*
X120980090Y-66159832D01*
X120993974Y-66178552D01*
X121005956Y-66198543D01*
X121015921Y-66219613D01*
X121023773Y-66241557D01*
X121029437Y-66264166D01*
X121032856Y-66287221D01*
X121034000Y-66310500D01*
X121034000Y-66785500D01*
X121032856Y-66808779D01*
X121029437Y-66831834D01*
X121023773Y-66854443D01*
X121015921Y-66876387D01*
X121005956Y-66897457D01*
X120993974Y-66917448D01*
X120980090Y-66936168D01*
X120964438Y-66953438D01*
X120947168Y-66969090D01*
X120928448Y-66982974D01*
X120908457Y-66994956D01*
X120887387Y-67004921D01*
X120865443Y-67012773D01*
X120842834Y-67018437D01*
X120819779Y-67021856D01*
X120796500Y-67023000D01*
X120221500Y-67023000D01*
X120198221Y-67021856D01*
X120175166Y-67018437D01*
X120152557Y-67012773D01*
X120130613Y-67004921D01*
X120109543Y-66994956D01*
X120089552Y-66982974D01*
X120070832Y-66969090D01*
X120053562Y-66953438D01*
X120037910Y-66936168D01*
X120024026Y-66917448D01*
X120012044Y-66897457D01*
X120002079Y-66876387D01*
X119994227Y-66854443D01*
X119988563Y-66831834D01*
X119985144Y-66808779D01*
X119984000Y-66785500D01*
X119984000Y-66310500D01*
X119985144Y-66287221D01*
X119988563Y-66264166D01*
X119994227Y-66241557D01*
X120002079Y-66219613D01*
X120012044Y-66198543D01*
X120024026Y-66178552D01*
X120037910Y-66159832D01*
X120053562Y-66142562D01*
X120070832Y-66126910D01*
X120089552Y-66113026D01*
X120109543Y-66101044D01*
X120130613Y-66091079D01*
X120152557Y-66083227D01*
X120175166Y-66077563D01*
X120198221Y-66074144D01*
X120221500Y-66073000D01*
X120796500Y-66073000D01*
X120819779Y-66074144D01*
X120819779Y-66074144D01*
G37*
D17*
X120509000Y-66548000D03*
D16*
G36*
X135198779Y-65058144D02*
G01*
X135221834Y-65061563D01*
X135244443Y-65067227D01*
X135266387Y-65075079D01*
X135287457Y-65085044D01*
X135307448Y-65097026D01*
X135326168Y-65110910D01*
X135343438Y-65126562D01*
X135359090Y-65143832D01*
X135372974Y-65162552D01*
X135384956Y-65182543D01*
X135394921Y-65203613D01*
X135402773Y-65225557D01*
X135408437Y-65248166D01*
X135411856Y-65271221D01*
X135413000Y-65294500D01*
X135413000Y-65769500D01*
X135411856Y-65792779D01*
X135408437Y-65815834D01*
X135402773Y-65838443D01*
X135394921Y-65860387D01*
X135384956Y-65881457D01*
X135372974Y-65901448D01*
X135359090Y-65920168D01*
X135343438Y-65937438D01*
X135326168Y-65953090D01*
X135307448Y-65966974D01*
X135287457Y-65978956D01*
X135266387Y-65988921D01*
X135244443Y-65996773D01*
X135221834Y-66002437D01*
X135198779Y-66005856D01*
X135175500Y-66007000D01*
X134600500Y-66007000D01*
X134577221Y-66005856D01*
X134554166Y-66002437D01*
X134531557Y-65996773D01*
X134509613Y-65988921D01*
X134488543Y-65978956D01*
X134468552Y-65966974D01*
X134449832Y-65953090D01*
X134432562Y-65937438D01*
X134416910Y-65920168D01*
X134403026Y-65901448D01*
X134391044Y-65881457D01*
X134381079Y-65860387D01*
X134373227Y-65838443D01*
X134367563Y-65815834D01*
X134364144Y-65792779D01*
X134363000Y-65769500D01*
X134363000Y-65294500D01*
X134364144Y-65271221D01*
X134367563Y-65248166D01*
X134373227Y-65225557D01*
X134381079Y-65203613D01*
X134391044Y-65182543D01*
X134403026Y-65162552D01*
X134416910Y-65143832D01*
X134432562Y-65126562D01*
X134449832Y-65110910D01*
X134468552Y-65097026D01*
X134488543Y-65085044D01*
X134509613Y-65075079D01*
X134531557Y-65067227D01*
X134554166Y-65061563D01*
X134577221Y-65058144D01*
X134600500Y-65057000D01*
X135175500Y-65057000D01*
X135198779Y-65058144D01*
X135198779Y-65058144D01*
G37*
D17*
X134888000Y-65532000D03*
D16*
G36*
X136948779Y-65058144D02*
G01*
X136971834Y-65061563D01*
X136994443Y-65067227D01*
X137016387Y-65075079D01*
X137037457Y-65085044D01*
X137057448Y-65097026D01*
X137076168Y-65110910D01*
X137093438Y-65126562D01*
X137109090Y-65143832D01*
X137122974Y-65162552D01*
X137134956Y-65182543D01*
X137144921Y-65203613D01*
X137152773Y-65225557D01*
X137158437Y-65248166D01*
X137161856Y-65271221D01*
X137163000Y-65294500D01*
X137163000Y-65769500D01*
X137161856Y-65792779D01*
X137158437Y-65815834D01*
X137152773Y-65838443D01*
X137144921Y-65860387D01*
X137134956Y-65881457D01*
X137122974Y-65901448D01*
X137109090Y-65920168D01*
X137093438Y-65937438D01*
X137076168Y-65953090D01*
X137057448Y-65966974D01*
X137037457Y-65978956D01*
X137016387Y-65988921D01*
X136994443Y-65996773D01*
X136971834Y-66002437D01*
X136948779Y-66005856D01*
X136925500Y-66007000D01*
X136350500Y-66007000D01*
X136327221Y-66005856D01*
X136304166Y-66002437D01*
X136281557Y-65996773D01*
X136259613Y-65988921D01*
X136238543Y-65978956D01*
X136218552Y-65966974D01*
X136199832Y-65953090D01*
X136182562Y-65937438D01*
X136166910Y-65920168D01*
X136153026Y-65901448D01*
X136141044Y-65881457D01*
X136131079Y-65860387D01*
X136123227Y-65838443D01*
X136117563Y-65815834D01*
X136114144Y-65792779D01*
X136113000Y-65769500D01*
X136113000Y-65294500D01*
X136114144Y-65271221D01*
X136117563Y-65248166D01*
X136123227Y-65225557D01*
X136131079Y-65203613D01*
X136141044Y-65182543D01*
X136153026Y-65162552D01*
X136166910Y-65143832D01*
X136182562Y-65126562D01*
X136199832Y-65110910D01*
X136218552Y-65097026D01*
X136238543Y-65085044D01*
X136259613Y-65075079D01*
X136281557Y-65067227D01*
X136304166Y-65061563D01*
X136327221Y-65058144D01*
X136350500Y-65057000D01*
X136925500Y-65057000D01*
X136948779Y-65058144D01*
X136948779Y-65058144D01*
G37*
D17*
X136638000Y-65532000D03*
D18*
X139368000Y-75397000D03*
X139368000Y-74747000D03*
X139368000Y-74097000D03*
X139368000Y-73447000D03*
X135968000Y-73447000D03*
X135968000Y-74097000D03*
X135968000Y-74747000D03*
X135968000Y-75397000D03*
D16*
G36*
X130598779Y-70646144D02*
G01*
X130621834Y-70649563D01*
X130644443Y-70655227D01*
X130666387Y-70663079D01*
X130687457Y-70673044D01*
X130707448Y-70685026D01*
X130726168Y-70698910D01*
X130743438Y-70714562D01*
X130759090Y-70731832D01*
X130772974Y-70750552D01*
X130784956Y-70770543D01*
X130794921Y-70791613D01*
X130802773Y-70813557D01*
X130808437Y-70836166D01*
X130811856Y-70859221D01*
X130813000Y-70882500D01*
X130813000Y-71357500D01*
X130811856Y-71380779D01*
X130808437Y-71403834D01*
X130802773Y-71426443D01*
X130794921Y-71448387D01*
X130784956Y-71469457D01*
X130772974Y-71489448D01*
X130759090Y-71508168D01*
X130743438Y-71525438D01*
X130726168Y-71541090D01*
X130707448Y-71554974D01*
X130687457Y-71566956D01*
X130666387Y-71576921D01*
X130644443Y-71584773D01*
X130621834Y-71590437D01*
X130598779Y-71593856D01*
X130575500Y-71595000D01*
X130000500Y-71595000D01*
X129977221Y-71593856D01*
X129954166Y-71590437D01*
X129931557Y-71584773D01*
X129909613Y-71576921D01*
X129888543Y-71566956D01*
X129868552Y-71554974D01*
X129849832Y-71541090D01*
X129832562Y-71525438D01*
X129816910Y-71508168D01*
X129803026Y-71489448D01*
X129791044Y-71469457D01*
X129781079Y-71448387D01*
X129773227Y-71426443D01*
X129767563Y-71403834D01*
X129764144Y-71380779D01*
X129763000Y-71357500D01*
X129763000Y-70882500D01*
X129764144Y-70859221D01*
X129767563Y-70836166D01*
X129773227Y-70813557D01*
X129781079Y-70791613D01*
X129791044Y-70770543D01*
X129803026Y-70750552D01*
X129816910Y-70731832D01*
X129832562Y-70714562D01*
X129849832Y-70698910D01*
X129868552Y-70685026D01*
X129888543Y-70673044D01*
X129909613Y-70663079D01*
X129931557Y-70655227D01*
X129954166Y-70649563D01*
X129977221Y-70646144D01*
X130000500Y-70645000D01*
X130575500Y-70645000D01*
X130598779Y-70646144D01*
X130598779Y-70646144D01*
G37*
D17*
X130288000Y-71120000D03*
D16*
G36*
X128848779Y-70646144D02*
G01*
X128871834Y-70649563D01*
X128894443Y-70655227D01*
X128916387Y-70663079D01*
X128937457Y-70673044D01*
X128957448Y-70685026D01*
X128976168Y-70698910D01*
X128993438Y-70714562D01*
X129009090Y-70731832D01*
X129022974Y-70750552D01*
X129034956Y-70770543D01*
X129044921Y-70791613D01*
X129052773Y-70813557D01*
X129058437Y-70836166D01*
X129061856Y-70859221D01*
X129063000Y-70882500D01*
X129063000Y-71357500D01*
X129061856Y-71380779D01*
X129058437Y-71403834D01*
X129052773Y-71426443D01*
X129044921Y-71448387D01*
X129034956Y-71469457D01*
X129022974Y-71489448D01*
X129009090Y-71508168D01*
X128993438Y-71525438D01*
X128976168Y-71541090D01*
X128957448Y-71554974D01*
X128937457Y-71566956D01*
X128916387Y-71576921D01*
X128894443Y-71584773D01*
X128871834Y-71590437D01*
X128848779Y-71593856D01*
X128825500Y-71595000D01*
X128250500Y-71595000D01*
X128227221Y-71593856D01*
X128204166Y-71590437D01*
X128181557Y-71584773D01*
X128159613Y-71576921D01*
X128138543Y-71566956D01*
X128118552Y-71554974D01*
X128099832Y-71541090D01*
X128082562Y-71525438D01*
X128066910Y-71508168D01*
X128053026Y-71489448D01*
X128041044Y-71469457D01*
X128031079Y-71448387D01*
X128023227Y-71426443D01*
X128017563Y-71403834D01*
X128014144Y-71380779D01*
X128013000Y-71357500D01*
X128013000Y-70882500D01*
X128014144Y-70859221D01*
X128017563Y-70836166D01*
X128023227Y-70813557D01*
X128031079Y-70791613D01*
X128041044Y-70770543D01*
X128053026Y-70750552D01*
X128066910Y-70731832D01*
X128082562Y-70714562D01*
X128099832Y-70698910D01*
X128118552Y-70685026D01*
X128138543Y-70673044D01*
X128159613Y-70663079D01*
X128181557Y-70655227D01*
X128204166Y-70649563D01*
X128227221Y-70646144D01*
X128250500Y-70645000D01*
X128825500Y-70645000D01*
X128848779Y-70646144D01*
X128848779Y-70646144D01*
G37*
D17*
X128538000Y-71120000D03*
D19*
X132842000Y-81154000D03*
X132842000Y-84454000D03*
D16*
G36*
X130584779Y-79790144D02*
G01*
X130607834Y-79793563D01*
X130630443Y-79799227D01*
X130652387Y-79807079D01*
X130673457Y-79817044D01*
X130693448Y-79829026D01*
X130712168Y-79842910D01*
X130729438Y-79858562D01*
X130745090Y-79875832D01*
X130758974Y-79894552D01*
X130770956Y-79914543D01*
X130780921Y-79935613D01*
X130788773Y-79957557D01*
X130794437Y-79980166D01*
X130797856Y-80003221D01*
X130799000Y-80026500D01*
X130799000Y-80501500D01*
X130797856Y-80524779D01*
X130794437Y-80547834D01*
X130788773Y-80570443D01*
X130780921Y-80592387D01*
X130770956Y-80613457D01*
X130758974Y-80633448D01*
X130745090Y-80652168D01*
X130729438Y-80669438D01*
X130712168Y-80685090D01*
X130693448Y-80698974D01*
X130673457Y-80710956D01*
X130652387Y-80720921D01*
X130630443Y-80728773D01*
X130607834Y-80734437D01*
X130584779Y-80737856D01*
X130561500Y-80739000D01*
X129986500Y-80739000D01*
X129963221Y-80737856D01*
X129940166Y-80734437D01*
X129917557Y-80728773D01*
X129895613Y-80720921D01*
X129874543Y-80710956D01*
X129854552Y-80698974D01*
X129835832Y-80685090D01*
X129818562Y-80669438D01*
X129802910Y-80652168D01*
X129789026Y-80633448D01*
X129777044Y-80613457D01*
X129767079Y-80592387D01*
X129759227Y-80570443D01*
X129753563Y-80547834D01*
X129750144Y-80524779D01*
X129749000Y-80501500D01*
X129749000Y-80026500D01*
X129750144Y-80003221D01*
X129753563Y-79980166D01*
X129759227Y-79957557D01*
X129767079Y-79935613D01*
X129777044Y-79914543D01*
X129789026Y-79894552D01*
X129802910Y-79875832D01*
X129818562Y-79858562D01*
X129835832Y-79842910D01*
X129854552Y-79829026D01*
X129874543Y-79817044D01*
X129895613Y-79807079D01*
X129917557Y-79799227D01*
X129940166Y-79793563D01*
X129963221Y-79790144D01*
X129986500Y-79789000D01*
X130561500Y-79789000D01*
X130584779Y-79790144D01*
X130584779Y-79790144D01*
G37*
D17*
X130274000Y-80264000D03*
D16*
G36*
X128834779Y-79790144D02*
G01*
X128857834Y-79793563D01*
X128880443Y-79799227D01*
X128902387Y-79807079D01*
X128923457Y-79817044D01*
X128943448Y-79829026D01*
X128962168Y-79842910D01*
X128979438Y-79858562D01*
X128995090Y-79875832D01*
X129008974Y-79894552D01*
X129020956Y-79914543D01*
X129030921Y-79935613D01*
X129038773Y-79957557D01*
X129044437Y-79980166D01*
X129047856Y-80003221D01*
X129049000Y-80026500D01*
X129049000Y-80501500D01*
X129047856Y-80524779D01*
X129044437Y-80547834D01*
X129038773Y-80570443D01*
X129030921Y-80592387D01*
X129020956Y-80613457D01*
X129008974Y-80633448D01*
X128995090Y-80652168D01*
X128979438Y-80669438D01*
X128962168Y-80685090D01*
X128943448Y-80698974D01*
X128923457Y-80710956D01*
X128902387Y-80720921D01*
X128880443Y-80728773D01*
X128857834Y-80734437D01*
X128834779Y-80737856D01*
X128811500Y-80739000D01*
X128236500Y-80739000D01*
X128213221Y-80737856D01*
X128190166Y-80734437D01*
X128167557Y-80728773D01*
X128145613Y-80720921D01*
X128124543Y-80710956D01*
X128104552Y-80698974D01*
X128085832Y-80685090D01*
X128068562Y-80669438D01*
X128052910Y-80652168D01*
X128039026Y-80633448D01*
X128027044Y-80613457D01*
X128017079Y-80592387D01*
X128009227Y-80570443D01*
X128003563Y-80547834D01*
X128000144Y-80524779D01*
X127999000Y-80501500D01*
X127999000Y-80026500D01*
X128000144Y-80003221D01*
X128003563Y-79980166D01*
X128009227Y-79957557D01*
X128017079Y-79935613D01*
X128027044Y-79914543D01*
X128039026Y-79894552D01*
X128052910Y-79875832D01*
X128068562Y-79858562D01*
X128085832Y-79842910D01*
X128104552Y-79829026D01*
X128124543Y-79817044D01*
X128145613Y-79807079D01*
X128167557Y-79799227D01*
X128190166Y-79793563D01*
X128213221Y-79790144D01*
X128236500Y-79789000D01*
X128811500Y-79789000D01*
X128834779Y-79790144D01*
X128834779Y-79790144D01*
G37*
D17*
X128524000Y-80264000D03*
D16*
G36*
X128834779Y-76742144D02*
G01*
X128857834Y-76745563D01*
X128880443Y-76751227D01*
X128902387Y-76759079D01*
X128923457Y-76769044D01*
X128943448Y-76781026D01*
X128962168Y-76794910D01*
X128979438Y-76810562D01*
X128995090Y-76827832D01*
X129008974Y-76846552D01*
X129020956Y-76866543D01*
X129030921Y-76887613D01*
X129038773Y-76909557D01*
X129044437Y-76932166D01*
X129047856Y-76955221D01*
X129049000Y-76978500D01*
X129049000Y-77453500D01*
X129047856Y-77476779D01*
X129044437Y-77499834D01*
X129038773Y-77522443D01*
X129030921Y-77544387D01*
X129020956Y-77565457D01*
X129008974Y-77585448D01*
X128995090Y-77604168D01*
X128979438Y-77621438D01*
X128962168Y-77637090D01*
X128943448Y-77650974D01*
X128923457Y-77662956D01*
X128902387Y-77672921D01*
X128880443Y-77680773D01*
X128857834Y-77686437D01*
X128834779Y-77689856D01*
X128811500Y-77691000D01*
X128236500Y-77691000D01*
X128213221Y-77689856D01*
X128190166Y-77686437D01*
X128167557Y-77680773D01*
X128145613Y-77672921D01*
X128124543Y-77662956D01*
X128104552Y-77650974D01*
X128085832Y-77637090D01*
X128068562Y-77621438D01*
X128052910Y-77604168D01*
X128039026Y-77585448D01*
X128027044Y-77565457D01*
X128017079Y-77544387D01*
X128009227Y-77522443D01*
X128003563Y-77499834D01*
X128000144Y-77476779D01*
X127999000Y-77453500D01*
X127999000Y-76978500D01*
X128000144Y-76955221D01*
X128003563Y-76932166D01*
X128009227Y-76909557D01*
X128017079Y-76887613D01*
X128027044Y-76866543D01*
X128039026Y-76846552D01*
X128052910Y-76827832D01*
X128068562Y-76810562D01*
X128085832Y-76794910D01*
X128104552Y-76781026D01*
X128124543Y-76769044D01*
X128145613Y-76759079D01*
X128167557Y-76751227D01*
X128190166Y-76745563D01*
X128213221Y-76742144D01*
X128236500Y-76741000D01*
X128811500Y-76741000D01*
X128834779Y-76742144D01*
X128834779Y-76742144D01*
G37*
D17*
X128524000Y-77216000D03*
D16*
G36*
X130584779Y-76742144D02*
G01*
X130607834Y-76745563D01*
X130630443Y-76751227D01*
X130652387Y-76759079D01*
X130673457Y-76769044D01*
X130693448Y-76781026D01*
X130712168Y-76794910D01*
X130729438Y-76810562D01*
X130745090Y-76827832D01*
X130758974Y-76846552D01*
X130770956Y-76866543D01*
X130780921Y-76887613D01*
X130788773Y-76909557D01*
X130794437Y-76932166D01*
X130797856Y-76955221D01*
X130799000Y-76978500D01*
X130799000Y-77453500D01*
X130797856Y-77476779D01*
X130794437Y-77499834D01*
X130788773Y-77522443D01*
X130780921Y-77544387D01*
X130770956Y-77565457D01*
X130758974Y-77585448D01*
X130745090Y-77604168D01*
X130729438Y-77621438D01*
X130712168Y-77637090D01*
X130693448Y-77650974D01*
X130673457Y-77662956D01*
X130652387Y-77672921D01*
X130630443Y-77680773D01*
X130607834Y-77686437D01*
X130584779Y-77689856D01*
X130561500Y-77691000D01*
X129986500Y-77691000D01*
X129963221Y-77689856D01*
X129940166Y-77686437D01*
X129917557Y-77680773D01*
X129895613Y-77672921D01*
X129874543Y-77662956D01*
X129854552Y-77650974D01*
X129835832Y-77637090D01*
X129818562Y-77621438D01*
X129802910Y-77604168D01*
X129789026Y-77585448D01*
X129777044Y-77565457D01*
X129767079Y-77544387D01*
X129759227Y-77522443D01*
X129753563Y-77499834D01*
X129750144Y-77476779D01*
X129749000Y-77453500D01*
X129749000Y-76978500D01*
X129750144Y-76955221D01*
X129753563Y-76932166D01*
X129759227Y-76909557D01*
X129767079Y-76887613D01*
X129777044Y-76866543D01*
X129789026Y-76846552D01*
X129802910Y-76827832D01*
X129818562Y-76810562D01*
X129835832Y-76794910D01*
X129854552Y-76781026D01*
X129874543Y-76769044D01*
X129895613Y-76759079D01*
X129917557Y-76751227D01*
X129940166Y-76745563D01*
X129963221Y-76742144D01*
X129986500Y-76741000D01*
X130561500Y-76741000D01*
X130584779Y-76742144D01*
X130584779Y-76742144D01*
G37*
D17*
X130274000Y-77216000D03*
D16*
G36*
X128848779Y-73694144D02*
G01*
X128871834Y-73697563D01*
X128894443Y-73703227D01*
X128916387Y-73711079D01*
X128937457Y-73721044D01*
X128957448Y-73733026D01*
X128976168Y-73746910D01*
X128993438Y-73762562D01*
X129009090Y-73779832D01*
X129022974Y-73798552D01*
X129034956Y-73818543D01*
X129044921Y-73839613D01*
X129052773Y-73861557D01*
X129058437Y-73884166D01*
X129061856Y-73907221D01*
X129063000Y-73930500D01*
X129063000Y-74405500D01*
X129061856Y-74428779D01*
X129058437Y-74451834D01*
X129052773Y-74474443D01*
X129044921Y-74496387D01*
X129034956Y-74517457D01*
X129022974Y-74537448D01*
X129009090Y-74556168D01*
X128993438Y-74573438D01*
X128976168Y-74589090D01*
X128957448Y-74602974D01*
X128937457Y-74614956D01*
X128916387Y-74624921D01*
X128894443Y-74632773D01*
X128871834Y-74638437D01*
X128848779Y-74641856D01*
X128825500Y-74643000D01*
X128250500Y-74643000D01*
X128227221Y-74641856D01*
X128204166Y-74638437D01*
X128181557Y-74632773D01*
X128159613Y-74624921D01*
X128138543Y-74614956D01*
X128118552Y-74602974D01*
X128099832Y-74589090D01*
X128082562Y-74573438D01*
X128066910Y-74556168D01*
X128053026Y-74537448D01*
X128041044Y-74517457D01*
X128031079Y-74496387D01*
X128023227Y-74474443D01*
X128017563Y-74451834D01*
X128014144Y-74428779D01*
X128013000Y-74405500D01*
X128013000Y-73930500D01*
X128014144Y-73907221D01*
X128017563Y-73884166D01*
X128023227Y-73861557D01*
X128031079Y-73839613D01*
X128041044Y-73818543D01*
X128053026Y-73798552D01*
X128066910Y-73779832D01*
X128082562Y-73762562D01*
X128099832Y-73746910D01*
X128118552Y-73733026D01*
X128138543Y-73721044D01*
X128159613Y-73711079D01*
X128181557Y-73703227D01*
X128204166Y-73697563D01*
X128227221Y-73694144D01*
X128250500Y-73693000D01*
X128825500Y-73693000D01*
X128848779Y-73694144D01*
X128848779Y-73694144D01*
G37*
D17*
X128538000Y-74168000D03*
D16*
G36*
X130598779Y-73694144D02*
G01*
X130621834Y-73697563D01*
X130644443Y-73703227D01*
X130666387Y-73711079D01*
X130687457Y-73721044D01*
X130707448Y-73733026D01*
X130726168Y-73746910D01*
X130743438Y-73762562D01*
X130759090Y-73779832D01*
X130772974Y-73798552D01*
X130784956Y-73818543D01*
X130794921Y-73839613D01*
X130802773Y-73861557D01*
X130808437Y-73884166D01*
X130811856Y-73907221D01*
X130813000Y-73930500D01*
X130813000Y-74405500D01*
X130811856Y-74428779D01*
X130808437Y-74451834D01*
X130802773Y-74474443D01*
X130794921Y-74496387D01*
X130784956Y-74517457D01*
X130772974Y-74537448D01*
X130759090Y-74556168D01*
X130743438Y-74573438D01*
X130726168Y-74589090D01*
X130707448Y-74602974D01*
X130687457Y-74614956D01*
X130666387Y-74624921D01*
X130644443Y-74632773D01*
X130621834Y-74638437D01*
X130598779Y-74641856D01*
X130575500Y-74643000D01*
X130000500Y-74643000D01*
X129977221Y-74641856D01*
X129954166Y-74638437D01*
X129931557Y-74632773D01*
X129909613Y-74624921D01*
X129888543Y-74614956D01*
X129868552Y-74602974D01*
X129849832Y-74589090D01*
X129832562Y-74573438D01*
X129816910Y-74556168D01*
X129803026Y-74537448D01*
X129791044Y-74517457D01*
X129781079Y-74496387D01*
X129773227Y-74474443D01*
X129767563Y-74451834D01*
X129764144Y-74428779D01*
X129763000Y-74405500D01*
X129763000Y-73930500D01*
X129764144Y-73907221D01*
X129767563Y-73884166D01*
X129773227Y-73861557D01*
X129781079Y-73839613D01*
X129791044Y-73818543D01*
X129803026Y-73798552D01*
X129816910Y-73779832D01*
X129832562Y-73762562D01*
X129849832Y-73746910D01*
X129868552Y-73733026D01*
X129888543Y-73721044D01*
X129909613Y-73711079D01*
X129931557Y-73703227D01*
X129954166Y-73697563D01*
X129977221Y-73694144D01*
X130000500Y-73693000D01*
X130575500Y-73693000D01*
X130598779Y-73694144D01*
X130598779Y-73694144D01*
G37*
D17*
X130288000Y-74168000D03*
D16*
G36*
X128848779Y-81568144D02*
G01*
X128871834Y-81571563D01*
X128894443Y-81577227D01*
X128916387Y-81585079D01*
X128937457Y-81595044D01*
X128957448Y-81607026D01*
X128976168Y-81620910D01*
X128993438Y-81636562D01*
X129009090Y-81653832D01*
X129022974Y-81672552D01*
X129034956Y-81692543D01*
X129044921Y-81713613D01*
X129052773Y-81735557D01*
X129058437Y-81758166D01*
X129061856Y-81781221D01*
X129063000Y-81804500D01*
X129063000Y-82279500D01*
X129061856Y-82302779D01*
X129058437Y-82325834D01*
X129052773Y-82348443D01*
X129044921Y-82370387D01*
X129034956Y-82391457D01*
X129022974Y-82411448D01*
X129009090Y-82430168D01*
X128993438Y-82447438D01*
X128976168Y-82463090D01*
X128957448Y-82476974D01*
X128937457Y-82488956D01*
X128916387Y-82498921D01*
X128894443Y-82506773D01*
X128871834Y-82512437D01*
X128848779Y-82515856D01*
X128825500Y-82517000D01*
X128250500Y-82517000D01*
X128227221Y-82515856D01*
X128204166Y-82512437D01*
X128181557Y-82506773D01*
X128159613Y-82498921D01*
X128138543Y-82488956D01*
X128118552Y-82476974D01*
X128099832Y-82463090D01*
X128082562Y-82447438D01*
X128066910Y-82430168D01*
X128053026Y-82411448D01*
X128041044Y-82391457D01*
X128031079Y-82370387D01*
X128023227Y-82348443D01*
X128017563Y-82325834D01*
X128014144Y-82302779D01*
X128013000Y-82279500D01*
X128013000Y-81804500D01*
X128014144Y-81781221D01*
X128017563Y-81758166D01*
X128023227Y-81735557D01*
X128031079Y-81713613D01*
X128041044Y-81692543D01*
X128053026Y-81672552D01*
X128066910Y-81653832D01*
X128082562Y-81636562D01*
X128099832Y-81620910D01*
X128118552Y-81607026D01*
X128138543Y-81595044D01*
X128159613Y-81585079D01*
X128181557Y-81577227D01*
X128204166Y-81571563D01*
X128227221Y-81568144D01*
X128250500Y-81567000D01*
X128825500Y-81567000D01*
X128848779Y-81568144D01*
X128848779Y-81568144D01*
G37*
D17*
X128538000Y-82042000D03*
D16*
G36*
X130598779Y-81568144D02*
G01*
X130621834Y-81571563D01*
X130644443Y-81577227D01*
X130666387Y-81585079D01*
X130687457Y-81595044D01*
X130707448Y-81607026D01*
X130726168Y-81620910D01*
X130743438Y-81636562D01*
X130759090Y-81653832D01*
X130772974Y-81672552D01*
X130784956Y-81692543D01*
X130794921Y-81713613D01*
X130802773Y-81735557D01*
X130808437Y-81758166D01*
X130811856Y-81781221D01*
X130813000Y-81804500D01*
X130813000Y-82279500D01*
X130811856Y-82302779D01*
X130808437Y-82325834D01*
X130802773Y-82348443D01*
X130794921Y-82370387D01*
X130784956Y-82391457D01*
X130772974Y-82411448D01*
X130759090Y-82430168D01*
X130743438Y-82447438D01*
X130726168Y-82463090D01*
X130707448Y-82476974D01*
X130687457Y-82488956D01*
X130666387Y-82498921D01*
X130644443Y-82506773D01*
X130621834Y-82512437D01*
X130598779Y-82515856D01*
X130575500Y-82517000D01*
X130000500Y-82517000D01*
X129977221Y-82515856D01*
X129954166Y-82512437D01*
X129931557Y-82506773D01*
X129909613Y-82498921D01*
X129888543Y-82488956D01*
X129868552Y-82476974D01*
X129849832Y-82463090D01*
X129832562Y-82447438D01*
X129816910Y-82430168D01*
X129803026Y-82411448D01*
X129791044Y-82391457D01*
X129781079Y-82370387D01*
X129773227Y-82348443D01*
X129767563Y-82325834D01*
X129764144Y-82302779D01*
X129763000Y-82279500D01*
X129763000Y-81804500D01*
X129764144Y-81781221D01*
X129767563Y-81758166D01*
X129773227Y-81735557D01*
X129781079Y-81713613D01*
X129791044Y-81692543D01*
X129803026Y-81672552D01*
X129816910Y-81653832D01*
X129832562Y-81636562D01*
X129849832Y-81620910D01*
X129868552Y-81607026D01*
X129888543Y-81595044D01*
X129909613Y-81585079D01*
X129931557Y-81577227D01*
X129954166Y-81571563D01*
X129977221Y-81568144D01*
X130000500Y-81567000D01*
X130575500Y-81567000D01*
X130598779Y-81568144D01*
X130598779Y-81568144D01*
G37*
D17*
X130288000Y-82042000D03*
D16*
G36*
X128862779Y-78266144D02*
G01*
X128885834Y-78269563D01*
X128908443Y-78275227D01*
X128930387Y-78283079D01*
X128951457Y-78293044D01*
X128971448Y-78305026D01*
X128990168Y-78318910D01*
X129007438Y-78334562D01*
X129023090Y-78351832D01*
X129036974Y-78370552D01*
X129048956Y-78390543D01*
X129058921Y-78411613D01*
X129066773Y-78433557D01*
X129072437Y-78456166D01*
X129075856Y-78479221D01*
X129077000Y-78502500D01*
X129077000Y-78977500D01*
X129075856Y-79000779D01*
X129072437Y-79023834D01*
X129066773Y-79046443D01*
X129058921Y-79068387D01*
X129048956Y-79089457D01*
X129036974Y-79109448D01*
X129023090Y-79128168D01*
X129007438Y-79145438D01*
X128990168Y-79161090D01*
X128971448Y-79174974D01*
X128951457Y-79186956D01*
X128930387Y-79196921D01*
X128908443Y-79204773D01*
X128885834Y-79210437D01*
X128862779Y-79213856D01*
X128839500Y-79215000D01*
X128264500Y-79215000D01*
X128241221Y-79213856D01*
X128218166Y-79210437D01*
X128195557Y-79204773D01*
X128173613Y-79196921D01*
X128152543Y-79186956D01*
X128132552Y-79174974D01*
X128113832Y-79161090D01*
X128096562Y-79145438D01*
X128080910Y-79128168D01*
X128067026Y-79109448D01*
X128055044Y-79089457D01*
X128045079Y-79068387D01*
X128037227Y-79046443D01*
X128031563Y-79023834D01*
X128028144Y-79000779D01*
X128027000Y-78977500D01*
X128027000Y-78502500D01*
X128028144Y-78479221D01*
X128031563Y-78456166D01*
X128037227Y-78433557D01*
X128045079Y-78411613D01*
X128055044Y-78390543D01*
X128067026Y-78370552D01*
X128080910Y-78351832D01*
X128096562Y-78334562D01*
X128113832Y-78318910D01*
X128132552Y-78305026D01*
X128152543Y-78293044D01*
X128173613Y-78283079D01*
X128195557Y-78275227D01*
X128218166Y-78269563D01*
X128241221Y-78266144D01*
X128264500Y-78265000D01*
X128839500Y-78265000D01*
X128862779Y-78266144D01*
X128862779Y-78266144D01*
G37*
D17*
X128552000Y-78740000D03*
D16*
G36*
X130612779Y-78266144D02*
G01*
X130635834Y-78269563D01*
X130658443Y-78275227D01*
X130680387Y-78283079D01*
X130701457Y-78293044D01*
X130721448Y-78305026D01*
X130740168Y-78318910D01*
X130757438Y-78334562D01*
X130773090Y-78351832D01*
X130786974Y-78370552D01*
X130798956Y-78390543D01*
X130808921Y-78411613D01*
X130816773Y-78433557D01*
X130822437Y-78456166D01*
X130825856Y-78479221D01*
X130827000Y-78502500D01*
X130827000Y-78977500D01*
X130825856Y-79000779D01*
X130822437Y-79023834D01*
X130816773Y-79046443D01*
X130808921Y-79068387D01*
X130798956Y-79089457D01*
X130786974Y-79109448D01*
X130773090Y-79128168D01*
X130757438Y-79145438D01*
X130740168Y-79161090D01*
X130721448Y-79174974D01*
X130701457Y-79186956D01*
X130680387Y-79196921D01*
X130658443Y-79204773D01*
X130635834Y-79210437D01*
X130612779Y-79213856D01*
X130589500Y-79215000D01*
X130014500Y-79215000D01*
X129991221Y-79213856D01*
X129968166Y-79210437D01*
X129945557Y-79204773D01*
X129923613Y-79196921D01*
X129902543Y-79186956D01*
X129882552Y-79174974D01*
X129863832Y-79161090D01*
X129846562Y-79145438D01*
X129830910Y-79128168D01*
X129817026Y-79109448D01*
X129805044Y-79089457D01*
X129795079Y-79068387D01*
X129787227Y-79046443D01*
X129781563Y-79023834D01*
X129778144Y-79000779D01*
X129777000Y-78977500D01*
X129777000Y-78502500D01*
X129778144Y-78479221D01*
X129781563Y-78456166D01*
X129787227Y-78433557D01*
X129795079Y-78411613D01*
X129805044Y-78390543D01*
X129817026Y-78370552D01*
X129830910Y-78351832D01*
X129846562Y-78334562D01*
X129863832Y-78318910D01*
X129882552Y-78305026D01*
X129902543Y-78293044D01*
X129923613Y-78283079D01*
X129945557Y-78275227D01*
X129968166Y-78269563D01*
X129991221Y-78266144D01*
X130014500Y-78265000D01*
X130589500Y-78265000D01*
X130612779Y-78266144D01*
X130612779Y-78266144D01*
G37*
D17*
X130302000Y-78740000D03*
D16*
G36*
X130598779Y-75218144D02*
G01*
X130621834Y-75221563D01*
X130644443Y-75227227D01*
X130666387Y-75235079D01*
X130687457Y-75245044D01*
X130707448Y-75257026D01*
X130726168Y-75270910D01*
X130743438Y-75286562D01*
X130759090Y-75303832D01*
X130772974Y-75322552D01*
X130784956Y-75342543D01*
X130794921Y-75363613D01*
X130802773Y-75385557D01*
X130808437Y-75408166D01*
X130811856Y-75431221D01*
X130813000Y-75454500D01*
X130813000Y-75929500D01*
X130811856Y-75952779D01*
X130808437Y-75975834D01*
X130802773Y-75998443D01*
X130794921Y-76020387D01*
X130784956Y-76041457D01*
X130772974Y-76061448D01*
X130759090Y-76080168D01*
X130743438Y-76097438D01*
X130726168Y-76113090D01*
X130707448Y-76126974D01*
X130687457Y-76138956D01*
X130666387Y-76148921D01*
X130644443Y-76156773D01*
X130621834Y-76162437D01*
X130598779Y-76165856D01*
X130575500Y-76167000D01*
X130000500Y-76167000D01*
X129977221Y-76165856D01*
X129954166Y-76162437D01*
X129931557Y-76156773D01*
X129909613Y-76148921D01*
X129888543Y-76138956D01*
X129868552Y-76126974D01*
X129849832Y-76113090D01*
X129832562Y-76097438D01*
X129816910Y-76080168D01*
X129803026Y-76061448D01*
X129791044Y-76041457D01*
X129781079Y-76020387D01*
X129773227Y-75998443D01*
X129767563Y-75975834D01*
X129764144Y-75952779D01*
X129763000Y-75929500D01*
X129763000Y-75454500D01*
X129764144Y-75431221D01*
X129767563Y-75408166D01*
X129773227Y-75385557D01*
X129781079Y-75363613D01*
X129791044Y-75342543D01*
X129803026Y-75322552D01*
X129816910Y-75303832D01*
X129832562Y-75286562D01*
X129849832Y-75270910D01*
X129868552Y-75257026D01*
X129888543Y-75245044D01*
X129909613Y-75235079D01*
X129931557Y-75227227D01*
X129954166Y-75221563D01*
X129977221Y-75218144D01*
X130000500Y-75217000D01*
X130575500Y-75217000D01*
X130598779Y-75218144D01*
X130598779Y-75218144D01*
G37*
D17*
X130288000Y-75692000D03*
D16*
G36*
X128848779Y-75218144D02*
G01*
X128871834Y-75221563D01*
X128894443Y-75227227D01*
X128916387Y-75235079D01*
X128937457Y-75245044D01*
X128957448Y-75257026D01*
X128976168Y-75270910D01*
X128993438Y-75286562D01*
X129009090Y-75303832D01*
X129022974Y-75322552D01*
X129034956Y-75342543D01*
X129044921Y-75363613D01*
X129052773Y-75385557D01*
X129058437Y-75408166D01*
X129061856Y-75431221D01*
X129063000Y-75454500D01*
X129063000Y-75929500D01*
X129061856Y-75952779D01*
X129058437Y-75975834D01*
X129052773Y-75998443D01*
X129044921Y-76020387D01*
X129034956Y-76041457D01*
X129022974Y-76061448D01*
X129009090Y-76080168D01*
X128993438Y-76097438D01*
X128976168Y-76113090D01*
X128957448Y-76126974D01*
X128937457Y-76138956D01*
X128916387Y-76148921D01*
X128894443Y-76156773D01*
X128871834Y-76162437D01*
X128848779Y-76165856D01*
X128825500Y-76167000D01*
X128250500Y-76167000D01*
X128227221Y-76165856D01*
X128204166Y-76162437D01*
X128181557Y-76156773D01*
X128159613Y-76148921D01*
X128138543Y-76138956D01*
X128118552Y-76126974D01*
X128099832Y-76113090D01*
X128082562Y-76097438D01*
X128066910Y-76080168D01*
X128053026Y-76061448D01*
X128041044Y-76041457D01*
X128031079Y-76020387D01*
X128023227Y-75998443D01*
X128017563Y-75975834D01*
X128014144Y-75952779D01*
X128013000Y-75929500D01*
X128013000Y-75454500D01*
X128014144Y-75431221D01*
X128017563Y-75408166D01*
X128023227Y-75385557D01*
X128031079Y-75363613D01*
X128041044Y-75342543D01*
X128053026Y-75322552D01*
X128066910Y-75303832D01*
X128082562Y-75286562D01*
X128099832Y-75270910D01*
X128118552Y-75257026D01*
X128138543Y-75245044D01*
X128159613Y-75235079D01*
X128181557Y-75227227D01*
X128204166Y-75221563D01*
X128227221Y-75218144D01*
X128250500Y-75217000D01*
X128825500Y-75217000D01*
X128848779Y-75218144D01*
X128848779Y-75218144D01*
G37*
D17*
X128538000Y-75692000D03*
D16*
G36*
X130584779Y-72170144D02*
G01*
X130607834Y-72173563D01*
X130630443Y-72179227D01*
X130652387Y-72187079D01*
X130673457Y-72197044D01*
X130693448Y-72209026D01*
X130712168Y-72222910D01*
X130729438Y-72238562D01*
X130745090Y-72255832D01*
X130758974Y-72274552D01*
X130770956Y-72294543D01*
X130780921Y-72315613D01*
X130788773Y-72337557D01*
X130794437Y-72360166D01*
X130797856Y-72383221D01*
X130799000Y-72406500D01*
X130799000Y-72881500D01*
X130797856Y-72904779D01*
X130794437Y-72927834D01*
X130788773Y-72950443D01*
X130780921Y-72972387D01*
X130770956Y-72993457D01*
X130758974Y-73013448D01*
X130745090Y-73032168D01*
X130729438Y-73049438D01*
X130712168Y-73065090D01*
X130693448Y-73078974D01*
X130673457Y-73090956D01*
X130652387Y-73100921D01*
X130630443Y-73108773D01*
X130607834Y-73114437D01*
X130584779Y-73117856D01*
X130561500Y-73119000D01*
X129986500Y-73119000D01*
X129963221Y-73117856D01*
X129940166Y-73114437D01*
X129917557Y-73108773D01*
X129895613Y-73100921D01*
X129874543Y-73090956D01*
X129854552Y-73078974D01*
X129835832Y-73065090D01*
X129818562Y-73049438D01*
X129802910Y-73032168D01*
X129789026Y-73013448D01*
X129777044Y-72993457D01*
X129767079Y-72972387D01*
X129759227Y-72950443D01*
X129753563Y-72927834D01*
X129750144Y-72904779D01*
X129749000Y-72881500D01*
X129749000Y-72406500D01*
X129750144Y-72383221D01*
X129753563Y-72360166D01*
X129759227Y-72337557D01*
X129767079Y-72315613D01*
X129777044Y-72294543D01*
X129789026Y-72274552D01*
X129802910Y-72255832D01*
X129818562Y-72238562D01*
X129835832Y-72222910D01*
X129854552Y-72209026D01*
X129874543Y-72197044D01*
X129895613Y-72187079D01*
X129917557Y-72179227D01*
X129940166Y-72173563D01*
X129963221Y-72170144D01*
X129986500Y-72169000D01*
X130561500Y-72169000D01*
X130584779Y-72170144D01*
X130584779Y-72170144D01*
G37*
D17*
X130274000Y-72644000D03*
D16*
G36*
X128834779Y-72170144D02*
G01*
X128857834Y-72173563D01*
X128880443Y-72179227D01*
X128902387Y-72187079D01*
X128923457Y-72197044D01*
X128943448Y-72209026D01*
X128962168Y-72222910D01*
X128979438Y-72238562D01*
X128995090Y-72255832D01*
X129008974Y-72274552D01*
X129020956Y-72294543D01*
X129030921Y-72315613D01*
X129038773Y-72337557D01*
X129044437Y-72360166D01*
X129047856Y-72383221D01*
X129049000Y-72406500D01*
X129049000Y-72881500D01*
X129047856Y-72904779D01*
X129044437Y-72927834D01*
X129038773Y-72950443D01*
X129030921Y-72972387D01*
X129020956Y-72993457D01*
X129008974Y-73013448D01*
X128995090Y-73032168D01*
X128979438Y-73049438D01*
X128962168Y-73065090D01*
X128943448Y-73078974D01*
X128923457Y-73090956D01*
X128902387Y-73100921D01*
X128880443Y-73108773D01*
X128857834Y-73114437D01*
X128834779Y-73117856D01*
X128811500Y-73119000D01*
X128236500Y-73119000D01*
X128213221Y-73117856D01*
X128190166Y-73114437D01*
X128167557Y-73108773D01*
X128145613Y-73100921D01*
X128124543Y-73090956D01*
X128104552Y-73078974D01*
X128085832Y-73065090D01*
X128068562Y-73049438D01*
X128052910Y-73032168D01*
X128039026Y-73013448D01*
X128027044Y-72993457D01*
X128017079Y-72972387D01*
X128009227Y-72950443D01*
X128003563Y-72927834D01*
X128000144Y-72904779D01*
X127999000Y-72881500D01*
X127999000Y-72406500D01*
X128000144Y-72383221D01*
X128003563Y-72360166D01*
X128009227Y-72337557D01*
X128017079Y-72315613D01*
X128027044Y-72294543D01*
X128039026Y-72274552D01*
X128052910Y-72255832D01*
X128068562Y-72238562D01*
X128085832Y-72222910D01*
X128104552Y-72209026D01*
X128124543Y-72197044D01*
X128145613Y-72187079D01*
X128167557Y-72179227D01*
X128190166Y-72173563D01*
X128213221Y-72170144D01*
X128236500Y-72169000D01*
X128811500Y-72169000D01*
X128834779Y-72170144D01*
X128834779Y-72170144D01*
G37*
D17*
X128524000Y-72644000D03*
D16*
G36*
X128848779Y-83092144D02*
G01*
X128871834Y-83095563D01*
X128894443Y-83101227D01*
X128916387Y-83109079D01*
X128937457Y-83119044D01*
X128957448Y-83131026D01*
X128976168Y-83144910D01*
X128993438Y-83160562D01*
X129009090Y-83177832D01*
X129022974Y-83196552D01*
X129034956Y-83216543D01*
X129044921Y-83237613D01*
X129052773Y-83259557D01*
X129058437Y-83282166D01*
X129061856Y-83305221D01*
X129063000Y-83328500D01*
X129063000Y-83803500D01*
X129061856Y-83826779D01*
X129058437Y-83849834D01*
X129052773Y-83872443D01*
X129044921Y-83894387D01*
X129034956Y-83915457D01*
X129022974Y-83935448D01*
X129009090Y-83954168D01*
X128993438Y-83971438D01*
X128976168Y-83987090D01*
X128957448Y-84000974D01*
X128937457Y-84012956D01*
X128916387Y-84022921D01*
X128894443Y-84030773D01*
X128871834Y-84036437D01*
X128848779Y-84039856D01*
X128825500Y-84041000D01*
X128250500Y-84041000D01*
X128227221Y-84039856D01*
X128204166Y-84036437D01*
X128181557Y-84030773D01*
X128159613Y-84022921D01*
X128138543Y-84012956D01*
X128118552Y-84000974D01*
X128099832Y-83987090D01*
X128082562Y-83971438D01*
X128066910Y-83954168D01*
X128053026Y-83935448D01*
X128041044Y-83915457D01*
X128031079Y-83894387D01*
X128023227Y-83872443D01*
X128017563Y-83849834D01*
X128014144Y-83826779D01*
X128013000Y-83803500D01*
X128013000Y-83328500D01*
X128014144Y-83305221D01*
X128017563Y-83282166D01*
X128023227Y-83259557D01*
X128031079Y-83237613D01*
X128041044Y-83216543D01*
X128053026Y-83196552D01*
X128066910Y-83177832D01*
X128082562Y-83160562D01*
X128099832Y-83144910D01*
X128118552Y-83131026D01*
X128138543Y-83119044D01*
X128159613Y-83109079D01*
X128181557Y-83101227D01*
X128204166Y-83095563D01*
X128227221Y-83092144D01*
X128250500Y-83091000D01*
X128825500Y-83091000D01*
X128848779Y-83092144D01*
X128848779Y-83092144D01*
G37*
D17*
X128538000Y-83566000D03*
D16*
G36*
X130598779Y-83092144D02*
G01*
X130621834Y-83095563D01*
X130644443Y-83101227D01*
X130666387Y-83109079D01*
X130687457Y-83119044D01*
X130707448Y-83131026D01*
X130726168Y-83144910D01*
X130743438Y-83160562D01*
X130759090Y-83177832D01*
X130772974Y-83196552D01*
X130784956Y-83216543D01*
X130794921Y-83237613D01*
X130802773Y-83259557D01*
X130808437Y-83282166D01*
X130811856Y-83305221D01*
X130813000Y-83328500D01*
X130813000Y-83803500D01*
X130811856Y-83826779D01*
X130808437Y-83849834D01*
X130802773Y-83872443D01*
X130794921Y-83894387D01*
X130784956Y-83915457D01*
X130772974Y-83935448D01*
X130759090Y-83954168D01*
X130743438Y-83971438D01*
X130726168Y-83987090D01*
X130707448Y-84000974D01*
X130687457Y-84012956D01*
X130666387Y-84022921D01*
X130644443Y-84030773D01*
X130621834Y-84036437D01*
X130598779Y-84039856D01*
X130575500Y-84041000D01*
X130000500Y-84041000D01*
X129977221Y-84039856D01*
X129954166Y-84036437D01*
X129931557Y-84030773D01*
X129909613Y-84022921D01*
X129888543Y-84012956D01*
X129868552Y-84000974D01*
X129849832Y-83987090D01*
X129832562Y-83971438D01*
X129816910Y-83954168D01*
X129803026Y-83935448D01*
X129791044Y-83915457D01*
X129781079Y-83894387D01*
X129773227Y-83872443D01*
X129767563Y-83849834D01*
X129764144Y-83826779D01*
X129763000Y-83803500D01*
X129763000Y-83328500D01*
X129764144Y-83305221D01*
X129767563Y-83282166D01*
X129773227Y-83259557D01*
X129781079Y-83237613D01*
X129791044Y-83216543D01*
X129803026Y-83196552D01*
X129816910Y-83177832D01*
X129832562Y-83160562D01*
X129849832Y-83144910D01*
X129868552Y-83131026D01*
X129888543Y-83119044D01*
X129909613Y-83109079D01*
X129931557Y-83101227D01*
X129954166Y-83095563D01*
X129977221Y-83092144D01*
X130000500Y-83091000D01*
X130575500Y-83091000D01*
X130598779Y-83092144D01*
X130598779Y-83092144D01*
G37*
D17*
X130288000Y-83566000D03*
D16*
G36*
X139388504Y-67002204D02*
G01*
X139412773Y-67005804D01*
X139436571Y-67011765D01*
X139459671Y-67020030D01*
X139481849Y-67030520D01*
X139502893Y-67043133D01*
X139522598Y-67057747D01*
X139540777Y-67074223D01*
X139557253Y-67092402D01*
X139571867Y-67112107D01*
X139584480Y-67133151D01*
X139594970Y-67155329D01*
X139603235Y-67178429D01*
X139609196Y-67202227D01*
X139612796Y-67226496D01*
X139614000Y-67251000D01*
X139614000Y-69401000D01*
X139612796Y-69425504D01*
X139609196Y-69449773D01*
X139603235Y-69473571D01*
X139594970Y-69496671D01*
X139584480Y-69518849D01*
X139571867Y-69539893D01*
X139557253Y-69559598D01*
X139540777Y-69577777D01*
X139522598Y-69594253D01*
X139502893Y-69608867D01*
X139481849Y-69621480D01*
X139459671Y-69631970D01*
X139436571Y-69640235D01*
X139412773Y-69646196D01*
X139388504Y-69649796D01*
X139364000Y-69651000D01*
X138439000Y-69651000D01*
X138414496Y-69649796D01*
X138390227Y-69646196D01*
X138366429Y-69640235D01*
X138343329Y-69631970D01*
X138321151Y-69621480D01*
X138300107Y-69608867D01*
X138280402Y-69594253D01*
X138262223Y-69577777D01*
X138245747Y-69559598D01*
X138231133Y-69539893D01*
X138218520Y-69518849D01*
X138208030Y-69496671D01*
X138199765Y-69473571D01*
X138193804Y-69449773D01*
X138190204Y-69425504D01*
X138189000Y-69401000D01*
X138189000Y-67251000D01*
X138190204Y-67226496D01*
X138193804Y-67202227D01*
X138199765Y-67178429D01*
X138208030Y-67155329D01*
X138218520Y-67133151D01*
X138231133Y-67112107D01*
X138245747Y-67092402D01*
X138262223Y-67074223D01*
X138280402Y-67057747D01*
X138300107Y-67043133D01*
X138321151Y-67030520D01*
X138343329Y-67020030D01*
X138366429Y-67011765D01*
X138390227Y-67005804D01*
X138414496Y-67002204D01*
X138439000Y-67001000D01*
X139364000Y-67001000D01*
X139388504Y-67002204D01*
X139388504Y-67002204D01*
G37*
D20*
X138901500Y-68326000D03*
D16*
G36*
X136413504Y-67002204D02*
G01*
X136437773Y-67005804D01*
X136461571Y-67011765D01*
X136484671Y-67020030D01*
X136506849Y-67030520D01*
X136527893Y-67043133D01*
X136547598Y-67057747D01*
X136565777Y-67074223D01*
X136582253Y-67092402D01*
X136596867Y-67112107D01*
X136609480Y-67133151D01*
X136619970Y-67155329D01*
X136628235Y-67178429D01*
X136634196Y-67202227D01*
X136637796Y-67226496D01*
X136639000Y-67251000D01*
X136639000Y-69401000D01*
X136637796Y-69425504D01*
X136634196Y-69449773D01*
X136628235Y-69473571D01*
X136619970Y-69496671D01*
X136609480Y-69518849D01*
X136596867Y-69539893D01*
X136582253Y-69559598D01*
X136565777Y-69577777D01*
X136547598Y-69594253D01*
X136527893Y-69608867D01*
X136506849Y-69621480D01*
X136484671Y-69631970D01*
X136461571Y-69640235D01*
X136437773Y-69646196D01*
X136413504Y-69649796D01*
X136389000Y-69651000D01*
X135464000Y-69651000D01*
X135439496Y-69649796D01*
X135415227Y-69646196D01*
X135391429Y-69640235D01*
X135368329Y-69631970D01*
X135346151Y-69621480D01*
X135325107Y-69608867D01*
X135305402Y-69594253D01*
X135287223Y-69577777D01*
X135270747Y-69559598D01*
X135256133Y-69539893D01*
X135243520Y-69518849D01*
X135233030Y-69496671D01*
X135224765Y-69473571D01*
X135218804Y-69449773D01*
X135215204Y-69425504D01*
X135214000Y-69401000D01*
X135214000Y-67251000D01*
X135215204Y-67226496D01*
X135218804Y-67202227D01*
X135224765Y-67178429D01*
X135233030Y-67155329D01*
X135243520Y-67133151D01*
X135256133Y-67112107D01*
X135270747Y-67092402D01*
X135287223Y-67074223D01*
X135305402Y-67057747D01*
X135325107Y-67043133D01*
X135346151Y-67030520D01*
X135368329Y-67020030D01*
X135391429Y-67011765D01*
X135415227Y-67005804D01*
X135439496Y-67002204D01*
X135464000Y-67001000D01*
X136389000Y-67001000D01*
X136413504Y-67002204D01*
X136413504Y-67002204D01*
G37*
D20*
X135926500Y-68326000D03*
D16*
G36*
X124252505Y-86448204D02*
G01*
X124276773Y-86451804D01*
X124300572Y-86457765D01*
X124323671Y-86466030D01*
X124345850Y-86476520D01*
X124366893Y-86489132D01*
X124386599Y-86503747D01*
X124404777Y-86520223D01*
X124421253Y-86538401D01*
X124435868Y-86558107D01*
X124448480Y-86579150D01*
X124458970Y-86601329D01*
X124467235Y-86624428D01*
X124473196Y-86648227D01*
X124476796Y-86672495D01*
X124478000Y-86696999D01*
X124478000Y-87547001D01*
X124476796Y-87571505D01*
X124473196Y-87595773D01*
X124467235Y-87619572D01*
X124458970Y-87642671D01*
X124448480Y-87664850D01*
X124435868Y-87685893D01*
X124421253Y-87705599D01*
X124404777Y-87723777D01*
X124386599Y-87740253D01*
X124366893Y-87754868D01*
X124345850Y-87767480D01*
X124323671Y-87777970D01*
X124300572Y-87786235D01*
X124276773Y-87792196D01*
X124252505Y-87795796D01*
X124228001Y-87797000D01*
X123327999Y-87797000D01*
X123303495Y-87795796D01*
X123279227Y-87792196D01*
X123255428Y-87786235D01*
X123232329Y-87777970D01*
X123210150Y-87767480D01*
X123189107Y-87754868D01*
X123169401Y-87740253D01*
X123151223Y-87723777D01*
X123134747Y-87705599D01*
X123120132Y-87685893D01*
X123107520Y-87664850D01*
X123097030Y-87642671D01*
X123088765Y-87619572D01*
X123082804Y-87595773D01*
X123079204Y-87571505D01*
X123078000Y-87547001D01*
X123078000Y-86696999D01*
X123079204Y-86672495D01*
X123082804Y-86648227D01*
X123088765Y-86624428D01*
X123097030Y-86601329D01*
X123107520Y-86579150D01*
X123120132Y-86558107D01*
X123134747Y-86538401D01*
X123151223Y-86520223D01*
X123169401Y-86503747D01*
X123189107Y-86489132D01*
X123210150Y-86476520D01*
X123232329Y-86466030D01*
X123255428Y-86457765D01*
X123279227Y-86451804D01*
X123303495Y-86448204D01*
X123327999Y-86447000D01*
X124228001Y-86447000D01*
X124252505Y-86448204D01*
X124252505Y-86448204D01*
G37*
D21*
X123778000Y-87122000D03*
D16*
G36*
X121552505Y-86448204D02*
G01*
X121576773Y-86451804D01*
X121600572Y-86457765D01*
X121623671Y-86466030D01*
X121645850Y-86476520D01*
X121666893Y-86489132D01*
X121686599Y-86503747D01*
X121704777Y-86520223D01*
X121721253Y-86538401D01*
X121735868Y-86558107D01*
X121748480Y-86579150D01*
X121758970Y-86601329D01*
X121767235Y-86624428D01*
X121773196Y-86648227D01*
X121776796Y-86672495D01*
X121778000Y-86696999D01*
X121778000Y-87547001D01*
X121776796Y-87571505D01*
X121773196Y-87595773D01*
X121767235Y-87619572D01*
X121758970Y-87642671D01*
X121748480Y-87664850D01*
X121735868Y-87685893D01*
X121721253Y-87705599D01*
X121704777Y-87723777D01*
X121686599Y-87740253D01*
X121666893Y-87754868D01*
X121645850Y-87767480D01*
X121623671Y-87777970D01*
X121600572Y-87786235D01*
X121576773Y-87792196D01*
X121552505Y-87795796D01*
X121528001Y-87797000D01*
X120627999Y-87797000D01*
X120603495Y-87795796D01*
X120579227Y-87792196D01*
X120555428Y-87786235D01*
X120532329Y-87777970D01*
X120510150Y-87767480D01*
X120489107Y-87754868D01*
X120469401Y-87740253D01*
X120451223Y-87723777D01*
X120434747Y-87705599D01*
X120420132Y-87685893D01*
X120407520Y-87664850D01*
X120397030Y-87642671D01*
X120388765Y-87619572D01*
X120382804Y-87595773D01*
X120379204Y-87571505D01*
X120378000Y-87547001D01*
X120378000Y-86696999D01*
X120379204Y-86672495D01*
X120382804Y-86648227D01*
X120388765Y-86624428D01*
X120397030Y-86601329D01*
X120407520Y-86579150D01*
X120420132Y-86558107D01*
X120434747Y-86538401D01*
X120451223Y-86520223D01*
X120469401Y-86503747D01*
X120489107Y-86489132D01*
X120510150Y-86476520D01*
X120532329Y-86466030D01*
X120555428Y-86457765D01*
X120579227Y-86451804D01*
X120603495Y-86448204D01*
X120627999Y-86447000D01*
X121528001Y-86447000D01*
X121552505Y-86448204D01*
X121552505Y-86448204D01*
G37*
D21*
X121078000Y-87122000D03*
D16*
G36*
X116632505Y-86448204D02*
G01*
X116656773Y-86451804D01*
X116680572Y-86457765D01*
X116703671Y-86466030D01*
X116725850Y-86476520D01*
X116746893Y-86489132D01*
X116766599Y-86503747D01*
X116784777Y-86520223D01*
X116801253Y-86538401D01*
X116815868Y-86558107D01*
X116828480Y-86579150D01*
X116838970Y-86601329D01*
X116847235Y-86624428D01*
X116853196Y-86648227D01*
X116856796Y-86672495D01*
X116858000Y-86696999D01*
X116858000Y-87547001D01*
X116856796Y-87571505D01*
X116853196Y-87595773D01*
X116847235Y-87619572D01*
X116838970Y-87642671D01*
X116828480Y-87664850D01*
X116815868Y-87685893D01*
X116801253Y-87705599D01*
X116784777Y-87723777D01*
X116766599Y-87740253D01*
X116746893Y-87754868D01*
X116725850Y-87767480D01*
X116703671Y-87777970D01*
X116680572Y-87786235D01*
X116656773Y-87792196D01*
X116632505Y-87795796D01*
X116608001Y-87797000D01*
X115707999Y-87797000D01*
X115683495Y-87795796D01*
X115659227Y-87792196D01*
X115635428Y-87786235D01*
X115612329Y-87777970D01*
X115590150Y-87767480D01*
X115569107Y-87754868D01*
X115549401Y-87740253D01*
X115531223Y-87723777D01*
X115514747Y-87705599D01*
X115500132Y-87685893D01*
X115487520Y-87664850D01*
X115477030Y-87642671D01*
X115468765Y-87619572D01*
X115462804Y-87595773D01*
X115459204Y-87571505D01*
X115458000Y-87547001D01*
X115458000Y-86696999D01*
X115459204Y-86672495D01*
X115462804Y-86648227D01*
X115468765Y-86624428D01*
X115477030Y-86601329D01*
X115487520Y-86579150D01*
X115500132Y-86558107D01*
X115514747Y-86538401D01*
X115531223Y-86520223D01*
X115549401Y-86503747D01*
X115569107Y-86489132D01*
X115590150Y-86476520D01*
X115612329Y-86466030D01*
X115635428Y-86457765D01*
X115659227Y-86451804D01*
X115683495Y-86448204D01*
X115707999Y-86447000D01*
X116608001Y-86447000D01*
X116632505Y-86448204D01*
X116632505Y-86448204D01*
G37*
D21*
X116158000Y-87122000D03*
D16*
G36*
X113932505Y-86448204D02*
G01*
X113956773Y-86451804D01*
X113980572Y-86457765D01*
X114003671Y-86466030D01*
X114025850Y-86476520D01*
X114046893Y-86489132D01*
X114066599Y-86503747D01*
X114084777Y-86520223D01*
X114101253Y-86538401D01*
X114115868Y-86558107D01*
X114128480Y-86579150D01*
X114138970Y-86601329D01*
X114147235Y-86624428D01*
X114153196Y-86648227D01*
X114156796Y-86672495D01*
X114158000Y-86696999D01*
X114158000Y-87547001D01*
X114156796Y-87571505D01*
X114153196Y-87595773D01*
X114147235Y-87619572D01*
X114138970Y-87642671D01*
X114128480Y-87664850D01*
X114115868Y-87685893D01*
X114101253Y-87705599D01*
X114084777Y-87723777D01*
X114066599Y-87740253D01*
X114046893Y-87754868D01*
X114025850Y-87767480D01*
X114003671Y-87777970D01*
X113980572Y-87786235D01*
X113956773Y-87792196D01*
X113932505Y-87795796D01*
X113908001Y-87797000D01*
X113007999Y-87797000D01*
X112983495Y-87795796D01*
X112959227Y-87792196D01*
X112935428Y-87786235D01*
X112912329Y-87777970D01*
X112890150Y-87767480D01*
X112869107Y-87754868D01*
X112849401Y-87740253D01*
X112831223Y-87723777D01*
X112814747Y-87705599D01*
X112800132Y-87685893D01*
X112787520Y-87664850D01*
X112777030Y-87642671D01*
X112768765Y-87619572D01*
X112762804Y-87595773D01*
X112759204Y-87571505D01*
X112758000Y-87547001D01*
X112758000Y-86696999D01*
X112759204Y-86672495D01*
X112762804Y-86648227D01*
X112768765Y-86624428D01*
X112777030Y-86601329D01*
X112787520Y-86579150D01*
X112800132Y-86558107D01*
X112814747Y-86538401D01*
X112831223Y-86520223D01*
X112849401Y-86503747D01*
X112869107Y-86489132D01*
X112890150Y-86476520D01*
X112912329Y-86466030D01*
X112935428Y-86457765D01*
X112959227Y-86451804D01*
X112983495Y-86448204D01*
X113007999Y-86447000D01*
X113908001Y-86447000D01*
X113932505Y-86448204D01*
X113932505Y-86448204D01*
G37*
D21*
X113458000Y-87122000D03*
D22*
X121158000Y-80772000D03*
X124079000Y-76200000D03*
X142240000Y-86360000D03*
X141605000Y-75057000D03*
X123913026Y-73444975D03*
X140725190Y-86703804D03*
X141605000Y-77343000D03*
X141605000Y-81153000D03*
X126492000Y-79629000D03*
X126492000Y-76581000D03*
X125095000Y-81788000D03*
X148463000Y-81407000D03*
X149098000Y-77597000D03*
X138938000Y-70485000D03*
X137922000Y-74676000D03*
X118491000Y-67758990D03*
X130048000Y-85598000D03*
X113665000Y-85598000D03*
X136652000Y-85344000D03*
X117619579Y-70331101D03*
X127254000Y-81788000D03*
X133223000Y-68453000D03*
X126111000Y-85090000D03*
X135337574Y-80581962D03*
X133232686Y-71533976D03*
X136080038Y-81324426D03*
X133520026Y-70571920D03*
X145161000Y-81280000D03*
X148336000Y-80010000D03*
X141097000Y-68580000D03*
X137922000Y-73540000D03*
X133096000Y-87249000D03*
X139334724Y-87193011D03*
X142314200Y-85114781D03*
X127508000Y-65532000D03*
X132080000Y-73914000D03*
X116840000Y-67691000D03*
X121666000Y-66421000D03*
X134529000Y-73540000D03*
X137795000Y-65532000D03*
X141668805Y-74059025D03*
X135509000Y-86868000D03*
X141244448Y-73153517D03*
X120396000Y-76784000D03*
X120032000Y-80899000D03*
X113411000Y-71501000D03*
X132136732Y-65975966D03*
X120396000Y-75734000D03*
X118982000Y-80899000D03*
D23*
X120867000Y-84059000D02*
X121567000Y-84059000D01*
X120867000Y-69459000D02*
X121567000Y-69459000D01*
D24*
X143764000Y-85090000D02*
X146304000Y-85090000D01*
X115517000Y-69459000D02*
X121567000Y-69459000D01*
X115517000Y-84059000D02*
X121567000Y-84059000D01*
X122198000Y-69459000D02*
X124093000Y-67564000D01*
X121567000Y-69459000D02*
X122198000Y-69459000D01*
D23*
X122504000Y-80772000D02*
X122517000Y-80759000D01*
X121158000Y-80772000D02*
X122504000Y-80772000D01*
X122467001Y-79308999D02*
X122517000Y-79259000D01*
X121456999Y-79308999D02*
X122467001Y-79308999D01*
X121158000Y-80772000D02*
X121158000Y-79607998D01*
X121158000Y-79607998D02*
X121456999Y-79308999D01*
X121467000Y-77759000D02*
X122517000Y-77759000D01*
X121158000Y-78068000D02*
X121467000Y-77759000D01*
X121158000Y-80772000D02*
X121158000Y-78068000D01*
X122517000Y-76259000D02*
X124020000Y-76259000D01*
X124020000Y-76259000D02*
X124079000Y-76200000D01*
X115517000Y-86481000D02*
X116158000Y-87122000D01*
X115517000Y-84059000D02*
X115517000Y-86481000D01*
X121567000Y-86633000D02*
X121078000Y-87122000D01*
X121567000Y-84059000D02*
X121567000Y-86633000D01*
X143764000Y-85090000D02*
X143510000Y-85090000D01*
X143510000Y-85090000D02*
X142240000Y-86360000D01*
X139368000Y-75397000D02*
X141265000Y-75397000D01*
X141265000Y-75397000D02*
X141605000Y-75057000D01*
X121567000Y-84959000D02*
X122456817Y-85848817D01*
X122456817Y-85848817D02*
X124956817Y-85848817D01*
X124956817Y-85848817D02*
X125631001Y-86523001D01*
X121567000Y-84059000D02*
X121567000Y-84959000D01*
X123727051Y-73259000D02*
X122517000Y-73259000D01*
X123913026Y-73444975D02*
X123727051Y-73259000D01*
X125780002Y-86374000D02*
X134112000Y-86374000D01*
X125631001Y-86523001D02*
X125780002Y-86374000D01*
X135688103Y-85874928D02*
X136739166Y-86925991D01*
X140325191Y-86303805D02*
X140725190Y-86703804D01*
X138442007Y-86925991D02*
X139064193Y-86303805D01*
X139064193Y-86303805D02*
X140325191Y-86303805D01*
X134112000Y-86374000D02*
X134611072Y-85874928D01*
X134611072Y-85874928D02*
X135688103Y-85874928D01*
X136739166Y-86925991D02*
X138442007Y-86925991D01*
X141589199Y-81168801D02*
X141605000Y-81153000D01*
X141589199Y-85462782D02*
X141589199Y-81168801D01*
X142240000Y-86360000D02*
X142240000Y-86113583D01*
X142240000Y-86113583D02*
X141589199Y-85462782D01*
X149571949Y-78070949D02*
X149098000Y-77597000D01*
X148463000Y-81407000D02*
X149571949Y-80298051D01*
X149571949Y-80298051D02*
X149571949Y-78070949D01*
D24*
X143662000Y-87528000D02*
X143764000Y-87630000D01*
X143764000Y-87630000D02*
X146304000Y-87630000D01*
D23*
X139079000Y-68148500D02*
X138901500Y-68326000D01*
X139079000Y-65532000D02*
X139079000Y-68148500D01*
X138901500Y-68326000D02*
X138901500Y-70448500D01*
X138901500Y-70448500D02*
X138938000Y-70485000D01*
X139297000Y-74676000D02*
X139368000Y-74747000D01*
X137922000Y-74676000D02*
X139297000Y-74676000D01*
X137201000Y-75397000D02*
X135968000Y-75397000D01*
X137922000Y-74676000D02*
X137201000Y-75397000D01*
X147479001Y-71825999D02*
X146678003Y-71025001D01*
X147479001Y-86454999D02*
X147479001Y-71825999D01*
X146678003Y-71025001D02*
X139478001Y-71025001D01*
X139337999Y-70884999D02*
X138938000Y-70485000D01*
X146304000Y-87630000D02*
X147479001Y-86454999D01*
X139478001Y-71025001D02*
X139337999Y-70884999D01*
X136704010Y-88938010D02*
X136403072Y-88637072D01*
X138174500Y-88938010D02*
X136704010Y-88938010D01*
X138212510Y-88900000D02*
X138174500Y-88938010D01*
X138303000Y-88900000D02*
X138212510Y-88900000D01*
X136403072Y-88637072D02*
X135904000Y-88138000D01*
X138341010Y-88938010D02*
X138303000Y-88900000D01*
X142455990Y-88938010D02*
X138341010Y-88938010D01*
X143764000Y-87630000D02*
X142455990Y-88938010D01*
X135404928Y-88637072D02*
X135904000Y-88138000D01*
X135067990Y-88974010D02*
X135404928Y-88637072D01*
X133641500Y-88974010D02*
X135067990Y-88974010D01*
X131789490Y-87122000D02*
X133641500Y-88974010D01*
X123778000Y-87122000D02*
X131789490Y-87122000D01*
D24*
X115175000Y-66548000D02*
X118759000Y-66548000D01*
D23*
X118491000Y-66167000D02*
X118491000Y-67758990D01*
X112574990Y-86238990D02*
X112773627Y-86437627D01*
X112574990Y-66077500D02*
X112574990Y-86238990D01*
X112904500Y-65747990D02*
X112574990Y-66077500D01*
X112773627Y-86437627D02*
X113458000Y-87122000D01*
X114949990Y-65747990D02*
X112904500Y-65747990D01*
X115175000Y-65973000D02*
X114949990Y-65747990D01*
X115175000Y-66548000D02*
X115175000Y-65973000D01*
X139413000Y-84394000D02*
X140238000Y-84394000D01*
X138463000Y-85344000D02*
X139413000Y-84394000D01*
X137638000Y-85344000D02*
X138463000Y-85344000D01*
X113665000Y-86915000D02*
X113458000Y-87122000D01*
X113665000Y-85598000D02*
X113665000Y-86915000D01*
X137638000Y-85344000D02*
X136652000Y-85344000D01*
X120047478Y-72759000D02*
X118019578Y-70731100D01*
X122517000Y-72759000D02*
X120047478Y-72759000D01*
X118019578Y-70731100D02*
X117619579Y-70331101D01*
X132842000Y-81154000D02*
X127888000Y-81154000D01*
X127888000Y-81154000D02*
X127254000Y-81788000D01*
X141083000Y-88138000D02*
X141083000Y-87563000D01*
X141450192Y-87195808D02*
X141450192Y-86156192D01*
X141083000Y-87563000D02*
X141450192Y-87195808D01*
X141450192Y-86156192D02*
X140238000Y-84944000D01*
X140238000Y-84944000D02*
X140238000Y-84394000D01*
X135799500Y-68453000D02*
X135926500Y-68326000D01*
X133223000Y-68453000D02*
X135799500Y-68453000D01*
X132902000Y-84394000D02*
X132842000Y-84454000D01*
X137638000Y-84394000D02*
X132902000Y-84394000D01*
X131992000Y-84454000D02*
X132842000Y-84454000D01*
X127312685Y-84454000D02*
X131992000Y-84454000D01*
X126676685Y-85090000D02*
X127312685Y-84454000D01*
X126111000Y-85090000D02*
X126676685Y-85090000D01*
D25*
X134637573Y-80264000D02*
X134637573Y-80245961D01*
X130274000Y-80264000D02*
X134637573Y-80264000D01*
X134637573Y-80245961D02*
X136023535Y-78859999D01*
X136023535Y-78859999D02*
X144316001Y-78859999D01*
X144316001Y-78859999D02*
X144615001Y-79158999D01*
X144615001Y-79158999D02*
X146304000Y-77470000D01*
X145854000Y-75380000D02*
X146304000Y-74930000D01*
X132110000Y-75380000D02*
X133824615Y-75380000D01*
X130274000Y-77216000D02*
X132110000Y-75380000D01*
X133824615Y-75380000D02*
X134741607Y-76296992D01*
X134741607Y-76296992D02*
X144099010Y-76296992D01*
X144099010Y-76296992D02*
X145016002Y-75380000D01*
X145016002Y-75380000D02*
X145854000Y-75380000D01*
X140908447Y-72453516D02*
X142125514Y-72453516D01*
X143211999Y-73540001D02*
X145153999Y-73540001D01*
X131540234Y-72915766D02*
X132152849Y-72915766D01*
X132228615Y-72840000D02*
X140521963Y-72840000D01*
X140521963Y-72840000D02*
X140908447Y-72453516D01*
X145153999Y-73540001D02*
X145454001Y-73239999D01*
X142125514Y-72453516D02*
X143211999Y-73540001D01*
X130288000Y-74168000D02*
X131540234Y-72915766D01*
X132152849Y-72915766D02*
X132228615Y-72840000D01*
X145454001Y-73239999D02*
X146304000Y-72390000D01*
X130288000Y-82042000D02*
X130825000Y-82579000D01*
X130825000Y-82579000D02*
X133764801Y-82579000D01*
X133764801Y-82579000D02*
X135337574Y-81006227D01*
X135337574Y-81006227D02*
X135337574Y-80581962D01*
X131161603Y-71120000D02*
X131463221Y-71421618D01*
X130288000Y-71120000D02*
X131161603Y-71120000D01*
X131463221Y-71421618D02*
X133120328Y-71421618D01*
X133120328Y-71421618D02*
X133232686Y-71533976D01*
X143764000Y-78410008D02*
X143764000Y-77470000D01*
X135837143Y-78410008D02*
X143764000Y-78410008D01*
X131376000Y-79814000D02*
X134433151Y-79814000D01*
X130302000Y-78740000D02*
X131376000Y-79814000D01*
X134433151Y-79814000D02*
X135837143Y-78410008D01*
X140506998Y-75884002D02*
X142809998Y-75884002D01*
X142914001Y-75779999D02*
X143764000Y-74930000D01*
X130288000Y-75692000D02*
X131050000Y-74930000D01*
X142809998Y-75884002D02*
X142914001Y-75779999D01*
X134927999Y-75847001D02*
X140469997Y-75847001D01*
X134010998Y-74930000D02*
X134927999Y-75847001D01*
X131050000Y-74930000D02*
X134010998Y-74930000D01*
X140469997Y-75847001D02*
X140506998Y-75884002D01*
X130274000Y-72644000D02*
X130899000Y-72644000D01*
X142914001Y-71540001D02*
X143764000Y-72390000D01*
X132112915Y-72390000D02*
X140406263Y-72390000D01*
X131987160Y-72515755D02*
X132112915Y-72390000D01*
X131027245Y-72515755D02*
X131987160Y-72515755D01*
X130899000Y-72644000D02*
X131027245Y-72515755D01*
X141256262Y-71540001D02*
X142914001Y-71540001D01*
X140406263Y-72390000D02*
X141256262Y-71540001D01*
X135655773Y-81324426D02*
X136080038Y-81324426D01*
X130825000Y-83029000D02*
X133951199Y-83029000D01*
X130288000Y-83566000D02*
X130825000Y-83029000D01*
X133951199Y-83029000D02*
X135655773Y-81324426D01*
X133257971Y-70833975D02*
X133520026Y-70571920D01*
X132896685Y-70833975D02*
X133257971Y-70833975D01*
X132759042Y-70971618D02*
X132896685Y-70833975D01*
X130274000Y-69596000D02*
X131649618Y-70971618D01*
X131649618Y-70971618D02*
X132759042Y-70971618D01*
D23*
X148336000Y-67602998D02*
X146646002Y-65913000D01*
X148336000Y-80010000D02*
X148336000Y-67602998D01*
X146646002Y-65913000D02*
X142875998Y-65913000D01*
X142875998Y-65913000D02*
X141097000Y-67691998D01*
X141097000Y-67691998D02*
X141097000Y-68580000D01*
X136777998Y-74747000D02*
X135968000Y-74747000D01*
X137522001Y-74002997D02*
X136777998Y-74747000D01*
X137522001Y-73939999D02*
X137522001Y-74002997D01*
X137922000Y-73540000D02*
X137522001Y-73939999D01*
X134112000Y-88124000D02*
X133971000Y-88124000D01*
X133971000Y-88124000D02*
X133096000Y-87249000D01*
X139333000Y-88138000D02*
X139333000Y-87194735D01*
X143105000Y-81280000D02*
X142314200Y-82070800D01*
X142314200Y-82070800D02*
X142314200Y-84549096D01*
X139333000Y-87194735D02*
X139334724Y-87193011D01*
X145161000Y-81280000D02*
X143105000Y-81280000D01*
X142314200Y-84549096D02*
X142314200Y-85114781D01*
D24*
X124093000Y-65814000D02*
X125843000Y-67564000D01*
X124093000Y-65532000D02*
X124093000Y-65814000D01*
D23*
X125843000Y-65532000D02*
X127508000Y-65532000D01*
X121467000Y-74259000D02*
X122517000Y-74259000D01*
X117801718Y-74259000D02*
X121467000Y-74259000D01*
X113425000Y-69882282D02*
X117801718Y-74259000D01*
X113425000Y-66548000D02*
X113425000Y-69882282D01*
X132431001Y-74265001D02*
X132080000Y-73914000D01*
X135968000Y-74097000D02*
X135799999Y-74265001D01*
X135799999Y-74265001D02*
X132431001Y-74265001D01*
X114568000Y-67691000D02*
X113425000Y-66548000D01*
X116840000Y-67691000D02*
X114568000Y-67691000D01*
X121467000Y-73759000D02*
X122517000Y-73759000D01*
X117938128Y-73759000D02*
X121467000Y-73759000D01*
X114041990Y-69862862D02*
X117938128Y-73759000D01*
X114041990Y-69055138D02*
X114041990Y-69862862D01*
X114613138Y-68483990D02*
X114041990Y-69055138D01*
X119148010Y-68483990D02*
X114613138Y-68483990D01*
X120509000Y-67123000D02*
X119148010Y-68483990D01*
X120509000Y-66548000D02*
X120509000Y-67123000D01*
X120509000Y-66548000D02*
X121539000Y-66548000D01*
X121539000Y-66548000D02*
X121666000Y-66421000D01*
X135875000Y-73540000D02*
X135968000Y-73447000D01*
X134529000Y-73540000D02*
X135875000Y-73540000D01*
X136638000Y-65532000D02*
X137795000Y-65532000D01*
X141630830Y-74097000D02*
X141668805Y-74059025D01*
X139368000Y-74097000D02*
X141630830Y-74097000D01*
X136725438Y-87638928D02*
X135954510Y-86868000D01*
X135954510Y-86868000D02*
X135509000Y-86868000D01*
X137154928Y-87638928D02*
X136725438Y-87638928D01*
X137654000Y-88138000D02*
X137154928Y-87638928D01*
X139368000Y-73447000D02*
X140950965Y-73447000D01*
X140950965Y-73447000D02*
X141244448Y-73153517D01*
X140329928Y-66031072D02*
X140329928Y-68885932D01*
X145454001Y-69000001D02*
X146304000Y-69850000D01*
X142265003Y-68485001D02*
X144939001Y-68485001D01*
X144939001Y-68485001D02*
X145454001Y-69000001D01*
X140748998Y-69305002D02*
X141445002Y-69305002D01*
X141445002Y-69305002D02*
X142265003Y-68485001D01*
X140829000Y-65532000D02*
X140329928Y-66031072D01*
X140329928Y-68885932D02*
X140748998Y-69305002D01*
D25*
X123717001Y-81259000D02*
X123992001Y-80984000D01*
X123992001Y-80984000D02*
X126944397Y-80984000D01*
X126944397Y-80984000D02*
X127664397Y-80264000D01*
X127664397Y-80264000D02*
X128524000Y-80264000D01*
X122517000Y-81259000D02*
X123717001Y-81259000D01*
X123482002Y-79759000D02*
X122880603Y-79759000D01*
X122880603Y-79759000D02*
X122517000Y-79759000D01*
X123717001Y-79759000D02*
X123992001Y-79484000D01*
X122517000Y-79759000D02*
X123717001Y-79759000D01*
X123992001Y-79484000D02*
X125382397Y-79484000D01*
X125382397Y-79484000D02*
X127650397Y-77216000D01*
X127650397Y-77216000D02*
X128524000Y-77216000D01*
X124963042Y-77933992D02*
X125590641Y-77306393D01*
X123918256Y-77933992D02*
X124963042Y-77933992D01*
X125590641Y-76213756D02*
X127636397Y-74168000D01*
X123668247Y-78184001D02*
X123918256Y-77933992D01*
X123266999Y-78184001D02*
X123668247Y-78184001D01*
X123192000Y-78259000D02*
X123266999Y-78184001D01*
X122517000Y-78259000D02*
X123192000Y-78259000D01*
X125590641Y-77306393D02*
X125590641Y-76213756D01*
X127636397Y-74168000D02*
X128538000Y-74168000D01*
X122517000Y-76759000D02*
X121316999Y-76759000D01*
X121316999Y-76759000D02*
X121041999Y-76484000D01*
X121041999Y-76484000D02*
X120696000Y-76484000D01*
X120696000Y-76484000D02*
X120396000Y-76784000D01*
X121298397Y-82579000D02*
X128001000Y-82579000D01*
X128001000Y-82579000D02*
X128538000Y-82042000D01*
X120032000Y-80899000D02*
X120032000Y-81312603D01*
X120032000Y-81312603D02*
X121298397Y-82579000D01*
X123717001Y-74759000D02*
X124742001Y-73734000D01*
X124742001Y-73734000D02*
X125022397Y-73734000D01*
X125022397Y-73734000D02*
X127636397Y-71120000D01*
X122517000Y-74759000D02*
X123717001Y-74759000D01*
X127636397Y-71120000D02*
X128538000Y-71120000D01*
X126758000Y-80534000D02*
X127346198Y-79945802D01*
X123992001Y-80534000D02*
X126758000Y-80534000D01*
X123717001Y-80259000D02*
X123992001Y-80534000D01*
X127346198Y-79945802D02*
X128552000Y-78740000D01*
X122517000Y-80259000D02*
X123717001Y-80259000D01*
X127332198Y-76897802D02*
X128538000Y-75692000D01*
X125196000Y-79034000D02*
X127332198Y-76897802D01*
X123992001Y-79034000D02*
X125196000Y-79034000D01*
X123717001Y-78759000D02*
X123992001Y-79034000D01*
X122517000Y-78759000D02*
X123717001Y-78759000D01*
X125140650Y-76027350D02*
X127318198Y-73849802D01*
X127318198Y-73849802D02*
X128524000Y-72644000D01*
X123192000Y-77259000D02*
X123266999Y-77333999D01*
X122517000Y-77259000D02*
X123192000Y-77259000D01*
X123266999Y-77333999D02*
X123954646Y-77333999D01*
X123954646Y-77333999D02*
X124104648Y-77484001D01*
X124104648Y-77484001D02*
X124776650Y-77484001D01*
X124776650Y-77484001D02*
X125140650Y-77120001D01*
X125140650Y-77120001D02*
X125140650Y-76027350D01*
X127318198Y-70801802D02*
X128524000Y-69596000D01*
X124742001Y-73284000D02*
X124836000Y-73284000D01*
X123717001Y-72259000D02*
X124742001Y-73284000D01*
X124836000Y-73284000D02*
X127318198Y-70801802D01*
X122517000Y-72259000D02*
X123717001Y-72259000D01*
D23*
X116918999Y-75008999D02*
X113411000Y-71501000D01*
X120744001Y-75008999D02*
X116918999Y-75008999D01*
X122517000Y-75259000D02*
X120994002Y-75259000D01*
X120994002Y-75259000D02*
X120744001Y-75008999D01*
X132536731Y-65575967D02*
X132136732Y-65975966D01*
X132580698Y-65532000D02*
X132536731Y-65575967D01*
X133477000Y-65532000D02*
X134888000Y-65532000D01*
X133477000Y-65532000D02*
X132580698Y-65532000D01*
X133745000Y-65532000D02*
X133477000Y-65532000D01*
D25*
X120696000Y-76034000D02*
X120396000Y-75734000D01*
X121041999Y-76034000D02*
X120696000Y-76034000D01*
X121316999Y-75759000D02*
X121041999Y-76034000D01*
X122517000Y-75759000D02*
X121316999Y-75759000D01*
X121112000Y-83029000D02*
X128001000Y-83029000D01*
X118982000Y-80899000D02*
X121112000Y-83029000D01*
X128001000Y-83029000D02*
X128538000Y-83566000D01*
D26*
G36*
X149785001Y-88698000D02*
G01*
X147343457Y-88698000D01*
X147359134Y-88685134D01*
X147544706Y-88459014D01*
X147682599Y-88201034D01*
X147767513Y-87921111D01*
X147796185Y-87630000D01*
X147767513Y-87338889D01*
X147744797Y-87264005D01*
X147990005Y-87018797D01*
X148019002Y-86995000D01*
X148113975Y-86879275D01*
X148184547Y-86747246D01*
X148228004Y-86603985D01*
X148239001Y-86492332D01*
X148239001Y-86492323D01*
X148242677Y-86455000D01*
X148239001Y-86417677D01*
X148239001Y-81045000D01*
X148437939Y-81045000D01*
X148637898Y-81005226D01*
X148826256Y-80927205D01*
X148995774Y-80813937D01*
X149139937Y-80669774D01*
X149253205Y-80500256D01*
X149331226Y-80311898D01*
X149371000Y-80111939D01*
X149371000Y-79908061D01*
X149331226Y-79708102D01*
X149253205Y-79519744D01*
X149139937Y-79350226D01*
X149096000Y-79306289D01*
X149096000Y-67640320D01*
X149099676Y-67602997D01*
X149096000Y-67565674D01*
X149096000Y-67565665D01*
X149085003Y-67454012D01*
X149041546Y-67310751D01*
X149024174Y-67278250D01*
X148970974Y-67178721D01*
X148899799Y-67091995D01*
X148876001Y-67062997D01*
X148847003Y-67039199D01*
X147209806Y-65402003D01*
X147186003Y-65372999D01*
X147070278Y-65278026D01*
X146938249Y-65207454D01*
X146794988Y-65163997D01*
X146683335Y-65153000D01*
X146683324Y-65153000D01*
X146646002Y-65149324D01*
X146608680Y-65153000D01*
X142913320Y-65153000D01*
X142875997Y-65149324D01*
X142838674Y-65153000D01*
X142838665Y-65153000D01*
X142727012Y-65163997D01*
X142583751Y-65207454D01*
X142451721Y-65278026D01*
X142400648Y-65319941D01*
X142335997Y-65372999D01*
X142312199Y-65401997D01*
X141992072Y-65722124D01*
X141992072Y-65294500D01*
X141975248Y-65123684D01*
X141956081Y-65060500D01*
X149785000Y-65060500D01*
X149785001Y-88698000D01*
X149785001Y-88698000D01*
G37*
X149785001Y-88698000D02*
X147343457Y-88698000D01*
X147359134Y-88685134D01*
X147544706Y-88459014D01*
X147682599Y-88201034D01*
X147767513Y-87921111D01*
X147796185Y-87630000D01*
X147767513Y-87338889D01*
X147744797Y-87264005D01*
X147990005Y-87018797D01*
X148019002Y-86995000D01*
X148113975Y-86879275D01*
X148184547Y-86747246D01*
X148228004Y-86603985D01*
X148239001Y-86492332D01*
X148239001Y-86492323D01*
X148242677Y-86455000D01*
X148239001Y-86417677D01*
X148239001Y-81045000D01*
X148437939Y-81045000D01*
X148637898Y-81005226D01*
X148826256Y-80927205D01*
X148995774Y-80813937D01*
X149139937Y-80669774D01*
X149253205Y-80500256D01*
X149331226Y-80311898D01*
X149371000Y-80111939D01*
X149371000Y-79908061D01*
X149331226Y-79708102D01*
X149253205Y-79519744D01*
X149139937Y-79350226D01*
X149096000Y-79306289D01*
X149096000Y-67640320D01*
X149099676Y-67602997D01*
X149096000Y-67565674D01*
X149096000Y-67565665D01*
X149085003Y-67454012D01*
X149041546Y-67310751D01*
X149024174Y-67278250D01*
X148970974Y-67178721D01*
X148899799Y-67091995D01*
X148876001Y-67062997D01*
X148847003Y-67039199D01*
X147209806Y-65402003D01*
X147186003Y-65372999D01*
X147070278Y-65278026D01*
X146938249Y-65207454D01*
X146794988Y-65163997D01*
X146683335Y-65153000D01*
X146683324Y-65153000D01*
X146646002Y-65149324D01*
X146608680Y-65153000D01*
X142913320Y-65153000D01*
X142875997Y-65149324D01*
X142838674Y-65153000D01*
X142838665Y-65153000D01*
X142727012Y-65163997D01*
X142583751Y-65207454D01*
X142451721Y-65278026D01*
X142400648Y-65319941D01*
X142335997Y-65372999D01*
X142312199Y-65401997D01*
X141992072Y-65722124D01*
X141992072Y-65294500D01*
X141975248Y-65123684D01*
X141956081Y-65060500D01*
X149785000Y-65060500D01*
X149785001Y-88698000D01*
G36*
X112480224Y-65113016D02*
G01*
X112364499Y-65207989D01*
X112340696Y-65236993D01*
X112063993Y-65513696D01*
X112034989Y-65537499D01*
X111980286Y-65604156D01*
X111940016Y-65653224D01*
X111889362Y-65747990D01*
X111869444Y-65785254D01*
X111825987Y-65928515D01*
X111814990Y-66040168D01*
X111814990Y-66040178D01*
X111811314Y-66077500D01*
X111814990Y-66114822D01*
X111814991Y-86201657D01*
X111811314Y-86238990D01*
X111814991Y-86276323D01*
X111823068Y-86358324D01*
X111825988Y-86387975D01*
X111869444Y-86531236D01*
X111940016Y-86663266D01*
X112011191Y-86749992D01*
X112034990Y-86778991D01*
X112063988Y-86802789D01*
X112119928Y-86858729D01*
X112119928Y-87547001D01*
X112136992Y-87720255D01*
X112187528Y-87886851D01*
X112269595Y-88040387D01*
X112380038Y-88174962D01*
X112514613Y-88285405D01*
X112668149Y-88367472D01*
X112834745Y-88418008D01*
X113007999Y-88435072D01*
X113908001Y-88435072D01*
X114081255Y-88418008D01*
X114247851Y-88367472D01*
X114401387Y-88285405D01*
X114535962Y-88174962D01*
X114646405Y-88040387D01*
X114728472Y-87886851D01*
X114755727Y-87797000D01*
X114819928Y-87797000D01*
X114832188Y-87921482D01*
X114868498Y-88041180D01*
X114927463Y-88151494D01*
X115006815Y-88248185D01*
X115103506Y-88327537D01*
X115213820Y-88386502D01*
X115333518Y-88422812D01*
X115458000Y-88435072D01*
X115872250Y-88432000D01*
X116031000Y-88273250D01*
X116031000Y-87249000D01*
X116285000Y-87249000D01*
X116285000Y-88273250D01*
X116443750Y-88432000D01*
X116858000Y-88435072D01*
X116982482Y-88422812D01*
X117102180Y-88386502D01*
X117212494Y-88327537D01*
X117309185Y-88248185D01*
X117388537Y-88151494D01*
X117447502Y-88041180D01*
X117483812Y-87921482D01*
X117496072Y-87797000D01*
X119739928Y-87797000D01*
X119752188Y-87921482D01*
X119788498Y-88041180D01*
X119847463Y-88151494D01*
X119926815Y-88248185D01*
X120023506Y-88327537D01*
X120133820Y-88386502D01*
X120253518Y-88422812D01*
X120378000Y-88435072D01*
X120792250Y-88432000D01*
X120951000Y-88273250D01*
X120951000Y-87249000D01*
X121205000Y-87249000D01*
X121205000Y-88273250D01*
X121363750Y-88432000D01*
X121778000Y-88435072D01*
X121902482Y-88422812D01*
X122022180Y-88386502D01*
X122132494Y-88327537D01*
X122229185Y-88248185D01*
X122308537Y-88151494D01*
X122367502Y-88041180D01*
X122403812Y-87921482D01*
X122416072Y-87797000D01*
X122413000Y-87407750D01*
X122254250Y-87249000D01*
X121205000Y-87249000D01*
X120951000Y-87249000D01*
X119901750Y-87249000D01*
X119743000Y-87407750D01*
X119739928Y-87797000D01*
X117496072Y-87797000D01*
X117493000Y-87407750D01*
X117334250Y-87249000D01*
X116285000Y-87249000D01*
X116031000Y-87249000D01*
X114981750Y-87249000D01*
X114823000Y-87407750D01*
X114819928Y-87797000D01*
X114755727Y-87797000D01*
X114779008Y-87720255D01*
X114796072Y-87547001D01*
X114796072Y-86696999D01*
X114779008Y-86523745D01*
X114755728Y-86447000D01*
X114819928Y-86447000D01*
X114823000Y-86836250D01*
X114981750Y-86995000D01*
X116031000Y-86995000D01*
X116031000Y-85970750D01*
X116285000Y-85970750D01*
X116285000Y-86995000D01*
X117334250Y-86995000D01*
X117493000Y-86836250D01*
X117496072Y-86447000D01*
X119739928Y-86447000D01*
X119743000Y-86836250D01*
X119901750Y-86995000D01*
X120951000Y-86995000D01*
X120951000Y-85970750D01*
X121205000Y-85970750D01*
X121205000Y-86995000D01*
X122254250Y-86995000D01*
X122413000Y-86836250D01*
X122416072Y-86447000D01*
X122403812Y-86322518D01*
X122367502Y-86202820D01*
X122308537Y-86092506D01*
X122229185Y-85995815D01*
X122132494Y-85916463D01*
X122022180Y-85857498D01*
X121902482Y-85821188D01*
X121778000Y-85808928D01*
X121363750Y-85812000D01*
X121205000Y-85970750D01*
X120951000Y-85970750D01*
X120792250Y-85812000D01*
X120378000Y-85808928D01*
X120253518Y-85821188D01*
X120133820Y-85857498D01*
X120023506Y-85916463D01*
X119926815Y-85995815D01*
X119847463Y-86092506D01*
X119788498Y-86202820D01*
X119752188Y-86322518D01*
X119739928Y-86447000D01*
X117496072Y-86447000D01*
X117483812Y-86322518D01*
X117447502Y-86202820D01*
X117388537Y-86092506D01*
X117309185Y-85995815D01*
X117212494Y-85916463D01*
X117102180Y-85857498D01*
X116982482Y-85821188D01*
X116858000Y-85808928D01*
X116443750Y-85812000D01*
X116285000Y-85970750D01*
X116031000Y-85970750D01*
X115872250Y-85812000D01*
X115458000Y-85808928D01*
X115333518Y-85821188D01*
X115213820Y-85857498D01*
X115103506Y-85916463D01*
X115006815Y-85995815D01*
X114927463Y-86092506D01*
X114868498Y-86202820D01*
X114832188Y-86322518D01*
X114819928Y-86447000D01*
X114755728Y-86447000D01*
X114728472Y-86357149D01*
X114646405Y-86203613D01*
X114568530Y-86108722D01*
X114582205Y-86088256D01*
X114660226Y-85899898D01*
X114700000Y-85699939D01*
X114700000Y-85496061D01*
X114660664Y-85298302D01*
X114890000Y-85344000D01*
X115390000Y-85344000D01*
X115390000Y-84186000D01*
X115644000Y-84186000D01*
X115644000Y-85344000D01*
X116144000Y-85344000D01*
X116392251Y-85294533D01*
X116626081Y-85197585D01*
X116836505Y-85056882D01*
X117015436Y-84877830D01*
X117155997Y-84667311D01*
X117252787Y-84433415D01*
X117260099Y-84384471D01*
X119623901Y-84384471D01*
X119631213Y-84433415D01*
X119728003Y-84667311D01*
X119868564Y-84877830D01*
X120047495Y-85056882D01*
X120257919Y-85197585D01*
X120491749Y-85294533D01*
X120740000Y-85344000D01*
X121440000Y-85344000D01*
X121440000Y-84186000D01*
X121694000Y-84186000D01*
X121694000Y-85344000D01*
X122394000Y-85344000D01*
X122642251Y-85294533D01*
X122876081Y-85197585D01*
X123086505Y-85056882D01*
X123265436Y-84877830D01*
X123405997Y-84667311D01*
X123502787Y-84433415D01*
X123510099Y-84384471D01*
X123386067Y-84186000D01*
X121694000Y-84186000D01*
X121440000Y-84186000D01*
X119747933Y-84186000D01*
X119623901Y-84384471D01*
X117260099Y-84384471D01*
X117136067Y-84186000D01*
X115644000Y-84186000D01*
X115390000Y-84186000D01*
X113897933Y-84186000D01*
X113773901Y-84384471D01*
X113781213Y-84433415D01*
X113840928Y-84577717D01*
X113766939Y-84563000D01*
X113563061Y-84563000D01*
X113363102Y-84602774D01*
X113334990Y-84614418D01*
X113334990Y-83733529D01*
X113773901Y-83733529D01*
X113897933Y-83932000D01*
X115390000Y-83932000D01*
X115390000Y-82774000D01*
X115644000Y-82774000D01*
X115644000Y-83932000D01*
X117136067Y-83932000D01*
X117260099Y-83733529D01*
X117252787Y-83684585D01*
X117155997Y-83450689D01*
X117015436Y-83240170D01*
X116836505Y-83061118D01*
X116626081Y-82920415D01*
X116392251Y-82823467D01*
X116144000Y-82774000D01*
X115644000Y-82774000D01*
X115390000Y-82774000D01*
X114890000Y-82774000D01*
X114641749Y-82823467D01*
X114407919Y-82920415D01*
X114197495Y-83061118D01*
X114018564Y-83240170D01*
X113878003Y-83450689D01*
X113781213Y-83684585D01*
X113773901Y-83733529D01*
X113334990Y-83733529D01*
X113334990Y-72536000D01*
X113371199Y-72536000D01*
X116355199Y-75520001D01*
X116378998Y-75549000D01*
X116494723Y-75643973D01*
X116626752Y-75714545D01*
X116770013Y-75758002D01*
X116881666Y-75768999D01*
X116881674Y-75768999D01*
X116918999Y-75772675D01*
X116956324Y-75768999D01*
X119361000Y-75768999D01*
X119361000Y-75835939D01*
X119400774Y-76035898D01*
X119478795Y-76224256D01*
X119502010Y-76259000D01*
X119478795Y-76293744D01*
X119400774Y-76482102D01*
X119361000Y-76682061D01*
X119361000Y-76885939D01*
X119400774Y-77085898D01*
X119478795Y-77274256D01*
X119592063Y-77443774D01*
X119736226Y-77587937D01*
X119905744Y-77701205D01*
X120094102Y-77779226D01*
X120294061Y-77819000D01*
X120497939Y-77819000D01*
X120697898Y-77779226D01*
X120886256Y-77701205D01*
X121055774Y-77587937D01*
X121086822Y-77556889D01*
X121082000Y-77600250D01*
X121147672Y-77665922D01*
X121186463Y-77738494D01*
X121203292Y-77759000D01*
X121186463Y-77779506D01*
X121147672Y-77852078D01*
X121082000Y-77917750D01*
X121091932Y-78007065D01*
X121091188Y-78009518D01*
X121078928Y-78134000D01*
X121078928Y-78384000D01*
X121091188Y-78508482D01*
X121091345Y-78509000D01*
X121091188Y-78509518D01*
X121078928Y-78634000D01*
X121078928Y-78884000D01*
X121091188Y-79008482D01*
X121091932Y-79010935D01*
X121082000Y-79100250D01*
X121147672Y-79165922D01*
X121186463Y-79238494D01*
X121203292Y-79259000D01*
X121186463Y-79279506D01*
X121147672Y-79352078D01*
X121082000Y-79417750D01*
X121091932Y-79507065D01*
X121091188Y-79509518D01*
X121078928Y-79634000D01*
X121078928Y-79884000D01*
X121091188Y-80008482D01*
X121091345Y-80009000D01*
X121091188Y-80009518D01*
X121078928Y-80134000D01*
X121078928Y-80384000D01*
X121091188Y-80508482D01*
X121091932Y-80510935D01*
X121082000Y-80600250D01*
X121147672Y-80665922D01*
X121186463Y-80738494D01*
X121203292Y-80759000D01*
X121186463Y-80779506D01*
X121147672Y-80852078D01*
X121082000Y-80917750D01*
X121091932Y-81007065D01*
X121091188Y-81009518D01*
X121078928Y-81134000D01*
X121078928Y-81320085D01*
X121007460Y-81248617D01*
X121027226Y-81200898D01*
X121067000Y-81000939D01*
X121067000Y-80797061D01*
X121027226Y-80597102D01*
X120949205Y-80408744D01*
X120835937Y-80239226D01*
X120691774Y-80095063D01*
X120522256Y-79981795D01*
X120333898Y-79903774D01*
X120133939Y-79864000D01*
X119930061Y-79864000D01*
X119730102Y-79903774D01*
X119541744Y-79981795D01*
X119507000Y-80005010D01*
X119472256Y-79981795D01*
X119283898Y-79903774D01*
X119083939Y-79864000D01*
X118880061Y-79864000D01*
X118680102Y-79903774D01*
X118491744Y-79981795D01*
X118322226Y-80095063D01*
X118178063Y-80239226D01*
X118064795Y-80408744D01*
X117986774Y-80597102D01*
X117947000Y-80797061D01*
X117947000Y-81000939D01*
X117986774Y-81200898D01*
X118064795Y-81389256D01*
X118178063Y-81558774D01*
X118322226Y-81702937D01*
X118491744Y-81816205D01*
X118680102Y-81894226D01*
X118880061Y-81934000D01*
X118977554Y-81934000D01*
X120081760Y-83038206D01*
X120047495Y-83061118D01*
X119868564Y-83240170D01*
X119728003Y-83450689D01*
X119631213Y-83684585D01*
X119623901Y-83733529D01*
X119747933Y-83932000D01*
X121440000Y-83932000D01*
X121440000Y-83912000D01*
X121694000Y-83912000D01*
X121694000Y-83932000D01*
X123386067Y-83932000D01*
X123491057Y-83764000D01*
X126991354Y-83764000D01*
X126888409Y-83819026D01*
X126772684Y-83913999D01*
X126748885Y-83942998D01*
X126543155Y-84148729D01*
X126412898Y-84094774D01*
X126212939Y-84055000D01*
X126009061Y-84055000D01*
X125809102Y-84094774D01*
X125620744Y-84172795D01*
X125451226Y-84286063D01*
X125307063Y-84430226D01*
X125193795Y-84599744D01*
X125115774Y-84788102D01*
X125076000Y-84988061D01*
X125076000Y-85191939D01*
X125115774Y-85391898D01*
X125193795Y-85580256D01*
X125307063Y-85749774D01*
X125451226Y-85893937D01*
X125620744Y-86007205D01*
X125809102Y-86085226D01*
X126009061Y-86125000D01*
X126212939Y-86125000D01*
X126412898Y-86085226D01*
X126601256Y-86007205D01*
X126770774Y-85893937D01*
X126825724Y-85838987D01*
X126968932Y-85795546D01*
X127100961Y-85724974D01*
X127216686Y-85630001D01*
X127240488Y-85600998D01*
X127627487Y-85214000D01*
X129086782Y-85214000D01*
X129052774Y-85296102D01*
X129013000Y-85496061D01*
X129013000Y-85699939D01*
X129052774Y-85899898D01*
X129130795Y-86088256D01*
X129244063Y-86257774D01*
X129348289Y-86362000D01*
X125049944Y-86362000D01*
X125048472Y-86357149D01*
X124966405Y-86203613D01*
X124855962Y-86069038D01*
X124721387Y-85958595D01*
X124567851Y-85876528D01*
X124401255Y-85825992D01*
X124228001Y-85808928D01*
X123327999Y-85808928D01*
X123154745Y-85825992D01*
X122988149Y-85876528D01*
X122834613Y-85958595D01*
X122700038Y-86069038D01*
X122589595Y-86203613D01*
X122507528Y-86357149D01*
X122456992Y-86523745D01*
X122439928Y-86696999D01*
X122439928Y-87547001D01*
X122456992Y-87720255D01*
X122507528Y-87886851D01*
X122589595Y-88040387D01*
X122700038Y-88174962D01*
X122834613Y-88285405D01*
X122988149Y-88367472D01*
X123154745Y-88418008D01*
X123327999Y-88435072D01*
X124228001Y-88435072D01*
X124401255Y-88418008D01*
X124567851Y-88367472D01*
X124721387Y-88285405D01*
X124855962Y-88174962D01*
X124966405Y-88040387D01*
X125048472Y-87886851D01*
X125049944Y-87882000D01*
X128573573Y-87882000D01*
X128440136Y-88045610D01*
X128404523Y-88099212D01*
X128368170Y-88152305D01*
X128363455Y-88161025D01*
X128212182Y-88445527D01*
X128187675Y-88504986D01*
X128162308Y-88564172D01*
X128159377Y-88573642D01*
X128121831Y-88698000D01*
X111708000Y-88698000D01*
X111708000Y-65060500D01*
X112578473Y-65060500D01*
X112480224Y-65113016D01*
X112480224Y-65113016D01*
G37*
X112480224Y-65113016D02*
X112364499Y-65207989D01*
X112340696Y-65236993D01*
X112063993Y-65513696D01*
X112034989Y-65537499D01*
X111980286Y-65604156D01*
X111940016Y-65653224D01*
X111889362Y-65747990D01*
X111869444Y-65785254D01*
X111825987Y-65928515D01*
X111814990Y-66040168D01*
X111814990Y-66040178D01*
X111811314Y-66077500D01*
X111814990Y-66114822D01*
X111814991Y-86201657D01*
X111811314Y-86238990D01*
X111814991Y-86276323D01*
X111823068Y-86358324D01*
X111825988Y-86387975D01*
X111869444Y-86531236D01*
X111940016Y-86663266D01*
X112011191Y-86749992D01*
X112034990Y-86778991D01*
X112063988Y-86802789D01*
X112119928Y-86858729D01*
X112119928Y-87547001D01*
X112136992Y-87720255D01*
X112187528Y-87886851D01*
X112269595Y-88040387D01*
X112380038Y-88174962D01*
X112514613Y-88285405D01*
X112668149Y-88367472D01*
X112834745Y-88418008D01*
X113007999Y-88435072D01*
X113908001Y-88435072D01*
X114081255Y-88418008D01*
X114247851Y-88367472D01*
X114401387Y-88285405D01*
X114535962Y-88174962D01*
X114646405Y-88040387D01*
X114728472Y-87886851D01*
X114755727Y-87797000D01*
X114819928Y-87797000D01*
X114832188Y-87921482D01*
X114868498Y-88041180D01*
X114927463Y-88151494D01*
X115006815Y-88248185D01*
X115103506Y-88327537D01*
X115213820Y-88386502D01*
X115333518Y-88422812D01*
X115458000Y-88435072D01*
X115872250Y-88432000D01*
X116031000Y-88273250D01*
X116031000Y-87249000D01*
X116285000Y-87249000D01*
X116285000Y-88273250D01*
X116443750Y-88432000D01*
X116858000Y-88435072D01*
X116982482Y-88422812D01*
X117102180Y-88386502D01*
X117212494Y-88327537D01*
X117309185Y-88248185D01*
X117388537Y-88151494D01*
X117447502Y-88041180D01*
X117483812Y-87921482D01*
X117496072Y-87797000D01*
X119739928Y-87797000D01*
X119752188Y-87921482D01*
X119788498Y-88041180D01*
X119847463Y-88151494D01*
X119926815Y-88248185D01*
X120023506Y-88327537D01*
X120133820Y-88386502D01*
X120253518Y-88422812D01*
X120378000Y-88435072D01*
X120792250Y-88432000D01*
X120951000Y-88273250D01*
X120951000Y-87249000D01*
X121205000Y-87249000D01*
X121205000Y-88273250D01*
X121363750Y-88432000D01*
X121778000Y-88435072D01*
X121902482Y-88422812D01*
X122022180Y-88386502D01*
X122132494Y-88327537D01*
X122229185Y-88248185D01*
X122308537Y-88151494D01*
X122367502Y-88041180D01*
X122403812Y-87921482D01*
X122416072Y-87797000D01*
X122413000Y-87407750D01*
X122254250Y-87249000D01*
X121205000Y-87249000D01*
X120951000Y-87249000D01*
X119901750Y-87249000D01*
X119743000Y-87407750D01*
X119739928Y-87797000D01*
X117496072Y-87797000D01*
X117493000Y-87407750D01*
X117334250Y-87249000D01*
X116285000Y-87249000D01*
X116031000Y-87249000D01*
X114981750Y-87249000D01*
X114823000Y-87407750D01*
X114819928Y-87797000D01*
X114755727Y-87797000D01*
X114779008Y-87720255D01*
X114796072Y-87547001D01*
X114796072Y-86696999D01*
X114779008Y-86523745D01*
X114755728Y-86447000D01*
X114819928Y-86447000D01*
X114823000Y-86836250D01*
X114981750Y-86995000D01*
X116031000Y-86995000D01*
X116031000Y-85970750D01*
X116285000Y-85970750D01*
X116285000Y-86995000D01*
X117334250Y-86995000D01*
X117493000Y-86836250D01*
X117496072Y-86447000D01*
X119739928Y-86447000D01*
X119743000Y-86836250D01*
X119901750Y-86995000D01*
X120951000Y-86995000D01*
X120951000Y-85970750D01*
X121205000Y-85970750D01*
X121205000Y-86995000D01*
X122254250Y-86995000D01*
X122413000Y-86836250D01*
X122416072Y-86447000D01*
X122403812Y-86322518D01*
X122367502Y-86202820D01*
X122308537Y-86092506D01*
X122229185Y-85995815D01*
X122132494Y-85916463D01*
X122022180Y-85857498D01*
X121902482Y-85821188D01*
X121778000Y-85808928D01*
X121363750Y-85812000D01*
X121205000Y-85970750D01*
X120951000Y-85970750D01*
X120792250Y-85812000D01*
X120378000Y-85808928D01*
X120253518Y-85821188D01*
X120133820Y-85857498D01*
X120023506Y-85916463D01*
X119926815Y-85995815D01*
X119847463Y-86092506D01*
X119788498Y-86202820D01*
X119752188Y-86322518D01*
X119739928Y-86447000D01*
X117496072Y-86447000D01*
X117483812Y-86322518D01*
X117447502Y-86202820D01*
X117388537Y-86092506D01*
X117309185Y-85995815D01*
X117212494Y-85916463D01*
X117102180Y-85857498D01*
X116982482Y-85821188D01*
X116858000Y-85808928D01*
X116443750Y-85812000D01*
X116285000Y-85970750D01*
X116031000Y-85970750D01*
X115872250Y-85812000D01*
X115458000Y-85808928D01*
X115333518Y-85821188D01*
X115213820Y-85857498D01*
X115103506Y-85916463D01*
X115006815Y-85995815D01*
X114927463Y-86092506D01*
X114868498Y-86202820D01*
X114832188Y-86322518D01*
X114819928Y-86447000D01*
X114755728Y-86447000D01*
X114728472Y-86357149D01*
X114646405Y-86203613D01*
X114568530Y-86108722D01*
X114582205Y-86088256D01*
X114660226Y-85899898D01*
X114700000Y-85699939D01*
X114700000Y-85496061D01*
X114660664Y-85298302D01*
X114890000Y-85344000D01*
X115390000Y-85344000D01*
X115390000Y-84186000D01*
X115644000Y-84186000D01*
X115644000Y-85344000D01*
X116144000Y-85344000D01*
X116392251Y-85294533D01*
X116626081Y-85197585D01*
X116836505Y-85056882D01*
X117015436Y-84877830D01*
X117155997Y-84667311D01*
X117252787Y-84433415D01*
X117260099Y-84384471D01*
X119623901Y-84384471D01*
X119631213Y-84433415D01*
X119728003Y-84667311D01*
X119868564Y-84877830D01*
X120047495Y-85056882D01*
X120257919Y-85197585D01*
X120491749Y-85294533D01*
X120740000Y-85344000D01*
X121440000Y-85344000D01*
X121440000Y-84186000D01*
X121694000Y-84186000D01*
X121694000Y-85344000D01*
X122394000Y-85344000D01*
X122642251Y-85294533D01*
X122876081Y-85197585D01*
X123086505Y-85056882D01*
X123265436Y-84877830D01*
X123405997Y-84667311D01*
X123502787Y-84433415D01*
X123510099Y-84384471D01*
X123386067Y-84186000D01*
X121694000Y-84186000D01*
X121440000Y-84186000D01*
X119747933Y-84186000D01*
X119623901Y-84384471D01*
X117260099Y-84384471D01*
X117136067Y-84186000D01*
X115644000Y-84186000D01*
X115390000Y-84186000D01*
X113897933Y-84186000D01*
X113773901Y-84384471D01*
X113781213Y-84433415D01*
X113840928Y-84577717D01*
X113766939Y-84563000D01*
X113563061Y-84563000D01*
X113363102Y-84602774D01*
X113334990Y-84614418D01*
X113334990Y-83733529D01*
X113773901Y-83733529D01*
X113897933Y-83932000D01*
X115390000Y-83932000D01*
X115390000Y-82774000D01*
X115644000Y-82774000D01*
X115644000Y-83932000D01*
X117136067Y-83932000D01*
X117260099Y-83733529D01*
X117252787Y-83684585D01*
X117155997Y-83450689D01*
X117015436Y-83240170D01*
X116836505Y-83061118D01*
X116626081Y-82920415D01*
X116392251Y-82823467D01*
X116144000Y-82774000D01*
X115644000Y-82774000D01*
X115390000Y-82774000D01*
X114890000Y-82774000D01*
X114641749Y-82823467D01*
X114407919Y-82920415D01*
X114197495Y-83061118D01*
X114018564Y-83240170D01*
X113878003Y-83450689D01*
X113781213Y-83684585D01*
X113773901Y-83733529D01*
X113334990Y-83733529D01*
X113334990Y-72536000D01*
X113371199Y-72536000D01*
X116355199Y-75520001D01*
X116378998Y-75549000D01*
X116494723Y-75643973D01*
X116626752Y-75714545D01*
X116770013Y-75758002D01*
X116881666Y-75768999D01*
X116881674Y-75768999D01*
X116918999Y-75772675D01*
X116956324Y-75768999D01*
X119361000Y-75768999D01*
X119361000Y-75835939D01*
X119400774Y-76035898D01*
X119478795Y-76224256D01*
X119502010Y-76259000D01*
X119478795Y-76293744D01*
X119400774Y-76482102D01*
X119361000Y-76682061D01*
X119361000Y-76885939D01*
X119400774Y-77085898D01*
X119478795Y-77274256D01*
X119592063Y-77443774D01*
X119736226Y-77587937D01*
X119905744Y-77701205D01*
X120094102Y-77779226D01*
X120294061Y-77819000D01*
X120497939Y-77819000D01*
X120697898Y-77779226D01*
X120886256Y-77701205D01*
X121055774Y-77587937D01*
X121086822Y-77556889D01*
X121082000Y-77600250D01*
X121147672Y-77665922D01*
X121186463Y-77738494D01*
X121203292Y-77759000D01*
X121186463Y-77779506D01*
X121147672Y-77852078D01*
X121082000Y-77917750D01*
X121091932Y-78007065D01*
X121091188Y-78009518D01*
X121078928Y-78134000D01*
X121078928Y-78384000D01*
X121091188Y-78508482D01*
X121091345Y-78509000D01*
X121091188Y-78509518D01*
X121078928Y-78634000D01*
X121078928Y-78884000D01*
X121091188Y-79008482D01*
X121091932Y-79010935D01*
X121082000Y-79100250D01*
X121147672Y-79165922D01*
X121186463Y-79238494D01*
X121203292Y-79259000D01*
X121186463Y-79279506D01*
X121147672Y-79352078D01*
X121082000Y-79417750D01*
X121091932Y-79507065D01*
X121091188Y-79509518D01*
X121078928Y-79634000D01*
X121078928Y-79884000D01*
X121091188Y-80008482D01*
X121091345Y-80009000D01*
X121091188Y-80009518D01*
X121078928Y-80134000D01*
X121078928Y-80384000D01*
X121091188Y-80508482D01*
X121091932Y-80510935D01*
X121082000Y-80600250D01*
X121147672Y-80665922D01*
X121186463Y-80738494D01*
X121203292Y-80759000D01*
X121186463Y-80779506D01*
X121147672Y-80852078D01*
X121082000Y-80917750D01*
X121091932Y-81007065D01*
X121091188Y-81009518D01*
X121078928Y-81134000D01*
X121078928Y-81320085D01*
X121007460Y-81248617D01*
X121027226Y-81200898D01*
X121067000Y-81000939D01*
X121067000Y-80797061D01*
X121027226Y-80597102D01*
X120949205Y-80408744D01*
X120835937Y-80239226D01*
X120691774Y-80095063D01*
X120522256Y-79981795D01*
X120333898Y-79903774D01*
X120133939Y-79864000D01*
X119930061Y-79864000D01*
X119730102Y-79903774D01*
X119541744Y-79981795D01*
X119507000Y-80005010D01*
X119472256Y-79981795D01*
X119283898Y-79903774D01*
X119083939Y-79864000D01*
X118880061Y-79864000D01*
X118680102Y-79903774D01*
X118491744Y-79981795D01*
X118322226Y-80095063D01*
X118178063Y-80239226D01*
X118064795Y-80408744D01*
X117986774Y-80597102D01*
X117947000Y-80797061D01*
X117947000Y-81000939D01*
X117986774Y-81200898D01*
X118064795Y-81389256D01*
X118178063Y-81558774D01*
X118322226Y-81702937D01*
X118491744Y-81816205D01*
X118680102Y-81894226D01*
X118880061Y-81934000D01*
X118977554Y-81934000D01*
X120081760Y-83038206D01*
X120047495Y-83061118D01*
X119868564Y-83240170D01*
X119728003Y-83450689D01*
X119631213Y-83684585D01*
X119623901Y-83733529D01*
X119747933Y-83932000D01*
X121440000Y-83932000D01*
X121440000Y-83912000D01*
X121694000Y-83912000D01*
X121694000Y-83932000D01*
X123386067Y-83932000D01*
X123491057Y-83764000D01*
X126991354Y-83764000D01*
X126888409Y-83819026D01*
X126772684Y-83913999D01*
X126748885Y-83942998D01*
X126543155Y-84148729D01*
X126412898Y-84094774D01*
X126212939Y-84055000D01*
X126009061Y-84055000D01*
X125809102Y-84094774D01*
X125620744Y-84172795D01*
X125451226Y-84286063D01*
X125307063Y-84430226D01*
X125193795Y-84599744D01*
X125115774Y-84788102D01*
X125076000Y-84988061D01*
X125076000Y-85191939D01*
X125115774Y-85391898D01*
X125193795Y-85580256D01*
X125307063Y-85749774D01*
X125451226Y-85893937D01*
X125620744Y-86007205D01*
X125809102Y-86085226D01*
X126009061Y-86125000D01*
X126212939Y-86125000D01*
X126412898Y-86085226D01*
X126601256Y-86007205D01*
X126770774Y-85893937D01*
X126825724Y-85838987D01*
X126968932Y-85795546D01*
X127100961Y-85724974D01*
X127216686Y-85630001D01*
X127240488Y-85600998D01*
X127627487Y-85214000D01*
X129086782Y-85214000D01*
X129052774Y-85296102D01*
X129013000Y-85496061D01*
X129013000Y-85699939D01*
X129052774Y-85899898D01*
X129130795Y-86088256D01*
X129244063Y-86257774D01*
X129348289Y-86362000D01*
X125049944Y-86362000D01*
X125048472Y-86357149D01*
X124966405Y-86203613D01*
X124855962Y-86069038D01*
X124721387Y-85958595D01*
X124567851Y-85876528D01*
X124401255Y-85825992D01*
X124228001Y-85808928D01*
X123327999Y-85808928D01*
X123154745Y-85825992D01*
X122988149Y-85876528D01*
X122834613Y-85958595D01*
X122700038Y-86069038D01*
X122589595Y-86203613D01*
X122507528Y-86357149D01*
X122456992Y-86523745D01*
X122439928Y-86696999D01*
X122439928Y-87547001D01*
X122456992Y-87720255D01*
X122507528Y-87886851D01*
X122589595Y-88040387D01*
X122700038Y-88174962D01*
X122834613Y-88285405D01*
X122988149Y-88367472D01*
X123154745Y-88418008D01*
X123327999Y-88435072D01*
X124228001Y-88435072D01*
X124401255Y-88418008D01*
X124567851Y-88367472D01*
X124721387Y-88285405D01*
X124855962Y-88174962D01*
X124966405Y-88040387D01*
X125048472Y-87886851D01*
X125049944Y-87882000D01*
X128573573Y-87882000D01*
X128440136Y-88045610D01*
X128404523Y-88099212D01*
X128368170Y-88152305D01*
X128363455Y-88161025D01*
X128212182Y-88445527D01*
X128187675Y-88504986D01*
X128162308Y-88564172D01*
X128159377Y-88573642D01*
X128121831Y-88698000D01*
X111708000Y-88698000D01*
X111708000Y-65060500D01*
X112578473Y-65060500D01*
X112480224Y-65113016D01*
G36*
X142666412Y-86090269D02*
G01*
X142882645Y-86285178D01*
X142999523Y-86354799D01*
X142934986Y-86389294D01*
X142708866Y-86574866D01*
X142523294Y-86800986D01*
X142385401Y-87058966D01*
X142300487Y-87338889D01*
X142271815Y-87630000D01*
X142300487Y-87921111D01*
X142323203Y-87995995D01*
X142246072Y-88073126D01*
X142246072Y-87900500D01*
X142229248Y-87729684D01*
X142179423Y-87565433D01*
X142146901Y-87504588D01*
X142155738Y-87488055D01*
X142199195Y-87344794D01*
X142210192Y-87233141D01*
X142210192Y-87233131D01*
X142213868Y-87195808D01*
X142210192Y-87158485D01*
X142210192Y-86193514D01*
X142213868Y-86156191D01*
X142213237Y-86149781D01*
X142416139Y-86149781D01*
X142616098Y-86110007D01*
X142665784Y-86089426D01*
X142666412Y-86090269D01*
X142666412Y-86090269D01*
G37*
X142666412Y-86090269D02*
X142882645Y-86285178D01*
X142999523Y-86354799D01*
X142934986Y-86389294D01*
X142708866Y-86574866D01*
X142523294Y-86800986D01*
X142385401Y-87058966D01*
X142300487Y-87338889D01*
X142271815Y-87630000D01*
X142300487Y-87921111D01*
X142323203Y-87995995D01*
X142246072Y-88073126D01*
X142246072Y-87900500D01*
X142229248Y-87729684D01*
X142179423Y-87565433D01*
X142146901Y-87504588D01*
X142155738Y-87488055D01*
X142199195Y-87344794D01*
X142210192Y-87233141D01*
X142210192Y-87233131D01*
X142213868Y-87195808D01*
X142210192Y-87158485D01*
X142210192Y-86193514D01*
X142213868Y-86156191D01*
X142213237Y-86149781D01*
X142416139Y-86149781D01*
X142616098Y-86110007D01*
X142665784Y-86089426D01*
X142666412Y-86090269D01*
G36*
X135617000Y-85242061D02*
G01*
X135617000Y-85445939D01*
X135656774Y-85645898D01*
X135734795Y-85834256D01*
X135752812Y-85861220D01*
X135610939Y-85833000D01*
X135407061Y-85833000D01*
X135224812Y-85869251D01*
X135225072Y-85849000D01*
X135212812Y-85724518D01*
X135176502Y-85604820D01*
X135117537Y-85494506D01*
X135038185Y-85397815D01*
X134941494Y-85318463D01*
X134831180Y-85259498D01*
X134711482Y-85223188D01*
X134587000Y-85210928D01*
X134397750Y-85214000D01*
X134239000Y-85372750D01*
X134239000Y-86247000D01*
X134259000Y-86247000D01*
X134259000Y-86501000D01*
X134239000Y-86501000D01*
X134239000Y-86521000D01*
X133985000Y-86521000D01*
X133985000Y-86501000D01*
X133965000Y-86501000D01*
X133965000Y-86247000D01*
X133985000Y-86247000D01*
X133985000Y-85372750D01*
X133926653Y-85314403D01*
X133972537Y-85258494D01*
X134028391Y-85154000D01*
X135634516Y-85154000D01*
X135617000Y-85242061D01*
X135617000Y-85242061D01*
G37*
X135617000Y-85242061D02*
X135617000Y-85445939D01*
X135656774Y-85645898D01*
X135734795Y-85834256D01*
X135752812Y-85861220D01*
X135610939Y-85833000D01*
X135407061Y-85833000D01*
X135224812Y-85869251D01*
X135225072Y-85849000D01*
X135212812Y-85724518D01*
X135176502Y-85604820D01*
X135117537Y-85494506D01*
X135038185Y-85397815D01*
X134941494Y-85318463D01*
X134831180Y-85259498D01*
X134711482Y-85223188D01*
X134587000Y-85210928D01*
X134397750Y-85214000D01*
X134239000Y-85372750D01*
X134239000Y-86247000D01*
X134259000Y-86247000D01*
X134259000Y-86501000D01*
X134239000Y-86501000D01*
X134239000Y-86521000D01*
X133985000Y-86521000D01*
X133985000Y-86501000D01*
X133965000Y-86501000D01*
X133965000Y-86247000D01*
X133985000Y-86247000D01*
X133985000Y-85372750D01*
X133926653Y-85314403D01*
X133972537Y-85258494D01*
X134028391Y-85154000D01*
X135634516Y-85154000D01*
X135617000Y-85242061D01*
G36*
X140365000Y-86167000D02*
G01*
X140385000Y-86167000D01*
X140385000Y-86421000D01*
X140365000Y-86421000D01*
X140365000Y-86441000D01*
X140111000Y-86441000D01*
X140111000Y-86421000D01*
X140091000Y-86421000D01*
X140091000Y-86167000D01*
X140111000Y-86167000D01*
X140111000Y-86147000D01*
X140365000Y-86147000D01*
X140365000Y-86167000D01*
X140365000Y-86167000D01*
G37*
X140365000Y-86167000D02*
X140385000Y-86167000D01*
X140385000Y-86421000D01*
X140365000Y-86421000D01*
X140365000Y-86441000D01*
X140111000Y-86441000D01*
X140111000Y-86421000D01*
X140091000Y-86421000D01*
X140091000Y-86167000D01*
X140111000Y-86167000D01*
X140111000Y-86147000D01*
X140365000Y-86147000D01*
X140365000Y-86167000D01*
G36*
X139037188Y-85869518D02*
G01*
X139024928Y-85994000D01*
X139028000Y-86008250D01*
X139186748Y-86166998D01*
X139028000Y-86166998D01*
X139028000Y-86199784D01*
X138851072Y-86273071D01*
X138851072Y-85998326D01*
X138887276Y-85978974D01*
X139003001Y-85884001D01*
X139026804Y-85854998D01*
X139048032Y-85833769D01*
X139037188Y-85869518D01*
X139037188Y-85869518D01*
G37*
X139037188Y-85869518D02*
X139024928Y-85994000D01*
X139028000Y-86008250D01*
X139186748Y-86166998D01*
X139028000Y-86166998D01*
X139028000Y-86199784D01*
X138851072Y-86273071D01*
X138851072Y-85998326D01*
X138887276Y-85978974D01*
X139003001Y-85884001D01*
X139026804Y-85854998D01*
X139048032Y-85833769D01*
X139037188Y-85869518D01*
G36*
X143891000Y-84963000D02*
G01*
X146177000Y-84963000D01*
X146177000Y-84943000D01*
X146431000Y-84943000D01*
X146431000Y-84963000D01*
X146451000Y-84963000D01*
X146451000Y-85217000D01*
X146431000Y-85217000D01*
X146431000Y-85237000D01*
X146177000Y-85237000D01*
X146177000Y-85217000D01*
X143891000Y-85217000D01*
X143891000Y-85237000D01*
X143637000Y-85237000D01*
X143637000Y-85217000D01*
X143617000Y-85217000D01*
X143617000Y-84963000D01*
X143637000Y-84963000D01*
X143637000Y-84943000D01*
X143891000Y-84943000D01*
X143891000Y-84963000D01*
X143891000Y-84963000D01*
G37*
X143891000Y-84963000D02*
X146177000Y-84963000D01*
X146177000Y-84943000D01*
X146431000Y-84943000D01*
X146431000Y-84963000D01*
X146451000Y-84963000D01*
X146451000Y-85217000D01*
X146431000Y-85217000D01*
X146431000Y-85237000D01*
X146177000Y-85237000D01*
X146177000Y-85217000D01*
X143891000Y-85217000D01*
X143891000Y-85237000D01*
X143637000Y-85237000D01*
X143637000Y-85217000D01*
X143617000Y-85217000D01*
X143617000Y-84963000D01*
X143637000Y-84963000D01*
X143637000Y-84943000D01*
X143891000Y-84943000D01*
X143891000Y-84963000D01*
G36*
X142300487Y-79718889D02*
G01*
X142271815Y-80010000D01*
X142300487Y-80301111D01*
X142385401Y-80581034D01*
X142505143Y-80805055D01*
X141803202Y-81506997D01*
X141774199Y-81530799D01*
X141732264Y-81581898D01*
X141679226Y-81646524D01*
X141632070Y-81734746D01*
X141608654Y-81778554D01*
X141565197Y-81921815D01*
X141554200Y-82033468D01*
X141554200Y-82033478D01*
X141550524Y-82070800D01*
X141554200Y-82108123D01*
X141554201Y-84411069D01*
X141510263Y-84455007D01*
X141451072Y-84543593D01*
X141451072Y-84094000D01*
X141438812Y-83969518D01*
X141402502Y-83849820D01*
X141343537Y-83739506D01*
X141264185Y-83642815D01*
X141167494Y-83563463D01*
X141057180Y-83504498D01*
X140937482Y-83468188D01*
X140813000Y-83455928D01*
X139663000Y-83455928D01*
X139538518Y-83468188D01*
X139418820Y-83504498D01*
X139308506Y-83563463D01*
X139211815Y-83642815D01*
X139192129Y-83666803D01*
X139133508Y-83684585D01*
X139120753Y-83688454D01*
X138988723Y-83759026D01*
X138934532Y-83803500D01*
X138872999Y-83853999D01*
X138849201Y-83882997D01*
X138821093Y-83911105D01*
X138802502Y-83849820D01*
X138743537Y-83739506D01*
X138664185Y-83642815D01*
X138567494Y-83563463D01*
X138457180Y-83504498D01*
X138337482Y-83468188D01*
X138213000Y-83455928D01*
X137063000Y-83455928D01*
X136938518Y-83468188D01*
X136818820Y-83504498D01*
X136708506Y-83563463D01*
X136622556Y-83634000D01*
X134372592Y-83634000D01*
X134473437Y-83551238D01*
X134496457Y-83523188D01*
X135722882Y-82296763D01*
X135778140Y-82319652D01*
X135978099Y-82359426D01*
X136181977Y-82359426D01*
X136381936Y-82319652D01*
X136570294Y-82241631D01*
X136739812Y-82128363D01*
X136883975Y-81984200D01*
X136997243Y-81814682D01*
X137075264Y-81626324D01*
X137115038Y-81426365D01*
X137115038Y-81222487D01*
X137075264Y-81022528D01*
X136997243Y-80834170D01*
X136883975Y-80664652D01*
X136739812Y-80520489D01*
X136570294Y-80407221D01*
X136381936Y-80329200D01*
X136340952Y-80321048D01*
X136332800Y-80280064D01*
X136254779Y-80091706D01*
X136141511Y-79922188D01*
X136071152Y-79851829D01*
X136327982Y-79594999D01*
X142338069Y-79594999D01*
X142300487Y-79718889D01*
X142300487Y-79718889D01*
G37*
X142300487Y-79718889D02*
X142271815Y-80010000D01*
X142300487Y-80301111D01*
X142385401Y-80581034D01*
X142505143Y-80805055D01*
X141803202Y-81506997D01*
X141774199Y-81530799D01*
X141732264Y-81581898D01*
X141679226Y-81646524D01*
X141632070Y-81734746D01*
X141608654Y-81778554D01*
X141565197Y-81921815D01*
X141554200Y-82033468D01*
X141554200Y-82033478D01*
X141550524Y-82070800D01*
X141554200Y-82108123D01*
X141554201Y-84411069D01*
X141510263Y-84455007D01*
X141451072Y-84543593D01*
X141451072Y-84094000D01*
X141438812Y-83969518D01*
X141402502Y-83849820D01*
X141343537Y-83739506D01*
X141264185Y-83642815D01*
X141167494Y-83563463D01*
X141057180Y-83504498D01*
X140937482Y-83468188D01*
X140813000Y-83455928D01*
X139663000Y-83455928D01*
X139538518Y-83468188D01*
X139418820Y-83504498D01*
X139308506Y-83563463D01*
X139211815Y-83642815D01*
X139192129Y-83666803D01*
X139133508Y-83684585D01*
X139120753Y-83688454D01*
X138988723Y-83759026D01*
X138934532Y-83803500D01*
X138872999Y-83853999D01*
X138849201Y-83882997D01*
X138821093Y-83911105D01*
X138802502Y-83849820D01*
X138743537Y-83739506D01*
X138664185Y-83642815D01*
X138567494Y-83563463D01*
X138457180Y-83504498D01*
X138337482Y-83468188D01*
X138213000Y-83455928D01*
X137063000Y-83455928D01*
X136938518Y-83468188D01*
X136818820Y-83504498D01*
X136708506Y-83563463D01*
X136622556Y-83634000D01*
X134372592Y-83634000D01*
X134473437Y-83551238D01*
X134496457Y-83523188D01*
X135722882Y-82296763D01*
X135778140Y-82319652D01*
X135978099Y-82359426D01*
X136181977Y-82359426D01*
X136381936Y-82319652D01*
X136570294Y-82241631D01*
X136739812Y-82128363D01*
X136883975Y-81984200D01*
X136997243Y-81814682D01*
X137075264Y-81626324D01*
X137115038Y-81426365D01*
X137115038Y-81222487D01*
X137075264Y-81022528D01*
X136997243Y-80834170D01*
X136883975Y-80664652D01*
X136739812Y-80520489D01*
X136570294Y-80407221D01*
X136381936Y-80329200D01*
X136340952Y-80321048D01*
X136332800Y-80280064D01*
X136254779Y-80091706D01*
X136141511Y-79922188D01*
X136071152Y-79851829D01*
X136327982Y-79594999D01*
X142338069Y-79594999D01*
X142300487Y-79718889D01*
G36*
X126219000Y-81844000D02*
G01*
X124162764Y-81844000D01*
X124239239Y-81781238D01*
X124262260Y-81753187D01*
X124296447Y-81719000D01*
X126219000Y-81719000D01*
X126219000Y-81844000D01*
X126219000Y-81844000D01*
G37*
X126219000Y-81844000D02*
X124162764Y-81844000D01*
X124239239Y-81781238D01*
X124262260Y-81753187D01*
X124296447Y-81719000D01*
X126219000Y-81719000D01*
X126219000Y-81844000D01*
G36*
X127388928Y-78863626D02*
G01*
X126852009Y-79400545D01*
X126852004Y-79400549D01*
X126453554Y-79799000D01*
X126106843Y-79799000D01*
X127388928Y-78516916D01*
X127388928Y-78863626D01*
X127388928Y-78863626D01*
G37*
X127388928Y-78863626D02*
X126852009Y-79400545D01*
X126852004Y-79400549D01*
X126453554Y-79799000D01*
X126106843Y-79799000D01*
X127388928Y-78516916D01*
X127388928Y-78863626D01*
G36*
X134196353Y-76791185D02*
G01*
X134219369Y-76819230D01*
X134298291Y-76884000D01*
X134331287Y-76911079D01*
X134458973Y-76979329D01*
X134597522Y-77021357D01*
X134741607Y-77035548D01*
X134777712Y-77031992D01*
X142345048Y-77031992D01*
X142300487Y-77178889D01*
X142271815Y-77470000D01*
X142292007Y-77675008D01*
X135873248Y-77675008D01*
X135837143Y-77671452D01*
X135693058Y-77685643D01*
X135554509Y-77727671D01*
X135426823Y-77795921D01*
X135314905Y-77887770D01*
X135291889Y-77915815D01*
X134128705Y-79079000D01*
X131680447Y-79079000D01*
X131465072Y-78863625D01*
X131465072Y-78502500D01*
X131448248Y-78331684D01*
X131398423Y-78167433D01*
X131317512Y-78016058D01*
X131272278Y-77960941D01*
X131289512Y-77939942D01*
X131370423Y-77788567D01*
X131420248Y-77624316D01*
X131437072Y-77453500D01*
X131437072Y-77092374D01*
X132414447Y-76115000D01*
X133520169Y-76115000D01*
X134196353Y-76791185D01*
X134196353Y-76791185D01*
G37*
X134196353Y-76791185D02*
X134219369Y-76819230D01*
X134298291Y-76884000D01*
X134331287Y-76911079D01*
X134458973Y-76979329D01*
X134597522Y-77021357D01*
X134741607Y-77035548D01*
X134777712Y-77031992D01*
X142345048Y-77031992D01*
X142300487Y-77178889D01*
X142271815Y-77470000D01*
X142292007Y-77675008D01*
X135873248Y-77675008D01*
X135837143Y-77671452D01*
X135693058Y-77685643D01*
X135554509Y-77727671D01*
X135426823Y-77795921D01*
X135314905Y-77887770D01*
X135291889Y-77915815D01*
X134128705Y-79079000D01*
X131680447Y-79079000D01*
X131465072Y-78863625D01*
X131465072Y-78502500D01*
X131448248Y-78331684D01*
X131398423Y-78167433D01*
X131317512Y-78016058D01*
X131272278Y-77960941D01*
X131289512Y-77939942D01*
X131370423Y-77788567D01*
X131420248Y-77624316D01*
X131437072Y-77453500D01*
X131437072Y-77092374D01*
X132414447Y-76115000D01*
X133520169Y-76115000D01*
X134196353Y-76791185D01*
G36*
X127374928Y-75815626D02*
G01*
X126838009Y-76352545D01*
X126838004Y-76352549D01*
X126325641Y-76864912D01*
X126325641Y-76518202D01*
X127374928Y-75468916D01*
X127374928Y-75815626D01*
X127374928Y-75815626D01*
G37*
X127374928Y-75815626D02*
X126838009Y-76352545D01*
X126838004Y-76352549D01*
X126325641Y-76864912D01*
X126325641Y-76518202D01*
X127374928Y-75468916D01*
X127374928Y-75815626D01*
G36*
X127360928Y-72767626D02*
G01*
X126824009Y-73304545D01*
X126824004Y-73304549D01*
X124646458Y-75482096D01*
X124618413Y-75505112D01*
X124526564Y-75617030D01*
X124486492Y-75692000D01*
X124458314Y-75744717D01*
X124416285Y-75883265D01*
X124402094Y-76027350D01*
X124405651Y-76063465D01*
X124405650Y-76749001D01*
X124400411Y-76749001D01*
X124364966Y-76719912D01*
X124237279Y-76651662D01*
X124098731Y-76609634D01*
X123990751Y-76598999D01*
X123954646Y-76595443D01*
X123951307Y-76595772D01*
X123942812Y-76509518D01*
X123942068Y-76507065D01*
X123952000Y-76417750D01*
X123886328Y-76352078D01*
X123847537Y-76279506D01*
X123830708Y-76259000D01*
X123847537Y-76238494D01*
X123886328Y-76165922D01*
X123952000Y-76100250D01*
X123942068Y-76010935D01*
X123942812Y-76008482D01*
X123955072Y-75884000D01*
X123955072Y-75634000D01*
X123942812Y-75509518D01*
X123942655Y-75509000D01*
X123942812Y-75508482D01*
X123947879Y-75457037D01*
X123999634Y-75441337D01*
X124127321Y-75373087D01*
X124239239Y-75281238D01*
X124262259Y-75253188D01*
X125045131Y-74470317D01*
X125058502Y-74469000D01*
X125166482Y-74458365D01*
X125305030Y-74416337D01*
X125432717Y-74348087D01*
X125544635Y-74256238D01*
X125567656Y-74228188D01*
X127360928Y-72434916D01*
X127360928Y-72767626D01*
X127360928Y-72767626D01*
G37*
X127360928Y-72767626D02*
X126824009Y-73304545D01*
X126824004Y-73304549D01*
X124646458Y-75482096D01*
X124618413Y-75505112D01*
X124526564Y-75617030D01*
X124486492Y-75692000D01*
X124458314Y-75744717D01*
X124416285Y-75883265D01*
X124402094Y-76027350D01*
X124405651Y-76063465D01*
X124405650Y-76749001D01*
X124400411Y-76749001D01*
X124364966Y-76719912D01*
X124237279Y-76651662D01*
X124098731Y-76609634D01*
X123990751Y-76598999D01*
X123954646Y-76595443D01*
X123951307Y-76595772D01*
X123942812Y-76509518D01*
X123942068Y-76507065D01*
X123952000Y-76417750D01*
X123886328Y-76352078D01*
X123847537Y-76279506D01*
X123830708Y-76259000D01*
X123847537Y-76238494D01*
X123886328Y-76165922D01*
X123952000Y-76100250D01*
X123942068Y-76010935D01*
X123942812Y-76008482D01*
X123955072Y-75884000D01*
X123955072Y-75634000D01*
X123942812Y-75509518D01*
X123942655Y-75509000D01*
X123942812Y-75508482D01*
X123947879Y-75457037D01*
X123999634Y-75441337D01*
X124127321Y-75373087D01*
X124239239Y-75281238D01*
X124262259Y-75253188D01*
X125045131Y-74470317D01*
X125058502Y-74469000D01*
X125166482Y-74458365D01*
X125305030Y-74416337D01*
X125432717Y-74348087D01*
X125544635Y-74256238D01*
X125567656Y-74228188D01*
X127360928Y-72434916D01*
X127360928Y-72767626D01*
G36*
X141009031Y-74862962D02*
G01*
X141178549Y-74976230D01*
X141366907Y-75054251D01*
X141566866Y-75094025D01*
X141770744Y-75094025D01*
X141970703Y-75054251D01*
X142159061Y-74976230D01*
X142274884Y-74898840D01*
X142271815Y-74930000D01*
X142293385Y-75149002D01*
X140795815Y-75149002D01*
X140791980Y-75113642D01*
X140778591Y-75071659D01*
X140793812Y-75021482D01*
X140806072Y-74897000D01*
X140806072Y-74857000D01*
X141003069Y-74857000D01*
X141009031Y-74862962D01*
X141009031Y-74862962D01*
G37*
X141009031Y-74862962D02*
X141178549Y-74976230D01*
X141366907Y-75054251D01*
X141566866Y-75094025D01*
X141770744Y-75094025D01*
X141970703Y-75054251D01*
X142159061Y-74976230D01*
X142274884Y-74898840D01*
X142271815Y-74930000D01*
X142293385Y-75149002D01*
X140795815Y-75149002D01*
X140791980Y-75113642D01*
X140778591Y-75071659D01*
X140793812Y-75021482D01*
X140806072Y-74897000D01*
X140806072Y-74857000D01*
X141003069Y-74857000D01*
X141009031Y-74862962D01*
G36*
X122946752Y-65123684D02*
G01*
X122929928Y-65294500D01*
X122929928Y-65769500D01*
X122946752Y-65940316D01*
X122996577Y-66104567D01*
X123077488Y-66255942D01*
X123186377Y-66388623D01*
X123319058Y-66497512D01*
X123323297Y-66499778D01*
X123213506Y-66558463D01*
X123116815Y-66637815D01*
X123037463Y-66734506D01*
X122978498Y-66844820D01*
X122942188Y-66964518D01*
X122929928Y-67089000D01*
X122933000Y-67278250D01*
X123091750Y-67437000D01*
X123966000Y-67437000D01*
X123966000Y-67417000D01*
X124220000Y-67417000D01*
X124220000Y-67437000D01*
X124240000Y-67437000D01*
X124240000Y-67691000D01*
X124220000Y-67691000D01*
X124220000Y-68515250D01*
X124378750Y-68674000D01*
X124618000Y-68677072D01*
X124742482Y-68664812D01*
X124862180Y-68628502D01*
X124972494Y-68569537D01*
X125045161Y-68509901D01*
X125069058Y-68529512D01*
X125220433Y-68610423D01*
X125384684Y-68660248D01*
X125555500Y-68677072D01*
X126130500Y-68677072D01*
X126301316Y-68660248D01*
X126465567Y-68610423D01*
X126616942Y-68529512D01*
X126749623Y-68420623D01*
X126858512Y-68287942D01*
X126939423Y-68136567D01*
X126989248Y-67972316D01*
X127006072Y-67801500D01*
X127006072Y-67326500D01*
X126989248Y-67155684D01*
X126939423Y-66991433D01*
X126858512Y-66840058D01*
X126749623Y-66707377D01*
X126616942Y-66598488D01*
X126522485Y-66548000D01*
X126616942Y-66497512D01*
X126749623Y-66388623D01*
X126817817Y-66305528D01*
X126848226Y-66335937D01*
X127017744Y-66449205D01*
X127206102Y-66527226D01*
X127406061Y-66567000D01*
X127609939Y-66567000D01*
X127809898Y-66527226D01*
X127998256Y-66449205D01*
X128167774Y-66335937D01*
X128311937Y-66191774D01*
X128425205Y-66022256D01*
X128503226Y-65833898D01*
X128543000Y-65633939D01*
X128543000Y-65430061D01*
X128533413Y-65381863D01*
X128621290Y-65518121D01*
X128662690Y-65570318D01*
X128703350Y-65623080D01*
X128710430Y-65630509D01*
X128927422Y-65855061D01*
X128978190Y-65898238D01*
X129028307Y-65942083D01*
X129036695Y-65947996D01*
X129293172Y-66126124D01*
X129351370Y-66158624D01*
X129409036Y-66191892D01*
X129418408Y-66196061D01*
X129418413Y-66196064D01*
X129418418Y-66196066D01*
X129704602Y-66320982D01*
X129767998Y-66341557D01*
X129831035Y-66362993D01*
X129841043Y-66365264D01*
X130146046Y-66432216D01*
X130212206Y-66440083D01*
X130278234Y-66448870D01*
X130288489Y-66449153D01*
X130288492Y-66449153D01*
X130600691Y-66455587D01*
X130667152Y-66450450D01*
X130733590Y-66446248D01*
X130743708Y-66444534D01*
X131051211Y-66390207D01*
X131115380Y-66372268D01*
X131174167Y-66356714D01*
X131219527Y-66466222D01*
X131332795Y-66635740D01*
X131476958Y-66779903D01*
X131646476Y-66893171D01*
X131834834Y-66971192D01*
X132034793Y-67010966D01*
X132238671Y-67010966D01*
X132438630Y-66971192D01*
X132626988Y-66893171D01*
X132796506Y-66779903D01*
X132940669Y-66635740D01*
X133053937Y-66466222D01*
X133126103Y-66292000D01*
X133902080Y-66292000D01*
X133981377Y-66388623D01*
X134114058Y-66497512D01*
X134265433Y-66578423D01*
X134429684Y-66628248D01*
X134600500Y-66645072D01*
X134817955Y-66645072D01*
X134725595Y-66757614D01*
X134643528Y-66911150D01*
X134592992Y-67077746D01*
X134575928Y-67251000D01*
X134575928Y-67693000D01*
X133926711Y-67693000D01*
X133882774Y-67649063D01*
X133713256Y-67535795D01*
X133524898Y-67457774D01*
X133324939Y-67418000D01*
X133121061Y-67418000D01*
X132921102Y-67457774D01*
X132732744Y-67535795D01*
X132563226Y-67649063D01*
X132419063Y-67793226D01*
X132305795Y-67962744D01*
X132227774Y-68151102D01*
X132188000Y-68351061D01*
X132188000Y-68554939D01*
X132227774Y-68754898D01*
X132305795Y-68943256D01*
X132419063Y-69112774D01*
X132563226Y-69256937D01*
X132732744Y-69370205D01*
X132921102Y-69448226D01*
X133121061Y-69488000D01*
X133324939Y-69488000D01*
X133524898Y-69448226D01*
X133713256Y-69370205D01*
X133882774Y-69256937D01*
X133926711Y-69213000D01*
X134575928Y-69213000D01*
X134575928Y-69401000D01*
X134592992Y-69574254D01*
X134643528Y-69740850D01*
X134725595Y-69894386D01*
X134836038Y-70028962D01*
X134970614Y-70139405D01*
X135124150Y-70221472D01*
X135290746Y-70272008D01*
X135464000Y-70289072D01*
X136389000Y-70289072D01*
X136562254Y-70272008D01*
X136728850Y-70221472D01*
X136882386Y-70139405D01*
X137016962Y-70028962D01*
X137127405Y-69894386D01*
X137209472Y-69740850D01*
X137260008Y-69574254D01*
X137277072Y-69401000D01*
X137277072Y-67251000D01*
X137260008Y-67077746D01*
X137209472Y-66911150D01*
X137127405Y-66757614D01*
X137026852Y-66635090D01*
X137096316Y-66628248D01*
X137260567Y-66578423D01*
X137411942Y-66497512D01*
X137415103Y-66494918D01*
X137493102Y-66527226D01*
X137693061Y-66567000D01*
X137879321Y-66567000D01*
X137811038Y-66623038D01*
X137700595Y-66757614D01*
X137618528Y-66911150D01*
X137567992Y-67077746D01*
X137550928Y-67251000D01*
X137550928Y-69401000D01*
X137567992Y-69574254D01*
X137618528Y-69740850D01*
X137700595Y-69894386D01*
X137811038Y-70028962D01*
X137945614Y-70139405D01*
X137958108Y-70146083D01*
X137942774Y-70183102D01*
X137903000Y-70383061D01*
X137903000Y-70586939D01*
X137942774Y-70786898D01*
X138020795Y-70975256D01*
X138134063Y-71144774D01*
X138278226Y-71288937D01*
X138447744Y-71402205D01*
X138636102Y-71480226D01*
X138836061Y-71520000D01*
X138898199Y-71520000D01*
X138914197Y-71535998D01*
X138938000Y-71565002D01*
X139047663Y-71655000D01*
X134263890Y-71655000D01*
X134267686Y-71635915D01*
X134267686Y-71432037D01*
X134243784Y-71311873D01*
X134323963Y-71231694D01*
X134437231Y-71062176D01*
X134515252Y-70873818D01*
X134555026Y-70673859D01*
X134555026Y-70469981D01*
X134515252Y-70270022D01*
X134437231Y-70081664D01*
X134323963Y-69912146D01*
X134179800Y-69767983D01*
X134010282Y-69654715D01*
X133821924Y-69576694D01*
X133621965Y-69536920D01*
X133418087Y-69536920D01*
X133218128Y-69576694D01*
X133029770Y-69654715D01*
X132860252Y-69767983D01*
X132716089Y-69912146D01*
X132602821Y-70081664D01*
X132562401Y-70179246D01*
X132486365Y-70219888D01*
X132465979Y-70236618D01*
X131954065Y-70236618D01*
X131437072Y-69719626D01*
X131437072Y-69358500D01*
X131420248Y-69187684D01*
X131370423Y-69023433D01*
X131289512Y-68872058D01*
X131180623Y-68739377D01*
X131047942Y-68630488D01*
X130896567Y-68549577D01*
X130732316Y-68499752D01*
X130561500Y-68482928D01*
X129986500Y-68482928D01*
X129815684Y-68499752D01*
X129651433Y-68549577D01*
X129500058Y-68630488D01*
X129399000Y-68713425D01*
X129297942Y-68630488D01*
X129146567Y-68549577D01*
X128982316Y-68499752D01*
X128811500Y-68482928D01*
X128236500Y-68482928D01*
X128065684Y-68499752D01*
X127901433Y-68549577D01*
X127750058Y-68630488D01*
X127617377Y-68739377D01*
X127508488Y-68872058D01*
X127427577Y-69023433D01*
X127377752Y-69187684D01*
X127360928Y-69358500D01*
X127360928Y-69719626D01*
X126824009Y-70256545D01*
X126824004Y-70256549D01*
X124789001Y-72291553D01*
X124262259Y-71764812D01*
X124239239Y-71736762D01*
X124127321Y-71644913D01*
X123999634Y-71576663D01*
X123861086Y-71534635D01*
X123817275Y-71530320D01*
X123717001Y-71520444D01*
X123680896Y-71524000D01*
X123493607Y-71524000D01*
X123441482Y-71508188D01*
X123317000Y-71495928D01*
X121717000Y-71495928D01*
X121592518Y-71508188D01*
X121472820Y-71544498D01*
X121362506Y-71603463D01*
X121265815Y-71682815D01*
X121186463Y-71779506D01*
X121127498Y-71889820D01*
X121094379Y-71999000D01*
X120362280Y-71999000D01*
X118654579Y-70291300D01*
X118654579Y-70229162D01*
X118614805Y-70029203D01*
X118536784Y-69840845D01*
X118499117Y-69784471D01*
X119623901Y-69784471D01*
X119631213Y-69833415D01*
X119728003Y-70067311D01*
X119868564Y-70277830D01*
X120047495Y-70456882D01*
X120257919Y-70597585D01*
X120491749Y-70694533D01*
X120740000Y-70744000D01*
X121440000Y-70744000D01*
X121440000Y-69586000D01*
X121694000Y-69586000D01*
X121694000Y-70744000D01*
X122394000Y-70744000D01*
X122642251Y-70694533D01*
X122876081Y-70597585D01*
X123086505Y-70456882D01*
X123265436Y-70277830D01*
X123405997Y-70067311D01*
X123502787Y-69833415D01*
X123510099Y-69784471D01*
X123386067Y-69586000D01*
X121694000Y-69586000D01*
X121440000Y-69586000D01*
X119747933Y-69586000D01*
X119623901Y-69784471D01*
X118499117Y-69784471D01*
X118423516Y-69671327D01*
X118279353Y-69527164D01*
X118109835Y-69413896D01*
X117921477Y-69335875D01*
X117721518Y-69296101D01*
X117517640Y-69296101D01*
X117317681Y-69335875D01*
X117302000Y-69342370D01*
X117302000Y-69331998D01*
X117136068Y-69331998D01*
X117191068Y-69243990D01*
X119110688Y-69243990D01*
X119148010Y-69247666D01*
X119185332Y-69243990D01*
X119185343Y-69243990D01*
X119296996Y-69232993D01*
X119440257Y-69189536D01*
X119572286Y-69118964D01*
X119639974Y-69063414D01*
X119631213Y-69084585D01*
X119623901Y-69133529D01*
X119747933Y-69332000D01*
X121440000Y-69332000D01*
X121440000Y-68174000D01*
X121694000Y-68174000D01*
X121694000Y-69332000D01*
X123386067Y-69332000D01*
X123510099Y-69133529D01*
X123502787Y-69084585D01*
X123405997Y-68850689D01*
X123265436Y-68640170D01*
X123086505Y-68461118D01*
X122876081Y-68320415D01*
X122642251Y-68223467D01*
X122394000Y-68174000D01*
X121694000Y-68174000D01*
X121440000Y-68174000D01*
X120740000Y-68174000D01*
X120491749Y-68223467D01*
X120477375Y-68229427D01*
X120667802Y-68039000D01*
X122929928Y-68039000D01*
X122942188Y-68163482D01*
X122978498Y-68283180D01*
X123037463Y-68393494D01*
X123116815Y-68490185D01*
X123213506Y-68569537D01*
X123323820Y-68628502D01*
X123443518Y-68664812D01*
X123568000Y-68677072D01*
X123807250Y-68674000D01*
X123966000Y-68515250D01*
X123966000Y-67691000D01*
X123091750Y-67691000D01*
X122933000Y-67849750D01*
X122929928Y-68039000D01*
X120667802Y-68039000D01*
X121020003Y-67686799D01*
X121049001Y-67663001D01*
X121096569Y-67605040D01*
X121131567Y-67594423D01*
X121282942Y-67513512D01*
X121394192Y-67422211D01*
X121564061Y-67456000D01*
X121767939Y-67456000D01*
X121967898Y-67416226D01*
X122156256Y-67338205D01*
X122325774Y-67224937D01*
X122469937Y-67080774D01*
X122583205Y-66911256D01*
X122661226Y-66722898D01*
X122701000Y-66522939D01*
X122701000Y-66319061D01*
X122661226Y-66119102D01*
X122583205Y-65930744D01*
X122469937Y-65761226D01*
X122325774Y-65617063D01*
X122156256Y-65503795D01*
X121967898Y-65425774D01*
X121767939Y-65386000D01*
X121564061Y-65386000D01*
X121364102Y-65425774D01*
X121175744Y-65503795D01*
X121157955Y-65515681D01*
X121131567Y-65501577D01*
X120967316Y-65451752D01*
X120796500Y-65434928D01*
X120221500Y-65434928D01*
X120050684Y-65451752D01*
X119886433Y-65501577D01*
X119735058Y-65582488D01*
X119634000Y-65665425D01*
X119532942Y-65582488D01*
X119381567Y-65501577D01*
X119217316Y-65451752D01*
X119046500Y-65434928D01*
X118695800Y-65434928D01*
X118639985Y-65417997D01*
X118491000Y-65403323D01*
X118342014Y-65417997D01*
X118198753Y-65461454D01*
X118066724Y-65532026D01*
X118042924Y-65551558D01*
X117985058Y-65582488D01*
X117886954Y-65663000D01*
X116047046Y-65663000D01*
X115948942Y-65582488D01*
X115797567Y-65501577D01*
X115762569Y-65490960D01*
X115715001Y-65432999D01*
X115685997Y-65409196D01*
X115513794Y-65236993D01*
X115489991Y-65207989D01*
X115374266Y-65113016D01*
X115276017Y-65060500D01*
X122965919Y-65060500D01*
X122946752Y-65123684D01*
X122946752Y-65123684D01*
G37*
X122946752Y-65123684D02*
X122929928Y-65294500D01*
X122929928Y-65769500D01*
X122946752Y-65940316D01*
X122996577Y-66104567D01*
X123077488Y-66255942D01*
X123186377Y-66388623D01*
X123319058Y-66497512D01*
X123323297Y-66499778D01*
X123213506Y-66558463D01*
X123116815Y-66637815D01*
X123037463Y-66734506D01*
X122978498Y-66844820D01*
X122942188Y-66964518D01*
X122929928Y-67089000D01*
X122933000Y-67278250D01*
X123091750Y-67437000D01*
X123966000Y-67437000D01*
X123966000Y-67417000D01*
X124220000Y-67417000D01*
X124220000Y-67437000D01*
X124240000Y-67437000D01*
X124240000Y-67691000D01*
X124220000Y-67691000D01*
X124220000Y-68515250D01*
X124378750Y-68674000D01*
X124618000Y-68677072D01*
X124742482Y-68664812D01*
X124862180Y-68628502D01*
X124972494Y-68569537D01*
X125045161Y-68509901D01*
X125069058Y-68529512D01*
X125220433Y-68610423D01*
X125384684Y-68660248D01*
X125555500Y-68677072D01*
X126130500Y-68677072D01*
X126301316Y-68660248D01*
X126465567Y-68610423D01*
X126616942Y-68529512D01*
X126749623Y-68420623D01*
X126858512Y-68287942D01*
X126939423Y-68136567D01*
X126989248Y-67972316D01*
X127006072Y-67801500D01*
X127006072Y-67326500D01*
X126989248Y-67155684D01*
X126939423Y-66991433D01*
X126858512Y-66840058D01*
X126749623Y-66707377D01*
X126616942Y-66598488D01*
X126522485Y-66548000D01*
X126616942Y-66497512D01*
X126749623Y-66388623D01*
X126817817Y-66305528D01*
X126848226Y-66335937D01*
X127017744Y-66449205D01*
X127206102Y-66527226D01*
X127406061Y-66567000D01*
X127609939Y-66567000D01*
X127809898Y-66527226D01*
X127998256Y-66449205D01*
X128167774Y-66335937D01*
X128311937Y-66191774D01*
X128425205Y-66022256D01*
X128503226Y-65833898D01*
X128543000Y-65633939D01*
X128543000Y-65430061D01*
X128533413Y-65381863D01*
X128621290Y-65518121D01*
X128662690Y-65570318D01*
X128703350Y-65623080D01*
X128710430Y-65630509D01*
X128927422Y-65855061D01*
X128978190Y-65898238D01*
X129028307Y-65942083D01*
X129036695Y-65947996D01*
X129293172Y-66126124D01*
X129351370Y-66158624D01*
X129409036Y-66191892D01*
X129418408Y-66196061D01*
X129418413Y-66196064D01*
X129418418Y-66196066D01*
X129704602Y-66320982D01*
X129767998Y-66341557D01*
X129831035Y-66362993D01*
X129841043Y-66365264D01*
X130146046Y-66432216D01*
X130212206Y-66440083D01*
X130278234Y-66448870D01*
X130288489Y-66449153D01*
X130288492Y-66449153D01*
X130600691Y-66455587D01*
X130667152Y-66450450D01*
X130733590Y-66446248D01*
X130743708Y-66444534D01*
X131051211Y-66390207D01*
X131115380Y-66372268D01*
X131174167Y-66356714D01*
X131219527Y-66466222D01*
X131332795Y-66635740D01*
X131476958Y-66779903D01*
X131646476Y-66893171D01*
X131834834Y-66971192D01*
X132034793Y-67010966D01*
X132238671Y-67010966D01*
X132438630Y-66971192D01*
X132626988Y-66893171D01*
X132796506Y-66779903D01*
X132940669Y-66635740D01*
X133053937Y-66466222D01*
X133126103Y-66292000D01*
X133902080Y-66292000D01*
X133981377Y-66388623D01*
X134114058Y-66497512D01*
X134265433Y-66578423D01*
X134429684Y-66628248D01*
X134600500Y-66645072D01*
X134817955Y-66645072D01*
X134725595Y-66757614D01*
X134643528Y-66911150D01*
X134592992Y-67077746D01*
X134575928Y-67251000D01*
X134575928Y-67693000D01*
X133926711Y-67693000D01*
X133882774Y-67649063D01*
X133713256Y-67535795D01*
X133524898Y-67457774D01*
X133324939Y-67418000D01*
X133121061Y-67418000D01*
X132921102Y-67457774D01*
X132732744Y-67535795D01*
X132563226Y-67649063D01*
X132419063Y-67793226D01*
X132305795Y-67962744D01*
X132227774Y-68151102D01*
X132188000Y-68351061D01*
X132188000Y-68554939D01*
X132227774Y-68754898D01*
X132305795Y-68943256D01*
X132419063Y-69112774D01*
X132563226Y-69256937D01*
X132732744Y-69370205D01*
X132921102Y-69448226D01*
X133121061Y-69488000D01*
X133324939Y-69488000D01*
X133524898Y-69448226D01*
X133713256Y-69370205D01*
X133882774Y-69256937D01*
X133926711Y-69213000D01*
X134575928Y-69213000D01*
X134575928Y-69401000D01*
X134592992Y-69574254D01*
X134643528Y-69740850D01*
X134725595Y-69894386D01*
X134836038Y-70028962D01*
X134970614Y-70139405D01*
X135124150Y-70221472D01*
X135290746Y-70272008D01*
X135464000Y-70289072D01*
X136389000Y-70289072D01*
X136562254Y-70272008D01*
X136728850Y-70221472D01*
X136882386Y-70139405D01*
X137016962Y-70028962D01*
X137127405Y-69894386D01*
X137209472Y-69740850D01*
X137260008Y-69574254D01*
X137277072Y-69401000D01*
X137277072Y-67251000D01*
X137260008Y-67077746D01*
X137209472Y-66911150D01*
X137127405Y-66757614D01*
X137026852Y-66635090D01*
X137096316Y-66628248D01*
X137260567Y-66578423D01*
X137411942Y-66497512D01*
X137415103Y-66494918D01*
X137493102Y-66527226D01*
X137693061Y-66567000D01*
X137879321Y-66567000D01*
X137811038Y-66623038D01*
X137700595Y-66757614D01*
X137618528Y-66911150D01*
X137567992Y-67077746D01*
X137550928Y-67251000D01*
X137550928Y-69401000D01*
X137567992Y-69574254D01*
X137618528Y-69740850D01*
X137700595Y-69894386D01*
X137811038Y-70028962D01*
X137945614Y-70139405D01*
X137958108Y-70146083D01*
X137942774Y-70183102D01*
X137903000Y-70383061D01*
X137903000Y-70586939D01*
X137942774Y-70786898D01*
X138020795Y-70975256D01*
X138134063Y-71144774D01*
X138278226Y-71288937D01*
X138447744Y-71402205D01*
X138636102Y-71480226D01*
X138836061Y-71520000D01*
X138898199Y-71520000D01*
X138914197Y-71535998D01*
X138938000Y-71565002D01*
X139047663Y-71655000D01*
X134263890Y-71655000D01*
X134267686Y-71635915D01*
X134267686Y-71432037D01*
X134243784Y-71311873D01*
X134323963Y-71231694D01*
X134437231Y-71062176D01*
X134515252Y-70873818D01*
X134555026Y-70673859D01*
X134555026Y-70469981D01*
X134515252Y-70270022D01*
X134437231Y-70081664D01*
X134323963Y-69912146D01*
X134179800Y-69767983D01*
X134010282Y-69654715D01*
X133821924Y-69576694D01*
X133621965Y-69536920D01*
X133418087Y-69536920D01*
X133218128Y-69576694D01*
X133029770Y-69654715D01*
X132860252Y-69767983D01*
X132716089Y-69912146D01*
X132602821Y-70081664D01*
X132562401Y-70179246D01*
X132486365Y-70219888D01*
X132465979Y-70236618D01*
X131954065Y-70236618D01*
X131437072Y-69719626D01*
X131437072Y-69358500D01*
X131420248Y-69187684D01*
X131370423Y-69023433D01*
X131289512Y-68872058D01*
X131180623Y-68739377D01*
X131047942Y-68630488D01*
X130896567Y-68549577D01*
X130732316Y-68499752D01*
X130561500Y-68482928D01*
X129986500Y-68482928D01*
X129815684Y-68499752D01*
X129651433Y-68549577D01*
X129500058Y-68630488D01*
X129399000Y-68713425D01*
X129297942Y-68630488D01*
X129146567Y-68549577D01*
X128982316Y-68499752D01*
X128811500Y-68482928D01*
X128236500Y-68482928D01*
X128065684Y-68499752D01*
X127901433Y-68549577D01*
X127750058Y-68630488D01*
X127617377Y-68739377D01*
X127508488Y-68872058D01*
X127427577Y-69023433D01*
X127377752Y-69187684D01*
X127360928Y-69358500D01*
X127360928Y-69719626D01*
X126824009Y-70256545D01*
X126824004Y-70256549D01*
X124789001Y-72291553D01*
X124262259Y-71764812D01*
X124239239Y-71736762D01*
X124127321Y-71644913D01*
X123999634Y-71576663D01*
X123861086Y-71534635D01*
X123817275Y-71530320D01*
X123717001Y-71520444D01*
X123680896Y-71524000D01*
X123493607Y-71524000D01*
X123441482Y-71508188D01*
X123317000Y-71495928D01*
X121717000Y-71495928D01*
X121592518Y-71508188D01*
X121472820Y-71544498D01*
X121362506Y-71603463D01*
X121265815Y-71682815D01*
X121186463Y-71779506D01*
X121127498Y-71889820D01*
X121094379Y-71999000D01*
X120362280Y-71999000D01*
X118654579Y-70291300D01*
X118654579Y-70229162D01*
X118614805Y-70029203D01*
X118536784Y-69840845D01*
X118499117Y-69784471D01*
X119623901Y-69784471D01*
X119631213Y-69833415D01*
X119728003Y-70067311D01*
X119868564Y-70277830D01*
X120047495Y-70456882D01*
X120257919Y-70597585D01*
X120491749Y-70694533D01*
X120740000Y-70744000D01*
X121440000Y-70744000D01*
X121440000Y-69586000D01*
X121694000Y-69586000D01*
X121694000Y-70744000D01*
X122394000Y-70744000D01*
X122642251Y-70694533D01*
X122876081Y-70597585D01*
X123086505Y-70456882D01*
X123265436Y-70277830D01*
X123405997Y-70067311D01*
X123502787Y-69833415D01*
X123510099Y-69784471D01*
X123386067Y-69586000D01*
X121694000Y-69586000D01*
X121440000Y-69586000D01*
X119747933Y-69586000D01*
X119623901Y-69784471D01*
X118499117Y-69784471D01*
X118423516Y-69671327D01*
X118279353Y-69527164D01*
X118109835Y-69413896D01*
X117921477Y-69335875D01*
X117721518Y-69296101D01*
X117517640Y-69296101D01*
X117317681Y-69335875D01*
X117302000Y-69342370D01*
X117302000Y-69331998D01*
X117136068Y-69331998D01*
X117191068Y-69243990D01*
X119110688Y-69243990D01*
X119148010Y-69247666D01*
X119185332Y-69243990D01*
X119185343Y-69243990D01*
X119296996Y-69232993D01*
X119440257Y-69189536D01*
X119572286Y-69118964D01*
X119639974Y-69063414D01*
X119631213Y-69084585D01*
X119623901Y-69133529D01*
X119747933Y-69332000D01*
X121440000Y-69332000D01*
X121440000Y-68174000D01*
X121694000Y-68174000D01*
X121694000Y-69332000D01*
X123386067Y-69332000D01*
X123510099Y-69133529D01*
X123502787Y-69084585D01*
X123405997Y-68850689D01*
X123265436Y-68640170D01*
X123086505Y-68461118D01*
X122876081Y-68320415D01*
X122642251Y-68223467D01*
X122394000Y-68174000D01*
X121694000Y-68174000D01*
X121440000Y-68174000D01*
X120740000Y-68174000D01*
X120491749Y-68223467D01*
X120477375Y-68229427D01*
X120667802Y-68039000D01*
X122929928Y-68039000D01*
X122942188Y-68163482D01*
X122978498Y-68283180D01*
X123037463Y-68393494D01*
X123116815Y-68490185D01*
X123213506Y-68569537D01*
X123323820Y-68628502D01*
X123443518Y-68664812D01*
X123568000Y-68677072D01*
X123807250Y-68674000D01*
X123966000Y-68515250D01*
X123966000Y-67691000D01*
X123091750Y-67691000D01*
X122933000Y-67849750D01*
X122929928Y-68039000D01*
X120667802Y-68039000D01*
X121020003Y-67686799D01*
X121049001Y-67663001D01*
X121096569Y-67605040D01*
X121131567Y-67594423D01*
X121282942Y-67513512D01*
X121394192Y-67422211D01*
X121564061Y-67456000D01*
X121767939Y-67456000D01*
X121967898Y-67416226D01*
X122156256Y-67338205D01*
X122325774Y-67224937D01*
X122469937Y-67080774D01*
X122583205Y-66911256D01*
X122661226Y-66722898D01*
X122701000Y-66522939D01*
X122701000Y-66319061D01*
X122661226Y-66119102D01*
X122583205Y-65930744D01*
X122469937Y-65761226D01*
X122325774Y-65617063D01*
X122156256Y-65503795D01*
X121967898Y-65425774D01*
X121767939Y-65386000D01*
X121564061Y-65386000D01*
X121364102Y-65425774D01*
X121175744Y-65503795D01*
X121157955Y-65515681D01*
X121131567Y-65501577D01*
X120967316Y-65451752D01*
X120796500Y-65434928D01*
X120221500Y-65434928D01*
X120050684Y-65451752D01*
X119886433Y-65501577D01*
X119735058Y-65582488D01*
X119634000Y-65665425D01*
X119532942Y-65582488D01*
X119381567Y-65501577D01*
X119217316Y-65451752D01*
X119046500Y-65434928D01*
X118695800Y-65434928D01*
X118639985Y-65417997D01*
X118491000Y-65403323D01*
X118342014Y-65417997D01*
X118198753Y-65461454D01*
X118066724Y-65532026D01*
X118042924Y-65551558D01*
X117985058Y-65582488D01*
X117886954Y-65663000D01*
X116047046Y-65663000D01*
X115948942Y-65582488D01*
X115797567Y-65501577D01*
X115762569Y-65490960D01*
X115715001Y-65432999D01*
X115685997Y-65409196D01*
X115513794Y-65236993D01*
X115489991Y-65207989D01*
X115374266Y-65113016D01*
X115276017Y-65060500D01*
X122965919Y-65060500D01*
X122946752Y-65123684D01*
G36*
X115644000Y-69332000D02*
G01*
X115664000Y-69332000D01*
X115664000Y-69586000D01*
X115644000Y-69586000D01*
X115644000Y-69606000D01*
X115390000Y-69606000D01*
X115390000Y-69586000D01*
X115370000Y-69586000D01*
X115370000Y-69332000D01*
X115390000Y-69332000D01*
X115390000Y-69312000D01*
X115644000Y-69312000D01*
X115644000Y-69332000D01*
X115644000Y-69332000D01*
G37*
X115644000Y-69332000D02*
X115664000Y-69332000D01*
X115664000Y-69586000D01*
X115644000Y-69586000D01*
X115644000Y-69606000D01*
X115390000Y-69606000D01*
X115390000Y-69586000D01*
X115370000Y-69586000D01*
X115370000Y-69332000D01*
X115390000Y-69332000D01*
X115390000Y-69312000D01*
X115644000Y-69312000D01*
X115644000Y-69332000D01*
M02*
