G04 #@! TF.GenerationSoftware,KiCad,Pcbnew,(5.1.4)-1*
G04 #@! TF.CreationDate,2019-12-30T10:25:26+01:00*
G04 #@! TF.ProjectId,HDMI,48444d49-2e6b-4696-9361-645f70636258,rev?*
G04 #@! TF.SameCoordinates,Original*
G04 #@! TF.FileFunction,Legend,Top*
G04 #@! TF.FilePolarity,Positive*
%FSLAX46Y46*%
G04 Gerber Fmt 4.6, Leading zero omitted, Abs format (unit mm)*
G04 Created by KiCad (PCBNEW (5.1.4)-1) date 2019-12-30 10:25:26*
%MOMM*%
%LPD*%
G04 APERTURE LIST*
%ADD10C,0.100000*%
%ADD11C,0.010000*%
%ADD12C,0.200000*%
%ADD13C,0.120000*%
%ADD14C,0.254000*%
%ADD15C,0.050000*%
%ADD16C,0.150000*%
G04 APERTURE END LIST*
D10*
X143144952Y-86213190D02*
X143454476Y-86213190D01*
X143287809Y-86403666D01*
X143359238Y-86403666D01*
X143406857Y-86427476D01*
X143430666Y-86451285D01*
X143454476Y-86498904D01*
X143454476Y-86617952D01*
X143430666Y-86665571D01*
X143406857Y-86689380D01*
X143359238Y-86713190D01*
X143216380Y-86713190D01*
X143168761Y-86689380D01*
X143144952Y-86665571D01*
X143597333Y-86213190D02*
X143764000Y-86713190D01*
X143930666Y-86213190D01*
X144049714Y-86213190D02*
X144359238Y-86213190D01*
X144192571Y-86403666D01*
X144264000Y-86403666D01*
X144311619Y-86427476D01*
X144335428Y-86451285D01*
X144359238Y-86498904D01*
X144359238Y-86617952D01*
X144335428Y-86665571D01*
X144311619Y-86689380D01*
X144264000Y-86713190D01*
X144121142Y-86713190D01*
X144073523Y-86689380D01*
X144049714Y-86665571D01*
X143383047Y-83697000D02*
X143335428Y-83673190D01*
X143264000Y-83673190D01*
X143192571Y-83697000D01*
X143144952Y-83744619D01*
X143121142Y-83792238D01*
X143097333Y-83887476D01*
X143097333Y-83958904D01*
X143121142Y-84054142D01*
X143144952Y-84101761D01*
X143192571Y-84149380D01*
X143264000Y-84173190D01*
X143311619Y-84173190D01*
X143383047Y-84149380D01*
X143406857Y-84125571D01*
X143406857Y-83958904D01*
X143311619Y-83958904D01*
X143621142Y-84173190D02*
X143621142Y-83673190D01*
X143906857Y-84173190D01*
X143906857Y-83673190D01*
X144144952Y-84173190D02*
X144144952Y-83673190D01*
X144264000Y-83673190D01*
X144335428Y-83697000D01*
X144383047Y-83744619D01*
X144406857Y-83792238D01*
X144430666Y-83887476D01*
X144430666Y-83958904D01*
X144406857Y-84054142D01*
X144383047Y-84101761D01*
X144335428Y-84149380D01*
X144264000Y-84173190D01*
X144144952Y-84173190D01*
X143095952Y-81371285D02*
X143262619Y-81371285D01*
X143334047Y-81633190D02*
X143095952Y-81633190D01*
X143095952Y-81133190D01*
X143334047Y-81133190D01*
X143476904Y-81133190D02*
X143762619Y-81133190D01*
X143619761Y-81633190D02*
X143619761Y-81133190D01*
X143929285Y-81633190D02*
X143929285Y-81133190D01*
X143929285Y-81371285D02*
X144215000Y-81371285D01*
X144215000Y-81633190D02*
X144215000Y-81133190D01*
X144453095Y-81442714D02*
X144834047Y-81442714D01*
X143357857Y-79045571D02*
X143334047Y-79069380D01*
X143262619Y-79093190D01*
X143215000Y-79093190D01*
X143143571Y-79069380D01*
X143095952Y-79021761D01*
X143072142Y-78974142D01*
X143048333Y-78878904D01*
X143048333Y-78807476D01*
X143072142Y-78712238D01*
X143095952Y-78664619D01*
X143143571Y-78617000D01*
X143215000Y-78593190D01*
X143262619Y-78593190D01*
X143334047Y-78617000D01*
X143357857Y-78640809D01*
X143810238Y-79093190D02*
X143572142Y-79093190D01*
X143572142Y-78593190D01*
X143976904Y-79093190D02*
X143976904Y-78593190D01*
X144262619Y-79093190D02*
X144048333Y-78807476D01*
X144262619Y-78593190D02*
X143976904Y-78878904D01*
X144476904Y-78902714D02*
X144857857Y-78902714D01*
X143286428Y-71473190D02*
X143286428Y-70973190D01*
X143405476Y-70973190D01*
X143476904Y-70997000D01*
X143524523Y-71044619D01*
X143548333Y-71092238D01*
X143572142Y-71187476D01*
X143572142Y-71258904D01*
X143548333Y-71354142D01*
X143524523Y-71401761D01*
X143476904Y-71449380D01*
X143405476Y-71473190D01*
X143286428Y-71473190D01*
X143881666Y-70973190D02*
X143929285Y-70973190D01*
X143976904Y-70997000D01*
X144000714Y-71020809D01*
X144024523Y-71068428D01*
X144048333Y-71163666D01*
X144048333Y-71282714D01*
X144024523Y-71377952D01*
X144000714Y-71425571D01*
X143976904Y-71449380D01*
X143929285Y-71473190D01*
X143881666Y-71473190D01*
X143834047Y-71449380D01*
X143810238Y-71425571D01*
X143786428Y-71377952D01*
X143762619Y-71282714D01*
X143762619Y-71163666D01*
X143786428Y-71068428D01*
X143810238Y-71020809D01*
X143834047Y-70997000D01*
X143881666Y-70973190D01*
X144262619Y-71282714D02*
X144643571Y-71282714D01*
X143286428Y-76553190D02*
X143286428Y-76053190D01*
X143405476Y-76053190D01*
X143476904Y-76077000D01*
X143524523Y-76124619D01*
X143548333Y-76172238D01*
X143572142Y-76267476D01*
X143572142Y-76338904D01*
X143548333Y-76434142D01*
X143524523Y-76481761D01*
X143476904Y-76529380D01*
X143405476Y-76553190D01*
X143286428Y-76553190D01*
X143762619Y-76100809D02*
X143786428Y-76077000D01*
X143834047Y-76053190D01*
X143953095Y-76053190D01*
X144000714Y-76077000D01*
X144024523Y-76100809D01*
X144048333Y-76148428D01*
X144048333Y-76196047D01*
X144024523Y-76267476D01*
X143738809Y-76553190D01*
X144048333Y-76553190D01*
X144262619Y-76362714D02*
X144643571Y-76362714D01*
X143442571Y-66393190D02*
X143204476Y-66393190D01*
X143204476Y-65893190D01*
X143609238Y-66131285D02*
X143775904Y-66131285D01*
X143847333Y-66393190D02*
X143609238Y-66393190D01*
X143609238Y-65893190D01*
X143847333Y-65893190D01*
X144061619Y-66393190D02*
X144061619Y-65893190D01*
X144180666Y-65893190D01*
X144252095Y-65917000D01*
X144299714Y-65964619D01*
X144323523Y-66012238D01*
X144347333Y-66107476D01*
X144347333Y-66178904D01*
X144323523Y-66274142D01*
X144299714Y-66321761D01*
X144252095Y-66369380D01*
X144180666Y-66393190D01*
X144061619Y-66393190D01*
X143286428Y-74013190D02*
X143286428Y-73513190D01*
X143405476Y-73513190D01*
X143476904Y-73537000D01*
X143524523Y-73584619D01*
X143548333Y-73632238D01*
X143572142Y-73727476D01*
X143572142Y-73798904D01*
X143548333Y-73894142D01*
X143524523Y-73941761D01*
X143476904Y-73989380D01*
X143405476Y-74013190D01*
X143286428Y-74013190D01*
X144048333Y-74013190D02*
X143762619Y-74013190D01*
X143905476Y-74013190D02*
X143905476Y-73513190D01*
X143857857Y-73584619D01*
X143810238Y-73632238D01*
X143762619Y-73656047D01*
X144262619Y-73822714D02*
X144643571Y-73822714D01*
X143168761Y-68909380D02*
X143240190Y-68933190D01*
X143359238Y-68933190D01*
X143406857Y-68909380D01*
X143430666Y-68885571D01*
X143454476Y-68837952D01*
X143454476Y-68790333D01*
X143430666Y-68742714D01*
X143406857Y-68718904D01*
X143359238Y-68695095D01*
X143264000Y-68671285D01*
X143216380Y-68647476D01*
X143192571Y-68623666D01*
X143168761Y-68576047D01*
X143168761Y-68528428D01*
X143192571Y-68480809D01*
X143216380Y-68457000D01*
X143264000Y-68433190D01*
X143383047Y-68433190D01*
X143454476Y-68457000D01*
X143954476Y-68885571D02*
X143930666Y-68909380D01*
X143859238Y-68933190D01*
X143811619Y-68933190D01*
X143740190Y-68909380D01*
X143692571Y-68861761D01*
X143668761Y-68814142D01*
X143644952Y-68718904D01*
X143644952Y-68647476D01*
X143668761Y-68552238D01*
X143692571Y-68504619D01*
X143740190Y-68457000D01*
X143811619Y-68433190D01*
X143859238Y-68433190D01*
X143930666Y-68457000D01*
X143954476Y-68480809D01*
X144406857Y-68933190D02*
X144168761Y-68933190D01*
X144168761Y-68433190D01*
X145684952Y-86213190D02*
X145994476Y-86213190D01*
X145827809Y-86403666D01*
X145899238Y-86403666D01*
X145946857Y-86427476D01*
X145970666Y-86451285D01*
X145994476Y-86498904D01*
X145994476Y-86617952D01*
X145970666Y-86665571D01*
X145946857Y-86689380D01*
X145899238Y-86713190D01*
X145756380Y-86713190D01*
X145708761Y-86689380D01*
X145684952Y-86665571D01*
X146137333Y-86213190D02*
X146304000Y-86713190D01*
X146470666Y-86213190D01*
X146589714Y-86213190D02*
X146899238Y-86213190D01*
X146732571Y-86403666D01*
X146804000Y-86403666D01*
X146851619Y-86427476D01*
X146875428Y-86451285D01*
X146899238Y-86498904D01*
X146899238Y-86617952D01*
X146875428Y-86665571D01*
X146851619Y-86689380D01*
X146804000Y-86713190D01*
X146661142Y-86713190D01*
X146613523Y-86689380D01*
X146589714Y-86665571D01*
X145561952Y-81371285D02*
X145728619Y-81371285D01*
X145800047Y-81633190D02*
X145561952Y-81633190D01*
X145561952Y-81133190D01*
X145800047Y-81133190D01*
X145942904Y-81133190D02*
X146228619Y-81133190D01*
X146085761Y-81633190D02*
X146085761Y-81133190D01*
X146395285Y-81633190D02*
X146395285Y-81133190D01*
X146395285Y-81371285D02*
X146681000Y-81371285D01*
X146681000Y-81633190D02*
X146681000Y-81133190D01*
X146919095Y-81442714D02*
X147300047Y-81442714D01*
X147109571Y-81633190D02*
X147109571Y-81252238D01*
X145982571Y-66345571D02*
X145958761Y-66369380D01*
X145887333Y-66393190D01*
X145839714Y-66393190D01*
X145768285Y-66369380D01*
X145720666Y-66321761D01*
X145696857Y-66274142D01*
X145673047Y-66178904D01*
X145673047Y-66107476D01*
X145696857Y-66012238D01*
X145720666Y-65964619D01*
X145768285Y-65917000D01*
X145839714Y-65893190D01*
X145887333Y-65893190D01*
X145958761Y-65917000D01*
X145982571Y-65940809D01*
X146196857Y-66131285D02*
X146363523Y-66131285D01*
X146434952Y-66393190D02*
X146196857Y-66393190D01*
X146196857Y-65893190D01*
X146434952Y-65893190D01*
X146934952Y-66345571D02*
X146911142Y-66369380D01*
X146839714Y-66393190D01*
X146792095Y-66393190D01*
X146720666Y-66369380D01*
X146673047Y-66321761D01*
X146649238Y-66274142D01*
X146625428Y-66178904D01*
X146625428Y-66107476D01*
X146649238Y-66012238D01*
X146673047Y-65964619D01*
X146720666Y-65917000D01*
X146792095Y-65893190D01*
X146839714Y-65893190D01*
X146911142Y-65917000D01*
X146934952Y-65940809D01*
X145696857Y-68909380D02*
X145768285Y-68933190D01*
X145887333Y-68933190D01*
X145934952Y-68909380D01*
X145958761Y-68885571D01*
X145982571Y-68837952D01*
X145982571Y-68790333D01*
X145958761Y-68742714D01*
X145934952Y-68718904D01*
X145887333Y-68695095D01*
X145792095Y-68671285D01*
X145744476Y-68647476D01*
X145720666Y-68623666D01*
X145696857Y-68576047D01*
X145696857Y-68528428D01*
X145720666Y-68480809D01*
X145744476Y-68457000D01*
X145792095Y-68433190D01*
X145911142Y-68433190D01*
X145982571Y-68457000D01*
X146196857Y-68933190D02*
X146196857Y-68433190D01*
X146315904Y-68433190D01*
X146387333Y-68457000D01*
X146434952Y-68504619D01*
X146458761Y-68552238D01*
X146482571Y-68647476D01*
X146482571Y-68718904D01*
X146458761Y-68814142D01*
X146434952Y-68861761D01*
X146387333Y-68909380D01*
X146315904Y-68933190D01*
X146196857Y-68933190D01*
X146673047Y-68790333D02*
X146911142Y-68790333D01*
X146625428Y-68933190D02*
X146792095Y-68433190D01*
X146958761Y-68933190D01*
X145823857Y-79045571D02*
X145800047Y-79069380D01*
X145728619Y-79093190D01*
X145681000Y-79093190D01*
X145609571Y-79069380D01*
X145561952Y-79021761D01*
X145538142Y-78974142D01*
X145514333Y-78878904D01*
X145514333Y-78807476D01*
X145538142Y-78712238D01*
X145561952Y-78664619D01*
X145609571Y-78617000D01*
X145681000Y-78593190D01*
X145728619Y-78593190D01*
X145800047Y-78617000D01*
X145823857Y-78640809D01*
X146276238Y-79093190D02*
X146038142Y-79093190D01*
X146038142Y-78593190D01*
X146442904Y-79093190D02*
X146442904Y-78593190D01*
X146728619Y-79093190D02*
X146514333Y-78807476D01*
X146728619Y-78593190D02*
X146442904Y-78878904D01*
X146942904Y-78902714D02*
X147323857Y-78902714D01*
X147133380Y-79093190D02*
X147133380Y-78712238D01*
X145923047Y-83697000D02*
X145875428Y-83673190D01*
X145804000Y-83673190D01*
X145732571Y-83697000D01*
X145684952Y-83744619D01*
X145661142Y-83792238D01*
X145637333Y-83887476D01*
X145637333Y-83958904D01*
X145661142Y-84054142D01*
X145684952Y-84101761D01*
X145732571Y-84149380D01*
X145804000Y-84173190D01*
X145851619Y-84173190D01*
X145923047Y-84149380D01*
X145946857Y-84125571D01*
X145946857Y-83958904D01*
X145851619Y-83958904D01*
X146161142Y-84173190D02*
X146161142Y-83673190D01*
X146446857Y-84173190D01*
X146446857Y-83673190D01*
X146684952Y-84173190D02*
X146684952Y-83673190D01*
X146804000Y-83673190D01*
X146875428Y-83697000D01*
X146923047Y-83744619D01*
X146946857Y-83792238D01*
X146970666Y-83887476D01*
X146970666Y-83958904D01*
X146946857Y-84054142D01*
X146923047Y-84101761D01*
X146875428Y-84149380D01*
X146804000Y-84173190D01*
X146684952Y-84173190D01*
X145752428Y-76553190D02*
X145752428Y-76053190D01*
X145871476Y-76053190D01*
X145942904Y-76077000D01*
X145990523Y-76124619D01*
X146014333Y-76172238D01*
X146038142Y-76267476D01*
X146038142Y-76338904D01*
X146014333Y-76434142D01*
X145990523Y-76481761D01*
X145942904Y-76529380D01*
X145871476Y-76553190D01*
X145752428Y-76553190D01*
X146228619Y-76100809D02*
X146252428Y-76077000D01*
X146300047Y-76053190D01*
X146419095Y-76053190D01*
X146466714Y-76077000D01*
X146490523Y-76100809D01*
X146514333Y-76148428D01*
X146514333Y-76196047D01*
X146490523Y-76267476D01*
X146204809Y-76553190D01*
X146514333Y-76553190D01*
X146728619Y-76362714D02*
X147109571Y-76362714D01*
X146919095Y-76553190D02*
X146919095Y-76172238D01*
X145752428Y-71473190D02*
X145752428Y-70973190D01*
X145871476Y-70973190D01*
X145942904Y-70997000D01*
X145990523Y-71044619D01*
X146014333Y-71092238D01*
X146038142Y-71187476D01*
X146038142Y-71258904D01*
X146014333Y-71354142D01*
X145990523Y-71401761D01*
X145942904Y-71449380D01*
X145871476Y-71473190D01*
X145752428Y-71473190D01*
X146347666Y-70973190D02*
X146395285Y-70973190D01*
X146442904Y-70997000D01*
X146466714Y-71020809D01*
X146490523Y-71068428D01*
X146514333Y-71163666D01*
X146514333Y-71282714D01*
X146490523Y-71377952D01*
X146466714Y-71425571D01*
X146442904Y-71449380D01*
X146395285Y-71473190D01*
X146347666Y-71473190D01*
X146300047Y-71449380D01*
X146276238Y-71425571D01*
X146252428Y-71377952D01*
X146228619Y-71282714D01*
X146228619Y-71163666D01*
X146252428Y-71068428D01*
X146276238Y-71020809D01*
X146300047Y-70997000D01*
X146347666Y-70973190D01*
X146728619Y-71282714D02*
X147109571Y-71282714D01*
X146919095Y-71473190D02*
X146919095Y-71092238D01*
X145752428Y-74013190D02*
X145752428Y-73513190D01*
X145871476Y-73513190D01*
X145942904Y-73537000D01*
X145990523Y-73584619D01*
X146014333Y-73632238D01*
X146038142Y-73727476D01*
X146038142Y-73798904D01*
X146014333Y-73894142D01*
X145990523Y-73941761D01*
X145942904Y-73989380D01*
X145871476Y-74013190D01*
X145752428Y-74013190D01*
X146514333Y-74013190D02*
X146228619Y-74013190D01*
X146371476Y-74013190D02*
X146371476Y-73513190D01*
X146323857Y-73584619D01*
X146276238Y-73632238D01*
X146228619Y-73656047D01*
X146728619Y-73822714D02*
X147109571Y-73822714D01*
X146919095Y-74013190D02*
X146919095Y-73632238D01*
D11*
G36*
X139073122Y-78011594D02*
G01*
X139131398Y-78053935D01*
X139161409Y-78115817D01*
X139157979Y-78185271D01*
X139115931Y-78250328D01*
X139104071Y-78260483D01*
X139045972Y-78298903D01*
X138996070Y-78305726D01*
X138932676Y-78285943D01*
X138878898Y-78242999D01*
X138873211Y-78226510D01*
X138974286Y-78226510D01*
X138988098Y-78274550D01*
X139024970Y-78283904D01*
X139078060Y-78253920D01*
X139095238Y-78238048D01*
X139136220Y-78179707D01*
X139141656Y-78132368D01*
X139117007Y-78105828D01*
X139067735Y-78109884D01*
X139033698Y-78127663D01*
X138984930Y-78182093D01*
X138974286Y-78226510D01*
X138873211Y-78226510D01*
X138857239Y-78180201D01*
X138864879Y-78111163D01*
X138898998Y-78049495D01*
X138956775Y-78008811D01*
X138991757Y-78000765D01*
X139073122Y-78011594D01*
X139073122Y-78011594D01*
G37*
X139073122Y-78011594D02*
X139131398Y-78053935D01*
X139161409Y-78115817D01*
X139157979Y-78185271D01*
X139115931Y-78250328D01*
X139104071Y-78260483D01*
X139045972Y-78298903D01*
X138996070Y-78305726D01*
X138932676Y-78285943D01*
X138878898Y-78242999D01*
X138873211Y-78226510D01*
X138974286Y-78226510D01*
X138988098Y-78274550D01*
X139024970Y-78283904D01*
X139078060Y-78253920D01*
X139095238Y-78238048D01*
X139136220Y-78179707D01*
X139141656Y-78132368D01*
X139117007Y-78105828D01*
X139067735Y-78109884D01*
X139033698Y-78127663D01*
X138984930Y-78182093D01*
X138974286Y-78226510D01*
X138873211Y-78226510D01*
X138857239Y-78180201D01*
X138864879Y-78111163D01*
X138898998Y-78049495D01*
X138956775Y-78008811D01*
X138991757Y-78000765D01*
X139073122Y-78011594D01*
G36*
X139803925Y-79560011D02*
G01*
X139848261Y-79601869D01*
X139860149Y-79631983D01*
X139857259Y-79700835D01*
X139816675Y-79747971D01*
X139760477Y-79762048D01*
X139703599Y-79746956D01*
X139676071Y-79726076D01*
X139658791Y-79676878D01*
X139678270Y-79676878D01*
X139704220Y-79720897D01*
X139760477Y-79737858D01*
X139814054Y-79723663D01*
X139837657Y-79698284D01*
X139837831Y-79642263D01*
X139805279Y-79596511D01*
X139760477Y-79580619D01*
X139711875Y-79599362D01*
X139692739Y-79619665D01*
X139678270Y-79676878D01*
X139658791Y-79676878D01*
X139658091Y-79674887D01*
X139661070Y-79630927D01*
X139694441Y-79574456D01*
X139747356Y-79550845D01*
X139803925Y-79560011D01*
X139803925Y-79560011D01*
G37*
X139803925Y-79560011D02*
X139848261Y-79601869D01*
X139860149Y-79631983D01*
X139857259Y-79700835D01*
X139816675Y-79747971D01*
X139760477Y-79762048D01*
X139703599Y-79746956D01*
X139676071Y-79726076D01*
X139658791Y-79676878D01*
X139678270Y-79676878D01*
X139704220Y-79720897D01*
X139760477Y-79737858D01*
X139814054Y-79723663D01*
X139837657Y-79698284D01*
X139837831Y-79642263D01*
X139805279Y-79596511D01*
X139760477Y-79580619D01*
X139711875Y-79599362D01*
X139692739Y-79619665D01*
X139678270Y-79676878D01*
X139658791Y-79676878D01*
X139658091Y-79674887D01*
X139661070Y-79630927D01*
X139694441Y-79574456D01*
X139747356Y-79550845D01*
X139803925Y-79560011D01*
G36*
X134891927Y-77748180D02*
G01*
X134981843Y-77800922D01*
X135037051Y-77885792D01*
X135054891Y-77992515D01*
X135048555Y-78067496D01*
X135021694Y-78125105D01*
X134973181Y-78179991D01*
X134878561Y-78244952D01*
X134773933Y-78263307D01*
X134663809Y-78234599D01*
X134627366Y-78214924D01*
X134551494Y-78144984D01*
X134526020Y-78087755D01*
X134619470Y-78087755D01*
X134634684Y-78175593D01*
X134658140Y-78211408D01*
X134679067Y-78203710D01*
X134683211Y-78188092D01*
X134940408Y-78188092D01*
X134943716Y-78189667D01*
X134965792Y-78172637D01*
X134970762Y-78165477D01*
X134976926Y-78142861D01*
X134973618Y-78141286D01*
X134951542Y-78158316D01*
X134946572Y-78165477D01*
X134940408Y-78188092D01*
X134683211Y-78188092D01*
X134691400Y-78157238D01*
X134692572Y-78130375D01*
X134695761Y-78085992D01*
X134711315Y-78052318D01*
X134748212Y-78019674D01*
X134815433Y-77978382D01*
X134853503Y-77956894D01*
X134933476Y-77911179D01*
X134976257Y-77882365D01*
X134987310Y-77864522D01*
X134972101Y-77851721D01*
X134956313Y-77845343D01*
X134859636Y-77832110D01*
X134769108Y-77858468D01*
X134693235Y-77915684D01*
X134640520Y-77995024D01*
X134619470Y-78087755D01*
X134526020Y-78087755D01*
X134512956Y-78058408D01*
X134508776Y-77965313D01*
X134535977Y-77875818D01*
X134591582Y-77800041D01*
X134672615Y-77748099D01*
X134769996Y-77730048D01*
X134891927Y-77748180D01*
X134891927Y-77748180D01*
G37*
X134891927Y-77748180D02*
X134981843Y-77800922D01*
X135037051Y-77885792D01*
X135054891Y-77992515D01*
X135048555Y-78067496D01*
X135021694Y-78125105D01*
X134973181Y-78179991D01*
X134878561Y-78244952D01*
X134773933Y-78263307D01*
X134663809Y-78234599D01*
X134627366Y-78214924D01*
X134551494Y-78144984D01*
X134526020Y-78087755D01*
X134619470Y-78087755D01*
X134634684Y-78175593D01*
X134658140Y-78211408D01*
X134679067Y-78203710D01*
X134683211Y-78188092D01*
X134940408Y-78188092D01*
X134943716Y-78189667D01*
X134965792Y-78172637D01*
X134970762Y-78165477D01*
X134976926Y-78142861D01*
X134973618Y-78141286D01*
X134951542Y-78158316D01*
X134946572Y-78165477D01*
X134940408Y-78188092D01*
X134683211Y-78188092D01*
X134691400Y-78157238D01*
X134692572Y-78130375D01*
X134695761Y-78085992D01*
X134711315Y-78052318D01*
X134748212Y-78019674D01*
X134815433Y-77978382D01*
X134853503Y-77956894D01*
X134933476Y-77911179D01*
X134976257Y-77882365D01*
X134987310Y-77864522D01*
X134972101Y-77851721D01*
X134956313Y-77845343D01*
X134859636Y-77832110D01*
X134769108Y-77858468D01*
X134693235Y-77915684D01*
X134640520Y-77995024D01*
X134619470Y-78087755D01*
X134526020Y-78087755D01*
X134512956Y-78058408D01*
X134508776Y-77965313D01*
X134535977Y-77875818D01*
X134591582Y-77800041D01*
X134672615Y-77748099D01*
X134769996Y-77730048D01*
X134891927Y-77748180D01*
G36*
X138222947Y-79367283D02*
G01*
X138262466Y-79407580D01*
X138272190Y-79458015D01*
X138246684Y-79504901D01*
X138225972Y-79519292D01*
X138159321Y-79545030D01*
X138120501Y-79532296D01*
X138104538Y-79478179D01*
X138103429Y-79447572D01*
X138127619Y-79447572D01*
X138134702Y-79503025D01*
X138162726Y-79518428D01*
X138210308Y-79505460D01*
X138245649Y-79474555D01*
X138245344Y-79433456D01*
X138215774Y-79395931D01*
X138163321Y-79375747D01*
X138149831Y-79375000D01*
X138134233Y-79396029D01*
X138127621Y-79446694D01*
X138127619Y-79447572D01*
X138103429Y-79447572D01*
X138106974Y-79384976D01*
X138122734Y-79357179D01*
X138158397Y-79350811D01*
X138159067Y-79350810D01*
X138222947Y-79367283D01*
X138222947Y-79367283D01*
G37*
X138222947Y-79367283D02*
X138262466Y-79407580D01*
X138272190Y-79458015D01*
X138246684Y-79504901D01*
X138225972Y-79519292D01*
X138159321Y-79545030D01*
X138120501Y-79532296D01*
X138104538Y-79478179D01*
X138103429Y-79447572D01*
X138127619Y-79447572D01*
X138134702Y-79503025D01*
X138162726Y-79518428D01*
X138210308Y-79505460D01*
X138245649Y-79474555D01*
X138245344Y-79433456D01*
X138215774Y-79395931D01*
X138163321Y-79375747D01*
X138149831Y-79375000D01*
X138134233Y-79396029D01*
X138127621Y-79446694D01*
X138127619Y-79447572D01*
X138103429Y-79447572D01*
X138106974Y-79384976D01*
X138122734Y-79357179D01*
X138158397Y-79350811D01*
X138159067Y-79350810D01*
X138222947Y-79367283D01*
G36*
X136602935Y-79537779D02*
G01*
X136627280Y-79555790D01*
X136648295Y-79585539D01*
X136641424Y-79599254D01*
X136599093Y-79600879D01*
X136547692Y-79597213D01*
X136485401Y-79585263D01*
X136464197Y-79564502D01*
X136464890Y-79560927D01*
X136495577Y-79533699D01*
X136548928Y-79525751D01*
X136602935Y-79537779D01*
X136602935Y-79537779D01*
G37*
X136602935Y-79537779D02*
X136627280Y-79555790D01*
X136648295Y-79585539D01*
X136641424Y-79599254D01*
X136599093Y-79600879D01*
X136547692Y-79597213D01*
X136485401Y-79585263D01*
X136464197Y-79564502D01*
X136464890Y-79560927D01*
X136495577Y-79533699D01*
X136548928Y-79525751D01*
X136602935Y-79537779D01*
G36*
X134691137Y-79367283D02*
G01*
X134730657Y-79407580D01*
X134740381Y-79458015D01*
X134714875Y-79504901D01*
X134694162Y-79519292D01*
X134627512Y-79545030D01*
X134588691Y-79532296D01*
X134572728Y-79478179D01*
X134571619Y-79447572D01*
X134595810Y-79447572D01*
X134601809Y-79500687D01*
X134624144Y-79516873D01*
X134638143Y-79515538D01*
X134673070Y-79486752D01*
X134680477Y-79447572D01*
X134664864Y-79395217D01*
X134638143Y-79379606D01*
X134607961Y-79384581D01*
X134596567Y-79422546D01*
X134595810Y-79447572D01*
X134571619Y-79447572D01*
X134575164Y-79384976D01*
X134590924Y-79357179D01*
X134626587Y-79350811D01*
X134627258Y-79350810D01*
X134691137Y-79367283D01*
X134691137Y-79367283D01*
G37*
X134691137Y-79367283D02*
X134730657Y-79407580D01*
X134740381Y-79458015D01*
X134714875Y-79504901D01*
X134694162Y-79519292D01*
X134627512Y-79545030D01*
X134588691Y-79532296D01*
X134572728Y-79478179D01*
X134571619Y-79447572D01*
X134595810Y-79447572D01*
X134601809Y-79500687D01*
X134624144Y-79516873D01*
X134638143Y-79515538D01*
X134673070Y-79486752D01*
X134680477Y-79447572D01*
X134664864Y-79395217D01*
X134638143Y-79379606D01*
X134607961Y-79384581D01*
X134596567Y-79422546D01*
X134595810Y-79447572D01*
X134571619Y-79447572D01*
X134575164Y-79384976D01*
X134590924Y-79357179D01*
X134626587Y-79350811D01*
X134627258Y-79350810D01*
X134691137Y-79367283D01*
G36*
X137964334Y-80153461D02*
G01*
X138007499Y-80174381D01*
X138018762Y-80221667D01*
X138005452Y-80271519D01*
X137964334Y-80289873D01*
X137926281Y-80288110D01*
X137911665Y-80259208D01*
X137909905Y-80221667D01*
X137915043Y-80169307D01*
X137937247Y-80152069D01*
X137964334Y-80153461D01*
X137964334Y-80153461D01*
G37*
X137964334Y-80153461D02*
X138007499Y-80174381D01*
X138018762Y-80221667D01*
X138005452Y-80271519D01*
X137964334Y-80289873D01*
X137926281Y-80288110D01*
X137911665Y-80259208D01*
X137909905Y-80221667D01*
X137915043Y-80169307D01*
X137937247Y-80152069D01*
X137964334Y-80153461D01*
G36*
X137985247Y-80403086D02*
G01*
X138017187Y-80414592D01*
X138069374Y-80449770D01*
X138080853Y-80492064D01*
X138055993Y-80531017D01*
X137999163Y-80556170D01*
X137956308Y-80560334D01*
X137924138Y-80550037D01*
X137911242Y-80510906D01*
X137909905Y-80475667D01*
X137914653Y-80416561D01*
X137936144Y-80394430D01*
X137985247Y-80403086D01*
X137985247Y-80403086D01*
G37*
X137985247Y-80403086D02*
X138017187Y-80414592D01*
X138069374Y-80449770D01*
X138080853Y-80492064D01*
X138055993Y-80531017D01*
X137999163Y-80556170D01*
X137956308Y-80560334D01*
X137924138Y-80550037D01*
X137911242Y-80510906D01*
X137909905Y-80475667D01*
X137914653Y-80416561D01*
X137936144Y-80394430D01*
X137985247Y-80403086D01*
G36*
X136837478Y-80157245D02*
G01*
X136855641Y-80163779D01*
X136888705Y-80197876D01*
X136894910Y-80250324D01*
X136876276Y-80300661D01*
X136839477Y-80327372D01*
X136783331Y-80339210D01*
X136756987Y-80327901D01*
X136749205Y-80283346D01*
X136748762Y-80245858D01*
X136756112Y-80177204D01*
X136783175Y-80149592D01*
X136837478Y-80157245D01*
X136837478Y-80157245D01*
G37*
X136837478Y-80157245D02*
X136855641Y-80163779D01*
X136888705Y-80197876D01*
X136894910Y-80250324D01*
X136876276Y-80300661D01*
X136839477Y-80327372D01*
X136783331Y-80339210D01*
X136756987Y-80327901D01*
X136749205Y-80283346D01*
X136748762Y-80245858D01*
X136756112Y-80177204D01*
X136783175Y-80149592D01*
X136837478Y-80157245D01*
G36*
X138212991Y-77722747D02*
G01*
X138265779Y-77765560D01*
X138290733Y-77822516D01*
X138284258Y-77881833D01*
X138242762Y-77931732D01*
X138210036Y-77948618D01*
X138130170Y-77973174D01*
X138083187Y-77967659D01*
X138060883Y-77926266D01*
X138057300Y-77875191D01*
X138176000Y-77875191D01*
X138191126Y-77914592D01*
X138212286Y-77923572D01*
X138244559Y-77918065D01*
X138248572Y-77913455D01*
X138256097Y-77885020D01*
X138263255Y-77865074D01*
X138261543Y-77834494D01*
X138226969Y-77826810D01*
X138184832Y-77842599D01*
X138176000Y-77875191D01*
X138057300Y-77875191D01*
X138055054Y-77843189D01*
X138055048Y-77838905D01*
X138055048Y-77705858D01*
X138135965Y-77705858D01*
X138212991Y-77722747D01*
X138212991Y-77722747D01*
G37*
X138212991Y-77722747D02*
X138265779Y-77765560D01*
X138290733Y-77822516D01*
X138284258Y-77881833D01*
X138242762Y-77931732D01*
X138210036Y-77948618D01*
X138130170Y-77973174D01*
X138083187Y-77967659D01*
X138060883Y-77926266D01*
X138057300Y-77875191D01*
X138176000Y-77875191D01*
X138191126Y-77914592D01*
X138212286Y-77923572D01*
X138244559Y-77918065D01*
X138248572Y-77913455D01*
X138256097Y-77885020D01*
X138263255Y-77865074D01*
X138261543Y-77834494D01*
X138226969Y-77826810D01*
X138184832Y-77842599D01*
X138176000Y-77875191D01*
X138057300Y-77875191D01*
X138055054Y-77843189D01*
X138055048Y-77838905D01*
X138055048Y-77705858D01*
X138135965Y-77705858D01*
X138212991Y-77722747D01*
G36*
X136515351Y-77489909D02*
G01*
X136559155Y-77497663D01*
X136576761Y-77515095D01*
X136579429Y-77536524D01*
X136594030Y-77575745D01*
X136614507Y-77584905D01*
X136636654Y-77599847D01*
X136650298Y-77649529D01*
X136656841Y-77724000D01*
X136664096Y-77863096D01*
X136777960Y-77870426D01*
X136891824Y-77877757D01*
X136898912Y-77688998D01*
X136906000Y-77500238D01*
X137045096Y-77492984D01*
X137123667Y-77490515D01*
X137165436Y-77495929D01*
X137181777Y-77512687D01*
X137184191Y-77535317D01*
X137200688Y-77576563D01*
X137232572Y-77584905D01*
X137248830Y-77586773D01*
X137260969Y-77596482D01*
X137269590Y-77620190D01*
X137275293Y-77664056D01*
X137278680Y-77734238D01*
X137280350Y-77836895D01*
X137280905Y-77978184D01*
X137280953Y-78080810D01*
X137280953Y-78576715D01*
X137135810Y-78576715D01*
X137049394Y-78573437D01*
X137003514Y-78562455D01*
X136990667Y-78543250D01*
X136970400Y-78510758D01*
X136942286Y-78497134D01*
X136915100Y-78483512D01*
X136900413Y-78452802D01*
X136894618Y-78393059D01*
X136893905Y-78337075D01*
X136893905Y-78189667D01*
X136652000Y-78189667D01*
X136652000Y-78576715D01*
X136518953Y-78576715D01*
X136436515Y-78572888D01*
X136394789Y-78560207D01*
X136385905Y-78543250D01*
X136365638Y-78510758D01*
X136337524Y-78497134D01*
X136321284Y-78490785D01*
X136309150Y-78477209D01*
X136300526Y-78450101D01*
X136294815Y-78403157D01*
X136291419Y-78330073D01*
X136289742Y-78224545D01*
X136289187Y-78080270D01*
X136289143Y-77986313D01*
X136289143Y-77512334D01*
X136313334Y-77512334D01*
X136313334Y-77980016D01*
X136314188Y-78125877D01*
X136316568Y-78254966D01*
X136320198Y-78359552D01*
X136324804Y-78431903D01*
X136330108Y-78464286D01*
X136330599Y-78464964D01*
X136363709Y-78474258D01*
X136424929Y-78476156D01*
X136445504Y-78475043D01*
X136543143Y-78467858D01*
X136550169Y-78268286D01*
X136557195Y-78068715D01*
X136916139Y-78068715D01*
X136923165Y-78268286D01*
X136930191Y-78467858D01*
X137045096Y-78475231D01*
X137160000Y-78482604D01*
X137160000Y-77509683D01*
X137045096Y-77517056D01*
X136930191Y-77524429D01*
X136923126Y-77711905D01*
X136916060Y-77899381D01*
X136555238Y-77899381D01*
X136555238Y-77512334D01*
X136313334Y-77512334D01*
X136289143Y-77512334D01*
X136289143Y-77488143D01*
X136434286Y-77488143D01*
X136515351Y-77489909D01*
X136515351Y-77489909D01*
G37*
X136515351Y-77489909D02*
X136559155Y-77497663D01*
X136576761Y-77515095D01*
X136579429Y-77536524D01*
X136594030Y-77575745D01*
X136614507Y-77584905D01*
X136636654Y-77599847D01*
X136650298Y-77649529D01*
X136656841Y-77724000D01*
X136664096Y-77863096D01*
X136777960Y-77870426D01*
X136891824Y-77877757D01*
X136898912Y-77688998D01*
X136906000Y-77500238D01*
X137045096Y-77492984D01*
X137123667Y-77490515D01*
X137165436Y-77495929D01*
X137181777Y-77512687D01*
X137184191Y-77535317D01*
X137200688Y-77576563D01*
X137232572Y-77584905D01*
X137248830Y-77586773D01*
X137260969Y-77596482D01*
X137269590Y-77620190D01*
X137275293Y-77664056D01*
X137278680Y-77734238D01*
X137280350Y-77836895D01*
X137280905Y-77978184D01*
X137280953Y-78080810D01*
X137280953Y-78576715D01*
X137135810Y-78576715D01*
X137049394Y-78573437D01*
X137003514Y-78562455D01*
X136990667Y-78543250D01*
X136970400Y-78510758D01*
X136942286Y-78497134D01*
X136915100Y-78483512D01*
X136900413Y-78452802D01*
X136894618Y-78393059D01*
X136893905Y-78337075D01*
X136893905Y-78189667D01*
X136652000Y-78189667D01*
X136652000Y-78576715D01*
X136518953Y-78576715D01*
X136436515Y-78572888D01*
X136394789Y-78560207D01*
X136385905Y-78543250D01*
X136365638Y-78510758D01*
X136337524Y-78497134D01*
X136321284Y-78490785D01*
X136309150Y-78477209D01*
X136300526Y-78450101D01*
X136294815Y-78403157D01*
X136291419Y-78330073D01*
X136289742Y-78224545D01*
X136289187Y-78080270D01*
X136289143Y-77986313D01*
X136289143Y-77512334D01*
X136313334Y-77512334D01*
X136313334Y-77980016D01*
X136314188Y-78125877D01*
X136316568Y-78254966D01*
X136320198Y-78359552D01*
X136324804Y-78431903D01*
X136330108Y-78464286D01*
X136330599Y-78464964D01*
X136363709Y-78474258D01*
X136424929Y-78476156D01*
X136445504Y-78475043D01*
X136543143Y-78467858D01*
X136550169Y-78268286D01*
X136557195Y-78068715D01*
X136916139Y-78068715D01*
X136923165Y-78268286D01*
X136930191Y-78467858D01*
X137045096Y-78475231D01*
X137160000Y-78482604D01*
X137160000Y-77509683D01*
X137045096Y-77517056D01*
X136930191Y-77524429D01*
X136923126Y-77711905D01*
X136916060Y-77899381D01*
X136555238Y-77899381D01*
X136555238Y-77512334D01*
X136313334Y-77512334D01*
X136289143Y-77512334D01*
X136289143Y-77488143D01*
X136434286Y-77488143D01*
X136515351Y-77489909D01*
G36*
X138194696Y-77493469D02*
G01*
X138312513Y-77509594D01*
X138364254Y-77525339D01*
X138450395Y-77575907D01*
X138531952Y-77648721D01*
X138595238Y-77729502D01*
X138625375Y-77797733D01*
X138643253Y-77872361D01*
X138660398Y-77905391D01*
X138685905Y-77902600D01*
X138728867Y-77869761D01*
X138733143Y-77866167D01*
X138838642Y-77803943D01*
X138950786Y-77784694D01*
X139059488Y-77810109D01*
X139061644Y-77811126D01*
X139113801Y-77830524D01*
X139141995Y-77830355D01*
X139143619Y-77826419D01*
X139165492Y-77813385D01*
X139221914Y-77804741D01*
X139276667Y-77802619D01*
X139353555Y-77804719D01*
X139393609Y-77813799D01*
X139408296Y-77834027D01*
X139409715Y-77851000D01*
X139424840Y-77890402D01*
X139446000Y-77899381D01*
X139460605Y-77906146D01*
X139470789Y-77931053D01*
X139477291Y-77981019D01*
X139480848Y-78062961D01*
X139482198Y-78183796D01*
X139482286Y-78239661D01*
X139482286Y-78579940D01*
X139319000Y-78578198D01*
X139217015Y-78579025D01*
X139118922Y-78582945D01*
X139058953Y-78587791D01*
X138987836Y-78591623D01*
X138933629Y-78586832D01*
X138925905Y-78584471D01*
X138827925Y-78527742D01*
X138737827Y-78445416D01*
X138665516Y-78349795D01*
X138620898Y-78253181D01*
X138611429Y-78193916D01*
X138611429Y-78162275D01*
X138635710Y-78162275D01*
X138639116Y-78242393D01*
X138655632Y-78297553D01*
X138694491Y-78349780D01*
X138729535Y-78386037D01*
X138792135Y-78442724D01*
X138845185Y-78470779D01*
X138909002Y-78479631D01*
X138931892Y-78479953D01*
X139043565Y-78462930D01*
X139104071Y-78429816D01*
X139167810Y-78379679D01*
X139167810Y-78431207D01*
X139173495Y-78463303D01*
X139199177Y-78476444D01*
X139257792Y-78476178D01*
X139270619Y-78475296D01*
X139373429Y-78467858D01*
X139380179Y-78147334D01*
X139386928Y-77826810D01*
X139277369Y-77826810D01*
X139205126Y-77831585D01*
X139172185Y-77847723D01*
X139167810Y-77862740D01*
X139160498Y-77881911D01*
X139131938Y-77874919D01*
X139089191Y-77850735D01*
X138999270Y-77810829D01*
X138910715Y-77808275D01*
X138816801Y-77837449D01*
X138724258Y-77900928D01*
X138663533Y-77998725D01*
X138636818Y-78126913D01*
X138635710Y-78162275D01*
X138611429Y-78162275D01*
X138611429Y-78108662D01*
X138557000Y-78159648D01*
X138447010Y-78230005D01*
X138310772Y-78260838D01*
X138271187Y-78262238D01*
X138176000Y-78262238D01*
X138176000Y-78576715D01*
X138030858Y-78576715D01*
X137949619Y-78574866D01*
X137905719Y-78566957D01*
X137888183Y-78549445D01*
X137885715Y-78529866D01*
X137899284Y-78494380D01*
X137947117Y-78477493D01*
X137964334Y-78475438D01*
X138042953Y-78467858D01*
X138050106Y-78304572D01*
X138057258Y-78141286D01*
X138195248Y-78141196D01*
X138332535Y-78123512D01*
X138436227Y-78072122D01*
X138504317Y-77989219D01*
X138534800Y-77876995D01*
X138531619Y-77773731D01*
X138504961Y-77676027D01*
X138451729Y-77603538D01*
X138367319Y-77553801D01*
X138247128Y-77524357D01*
X138086551Y-77512742D01*
X138042758Y-77512334D01*
X137811201Y-77512334D01*
X137818220Y-77996168D01*
X137819491Y-78143200D01*
X137818959Y-78272242D01*
X137816790Y-78376056D01*
X137813152Y-78447405D01*
X137808209Y-78479050D01*
X137807096Y-78479978D01*
X137801645Y-78456972D01*
X137796850Y-78392741D01*
X137792972Y-78294436D01*
X137790272Y-78169211D01*
X137789012Y-78024219D01*
X137788953Y-77984048D01*
X137788953Y-77488143D01*
X138031634Y-77488143D01*
X138194696Y-77493469D01*
X138194696Y-77493469D01*
G37*
X138194696Y-77493469D02*
X138312513Y-77509594D01*
X138364254Y-77525339D01*
X138450395Y-77575907D01*
X138531952Y-77648721D01*
X138595238Y-77729502D01*
X138625375Y-77797733D01*
X138643253Y-77872361D01*
X138660398Y-77905391D01*
X138685905Y-77902600D01*
X138728867Y-77869761D01*
X138733143Y-77866167D01*
X138838642Y-77803943D01*
X138950786Y-77784694D01*
X139059488Y-77810109D01*
X139061644Y-77811126D01*
X139113801Y-77830524D01*
X139141995Y-77830355D01*
X139143619Y-77826419D01*
X139165492Y-77813385D01*
X139221914Y-77804741D01*
X139276667Y-77802619D01*
X139353555Y-77804719D01*
X139393609Y-77813799D01*
X139408296Y-77834027D01*
X139409715Y-77851000D01*
X139424840Y-77890402D01*
X139446000Y-77899381D01*
X139460605Y-77906146D01*
X139470789Y-77931053D01*
X139477291Y-77981019D01*
X139480848Y-78062961D01*
X139482198Y-78183796D01*
X139482286Y-78239661D01*
X139482286Y-78579940D01*
X139319000Y-78578198D01*
X139217015Y-78579025D01*
X139118922Y-78582945D01*
X139058953Y-78587791D01*
X138987836Y-78591623D01*
X138933629Y-78586832D01*
X138925905Y-78584471D01*
X138827925Y-78527742D01*
X138737827Y-78445416D01*
X138665516Y-78349795D01*
X138620898Y-78253181D01*
X138611429Y-78193916D01*
X138611429Y-78162275D01*
X138635710Y-78162275D01*
X138639116Y-78242393D01*
X138655632Y-78297553D01*
X138694491Y-78349780D01*
X138729535Y-78386037D01*
X138792135Y-78442724D01*
X138845185Y-78470779D01*
X138909002Y-78479631D01*
X138931892Y-78479953D01*
X139043565Y-78462930D01*
X139104071Y-78429816D01*
X139167810Y-78379679D01*
X139167810Y-78431207D01*
X139173495Y-78463303D01*
X139199177Y-78476444D01*
X139257792Y-78476178D01*
X139270619Y-78475296D01*
X139373429Y-78467858D01*
X139380179Y-78147334D01*
X139386928Y-77826810D01*
X139277369Y-77826810D01*
X139205126Y-77831585D01*
X139172185Y-77847723D01*
X139167810Y-77862740D01*
X139160498Y-77881911D01*
X139131938Y-77874919D01*
X139089191Y-77850735D01*
X138999270Y-77810829D01*
X138910715Y-77808275D01*
X138816801Y-77837449D01*
X138724258Y-77900928D01*
X138663533Y-77998725D01*
X138636818Y-78126913D01*
X138635710Y-78162275D01*
X138611429Y-78162275D01*
X138611429Y-78108662D01*
X138557000Y-78159648D01*
X138447010Y-78230005D01*
X138310772Y-78260838D01*
X138271187Y-78262238D01*
X138176000Y-78262238D01*
X138176000Y-78576715D01*
X138030858Y-78576715D01*
X137949619Y-78574866D01*
X137905719Y-78566957D01*
X137888183Y-78549445D01*
X137885715Y-78529866D01*
X137899284Y-78494380D01*
X137947117Y-78477493D01*
X137964334Y-78475438D01*
X138042953Y-78467858D01*
X138050106Y-78304572D01*
X138057258Y-78141286D01*
X138195248Y-78141196D01*
X138332535Y-78123512D01*
X138436227Y-78072122D01*
X138504317Y-77989219D01*
X138534800Y-77876995D01*
X138531619Y-77773731D01*
X138504961Y-77676027D01*
X138451729Y-77603538D01*
X138367319Y-77553801D01*
X138247128Y-77524357D01*
X138086551Y-77512742D01*
X138042758Y-77512334D01*
X137811201Y-77512334D01*
X137818220Y-77996168D01*
X137819491Y-78143200D01*
X137818959Y-78272242D01*
X137816790Y-78376056D01*
X137813152Y-78447405D01*
X137808209Y-78479050D01*
X137807096Y-78479978D01*
X137801645Y-78456972D01*
X137796850Y-78392741D01*
X137792972Y-78294436D01*
X137790272Y-78169211D01*
X137789012Y-78024219D01*
X137788953Y-77984048D01*
X137788953Y-77488143D01*
X138031634Y-77488143D01*
X138194696Y-77493469D01*
G36*
X136117350Y-77555999D02*
G01*
X136119810Y-77571180D01*
X136139928Y-77605857D01*
X136167232Y-77620887D01*
X136194263Y-77632051D01*
X136201344Y-77650709D01*
X136187944Y-77689672D01*
X136162110Y-77744091D01*
X136123851Y-77811343D01*
X136092288Y-77837807D01*
X136072354Y-77835841D01*
X136007724Y-77816222D01*
X135939456Y-77808043D01*
X135886173Y-77812464D01*
X135868095Y-77823112D01*
X135878606Y-77846767D01*
X135923713Y-77878192D01*
X135955952Y-77894121D01*
X136034072Y-77940395D01*
X136115460Y-78005977D01*
X136150048Y-78040718D01*
X136204781Y-78107905D01*
X136231896Y-78164893D01*
X136240399Y-78233101D01*
X136240672Y-78256261D01*
X136221318Y-78382223D01*
X136166673Y-78484776D01*
X136081544Y-78555693D01*
X136059581Y-78566075D01*
X135957456Y-78591738D01*
X135835014Y-78598473D01*
X135715714Y-78586379D01*
X135640852Y-78564337D01*
X135569201Y-78522880D01*
X135498503Y-78466860D01*
X135490302Y-78458928D01*
X135419566Y-78388192D01*
X135473355Y-78289129D01*
X135514650Y-78222047D01*
X135549542Y-78195338D01*
X135589237Y-78204311D01*
X135622481Y-78226722D01*
X135680611Y-78256454D01*
X135719243Y-78265045D01*
X135749632Y-78269173D01*
X135733442Y-78277216D01*
X135728339Y-78278601D01*
X135679819Y-78275451D01*
X135617705Y-78253154D01*
X135614074Y-78251314D01*
X135540518Y-78213277D01*
X135492621Y-78307162D01*
X135444725Y-78401047D01*
X135534315Y-78439204D01*
X135680293Y-78483595D01*
X135816605Y-78491785D01*
X135936780Y-78466229D01*
X136034348Y-78409385D01*
X136102837Y-78323710D01*
X136135777Y-78211662D01*
X136135871Y-78210752D01*
X136132188Y-78104089D01*
X136093717Y-78019685D01*
X136015956Y-77951565D01*
X135898187Y-77895188D01*
X135808457Y-77856706D01*
X135757759Y-77822867D01*
X135737850Y-77788026D01*
X135737342Y-77785035D01*
X135748200Y-77730004D01*
X135794857Y-77698311D01*
X135869653Y-77692027D01*
X135964930Y-77713225D01*
X135981058Y-77719111D01*
X136016263Y-77708611D01*
X136049533Y-77652690D01*
X136070293Y-77594900D01*
X136077628Y-77557383D01*
X136077181Y-77554667D01*
X136089424Y-77537173D01*
X136095619Y-77536524D01*
X136117350Y-77555999D01*
X136117350Y-77555999D01*
G37*
X136117350Y-77555999D02*
X136119810Y-77571180D01*
X136139928Y-77605857D01*
X136167232Y-77620887D01*
X136194263Y-77632051D01*
X136201344Y-77650709D01*
X136187944Y-77689672D01*
X136162110Y-77744091D01*
X136123851Y-77811343D01*
X136092288Y-77837807D01*
X136072354Y-77835841D01*
X136007724Y-77816222D01*
X135939456Y-77808043D01*
X135886173Y-77812464D01*
X135868095Y-77823112D01*
X135878606Y-77846767D01*
X135923713Y-77878192D01*
X135955952Y-77894121D01*
X136034072Y-77940395D01*
X136115460Y-78005977D01*
X136150048Y-78040718D01*
X136204781Y-78107905D01*
X136231896Y-78164893D01*
X136240399Y-78233101D01*
X136240672Y-78256261D01*
X136221318Y-78382223D01*
X136166673Y-78484776D01*
X136081544Y-78555693D01*
X136059581Y-78566075D01*
X135957456Y-78591738D01*
X135835014Y-78598473D01*
X135715714Y-78586379D01*
X135640852Y-78564337D01*
X135569201Y-78522880D01*
X135498503Y-78466860D01*
X135490302Y-78458928D01*
X135419566Y-78388192D01*
X135473355Y-78289129D01*
X135514650Y-78222047D01*
X135549542Y-78195338D01*
X135589237Y-78204311D01*
X135622481Y-78226722D01*
X135680611Y-78256454D01*
X135719243Y-78265045D01*
X135749632Y-78269173D01*
X135733442Y-78277216D01*
X135728339Y-78278601D01*
X135679819Y-78275451D01*
X135617705Y-78253154D01*
X135614074Y-78251314D01*
X135540518Y-78213277D01*
X135492621Y-78307162D01*
X135444725Y-78401047D01*
X135534315Y-78439204D01*
X135680293Y-78483595D01*
X135816605Y-78491785D01*
X135936780Y-78466229D01*
X136034348Y-78409385D01*
X136102837Y-78323710D01*
X136135777Y-78211662D01*
X136135871Y-78210752D01*
X136132188Y-78104089D01*
X136093717Y-78019685D01*
X136015956Y-77951565D01*
X135898187Y-77895188D01*
X135808457Y-77856706D01*
X135757759Y-77822867D01*
X135737850Y-77788026D01*
X135737342Y-77785035D01*
X135748200Y-77730004D01*
X135794857Y-77698311D01*
X135869653Y-77692027D01*
X135964930Y-77713225D01*
X135981058Y-77719111D01*
X136016263Y-77708611D01*
X136049533Y-77652690D01*
X136070293Y-77594900D01*
X136077628Y-77557383D01*
X136077181Y-77554667D01*
X136089424Y-77537173D01*
X136095619Y-77536524D01*
X136117350Y-77555999D01*
G36*
X139434269Y-79411511D02*
G01*
X139450379Y-79443513D01*
X139458002Y-79502039D01*
X139458096Y-79509476D01*
X139451678Y-79568444D01*
X139428766Y-79591041D01*
X139415762Y-79592344D01*
X139388651Y-79587799D01*
X139406982Y-79570728D01*
X139407181Y-79570602D01*
X139429765Y-79531619D01*
X139425688Y-79473008D01*
X139420717Y-79422016D01*
X139432911Y-79410745D01*
X139434269Y-79411511D01*
X139434269Y-79411511D01*
G37*
X139434269Y-79411511D02*
X139450379Y-79443513D01*
X139458002Y-79502039D01*
X139458096Y-79509476D01*
X139451678Y-79568444D01*
X139428766Y-79591041D01*
X139415762Y-79592344D01*
X139388651Y-79587799D01*
X139406982Y-79570728D01*
X139407181Y-79570602D01*
X139429765Y-79531619D01*
X139425688Y-79473008D01*
X139420717Y-79422016D01*
X139432911Y-79410745D01*
X139434269Y-79411511D01*
G36*
X135265603Y-79541739D02*
G01*
X135291286Y-79562477D01*
X135279262Y-79584412D01*
X135222639Y-79592619D01*
X135212667Y-79592715D01*
X135150520Y-79586123D01*
X135133190Y-79565887D01*
X135134048Y-79562477D01*
X135138011Y-79559461D01*
X135173024Y-79559461D01*
X135205155Y-79563649D01*
X135212667Y-79563808D01*
X135253980Y-79561194D01*
X135257617Y-79553621D01*
X135255461Y-79552657D01*
X135207438Y-79547871D01*
X135182889Y-79551760D01*
X135173024Y-79559461D01*
X135138011Y-79559461D01*
X135162902Y-79540520D01*
X135212667Y-79532238D01*
X135265603Y-79541739D01*
X135265603Y-79541739D01*
G37*
X135265603Y-79541739D02*
X135291286Y-79562477D01*
X135279262Y-79584412D01*
X135222639Y-79592619D01*
X135212667Y-79592715D01*
X135150520Y-79586123D01*
X135133190Y-79565887D01*
X135134048Y-79562477D01*
X135138011Y-79559461D01*
X135173024Y-79559461D01*
X135205155Y-79563649D01*
X135212667Y-79563808D01*
X135253980Y-79561194D01*
X135257617Y-79553621D01*
X135255461Y-79552657D01*
X135207438Y-79547871D01*
X135182889Y-79551760D01*
X135173024Y-79559461D01*
X135138011Y-79559461D01*
X135162902Y-79540520D01*
X135212667Y-79532238D01*
X135265603Y-79541739D01*
G36*
X135321524Y-79677381D02*
G01*
X135309429Y-79689477D01*
X135297334Y-79677381D01*
X135309429Y-79665286D01*
X135321524Y-79677381D01*
X135321524Y-79677381D01*
G37*
X135321524Y-79677381D02*
X135309429Y-79689477D01*
X135297334Y-79677381D01*
X135309429Y-79665286D01*
X135321524Y-79677381D01*
G36*
X140280572Y-79907191D02*
G01*
X140111238Y-79907191D01*
X140111238Y-79157286D01*
X140135429Y-79157286D01*
X140135429Y-79883000D01*
X140256381Y-79883000D01*
X140256381Y-79157286D01*
X140135429Y-79157286D01*
X140111238Y-79157286D01*
X140111238Y-79133096D01*
X140280572Y-79133096D01*
X140280572Y-79907191D01*
X140280572Y-79907191D01*
G37*
X140280572Y-79907191D02*
X140111238Y-79907191D01*
X140111238Y-79157286D01*
X140135429Y-79157286D01*
X140135429Y-79883000D01*
X140256381Y-79883000D01*
X140256381Y-79157286D01*
X140135429Y-79157286D01*
X140111238Y-79157286D01*
X140111238Y-79133096D01*
X140280572Y-79133096D01*
X140280572Y-79907191D01*
G36*
X139245140Y-79428173D02*
G01*
X139316497Y-79431785D01*
X139357654Y-79437226D01*
X139360045Y-79443095D01*
X139313955Y-79467257D01*
X139282715Y-79490763D01*
X139250823Y-79514571D01*
X139240946Y-79503440D01*
X139240381Y-79487607D01*
X139220154Y-79454760D01*
X139179905Y-79447572D01*
X139151277Y-79449305D01*
X139133501Y-79460713D01*
X139123993Y-79491104D01*
X139120165Y-79549790D01*
X139119432Y-79646079D01*
X139119429Y-79665286D01*
X139119910Y-79768348D01*
X139123079Y-79832339D01*
X139131521Y-79866570D01*
X139147823Y-79880350D01*
X139174570Y-79882990D01*
X139179905Y-79883000D01*
X139219102Y-79877601D01*
X139236360Y-79852280D01*
X139240372Y-79793351D01*
X139240381Y-79787813D01*
X139249401Y-79685677D01*
X139274234Y-79611837D01*
X139311544Y-79574311D01*
X139330497Y-79571330D01*
X139358679Y-79575159D01*
X139339616Y-79583093D01*
X139333578Y-79584721D01*
X139295580Y-79614861D01*
X139273124Y-79683390D01*
X139264971Y-79794269D01*
X139264902Y-79804381D01*
X139262536Y-79868834D01*
X139248528Y-79898452D01*
X139211681Y-79906779D01*
X139179905Y-79907191D01*
X139095238Y-79907191D01*
X139095238Y-79424041D01*
X139245140Y-79428173D01*
X139245140Y-79428173D01*
G37*
X139245140Y-79428173D02*
X139316497Y-79431785D01*
X139357654Y-79437226D01*
X139360045Y-79443095D01*
X139313955Y-79467257D01*
X139282715Y-79490763D01*
X139250823Y-79514571D01*
X139240946Y-79503440D01*
X139240381Y-79487607D01*
X139220154Y-79454760D01*
X139179905Y-79447572D01*
X139151277Y-79449305D01*
X139133501Y-79460713D01*
X139123993Y-79491104D01*
X139120165Y-79549790D01*
X139119432Y-79646079D01*
X139119429Y-79665286D01*
X139119910Y-79768348D01*
X139123079Y-79832339D01*
X139131521Y-79866570D01*
X139147823Y-79880350D01*
X139174570Y-79882990D01*
X139179905Y-79883000D01*
X139219102Y-79877601D01*
X139236360Y-79852280D01*
X139240372Y-79793351D01*
X139240381Y-79787813D01*
X139249401Y-79685677D01*
X139274234Y-79611837D01*
X139311544Y-79574311D01*
X139330497Y-79571330D01*
X139358679Y-79575159D01*
X139339616Y-79583093D01*
X139333578Y-79584721D01*
X139295580Y-79614861D01*
X139273124Y-79683390D01*
X139264971Y-79794269D01*
X139264902Y-79804381D01*
X139262536Y-79868834D01*
X139248528Y-79898452D01*
X139211681Y-79906779D01*
X139179905Y-79907191D01*
X139095238Y-79907191D01*
X139095238Y-79424041D01*
X139245140Y-79428173D01*
G36*
X135146549Y-79707738D02*
G01*
X135146143Y-79719715D01*
X135156326Y-79735981D01*
X135199724Y-79743315D01*
X135282995Y-79742631D01*
X135305472Y-79741589D01*
X135392020Y-79737959D01*
X135439137Y-79739861D01*
X135455685Y-79749919D01*
X135450529Y-79770754D01*
X135444380Y-79782682D01*
X135379753Y-79856696D01*
X135290168Y-79899032D01*
X135188869Y-79907698D01*
X135089102Y-79880699D01*
X135033094Y-79844564D01*
X134985853Y-79795161D01*
X134961257Y-79750495D01*
X134960200Y-79741755D01*
X134965487Y-79721970D01*
X134980101Y-79747202D01*
X134982654Y-79753412D01*
X135033470Y-79820315D01*
X135113940Y-79865138D01*
X135208995Y-79884253D01*
X135303564Y-79874033D01*
X135364523Y-79845343D01*
X135411890Y-79803521D01*
X135413888Y-79777082D01*
X135371282Y-79766831D01*
X135295122Y-79772153D01*
X135197237Y-79777383D01*
X135140279Y-79762059D01*
X135137884Y-79760213D01*
X135107878Y-79722770D01*
X135109867Y-79695257D01*
X135128000Y-79689477D01*
X135146549Y-79707738D01*
X135146549Y-79707738D01*
G37*
X135146549Y-79707738D02*
X135146143Y-79719715D01*
X135156326Y-79735981D01*
X135199724Y-79743315D01*
X135282995Y-79742631D01*
X135305472Y-79741589D01*
X135392020Y-79737959D01*
X135439137Y-79739861D01*
X135455685Y-79749919D01*
X135450529Y-79770754D01*
X135444380Y-79782682D01*
X135379753Y-79856696D01*
X135290168Y-79899032D01*
X135188869Y-79907698D01*
X135089102Y-79880699D01*
X135033094Y-79844564D01*
X134985853Y-79795161D01*
X134961257Y-79750495D01*
X134960200Y-79741755D01*
X134965487Y-79721970D01*
X134980101Y-79747202D01*
X134982654Y-79753412D01*
X135033470Y-79820315D01*
X135113940Y-79865138D01*
X135208995Y-79884253D01*
X135303564Y-79874033D01*
X135364523Y-79845343D01*
X135411890Y-79803521D01*
X135413888Y-79777082D01*
X135371282Y-79766831D01*
X135295122Y-79772153D01*
X135197237Y-79777383D01*
X135140279Y-79762059D01*
X135137884Y-79760213D01*
X135107878Y-79722770D01*
X135109867Y-79695257D01*
X135128000Y-79689477D01*
X135146549Y-79707738D01*
G36*
X139878245Y-79423993D02*
G01*
X139933264Y-79455333D01*
X139969841Y-79492258D01*
X140028288Y-79588201D01*
X140040899Y-79688536D01*
X140007785Y-79785334D01*
X139964941Y-79839496D01*
X139911724Y-79885933D01*
X139862559Y-79904065D01*
X139793155Y-79902135D01*
X139783512Y-79901083D01*
X139675810Y-79888943D01*
X139675810Y-80006924D01*
X139674313Y-80077374D01*
X139664060Y-80112090D01*
X139636407Y-80123722D01*
X139595175Y-80124905D01*
X139535402Y-80120479D01*
X139499505Y-80109730D01*
X139498413Y-80108778D01*
X139492565Y-80079952D01*
X139487663Y-80012005D01*
X139484132Y-79914192D01*
X139482394Y-79795771D01*
X139482286Y-79756820D01*
X139482286Y-79447572D01*
X139506477Y-79447572D01*
X139506477Y-80100715D01*
X139579048Y-80100715D01*
X139620438Y-80098506D01*
X139642041Y-80083967D01*
X139650290Y-80045226D01*
X139651619Y-79970413D01*
X139651619Y-79966816D01*
X139652938Y-79891333D01*
X139659575Y-79854855D01*
X139675552Y-79848023D01*
X139698410Y-79857959D01*
X139791654Y-79884683D01*
X139879041Y-79869306D01*
X139951383Y-79817992D01*
X139999489Y-79736906D01*
X140014477Y-79645948D01*
X139994607Y-79558895D01*
X139942717Y-79489437D01*
X139870387Y-79444746D01*
X139789195Y-79431992D01*
X139711112Y-79458087D01*
X139669672Y-79478206D01*
X139651644Y-79473024D01*
X139651619Y-79472320D01*
X139630601Y-79454944D01*
X139579958Y-79447574D01*
X139579048Y-79447572D01*
X139506477Y-79447572D01*
X139482286Y-79447572D01*
X139482286Y-79420990D01*
X139597191Y-79420201D01*
X139691653Y-79419223D01*
X139784980Y-79417762D01*
X139806555Y-79417320D01*
X139878245Y-79423993D01*
X139878245Y-79423993D01*
G37*
X139878245Y-79423993D02*
X139933264Y-79455333D01*
X139969841Y-79492258D01*
X140028288Y-79588201D01*
X140040899Y-79688536D01*
X140007785Y-79785334D01*
X139964941Y-79839496D01*
X139911724Y-79885933D01*
X139862559Y-79904065D01*
X139793155Y-79902135D01*
X139783512Y-79901083D01*
X139675810Y-79888943D01*
X139675810Y-80006924D01*
X139674313Y-80077374D01*
X139664060Y-80112090D01*
X139636407Y-80123722D01*
X139595175Y-80124905D01*
X139535402Y-80120479D01*
X139499505Y-80109730D01*
X139498413Y-80108778D01*
X139492565Y-80079952D01*
X139487663Y-80012005D01*
X139484132Y-79914192D01*
X139482394Y-79795771D01*
X139482286Y-79756820D01*
X139482286Y-79447572D01*
X139506477Y-79447572D01*
X139506477Y-80100715D01*
X139579048Y-80100715D01*
X139620438Y-80098506D01*
X139642041Y-80083967D01*
X139650290Y-80045226D01*
X139651619Y-79970413D01*
X139651619Y-79966816D01*
X139652938Y-79891333D01*
X139659575Y-79854855D01*
X139675552Y-79848023D01*
X139698410Y-79857959D01*
X139791654Y-79884683D01*
X139879041Y-79869306D01*
X139951383Y-79817992D01*
X139999489Y-79736906D01*
X140014477Y-79645948D01*
X139994607Y-79558895D01*
X139942717Y-79489437D01*
X139870387Y-79444746D01*
X139789195Y-79431992D01*
X139711112Y-79458087D01*
X139669672Y-79478206D01*
X139651644Y-79473024D01*
X139651619Y-79472320D01*
X139630601Y-79454944D01*
X139579958Y-79447574D01*
X139579048Y-79447572D01*
X139506477Y-79447572D01*
X139482286Y-79447572D01*
X139482286Y-79420990D01*
X139597191Y-79420201D01*
X139691653Y-79419223D01*
X139784980Y-79417762D01*
X139806555Y-79417320D01*
X139878245Y-79423993D01*
G36*
X140676755Y-79542672D02*
G01*
X140692295Y-79557014D01*
X140712692Y-79586269D01*
X140704810Y-79599540D01*
X140661044Y-79600772D01*
X140614481Y-79597379D01*
X140554854Y-79587028D01*
X140536044Y-79566993D01*
X140537183Y-79561333D01*
X140585961Y-79561333D01*
X140619238Y-79564705D01*
X140653580Y-79560903D01*
X140649477Y-79552503D01*
X140599950Y-79549308D01*
X140589000Y-79552503D01*
X140585961Y-79561333D01*
X140537183Y-79561333D01*
X140538450Y-79555046D01*
X140571325Y-79526645D01*
X140624530Y-79522611D01*
X140676755Y-79542672D01*
X140676755Y-79542672D01*
G37*
X140676755Y-79542672D02*
X140692295Y-79557014D01*
X140712692Y-79586269D01*
X140704810Y-79599540D01*
X140661044Y-79600772D01*
X140614481Y-79597379D01*
X140554854Y-79587028D01*
X140536044Y-79566993D01*
X140537183Y-79561333D01*
X140585961Y-79561333D01*
X140619238Y-79564705D01*
X140653580Y-79560903D01*
X140649477Y-79552503D01*
X140599950Y-79549308D01*
X140589000Y-79552503D01*
X140585961Y-79561333D01*
X140537183Y-79561333D01*
X140538450Y-79555046D01*
X140571325Y-79526645D01*
X140624530Y-79522611D01*
X140676755Y-79542672D01*
G36*
X140732127Y-79673350D02*
G01*
X140728807Y-79687731D01*
X140716000Y-79689477D01*
X140696089Y-79680626D01*
X140699873Y-79673350D01*
X140728582Y-79670454D01*
X140732127Y-79673350D01*
X140732127Y-79673350D01*
G37*
X140732127Y-79673350D02*
X140728807Y-79687731D01*
X140716000Y-79689477D01*
X140696089Y-79680626D01*
X140699873Y-79673350D01*
X140728582Y-79670454D01*
X140732127Y-79673350D01*
G36*
X137638511Y-76387034D02*
G01*
X137699114Y-76420262D01*
X137792547Y-76472468D01*
X137914271Y-76541054D01*
X138059745Y-76623425D01*
X138224429Y-76716982D01*
X138403783Y-76819129D01*
X138593268Y-76927270D01*
X138788344Y-77038806D01*
X138984470Y-77151142D01*
X139177107Y-77261680D01*
X139361714Y-77367822D01*
X139533752Y-77466974D01*
X139688681Y-77556536D01*
X139821961Y-77633913D01*
X139929052Y-77696507D01*
X140005414Y-77741721D01*
X140031619Y-77757593D01*
X140109238Y-77805329D01*
X140123334Y-77403477D01*
X140250334Y-77396165D01*
X140324577Y-77393833D01*
X140362538Y-77400559D01*
X140376044Y-77420284D01*
X140377334Y-77438498D01*
X140393801Y-77479782D01*
X140425715Y-77488143D01*
X140448510Y-77491716D01*
X140462759Y-77508514D01*
X140470449Y-77547656D01*
X140473563Y-77618260D01*
X140474096Y-77710383D01*
X140474096Y-77932623D01*
X140541943Y-77867621D01*
X140582602Y-77833440D01*
X140625210Y-77813854D01*
X140684726Y-77804904D01*
X140776109Y-77802632D01*
X140787597Y-77802619D01*
X140878173Y-77803143D01*
X140928107Y-77806575D01*
X140945141Y-77815711D01*
X140937013Y-77833344D01*
X140921619Y-77851000D01*
X140895083Y-77883620D01*
X140901912Y-77897065D01*
X140949087Y-77900274D01*
X140960204Y-77900426D01*
X141042572Y-77901472D01*
X140882595Y-78052029D01*
X140722619Y-78202587D01*
X140892319Y-78383603D01*
X141062020Y-78564619D01*
X140885147Y-78571805D01*
X140793204Y-78574516D01*
X140733766Y-78570164D01*
X140691006Y-78553847D01*
X140649099Y-78520665D01*
X140615376Y-78488276D01*
X140522477Y-78397563D01*
X140522477Y-79399191D01*
X140601096Y-79399281D01*
X140700967Y-79417515D01*
X140783168Y-79465955D01*
X140838850Y-79535573D01*
X140859165Y-79617338D01*
X140853996Y-79657325D01*
X140845579Y-79670241D01*
X140840273Y-79638147D01*
X140839759Y-79627514D01*
X140817834Y-79537012D01*
X140766420Y-79474220D01*
X140695165Y-79438407D01*
X140613718Y-79428841D01*
X140531727Y-79444791D01*
X140458842Y-79485527D01*
X140404712Y-79550316D01*
X140378984Y-79638428D01*
X140378103Y-79662501D01*
X140398340Y-79763603D01*
X140455987Y-79834700D01*
X140549505Y-79874482D01*
X140637622Y-79883000D01*
X140721666Y-79870073D01*
X140786178Y-79825006D01*
X140789916Y-79821093D01*
X140848075Y-79759186D01*
X140692166Y-79766664D01*
X140607387Y-79769263D01*
X140559641Y-79764903D01*
X140537756Y-79750755D01*
X140530755Y-79725762D01*
X140528760Y-79696391D01*
X140535861Y-79713598D01*
X140537827Y-79720197D01*
X140550526Y-79743009D01*
X140578905Y-79753468D01*
X140634468Y-79753418D01*
X140705772Y-79747095D01*
X140800418Y-79741278D01*
X140850647Y-79749733D01*
X140859015Y-79775141D01*
X140828076Y-79820182D01*
X140801767Y-79847814D01*
X140744679Y-79889395D01*
X140672210Y-79905893D01*
X140632778Y-79907191D01*
X140523166Y-79907191D01*
X140516774Y-80662131D01*
X140510381Y-81417071D01*
X139075000Y-82246607D01*
X138833217Y-82386089D01*
X138603418Y-82518172D01*
X138389074Y-82640893D01*
X138193655Y-82752288D01*
X138020631Y-82850394D01*
X137873471Y-82933246D01*
X137755647Y-82998881D01*
X137670627Y-83045334D01*
X137621883Y-83070642D01*
X137611476Y-83074860D01*
X137586320Y-83062812D01*
X137522792Y-83028416D01*
X137424349Y-82973638D01*
X137294445Y-82900444D01*
X137136538Y-82810800D01*
X136954083Y-82706671D01*
X136750536Y-82590023D01*
X136529354Y-82462821D01*
X136293992Y-82327032D01*
X136137953Y-82236781D01*
X135263057Y-81730264D01*
X136818933Y-81730264D01*
X136844795Y-81908806D01*
X136913442Y-82082017D01*
X136984677Y-82192426D01*
X137119721Y-82332446D01*
X137277985Y-82431622D01*
X137454644Y-82488536D01*
X137644876Y-82501767D01*
X137843855Y-82469897D01*
X137885715Y-82457529D01*
X138047754Y-82381030D01*
X138187999Y-82264043D01*
X138300537Y-82111781D01*
X138321143Y-82073767D01*
X138365025Y-81982473D01*
X138390506Y-81909181D01*
X138402460Y-81833031D01*
X138405759Y-81733162D01*
X138405810Y-81711312D01*
X138403301Y-81603151D01*
X138392638Y-81522113D01*
X138369117Y-81447061D01*
X138328033Y-81356860D01*
X138325986Y-81352696D01*
X138219226Y-81185691D01*
X138083411Y-81056876D01*
X137921213Y-80967910D01*
X137735299Y-80920454D01*
X137618464Y-80912608D01*
X137511919Y-80915271D01*
X137429987Y-80928052D01*
X137349138Y-80956318D01*
X137275023Y-80990922D01*
X137111122Y-81096118D01*
X136981951Y-81229318D01*
X136889122Y-81383853D01*
X136834246Y-81553058D01*
X136818933Y-81730264D01*
X135263057Y-81730264D01*
X134692572Y-81399985D01*
X134692572Y-80544731D01*
X134692488Y-80318898D01*
X134692066Y-80136755D01*
X134691047Y-79993610D01*
X134689174Y-79884772D01*
X134686189Y-79805549D01*
X134681835Y-79751251D01*
X134675852Y-79717186D01*
X134667985Y-79698663D01*
X134657974Y-79690990D01*
X134645582Y-79689477D01*
X134614436Y-79698946D01*
X134597991Y-79735253D01*
X134591153Y-79792286D01*
X134583826Y-79857016D01*
X134565731Y-79887959D01*
X134523926Y-79899662D01*
X134493000Y-79902603D01*
X134402286Y-79910111D01*
X134402286Y-79883000D01*
X134426477Y-79883000D01*
X134499048Y-79883000D01*
X134544144Y-79879689D01*
X134565181Y-79860879D01*
X134571299Y-79813259D01*
X134571619Y-79777289D01*
X134571619Y-79671578D01*
X134683186Y-79659003D01*
X134792026Y-79631208D01*
X134861777Y-79575743D01*
X134894189Y-79490878D01*
X134897091Y-79447572D01*
X134885862Y-79359334D01*
X134848206Y-79297978D01*
X134778168Y-79259104D01*
X134669795Y-79238312D01*
X134607693Y-79233720D01*
X134426477Y-79224569D01*
X134426477Y-79883000D01*
X134402286Y-79883000D01*
X134402286Y-79205667D01*
X134692572Y-79205667D01*
X134692572Y-78892821D01*
X134692182Y-78764685D01*
X134690134Y-78676736D01*
X134685105Y-78620780D01*
X134682250Y-78610940D01*
X134934477Y-78610940D01*
X134935423Y-79119970D01*
X134935995Y-79288150D01*
X134937263Y-79412857D01*
X134939628Y-79498999D01*
X134943487Y-79551482D01*
X134949241Y-79575214D01*
X134957289Y-79575101D01*
X134968029Y-79556052D01*
X134970454Y-79550588D01*
X135028550Y-79471651D01*
X135112884Y-79422609D01*
X135209963Y-79405755D01*
X135306291Y-79423382D01*
X135388373Y-79477781D01*
X135389855Y-79479343D01*
X135422716Y-79527259D01*
X135448682Y-79586866D01*
X135463367Y-79643229D01*
X135462387Y-79681417D01*
X135451548Y-79689421D01*
X135435943Y-79668308D01*
X135427826Y-79617504D01*
X135427789Y-79616525D01*
X135403675Y-79530786D01*
X135345119Y-79468016D01*
X135262600Y-79433214D01*
X135166597Y-79431378D01*
X135090251Y-79455493D01*
X135051272Y-79477732D01*
X135019328Y-79506818D01*
X134993731Y-79547426D01*
X134973793Y-79604234D01*
X134958827Y-79681917D01*
X134948143Y-79785152D01*
X134941055Y-79918616D01*
X134936875Y-80086984D01*
X134934913Y-80294934D01*
X134934477Y-80514347D01*
X134934477Y-81282054D01*
X135061477Y-81356757D01*
X135134871Y-81395360D01*
X135195558Y-81419210D01*
X135224762Y-81423384D01*
X135263148Y-81414010D01*
X135335809Y-81395610D01*
X135430209Y-81371373D01*
X135482456Y-81357851D01*
X135585432Y-81330530D01*
X135651493Y-81309281D01*
X135690564Y-81288064D01*
X135712571Y-81260837D01*
X135727437Y-81221558D01*
X135732195Y-81205832D01*
X135760526Y-81111270D01*
X135543791Y-80890230D01*
X135426570Y-80764907D01*
X135362593Y-80684351D01*
X136579429Y-80684351D01*
X136658048Y-80676771D01*
X136707831Y-80668039D01*
X136732025Y-80644934D01*
X136741976Y-80592904D01*
X136744106Y-80566381D01*
X136752419Y-80500973D01*
X136769976Y-80471012D01*
X136804679Y-80463583D01*
X136807020Y-80463572D01*
X136890097Y-80451904D01*
X136969805Y-80422181D01*
X137027292Y-80382323D01*
X137039559Y-80365856D01*
X137053990Y-80312024D01*
X137154139Y-80312024D01*
X137157529Y-80418238D01*
X137198404Y-80522112D01*
X137270037Y-80606505D01*
X137341363Y-80657949D01*
X137413306Y-80678948D01*
X137461245Y-80681286D01*
X137535886Y-80678051D01*
X137593973Y-80669962D01*
X137605546Y-80666603D01*
X137635048Y-80632244D01*
X137643810Y-80583076D01*
X137641445Y-80542226D01*
X137625978Y-80523802D01*
X137584855Y-80521897D01*
X137526888Y-80528080D01*
X137453503Y-80533766D01*
X137408689Y-80524617D01*
X137373463Y-80494714D01*
X137357555Y-80475297D01*
X137321318Y-80414165D01*
X137305195Y-80357175D01*
X137305143Y-80354715D01*
X137319777Y-80298809D01*
X137355229Y-80237143D01*
X137357555Y-80234132D01*
X137394008Y-80194322D01*
X137432230Y-80177376D01*
X137490983Y-80177516D01*
X137528349Y-80181522D01*
X137646731Y-80195543D01*
X137639223Y-80117997D01*
X137625710Y-80061153D01*
X137589852Y-80034512D01*
X137563564Y-80028143D01*
X137764762Y-80028143D01*
X137764762Y-80681286D01*
X137908330Y-80681286D01*
X137997938Y-80677404D01*
X138076361Y-80667411D01*
X138112684Y-80658175D01*
X138186089Y-80610937D01*
X138192562Y-80600854D01*
X138334961Y-80600854D01*
X138336584Y-80644475D01*
X138350562Y-80660839D01*
X138409139Y-80677844D01*
X138490602Y-80679488D01*
X138572447Y-80667156D01*
X138630237Y-80643629D01*
X138675847Y-80584163D01*
X138684000Y-80537734D01*
X138670818Y-80470612D01*
X138625565Y-80427160D01*
X138555811Y-80402153D01*
X138507063Y-80378230D01*
X138502203Y-80350730D01*
X138539584Y-80332419D01*
X138565064Y-80330524D01*
X138618517Y-80318145D01*
X138648783Y-80289231D01*
X138646338Y-80256112D01*
X138632386Y-80243347D01*
X138556637Y-80221179D01*
X138473402Y-80234644D01*
X138400969Y-80278432D01*
X138368738Y-80319897D01*
X138352989Y-80389232D01*
X138382518Y-80446971D01*
X138454645Y-80487911D01*
X138455347Y-80488144D01*
X138512034Y-80516387D01*
X138538443Y-80549145D01*
X138538858Y-80553206D01*
X138529260Y-80576483D01*
X138492813Y-80581550D01*
X138444637Y-80575641D01*
X138379270Y-80570004D01*
X138345753Y-80582754D01*
X138334961Y-80600854D01*
X138192562Y-80600854D01*
X138228730Y-80544522D01*
X138238555Y-80471391D01*
X138213512Y-80404001D01*
X138161818Y-80359765D01*
X138121030Y-80334119D01*
X138119808Y-80313286D01*
X138137935Y-80295716D01*
X138169644Y-80241445D01*
X138172098Y-80169449D01*
X138146244Y-80099801D01*
X138127619Y-80076524D01*
X138088289Y-80048367D01*
X138032533Y-80033406D01*
X137946088Y-80028283D01*
X137922000Y-80028143D01*
X137764762Y-80028143D01*
X137563564Y-80028143D01*
X137559143Y-80027072D01*
X137435245Y-80024465D01*
X137328786Y-80059691D01*
X137243776Y-80124716D01*
X137184225Y-80211506D01*
X137154139Y-80312024D01*
X137053990Y-80312024D01*
X137061349Y-80284578D01*
X137056364Y-80191321D01*
X137026669Y-80110894D01*
X137017227Y-80097634D01*
X136987768Y-80068478D01*
X136948979Y-80050193D01*
X136888485Y-80039419D01*
X136793912Y-80032792D01*
X136775322Y-80031916D01*
X136579429Y-80023020D01*
X136579429Y-80684351D01*
X135362593Y-80684351D01*
X135345361Y-80662655D01*
X135297451Y-80577549D01*
X135280128Y-80503659D01*
X135290677Y-80435059D01*
X135313335Y-80386766D01*
X135385818Y-80308310D01*
X135459288Y-80271647D01*
X135502784Y-80258168D01*
X135544086Y-80252027D01*
X135593272Y-80254358D01*
X135660421Y-80266296D01*
X135755611Y-80288978D01*
X135865503Y-80317394D01*
X136172527Y-80397829D01*
X136311363Y-80257953D01*
X136249111Y-80040238D01*
X136218533Y-79926970D01*
X136191403Y-79815247D01*
X136172284Y-79724212D01*
X136168448Y-79701572D01*
X136166415Y-79688211D01*
X136312152Y-79688211D01*
X136340644Y-79777894D01*
X136377342Y-79823679D01*
X136459979Y-79871697D01*
X136557320Y-79886814D01*
X136652333Y-79869157D01*
X136725916Y-79821093D01*
X136784075Y-79759186D01*
X136627324Y-79766664D01*
X136542589Y-79769455D01*
X136494663Y-79765443D01*
X136472104Y-79751362D01*
X136463470Y-79723946D01*
X136462842Y-79719715D01*
X136461903Y-79692260D01*
X136874750Y-79692260D01*
X136913987Y-79781151D01*
X136941908Y-79813773D01*
X137000792Y-79862309D01*
X137058796Y-79879391D01*
X137105194Y-79878436D01*
X137167646Y-79867639D01*
X137196546Y-79842737D01*
X137204462Y-79813072D01*
X137204096Y-79772199D01*
X137180534Y-79767945D01*
X137170816Y-79771287D01*
X137116438Y-79770195D01*
X137060053Y-79739853D01*
X137021404Y-79693530D01*
X137014858Y-79666456D01*
X137035678Y-79603546D01*
X137086858Y-79560281D01*
X137151478Y-79550938D01*
X137151723Y-79550984D01*
X137194706Y-79550638D01*
X137208035Y-79518146D01*
X137208381Y-79505154D01*
X137189241Y-79454843D01*
X137137963Y-79431781D01*
X137063766Y-79438105D01*
X137008164Y-79458725D01*
X136923750Y-79520807D01*
X136878642Y-79602065D01*
X136874750Y-79692260D01*
X136461903Y-79692260D01*
X136461845Y-79690580D01*
X136476154Y-79674269D01*
X136516046Y-79667080D01*
X136591796Y-79665314D01*
X136614032Y-79665286D01*
X136699214Y-79664120D01*
X136746860Y-79658064D01*
X136767806Y-79643284D01*
X136772887Y-79615943D01*
X136772953Y-79609027D01*
X136750762Y-79536892D01*
X136691420Y-79478888D01*
X136605774Y-79443063D01*
X136539100Y-79435477D01*
X136461201Y-79441856D01*
X136408216Y-79467072D01*
X136371715Y-79503349D01*
X136322426Y-79591968D01*
X136312152Y-79688211D01*
X136166415Y-79688211D01*
X136150036Y-79580619D01*
X136144000Y-79907191D01*
X135974667Y-79907191D01*
X135974667Y-79749953D01*
X135973073Y-79662358D01*
X135963179Y-79613123D01*
X135937315Y-79592229D01*
X135887812Y-79589660D01*
X135853715Y-79591970D01*
X135812481Y-79592988D01*
X135815199Y-79580998D01*
X135838202Y-79562810D01*
X135870182Y-79520264D01*
X135870614Y-79510636D01*
X135926286Y-79510636D01*
X135939377Y-79557332D01*
X135962572Y-79568524D01*
X135982925Y-79579021D01*
X135994237Y-79616531D01*
X135998592Y-79690077D01*
X135998858Y-79725762D01*
X135999918Y-79810287D01*
X136005902Y-79857366D01*
X136021013Y-79877930D01*
X136049456Y-79882910D01*
X136059334Y-79883000D01*
X136091843Y-79880243D01*
X136109950Y-79864685D01*
X136117860Y-79825395D01*
X136119775Y-79751443D01*
X136119810Y-79725762D01*
X136120870Y-79641238D01*
X136126854Y-79594159D01*
X136141966Y-79573595D01*
X136170409Y-79568615D01*
X136180286Y-79568524D01*
X136226321Y-79558533D01*
X136240507Y-79519193D01*
X136240762Y-79508048D01*
X136231109Y-79462415D01*
X136192643Y-79447951D01*
X136178679Y-79447572D01*
X136134446Y-79440600D01*
X136122247Y-79409657D01*
X136124251Y-79381048D01*
X136151582Y-79316684D01*
X136186334Y-79290645D01*
X136229722Y-79254896D01*
X136242871Y-79209926D01*
X136226117Y-79171995D01*
X136183548Y-79157286D01*
X136100925Y-79179088D01*
X136035735Y-79235685D01*
X136001244Y-79313865D01*
X135998858Y-79341230D01*
X135988332Y-79408506D01*
X135962572Y-79438824D01*
X135934376Y-79471199D01*
X135926286Y-79510636D01*
X135870614Y-79510636D01*
X135872175Y-79475911D01*
X135847237Y-79446551D01*
X135816552Y-79443707D01*
X135759840Y-79466468D01*
X135726715Y-79489790D01*
X135694915Y-79514492D01*
X135684998Y-79504375D01*
X135684381Y-79487607D01*
X135667697Y-79457171D01*
X135612931Y-79447578D01*
X135610868Y-79447572D01*
X135537355Y-79447572D01*
X135544344Y-79659238D01*
X135548209Y-79760606D01*
X135553806Y-79823396D01*
X135564412Y-79857387D01*
X135583305Y-79872357D01*
X135613763Y-79878086D01*
X135617858Y-79878560D01*
X135658309Y-79880117D01*
X135677777Y-79864472D01*
X135683914Y-79819612D01*
X135684381Y-79774160D01*
X135692564Y-79677942D01*
X135714723Y-79606960D01*
X135747273Y-79571022D01*
X135759532Y-79568524D01*
X135765106Y-79582130D01*
X135746585Y-79606538D01*
X135718616Y-79665914D01*
X135708601Y-79770059D01*
X135708572Y-79777331D01*
X135708572Y-79910111D01*
X135617858Y-79902603D01*
X135527143Y-79895096D01*
X135527143Y-79435477D01*
X135660191Y-79430096D01*
X135755751Y-79426774D01*
X135847821Y-79424429D01*
X135883953Y-79423874D01*
X135943350Y-79420189D01*
X135968768Y-79401618D01*
X135974588Y-79354634D01*
X135974667Y-79338541D01*
X135996595Y-79245902D01*
X136057536Y-79176437D01*
X136131236Y-79143197D01*
X136206488Y-79136265D01*
X136249541Y-79164196D01*
X136264784Y-79230195D01*
X136264953Y-79240908D01*
X136260741Y-79297830D01*
X136242217Y-79319586D01*
X136210602Y-79320287D01*
X136166109Y-79328471D01*
X136148044Y-79372004D01*
X136146677Y-79409677D01*
X136166296Y-79420448D01*
X136219604Y-79411140D01*
X136220537Y-79410926D01*
X136331223Y-79395145D01*
X136452478Y-79392971D01*
X136566536Y-79403522D01*
X136655630Y-79425921D01*
X136671923Y-79433269D01*
X136725713Y-79468282D01*
X136763570Y-79515743D01*
X136795858Y-79590451D01*
X136808651Y-79628528D01*
X136820876Y-79650903D01*
X136837165Y-79639353D01*
X136863306Y-79588684D01*
X136870320Y-79573189D01*
X136933465Y-79482264D01*
X137020896Y-79424652D01*
X137121302Y-79406597D01*
X137162506Y-79411836D01*
X137210722Y-79429395D01*
X137229820Y-79464409D01*
X137232572Y-79510431D01*
X137229228Y-79565515D01*
X137212147Y-79584139D01*
X137171781Y-79578379D01*
X137102775Y-79578016D01*
X137057380Y-79608367D01*
X137043246Y-79657670D01*
X137068026Y-79714158D01*
X137077062Y-79724034D01*
X137121999Y-79757064D01*
X137163222Y-79751320D01*
X137208381Y-79713667D01*
X137241929Y-79661129D01*
X137255768Y-79583080D01*
X137256762Y-79544334D01*
X137259050Y-79508048D01*
X137280953Y-79508048D01*
X137289233Y-79553509D01*
X137305143Y-79568524D01*
X137317784Y-79590741D01*
X137326439Y-79649593D01*
X137329334Y-79725762D01*
X137329334Y-79883000D01*
X137474477Y-79883000D01*
X137958286Y-79883000D01*
X138030858Y-79883000D01*
X138075953Y-79879689D01*
X138096990Y-79860879D01*
X138103108Y-79813259D01*
X138103429Y-79777289D01*
X138103429Y-79671578D01*
X138214996Y-79659003D01*
X138323836Y-79631208D01*
X138393587Y-79575743D01*
X138425998Y-79490878D01*
X138428901Y-79447572D01*
X138417672Y-79359334D01*
X138380015Y-79297978D01*
X138309978Y-79259104D01*
X138201604Y-79238312D01*
X138139502Y-79233720D01*
X137958286Y-79224569D01*
X137958286Y-79883000D01*
X137474477Y-79883000D01*
X137474477Y-79728584D01*
X137476414Y-79642983D01*
X137484479Y-79594013D01*
X137502052Y-79570001D01*
X137522858Y-79561515D01*
X137563810Y-79529095D01*
X137571238Y-79498217D01*
X137555283Y-79456285D01*
X137522858Y-79447572D01*
X137487444Y-79436167D01*
X137474976Y-79393734D01*
X137474477Y-79375000D01*
X137468482Y-79323598D01*
X137440208Y-79304652D01*
X137401905Y-79302429D01*
X137350503Y-79308423D01*
X137331557Y-79336697D01*
X137329334Y-79375000D01*
X137322327Y-79425955D01*
X137305444Y-79447566D01*
X137305143Y-79447572D01*
X137286959Y-79468274D01*
X137280953Y-79508048D01*
X137259050Y-79508048D01*
X137261114Y-79475337D01*
X137272239Y-79431544D01*
X137280953Y-79423381D01*
X137299027Y-79402649D01*
X137305143Y-79361884D01*
X137306654Y-79326501D01*
X137315554Y-79296186D01*
X137338397Y-79259890D01*
X137381738Y-79206565D01*
X137431423Y-79148996D01*
X137518826Y-79076147D01*
X137610153Y-79049245D01*
X137700128Y-79066739D01*
X137783471Y-79127079D01*
X137854906Y-79228713D01*
X137878924Y-79280484D01*
X137932609Y-79411286D01*
X137933352Y-79308477D01*
X137934096Y-79205667D01*
X138092111Y-79205667D01*
X138235542Y-79214953D01*
X138338848Y-79244221D01*
X138406864Y-79295587D01*
X138440519Y-79358128D01*
X138455307Y-79467496D01*
X138426951Y-79561617D01*
X138359948Y-79633665D01*
X138258796Y-79676813D01*
X138226759Y-79682549D01*
X138163328Y-79694695D01*
X138134780Y-79715457D01*
X138127671Y-79755667D01*
X138127619Y-79762412D01*
X138139452Y-79823699D01*
X138174755Y-79842904D01*
X138233233Y-79820087D01*
X138314593Y-79755306D01*
X138355006Y-79716115D01*
X138428350Y-79637395D01*
X138470627Y-79578372D01*
X138488550Y-79528520D01*
X138490477Y-79503735D01*
X138494484Y-79455821D01*
X138501550Y-79447572D01*
X138508166Y-79447572D01*
X138520618Y-79621596D01*
X138530357Y-79719434D01*
X138545067Y-79781907D01*
X138568716Y-79822022D01*
X138587024Y-79839310D01*
X138655909Y-79870481D01*
X138748070Y-79882542D01*
X138842173Y-79875106D01*
X138916884Y-79847789D01*
X138920523Y-79845343D01*
X138948585Y-79820059D01*
X138964832Y-79784871D01*
X138972364Y-79727222D01*
X138974282Y-79634556D01*
X138974286Y-79627629D01*
X138973518Y-79535773D01*
X138968925Y-79482068D01*
X138957071Y-79456283D01*
X138934519Y-79448191D01*
X138913810Y-79447572D01*
X138879004Y-79451086D01*
X138860983Y-79469571D01*
X138854261Y-79514938D01*
X138853334Y-79578892D01*
X138842904Y-79680624D01*
X138813888Y-79751684D01*
X138769699Y-79784761D01*
X138756572Y-79786238D01*
X138709097Y-79763889D01*
X138675935Y-79701713D01*
X138660499Y-79607022D01*
X138659810Y-79578892D01*
X138658626Y-79503462D01*
X138650459Y-79464424D01*
X138628387Y-79449790D01*
X138585488Y-79447572D01*
X138508166Y-79447572D01*
X138501550Y-79447572D01*
X138515433Y-79431366D01*
X138566717Y-79418848D01*
X138593286Y-79415284D01*
X138680572Y-79402660D01*
X138763059Y-79388280D01*
X138775052Y-79385863D01*
X138880714Y-79385310D01*
X138969837Y-79425637D01*
X139034838Y-79500180D01*
X139068138Y-79602275D01*
X139070906Y-79645942D01*
X139064561Y-79701641D01*
X139047495Y-79790549D01*
X139022479Y-79899409D01*
X138998666Y-79991724D01*
X138926568Y-80257685D01*
X139064892Y-80396009D01*
X139373156Y-80316598D01*
X139500368Y-80284391D01*
X139590977Y-80263737D01*
X139655074Y-80253527D01*
X139702753Y-80252653D01*
X139744105Y-80260005D01*
X139781424Y-80271760D01*
X139863696Y-80313792D01*
X139916689Y-80379057D01*
X139923256Y-80391819D01*
X139948532Y-80461911D01*
X139950645Y-80530176D01*
X139926531Y-80603319D01*
X139873126Y-80688045D01*
X139787364Y-80791057D01*
X139696486Y-80887948D01*
X139479279Y-81112473D01*
X139505111Y-81208405D01*
X139530943Y-81304336D01*
X139784832Y-81367955D01*
X140038722Y-81431574D01*
X140304762Y-81281430D01*
X140304762Y-79929072D01*
X140304729Y-79639340D01*
X140304542Y-79394254D01*
X140304066Y-79190079D01*
X140303168Y-79023080D01*
X140301714Y-78889522D01*
X140299571Y-78785669D01*
X140296606Y-78707787D01*
X140292683Y-78652141D01*
X140287671Y-78614996D01*
X140281435Y-78592616D01*
X140273841Y-78581268D01*
X140264757Y-78577214D01*
X140256381Y-78576715D01*
X140215952Y-78559609D01*
X140208000Y-78528334D01*
X140219405Y-78492920D01*
X140261838Y-78480452D01*
X140280572Y-78479953D01*
X140322060Y-78477719D01*
X140343654Y-78463077D01*
X140351850Y-78424121D01*
X140353143Y-78348940D01*
X140353143Y-78346905D01*
X140356449Y-78274036D01*
X140364975Y-78225710D01*
X140373245Y-78213857D01*
X140398466Y-78230201D01*
X140446827Y-78273421D01*
X140508697Y-78334806D01*
X140520328Y-78346905D01*
X140586710Y-78414622D01*
X140634757Y-78454302D01*
X140678982Y-78473428D01*
X140733901Y-78479482D01*
X140778416Y-78479953D01*
X140850681Y-78476811D01*
X140898299Y-78468718D01*
X140909524Y-78461111D01*
X140893405Y-78436851D01*
X140850220Y-78387621D01*
X140787724Y-78322038D01*
X140752262Y-78286405D01*
X140595000Y-78130541D01*
X140745516Y-77978675D01*
X140896031Y-77826810D01*
X140752348Y-77826810D01*
X140677023Y-77828397D01*
X140624372Y-77838046D01*
X140578622Y-77863089D01*
X140524001Y-77910855D01*
X140480904Y-77952984D01*
X140353143Y-78079157D01*
X140353143Y-77412790D01*
X140250334Y-77420229D01*
X140147524Y-77427667D01*
X140147524Y-77953822D01*
X140146730Y-78107498D01*
X140144507Y-78243478D01*
X140141095Y-78354819D01*
X140136732Y-78434577D01*
X140131660Y-78475807D01*
X140129381Y-78479965D01*
X140120740Y-78457736D01*
X140114333Y-78398914D01*
X140111328Y-78315274D01*
X140111238Y-78297064D01*
X140111238Y-78114175D01*
X140021080Y-78121683D01*
X139953328Y-78138307D01*
X139907998Y-78179342D01*
X139881580Y-78251554D01*
X139870565Y-78361704D01*
X139869690Y-78413429D01*
X139869334Y-78576715D01*
X139736286Y-78576715D01*
X139659214Y-78574522D01*
X139619067Y-78565276D01*
X139604489Y-78544979D01*
X139603238Y-78529866D01*
X139616808Y-78494380D01*
X139664641Y-78477493D01*
X139681858Y-78475438D01*
X139760477Y-78467858D01*
X139772572Y-78266268D01*
X139785070Y-78143742D01*
X139808048Y-78062775D01*
X139845910Y-78016927D01*
X139903063Y-77999758D01*
X139954000Y-78001061D01*
X140000441Y-78002323D01*
X140021119Y-77985141D01*
X140026424Y-77936687D01*
X140026572Y-77911477D01*
X140024103Y-77849826D01*
X140009768Y-77823792D01*
X139973178Y-77820632D01*
X139954000Y-77822485D01*
X139881772Y-77845276D01*
X139827000Y-77881131D01*
X139772572Y-77932005D01*
X139772572Y-77879408D01*
X139766552Y-77846667D01*
X139740040Y-77831214D01*
X139680359Y-77826884D01*
X139664397Y-77826810D01*
X139556223Y-77826810D01*
X139541279Y-78492048D01*
X139535973Y-78147334D01*
X139530667Y-77802619D01*
X139596497Y-77802619D01*
X139597327Y-77793284D01*
X139562440Y-77764849D01*
X139490800Y-77716672D01*
X139381368Y-77648108D01*
X139233106Y-77558515D01*
X139044979Y-77447249D01*
X138815946Y-77313667D01*
X138695401Y-77243873D01*
X138496072Y-77128787D01*
X138307997Y-77020388D01*
X138135653Y-76921243D01*
X137983514Y-76833917D01*
X137856055Y-76760976D01*
X137757752Y-76704985D01*
X137693078Y-76668510D01*
X137668000Y-76654822D01*
X137648379Y-76647578D01*
X137624649Y-76646609D01*
X137591999Y-76654248D01*
X137545617Y-76672825D01*
X137480693Y-76704670D01*
X137392415Y-76752116D01*
X137275972Y-76817492D01*
X137126552Y-76903130D01*
X136976566Y-76989807D01*
X136809550Y-77086574D01*
X136648635Y-77179946D01*
X136500693Y-77265924D01*
X136372600Y-77340508D01*
X136271231Y-77399698D01*
X136203462Y-77439494D01*
X136194331Y-77444901D01*
X136114260Y-77491026D01*
X136059184Y-77515584D01*
X136012878Y-77522335D01*
X135959115Y-77515045D01*
X135924808Y-77507412D01*
X135789502Y-77495099D01*
X135672298Y-77521049D01*
X135579386Y-77581055D01*
X135516954Y-77670912D01*
X135491191Y-77786413D01*
X135490858Y-77802325D01*
X135495584Y-77880027D01*
X135515641Y-77931209D01*
X135559847Y-77977290D01*
X135564519Y-77981253D01*
X135639482Y-78030680D01*
X135724590Y-78068963D01*
X135733463Y-78071783D01*
X135828989Y-78112028D01*
X135880691Y-78161345D01*
X135886673Y-78217593D01*
X135878982Y-78236036D01*
X135842036Y-78274472D01*
X135810530Y-78283623D01*
X135782233Y-78280090D01*
X135800607Y-78272614D01*
X135811381Y-78269754D01*
X135849519Y-78246742D01*
X135846075Y-78214465D01*
X135804662Y-78180921D01*
X135763397Y-78163612D01*
X135703998Y-78133659D01*
X135633586Y-78083678D01*
X135563675Y-78023927D01*
X135505782Y-77964665D01*
X135471423Y-77916151D01*
X135466667Y-77899275D01*
X135449371Y-77879658D01*
X135436429Y-77881259D01*
X135418532Y-77907789D01*
X135412428Y-77974293D01*
X135414338Y-78038325D01*
X135401869Y-78197160D01*
X135349310Y-78338837D01*
X135261389Y-78456447D01*
X135142836Y-78543083D01*
X135041971Y-78582189D01*
X134934477Y-78610940D01*
X134682250Y-78610940D01*
X134675775Y-78588626D01*
X134660823Y-78572080D01*
X134639417Y-78563104D01*
X134581745Y-78530875D01*
X134507341Y-78470676D01*
X134427595Y-78393907D01*
X134353896Y-78311967D01*
X134297632Y-78236256D01*
X134278411Y-78201762D01*
X134237769Y-78060994D01*
X134237855Y-78055862D01*
X134264399Y-78055862D01*
X134299606Y-78187669D01*
X134370013Y-78305548D01*
X134473156Y-78401611D01*
X134606572Y-78467972D01*
X134652421Y-78480978D01*
X134728557Y-78496462D01*
X134790164Y-78499143D01*
X134861456Y-78488754D01*
X134910286Y-78478121D01*
X135053658Y-78423603D01*
X135168553Y-78336545D01*
X135251531Y-78224585D01*
X135299150Y-78095361D01*
X135307969Y-77956511D01*
X135274546Y-77815673D01*
X135240246Y-77745744D01*
X135147976Y-77632408D01*
X135029292Y-77552044D01*
X134893745Y-77505667D01*
X134750882Y-77494294D01*
X134610251Y-77518940D01*
X134481401Y-77580622D01*
X134394623Y-77655756D01*
X134309444Y-77782018D01*
X134266857Y-77918016D01*
X134264399Y-78055862D01*
X134237855Y-78055862D01*
X134240114Y-77921328D01*
X134280367Y-77789376D01*
X134353448Y-77671746D01*
X134454279Y-77575050D01*
X134577779Y-77505897D01*
X134718870Y-77470897D01*
X134839390Y-77471737D01*
X134985261Y-77507535D01*
X135117021Y-77574481D01*
X135198741Y-77643027D01*
X135242432Y-77684871D01*
X135272985Y-77705425D01*
X135275515Y-77705857D01*
X135302921Y-77694291D01*
X135361782Y-77663197D01*
X135442096Y-77617986D01*
X135495060Y-77587135D01*
X135626312Y-77510136D01*
X135779097Y-77421120D01*
X135948776Y-77322740D01*
X136130712Y-77217645D01*
X136320264Y-77108488D01*
X136512795Y-76997919D01*
X136703666Y-76888590D01*
X136888237Y-76783151D01*
X137061870Y-76684254D01*
X137219926Y-76594550D01*
X137357767Y-76516690D01*
X137470754Y-76453325D01*
X137554248Y-76407107D01*
X137603609Y-76380687D01*
X137615277Y-76375381D01*
X137638511Y-76387034D01*
X137638511Y-76387034D01*
G37*
X137638511Y-76387034D02*
X137699114Y-76420262D01*
X137792547Y-76472468D01*
X137914271Y-76541054D01*
X138059745Y-76623425D01*
X138224429Y-76716982D01*
X138403783Y-76819129D01*
X138593268Y-76927270D01*
X138788344Y-77038806D01*
X138984470Y-77151142D01*
X139177107Y-77261680D01*
X139361714Y-77367822D01*
X139533752Y-77466974D01*
X139688681Y-77556536D01*
X139821961Y-77633913D01*
X139929052Y-77696507D01*
X140005414Y-77741721D01*
X140031619Y-77757593D01*
X140109238Y-77805329D01*
X140123334Y-77403477D01*
X140250334Y-77396165D01*
X140324577Y-77393833D01*
X140362538Y-77400559D01*
X140376044Y-77420284D01*
X140377334Y-77438498D01*
X140393801Y-77479782D01*
X140425715Y-77488143D01*
X140448510Y-77491716D01*
X140462759Y-77508514D01*
X140470449Y-77547656D01*
X140473563Y-77618260D01*
X140474096Y-77710383D01*
X140474096Y-77932623D01*
X140541943Y-77867621D01*
X140582602Y-77833440D01*
X140625210Y-77813854D01*
X140684726Y-77804904D01*
X140776109Y-77802632D01*
X140787597Y-77802619D01*
X140878173Y-77803143D01*
X140928107Y-77806575D01*
X140945141Y-77815711D01*
X140937013Y-77833344D01*
X140921619Y-77851000D01*
X140895083Y-77883620D01*
X140901912Y-77897065D01*
X140949087Y-77900274D01*
X140960204Y-77900426D01*
X141042572Y-77901472D01*
X140882595Y-78052029D01*
X140722619Y-78202587D01*
X140892319Y-78383603D01*
X141062020Y-78564619D01*
X140885147Y-78571805D01*
X140793204Y-78574516D01*
X140733766Y-78570164D01*
X140691006Y-78553847D01*
X140649099Y-78520665D01*
X140615376Y-78488276D01*
X140522477Y-78397563D01*
X140522477Y-79399191D01*
X140601096Y-79399281D01*
X140700967Y-79417515D01*
X140783168Y-79465955D01*
X140838850Y-79535573D01*
X140859165Y-79617338D01*
X140853996Y-79657325D01*
X140845579Y-79670241D01*
X140840273Y-79638147D01*
X140839759Y-79627514D01*
X140817834Y-79537012D01*
X140766420Y-79474220D01*
X140695165Y-79438407D01*
X140613718Y-79428841D01*
X140531727Y-79444791D01*
X140458842Y-79485527D01*
X140404712Y-79550316D01*
X140378984Y-79638428D01*
X140378103Y-79662501D01*
X140398340Y-79763603D01*
X140455987Y-79834700D01*
X140549505Y-79874482D01*
X140637622Y-79883000D01*
X140721666Y-79870073D01*
X140786178Y-79825006D01*
X140789916Y-79821093D01*
X140848075Y-79759186D01*
X140692166Y-79766664D01*
X140607387Y-79769263D01*
X140559641Y-79764903D01*
X140537756Y-79750755D01*
X140530755Y-79725762D01*
X140528760Y-79696391D01*
X140535861Y-79713598D01*
X140537827Y-79720197D01*
X140550526Y-79743009D01*
X140578905Y-79753468D01*
X140634468Y-79753418D01*
X140705772Y-79747095D01*
X140800418Y-79741278D01*
X140850647Y-79749733D01*
X140859015Y-79775141D01*
X140828076Y-79820182D01*
X140801767Y-79847814D01*
X140744679Y-79889395D01*
X140672210Y-79905893D01*
X140632778Y-79907191D01*
X140523166Y-79907191D01*
X140516774Y-80662131D01*
X140510381Y-81417071D01*
X139075000Y-82246607D01*
X138833217Y-82386089D01*
X138603418Y-82518172D01*
X138389074Y-82640893D01*
X138193655Y-82752288D01*
X138020631Y-82850394D01*
X137873471Y-82933246D01*
X137755647Y-82998881D01*
X137670627Y-83045334D01*
X137621883Y-83070642D01*
X137611476Y-83074860D01*
X137586320Y-83062812D01*
X137522792Y-83028416D01*
X137424349Y-82973638D01*
X137294445Y-82900444D01*
X137136538Y-82810800D01*
X136954083Y-82706671D01*
X136750536Y-82590023D01*
X136529354Y-82462821D01*
X136293992Y-82327032D01*
X136137953Y-82236781D01*
X135263057Y-81730264D01*
X136818933Y-81730264D01*
X136844795Y-81908806D01*
X136913442Y-82082017D01*
X136984677Y-82192426D01*
X137119721Y-82332446D01*
X137277985Y-82431622D01*
X137454644Y-82488536D01*
X137644876Y-82501767D01*
X137843855Y-82469897D01*
X137885715Y-82457529D01*
X138047754Y-82381030D01*
X138187999Y-82264043D01*
X138300537Y-82111781D01*
X138321143Y-82073767D01*
X138365025Y-81982473D01*
X138390506Y-81909181D01*
X138402460Y-81833031D01*
X138405759Y-81733162D01*
X138405810Y-81711312D01*
X138403301Y-81603151D01*
X138392638Y-81522113D01*
X138369117Y-81447061D01*
X138328033Y-81356860D01*
X138325986Y-81352696D01*
X138219226Y-81185691D01*
X138083411Y-81056876D01*
X137921213Y-80967910D01*
X137735299Y-80920454D01*
X137618464Y-80912608D01*
X137511919Y-80915271D01*
X137429987Y-80928052D01*
X137349138Y-80956318D01*
X137275023Y-80990922D01*
X137111122Y-81096118D01*
X136981951Y-81229318D01*
X136889122Y-81383853D01*
X136834246Y-81553058D01*
X136818933Y-81730264D01*
X135263057Y-81730264D01*
X134692572Y-81399985D01*
X134692572Y-80544731D01*
X134692488Y-80318898D01*
X134692066Y-80136755D01*
X134691047Y-79993610D01*
X134689174Y-79884772D01*
X134686189Y-79805549D01*
X134681835Y-79751251D01*
X134675852Y-79717186D01*
X134667985Y-79698663D01*
X134657974Y-79690990D01*
X134645582Y-79689477D01*
X134614436Y-79698946D01*
X134597991Y-79735253D01*
X134591153Y-79792286D01*
X134583826Y-79857016D01*
X134565731Y-79887959D01*
X134523926Y-79899662D01*
X134493000Y-79902603D01*
X134402286Y-79910111D01*
X134402286Y-79883000D01*
X134426477Y-79883000D01*
X134499048Y-79883000D01*
X134544144Y-79879689D01*
X134565181Y-79860879D01*
X134571299Y-79813259D01*
X134571619Y-79777289D01*
X134571619Y-79671578D01*
X134683186Y-79659003D01*
X134792026Y-79631208D01*
X134861777Y-79575743D01*
X134894189Y-79490878D01*
X134897091Y-79447572D01*
X134885862Y-79359334D01*
X134848206Y-79297978D01*
X134778168Y-79259104D01*
X134669795Y-79238312D01*
X134607693Y-79233720D01*
X134426477Y-79224569D01*
X134426477Y-79883000D01*
X134402286Y-79883000D01*
X134402286Y-79205667D01*
X134692572Y-79205667D01*
X134692572Y-78892821D01*
X134692182Y-78764685D01*
X134690134Y-78676736D01*
X134685105Y-78620780D01*
X134682250Y-78610940D01*
X134934477Y-78610940D01*
X134935423Y-79119970D01*
X134935995Y-79288150D01*
X134937263Y-79412857D01*
X134939628Y-79498999D01*
X134943487Y-79551482D01*
X134949241Y-79575214D01*
X134957289Y-79575101D01*
X134968029Y-79556052D01*
X134970454Y-79550588D01*
X135028550Y-79471651D01*
X135112884Y-79422609D01*
X135209963Y-79405755D01*
X135306291Y-79423382D01*
X135388373Y-79477781D01*
X135389855Y-79479343D01*
X135422716Y-79527259D01*
X135448682Y-79586866D01*
X135463367Y-79643229D01*
X135462387Y-79681417D01*
X135451548Y-79689421D01*
X135435943Y-79668308D01*
X135427826Y-79617504D01*
X135427789Y-79616525D01*
X135403675Y-79530786D01*
X135345119Y-79468016D01*
X135262600Y-79433214D01*
X135166597Y-79431378D01*
X135090251Y-79455493D01*
X135051272Y-79477732D01*
X135019328Y-79506818D01*
X134993731Y-79547426D01*
X134973793Y-79604234D01*
X134958827Y-79681917D01*
X134948143Y-79785152D01*
X134941055Y-79918616D01*
X134936875Y-80086984D01*
X134934913Y-80294934D01*
X134934477Y-80514347D01*
X134934477Y-81282054D01*
X135061477Y-81356757D01*
X135134871Y-81395360D01*
X135195558Y-81419210D01*
X135224762Y-81423384D01*
X135263148Y-81414010D01*
X135335809Y-81395610D01*
X135430209Y-81371373D01*
X135482456Y-81357851D01*
X135585432Y-81330530D01*
X135651493Y-81309281D01*
X135690564Y-81288064D01*
X135712571Y-81260837D01*
X135727437Y-81221558D01*
X135732195Y-81205832D01*
X135760526Y-81111270D01*
X135543791Y-80890230D01*
X135426570Y-80764907D01*
X135362593Y-80684351D01*
X136579429Y-80684351D01*
X136658048Y-80676771D01*
X136707831Y-80668039D01*
X136732025Y-80644934D01*
X136741976Y-80592904D01*
X136744106Y-80566381D01*
X136752419Y-80500973D01*
X136769976Y-80471012D01*
X136804679Y-80463583D01*
X136807020Y-80463572D01*
X136890097Y-80451904D01*
X136969805Y-80422181D01*
X137027292Y-80382323D01*
X137039559Y-80365856D01*
X137053990Y-80312024D01*
X137154139Y-80312024D01*
X137157529Y-80418238D01*
X137198404Y-80522112D01*
X137270037Y-80606505D01*
X137341363Y-80657949D01*
X137413306Y-80678948D01*
X137461245Y-80681286D01*
X137535886Y-80678051D01*
X137593973Y-80669962D01*
X137605546Y-80666603D01*
X137635048Y-80632244D01*
X137643810Y-80583076D01*
X137641445Y-80542226D01*
X137625978Y-80523802D01*
X137584855Y-80521897D01*
X137526888Y-80528080D01*
X137453503Y-80533766D01*
X137408689Y-80524617D01*
X137373463Y-80494714D01*
X137357555Y-80475297D01*
X137321318Y-80414165D01*
X137305195Y-80357175D01*
X137305143Y-80354715D01*
X137319777Y-80298809D01*
X137355229Y-80237143D01*
X137357555Y-80234132D01*
X137394008Y-80194322D01*
X137432230Y-80177376D01*
X137490983Y-80177516D01*
X137528349Y-80181522D01*
X137646731Y-80195543D01*
X137639223Y-80117997D01*
X137625710Y-80061153D01*
X137589852Y-80034512D01*
X137563564Y-80028143D01*
X137764762Y-80028143D01*
X137764762Y-80681286D01*
X137908330Y-80681286D01*
X137997938Y-80677404D01*
X138076361Y-80667411D01*
X138112684Y-80658175D01*
X138186089Y-80610937D01*
X138192562Y-80600854D01*
X138334961Y-80600854D01*
X138336584Y-80644475D01*
X138350562Y-80660839D01*
X138409139Y-80677844D01*
X138490602Y-80679488D01*
X138572447Y-80667156D01*
X138630237Y-80643629D01*
X138675847Y-80584163D01*
X138684000Y-80537734D01*
X138670818Y-80470612D01*
X138625565Y-80427160D01*
X138555811Y-80402153D01*
X138507063Y-80378230D01*
X138502203Y-80350730D01*
X138539584Y-80332419D01*
X138565064Y-80330524D01*
X138618517Y-80318145D01*
X138648783Y-80289231D01*
X138646338Y-80256112D01*
X138632386Y-80243347D01*
X138556637Y-80221179D01*
X138473402Y-80234644D01*
X138400969Y-80278432D01*
X138368738Y-80319897D01*
X138352989Y-80389232D01*
X138382518Y-80446971D01*
X138454645Y-80487911D01*
X138455347Y-80488144D01*
X138512034Y-80516387D01*
X138538443Y-80549145D01*
X138538858Y-80553206D01*
X138529260Y-80576483D01*
X138492813Y-80581550D01*
X138444637Y-80575641D01*
X138379270Y-80570004D01*
X138345753Y-80582754D01*
X138334961Y-80600854D01*
X138192562Y-80600854D01*
X138228730Y-80544522D01*
X138238555Y-80471391D01*
X138213512Y-80404001D01*
X138161818Y-80359765D01*
X138121030Y-80334119D01*
X138119808Y-80313286D01*
X138137935Y-80295716D01*
X138169644Y-80241445D01*
X138172098Y-80169449D01*
X138146244Y-80099801D01*
X138127619Y-80076524D01*
X138088289Y-80048367D01*
X138032533Y-80033406D01*
X137946088Y-80028283D01*
X137922000Y-80028143D01*
X137764762Y-80028143D01*
X137563564Y-80028143D01*
X137559143Y-80027072D01*
X137435245Y-80024465D01*
X137328786Y-80059691D01*
X137243776Y-80124716D01*
X137184225Y-80211506D01*
X137154139Y-80312024D01*
X137053990Y-80312024D01*
X137061349Y-80284578D01*
X137056364Y-80191321D01*
X137026669Y-80110894D01*
X137017227Y-80097634D01*
X136987768Y-80068478D01*
X136948979Y-80050193D01*
X136888485Y-80039419D01*
X136793912Y-80032792D01*
X136775322Y-80031916D01*
X136579429Y-80023020D01*
X136579429Y-80684351D01*
X135362593Y-80684351D01*
X135345361Y-80662655D01*
X135297451Y-80577549D01*
X135280128Y-80503659D01*
X135290677Y-80435059D01*
X135313335Y-80386766D01*
X135385818Y-80308310D01*
X135459288Y-80271647D01*
X135502784Y-80258168D01*
X135544086Y-80252027D01*
X135593272Y-80254358D01*
X135660421Y-80266296D01*
X135755611Y-80288978D01*
X135865503Y-80317394D01*
X136172527Y-80397829D01*
X136311363Y-80257953D01*
X136249111Y-80040238D01*
X136218533Y-79926970D01*
X136191403Y-79815247D01*
X136172284Y-79724212D01*
X136168448Y-79701572D01*
X136166415Y-79688211D01*
X136312152Y-79688211D01*
X136340644Y-79777894D01*
X136377342Y-79823679D01*
X136459979Y-79871697D01*
X136557320Y-79886814D01*
X136652333Y-79869157D01*
X136725916Y-79821093D01*
X136784075Y-79759186D01*
X136627324Y-79766664D01*
X136542589Y-79769455D01*
X136494663Y-79765443D01*
X136472104Y-79751362D01*
X136463470Y-79723946D01*
X136462842Y-79719715D01*
X136461903Y-79692260D01*
X136874750Y-79692260D01*
X136913987Y-79781151D01*
X136941908Y-79813773D01*
X137000792Y-79862309D01*
X137058796Y-79879391D01*
X137105194Y-79878436D01*
X137167646Y-79867639D01*
X137196546Y-79842737D01*
X137204462Y-79813072D01*
X137204096Y-79772199D01*
X137180534Y-79767945D01*
X137170816Y-79771287D01*
X137116438Y-79770195D01*
X137060053Y-79739853D01*
X137021404Y-79693530D01*
X137014858Y-79666456D01*
X137035678Y-79603546D01*
X137086858Y-79560281D01*
X137151478Y-79550938D01*
X137151723Y-79550984D01*
X137194706Y-79550638D01*
X137208035Y-79518146D01*
X137208381Y-79505154D01*
X137189241Y-79454843D01*
X137137963Y-79431781D01*
X137063766Y-79438105D01*
X137008164Y-79458725D01*
X136923750Y-79520807D01*
X136878642Y-79602065D01*
X136874750Y-79692260D01*
X136461903Y-79692260D01*
X136461845Y-79690580D01*
X136476154Y-79674269D01*
X136516046Y-79667080D01*
X136591796Y-79665314D01*
X136614032Y-79665286D01*
X136699214Y-79664120D01*
X136746860Y-79658064D01*
X136767806Y-79643284D01*
X136772887Y-79615943D01*
X136772953Y-79609027D01*
X136750762Y-79536892D01*
X136691420Y-79478888D01*
X136605774Y-79443063D01*
X136539100Y-79435477D01*
X136461201Y-79441856D01*
X136408216Y-79467072D01*
X136371715Y-79503349D01*
X136322426Y-79591968D01*
X136312152Y-79688211D01*
X136166415Y-79688211D01*
X136150036Y-79580619D01*
X136144000Y-79907191D01*
X135974667Y-79907191D01*
X135974667Y-79749953D01*
X135973073Y-79662358D01*
X135963179Y-79613123D01*
X135937315Y-79592229D01*
X135887812Y-79589660D01*
X135853715Y-79591970D01*
X135812481Y-79592988D01*
X135815199Y-79580998D01*
X135838202Y-79562810D01*
X135870182Y-79520264D01*
X135870614Y-79510636D01*
X135926286Y-79510636D01*
X135939377Y-79557332D01*
X135962572Y-79568524D01*
X135982925Y-79579021D01*
X135994237Y-79616531D01*
X135998592Y-79690077D01*
X135998858Y-79725762D01*
X135999918Y-79810287D01*
X136005902Y-79857366D01*
X136021013Y-79877930D01*
X136049456Y-79882910D01*
X136059334Y-79883000D01*
X136091843Y-79880243D01*
X136109950Y-79864685D01*
X136117860Y-79825395D01*
X136119775Y-79751443D01*
X136119810Y-79725762D01*
X136120870Y-79641238D01*
X136126854Y-79594159D01*
X136141966Y-79573595D01*
X136170409Y-79568615D01*
X136180286Y-79568524D01*
X136226321Y-79558533D01*
X136240507Y-79519193D01*
X136240762Y-79508048D01*
X136231109Y-79462415D01*
X136192643Y-79447951D01*
X136178679Y-79447572D01*
X136134446Y-79440600D01*
X136122247Y-79409657D01*
X136124251Y-79381048D01*
X136151582Y-79316684D01*
X136186334Y-79290645D01*
X136229722Y-79254896D01*
X136242871Y-79209926D01*
X136226117Y-79171995D01*
X136183548Y-79157286D01*
X136100925Y-79179088D01*
X136035735Y-79235685D01*
X136001244Y-79313865D01*
X135998858Y-79341230D01*
X135988332Y-79408506D01*
X135962572Y-79438824D01*
X135934376Y-79471199D01*
X135926286Y-79510636D01*
X135870614Y-79510636D01*
X135872175Y-79475911D01*
X135847237Y-79446551D01*
X135816552Y-79443707D01*
X135759840Y-79466468D01*
X135726715Y-79489790D01*
X135694915Y-79514492D01*
X135684998Y-79504375D01*
X135684381Y-79487607D01*
X135667697Y-79457171D01*
X135612931Y-79447578D01*
X135610868Y-79447572D01*
X135537355Y-79447572D01*
X135544344Y-79659238D01*
X135548209Y-79760606D01*
X135553806Y-79823396D01*
X135564412Y-79857387D01*
X135583305Y-79872357D01*
X135613763Y-79878086D01*
X135617858Y-79878560D01*
X135658309Y-79880117D01*
X135677777Y-79864472D01*
X135683914Y-79819612D01*
X135684381Y-79774160D01*
X135692564Y-79677942D01*
X135714723Y-79606960D01*
X135747273Y-79571022D01*
X135759532Y-79568524D01*
X135765106Y-79582130D01*
X135746585Y-79606538D01*
X135718616Y-79665914D01*
X135708601Y-79770059D01*
X135708572Y-79777331D01*
X135708572Y-79910111D01*
X135617858Y-79902603D01*
X135527143Y-79895096D01*
X135527143Y-79435477D01*
X135660191Y-79430096D01*
X135755751Y-79426774D01*
X135847821Y-79424429D01*
X135883953Y-79423874D01*
X135943350Y-79420189D01*
X135968768Y-79401618D01*
X135974588Y-79354634D01*
X135974667Y-79338541D01*
X135996595Y-79245902D01*
X136057536Y-79176437D01*
X136131236Y-79143197D01*
X136206488Y-79136265D01*
X136249541Y-79164196D01*
X136264784Y-79230195D01*
X136264953Y-79240908D01*
X136260741Y-79297830D01*
X136242217Y-79319586D01*
X136210602Y-79320287D01*
X136166109Y-79328471D01*
X136148044Y-79372004D01*
X136146677Y-79409677D01*
X136166296Y-79420448D01*
X136219604Y-79411140D01*
X136220537Y-79410926D01*
X136331223Y-79395145D01*
X136452478Y-79392971D01*
X136566536Y-79403522D01*
X136655630Y-79425921D01*
X136671923Y-79433269D01*
X136725713Y-79468282D01*
X136763570Y-79515743D01*
X136795858Y-79590451D01*
X136808651Y-79628528D01*
X136820876Y-79650903D01*
X136837165Y-79639353D01*
X136863306Y-79588684D01*
X136870320Y-79573189D01*
X136933465Y-79482264D01*
X137020896Y-79424652D01*
X137121302Y-79406597D01*
X137162506Y-79411836D01*
X137210722Y-79429395D01*
X137229820Y-79464409D01*
X137232572Y-79510431D01*
X137229228Y-79565515D01*
X137212147Y-79584139D01*
X137171781Y-79578379D01*
X137102775Y-79578016D01*
X137057380Y-79608367D01*
X137043246Y-79657670D01*
X137068026Y-79714158D01*
X137077062Y-79724034D01*
X137121999Y-79757064D01*
X137163222Y-79751320D01*
X137208381Y-79713667D01*
X137241929Y-79661129D01*
X137255768Y-79583080D01*
X137256762Y-79544334D01*
X137259050Y-79508048D01*
X137280953Y-79508048D01*
X137289233Y-79553509D01*
X137305143Y-79568524D01*
X137317784Y-79590741D01*
X137326439Y-79649593D01*
X137329334Y-79725762D01*
X137329334Y-79883000D01*
X137474477Y-79883000D01*
X137958286Y-79883000D01*
X138030858Y-79883000D01*
X138075953Y-79879689D01*
X138096990Y-79860879D01*
X138103108Y-79813259D01*
X138103429Y-79777289D01*
X138103429Y-79671578D01*
X138214996Y-79659003D01*
X138323836Y-79631208D01*
X138393587Y-79575743D01*
X138425998Y-79490878D01*
X138428901Y-79447572D01*
X138417672Y-79359334D01*
X138380015Y-79297978D01*
X138309978Y-79259104D01*
X138201604Y-79238312D01*
X138139502Y-79233720D01*
X137958286Y-79224569D01*
X137958286Y-79883000D01*
X137474477Y-79883000D01*
X137474477Y-79728584D01*
X137476414Y-79642983D01*
X137484479Y-79594013D01*
X137502052Y-79570001D01*
X137522858Y-79561515D01*
X137563810Y-79529095D01*
X137571238Y-79498217D01*
X137555283Y-79456285D01*
X137522858Y-79447572D01*
X137487444Y-79436167D01*
X137474976Y-79393734D01*
X137474477Y-79375000D01*
X137468482Y-79323598D01*
X137440208Y-79304652D01*
X137401905Y-79302429D01*
X137350503Y-79308423D01*
X137331557Y-79336697D01*
X137329334Y-79375000D01*
X137322327Y-79425955D01*
X137305444Y-79447566D01*
X137305143Y-79447572D01*
X137286959Y-79468274D01*
X137280953Y-79508048D01*
X137259050Y-79508048D01*
X137261114Y-79475337D01*
X137272239Y-79431544D01*
X137280953Y-79423381D01*
X137299027Y-79402649D01*
X137305143Y-79361884D01*
X137306654Y-79326501D01*
X137315554Y-79296186D01*
X137338397Y-79259890D01*
X137381738Y-79206565D01*
X137431423Y-79148996D01*
X137518826Y-79076147D01*
X137610153Y-79049245D01*
X137700128Y-79066739D01*
X137783471Y-79127079D01*
X137854906Y-79228713D01*
X137878924Y-79280484D01*
X137932609Y-79411286D01*
X137933352Y-79308477D01*
X137934096Y-79205667D01*
X138092111Y-79205667D01*
X138235542Y-79214953D01*
X138338848Y-79244221D01*
X138406864Y-79295587D01*
X138440519Y-79358128D01*
X138455307Y-79467496D01*
X138426951Y-79561617D01*
X138359948Y-79633665D01*
X138258796Y-79676813D01*
X138226759Y-79682549D01*
X138163328Y-79694695D01*
X138134780Y-79715457D01*
X138127671Y-79755667D01*
X138127619Y-79762412D01*
X138139452Y-79823699D01*
X138174755Y-79842904D01*
X138233233Y-79820087D01*
X138314593Y-79755306D01*
X138355006Y-79716115D01*
X138428350Y-79637395D01*
X138470627Y-79578372D01*
X138488550Y-79528520D01*
X138490477Y-79503735D01*
X138494484Y-79455821D01*
X138501550Y-79447572D01*
X138508166Y-79447572D01*
X138520618Y-79621596D01*
X138530357Y-79719434D01*
X138545067Y-79781907D01*
X138568716Y-79822022D01*
X138587024Y-79839310D01*
X138655909Y-79870481D01*
X138748070Y-79882542D01*
X138842173Y-79875106D01*
X138916884Y-79847789D01*
X138920523Y-79845343D01*
X138948585Y-79820059D01*
X138964832Y-79784871D01*
X138972364Y-79727222D01*
X138974282Y-79634556D01*
X138974286Y-79627629D01*
X138973518Y-79535773D01*
X138968925Y-79482068D01*
X138957071Y-79456283D01*
X138934519Y-79448191D01*
X138913810Y-79447572D01*
X138879004Y-79451086D01*
X138860983Y-79469571D01*
X138854261Y-79514938D01*
X138853334Y-79578892D01*
X138842904Y-79680624D01*
X138813888Y-79751684D01*
X138769699Y-79784761D01*
X138756572Y-79786238D01*
X138709097Y-79763889D01*
X138675935Y-79701713D01*
X138660499Y-79607022D01*
X138659810Y-79578892D01*
X138658626Y-79503462D01*
X138650459Y-79464424D01*
X138628387Y-79449790D01*
X138585488Y-79447572D01*
X138508166Y-79447572D01*
X138501550Y-79447572D01*
X138515433Y-79431366D01*
X138566717Y-79418848D01*
X138593286Y-79415284D01*
X138680572Y-79402660D01*
X138763059Y-79388280D01*
X138775052Y-79385863D01*
X138880714Y-79385310D01*
X138969837Y-79425637D01*
X139034838Y-79500180D01*
X139068138Y-79602275D01*
X139070906Y-79645942D01*
X139064561Y-79701641D01*
X139047495Y-79790549D01*
X139022479Y-79899409D01*
X138998666Y-79991724D01*
X138926568Y-80257685D01*
X139064892Y-80396009D01*
X139373156Y-80316598D01*
X139500368Y-80284391D01*
X139590977Y-80263737D01*
X139655074Y-80253527D01*
X139702753Y-80252653D01*
X139744105Y-80260005D01*
X139781424Y-80271760D01*
X139863696Y-80313792D01*
X139916689Y-80379057D01*
X139923256Y-80391819D01*
X139948532Y-80461911D01*
X139950645Y-80530176D01*
X139926531Y-80603319D01*
X139873126Y-80688045D01*
X139787364Y-80791057D01*
X139696486Y-80887948D01*
X139479279Y-81112473D01*
X139505111Y-81208405D01*
X139530943Y-81304336D01*
X139784832Y-81367955D01*
X140038722Y-81431574D01*
X140304762Y-81281430D01*
X140304762Y-79929072D01*
X140304729Y-79639340D01*
X140304542Y-79394254D01*
X140304066Y-79190079D01*
X140303168Y-79023080D01*
X140301714Y-78889522D01*
X140299571Y-78785669D01*
X140296606Y-78707787D01*
X140292683Y-78652141D01*
X140287671Y-78614996D01*
X140281435Y-78592616D01*
X140273841Y-78581268D01*
X140264757Y-78577214D01*
X140256381Y-78576715D01*
X140215952Y-78559609D01*
X140208000Y-78528334D01*
X140219405Y-78492920D01*
X140261838Y-78480452D01*
X140280572Y-78479953D01*
X140322060Y-78477719D01*
X140343654Y-78463077D01*
X140351850Y-78424121D01*
X140353143Y-78348940D01*
X140353143Y-78346905D01*
X140356449Y-78274036D01*
X140364975Y-78225710D01*
X140373245Y-78213857D01*
X140398466Y-78230201D01*
X140446827Y-78273421D01*
X140508697Y-78334806D01*
X140520328Y-78346905D01*
X140586710Y-78414622D01*
X140634757Y-78454302D01*
X140678982Y-78473428D01*
X140733901Y-78479482D01*
X140778416Y-78479953D01*
X140850681Y-78476811D01*
X140898299Y-78468718D01*
X140909524Y-78461111D01*
X140893405Y-78436851D01*
X140850220Y-78387621D01*
X140787724Y-78322038D01*
X140752262Y-78286405D01*
X140595000Y-78130541D01*
X140745516Y-77978675D01*
X140896031Y-77826810D01*
X140752348Y-77826810D01*
X140677023Y-77828397D01*
X140624372Y-77838046D01*
X140578622Y-77863089D01*
X140524001Y-77910855D01*
X140480904Y-77952984D01*
X140353143Y-78079157D01*
X140353143Y-77412790D01*
X140250334Y-77420229D01*
X140147524Y-77427667D01*
X140147524Y-77953822D01*
X140146730Y-78107498D01*
X140144507Y-78243478D01*
X140141095Y-78354819D01*
X140136732Y-78434577D01*
X140131660Y-78475807D01*
X140129381Y-78479965D01*
X140120740Y-78457736D01*
X140114333Y-78398914D01*
X140111328Y-78315274D01*
X140111238Y-78297064D01*
X140111238Y-78114175D01*
X140021080Y-78121683D01*
X139953328Y-78138307D01*
X139907998Y-78179342D01*
X139881580Y-78251554D01*
X139870565Y-78361704D01*
X139869690Y-78413429D01*
X139869334Y-78576715D01*
X139736286Y-78576715D01*
X139659214Y-78574522D01*
X139619067Y-78565276D01*
X139604489Y-78544979D01*
X139603238Y-78529866D01*
X139616808Y-78494380D01*
X139664641Y-78477493D01*
X139681858Y-78475438D01*
X139760477Y-78467858D01*
X139772572Y-78266268D01*
X139785070Y-78143742D01*
X139808048Y-78062775D01*
X139845910Y-78016927D01*
X139903063Y-77999758D01*
X139954000Y-78001061D01*
X140000441Y-78002323D01*
X140021119Y-77985141D01*
X140026424Y-77936687D01*
X140026572Y-77911477D01*
X140024103Y-77849826D01*
X140009768Y-77823792D01*
X139973178Y-77820632D01*
X139954000Y-77822485D01*
X139881772Y-77845276D01*
X139827000Y-77881131D01*
X139772572Y-77932005D01*
X139772572Y-77879408D01*
X139766552Y-77846667D01*
X139740040Y-77831214D01*
X139680359Y-77826884D01*
X139664397Y-77826810D01*
X139556223Y-77826810D01*
X139541279Y-78492048D01*
X139535973Y-78147334D01*
X139530667Y-77802619D01*
X139596497Y-77802619D01*
X139597327Y-77793284D01*
X139562440Y-77764849D01*
X139490800Y-77716672D01*
X139381368Y-77648108D01*
X139233106Y-77558515D01*
X139044979Y-77447249D01*
X138815946Y-77313667D01*
X138695401Y-77243873D01*
X138496072Y-77128787D01*
X138307997Y-77020388D01*
X138135653Y-76921243D01*
X137983514Y-76833917D01*
X137856055Y-76760976D01*
X137757752Y-76704985D01*
X137693078Y-76668510D01*
X137668000Y-76654822D01*
X137648379Y-76647578D01*
X137624649Y-76646609D01*
X137591999Y-76654248D01*
X137545617Y-76672825D01*
X137480693Y-76704670D01*
X137392415Y-76752116D01*
X137275972Y-76817492D01*
X137126552Y-76903130D01*
X136976566Y-76989807D01*
X136809550Y-77086574D01*
X136648635Y-77179946D01*
X136500693Y-77265924D01*
X136372600Y-77340508D01*
X136271231Y-77399698D01*
X136203462Y-77439494D01*
X136194331Y-77444901D01*
X136114260Y-77491026D01*
X136059184Y-77515584D01*
X136012878Y-77522335D01*
X135959115Y-77515045D01*
X135924808Y-77507412D01*
X135789502Y-77495099D01*
X135672298Y-77521049D01*
X135579386Y-77581055D01*
X135516954Y-77670912D01*
X135491191Y-77786413D01*
X135490858Y-77802325D01*
X135495584Y-77880027D01*
X135515641Y-77931209D01*
X135559847Y-77977290D01*
X135564519Y-77981253D01*
X135639482Y-78030680D01*
X135724590Y-78068963D01*
X135733463Y-78071783D01*
X135828989Y-78112028D01*
X135880691Y-78161345D01*
X135886673Y-78217593D01*
X135878982Y-78236036D01*
X135842036Y-78274472D01*
X135810530Y-78283623D01*
X135782233Y-78280090D01*
X135800607Y-78272614D01*
X135811381Y-78269754D01*
X135849519Y-78246742D01*
X135846075Y-78214465D01*
X135804662Y-78180921D01*
X135763397Y-78163612D01*
X135703998Y-78133659D01*
X135633586Y-78083678D01*
X135563675Y-78023927D01*
X135505782Y-77964665D01*
X135471423Y-77916151D01*
X135466667Y-77899275D01*
X135449371Y-77879658D01*
X135436429Y-77881259D01*
X135418532Y-77907789D01*
X135412428Y-77974293D01*
X135414338Y-78038325D01*
X135401869Y-78197160D01*
X135349310Y-78338837D01*
X135261389Y-78456447D01*
X135142836Y-78543083D01*
X135041971Y-78582189D01*
X134934477Y-78610940D01*
X134682250Y-78610940D01*
X134675775Y-78588626D01*
X134660823Y-78572080D01*
X134639417Y-78563104D01*
X134581745Y-78530875D01*
X134507341Y-78470676D01*
X134427595Y-78393907D01*
X134353896Y-78311967D01*
X134297632Y-78236256D01*
X134278411Y-78201762D01*
X134237769Y-78060994D01*
X134237855Y-78055862D01*
X134264399Y-78055862D01*
X134299606Y-78187669D01*
X134370013Y-78305548D01*
X134473156Y-78401611D01*
X134606572Y-78467972D01*
X134652421Y-78480978D01*
X134728557Y-78496462D01*
X134790164Y-78499143D01*
X134861456Y-78488754D01*
X134910286Y-78478121D01*
X135053658Y-78423603D01*
X135168553Y-78336545D01*
X135251531Y-78224585D01*
X135299150Y-78095361D01*
X135307969Y-77956511D01*
X135274546Y-77815673D01*
X135240246Y-77745744D01*
X135147976Y-77632408D01*
X135029292Y-77552044D01*
X134893745Y-77505667D01*
X134750882Y-77494294D01*
X134610251Y-77518940D01*
X134481401Y-77580622D01*
X134394623Y-77655756D01*
X134309444Y-77782018D01*
X134266857Y-77918016D01*
X134264399Y-78055862D01*
X134237855Y-78055862D01*
X134240114Y-77921328D01*
X134280367Y-77789376D01*
X134353448Y-77671746D01*
X134454279Y-77575050D01*
X134577779Y-77505897D01*
X134718870Y-77470897D01*
X134839390Y-77471737D01*
X134985261Y-77507535D01*
X135117021Y-77574481D01*
X135198741Y-77643027D01*
X135242432Y-77684871D01*
X135272985Y-77705425D01*
X135275515Y-77705857D01*
X135302921Y-77694291D01*
X135361782Y-77663197D01*
X135442096Y-77617986D01*
X135495060Y-77587135D01*
X135626312Y-77510136D01*
X135779097Y-77421120D01*
X135948776Y-77322740D01*
X136130712Y-77217645D01*
X136320264Y-77108488D01*
X136512795Y-76997919D01*
X136703666Y-76888590D01*
X136888237Y-76783151D01*
X137061870Y-76684254D01*
X137219926Y-76594550D01*
X137357767Y-76516690D01*
X137470754Y-76453325D01*
X137554248Y-76407107D01*
X137603609Y-76380687D01*
X137615277Y-76375381D01*
X137638511Y-76387034D01*
G36*
X127705940Y-82958489D02*
G01*
X127651408Y-82990595D01*
X127564838Y-83039361D01*
X127451050Y-83102217D01*
X127314864Y-83176591D01*
X127161101Y-83259913D01*
X126994580Y-83349611D01*
X126820123Y-83443114D01*
X126642548Y-83537851D01*
X126466677Y-83631250D01*
X126297330Y-83720740D01*
X126139326Y-83803751D01*
X125997487Y-83877711D01*
X125876631Y-83940048D01*
X125781580Y-83988192D01*
X125717153Y-84019571D01*
X125688172Y-84031615D01*
X125687601Y-84031667D01*
X125684739Y-84008922D01*
X125682072Y-83943782D01*
X125679662Y-83840888D01*
X125677568Y-83704883D01*
X125675850Y-83540406D01*
X125674569Y-83352101D01*
X125673786Y-83144609D01*
X125673555Y-82949419D01*
X125673555Y-81867171D01*
X125787058Y-81924687D01*
X125867093Y-81965657D01*
X125975704Y-82021865D01*
X126039699Y-82055177D01*
X126039699Y-82455926D01*
X126035782Y-82478315D01*
X126032318Y-82540965D01*
X126029486Y-82637100D01*
X126027464Y-82759944D01*
X126026430Y-82902723D01*
X126026333Y-82963809D01*
X126026333Y-83471692D01*
X126126287Y-83413957D01*
X126180650Y-83383327D01*
X126267056Y-83335550D01*
X126376128Y-83275772D01*
X126498489Y-83209137D01*
X126584898Y-83162319D01*
X126701719Y-83098324D01*
X126802602Y-83041462D01*
X126880860Y-82995633D01*
X126929804Y-82964737D01*
X126943376Y-82953236D01*
X126923790Y-82938895D01*
X126869965Y-82906407D01*
X126789164Y-82859766D01*
X126688645Y-82802970D01*
X126575671Y-82740014D01*
X126457502Y-82674894D01*
X126341398Y-82611605D01*
X126234621Y-82554143D01*
X126144431Y-82506504D01*
X126078090Y-82472683D01*
X126042857Y-82456677D01*
X126039699Y-82455926D01*
X126039699Y-82055177D01*
X126107913Y-82090687D01*
X126258742Y-82169499D01*
X126423213Y-82255675D01*
X126596347Y-82346593D01*
X126773167Y-82439627D01*
X126948695Y-82532154D01*
X127117952Y-82621548D01*
X127275961Y-82705185D01*
X127417743Y-82780441D01*
X127538320Y-82844692D01*
X127632715Y-82895313D01*
X127695949Y-82929680D01*
X127723044Y-82945169D01*
X127723614Y-82945616D01*
X127705940Y-82958489D01*
X127705940Y-82958489D01*
G37*
X127705940Y-82958489D02*
X127651408Y-82990595D01*
X127564838Y-83039361D01*
X127451050Y-83102217D01*
X127314864Y-83176591D01*
X127161101Y-83259913D01*
X126994580Y-83349611D01*
X126820123Y-83443114D01*
X126642548Y-83537851D01*
X126466677Y-83631250D01*
X126297330Y-83720740D01*
X126139326Y-83803751D01*
X125997487Y-83877711D01*
X125876631Y-83940048D01*
X125781580Y-83988192D01*
X125717153Y-84019571D01*
X125688172Y-84031615D01*
X125687601Y-84031667D01*
X125684739Y-84008922D01*
X125682072Y-83943782D01*
X125679662Y-83840888D01*
X125677568Y-83704883D01*
X125675850Y-83540406D01*
X125674569Y-83352101D01*
X125673786Y-83144609D01*
X125673555Y-82949419D01*
X125673555Y-81867171D01*
X125787058Y-81924687D01*
X125867093Y-81965657D01*
X125975704Y-82021865D01*
X126039699Y-82055177D01*
X126039699Y-82455926D01*
X126035782Y-82478315D01*
X126032318Y-82540965D01*
X126029486Y-82637100D01*
X126027464Y-82759944D01*
X126026430Y-82902723D01*
X126026333Y-82963809D01*
X126026333Y-83471692D01*
X126126287Y-83413957D01*
X126180650Y-83383327D01*
X126267056Y-83335550D01*
X126376128Y-83275772D01*
X126498489Y-83209137D01*
X126584898Y-83162319D01*
X126701719Y-83098324D01*
X126802602Y-83041462D01*
X126880860Y-82995633D01*
X126929804Y-82964737D01*
X126943376Y-82953236D01*
X126923790Y-82938895D01*
X126869965Y-82906407D01*
X126789164Y-82859766D01*
X126688645Y-82802970D01*
X126575671Y-82740014D01*
X126457502Y-82674894D01*
X126341398Y-82611605D01*
X126234621Y-82554143D01*
X126144431Y-82506504D01*
X126078090Y-82472683D01*
X126042857Y-82456677D01*
X126039699Y-82455926D01*
X126039699Y-82055177D01*
X126107913Y-82090687D01*
X126258742Y-82169499D01*
X126423213Y-82255675D01*
X126596347Y-82346593D01*
X126773167Y-82439627D01*
X126948695Y-82532154D01*
X127117952Y-82621548D01*
X127275961Y-82705185D01*
X127417743Y-82780441D01*
X127538320Y-82844692D01*
X127632715Y-82895313D01*
X127695949Y-82929680D01*
X127723044Y-82945169D01*
X127723614Y-82945616D01*
X127705940Y-82958489D01*
G36*
X126992004Y-80705144D02*
G01*
X126287860Y-81197686D01*
X126992004Y-81203910D01*
X127696148Y-81210135D01*
X127696148Y-81562728D01*
X126690731Y-81556595D01*
X125685315Y-81550463D01*
X125685315Y-81199207D01*
X126390870Y-80704557D01*
X127096426Y-80209908D01*
X126384991Y-80203683D01*
X125673555Y-80197459D01*
X125673555Y-79868889D01*
X127696148Y-79868889D01*
X127696148Y-80212603D01*
X126992004Y-80705144D01*
X126992004Y-80705144D01*
G37*
X126992004Y-80705144D02*
X126287860Y-81197686D01*
X126992004Y-81203910D01*
X127696148Y-81210135D01*
X127696148Y-81562728D01*
X126690731Y-81556595D01*
X125685315Y-81550463D01*
X125685315Y-81199207D01*
X126390870Y-80704557D01*
X127096426Y-80209908D01*
X126384991Y-80203683D01*
X125673555Y-80197459D01*
X125673555Y-79868889D01*
X127696148Y-79868889D01*
X127696148Y-80212603D01*
X126992004Y-80705144D01*
G36*
X127695999Y-78324475D02*
G01*
X127695851Y-78916389D01*
X127631323Y-78953329D01*
X127592036Y-78975888D01*
X127519084Y-79017842D01*
X127419562Y-79075107D01*
X127300564Y-79143602D01*
X127169185Y-79219245D01*
X127128462Y-79242695D01*
X126690129Y-79495120D01*
X125685315Y-78915842D01*
X125679041Y-78327000D01*
X125672768Y-77738157D01*
X126172930Y-77451192D01*
X126312089Y-77371780D01*
X126437907Y-77300799D01*
X126544604Y-77241444D01*
X126626399Y-77196909D01*
X126677511Y-77170391D01*
X126689589Y-77165320D01*
X126689589Y-77564178D01*
X126659523Y-77575394D01*
X126596704Y-77606392D01*
X126508913Y-77653088D01*
X126403928Y-77711397D01*
X126342706Y-77746343D01*
X126026363Y-77928612D01*
X126032228Y-78327407D01*
X126038092Y-78726202D01*
X126355592Y-78908892D01*
X126465498Y-78971636D01*
X126560897Y-79025161D01*
X126634455Y-79065424D01*
X126678837Y-79088384D01*
X126688250Y-79092180D01*
X126712764Y-79081258D01*
X126770823Y-79050675D01*
X126855269Y-79004341D01*
X126958940Y-78946165D01*
X127035707Y-78902443D01*
X127368006Y-78712108D01*
X127361568Y-78321656D01*
X127355129Y-77931204D01*
X127037629Y-77747743D01*
X126926418Y-77684560D01*
X126828177Y-77630768D01*
X126750661Y-77590456D01*
X126701623Y-77567715D01*
X126689589Y-77564178D01*
X126689589Y-77165320D01*
X126692154Y-77164243D01*
X126717034Y-77175539D01*
X126776750Y-77207263D01*
X126865484Y-77256184D01*
X126977418Y-77319068D01*
X127106735Y-77392686D01*
X127203682Y-77448410D01*
X127696148Y-77732560D01*
X127695999Y-78324475D01*
X127695999Y-78324475D01*
G37*
X127695999Y-78324475D02*
X127695851Y-78916389D01*
X127631323Y-78953329D01*
X127592036Y-78975888D01*
X127519084Y-79017842D01*
X127419562Y-79075107D01*
X127300564Y-79143602D01*
X127169185Y-79219245D01*
X127128462Y-79242695D01*
X126690129Y-79495120D01*
X125685315Y-78915842D01*
X125679041Y-78327000D01*
X125672768Y-77738157D01*
X126172930Y-77451192D01*
X126312089Y-77371780D01*
X126437907Y-77300799D01*
X126544604Y-77241444D01*
X126626399Y-77196909D01*
X126677511Y-77170391D01*
X126689589Y-77165320D01*
X126689589Y-77564178D01*
X126659523Y-77575394D01*
X126596704Y-77606392D01*
X126508913Y-77653088D01*
X126403928Y-77711397D01*
X126342706Y-77746343D01*
X126026363Y-77928612D01*
X126032228Y-78327407D01*
X126038092Y-78726202D01*
X126355592Y-78908892D01*
X126465498Y-78971636D01*
X126560897Y-79025161D01*
X126634455Y-79065424D01*
X126678837Y-79088384D01*
X126688250Y-79092180D01*
X126712764Y-79081258D01*
X126770823Y-79050675D01*
X126855269Y-79004341D01*
X126958940Y-78946165D01*
X127035707Y-78902443D01*
X127368006Y-78712108D01*
X127361568Y-78321656D01*
X127355129Y-77931204D01*
X127037629Y-77747743D01*
X126926418Y-77684560D01*
X126828177Y-77630768D01*
X126750661Y-77590456D01*
X126701623Y-77567715D01*
X126689589Y-77564178D01*
X126689589Y-77165320D01*
X126692154Y-77164243D01*
X126717034Y-77175539D01*
X126776750Y-77207263D01*
X126865484Y-77256184D01*
X126977418Y-77319068D01*
X127106735Y-77392686D01*
X127203682Y-77448410D01*
X127696148Y-77732560D01*
X127695999Y-78324475D01*
G36*
X127366889Y-76858519D02*
G01*
X127366889Y-76435186D01*
X126028164Y-76435186D01*
X126014574Y-76846760D01*
X125685315Y-76846760D01*
X125679024Y-76264676D01*
X125672734Y-75682593D01*
X126026333Y-75682593D01*
X126026333Y-76082408D01*
X127366889Y-76082408D01*
X127366889Y-75682593D01*
X127696148Y-75682593D01*
X127696148Y-76858519D01*
X127366889Y-76858519D01*
X127366889Y-76858519D01*
G37*
X127366889Y-76858519D02*
X127366889Y-76435186D01*
X126028164Y-76435186D01*
X126014574Y-76846760D01*
X125685315Y-76846760D01*
X125679024Y-76264676D01*
X125672734Y-75682593D01*
X126026333Y-75682593D01*
X126026333Y-76082408D01*
X127366889Y-76082408D01*
X127366889Y-75682593D01*
X127696148Y-75682593D01*
X127696148Y-76858519D01*
X127366889Y-76858519D01*
G36*
X127679628Y-74300921D02*
G01*
X127630638Y-74547455D01*
X127550029Y-74763395D01*
X127438654Y-74947003D01*
X127297365Y-75096541D01*
X127127014Y-75210271D01*
X127111068Y-75218307D01*
X127041153Y-75251398D01*
X126983279Y-75273212D01*
X126924357Y-75286088D01*
X126851298Y-75292368D01*
X126751012Y-75294391D01*
X126684735Y-75294537D01*
X126565432Y-75293793D01*
X126480069Y-75289998D01*
X126415553Y-75280804D01*
X126358791Y-75263868D01*
X126296693Y-75236844D01*
X126258106Y-75218104D01*
X126091749Y-75110444D01*
X125951101Y-74965461D01*
X125837600Y-74786126D01*
X125752682Y-74575405D01*
X125697786Y-74336268D01*
X125674347Y-74071684D01*
X125673555Y-74010709D01*
X125673555Y-73801112D01*
X126680113Y-73801112D01*
X126680113Y-74130371D01*
X126019632Y-74130371D01*
X126033945Y-74267306D01*
X126051764Y-74371669D01*
X126081138Y-74484336D01*
X126099065Y-74537010D01*
X126182249Y-74700739D01*
X126291218Y-74825346D01*
X126425356Y-74910391D01*
X126584044Y-74955434D01*
X126696611Y-74963072D01*
X126864114Y-74942687D01*
X127007996Y-74882309D01*
X127129720Y-74780984D01*
X127230745Y-74637757D01*
X127249874Y-74601456D01*
X127275751Y-74536904D01*
X127301869Y-74450848D01*
X127325359Y-74356233D01*
X127343355Y-74266002D01*
X127352989Y-74193099D01*
X127351394Y-74150470D01*
X127350315Y-74148010D01*
X127325197Y-74143442D01*
X127259102Y-74139313D01*
X127158088Y-74135784D01*
X127028214Y-74133013D01*
X126875537Y-74131160D01*
X126706117Y-74130384D01*
X126680113Y-74130371D01*
X126680113Y-73801112D01*
X127696148Y-73801112D01*
X127696148Y-74025529D01*
X127679628Y-74300921D01*
X127679628Y-74300921D01*
G37*
X127679628Y-74300921D02*
X127630638Y-74547455D01*
X127550029Y-74763395D01*
X127438654Y-74947003D01*
X127297365Y-75096541D01*
X127127014Y-75210271D01*
X127111068Y-75218307D01*
X127041153Y-75251398D01*
X126983279Y-75273212D01*
X126924357Y-75286088D01*
X126851298Y-75292368D01*
X126751012Y-75294391D01*
X126684735Y-75294537D01*
X126565432Y-75293793D01*
X126480069Y-75289998D01*
X126415553Y-75280804D01*
X126358791Y-75263868D01*
X126296693Y-75236844D01*
X126258106Y-75218104D01*
X126091749Y-75110444D01*
X125951101Y-74965461D01*
X125837600Y-74786126D01*
X125752682Y-74575405D01*
X125697786Y-74336268D01*
X125674347Y-74071684D01*
X125673555Y-74010709D01*
X125673555Y-73801112D01*
X126680113Y-73801112D01*
X126680113Y-74130371D01*
X126019632Y-74130371D01*
X126033945Y-74267306D01*
X126051764Y-74371669D01*
X126081138Y-74484336D01*
X126099065Y-74537010D01*
X126182249Y-74700739D01*
X126291218Y-74825346D01*
X126425356Y-74910391D01*
X126584044Y-74955434D01*
X126696611Y-74963072D01*
X126864114Y-74942687D01*
X127007996Y-74882309D01*
X127129720Y-74780984D01*
X127230745Y-74637757D01*
X127249874Y-74601456D01*
X127275751Y-74536904D01*
X127301869Y-74450848D01*
X127325359Y-74356233D01*
X127343355Y-74266002D01*
X127352989Y-74193099D01*
X127351394Y-74150470D01*
X127350315Y-74148010D01*
X127325197Y-74143442D01*
X127259102Y-74139313D01*
X127158088Y-74135784D01*
X127028214Y-74133013D01*
X126875537Y-74131160D01*
X126706117Y-74130384D01*
X126680113Y-74130371D01*
X126680113Y-73801112D01*
X127696148Y-73801112D01*
X127696148Y-74025529D01*
X127679628Y-74300921D01*
G36*
X127698614Y-72593464D02*
G01*
X127639729Y-72620932D01*
X127548392Y-72661087D01*
X127430200Y-72711510D01*
X127290754Y-72769783D01*
X127135652Y-72833487D01*
X127125824Y-72837489D01*
X126965205Y-72902875D01*
X126791616Y-72973575D01*
X126611414Y-73046997D01*
X126430955Y-73120547D01*
X126256596Y-73191635D01*
X126094693Y-73257668D01*
X125951604Y-73316054D01*
X125833685Y-73364201D01*
X125747293Y-73399517D01*
X125701956Y-73418104D01*
X125686963Y-73414278D01*
X125678774Y-73382854D01*
X125676517Y-73316987D01*
X125678437Y-73233687D01*
X125685315Y-73036760D01*
X126232120Y-72814026D01*
X126381386Y-72752743D01*
X126515091Y-72696926D01*
X126627407Y-72649083D01*
X126712504Y-72611723D01*
X126764553Y-72587356D01*
X126778485Y-72578841D01*
X126757472Y-72567060D01*
X126698567Y-72540401D01*
X126607600Y-72501335D01*
X126490399Y-72452334D01*
X126352794Y-72395869D01*
X126225800Y-72344518D01*
X125673555Y-72122647D01*
X125673555Y-71936081D01*
X125674303Y-71843452D01*
X125678220Y-71788964D01*
X125687818Y-71763726D01*
X125705608Y-71758847D01*
X125722627Y-71762347D01*
X125760368Y-71775327D01*
X125834271Y-71803464D01*
X125939074Y-71844599D01*
X126069513Y-71896575D01*
X126220326Y-71957234D01*
X126386251Y-72024419D01*
X126562025Y-72095971D01*
X126742385Y-72169732D01*
X126922069Y-72243545D01*
X127095814Y-72315253D01*
X127258358Y-72382696D01*
X127404437Y-72443718D01*
X127528790Y-72496160D01*
X127626154Y-72537865D01*
X127691266Y-72566675D01*
X127718864Y-72580432D01*
X127719447Y-72581101D01*
X127698614Y-72593464D01*
X127698614Y-72593464D01*
G37*
X127698614Y-72593464D02*
X127639729Y-72620932D01*
X127548392Y-72661087D01*
X127430200Y-72711510D01*
X127290754Y-72769783D01*
X127135652Y-72833487D01*
X127125824Y-72837489D01*
X126965205Y-72902875D01*
X126791616Y-72973575D01*
X126611414Y-73046997D01*
X126430955Y-73120547D01*
X126256596Y-73191635D01*
X126094693Y-73257668D01*
X125951604Y-73316054D01*
X125833685Y-73364201D01*
X125747293Y-73399517D01*
X125701956Y-73418104D01*
X125686963Y-73414278D01*
X125678774Y-73382854D01*
X125676517Y-73316987D01*
X125678437Y-73233687D01*
X125685315Y-73036760D01*
X126232120Y-72814026D01*
X126381386Y-72752743D01*
X126515091Y-72696926D01*
X126627407Y-72649083D01*
X126712504Y-72611723D01*
X126764553Y-72587356D01*
X126778485Y-72578841D01*
X126757472Y-72567060D01*
X126698567Y-72540401D01*
X126607600Y-72501335D01*
X126490399Y-72452334D01*
X126352794Y-72395869D01*
X126225800Y-72344518D01*
X125673555Y-72122647D01*
X125673555Y-71936081D01*
X125674303Y-71843452D01*
X125678220Y-71788964D01*
X125687818Y-71763726D01*
X125705608Y-71758847D01*
X125722627Y-71762347D01*
X125760368Y-71775327D01*
X125834271Y-71803464D01*
X125939074Y-71844599D01*
X126069513Y-71896575D01*
X126220326Y-71957234D01*
X126386251Y-72024419D01*
X126562025Y-72095971D01*
X126742385Y-72169732D01*
X126922069Y-72243545D01*
X127095814Y-72315253D01*
X127258358Y-72382696D01*
X127404437Y-72443718D01*
X127528790Y-72496160D01*
X127626154Y-72537865D01*
X127691266Y-72566675D01*
X127718864Y-72580432D01*
X127719447Y-72581101D01*
X127698614Y-72593464D01*
G36*
X127694222Y-70609666D02*
G01*
X127687429Y-70758506D01*
X127674245Y-70876485D01*
X127653147Y-70971631D01*
X127622610Y-71051972D01*
X127581110Y-71125537D01*
X127555584Y-71162550D01*
X127462762Y-71262841D01*
X127351784Y-71327596D01*
X127214684Y-71360442D01*
X127108185Y-71366400D01*
X127007064Y-71363912D01*
X126934381Y-71352991D01*
X126871740Y-71329578D01*
X126824312Y-71303756D01*
X126753935Y-71252238D01*
X126685554Y-71185595D01*
X126629449Y-71115853D01*
X126595899Y-71055039D01*
X126590778Y-71030542D01*
X126575851Y-71004131D01*
X126568033Y-71002408D01*
X126540613Y-71011840D01*
X126477365Y-71038153D01*
X126385101Y-71078369D01*
X126270633Y-71129509D01*
X126140771Y-71188598D01*
X126115301Y-71200302D01*
X125685315Y-71398196D01*
X125678330Y-71231901D01*
X125676182Y-71145598D01*
X125677176Y-71076918D01*
X125681090Y-71040254D01*
X125681294Y-71039684D01*
X125704903Y-71022336D01*
X125764762Y-70989388D01*
X125854099Y-70944253D01*
X125966139Y-70890343D01*
X126094111Y-70831072D01*
X126105683Y-70825816D01*
X126520126Y-70637871D01*
X126520174Y-70502639D01*
X126520222Y-70367408D01*
X125673555Y-70367408D01*
X125673555Y-70014630D01*
X127366889Y-70014630D01*
X127366889Y-70367408D01*
X127123864Y-70367408D01*
X127021269Y-70368839D01*
X126936852Y-70372704D01*
X126881268Y-70378355D01*
X126865160Y-70383087D01*
X126854556Y-70417973D01*
X126850054Y-70486382D01*
X126851316Y-70575241D01*
X126858003Y-70671480D01*
X126869778Y-70762027D01*
X126875773Y-70793425D01*
X126914487Y-70909443D01*
X126973453Y-70984475D01*
X127055292Y-71021147D01*
X127108185Y-71025926D01*
X127201509Y-71007126D01*
X127273451Y-70949965D01*
X127324594Y-70853301D01*
X127355521Y-70715992D01*
X127366815Y-70536896D01*
X127366889Y-70519121D01*
X127366889Y-70367408D01*
X127366889Y-70014630D01*
X127696148Y-70014630D01*
X127696148Y-70421935D01*
X127694222Y-70609666D01*
X127694222Y-70609666D01*
G37*
X127694222Y-70609666D02*
X127687429Y-70758506D01*
X127674245Y-70876485D01*
X127653147Y-70971631D01*
X127622610Y-71051972D01*
X127581110Y-71125537D01*
X127555584Y-71162550D01*
X127462762Y-71262841D01*
X127351784Y-71327596D01*
X127214684Y-71360442D01*
X127108185Y-71366400D01*
X127007064Y-71363912D01*
X126934381Y-71352991D01*
X126871740Y-71329578D01*
X126824312Y-71303756D01*
X126753935Y-71252238D01*
X126685554Y-71185595D01*
X126629449Y-71115853D01*
X126595899Y-71055039D01*
X126590778Y-71030542D01*
X126575851Y-71004131D01*
X126568033Y-71002408D01*
X126540613Y-71011840D01*
X126477365Y-71038153D01*
X126385101Y-71078369D01*
X126270633Y-71129509D01*
X126140771Y-71188598D01*
X126115301Y-71200302D01*
X125685315Y-71398196D01*
X125678330Y-71231901D01*
X125676182Y-71145598D01*
X125677176Y-71076918D01*
X125681090Y-71040254D01*
X125681294Y-71039684D01*
X125704903Y-71022336D01*
X125764762Y-70989388D01*
X125854099Y-70944253D01*
X125966139Y-70890343D01*
X126094111Y-70831072D01*
X126105683Y-70825816D01*
X126520126Y-70637871D01*
X126520174Y-70502639D01*
X126520222Y-70367408D01*
X125673555Y-70367408D01*
X125673555Y-70014630D01*
X127366889Y-70014630D01*
X127366889Y-70367408D01*
X127123864Y-70367408D01*
X127021269Y-70368839D01*
X126936852Y-70372704D01*
X126881268Y-70378355D01*
X126865160Y-70383087D01*
X126854556Y-70417973D01*
X126850054Y-70486382D01*
X126851316Y-70575241D01*
X126858003Y-70671480D01*
X126869778Y-70762027D01*
X126875773Y-70793425D01*
X126914487Y-70909443D01*
X126973453Y-70984475D01*
X127055292Y-71021147D01*
X127108185Y-71025926D01*
X127201509Y-71007126D01*
X127273451Y-70949965D01*
X127324594Y-70853301D01*
X127355521Y-70715992D01*
X127366815Y-70536896D01*
X127366889Y-70519121D01*
X127366889Y-70367408D01*
X127366889Y-70014630D01*
X127696148Y-70014630D01*
X127696148Y-70421935D01*
X127694222Y-70609666D01*
G36*
X124903564Y-71841427D02*
G01*
X124855298Y-71883304D01*
X124782062Y-71944906D01*
X124689753Y-72021424D01*
X124584268Y-72108049D01*
X124471504Y-72199974D01*
X124357358Y-72292390D01*
X124247726Y-72380489D01*
X124148507Y-72459463D01*
X124065596Y-72524503D01*
X124008274Y-72568284D01*
X124004091Y-72581473D01*
X124017650Y-72605282D01*
X124052271Y-72642785D01*
X124111275Y-72697057D01*
X124197985Y-72771173D01*
X124315720Y-72868207D01*
X124447569Y-72974947D01*
X124575101Y-73078309D01*
X124689534Y-73172310D01*
X124786032Y-73252875D01*
X124859759Y-73315928D01*
X124905878Y-73357392D01*
X124919782Y-73372867D01*
X124901786Y-73391423D01*
X124851742Y-73434991D01*
X124774570Y-73499501D01*
X124675190Y-73580881D01*
X124558522Y-73675060D01*
X124447829Y-73763410D01*
X124300073Y-73881483D01*
X124186384Y-73974236D01*
X124103357Y-74044781D01*
X124047590Y-74096234D01*
X124015678Y-74131708D01*
X124004219Y-74154316D01*
X124008037Y-74165761D01*
X124033344Y-74186947D01*
X124089000Y-74232367D01*
X124168613Y-74296884D01*
X124265792Y-74375359D01*
X124374147Y-74462655D01*
X124487286Y-74553635D01*
X124598817Y-74643161D01*
X124702351Y-74726094D01*
X124791496Y-74797299D01*
X124859861Y-74851636D01*
X124901055Y-74883969D01*
X124908050Y-74889266D01*
X124915834Y-74896047D01*
X124917831Y-74904738D01*
X124910371Y-74918629D01*
X124889785Y-74941008D01*
X124852402Y-74975165D01*
X124794553Y-75024389D01*
X124712569Y-75091968D01*
X124602778Y-75181191D01*
X124461513Y-75295348D01*
X124395564Y-75348573D01*
X123978891Y-75684831D01*
X124444047Y-76059551D01*
X124570542Y-76162263D01*
X124683954Y-76255904D01*
X124779382Y-76336301D01*
X124851922Y-76399278D01*
X124896674Y-76440661D01*
X124909203Y-76455687D01*
X124891623Y-76475722D01*
X124842174Y-76520837D01*
X124765789Y-76586823D01*
X124667405Y-76669471D01*
X124551958Y-76764572D01*
X124450592Y-76846821D01*
X124324902Y-76948171D01*
X124211848Y-77039376D01*
X124116422Y-77116405D01*
X124043617Y-77175226D01*
X123998424Y-77211809D01*
X123985494Y-77222365D01*
X124001225Y-77238062D01*
X124048877Y-77279255D01*
X124123698Y-77341991D01*
X124220933Y-77422314D01*
X124335830Y-77516269D01*
X124450468Y-77609263D01*
X124577045Y-77712776D01*
X124689752Y-77807263D01*
X124783893Y-77888598D01*
X124854775Y-77952653D01*
X124897702Y-77995302D01*
X124908572Y-78011947D01*
X124887239Y-78032083D01*
X124834270Y-78077339D01*
X124754785Y-78143484D01*
X124653901Y-78226282D01*
X124536737Y-78321503D01*
X124436681Y-78402206D01*
X124312188Y-78503509D01*
X124202014Y-78595501D01*
X124110856Y-78674067D01*
X124043409Y-78735092D01*
X124004369Y-78774462D01*
X123996824Y-78787680D01*
X124019697Y-78806549D01*
X124074010Y-78850596D01*
X124154505Y-78915581D01*
X124255921Y-78997260D01*
X124372998Y-79091392D01*
X124462352Y-79163142D01*
X124586658Y-79263389D01*
X124698226Y-79354286D01*
X124791956Y-79431601D01*
X124862748Y-79491104D01*
X124905502Y-79528565D01*
X124916054Y-79539495D01*
X124900270Y-79558304D01*
X124852280Y-79602045D01*
X124776908Y-79666645D01*
X124678977Y-79748033D01*
X124563312Y-79842136D01*
X124452744Y-79930598D01*
X124325348Y-80032217D01*
X124211070Y-80124228D01*
X124114807Y-80202617D01*
X124041458Y-80263371D01*
X123995920Y-80302476D01*
X123982735Y-80315741D01*
X124000407Y-80332971D01*
X124050073Y-80375363D01*
X124126839Y-80438896D01*
X124225807Y-80519548D01*
X124342085Y-80613300D01*
X124452629Y-80701685D01*
X124579610Y-80803662D01*
X124693063Y-80896368D01*
X124788168Y-80975731D01*
X124860106Y-81037684D01*
X124904057Y-81078158D01*
X124915787Y-81092710D01*
X124896352Y-81111533D01*
X124845240Y-81155472D01*
X124767541Y-81220305D01*
X124668347Y-81301812D01*
X124552748Y-81395771D01*
X124462352Y-81468654D01*
X124337412Y-81569116D01*
X124224407Y-81660089D01*
X124128591Y-81737334D01*
X124055218Y-81796613D01*
X124009545Y-81833687D01*
X123996820Y-81844198D01*
X124009254Y-81862734D01*
X124053914Y-81906455D01*
X124126181Y-81971303D01*
X124221435Y-82053225D01*
X124335057Y-82148165D01*
X124450034Y-82242061D01*
X124576673Y-82345622D01*
X124689444Y-82440159D01*
X124783655Y-82521545D01*
X124854613Y-82585657D01*
X124897626Y-82628369D01*
X124908572Y-82645095D01*
X124887239Y-82665231D01*
X124834270Y-82710488D01*
X124754785Y-82776632D01*
X124653901Y-82859431D01*
X124536737Y-82954651D01*
X124436681Y-83035354D01*
X124312193Y-83136640D01*
X124202022Y-83228594D01*
X124110866Y-83307104D01*
X124043418Y-83368059D01*
X124004373Y-83407349D01*
X123996824Y-83420498D01*
X124020095Y-83439708D01*
X124074167Y-83483714D01*
X124153216Y-83547796D01*
X124251419Y-83627235D01*
X124362952Y-83717311D01*
X124385916Y-83735841D01*
X124498168Y-83827298D01*
X124596747Y-83909325D01*
X124676159Y-83977208D01*
X124730912Y-84026237D01*
X124755512Y-84051698D01*
X124756333Y-84053623D01*
X124742687Y-84080485D01*
X124707035Y-84132093D01*
X124660779Y-84192571D01*
X124565225Y-84312582D01*
X124032342Y-83884023D01*
X123894863Y-83773498D01*
X123768289Y-83671815D01*
X123657548Y-83582927D01*
X123567569Y-83510788D01*
X123503278Y-83459349D01*
X123469606Y-83432565D01*
X123466768Y-83430353D01*
X123463484Y-83416372D01*
X123479599Y-83390667D01*
X123518400Y-83350205D01*
X123583174Y-83291950D01*
X123677210Y-83212866D01*
X123803795Y-83109919D01*
X123880414Y-83048473D01*
X124006203Y-82947472D01*
X124120593Y-82854764D01*
X124218146Y-82774826D01*
X124293422Y-82712133D01*
X124340985Y-82671163D01*
X124354716Y-82658005D01*
X124357930Y-82643079D01*
X124345703Y-82619582D01*
X124314486Y-82584193D01*
X124260728Y-82533594D01*
X124180878Y-82464463D01*
X124071386Y-82373479D01*
X123928701Y-82257324D01*
X123910556Y-82242649D01*
X123783724Y-82139718D01*
X123670257Y-82046862D01*
X123574907Y-81968032D01*
X123502426Y-81907180D01*
X123457566Y-81868258D01*
X123444742Y-81855237D01*
X123464019Y-81839519D01*
X123514935Y-81798320D01*
X123592500Y-81735671D01*
X123691723Y-81655599D01*
X123807614Y-81562134D01*
X123909666Y-81479868D01*
X124035558Y-81377928D01*
X124148790Y-81285322D01*
X124244346Y-81206230D01*
X124317205Y-81144831D01*
X124362348Y-81105305D01*
X124375128Y-81092260D01*
X124359343Y-81073376D01*
X124311350Y-81029567D01*
X124235974Y-80964907D01*
X124138037Y-80883472D01*
X124022366Y-80789338D01*
X123911818Y-80700884D01*
X123784432Y-80599268D01*
X123670176Y-80507259D01*
X123573943Y-80428871D01*
X123500631Y-80368117D01*
X123455136Y-80329009D01*
X123441989Y-80315741D01*
X123459720Y-80298521D01*
X123509458Y-80256162D01*
X123586301Y-80192681D01*
X123685347Y-80112098D01*
X123801695Y-80018433D01*
X123912058Y-79930320D01*
X124039069Y-79828430D01*
X124152530Y-79735765D01*
X124247619Y-79656397D01*
X124319513Y-79594402D01*
X124363392Y-79553851D01*
X124375035Y-79539217D01*
X124355539Y-79520234D01*
X124304350Y-79476171D01*
X124226566Y-79411254D01*
X124127286Y-79329711D01*
X124011608Y-79235767D01*
X123921426Y-79163142D01*
X123796424Y-79062743D01*
X123683344Y-78971774D01*
X123587449Y-78894484D01*
X123514006Y-78835119D01*
X123468279Y-78797927D01*
X123455545Y-78787327D01*
X123467779Y-78768568D01*
X123512271Y-78724979D01*
X123584250Y-78660738D01*
X123678946Y-78580021D01*
X123791586Y-78487004D01*
X123881632Y-78414351D01*
X124007239Y-78313497D01*
X124121436Y-78220947D01*
X124218776Y-78141182D01*
X124293818Y-78078683D01*
X124341115Y-78037934D01*
X124354583Y-78025017D01*
X124357661Y-78010050D01*
X124345115Y-77986348D01*
X124313408Y-77950606D01*
X124259001Y-77899518D01*
X124178359Y-77829780D01*
X124067943Y-77738085D01*
X123924216Y-77621129D01*
X123910249Y-77609835D01*
X123783416Y-77506907D01*
X123669960Y-77414047D01*
X123574631Y-77335205D01*
X123502180Y-77274334D01*
X123457355Y-77235387D01*
X123444568Y-77222338D01*
X123463905Y-77206604D01*
X123514897Y-77165417D01*
X123592545Y-77102805D01*
X123691853Y-77022796D01*
X123807823Y-76929418D01*
X123909666Y-76847450D01*
X124035268Y-76745535D01*
X124147741Y-76652648D01*
X124242144Y-76573005D01*
X124313536Y-76510819D01*
X124356974Y-76470305D01*
X124368278Y-76456344D01*
X124350686Y-76436167D01*
X124301180Y-76390903D01*
X124224665Y-76324735D01*
X124126046Y-76241848D01*
X124010228Y-76146425D01*
X123903452Y-76059817D01*
X123438626Y-75685363D01*
X123809378Y-75385235D01*
X123929673Y-75287881D01*
X124044310Y-75195153D01*
X124145701Y-75113186D01*
X124226261Y-75048110D01*
X124278405Y-75006060D01*
X124280881Y-75004068D01*
X124335214Y-74956482D01*
X124368949Y-74919342D01*
X124374955Y-74905031D01*
X124355440Y-74885936D01*
X124304163Y-74841867D01*
X124226238Y-74777048D01*
X124126782Y-74695706D01*
X124010908Y-74602064D01*
X123921426Y-74530390D01*
X123796316Y-74430414D01*
X123683199Y-74339789D01*
X123587350Y-74262762D01*
X123514046Y-74203577D01*
X123468563Y-74166480D01*
X123456102Y-74155928D01*
X123468669Y-74137122D01*
X123513628Y-74093415D01*
X123586308Y-74028865D01*
X123682035Y-73947532D01*
X123796137Y-73853473D01*
X123907501Y-73763825D01*
X124034936Y-73661723D01*
X124149347Y-73568926D01*
X124245817Y-73489513D01*
X124319426Y-73427568D01*
X124365257Y-73387171D01*
X124378704Y-73372777D01*
X124361546Y-73353835D01*
X124312761Y-73310129D01*
X124237597Y-73246098D01*
X124141300Y-73166180D01*
X124029118Y-73074816D01*
X123975610Y-73031758D01*
X123853072Y-72933260D01*
X123739207Y-72841264D01*
X123640470Y-72761024D01*
X123563317Y-72697791D01*
X123514203Y-72656819D01*
X123504826Y-72648704D01*
X123438467Y-72589908D01*
X123909707Y-72214977D01*
X124036966Y-72112844D01*
X124150707Y-72019863D01*
X124246111Y-71940114D01*
X124318355Y-71877678D01*
X124362619Y-71836635D01*
X124374612Y-71821494D01*
X124355292Y-71802246D01*
X124304226Y-71757753D01*
X124226384Y-71692170D01*
X124126739Y-71609650D01*
X124010262Y-71514349D01*
X123903004Y-71427419D01*
X123437730Y-71051897D01*
X123908883Y-70673777D01*
X124036185Y-70570939D01*
X124150350Y-70477420D01*
X124246520Y-70397307D01*
X124319837Y-70334684D01*
X124365443Y-70293637D01*
X124378796Y-70278616D01*
X124361148Y-70260574D01*
X124313053Y-70218426D01*
X124240853Y-70157374D01*
X124150893Y-70082619D01*
X124049516Y-69999364D01*
X123943066Y-69912808D01*
X123837885Y-69828154D01*
X123740318Y-69750604D01*
X123656708Y-69685358D01*
X123635194Y-69668885D01*
X123618732Y-69649567D01*
X123621763Y-69623101D01*
X123648205Y-69579850D01*
X123697317Y-69516014D01*
X123749701Y-69453258D01*
X123791685Y-69408488D01*
X123814185Y-69391389D01*
X123814195Y-69391389D01*
X123836798Y-69405510D01*
X123890116Y-69444910D01*
X123968606Y-69505145D01*
X124066725Y-69581773D01*
X124178932Y-69670350D01*
X124299685Y-69766433D01*
X124423441Y-69865578D01*
X124544658Y-69963343D01*
X124657793Y-70055284D01*
X124757306Y-70136957D01*
X124837653Y-70203920D01*
X124893292Y-70251729D01*
X124918681Y-70275941D01*
X124919657Y-70277663D01*
X124902442Y-70296158D01*
X124853295Y-70339895D01*
X124777062Y-70404793D01*
X124678592Y-70486774D01*
X124562729Y-70581757D01*
X124449965Y-70673072D01*
X123978966Y-71052393D01*
X124373529Y-71371626D01*
X124495105Y-71469831D01*
X124608884Y-71561443D01*
X124708156Y-71641081D01*
X124786213Y-71703366D01*
X124836344Y-71742921D01*
X124844528Y-71749240D01*
X124892436Y-71789491D01*
X124919040Y-71818949D01*
X124920963Y-71824083D01*
X124903564Y-71841427D01*
X124903564Y-71841427D01*
G37*
X124903564Y-71841427D02*
X124855298Y-71883304D01*
X124782062Y-71944906D01*
X124689753Y-72021424D01*
X124584268Y-72108049D01*
X124471504Y-72199974D01*
X124357358Y-72292390D01*
X124247726Y-72380489D01*
X124148507Y-72459463D01*
X124065596Y-72524503D01*
X124008274Y-72568284D01*
X124004091Y-72581473D01*
X124017650Y-72605282D01*
X124052271Y-72642785D01*
X124111275Y-72697057D01*
X124197985Y-72771173D01*
X124315720Y-72868207D01*
X124447569Y-72974947D01*
X124575101Y-73078309D01*
X124689534Y-73172310D01*
X124786032Y-73252875D01*
X124859759Y-73315928D01*
X124905878Y-73357392D01*
X124919782Y-73372867D01*
X124901786Y-73391423D01*
X124851742Y-73434991D01*
X124774570Y-73499501D01*
X124675190Y-73580881D01*
X124558522Y-73675060D01*
X124447829Y-73763410D01*
X124300073Y-73881483D01*
X124186384Y-73974236D01*
X124103357Y-74044781D01*
X124047590Y-74096234D01*
X124015678Y-74131708D01*
X124004219Y-74154316D01*
X124008037Y-74165761D01*
X124033344Y-74186947D01*
X124089000Y-74232367D01*
X124168613Y-74296884D01*
X124265792Y-74375359D01*
X124374147Y-74462655D01*
X124487286Y-74553635D01*
X124598817Y-74643161D01*
X124702351Y-74726094D01*
X124791496Y-74797299D01*
X124859861Y-74851636D01*
X124901055Y-74883969D01*
X124908050Y-74889266D01*
X124915834Y-74896047D01*
X124917831Y-74904738D01*
X124910371Y-74918629D01*
X124889785Y-74941008D01*
X124852402Y-74975165D01*
X124794553Y-75024389D01*
X124712569Y-75091968D01*
X124602778Y-75181191D01*
X124461513Y-75295348D01*
X124395564Y-75348573D01*
X123978891Y-75684831D01*
X124444047Y-76059551D01*
X124570542Y-76162263D01*
X124683954Y-76255904D01*
X124779382Y-76336301D01*
X124851922Y-76399278D01*
X124896674Y-76440661D01*
X124909203Y-76455687D01*
X124891623Y-76475722D01*
X124842174Y-76520837D01*
X124765789Y-76586823D01*
X124667405Y-76669471D01*
X124551958Y-76764572D01*
X124450592Y-76846821D01*
X124324902Y-76948171D01*
X124211848Y-77039376D01*
X124116422Y-77116405D01*
X124043617Y-77175226D01*
X123998424Y-77211809D01*
X123985494Y-77222365D01*
X124001225Y-77238062D01*
X124048877Y-77279255D01*
X124123698Y-77341991D01*
X124220933Y-77422314D01*
X124335830Y-77516269D01*
X124450468Y-77609263D01*
X124577045Y-77712776D01*
X124689752Y-77807263D01*
X124783893Y-77888598D01*
X124854775Y-77952653D01*
X124897702Y-77995302D01*
X124908572Y-78011947D01*
X124887239Y-78032083D01*
X124834270Y-78077339D01*
X124754785Y-78143484D01*
X124653901Y-78226282D01*
X124536737Y-78321503D01*
X124436681Y-78402206D01*
X124312188Y-78503509D01*
X124202014Y-78595501D01*
X124110856Y-78674067D01*
X124043409Y-78735092D01*
X124004369Y-78774462D01*
X123996824Y-78787680D01*
X124019697Y-78806549D01*
X124074010Y-78850596D01*
X124154505Y-78915581D01*
X124255921Y-78997260D01*
X124372998Y-79091392D01*
X124462352Y-79163142D01*
X124586658Y-79263389D01*
X124698226Y-79354286D01*
X124791956Y-79431601D01*
X124862748Y-79491104D01*
X124905502Y-79528565D01*
X124916054Y-79539495D01*
X124900270Y-79558304D01*
X124852280Y-79602045D01*
X124776908Y-79666645D01*
X124678977Y-79748033D01*
X124563312Y-79842136D01*
X124452744Y-79930598D01*
X124325348Y-80032217D01*
X124211070Y-80124228D01*
X124114807Y-80202617D01*
X124041458Y-80263371D01*
X123995920Y-80302476D01*
X123982735Y-80315741D01*
X124000407Y-80332971D01*
X124050073Y-80375363D01*
X124126839Y-80438896D01*
X124225807Y-80519548D01*
X124342085Y-80613300D01*
X124452629Y-80701685D01*
X124579610Y-80803662D01*
X124693063Y-80896368D01*
X124788168Y-80975731D01*
X124860106Y-81037684D01*
X124904057Y-81078158D01*
X124915787Y-81092710D01*
X124896352Y-81111533D01*
X124845240Y-81155472D01*
X124767541Y-81220305D01*
X124668347Y-81301812D01*
X124552748Y-81395771D01*
X124462352Y-81468654D01*
X124337412Y-81569116D01*
X124224407Y-81660089D01*
X124128591Y-81737334D01*
X124055218Y-81796613D01*
X124009545Y-81833687D01*
X123996820Y-81844198D01*
X124009254Y-81862734D01*
X124053914Y-81906455D01*
X124126181Y-81971303D01*
X124221435Y-82053225D01*
X124335057Y-82148165D01*
X124450034Y-82242061D01*
X124576673Y-82345622D01*
X124689444Y-82440159D01*
X124783655Y-82521545D01*
X124854613Y-82585657D01*
X124897626Y-82628369D01*
X124908572Y-82645095D01*
X124887239Y-82665231D01*
X124834270Y-82710488D01*
X124754785Y-82776632D01*
X124653901Y-82859431D01*
X124536737Y-82954651D01*
X124436681Y-83035354D01*
X124312193Y-83136640D01*
X124202022Y-83228594D01*
X124110866Y-83307104D01*
X124043418Y-83368059D01*
X124004373Y-83407349D01*
X123996824Y-83420498D01*
X124020095Y-83439708D01*
X124074167Y-83483714D01*
X124153216Y-83547796D01*
X124251419Y-83627235D01*
X124362952Y-83717311D01*
X124385916Y-83735841D01*
X124498168Y-83827298D01*
X124596747Y-83909325D01*
X124676159Y-83977208D01*
X124730912Y-84026237D01*
X124755512Y-84051698D01*
X124756333Y-84053623D01*
X124742687Y-84080485D01*
X124707035Y-84132093D01*
X124660779Y-84192571D01*
X124565225Y-84312582D01*
X124032342Y-83884023D01*
X123894863Y-83773498D01*
X123768289Y-83671815D01*
X123657548Y-83582927D01*
X123567569Y-83510788D01*
X123503278Y-83459349D01*
X123469606Y-83432565D01*
X123466768Y-83430353D01*
X123463484Y-83416372D01*
X123479599Y-83390667D01*
X123518400Y-83350205D01*
X123583174Y-83291950D01*
X123677210Y-83212866D01*
X123803795Y-83109919D01*
X123880414Y-83048473D01*
X124006203Y-82947472D01*
X124120593Y-82854764D01*
X124218146Y-82774826D01*
X124293422Y-82712133D01*
X124340985Y-82671163D01*
X124354716Y-82658005D01*
X124357930Y-82643079D01*
X124345703Y-82619582D01*
X124314486Y-82584193D01*
X124260728Y-82533594D01*
X124180878Y-82464463D01*
X124071386Y-82373479D01*
X123928701Y-82257324D01*
X123910556Y-82242649D01*
X123783724Y-82139718D01*
X123670257Y-82046862D01*
X123574907Y-81968032D01*
X123502426Y-81907180D01*
X123457566Y-81868258D01*
X123444742Y-81855237D01*
X123464019Y-81839519D01*
X123514935Y-81798320D01*
X123592500Y-81735671D01*
X123691723Y-81655599D01*
X123807614Y-81562134D01*
X123909666Y-81479868D01*
X124035558Y-81377928D01*
X124148790Y-81285322D01*
X124244346Y-81206230D01*
X124317205Y-81144831D01*
X124362348Y-81105305D01*
X124375128Y-81092260D01*
X124359343Y-81073376D01*
X124311350Y-81029567D01*
X124235974Y-80964907D01*
X124138037Y-80883472D01*
X124022366Y-80789338D01*
X123911818Y-80700884D01*
X123784432Y-80599268D01*
X123670176Y-80507259D01*
X123573943Y-80428871D01*
X123500631Y-80368117D01*
X123455136Y-80329009D01*
X123441989Y-80315741D01*
X123459720Y-80298521D01*
X123509458Y-80256162D01*
X123586301Y-80192681D01*
X123685347Y-80112098D01*
X123801695Y-80018433D01*
X123912058Y-79930320D01*
X124039069Y-79828430D01*
X124152530Y-79735765D01*
X124247619Y-79656397D01*
X124319513Y-79594402D01*
X124363392Y-79553851D01*
X124375035Y-79539217D01*
X124355539Y-79520234D01*
X124304350Y-79476171D01*
X124226566Y-79411254D01*
X124127286Y-79329711D01*
X124011608Y-79235767D01*
X123921426Y-79163142D01*
X123796424Y-79062743D01*
X123683344Y-78971774D01*
X123587449Y-78894484D01*
X123514006Y-78835119D01*
X123468279Y-78797927D01*
X123455545Y-78787327D01*
X123467779Y-78768568D01*
X123512271Y-78724979D01*
X123584250Y-78660738D01*
X123678946Y-78580021D01*
X123791586Y-78487004D01*
X123881632Y-78414351D01*
X124007239Y-78313497D01*
X124121436Y-78220947D01*
X124218776Y-78141182D01*
X124293818Y-78078683D01*
X124341115Y-78037934D01*
X124354583Y-78025017D01*
X124357661Y-78010050D01*
X124345115Y-77986348D01*
X124313408Y-77950606D01*
X124259001Y-77899518D01*
X124178359Y-77829780D01*
X124067943Y-77738085D01*
X123924216Y-77621129D01*
X123910249Y-77609835D01*
X123783416Y-77506907D01*
X123669960Y-77414047D01*
X123574631Y-77335205D01*
X123502180Y-77274334D01*
X123457355Y-77235387D01*
X123444568Y-77222338D01*
X123463905Y-77206604D01*
X123514897Y-77165417D01*
X123592545Y-77102805D01*
X123691853Y-77022796D01*
X123807823Y-76929418D01*
X123909666Y-76847450D01*
X124035268Y-76745535D01*
X124147741Y-76652648D01*
X124242144Y-76573005D01*
X124313536Y-76510819D01*
X124356974Y-76470305D01*
X124368278Y-76456344D01*
X124350686Y-76436167D01*
X124301180Y-76390903D01*
X124224665Y-76324735D01*
X124126046Y-76241848D01*
X124010228Y-76146425D01*
X123903452Y-76059817D01*
X123438626Y-75685363D01*
X123809378Y-75385235D01*
X123929673Y-75287881D01*
X124044310Y-75195153D01*
X124145701Y-75113186D01*
X124226261Y-75048110D01*
X124278405Y-75006060D01*
X124280881Y-75004068D01*
X124335214Y-74956482D01*
X124368949Y-74919342D01*
X124374955Y-74905031D01*
X124355440Y-74885936D01*
X124304163Y-74841867D01*
X124226238Y-74777048D01*
X124126782Y-74695706D01*
X124010908Y-74602064D01*
X123921426Y-74530390D01*
X123796316Y-74430414D01*
X123683199Y-74339789D01*
X123587350Y-74262762D01*
X123514046Y-74203577D01*
X123468563Y-74166480D01*
X123456102Y-74155928D01*
X123468669Y-74137122D01*
X123513628Y-74093415D01*
X123586308Y-74028865D01*
X123682035Y-73947532D01*
X123796137Y-73853473D01*
X123907501Y-73763825D01*
X124034936Y-73661723D01*
X124149347Y-73568926D01*
X124245817Y-73489513D01*
X124319426Y-73427568D01*
X124365257Y-73387171D01*
X124378704Y-73372777D01*
X124361546Y-73353835D01*
X124312761Y-73310129D01*
X124237597Y-73246098D01*
X124141300Y-73166180D01*
X124029118Y-73074816D01*
X123975610Y-73031758D01*
X123853072Y-72933260D01*
X123739207Y-72841264D01*
X123640470Y-72761024D01*
X123563317Y-72697791D01*
X123514203Y-72656819D01*
X123504826Y-72648704D01*
X123438467Y-72589908D01*
X123909707Y-72214977D01*
X124036966Y-72112844D01*
X124150707Y-72019863D01*
X124246111Y-71940114D01*
X124318355Y-71877678D01*
X124362619Y-71836635D01*
X124374612Y-71821494D01*
X124355292Y-71802246D01*
X124304226Y-71757753D01*
X124226384Y-71692170D01*
X124126739Y-71609650D01*
X124010262Y-71514349D01*
X123903004Y-71427419D01*
X123437730Y-71051897D01*
X123908883Y-70673777D01*
X124036185Y-70570939D01*
X124150350Y-70477420D01*
X124246520Y-70397307D01*
X124319837Y-70334684D01*
X124365443Y-70293637D01*
X124378796Y-70278616D01*
X124361148Y-70260574D01*
X124313053Y-70218426D01*
X124240853Y-70157374D01*
X124150893Y-70082619D01*
X124049516Y-69999364D01*
X123943066Y-69912808D01*
X123837885Y-69828154D01*
X123740318Y-69750604D01*
X123656708Y-69685358D01*
X123635194Y-69668885D01*
X123618732Y-69649567D01*
X123621763Y-69623101D01*
X123648205Y-69579850D01*
X123697317Y-69516014D01*
X123749701Y-69453258D01*
X123791685Y-69408488D01*
X123814185Y-69391389D01*
X123814195Y-69391389D01*
X123836798Y-69405510D01*
X123890116Y-69444910D01*
X123968606Y-69505145D01*
X124066725Y-69581773D01*
X124178932Y-69670350D01*
X124299685Y-69766433D01*
X124423441Y-69865578D01*
X124544658Y-69963343D01*
X124657793Y-70055284D01*
X124757306Y-70136957D01*
X124837653Y-70203920D01*
X124893292Y-70251729D01*
X124918681Y-70275941D01*
X124919657Y-70277663D01*
X124902442Y-70296158D01*
X124853295Y-70339895D01*
X124777062Y-70404793D01*
X124678592Y-70486774D01*
X124562729Y-70581757D01*
X124449965Y-70673072D01*
X123978966Y-71052393D01*
X124373529Y-71371626D01*
X124495105Y-71469831D01*
X124608884Y-71561443D01*
X124708156Y-71641081D01*
X124786213Y-71703366D01*
X124836344Y-71742921D01*
X124844528Y-71749240D01*
X124892436Y-71789491D01*
X124919040Y-71818949D01*
X124920963Y-71824083D01*
X124903564Y-71841427D01*
D12*
X138538000Y-83844000D02*
X139338000Y-83844000D01*
X139338000Y-83844000D02*
X139338000Y-86844000D01*
X139338000Y-86844000D02*
X138538000Y-86844000D01*
X138538000Y-86844000D02*
X138538000Y-83844000D01*
X137838000Y-83544000D02*
G75*
G03X137838000Y-83544000I-200000J0D01*
G01*
X137438000Y-83544000D02*
X137638000Y-83444000D01*
X137638000Y-83444000D02*
X137838000Y-83544000D01*
X137838000Y-83544000D02*
X137538000Y-83644000D01*
D13*
X147744000Y-65980000D02*
X147744000Y-88960000D01*
X147744000Y-88960000D02*
X150404000Y-88960000D01*
X150404000Y-88960000D02*
X150404000Y-65980000D01*
X150404000Y-65980000D02*
X147744000Y-65980000D01*
X150404000Y-66930000D02*
X156404000Y-66930000D01*
X156404000Y-66930000D02*
X156404000Y-67690000D01*
X156404000Y-67690000D02*
X150404000Y-67690000D01*
X150404000Y-66990000D02*
X156404000Y-66990000D01*
X150404000Y-67110000D02*
X156404000Y-67110000D01*
X150404000Y-67230000D02*
X156404000Y-67230000D01*
X150404000Y-67350000D02*
X156404000Y-67350000D01*
X150404000Y-67470000D02*
X156404000Y-67470000D01*
X150404000Y-67590000D02*
X156404000Y-67590000D01*
X147346929Y-66930000D02*
X147744000Y-66930000D01*
X147346929Y-67690000D02*
X147744000Y-67690000D01*
X144874000Y-66930000D02*
X145261071Y-66930000D01*
X144874000Y-67690000D02*
X145261071Y-67690000D01*
X147744000Y-68580000D02*
X150404000Y-68580000D01*
X150404000Y-69470000D02*
X156404000Y-69470000D01*
X156404000Y-69470000D02*
X156404000Y-70230000D01*
X156404000Y-70230000D02*
X150404000Y-70230000D01*
X147346929Y-69470000D02*
X147744000Y-69470000D01*
X147346929Y-70230000D02*
X147744000Y-70230000D01*
X144806929Y-69470000D02*
X145261071Y-69470000D01*
X144806929Y-70230000D02*
X145261071Y-70230000D01*
X147744000Y-71120000D02*
X150404000Y-71120000D01*
X150404000Y-72010000D02*
X156404000Y-72010000D01*
X156404000Y-72010000D02*
X156404000Y-72770000D01*
X156404000Y-72770000D02*
X150404000Y-72770000D01*
X147346929Y-72010000D02*
X147744000Y-72010000D01*
X147346929Y-72770000D02*
X147744000Y-72770000D01*
X144806929Y-72010000D02*
X145261071Y-72010000D01*
X144806929Y-72770000D02*
X145261071Y-72770000D01*
X147744000Y-73660000D02*
X150404000Y-73660000D01*
X150404000Y-74550000D02*
X156404000Y-74550000D01*
X156404000Y-74550000D02*
X156404000Y-75310000D01*
X156404000Y-75310000D02*
X150404000Y-75310000D01*
X147346929Y-74550000D02*
X147744000Y-74550000D01*
X147346929Y-75310000D02*
X147744000Y-75310000D01*
X144806929Y-74550000D02*
X145261071Y-74550000D01*
X144806929Y-75310000D02*
X145261071Y-75310000D01*
X147744000Y-76200000D02*
X150404000Y-76200000D01*
X150404000Y-77090000D02*
X156404000Y-77090000D01*
X156404000Y-77090000D02*
X156404000Y-77850000D01*
X156404000Y-77850000D02*
X150404000Y-77850000D01*
X147346929Y-77090000D02*
X147744000Y-77090000D01*
X147346929Y-77850000D02*
X147744000Y-77850000D01*
X144806929Y-77090000D02*
X145261071Y-77090000D01*
X144806929Y-77850000D02*
X145261071Y-77850000D01*
X147744000Y-78740000D02*
X150404000Y-78740000D01*
X150404000Y-79630000D02*
X156404000Y-79630000D01*
X156404000Y-79630000D02*
X156404000Y-80390000D01*
X156404000Y-80390000D02*
X150404000Y-80390000D01*
X147346929Y-79630000D02*
X147744000Y-79630000D01*
X147346929Y-80390000D02*
X147744000Y-80390000D01*
X144806929Y-79630000D02*
X145261071Y-79630000D01*
X144806929Y-80390000D02*
X145261071Y-80390000D01*
X147744000Y-81280000D02*
X150404000Y-81280000D01*
X150404000Y-82170000D02*
X156404000Y-82170000D01*
X156404000Y-82170000D02*
X156404000Y-82930000D01*
X156404000Y-82930000D02*
X150404000Y-82930000D01*
X147346929Y-82170000D02*
X147744000Y-82170000D01*
X147346929Y-82930000D02*
X147744000Y-82930000D01*
X144806929Y-82170000D02*
X145261071Y-82170000D01*
X144806929Y-82930000D02*
X145261071Y-82930000D01*
X147744000Y-83820000D02*
X150404000Y-83820000D01*
X150404000Y-84710000D02*
X156404000Y-84710000D01*
X156404000Y-84710000D02*
X156404000Y-85470000D01*
X156404000Y-85470000D02*
X150404000Y-85470000D01*
X147346929Y-84710000D02*
X147744000Y-84710000D01*
X147346929Y-85470000D02*
X147744000Y-85470000D01*
X144806929Y-84710000D02*
X145261071Y-84710000D01*
X144806929Y-85470000D02*
X145261071Y-85470000D01*
X147744000Y-86360000D02*
X150404000Y-86360000D01*
X150404000Y-87250000D02*
X156404000Y-87250000D01*
X156404000Y-87250000D02*
X156404000Y-88010000D01*
X156404000Y-88010000D02*
X150404000Y-88010000D01*
X147346929Y-87250000D02*
X147744000Y-87250000D01*
X147346929Y-88010000D02*
X147744000Y-88010000D01*
X144806929Y-87250000D02*
X145261071Y-87250000D01*
X144806929Y-88010000D02*
X145261071Y-88010000D01*
X142494000Y-67310000D02*
X142494000Y-66040000D01*
X142494000Y-66040000D02*
X143764000Y-66040000D01*
D14*
X122565160Y-70360740D02*
X122565160Y-71259900D01*
X122565160Y-71259900D02*
X122565160Y-71859340D01*
X122565160Y-81658660D02*
X122565160Y-82258100D01*
X122565160Y-82258100D02*
X122565160Y-83157260D01*
X119166640Y-84257080D02*
X117015260Y-84257080D01*
X113817400Y-84257080D02*
X110909100Y-84257080D01*
X110909100Y-84257080D02*
X110909100Y-69260920D01*
X110909100Y-69260920D02*
X113817400Y-69260920D01*
X117015260Y-69260920D02*
X119166640Y-69260920D01*
X123065540Y-83632240D02*
X123065540Y-82258100D01*
X123065540Y-82258100D02*
X122565160Y-82258100D01*
X122565160Y-71259900D02*
X123065540Y-71259900D01*
X123065540Y-71259900D02*
X123065540Y-69873060D01*
X112649000Y-78757980D02*
X116649500Y-79758740D01*
X116649500Y-79758740D02*
X116649500Y-80756960D01*
X116649500Y-80756960D02*
X112649000Y-81757720D01*
X112649000Y-74760020D02*
X116649500Y-73759260D01*
X116649500Y-73759260D02*
X116649500Y-72761040D01*
X116649500Y-72761040D02*
X112649000Y-71760280D01*
D13*
X129570267Y-69086000D02*
X129227733Y-69086000D01*
X129570267Y-70106000D02*
X129227733Y-70106000D01*
X125139267Y-68074000D02*
X124796733Y-68074000D01*
X125139267Y-67054000D02*
X124796733Y-67054000D01*
X139782733Y-65022000D02*
X140125267Y-65022000D01*
X139782733Y-66042000D02*
X140125267Y-66042000D01*
X136607733Y-88648000D02*
X136950267Y-88648000D01*
X136607733Y-87628000D02*
X136950267Y-87628000D01*
X140379267Y-87628000D02*
X140036733Y-87628000D01*
X140379267Y-88648000D02*
X140036733Y-88648000D01*
X125768000Y-64797000D02*
X123308000Y-64797000D01*
X123308000Y-64797000D02*
X123308000Y-66267000D01*
X123308000Y-66267000D02*
X125768000Y-66267000D01*
X133602000Y-87420267D02*
X133602000Y-87077733D01*
X134622000Y-87420267D02*
X134622000Y-87077733D01*
X114471267Y-66038000D02*
X114128733Y-66038000D01*
X114471267Y-67058000D02*
X114128733Y-67058000D01*
X119462733Y-66038000D02*
X119805267Y-66038000D01*
X119462733Y-67058000D02*
X119805267Y-67058000D01*
X135591733Y-65022000D02*
X135934267Y-65022000D01*
X135591733Y-66042000D02*
X135934267Y-66042000D01*
X136168000Y-72922000D02*
X139168000Y-72922000D01*
X136168000Y-75922000D02*
X140168000Y-75922000D01*
X129584267Y-71630000D02*
X129241733Y-71630000D01*
X129584267Y-70610000D02*
X129241733Y-70610000D01*
X133842000Y-80554000D02*
X131842000Y-80554000D01*
X131842000Y-80554000D02*
X131842000Y-84454000D01*
X133842000Y-80554000D02*
X133842000Y-84454000D01*
X129570267Y-80774000D02*
X129227733Y-80774000D01*
X129570267Y-79754000D02*
X129227733Y-79754000D01*
X129570267Y-76706000D02*
X129227733Y-76706000D01*
X129570267Y-77726000D02*
X129227733Y-77726000D01*
X129584267Y-73658000D02*
X129241733Y-73658000D01*
X129584267Y-74678000D02*
X129241733Y-74678000D01*
X129584267Y-81532000D02*
X129241733Y-81532000D01*
X129584267Y-82552000D02*
X129241733Y-82552000D01*
X129598267Y-78230000D02*
X129255733Y-78230000D01*
X129598267Y-79250000D02*
X129255733Y-79250000D01*
X129584267Y-76202000D02*
X129241733Y-76202000D01*
X129584267Y-75182000D02*
X129241733Y-75182000D01*
X129570267Y-73154000D02*
X129227733Y-73154000D01*
X129570267Y-72134000D02*
X129227733Y-72134000D01*
X129584267Y-83056000D02*
X129241733Y-83056000D01*
X129584267Y-84076000D02*
X129241733Y-84076000D01*
X138016064Y-69686000D02*
X136811936Y-69686000D01*
X138016064Y-66966000D02*
X136811936Y-66966000D01*
X120828000Y-88057000D02*
X124738000Y-88057000D01*
X124738000Y-88057000D02*
X124738000Y-86187000D01*
X124738000Y-86187000D02*
X120828000Y-86187000D01*
X112498000Y-88057000D02*
X116408000Y-88057000D01*
X112498000Y-86187000D02*
X112498000Y-88057000D01*
X116408000Y-86187000D02*
X112498000Y-86187000D01*
D15*
X138572285Y-82795142D02*
X138572285Y-83183714D01*
X138595142Y-83229428D01*
X138618000Y-83252285D01*
X138663714Y-83275142D01*
X138755142Y-83275142D01*
X138800857Y-83252285D01*
X138823714Y-83229428D01*
X138846571Y-83183714D01*
X138846571Y-82795142D01*
X139326571Y-83275142D02*
X139052285Y-83275142D01*
X139189428Y-83275142D02*
X139189428Y-82795142D01*
X139143714Y-82863714D01*
X139098000Y-82909428D01*
X139052285Y-82932285D01*
D16*
X149085666Y-64492380D02*
X149085666Y-65206666D01*
X149038047Y-65349523D01*
X148942809Y-65444761D01*
X148799952Y-65492380D01*
X148704714Y-65492380D01*
X149514238Y-64587619D02*
X149561857Y-64540000D01*
X149657095Y-64492380D01*
X149895190Y-64492380D01*
X149990428Y-64540000D01*
X150038047Y-64587619D01*
X150085666Y-64682857D01*
X150085666Y-64778095D01*
X150038047Y-64920952D01*
X149466619Y-65492380D01*
X150085666Y-65492380D01*
D14*
X116350095Y-77159619D02*
X116350095Y-76143619D01*
X116737142Y-76143619D01*
X116833904Y-76192000D01*
X116882285Y-76240380D01*
X116930666Y-76337142D01*
X116930666Y-76482285D01*
X116882285Y-76579047D01*
X116833904Y-76627428D01*
X116737142Y-76675809D01*
X116350095Y-76675809D01*
X117898285Y-77159619D02*
X117317714Y-77159619D01*
X117608000Y-77159619D02*
X117608000Y-76143619D01*
X117511238Y-76288761D01*
X117414476Y-76385523D01*
X117317714Y-76433904D01*
D16*
X131627642Y-69826142D02*
X131580023Y-69873761D01*
X131437166Y-69921380D01*
X131341928Y-69921380D01*
X131199071Y-69873761D01*
X131103833Y-69778523D01*
X131056214Y-69683285D01*
X131008595Y-69492809D01*
X131008595Y-69349952D01*
X131056214Y-69159476D01*
X131103833Y-69064238D01*
X131199071Y-68969000D01*
X131341928Y-68921380D01*
X131437166Y-68921380D01*
X131580023Y-68969000D01*
X131627642Y-69016619D01*
X132580023Y-69921380D02*
X132008595Y-69921380D01*
X132294309Y-69921380D02*
X132294309Y-68921380D01*
X132199071Y-69064238D01*
X132103833Y-69159476D01*
X132008595Y-69207095D01*
X133199071Y-68921380D02*
X133294309Y-68921380D01*
X133389547Y-68969000D01*
X133437166Y-69016619D01*
X133484785Y-69111857D01*
X133532404Y-69302333D01*
X133532404Y-69540428D01*
X133484785Y-69730904D01*
X133437166Y-69826142D01*
X133389547Y-69873761D01*
X133294309Y-69921380D01*
X133199071Y-69921380D01*
X133103833Y-69873761D01*
X133056214Y-69826142D01*
X133008595Y-69730904D01*
X132960976Y-69540428D01*
X132960976Y-69302333D01*
X133008595Y-69111857D01*
X133056214Y-69016619D01*
X133103833Y-68969000D01*
X133199071Y-68921380D01*
X127595333Y-68016380D02*
X127262000Y-67540190D01*
X127023904Y-68016380D02*
X127023904Y-67016380D01*
X127404857Y-67016380D01*
X127500095Y-67064000D01*
X127547714Y-67111619D01*
X127595333Y-67206857D01*
X127595333Y-67349714D01*
X127547714Y-67444952D01*
X127500095Y-67492571D01*
X127404857Y-67540190D01*
X127023904Y-67540190D01*
X127976285Y-67111619D02*
X128023904Y-67064000D01*
X128119142Y-67016380D01*
X128357238Y-67016380D01*
X128452476Y-67064000D01*
X128500095Y-67111619D01*
X128547714Y-67206857D01*
X128547714Y-67302095D01*
X128500095Y-67444952D01*
X127928666Y-68016380D01*
X128547714Y-68016380D01*
X142327333Y-65984380D02*
X141994000Y-65508190D01*
X141755904Y-65984380D02*
X141755904Y-64984380D01*
X142136857Y-64984380D01*
X142232095Y-65032000D01*
X142279714Y-65079619D01*
X142327333Y-65174857D01*
X142327333Y-65317714D01*
X142279714Y-65412952D01*
X142232095Y-65460571D01*
X142136857Y-65508190D01*
X141755904Y-65508190D01*
X142660666Y-64984380D02*
X143279714Y-64984380D01*
X142946380Y-65365333D01*
X143089238Y-65365333D01*
X143184476Y-65412952D01*
X143232095Y-65460571D01*
X143279714Y-65555809D01*
X143279714Y-65793904D01*
X143232095Y-65889142D01*
X143184476Y-65936761D01*
X143089238Y-65984380D01*
X142803523Y-65984380D01*
X142708285Y-65936761D01*
X142660666Y-65889142D01*
X135723333Y-87320380D02*
X135390000Y-86844190D01*
X135151904Y-87320380D02*
X135151904Y-86320380D01*
X135532857Y-86320380D01*
X135628095Y-86368000D01*
X135675714Y-86415619D01*
X135723333Y-86510857D01*
X135723333Y-86653714D01*
X135675714Y-86748952D01*
X135628095Y-86796571D01*
X135532857Y-86844190D01*
X135151904Y-86844190D01*
X136580476Y-86653714D02*
X136580476Y-87320380D01*
X136342380Y-86272761D02*
X136104285Y-86987047D01*
X136723333Y-86987047D01*
X141819333Y-87320380D02*
X141486000Y-86844190D01*
X141247904Y-87320380D02*
X141247904Y-86320380D01*
X141628857Y-86320380D01*
X141724095Y-86368000D01*
X141771714Y-86415619D01*
X141819333Y-86510857D01*
X141819333Y-86653714D01*
X141771714Y-86748952D01*
X141724095Y-86796571D01*
X141628857Y-86844190D01*
X141247904Y-86844190D01*
X142724095Y-86320380D02*
X142247904Y-86320380D01*
X142200285Y-86796571D01*
X142247904Y-86748952D01*
X142343142Y-86701333D01*
X142581238Y-86701333D01*
X142676476Y-86748952D01*
X142724095Y-86796571D01*
X142771714Y-86891809D01*
X142771714Y-87129904D01*
X142724095Y-87225142D01*
X142676476Y-87272761D01*
X142581238Y-87320380D01*
X142343142Y-87320380D01*
X142247904Y-87272761D01*
X142200285Y-87225142D01*
X127023904Y-65984380D02*
X127023904Y-64984380D01*
X127262000Y-64984380D01*
X127404857Y-65032000D01*
X127500095Y-65127238D01*
X127547714Y-65222476D01*
X127595333Y-65412952D01*
X127595333Y-65555809D01*
X127547714Y-65746285D01*
X127500095Y-65841523D01*
X127404857Y-65936761D01*
X127262000Y-65984380D01*
X127023904Y-65984380D01*
X127976285Y-65079619D02*
X128023904Y-65032000D01*
X128119142Y-64984380D01*
X128357238Y-64984380D01*
X128452476Y-65032000D01*
X128500095Y-65079619D01*
X128547714Y-65174857D01*
X128547714Y-65270095D01*
X128500095Y-65412952D01*
X127928666Y-65984380D01*
X128547714Y-65984380D01*
X133199142Y-87891857D02*
X133246761Y-87939476D01*
X133294380Y-88082333D01*
X133294380Y-88177571D01*
X133246761Y-88320428D01*
X133151523Y-88415666D01*
X133056285Y-88463285D01*
X132865809Y-88510904D01*
X132722952Y-88510904D01*
X132532476Y-88463285D01*
X132437238Y-88415666D01*
X132342000Y-88320428D01*
X132294380Y-88177571D01*
X132294380Y-88082333D01*
X132342000Y-87939476D01*
X132389619Y-87891857D01*
X133294380Y-86939476D02*
X133294380Y-87510904D01*
X133294380Y-87225190D02*
X132294380Y-87225190D01*
X132437238Y-87320428D01*
X132532476Y-87415666D01*
X132580095Y-87510904D01*
X132294380Y-86606142D02*
X132294380Y-85987095D01*
X132675333Y-86320428D01*
X132675333Y-86177571D01*
X132722952Y-86082333D01*
X132770571Y-86034714D01*
X132865809Y-85987095D01*
X133103904Y-85987095D01*
X133199142Y-86034714D01*
X133246761Y-86082333D01*
X133294380Y-86177571D01*
X133294380Y-86463285D01*
X133246761Y-86558523D01*
X133199142Y-86606142D01*
X116673333Y-67000380D02*
X116340000Y-66524190D01*
X116101904Y-67000380D02*
X116101904Y-66000380D01*
X116482857Y-66000380D01*
X116578095Y-66048000D01*
X116625714Y-66095619D01*
X116673333Y-66190857D01*
X116673333Y-66333714D01*
X116625714Y-66428952D01*
X116578095Y-66476571D01*
X116482857Y-66524190D01*
X116101904Y-66524190D01*
X117530476Y-66000380D02*
X117340000Y-66000380D01*
X117244761Y-66048000D01*
X117197142Y-66095619D01*
X117101904Y-66238476D01*
X117054285Y-66428952D01*
X117054285Y-66809904D01*
X117101904Y-66905142D01*
X117149523Y-66952761D01*
X117244761Y-67000380D01*
X117435238Y-67000380D01*
X117530476Y-66952761D01*
X117578095Y-66905142D01*
X117625714Y-66809904D01*
X117625714Y-66571809D01*
X117578095Y-66476571D01*
X117530476Y-66428952D01*
X117435238Y-66381333D01*
X117244761Y-66381333D01*
X117149523Y-66428952D01*
X117101904Y-66476571D01*
X117054285Y-66571809D01*
X122007333Y-67000380D02*
X121674000Y-66524190D01*
X121435904Y-67000380D02*
X121435904Y-66000380D01*
X121816857Y-66000380D01*
X121912095Y-66048000D01*
X121959714Y-66095619D01*
X122007333Y-66190857D01*
X122007333Y-66333714D01*
X121959714Y-66428952D01*
X121912095Y-66476571D01*
X121816857Y-66524190D01*
X121435904Y-66524190D01*
X122340666Y-66000380D02*
X123007333Y-66000380D01*
X122578761Y-67000380D01*
X133056333Y-65857380D02*
X132723000Y-65381190D01*
X132484904Y-65857380D02*
X132484904Y-64857380D01*
X132865857Y-64857380D01*
X132961095Y-64905000D01*
X133008714Y-64952619D01*
X133056333Y-65047857D01*
X133056333Y-65190714D01*
X133008714Y-65285952D01*
X132961095Y-65333571D01*
X132865857Y-65381190D01*
X132484904Y-65381190D01*
X134008714Y-65857380D02*
X133437285Y-65857380D01*
X133723000Y-65857380D02*
X133723000Y-64857380D01*
X133627761Y-65000238D01*
X133532523Y-65095476D01*
X133437285Y-65143095D01*
X137160095Y-71588380D02*
X137160095Y-72397904D01*
X137207714Y-72493142D01*
X137255333Y-72540761D01*
X137350571Y-72588380D01*
X137541047Y-72588380D01*
X137636285Y-72540761D01*
X137683904Y-72493142D01*
X137731523Y-72397904D01*
X137731523Y-71588380D01*
X138160095Y-71683619D02*
X138207714Y-71636000D01*
X138302952Y-71588380D01*
X138541047Y-71588380D01*
X138636285Y-71636000D01*
X138683904Y-71683619D01*
X138731523Y-71778857D01*
X138731523Y-71874095D01*
X138683904Y-72016952D01*
X138112476Y-72588380D01*
X138731523Y-72588380D01*
X131659333Y-71477142D02*
X131611714Y-71524761D01*
X131468857Y-71572380D01*
X131373619Y-71572380D01*
X131230761Y-71524761D01*
X131135523Y-71429523D01*
X131087904Y-71334285D01*
X131040285Y-71143809D01*
X131040285Y-71000952D01*
X131087904Y-70810476D01*
X131135523Y-70715238D01*
X131230761Y-70620000D01*
X131373619Y-70572380D01*
X131468857Y-70572380D01*
X131611714Y-70620000D01*
X131659333Y-70667619D01*
X132564095Y-70572380D02*
X132087904Y-70572380D01*
X132040285Y-71048571D01*
X132087904Y-71000952D01*
X132183142Y-70953333D01*
X132421238Y-70953333D01*
X132516476Y-71000952D01*
X132564095Y-71048571D01*
X132611714Y-71143809D01*
X132611714Y-71381904D01*
X132564095Y-71477142D01*
X132516476Y-71524761D01*
X132421238Y-71572380D01*
X132183142Y-71572380D01*
X132087904Y-71524761D01*
X132040285Y-71477142D01*
X135072380Y-85320095D02*
X134072380Y-85320095D01*
X134072380Y-85082000D01*
X134120000Y-84939142D01*
X134215238Y-84843904D01*
X134310476Y-84796285D01*
X134500952Y-84748666D01*
X134643809Y-84748666D01*
X134834285Y-84796285D01*
X134929523Y-84843904D01*
X135024761Y-84939142D01*
X135072380Y-85082000D01*
X135072380Y-85320095D01*
X135072380Y-83796285D02*
X135072380Y-84367714D01*
X135072380Y-84082000D02*
X134072380Y-84082000D01*
X134215238Y-84177238D01*
X134310476Y-84272476D01*
X134358095Y-84367714D01*
X131659333Y-80367142D02*
X131611714Y-80414761D01*
X131468857Y-80462380D01*
X131373619Y-80462380D01*
X131230761Y-80414761D01*
X131135523Y-80319523D01*
X131087904Y-80224285D01*
X131040285Y-80033809D01*
X131040285Y-79890952D01*
X131087904Y-79700476D01*
X131135523Y-79605238D01*
X131230761Y-79510000D01*
X131373619Y-79462380D01*
X131468857Y-79462380D01*
X131611714Y-79510000D01*
X131659333Y-79557619D01*
X132611714Y-80462380D02*
X132040285Y-80462380D01*
X132326000Y-80462380D02*
X132326000Y-79462380D01*
X132230761Y-79605238D01*
X132135523Y-79700476D01*
X132040285Y-79748095D01*
X131659333Y-77455142D02*
X131611714Y-77502761D01*
X131468857Y-77550380D01*
X131373619Y-77550380D01*
X131230761Y-77502761D01*
X131135523Y-77407523D01*
X131087904Y-77312285D01*
X131040285Y-77121809D01*
X131040285Y-76978952D01*
X131087904Y-76788476D01*
X131135523Y-76693238D01*
X131230761Y-76598000D01*
X131373619Y-76550380D01*
X131468857Y-76550380D01*
X131611714Y-76598000D01*
X131659333Y-76645619D01*
X132040285Y-76645619D02*
X132087904Y-76598000D01*
X132183142Y-76550380D01*
X132421238Y-76550380D01*
X132516476Y-76598000D01*
X132564095Y-76645619D01*
X132611714Y-76740857D01*
X132611714Y-76836095D01*
X132564095Y-76978952D01*
X131992666Y-77550380D01*
X132611714Y-77550380D01*
X131659333Y-74525142D02*
X131611714Y-74572761D01*
X131468857Y-74620380D01*
X131373619Y-74620380D01*
X131230761Y-74572761D01*
X131135523Y-74477523D01*
X131087904Y-74382285D01*
X131040285Y-74191809D01*
X131040285Y-74048952D01*
X131087904Y-73858476D01*
X131135523Y-73763238D01*
X131230761Y-73668000D01*
X131373619Y-73620380D01*
X131468857Y-73620380D01*
X131611714Y-73668000D01*
X131659333Y-73715619D01*
X131992666Y-73620380D02*
X132611714Y-73620380D01*
X132278380Y-74001333D01*
X132421238Y-74001333D01*
X132516476Y-74048952D01*
X132564095Y-74096571D01*
X132611714Y-74191809D01*
X132611714Y-74429904D01*
X132564095Y-74525142D01*
X132516476Y-74572761D01*
X132421238Y-74620380D01*
X132135523Y-74620380D01*
X132040285Y-74572761D01*
X131992666Y-74525142D01*
X128230333Y-85447142D02*
X128182714Y-85494761D01*
X128039857Y-85542380D01*
X127944619Y-85542380D01*
X127801761Y-85494761D01*
X127706523Y-85399523D01*
X127658904Y-85304285D01*
X127611285Y-85113809D01*
X127611285Y-84970952D01*
X127658904Y-84780476D01*
X127706523Y-84685238D01*
X127801761Y-84590000D01*
X127944619Y-84542380D01*
X128039857Y-84542380D01*
X128182714Y-84590000D01*
X128230333Y-84637619D01*
X129087476Y-84875714D02*
X129087476Y-85542380D01*
X128849380Y-84494761D02*
X128611285Y-85209047D01*
X129230333Y-85209047D01*
X131659333Y-78970142D02*
X131611714Y-79017761D01*
X131468857Y-79065380D01*
X131373619Y-79065380D01*
X131230761Y-79017761D01*
X131135523Y-78922523D01*
X131087904Y-78827285D01*
X131040285Y-78636809D01*
X131040285Y-78493952D01*
X131087904Y-78303476D01*
X131135523Y-78208238D01*
X131230761Y-78113000D01*
X131373619Y-78065380D01*
X131468857Y-78065380D01*
X131611714Y-78113000D01*
X131659333Y-78160619D01*
X132516476Y-78065380D02*
X132326000Y-78065380D01*
X132230761Y-78113000D01*
X132183142Y-78160619D01*
X132087904Y-78303476D01*
X132040285Y-78493952D01*
X132040285Y-78874904D01*
X132087904Y-78970142D01*
X132135523Y-79017761D01*
X132230761Y-79065380D01*
X132421238Y-79065380D01*
X132516476Y-79017761D01*
X132564095Y-78970142D01*
X132611714Y-78874904D01*
X132611714Y-78636809D01*
X132564095Y-78541571D01*
X132516476Y-78493952D01*
X132421238Y-78446333D01*
X132230761Y-78446333D01*
X132135523Y-78493952D01*
X132087904Y-78541571D01*
X132040285Y-78636809D01*
X131659333Y-75953142D02*
X131611714Y-76000761D01*
X131468857Y-76048380D01*
X131373619Y-76048380D01*
X131230761Y-76000761D01*
X131135523Y-75905523D01*
X131087904Y-75810285D01*
X131040285Y-75619809D01*
X131040285Y-75476952D01*
X131087904Y-75286476D01*
X131135523Y-75191238D01*
X131230761Y-75096000D01*
X131373619Y-75048380D01*
X131468857Y-75048380D01*
X131611714Y-75096000D01*
X131659333Y-75143619D01*
X131992666Y-75048380D02*
X132659333Y-75048380D01*
X132230761Y-76048380D01*
X131659333Y-72874142D02*
X131611714Y-72921761D01*
X131468857Y-72969380D01*
X131373619Y-72969380D01*
X131230761Y-72921761D01*
X131135523Y-72826523D01*
X131087904Y-72731285D01*
X131040285Y-72540809D01*
X131040285Y-72397952D01*
X131087904Y-72207476D01*
X131135523Y-72112238D01*
X131230761Y-72017000D01*
X131373619Y-71969380D01*
X131468857Y-71969380D01*
X131611714Y-72017000D01*
X131659333Y-72064619D01*
X132230761Y-72397952D02*
X132135523Y-72350333D01*
X132087904Y-72302714D01*
X132040285Y-72207476D01*
X132040285Y-72159857D01*
X132087904Y-72064619D01*
X132135523Y-72017000D01*
X132230761Y-71969380D01*
X132421238Y-71969380D01*
X132516476Y-72017000D01*
X132564095Y-72064619D01*
X132611714Y-72159857D01*
X132611714Y-72207476D01*
X132564095Y-72302714D01*
X132516476Y-72350333D01*
X132421238Y-72397952D01*
X132230761Y-72397952D01*
X132135523Y-72445571D01*
X132087904Y-72493190D01*
X132040285Y-72588428D01*
X132040285Y-72778904D01*
X132087904Y-72874142D01*
X132135523Y-72921761D01*
X132230761Y-72969380D01*
X132421238Y-72969380D01*
X132516476Y-72921761D01*
X132564095Y-72874142D01*
X132611714Y-72778904D01*
X132611714Y-72588428D01*
X132564095Y-72493190D01*
X132516476Y-72445571D01*
X132421238Y-72397952D01*
X128230333Y-86844142D02*
X128182714Y-86891761D01*
X128039857Y-86939380D01*
X127944619Y-86939380D01*
X127801761Y-86891761D01*
X127706523Y-86796523D01*
X127658904Y-86701285D01*
X127611285Y-86510809D01*
X127611285Y-86367952D01*
X127658904Y-86177476D01*
X127706523Y-86082238D01*
X127801761Y-85987000D01*
X127944619Y-85939380D01*
X128039857Y-85939380D01*
X128182714Y-85987000D01*
X128230333Y-86034619D01*
X128706523Y-86939380D02*
X128897000Y-86939380D01*
X128992238Y-86891761D01*
X129039857Y-86844142D01*
X129135095Y-86701285D01*
X129182714Y-86510809D01*
X129182714Y-86129857D01*
X129135095Y-86034619D01*
X129087476Y-85987000D01*
X128992238Y-85939380D01*
X128801761Y-85939380D01*
X128706523Y-85987000D01*
X128658904Y-86034619D01*
X128611285Y-86129857D01*
X128611285Y-86367952D01*
X128658904Y-86463190D01*
X128706523Y-86510809D01*
X128801761Y-86558428D01*
X128992238Y-86558428D01*
X129087476Y-86510809D01*
X129135095Y-86463190D01*
X129182714Y-86367952D01*
X140549333Y-68778380D02*
X140073142Y-68778380D01*
X140073142Y-67778380D01*
X141406476Y-68778380D02*
X140835047Y-68778380D01*
X141120761Y-68778380D02*
X141120761Y-67778380D01*
X141025523Y-67921238D01*
X140930285Y-68016476D01*
X140835047Y-68064095D01*
X125595142Y-87479142D02*
X125547523Y-87526761D01*
X125404666Y-87574380D01*
X125309428Y-87574380D01*
X125166571Y-87526761D01*
X125071333Y-87431523D01*
X125023714Y-87336285D01*
X124976095Y-87145809D01*
X124976095Y-87002952D01*
X125023714Y-86812476D01*
X125071333Y-86717238D01*
X125166571Y-86622000D01*
X125309428Y-86574380D01*
X125404666Y-86574380D01*
X125547523Y-86622000D01*
X125595142Y-86669619D01*
X126547523Y-87574380D02*
X125976095Y-87574380D01*
X126261809Y-87574380D02*
X126261809Y-86574380D01*
X126166571Y-86717238D01*
X126071333Y-86812476D01*
X125976095Y-86860095D01*
X127499904Y-87574380D02*
X126928476Y-87574380D01*
X127214190Y-87574380D02*
X127214190Y-86574380D01*
X127118952Y-86717238D01*
X127023714Y-86812476D01*
X126928476Y-86860095D01*
X117975142Y-87479142D02*
X117927523Y-87526761D01*
X117784666Y-87574380D01*
X117689428Y-87574380D01*
X117546571Y-87526761D01*
X117451333Y-87431523D01*
X117403714Y-87336285D01*
X117356095Y-87145809D01*
X117356095Y-87002952D01*
X117403714Y-86812476D01*
X117451333Y-86717238D01*
X117546571Y-86622000D01*
X117689428Y-86574380D01*
X117784666Y-86574380D01*
X117927523Y-86622000D01*
X117975142Y-86669619D01*
X118927523Y-87574380D02*
X118356095Y-87574380D01*
X118641809Y-87574380D02*
X118641809Y-86574380D01*
X118546571Y-86717238D01*
X118451333Y-86812476D01*
X118356095Y-86860095D01*
X119308476Y-86669619D02*
X119356095Y-86622000D01*
X119451333Y-86574380D01*
X119689428Y-86574380D01*
X119784666Y-86622000D01*
X119832285Y-86669619D01*
X119879904Y-86764857D01*
X119879904Y-86860095D01*
X119832285Y-87002952D01*
X119260857Y-87574380D01*
X119879904Y-87574380D01*
M02*
