G04 #@! TF.GenerationSoftware,KiCad,Pcbnew,(5.1.4)-1*
G04 #@! TF.CreationDate,2019-12-30T10:25:26+01:00*
G04 #@! TF.ProjectId,HDMI,48444d49-2e6b-4696-9361-645f70636258,rev?*
G04 #@! TF.SameCoordinates,Original*
G04 #@! TF.FileFunction,Soldermask,Bot*
G04 #@! TF.FilePolarity,Negative*
%FSLAX46Y46*%
G04 Gerber Fmt 4.6, Leading zero omitted, Abs format (unit mm)*
G04 Created by KiCad (PCBNEW (5.1.4)-1) date 2019-12-30 10:25:26*
%MOMM*%
%LPD*%
G04 APERTURE LIST*
%ADD10C,0.100000*%
G04 APERTURE END LIST*
D10*
G36*
X146414442Y-86735518D02*
G01*
X146480627Y-86742037D01*
X146650466Y-86793557D01*
X146806991Y-86877222D01*
X146842729Y-86906552D01*
X146944186Y-86989814D01*
X147027448Y-87091271D01*
X147056778Y-87127009D01*
X147140443Y-87283534D01*
X147191963Y-87453373D01*
X147209359Y-87630000D01*
X147191963Y-87806627D01*
X147140443Y-87976466D01*
X147056778Y-88132991D01*
X147027448Y-88168729D01*
X146944186Y-88270186D01*
X146842729Y-88353448D01*
X146806991Y-88382778D01*
X146650466Y-88466443D01*
X146480627Y-88517963D01*
X146414442Y-88524482D01*
X146348260Y-88531000D01*
X146259740Y-88531000D01*
X146193558Y-88524482D01*
X146127373Y-88517963D01*
X145957534Y-88466443D01*
X145801009Y-88382778D01*
X145765271Y-88353448D01*
X145663814Y-88270186D01*
X145580552Y-88168729D01*
X145551222Y-88132991D01*
X145467557Y-87976466D01*
X145416037Y-87806627D01*
X145398641Y-87630000D01*
X145416037Y-87453373D01*
X145467557Y-87283534D01*
X145551222Y-87127009D01*
X145580552Y-87091271D01*
X145663814Y-86989814D01*
X145765271Y-86906552D01*
X145801009Y-86877222D01*
X145957534Y-86793557D01*
X146127373Y-86742037D01*
X146193558Y-86735518D01*
X146259740Y-86729000D01*
X146348260Y-86729000D01*
X146414442Y-86735518D01*
X146414442Y-86735518D01*
G37*
G36*
X143874442Y-86735518D02*
G01*
X143940627Y-86742037D01*
X144110466Y-86793557D01*
X144266991Y-86877222D01*
X144302729Y-86906552D01*
X144404186Y-86989814D01*
X144487448Y-87091271D01*
X144516778Y-87127009D01*
X144600443Y-87283534D01*
X144651963Y-87453373D01*
X144669359Y-87630000D01*
X144651963Y-87806627D01*
X144600443Y-87976466D01*
X144516778Y-88132991D01*
X144487448Y-88168729D01*
X144404186Y-88270186D01*
X144302729Y-88353448D01*
X144266991Y-88382778D01*
X144110466Y-88466443D01*
X143940627Y-88517963D01*
X143874442Y-88524482D01*
X143808260Y-88531000D01*
X143719740Y-88531000D01*
X143653558Y-88524482D01*
X143587373Y-88517963D01*
X143417534Y-88466443D01*
X143261009Y-88382778D01*
X143225271Y-88353448D01*
X143123814Y-88270186D01*
X143040552Y-88168729D01*
X143011222Y-88132991D01*
X142927557Y-87976466D01*
X142876037Y-87806627D01*
X142858641Y-87630000D01*
X142876037Y-87453373D01*
X142927557Y-87283534D01*
X143011222Y-87127009D01*
X143040552Y-87091271D01*
X143123814Y-86989814D01*
X143225271Y-86906552D01*
X143261009Y-86877222D01*
X143417534Y-86793557D01*
X143587373Y-86742037D01*
X143653558Y-86735518D01*
X143719740Y-86729000D01*
X143808260Y-86729000D01*
X143874442Y-86735518D01*
X143874442Y-86735518D01*
G37*
G36*
X146414442Y-84195518D02*
G01*
X146480627Y-84202037D01*
X146650466Y-84253557D01*
X146806991Y-84337222D01*
X146842729Y-84366552D01*
X146944186Y-84449814D01*
X147027448Y-84551271D01*
X147056778Y-84587009D01*
X147140443Y-84743534D01*
X147191963Y-84913373D01*
X147209359Y-85090000D01*
X147191963Y-85266627D01*
X147140443Y-85436466D01*
X147056778Y-85592991D01*
X147027448Y-85628729D01*
X146944186Y-85730186D01*
X146842729Y-85813448D01*
X146806991Y-85842778D01*
X146650466Y-85926443D01*
X146480627Y-85977963D01*
X146414442Y-85984482D01*
X146348260Y-85991000D01*
X146259740Y-85991000D01*
X146193558Y-85984482D01*
X146127373Y-85977963D01*
X145957534Y-85926443D01*
X145801009Y-85842778D01*
X145765271Y-85813448D01*
X145663814Y-85730186D01*
X145580552Y-85628729D01*
X145551222Y-85592991D01*
X145467557Y-85436466D01*
X145416037Y-85266627D01*
X145398641Y-85090000D01*
X145416037Y-84913373D01*
X145467557Y-84743534D01*
X145551222Y-84587009D01*
X145580552Y-84551271D01*
X145663814Y-84449814D01*
X145765271Y-84366552D01*
X145801009Y-84337222D01*
X145957534Y-84253557D01*
X146127373Y-84202037D01*
X146193558Y-84195518D01*
X146259740Y-84189000D01*
X146348260Y-84189000D01*
X146414442Y-84195518D01*
X146414442Y-84195518D01*
G37*
G36*
X143874442Y-84195518D02*
G01*
X143940627Y-84202037D01*
X144110466Y-84253557D01*
X144266991Y-84337222D01*
X144302729Y-84366552D01*
X144404186Y-84449814D01*
X144487448Y-84551271D01*
X144516778Y-84587009D01*
X144600443Y-84743534D01*
X144651963Y-84913373D01*
X144669359Y-85090000D01*
X144651963Y-85266627D01*
X144600443Y-85436466D01*
X144516778Y-85592991D01*
X144487448Y-85628729D01*
X144404186Y-85730186D01*
X144302729Y-85813448D01*
X144266991Y-85842778D01*
X144110466Y-85926443D01*
X143940627Y-85977963D01*
X143874442Y-85984482D01*
X143808260Y-85991000D01*
X143719740Y-85991000D01*
X143653558Y-85984482D01*
X143587373Y-85977963D01*
X143417534Y-85926443D01*
X143261009Y-85842778D01*
X143225271Y-85813448D01*
X143123814Y-85730186D01*
X143040552Y-85628729D01*
X143011222Y-85592991D01*
X142927557Y-85436466D01*
X142876037Y-85266627D01*
X142858641Y-85090000D01*
X142876037Y-84913373D01*
X142927557Y-84743534D01*
X143011222Y-84587009D01*
X143040552Y-84551271D01*
X143123814Y-84449814D01*
X143225271Y-84366552D01*
X143261009Y-84337222D01*
X143417534Y-84253557D01*
X143587373Y-84202037D01*
X143653558Y-84195518D01*
X143719740Y-84189000D01*
X143808260Y-84189000D01*
X143874442Y-84195518D01*
X143874442Y-84195518D01*
G37*
G36*
X122404421Y-83368143D02*
G01*
X122536557Y-83408227D01*
X122536559Y-83408228D01*
X122658339Y-83473320D01*
X122658341Y-83473321D01*
X122658340Y-83473321D01*
X122765080Y-83560920D01*
X122852679Y-83667660D01*
X122917773Y-83789443D01*
X122957857Y-83921579D01*
X122971391Y-84059000D01*
X122957857Y-84196421D01*
X122917773Y-84328557D01*
X122917772Y-84328559D01*
X122852680Y-84450339D01*
X122765080Y-84557080D01*
X122658339Y-84644680D01*
X122536559Y-84709772D01*
X122536557Y-84709773D01*
X122404421Y-84749857D01*
X122301432Y-84760000D01*
X120832568Y-84760000D01*
X120729579Y-84749857D01*
X120597443Y-84709773D01*
X120597441Y-84709772D01*
X120475661Y-84644680D01*
X120368920Y-84557080D01*
X120281320Y-84450339D01*
X120216228Y-84328559D01*
X120216227Y-84328557D01*
X120176143Y-84196421D01*
X120162609Y-84059000D01*
X120176143Y-83921579D01*
X120216227Y-83789443D01*
X120281321Y-83667660D01*
X120368920Y-83560920D01*
X120475660Y-83473321D01*
X120475659Y-83473321D01*
X120475661Y-83473320D01*
X120597441Y-83408228D01*
X120597443Y-83408227D01*
X120729579Y-83368143D01*
X120832568Y-83358000D01*
X122301432Y-83358000D01*
X122404421Y-83368143D01*
X122404421Y-83368143D01*
G37*
G36*
X116154421Y-83368143D02*
G01*
X116286557Y-83408227D01*
X116286559Y-83408228D01*
X116408339Y-83473320D01*
X116408341Y-83473321D01*
X116408340Y-83473321D01*
X116515080Y-83560920D01*
X116602679Y-83667660D01*
X116667773Y-83789443D01*
X116707857Y-83921579D01*
X116721391Y-84059000D01*
X116707857Y-84196421D01*
X116667773Y-84328557D01*
X116667772Y-84328559D01*
X116602680Y-84450339D01*
X116515080Y-84557080D01*
X116408339Y-84644680D01*
X116286559Y-84709772D01*
X116286557Y-84709773D01*
X116154421Y-84749857D01*
X116051432Y-84760000D01*
X114982568Y-84760000D01*
X114879579Y-84749857D01*
X114747443Y-84709773D01*
X114747441Y-84709772D01*
X114625661Y-84644680D01*
X114518920Y-84557080D01*
X114431320Y-84450339D01*
X114366228Y-84328559D01*
X114366227Y-84328557D01*
X114326143Y-84196421D01*
X114312609Y-84059000D01*
X114326143Y-83921579D01*
X114366227Y-83789443D01*
X114431321Y-83667660D01*
X114518920Y-83560920D01*
X114625660Y-83473321D01*
X114625659Y-83473321D01*
X114625661Y-83473320D01*
X114747441Y-83408228D01*
X114747443Y-83408227D01*
X114879579Y-83368143D01*
X114982568Y-83358000D01*
X116051432Y-83358000D01*
X116154421Y-83368143D01*
X116154421Y-83368143D01*
G37*
G36*
X143874443Y-81655519D02*
G01*
X143940627Y-81662037D01*
X144110466Y-81713557D01*
X144266991Y-81797222D01*
X144302729Y-81826552D01*
X144404186Y-81909814D01*
X144487448Y-82011271D01*
X144516778Y-82047009D01*
X144600443Y-82203534D01*
X144651963Y-82373373D01*
X144669359Y-82550000D01*
X144651963Y-82726627D01*
X144600443Y-82896466D01*
X144516778Y-83052991D01*
X144487448Y-83088729D01*
X144404186Y-83190186D01*
X144302729Y-83273448D01*
X144266991Y-83302778D01*
X144110466Y-83386443D01*
X143940627Y-83437963D01*
X143874443Y-83444481D01*
X143808260Y-83451000D01*
X143719740Y-83451000D01*
X143653557Y-83444481D01*
X143587373Y-83437963D01*
X143417534Y-83386443D01*
X143261009Y-83302778D01*
X143225271Y-83273448D01*
X143123814Y-83190186D01*
X143040552Y-83088729D01*
X143011222Y-83052991D01*
X142927557Y-82896466D01*
X142876037Y-82726627D01*
X142858641Y-82550000D01*
X142876037Y-82373373D01*
X142927557Y-82203534D01*
X143011222Y-82047009D01*
X143040552Y-82011271D01*
X143123814Y-81909814D01*
X143225271Y-81826552D01*
X143261009Y-81797222D01*
X143417534Y-81713557D01*
X143587373Y-81662037D01*
X143653557Y-81655519D01*
X143719740Y-81649000D01*
X143808260Y-81649000D01*
X143874443Y-81655519D01*
X143874443Y-81655519D01*
G37*
G36*
X146414443Y-81655519D02*
G01*
X146480627Y-81662037D01*
X146650466Y-81713557D01*
X146806991Y-81797222D01*
X146842729Y-81826552D01*
X146944186Y-81909814D01*
X147027448Y-82011271D01*
X147056778Y-82047009D01*
X147140443Y-82203534D01*
X147191963Y-82373373D01*
X147209359Y-82550000D01*
X147191963Y-82726627D01*
X147140443Y-82896466D01*
X147056778Y-83052991D01*
X147027448Y-83088729D01*
X146944186Y-83190186D01*
X146842729Y-83273448D01*
X146806991Y-83302778D01*
X146650466Y-83386443D01*
X146480627Y-83437963D01*
X146414443Y-83444481D01*
X146348260Y-83451000D01*
X146259740Y-83451000D01*
X146193557Y-83444481D01*
X146127373Y-83437963D01*
X145957534Y-83386443D01*
X145801009Y-83302778D01*
X145765271Y-83273448D01*
X145663814Y-83190186D01*
X145580552Y-83088729D01*
X145551222Y-83052991D01*
X145467557Y-82896466D01*
X145416037Y-82726627D01*
X145398641Y-82550000D01*
X145416037Y-82373373D01*
X145467557Y-82203534D01*
X145551222Y-82047009D01*
X145580552Y-82011271D01*
X145663814Y-81909814D01*
X145765271Y-81826552D01*
X145801009Y-81797222D01*
X145957534Y-81713557D01*
X146127373Y-81662037D01*
X146193557Y-81655519D01*
X146259740Y-81649000D01*
X146348260Y-81649000D01*
X146414443Y-81655519D01*
X146414443Y-81655519D01*
G37*
G36*
X143874443Y-79115519D02*
G01*
X143940627Y-79122037D01*
X144110466Y-79173557D01*
X144266991Y-79257222D01*
X144302729Y-79286552D01*
X144404186Y-79369814D01*
X144487448Y-79471271D01*
X144516778Y-79507009D01*
X144600443Y-79663534D01*
X144651963Y-79833373D01*
X144669359Y-80010000D01*
X144651963Y-80186627D01*
X144600443Y-80356466D01*
X144516778Y-80512991D01*
X144487448Y-80548729D01*
X144404186Y-80650186D01*
X144302729Y-80733448D01*
X144266991Y-80762778D01*
X144110466Y-80846443D01*
X143940627Y-80897963D01*
X143874442Y-80904482D01*
X143808260Y-80911000D01*
X143719740Y-80911000D01*
X143653558Y-80904482D01*
X143587373Y-80897963D01*
X143417534Y-80846443D01*
X143261009Y-80762778D01*
X143225271Y-80733448D01*
X143123814Y-80650186D01*
X143040552Y-80548729D01*
X143011222Y-80512991D01*
X142927557Y-80356466D01*
X142876037Y-80186627D01*
X142858641Y-80010000D01*
X142876037Y-79833373D01*
X142927557Y-79663534D01*
X143011222Y-79507009D01*
X143040552Y-79471271D01*
X143123814Y-79369814D01*
X143225271Y-79286552D01*
X143261009Y-79257222D01*
X143417534Y-79173557D01*
X143587373Y-79122037D01*
X143653557Y-79115519D01*
X143719740Y-79109000D01*
X143808260Y-79109000D01*
X143874443Y-79115519D01*
X143874443Y-79115519D01*
G37*
G36*
X146414443Y-79115519D02*
G01*
X146480627Y-79122037D01*
X146650466Y-79173557D01*
X146806991Y-79257222D01*
X146842729Y-79286552D01*
X146944186Y-79369814D01*
X147027448Y-79471271D01*
X147056778Y-79507009D01*
X147140443Y-79663534D01*
X147191963Y-79833373D01*
X147209359Y-80010000D01*
X147191963Y-80186627D01*
X147140443Y-80356466D01*
X147056778Y-80512991D01*
X147027448Y-80548729D01*
X146944186Y-80650186D01*
X146842729Y-80733448D01*
X146806991Y-80762778D01*
X146650466Y-80846443D01*
X146480627Y-80897963D01*
X146414442Y-80904482D01*
X146348260Y-80911000D01*
X146259740Y-80911000D01*
X146193558Y-80904482D01*
X146127373Y-80897963D01*
X145957534Y-80846443D01*
X145801009Y-80762778D01*
X145765271Y-80733448D01*
X145663814Y-80650186D01*
X145580552Y-80548729D01*
X145551222Y-80512991D01*
X145467557Y-80356466D01*
X145416037Y-80186627D01*
X145398641Y-80010000D01*
X145416037Y-79833373D01*
X145467557Y-79663534D01*
X145551222Y-79507009D01*
X145580552Y-79471271D01*
X145663814Y-79369814D01*
X145765271Y-79286552D01*
X145801009Y-79257222D01*
X145957534Y-79173557D01*
X146127373Y-79122037D01*
X146193557Y-79115519D01*
X146259740Y-79109000D01*
X146348260Y-79109000D01*
X146414443Y-79115519D01*
X146414443Y-79115519D01*
G37*
G36*
X146414443Y-76575519D02*
G01*
X146480627Y-76582037D01*
X146650466Y-76633557D01*
X146806991Y-76717222D01*
X146842729Y-76746552D01*
X146944186Y-76829814D01*
X147027448Y-76931271D01*
X147056778Y-76967009D01*
X147140443Y-77123534D01*
X147191963Y-77293373D01*
X147209359Y-77470000D01*
X147191963Y-77646627D01*
X147140443Y-77816466D01*
X147056778Y-77972991D01*
X147027448Y-78008729D01*
X146944186Y-78110186D01*
X146842729Y-78193448D01*
X146806991Y-78222778D01*
X146650466Y-78306443D01*
X146480627Y-78357963D01*
X146414443Y-78364481D01*
X146348260Y-78371000D01*
X146259740Y-78371000D01*
X146193557Y-78364481D01*
X146127373Y-78357963D01*
X145957534Y-78306443D01*
X145801009Y-78222778D01*
X145765271Y-78193448D01*
X145663814Y-78110186D01*
X145580552Y-78008729D01*
X145551222Y-77972991D01*
X145467557Y-77816466D01*
X145416037Y-77646627D01*
X145398641Y-77470000D01*
X145416037Y-77293373D01*
X145467557Y-77123534D01*
X145551222Y-76967009D01*
X145580552Y-76931271D01*
X145663814Y-76829814D01*
X145765271Y-76746552D01*
X145801009Y-76717222D01*
X145957534Y-76633557D01*
X146127373Y-76582037D01*
X146193557Y-76575519D01*
X146259740Y-76569000D01*
X146348260Y-76569000D01*
X146414443Y-76575519D01*
X146414443Y-76575519D01*
G37*
G36*
X143874443Y-76575519D02*
G01*
X143940627Y-76582037D01*
X144110466Y-76633557D01*
X144266991Y-76717222D01*
X144302729Y-76746552D01*
X144404186Y-76829814D01*
X144487448Y-76931271D01*
X144516778Y-76967009D01*
X144600443Y-77123534D01*
X144651963Y-77293373D01*
X144669359Y-77470000D01*
X144651963Y-77646627D01*
X144600443Y-77816466D01*
X144516778Y-77972991D01*
X144487448Y-78008729D01*
X144404186Y-78110186D01*
X144302729Y-78193448D01*
X144266991Y-78222778D01*
X144110466Y-78306443D01*
X143940627Y-78357963D01*
X143874443Y-78364481D01*
X143808260Y-78371000D01*
X143719740Y-78371000D01*
X143653557Y-78364481D01*
X143587373Y-78357963D01*
X143417534Y-78306443D01*
X143261009Y-78222778D01*
X143225271Y-78193448D01*
X143123814Y-78110186D01*
X143040552Y-78008729D01*
X143011222Y-77972991D01*
X142927557Y-77816466D01*
X142876037Y-77646627D01*
X142858641Y-77470000D01*
X142876037Y-77293373D01*
X142927557Y-77123534D01*
X143011222Y-76967009D01*
X143040552Y-76931271D01*
X143123814Y-76829814D01*
X143225271Y-76746552D01*
X143261009Y-76717222D01*
X143417534Y-76633557D01*
X143587373Y-76582037D01*
X143653557Y-76575519D01*
X143719740Y-76569000D01*
X143808260Y-76569000D01*
X143874443Y-76575519D01*
X143874443Y-76575519D01*
G37*
G36*
X146414442Y-74035518D02*
G01*
X146480627Y-74042037D01*
X146650466Y-74093557D01*
X146806991Y-74177222D01*
X146842729Y-74206552D01*
X146944186Y-74289814D01*
X147027448Y-74391271D01*
X147056778Y-74427009D01*
X147140443Y-74583534D01*
X147191963Y-74753373D01*
X147209359Y-74930000D01*
X147191963Y-75106627D01*
X147140443Y-75276466D01*
X147056778Y-75432991D01*
X147027448Y-75468729D01*
X146944186Y-75570186D01*
X146842729Y-75653448D01*
X146806991Y-75682778D01*
X146650466Y-75766443D01*
X146480627Y-75817963D01*
X146414442Y-75824482D01*
X146348260Y-75831000D01*
X146259740Y-75831000D01*
X146193558Y-75824482D01*
X146127373Y-75817963D01*
X145957534Y-75766443D01*
X145801009Y-75682778D01*
X145765271Y-75653448D01*
X145663814Y-75570186D01*
X145580552Y-75468729D01*
X145551222Y-75432991D01*
X145467557Y-75276466D01*
X145416037Y-75106627D01*
X145398641Y-74930000D01*
X145416037Y-74753373D01*
X145467557Y-74583534D01*
X145551222Y-74427009D01*
X145580552Y-74391271D01*
X145663814Y-74289814D01*
X145765271Y-74206552D01*
X145801009Y-74177222D01*
X145957534Y-74093557D01*
X146127373Y-74042037D01*
X146193558Y-74035518D01*
X146259740Y-74029000D01*
X146348260Y-74029000D01*
X146414442Y-74035518D01*
X146414442Y-74035518D01*
G37*
G36*
X143874442Y-74035518D02*
G01*
X143940627Y-74042037D01*
X144110466Y-74093557D01*
X144266991Y-74177222D01*
X144302729Y-74206552D01*
X144404186Y-74289814D01*
X144487448Y-74391271D01*
X144516778Y-74427009D01*
X144600443Y-74583534D01*
X144651963Y-74753373D01*
X144669359Y-74930000D01*
X144651963Y-75106627D01*
X144600443Y-75276466D01*
X144516778Y-75432991D01*
X144487448Y-75468729D01*
X144404186Y-75570186D01*
X144302729Y-75653448D01*
X144266991Y-75682778D01*
X144110466Y-75766443D01*
X143940627Y-75817963D01*
X143874442Y-75824482D01*
X143808260Y-75831000D01*
X143719740Y-75831000D01*
X143653558Y-75824482D01*
X143587373Y-75817963D01*
X143417534Y-75766443D01*
X143261009Y-75682778D01*
X143225271Y-75653448D01*
X143123814Y-75570186D01*
X143040552Y-75468729D01*
X143011222Y-75432991D01*
X142927557Y-75276466D01*
X142876037Y-75106627D01*
X142858641Y-74930000D01*
X142876037Y-74753373D01*
X142927557Y-74583534D01*
X143011222Y-74427009D01*
X143040552Y-74391271D01*
X143123814Y-74289814D01*
X143225271Y-74206552D01*
X143261009Y-74177222D01*
X143417534Y-74093557D01*
X143587373Y-74042037D01*
X143653558Y-74035518D01*
X143719740Y-74029000D01*
X143808260Y-74029000D01*
X143874442Y-74035518D01*
X143874442Y-74035518D01*
G37*
G36*
X146414443Y-71495519D02*
G01*
X146480627Y-71502037D01*
X146650466Y-71553557D01*
X146806991Y-71637222D01*
X146842729Y-71666552D01*
X146944186Y-71749814D01*
X147027448Y-71851271D01*
X147056778Y-71887009D01*
X147140443Y-72043534D01*
X147191963Y-72213373D01*
X147209359Y-72390000D01*
X147191963Y-72566627D01*
X147140443Y-72736466D01*
X147056778Y-72892991D01*
X147027448Y-72928729D01*
X146944186Y-73030186D01*
X146842729Y-73113448D01*
X146806991Y-73142778D01*
X146650466Y-73226443D01*
X146480627Y-73277963D01*
X146414443Y-73284481D01*
X146348260Y-73291000D01*
X146259740Y-73291000D01*
X146193557Y-73284481D01*
X146127373Y-73277963D01*
X145957534Y-73226443D01*
X145801009Y-73142778D01*
X145765271Y-73113448D01*
X145663814Y-73030186D01*
X145580552Y-72928729D01*
X145551222Y-72892991D01*
X145467557Y-72736466D01*
X145416037Y-72566627D01*
X145398641Y-72390000D01*
X145416037Y-72213373D01*
X145467557Y-72043534D01*
X145551222Y-71887009D01*
X145580552Y-71851271D01*
X145663814Y-71749814D01*
X145765271Y-71666552D01*
X145801009Y-71637222D01*
X145957534Y-71553557D01*
X146127373Y-71502037D01*
X146193557Y-71495519D01*
X146259740Y-71489000D01*
X146348260Y-71489000D01*
X146414443Y-71495519D01*
X146414443Y-71495519D01*
G37*
G36*
X143874443Y-71495519D02*
G01*
X143940627Y-71502037D01*
X144110466Y-71553557D01*
X144266991Y-71637222D01*
X144302729Y-71666552D01*
X144404186Y-71749814D01*
X144487448Y-71851271D01*
X144516778Y-71887009D01*
X144600443Y-72043534D01*
X144651963Y-72213373D01*
X144669359Y-72390000D01*
X144651963Y-72566627D01*
X144600443Y-72736466D01*
X144516778Y-72892991D01*
X144487448Y-72928729D01*
X144404186Y-73030186D01*
X144302729Y-73113448D01*
X144266991Y-73142778D01*
X144110466Y-73226443D01*
X143940627Y-73277963D01*
X143874443Y-73284481D01*
X143808260Y-73291000D01*
X143719740Y-73291000D01*
X143653557Y-73284481D01*
X143587373Y-73277963D01*
X143417534Y-73226443D01*
X143261009Y-73142778D01*
X143225271Y-73113448D01*
X143123814Y-73030186D01*
X143040552Y-72928729D01*
X143011222Y-72892991D01*
X142927557Y-72736466D01*
X142876037Y-72566627D01*
X142858641Y-72390000D01*
X142876037Y-72213373D01*
X142927557Y-72043534D01*
X143011222Y-71887009D01*
X143040552Y-71851271D01*
X143123814Y-71749814D01*
X143225271Y-71666552D01*
X143261009Y-71637222D01*
X143417534Y-71553557D01*
X143587373Y-71502037D01*
X143653557Y-71495519D01*
X143719740Y-71489000D01*
X143808260Y-71489000D01*
X143874443Y-71495519D01*
X143874443Y-71495519D01*
G37*
G36*
X146414443Y-68955519D02*
G01*
X146480627Y-68962037D01*
X146650466Y-69013557D01*
X146806991Y-69097222D01*
X146842729Y-69126552D01*
X146944186Y-69209814D01*
X147027448Y-69311271D01*
X147056778Y-69347009D01*
X147140443Y-69503534D01*
X147191963Y-69673373D01*
X147209359Y-69850000D01*
X147191963Y-70026627D01*
X147140443Y-70196466D01*
X147056778Y-70352991D01*
X147027448Y-70388729D01*
X146944186Y-70490186D01*
X146842729Y-70573448D01*
X146806991Y-70602778D01*
X146650466Y-70686443D01*
X146480627Y-70737963D01*
X146414443Y-70744481D01*
X146348260Y-70751000D01*
X146259740Y-70751000D01*
X146193557Y-70744481D01*
X146127373Y-70737963D01*
X145957534Y-70686443D01*
X145801009Y-70602778D01*
X145765271Y-70573448D01*
X145663814Y-70490186D01*
X145580552Y-70388729D01*
X145551222Y-70352991D01*
X145467557Y-70196466D01*
X145416037Y-70026627D01*
X145398641Y-69850000D01*
X145416037Y-69673373D01*
X145467557Y-69503534D01*
X145551222Y-69347009D01*
X145580552Y-69311271D01*
X145663814Y-69209814D01*
X145765271Y-69126552D01*
X145801009Y-69097222D01*
X145957534Y-69013557D01*
X146127373Y-68962037D01*
X146193557Y-68955519D01*
X146259740Y-68949000D01*
X146348260Y-68949000D01*
X146414443Y-68955519D01*
X146414443Y-68955519D01*
G37*
G36*
X143874443Y-68955519D02*
G01*
X143940627Y-68962037D01*
X144110466Y-69013557D01*
X144266991Y-69097222D01*
X144302729Y-69126552D01*
X144404186Y-69209814D01*
X144487448Y-69311271D01*
X144516778Y-69347009D01*
X144600443Y-69503534D01*
X144651963Y-69673373D01*
X144669359Y-69850000D01*
X144651963Y-70026627D01*
X144600443Y-70196466D01*
X144516778Y-70352991D01*
X144487448Y-70388729D01*
X144404186Y-70490186D01*
X144302729Y-70573448D01*
X144266991Y-70602778D01*
X144110466Y-70686443D01*
X143940627Y-70737963D01*
X143874443Y-70744481D01*
X143808260Y-70751000D01*
X143719740Y-70751000D01*
X143653557Y-70744481D01*
X143587373Y-70737963D01*
X143417534Y-70686443D01*
X143261009Y-70602778D01*
X143225271Y-70573448D01*
X143123814Y-70490186D01*
X143040552Y-70388729D01*
X143011222Y-70352991D01*
X142927557Y-70196466D01*
X142876037Y-70026627D01*
X142858641Y-69850000D01*
X142876037Y-69673373D01*
X142927557Y-69503534D01*
X143011222Y-69347009D01*
X143040552Y-69311271D01*
X143123814Y-69209814D01*
X143225271Y-69126552D01*
X143261009Y-69097222D01*
X143417534Y-69013557D01*
X143587373Y-68962037D01*
X143653557Y-68955519D01*
X143719740Y-68949000D01*
X143808260Y-68949000D01*
X143874443Y-68955519D01*
X143874443Y-68955519D01*
G37*
G36*
X122404421Y-68768143D02*
G01*
X122536557Y-68808227D01*
X122536559Y-68808228D01*
X122658339Y-68873320D01*
X122658341Y-68873321D01*
X122658340Y-68873321D01*
X122765080Y-68960920D01*
X122852679Y-69067660D01*
X122917773Y-69189443D01*
X122957857Y-69321579D01*
X122971391Y-69459000D01*
X122957857Y-69596421D01*
X122917773Y-69728557D01*
X122917772Y-69728559D01*
X122852680Y-69850339D01*
X122765080Y-69957080D01*
X122658339Y-70044680D01*
X122536559Y-70109772D01*
X122536557Y-70109773D01*
X122404421Y-70149857D01*
X122301432Y-70160000D01*
X120832568Y-70160000D01*
X120729579Y-70149857D01*
X120597443Y-70109773D01*
X120597441Y-70109772D01*
X120475661Y-70044680D01*
X120368920Y-69957080D01*
X120281320Y-69850339D01*
X120216228Y-69728559D01*
X120216227Y-69728557D01*
X120176143Y-69596421D01*
X120162609Y-69459000D01*
X120176143Y-69321579D01*
X120216227Y-69189443D01*
X120281321Y-69067660D01*
X120368920Y-68960920D01*
X120475660Y-68873321D01*
X120475659Y-68873321D01*
X120475661Y-68873320D01*
X120597441Y-68808228D01*
X120597443Y-68808227D01*
X120729579Y-68768143D01*
X120832568Y-68758000D01*
X122301432Y-68758000D01*
X122404421Y-68768143D01*
X122404421Y-68768143D01*
G37*
G36*
X116154421Y-68768143D02*
G01*
X116286557Y-68808227D01*
X116286559Y-68808228D01*
X116408339Y-68873320D01*
X116408341Y-68873321D01*
X116408340Y-68873321D01*
X116515080Y-68960920D01*
X116602679Y-69067660D01*
X116667773Y-69189443D01*
X116707857Y-69321579D01*
X116721391Y-69459000D01*
X116707857Y-69596421D01*
X116667773Y-69728557D01*
X116667772Y-69728559D01*
X116602680Y-69850339D01*
X116515080Y-69957080D01*
X116408339Y-70044680D01*
X116286559Y-70109772D01*
X116286557Y-70109773D01*
X116154421Y-70149857D01*
X116051432Y-70160000D01*
X114982568Y-70160000D01*
X114879579Y-70149857D01*
X114747443Y-70109773D01*
X114747441Y-70109772D01*
X114625661Y-70044680D01*
X114518920Y-69957080D01*
X114431320Y-69850339D01*
X114366228Y-69728559D01*
X114366227Y-69728557D01*
X114326143Y-69596421D01*
X114312609Y-69459000D01*
X114326143Y-69321579D01*
X114366227Y-69189443D01*
X114431321Y-69067660D01*
X114518920Y-68960920D01*
X114625660Y-68873321D01*
X114625659Y-68873321D01*
X114625661Y-68873320D01*
X114747441Y-68808228D01*
X114747443Y-68808227D01*
X114879579Y-68768143D01*
X114982568Y-68758000D01*
X116051432Y-68758000D01*
X116154421Y-68768143D01*
X116154421Y-68768143D01*
G37*
G36*
X146414443Y-66415519D02*
G01*
X146480627Y-66422037D01*
X146650466Y-66473557D01*
X146806991Y-66557222D01*
X146842729Y-66586552D01*
X146944186Y-66669814D01*
X147027448Y-66771271D01*
X147056778Y-66807009D01*
X147140443Y-66963534D01*
X147191963Y-67133373D01*
X147209359Y-67310000D01*
X147191963Y-67486627D01*
X147140443Y-67656466D01*
X147056778Y-67812991D01*
X147027448Y-67848729D01*
X146944186Y-67950186D01*
X146842729Y-68033448D01*
X146806991Y-68062778D01*
X146650466Y-68146443D01*
X146480627Y-68197963D01*
X146414443Y-68204481D01*
X146348260Y-68211000D01*
X146259740Y-68211000D01*
X146193557Y-68204481D01*
X146127373Y-68197963D01*
X145957534Y-68146443D01*
X145801009Y-68062778D01*
X145765271Y-68033448D01*
X145663814Y-67950186D01*
X145580552Y-67848729D01*
X145551222Y-67812991D01*
X145467557Y-67656466D01*
X145416037Y-67486627D01*
X145398641Y-67310000D01*
X145416037Y-67133373D01*
X145467557Y-66963534D01*
X145551222Y-66807009D01*
X145580552Y-66771271D01*
X145663814Y-66669814D01*
X145765271Y-66586552D01*
X145801009Y-66557222D01*
X145957534Y-66473557D01*
X146127373Y-66422037D01*
X146193557Y-66415519D01*
X146259740Y-66409000D01*
X146348260Y-66409000D01*
X146414443Y-66415519D01*
X146414443Y-66415519D01*
G37*
G36*
X144665000Y-68211000D02*
G01*
X142863000Y-68211000D01*
X142863000Y-66409000D01*
X144665000Y-66409000D01*
X144665000Y-68211000D01*
X144665000Y-68211000D01*
G37*
M02*
