M48
; DRILL file {KiCad (5.1.4)-1} date 12/30/2019 10:25:31 AM
; FORMAT={-:-/ absolute / inch / decimal}
; #@! TF.CreationDate,2019-12-30T10:25:31+01:00
; #@! TF.GenerationSoftware,Kicad,Pcbnew,(5.1.4)-1
; #@! TF.FileFunction,Plated,1,2,PTH
FMAT,2
INCH
T1C0.0157
T2C0.0315
T3C0.0394
%
G90
G05
T1
X4.465Y-2.815
X4.475Y-3.37
X4.6Y-2.665
X4.6307Y-2.7689
X4.665Y-2.6677
X4.6843Y-3.185
X4.7257Y-3.185
X4.74Y-2.9817
X4.74Y-3.023
X4.77Y-3.18
X4.79Y-2.615
X4.8785Y-2.8915
X4.885Y-3.0
X4.925Y-3.22
X4.965Y-3.35
X4.98Y-3.015
X4.98Y-3.135
X5.01Y-3.22
X5.02Y-2.58
X5.12Y-3.37
X5.2Y-2.91
X5.2022Y-2.5975
X5.24Y-3.435
X5.245Y-2.695
X5.2454Y-2.8163
X5.2567Y-2.7784
X5.2964Y-2.8953
X5.3283Y-3.1725
X5.335Y-3.42
X5.3575Y-3.2017
X5.38Y-3.36
X5.425Y-2.58
X5.43Y-2.8953
X5.43Y-2.94
X5.47Y-2.775
X5.4856Y-3.4328
X5.5404Y-3.4135
X5.555Y-2.7
X5.5608Y-2.8801
X5.575Y-2.955
X5.575Y-3.045
X5.575Y-3.195
X5.5775Y-2.9157
X5.6Y-3.4
X5.6029Y-3.351
X5.715Y-3.2
X5.84Y-3.15
X5.845Y-3.205
X5.87Y-3.055
T3
X5.66Y-2.65
X5.66Y-2.75
X5.66Y-2.85
X5.66Y-2.95
X5.66Y-3.05
X5.66Y-3.15
X5.66Y-3.25
X5.66Y-3.35
X5.66Y-3.45
X5.76Y-2.65
X5.76Y-2.75
X5.76Y-2.85
X5.76Y-2.95
X5.76Y-3.05
X5.76Y-3.15
X5.76Y-3.25
X5.76Y-3.35
X5.76Y-3.45
T2
G00X4.5282Y-2.7346
M15
G01X4.5676Y-2.7346
M16
G05
G00X4.5282Y-3.3094
M15
G01X4.5676Y-3.3094
M16
G05
G00X4.7585Y-2.7346
M15
G01X4.8137Y-2.7346
M16
G05
G00X4.7585Y-3.3094
M15
G01X4.8137Y-3.3094
M16
G05
T0
M30
