G04 #@! TF.GenerationSoftware,KiCad,Pcbnew,(5.1.4)-1*
G04 #@! TF.CreationDate,2019-12-30T10:25:26+01:00*
G04 #@! TF.ProjectId,HDMI,48444d49-2e6b-4696-9361-645f70636258,rev?*
G04 #@! TF.SameCoordinates,Original*
G04 #@! TF.FileFunction,Copper,L2,Bot*
G04 #@! TF.FilePolarity,Positive*
%FSLAX46Y46*%
G04 Gerber Fmt 4.6, Leading zero omitted, Abs format (unit mm)*
G04 Created by KiCad (PCBNEW (5.1.4)-1) date 2019-12-30 10:25:26*
%MOMM*%
%LPD*%
G04 APERTURE LIST*
%ADD10R,1.700000X1.700000*%
%ADD11O,1.700000X1.700000*%
%ADD12O,2.700000X1.300000*%
%ADD13O,2.300000X1.300000*%
%ADD14C,0.800000*%
%ADD15C,0.250000*%
%ADD16C,0.200000*%
%ADD17C,0.254000*%
G04 APERTURE END LIST*
D10*
X143764000Y-67310000D03*
D11*
X146304000Y-67310000D03*
X143764000Y-69850000D03*
X146304000Y-69850000D03*
X143764000Y-72390000D03*
X146304000Y-72390000D03*
X143764000Y-74930000D03*
X146304000Y-74930000D03*
X143764000Y-77470000D03*
X146304000Y-77470000D03*
X143764000Y-80010000D03*
X146304000Y-80010000D03*
X143764000Y-82550000D03*
X146304000Y-82550000D03*
X143764000Y-85090000D03*
X146304000Y-85090000D03*
X143764000Y-87630000D03*
X146304000Y-87630000D03*
D12*
X121567000Y-69459000D03*
X121567000Y-84059000D03*
D13*
X115517000Y-84059000D03*
X115517000Y-69459000D03*
D14*
X121158000Y-80772000D03*
X124079000Y-76200000D03*
X142240000Y-86360000D03*
X141605000Y-75057000D03*
X123913026Y-73444975D03*
X140725190Y-86703804D03*
X141605000Y-77343000D03*
X141605000Y-81153000D03*
X126492000Y-79629000D03*
X126492000Y-76581000D03*
X125095000Y-81788000D03*
X148463000Y-81407000D03*
X149098000Y-77597000D03*
X138938000Y-70485000D03*
X137922000Y-74676000D03*
X118491000Y-67758990D03*
X130048000Y-85598000D03*
X113665000Y-85598000D03*
X136652000Y-85344000D03*
X117619579Y-70331101D03*
X127254000Y-81788000D03*
X133223000Y-68453000D03*
X126111000Y-85090000D03*
X135337574Y-80581962D03*
X133232686Y-71533976D03*
X136080038Y-81324426D03*
X133520026Y-70571920D03*
X145161000Y-81280000D03*
X148336000Y-80010000D03*
X141097000Y-68580000D03*
X137922000Y-73540000D03*
X133096000Y-87249000D03*
X139334724Y-87193011D03*
X142314200Y-85114781D03*
X127508000Y-65532000D03*
X132080000Y-73914000D03*
X116840000Y-67691000D03*
X121666000Y-66421000D03*
X134529000Y-73540000D03*
X137795000Y-65532000D03*
X141668805Y-74059025D03*
X135509000Y-86868000D03*
X141244448Y-73153517D03*
X120396000Y-76784000D03*
X120032000Y-80899000D03*
X113411000Y-71501000D03*
X132136732Y-65975966D03*
X120396000Y-75734000D03*
X118982000Y-80899000D03*
D15*
X121567000Y-69459000D02*
X121567000Y-70359000D01*
X121567000Y-84059000D02*
X121567000Y-81181000D01*
X121567000Y-81181000D02*
X121158000Y-80772000D01*
X121158000Y-79121000D02*
X121158000Y-80772000D01*
X124079000Y-76200000D02*
X121158000Y-79121000D01*
X124079000Y-76200000D02*
X124079000Y-75634315D01*
X141605000Y-75057000D02*
X142653001Y-76105001D01*
X142653001Y-76105001D02*
X146678003Y-76105001D01*
X146678003Y-76105001D02*
X147479001Y-76905999D01*
X147153999Y-83535005D02*
X147153999Y-84240001D01*
X147153999Y-84240001D02*
X146304000Y-85090000D01*
X149569002Y-80169998D02*
X149569002Y-81120002D01*
X147479001Y-78079997D02*
X149569002Y-80169998D01*
X147479001Y-76905999D02*
X147479001Y-78079997D01*
X124079000Y-76200000D02*
X126238000Y-76200000D01*
X126238000Y-76200000D02*
X126492000Y-76454000D01*
X126492000Y-79629000D02*
X126492000Y-81788000D01*
X123167000Y-84059000D02*
X121567000Y-84059000D01*
X124786685Y-84059000D02*
X123167000Y-84059000D01*
X126492000Y-82353685D02*
X124786685Y-84059000D01*
X126492000Y-81788000D02*
X126492000Y-82353685D01*
X126492000Y-76454000D02*
X126492000Y-73406000D01*
X126492000Y-73406000D02*
X126492000Y-70231000D01*
X125720000Y-69459000D02*
X121567000Y-69459000D01*
X126492000Y-70231000D02*
X125720000Y-69459000D01*
X124079000Y-75634315D02*
X124079000Y-73610949D01*
X124079000Y-73610949D02*
X123913026Y-73444975D01*
X142240000Y-86360000D02*
X141068994Y-86360000D01*
X141068994Y-86360000D02*
X140725190Y-86703804D01*
X141605000Y-75057000D02*
X141605000Y-77343000D01*
X126492000Y-76454000D02*
X126492000Y-76581000D01*
X126492000Y-76581000D02*
X126492000Y-79629000D01*
X126492000Y-81788000D02*
X125095000Y-81788000D01*
X148463000Y-82226004D02*
X148463000Y-81407000D01*
X148745502Y-81943502D02*
X148463000Y-82226004D01*
X148745502Y-81943502D02*
X147153999Y-83535005D01*
X149569002Y-81120002D02*
X148745502Y-81943502D01*
X138938000Y-73660000D02*
X137922000Y-74676000D01*
X138938000Y-70485000D02*
X138938000Y-73660000D01*
X130302000Y-85344000D02*
X130048000Y-85598000D01*
X130447999Y-85198001D02*
X130447999Y-84944001D01*
X130048000Y-85598000D02*
X130447999Y-85198001D01*
X130447999Y-84944001D02*
X131826000Y-83566000D01*
X134874000Y-83566000D02*
X136652000Y-85344000D01*
X131826000Y-83566000D02*
X134874000Y-83566000D01*
X118491000Y-69459680D02*
X118019578Y-69931102D01*
X118491000Y-67758990D02*
X118491000Y-69459680D01*
X118019578Y-69931102D02*
X117619579Y-70331101D01*
X130048000Y-85598000D02*
X129648001Y-85997999D01*
X114064999Y-85997999D02*
X113665000Y-85598000D01*
X127254000Y-85889998D02*
X127145999Y-85997999D01*
X127254000Y-81788000D02*
X127254000Y-85889998D01*
X129648001Y-85997999D02*
X127145999Y-85997999D01*
X127145999Y-85997999D02*
X114064999Y-85997999D01*
X119891990Y-69055138D02*
X120494128Y-68453000D01*
X119891990Y-69084010D02*
X119891990Y-69055138D01*
X117983000Y-76835000D02*
X117983000Y-70993000D01*
X117983000Y-70993000D02*
X119891990Y-69084010D01*
X117983000Y-76835000D02*
X117983000Y-76708000D01*
X120494128Y-68453000D02*
X133223000Y-68453000D01*
X117983000Y-76835000D02*
X117983000Y-82553872D01*
X117983000Y-82553872D02*
X120552943Y-85123815D01*
X120552943Y-85123815D02*
X123031572Y-85123815D01*
X123031572Y-85123815D02*
X123597257Y-85123815D01*
X123597257Y-85123815D02*
X126077185Y-85123815D01*
X126077185Y-85123815D02*
X126111000Y-85090000D01*
D16*
X145016002Y-79560000D02*
X145854000Y-79560000D01*
X135761839Y-80581962D02*
X136783801Y-79560000D01*
X135337574Y-80581962D02*
X135761839Y-80581962D01*
X136783801Y-79560000D02*
X142511998Y-79560000D01*
X142511998Y-79560000D02*
X143211999Y-78859999D01*
X143211999Y-78859999D02*
X144316001Y-78859999D01*
X145854000Y-79560000D02*
X146304000Y-80010000D01*
X144316001Y-78859999D02*
X145016002Y-79560000D01*
X143211999Y-83700001D02*
X142511998Y-83000000D01*
X142511998Y-83000000D02*
X135386800Y-83000000D01*
X133232686Y-80845886D02*
X133232686Y-72099661D01*
X133232686Y-72099661D02*
X133232686Y-71533976D01*
X145153999Y-83700001D02*
X143211999Y-83700001D01*
X135386800Y-83000000D02*
X133232686Y-80845886D01*
X146304000Y-82550000D02*
X145153999Y-83700001D01*
X136970199Y-80010000D02*
X143314000Y-80010000D01*
X136080038Y-80900161D02*
X136970199Y-80010000D01*
X136080038Y-81324426D02*
X136080038Y-80900161D01*
X143314000Y-80010000D02*
X143764000Y-80010000D01*
X133932687Y-70984581D02*
X133920025Y-70971919D01*
X135573200Y-82550000D02*
X133829000Y-80805800D01*
X133932687Y-71869977D02*
X133932687Y-70984581D01*
X133920025Y-70971919D02*
X133520026Y-70571920D01*
X143764000Y-82550000D02*
X135573200Y-82550000D01*
X133829000Y-71973664D02*
X133932687Y-71869977D01*
X133829000Y-80805800D02*
X133829000Y-71973664D01*
D15*
X145161000Y-81280000D02*
X147066000Y-81280000D01*
X147066000Y-81280000D02*
X148336000Y-80010000D01*
X141097000Y-68580000D02*
X141097000Y-69342000D01*
X141097000Y-69342000D02*
X140335000Y-70104000D01*
X140335000Y-70104000D02*
X140335000Y-70993000D01*
X137922000Y-70427998D02*
X137922000Y-73540000D01*
X138589999Y-69759999D02*
X137922000Y-70427998D01*
X139286001Y-69759999D02*
X138589999Y-69759999D01*
X140335000Y-70993000D02*
X140335000Y-70808998D01*
X140335000Y-70808998D02*
X139286001Y-69759999D01*
X142965001Y-86708001D02*
X142965001Y-86011999D01*
X133495999Y-87648999D02*
X138878736Y-87648999D01*
X138934725Y-87593010D02*
X139334724Y-87193011D01*
X139734723Y-87593010D02*
X142079992Y-87593010D01*
X133096000Y-87249000D02*
X133495999Y-87648999D01*
X139334724Y-87193011D02*
X139734723Y-87593010D01*
X138878736Y-87648999D02*
X138934725Y-87593010D01*
X142079992Y-87593010D02*
X142965001Y-86708001D01*
X142314200Y-85361198D02*
X142314200Y-85114781D01*
X142965001Y-86011999D02*
X142314200Y-85361198D01*
X131867198Y-66700976D02*
X133816801Y-66700976D01*
X131740198Y-66827976D02*
X131867198Y-66700976D01*
X133816801Y-66700976D02*
X134425825Y-67310000D01*
X134425825Y-67310000D02*
X142664000Y-67310000D01*
X127508000Y-65532000D02*
X128803976Y-66827976D01*
X142664000Y-67310000D02*
X143764000Y-67310000D01*
X128803976Y-66827976D02*
X131740198Y-66827976D01*
X131862998Y-68002989D02*
X122189861Y-68002989D01*
X132264989Y-67600998D02*
X131862998Y-68002989D01*
X122189861Y-68002989D02*
X121220861Y-67033989D01*
X121220861Y-67033989D02*
X117497011Y-67033989D01*
X117497011Y-67033989D02*
X117239999Y-67291001D01*
X117239999Y-67291001D02*
X116840000Y-67691000D01*
X133444002Y-67600998D02*
X132264989Y-67600998D01*
X133948002Y-68104998D02*
X133444002Y-67600998D01*
X132080000Y-70669004D02*
X133948002Y-68801002D01*
X132080000Y-73914000D02*
X132080000Y-70669004D01*
X133948002Y-68801002D02*
X133948002Y-68104998D01*
X121666000Y-66421000D02*
X122522987Y-67277987D01*
X122522987Y-67277987D02*
X131926598Y-67277987D01*
X133630402Y-67150987D02*
X134529000Y-68049585D01*
X134529000Y-68049585D02*
X134529000Y-72974315D01*
X132053598Y-67150987D02*
X133630402Y-67150987D01*
X131926598Y-67277987D02*
X132053598Y-67150987D01*
X134529000Y-72974315D02*
X134529000Y-73540000D01*
X144526000Y-65532000D02*
X146304000Y-67310000D01*
X137795000Y-65532000D02*
X144526000Y-65532000D01*
X143764000Y-69850000D02*
X142588999Y-71025001D01*
X142588999Y-73138831D02*
X142068804Y-73659026D01*
X142068804Y-73659026D02*
X141668805Y-74059025D01*
X142588999Y-71025001D02*
X142588999Y-73138831D01*
X148209000Y-83497415D02*
X148209000Y-88519000D01*
X143764000Y-69850000D02*
X144939001Y-71025001D01*
X146678003Y-71025001D02*
X148209000Y-72555998D01*
X150019013Y-81687402D02*
X148209000Y-83497415D01*
X148209000Y-72555998D02*
X148209000Y-78173585D01*
X144939001Y-71025001D02*
X146678003Y-71025001D01*
X148209000Y-78173585D02*
X150019013Y-79983598D01*
X150019013Y-79983598D02*
X150019013Y-81687402D01*
X148209000Y-88519000D02*
X147922999Y-88805001D01*
X135109001Y-86468001D02*
X135509000Y-86868000D01*
X132803997Y-86468001D02*
X135109001Y-86468001D01*
X132370999Y-86900999D02*
X132803997Y-86468001D01*
X132370999Y-87597001D02*
X132370999Y-86900999D01*
X133578999Y-88805001D02*
X132370999Y-87597001D01*
X147922999Y-88805001D02*
X133578999Y-88805001D01*
X141244448Y-70630550D02*
X141244448Y-72587832D01*
X146304000Y-69850000D02*
X145128999Y-68674999D01*
X145128999Y-68674999D02*
X143199999Y-68674999D01*
X143199999Y-68674999D02*
X141244448Y-70630550D01*
X141244448Y-72587832D02*
X141244448Y-73153517D01*
D16*
X120396000Y-76784000D02*
X119982397Y-76784000D01*
X119982397Y-76784000D02*
X119732000Y-77034397D01*
X119732000Y-77034397D02*
X119732000Y-80599000D01*
X119732000Y-80599000D02*
X120032000Y-80899000D01*
D15*
X113411000Y-69686128D02*
X118346618Y-64750510D01*
X129878236Y-66377957D02*
X131169056Y-66377957D01*
X131169056Y-66377957D02*
X131571047Y-65975966D01*
X128250789Y-64750510D02*
X129878236Y-66377957D01*
X131571047Y-65975966D02*
X132136732Y-65975966D01*
X118346618Y-64750510D02*
X128250789Y-64750510D01*
X113411000Y-71501000D02*
X113411000Y-69686128D01*
D16*
X119282000Y-76848000D02*
X119282000Y-80599000D01*
X120396000Y-75734000D02*
X119282000Y-76848000D01*
X119282000Y-80599000D02*
X118982000Y-80899000D01*
D17*
G36*
X112899998Y-69122329D02*
G01*
X112871000Y-69146127D01*
X112847202Y-69175125D01*
X112847201Y-69175126D01*
X112776026Y-69261852D01*
X112705454Y-69393882D01*
X112682660Y-69469026D01*
X112662066Y-69536920D01*
X112661998Y-69537143D01*
X112647324Y-69686128D01*
X112651001Y-69723460D01*
X112651000Y-70797289D01*
X112607063Y-70841226D01*
X112493795Y-71010744D01*
X112415774Y-71199102D01*
X112376000Y-71399061D01*
X112376000Y-71602939D01*
X112415774Y-71802898D01*
X112493795Y-71991256D01*
X112607063Y-72160774D01*
X112751226Y-72304937D01*
X112920744Y-72418205D01*
X113109102Y-72496226D01*
X113309061Y-72536000D01*
X113512939Y-72536000D01*
X113712898Y-72496226D01*
X113901256Y-72418205D01*
X114070774Y-72304937D01*
X114214937Y-72160774D01*
X114328205Y-71991256D01*
X114406226Y-71802898D01*
X114446000Y-71602939D01*
X114446000Y-71399061D01*
X114406226Y-71199102D01*
X114328205Y-71010744D01*
X114214937Y-70841226D01*
X114171000Y-70797289D01*
X114171000Y-70430369D01*
X114197495Y-70456882D01*
X114407919Y-70597585D01*
X114641749Y-70694533D01*
X114890000Y-70744000D01*
X115390000Y-70744000D01*
X115390000Y-69586000D01*
X115370000Y-69586000D01*
X115370000Y-69332000D01*
X115390000Y-69332000D01*
X115390000Y-69312000D01*
X115644000Y-69312000D01*
X115644000Y-69332000D01*
X115664000Y-69332000D01*
X115664000Y-69586000D01*
X115644000Y-69586000D01*
X115644000Y-70744000D01*
X116144000Y-70744000D01*
X116392251Y-70694533D01*
X116617977Y-70600945D01*
X116624353Y-70632999D01*
X116702374Y-70821357D01*
X116815642Y-70990875D01*
X116959805Y-71135038D01*
X117129323Y-71248306D01*
X117223001Y-71287109D01*
X117223000Y-76797667D01*
X117223000Y-76797668D01*
X117223001Y-82516540D01*
X117219324Y-82553872D01*
X117233998Y-82702857D01*
X117277454Y-82846118D01*
X117348026Y-82978148D01*
X117419201Y-83064874D01*
X117443000Y-83093873D01*
X117471998Y-83117671D01*
X119592325Y-85237999D01*
X116528606Y-85237999D01*
X116626081Y-85197585D01*
X116836505Y-85056882D01*
X117015436Y-84877830D01*
X117155997Y-84667311D01*
X117252787Y-84433415D01*
X117260099Y-84384471D01*
X117136067Y-84186000D01*
X115644000Y-84186000D01*
X115644000Y-84206000D01*
X115390000Y-84206000D01*
X115390000Y-84186000D01*
X113897933Y-84186000D01*
X113773901Y-84384471D01*
X113781213Y-84433415D01*
X113840928Y-84577717D01*
X113766939Y-84563000D01*
X113563061Y-84563000D01*
X113363102Y-84602774D01*
X113174744Y-84680795D01*
X113005226Y-84794063D01*
X112861063Y-84938226D01*
X112747795Y-85107744D01*
X112669774Y-85296102D01*
X112630000Y-85496061D01*
X112630000Y-85699939D01*
X112669774Y-85899898D01*
X112747795Y-86088256D01*
X112861063Y-86257774D01*
X113005226Y-86401937D01*
X113174744Y-86515205D01*
X113363102Y-86593226D01*
X113563061Y-86633000D01*
X113640774Y-86633000D01*
X113772752Y-86703545D01*
X113916013Y-86747002D01*
X114027666Y-86757999D01*
X114027676Y-86757999D01*
X114064998Y-86761675D01*
X114102321Y-86757999D01*
X127108677Y-86757999D01*
X127145999Y-86761675D01*
X127183321Y-86757999D01*
X129610679Y-86757999D01*
X129648001Y-86761675D01*
X129685323Y-86757999D01*
X129685334Y-86757999D01*
X129796987Y-86747002D01*
X129940248Y-86703545D01*
X130072226Y-86633000D01*
X130149939Y-86633000D01*
X130349898Y-86593226D01*
X130538256Y-86515205D01*
X130707774Y-86401937D01*
X130851937Y-86257774D01*
X130965205Y-86088256D01*
X131043226Y-85899898D01*
X131083000Y-85699939D01*
X131083000Y-85622226D01*
X131153545Y-85490248D01*
X131197002Y-85346987D01*
X131205435Y-85261366D01*
X132140802Y-84326000D01*
X134559199Y-84326000D01*
X135617000Y-85383802D01*
X135617000Y-85445939D01*
X135656774Y-85645898D01*
X135734795Y-85834256D01*
X135752812Y-85861220D01*
X135610939Y-85833000D01*
X135533226Y-85833000D01*
X135401248Y-85762455D01*
X135257987Y-85718998D01*
X135146334Y-85708001D01*
X135146323Y-85708001D01*
X135109001Y-85704325D01*
X135071679Y-85708001D01*
X132841322Y-85708001D01*
X132803997Y-85704325D01*
X132766672Y-85708001D01*
X132766664Y-85708001D01*
X132655011Y-85718998D01*
X132511750Y-85762455D01*
X132379721Y-85833027D01*
X132263996Y-85928000D01*
X132240193Y-85957004D01*
X131859997Y-86337200D01*
X131830999Y-86360998D01*
X131807201Y-86389996D01*
X131807200Y-86389997D01*
X131736025Y-86476723D01*
X131665453Y-86608753D01*
X131658098Y-86633000D01*
X131621996Y-86752013D01*
X131610999Y-86863666D01*
X131610999Y-86863677D01*
X131607323Y-86900999D01*
X131610999Y-86938321D01*
X131610999Y-87404500D01*
X131607220Y-87401951D01*
X131598467Y-87397297D01*
X131312915Y-87248014D01*
X131253243Y-87223905D01*
X131193927Y-87198971D01*
X131184441Y-87196107D01*
X131184435Y-87196105D01*
X130875329Y-87105131D01*
X130812153Y-87093080D01*
X130749083Y-87080133D01*
X130739217Y-87079166D01*
X130418324Y-87049962D01*
X130354008Y-87050411D01*
X130289625Y-87049962D01*
X130279759Y-87050929D01*
X129959305Y-87084610D01*
X129896274Y-87097548D01*
X129833056Y-87109608D01*
X129823572Y-87112472D01*
X129823568Y-87112473D01*
X129823565Y-87112474D01*
X129823566Y-87112474D01*
X129515758Y-87207757D01*
X129456465Y-87232681D01*
X129396772Y-87256799D01*
X129388019Y-87261453D01*
X129104580Y-87414709D01*
X129051271Y-87450666D01*
X128997384Y-87485929D01*
X128989702Y-87492194D01*
X128741428Y-87697584D01*
X128696090Y-87743240D01*
X128650107Y-87788270D01*
X128643788Y-87795908D01*
X128440136Y-88045610D01*
X128404523Y-88099212D01*
X128368170Y-88152305D01*
X128363455Y-88161025D01*
X128212182Y-88445527D01*
X128187675Y-88504986D01*
X128162308Y-88564172D01*
X128159377Y-88573642D01*
X128121831Y-88698000D01*
X111708000Y-88698000D01*
X111708000Y-83733529D01*
X113773901Y-83733529D01*
X113897933Y-83932000D01*
X115390000Y-83932000D01*
X115390000Y-82774000D01*
X115644000Y-82774000D01*
X115644000Y-83932000D01*
X117136067Y-83932000D01*
X117260099Y-83733529D01*
X117252787Y-83684585D01*
X117155997Y-83450689D01*
X117015436Y-83240170D01*
X116836505Y-83061118D01*
X116626081Y-82920415D01*
X116392251Y-82823467D01*
X116144000Y-82774000D01*
X115644000Y-82774000D01*
X115390000Y-82774000D01*
X114890000Y-82774000D01*
X114641749Y-82823467D01*
X114407919Y-82920415D01*
X114197495Y-83061118D01*
X114018564Y-83240170D01*
X113878003Y-83450689D01*
X113781213Y-83684585D01*
X113773901Y-83733529D01*
X111708000Y-83733529D01*
X111708000Y-65060500D01*
X116961826Y-65060500D01*
X112899998Y-69122329D01*
X112899998Y-69122329D01*
G37*
X112899998Y-69122329D02*
X112871000Y-69146127D01*
X112847202Y-69175125D01*
X112847201Y-69175126D01*
X112776026Y-69261852D01*
X112705454Y-69393882D01*
X112682660Y-69469026D01*
X112662066Y-69536920D01*
X112661998Y-69537143D01*
X112647324Y-69686128D01*
X112651001Y-69723460D01*
X112651000Y-70797289D01*
X112607063Y-70841226D01*
X112493795Y-71010744D01*
X112415774Y-71199102D01*
X112376000Y-71399061D01*
X112376000Y-71602939D01*
X112415774Y-71802898D01*
X112493795Y-71991256D01*
X112607063Y-72160774D01*
X112751226Y-72304937D01*
X112920744Y-72418205D01*
X113109102Y-72496226D01*
X113309061Y-72536000D01*
X113512939Y-72536000D01*
X113712898Y-72496226D01*
X113901256Y-72418205D01*
X114070774Y-72304937D01*
X114214937Y-72160774D01*
X114328205Y-71991256D01*
X114406226Y-71802898D01*
X114446000Y-71602939D01*
X114446000Y-71399061D01*
X114406226Y-71199102D01*
X114328205Y-71010744D01*
X114214937Y-70841226D01*
X114171000Y-70797289D01*
X114171000Y-70430369D01*
X114197495Y-70456882D01*
X114407919Y-70597585D01*
X114641749Y-70694533D01*
X114890000Y-70744000D01*
X115390000Y-70744000D01*
X115390000Y-69586000D01*
X115370000Y-69586000D01*
X115370000Y-69332000D01*
X115390000Y-69332000D01*
X115390000Y-69312000D01*
X115644000Y-69312000D01*
X115644000Y-69332000D01*
X115664000Y-69332000D01*
X115664000Y-69586000D01*
X115644000Y-69586000D01*
X115644000Y-70744000D01*
X116144000Y-70744000D01*
X116392251Y-70694533D01*
X116617977Y-70600945D01*
X116624353Y-70632999D01*
X116702374Y-70821357D01*
X116815642Y-70990875D01*
X116959805Y-71135038D01*
X117129323Y-71248306D01*
X117223001Y-71287109D01*
X117223000Y-76797667D01*
X117223000Y-76797668D01*
X117223001Y-82516540D01*
X117219324Y-82553872D01*
X117233998Y-82702857D01*
X117277454Y-82846118D01*
X117348026Y-82978148D01*
X117419201Y-83064874D01*
X117443000Y-83093873D01*
X117471998Y-83117671D01*
X119592325Y-85237999D01*
X116528606Y-85237999D01*
X116626081Y-85197585D01*
X116836505Y-85056882D01*
X117015436Y-84877830D01*
X117155997Y-84667311D01*
X117252787Y-84433415D01*
X117260099Y-84384471D01*
X117136067Y-84186000D01*
X115644000Y-84186000D01*
X115644000Y-84206000D01*
X115390000Y-84206000D01*
X115390000Y-84186000D01*
X113897933Y-84186000D01*
X113773901Y-84384471D01*
X113781213Y-84433415D01*
X113840928Y-84577717D01*
X113766939Y-84563000D01*
X113563061Y-84563000D01*
X113363102Y-84602774D01*
X113174744Y-84680795D01*
X113005226Y-84794063D01*
X112861063Y-84938226D01*
X112747795Y-85107744D01*
X112669774Y-85296102D01*
X112630000Y-85496061D01*
X112630000Y-85699939D01*
X112669774Y-85899898D01*
X112747795Y-86088256D01*
X112861063Y-86257774D01*
X113005226Y-86401937D01*
X113174744Y-86515205D01*
X113363102Y-86593226D01*
X113563061Y-86633000D01*
X113640774Y-86633000D01*
X113772752Y-86703545D01*
X113916013Y-86747002D01*
X114027666Y-86757999D01*
X114027676Y-86757999D01*
X114064998Y-86761675D01*
X114102321Y-86757999D01*
X127108677Y-86757999D01*
X127145999Y-86761675D01*
X127183321Y-86757999D01*
X129610679Y-86757999D01*
X129648001Y-86761675D01*
X129685323Y-86757999D01*
X129685334Y-86757999D01*
X129796987Y-86747002D01*
X129940248Y-86703545D01*
X130072226Y-86633000D01*
X130149939Y-86633000D01*
X130349898Y-86593226D01*
X130538256Y-86515205D01*
X130707774Y-86401937D01*
X130851937Y-86257774D01*
X130965205Y-86088256D01*
X131043226Y-85899898D01*
X131083000Y-85699939D01*
X131083000Y-85622226D01*
X131153545Y-85490248D01*
X131197002Y-85346987D01*
X131205435Y-85261366D01*
X132140802Y-84326000D01*
X134559199Y-84326000D01*
X135617000Y-85383802D01*
X135617000Y-85445939D01*
X135656774Y-85645898D01*
X135734795Y-85834256D01*
X135752812Y-85861220D01*
X135610939Y-85833000D01*
X135533226Y-85833000D01*
X135401248Y-85762455D01*
X135257987Y-85718998D01*
X135146334Y-85708001D01*
X135146323Y-85708001D01*
X135109001Y-85704325D01*
X135071679Y-85708001D01*
X132841322Y-85708001D01*
X132803997Y-85704325D01*
X132766672Y-85708001D01*
X132766664Y-85708001D01*
X132655011Y-85718998D01*
X132511750Y-85762455D01*
X132379721Y-85833027D01*
X132263996Y-85928000D01*
X132240193Y-85957004D01*
X131859997Y-86337200D01*
X131830999Y-86360998D01*
X131807201Y-86389996D01*
X131807200Y-86389997D01*
X131736025Y-86476723D01*
X131665453Y-86608753D01*
X131658098Y-86633000D01*
X131621996Y-86752013D01*
X131610999Y-86863666D01*
X131610999Y-86863677D01*
X131607323Y-86900999D01*
X131610999Y-86938321D01*
X131610999Y-87404500D01*
X131607220Y-87401951D01*
X131598467Y-87397297D01*
X131312915Y-87248014D01*
X131253243Y-87223905D01*
X131193927Y-87198971D01*
X131184441Y-87196107D01*
X131184435Y-87196105D01*
X130875329Y-87105131D01*
X130812153Y-87093080D01*
X130749083Y-87080133D01*
X130739217Y-87079166D01*
X130418324Y-87049962D01*
X130354008Y-87050411D01*
X130289625Y-87049962D01*
X130279759Y-87050929D01*
X129959305Y-87084610D01*
X129896274Y-87097548D01*
X129833056Y-87109608D01*
X129823572Y-87112472D01*
X129823568Y-87112473D01*
X129823565Y-87112474D01*
X129823566Y-87112474D01*
X129515758Y-87207757D01*
X129456465Y-87232681D01*
X129396772Y-87256799D01*
X129388019Y-87261453D01*
X129104580Y-87414709D01*
X129051271Y-87450666D01*
X128997384Y-87485929D01*
X128989702Y-87492194D01*
X128741428Y-87697584D01*
X128696090Y-87743240D01*
X128650107Y-87788270D01*
X128643788Y-87795908D01*
X128440136Y-88045610D01*
X128404523Y-88099212D01*
X128368170Y-88152305D01*
X128363455Y-88161025D01*
X128212182Y-88445527D01*
X128187675Y-88504986D01*
X128162308Y-88564172D01*
X128159377Y-88573642D01*
X128121831Y-88698000D01*
X111708000Y-88698000D01*
X111708000Y-83733529D01*
X113773901Y-83733529D01*
X113897933Y-83932000D01*
X115390000Y-83932000D01*
X115390000Y-82774000D01*
X115644000Y-82774000D01*
X115644000Y-83932000D01*
X117136067Y-83932000D01*
X117260099Y-83733529D01*
X117252787Y-83684585D01*
X117155997Y-83450689D01*
X117015436Y-83240170D01*
X116836505Y-83061118D01*
X116626081Y-82920415D01*
X116392251Y-82823467D01*
X116144000Y-82774000D01*
X115644000Y-82774000D01*
X115390000Y-82774000D01*
X114890000Y-82774000D01*
X114641749Y-82823467D01*
X114407919Y-82920415D01*
X114197495Y-83061118D01*
X114018564Y-83240170D01*
X113878003Y-83450689D01*
X113781213Y-83684585D01*
X113773901Y-83733529D01*
X111708000Y-83733529D01*
X111708000Y-65060500D01*
X116961826Y-65060500D01*
X112899998Y-69122329D01*
G36*
X142586149Y-84113598D02*
G01*
X142416139Y-84079781D01*
X142212261Y-84079781D01*
X142012302Y-84119555D01*
X141823944Y-84197576D01*
X141654426Y-84310844D01*
X141510263Y-84455007D01*
X141396995Y-84624525D01*
X141318974Y-84812883D01*
X141279200Y-85012842D01*
X141279200Y-85216720D01*
X141318974Y-85416679D01*
X141396995Y-85605037D01*
X141510263Y-85774555D01*
X141654426Y-85918718D01*
X141823944Y-86031986D01*
X141971170Y-86092970D01*
X142205001Y-86326801D01*
X142205001Y-86393199D01*
X141765191Y-86833010D01*
X140305883Y-86833010D01*
X140251929Y-86702755D01*
X140138661Y-86533237D01*
X139994498Y-86389074D01*
X139824980Y-86275806D01*
X139636622Y-86197785D01*
X139436663Y-86158011D01*
X139232785Y-86158011D01*
X139032826Y-86197785D01*
X138844468Y-86275806D01*
X138674950Y-86389074D01*
X138530787Y-86533237D01*
X138417519Y-86702755D01*
X138340374Y-86888999D01*
X136544000Y-86888999D01*
X136544000Y-86766061D01*
X136504226Y-86566102D01*
X136426205Y-86377744D01*
X136408188Y-86350780D01*
X136550061Y-86379000D01*
X136753939Y-86379000D01*
X136953898Y-86339226D01*
X137142256Y-86261205D01*
X137311774Y-86147937D01*
X137455937Y-86003774D01*
X137569205Y-85834256D01*
X137647226Y-85645898D01*
X137687000Y-85445939D01*
X137687000Y-85242061D01*
X137647226Y-85042102D01*
X137569205Y-84853744D01*
X137455937Y-84684226D01*
X137311774Y-84540063D01*
X137142256Y-84426795D01*
X136953898Y-84348774D01*
X136753939Y-84309000D01*
X136691802Y-84309000D01*
X136117801Y-83735000D01*
X142207552Y-83735000D01*
X142586149Y-84113598D01*
X142586149Y-84113598D01*
G37*
X142586149Y-84113598D02*
X142416139Y-84079781D01*
X142212261Y-84079781D01*
X142012302Y-84119555D01*
X141823944Y-84197576D01*
X141654426Y-84310844D01*
X141510263Y-84455007D01*
X141396995Y-84624525D01*
X141318974Y-84812883D01*
X141279200Y-85012842D01*
X141279200Y-85216720D01*
X141318974Y-85416679D01*
X141396995Y-85605037D01*
X141510263Y-85774555D01*
X141654426Y-85918718D01*
X141823944Y-86031986D01*
X141971170Y-86092970D01*
X142205001Y-86326801D01*
X142205001Y-86393199D01*
X141765191Y-86833010D01*
X140305883Y-86833010D01*
X140251929Y-86702755D01*
X140138661Y-86533237D01*
X139994498Y-86389074D01*
X139824980Y-86275806D01*
X139636622Y-86197785D01*
X139436663Y-86158011D01*
X139232785Y-86158011D01*
X139032826Y-86197785D01*
X138844468Y-86275806D01*
X138674950Y-86389074D01*
X138530787Y-86533237D01*
X138417519Y-86702755D01*
X138340374Y-86888999D01*
X136544000Y-86888999D01*
X136544000Y-86766061D01*
X136504226Y-86566102D01*
X136426205Y-86377744D01*
X136408188Y-86350780D01*
X136550061Y-86379000D01*
X136753939Y-86379000D01*
X136953898Y-86339226D01*
X137142256Y-86261205D01*
X137311774Y-86147937D01*
X137455937Y-86003774D01*
X137569205Y-85834256D01*
X137647226Y-85645898D01*
X137687000Y-85445939D01*
X137687000Y-85242061D01*
X137647226Y-85042102D01*
X137569205Y-84853744D01*
X137455937Y-84684226D01*
X137311774Y-84540063D01*
X137142256Y-84426795D01*
X136953898Y-84348774D01*
X136753939Y-84309000D01*
X136691802Y-84309000D01*
X136117801Y-83735000D01*
X142207552Y-83735000D01*
X142586149Y-84113598D01*
G36*
X131568998Y-70105205D02*
G01*
X131540000Y-70129003D01*
X131516202Y-70158001D01*
X131516201Y-70158002D01*
X131445026Y-70244728D01*
X131374454Y-70376758D01*
X131350150Y-70456882D01*
X131330998Y-70520018D01*
X131324407Y-70586939D01*
X131316324Y-70669004D01*
X131320001Y-70706336D01*
X131320000Y-73210289D01*
X131276063Y-73254226D01*
X131162795Y-73423744D01*
X131084774Y-73612102D01*
X131045000Y-73812061D01*
X131045000Y-74015939D01*
X131084774Y-74215898D01*
X131162795Y-74404256D01*
X131276063Y-74573774D01*
X131420226Y-74717937D01*
X131589744Y-74831205D01*
X131778102Y-74909226D01*
X131978061Y-74949000D01*
X132181939Y-74949000D01*
X132381898Y-74909226D01*
X132497687Y-74861264D01*
X132497686Y-80809781D01*
X132494130Y-80845886D01*
X132502139Y-80927205D01*
X132508321Y-80989970D01*
X132550349Y-81128518D01*
X132618599Y-81256205D01*
X132710448Y-81368123D01*
X132738494Y-81391140D01*
X134153353Y-82806000D01*
X131863325Y-82806000D01*
X131826000Y-82802324D01*
X131788675Y-82806000D01*
X131788667Y-82806000D01*
X131677014Y-82816997D01*
X131533753Y-82860454D01*
X131401724Y-82931026D01*
X131285999Y-83025999D01*
X131262201Y-83054997D01*
X129937000Y-84380199D01*
X129907998Y-84404000D01*
X129813025Y-84519725D01*
X129771314Y-84597759D01*
X129746102Y-84602774D01*
X129557744Y-84680795D01*
X129388226Y-84794063D01*
X129244063Y-84938226D01*
X129130795Y-85107744D01*
X129076841Y-85237999D01*
X128014000Y-85237999D01*
X128014000Y-82491711D01*
X128057937Y-82447774D01*
X128171205Y-82278256D01*
X128249226Y-82089898D01*
X128289000Y-81889939D01*
X128289000Y-81686061D01*
X128249226Y-81486102D01*
X128171205Y-81297744D01*
X128057937Y-81128226D01*
X127913774Y-80984063D01*
X127744256Y-80870795D01*
X127555898Y-80792774D01*
X127355939Y-80753000D01*
X127152061Y-80753000D01*
X126952102Y-80792774D01*
X126763744Y-80870795D01*
X126594226Y-80984063D01*
X126450063Y-81128226D01*
X126336795Y-81297744D01*
X126258774Y-81486102D01*
X126219000Y-81686061D01*
X126219000Y-81889939D01*
X126258774Y-82089898D01*
X126336795Y-82278256D01*
X126450063Y-82447774D01*
X126494000Y-82491711D01*
X126494001Y-84128368D01*
X126412898Y-84094774D01*
X126212939Y-84055000D01*
X126009061Y-84055000D01*
X125809102Y-84094774D01*
X125620744Y-84172795D01*
X125451226Y-84286063D01*
X125373474Y-84363815D01*
X123497190Y-84363815D01*
X123386067Y-84186000D01*
X121694000Y-84186000D01*
X121694000Y-84206000D01*
X121440000Y-84206000D01*
X121440000Y-84186000D01*
X121420000Y-84186000D01*
X121420000Y-83932000D01*
X121440000Y-83932000D01*
X121440000Y-82774000D01*
X121694000Y-82774000D01*
X121694000Y-83932000D01*
X123386067Y-83932000D01*
X123510099Y-83733529D01*
X123502787Y-83684585D01*
X123405997Y-83450689D01*
X123265436Y-83240170D01*
X123086505Y-83061118D01*
X122876081Y-82920415D01*
X122642251Y-82823467D01*
X122394000Y-82774000D01*
X121694000Y-82774000D01*
X121440000Y-82774000D01*
X120740000Y-82774000D01*
X120491749Y-82823467D01*
X120257919Y-82920415D01*
X120047495Y-83061118D01*
X119868564Y-83240170D01*
X119818732Y-83314803D01*
X118743000Y-82239071D01*
X118743000Y-81906737D01*
X118880061Y-81934000D01*
X119083939Y-81934000D01*
X119283898Y-81894226D01*
X119472256Y-81816205D01*
X119507000Y-81792990D01*
X119541744Y-81816205D01*
X119730102Y-81894226D01*
X119930061Y-81934000D01*
X120133939Y-81934000D01*
X120333898Y-81894226D01*
X120522256Y-81816205D01*
X120691774Y-81702937D01*
X120835937Y-81558774D01*
X120949205Y-81389256D01*
X121027226Y-81200898D01*
X121067000Y-81000939D01*
X121067000Y-80797061D01*
X121027226Y-80597102D01*
X120949205Y-80408744D01*
X120835937Y-80239226D01*
X120691774Y-80095063D01*
X120522256Y-79981795D01*
X120467000Y-79958907D01*
X120467000Y-77819000D01*
X120497939Y-77819000D01*
X120697898Y-77779226D01*
X120886256Y-77701205D01*
X121055774Y-77587937D01*
X121199937Y-77443774D01*
X121313205Y-77274256D01*
X121391226Y-77085898D01*
X121431000Y-76885939D01*
X121431000Y-76682061D01*
X121391226Y-76482102D01*
X121313205Y-76293744D01*
X121289990Y-76259000D01*
X121313205Y-76224256D01*
X121391226Y-76035898D01*
X121431000Y-75835939D01*
X121431000Y-75632061D01*
X121391226Y-75432102D01*
X121313205Y-75243744D01*
X121199937Y-75074226D01*
X121055774Y-74930063D01*
X120886256Y-74816795D01*
X120697898Y-74738774D01*
X120497939Y-74699000D01*
X120294061Y-74699000D01*
X120094102Y-74738774D01*
X119905744Y-74816795D01*
X119736226Y-74930063D01*
X119592063Y-75074226D01*
X119478795Y-75243744D01*
X119400774Y-75432102D01*
X119361000Y-75632061D01*
X119361000Y-75729553D01*
X118787808Y-76302746D01*
X118759762Y-76325763D01*
X118743000Y-76346187D01*
X118743000Y-71307801D01*
X119830292Y-70220510D01*
X119868564Y-70277830D01*
X120047495Y-70456882D01*
X120257919Y-70597585D01*
X120491749Y-70694533D01*
X120740000Y-70744000D01*
X121440000Y-70744000D01*
X121440000Y-69586000D01*
X121694000Y-69586000D01*
X121694000Y-70744000D01*
X122394000Y-70744000D01*
X122642251Y-70694533D01*
X122876081Y-70597585D01*
X123086505Y-70456882D01*
X123265436Y-70277830D01*
X123405997Y-70067311D01*
X123502787Y-69833415D01*
X123510099Y-69784471D01*
X123386067Y-69586000D01*
X121694000Y-69586000D01*
X121440000Y-69586000D01*
X121420000Y-69586000D01*
X121420000Y-69332000D01*
X121440000Y-69332000D01*
X121440000Y-69312000D01*
X121694000Y-69312000D01*
X121694000Y-69332000D01*
X123386067Y-69332000D01*
X123460435Y-69213000D01*
X132461203Y-69213000D01*
X131568998Y-70105205D01*
X131568998Y-70105205D01*
G37*
X131568998Y-70105205D02*
X131540000Y-70129003D01*
X131516202Y-70158001D01*
X131516201Y-70158002D01*
X131445026Y-70244728D01*
X131374454Y-70376758D01*
X131350150Y-70456882D01*
X131330998Y-70520018D01*
X131324407Y-70586939D01*
X131316324Y-70669004D01*
X131320001Y-70706336D01*
X131320000Y-73210289D01*
X131276063Y-73254226D01*
X131162795Y-73423744D01*
X131084774Y-73612102D01*
X131045000Y-73812061D01*
X131045000Y-74015939D01*
X131084774Y-74215898D01*
X131162795Y-74404256D01*
X131276063Y-74573774D01*
X131420226Y-74717937D01*
X131589744Y-74831205D01*
X131778102Y-74909226D01*
X131978061Y-74949000D01*
X132181939Y-74949000D01*
X132381898Y-74909226D01*
X132497687Y-74861264D01*
X132497686Y-80809781D01*
X132494130Y-80845886D01*
X132502139Y-80927205D01*
X132508321Y-80989970D01*
X132550349Y-81128518D01*
X132618599Y-81256205D01*
X132710448Y-81368123D01*
X132738494Y-81391140D01*
X134153353Y-82806000D01*
X131863325Y-82806000D01*
X131826000Y-82802324D01*
X131788675Y-82806000D01*
X131788667Y-82806000D01*
X131677014Y-82816997D01*
X131533753Y-82860454D01*
X131401724Y-82931026D01*
X131285999Y-83025999D01*
X131262201Y-83054997D01*
X129937000Y-84380199D01*
X129907998Y-84404000D01*
X129813025Y-84519725D01*
X129771314Y-84597759D01*
X129746102Y-84602774D01*
X129557744Y-84680795D01*
X129388226Y-84794063D01*
X129244063Y-84938226D01*
X129130795Y-85107744D01*
X129076841Y-85237999D01*
X128014000Y-85237999D01*
X128014000Y-82491711D01*
X128057937Y-82447774D01*
X128171205Y-82278256D01*
X128249226Y-82089898D01*
X128289000Y-81889939D01*
X128289000Y-81686061D01*
X128249226Y-81486102D01*
X128171205Y-81297744D01*
X128057937Y-81128226D01*
X127913774Y-80984063D01*
X127744256Y-80870795D01*
X127555898Y-80792774D01*
X127355939Y-80753000D01*
X127152061Y-80753000D01*
X126952102Y-80792774D01*
X126763744Y-80870795D01*
X126594226Y-80984063D01*
X126450063Y-81128226D01*
X126336795Y-81297744D01*
X126258774Y-81486102D01*
X126219000Y-81686061D01*
X126219000Y-81889939D01*
X126258774Y-82089898D01*
X126336795Y-82278256D01*
X126450063Y-82447774D01*
X126494000Y-82491711D01*
X126494001Y-84128368D01*
X126412898Y-84094774D01*
X126212939Y-84055000D01*
X126009061Y-84055000D01*
X125809102Y-84094774D01*
X125620744Y-84172795D01*
X125451226Y-84286063D01*
X125373474Y-84363815D01*
X123497190Y-84363815D01*
X123386067Y-84186000D01*
X121694000Y-84186000D01*
X121694000Y-84206000D01*
X121440000Y-84206000D01*
X121440000Y-84186000D01*
X121420000Y-84186000D01*
X121420000Y-83932000D01*
X121440000Y-83932000D01*
X121440000Y-82774000D01*
X121694000Y-82774000D01*
X121694000Y-83932000D01*
X123386067Y-83932000D01*
X123510099Y-83733529D01*
X123502787Y-83684585D01*
X123405997Y-83450689D01*
X123265436Y-83240170D01*
X123086505Y-83061118D01*
X122876081Y-82920415D01*
X122642251Y-82823467D01*
X122394000Y-82774000D01*
X121694000Y-82774000D01*
X121440000Y-82774000D01*
X120740000Y-82774000D01*
X120491749Y-82823467D01*
X120257919Y-82920415D01*
X120047495Y-83061118D01*
X119868564Y-83240170D01*
X119818732Y-83314803D01*
X118743000Y-82239071D01*
X118743000Y-81906737D01*
X118880061Y-81934000D01*
X119083939Y-81934000D01*
X119283898Y-81894226D01*
X119472256Y-81816205D01*
X119507000Y-81792990D01*
X119541744Y-81816205D01*
X119730102Y-81894226D01*
X119930061Y-81934000D01*
X120133939Y-81934000D01*
X120333898Y-81894226D01*
X120522256Y-81816205D01*
X120691774Y-81702937D01*
X120835937Y-81558774D01*
X120949205Y-81389256D01*
X121027226Y-81200898D01*
X121067000Y-81000939D01*
X121067000Y-80797061D01*
X121027226Y-80597102D01*
X120949205Y-80408744D01*
X120835937Y-80239226D01*
X120691774Y-80095063D01*
X120522256Y-79981795D01*
X120467000Y-79958907D01*
X120467000Y-77819000D01*
X120497939Y-77819000D01*
X120697898Y-77779226D01*
X120886256Y-77701205D01*
X121055774Y-77587937D01*
X121199937Y-77443774D01*
X121313205Y-77274256D01*
X121391226Y-77085898D01*
X121431000Y-76885939D01*
X121431000Y-76682061D01*
X121391226Y-76482102D01*
X121313205Y-76293744D01*
X121289990Y-76259000D01*
X121313205Y-76224256D01*
X121391226Y-76035898D01*
X121431000Y-75835939D01*
X121431000Y-75632061D01*
X121391226Y-75432102D01*
X121313205Y-75243744D01*
X121199937Y-75074226D01*
X121055774Y-74930063D01*
X120886256Y-74816795D01*
X120697898Y-74738774D01*
X120497939Y-74699000D01*
X120294061Y-74699000D01*
X120094102Y-74738774D01*
X119905744Y-74816795D01*
X119736226Y-74930063D01*
X119592063Y-75074226D01*
X119478795Y-75243744D01*
X119400774Y-75432102D01*
X119361000Y-75632061D01*
X119361000Y-75729553D01*
X118787808Y-76302746D01*
X118759762Y-76325763D01*
X118743000Y-76346187D01*
X118743000Y-71307801D01*
X119830292Y-70220510D01*
X119868564Y-70277830D01*
X120047495Y-70456882D01*
X120257919Y-70597585D01*
X120491749Y-70694533D01*
X120740000Y-70744000D01*
X121440000Y-70744000D01*
X121440000Y-69586000D01*
X121694000Y-69586000D01*
X121694000Y-70744000D01*
X122394000Y-70744000D01*
X122642251Y-70694533D01*
X122876081Y-70597585D01*
X123086505Y-70456882D01*
X123265436Y-70277830D01*
X123405997Y-70067311D01*
X123502787Y-69833415D01*
X123510099Y-69784471D01*
X123386067Y-69586000D01*
X121694000Y-69586000D01*
X121440000Y-69586000D01*
X121420000Y-69586000D01*
X121420000Y-69332000D01*
X121440000Y-69332000D01*
X121440000Y-69312000D01*
X121694000Y-69312000D01*
X121694000Y-69332000D01*
X123386067Y-69332000D01*
X123460435Y-69213000D01*
X132461203Y-69213000D01*
X131568998Y-70105205D01*
G36*
X143891000Y-84963000D02*
G01*
X146177000Y-84963000D01*
X146177000Y-84943000D01*
X146431000Y-84943000D01*
X146431000Y-84963000D01*
X146451000Y-84963000D01*
X146451000Y-85217000D01*
X146431000Y-85217000D01*
X146431000Y-85237000D01*
X146177000Y-85237000D01*
X146177000Y-85217000D01*
X143891000Y-85217000D01*
X143891000Y-85237000D01*
X143637000Y-85237000D01*
X143637000Y-85217000D01*
X143617000Y-85217000D01*
X143617000Y-84963000D01*
X143637000Y-84963000D01*
X143637000Y-84943000D01*
X143891000Y-84943000D01*
X143891000Y-84963000D01*
X143891000Y-84963000D01*
G37*
X143891000Y-84963000D02*
X146177000Y-84963000D01*
X146177000Y-84943000D01*
X146431000Y-84943000D01*
X146431000Y-84963000D01*
X146451000Y-84963000D01*
X146451000Y-85217000D01*
X146431000Y-85217000D01*
X146431000Y-85237000D01*
X146177000Y-85237000D01*
X146177000Y-85217000D01*
X143891000Y-85217000D01*
X143891000Y-85237000D01*
X143637000Y-85237000D01*
X143637000Y-85217000D01*
X143617000Y-85217000D01*
X143617000Y-84963000D01*
X143637000Y-84963000D01*
X143637000Y-84943000D01*
X143891000Y-84943000D01*
X143891000Y-84963000D01*
G36*
X147449000Y-83534738D02*
G01*
X147449000Y-84153295D01*
X147401588Y-84089731D01*
X147185355Y-83894822D01*
X147068477Y-83825201D01*
X147133014Y-83790706D01*
X147359134Y-83605134D01*
X147445561Y-83499822D01*
X147449000Y-83534738D01*
X147449000Y-83534738D01*
G37*
X147449000Y-83534738D02*
X147449000Y-84153295D01*
X147401588Y-84089731D01*
X147185355Y-83894822D01*
X147068477Y-83825201D01*
X147133014Y-83790706D01*
X147359134Y-83605134D01*
X147445561Y-83499822D01*
X147449000Y-83534738D01*
G36*
X149259014Y-81372599D02*
G01*
X147757502Y-82874112D01*
X147767513Y-82841111D01*
X147796185Y-82550000D01*
X147767513Y-82258889D01*
X147682599Y-81978966D01*
X147600183Y-81824776D01*
X147606001Y-81820001D01*
X147629804Y-81790997D01*
X148375802Y-81045000D01*
X148437939Y-81045000D01*
X148637898Y-81005226D01*
X148826256Y-80927205D01*
X148995774Y-80813937D01*
X149139937Y-80669774D01*
X149253205Y-80500256D01*
X149259013Y-80486234D01*
X149259014Y-81372599D01*
X149259014Y-81372599D01*
G37*
X149259014Y-81372599D02*
X147757502Y-82874112D01*
X147767513Y-82841111D01*
X147796185Y-82550000D01*
X147767513Y-82258889D01*
X147682599Y-81978966D01*
X147600183Y-81824776D01*
X147606001Y-81820001D01*
X147629804Y-81790997D01*
X148375802Y-81045000D01*
X148437939Y-81045000D01*
X148637898Y-81005226D01*
X148826256Y-80927205D01*
X148995774Y-80813937D01*
X149139937Y-80669774D01*
X149253205Y-80500256D01*
X149259013Y-80486234D01*
X149259014Y-81372599D01*
G36*
X142523294Y-80839014D02*
G01*
X142708866Y-81065134D01*
X142934986Y-81250706D01*
X142989791Y-81280000D01*
X142934986Y-81309294D01*
X142708866Y-81494866D01*
X142523294Y-81720986D01*
X142473043Y-81815000D01*
X136997031Y-81815000D01*
X136997243Y-81814682D01*
X137075264Y-81626324D01*
X137115038Y-81426365D01*
X137115038Y-81222487D01*
X137075264Y-81022528D01*
X137052375Y-80967270D01*
X137274646Y-80745000D01*
X142473043Y-80745000D01*
X142523294Y-80839014D01*
X142523294Y-80839014D01*
G37*
X142523294Y-80839014D02*
X142708866Y-81065134D01*
X142934986Y-81250706D01*
X142989791Y-81280000D01*
X142934986Y-81309294D01*
X142708866Y-81494866D01*
X142523294Y-81720986D01*
X142473043Y-81815000D01*
X136997031Y-81815000D01*
X136997243Y-81814682D01*
X137075264Y-81626324D01*
X137115038Y-81426365D01*
X137115038Y-81222487D01*
X137075264Y-81022528D01*
X137052375Y-80967270D01*
X137274646Y-80745000D01*
X142473043Y-80745000D01*
X142523294Y-80839014D01*
G36*
X140179795Y-68089744D02*
G01*
X140101774Y-68278102D01*
X140062000Y-68478061D01*
X140062000Y-68681939D01*
X140101774Y-68881898D01*
X140179795Y-69070256D01*
X140225516Y-69138682D01*
X139982501Y-69381698D01*
X139849805Y-69249001D01*
X139826002Y-69219998D01*
X139710277Y-69125025D01*
X139578248Y-69054453D01*
X139434987Y-69010996D01*
X139323334Y-68999999D01*
X139323323Y-68999999D01*
X139286001Y-68996323D01*
X139248679Y-68999999D01*
X138627321Y-68999999D01*
X138589998Y-68996323D01*
X138552675Y-68999999D01*
X138552666Y-68999999D01*
X138441013Y-69010996D01*
X138297752Y-69054453D01*
X138165723Y-69125025D01*
X138049998Y-69219998D01*
X138026199Y-69248997D01*
X137411002Y-69864195D01*
X137381999Y-69887997D01*
X137335219Y-69944999D01*
X137287026Y-70003722D01*
X137233719Y-70103452D01*
X137216454Y-70135752D01*
X137172997Y-70279013D01*
X137162000Y-70390666D01*
X137162000Y-70390676D01*
X137158324Y-70427998D01*
X137162000Y-70465321D01*
X137162001Y-72836288D01*
X137118063Y-72880226D01*
X137004795Y-73049744D01*
X136926774Y-73238102D01*
X136887000Y-73438061D01*
X136887000Y-73641939D01*
X136926774Y-73841898D01*
X137004795Y-74030256D01*
X137056742Y-74108000D01*
X137004795Y-74185744D01*
X136926774Y-74374102D01*
X136887000Y-74574061D01*
X136887000Y-74777939D01*
X136926774Y-74977898D01*
X137004795Y-75166256D01*
X137118063Y-75335774D01*
X137262226Y-75479937D01*
X137431744Y-75593205D01*
X137620102Y-75671226D01*
X137820061Y-75711000D01*
X138023939Y-75711000D01*
X138223898Y-75671226D01*
X138412256Y-75593205D01*
X138581774Y-75479937D01*
X138725937Y-75335774D01*
X138839205Y-75166256D01*
X138917226Y-74977898D01*
X138957000Y-74777939D01*
X138957000Y-74715801D01*
X139449003Y-74223799D01*
X139478001Y-74200001D01*
X139510038Y-74160964D01*
X139572974Y-74084277D01*
X139643546Y-73952247D01*
X139666978Y-73875000D01*
X139687003Y-73808986D01*
X139698000Y-73697333D01*
X139698000Y-73697323D01*
X139701676Y-73660000D01*
X139698000Y-73622678D01*
X139698000Y-71413485D01*
X139700026Y-71417275D01*
X139794999Y-71533001D01*
X139910724Y-71627974D01*
X140042753Y-71698546D01*
X140186014Y-71742003D01*
X140335000Y-71756677D01*
X140483986Y-71742003D01*
X140484449Y-71741863D01*
X140484449Y-72449805D01*
X140440511Y-72493743D01*
X140327243Y-72663261D01*
X140249222Y-72851619D01*
X140209448Y-73051578D01*
X140209448Y-73255456D01*
X140249222Y-73455415D01*
X140327243Y-73643773D01*
X140440511Y-73813291D01*
X140584674Y-73957454D01*
X140633805Y-73990282D01*
X140633805Y-74160964D01*
X140673579Y-74360923D01*
X140751600Y-74549281D01*
X140864868Y-74718799D01*
X141009031Y-74862962D01*
X141178549Y-74976230D01*
X141366907Y-75054251D01*
X141566866Y-75094025D01*
X141770744Y-75094025D01*
X141970703Y-75054251D01*
X142159061Y-74976230D01*
X142274884Y-74898840D01*
X142271815Y-74930000D01*
X142300487Y-75221111D01*
X142385401Y-75501034D01*
X142523294Y-75759014D01*
X142708866Y-75985134D01*
X142934986Y-76170706D01*
X142989791Y-76200000D01*
X142934986Y-76229294D01*
X142708866Y-76414866D01*
X142523294Y-76640986D01*
X142385401Y-76898966D01*
X142300487Y-77178889D01*
X142271815Y-77470000D01*
X142300487Y-77761111D01*
X142385401Y-78041034D01*
X142523294Y-78299014D01*
X142618062Y-78414489D01*
X142207552Y-78825000D01*
X136819906Y-78825000D01*
X136783801Y-78821444D01*
X136639716Y-78835635D01*
X136501167Y-78877663D01*
X136417119Y-78922588D01*
X136373481Y-78945913D01*
X136261563Y-79037762D01*
X136238548Y-79065806D01*
X135694730Y-79609625D01*
X135639472Y-79586736D01*
X135439513Y-79546962D01*
X135235635Y-79546962D01*
X135035676Y-79586736D01*
X134847318Y-79664757D01*
X134677800Y-79778025D01*
X134564000Y-79891825D01*
X134564000Y-74575000D01*
X134630939Y-74575000D01*
X134830898Y-74535226D01*
X135019256Y-74457205D01*
X135188774Y-74343937D01*
X135332937Y-74199774D01*
X135446205Y-74030256D01*
X135524226Y-73841898D01*
X135564000Y-73641939D01*
X135564000Y-73438061D01*
X135524226Y-73238102D01*
X135446205Y-73049744D01*
X135332937Y-72880226D01*
X135289000Y-72836289D01*
X135289000Y-68086907D01*
X135290665Y-68070000D01*
X140192987Y-68070000D01*
X140179795Y-68089744D01*
X140179795Y-68089744D01*
G37*
X140179795Y-68089744D02*
X140101774Y-68278102D01*
X140062000Y-68478061D01*
X140062000Y-68681939D01*
X140101774Y-68881898D01*
X140179795Y-69070256D01*
X140225516Y-69138682D01*
X139982501Y-69381698D01*
X139849805Y-69249001D01*
X139826002Y-69219998D01*
X139710277Y-69125025D01*
X139578248Y-69054453D01*
X139434987Y-69010996D01*
X139323334Y-68999999D01*
X139323323Y-68999999D01*
X139286001Y-68996323D01*
X139248679Y-68999999D01*
X138627321Y-68999999D01*
X138589998Y-68996323D01*
X138552675Y-68999999D01*
X138552666Y-68999999D01*
X138441013Y-69010996D01*
X138297752Y-69054453D01*
X138165723Y-69125025D01*
X138049998Y-69219998D01*
X138026199Y-69248997D01*
X137411002Y-69864195D01*
X137381999Y-69887997D01*
X137335219Y-69944999D01*
X137287026Y-70003722D01*
X137233719Y-70103452D01*
X137216454Y-70135752D01*
X137172997Y-70279013D01*
X137162000Y-70390666D01*
X137162000Y-70390676D01*
X137158324Y-70427998D01*
X137162000Y-70465321D01*
X137162001Y-72836288D01*
X137118063Y-72880226D01*
X137004795Y-73049744D01*
X136926774Y-73238102D01*
X136887000Y-73438061D01*
X136887000Y-73641939D01*
X136926774Y-73841898D01*
X137004795Y-74030256D01*
X137056742Y-74108000D01*
X137004795Y-74185744D01*
X136926774Y-74374102D01*
X136887000Y-74574061D01*
X136887000Y-74777939D01*
X136926774Y-74977898D01*
X137004795Y-75166256D01*
X137118063Y-75335774D01*
X137262226Y-75479937D01*
X137431744Y-75593205D01*
X137620102Y-75671226D01*
X137820061Y-75711000D01*
X138023939Y-75711000D01*
X138223898Y-75671226D01*
X138412256Y-75593205D01*
X138581774Y-75479937D01*
X138725937Y-75335774D01*
X138839205Y-75166256D01*
X138917226Y-74977898D01*
X138957000Y-74777939D01*
X138957000Y-74715801D01*
X139449003Y-74223799D01*
X139478001Y-74200001D01*
X139510038Y-74160964D01*
X139572974Y-74084277D01*
X139643546Y-73952247D01*
X139666978Y-73875000D01*
X139687003Y-73808986D01*
X139698000Y-73697333D01*
X139698000Y-73697323D01*
X139701676Y-73660000D01*
X139698000Y-73622678D01*
X139698000Y-71413485D01*
X139700026Y-71417275D01*
X139794999Y-71533001D01*
X139910724Y-71627974D01*
X140042753Y-71698546D01*
X140186014Y-71742003D01*
X140335000Y-71756677D01*
X140483986Y-71742003D01*
X140484449Y-71741863D01*
X140484449Y-72449805D01*
X140440511Y-72493743D01*
X140327243Y-72663261D01*
X140249222Y-72851619D01*
X140209448Y-73051578D01*
X140209448Y-73255456D01*
X140249222Y-73455415D01*
X140327243Y-73643773D01*
X140440511Y-73813291D01*
X140584674Y-73957454D01*
X140633805Y-73990282D01*
X140633805Y-74160964D01*
X140673579Y-74360923D01*
X140751600Y-74549281D01*
X140864868Y-74718799D01*
X141009031Y-74862962D01*
X141178549Y-74976230D01*
X141366907Y-75054251D01*
X141566866Y-75094025D01*
X141770744Y-75094025D01*
X141970703Y-75054251D01*
X142159061Y-74976230D01*
X142274884Y-74898840D01*
X142271815Y-74930000D01*
X142300487Y-75221111D01*
X142385401Y-75501034D01*
X142523294Y-75759014D01*
X142708866Y-75985134D01*
X142934986Y-76170706D01*
X142989791Y-76200000D01*
X142934986Y-76229294D01*
X142708866Y-76414866D01*
X142523294Y-76640986D01*
X142385401Y-76898966D01*
X142300487Y-77178889D01*
X142271815Y-77470000D01*
X142300487Y-77761111D01*
X142385401Y-78041034D01*
X142523294Y-78299014D01*
X142618062Y-78414489D01*
X142207552Y-78825000D01*
X136819906Y-78825000D01*
X136783801Y-78821444D01*
X136639716Y-78835635D01*
X136501167Y-78877663D01*
X136417119Y-78922588D01*
X136373481Y-78945913D01*
X136261563Y-79037762D01*
X136238548Y-79065806D01*
X135694730Y-79609625D01*
X135639472Y-79586736D01*
X135439513Y-79546962D01*
X135235635Y-79546962D01*
X135035676Y-79586736D01*
X134847318Y-79664757D01*
X134677800Y-79778025D01*
X134564000Y-79891825D01*
X134564000Y-74575000D01*
X134630939Y-74575000D01*
X134830898Y-74535226D01*
X135019256Y-74457205D01*
X135188774Y-74343937D01*
X135332937Y-74199774D01*
X135446205Y-74030256D01*
X135524226Y-73841898D01*
X135564000Y-73641939D01*
X135564000Y-73438061D01*
X135524226Y-73238102D01*
X135446205Y-73049744D01*
X135332937Y-72880226D01*
X135289000Y-72836289D01*
X135289000Y-68086907D01*
X135290665Y-68070000D01*
X140192987Y-68070000D01*
X140179795Y-68089744D01*
G36*
X149785001Y-78674784D02*
G01*
X148969000Y-77858784D01*
X148969000Y-72593323D01*
X148972676Y-72555998D01*
X148969000Y-72518673D01*
X148969000Y-72518665D01*
X148958003Y-72407012D01*
X148914546Y-72263751D01*
X148843974Y-72131722D01*
X148749001Y-72015997D01*
X148720004Y-71992200D01*
X147482552Y-70754749D01*
X147544706Y-70679014D01*
X147682599Y-70421034D01*
X147767513Y-70141111D01*
X147796185Y-69850000D01*
X147767513Y-69558889D01*
X147682599Y-69278966D01*
X147544706Y-69020986D01*
X147359134Y-68794866D01*
X147133014Y-68609294D01*
X147078209Y-68580000D01*
X147133014Y-68550706D01*
X147359134Y-68365134D01*
X147544706Y-68139014D01*
X147682599Y-67881034D01*
X147767513Y-67601111D01*
X147796185Y-67310000D01*
X147767513Y-67018889D01*
X147682599Y-66738966D01*
X147544706Y-66480986D01*
X147359134Y-66254866D01*
X147133014Y-66069294D01*
X146875034Y-65931401D01*
X146595111Y-65846487D01*
X146376950Y-65825000D01*
X146231050Y-65825000D01*
X146012889Y-65846487D01*
X145938005Y-65869203D01*
X145129301Y-65060500D01*
X149785000Y-65060500D01*
X149785001Y-78674784D01*
X149785001Y-78674784D01*
G37*
X149785001Y-78674784D02*
X148969000Y-77858784D01*
X148969000Y-72593323D01*
X148972676Y-72555998D01*
X148969000Y-72518673D01*
X148969000Y-72518665D01*
X148958003Y-72407012D01*
X148914546Y-72263751D01*
X148843974Y-72131722D01*
X148749001Y-72015997D01*
X148720004Y-71992200D01*
X147482552Y-70754749D01*
X147544706Y-70679014D01*
X147682599Y-70421034D01*
X147767513Y-70141111D01*
X147796185Y-69850000D01*
X147767513Y-69558889D01*
X147682599Y-69278966D01*
X147544706Y-69020986D01*
X147359134Y-68794866D01*
X147133014Y-68609294D01*
X147078209Y-68580000D01*
X147133014Y-68550706D01*
X147359134Y-68365134D01*
X147544706Y-68139014D01*
X147682599Y-67881034D01*
X147767513Y-67601111D01*
X147796185Y-67310000D01*
X147767513Y-67018889D01*
X147682599Y-66738966D01*
X147544706Y-66480986D01*
X147359134Y-66254866D01*
X147133014Y-66069294D01*
X146875034Y-65931401D01*
X146595111Y-65846487D01*
X146376950Y-65825000D01*
X146231050Y-65825000D01*
X146012889Y-65846487D01*
X145938005Y-65869203D01*
X145129301Y-65060500D01*
X149785000Y-65060500D01*
X149785001Y-78674784D01*
M02*
