G04 #@! TF.GenerationSoftware,KiCad,Pcbnew,(5.1.4)-1*
G04 #@! TF.CreationDate,2019-12-30T10:25:26+01:00*
G04 #@! TF.ProjectId,HDMI,48444d49-2e6b-4696-9361-645f70636258,rev?*
G04 #@! TF.SameCoordinates,Original*
G04 #@! TF.FileFunction,Soldermask,Top*
G04 #@! TF.FilePolarity,Negative*
%FSLAX46Y46*%
G04 Gerber Fmt 4.6, Leading zero omitted, Abs format (unit mm)*
G04 Created by KiCad (PCBNEW (5.1.4)-1) date 2019-12-30 10:25:26*
%MOMM*%
%LPD*%
G04 APERTURE LIST*
%ADD10C,0.100000*%
G04 APERTURE END LIST*
D10*
G36*
X134476499Y-87552445D02*
G01*
X134513995Y-87563820D01*
X134548554Y-87582292D01*
X134578847Y-87607153D01*
X134603708Y-87637446D01*
X134622180Y-87672005D01*
X134633555Y-87709501D01*
X134638000Y-87754638D01*
X134638000Y-88493362D01*
X134633555Y-88538499D01*
X134622180Y-88575995D01*
X134603708Y-88610554D01*
X134578847Y-88640847D01*
X134548554Y-88665708D01*
X134513995Y-88684180D01*
X134476499Y-88695555D01*
X134431362Y-88700000D01*
X133792638Y-88700000D01*
X133747501Y-88695555D01*
X133710005Y-88684180D01*
X133675446Y-88665708D01*
X133645153Y-88640847D01*
X133620292Y-88610554D01*
X133601820Y-88575995D01*
X133590445Y-88538499D01*
X133586000Y-88493362D01*
X133586000Y-87754638D01*
X133590445Y-87709501D01*
X133601820Y-87672005D01*
X133620292Y-87637446D01*
X133645153Y-87607153D01*
X133675446Y-87582292D01*
X133710005Y-87563820D01*
X133747501Y-87552445D01*
X133792638Y-87548000D01*
X134431362Y-87548000D01*
X134476499Y-87552445D01*
X134476499Y-87552445D01*
G37*
G36*
X141497499Y-87616445D02*
G01*
X141534995Y-87627820D01*
X141569554Y-87646292D01*
X141599847Y-87671153D01*
X141624708Y-87701446D01*
X141643180Y-87736005D01*
X141654555Y-87773501D01*
X141659000Y-87818638D01*
X141659000Y-88457362D01*
X141654555Y-88502499D01*
X141643180Y-88539995D01*
X141624708Y-88574554D01*
X141599847Y-88604847D01*
X141569554Y-88629708D01*
X141534995Y-88648180D01*
X141497499Y-88659555D01*
X141452362Y-88664000D01*
X140713638Y-88664000D01*
X140668501Y-88659555D01*
X140631005Y-88648180D01*
X140596446Y-88629708D01*
X140566153Y-88604847D01*
X140541292Y-88574554D01*
X140522820Y-88539995D01*
X140511445Y-88502499D01*
X140507000Y-88457362D01*
X140507000Y-87818638D01*
X140511445Y-87773501D01*
X140522820Y-87736005D01*
X140541292Y-87701446D01*
X140566153Y-87671153D01*
X140596446Y-87646292D01*
X140631005Y-87627820D01*
X140668501Y-87616445D01*
X140713638Y-87612000D01*
X141452362Y-87612000D01*
X141497499Y-87616445D01*
X141497499Y-87616445D01*
G37*
G36*
X136318499Y-87616445D02*
G01*
X136355995Y-87627820D01*
X136390554Y-87646292D01*
X136420847Y-87671153D01*
X136445708Y-87701446D01*
X136464180Y-87736005D01*
X136475555Y-87773501D01*
X136480000Y-87818638D01*
X136480000Y-88457362D01*
X136475555Y-88502499D01*
X136464180Y-88539995D01*
X136445708Y-88574554D01*
X136420847Y-88604847D01*
X136390554Y-88629708D01*
X136355995Y-88648180D01*
X136318499Y-88659555D01*
X136273362Y-88664000D01*
X135534638Y-88664000D01*
X135489501Y-88659555D01*
X135452005Y-88648180D01*
X135417446Y-88629708D01*
X135387153Y-88604847D01*
X135362292Y-88574554D01*
X135343820Y-88539995D01*
X135332445Y-88502499D01*
X135328000Y-88457362D01*
X135328000Y-87818638D01*
X135332445Y-87773501D01*
X135343820Y-87736005D01*
X135362292Y-87701446D01*
X135387153Y-87671153D01*
X135417446Y-87646292D01*
X135452005Y-87627820D01*
X135489501Y-87616445D01*
X135534638Y-87612000D01*
X136273362Y-87612000D01*
X136318499Y-87616445D01*
X136318499Y-87616445D01*
G37*
G36*
X139747499Y-87616445D02*
G01*
X139784995Y-87627820D01*
X139819554Y-87646292D01*
X139849847Y-87671153D01*
X139874708Y-87701446D01*
X139893180Y-87736005D01*
X139904555Y-87773501D01*
X139909000Y-87818638D01*
X139909000Y-88457362D01*
X139904555Y-88502499D01*
X139893180Y-88539995D01*
X139874708Y-88574554D01*
X139849847Y-88604847D01*
X139819554Y-88629708D01*
X139784995Y-88648180D01*
X139747499Y-88659555D01*
X139702362Y-88664000D01*
X138963638Y-88664000D01*
X138918501Y-88659555D01*
X138881005Y-88648180D01*
X138846446Y-88629708D01*
X138816153Y-88604847D01*
X138791292Y-88574554D01*
X138772820Y-88539995D01*
X138761445Y-88502499D01*
X138757000Y-88457362D01*
X138757000Y-87818638D01*
X138761445Y-87773501D01*
X138772820Y-87736005D01*
X138791292Y-87701446D01*
X138816153Y-87671153D01*
X138846446Y-87646292D01*
X138881005Y-87627820D01*
X138918501Y-87616445D01*
X138963638Y-87612000D01*
X139702362Y-87612000D01*
X139747499Y-87616445D01*
X139747499Y-87616445D01*
G37*
G36*
X138068499Y-87616445D02*
G01*
X138105995Y-87627820D01*
X138140554Y-87646292D01*
X138170847Y-87671153D01*
X138195708Y-87701446D01*
X138214180Y-87736005D01*
X138225555Y-87773501D01*
X138230000Y-87818638D01*
X138230000Y-88457362D01*
X138225555Y-88502499D01*
X138214180Y-88539995D01*
X138195708Y-88574554D01*
X138170847Y-88604847D01*
X138140554Y-88629708D01*
X138105995Y-88648180D01*
X138068499Y-88659555D01*
X138023362Y-88664000D01*
X137284638Y-88664000D01*
X137239501Y-88659555D01*
X137202005Y-88648180D01*
X137167446Y-88629708D01*
X137137153Y-88604847D01*
X137112292Y-88574554D01*
X137093820Y-88539995D01*
X137082445Y-88502499D01*
X137078000Y-88457362D01*
X137078000Y-87818638D01*
X137082445Y-87773501D01*
X137093820Y-87736005D01*
X137112292Y-87701446D01*
X137137153Y-87671153D01*
X137167446Y-87646292D01*
X137202005Y-87627820D01*
X137239501Y-87616445D01*
X137284638Y-87612000D01*
X138023362Y-87612000D01*
X138068499Y-87616445D01*
X138068499Y-87616445D01*
G37*
G36*
X143874442Y-86735518D02*
G01*
X143940627Y-86742037D01*
X144110466Y-86793557D01*
X144266991Y-86877222D01*
X144283593Y-86890847D01*
X144404186Y-86989814D01*
X144487448Y-87091271D01*
X144516778Y-87127009D01*
X144600443Y-87283534D01*
X144651963Y-87453373D01*
X144669359Y-87630000D01*
X144651963Y-87806627D01*
X144600443Y-87976466D01*
X144516778Y-88132991D01*
X144487448Y-88168729D01*
X144404186Y-88270186D01*
X144302729Y-88353448D01*
X144266991Y-88382778D01*
X144110466Y-88466443D01*
X143940627Y-88517963D01*
X143874442Y-88524482D01*
X143808260Y-88531000D01*
X143719740Y-88531000D01*
X143653558Y-88524482D01*
X143587373Y-88517963D01*
X143417534Y-88466443D01*
X143261009Y-88382778D01*
X143225271Y-88353448D01*
X143123814Y-88270186D01*
X143040552Y-88168729D01*
X143011222Y-88132991D01*
X142927557Y-87976466D01*
X142876037Y-87806627D01*
X142858641Y-87630000D01*
X142876037Y-87453373D01*
X142927557Y-87283534D01*
X143011222Y-87127009D01*
X143040552Y-87091271D01*
X143123814Y-86989814D01*
X143244407Y-86890847D01*
X143261009Y-86877222D01*
X143417534Y-86793557D01*
X143587373Y-86742037D01*
X143653558Y-86735518D01*
X143719740Y-86729000D01*
X143808260Y-86729000D01*
X143874442Y-86735518D01*
X143874442Y-86735518D01*
G37*
G36*
X146414442Y-86735518D02*
G01*
X146480627Y-86742037D01*
X146650466Y-86793557D01*
X146806991Y-86877222D01*
X146823593Y-86890847D01*
X146944186Y-86989814D01*
X147027448Y-87091271D01*
X147056778Y-87127009D01*
X147140443Y-87283534D01*
X147191963Y-87453373D01*
X147209359Y-87630000D01*
X147191963Y-87806627D01*
X147140443Y-87976466D01*
X147056778Y-88132991D01*
X147027448Y-88168729D01*
X146944186Y-88270186D01*
X146842729Y-88353448D01*
X146806991Y-88382778D01*
X146650466Y-88466443D01*
X146480627Y-88517963D01*
X146414442Y-88524482D01*
X146348260Y-88531000D01*
X146259740Y-88531000D01*
X146193558Y-88524482D01*
X146127373Y-88517963D01*
X145957534Y-88466443D01*
X145801009Y-88382778D01*
X145765271Y-88353448D01*
X145663814Y-88270186D01*
X145580552Y-88168729D01*
X145551222Y-88132991D01*
X145467557Y-87976466D01*
X145416037Y-87806627D01*
X145398641Y-87630000D01*
X145416037Y-87453373D01*
X145467557Y-87283534D01*
X145551222Y-87127009D01*
X145580552Y-87091271D01*
X145663814Y-86989814D01*
X145784407Y-86890847D01*
X145801009Y-86877222D01*
X145957534Y-86793557D01*
X146127373Y-86742037D01*
X146193558Y-86735518D01*
X146259740Y-86729000D01*
X146348260Y-86729000D01*
X146414442Y-86735518D01*
X146414442Y-86735518D01*
G37*
G36*
X124375798Y-86400247D02*
G01*
X124411367Y-86411037D01*
X124444139Y-86428554D01*
X124472869Y-86452131D01*
X124496446Y-86480861D01*
X124513963Y-86513633D01*
X124524753Y-86549202D01*
X124529000Y-86592325D01*
X124529000Y-87651675D01*
X124524753Y-87694798D01*
X124513963Y-87730367D01*
X124496446Y-87763139D01*
X124472869Y-87791869D01*
X124444139Y-87815446D01*
X124411367Y-87832963D01*
X124375798Y-87843753D01*
X124332675Y-87848000D01*
X123223325Y-87848000D01*
X123180202Y-87843753D01*
X123144633Y-87832963D01*
X123111861Y-87815446D01*
X123083131Y-87791869D01*
X123059554Y-87763139D01*
X123042037Y-87730367D01*
X123031247Y-87694798D01*
X123027000Y-87651675D01*
X123027000Y-86592325D01*
X123031247Y-86549202D01*
X123042037Y-86513633D01*
X123059554Y-86480861D01*
X123083131Y-86452131D01*
X123111861Y-86428554D01*
X123144633Y-86411037D01*
X123180202Y-86400247D01*
X123223325Y-86396000D01*
X124332675Y-86396000D01*
X124375798Y-86400247D01*
X124375798Y-86400247D01*
G37*
G36*
X121675798Y-86400247D02*
G01*
X121711367Y-86411037D01*
X121744139Y-86428554D01*
X121772869Y-86452131D01*
X121796446Y-86480861D01*
X121813963Y-86513633D01*
X121824753Y-86549202D01*
X121829000Y-86592325D01*
X121829000Y-87651675D01*
X121824753Y-87694798D01*
X121813963Y-87730367D01*
X121796446Y-87763139D01*
X121772869Y-87791869D01*
X121744139Y-87815446D01*
X121711367Y-87832963D01*
X121675798Y-87843753D01*
X121632675Y-87848000D01*
X120523325Y-87848000D01*
X120480202Y-87843753D01*
X120444633Y-87832963D01*
X120411861Y-87815446D01*
X120383131Y-87791869D01*
X120359554Y-87763139D01*
X120342037Y-87730367D01*
X120331247Y-87694798D01*
X120327000Y-87651675D01*
X120327000Y-86592325D01*
X120331247Y-86549202D01*
X120342037Y-86513633D01*
X120359554Y-86480861D01*
X120383131Y-86452131D01*
X120411861Y-86428554D01*
X120444633Y-86411037D01*
X120480202Y-86400247D01*
X120523325Y-86396000D01*
X121632675Y-86396000D01*
X121675798Y-86400247D01*
X121675798Y-86400247D01*
G37*
G36*
X116755798Y-86400247D02*
G01*
X116791367Y-86411037D01*
X116824139Y-86428554D01*
X116852869Y-86452131D01*
X116876446Y-86480861D01*
X116893963Y-86513633D01*
X116904753Y-86549202D01*
X116909000Y-86592325D01*
X116909000Y-87651675D01*
X116904753Y-87694798D01*
X116893963Y-87730367D01*
X116876446Y-87763139D01*
X116852869Y-87791869D01*
X116824139Y-87815446D01*
X116791367Y-87832963D01*
X116755798Y-87843753D01*
X116712675Y-87848000D01*
X115603325Y-87848000D01*
X115560202Y-87843753D01*
X115524633Y-87832963D01*
X115491861Y-87815446D01*
X115463131Y-87791869D01*
X115439554Y-87763139D01*
X115422037Y-87730367D01*
X115411247Y-87694798D01*
X115407000Y-87651675D01*
X115407000Y-86592325D01*
X115411247Y-86549202D01*
X115422037Y-86513633D01*
X115439554Y-86480861D01*
X115463131Y-86452131D01*
X115491861Y-86428554D01*
X115524633Y-86411037D01*
X115560202Y-86400247D01*
X115603325Y-86396000D01*
X116712675Y-86396000D01*
X116755798Y-86400247D01*
X116755798Y-86400247D01*
G37*
G36*
X114055798Y-86400247D02*
G01*
X114091367Y-86411037D01*
X114124139Y-86428554D01*
X114152869Y-86452131D01*
X114176446Y-86480861D01*
X114193963Y-86513633D01*
X114204753Y-86549202D01*
X114209000Y-86592325D01*
X114209000Y-87651675D01*
X114204753Y-87694798D01*
X114193963Y-87730367D01*
X114176446Y-87763139D01*
X114152869Y-87791869D01*
X114124139Y-87815446D01*
X114091367Y-87832963D01*
X114055798Y-87843753D01*
X114012675Y-87848000D01*
X112903325Y-87848000D01*
X112860202Y-87843753D01*
X112824633Y-87832963D01*
X112791861Y-87815446D01*
X112763131Y-87791869D01*
X112739554Y-87763139D01*
X112722037Y-87730367D01*
X112711247Y-87694798D01*
X112707000Y-87651675D01*
X112707000Y-86592325D01*
X112711247Y-86549202D01*
X112722037Y-86513633D01*
X112739554Y-86480861D01*
X112763131Y-86452131D01*
X112791861Y-86428554D01*
X112824633Y-86411037D01*
X112860202Y-86400247D01*
X112903325Y-86396000D01*
X114012675Y-86396000D01*
X114055798Y-86400247D01*
X114055798Y-86400247D01*
G37*
G36*
X134476499Y-85802445D02*
G01*
X134513995Y-85813820D01*
X134548554Y-85832292D01*
X134578847Y-85857153D01*
X134603708Y-85887446D01*
X134622180Y-85922005D01*
X134633555Y-85959501D01*
X134638000Y-86004638D01*
X134638000Y-86743362D01*
X134633555Y-86788499D01*
X134622180Y-86825995D01*
X134603708Y-86860554D01*
X134578847Y-86890847D01*
X134548554Y-86915708D01*
X134513995Y-86934180D01*
X134476499Y-86945555D01*
X134431362Y-86950000D01*
X133792638Y-86950000D01*
X133747501Y-86945555D01*
X133710005Y-86934180D01*
X133675446Y-86915708D01*
X133645153Y-86890847D01*
X133620292Y-86860554D01*
X133601820Y-86825995D01*
X133590445Y-86788499D01*
X133586000Y-86743362D01*
X133586000Y-86004638D01*
X133590445Y-85959501D01*
X133601820Y-85922005D01*
X133620292Y-85887446D01*
X133645153Y-85857153D01*
X133675446Y-85832292D01*
X133710005Y-85813820D01*
X133747501Y-85802445D01*
X133792638Y-85798000D01*
X134431362Y-85798000D01*
X134476499Y-85802445D01*
X134476499Y-85802445D01*
G37*
G36*
X140864000Y-86645000D02*
G01*
X139612000Y-86645000D01*
X139612000Y-85943000D01*
X140864000Y-85943000D01*
X140864000Y-86645000D01*
X140864000Y-86645000D01*
G37*
G36*
X138264000Y-86645000D02*
G01*
X137012000Y-86645000D01*
X137012000Y-84043000D01*
X138264000Y-84043000D01*
X138264000Y-86645000D01*
X138264000Y-86645000D01*
G37*
G36*
X146414442Y-84195518D02*
G01*
X146480627Y-84202037D01*
X146650466Y-84253557D01*
X146806991Y-84337222D01*
X146842729Y-84366552D01*
X146944186Y-84449814D01*
X147027448Y-84551271D01*
X147056778Y-84587009D01*
X147140443Y-84743534D01*
X147191963Y-84913373D01*
X147209359Y-85090000D01*
X147191963Y-85266627D01*
X147140443Y-85436466D01*
X147056778Y-85592991D01*
X147027448Y-85628729D01*
X146944186Y-85730186D01*
X146861553Y-85798000D01*
X146806991Y-85842778D01*
X146650466Y-85926443D01*
X146480627Y-85977963D01*
X146414442Y-85984482D01*
X146348260Y-85991000D01*
X146259740Y-85991000D01*
X146193558Y-85984482D01*
X146127373Y-85977963D01*
X145957534Y-85926443D01*
X145801009Y-85842778D01*
X145746447Y-85798000D01*
X145663814Y-85730186D01*
X145580552Y-85628729D01*
X145551222Y-85592991D01*
X145467557Y-85436466D01*
X145416037Y-85266627D01*
X145398641Y-85090000D01*
X145416037Y-84913373D01*
X145467557Y-84743534D01*
X145551222Y-84587009D01*
X145580552Y-84551271D01*
X145663814Y-84449814D01*
X145765271Y-84366552D01*
X145801009Y-84337222D01*
X145957534Y-84253557D01*
X146127373Y-84202037D01*
X146193558Y-84195518D01*
X146259740Y-84189000D01*
X146348260Y-84189000D01*
X146414442Y-84195518D01*
X146414442Y-84195518D01*
G37*
G36*
X143874442Y-84195518D02*
G01*
X143940627Y-84202037D01*
X144110466Y-84253557D01*
X144266991Y-84337222D01*
X144302729Y-84366552D01*
X144404186Y-84449814D01*
X144487448Y-84551271D01*
X144516778Y-84587009D01*
X144600443Y-84743534D01*
X144651963Y-84913373D01*
X144669359Y-85090000D01*
X144651963Y-85266627D01*
X144600443Y-85436466D01*
X144516778Y-85592991D01*
X144487448Y-85628729D01*
X144404186Y-85730186D01*
X144321553Y-85798000D01*
X144266991Y-85842778D01*
X144110466Y-85926443D01*
X143940627Y-85977963D01*
X143874442Y-85984482D01*
X143808260Y-85991000D01*
X143719740Y-85991000D01*
X143653558Y-85984482D01*
X143587373Y-85977963D01*
X143417534Y-85926443D01*
X143261009Y-85842778D01*
X143206447Y-85798000D01*
X143123814Y-85730186D01*
X143040552Y-85628729D01*
X143011222Y-85592991D01*
X142927557Y-85436466D01*
X142876037Y-85266627D01*
X142858641Y-85090000D01*
X142876037Y-84913373D01*
X142927557Y-84743534D01*
X143011222Y-84587009D01*
X143040552Y-84551271D01*
X143123814Y-84449814D01*
X143225271Y-84366552D01*
X143261009Y-84337222D01*
X143417534Y-84253557D01*
X143587373Y-84202037D01*
X143653558Y-84195518D01*
X143719740Y-84189000D01*
X143808260Y-84189000D01*
X143874442Y-84195518D01*
X143874442Y-84195518D01*
G37*
G36*
X133493000Y-84955000D02*
G01*
X132191000Y-84955000D01*
X132191000Y-83953000D01*
X133493000Y-83953000D01*
X133493000Y-84955000D01*
X133493000Y-84955000D01*
G37*
G36*
X122404421Y-83368143D02*
G01*
X122536557Y-83408227D01*
X122536559Y-83408228D01*
X122658339Y-83473320D01*
X122658341Y-83473321D01*
X122658340Y-83473321D01*
X122765080Y-83560920D01*
X122852679Y-83667660D01*
X122917773Y-83789443D01*
X122957857Y-83921579D01*
X122971391Y-84059000D01*
X122957857Y-84196421D01*
X122917773Y-84328557D01*
X122917772Y-84328559D01*
X122852680Y-84450339D01*
X122765080Y-84557080D01*
X122658339Y-84644680D01*
X122536559Y-84709772D01*
X122536557Y-84709773D01*
X122404421Y-84749857D01*
X122301432Y-84760000D01*
X120832568Y-84760000D01*
X120729579Y-84749857D01*
X120597443Y-84709773D01*
X120597441Y-84709772D01*
X120475661Y-84644680D01*
X120368920Y-84557080D01*
X120281320Y-84450339D01*
X120216228Y-84328559D01*
X120216227Y-84328557D01*
X120176143Y-84196421D01*
X120162609Y-84059000D01*
X120176143Y-83921579D01*
X120216227Y-83789443D01*
X120281321Y-83667660D01*
X120368920Y-83560920D01*
X120475660Y-83473321D01*
X120475659Y-83473321D01*
X120475661Y-83473320D01*
X120597441Y-83408228D01*
X120597443Y-83408227D01*
X120729579Y-83368143D01*
X120832568Y-83358000D01*
X122301432Y-83358000D01*
X122404421Y-83368143D01*
X122404421Y-83368143D01*
G37*
G36*
X116154421Y-83368143D02*
G01*
X116286557Y-83408227D01*
X116286559Y-83408228D01*
X116408339Y-83473320D01*
X116408341Y-83473321D01*
X116408340Y-83473321D01*
X116515080Y-83560920D01*
X116602679Y-83667660D01*
X116667773Y-83789443D01*
X116707857Y-83921579D01*
X116721391Y-84059000D01*
X116707857Y-84196421D01*
X116667773Y-84328557D01*
X116667772Y-84328559D01*
X116602680Y-84450339D01*
X116515080Y-84557080D01*
X116408339Y-84644680D01*
X116286559Y-84709772D01*
X116286557Y-84709773D01*
X116154421Y-84749857D01*
X116051432Y-84760000D01*
X114982568Y-84760000D01*
X114879579Y-84749857D01*
X114747443Y-84709773D01*
X114747441Y-84709772D01*
X114625661Y-84644680D01*
X114518920Y-84557080D01*
X114431320Y-84450339D01*
X114366228Y-84328559D01*
X114366227Y-84328557D01*
X114326143Y-84196421D01*
X114312609Y-84059000D01*
X114326143Y-83921579D01*
X114366227Y-83789443D01*
X114431321Y-83667660D01*
X114518920Y-83560920D01*
X114625660Y-83473321D01*
X114625659Y-83473321D01*
X114625661Y-83473320D01*
X114747441Y-83408228D01*
X114747443Y-83408227D01*
X114879579Y-83368143D01*
X114982568Y-83358000D01*
X116051432Y-83358000D01*
X116154421Y-83368143D01*
X116154421Y-83368143D01*
G37*
G36*
X140864000Y-84745000D02*
G01*
X139612000Y-84745000D01*
X139612000Y-84043000D01*
X140864000Y-84043000D01*
X140864000Y-84745000D01*
X140864000Y-84745000D01*
G37*
G36*
X128952499Y-83044445D02*
G01*
X128989995Y-83055820D01*
X129024554Y-83074292D01*
X129054847Y-83099153D01*
X129079708Y-83129446D01*
X129098180Y-83164005D01*
X129109555Y-83201501D01*
X129114000Y-83246638D01*
X129114000Y-83885362D01*
X129109555Y-83930499D01*
X129098180Y-83967995D01*
X129079708Y-84002554D01*
X129054847Y-84032847D01*
X129024554Y-84057708D01*
X128989995Y-84076180D01*
X128952499Y-84087555D01*
X128907362Y-84092000D01*
X128168638Y-84092000D01*
X128123501Y-84087555D01*
X128086005Y-84076180D01*
X128051446Y-84057708D01*
X128021153Y-84032847D01*
X127996292Y-84002554D01*
X127977820Y-83967995D01*
X127966445Y-83930499D01*
X127962000Y-83885362D01*
X127962000Y-83246638D01*
X127966445Y-83201501D01*
X127977820Y-83164005D01*
X127996292Y-83129446D01*
X128021153Y-83099153D01*
X128051446Y-83074292D01*
X128086005Y-83055820D01*
X128123501Y-83044445D01*
X128168638Y-83040000D01*
X128907362Y-83040000D01*
X128952499Y-83044445D01*
X128952499Y-83044445D01*
G37*
G36*
X130702499Y-83044445D02*
G01*
X130739995Y-83055820D01*
X130774554Y-83074292D01*
X130804847Y-83099153D01*
X130829708Y-83129446D01*
X130848180Y-83164005D01*
X130859555Y-83201501D01*
X130864000Y-83246638D01*
X130864000Y-83885362D01*
X130859555Y-83930499D01*
X130848180Y-83967995D01*
X130829708Y-84002554D01*
X130804847Y-84032847D01*
X130774554Y-84057708D01*
X130739995Y-84076180D01*
X130702499Y-84087555D01*
X130657362Y-84092000D01*
X129918638Y-84092000D01*
X129873501Y-84087555D01*
X129836005Y-84076180D01*
X129801446Y-84057708D01*
X129771153Y-84032847D01*
X129746292Y-84002554D01*
X129727820Y-83967995D01*
X129716445Y-83930499D01*
X129712000Y-83885362D01*
X129712000Y-83246638D01*
X129716445Y-83201501D01*
X129727820Y-83164005D01*
X129746292Y-83129446D01*
X129771153Y-83099153D01*
X129801446Y-83074292D01*
X129836005Y-83055820D01*
X129873501Y-83044445D01*
X129918638Y-83040000D01*
X130657362Y-83040000D01*
X130702499Y-83044445D01*
X130702499Y-83044445D01*
G37*
G36*
X143869178Y-81655000D02*
G01*
X143940627Y-81662037D01*
X144110466Y-81713557D01*
X144266991Y-81797222D01*
X144302729Y-81826552D01*
X144404186Y-81909814D01*
X144487448Y-82011271D01*
X144516778Y-82047009D01*
X144600443Y-82203534D01*
X144651963Y-82373373D01*
X144669359Y-82550000D01*
X144651963Y-82726627D01*
X144600443Y-82896466D01*
X144516778Y-83052991D01*
X144491064Y-83084323D01*
X144404186Y-83190186D01*
X144302729Y-83273448D01*
X144266991Y-83302778D01*
X144110466Y-83386443D01*
X143940627Y-83437963D01*
X143874443Y-83444481D01*
X143808260Y-83451000D01*
X143719740Y-83451000D01*
X143653557Y-83444481D01*
X143587373Y-83437963D01*
X143417534Y-83386443D01*
X143261009Y-83302778D01*
X143225271Y-83273448D01*
X143123814Y-83190186D01*
X143036936Y-83084323D01*
X143011222Y-83052991D01*
X142927557Y-82896466D01*
X142876037Y-82726627D01*
X142858641Y-82550000D01*
X142876037Y-82373373D01*
X142927557Y-82203534D01*
X143011222Y-82047009D01*
X143040552Y-82011271D01*
X143123814Y-81909814D01*
X143225271Y-81826552D01*
X143261009Y-81797222D01*
X143417534Y-81713557D01*
X143587373Y-81662037D01*
X143658822Y-81655000D01*
X143719740Y-81649000D01*
X143808260Y-81649000D01*
X143869178Y-81655000D01*
X143869178Y-81655000D01*
G37*
G36*
X146409178Y-81655000D02*
G01*
X146480627Y-81662037D01*
X146650466Y-81713557D01*
X146806991Y-81797222D01*
X146842729Y-81826552D01*
X146944186Y-81909814D01*
X147027448Y-82011271D01*
X147056778Y-82047009D01*
X147140443Y-82203534D01*
X147191963Y-82373373D01*
X147209359Y-82550000D01*
X147191963Y-82726627D01*
X147140443Y-82896466D01*
X147056778Y-83052991D01*
X147031064Y-83084323D01*
X146944186Y-83190186D01*
X146842729Y-83273448D01*
X146806991Y-83302778D01*
X146650466Y-83386443D01*
X146480627Y-83437963D01*
X146414443Y-83444481D01*
X146348260Y-83451000D01*
X146259740Y-83451000D01*
X146193557Y-83444481D01*
X146127373Y-83437963D01*
X145957534Y-83386443D01*
X145801009Y-83302778D01*
X145765271Y-83273448D01*
X145663814Y-83190186D01*
X145576936Y-83084323D01*
X145551222Y-83052991D01*
X145467557Y-82896466D01*
X145416037Y-82726627D01*
X145398641Y-82550000D01*
X145416037Y-82373373D01*
X145467557Y-82203534D01*
X145551222Y-82047009D01*
X145580552Y-82011271D01*
X145663814Y-81909814D01*
X145765271Y-81826552D01*
X145801009Y-81797222D01*
X145957534Y-81713557D01*
X146127373Y-81662037D01*
X146198822Y-81655000D01*
X146259740Y-81649000D01*
X146348260Y-81649000D01*
X146409178Y-81655000D01*
X146409178Y-81655000D01*
G37*
G36*
X128952499Y-81520445D02*
G01*
X128989995Y-81531820D01*
X129024554Y-81550292D01*
X129054847Y-81575153D01*
X129079708Y-81605446D01*
X129098180Y-81640005D01*
X129109555Y-81677501D01*
X129114000Y-81722638D01*
X129114000Y-82361362D01*
X129109555Y-82406499D01*
X129098180Y-82443995D01*
X129079708Y-82478554D01*
X129054847Y-82508847D01*
X129024554Y-82533708D01*
X128989995Y-82552180D01*
X128952499Y-82563555D01*
X128907362Y-82568000D01*
X128168638Y-82568000D01*
X128123501Y-82563555D01*
X128086005Y-82552180D01*
X128051446Y-82533708D01*
X128021153Y-82508847D01*
X127996292Y-82478554D01*
X127977820Y-82443995D01*
X127966445Y-82406499D01*
X127962000Y-82361362D01*
X127962000Y-81722638D01*
X127966445Y-81677501D01*
X127977820Y-81640005D01*
X127996292Y-81605446D01*
X128021153Y-81575153D01*
X128051446Y-81550292D01*
X128086005Y-81531820D01*
X128123501Y-81520445D01*
X128168638Y-81516000D01*
X128907362Y-81516000D01*
X128952499Y-81520445D01*
X128952499Y-81520445D01*
G37*
G36*
X130702499Y-81520445D02*
G01*
X130739995Y-81531820D01*
X130774554Y-81550292D01*
X130804847Y-81575153D01*
X130829708Y-81605446D01*
X130848180Y-81640005D01*
X130859555Y-81677501D01*
X130864000Y-81722638D01*
X130864000Y-82361362D01*
X130859555Y-82406499D01*
X130848180Y-82443995D01*
X130829708Y-82478554D01*
X130804847Y-82508847D01*
X130774554Y-82533708D01*
X130739995Y-82552180D01*
X130702499Y-82563555D01*
X130657362Y-82568000D01*
X129918638Y-82568000D01*
X129873501Y-82563555D01*
X129836005Y-82552180D01*
X129801446Y-82533708D01*
X129771153Y-82508847D01*
X129746292Y-82478554D01*
X129727820Y-82443995D01*
X129716445Y-82406499D01*
X129712000Y-82361362D01*
X129712000Y-81722638D01*
X129716445Y-81677501D01*
X129727820Y-81640005D01*
X129746292Y-81605446D01*
X129771153Y-81575153D01*
X129801446Y-81550292D01*
X129836005Y-81531820D01*
X129873501Y-81520445D01*
X129918638Y-81516000D01*
X130657362Y-81516000D01*
X130702499Y-81520445D01*
X130702499Y-81520445D01*
G37*
G36*
X133493000Y-81655000D02*
G01*
X132191000Y-81655000D01*
X132191000Y-80653000D01*
X133493000Y-80653000D01*
X133493000Y-81655000D01*
X133493000Y-81655000D01*
G37*
G36*
X123367000Y-81434000D02*
G01*
X121667000Y-81434000D01*
X121667000Y-72084000D01*
X123367000Y-72084000D01*
X123367000Y-81434000D01*
X123367000Y-81434000D01*
G37*
G36*
X143874443Y-79115519D02*
G01*
X143940627Y-79122037D01*
X144110466Y-79173557D01*
X144266991Y-79257222D01*
X144302729Y-79286552D01*
X144404186Y-79369814D01*
X144456861Y-79434000D01*
X144516778Y-79507009D01*
X144600443Y-79663534D01*
X144651963Y-79833373D01*
X144669359Y-80010000D01*
X144651963Y-80186627D01*
X144600443Y-80356466D01*
X144516778Y-80512991D01*
X144505281Y-80527000D01*
X144404186Y-80650186D01*
X144305899Y-80730847D01*
X144266991Y-80762778D01*
X144110466Y-80846443D01*
X143940627Y-80897963D01*
X143874442Y-80904482D01*
X143808260Y-80911000D01*
X143719740Y-80911000D01*
X143653558Y-80904482D01*
X143587373Y-80897963D01*
X143417534Y-80846443D01*
X143261009Y-80762778D01*
X143222101Y-80730847D01*
X143123814Y-80650186D01*
X143022719Y-80527000D01*
X143011222Y-80512991D01*
X142927557Y-80356466D01*
X142876037Y-80186627D01*
X142858641Y-80010000D01*
X142876037Y-79833373D01*
X142927557Y-79663534D01*
X143011222Y-79507009D01*
X143071139Y-79434000D01*
X143123814Y-79369814D01*
X143225271Y-79286552D01*
X143261009Y-79257222D01*
X143417534Y-79173557D01*
X143587373Y-79122037D01*
X143653557Y-79115519D01*
X143719740Y-79109000D01*
X143808260Y-79109000D01*
X143874443Y-79115519D01*
X143874443Y-79115519D01*
G37*
G36*
X146414443Y-79115519D02*
G01*
X146480627Y-79122037D01*
X146650466Y-79173557D01*
X146806991Y-79257222D01*
X146842729Y-79286552D01*
X146944186Y-79369814D01*
X146996861Y-79434000D01*
X147056778Y-79507009D01*
X147140443Y-79663534D01*
X147191963Y-79833373D01*
X147209359Y-80010000D01*
X147191963Y-80186627D01*
X147140443Y-80356466D01*
X147056778Y-80512991D01*
X147045281Y-80527000D01*
X146944186Y-80650186D01*
X146845899Y-80730847D01*
X146806991Y-80762778D01*
X146650466Y-80846443D01*
X146480627Y-80897963D01*
X146414442Y-80904482D01*
X146348260Y-80911000D01*
X146259740Y-80911000D01*
X146193558Y-80904482D01*
X146127373Y-80897963D01*
X145957534Y-80846443D01*
X145801009Y-80762778D01*
X145762101Y-80730847D01*
X145663814Y-80650186D01*
X145562719Y-80527000D01*
X145551222Y-80512991D01*
X145467557Y-80356466D01*
X145416037Y-80186627D01*
X145398641Y-80010000D01*
X145416037Y-79833373D01*
X145467557Y-79663534D01*
X145551222Y-79507009D01*
X145611139Y-79434000D01*
X145663814Y-79369814D01*
X145765271Y-79286552D01*
X145801009Y-79257222D01*
X145957534Y-79173557D01*
X146127373Y-79122037D01*
X146193557Y-79115519D01*
X146259740Y-79109000D01*
X146348260Y-79109000D01*
X146414443Y-79115519D01*
X146414443Y-79115519D01*
G37*
G36*
X130688499Y-79742445D02*
G01*
X130725995Y-79753820D01*
X130760554Y-79772292D01*
X130790847Y-79797153D01*
X130815708Y-79827446D01*
X130834180Y-79862005D01*
X130845555Y-79899501D01*
X130850000Y-79944638D01*
X130850000Y-80583362D01*
X130845555Y-80628499D01*
X130834180Y-80665995D01*
X130815708Y-80700554D01*
X130790847Y-80730847D01*
X130760554Y-80755708D01*
X130725995Y-80774180D01*
X130688499Y-80785555D01*
X130643362Y-80790000D01*
X129904638Y-80790000D01*
X129859501Y-80785555D01*
X129822005Y-80774180D01*
X129787446Y-80755708D01*
X129757153Y-80730847D01*
X129732292Y-80700554D01*
X129713820Y-80665995D01*
X129702445Y-80628499D01*
X129698000Y-80583362D01*
X129698000Y-79944638D01*
X129702445Y-79899501D01*
X129713820Y-79862005D01*
X129732292Y-79827446D01*
X129757153Y-79797153D01*
X129787446Y-79772292D01*
X129822005Y-79753820D01*
X129859501Y-79742445D01*
X129904638Y-79738000D01*
X130643362Y-79738000D01*
X130688499Y-79742445D01*
X130688499Y-79742445D01*
G37*
G36*
X128938499Y-79742445D02*
G01*
X128975995Y-79753820D01*
X129010554Y-79772292D01*
X129040847Y-79797153D01*
X129065708Y-79827446D01*
X129084180Y-79862005D01*
X129095555Y-79899501D01*
X129100000Y-79944638D01*
X129100000Y-80583362D01*
X129095555Y-80628499D01*
X129084180Y-80665995D01*
X129065708Y-80700554D01*
X129040847Y-80730847D01*
X129010554Y-80755708D01*
X128975995Y-80774180D01*
X128938499Y-80785555D01*
X128893362Y-80790000D01*
X128154638Y-80790000D01*
X128109501Y-80785555D01*
X128072005Y-80774180D01*
X128037446Y-80755708D01*
X128007153Y-80730847D01*
X127982292Y-80700554D01*
X127963820Y-80665995D01*
X127952445Y-80628499D01*
X127948000Y-80583362D01*
X127948000Y-79944638D01*
X127952445Y-79899501D01*
X127963820Y-79862005D01*
X127982292Y-79827446D01*
X128007153Y-79797153D01*
X128037446Y-79772292D01*
X128072005Y-79753820D01*
X128109501Y-79742445D01*
X128154638Y-79738000D01*
X128893362Y-79738000D01*
X128938499Y-79742445D01*
X128938499Y-79742445D01*
G37*
G36*
X130716499Y-78218445D02*
G01*
X130753995Y-78229820D01*
X130788554Y-78248292D01*
X130818847Y-78273153D01*
X130843708Y-78303446D01*
X130862180Y-78338005D01*
X130873555Y-78375501D01*
X130878000Y-78420638D01*
X130878000Y-79059362D01*
X130873555Y-79104499D01*
X130862180Y-79141995D01*
X130843708Y-79176554D01*
X130818847Y-79206847D01*
X130788554Y-79231708D01*
X130753995Y-79250180D01*
X130716499Y-79261555D01*
X130671362Y-79266000D01*
X129932638Y-79266000D01*
X129887501Y-79261555D01*
X129850005Y-79250180D01*
X129815446Y-79231708D01*
X129785153Y-79206847D01*
X129760292Y-79176554D01*
X129741820Y-79141995D01*
X129730445Y-79104499D01*
X129726000Y-79059362D01*
X129726000Y-78420638D01*
X129730445Y-78375501D01*
X129741820Y-78338005D01*
X129760292Y-78303446D01*
X129785153Y-78273153D01*
X129815446Y-78248292D01*
X129850005Y-78229820D01*
X129887501Y-78218445D01*
X129932638Y-78214000D01*
X130671362Y-78214000D01*
X130716499Y-78218445D01*
X130716499Y-78218445D01*
G37*
G36*
X128966499Y-78218445D02*
G01*
X129003995Y-78229820D01*
X129038554Y-78248292D01*
X129068847Y-78273153D01*
X129093708Y-78303446D01*
X129112180Y-78338005D01*
X129123555Y-78375501D01*
X129128000Y-78420638D01*
X129128000Y-79059362D01*
X129123555Y-79104499D01*
X129112180Y-79141995D01*
X129093708Y-79176554D01*
X129068847Y-79206847D01*
X129038554Y-79231708D01*
X129003995Y-79250180D01*
X128966499Y-79261555D01*
X128921362Y-79266000D01*
X128182638Y-79266000D01*
X128137501Y-79261555D01*
X128100005Y-79250180D01*
X128065446Y-79231708D01*
X128035153Y-79206847D01*
X128010292Y-79176554D01*
X127991820Y-79141995D01*
X127980445Y-79104499D01*
X127976000Y-79059362D01*
X127976000Y-78420638D01*
X127980445Y-78375501D01*
X127991820Y-78338005D01*
X128010292Y-78303446D01*
X128035153Y-78273153D01*
X128065446Y-78248292D01*
X128100005Y-78229820D01*
X128137501Y-78218445D01*
X128182638Y-78214000D01*
X128921362Y-78214000D01*
X128966499Y-78218445D01*
X128966499Y-78218445D01*
G37*
G36*
X143874443Y-76575519D02*
G01*
X143940627Y-76582037D01*
X144110466Y-76633557D01*
X144266991Y-76717222D01*
X144287828Y-76734323D01*
X144404186Y-76829814D01*
X144459026Y-76896638D01*
X144516778Y-76967009D01*
X144516779Y-76967011D01*
X144579312Y-77084000D01*
X144600443Y-77123534D01*
X144651963Y-77293373D01*
X144669359Y-77470000D01*
X144651963Y-77646627D01*
X144600443Y-77816466D01*
X144516778Y-77972991D01*
X144487448Y-78008729D01*
X144404186Y-78110186D01*
X144302729Y-78193448D01*
X144266991Y-78222778D01*
X144110466Y-78306443D01*
X143940627Y-78357963D01*
X143874443Y-78364481D01*
X143808260Y-78371000D01*
X143719740Y-78371000D01*
X143653557Y-78364481D01*
X143587373Y-78357963D01*
X143417534Y-78306443D01*
X143261009Y-78222778D01*
X143225271Y-78193448D01*
X143123814Y-78110186D01*
X143040552Y-78008729D01*
X143011222Y-77972991D01*
X142927557Y-77816466D01*
X142876037Y-77646627D01*
X142858641Y-77470000D01*
X142876037Y-77293373D01*
X142927557Y-77123534D01*
X142948689Y-77084000D01*
X143011221Y-76967011D01*
X143011222Y-76967009D01*
X143068974Y-76896638D01*
X143123814Y-76829814D01*
X143240172Y-76734323D01*
X143261009Y-76717222D01*
X143417534Y-76633557D01*
X143587373Y-76582037D01*
X143653557Y-76575519D01*
X143719740Y-76569000D01*
X143808260Y-76569000D01*
X143874443Y-76575519D01*
X143874443Y-76575519D01*
G37*
G36*
X146414443Y-76575519D02*
G01*
X146480627Y-76582037D01*
X146650466Y-76633557D01*
X146806991Y-76717222D01*
X146827828Y-76734323D01*
X146944186Y-76829814D01*
X146999026Y-76896638D01*
X147056778Y-76967009D01*
X147056779Y-76967011D01*
X147119312Y-77084000D01*
X147140443Y-77123534D01*
X147191963Y-77293373D01*
X147209359Y-77470000D01*
X147191963Y-77646627D01*
X147140443Y-77816466D01*
X147056778Y-77972991D01*
X147027448Y-78008729D01*
X146944186Y-78110186D01*
X146842729Y-78193448D01*
X146806991Y-78222778D01*
X146650466Y-78306443D01*
X146480627Y-78357963D01*
X146414443Y-78364481D01*
X146348260Y-78371000D01*
X146259740Y-78371000D01*
X146193557Y-78364481D01*
X146127373Y-78357963D01*
X145957534Y-78306443D01*
X145801009Y-78222778D01*
X145765271Y-78193448D01*
X145663814Y-78110186D01*
X145580552Y-78008729D01*
X145551222Y-77972991D01*
X145467557Y-77816466D01*
X145416037Y-77646627D01*
X145398641Y-77470000D01*
X145416037Y-77293373D01*
X145467557Y-77123534D01*
X145488689Y-77084000D01*
X145551221Y-76967011D01*
X145551222Y-76967009D01*
X145608974Y-76896638D01*
X145663814Y-76829814D01*
X145780172Y-76734323D01*
X145801009Y-76717222D01*
X145957534Y-76633557D01*
X146127373Y-76582037D01*
X146193557Y-76575519D01*
X146259740Y-76569000D01*
X146348260Y-76569000D01*
X146414443Y-76575519D01*
X146414443Y-76575519D01*
G37*
G36*
X128938499Y-76694445D02*
G01*
X128975995Y-76705820D01*
X129010554Y-76724292D01*
X129040847Y-76749153D01*
X129065708Y-76779446D01*
X129084180Y-76814005D01*
X129095555Y-76851501D01*
X129100000Y-76896638D01*
X129100000Y-77535362D01*
X129095555Y-77580499D01*
X129084180Y-77617995D01*
X129065708Y-77652554D01*
X129040847Y-77682847D01*
X129010554Y-77707708D01*
X128975995Y-77726180D01*
X128938499Y-77737555D01*
X128893362Y-77742000D01*
X128154638Y-77742000D01*
X128109501Y-77737555D01*
X128072005Y-77726180D01*
X128037446Y-77707708D01*
X128007153Y-77682847D01*
X127982292Y-77652554D01*
X127963820Y-77617995D01*
X127952445Y-77580499D01*
X127948000Y-77535362D01*
X127948000Y-76896638D01*
X127952445Y-76851501D01*
X127963820Y-76814005D01*
X127982292Y-76779446D01*
X128007153Y-76749153D01*
X128037446Y-76724292D01*
X128072005Y-76705820D01*
X128109501Y-76694445D01*
X128154638Y-76690000D01*
X128893362Y-76690000D01*
X128938499Y-76694445D01*
X128938499Y-76694445D01*
G37*
G36*
X130688499Y-76694445D02*
G01*
X130725995Y-76705820D01*
X130760554Y-76724292D01*
X130790847Y-76749153D01*
X130815708Y-76779446D01*
X130834180Y-76814005D01*
X130845555Y-76851501D01*
X130850000Y-76896638D01*
X130850000Y-77535362D01*
X130845555Y-77580499D01*
X130834180Y-77617995D01*
X130815708Y-77652554D01*
X130790847Y-77682847D01*
X130760554Y-77707708D01*
X130725995Y-77726180D01*
X130688499Y-77737555D01*
X130643362Y-77742000D01*
X129904638Y-77742000D01*
X129859501Y-77737555D01*
X129822005Y-77726180D01*
X129787446Y-77707708D01*
X129757153Y-77682847D01*
X129732292Y-77652554D01*
X129713820Y-77617995D01*
X129702445Y-77580499D01*
X129698000Y-77535362D01*
X129698000Y-76896638D01*
X129702445Y-76851501D01*
X129713820Y-76814005D01*
X129732292Y-76779446D01*
X129757153Y-76749153D01*
X129787446Y-76724292D01*
X129822005Y-76705820D01*
X129859501Y-76694445D01*
X129904638Y-76690000D01*
X130643362Y-76690000D01*
X130688499Y-76694445D01*
X130688499Y-76694445D01*
G37*
G36*
X128952499Y-75170445D02*
G01*
X128989995Y-75181820D01*
X129024554Y-75200292D01*
X129054847Y-75225153D01*
X129079708Y-75255446D01*
X129098180Y-75290005D01*
X129109555Y-75327501D01*
X129114000Y-75372638D01*
X129114000Y-76011362D01*
X129109555Y-76056499D01*
X129098180Y-76093995D01*
X129079708Y-76128554D01*
X129054847Y-76158847D01*
X129024554Y-76183708D01*
X128989995Y-76202180D01*
X128952499Y-76213555D01*
X128907362Y-76218000D01*
X128168638Y-76218000D01*
X128123501Y-76213555D01*
X128086005Y-76202180D01*
X128051446Y-76183708D01*
X128021153Y-76158847D01*
X127996292Y-76128554D01*
X127977820Y-76093995D01*
X127966445Y-76056499D01*
X127962000Y-76011362D01*
X127962000Y-75372638D01*
X127966445Y-75327501D01*
X127977820Y-75290005D01*
X127996292Y-75255446D01*
X128021153Y-75225153D01*
X128051446Y-75200292D01*
X128086005Y-75181820D01*
X128123501Y-75170445D01*
X128168638Y-75166000D01*
X128907362Y-75166000D01*
X128952499Y-75170445D01*
X128952499Y-75170445D01*
G37*
G36*
X130702499Y-75170445D02*
G01*
X130739995Y-75181820D01*
X130774554Y-75200292D01*
X130804847Y-75225153D01*
X130829708Y-75255446D01*
X130848180Y-75290005D01*
X130859555Y-75327501D01*
X130864000Y-75372638D01*
X130864000Y-76011362D01*
X130859555Y-76056499D01*
X130848180Y-76093995D01*
X130829708Y-76128554D01*
X130804847Y-76158847D01*
X130774554Y-76183708D01*
X130739995Y-76202180D01*
X130702499Y-76213555D01*
X130657362Y-76218000D01*
X129918638Y-76218000D01*
X129873501Y-76213555D01*
X129836005Y-76202180D01*
X129801446Y-76183708D01*
X129771153Y-76158847D01*
X129746292Y-76128554D01*
X129727820Y-76093995D01*
X129716445Y-76056499D01*
X129712000Y-76011362D01*
X129712000Y-75372638D01*
X129716445Y-75327501D01*
X129727820Y-75290005D01*
X129746292Y-75255446D01*
X129771153Y-75225153D01*
X129801446Y-75200292D01*
X129836005Y-75181820D01*
X129873501Y-75170445D01*
X129918638Y-75166000D01*
X130657362Y-75166000D01*
X130702499Y-75170445D01*
X130702499Y-75170445D01*
G37*
G36*
X146414442Y-74035518D02*
G01*
X146480627Y-74042037D01*
X146650466Y-74093557D01*
X146806991Y-74177222D01*
X146842729Y-74206552D01*
X146944186Y-74289814D01*
X147027448Y-74391271D01*
X147056778Y-74427009D01*
X147140443Y-74583534D01*
X147191963Y-74753373D01*
X147209359Y-74930000D01*
X147191963Y-75106627D01*
X147140443Y-75276466D01*
X147056778Y-75432991D01*
X147027448Y-75468729D01*
X146944186Y-75570186D01*
X146842729Y-75653448D01*
X146806991Y-75682778D01*
X146650466Y-75766443D01*
X146480627Y-75817963D01*
X146414442Y-75824482D01*
X146348260Y-75831000D01*
X146259740Y-75831000D01*
X146193558Y-75824482D01*
X146127373Y-75817963D01*
X145957534Y-75766443D01*
X145801009Y-75682778D01*
X145765271Y-75653448D01*
X145663814Y-75570186D01*
X145580552Y-75468729D01*
X145551222Y-75432991D01*
X145467557Y-75276466D01*
X145416037Y-75106627D01*
X145398641Y-74930000D01*
X145416037Y-74753373D01*
X145467557Y-74583534D01*
X145551222Y-74427009D01*
X145580552Y-74391271D01*
X145663814Y-74289814D01*
X145765271Y-74206552D01*
X145801009Y-74177222D01*
X145957534Y-74093557D01*
X146127373Y-74042037D01*
X146193558Y-74035518D01*
X146259740Y-74029000D01*
X146348260Y-74029000D01*
X146414442Y-74035518D01*
X146414442Y-74035518D01*
G37*
G36*
X143874442Y-74035518D02*
G01*
X143940627Y-74042037D01*
X144110466Y-74093557D01*
X144266991Y-74177222D01*
X144302729Y-74206552D01*
X144404186Y-74289814D01*
X144487448Y-74391271D01*
X144516778Y-74427009D01*
X144600443Y-74583534D01*
X144651963Y-74753373D01*
X144669359Y-74930000D01*
X144651963Y-75106627D01*
X144600443Y-75276466D01*
X144516778Y-75432991D01*
X144487448Y-75468729D01*
X144404186Y-75570186D01*
X144302729Y-75653448D01*
X144266991Y-75682778D01*
X144110466Y-75766443D01*
X143940627Y-75817963D01*
X143874442Y-75824482D01*
X143808260Y-75831000D01*
X143719740Y-75831000D01*
X143653558Y-75824482D01*
X143587373Y-75817963D01*
X143417534Y-75766443D01*
X143261009Y-75682778D01*
X143225271Y-75653448D01*
X143123814Y-75570186D01*
X143040552Y-75468729D01*
X143011222Y-75432991D01*
X142927557Y-75276466D01*
X142876037Y-75106627D01*
X142858641Y-74930000D01*
X142876037Y-74753373D01*
X142927557Y-74583534D01*
X143011222Y-74427009D01*
X143040552Y-74391271D01*
X143123814Y-74289814D01*
X143225271Y-74206552D01*
X143261009Y-74177222D01*
X143417534Y-74093557D01*
X143587373Y-74042037D01*
X143653558Y-74035518D01*
X143719740Y-74029000D01*
X143808260Y-74029000D01*
X143874442Y-74035518D01*
X143874442Y-74035518D01*
G37*
G36*
X140219000Y-75598000D02*
G01*
X138517000Y-75598000D01*
X138517000Y-73246000D01*
X140219000Y-73246000D01*
X140219000Y-75598000D01*
X140219000Y-75598000D01*
G37*
G36*
X136819000Y-75598000D02*
G01*
X135117000Y-75598000D01*
X135117000Y-73246000D01*
X136819000Y-73246000D01*
X136819000Y-75598000D01*
X136819000Y-75598000D01*
G37*
G36*
X128952499Y-73646445D02*
G01*
X128989995Y-73657820D01*
X129024554Y-73676292D01*
X129054847Y-73701153D01*
X129079708Y-73731446D01*
X129098180Y-73766005D01*
X129109555Y-73803501D01*
X129114000Y-73848638D01*
X129114000Y-74487362D01*
X129109555Y-74532499D01*
X129098180Y-74569995D01*
X129079708Y-74604554D01*
X129054847Y-74634847D01*
X129024554Y-74659708D01*
X128989995Y-74678180D01*
X128952499Y-74689555D01*
X128907362Y-74694000D01*
X128168638Y-74694000D01*
X128123501Y-74689555D01*
X128086005Y-74678180D01*
X128051446Y-74659708D01*
X128021153Y-74634847D01*
X127996292Y-74604554D01*
X127977820Y-74569995D01*
X127966445Y-74532499D01*
X127962000Y-74487362D01*
X127962000Y-73848638D01*
X127966445Y-73803501D01*
X127977820Y-73766005D01*
X127996292Y-73731446D01*
X128021153Y-73701153D01*
X128051446Y-73676292D01*
X128086005Y-73657820D01*
X128123501Y-73646445D01*
X128168638Y-73642000D01*
X128907362Y-73642000D01*
X128952499Y-73646445D01*
X128952499Y-73646445D01*
G37*
G36*
X130702499Y-73646445D02*
G01*
X130739995Y-73657820D01*
X130774554Y-73676292D01*
X130804847Y-73701153D01*
X130829708Y-73731446D01*
X130848180Y-73766005D01*
X130859555Y-73803501D01*
X130864000Y-73848638D01*
X130864000Y-74487362D01*
X130859555Y-74532499D01*
X130848180Y-74569995D01*
X130829708Y-74604554D01*
X130804847Y-74634847D01*
X130774554Y-74659708D01*
X130739995Y-74678180D01*
X130702499Y-74689555D01*
X130657362Y-74694000D01*
X129918638Y-74694000D01*
X129873501Y-74689555D01*
X129836005Y-74678180D01*
X129801446Y-74659708D01*
X129771153Y-74634847D01*
X129746292Y-74604554D01*
X129727820Y-74569995D01*
X129716445Y-74532499D01*
X129712000Y-74487362D01*
X129712000Y-73848638D01*
X129716445Y-73803501D01*
X129727820Y-73766005D01*
X129746292Y-73731446D01*
X129771153Y-73701153D01*
X129801446Y-73676292D01*
X129836005Y-73657820D01*
X129873501Y-73646445D01*
X129918638Y-73642000D01*
X130657362Y-73642000D01*
X130702499Y-73646445D01*
X130702499Y-73646445D01*
G37*
G36*
X146414443Y-71495519D02*
G01*
X146480627Y-71502037D01*
X146650466Y-71553557D01*
X146806991Y-71637222D01*
X146842729Y-71666552D01*
X146944186Y-71749814D01*
X147027448Y-71851271D01*
X147056778Y-71887009D01*
X147140443Y-72043534D01*
X147191963Y-72213373D01*
X147209359Y-72390000D01*
X147191963Y-72566627D01*
X147140443Y-72736466D01*
X147056778Y-72892991D01*
X147045281Y-72907000D01*
X146944186Y-73030186D01*
X146845899Y-73110847D01*
X146806991Y-73142778D01*
X146650466Y-73226443D01*
X146480627Y-73277963D01*
X146414443Y-73284481D01*
X146348260Y-73291000D01*
X146259740Y-73291000D01*
X146193557Y-73284481D01*
X146127373Y-73277963D01*
X145957534Y-73226443D01*
X145801009Y-73142778D01*
X145762101Y-73110847D01*
X145663814Y-73030186D01*
X145562719Y-72907000D01*
X145551222Y-72892991D01*
X145467557Y-72736466D01*
X145416037Y-72566627D01*
X145398641Y-72390000D01*
X145416037Y-72213373D01*
X145467557Y-72043534D01*
X145551222Y-71887009D01*
X145580552Y-71851271D01*
X145663814Y-71749814D01*
X145765271Y-71666552D01*
X145801009Y-71637222D01*
X145957534Y-71553557D01*
X146127373Y-71502037D01*
X146193557Y-71495519D01*
X146259740Y-71489000D01*
X146348260Y-71489000D01*
X146414443Y-71495519D01*
X146414443Y-71495519D01*
G37*
G36*
X143874443Y-71495519D02*
G01*
X143940627Y-71502037D01*
X144110466Y-71553557D01*
X144266991Y-71637222D01*
X144302729Y-71666552D01*
X144404186Y-71749814D01*
X144487448Y-71851271D01*
X144516778Y-71887009D01*
X144600443Y-72043534D01*
X144651963Y-72213373D01*
X144669359Y-72390000D01*
X144651963Y-72566627D01*
X144600443Y-72736466D01*
X144516778Y-72892991D01*
X144505281Y-72907000D01*
X144404186Y-73030186D01*
X144305899Y-73110847D01*
X144266991Y-73142778D01*
X144110466Y-73226443D01*
X143940627Y-73277963D01*
X143874443Y-73284481D01*
X143808260Y-73291000D01*
X143719740Y-73291000D01*
X143653557Y-73284481D01*
X143587373Y-73277963D01*
X143417534Y-73226443D01*
X143261009Y-73142778D01*
X143222101Y-73110847D01*
X143123814Y-73030186D01*
X143022719Y-72907000D01*
X143011222Y-72892991D01*
X142927557Y-72736466D01*
X142876037Y-72566627D01*
X142858641Y-72390000D01*
X142876037Y-72213373D01*
X142927557Y-72043534D01*
X143011222Y-71887009D01*
X143040552Y-71851271D01*
X143123814Y-71749814D01*
X143225271Y-71666552D01*
X143261009Y-71637222D01*
X143417534Y-71553557D01*
X143587373Y-71502037D01*
X143653557Y-71495519D01*
X143719740Y-71489000D01*
X143808260Y-71489000D01*
X143874443Y-71495519D01*
X143874443Y-71495519D01*
G37*
G36*
X130688499Y-72122445D02*
G01*
X130725995Y-72133820D01*
X130760554Y-72152292D01*
X130790847Y-72177153D01*
X130815708Y-72207446D01*
X130834180Y-72242005D01*
X130845555Y-72279501D01*
X130850000Y-72324638D01*
X130850000Y-72963362D01*
X130845555Y-73008499D01*
X130834180Y-73045995D01*
X130815708Y-73080554D01*
X130790847Y-73110847D01*
X130760554Y-73135708D01*
X130725995Y-73154180D01*
X130688499Y-73165555D01*
X130643362Y-73170000D01*
X129904638Y-73170000D01*
X129859501Y-73165555D01*
X129822005Y-73154180D01*
X129787446Y-73135708D01*
X129757153Y-73110847D01*
X129732292Y-73080554D01*
X129713820Y-73045995D01*
X129702445Y-73008499D01*
X129698000Y-72963362D01*
X129698000Y-72324638D01*
X129702445Y-72279501D01*
X129713820Y-72242005D01*
X129732292Y-72207446D01*
X129757153Y-72177153D01*
X129787446Y-72152292D01*
X129822005Y-72133820D01*
X129859501Y-72122445D01*
X129904638Y-72118000D01*
X130643362Y-72118000D01*
X130688499Y-72122445D01*
X130688499Y-72122445D01*
G37*
G36*
X128938499Y-72122445D02*
G01*
X128975995Y-72133820D01*
X129010554Y-72152292D01*
X129040847Y-72177153D01*
X129065708Y-72207446D01*
X129084180Y-72242005D01*
X129095555Y-72279501D01*
X129100000Y-72324638D01*
X129100000Y-72963362D01*
X129095555Y-73008499D01*
X129084180Y-73045995D01*
X129065708Y-73080554D01*
X129040847Y-73110847D01*
X129010554Y-73135708D01*
X128975995Y-73154180D01*
X128938499Y-73165555D01*
X128893362Y-73170000D01*
X128154638Y-73170000D01*
X128109501Y-73165555D01*
X128072005Y-73154180D01*
X128037446Y-73135708D01*
X128007153Y-73110847D01*
X127982292Y-73080554D01*
X127963820Y-73045995D01*
X127952445Y-73008499D01*
X127948000Y-72963362D01*
X127948000Y-72324638D01*
X127952445Y-72279501D01*
X127963820Y-72242005D01*
X127982292Y-72207446D01*
X128007153Y-72177153D01*
X128037446Y-72152292D01*
X128072005Y-72133820D01*
X128109501Y-72122445D01*
X128154638Y-72118000D01*
X128893362Y-72118000D01*
X128938499Y-72122445D01*
X128938499Y-72122445D01*
G37*
G36*
X130702499Y-70598445D02*
G01*
X130739995Y-70609820D01*
X130774554Y-70628292D01*
X130804847Y-70653153D01*
X130829708Y-70683446D01*
X130848180Y-70718005D01*
X130859555Y-70755501D01*
X130864000Y-70800638D01*
X130864000Y-71439362D01*
X130859555Y-71484499D01*
X130848180Y-71521995D01*
X130829708Y-71556554D01*
X130804847Y-71586847D01*
X130774554Y-71611708D01*
X130739995Y-71630180D01*
X130702499Y-71641555D01*
X130657362Y-71646000D01*
X129918638Y-71646000D01*
X129873501Y-71641555D01*
X129836005Y-71630180D01*
X129801446Y-71611708D01*
X129771153Y-71586847D01*
X129746292Y-71556554D01*
X129727820Y-71521995D01*
X129716445Y-71484499D01*
X129712000Y-71439362D01*
X129712000Y-70800638D01*
X129716445Y-70755501D01*
X129727820Y-70718005D01*
X129746292Y-70683446D01*
X129771153Y-70653153D01*
X129801446Y-70628292D01*
X129836005Y-70609820D01*
X129873501Y-70598445D01*
X129918638Y-70594000D01*
X130657362Y-70594000D01*
X130702499Y-70598445D01*
X130702499Y-70598445D01*
G37*
G36*
X128952499Y-70598445D02*
G01*
X128989995Y-70609820D01*
X129024554Y-70628292D01*
X129054847Y-70653153D01*
X129079708Y-70683446D01*
X129098180Y-70718005D01*
X129109555Y-70755501D01*
X129114000Y-70800638D01*
X129114000Y-71439362D01*
X129109555Y-71484499D01*
X129098180Y-71521995D01*
X129079708Y-71556554D01*
X129054847Y-71586847D01*
X129024554Y-71611708D01*
X128989995Y-71630180D01*
X128952499Y-71641555D01*
X128907362Y-71646000D01*
X128168638Y-71646000D01*
X128123501Y-71641555D01*
X128086005Y-71630180D01*
X128051446Y-71611708D01*
X128021153Y-71586847D01*
X127996292Y-71556554D01*
X127977820Y-71521995D01*
X127966445Y-71484499D01*
X127962000Y-71439362D01*
X127962000Y-70800638D01*
X127966445Y-70755501D01*
X127977820Y-70718005D01*
X127996292Y-70683446D01*
X128021153Y-70653153D01*
X128051446Y-70628292D01*
X128086005Y-70609820D01*
X128123501Y-70598445D01*
X128168638Y-70594000D01*
X128907362Y-70594000D01*
X128952499Y-70598445D01*
X128952499Y-70598445D01*
G37*
G36*
X143874443Y-68955519D02*
G01*
X143940627Y-68962037D01*
X144110466Y-69013557D01*
X144266991Y-69097222D01*
X144287828Y-69114323D01*
X144404186Y-69209814D01*
X144459026Y-69276638D01*
X144516778Y-69347009D01*
X144600443Y-69503534D01*
X144651963Y-69673373D01*
X144669359Y-69850000D01*
X144651963Y-70026627D01*
X144600443Y-70196466D01*
X144516778Y-70352991D01*
X144487448Y-70388729D01*
X144404186Y-70490186D01*
X144302729Y-70573448D01*
X144266991Y-70602778D01*
X144110466Y-70686443D01*
X143940627Y-70737963D01*
X143874443Y-70744481D01*
X143808260Y-70751000D01*
X143719740Y-70751000D01*
X143653557Y-70744481D01*
X143587373Y-70737963D01*
X143417534Y-70686443D01*
X143261009Y-70602778D01*
X143225271Y-70573448D01*
X143123814Y-70490186D01*
X143040552Y-70388729D01*
X143011222Y-70352991D01*
X142927557Y-70196466D01*
X142876037Y-70026627D01*
X142858641Y-69850000D01*
X142876037Y-69673373D01*
X142927557Y-69503534D01*
X143011222Y-69347009D01*
X143068974Y-69276638D01*
X143123814Y-69209814D01*
X143240172Y-69114323D01*
X143261009Y-69097222D01*
X143417534Y-69013557D01*
X143587373Y-68962037D01*
X143653557Y-68955519D01*
X143719740Y-68949000D01*
X143808260Y-68949000D01*
X143874443Y-68955519D01*
X143874443Y-68955519D01*
G37*
G36*
X146414443Y-68955519D02*
G01*
X146480627Y-68962037D01*
X146650466Y-69013557D01*
X146806991Y-69097222D01*
X146827828Y-69114323D01*
X146944186Y-69209814D01*
X146999026Y-69276638D01*
X147056778Y-69347009D01*
X147140443Y-69503534D01*
X147191963Y-69673373D01*
X147209359Y-69850000D01*
X147191963Y-70026627D01*
X147140443Y-70196466D01*
X147056778Y-70352991D01*
X147027448Y-70388729D01*
X146944186Y-70490186D01*
X146842729Y-70573448D01*
X146806991Y-70602778D01*
X146650466Y-70686443D01*
X146480627Y-70737963D01*
X146414443Y-70744481D01*
X146348260Y-70751000D01*
X146259740Y-70751000D01*
X146193557Y-70744481D01*
X146127373Y-70737963D01*
X145957534Y-70686443D01*
X145801009Y-70602778D01*
X145765271Y-70573448D01*
X145663814Y-70490186D01*
X145580552Y-70388729D01*
X145551222Y-70352991D01*
X145467557Y-70196466D01*
X145416037Y-70026627D01*
X145398641Y-69850000D01*
X145416037Y-69673373D01*
X145467557Y-69503534D01*
X145551222Y-69347009D01*
X145608974Y-69276638D01*
X145663814Y-69209814D01*
X145780172Y-69114323D01*
X145801009Y-69097222D01*
X145957534Y-69013557D01*
X146127373Y-68962037D01*
X146193557Y-68955519D01*
X146259740Y-68949000D01*
X146348260Y-68949000D01*
X146414443Y-68955519D01*
X146414443Y-68955519D01*
G37*
G36*
X122404421Y-68768143D02*
G01*
X122536557Y-68808227D01*
X122536559Y-68808228D01*
X122658339Y-68873320D01*
X122765080Y-68960920D01*
X122852680Y-69067661D01*
X122916406Y-69186885D01*
X122917773Y-69189443D01*
X122957857Y-69321579D01*
X122971391Y-69459000D01*
X122957857Y-69596421D01*
X122927097Y-69697819D01*
X122917772Y-69728559D01*
X122852680Y-69850339D01*
X122765080Y-69957080D01*
X122658339Y-70044680D01*
X122596605Y-70077677D01*
X122536557Y-70109773D01*
X122404421Y-70149857D01*
X122301432Y-70160000D01*
X120832568Y-70160000D01*
X120729579Y-70149857D01*
X120597443Y-70109773D01*
X120537395Y-70077677D01*
X120475661Y-70044680D01*
X120368920Y-69957080D01*
X120281320Y-69850339D01*
X120216228Y-69728559D01*
X120206903Y-69697819D01*
X120176143Y-69596421D01*
X120162609Y-69459000D01*
X120176143Y-69321579D01*
X120216227Y-69189443D01*
X120217594Y-69186885D01*
X120281320Y-69067661D01*
X120368920Y-68960920D01*
X120475661Y-68873320D01*
X120597441Y-68808228D01*
X120597443Y-68808227D01*
X120729579Y-68768143D01*
X120832568Y-68758000D01*
X122301432Y-68758000D01*
X122404421Y-68768143D01*
X122404421Y-68768143D01*
G37*
G36*
X116154421Y-68768143D02*
G01*
X116286557Y-68808227D01*
X116286559Y-68808228D01*
X116408339Y-68873320D01*
X116515080Y-68960920D01*
X116602680Y-69067661D01*
X116666406Y-69186885D01*
X116667773Y-69189443D01*
X116707857Y-69321579D01*
X116721391Y-69459000D01*
X116707857Y-69596421D01*
X116677097Y-69697819D01*
X116667772Y-69728559D01*
X116602680Y-69850339D01*
X116515080Y-69957080D01*
X116408339Y-70044680D01*
X116346605Y-70077677D01*
X116286557Y-70109773D01*
X116154421Y-70149857D01*
X116051432Y-70160000D01*
X114982568Y-70160000D01*
X114879579Y-70149857D01*
X114747443Y-70109773D01*
X114687395Y-70077677D01*
X114625661Y-70044680D01*
X114518920Y-69957080D01*
X114431320Y-69850339D01*
X114366228Y-69728559D01*
X114356903Y-69697819D01*
X114326143Y-69596421D01*
X114312609Y-69459000D01*
X114326143Y-69321579D01*
X114366227Y-69189443D01*
X114367594Y-69186885D01*
X114431320Y-69067661D01*
X114518920Y-68960920D01*
X114625661Y-68873320D01*
X114747441Y-68808228D01*
X114747443Y-68808227D01*
X114879579Y-68768143D01*
X114982568Y-68758000D01*
X116051432Y-68758000D01*
X116154421Y-68768143D01*
X116154421Y-68768143D01*
G37*
G36*
X130688499Y-69074445D02*
G01*
X130725995Y-69085820D01*
X130760554Y-69104292D01*
X130790847Y-69129153D01*
X130815708Y-69159446D01*
X130834180Y-69194005D01*
X130845555Y-69231501D01*
X130850000Y-69276638D01*
X130850000Y-69915362D01*
X130845555Y-69960499D01*
X130834180Y-69997995D01*
X130815708Y-70032554D01*
X130790847Y-70062847D01*
X130760554Y-70087708D01*
X130725995Y-70106180D01*
X130688499Y-70117555D01*
X130643362Y-70122000D01*
X129904638Y-70122000D01*
X129859501Y-70117555D01*
X129822005Y-70106180D01*
X129787446Y-70087708D01*
X129757153Y-70062847D01*
X129732292Y-70032554D01*
X129713820Y-69997995D01*
X129702445Y-69960499D01*
X129698000Y-69915362D01*
X129698000Y-69276638D01*
X129702445Y-69231501D01*
X129713820Y-69194005D01*
X129732292Y-69159446D01*
X129757153Y-69129153D01*
X129787446Y-69104292D01*
X129822005Y-69085820D01*
X129859501Y-69074445D01*
X129904638Y-69070000D01*
X130643362Y-69070000D01*
X130688499Y-69074445D01*
X130688499Y-69074445D01*
G37*
G36*
X128938499Y-69074445D02*
G01*
X128975995Y-69085820D01*
X129010554Y-69104292D01*
X129040847Y-69129153D01*
X129065708Y-69159446D01*
X129084180Y-69194005D01*
X129095555Y-69231501D01*
X129100000Y-69276638D01*
X129100000Y-69915362D01*
X129095555Y-69960499D01*
X129084180Y-69997995D01*
X129065708Y-70032554D01*
X129040847Y-70062847D01*
X129010554Y-70087708D01*
X128975995Y-70106180D01*
X128938499Y-70117555D01*
X128893362Y-70122000D01*
X128154638Y-70122000D01*
X128109501Y-70117555D01*
X128072005Y-70106180D01*
X128037446Y-70087708D01*
X128007153Y-70062847D01*
X127982292Y-70032554D01*
X127963820Y-69997995D01*
X127952445Y-69960499D01*
X127948000Y-69915362D01*
X127948000Y-69276638D01*
X127952445Y-69231501D01*
X127963820Y-69194005D01*
X127982292Y-69159446D01*
X128007153Y-69129153D01*
X128037446Y-69104292D01*
X128072005Y-69085820D01*
X128109501Y-69074445D01*
X128154638Y-69070000D01*
X128893362Y-69070000D01*
X128938499Y-69074445D01*
X128938499Y-69074445D01*
G37*
G36*
X136539562Y-66954181D02*
G01*
X136574481Y-66964774D01*
X136606663Y-66981976D01*
X136634873Y-67005127D01*
X136658024Y-67033337D01*
X136675226Y-67065519D01*
X136685819Y-67100438D01*
X136690000Y-67142895D01*
X136690000Y-69509105D01*
X136685819Y-69551562D01*
X136675226Y-69586481D01*
X136658024Y-69618663D01*
X136634873Y-69646873D01*
X136606663Y-69670024D01*
X136574481Y-69687226D01*
X136539562Y-69697819D01*
X136497105Y-69702000D01*
X135355895Y-69702000D01*
X135313438Y-69697819D01*
X135278519Y-69687226D01*
X135246337Y-69670024D01*
X135218127Y-69646873D01*
X135194976Y-69618663D01*
X135177774Y-69586481D01*
X135167181Y-69551562D01*
X135163000Y-69509105D01*
X135163000Y-67142895D01*
X135167181Y-67100438D01*
X135177774Y-67065519D01*
X135194976Y-67033337D01*
X135218127Y-67005127D01*
X135246337Y-66981976D01*
X135278519Y-66964774D01*
X135313438Y-66954181D01*
X135355895Y-66950000D01*
X136497105Y-66950000D01*
X136539562Y-66954181D01*
X136539562Y-66954181D01*
G37*
G36*
X139514562Y-66954181D02*
G01*
X139549481Y-66964774D01*
X139581663Y-66981976D01*
X139609873Y-67005127D01*
X139633024Y-67033337D01*
X139650226Y-67065519D01*
X139660819Y-67100438D01*
X139665000Y-67142895D01*
X139665000Y-69509105D01*
X139660819Y-69551562D01*
X139650226Y-69586481D01*
X139633024Y-69618663D01*
X139609873Y-69646873D01*
X139581663Y-69670024D01*
X139549481Y-69687226D01*
X139514562Y-69697819D01*
X139472105Y-69702000D01*
X138330895Y-69702000D01*
X138288438Y-69697819D01*
X138253519Y-69687226D01*
X138221337Y-69670024D01*
X138193127Y-69646873D01*
X138169976Y-69618663D01*
X138152774Y-69586481D01*
X138142181Y-69551562D01*
X138138000Y-69509105D01*
X138138000Y-67142895D01*
X138142181Y-67100438D01*
X138152774Y-67065519D01*
X138169976Y-67033337D01*
X138193127Y-67005127D01*
X138221337Y-66981976D01*
X138253519Y-66964774D01*
X138288438Y-66954181D01*
X138330895Y-66950000D01*
X139472105Y-66950000D01*
X139514562Y-66954181D01*
X139514562Y-66954181D01*
G37*
G36*
X144665000Y-68211000D02*
G01*
X142863000Y-68211000D01*
X142863000Y-66409000D01*
X144665000Y-66409000D01*
X144665000Y-68211000D01*
X144665000Y-68211000D01*
G37*
G36*
X146414443Y-66415519D02*
G01*
X146480627Y-66422037D01*
X146650466Y-66473557D01*
X146806991Y-66557222D01*
X146842729Y-66586552D01*
X146944186Y-66669814D01*
X147027448Y-66771271D01*
X147056778Y-66807009D01*
X147140443Y-66963534D01*
X147191963Y-67133373D01*
X147209359Y-67310000D01*
X147191963Y-67486627D01*
X147140443Y-67656466D01*
X147056778Y-67812991D01*
X147045281Y-67827000D01*
X146944186Y-67950186D01*
X146845899Y-68030847D01*
X146806991Y-68062778D01*
X146650466Y-68146443D01*
X146480627Y-68197963D01*
X146414443Y-68204481D01*
X146348260Y-68211000D01*
X146259740Y-68211000D01*
X146193557Y-68204481D01*
X146127373Y-68197963D01*
X145957534Y-68146443D01*
X145801009Y-68062778D01*
X145762101Y-68030847D01*
X145663814Y-67950186D01*
X145562719Y-67827000D01*
X145551222Y-67812991D01*
X145467557Y-67656466D01*
X145416037Y-67486627D01*
X145398641Y-67310000D01*
X145416037Y-67133373D01*
X145467557Y-66963534D01*
X145551222Y-66807009D01*
X145580552Y-66771271D01*
X145663814Y-66669814D01*
X145765271Y-66586552D01*
X145801009Y-66557222D01*
X145957534Y-66473557D01*
X146127373Y-66422037D01*
X146193557Y-66415519D01*
X146259740Y-66409000D01*
X146348260Y-66409000D01*
X146414443Y-66415519D01*
X146414443Y-66415519D01*
G37*
G36*
X126257499Y-67042445D02*
G01*
X126294995Y-67053820D01*
X126329554Y-67072292D01*
X126359847Y-67097153D01*
X126384708Y-67127446D01*
X126403180Y-67162005D01*
X126414555Y-67199501D01*
X126419000Y-67244638D01*
X126419000Y-67883362D01*
X126414555Y-67928499D01*
X126403180Y-67965995D01*
X126384708Y-68000554D01*
X126359847Y-68030847D01*
X126329554Y-68055708D01*
X126294995Y-68074180D01*
X126257499Y-68085555D01*
X126212362Y-68090000D01*
X125473638Y-68090000D01*
X125428501Y-68085555D01*
X125391005Y-68074180D01*
X125356446Y-68055708D01*
X125326153Y-68030847D01*
X125301292Y-68000554D01*
X125282820Y-67965995D01*
X125271445Y-67928499D01*
X125267000Y-67883362D01*
X125267000Y-67244638D01*
X125271445Y-67199501D01*
X125282820Y-67162005D01*
X125301292Y-67127446D01*
X125326153Y-67097153D01*
X125356446Y-67072292D01*
X125391005Y-67053820D01*
X125428501Y-67042445D01*
X125473638Y-67038000D01*
X126212362Y-67038000D01*
X126257499Y-67042445D01*
X126257499Y-67042445D01*
G37*
G36*
X124507499Y-67042445D02*
G01*
X124544995Y-67053820D01*
X124579554Y-67072292D01*
X124609847Y-67097153D01*
X124634708Y-67127446D01*
X124653180Y-67162005D01*
X124664555Y-67199501D01*
X124669000Y-67244638D01*
X124669000Y-67883362D01*
X124664555Y-67928499D01*
X124653180Y-67965995D01*
X124634708Y-68000554D01*
X124609847Y-68030847D01*
X124579554Y-68055708D01*
X124544995Y-68074180D01*
X124507499Y-68085555D01*
X124462362Y-68090000D01*
X123723638Y-68090000D01*
X123678501Y-68085555D01*
X123641005Y-68074180D01*
X123606446Y-68055708D01*
X123576153Y-68030847D01*
X123551292Y-68000554D01*
X123532820Y-67965995D01*
X123521445Y-67928499D01*
X123517000Y-67883362D01*
X123517000Y-67244638D01*
X123521445Y-67199501D01*
X123532820Y-67162005D01*
X123551292Y-67127446D01*
X123576153Y-67097153D01*
X123606446Y-67072292D01*
X123641005Y-67053820D01*
X123678501Y-67042445D01*
X123723638Y-67038000D01*
X124462362Y-67038000D01*
X124507499Y-67042445D01*
X124507499Y-67042445D01*
G37*
G36*
X115589499Y-66026445D02*
G01*
X115626995Y-66037820D01*
X115661554Y-66056292D01*
X115691847Y-66081153D01*
X115716708Y-66111446D01*
X115735180Y-66146005D01*
X115746555Y-66183501D01*
X115751000Y-66228638D01*
X115751000Y-66867362D01*
X115746555Y-66912499D01*
X115735180Y-66949995D01*
X115716708Y-66984554D01*
X115691847Y-67014847D01*
X115661554Y-67039708D01*
X115626995Y-67058180D01*
X115589499Y-67069555D01*
X115544362Y-67074000D01*
X114805638Y-67074000D01*
X114760501Y-67069555D01*
X114723005Y-67058180D01*
X114688446Y-67039708D01*
X114658153Y-67014847D01*
X114633292Y-66984554D01*
X114614820Y-66949995D01*
X114603445Y-66912499D01*
X114599000Y-66867362D01*
X114599000Y-66228638D01*
X114603445Y-66183501D01*
X114614820Y-66146005D01*
X114633292Y-66111446D01*
X114658153Y-66081153D01*
X114688446Y-66056292D01*
X114723005Y-66037820D01*
X114760501Y-66026445D01*
X114805638Y-66022000D01*
X115544362Y-66022000D01*
X115589499Y-66026445D01*
X115589499Y-66026445D01*
G37*
G36*
X113839499Y-66026445D02*
G01*
X113876995Y-66037820D01*
X113911554Y-66056292D01*
X113941847Y-66081153D01*
X113966708Y-66111446D01*
X113985180Y-66146005D01*
X113996555Y-66183501D01*
X114001000Y-66228638D01*
X114001000Y-66867362D01*
X113996555Y-66912499D01*
X113985180Y-66949995D01*
X113966708Y-66984554D01*
X113941847Y-67014847D01*
X113911554Y-67039708D01*
X113876995Y-67058180D01*
X113839499Y-67069555D01*
X113794362Y-67074000D01*
X113055638Y-67074000D01*
X113010501Y-67069555D01*
X112973005Y-67058180D01*
X112938446Y-67039708D01*
X112908153Y-67014847D01*
X112883292Y-66984554D01*
X112864820Y-66949995D01*
X112853445Y-66912499D01*
X112849000Y-66867362D01*
X112849000Y-66228638D01*
X112853445Y-66183501D01*
X112864820Y-66146005D01*
X112883292Y-66111446D01*
X112908153Y-66081153D01*
X112938446Y-66056292D01*
X112973005Y-66037820D01*
X113010501Y-66026445D01*
X113055638Y-66022000D01*
X113794362Y-66022000D01*
X113839499Y-66026445D01*
X113839499Y-66026445D01*
G37*
G36*
X119173499Y-66026445D02*
G01*
X119210995Y-66037820D01*
X119245554Y-66056292D01*
X119275847Y-66081153D01*
X119300708Y-66111446D01*
X119319180Y-66146005D01*
X119330555Y-66183501D01*
X119335000Y-66228638D01*
X119335000Y-66867362D01*
X119330555Y-66912499D01*
X119319180Y-66949995D01*
X119300708Y-66984554D01*
X119275847Y-67014847D01*
X119245554Y-67039708D01*
X119210995Y-67058180D01*
X119173499Y-67069555D01*
X119128362Y-67074000D01*
X118389638Y-67074000D01*
X118344501Y-67069555D01*
X118307005Y-67058180D01*
X118272446Y-67039708D01*
X118242153Y-67014847D01*
X118217292Y-66984554D01*
X118198820Y-66949995D01*
X118187445Y-66912499D01*
X118183000Y-66867362D01*
X118183000Y-66228638D01*
X118187445Y-66183501D01*
X118198820Y-66146005D01*
X118217292Y-66111446D01*
X118242153Y-66081153D01*
X118272446Y-66056292D01*
X118307005Y-66037820D01*
X118344501Y-66026445D01*
X118389638Y-66022000D01*
X119128362Y-66022000D01*
X119173499Y-66026445D01*
X119173499Y-66026445D01*
G37*
G36*
X120923499Y-66026445D02*
G01*
X120960995Y-66037820D01*
X120995554Y-66056292D01*
X121025847Y-66081153D01*
X121050708Y-66111446D01*
X121069180Y-66146005D01*
X121080555Y-66183501D01*
X121085000Y-66228638D01*
X121085000Y-66867362D01*
X121080555Y-66912499D01*
X121069180Y-66949995D01*
X121050708Y-66984554D01*
X121025847Y-67014847D01*
X120995554Y-67039708D01*
X120960995Y-67058180D01*
X120923499Y-67069555D01*
X120878362Y-67074000D01*
X120139638Y-67074000D01*
X120094501Y-67069555D01*
X120057005Y-67058180D01*
X120022446Y-67039708D01*
X119992153Y-67014847D01*
X119967292Y-66984554D01*
X119948820Y-66949995D01*
X119937445Y-66912499D01*
X119933000Y-66867362D01*
X119933000Y-66228638D01*
X119937445Y-66183501D01*
X119948820Y-66146005D01*
X119967292Y-66111446D01*
X119992153Y-66081153D01*
X120022446Y-66056292D01*
X120057005Y-66037820D01*
X120094501Y-66026445D01*
X120139638Y-66022000D01*
X120878362Y-66022000D01*
X120923499Y-66026445D01*
X120923499Y-66026445D01*
G37*
G36*
X139493499Y-65010445D02*
G01*
X139530995Y-65021820D01*
X139565554Y-65040292D01*
X139595847Y-65065153D01*
X139620708Y-65095446D01*
X139639180Y-65130005D01*
X139650555Y-65167501D01*
X139655000Y-65212638D01*
X139655000Y-65851362D01*
X139650555Y-65896499D01*
X139639180Y-65933995D01*
X139620708Y-65968554D01*
X139595847Y-65998847D01*
X139565554Y-66023708D01*
X139530995Y-66042180D01*
X139493499Y-66053555D01*
X139448362Y-66058000D01*
X138709638Y-66058000D01*
X138664501Y-66053555D01*
X138627005Y-66042180D01*
X138592446Y-66023708D01*
X138562153Y-65998847D01*
X138537292Y-65968554D01*
X138518820Y-65933995D01*
X138507445Y-65896499D01*
X138503000Y-65851362D01*
X138503000Y-65212638D01*
X138507445Y-65167501D01*
X138518820Y-65130005D01*
X138537292Y-65095446D01*
X138562153Y-65065153D01*
X138592446Y-65040292D01*
X138627005Y-65021820D01*
X138664501Y-65010445D01*
X138709638Y-65006000D01*
X139448362Y-65006000D01*
X139493499Y-65010445D01*
X139493499Y-65010445D01*
G37*
G36*
X141243499Y-65010445D02*
G01*
X141280995Y-65021820D01*
X141315554Y-65040292D01*
X141345847Y-65065153D01*
X141370708Y-65095446D01*
X141389180Y-65130005D01*
X141400555Y-65167501D01*
X141405000Y-65212638D01*
X141405000Y-65851362D01*
X141400555Y-65896499D01*
X141389180Y-65933995D01*
X141370708Y-65968554D01*
X141345847Y-65998847D01*
X141315554Y-66023708D01*
X141280995Y-66042180D01*
X141243499Y-66053555D01*
X141198362Y-66058000D01*
X140459638Y-66058000D01*
X140414501Y-66053555D01*
X140377005Y-66042180D01*
X140342446Y-66023708D01*
X140312153Y-65998847D01*
X140287292Y-65968554D01*
X140268820Y-65933995D01*
X140257445Y-65896499D01*
X140253000Y-65851362D01*
X140253000Y-65212638D01*
X140257445Y-65167501D01*
X140268820Y-65130005D01*
X140287292Y-65095446D01*
X140312153Y-65065153D01*
X140342446Y-65040292D01*
X140377005Y-65021820D01*
X140414501Y-65010445D01*
X140459638Y-65006000D01*
X141198362Y-65006000D01*
X141243499Y-65010445D01*
X141243499Y-65010445D01*
G37*
G36*
X137052499Y-65010445D02*
G01*
X137089995Y-65021820D01*
X137124554Y-65040292D01*
X137154847Y-65065153D01*
X137179708Y-65095446D01*
X137198180Y-65130005D01*
X137209555Y-65167501D01*
X137214000Y-65212638D01*
X137214000Y-65851362D01*
X137209555Y-65896499D01*
X137198180Y-65933995D01*
X137179708Y-65968554D01*
X137154847Y-65998847D01*
X137124554Y-66023708D01*
X137089995Y-66042180D01*
X137052499Y-66053555D01*
X137007362Y-66058000D01*
X136268638Y-66058000D01*
X136223501Y-66053555D01*
X136186005Y-66042180D01*
X136151446Y-66023708D01*
X136121153Y-65998847D01*
X136096292Y-65968554D01*
X136077820Y-65933995D01*
X136066445Y-65896499D01*
X136062000Y-65851362D01*
X136062000Y-65212638D01*
X136066445Y-65167501D01*
X136077820Y-65130005D01*
X136096292Y-65095446D01*
X136121153Y-65065153D01*
X136151446Y-65040292D01*
X136186005Y-65021820D01*
X136223501Y-65010445D01*
X136268638Y-65006000D01*
X137007362Y-65006000D01*
X137052499Y-65010445D01*
X137052499Y-65010445D01*
G37*
G36*
X124507499Y-65010445D02*
G01*
X124544995Y-65021820D01*
X124579554Y-65040292D01*
X124609847Y-65065153D01*
X124634708Y-65095446D01*
X124653180Y-65130005D01*
X124664555Y-65167501D01*
X124669000Y-65212638D01*
X124669000Y-65851362D01*
X124664555Y-65896499D01*
X124653180Y-65933995D01*
X124634708Y-65968554D01*
X124609847Y-65998847D01*
X124579554Y-66023708D01*
X124544995Y-66042180D01*
X124507499Y-66053555D01*
X124462362Y-66058000D01*
X123723638Y-66058000D01*
X123678501Y-66053555D01*
X123641005Y-66042180D01*
X123606446Y-66023708D01*
X123576153Y-65998847D01*
X123551292Y-65968554D01*
X123532820Y-65933995D01*
X123521445Y-65896499D01*
X123517000Y-65851362D01*
X123517000Y-65212638D01*
X123521445Y-65167501D01*
X123532820Y-65130005D01*
X123551292Y-65095446D01*
X123576153Y-65065153D01*
X123606446Y-65040292D01*
X123641005Y-65021820D01*
X123678501Y-65010445D01*
X123723638Y-65006000D01*
X124462362Y-65006000D01*
X124507499Y-65010445D01*
X124507499Y-65010445D01*
G37*
G36*
X126257499Y-65010445D02*
G01*
X126294995Y-65021820D01*
X126329554Y-65040292D01*
X126359847Y-65065153D01*
X126384708Y-65095446D01*
X126403180Y-65130005D01*
X126414555Y-65167501D01*
X126419000Y-65212638D01*
X126419000Y-65851362D01*
X126414555Y-65896499D01*
X126403180Y-65933995D01*
X126384708Y-65968554D01*
X126359847Y-65998847D01*
X126329554Y-66023708D01*
X126294995Y-66042180D01*
X126257499Y-66053555D01*
X126212362Y-66058000D01*
X125473638Y-66058000D01*
X125428501Y-66053555D01*
X125391005Y-66042180D01*
X125356446Y-66023708D01*
X125326153Y-65998847D01*
X125301292Y-65968554D01*
X125282820Y-65933995D01*
X125271445Y-65896499D01*
X125267000Y-65851362D01*
X125267000Y-65212638D01*
X125271445Y-65167501D01*
X125282820Y-65130005D01*
X125301292Y-65095446D01*
X125326153Y-65065153D01*
X125356446Y-65040292D01*
X125391005Y-65021820D01*
X125428501Y-65010445D01*
X125473638Y-65006000D01*
X126212362Y-65006000D01*
X126257499Y-65010445D01*
X126257499Y-65010445D01*
G37*
G36*
X135302499Y-65010445D02*
G01*
X135339995Y-65021820D01*
X135374554Y-65040292D01*
X135404847Y-65065153D01*
X135429708Y-65095446D01*
X135448180Y-65130005D01*
X135459555Y-65167501D01*
X135464000Y-65212638D01*
X135464000Y-65851362D01*
X135459555Y-65896499D01*
X135448180Y-65933995D01*
X135429708Y-65968554D01*
X135404847Y-65998847D01*
X135374554Y-66023708D01*
X135339995Y-66042180D01*
X135302499Y-66053555D01*
X135257362Y-66058000D01*
X134518638Y-66058000D01*
X134473501Y-66053555D01*
X134436005Y-66042180D01*
X134401446Y-66023708D01*
X134371153Y-65998847D01*
X134346292Y-65968554D01*
X134327820Y-65933995D01*
X134316445Y-65896499D01*
X134312000Y-65851362D01*
X134312000Y-65212638D01*
X134316445Y-65167501D01*
X134327820Y-65130005D01*
X134346292Y-65095446D01*
X134371153Y-65065153D01*
X134401446Y-65040292D01*
X134436005Y-65021820D01*
X134473501Y-65010445D01*
X134518638Y-65006000D01*
X135257362Y-65006000D01*
X135302499Y-65010445D01*
X135302499Y-65010445D01*
G37*
M02*
